%TF.GenerationSoftware,KiCad,Pcbnew,(6.0.9-0)*%
%TF.CreationDate,2025-08-18T12:38:07+02:00*%
%TF.ProjectId,pt-workshop,70742d77-6f72-46b7-9368-6f702e6b6963,rev?*%
%TF.SameCoordinates,Original*%
%TF.FileFunction,Copper,L4,Bot*%
%TF.FilePolarity,Positive*%
%FSLAX46Y46*%
G04 Gerber Fmt 4.6, Leading zero omitted, Abs format (unit mm)*
G04 Created by KiCad (PCBNEW (6.0.9-0)) date 2025-08-18 12:38:07*
%MOMM*%
%LPD*%
G01*
G04 APERTURE LIST*
%TA.AperFunction,ComponentPad*%
%ADD10C,5.500000*%
%TD*%
%TA.AperFunction,ComponentPad*%
%ADD11R,1.700000X1.700000*%
%TD*%
%TA.AperFunction,ComponentPad*%
%ADD12O,1.700000X1.700000*%
%TD*%
%TA.AperFunction,ViaPad*%
%ADD13C,0.800000*%
%TD*%
%TA.AperFunction,ViaPad*%
%ADD14C,0.700000*%
%TD*%
%TA.AperFunction,Conductor*%
%ADD15C,0.300000*%
%TD*%
%TA.AperFunction,Conductor*%
%ADD16C,0.800000*%
%TD*%
G04 APERTURE END LIST*
D10*
%TO.P,H103,1,1*%
%TO.N,/PT_GND*%
X30480000Y-99060000D03*
%TD*%
%TO.P,H101,1,1*%
%TO.N,/PT_GND*%
X43180000Y-99060000D03*
%TD*%
D11*
%TO.P,J103,1,Pin_1*%
%TO.N,/PT_9V*%
X27940000Y-58420000D03*
D12*
%TO.P,J103,2,Pin_2*%
%TO.N,/PT_GND*%
X27940000Y-60960000D03*
%TO.P,J103,3,Pin_3*%
%TO.N,/PT_4.5V*%
X27940000Y-63500000D03*
%TO.P,J103,4,Pin_4*%
%TO.N,/PT_5V*%
X27940000Y-66040000D03*
%TO.P,J103,5,Pin_5*%
%TO.N,/PT_GND*%
X27940000Y-68580000D03*
%TO.P,J103,6,Pin_6*%
%TO.N,/PT_CLK*%
X27940000Y-71120000D03*
%TO.P,J103,7,Pin_7*%
%TO.N,/PT_Ref*%
X27940000Y-73660000D03*
%TO.P,J103,8,Pin_8*%
%TO.N,/PT_GND*%
X27940000Y-76200000D03*
%TO.P,J103,9,Pin_9*%
%TO.N,/PT_In*%
X27940000Y-78740000D03*
%TO.P,J103,10,Pin_10*%
%TO.N,/PT_Out*%
X27940000Y-81280000D03*
%TO.P,J103,11,Pin_11*%
%TO.N,/PT_GND*%
X27940000Y-83820000D03*
%TO.P,J103,12,Pin_12*%
%TO.N,/PT_Ic*%
X27940000Y-86360000D03*
%TO.P,J103,13,Pin_13*%
%TO.N,/PT_Iout*%
X27940000Y-88900000D03*
%TO.P,J103,14,Pin_14*%
%TO.N,/PT_GND*%
X27940000Y-91440000D03*
%TO.P,J103,15,Pin_15*%
%TO.N,/PT_Vctrl*%
X27940000Y-93980000D03*
%TD*%
D11*
%TO.P,J104,1,Pin_1*%
%TO.N,/PT_9V*%
X45720000Y-58420000D03*
D12*
%TO.P,J104,2,Pin_2*%
%TO.N,/PT_GND*%
X45720000Y-60960000D03*
%TO.P,J104,3,Pin_3*%
%TO.N,/PT_4.5V*%
X45720000Y-63500000D03*
%TO.P,J104,4,Pin_4*%
%TO.N,/PT_5V*%
X45720000Y-66040000D03*
%TO.P,J104,5,Pin_5*%
%TO.N,/PT_GND*%
X45720000Y-68580000D03*
%TO.P,J104,6,Pin_6*%
%TO.N,/PT_CLK*%
X45720000Y-71120000D03*
%TO.P,J104,7,Pin_7*%
%TO.N,/PT_Ref*%
X45720000Y-73660000D03*
%TO.P,J104,8,Pin_8*%
%TO.N,/PT_GND*%
X45720000Y-76200000D03*
%TO.P,J104,9,Pin_9*%
%TO.N,/PT_In*%
X45720000Y-78740000D03*
%TO.P,J104,10,Pin_10*%
%TO.N,/PT_Out*%
X45720000Y-81280000D03*
%TO.P,J104,11,Pin_11*%
%TO.N,/PT_GND*%
X45720000Y-83820000D03*
%TO.P,J104,12,Pin_12*%
%TO.N,/PT_Ic*%
X45720000Y-86360000D03*
%TO.P,J104,13,Pin_13*%
%TO.N,/PT_Iout*%
X45720000Y-88900000D03*
%TO.P,J104,14,Pin_14*%
%TO.N,/PT_GND*%
X45720000Y-91440000D03*
%TO.P,J104,15,Pin_15*%
%TO.N,/PT_Vctrl*%
X45720000Y-93980000D03*
%TD*%
D13*
%TO.N,/PT_GND*%
X31496000Y-91440000D03*
D14*
X39653185Y-95438629D03*
D13*
X36195000Y-59563000D03*
X32639000Y-63754000D03*
D14*
X34290000Y-88773000D03*
D13*
X42545000Y-61849000D03*
D14*
X30099000Y-68580000D03*
X38735000Y-65913000D03*
X34754054Y-70248190D03*
D13*
X34417000Y-56769000D03*
X34870211Y-94084811D03*
X38862000Y-61468000D03*
D14*
X42799000Y-81430500D03*
X30226000Y-72263000D03*
X35433000Y-89408000D03*
X40005000Y-65913000D03*
D13*
X41656000Y-57785000D03*
D14*
%TO.N,/PT_CLK*%
X33845500Y-70167500D03*
%TD*%
D15*
%TO.N,/PT_5V*%
X28790000Y-66890000D02*
X44870000Y-66890000D01*
X44870000Y-66890000D02*
X45720000Y-66040000D01*
X27940000Y-66040000D02*
X28790000Y-66890000D01*
%TO.N,/PT_Ref*%
X27940000Y-73660000D02*
X45720000Y-73660000D01*
%TO.N,/PT_4.5V*%
X44870000Y-62650000D02*
X45720000Y-63500000D01*
X27940000Y-63500000D02*
X28790000Y-62650000D01*
X28790000Y-62650000D02*
X44870000Y-62650000D01*
D16*
%TO.N,/PT_In*%
X45720000Y-78740000D02*
X27940000Y-78740000D01*
D15*
%TO.N,/PT_Out*%
X28790000Y-82130000D02*
X44870000Y-82130000D01*
X44870000Y-82130000D02*
X45720000Y-81280000D01*
X27940000Y-81280000D02*
X28790000Y-82130000D01*
%TO.N,/PT_CLK*%
X45720000Y-71120000D02*
X43942000Y-69342000D01*
X34670294Y-69342000D02*
X33845500Y-70166794D01*
X43942000Y-69342000D02*
X34670294Y-69342000D01*
X33845500Y-70166794D02*
X33845500Y-70167500D01*
%TO.N,/PT_Ic*%
X27940000Y-86360000D02*
X45720000Y-86360000D01*
%TO.N,/PT_Iout*%
X27940000Y-88900000D02*
X28790000Y-88050000D01*
X44870000Y-88050000D02*
X45720000Y-88900000D01*
X28790000Y-88050000D02*
X44870000Y-88050000D01*
%TO.N,/PT_Vctrl*%
X28790000Y-93130000D02*
X44870000Y-93130000D01*
X44870000Y-93130000D02*
X45720000Y-93980000D01*
X27940000Y-93980000D02*
X28790000Y-93130000D01*
%TD*%
%TA.AperFunction,Conductor*%
%TO.N,/PT_9V*%
G36*
X43150018Y-48770000D02*
G01*
X43164851Y-48772310D01*
X43164855Y-48772310D01*
X43173724Y-48773691D01*
X43194183Y-48771016D01*
X43216008Y-48770072D01*
X43572937Y-48785656D01*
X43583886Y-48786614D01*
X43968379Y-48837233D01*
X43979205Y-48839142D01*
X44357822Y-48923080D01*
X44368439Y-48925925D01*
X44538702Y-48979608D01*
X44738302Y-49042542D01*
X44748615Y-49046295D01*
X45106932Y-49194715D01*
X45116876Y-49199353D01*
X45460867Y-49378423D01*
X45470387Y-49383919D01*
X45797468Y-49592292D01*
X45806472Y-49598597D01*
X46114138Y-49834678D01*
X46122558Y-49841743D01*
X46408483Y-50103744D01*
X46416256Y-50111517D01*
X46678257Y-50397442D01*
X46685322Y-50405862D01*
X46921403Y-50713528D01*
X46927708Y-50722532D01*
X47136081Y-51049613D01*
X47141576Y-51059132D01*
X47273193Y-51311964D01*
X47320643Y-51403115D01*
X47325285Y-51413068D01*
X47447895Y-51709074D01*
X47473702Y-51771377D01*
X47477458Y-51781698D01*
X47513680Y-51896579D01*
X47594075Y-52151561D01*
X47596920Y-52162178D01*
X47680858Y-52540795D01*
X47682767Y-52551621D01*
X47733386Y-52936114D01*
X47734344Y-52947063D01*
X47745521Y-53203049D01*
X47749603Y-53296552D01*
X47748223Y-53321429D01*
X47746309Y-53333724D01*
X47747473Y-53342626D01*
X47747473Y-53342628D01*
X47750436Y-53365283D01*
X47751500Y-53381621D01*
X47751500Y-99010633D01*
X47750000Y-99030018D01*
X47747690Y-99044851D01*
X47747690Y-99044855D01*
X47746309Y-99053724D01*
X47748984Y-99074183D01*
X47749928Y-99096012D01*
X47734344Y-99452936D01*
X47733386Y-99463886D01*
X47682767Y-99848379D01*
X47680858Y-99859205D01*
X47596920Y-100237822D01*
X47594075Y-100248439D01*
X47477461Y-100618294D01*
X47473705Y-100628615D01*
X47419200Y-100760203D01*
X47325289Y-100986923D01*
X47320647Y-100996876D01*
X47164815Y-101296227D01*
X47141577Y-101340867D01*
X47136081Y-101350387D01*
X46927708Y-101677468D01*
X46921403Y-101686472D01*
X46685322Y-101994138D01*
X46678257Y-102002558D01*
X46420858Y-102283461D01*
X46416256Y-102288483D01*
X46408487Y-102296252D01*
X46352699Y-102347372D01*
X46122558Y-102558257D01*
X46114138Y-102565322D01*
X45806472Y-102801403D01*
X45797468Y-102807708D01*
X45470387Y-103016081D01*
X45460868Y-103021576D01*
X45116876Y-103200647D01*
X45106932Y-103205285D01*
X44748615Y-103353705D01*
X44738302Y-103357458D01*
X44538702Y-103420392D01*
X44368439Y-103474075D01*
X44357822Y-103476920D01*
X43979205Y-103560858D01*
X43968379Y-103562767D01*
X43583886Y-103613386D01*
X43572937Y-103614344D01*
X43223446Y-103629603D01*
X43198571Y-103628223D01*
X43186276Y-103626309D01*
X43177374Y-103627473D01*
X43177372Y-103627473D01*
X43162323Y-103629441D01*
X43154714Y-103630436D01*
X43138379Y-103631500D01*
X30529367Y-103631500D01*
X30509982Y-103630000D01*
X30495149Y-103627690D01*
X30495145Y-103627690D01*
X30486276Y-103626309D01*
X30465817Y-103628984D01*
X30443992Y-103629928D01*
X30087063Y-103614344D01*
X30076114Y-103613386D01*
X29691621Y-103562767D01*
X29680795Y-103560858D01*
X29302178Y-103476920D01*
X29291561Y-103474075D01*
X29121298Y-103420392D01*
X28921698Y-103357458D01*
X28911385Y-103353705D01*
X28553068Y-103205285D01*
X28543124Y-103200647D01*
X28199132Y-103021576D01*
X28189613Y-103016081D01*
X27862532Y-102807708D01*
X27853528Y-102801403D01*
X27545862Y-102565322D01*
X27537442Y-102558257D01*
X27307301Y-102347372D01*
X27251513Y-102296252D01*
X27243744Y-102288483D01*
X27239143Y-102283461D01*
X26981743Y-102002558D01*
X26974678Y-101994138D01*
X26738597Y-101686472D01*
X26732292Y-101677468D01*
X26523919Y-101350387D01*
X26518423Y-101340867D01*
X26495185Y-101296227D01*
X26339353Y-100996876D01*
X26334711Y-100986923D01*
X26240801Y-100760203D01*
X26186295Y-100628615D01*
X26182539Y-100618294D01*
X26065925Y-100248439D01*
X26063080Y-100237822D01*
X25979142Y-99859205D01*
X25977233Y-99848379D01*
X25926614Y-99463886D01*
X25925656Y-99452936D01*
X25910561Y-99107208D01*
X25912188Y-99080805D01*
X25912769Y-99077352D01*
X25912770Y-99077345D01*
X25913576Y-99072552D01*
X25913729Y-99060000D01*
X25912098Y-99048609D01*
X27216734Y-99048609D01*
X27234591Y-99401106D01*
X27235128Y-99404461D01*
X27235129Y-99404467D01*
X27250240Y-99498807D01*
X27290412Y-99749613D01*
X27383546Y-100090053D01*
X27512903Y-100418443D01*
X27514486Y-100421458D01*
X27675384Y-100727926D01*
X27675389Y-100727934D01*
X27676968Y-100730942D01*
X27678862Y-100733760D01*
X27678867Y-100733769D01*
X27698518Y-100763012D01*
X27873824Y-101023895D01*
X28101167Y-101293873D01*
X28103627Y-101296224D01*
X28103630Y-101296227D01*
X28353875Y-101535366D01*
X28353882Y-101535372D01*
X28356338Y-101537719D01*
X28636351Y-101752581D01*
X28639269Y-101754355D01*
X28935017Y-101934173D01*
X28935022Y-101934176D01*
X28937932Y-101935945D01*
X28941020Y-101937391D01*
X28941019Y-101937391D01*
X29254468Y-102084222D01*
X29254478Y-102084226D01*
X29257552Y-102085666D01*
X29260770Y-102086768D01*
X29260773Y-102086769D01*
X29588241Y-102198887D01*
X29588245Y-102198888D01*
X29591472Y-102199993D01*
X29594802Y-102200743D01*
X29594811Y-102200746D01*
X29838164Y-102255587D01*
X29935786Y-102277587D01*
X29939171Y-102277973D01*
X29939179Y-102277974D01*
X30283083Y-102317157D01*
X30283091Y-102317157D01*
X30286466Y-102317542D01*
X30289870Y-102317560D01*
X30289873Y-102317560D01*
X30481627Y-102318564D01*
X30639411Y-102319390D01*
X30642797Y-102319040D01*
X30642799Y-102319040D01*
X30987098Y-102283461D01*
X30987107Y-102283460D01*
X30990490Y-102283110D01*
X30993823Y-102282396D01*
X30993826Y-102282395D01*
X31163692Y-102245979D01*
X31335598Y-102209125D01*
X31670697Y-102098301D01*
X31991867Y-101951936D01*
X32085405Y-101896397D01*
X32292407Y-101773489D01*
X32292412Y-101773486D01*
X32295352Y-101771740D01*
X32320870Y-101752581D01*
X32574867Y-101561874D01*
X32577600Y-101559822D01*
X32835310Y-101318661D01*
X33065468Y-101051078D01*
X33265380Y-100760203D01*
X33266992Y-100757209D01*
X33266997Y-100757201D01*
X33431087Y-100452452D01*
X33432709Y-100449440D01*
X33565498Y-100122422D01*
X33573816Y-100093223D01*
X33642007Y-99853833D01*
X33662191Y-99782976D01*
X33721659Y-99435073D01*
X33723945Y-99397711D01*
X33743096Y-99084580D01*
X33743206Y-99082782D01*
X33743286Y-99060000D01*
X33742669Y-99048609D01*
X39916734Y-99048609D01*
X39934591Y-99401106D01*
X39935128Y-99404461D01*
X39935129Y-99404467D01*
X39950240Y-99498807D01*
X39990412Y-99749613D01*
X40083546Y-100090053D01*
X40212903Y-100418443D01*
X40214486Y-100421458D01*
X40375384Y-100727926D01*
X40375389Y-100727934D01*
X40376968Y-100730942D01*
X40378862Y-100733760D01*
X40378867Y-100733769D01*
X40398518Y-100763012D01*
X40573824Y-101023895D01*
X40801167Y-101293873D01*
X40803627Y-101296224D01*
X40803630Y-101296227D01*
X41053875Y-101535366D01*
X41053882Y-101535372D01*
X41056338Y-101537719D01*
X41336351Y-101752581D01*
X41339269Y-101754355D01*
X41635017Y-101934173D01*
X41635022Y-101934176D01*
X41637932Y-101935945D01*
X41641020Y-101937391D01*
X41641019Y-101937391D01*
X41954468Y-102084222D01*
X41954478Y-102084226D01*
X41957552Y-102085666D01*
X41960770Y-102086768D01*
X41960773Y-102086769D01*
X42288241Y-102198887D01*
X42288245Y-102198888D01*
X42291472Y-102199993D01*
X42294802Y-102200743D01*
X42294811Y-102200746D01*
X42538164Y-102255587D01*
X42635786Y-102277587D01*
X42639171Y-102277973D01*
X42639179Y-102277974D01*
X42983083Y-102317157D01*
X42983091Y-102317157D01*
X42986466Y-102317542D01*
X42989870Y-102317560D01*
X42989873Y-102317560D01*
X43181627Y-102318564D01*
X43339411Y-102319390D01*
X43342797Y-102319040D01*
X43342799Y-102319040D01*
X43687098Y-102283461D01*
X43687107Y-102283460D01*
X43690490Y-102283110D01*
X43693823Y-102282396D01*
X43693826Y-102282395D01*
X43863692Y-102245979D01*
X44035598Y-102209125D01*
X44370697Y-102098301D01*
X44691867Y-101951936D01*
X44785405Y-101896397D01*
X44992407Y-101773489D01*
X44992412Y-101773486D01*
X44995352Y-101771740D01*
X45020870Y-101752581D01*
X45274867Y-101561874D01*
X45277600Y-101559822D01*
X45535310Y-101318661D01*
X45765468Y-101051078D01*
X45965380Y-100760203D01*
X45966992Y-100757209D01*
X45966997Y-100757201D01*
X46131087Y-100452452D01*
X46132709Y-100449440D01*
X46265498Y-100122422D01*
X46273816Y-100093223D01*
X46342007Y-99853833D01*
X46362191Y-99782976D01*
X46421659Y-99435073D01*
X46423945Y-99397711D01*
X46443096Y-99084580D01*
X46443206Y-99082782D01*
X46443286Y-99060000D01*
X46424199Y-98707567D01*
X46367161Y-98359257D01*
X46272839Y-98019145D01*
X46269849Y-98011630D01*
X46143597Y-97694372D01*
X46142338Y-97691208D01*
X45977182Y-97379283D01*
X45970579Y-97369530D01*
X45781211Y-97089834D01*
X45781204Y-97089825D01*
X45779305Y-97087020D01*
X45777109Y-97084430D01*
X45777104Y-97084424D01*
X45688715Y-96980201D01*
X45551021Y-96817837D01*
X45295001Y-96574883D01*
X45292294Y-96572821D01*
X45292286Y-96572814D01*
X45133809Y-96452088D01*
X45014239Y-96361000D01*
X44712020Y-96178689D01*
X44708930Y-96177255D01*
X44708925Y-96177252D01*
X44508064Y-96084016D01*
X44391879Y-96030085D01*
X44388654Y-96028993D01*
X44388648Y-96028991D01*
X44060798Y-95918020D01*
X44060793Y-95918018D01*
X44057562Y-95916925D01*
X44043832Y-95913881D01*
X43974730Y-95898562D01*
X43712979Y-95840533D01*
X43588353Y-95826774D01*
X43365543Y-95802175D01*
X43365538Y-95802175D01*
X43362162Y-95801802D01*
X43358763Y-95801796D01*
X43358762Y-95801796D01*
X43192289Y-95801506D01*
X43009213Y-95801186D01*
X42878206Y-95815187D01*
X42661646Y-95838330D01*
X42661640Y-95838331D01*
X42658262Y-95838692D01*
X42313414Y-95913881D01*
X41978704Y-96025873D01*
X41975611Y-96027295D01*
X41975610Y-96027296D01*
X41852292Y-96084016D01*
X41658047Y-96173359D01*
X41655113Y-96175115D01*
X41655111Y-96175116D01*
X41632093Y-96188892D01*
X41355194Y-96354613D01*
X41073687Y-96567515D01*
X40816820Y-96809574D01*
X40587598Y-97077959D01*
X40388702Y-97369530D01*
X40222458Y-97680876D01*
X40221183Y-97684048D01*
X40221181Y-97684052D01*
X40217033Y-97694372D01*
X40090813Y-98008355D01*
X39995304Y-98348136D01*
X39994743Y-98351489D01*
X39994742Y-98351493D01*
X39937614Y-98692880D01*
X39937051Y-98696245D01*
X39916734Y-99048609D01*
X33742669Y-99048609D01*
X33724199Y-98707567D01*
X33667161Y-98359257D01*
X33572839Y-98019145D01*
X33569849Y-98011630D01*
X33443597Y-97694372D01*
X33442338Y-97691208D01*
X33277182Y-97379283D01*
X33270579Y-97369530D01*
X33081211Y-97089834D01*
X33081204Y-97089825D01*
X33079305Y-97087020D01*
X33077109Y-97084430D01*
X33077104Y-97084424D01*
X32988715Y-96980201D01*
X32851021Y-96817837D01*
X32595001Y-96574883D01*
X32592294Y-96572821D01*
X32592286Y-96572814D01*
X32433809Y-96452088D01*
X32314239Y-96361000D01*
X32012020Y-96178689D01*
X32008930Y-96177255D01*
X32008925Y-96177252D01*
X31808064Y-96084016D01*
X31691879Y-96030085D01*
X31688654Y-96028993D01*
X31688648Y-96028991D01*
X31360798Y-95918020D01*
X31360793Y-95918018D01*
X31357562Y-95916925D01*
X31343832Y-95913881D01*
X31274730Y-95898562D01*
X31012979Y-95840533D01*
X30888353Y-95826774D01*
X30665543Y-95802175D01*
X30665538Y-95802175D01*
X30662162Y-95801802D01*
X30658763Y-95801796D01*
X30658762Y-95801796D01*
X30492289Y-95801506D01*
X30309213Y-95801186D01*
X30178206Y-95815187D01*
X29961646Y-95838330D01*
X29961640Y-95838331D01*
X29958262Y-95838692D01*
X29613414Y-95913881D01*
X29278704Y-96025873D01*
X29275611Y-96027295D01*
X29275610Y-96027296D01*
X29152292Y-96084016D01*
X28958047Y-96173359D01*
X28955113Y-96175115D01*
X28955111Y-96175116D01*
X28932093Y-96188892D01*
X28655194Y-96354613D01*
X28373687Y-96567515D01*
X28116820Y-96809574D01*
X27887598Y-97077959D01*
X27688702Y-97369530D01*
X27522458Y-97680876D01*
X27521183Y-97684048D01*
X27521181Y-97684052D01*
X27517033Y-97694372D01*
X27390813Y-98008355D01*
X27295304Y-98348136D01*
X27294743Y-98351489D01*
X27294742Y-98351493D01*
X27237614Y-98692880D01*
X27237051Y-98696245D01*
X27216734Y-99048609D01*
X25912098Y-99048609D01*
X25909773Y-99032376D01*
X25908500Y-99014514D01*
X25908500Y-95438629D01*
X38789956Y-95438629D01*
X38808820Y-95618104D01*
X38864586Y-95789736D01*
X38954818Y-95946022D01*
X38959236Y-95950929D01*
X38959237Y-95950930D01*
X39031802Y-96031522D01*
X39075572Y-96080133D01*
X39080914Y-96084014D01*
X39080916Y-96084016D01*
X39216228Y-96182326D01*
X39221570Y-96186207D01*
X39227598Y-96188891D01*
X39227600Y-96188892D01*
X39380402Y-96256924D01*
X39386433Y-96259609D01*
X39474693Y-96278369D01*
X39556496Y-96295757D01*
X39556500Y-96295757D01*
X39562953Y-96297129D01*
X39743417Y-96297129D01*
X39749870Y-96295757D01*
X39749874Y-96295757D01*
X39831677Y-96278369D01*
X39919937Y-96259609D01*
X39925968Y-96256924D01*
X40078770Y-96188892D01*
X40078772Y-96188891D01*
X40084800Y-96186207D01*
X40090142Y-96182326D01*
X40225454Y-96084016D01*
X40225456Y-96084014D01*
X40230798Y-96080133D01*
X40274568Y-96031522D01*
X40347133Y-95950930D01*
X40347134Y-95950929D01*
X40351552Y-95946022D01*
X40441784Y-95789736D01*
X40497550Y-95618104D01*
X40516414Y-95438629D01*
X40497550Y-95259154D01*
X40494791Y-95250661D01*
X40443826Y-95093807D01*
X40441784Y-95087522D01*
X40351552Y-94931236D01*
X40301754Y-94875929D01*
X40235220Y-94802036D01*
X40235219Y-94802035D01*
X40230798Y-94797125D01*
X40219602Y-94788990D01*
X40090142Y-94694932D01*
X40090141Y-94694931D01*
X40084800Y-94691051D01*
X40078772Y-94688367D01*
X40078770Y-94688366D01*
X39925968Y-94620334D01*
X39925966Y-94620334D01*
X39919937Y-94617649D01*
X39811574Y-94594616D01*
X39749874Y-94581501D01*
X39749870Y-94581501D01*
X39743417Y-94580129D01*
X39562953Y-94580129D01*
X39556500Y-94581501D01*
X39556496Y-94581501D01*
X39494796Y-94594616D01*
X39386433Y-94617649D01*
X39380404Y-94620333D01*
X39380402Y-94620334D01*
X39227601Y-94688366D01*
X39227599Y-94688367D01*
X39221571Y-94691051D01*
X39216230Y-94694931D01*
X39216229Y-94694932D01*
X39080916Y-94793242D01*
X39080914Y-94793244D01*
X39075572Y-94797125D01*
X39071151Y-94802035D01*
X39071150Y-94802036D01*
X39004617Y-94875929D01*
X38954818Y-94931236D01*
X38864586Y-95087522D01*
X38862544Y-95093807D01*
X38811580Y-95250661D01*
X38808820Y-95259154D01*
X38789956Y-95438629D01*
X25908500Y-95438629D01*
X25908500Y-93946695D01*
X26577251Y-93946695D01*
X26577548Y-93951848D01*
X26577548Y-93951851D01*
X26585593Y-94091376D01*
X26590110Y-94169715D01*
X26591247Y-94174761D01*
X26591248Y-94174767D01*
X26615193Y-94281017D01*
X26639222Y-94387639D01*
X26677461Y-94481811D01*
X26717941Y-94581501D01*
X26723266Y-94594616D01*
X26774019Y-94677438D01*
X26784740Y-94694932D01*
X26839987Y-94785088D01*
X26986250Y-94953938D01*
X27158126Y-95096632D01*
X27351000Y-95209338D01*
X27559692Y-95289030D01*
X27564760Y-95290061D01*
X27564763Y-95290062D01*
X27672017Y-95311883D01*
X27778597Y-95333567D01*
X27783772Y-95333757D01*
X27783774Y-95333757D01*
X27996673Y-95341564D01*
X27996677Y-95341564D01*
X28001837Y-95341753D01*
X28006957Y-95341097D01*
X28006959Y-95341097D01*
X28218288Y-95314025D01*
X28218289Y-95314025D01*
X28223416Y-95313368D01*
X28228366Y-95311883D01*
X28432429Y-95250661D01*
X28432434Y-95250659D01*
X28437384Y-95249174D01*
X28637994Y-95150896D01*
X28819860Y-95021173D01*
X28849197Y-94991939D01*
X28974435Y-94867137D01*
X28978096Y-94863489D01*
X29037594Y-94780689D01*
X29105435Y-94686277D01*
X29108453Y-94682077D01*
X29158161Y-94581501D01*
X29205136Y-94486453D01*
X29205137Y-94486451D01*
X29207430Y-94481811D01*
X29268436Y-94281017D01*
X29270865Y-94273023D01*
X29270865Y-94273021D01*
X29272370Y-94268069D01*
X29301529Y-94046590D01*
X29303156Y-93980000D01*
X29298620Y-93924824D01*
X29312973Y-93855293D01*
X29362639Y-93804560D01*
X29424196Y-93788500D01*
X33847913Y-93788500D01*
X33916034Y-93808502D01*
X33962527Y-93862158D01*
X33973223Y-93927670D01*
X33956707Y-94084811D01*
X33976669Y-94274739D01*
X34035684Y-94456367D01*
X34131171Y-94621755D01*
X34258958Y-94763677D01*
X34413459Y-94875929D01*
X34419487Y-94878613D01*
X34419489Y-94878614D01*
X34581892Y-94950920D01*
X34587923Y-94953605D01*
X34681324Y-94973458D01*
X34768267Y-94991939D01*
X34768272Y-94991939D01*
X34774724Y-94993311D01*
X34965698Y-94993311D01*
X34972150Y-94991939D01*
X34972155Y-94991939D01*
X35059098Y-94973458D01*
X35152499Y-94953605D01*
X35158530Y-94950920D01*
X35320933Y-94878614D01*
X35320935Y-94878613D01*
X35326963Y-94875929D01*
X35481464Y-94763677D01*
X35609251Y-94621755D01*
X35704738Y-94456367D01*
X35763753Y-94274739D01*
X35783715Y-94084811D01*
X35767199Y-93927670D01*
X35779971Y-93857832D01*
X35828473Y-93805985D01*
X35892509Y-93788500D01*
X44233974Y-93788500D01*
X44302095Y-93808502D01*
X44348588Y-93862158D01*
X44359260Y-93927891D01*
X44357800Y-93941554D01*
X44357251Y-93946695D01*
X44357548Y-93951848D01*
X44357548Y-93951851D01*
X44365593Y-94091376D01*
X44370110Y-94169715D01*
X44371247Y-94174761D01*
X44371248Y-94174767D01*
X44395193Y-94281017D01*
X44419222Y-94387639D01*
X44457461Y-94481811D01*
X44497941Y-94581501D01*
X44503266Y-94594616D01*
X44554019Y-94677438D01*
X44564740Y-94694932D01*
X44619987Y-94785088D01*
X44766250Y-94953938D01*
X44938126Y-95096632D01*
X45131000Y-95209338D01*
X45339692Y-95289030D01*
X45344760Y-95290061D01*
X45344763Y-95290062D01*
X45452017Y-95311883D01*
X45558597Y-95333567D01*
X45563772Y-95333757D01*
X45563774Y-95333757D01*
X45776673Y-95341564D01*
X45776677Y-95341564D01*
X45781837Y-95341753D01*
X45786957Y-95341097D01*
X45786959Y-95341097D01*
X45998288Y-95314025D01*
X45998289Y-95314025D01*
X46003416Y-95313368D01*
X46008366Y-95311883D01*
X46212429Y-95250661D01*
X46212434Y-95250659D01*
X46217384Y-95249174D01*
X46417994Y-95150896D01*
X46599860Y-95021173D01*
X46629197Y-94991939D01*
X46754435Y-94867137D01*
X46758096Y-94863489D01*
X46817594Y-94780689D01*
X46885435Y-94686277D01*
X46888453Y-94682077D01*
X46938161Y-94581501D01*
X46985136Y-94486453D01*
X46985137Y-94486451D01*
X46987430Y-94481811D01*
X47048436Y-94281017D01*
X47050865Y-94273023D01*
X47050865Y-94273021D01*
X47052370Y-94268069D01*
X47081529Y-94046590D01*
X47083156Y-93980000D01*
X47064852Y-93757361D01*
X47010431Y-93540702D01*
X46921354Y-93335840D01*
X46800014Y-93148277D01*
X46649670Y-92983051D01*
X46645619Y-92979852D01*
X46645615Y-92979848D01*
X46478414Y-92847800D01*
X46478410Y-92847798D01*
X46474359Y-92844598D01*
X46433053Y-92821796D01*
X46383084Y-92771364D01*
X46368312Y-92701921D01*
X46393428Y-92635516D01*
X46420780Y-92608909D01*
X46464603Y-92577650D01*
X46599860Y-92481173D01*
X46758096Y-92323489D01*
X46768656Y-92308794D01*
X46885435Y-92146277D01*
X46888453Y-92142077D01*
X46898006Y-92122749D01*
X46985136Y-91946453D01*
X46985137Y-91946451D01*
X46987430Y-91941811D01*
X47052370Y-91728069D01*
X47081529Y-91506590D01*
X47083156Y-91440000D01*
X47064852Y-91217361D01*
X47010431Y-91000702D01*
X46921354Y-90795840D01*
X46881906Y-90734862D01*
X46802822Y-90612617D01*
X46802820Y-90612614D01*
X46800014Y-90608277D01*
X46649670Y-90443051D01*
X46645619Y-90439852D01*
X46645615Y-90439848D01*
X46478414Y-90307800D01*
X46478410Y-90307798D01*
X46474359Y-90304598D01*
X46433053Y-90281796D01*
X46383084Y-90231364D01*
X46368312Y-90161921D01*
X46393428Y-90095516D01*
X46420780Y-90068909D01*
X46464603Y-90037650D01*
X46599860Y-89941173D01*
X46758096Y-89783489D01*
X46817594Y-89700689D01*
X46885435Y-89606277D01*
X46888453Y-89602077D01*
X46892567Y-89593754D01*
X46985136Y-89406453D01*
X46985137Y-89406451D01*
X46987430Y-89401811D01*
X47038084Y-89235089D01*
X47050865Y-89193023D01*
X47050865Y-89193021D01*
X47052370Y-89188069D01*
X47081529Y-88966590D01*
X47081611Y-88963240D01*
X47083074Y-88903365D01*
X47083074Y-88903361D01*
X47083156Y-88900000D01*
X47064852Y-88677361D01*
X47010431Y-88460702D01*
X46921354Y-88255840D01*
X46800014Y-88068277D01*
X46649670Y-87903051D01*
X46645619Y-87899852D01*
X46645615Y-87899848D01*
X46478414Y-87767800D01*
X46478410Y-87767798D01*
X46474359Y-87764598D01*
X46433053Y-87741796D01*
X46383084Y-87691364D01*
X46368312Y-87621921D01*
X46393428Y-87555516D01*
X46420780Y-87528909D01*
X46464603Y-87497650D01*
X46599860Y-87401173D01*
X46758096Y-87243489D01*
X46817594Y-87160689D01*
X46885435Y-87066277D01*
X46888453Y-87062077D01*
X46900105Y-87038502D01*
X46985136Y-86866453D01*
X46985137Y-86866451D01*
X46987430Y-86861811D01*
X47052370Y-86648069D01*
X47081529Y-86426590D01*
X47083156Y-86360000D01*
X47064852Y-86137361D01*
X47010431Y-85920702D01*
X46921354Y-85715840D01*
X46800014Y-85528277D01*
X46649670Y-85363051D01*
X46645619Y-85359852D01*
X46645615Y-85359848D01*
X46478414Y-85227800D01*
X46478410Y-85227798D01*
X46474359Y-85224598D01*
X46433053Y-85201796D01*
X46383084Y-85151364D01*
X46368312Y-85081921D01*
X46393428Y-85015516D01*
X46420780Y-84988909D01*
X46464603Y-84957650D01*
X46599860Y-84861173D01*
X46758096Y-84703489D01*
X46817594Y-84620689D01*
X46885435Y-84526277D01*
X46888453Y-84522077D01*
X46987430Y-84321811D01*
X47052370Y-84108069D01*
X47081529Y-83886590D01*
X47083156Y-83820000D01*
X47064852Y-83597361D01*
X47010431Y-83380702D01*
X46921354Y-83175840D01*
X46881906Y-83114862D01*
X46802822Y-82992617D01*
X46802820Y-82992614D01*
X46800014Y-82988277D01*
X46649670Y-82823051D01*
X46645619Y-82819852D01*
X46645615Y-82819848D01*
X46478414Y-82687800D01*
X46478410Y-82687798D01*
X46474359Y-82684598D01*
X46433053Y-82661796D01*
X46383084Y-82611364D01*
X46368312Y-82541921D01*
X46393428Y-82475516D01*
X46420780Y-82448909D01*
X46464603Y-82417650D01*
X46599860Y-82321173D01*
X46758096Y-82163489D01*
X46817594Y-82080689D01*
X46885435Y-81986277D01*
X46888453Y-81982077D01*
X46987430Y-81781811D01*
X47052370Y-81568069D01*
X47081529Y-81346590D01*
X47083156Y-81280000D01*
X47064852Y-81057361D01*
X47010431Y-80840702D01*
X46921354Y-80635840D01*
X46800014Y-80448277D01*
X46649670Y-80283051D01*
X46645619Y-80279852D01*
X46645615Y-80279848D01*
X46478414Y-80147800D01*
X46478410Y-80147798D01*
X46474359Y-80144598D01*
X46433053Y-80121796D01*
X46383084Y-80071364D01*
X46368312Y-80001921D01*
X46393428Y-79935516D01*
X46420780Y-79908909D01*
X46464603Y-79877650D01*
X46599860Y-79781173D01*
X46758096Y-79623489D01*
X46817594Y-79540689D01*
X46885435Y-79446277D01*
X46888453Y-79442077D01*
X46987430Y-79241811D01*
X47052370Y-79028069D01*
X47081529Y-78806590D01*
X47083156Y-78740000D01*
X47064852Y-78517361D01*
X47010431Y-78300702D01*
X46921354Y-78095840D01*
X46800014Y-77908277D01*
X46649670Y-77743051D01*
X46645619Y-77739852D01*
X46645615Y-77739848D01*
X46478414Y-77607800D01*
X46478410Y-77607798D01*
X46474359Y-77604598D01*
X46433053Y-77581796D01*
X46383084Y-77531364D01*
X46368312Y-77461921D01*
X46393428Y-77395516D01*
X46420780Y-77368909D01*
X46464603Y-77337650D01*
X46599860Y-77241173D01*
X46758096Y-77083489D01*
X46817594Y-77000689D01*
X46885435Y-76906277D01*
X46888453Y-76902077D01*
X46987430Y-76701811D01*
X47052370Y-76488069D01*
X47081529Y-76266590D01*
X47083156Y-76200000D01*
X47064852Y-75977361D01*
X47010431Y-75760702D01*
X46921354Y-75555840D01*
X46800014Y-75368277D01*
X46649670Y-75203051D01*
X46645619Y-75199852D01*
X46645615Y-75199848D01*
X46478414Y-75067800D01*
X46478410Y-75067798D01*
X46474359Y-75064598D01*
X46433053Y-75041796D01*
X46383084Y-74991364D01*
X46368312Y-74921921D01*
X46393428Y-74855516D01*
X46420780Y-74828909D01*
X46464603Y-74797650D01*
X46599860Y-74701173D01*
X46758096Y-74543489D01*
X46817594Y-74460689D01*
X46885435Y-74366277D01*
X46888453Y-74362077D01*
X46900105Y-74338502D01*
X46985136Y-74166453D01*
X46985137Y-74166451D01*
X46987430Y-74161811D01*
X47052370Y-73948069D01*
X47081529Y-73726590D01*
X47083156Y-73660000D01*
X47064852Y-73437361D01*
X47010431Y-73220702D01*
X46921354Y-73015840D01*
X46864426Y-72927842D01*
X46802822Y-72832617D01*
X46802820Y-72832614D01*
X46800014Y-72828277D01*
X46649670Y-72663051D01*
X46645619Y-72659852D01*
X46645615Y-72659848D01*
X46478414Y-72527800D01*
X46478410Y-72527798D01*
X46474359Y-72524598D01*
X46433053Y-72501796D01*
X46383084Y-72451364D01*
X46368312Y-72381921D01*
X46393428Y-72315516D01*
X46420780Y-72288909D01*
X46466307Y-72256435D01*
X46599860Y-72161173D01*
X46758096Y-72003489D01*
X46817594Y-71920689D01*
X46885435Y-71826277D01*
X46888453Y-71822077D01*
X46918479Y-71761325D01*
X46985136Y-71626453D01*
X46985137Y-71626451D01*
X46987430Y-71621811D01*
X47052370Y-71408069D01*
X47081529Y-71186590D01*
X47083156Y-71120000D01*
X47064852Y-70897361D01*
X47010431Y-70680702D01*
X46921354Y-70475840D01*
X46842050Y-70353254D01*
X46802822Y-70292617D01*
X46802820Y-70292614D01*
X46800014Y-70288277D01*
X46649670Y-70123051D01*
X46645619Y-70119852D01*
X46645615Y-70119848D01*
X46478414Y-69987800D01*
X46478410Y-69987798D01*
X46474359Y-69984598D01*
X46433053Y-69961796D01*
X46383084Y-69911364D01*
X46368312Y-69841921D01*
X46393428Y-69775516D01*
X46420780Y-69748909D01*
X46464603Y-69717650D01*
X46599860Y-69621173D01*
X46758096Y-69463489D01*
X46817594Y-69380689D01*
X46885435Y-69286277D01*
X46888453Y-69282077D01*
X46971990Y-69113053D01*
X46985136Y-69086453D01*
X46985137Y-69086451D01*
X46987430Y-69081811D01*
X47052370Y-68868069D01*
X47081529Y-68646590D01*
X47083156Y-68580000D01*
X47064852Y-68357361D01*
X47010431Y-68140702D01*
X46921354Y-67935840D01*
X46805665Y-67757012D01*
X46802822Y-67752617D01*
X46802820Y-67752614D01*
X46800014Y-67748277D01*
X46649670Y-67583051D01*
X46645619Y-67579852D01*
X46645615Y-67579848D01*
X46478414Y-67447800D01*
X46478410Y-67447798D01*
X46474359Y-67444598D01*
X46433053Y-67421796D01*
X46383084Y-67371364D01*
X46368312Y-67301921D01*
X46393428Y-67235516D01*
X46420780Y-67208909D01*
X46464603Y-67177650D01*
X46599860Y-67081173D01*
X46758096Y-66923489D01*
X46817594Y-66840689D01*
X46885435Y-66746277D01*
X46888453Y-66742077D01*
X46987430Y-66541811D01*
X47052370Y-66328069D01*
X47081529Y-66106590D01*
X47081874Y-66092475D01*
X47083074Y-66043365D01*
X47083074Y-66043361D01*
X47083156Y-66040000D01*
X47064852Y-65817361D01*
X47010431Y-65600702D01*
X46921354Y-65395840D01*
X46881906Y-65334862D01*
X46802822Y-65212617D01*
X46802820Y-65212614D01*
X46800014Y-65208277D01*
X46649670Y-65043051D01*
X46645619Y-65039852D01*
X46645615Y-65039848D01*
X46478414Y-64907800D01*
X46478410Y-64907798D01*
X46474359Y-64904598D01*
X46433053Y-64881796D01*
X46383084Y-64831364D01*
X46368312Y-64761921D01*
X46393428Y-64695516D01*
X46420780Y-64668909D01*
X46489195Y-64620109D01*
X46599860Y-64541173D01*
X46758096Y-64383489D01*
X46817594Y-64300689D01*
X46885435Y-64206277D01*
X46888453Y-64202077D01*
X46923444Y-64131279D01*
X46985136Y-64006453D01*
X46985137Y-64006451D01*
X46987430Y-64001811D01*
X47052370Y-63788069D01*
X47081529Y-63566590D01*
X47083156Y-63500000D01*
X47064852Y-63277361D01*
X47010431Y-63060702D01*
X46921354Y-62855840D01*
X46800014Y-62668277D01*
X46649670Y-62503051D01*
X46645619Y-62499852D01*
X46645615Y-62499848D01*
X46478414Y-62367800D01*
X46478410Y-62367798D01*
X46474359Y-62364598D01*
X46433053Y-62341796D01*
X46383084Y-62291364D01*
X46368312Y-62221921D01*
X46393428Y-62155516D01*
X46420780Y-62128909D01*
X46464603Y-62097650D01*
X46599860Y-62001173D01*
X46611420Y-61989654D01*
X46703865Y-61897531D01*
X46758096Y-61843489D01*
X46770259Y-61826563D01*
X46885435Y-61666277D01*
X46888453Y-61662077D01*
X46987430Y-61461811D01*
X47052370Y-61248069D01*
X47081529Y-61026590D01*
X47082597Y-60982891D01*
X47083074Y-60963365D01*
X47083074Y-60963361D01*
X47083156Y-60960000D01*
X47064852Y-60737361D01*
X47010431Y-60520702D01*
X46921354Y-60315840D01*
X46800014Y-60128277D01*
X46796540Y-60124459D01*
X46796533Y-60124450D01*
X46652435Y-59966088D01*
X46621383Y-59902242D01*
X46629779Y-59831744D01*
X46674956Y-59776976D01*
X46701400Y-59763307D01*
X46808052Y-59723325D01*
X46823649Y-59714786D01*
X46925724Y-59638285D01*
X46938285Y-59625724D01*
X47014786Y-59523649D01*
X47023324Y-59508054D01*
X47068478Y-59387606D01*
X47072105Y-59372351D01*
X47077631Y-59321486D01*
X47078000Y-59314672D01*
X47078000Y-58692115D01*
X47073525Y-58676876D01*
X47072135Y-58675671D01*
X47064452Y-58674000D01*
X44380116Y-58674000D01*
X44364877Y-58678475D01*
X44363672Y-58679865D01*
X44362001Y-58687548D01*
X44362001Y-59314669D01*
X44362371Y-59321490D01*
X44367895Y-59372352D01*
X44371521Y-59387604D01*
X44416676Y-59508054D01*
X44425214Y-59523649D01*
X44501715Y-59625724D01*
X44514276Y-59638285D01*
X44616351Y-59714786D01*
X44631946Y-59723324D01*
X44740827Y-59764142D01*
X44797591Y-59806784D01*
X44822291Y-59873345D01*
X44807083Y-59942694D01*
X44787691Y-59969175D01*
X44668190Y-60094226D01*
X44660629Y-60102138D01*
X44534743Y-60286680D01*
X44502193Y-60356803D01*
X44448953Y-60471500D01*
X44440688Y-60489305D01*
X44380989Y-60704570D01*
X44357251Y-60926695D01*
X44357548Y-60931848D01*
X44357548Y-60931851D01*
X44363011Y-61026590D01*
X44370110Y-61149715D01*
X44371247Y-61154761D01*
X44371248Y-61154767D01*
X44375818Y-61175045D01*
X44419222Y-61367639D01*
X44503266Y-61574616D01*
X44619987Y-61765088D01*
X44623367Y-61768990D01*
X44635504Y-61783001D01*
X44664988Y-61847587D01*
X44654874Y-61917859D01*
X44608373Y-61971508D01*
X44540268Y-61991500D01*
X43583464Y-61991500D01*
X43515343Y-61971498D01*
X43468850Y-61917842D01*
X43459761Y-61862170D01*
X43457814Y-61862170D01*
X43457814Y-61855565D01*
X43458504Y-61849000D01*
X43438542Y-61659072D01*
X43379527Y-61477444D01*
X43374075Y-61468000D01*
X43287341Y-61317774D01*
X43284040Y-61312056D01*
X43156253Y-61170134D01*
X43001752Y-61057882D01*
X42995724Y-61055198D01*
X42995722Y-61055197D01*
X42833319Y-60982891D01*
X42833318Y-60982891D01*
X42827288Y-60980206D01*
X42716448Y-60956646D01*
X42646944Y-60941872D01*
X42646939Y-60941872D01*
X42640487Y-60940500D01*
X42449513Y-60940500D01*
X42443061Y-60941872D01*
X42443056Y-60941872D01*
X42373552Y-60956646D01*
X42262712Y-60980206D01*
X42256682Y-60982891D01*
X42256681Y-60982891D01*
X42094278Y-61055197D01*
X42094276Y-61055198D01*
X42088248Y-61057882D01*
X41933747Y-61170134D01*
X41805960Y-61312056D01*
X41802659Y-61317774D01*
X41715926Y-61468000D01*
X41710473Y-61477444D01*
X41651458Y-61659072D01*
X41631496Y-61849000D01*
X41632186Y-61855565D01*
X41632186Y-61862170D01*
X41630046Y-61862170D01*
X41619074Y-61922168D01*
X41570572Y-61974014D01*
X41506536Y-61991500D01*
X39820581Y-61991500D01*
X39752460Y-61971498D01*
X39705967Y-61917842D01*
X39695863Y-61847568D01*
X39700746Y-61826571D01*
X39755542Y-61657928D01*
X39763836Y-61579020D01*
X39774814Y-61474565D01*
X39775504Y-61468000D01*
X39755542Y-61278072D01*
X39696527Y-61096444D01*
X39601040Y-60931056D01*
X39473253Y-60789134D01*
X39318752Y-60676882D01*
X39312724Y-60674198D01*
X39312722Y-60674197D01*
X39150319Y-60601891D01*
X39150318Y-60601891D01*
X39144288Y-60599206D01*
X39050887Y-60579353D01*
X38963944Y-60560872D01*
X38963939Y-60560872D01*
X38957487Y-60559500D01*
X38766513Y-60559500D01*
X38760061Y-60560872D01*
X38760056Y-60560872D01*
X38673113Y-60579353D01*
X38579712Y-60599206D01*
X38573682Y-60601891D01*
X38573681Y-60601891D01*
X38411278Y-60674197D01*
X38411276Y-60674198D01*
X38405248Y-60676882D01*
X38250747Y-60789134D01*
X38122960Y-60931056D01*
X38027473Y-61096444D01*
X37968458Y-61278072D01*
X37948496Y-61468000D01*
X37949186Y-61474565D01*
X37960165Y-61579020D01*
X37968458Y-61657928D01*
X38023252Y-61826565D01*
X38025280Y-61897531D01*
X37988617Y-61958329D01*
X37924905Y-61989654D01*
X37903419Y-61991500D01*
X29117436Y-61991500D01*
X29049315Y-61971498D01*
X29002822Y-61917842D01*
X28992718Y-61847568D01*
X29015113Y-61791974D01*
X29034433Y-61765088D01*
X29108453Y-61662077D01*
X29207430Y-61461811D01*
X29272370Y-61248069D01*
X29301529Y-61026590D01*
X29302597Y-60982891D01*
X29303074Y-60963365D01*
X29303074Y-60963361D01*
X29303156Y-60960000D01*
X29284852Y-60737361D01*
X29230431Y-60520702D01*
X29141354Y-60315840D01*
X29020014Y-60128277D01*
X29016540Y-60124459D01*
X29016533Y-60124450D01*
X28872435Y-59966088D01*
X28841383Y-59902242D01*
X28849779Y-59831744D01*
X28894956Y-59776976D01*
X28921400Y-59763307D01*
X29028052Y-59723325D01*
X29043649Y-59714786D01*
X29145724Y-59638285D01*
X29158285Y-59625724D01*
X29205294Y-59563000D01*
X35281496Y-59563000D01*
X35282186Y-59569565D01*
X35298347Y-59723325D01*
X35301458Y-59752928D01*
X35360473Y-59934556D01*
X35455960Y-60099944D01*
X35583747Y-60241866D01*
X35738248Y-60354118D01*
X35744276Y-60356802D01*
X35744278Y-60356803D01*
X35906681Y-60429109D01*
X35912712Y-60431794D01*
X36006112Y-60451647D01*
X36093056Y-60470128D01*
X36093061Y-60470128D01*
X36099513Y-60471500D01*
X36290487Y-60471500D01*
X36296939Y-60470128D01*
X36296944Y-60470128D01*
X36383888Y-60451647D01*
X36477288Y-60431794D01*
X36483319Y-60429109D01*
X36645722Y-60356803D01*
X36645724Y-60356802D01*
X36651752Y-60354118D01*
X36806253Y-60241866D01*
X36934040Y-60099944D01*
X37029527Y-59934556D01*
X37088542Y-59752928D01*
X37091654Y-59723325D01*
X37107814Y-59569565D01*
X37108504Y-59563000D01*
X37090070Y-59387606D01*
X37089232Y-59379635D01*
X37089232Y-59379633D01*
X37088542Y-59373072D01*
X37029527Y-59191444D01*
X36934040Y-59026056D01*
X36806253Y-58884134D01*
X36651752Y-58771882D01*
X36645724Y-58769198D01*
X36645722Y-58769197D01*
X36483319Y-58696891D01*
X36483318Y-58696891D01*
X36477288Y-58694206D01*
X36382227Y-58674000D01*
X36296944Y-58655872D01*
X36296939Y-58655872D01*
X36290487Y-58654500D01*
X36099513Y-58654500D01*
X36093061Y-58655872D01*
X36093056Y-58655872D01*
X36007773Y-58674000D01*
X35912712Y-58694206D01*
X35906682Y-58696891D01*
X35906681Y-58696891D01*
X35744278Y-58769197D01*
X35744276Y-58769198D01*
X35738248Y-58771882D01*
X35583747Y-58884134D01*
X35455960Y-59026056D01*
X35360473Y-59191444D01*
X35301458Y-59373072D01*
X35300768Y-59379633D01*
X35300768Y-59379635D01*
X35299930Y-59387606D01*
X35281496Y-59563000D01*
X29205294Y-59563000D01*
X29234786Y-59523649D01*
X29243324Y-59508054D01*
X29288478Y-59387606D01*
X29292105Y-59372351D01*
X29297631Y-59321486D01*
X29298000Y-59314672D01*
X29298000Y-58692115D01*
X29293525Y-58676876D01*
X29292135Y-58675671D01*
X29284452Y-58674000D01*
X26600116Y-58674000D01*
X26584877Y-58678475D01*
X26583672Y-58679865D01*
X26582001Y-58687548D01*
X26582001Y-59314669D01*
X26582371Y-59321490D01*
X26587895Y-59372352D01*
X26591521Y-59387604D01*
X26636676Y-59508054D01*
X26645214Y-59523649D01*
X26721715Y-59625724D01*
X26734276Y-59638285D01*
X26836351Y-59714786D01*
X26851946Y-59723324D01*
X26960827Y-59764142D01*
X27017591Y-59806784D01*
X27042291Y-59873345D01*
X27027083Y-59942694D01*
X27007691Y-59969175D01*
X26888190Y-60094226D01*
X26880629Y-60102138D01*
X26754743Y-60286680D01*
X26722193Y-60356803D01*
X26668953Y-60471500D01*
X26660688Y-60489305D01*
X26600989Y-60704570D01*
X26577251Y-60926695D01*
X26577548Y-60931848D01*
X26577548Y-60931851D01*
X26583011Y-61026590D01*
X26590110Y-61149715D01*
X26591247Y-61154761D01*
X26591248Y-61154767D01*
X26595818Y-61175045D01*
X26639222Y-61367639D01*
X26723266Y-61574616D01*
X26839987Y-61765088D01*
X26986250Y-61933938D01*
X27158126Y-62076632D01*
X27228595Y-62117811D01*
X27231445Y-62119476D01*
X27280169Y-62171114D01*
X27293240Y-62240897D01*
X27266509Y-62306669D01*
X27226055Y-62340027D01*
X27213607Y-62346507D01*
X27209474Y-62349610D01*
X27209471Y-62349612D01*
X27185247Y-62367800D01*
X27034965Y-62480635D01*
X26880629Y-62642138D01*
X26754743Y-62826680D01*
X26660688Y-63029305D01*
X26600989Y-63244570D01*
X26577251Y-63466695D01*
X26577548Y-63471848D01*
X26577548Y-63471851D01*
X26583011Y-63566590D01*
X26590110Y-63689715D01*
X26591247Y-63694761D01*
X26591248Y-63694767D01*
X26603118Y-63747435D01*
X26639222Y-63907639D01*
X26723266Y-64114616D01*
X26725965Y-64119020D01*
X26831320Y-64290944D01*
X26839987Y-64305088D01*
X26986250Y-64473938D01*
X27158126Y-64616632D01*
X27168671Y-64622794D01*
X27231445Y-64659476D01*
X27280169Y-64711114D01*
X27293240Y-64780897D01*
X27266509Y-64846669D01*
X27226055Y-64880027D01*
X27213607Y-64886507D01*
X27209474Y-64889610D01*
X27209471Y-64889612D01*
X27185247Y-64907800D01*
X27034965Y-65020635D01*
X26880629Y-65182138D01*
X26754743Y-65366680D01*
X26739003Y-65400590D01*
X26664129Y-65561893D01*
X26660688Y-65569305D01*
X26600989Y-65784570D01*
X26577251Y-66006695D01*
X26577548Y-66011848D01*
X26577548Y-66011851D01*
X26583011Y-66106590D01*
X26590110Y-66229715D01*
X26591247Y-66234761D01*
X26591248Y-66234767D01*
X26611119Y-66322939D01*
X26639222Y-66447639D01*
X26723266Y-66654616D01*
X26839987Y-66845088D01*
X26986250Y-67013938D01*
X27158126Y-67156632D01*
X27228595Y-67197811D01*
X27231445Y-67199476D01*
X27280169Y-67251114D01*
X27293240Y-67320897D01*
X27266509Y-67386669D01*
X27226055Y-67420027D01*
X27213607Y-67426507D01*
X27209474Y-67429610D01*
X27209471Y-67429612D01*
X27048080Y-67550788D01*
X27034965Y-67560635D01*
X26880629Y-67722138D01*
X26877715Y-67726410D01*
X26877714Y-67726411D01*
X26855470Y-67759020D01*
X26754743Y-67906680D01*
X26739975Y-67938496D01*
X26672739Y-68083344D01*
X26660688Y-68109305D01*
X26600989Y-68324570D01*
X26577251Y-68546695D01*
X26577548Y-68551848D01*
X26577548Y-68551851D01*
X26585107Y-68682941D01*
X26590110Y-68769715D01*
X26591247Y-68774761D01*
X26591248Y-68774767D01*
X26608992Y-68853499D01*
X26639222Y-68987639D01*
X26723266Y-69194616D01*
X26774019Y-69277438D01*
X26816353Y-69346520D01*
X26839987Y-69385088D01*
X26986250Y-69553938D01*
X27158126Y-69696632D01*
X27228595Y-69737811D01*
X27231445Y-69739476D01*
X27280169Y-69791114D01*
X27293240Y-69860897D01*
X27266509Y-69926669D01*
X27226055Y-69960027D01*
X27213607Y-69966507D01*
X27209474Y-69969610D01*
X27209471Y-69969612D01*
X27039100Y-70097530D01*
X27034965Y-70100635D01*
X26880629Y-70262138D01*
X26754743Y-70446680D01*
X26660688Y-70649305D01*
X26600989Y-70864570D01*
X26577251Y-71086695D01*
X26577548Y-71091848D01*
X26577548Y-71091851D01*
X26583011Y-71186590D01*
X26590110Y-71309715D01*
X26591247Y-71314761D01*
X26591248Y-71314767D01*
X26611119Y-71402939D01*
X26639222Y-71527639D01*
X26723266Y-71734616D01*
X26725965Y-71739020D01*
X26835753Y-71918178D01*
X26839987Y-71925088D01*
X26986250Y-72093938D01*
X27158126Y-72236632D01*
X27192015Y-72256435D01*
X27231445Y-72279476D01*
X27280169Y-72331114D01*
X27293240Y-72400897D01*
X27266509Y-72466669D01*
X27226055Y-72500027D01*
X27213607Y-72506507D01*
X27209474Y-72509610D01*
X27209471Y-72509612D01*
X27039100Y-72637530D01*
X27034965Y-72640635D01*
X27031393Y-72644373D01*
X26916430Y-72764675D01*
X26880629Y-72802138D01*
X26754743Y-72986680D01*
X26660688Y-73189305D01*
X26600989Y-73404570D01*
X26577251Y-73626695D01*
X26577548Y-73631848D01*
X26577548Y-73631851D01*
X26583011Y-73726590D01*
X26590110Y-73849715D01*
X26591247Y-73854761D01*
X26591248Y-73854767D01*
X26611119Y-73942939D01*
X26639222Y-74067639D01*
X26723266Y-74274616D01*
X26725965Y-74279020D01*
X26837291Y-74460688D01*
X26839987Y-74465088D01*
X26986250Y-74633938D01*
X27158126Y-74776632D01*
X27228595Y-74817811D01*
X27231445Y-74819476D01*
X27280169Y-74871114D01*
X27293240Y-74940897D01*
X27266509Y-75006669D01*
X27226055Y-75040027D01*
X27213607Y-75046507D01*
X27209474Y-75049610D01*
X27209471Y-75049612D01*
X27185247Y-75067800D01*
X27034965Y-75180635D01*
X26880629Y-75342138D01*
X26754743Y-75526680D01*
X26660688Y-75729305D01*
X26600989Y-75944570D01*
X26577251Y-76166695D01*
X26577548Y-76171848D01*
X26577548Y-76171851D01*
X26583011Y-76266590D01*
X26590110Y-76389715D01*
X26591247Y-76394761D01*
X26591248Y-76394767D01*
X26611119Y-76482939D01*
X26639222Y-76607639D01*
X26723266Y-76814616D01*
X26839987Y-77005088D01*
X26986250Y-77173938D01*
X27158126Y-77316632D01*
X27228595Y-77357811D01*
X27231445Y-77359476D01*
X27280169Y-77411114D01*
X27293240Y-77480897D01*
X27266509Y-77546669D01*
X27226055Y-77580027D01*
X27213607Y-77586507D01*
X27209474Y-77589610D01*
X27209471Y-77589612D01*
X27185247Y-77607800D01*
X27034965Y-77720635D01*
X26880629Y-77882138D01*
X26754743Y-78066680D01*
X26660688Y-78269305D01*
X26600989Y-78484570D01*
X26577251Y-78706695D01*
X26577548Y-78711848D01*
X26577548Y-78711851D01*
X26583011Y-78806590D01*
X26590110Y-78929715D01*
X26591247Y-78934761D01*
X26591248Y-78934767D01*
X26611119Y-79022939D01*
X26639222Y-79147639D01*
X26723266Y-79354616D01*
X26839987Y-79545088D01*
X26986250Y-79713938D01*
X27158126Y-79856632D01*
X27228595Y-79897811D01*
X27231445Y-79899476D01*
X27280169Y-79951114D01*
X27293240Y-80020897D01*
X27266509Y-80086669D01*
X27226055Y-80120027D01*
X27213607Y-80126507D01*
X27209474Y-80129610D01*
X27209471Y-80129612D01*
X27185247Y-80147800D01*
X27034965Y-80260635D01*
X26880629Y-80422138D01*
X26754743Y-80606680D01*
X26739003Y-80640590D01*
X26671918Y-80785113D01*
X26660688Y-80809305D01*
X26600989Y-81024570D01*
X26577251Y-81246695D01*
X26577548Y-81251848D01*
X26577548Y-81251851D01*
X26583011Y-81346590D01*
X26590110Y-81469715D01*
X26591247Y-81474761D01*
X26591248Y-81474767D01*
X26611119Y-81562939D01*
X26639222Y-81687639D01*
X26723266Y-81894616D01*
X26839987Y-82085088D01*
X26986250Y-82253938D01*
X27158126Y-82396632D01*
X27228595Y-82437811D01*
X27231445Y-82439476D01*
X27280169Y-82491114D01*
X27293240Y-82560897D01*
X27266509Y-82626669D01*
X27226055Y-82660027D01*
X27213607Y-82666507D01*
X27209474Y-82669610D01*
X27209471Y-82669612D01*
X27048080Y-82790788D01*
X27034965Y-82800635D01*
X26880629Y-82962138D01*
X26754743Y-83146680D01*
X26660688Y-83349305D01*
X26600989Y-83564570D01*
X26577251Y-83786695D01*
X26577548Y-83791848D01*
X26577548Y-83791851D01*
X26583011Y-83886590D01*
X26590110Y-84009715D01*
X26591247Y-84014761D01*
X26591248Y-84014767D01*
X26611119Y-84102939D01*
X26639222Y-84227639D01*
X26723266Y-84434616D01*
X26839987Y-84625088D01*
X26986250Y-84793938D01*
X27158126Y-84936632D01*
X27228595Y-84977811D01*
X27231445Y-84979476D01*
X27280169Y-85031114D01*
X27293240Y-85100897D01*
X27266509Y-85166669D01*
X27226055Y-85200027D01*
X27213607Y-85206507D01*
X27209474Y-85209610D01*
X27209471Y-85209612D01*
X27185247Y-85227800D01*
X27034965Y-85340635D01*
X26880629Y-85502138D01*
X26754743Y-85686680D01*
X26660688Y-85889305D01*
X26600989Y-86104570D01*
X26577251Y-86326695D01*
X26577548Y-86331848D01*
X26577548Y-86331851D01*
X26583011Y-86426590D01*
X26590110Y-86549715D01*
X26591247Y-86554761D01*
X26591248Y-86554767D01*
X26611119Y-86642939D01*
X26639222Y-86767639D01*
X26723266Y-86974616D01*
X26725965Y-86979020D01*
X26837291Y-87160688D01*
X26839987Y-87165088D01*
X26986250Y-87333938D01*
X27158126Y-87476632D01*
X27228595Y-87517811D01*
X27231445Y-87519476D01*
X27280169Y-87571114D01*
X27293240Y-87640897D01*
X27266509Y-87706669D01*
X27226055Y-87740027D01*
X27213607Y-87746507D01*
X27209474Y-87749610D01*
X27209471Y-87749612D01*
X27185247Y-87767800D01*
X27034965Y-87880635D01*
X26880629Y-88042138D01*
X26754743Y-88226680D01*
X26660688Y-88429305D01*
X26600989Y-88644570D01*
X26577251Y-88866695D01*
X26577548Y-88871848D01*
X26577548Y-88871851D01*
X26588580Y-89063178D01*
X26590110Y-89089715D01*
X26591247Y-89094761D01*
X26591248Y-89094767D01*
X26599150Y-89129830D01*
X26639222Y-89307639D01*
X26723266Y-89514616D01*
X26839987Y-89705088D01*
X26986250Y-89873938D01*
X27158126Y-90016632D01*
X27205976Y-90044593D01*
X27231445Y-90059476D01*
X27280169Y-90111114D01*
X27293240Y-90180897D01*
X27266509Y-90246669D01*
X27226055Y-90280027D01*
X27213607Y-90286507D01*
X27209474Y-90289610D01*
X27209471Y-90289612D01*
X27185247Y-90307800D01*
X27034965Y-90420635D01*
X26880629Y-90582138D01*
X26754743Y-90766680D01*
X26660688Y-90969305D01*
X26600989Y-91184570D01*
X26577251Y-91406695D01*
X26577548Y-91411848D01*
X26577548Y-91411851D01*
X26583011Y-91506590D01*
X26590110Y-91629715D01*
X26591247Y-91634761D01*
X26591248Y-91634767D01*
X26611119Y-91722939D01*
X26639222Y-91847639D01*
X26723266Y-92054616D01*
X26839987Y-92245088D01*
X26986250Y-92413938D01*
X27158126Y-92556632D01*
X27228595Y-92597811D01*
X27231445Y-92599476D01*
X27280169Y-92651114D01*
X27293240Y-92720897D01*
X27266509Y-92786669D01*
X27226055Y-92820027D01*
X27213607Y-92826507D01*
X27209474Y-92829610D01*
X27209471Y-92829612D01*
X27185247Y-92847800D01*
X27034965Y-92960635D01*
X26880629Y-93122138D01*
X26754743Y-93306680D01*
X26660688Y-93509305D01*
X26600989Y-93724570D01*
X26577251Y-93946695D01*
X25908500Y-93946695D01*
X25908500Y-58147885D01*
X26582000Y-58147885D01*
X26586475Y-58163124D01*
X26587865Y-58164329D01*
X26595548Y-58166000D01*
X27667885Y-58166000D01*
X27683124Y-58161525D01*
X27684329Y-58160135D01*
X27686000Y-58152452D01*
X27686000Y-58147885D01*
X28194000Y-58147885D01*
X28198475Y-58163124D01*
X28199865Y-58164329D01*
X28207548Y-58166000D01*
X29279884Y-58166000D01*
X29295123Y-58161525D01*
X29296328Y-58160135D01*
X29297999Y-58152452D01*
X29297999Y-57785000D01*
X40742496Y-57785000D01*
X40762458Y-57974928D01*
X40821473Y-58156556D01*
X40824776Y-58162278D01*
X40824777Y-58162279D01*
X40858686Y-58221010D01*
X40916960Y-58321944D01*
X41044747Y-58463866D01*
X41199248Y-58576118D01*
X41205276Y-58578802D01*
X41205278Y-58578803D01*
X41367681Y-58651109D01*
X41373712Y-58653794D01*
X41467113Y-58673647D01*
X41554056Y-58692128D01*
X41554061Y-58692128D01*
X41560513Y-58693500D01*
X41751487Y-58693500D01*
X41757939Y-58692128D01*
X41757944Y-58692128D01*
X41844887Y-58673647D01*
X41938288Y-58653794D01*
X41944319Y-58651109D01*
X42106722Y-58578803D01*
X42106724Y-58578802D01*
X42112752Y-58576118D01*
X42267253Y-58463866D01*
X42395040Y-58321944D01*
X42453314Y-58221010D01*
X42487223Y-58162279D01*
X42487224Y-58162278D01*
X42490527Y-58156556D01*
X42493344Y-58147885D01*
X44362000Y-58147885D01*
X44366475Y-58163124D01*
X44367865Y-58164329D01*
X44375548Y-58166000D01*
X45447885Y-58166000D01*
X45463124Y-58161525D01*
X45464329Y-58160135D01*
X45466000Y-58152452D01*
X45466000Y-58147885D01*
X45974000Y-58147885D01*
X45978475Y-58163124D01*
X45979865Y-58164329D01*
X45987548Y-58166000D01*
X47059884Y-58166000D01*
X47075123Y-58161525D01*
X47076328Y-58160135D01*
X47077999Y-58152452D01*
X47077999Y-57525331D01*
X47077629Y-57518510D01*
X47072105Y-57467648D01*
X47068479Y-57452396D01*
X47023324Y-57331946D01*
X47014786Y-57316351D01*
X46938285Y-57214276D01*
X46925724Y-57201715D01*
X46823649Y-57125214D01*
X46808054Y-57116676D01*
X46687606Y-57071522D01*
X46672351Y-57067895D01*
X46621486Y-57062369D01*
X46614672Y-57062000D01*
X45992115Y-57062000D01*
X45976876Y-57066475D01*
X45975671Y-57067865D01*
X45974000Y-57075548D01*
X45974000Y-58147885D01*
X45466000Y-58147885D01*
X45466000Y-57080116D01*
X45461525Y-57064877D01*
X45460135Y-57063672D01*
X45452452Y-57062001D01*
X44825331Y-57062001D01*
X44818510Y-57062371D01*
X44767648Y-57067895D01*
X44752396Y-57071521D01*
X44631946Y-57116676D01*
X44616351Y-57125214D01*
X44514276Y-57201715D01*
X44501715Y-57214276D01*
X44425214Y-57316351D01*
X44416676Y-57331946D01*
X44371522Y-57452394D01*
X44367895Y-57467649D01*
X44362369Y-57518514D01*
X44362000Y-57525328D01*
X44362000Y-58147885D01*
X42493344Y-58147885D01*
X42549542Y-57974928D01*
X42569504Y-57785000D01*
X42568814Y-57778435D01*
X42550232Y-57601635D01*
X42550232Y-57601633D01*
X42549542Y-57595072D01*
X42490527Y-57413444D01*
X42395040Y-57248056D01*
X42364625Y-57214276D01*
X42271675Y-57111045D01*
X42271674Y-57111044D01*
X42267253Y-57106134D01*
X42112752Y-56993882D01*
X42106724Y-56991198D01*
X42106722Y-56991197D01*
X41944319Y-56918891D01*
X41944318Y-56918891D01*
X41938288Y-56916206D01*
X41844888Y-56896353D01*
X41757944Y-56877872D01*
X41757939Y-56877872D01*
X41751487Y-56876500D01*
X41560513Y-56876500D01*
X41554061Y-56877872D01*
X41554056Y-56877872D01*
X41467112Y-56896353D01*
X41373712Y-56916206D01*
X41367682Y-56918891D01*
X41367681Y-56918891D01*
X41205278Y-56991197D01*
X41205276Y-56991198D01*
X41199248Y-56993882D01*
X41044747Y-57106134D01*
X41040326Y-57111044D01*
X41040325Y-57111045D01*
X40947376Y-57214276D01*
X40916960Y-57248056D01*
X40821473Y-57413444D01*
X40762458Y-57595072D01*
X40761768Y-57601633D01*
X40761768Y-57601635D01*
X40743186Y-57778435D01*
X40742496Y-57785000D01*
X29297999Y-57785000D01*
X29297999Y-57525331D01*
X29297629Y-57518510D01*
X29292105Y-57467648D01*
X29288479Y-57452396D01*
X29243324Y-57331946D01*
X29234786Y-57316351D01*
X29158285Y-57214276D01*
X29145724Y-57201715D01*
X29043649Y-57125214D01*
X29028054Y-57116676D01*
X28907606Y-57071522D01*
X28892351Y-57067895D01*
X28841486Y-57062369D01*
X28834672Y-57062000D01*
X28212115Y-57062000D01*
X28196876Y-57066475D01*
X28195671Y-57067865D01*
X28194000Y-57075548D01*
X28194000Y-58147885D01*
X27686000Y-58147885D01*
X27686000Y-57080116D01*
X27681525Y-57064877D01*
X27680135Y-57063672D01*
X27672452Y-57062001D01*
X27045331Y-57062001D01*
X27038510Y-57062371D01*
X26987648Y-57067895D01*
X26972396Y-57071521D01*
X26851946Y-57116676D01*
X26836351Y-57125214D01*
X26734276Y-57201715D01*
X26721715Y-57214276D01*
X26645214Y-57316351D01*
X26636676Y-57331946D01*
X26591522Y-57452394D01*
X26587895Y-57467649D01*
X26582369Y-57518514D01*
X26582000Y-57525328D01*
X26582000Y-58147885D01*
X25908500Y-58147885D01*
X25908500Y-56769000D01*
X33503496Y-56769000D01*
X33504186Y-56775565D01*
X33518824Y-56914834D01*
X33523458Y-56958928D01*
X33582473Y-57140556D01*
X33677960Y-57305944D01*
X33805747Y-57447866D01*
X33960248Y-57560118D01*
X33966276Y-57562802D01*
X33966278Y-57562803D01*
X34038756Y-57595072D01*
X34134712Y-57637794D01*
X34228113Y-57657647D01*
X34315056Y-57676128D01*
X34315061Y-57676128D01*
X34321513Y-57677500D01*
X34512487Y-57677500D01*
X34518939Y-57676128D01*
X34518944Y-57676128D01*
X34605887Y-57657647D01*
X34699288Y-57637794D01*
X34795244Y-57595072D01*
X34867722Y-57562803D01*
X34867724Y-57562802D01*
X34873752Y-57560118D01*
X35028253Y-57447866D01*
X35156040Y-57305944D01*
X35251527Y-57140556D01*
X35310542Y-56958928D01*
X35315177Y-56914834D01*
X35329814Y-56775565D01*
X35330504Y-56769000D01*
X35310542Y-56579072D01*
X35251527Y-56397444D01*
X35156040Y-56232056D01*
X35028253Y-56090134D01*
X34873752Y-55977882D01*
X34867724Y-55975198D01*
X34867722Y-55975197D01*
X34705319Y-55902891D01*
X34705318Y-55902891D01*
X34699288Y-55900206D01*
X34605888Y-55880353D01*
X34518944Y-55861872D01*
X34518939Y-55861872D01*
X34512487Y-55860500D01*
X34321513Y-55860500D01*
X34315061Y-55861872D01*
X34315056Y-55861872D01*
X34228112Y-55880353D01*
X34134712Y-55900206D01*
X34128682Y-55902891D01*
X34128681Y-55902891D01*
X33966278Y-55975197D01*
X33966276Y-55975198D01*
X33960248Y-55977882D01*
X33805747Y-56090134D01*
X33677960Y-56232056D01*
X33582473Y-56397444D01*
X33523458Y-56579072D01*
X33503496Y-56769000D01*
X25908500Y-56769000D01*
X25908500Y-53472703D01*
X28370743Y-53472703D01*
X28408268Y-53757734D01*
X28484129Y-54035036D01*
X28596923Y-54299476D01*
X28744561Y-54546161D01*
X28924313Y-54770528D01*
X29132851Y-54968423D01*
X29366317Y-55136186D01*
X29370112Y-55138195D01*
X29370113Y-55138196D01*
X29391869Y-55149715D01*
X29620392Y-55270712D01*
X29890373Y-55369511D01*
X30171264Y-55430755D01*
X30199841Y-55433004D01*
X30394282Y-55448307D01*
X30394291Y-55448307D01*
X30396739Y-55448500D01*
X30552271Y-55448500D01*
X30554407Y-55448354D01*
X30554418Y-55448354D01*
X30762548Y-55434165D01*
X30762554Y-55434164D01*
X30766825Y-55433873D01*
X30771020Y-55433004D01*
X30771022Y-55433004D01*
X30907584Y-55404723D01*
X31048342Y-55375574D01*
X31319343Y-55279607D01*
X31574812Y-55147750D01*
X31578313Y-55145289D01*
X31578317Y-55145287D01*
X31692417Y-55065096D01*
X31810023Y-54982441D01*
X32020622Y-54786740D01*
X32202713Y-54564268D01*
X32352927Y-54319142D01*
X32468483Y-54055898D01*
X32547244Y-53779406D01*
X32587751Y-53494784D01*
X32587845Y-53476951D01*
X32587867Y-53472703D01*
X41070743Y-53472703D01*
X41108268Y-53757734D01*
X41184129Y-54035036D01*
X41296923Y-54299476D01*
X41444561Y-54546161D01*
X41624313Y-54770528D01*
X41832851Y-54968423D01*
X42066317Y-55136186D01*
X42070112Y-55138195D01*
X42070113Y-55138196D01*
X42091869Y-55149715D01*
X42320392Y-55270712D01*
X42590373Y-55369511D01*
X42871264Y-55430755D01*
X42899841Y-55433004D01*
X43094282Y-55448307D01*
X43094291Y-55448307D01*
X43096739Y-55448500D01*
X43252271Y-55448500D01*
X43254407Y-55448354D01*
X43254418Y-55448354D01*
X43462548Y-55434165D01*
X43462554Y-55434164D01*
X43466825Y-55433873D01*
X43471020Y-55433004D01*
X43471022Y-55433004D01*
X43607584Y-55404723D01*
X43748342Y-55375574D01*
X44019343Y-55279607D01*
X44274812Y-55147750D01*
X44278313Y-55145289D01*
X44278317Y-55145287D01*
X44392417Y-55065096D01*
X44510023Y-54982441D01*
X44720622Y-54786740D01*
X44902713Y-54564268D01*
X45052927Y-54319142D01*
X45168483Y-54055898D01*
X45247244Y-53779406D01*
X45287751Y-53494784D01*
X45287845Y-53476951D01*
X45289235Y-53211583D01*
X45289235Y-53211576D01*
X45289257Y-53207297D01*
X45251732Y-52922266D01*
X45175871Y-52644964D01*
X45063077Y-52380524D01*
X44932400Y-52162178D01*
X44917643Y-52137521D01*
X44917640Y-52137517D01*
X44915439Y-52133839D01*
X44735687Y-51909472D01*
X44527149Y-51711577D01*
X44293683Y-51543814D01*
X44271843Y-51532250D01*
X44248654Y-51519972D01*
X44039608Y-51409288D01*
X43769627Y-51310489D01*
X43488736Y-51249245D01*
X43457685Y-51246801D01*
X43265718Y-51231693D01*
X43265709Y-51231693D01*
X43263261Y-51231500D01*
X43107729Y-51231500D01*
X43105593Y-51231646D01*
X43105582Y-51231646D01*
X42897452Y-51245835D01*
X42897446Y-51245836D01*
X42893175Y-51246127D01*
X42888980Y-51246996D01*
X42888978Y-51246996D01*
X42752417Y-51275276D01*
X42611658Y-51304426D01*
X42340657Y-51400393D01*
X42085188Y-51532250D01*
X42081687Y-51534711D01*
X42081683Y-51534713D01*
X42071594Y-51541804D01*
X41849977Y-51697559D01*
X41639378Y-51893260D01*
X41457287Y-52115732D01*
X41307073Y-52360858D01*
X41191517Y-52624102D01*
X41112756Y-52900594D01*
X41072249Y-53185216D01*
X41072227Y-53189505D01*
X41072226Y-53189512D01*
X41071263Y-53373421D01*
X41070743Y-53472703D01*
X32587867Y-53472703D01*
X32589235Y-53211583D01*
X32589235Y-53211576D01*
X32589257Y-53207297D01*
X32551732Y-52922266D01*
X32475871Y-52644964D01*
X32363077Y-52380524D01*
X32232400Y-52162178D01*
X32217643Y-52137521D01*
X32217640Y-52137517D01*
X32215439Y-52133839D01*
X32035687Y-51909472D01*
X31827149Y-51711577D01*
X31593683Y-51543814D01*
X31571843Y-51532250D01*
X31548654Y-51519972D01*
X31339608Y-51409288D01*
X31069627Y-51310489D01*
X30788736Y-51249245D01*
X30757685Y-51246801D01*
X30565718Y-51231693D01*
X30565709Y-51231693D01*
X30563261Y-51231500D01*
X30407729Y-51231500D01*
X30405593Y-51231646D01*
X30405582Y-51231646D01*
X30197452Y-51245835D01*
X30197446Y-51245836D01*
X30193175Y-51246127D01*
X30188980Y-51246996D01*
X30188978Y-51246996D01*
X30052417Y-51275276D01*
X29911658Y-51304426D01*
X29640657Y-51400393D01*
X29385188Y-51532250D01*
X29381687Y-51534711D01*
X29381683Y-51534713D01*
X29371594Y-51541804D01*
X29149977Y-51697559D01*
X28939378Y-51893260D01*
X28757287Y-52115732D01*
X28607073Y-52360858D01*
X28491517Y-52624102D01*
X28412756Y-52900594D01*
X28372249Y-53185216D01*
X28372227Y-53189505D01*
X28372226Y-53189512D01*
X28371263Y-53373421D01*
X28370743Y-53472703D01*
X25908500Y-53472703D01*
X25908500Y-53393250D01*
X25910246Y-53372345D01*
X25912770Y-53357344D01*
X25912770Y-53357341D01*
X25913576Y-53352552D01*
X25913729Y-53340000D01*
X25913039Y-53335184D01*
X25913039Y-53335178D01*
X25911387Y-53323644D01*
X25910234Y-53300284D01*
X25914480Y-53203049D01*
X25925656Y-52947063D01*
X25926614Y-52936114D01*
X25977233Y-52551621D01*
X25979142Y-52540795D01*
X26063080Y-52162178D01*
X26065925Y-52151561D01*
X26146320Y-51896579D01*
X26182542Y-51781698D01*
X26186298Y-51771377D01*
X26212105Y-51709074D01*
X26334715Y-51413068D01*
X26339357Y-51403115D01*
X26386808Y-51311964D01*
X26518424Y-51059132D01*
X26523919Y-51049613D01*
X26732292Y-50722532D01*
X26738597Y-50713528D01*
X26974678Y-50405862D01*
X26981743Y-50397442D01*
X27243744Y-50111517D01*
X27251517Y-50103744D01*
X27537442Y-49841743D01*
X27545862Y-49834678D01*
X27853528Y-49598597D01*
X27862532Y-49592292D01*
X28189613Y-49383919D01*
X28199133Y-49378423D01*
X28543124Y-49199353D01*
X28553068Y-49194715D01*
X28911385Y-49046295D01*
X28921698Y-49042542D01*
X29121298Y-48979608D01*
X29291561Y-48925925D01*
X29302178Y-48923080D01*
X29680795Y-48839142D01*
X29691621Y-48837233D01*
X30076114Y-48786614D01*
X30087063Y-48785656D01*
X30436554Y-48770397D01*
X30461429Y-48771777D01*
X30473724Y-48773691D01*
X30482626Y-48772527D01*
X30482628Y-48772527D01*
X30501399Y-48770072D01*
X30505286Y-48769564D01*
X30521621Y-48768500D01*
X43130633Y-48768500D01*
X43150018Y-48770000D01*
G37*
%TD.AperFunction*%
%TD*%
M02*
