%TF.GenerationSoftware,KiCad,Pcbnew,(6.0.9-0)*%
%TF.CreationDate,2024-03-22T18:27:49+01:00*%
%TF.ProjectId,pt-workshop,70742d77-6f72-46b7-9368-6f702e6b6963,rev?*%
%TF.SameCoordinates,Original*%
%TF.FileFunction,Copper,L1,Top*%
%TF.FilePolarity,Positive*%
%FSLAX46Y46*%
G04 Gerber Fmt 4.6, Leading zero omitted, Abs format (unit mm)*
G04 Created by KiCad (PCBNEW (6.0.9-0)) date 2024-03-22 18:27:49*
%MOMM*%
%LPD*%
G01*
G04 APERTURE LIST*
G04 Aperture macros list*
%AMRoundRect*
0 Rectangle with rounded corners*
0 $1 Rounding radius*
0 $2 $3 $4 $5 $6 $7 $8 $9 X,Y pos of 4 corners*
0 Add a 4 corners polygon primitive as box body*
4,1,4,$2,$3,$4,$5,$6,$7,$8,$9,$2,$3,0*
0 Add four circle primitives for the rounded corners*
1,1,$1+$1,$2,$3*
1,1,$1+$1,$4,$5*
1,1,$1+$1,$6,$7*
1,1,$1+$1,$8,$9*
0 Add four rect primitives between the rounded corners*
20,1,$1+$1,$2,$3,$4,$5,0*
20,1,$1+$1,$4,$5,$6,$7,0*
20,1,$1+$1,$6,$7,$8,$9,0*
20,1,$1+$1,$8,$9,$2,$3,0*%
%AMFreePoly0*
4,1,9,3.862500,-0.866500,0.737500,-0.866500,0.737500,-0.450000,-0.737500,-0.450000,-0.737500,0.450000,0.737500,0.450000,0.737500,0.866500,3.862500,0.866500,3.862500,-0.866500,3.862500,-0.866500,$1*%
G04 Aperture macros list end*
%TA.AperFunction,SMDPad,CuDef*%
%ADD10RoundRect,0.250000X-0.550000X1.050000X-0.550000X-1.050000X0.550000X-1.050000X0.550000X1.050000X0*%
%TD*%
%TA.AperFunction,SMDPad,CuDef*%
%ADD11RoundRect,0.250000X-0.537500X-0.425000X0.537500X-0.425000X0.537500X0.425000X-0.537500X0.425000X0*%
%TD*%
%TA.AperFunction,SMDPad,CuDef*%
%ADD12RoundRect,0.237500X0.237500X-0.250000X0.237500X0.250000X-0.237500X0.250000X-0.237500X-0.250000X0*%
%TD*%
%TA.AperFunction,SMDPad,CuDef*%
%ADD13RoundRect,0.237500X0.250000X0.237500X-0.250000X0.237500X-0.250000X-0.237500X0.250000X-0.237500X0*%
%TD*%
%TA.AperFunction,SMDPad,CuDef*%
%ADD14RoundRect,0.237500X-0.237500X0.300000X-0.237500X-0.300000X0.237500X-0.300000X0.237500X0.300000X0*%
%TD*%
%TA.AperFunction,ComponentPad*%
%ADD15C,5.500000*%
%TD*%
%TA.AperFunction,SMDPad,CuDef*%
%ADD16RoundRect,0.237500X-0.250000X-0.237500X0.250000X-0.237500X0.250000X0.237500X-0.250000X0.237500X0*%
%TD*%
%TA.AperFunction,SMDPad,CuDef*%
%ADD17RoundRect,0.250000X0.425000X-0.537500X0.425000X0.537500X-0.425000X0.537500X-0.425000X-0.537500X0*%
%TD*%
%TA.AperFunction,SMDPad,CuDef*%
%ADD18RoundRect,0.237500X0.237500X-0.300000X0.237500X0.300000X-0.237500X0.300000X-0.237500X-0.300000X0*%
%TD*%
%TA.AperFunction,SMDPad,CuDef*%
%ADD19RoundRect,0.237500X-0.237500X0.250000X-0.237500X-0.250000X0.237500X-0.250000X0.237500X0.250000X0*%
%TD*%
%TA.AperFunction,SMDPad,CuDef*%
%ADD20RoundRect,0.237500X-0.300000X-0.237500X0.300000X-0.237500X0.300000X0.237500X-0.300000X0.237500X0*%
%TD*%
%TA.AperFunction,SMDPad,CuDef*%
%ADD21RoundRect,0.237500X0.300000X0.237500X-0.300000X0.237500X-0.300000X-0.237500X0.300000X-0.237500X0*%
%TD*%
%TA.AperFunction,SMDPad,CuDef*%
%ADD22RoundRect,0.150000X-0.150000X0.825000X-0.150000X-0.825000X0.150000X-0.825000X0.150000X0.825000X0*%
%TD*%
%TA.AperFunction,SMDPad,CuDef*%
%ADD23RoundRect,0.250000X0.550000X-1.050000X0.550000X1.050000X-0.550000X1.050000X-0.550000X-1.050000X0*%
%TD*%
%TA.AperFunction,SMDPad,CuDef*%
%ADD24R,0.900000X1.300000*%
%TD*%
%TA.AperFunction,SMDPad,CuDef*%
%ADD25FreePoly0,270.000000*%
%TD*%
%TA.AperFunction,SMDPad,CuDef*%
%ADD26R,1.500000X0.400000*%
%TD*%
%TA.AperFunction,ComponentPad*%
%ADD27R,1.700000X1.700000*%
%TD*%
%TA.AperFunction,ComponentPad*%
%ADD28O,1.700000X1.700000*%
%TD*%
%TA.AperFunction,SMDPad,CuDef*%
%ADD29RoundRect,0.250000X-0.425000X0.537500X-0.425000X-0.537500X0.425000X-0.537500X0.425000X0.537500X0*%
%TD*%
%TA.AperFunction,ViaPad*%
%ADD30C,0.800000*%
%TD*%
%TA.AperFunction,ViaPad*%
%ADD31C,0.700000*%
%TD*%
%TA.AperFunction,Conductor*%
%ADD32C,0.800000*%
%TD*%
%TA.AperFunction,Conductor*%
%ADD33C,0.250000*%
%TD*%
%TA.AperFunction,Conductor*%
%ADD34C,0.500000*%
%TD*%
%TA.AperFunction,Conductor*%
%ADD35C,0.300000*%
%TD*%
G04 APERTURE END LIST*
D10*
%TO.P,C216,1*%
%TO.N,Net-(C213-Pad2)*%
X32258000Y-83036000D03*
%TO.P,C216,2*%
%TO.N,/PT_Out*%
X32258000Y-86636000D03*
%TD*%
D11*
%TO.P,C205,1*%
%TO.N,/PT_5V*%
X37932500Y-57785000D03*
%TO.P,C205,2*%
%TO.N,/PT_GND*%
X40807500Y-57785000D03*
%TD*%
D12*
%TO.P,R207,1*%
%TO.N,Net-(C213-Pad2)*%
X42672000Y-87526500D03*
%TO.P,R207,2*%
%TO.N,Net-(C212-Pad1)*%
X42672000Y-85701500D03*
%TD*%
D11*
%TO.P,C201,1*%
%TO.N,/PT_9V*%
X31582500Y-57785000D03*
%TO.P,C201,2*%
%TO.N,/PT_GND*%
X34457500Y-57785000D03*
%TD*%
D13*
%TO.P,R202,1*%
%TO.N,Net-(C204-Pad2)*%
X42822500Y-78486000D03*
%TO.P,R202,2*%
%TO.N,Net-(C206-Pad2)*%
X40997500Y-78486000D03*
%TD*%
D14*
%TO.P,C214,1*%
%TO.N,/PT_GND*%
X42545000Y-62637500D03*
%TO.P,C214,2*%
%TO.N,/PT_5V*%
X42545000Y-64362500D03*
%TD*%
D12*
%TO.P,R201,1*%
%TO.N,Net-(C202-Pad1)*%
X41021000Y-82065500D03*
%TO.P,R201,2*%
%TO.N,Net-(C204-Pad2)*%
X41021000Y-80240500D03*
%TD*%
D15*
%TO.P,H103,1,1*%
%TO.N,/PT_GND*%
X30480000Y-99060000D03*
%TD*%
D16*
%TO.P,R208,1*%
%TO.N,/PT_Out*%
X32361500Y-89408000D03*
%TO.P,R208,2*%
%TO.N,/PT_GND*%
X34186500Y-89408000D03*
%TD*%
D17*
%TO.P,C215,1*%
%TO.N,/PT_Ref*%
X40005000Y-64302500D03*
%TO.P,C215,2*%
%TO.N,/PT_GND*%
X40005000Y-61427500D03*
%TD*%
D18*
%TO.P,C206,1*%
%TO.N,Net-(C206-Pad1)*%
X40894000Y-76554500D03*
%TO.P,C206,2*%
%TO.N,Net-(C206-Pad2)*%
X40894000Y-74829500D03*
%TD*%
D19*
%TO.P,R306,1*%
%TO.N,/PT_Vctrl*%
X32766000Y-93575500D03*
%TO.P,R306,2*%
%TO.N,Net-(Q301-Pad2)*%
X32766000Y-95400500D03*
%TD*%
%TO.P,R205,1*%
%TO.N,Net-(C212-Pad2)*%
X40894000Y-85701500D03*
%TO.P,R205,2*%
%TO.N,Net-(C210-Pad2)*%
X40894000Y-87526500D03*
%TD*%
D15*
%TO.P,H101,1,1*%
%TO.N,/PT_GND*%
X43180000Y-99060000D03*
%TD*%
D12*
%TO.P,R301,1*%
%TO.N,/PT_4.5V*%
X41656000Y-95146500D03*
%TO.P,R301,2*%
%TO.N,/PT_Vctrl*%
X41656000Y-93321500D03*
%TD*%
D20*
%TO.P,C210,1*%
%TO.N,/PT_GND*%
X32411500Y-91440000D03*
%TO.P,C210,2*%
%TO.N,Net-(C210-Pad2)*%
X34136500Y-91440000D03*
%TD*%
D21*
%TO.P,C212,1*%
%TO.N,Net-(C212-Pad1)*%
X42772500Y-83820000D03*
%TO.P,C212,2*%
%TO.N,Net-(C212-Pad2)*%
X41047500Y-83820000D03*
%TD*%
D16*
%TO.P,R204,1*%
%TO.N,Net-(C210-Pad2)*%
X40743500Y-91186000D03*
%TO.P,R204,2*%
%TO.N,/PT2399-adapter/DEMOD_OUT*%
X42568500Y-91186000D03*
%TD*%
D22*
%TO.P,U202,1,Vcc*%
%TO.N,/PT_5V*%
X42545000Y-67310000D03*
%TO.P,U202,2,Ref*%
%TO.N,/PT_Ref*%
X41275000Y-67310000D03*
%TO.P,U202,3,AGND*%
%TO.N,/PT_GND*%
X40005000Y-67310000D03*
%TO.P,U202,4,DGND*%
X38735000Y-67310000D03*
%TO.P,U202,5,CLK_O*%
%TO.N,/PT_CLK*%
X37465000Y-67310000D03*
%TO.P,U202,6,VCO*%
%TO.N,/PT_Ic*%
X36195000Y-67310000D03*
%TO.P,U202,7,CC1*%
%TO.N,Net-(C209-Pad2)*%
X34925000Y-67310000D03*
%TO.P,U202,8,CC0*%
%TO.N,Net-(C208-Pad2)*%
X33655000Y-67310000D03*
%TO.P,U202,9,OP1-OUT*%
%TO.N,Net-(C207-Pad2)*%
X33655000Y-72260000D03*
%TO.P,U202,10,OP1-IN*%
%TO.N,Net-(C207-Pad1)*%
X34925000Y-72260000D03*
%TO.P,U202,11,OP2_IN*%
%TO.N,Net-(C211-Pad1)*%
X36195000Y-72260000D03*
%TO.P,U202,12,OP2_OUT*%
%TO.N,/PT2399-adapter/DEMOD_OUT*%
X37465000Y-72260000D03*
%TO.P,U202,13,LPF2_IN*%
%TO.N,Net-(C212-Pad2)*%
X38735000Y-72260000D03*
%TO.P,U202,14,LFP2-OUT*%
%TO.N,Net-(C212-Pad1)*%
X40005000Y-72260000D03*
%TO.P,U202,15,LFP1-OUT*%
%TO.N,Net-(C206-Pad2)*%
X41275000Y-72260000D03*
%TO.P,U202,16,LFP1-IN*%
%TO.N,Net-(C206-Pad1)*%
X42545000Y-72260000D03*
%TD*%
D23*
%TO.P,C207,1*%
%TO.N,Net-(C207-Pad1)*%
X32258000Y-79270000D03*
%TO.P,C207,2*%
%TO.N,Net-(C207-Pad2)*%
X32258000Y-75670000D03*
%TD*%
D13*
%TO.P,R206,1*%
%TO.N,Net-(C212-Pad1)*%
X42568500Y-89408000D03*
%TO.P,R206,2*%
%TO.N,Net-(C210-Pad2)*%
X40743500Y-89408000D03*
%TD*%
D18*
%TO.P,C204,1*%
%TO.N,/PT_GND*%
X42926000Y-82015500D03*
%TO.P,C204,2*%
%TO.N,Net-(C204-Pad2)*%
X42926000Y-80290500D03*
%TD*%
D24*
%TO.P,U201,1,OUT*%
%TO.N,/PT_5V*%
X37695000Y-60580000D03*
D25*
%TO.P,U201,2,GND*%
%TO.N,/PT_GND*%
X36195000Y-60667500D03*
D24*
%TO.P,U201,3,IN*%
%TO.N,/PT_9V*%
X34695000Y-60580000D03*
%TD*%
D26*
%TO.P,Q301,1,E2*%
%TO.N,/PT_GND*%
X36008000Y-94092000D03*
%TO.P,Q301,2,B2*%
%TO.N,Net-(Q301-Pad2)*%
X36008000Y-94742000D03*
%TO.P,Q301,3,C1*%
X36008000Y-95392000D03*
%TO.P,Q301,4,E1*%
%TO.N,/PT_GND*%
X38668000Y-95392000D03*
%TO.P,Q301,5,B1*%
%TO.N,Net-(Q301-Pad2)*%
X38668000Y-94742000D03*
%TO.P,Q301,6,C2*%
%TO.N,/PT_Iout*%
X38668000Y-94092000D03*
%TD*%
D27*
%TO.P,J103,1,Pin_1*%
%TO.N,/PT_9V*%
X27940000Y-58420000D03*
D28*
%TO.P,J103,2,Pin_2*%
%TO.N,/PT_GND*%
X27940000Y-60960000D03*
%TO.P,J103,3,Pin_3*%
%TO.N,/PT_4.5V*%
X27940000Y-63500000D03*
%TO.P,J103,4,Pin_4*%
%TO.N,/PT_5V*%
X27940000Y-66040000D03*
%TO.P,J103,5,Pin_5*%
%TO.N,/PT_GND*%
X27940000Y-68580000D03*
%TO.P,J103,6,Pin_6*%
%TO.N,/PT_CLK*%
X27940000Y-71120000D03*
%TO.P,J103,7,Pin_7*%
%TO.N,/PT_Ref*%
X27940000Y-73660000D03*
%TO.P,J103,8,Pin_8*%
%TO.N,/PT_GND*%
X27940000Y-76200000D03*
%TO.P,J103,9,Pin_9*%
%TO.N,/PT_In*%
X27940000Y-78740000D03*
%TO.P,J103,10,Pin_10*%
%TO.N,/PT_Out*%
X27940000Y-81280000D03*
%TO.P,J103,11,Pin_11*%
%TO.N,/PT_GND*%
X27940000Y-83820000D03*
%TO.P,J103,12,Pin_12*%
%TO.N,/PT_Ic*%
X27940000Y-86360000D03*
%TO.P,J103,13,Pin_13*%
%TO.N,/PT_Iout*%
X27940000Y-88900000D03*
%TO.P,J103,14,Pin_14*%
%TO.N,/PT_GND*%
X27940000Y-91440000D03*
%TO.P,J103,15,Pin_15*%
%TO.N,/PT_Vctrl*%
X27940000Y-93980000D03*
%TD*%
D18*
%TO.P,C208,1*%
%TO.N,/PT_GND*%
X30861000Y-68553500D03*
%TO.P,C208,2*%
%TO.N,Net-(C208-Pad2)*%
X30861000Y-66828500D03*
%TD*%
D23*
%TO.P,C211,1*%
%TO.N,Net-(C211-Pad1)*%
X37465000Y-79270000D03*
%TO.P,C211,2*%
%TO.N,/PT2399-adapter/DEMOD_OUT*%
X37465000Y-75670000D03*
%TD*%
D19*
%TO.P,R203,1*%
%TO.N,Net-(C206-Pad1)*%
X42926000Y-74779500D03*
%TO.P,R203,2*%
%TO.N,Net-(C204-Pad2)*%
X42926000Y-76604500D03*
%TD*%
D29*
%TO.P,C203,1*%
%TO.N,/PT_9V*%
X31750000Y-60792500D03*
%TO.P,C203,2*%
%TO.N,/PT_GND*%
X31750000Y-63667500D03*
%TD*%
D18*
%TO.P,C209,1*%
%TO.N,/PT_GND*%
X30861000Y-72236500D03*
%TO.P,C209,2*%
%TO.N,Net-(C209-Pad2)*%
X30861000Y-70511500D03*
%TD*%
D23*
%TO.P,C202,1*%
%TO.N,Net-(C202-Pad1)*%
X37592000Y-86382000D03*
%TO.P,C202,2*%
%TO.N,/PT_In*%
X37592000Y-82782000D03*
%TD*%
D27*
%TO.P,J104,1,Pin_1*%
%TO.N,/PT_9V*%
X45720000Y-58420000D03*
D28*
%TO.P,J104,2,Pin_2*%
%TO.N,/PT_GND*%
X45720000Y-60960000D03*
%TO.P,J104,3,Pin_3*%
%TO.N,/PT_4.5V*%
X45720000Y-63500000D03*
%TO.P,J104,4,Pin_4*%
%TO.N,/PT_5V*%
X45720000Y-66040000D03*
%TO.P,J104,5,Pin_5*%
%TO.N,/PT_GND*%
X45720000Y-68580000D03*
%TO.P,J104,6,Pin_6*%
%TO.N,/PT_CLK*%
X45720000Y-71120000D03*
%TO.P,J104,7,Pin_7*%
%TO.N,/PT_Ref*%
X45720000Y-73660000D03*
%TO.P,J104,8,Pin_8*%
%TO.N,/PT_GND*%
X45720000Y-76200000D03*
%TO.P,J104,9,Pin_9*%
%TO.N,/PT_In*%
X45720000Y-78740000D03*
%TO.P,J104,10,Pin_10*%
%TO.N,/PT_Out*%
X45720000Y-81280000D03*
%TO.P,J104,11,Pin_11*%
%TO.N,/PT_GND*%
X45720000Y-83820000D03*
%TO.P,J104,12,Pin_12*%
%TO.N,/PT_Ic*%
X45720000Y-86360000D03*
%TO.P,J104,13,Pin_13*%
%TO.N,/PT_Iout*%
X45720000Y-88900000D03*
%TO.P,J104,14,Pin_14*%
%TO.N,/PT_GND*%
X45720000Y-91440000D03*
%TO.P,J104,15,Pin_15*%
%TO.N,/PT_Vctrl*%
X45720000Y-93980000D03*
%TD*%
D20*
%TO.P,C213,1*%
%TO.N,/PT_GND*%
X36475500Y-89408000D03*
%TO.P,C213,2*%
%TO.N,Net-(C213-Pad2)*%
X38200500Y-89408000D03*
%TD*%
D30*
%TO.N,/PT_GND*%
X31496000Y-91440000D03*
D31*
X39653185Y-95438629D03*
D30*
X36195000Y-59563000D03*
X32639000Y-63754000D03*
D31*
X34290000Y-88773000D03*
D30*
X42545000Y-61849000D03*
D31*
X30099000Y-68580000D03*
X38735000Y-65913000D03*
X34754054Y-70248190D03*
D30*
X34417000Y-56769000D03*
X34870211Y-94084811D03*
X38862000Y-61468000D03*
D31*
X42799000Y-81430500D03*
X30226000Y-72263000D03*
X35433000Y-89408000D03*
X40005000Y-65913000D03*
D30*
X41656000Y-57785000D03*
D31*
%TO.N,/PT_CLK*%
X33845500Y-70167500D03*
%TD*%
D32*
%TO.N,/PT_9V*%
X31962500Y-60580000D02*
X31750000Y-60792500D01*
X34695000Y-60580000D02*
X31962500Y-60580000D01*
D33*
%TO.N,/PT_GND*%
X34870211Y-94084811D02*
X34877400Y-94092000D01*
D34*
X38902500Y-61427500D02*
X38862000Y-61468000D01*
D35*
X30125500Y-68553500D02*
X30099000Y-68580000D01*
X38668000Y-95392000D02*
X39606556Y-95392000D01*
D33*
X34877400Y-94092000D02*
X36008000Y-94092000D01*
D35*
X30252500Y-72236500D02*
X30226000Y-72263000D01*
X42799000Y-81430500D02*
X42799000Y-81888500D01*
X30861000Y-68553500D02*
X30125500Y-68553500D01*
D34*
X31750000Y-63667500D02*
X32552500Y-63667500D01*
D35*
X38735000Y-67310000D02*
X38735000Y-65913000D01*
D34*
X34457500Y-57785000D02*
X34457500Y-56809500D01*
D35*
X34186500Y-89408000D02*
X34186500Y-88876500D01*
X42799000Y-81888500D02*
X42926000Y-82015500D01*
D34*
X40807500Y-57785000D02*
X41656000Y-57785000D01*
D35*
X40005000Y-67310000D02*
X40005000Y-65913000D01*
D34*
X34457500Y-56809500D02*
X34417000Y-56769000D01*
X42545000Y-62637500D02*
X42545000Y-61849000D01*
X40005000Y-61427500D02*
X38902500Y-61427500D01*
X36195000Y-59563000D02*
X36195000Y-60667500D01*
D33*
X32411500Y-91440000D02*
X31496000Y-91440000D01*
D34*
X32552500Y-63667500D02*
X32639000Y-63754000D01*
D35*
X34186500Y-88876500D02*
X34290000Y-88773000D01*
X30861000Y-72236500D02*
X30252500Y-72236500D01*
X39606556Y-95392000D02*
X39653185Y-95438629D01*
X35433000Y-89408000D02*
X36475500Y-89408000D01*
%TO.N,Net-(C202-Pad1)*%
X37592000Y-86382000D02*
X37592000Y-85494500D01*
X37592000Y-85494500D02*
X41021000Y-82065500D01*
%TO.N,Net-(C204-Pad2)*%
X42822500Y-78486000D02*
X42822500Y-76708000D01*
X42822500Y-76708000D02*
X42926000Y-76604500D01*
X41071000Y-80290500D02*
X41021000Y-80240500D01*
X42926000Y-80290500D02*
X42822500Y-80187000D01*
X42926000Y-80290500D02*
X41071000Y-80290500D01*
X42822500Y-80187000D02*
X42822500Y-78486000D01*
D34*
%TO.N,/PT_5V*%
X43942000Y-60833000D02*
X43942000Y-62965500D01*
X38546000Y-59729000D02*
X42838000Y-59729000D01*
X42545000Y-67310000D02*
X44450000Y-67310000D01*
X42838000Y-59729000D02*
X43942000Y-60833000D01*
X43942000Y-62965500D02*
X42545000Y-64362500D01*
X37932500Y-57785000D02*
X37932500Y-60342500D01*
X37695000Y-60580000D02*
X38546000Y-59729000D01*
X42545000Y-64362500D02*
X42545000Y-67310000D01*
X37932500Y-60342500D02*
X37695000Y-60580000D01*
X44450000Y-67310000D02*
X45720000Y-66040000D01*
D35*
%TO.N,Net-(C213-Pad2)*%
X40184000Y-86689000D02*
X38200500Y-88672500D01*
X42672000Y-87526500D02*
X41834500Y-86689000D01*
X35433000Y-88392000D02*
X37465000Y-88392000D01*
X37465000Y-88392000D02*
X38200500Y-89127500D01*
X41834500Y-86689000D02*
X40184000Y-86689000D01*
X33782000Y-86741000D02*
X35433000Y-88392000D01*
X33782000Y-84963000D02*
X33782000Y-86741000D01*
X38200500Y-89127500D02*
X38200500Y-89408000D01*
X32258000Y-83439000D02*
X33782000Y-84963000D01*
X38200500Y-88672500D02*
X38200500Y-89408000D01*
X32258000Y-83036000D02*
X32258000Y-83439000D01*
%TO.N,Net-(C206-Pad1)*%
X41151000Y-76554500D02*
X42926000Y-74779500D01*
X42545000Y-72260000D02*
X42545000Y-74398500D01*
X42545000Y-74398500D02*
X42926000Y-74779500D01*
X40894000Y-76554500D02*
X41151000Y-76554500D01*
%TO.N,Net-(C206-Pad2)*%
X41275000Y-74448500D02*
X40894000Y-74829500D01*
X40894000Y-74829500D02*
X40613500Y-74829500D01*
X41275000Y-72260000D02*
X41275000Y-74448500D01*
X40005000Y-75438000D02*
X40005000Y-77493500D01*
X40005000Y-77493500D02*
X40997500Y-78486000D01*
X40613500Y-74829500D02*
X40005000Y-75438000D01*
%TO.N,Net-(C207-Pad1)*%
X34798000Y-73215500D02*
X33782000Y-74231500D01*
X33782000Y-74231500D02*
X33782000Y-76962000D01*
X32258000Y-78486000D02*
X32258000Y-79270000D01*
X34798000Y-72387000D02*
X34798000Y-73215500D01*
X33782000Y-76962000D02*
X32258000Y-78486000D01*
X34925000Y-72260000D02*
X34798000Y-72387000D01*
%TO.N,Net-(C207-Pad2)*%
X33655000Y-72898000D02*
X32258000Y-74295000D01*
X32258000Y-74295000D02*
X32258000Y-75670000D01*
X33655000Y-72260000D02*
X33655000Y-72898000D01*
%TO.N,Net-(C208-Pad2)*%
X31342500Y-67310000D02*
X30861000Y-66828500D01*
X33655000Y-67310000D02*
X31342500Y-67310000D01*
%TO.N,Net-(C209-Pad2)*%
X30861000Y-70358000D02*
X32385000Y-68834000D01*
X30861000Y-70511500D02*
X30861000Y-70358000D01*
X34925000Y-68199000D02*
X34925000Y-67310000D01*
X34290000Y-68834000D02*
X34925000Y-68199000D01*
X32385000Y-68834000D02*
X34290000Y-68834000D01*
%TO.N,Net-(C210-Pad2)*%
X40894000Y-89257500D02*
X40743500Y-89408000D01*
X40743500Y-91186000D02*
X34390500Y-91186000D01*
X40894000Y-87526500D02*
X40894000Y-89257500D01*
X40743500Y-91186000D02*
X40743500Y-89408000D01*
X34390500Y-91186000D02*
X34136500Y-91440000D01*
%TO.N,Net-(C211-Pad1)*%
X36195000Y-78000000D02*
X37465000Y-79270000D01*
X36195000Y-72260000D02*
X36195000Y-78000000D01*
%TO.N,/PT2399-adapter/DEMOD_OUT*%
X38735000Y-69596000D02*
X37465000Y-70866000D01*
X46217057Y-82480000D02*
X46920000Y-81777057D01*
X37465000Y-70866000D02*
X37465000Y-72260000D01*
X46920000Y-81777057D02*
X46920000Y-75702943D01*
X46147057Y-74930000D02*
X44831000Y-74930000D01*
X42799000Y-69596000D02*
X38735000Y-69596000D01*
X46920000Y-75702943D02*
X46147057Y-74930000D01*
X44523924Y-83437183D02*
X44523924Y-83179019D01*
X45222943Y-82480000D02*
X46217057Y-82480000D01*
X44520000Y-74619000D02*
X44520000Y-71317000D01*
X44520000Y-83441107D02*
X44523924Y-83437183D01*
X37465000Y-75670000D02*
X37465000Y-72260000D01*
X44520000Y-89234500D02*
X44520000Y-83441107D01*
X42568500Y-91186000D02*
X44520000Y-89234500D01*
X44520000Y-71317000D02*
X42799000Y-69596000D01*
X44831000Y-74930000D02*
X44520000Y-74619000D01*
X44523924Y-83179019D02*
X45222943Y-82480000D01*
%TO.N,Net-(C212-Pad1)*%
X40005000Y-70866000D02*
X40005000Y-72260000D01*
X42568500Y-89408000D02*
X42672000Y-89408000D01*
X42672000Y-89408000D02*
X43561000Y-88519000D01*
X43815000Y-71882000D02*
X43195000Y-71262000D01*
X43195000Y-71262000D02*
X43195000Y-71227893D01*
X42579107Y-70612000D02*
X40259000Y-70612000D01*
X43195000Y-71227893D02*
X42579107Y-70612000D01*
X43434000Y-83820000D02*
X43815000Y-83439000D01*
X43561000Y-88519000D02*
X43561000Y-86590500D01*
X42772500Y-83820000D02*
X42772500Y-85601000D01*
X43561000Y-86590500D02*
X42672000Y-85701500D01*
X43815000Y-83439000D02*
X43815000Y-71882000D01*
X40259000Y-70612000D02*
X40005000Y-70866000D01*
X42772500Y-83820000D02*
X43434000Y-83820000D01*
X42772500Y-85601000D02*
X42672000Y-85701500D01*
%TO.N,Net-(C212-Pad2)*%
X41846000Y-83021500D02*
X41047500Y-83820000D01*
X40894000Y-83973500D02*
X41047500Y-83820000D01*
X41846000Y-81344150D02*
X41846000Y-83021500D01*
X41579850Y-81078000D02*
X41846000Y-81344150D01*
X39116000Y-79653850D02*
X40540150Y-81078000D01*
X39116000Y-72641000D02*
X39116000Y-79653850D01*
X40540150Y-81078000D02*
X41579850Y-81078000D01*
X38735000Y-72260000D02*
X39116000Y-72641000D01*
X40894000Y-85701500D02*
X40894000Y-83973500D01*
%TO.N,/PT_Ref*%
X41275000Y-65572500D02*
X41275000Y-67310000D01*
X46990000Y-70358000D02*
X46990000Y-72390000D01*
X43688000Y-68707000D02*
X44831000Y-69850000D01*
X44831000Y-69850000D02*
X46482000Y-69850000D01*
X46990000Y-72390000D02*
X45720000Y-73660000D01*
X41529000Y-68707000D02*
X43688000Y-68707000D01*
X41275000Y-67310000D02*
X41275000Y-68453000D01*
X40005000Y-64302500D02*
X41275000Y-65572500D01*
X41275000Y-68453000D02*
X41529000Y-68707000D01*
X46482000Y-69850000D02*
X46990000Y-70358000D01*
%TO.N,/PT_4.5V*%
X41656000Y-95146500D02*
X43838500Y-95146500D01*
X44704000Y-96012000D02*
X46990000Y-96012000D01*
X46990000Y-96012000D02*
X47498000Y-95504000D01*
X43838500Y-95146500D02*
X44704000Y-96012000D01*
X47498000Y-63900000D02*
X47098000Y-63500000D01*
X47498000Y-95504000D02*
X47498000Y-63900000D01*
X47098000Y-63500000D02*
X45720000Y-63500000D01*
D32*
%TO.N,/PT_In*%
X33909000Y-81407000D02*
X36217000Y-81407000D01*
X36217000Y-81407000D02*
X37592000Y-82782000D01*
D35*
X33909000Y-81407000D02*
X33655000Y-81153000D01*
X33655000Y-81153000D02*
X30861000Y-81153000D01*
D32*
X30861000Y-81153000D02*
X30353000Y-81153000D01*
X30353000Y-81153000D02*
X27940000Y-78740000D01*
D35*
%TO.N,/PT_Out*%
X32361500Y-89408000D02*
X32361500Y-86739500D01*
X32258000Y-86636000D02*
X30607000Y-84985000D01*
X30607000Y-84985000D02*
X30607000Y-83185000D01*
X32361500Y-86739500D02*
X32258000Y-86636000D01*
X30607000Y-83185000D02*
X28702000Y-81280000D01*
X28702000Y-81280000D02*
X27940000Y-81280000D01*
%TO.N,/PT_CLK*%
X31242000Y-73533000D02*
X30099000Y-73533000D01*
X30099000Y-73533000D02*
X27940000Y-71374000D01*
X37465000Y-68326000D02*
X37465000Y-67310000D01*
X33845500Y-70167500D02*
X32131000Y-71882000D01*
X27940000Y-71374000D02*
X27940000Y-71120000D01*
X36957000Y-68834000D02*
X37465000Y-68326000D01*
X32131000Y-71882000D02*
X32131000Y-72644000D01*
X35179000Y-68834000D02*
X36957000Y-68834000D01*
X33845500Y-70167500D02*
X35179000Y-68834000D01*
X32131000Y-72644000D02*
X31242000Y-73533000D01*
%TO.N,/PT_Ic*%
X35210107Y-65913000D02*
X30226000Y-65913000D01*
X27442943Y-67380000D02*
X26289000Y-68533943D01*
X26289000Y-68533943D02*
X26289000Y-84709000D01*
X26289000Y-84709000D02*
X27940000Y-86360000D01*
X36195000Y-66897893D02*
X35210107Y-65913000D01*
X36195000Y-67310000D02*
X36195000Y-66897893D01*
X30226000Y-65913000D02*
X28759000Y-67380000D01*
X28759000Y-67380000D02*
X27442943Y-67380000D01*
D33*
%TO.N,/PT_Iout*%
X39726000Y-94217000D02*
X39743000Y-94234000D01*
X39743000Y-94234000D02*
X42418000Y-94234000D01*
X38668000Y-94092000D02*
X38793000Y-94217000D01*
X44196000Y-92456000D02*
X44196000Y-90424000D01*
X44196000Y-90424000D02*
X45720000Y-88900000D01*
X38793000Y-94217000D02*
X39726000Y-94217000D01*
X42418000Y-94234000D02*
X44196000Y-92456000D01*
%TO.N,Net-(Q301-Pad2)*%
X36008000Y-94742000D02*
X36008000Y-95392000D01*
X38668000Y-94742000D02*
X36008000Y-94742000D01*
D35*
X32774500Y-95392000D02*
X36008000Y-95392000D01*
X32766000Y-95400500D02*
X32774500Y-95392000D01*
%TO.N,/PT_Vctrl*%
X33020000Y-93321500D02*
X32766000Y-93575500D01*
X41656000Y-93321500D02*
X33020000Y-93321500D01*
X32766000Y-93575500D02*
X32361500Y-93980000D01*
X32361500Y-93980000D02*
X27940000Y-93980000D01*
%TD*%
%TA.AperFunction,Conductor*%
%TO.N,/PT_9V*%
G36*
X43150018Y-48770000D02*
G01*
X43164851Y-48772310D01*
X43164855Y-48772310D01*
X43173724Y-48773691D01*
X43194183Y-48771016D01*
X43216008Y-48770072D01*
X43572937Y-48785656D01*
X43583886Y-48786614D01*
X43968379Y-48837233D01*
X43979205Y-48839142D01*
X44357822Y-48923080D01*
X44368439Y-48925925D01*
X44538702Y-48979608D01*
X44738302Y-49042542D01*
X44748615Y-49046295D01*
X45106932Y-49194715D01*
X45116876Y-49199353D01*
X45460867Y-49378423D01*
X45470387Y-49383919D01*
X45797468Y-49592292D01*
X45806472Y-49598597D01*
X46114138Y-49834678D01*
X46122558Y-49841743D01*
X46408483Y-50103744D01*
X46416256Y-50111517D01*
X46678257Y-50397442D01*
X46685322Y-50405862D01*
X46921403Y-50713528D01*
X46927708Y-50722532D01*
X47136081Y-51049613D01*
X47141576Y-51059132D01*
X47273193Y-51311964D01*
X47320643Y-51403115D01*
X47325285Y-51413068D01*
X47447895Y-51709074D01*
X47473702Y-51771377D01*
X47477458Y-51781698D01*
X47513680Y-51896579D01*
X47594075Y-52151561D01*
X47596920Y-52162178D01*
X47680858Y-52540795D01*
X47682767Y-52551621D01*
X47733386Y-52936114D01*
X47734344Y-52947063D01*
X47745521Y-53203049D01*
X47749603Y-53296552D01*
X47748223Y-53321429D01*
X47746309Y-53333724D01*
X47747473Y-53342626D01*
X47747473Y-53342628D01*
X47750436Y-53365283D01*
X47751500Y-53381621D01*
X47751500Y-62918050D01*
X47731498Y-62986171D01*
X47677842Y-63032664D01*
X47607568Y-63042768D01*
X47542988Y-63013274D01*
X47538169Y-63008787D01*
X47537139Y-63007879D01*
X47534333Y-63005073D01*
X47530826Y-63002353D01*
X47521804Y-62994647D01*
X47512778Y-62986171D01*
X47488133Y-62963028D01*
X47481181Y-62959206D01*
X47469342Y-62952697D01*
X47452818Y-62941843D01*
X47442132Y-62933555D01*
X47435868Y-62928696D01*
X47428596Y-62925549D01*
X47428594Y-62925548D01*
X47393465Y-62910346D01*
X47382805Y-62905124D01*
X47349284Y-62886695D01*
X47349282Y-62886694D01*
X47342337Y-62882876D01*
X47321559Y-62877541D01*
X47302869Y-62871142D01*
X47283176Y-62862620D01*
X47237552Y-62855394D01*
X47225929Y-62852987D01*
X47197928Y-62845798D01*
X47181188Y-62841500D01*
X47159741Y-62841500D01*
X47140031Y-62839949D01*
X47126677Y-62837834D01*
X47118848Y-62836594D01*
X47072859Y-62840941D01*
X47061004Y-62841500D01*
X46980632Y-62841500D01*
X46912511Y-62821498D01*
X46874840Y-62783940D01*
X46802822Y-62672617D01*
X46802820Y-62672614D01*
X46800014Y-62668277D01*
X46649670Y-62503051D01*
X46645619Y-62499852D01*
X46645615Y-62499848D01*
X46478414Y-62367800D01*
X46478410Y-62367798D01*
X46474359Y-62364598D01*
X46433053Y-62341796D01*
X46383084Y-62291364D01*
X46368312Y-62221921D01*
X46393428Y-62155516D01*
X46420780Y-62128909D01*
X46489907Y-62079601D01*
X46599860Y-62001173D01*
X46758096Y-61843489D01*
X46765436Y-61833275D01*
X46885435Y-61666277D01*
X46888453Y-61662077D01*
X46896609Y-61645576D01*
X46985136Y-61466453D01*
X46985137Y-61466451D01*
X46987430Y-61461811D01*
X47052370Y-61248069D01*
X47081529Y-61026590D01*
X47081703Y-61019470D01*
X47083074Y-60963365D01*
X47083074Y-60963361D01*
X47083156Y-60960000D01*
X47064852Y-60737361D01*
X47010431Y-60520702D01*
X46921354Y-60315840D01*
X46800014Y-60128277D01*
X46796540Y-60124459D01*
X46796533Y-60124450D01*
X46652435Y-59966088D01*
X46621383Y-59902242D01*
X46629779Y-59831744D01*
X46674956Y-59776976D01*
X46701400Y-59763307D01*
X46808052Y-59723325D01*
X46823649Y-59714786D01*
X46925724Y-59638285D01*
X46938285Y-59625724D01*
X47014786Y-59523649D01*
X47023324Y-59508054D01*
X47068478Y-59387606D01*
X47072105Y-59372351D01*
X47077631Y-59321486D01*
X47078000Y-59314672D01*
X47078000Y-58692115D01*
X47073525Y-58676876D01*
X47072135Y-58675671D01*
X47064452Y-58674000D01*
X44380116Y-58674000D01*
X44364877Y-58678475D01*
X44363672Y-58679865D01*
X44362001Y-58687548D01*
X44362001Y-59314669D01*
X44362371Y-59321490D01*
X44367895Y-59372352D01*
X44371521Y-59387604D01*
X44416676Y-59508054D01*
X44425214Y-59523649D01*
X44501715Y-59625724D01*
X44514276Y-59638285D01*
X44616351Y-59714786D01*
X44631946Y-59723324D01*
X44740827Y-59764142D01*
X44797591Y-59806784D01*
X44822291Y-59873345D01*
X44807083Y-59942694D01*
X44787691Y-59969175D01*
X44669935Y-60092400D01*
X44660629Y-60102138D01*
X44657715Y-60106410D01*
X44657714Y-60106411D01*
X44593500Y-60200545D01*
X44538589Y-60245548D01*
X44468064Y-60253719D01*
X44400317Y-60218636D01*
X43421770Y-59240089D01*
X43409384Y-59225677D01*
X43400851Y-59214082D01*
X43400846Y-59214077D01*
X43396508Y-59208182D01*
X43390930Y-59203443D01*
X43390927Y-59203440D01*
X43356232Y-59173965D01*
X43348716Y-59167035D01*
X43343021Y-59161340D01*
X43336880Y-59156482D01*
X43320749Y-59143719D01*
X43317345Y-59140928D01*
X43267297Y-59098409D01*
X43267295Y-59098408D01*
X43261715Y-59093667D01*
X43255199Y-59090339D01*
X43250150Y-59086972D01*
X43245021Y-59083805D01*
X43239284Y-59079266D01*
X43173125Y-59048345D01*
X43169225Y-59046439D01*
X43104192Y-59013231D01*
X43097084Y-59011492D01*
X43091441Y-59009393D01*
X43085678Y-59007476D01*
X43079050Y-59004378D01*
X43007583Y-58989513D01*
X43003299Y-58988543D01*
X42932390Y-58971192D01*
X42926788Y-58970844D01*
X42926785Y-58970844D01*
X42921236Y-58970500D01*
X42921238Y-58970464D01*
X42917245Y-58970225D01*
X42913053Y-58969851D01*
X42905885Y-58968360D01*
X42839675Y-58970151D01*
X42828479Y-58970454D01*
X42825072Y-58970500D01*
X41961425Y-58970500D01*
X41893304Y-58950498D01*
X41846811Y-58896842D01*
X41836707Y-58826568D01*
X41866201Y-58761988D01*
X41872252Y-58755482D01*
X41939134Y-58688483D01*
X41944305Y-58683303D01*
X41948146Y-58677072D01*
X41948148Y-58677070D01*
X41951218Y-58672089D01*
X42007227Y-58623101D01*
X42106722Y-58578803D01*
X42106724Y-58578802D01*
X42112752Y-58576118D01*
X42267253Y-58463866D01*
X42350609Y-58371290D01*
X42390621Y-58326852D01*
X42390622Y-58326851D01*
X42395040Y-58321944D01*
X42453314Y-58221010D01*
X42487223Y-58162279D01*
X42487224Y-58162278D01*
X42490527Y-58156556D01*
X42493344Y-58147885D01*
X44362000Y-58147885D01*
X44366475Y-58163124D01*
X44367865Y-58164329D01*
X44375548Y-58166000D01*
X45447885Y-58166000D01*
X45463124Y-58161525D01*
X45464329Y-58160135D01*
X45466000Y-58152452D01*
X45466000Y-58147885D01*
X45974000Y-58147885D01*
X45978475Y-58163124D01*
X45979865Y-58164329D01*
X45987548Y-58166000D01*
X47059884Y-58166000D01*
X47075123Y-58161525D01*
X47076328Y-58160135D01*
X47077999Y-58152452D01*
X47077999Y-57525331D01*
X47077629Y-57518510D01*
X47072105Y-57467648D01*
X47068479Y-57452396D01*
X47023324Y-57331946D01*
X47014786Y-57316351D01*
X46938285Y-57214276D01*
X46925724Y-57201715D01*
X46823649Y-57125214D01*
X46808054Y-57116676D01*
X46687606Y-57071522D01*
X46672351Y-57067895D01*
X46621486Y-57062369D01*
X46614672Y-57062000D01*
X45992115Y-57062000D01*
X45976876Y-57066475D01*
X45975671Y-57067865D01*
X45974000Y-57075548D01*
X45974000Y-58147885D01*
X45466000Y-58147885D01*
X45466000Y-57080116D01*
X45461525Y-57064877D01*
X45460135Y-57063672D01*
X45452452Y-57062001D01*
X44825331Y-57062001D01*
X44818510Y-57062371D01*
X44767648Y-57067895D01*
X44752396Y-57071521D01*
X44631946Y-57116676D01*
X44616351Y-57125214D01*
X44514276Y-57201715D01*
X44501715Y-57214276D01*
X44425214Y-57316351D01*
X44416676Y-57331946D01*
X44371522Y-57452394D01*
X44367895Y-57467649D01*
X44362369Y-57518514D01*
X44362000Y-57525328D01*
X44362000Y-58147885D01*
X42493344Y-58147885D01*
X42549542Y-57974928D01*
X42569504Y-57785000D01*
X42549542Y-57595072D01*
X42490527Y-57413444D01*
X42395040Y-57248056D01*
X42364625Y-57214276D01*
X42271675Y-57111045D01*
X42271674Y-57111044D01*
X42267253Y-57106134D01*
X42112752Y-56993882D01*
X42106724Y-56991198D01*
X42106722Y-56991197D01*
X42007016Y-56946805D01*
X41951123Y-56898005D01*
X41947330Y-56891877D01*
X41943478Y-56885652D01*
X41818303Y-56760695D01*
X41812072Y-56756854D01*
X41673968Y-56671725D01*
X41673966Y-56671724D01*
X41667738Y-56667885D01*
X41587995Y-56641436D01*
X41506389Y-56614368D01*
X41506387Y-56614368D01*
X41499861Y-56612203D01*
X41493025Y-56611503D01*
X41493022Y-56611502D01*
X41449969Y-56607091D01*
X41395400Y-56601500D01*
X40219600Y-56601500D01*
X40216354Y-56601837D01*
X40216350Y-56601837D01*
X40120692Y-56611762D01*
X40120688Y-56611763D01*
X40113834Y-56612474D01*
X40107298Y-56614655D01*
X40107296Y-56614655D01*
X39975194Y-56658728D01*
X39946054Y-56668450D01*
X39795652Y-56761522D01*
X39670695Y-56886697D01*
X39666855Y-56892927D01*
X39666854Y-56892928D01*
X39602233Y-56997763D01*
X39577885Y-57037262D01*
X39522203Y-57205139D01*
X39511500Y-57309600D01*
X39511500Y-58260400D01*
X39511837Y-58263646D01*
X39511837Y-58263650D01*
X39521752Y-58359206D01*
X39522474Y-58366166D01*
X39578450Y-58533946D01*
X39671522Y-58684348D01*
X39724602Y-58737335D01*
X39742625Y-58755327D01*
X39776704Y-58817609D01*
X39771701Y-58888429D01*
X39729204Y-58945302D01*
X39662705Y-58970171D01*
X39653607Y-58970500D01*
X39086425Y-58970500D01*
X39018304Y-58950498D01*
X38971811Y-58896842D01*
X38961707Y-58826568D01*
X38991201Y-58761988D01*
X38997252Y-58755482D01*
X39064134Y-58688483D01*
X39069305Y-58683303D01*
X39073338Y-58676760D01*
X39158275Y-58538968D01*
X39158276Y-58538966D01*
X39162115Y-58532738D01*
X39217797Y-58364861D01*
X39228500Y-58260400D01*
X39228500Y-57309600D01*
X39222708Y-57253774D01*
X39218238Y-57210692D01*
X39218237Y-57210688D01*
X39217526Y-57203834D01*
X39161550Y-57036054D01*
X39068478Y-56885652D01*
X38943303Y-56760695D01*
X38937072Y-56756854D01*
X38798968Y-56671725D01*
X38798966Y-56671724D01*
X38792738Y-56667885D01*
X38712995Y-56641436D01*
X38631389Y-56614368D01*
X38631387Y-56614368D01*
X38624861Y-56612203D01*
X38618025Y-56611503D01*
X38618022Y-56611502D01*
X38574969Y-56607091D01*
X38520400Y-56601500D01*
X37344600Y-56601500D01*
X37341354Y-56601837D01*
X37341350Y-56601837D01*
X37245692Y-56611762D01*
X37245688Y-56611763D01*
X37238834Y-56612474D01*
X37232298Y-56614655D01*
X37232296Y-56614655D01*
X37100194Y-56658728D01*
X37071054Y-56668450D01*
X36920652Y-56761522D01*
X36795695Y-56886697D01*
X36791855Y-56892927D01*
X36791854Y-56892928D01*
X36727233Y-56997763D01*
X36702885Y-57037262D01*
X36647203Y-57205139D01*
X36636500Y-57309600D01*
X36636500Y-58260400D01*
X36636837Y-58263646D01*
X36636837Y-58263650D01*
X36646752Y-58359206D01*
X36647474Y-58366166D01*
X36703450Y-58533946D01*
X36707304Y-58540175D01*
X36707306Y-58540178D01*
X36711156Y-58546399D01*
X36729995Y-58614850D01*
X36708835Y-58682620D01*
X36654394Y-58728192D01*
X36583958Y-58737097D01*
X36552764Y-58727810D01*
X36483319Y-58696891D01*
X36483318Y-58696891D01*
X36477288Y-58694206D01*
X36382227Y-58674000D01*
X36296944Y-58655872D01*
X36296939Y-58655872D01*
X36290487Y-58654500D01*
X36099513Y-58654500D01*
X36093061Y-58655872D01*
X36093056Y-58655872D01*
X36007773Y-58674000D01*
X35912712Y-58694206D01*
X35906685Y-58696889D01*
X35906677Y-58696892D01*
X35837030Y-58727901D01*
X35766663Y-58737335D01*
X35702366Y-58707228D01*
X35664553Y-58647139D01*
X35665229Y-58576146D01*
X35678523Y-58546677D01*
X35683274Y-58538970D01*
X35683275Y-58538967D01*
X35687115Y-58532738D01*
X35742797Y-58364861D01*
X35753500Y-58260400D01*
X35753500Y-57309600D01*
X35747708Y-57253774D01*
X35743238Y-57210692D01*
X35743237Y-57210688D01*
X35742526Y-57203834D01*
X35686550Y-57036054D01*
X35593478Y-56885652D01*
X35468303Y-56760695D01*
X35406692Y-56722717D01*
X35372745Y-56701792D01*
X35325252Y-56649020D01*
X35313551Y-56607702D01*
X35313128Y-56603672D01*
X35310542Y-56579072D01*
X35251527Y-56397444D01*
X35156040Y-56232056D01*
X35028253Y-56090134D01*
X34873752Y-55977882D01*
X34867724Y-55975198D01*
X34867722Y-55975197D01*
X34705319Y-55902891D01*
X34705318Y-55902891D01*
X34699288Y-55900206D01*
X34605888Y-55880353D01*
X34518944Y-55861872D01*
X34518939Y-55861872D01*
X34512487Y-55860500D01*
X34321513Y-55860500D01*
X34315061Y-55861872D01*
X34315056Y-55861872D01*
X34228112Y-55880353D01*
X34134712Y-55900206D01*
X34128682Y-55902891D01*
X34128681Y-55902891D01*
X33966278Y-55975197D01*
X33966276Y-55975198D01*
X33960248Y-55977882D01*
X33805747Y-56090134D01*
X33677960Y-56232056D01*
X33582473Y-56397444D01*
X33523458Y-56579072D01*
X33522768Y-56585633D01*
X33522768Y-56585635D01*
X33514820Y-56661260D01*
X33487807Y-56726917D01*
X33455811Y-56755235D01*
X33451881Y-56757667D01*
X33451880Y-56757668D01*
X33445652Y-56761522D01*
X33320695Y-56886697D01*
X33316855Y-56892927D01*
X33316854Y-56892928D01*
X33252233Y-56997763D01*
X33227885Y-57037262D01*
X33172203Y-57205139D01*
X33161500Y-57309600D01*
X33161500Y-58260400D01*
X33161837Y-58263646D01*
X33161837Y-58263650D01*
X33171752Y-58359206D01*
X33172474Y-58366166D01*
X33228450Y-58533946D01*
X33321522Y-58684348D01*
X33446697Y-58809305D01*
X33452927Y-58813145D01*
X33452928Y-58813146D01*
X33590288Y-58897816D01*
X33597262Y-58902115D01*
X33652218Y-58920343D01*
X33758611Y-58955632D01*
X33758613Y-58955632D01*
X33765139Y-58957797D01*
X33771975Y-58958497D01*
X33771978Y-58958498D01*
X33815031Y-58962909D01*
X33869600Y-58968500D01*
X35045400Y-58968500D01*
X35048646Y-58968163D01*
X35048650Y-58968163D01*
X35144308Y-58958238D01*
X35144312Y-58958237D01*
X35151166Y-58957526D01*
X35157699Y-58955346D01*
X35157710Y-58955344D01*
X35262617Y-58920343D01*
X35333567Y-58917757D01*
X35394651Y-58953941D01*
X35426476Y-59017405D01*
X35418938Y-59088000D01*
X35411613Y-59102866D01*
X35363777Y-59185721D01*
X35360473Y-59191444D01*
X35344667Y-59240089D01*
X35313833Y-59334986D01*
X35273759Y-59393591D01*
X35208362Y-59421228D01*
X35193089Y-59421690D01*
X35193089Y-59422000D01*
X34967115Y-59422000D01*
X34951876Y-59426475D01*
X34950671Y-59427865D01*
X34949000Y-59435548D01*
X34949000Y-61019470D01*
X34928998Y-61087591D01*
X34918225Y-61101982D01*
X34896324Y-61127257D01*
X34835581Y-61260266D01*
X34814771Y-61405000D01*
X34814771Y-64530000D01*
X34820000Y-64603111D01*
X34839320Y-64668909D01*
X34852163Y-64712646D01*
X34861196Y-64743411D01*
X34866067Y-64750990D01*
X34935378Y-64858841D01*
X34935380Y-64858844D01*
X34940250Y-64866421D01*
X34947060Y-64872322D01*
X35043945Y-64956274D01*
X35043948Y-64956276D01*
X35050757Y-64962176D01*
X35058954Y-64965920D01*
X35058955Y-64965920D01*
X35163986Y-65013886D01*
X35217642Y-65060379D01*
X35237644Y-65128500D01*
X35217642Y-65196621D01*
X35163986Y-65243114D01*
X35111644Y-65254500D01*
X30308056Y-65254500D01*
X30296200Y-65253941D01*
X30296197Y-65253941D01*
X30288463Y-65252212D01*
X30233446Y-65253941D01*
X30217631Y-65254438D01*
X30213673Y-65254500D01*
X30184568Y-65254500D01*
X30180168Y-65255056D01*
X30168336Y-65255988D01*
X30122169Y-65257438D01*
X30101579Y-65263420D01*
X30082218Y-65267430D01*
X30075230Y-65268312D01*
X30068796Y-65269125D01*
X30068795Y-65269125D01*
X30060936Y-65270118D01*
X30053571Y-65273034D01*
X30053567Y-65273035D01*
X30017979Y-65287126D01*
X30006769Y-65290965D01*
X29962400Y-65303855D01*
X29943943Y-65314771D01*
X29926193Y-65323466D01*
X29906244Y-65331365D01*
X29899833Y-65336023D01*
X29899831Y-65336024D01*
X29868864Y-65358523D01*
X29858946Y-65365038D01*
X29819193Y-65388548D01*
X29804032Y-65403709D01*
X29789000Y-65416548D01*
X29771643Y-65429159D01*
X29766590Y-65435267D01*
X29742194Y-65464757D01*
X29734204Y-65473537D01*
X29463193Y-65744548D01*
X29400881Y-65778574D01*
X29330066Y-65773509D01*
X29273230Y-65730962D01*
X29251894Y-65686149D01*
X29231691Y-65605720D01*
X29230431Y-65600702D01*
X29141354Y-65395840D01*
X29074028Y-65291770D01*
X29022822Y-65212617D01*
X29022820Y-65212614D01*
X29020014Y-65208277D01*
X28869670Y-65043051D01*
X28865619Y-65039852D01*
X28865615Y-65039848D01*
X28698414Y-64907800D01*
X28698410Y-64907798D01*
X28694359Y-64904598D01*
X28653053Y-64881796D01*
X28603084Y-64831364D01*
X28588312Y-64761921D01*
X28613428Y-64695516D01*
X28640780Y-64668909D01*
X28703506Y-64624167D01*
X28819860Y-64541173D01*
X28826594Y-64534463D01*
X28909665Y-64451681D01*
X28978096Y-64383489D01*
X29037594Y-64300689D01*
X29070137Y-64255400D01*
X30566500Y-64255400D01*
X30566837Y-64258646D01*
X30566837Y-64258650D01*
X30569595Y-64285226D01*
X30577474Y-64361166D01*
X30579655Y-64367702D01*
X30579655Y-64367704D01*
X30607672Y-64451681D01*
X30633450Y-64528946D01*
X30726522Y-64679348D01*
X30731704Y-64684521D01*
X30742718Y-64695516D01*
X30851697Y-64804305D01*
X30857927Y-64808145D01*
X30857928Y-64808146D01*
X30995090Y-64892694D01*
X31002262Y-64897115D01*
X31080671Y-64923122D01*
X31163611Y-64950632D01*
X31163613Y-64950632D01*
X31170139Y-64952797D01*
X31176975Y-64953497D01*
X31176978Y-64953498D01*
X31220031Y-64957909D01*
X31274600Y-64963500D01*
X32225400Y-64963500D01*
X32228646Y-64963163D01*
X32228650Y-64963163D01*
X32324308Y-64953238D01*
X32324312Y-64953237D01*
X32331166Y-64952526D01*
X32337702Y-64950345D01*
X32337704Y-64950345D01*
X32482299Y-64902104D01*
X32498946Y-64896550D01*
X32649348Y-64803478D01*
X32774305Y-64678303D01*
X32775611Y-64679607D01*
X32825766Y-64644050D01*
X32840532Y-64639959D01*
X32914830Y-64624167D01*
X32914833Y-64624166D01*
X32921288Y-64622794D01*
X32929266Y-64619242D01*
X33089722Y-64547803D01*
X33089724Y-64547802D01*
X33095752Y-64545118D01*
X33106198Y-64537529D01*
X33181741Y-64482643D01*
X33250253Y-64432866D01*
X33378040Y-64290944D01*
X33473527Y-64125556D01*
X33532542Y-63943928D01*
X33552504Y-63754000D01*
X33546278Y-63694767D01*
X33533232Y-63570635D01*
X33533232Y-63570633D01*
X33532542Y-63564072D01*
X33473527Y-63382444D01*
X33378040Y-63217056D01*
X33336451Y-63170866D01*
X33254675Y-63080045D01*
X33254674Y-63080044D01*
X33250253Y-63075134D01*
X33129047Y-62987072D01*
X33101094Y-62966763D01*
X33101093Y-62966762D01*
X33095752Y-62962882D01*
X33089724Y-62960198D01*
X33089722Y-62960197D01*
X32938722Y-62892968D01*
X32884626Y-62846988D01*
X32870447Y-62817736D01*
X32866550Y-62806054D01*
X32852866Y-62783940D01*
X32777332Y-62661880D01*
X32773478Y-62655652D01*
X32648303Y-62530695D01*
X32609652Y-62506870D01*
X32503968Y-62441725D01*
X32503966Y-62441724D01*
X32497738Y-62437885D01*
X32417995Y-62411436D01*
X32336389Y-62384368D01*
X32336387Y-62384368D01*
X32329861Y-62382203D01*
X32323025Y-62381503D01*
X32323022Y-62381502D01*
X32274200Y-62376500D01*
X32225400Y-62371500D01*
X31274600Y-62371500D01*
X31271354Y-62371837D01*
X31271350Y-62371837D01*
X31175692Y-62381762D01*
X31175688Y-62381763D01*
X31168834Y-62382474D01*
X31162298Y-62384655D01*
X31162296Y-62384655D01*
X31126787Y-62396502D01*
X31001054Y-62438450D01*
X30850652Y-62531522D01*
X30725695Y-62656697D01*
X30721855Y-62662927D01*
X30721854Y-62662928D01*
X30684725Y-62723163D01*
X30632885Y-62807262D01*
X30615197Y-62860590D01*
X30579420Y-62968456D01*
X30577203Y-62975139D01*
X30576503Y-62981975D01*
X30576502Y-62981978D01*
X30574414Y-63002356D01*
X30566500Y-63079600D01*
X30566500Y-64255400D01*
X29070137Y-64255400D01*
X29105435Y-64206277D01*
X29108453Y-64202077D01*
X29143444Y-64131279D01*
X29205136Y-64006453D01*
X29205137Y-64006451D01*
X29207430Y-64001811D01*
X29272370Y-63788069D01*
X29301529Y-63566590D01*
X29301744Y-63557794D01*
X29303074Y-63503365D01*
X29303074Y-63503361D01*
X29303156Y-63500000D01*
X29284852Y-63277361D01*
X29230431Y-63060702D01*
X29141354Y-62855840D01*
X29094840Y-62783940D01*
X29022822Y-62672617D01*
X29022820Y-62672614D01*
X29020014Y-62668277D01*
X28869670Y-62503051D01*
X28865619Y-62499852D01*
X28865615Y-62499848D01*
X28698414Y-62367800D01*
X28698410Y-62367798D01*
X28694359Y-62364598D01*
X28653053Y-62341796D01*
X28603084Y-62291364D01*
X28588312Y-62221921D01*
X28613428Y-62155516D01*
X28640780Y-62128909D01*
X28709907Y-62079601D01*
X28819860Y-62001173D01*
X28978096Y-61843489D01*
X28985436Y-61833275D01*
X29105435Y-61666277D01*
X29108453Y-61662077D01*
X29116609Y-61645576D01*
X29205136Y-61466453D01*
X29205137Y-61466451D01*
X29207430Y-61461811D01*
X29233169Y-61377095D01*
X30567001Y-61377095D01*
X30567338Y-61383614D01*
X30577257Y-61479206D01*
X30580149Y-61492600D01*
X30631588Y-61646784D01*
X30637761Y-61659962D01*
X30723063Y-61797807D01*
X30732099Y-61809208D01*
X30846829Y-61923739D01*
X30858240Y-61932751D01*
X30996243Y-62017816D01*
X31009424Y-62023963D01*
X31163710Y-62075138D01*
X31177086Y-62078005D01*
X31271438Y-62087672D01*
X31277854Y-62088000D01*
X31477885Y-62088000D01*
X31493124Y-62083525D01*
X31494329Y-62082135D01*
X31496000Y-62074452D01*
X31496000Y-62069884D01*
X32004000Y-62069884D01*
X32008475Y-62085123D01*
X32009865Y-62086328D01*
X32017548Y-62087999D01*
X32222095Y-62087999D01*
X32228614Y-62087662D01*
X32324206Y-62077743D01*
X32337600Y-62074851D01*
X32491784Y-62023412D01*
X32504962Y-62017239D01*
X32642807Y-61931937D01*
X32654208Y-61922901D01*
X32768739Y-61808171D01*
X32777751Y-61796760D01*
X32862816Y-61658757D01*
X32868963Y-61645576D01*
X32920138Y-61491290D01*
X32923005Y-61477914D01*
X32932672Y-61383562D01*
X32933000Y-61377146D01*
X32933000Y-61274669D01*
X33737001Y-61274669D01*
X33737371Y-61281490D01*
X33742895Y-61332352D01*
X33746521Y-61347604D01*
X33791676Y-61468054D01*
X33800214Y-61483649D01*
X33876715Y-61585724D01*
X33889276Y-61598285D01*
X33991351Y-61674786D01*
X34006946Y-61683324D01*
X34127394Y-61728478D01*
X34142649Y-61732105D01*
X34193514Y-61737631D01*
X34200328Y-61738000D01*
X34422885Y-61738000D01*
X34438124Y-61733525D01*
X34439329Y-61732135D01*
X34441000Y-61724452D01*
X34441000Y-60852115D01*
X34436525Y-60836876D01*
X34435135Y-60835671D01*
X34427452Y-60834000D01*
X33755116Y-60834000D01*
X33739877Y-60838475D01*
X33738672Y-60839865D01*
X33737001Y-60847548D01*
X33737001Y-61274669D01*
X32933000Y-61274669D01*
X32933000Y-61064615D01*
X32928525Y-61049376D01*
X32927135Y-61048171D01*
X32919452Y-61046500D01*
X32022115Y-61046500D01*
X32006876Y-61050975D01*
X32005671Y-61052365D01*
X32004000Y-61060048D01*
X32004000Y-62069884D01*
X31496000Y-62069884D01*
X31496000Y-61064615D01*
X31491525Y-61049376D01*
X31490135Y-61048171D01*
X31482452Y-61046500D01*
X30585116Y-61046500D01*
X30569877Y-61050975D01*
X30568672Y-61052365D01*
X30567001Y-61060048D01*
X30567001Y-61377095D01*
X29233169Y-61377095D01*
X29272370Y-61248069D01*
X29301529Y-61026590D01*
X29301703Y-61019470D01*
X29303074Y-60963365D01*
X29303074Y-60963361D01*
X29303156Y-60960000D01*
X29284852Y-60737361D01*
X29230431Y-60520702D01*
X29230293Y-60520385D01*
X30567000Y-60520385D01*
X30571475Y-60535624D01*
X30572865Y-60536829D01*
X30580548Y-60538500D01*
X31477885Y-60538500D01*
X31493124Y-60534025D01*
X31494329Y-60532635D01*
X31496000Y-60524952D01*
X31496000Y-60520385D01*
X32004000Y-60520385D01*
X32008475Y-60535624D01*
X32009865Y-60536829D01*
X32017548Y-60538500D01*
X32914884Y-60538500D01*
X32930123Y-60534025D01*
X32931328Y-60532635D01*
X32932999Y-60524952D01*
X32932999Y-60307885D01*
X33737000Y-60307885D01*
X33741475Y-60323124D01*
X33742865Y-60324329D01*
X33750548Y-60326000D01*
X34422885Y-60326000D01*
X34438124Y-60321525D01*
X34439329Y-60320135D01*
X34441000Y-60312452D01*
X34441000Y-59440116D01*
X34436525Y-59424877D01*
X34435135Y-59423672D01*
X34427452Y-59422001D01*
X34200331Y-59422001D01*
X34193510Y-59422371D01*
X34142648Y-59427895D01*
X34127396Y-59431521D01*
X34006946Y-59476676D01*
X33991351Y-59485214D01*
X33889276Y-59561715D01*
X33876715Y-59574276D01*
X33800214Y-59676351D01*
X33791676Y-59691946D01*
X33746522Y-59812394D01*
X33742895Y-59827649D01*
X33737369Y-59878514D01*
X33737000Y-59885328D01*
X33737000Y-60307885D01*
X32932999Y-60307885D01*
X32932999Y-60207905D01*
X32932662Y-60201386D01*
X32922743Y-60105794D01*
X32919851Y-60092400D01*
X32868412Y-59938216D01*
X32862239Y-59925038D01*
X32776937Y-59787193D01*
X32767901Y-59775792D01*
X32653171Y-59661261D01*
X32641760Y-59652249D01*
X32503757Y-59567184D01*
X32490576Y-59561037D01*
X32336290Y-59509862D01*
X32322914Y-59506995D01*
X32228562Y-59497328D01*
X32222145Y-59497000D01*
X32022115Y-59497000D01*
X32006876Y-59501475D01*
X32005671Y-59502865D01*
X32004000Y-59510548D01*
X32004000Y-60520385D01*
X31496000Y-60520385D01*
X31496000Y-59515116D01*
X31491525Y-59499877D01*
X31490135Y-59498672D01*
X31482452Y-59497001D01*
X31277905Y-59497001D01*
X31271386Y-59497338D01*
X31175794Y-59507257D01*
X31162400Y-59510149D01*
X31008216Y-59561588D01*
X30995038Y-59567761D01*
X30857193Y-59653063D01*
X30845792Y-59662099D01*
X30731261Y-59776829D01*
X30722249Y-59788240D01*
X30637184Y-59926243D01*
X30631037Y-59939424D01*
X30579862Y-60093710D01*
X30576995Y-60107086D01*
X30567328Y-60201438D01*
X30567000Y-60207855D01*
X30567000Y-60520385D01*
X29230293Y-60520385D01*
X29141354Y-60315840D01*
X29020014Y-60128277D01*
X29016540Y-60124459D01*
X29016533Y-60124450D01*
X28872435Y-59966088D01*
X28841383Y-59902242D01*
X28849779Y-59831744D01*
X28894956Y-59776976D01*
X28921400Y-59763307D01*
X29028052Y-59723325D01*
X29043649Y-59714786D01*
X29145724Y-59638285D01*
X29158285Y-59625724D01*
X29234786Y-59523649D01*
X29243324Y-59508054D01*
X29288478Y-59387606D01*
X29292105Y-59372351D01*
X29297631Y-59321486D01*
X29298000Y-59314672D01*
X29298000Y-58692115D01*
X29293525Y-58676876D01*
X29292135Y-58675671D01*
X29284452Y-58674000D01*
X26600116Y-58674000D01*
X26584877Y-58678475D01*
X26583672Y-58679865D01*
X26582001Y-58687548D01*
X26582001Y-59314669D01*
X26582371Y-59321490D01*
X26587895Y-59372352D01*
X26591521Y-59387604D01*
X26636676Y-59508054D01*
X26645214Y-59523649D01*
X26721715Y-59625724D01*
X26734276Y-59638285D01*
X26836351Y-59714786D01*
X26851946Y-59723324D01*
X26960827Y-59764142D01*
X27017591Y-59806784D01*
X27042291Y-59873345D01*
X27027083Y-59942694D01*
X27007691Y-59969175D01*
X26889935Y-60092400D01*
X26880629Y-60102138D01*
X26754743Y-60286680D01*
X26660688Y-60489305D01*
X26600989Y-60704570D01*
X26577251Y-60926695D01*
X26577548Y-60931848D01*
X26577548Y-60931851D01*
X26584417Y-61050975D01*
X26590110Y-61149715D01*
X26591247Y-61154761D01*
X26591248Y-61154767D01*
X26595818Y-61175045D01*
X26639222Y-61367639D01*
X26723266Y-61574616D01*
X26766750Y-61645576D01*
X26823388Y-61738000D01*
X26839987Y-61765088D01*
X26986250Y-61933938D01*
X27158126Y-62076632D01*
X27177580Y-62088000D01*
X27231445Y-62119476D01*
X27280169Y-62171114D01*
X27293240Y-62240897D01*
X27266509Y-62306669D01*
X27226055Y-62340027D01*
X27213607Y-62346507D01*
X27209474Y-62349610D01*
X27209471Y-62349612D01*
X27083068Y-62444518D01*
X27034965Y-62480635D01*
X26880629Y-62642138D01*
X26877715Y-62646410D01*
X26877714Y-62646411D01*
X26825351Y-62723172D01*
X26754743Y-62826680D01*
X26736599Y-62865769D01*
X26665301Y-63019368D01*
X26660688Y-63029305D01*
X26600989Y-63244570D01*
X26577251Y-63466695D01*
X26577548Y-63471848D01*
X26577548Y-63471851D01*
X26585522Y-63610139D01*
X26590110Y-63689715D01*
X26591247Y-63694761D01*
X26591248Y-63694767D01*
X26604597Y-63754000D01*
X26639222Y-63907639D01*
X26723266Y-64114616D01*
X26725965Y-64119020D01*
X26831320Y-64290944D01*
X26839987Y-64305088D01*
X26986250Y-64473938D01*
X27158126Y-64616632D01*
X27215874Y-64650377D01*
X27231445Y-64659476D01*
X27280169Y-64711114D01*
X27293240Y-64780897D01*
X27266509Y-64846669D01*
X27226055Y-64880027D01*
X27213607Y-64886507D01*
X27209474Y-64889610D01*
X27209471Y-64889612D01*
X27039100Y-65017530D01*
X27034965Y-65020635D01*
X26880629Y-65182138D01*
X26877715Y-65186410D01*
X26877714Y-65186411D01*
X26830252Y-65255988D01*
X26754743Y-65366680D01*
X26725741Y-65429159D01*
X26664129Y-65561893D01*
X26660688Y-65569305D01*
X26600989Y-65784570D01*
X26577251Y-66006695D01*
X26577548Y-66011848D01*
X26577548Y-66011851D01*
X26589812Y-66224547D01*
X26590110Y-66229715D01*
X26591247Y-66234761D01*
X26591248Y-66234767D01*
X26606913Y-66304274D01*
X26639222Y-66447639D01*
X26723266Y-66654616D01*
X26725965Y-66659020D01*
X26818610Y-66810203D01*
X26839987Y-66845088D01*
X26843367Y-66848990D01*
X26859092Y-66867144D01*
X26888574Y-66931730D01*
X26878457Y-67002002D01*
X26852948Y-67038735D01*
X26123595Y-67768088D01*
X26061283Y-67802114D01*
X25990468Y-67797049D01*
X25933632Y-67754502D01*
X25908821Y-67687982D01*
X25908500Y-67678993D01*
X25908500Y-58257095D01*
X30287001Y-58257095D01*
X30287338Y-58263614D01*
X30297257Y-58359206D01*
X30300149Y-58372600D01*
X30351588Y-58526784D01*
X30357761Y-58539962D01*
X30443063Y-58677807D01*
X30452099Y-58689208D01*
X30566829Y-58803739D01*
X30578240Y-58812751D01*
X30716243Y-58897816D01*
X30729424Y-58903963D01*
X30883710Y-58955138D01*
X30897086Y-58958005D01*
X30991438Y-58967672D01*
X30997854Y-58968000D01*
X31310385Y-58968000D01*
X31325624Y-58963525D01*
X31326829Y-58962135D01*
X31328500Y-58954452D01*
X31328500Y-58949884D01*
X31836500Y-58949884D01*
X31840975Y-58965123D01*
X31842365Y-58966328D01*
X31850048Y-58967999D01*
X32167095Y-58967999D01*
X32173614Y-58967662D01*
X32269206Y-58957743D01*
X32282600Y-58954851D01*
X32436784Y-58903412D01*
X32449962Y-58897239D01*
X32587807Y-58811937D01*
X32599208Y-58802901D01*
X32713739Y-58688171D01*
X32722751Y-58676760D01*
X32807816Y-58538757D01*
X32813963Y-58525576D01*
X32865138Y-58371290D01*
X32868005Y-58357914D01*
X32877672Y-58263562D01*
X32878000Y-58257146D01*
X32878000Y-58057115D01*
X32873525Y-58041876D01*
X32872135Y-58040671D01*
X32864452Y-58039000D01*
X31854615Y-58039000D01*
X31839376Y-58043475D01*
X31838171Y-58044865D01*
X31836500Y-58052548D01*
X31836500Y-58949884D01*
X31328500Y-58949884D01*
X31328500Y-58057115D01*
X31324025Y-58041876D01*
X31322635Y-58040671D01*
X31314952Y-58039000D01*
X30305116Y-58039000D01*
X30289877Y-58043475D01*
X30288672Y-58044865D01*
X30287001Y-58052548D01*
X30287001Y-58257095D01*
X25908500Y-58257095D01*
X25908500Y-58147885D01*
X26582000Y-58147885D01*
X26586475Y-58163124D01*
X26587865Y-58164329D01*
X26595548Y-58166000D01*
X27667885Y-58166000D01*
X27683124Y-58161525D01*
X27684329Y-58160135D01*
X27686000Y-58152452D01*
X27686000Y-58147885D01*
X28194000Y-58147885D01*
X28198475Y-58163124D01*
X28199865Y-58164329D01*
X28207548Y-58166000D01*
X29279884Y-58166000D01*
X29295123Y-58161525D01*
X29296328Y-58160135D01*
X29297999Y-58152452D01*
X29297999Y-57525331D01*
X29297629Y-57518510D01*
X29297018Y-57512885D01*
X30287000Y-57512885D01*
X30291475Y-57528124D01*
X30292865Y-57529329D01*
X30300548Y-57531000D01*
X31310385Y-57531000D01*
X31325624Y-57526525D01*
X31326829Y-57525135D01*
X31328500Y-57517452D01*
X31328500Y-57512885D01*
X31836500Y-57512885D01*
X31840975Y-57528124D01*
X31842365Y-57529329D01*
X31850048Y-57531000D01*
X32859884Y-57531000D01*
X32875123Y-57526525D01*
X32876328Y-57525135D01*
X32877999Y-57517452D01*
X32877999Y-57312905D01*
X32877662Y-57306386D01*
X32867743Y-57210794D01*
X32864851Y-57197400D01*
X32813412Y-57043216D01*
X32807239Y-57030038D01*
X32721937Y-56892193D01*
X32712901Y-56880792D01*
X32598171Y-56766261D01*
X32586760Y-56757249D01*
X32448757Y-56672184D01*
X32435576Y-56666037D01*
X32281290Y-56614862D01*
X32267914Y-56611995D01*
X32173562Y-56602328D01*
X32167145Y-56602000D01*
X31854615Y-56602000D01*
X31839376Y-56606475D01*
X31838171Y-56607865D01*
X31836500Y-56615548D01*
X31836500Y-57512885D01*
X31328500Y-57512885D01*
X31328500Y-56620116D01*
X31324025Y-56604877D01*
X31322635Y-56603672D01*
X31314952Y-56602001D01*
X30997905Y-56602001D01*
X30991386Y-56602338D01*
X30895794Y-56612257D01*
X30882400Y-56615149D01*
X30728216Y-56666588D01*
X30715038Y-56672761D01*
X30577193Y-56758063D01*
X30565792Y-56767099D01*
X30451261Y-56881829D01*
X30442249Y-56893240D01*
X30357184Y-57031243D01*
X30351037Y-57044424D01*
X30299862Y-57198710D01*
X30296995Y-57212086D01*
X30287328Y-57306438D01*
X30287000Y-57312855D01*
X30287000Y-57512885D01*
X29297018Y-57512885D01*
X29292105Y-57467648D01*
X29288479Y-57452396D01*
X29243324Y-57331946D01*
X29234786Y-57316351D01*
X29158285Y-57214276D01*
X29145724Y-57201715D01*
X29043649Y-57125214D01*
X29028054Y-57116676D01*
X28907606Y-57071522D01*
X28892351Y-57067895D01*
X28841486Y-57062369D01*
X28834672Y-57062000D01*
X28212115Y-57062000D01*
X28196876Y-57066475D01*
X28195671Y-57067865D01*
X28194000Y-57075548D01*
X28194000Y-58147885D01*
X27686000Y-58147885D01*
X27686000Y-57080116D01*
X27681525Y-57064877D01*
X27680135Y-57063672D01*
X27672452Y-57062001D01*
X27045331Y-57062001D01*
X27038510Y-57062371D01*
X26987648Y-57067895D01*
X26972396Y-57071521D01*
X26851946Y-57116676D01*
X26836351Y-57125214D01*
X26734276Y-57201715D01*
X26721715Y-57214276D01*
X26645214Y-57316351D01*
X26636676Y-57331946D01*
X26591522Y-57452394D01*
X26587895Y-57467649D01*
X26582369Y-57518514D01*
X26582000Y-57525328D01*
X26582000Y-58147885D01*
X25908500Y-58147885D01*
X25908500Y-53472703D01*
X28370743Y-53472703D01*
X28408268Y-53757734D01*
X28484129Y-54035036D01*
X28596923Y-54299476D01*
X28744561Y-54546161D01*
X28924313Y-54770528D01*
X29132851Y-54968423D01*
X29366317Y-55136186D01*
X29370112Y-55138195D01*
X29370113Y-55138196D01*
X29391869Y-55149715D01*
X29620392Y-55270712D01*
X29890373Y-55369511D01*
X30171264Y-55430755D01*
X30199841Y-55433004D01*
X30394282Y-55448307D01*
X30394291Y-55448307D01*
X30396739Y-55448500D01*
X30552271Y-55448500D01*
X30554407Y-55448354D01*
X30554418Y-55448354D01*
X30762548Y-55434165D01*
X30762554Y-55434164D01*
X30766825Y-55433873D01*
X30771020Y-55433004D01*
X30771022Y-55433004D01*
X30907584Y-55404723D01*
X31048342Y-55375574D01*
X31319343Y-55279607D01*
X31574812Y-55147750D01*
X31578313Y-55145289D01*
X31578317Y-55145287D01*
X31692417Y-55065096D01*
X31810023Y-54982441D01*
X32020622Y-54786740D01*
X32202713Y-54564268D01*
X32352927Y-54319142D01*
X32468483Y-54055898D01*
X32547244Y-53779406D01*
X32587751Y-53494784D01*
X32587845Y-53476951D01*
X32587867Y-53472703D01*
X41070743Y-53472703D01*
X41108268Y-53757734D01*
X41184129Y-54035036D01*
X41296923Y-54299476D01*
X41444561Y-54546161D01*
X41624313Y-54770528D01*
X41832851Y-54968423D01*
X42066317Y-55136186D01*
X42070112Y-55138195D01*
X42070113Y-55138196D01*
X42091869Y-55149715D01*
X42320392Y-55270712D01*
X42590373Y-55369511D01*
X42871264Y-55430755D01*
X42899841Y-55433004D01*
X43094282Y-55448307D01*
X43094291Y-55448307D01*
X43096739Y-55448500D01*
X43252271Y-55448500D01*
X43254407Y-55448354D01*
X43254418Y-55448354D01*
X43462548Y-55434165D01*
X43462554Y-55434164D01*
X43466825Y-55433873D01*
X43471020Y-55433004D01*
X43471022Y-55433004D01*
X43607584Y-55404723D01*
X43748342Y-55375574D01*
X44019343Y-55279607D01*
X44274812Y-55147750D01*
X44278313Y-55145289D01*
X44278317Y-55145287D01*
X44392417Y-55065096D01*
X44510023Y-54982441D01*
X44720622Y-54786740D01*
X44902713Y-54564268D01*
X45052927Y-54319142D01*
X45168483Y-54055898D01*
X45247244Y-53779406D01*
X45287751Y-53494784D01*
X45287845Y-53476951D01*
X45289235Y-53211583D01*
X45289235Y-53211576D01*
X45289257Y-53207297D01*
X45251732Y-52922266D01*
X45175871Y-52644964D01*
X45063077Y-52380524D01*
X44932400Y-52162178D01*
X44917643Y-52137521D01*
X44917640Y-52137517D01*
X44915439Y-52133839D01*
X44735687Y-51909472D01*
X44527149Y-51711577D01*
X44293683Y-51543814D01*
X44271843Y-51532250D01*
X44248654Y-51519972D01*
X44039608Y-51409288D01*
X43769627Y-51310489D01*
X43488736Y-51249245D01*
X43457685Y-51246801D01*
X43265718Y-51231693D01*
X43265709Y-51231693D01*
X43263261Y-51231500D01*
X43107729Y-51231500D01*
X43105593Y-51231646D01*
X43105582Y-51231646D01*
X42897452Y-51245835D01*
X42897446Y-51245836D01*
X42893175Y-51246127D01*
X42888980Y-51246996D01*
X42888978Y-51246996D01*
X42752417Y-51275276D01*
X42611658Y-51304426D01*
X42340657Y-51400393D01*
X42085188Y-51532250D01*
X42081687Y-51534711D01*
X42081683Y-51534713D01*
X42071594Y-51541804D01*
X41849977Y-51697559D01*
X41639378Y-51893260D01*
X41457287Y-52115732D01*
X41307073Y-52360858D01*
X41191517Y-52624102D01*
X41112756Y-52900594D01*
X41072249Y-53185216D01*
X41072227Y-53189505D01*
X41072226Y-53189512D01*
X41071263Y-53373421D01*
X41070743Y-53472703D01*
X32587867Y-53472703D01*
X32589235Y-53211583D01*
X32589235Y-53211576D01*
X32589257Y-53207297D01*
X32551732Y-52922266D01*
X32475871Y-52644964D01*
X32363077Y-52380524D01*
X32232400Y-52162178D01*
X32217643Y-52137521D01*
X32217640Y-52137517D01*
X32215439Y-52133839D01*
X32035687Y-51909472D01*
X31827149Y-51711577D01*
X31593683Y-51543814D01*
X31571843Y-51532250D01*
X31548654Y-51519972D01*
X31339608Y-51409288D01*
X31069627Y-51310489D01*
X30788736Y-51249245D01*
X30757685Y-51246801D01*
X30565718Y-51231693D01*
X30565709Y-51231693D01*
X30563261Y-51231500D01*
X30407729Y-51231500D01*
X30405593Y-51231646D01*
X30405582Y-51231646D01*
X30197452Y-51245835D01*
X30197446Y-51245836D01*
X30193175Y-51246127D01*
X30188980Y-51246996D01*
X30188978Y-51246996D01*
X30052417Y-51275276D01*
X29911658Y-51304426D01*
X29640657Y-51400393D01*
X29385188Y-51532250D01*
X29381687Y-51534711D01*
X29381683Y-51534713D01*
X29371594Y-51541804D01*
X29149977Y-51697559D01*
X28939378Y-51893260D01*
X28757287Y-52115732D01*
X28607073Y-52360858D01*
X28491517Y-52624102D01*
X28412756Y-52900594D01*
X28372249Y-53185216D01*
X28372227Y-53189505D01*
X28372226Y-53189512D01*
X28371263Y-53373421D01*
X28370743Y-53472703D01*
X25908500Y-53472703D01*
X25908500Y-53393250D01*
X25910246Y-53372345D01*
X25912770Y-53357344D01*
X25912770Y-53357341D01*
X25913576Y-53352552D01*
X25913729Y-53340000D01*
X25913039Y-53335184D01*
X25913039Y-53335178D01*
X25911387Y-53323644D01*
X25910234Y-53300284D01*
X25914480Y-53203049D01*
X25925656Y-52947063D01*
X25926614Y-52936114D01*
X25977233Y-52551621D01*
X25979142Y-52540795D01*
X26063080Y-52162178D01*
X26065925Y-52151561D01*
X26146320Y-51896579D01*
X26182542Y-51781698D01*
X26186298Y-51771377D01*
X26212105Y-51709074D01*
X26334715Y-51413068D01*
X26339357Y-51403115D01*
X26386808Y-51311964D01*
X26518424Y-51059132D01*
X26523919Y-51049613D01*
X26732292Y-50722532D01*
X26738597Y-50713528D01*
X26974678Y-50405862D01*
X26981743Y-50397442D01*
X27243744Y-50111517D01*
X27251517Y-50103744D01*
X27537442Y-49841743D01*
X27545862Y-49834678D01*
X27853528Y-49598597D01*
X27862532Y-49592292D01*
X28189613Y-49383919D01*
X28199133Y-49378423D01*
X28543124Y-49199353D01*
X28553068Y-49194715D01*
X28911385Y-49046295D01*
X28921698Y-49042542D01*
X29121298Y-48979608D01*
X29291561Y-48925925D01*
X29302178Y-48923080D01*
X29680795Y-48839142D01*
X29691621Y-48837233D01*
X30076114Y-48786614D01*
X30087063Y-48785656D01*
X30436554Y-48770397D01*
X30461429Y-48771777D01*
X30473724Y-48773691D01*
X30482626Y-48772527D01*
X30482628Y-48772527D01*
X30501399Y-48770072D01*
X30505286Y-48769564D01*
X30521621Y-48768500D01*
X43130633Y-48768500D01*
X43150018Y-48770000D01*
G37*
%TD.AperFunction*%
%TD*%
M02*
