M48
; DRILL file {KiCad (6.0.9-0)} date 2024 January 20, Saturday 14:21:35
; FORMAT={-:-/ absolute / inch / decimal}
; #@! TF.CreationDate,2024-01-20T14:21:35+01:00
; #@! TF.GenerationSoftware,Kicad,Pcbnew,(6.0.9-0)
; #@! TF.FileFunction,Plated,1,4,PTH
FMAT,2
INCH
; #@! TA.AperFunction,Plated,PTH,ViaDrill
T1C0.0118
; #@! TA.AperFunction,Plated,PTH,ViaDrill
T2C0.0157
; #@! TA.AperFunction,Plated,PTH,ComponentDrill
T3C0.0394
; #@! TA.AperFunction,Plated,PTH,ComponentDrill
T4C0.1260
%
G90
G05
T1
X1.04Y-3.75
X1.16Y-3.75
X1.165Y-3.295
X1.17Y-3.6
X1.185Y-2.7
X1.19Y-2.845
X1.32Y-4.0322
X1.3325Y-2.7625
X1.34Y-3.9788
X1.35Y-3.495
X1.3683Y-2.7657
X1.395Y-3.52
X1.525Y-2.595
X1.575Y-2.595
X1.575Y-3.7922
X1.685Y-3.2059
T2
X1.24Y-3.6
X1.285Y-2.51
X1.355Y-2.235
X1.3728Y-3.7041
X1.415Y-3.86
X1.425Y-2.345
X1.465Y-3.86
X1.52Y-3.77
X1.53Y-2.42
X1.64Y-2.275
X1.675Y-2.435
T3
X1.1Y-2.3
X1.1Y-2.4
X1.1Y-2.5
X1.1Y-2.6
X1.1Y-2.7
X1.1Y-2.8
X1.1Y-2.9
X1.1Y-3.0
X1.1Y-3.1
X1.1Y-3.2
X1.1Y-3.3
X1.1Y-3.4
X1.1Y-3.5
X1.1Y-3.6
X1.1Y-3.7
X1.1Y-3.8
X1.1Y-3.9
X1.1Y-4.0
X1.1Y-4.1
X1.1Y-4.2
X1.8Y-2.3
X1.8Y-2.4
X1.8Y-2.5
X1.8Y-2.6
X1.8Y-2.7
X1.8Y-2.8
X1.8Y-2.9
X1.8Y-3.0
X1.8Y-3.1
X1.8Y-3.2
X1.8Y-3.3
X1.8Y-3.4
X1.8Y-3.5
X1.8Y-3.6
X1.8Y-3.7
X1.8Y-3.8
X1.8Y-3.9
X1.8Y-4.0
X1.8Y-4.1
X1.8Y-4.2
T4
X1.2Y-4.4
X1.7Y-4.4
T0
M30
