%TF.GenerationSoftware,KiCad,Pcbnew,(6.0.9-0)*%
%TF.CreationDate,2024-03-22T18:27:50+01:00*%
%TF.ProjectId,pt-workshop,70742d77-6f72-46b7-9368-6f702e6b6963,rev?*%
%TF.SameCoordinates,Original*%
%TF.FileFunction,Legend,Bot*%
%TF.FilePolarity,Positive*%
%FSLAX46Y46*%
G04 Gerber Fmt 4.6, Leading zero omitted, Abs format (unit mm)*
G04 Created by KiCad (PCBNEW (6.0.9-0)) date 2024-03-22 18:27:50*
%MOMM*%
%LPD*%
G01*
G04 APERTURE LIST*
%ADD10C,0.120000*%
%ADD11C,0.110000*%
%ADD12C,0.010000*%
%ADD13C,5.500000*%
%ADD14C,3.200000*%
%ADD15R,1.700000X1.700000*%
%ADD16O,1.700000X1.700000*%
G04 APERTURE END LIST*
D10*
X41401428Y-102698571D02*
X41401428Y-103498571D01*
X41401428Y-102736666D02*
X41325238Y-102698571D01*
X41172857Y-102698571D01*
X41096666Y-102736666D01*
X41058571Y-102774761D01*
X41020476Y-102850952D01*
X41020476Y-103079523D01*
X41058571Y-103155714D01*
X41096666Y-103193809D01*
X41172857Y-103231904D01*
X41325238Y-103231904D01*
X41401428Y-103193809D01*
X40372857Y-103193809D02*
X40449047Y-103231904D01*
X40601428Y-103231904D01*
X40677619Y-103193809D01*
X40715714Y-103117619D01*
X40715714Y-102812857D01*
X40677619Y-102736666D01*
X40601428Y-102698571D01*
X40449047Y-102698571D01*
X40372857Y-102736666D01*
X40334761Y-102812857D01*
X40334761Y-102889047D01*
X40715714Y-102965238D01*
X39649047Y-103231904D02*
X39649047Y-102431904D01*
X39649047Y-103193809D02*
X39725238Y-103231904D01*
X39877619Y-103231904D01*
X39953809Y-103193809D01*
X39991904Y-103155714D01*
X40030000Y-103079523D01*
X40030000Y-102850952D01*
X39991904Y-102774761D01*
X39953809Y-102736666D01*
X39877619Y-102698571D01*
X39725238Y-102698571D01*
X39649047Y-102736666D01*
X38925238Y-103231904D02*
X38925238Y-102812857D01*
X38963333Y-102736666D01*
X39039523Y-102698571D01*
X39191904Y-102698571D01*
X39268095Y-102736666D01*
X38925238Y-103193809D02*
X39001428Y-103231904D01*
X39191904Y-103231904D01*
X39268095Y-103193809D01*
X39306190Y-103117619D01*
X39306190Y-103041428D01*
X39268095Y-102965238D01*
X39191904Y-102927142D01*
X39001428Y-102927142D01*
X38925238Y-102889047D01*
X38430000Y-103231904D02*
X38506190Y-103193809D01*
X38544285Y-103117619D01*
X38544285Y-102431904D01*
X38125238Y-103231904D02*
X38125238Y-102698571D01*
X38125238Y-102774761D02*
X38087142Y-102736666D01*
X38010952Y-102698571D01*
X37896666Y-102698571D01*
X37820476Y-102736666D01*
X37782380Y-102812857D01*
X37782380Y-103231904D01*
X37782380Y-102812857D02*
X37744285Y-102736666D01*
X37668095Y-102698571D01*
X37553809Y-102698571D01*
X37477619Y-102736666D01*
X37439523Y-102812857D01*
X37439523Y-103231904D01*
X36715714Y-103231904D02*
X36715714Y-102812857D01*
X36753809Y-102736666D01*
X36830000Y-102698571D01*
X36982380Y-102698571D01*
X37058571Y-102736666D01*
X36715714Y-103193809D02*
X36791904Y-103231904D01*
X36982380Y-103231904D01*
X37058571Y-103193809D01*
X37096666Y-103117619D01*
X37096666Y-103041428D01*
X37058571Y-102965238D01*
X36982380Y-102927142D01*
X36791904Y-102927142D01*
X36715714Y-102889047D01*
X36334761Y-103231904D02*
X36334761Y-102698571D01*
X36334761Y-102850952D02*
X36296666Y-102774761D01*
X36258571Y-102736666D01*
X36182380Y-102698571D01*
X36106190Y-102698571D01*
X35839523Y-103231904D02*
X35839523Y-102431904D01*
X35763333Y-102927142D02*
X35534761Y-103231904D01*
X35534761Y-102698571D02*
X35839523Y-103003333D01*
X35306190Y-102698571D02*
X35001428Y-102698571D01*
X35191904Y-102431904D02*
X35191904Y-103117619D01*
X35153809Y-103193809D01*
X35077619Y-103231904D01*
X35001428Y-103231904D01*
X34734761Y-103155714D02*
X34696666Y-103193809D01*
X34734761Y-103231904D01*
X34772857Y-103193809D01*
X34734761Y-103155714D01*
X34734761Y-103231904D01*
X34010952Y-103193809D02*
X34087142Y-103231904D01*
X34239523Y-103231904D01*
X34315714Y-103193809D01*
X34353809Y-103155714D01*
X34391904Y-103079523D01*
X34391904Y-102850952D01*
X34353809Y-102774761D01*
X34315714Y-102736666D01*
X34239523Y-102698571D01*
X34087142Y-102698571D01*
X34010952Y-102736666D01*
X33553809Y-103231904D02*
X33630000Y-103193809D01*
X33668095Y-103155714D01*
X33706190Y-103079523D01*
X33706190Y-102850952D01*
X33668095Y-102774761D01*
X33630000Y-102736666D01*
X33553809Y-102698571D01*
X33439523Y-102698571D01*
X33363333Y-102736666D01*
X33325238Y-102774761D01*
X33287142Y-102850952D01*
X33287142Y-103079523D01*
X33325238Y-103155714D01*
X33363333Y-103193809D01*
X33439523Y-103231904D01*
X33553809Y-103231904D01*
X32944285Y-103231904D02*
X32944285Y-102698571D01*
X32944285Y-102774761D02*
X32906190Y-102736666D01*
X32830000Y-102698571D01*
X32715714Y-102698571D01*
X32639523Y-102736666D01*
X32601428Y-102812857D01*
X32601428Y-103231904D01*
X32601428Y-102812857D02*
X32563333Y-102736666D01*
X32487142Y-102698571D01*
X32372857Y-102698571D01*
X32296666Y-102736666D01*
X32258571Y-102812857D01*
X32258571Y-103231904D01*
D11*
X45570000Y-51723333D02*
X46036666Y-51890000D01*
X45570000Y-52056666D01*
X46036666Y-52690000D02*
X46036666Y-52290000D01*
X46036666Y-52490000D02*
X45336666Y-52490000D01*
X45436666Y-52423333D01*
X45503333Y-52356666D01*
X45536666Y-52290000D01*
X46036666Y-52990000D02*
X45570000Y-52990000D01*
X45703333Y-52990000D02*
X45636666Y-53023333D01*
X45603333Y-53056666D01*
X45570000Y-53123333D01*
X45570000Y-53190000D01*
X46003333Y-53690000D02*
X46036666Y-53623333D01*
X46036666Y-53490000D01*
X46003333Y-53423333D01*
X45936666Y-53390000D01*
X45670000Y-53390000D01*
X45603333Y-53423333D01*
X45570000Y-53490000D01*
X45570000Y-53623333D01*
X45603333Y-53690000D01*
X45670000Y-53723333D01*
X45736666Y-53723333D01*
X45803333Y-53390000D01*
X45570000Y-53956666D02*
X46036666Y-54123333D01*
X45570000Y-54290000D01*
X46036666Y-54923333D02*
X46036666Y-54523333D01*
X46036666Y-54723333D02*
X45336666Y-54723333D01*
X45436666Y-54656666D01*
X45503333Y-54590000D01*
X45536666Y-54523333D01*
%TO.C,kibuzzard-65AA5850*%
G36*
X39825261Y-83820000D02*
G01*
X39826531Y-83818095D01*
X42178956Y-83818095D01*
X42183511Y-83891646D01*
X42197173Y-83957041D01*
X42219944Y-84014280D01*
X42251823Y-84063364D01*
X42292453Y-84102744D01*
X42341477Y-84130872D01*
X42398895Y-84147749D01*
X42464706Y-84153375D01*
X42633299Y-84153375D01*
X42766649Y-84153375D01*
X42867614Y-84153375D01*
X43104786Y-83677125D01*
X43111454Y-83677125D01*
X43111454Y-84153375D01*
X43204799Y-84153375D01*
X43330529Y-84153375D01*
X43407681Y-84153375D01*
X43419111Y-84096225D01*
X43425779Y-84096225D01*
X43472928Y-84140992D01*
X43514480Y-84157423D01*
X43567701Y-84162900D01*
X43635170Y-84153322D01*
X43691526Y-84124588D01*
X43736770Y-84076699D01*
X43762815Y-84029044D01*
X43781419Y-83972281D01*
X43792581Y-83906410D01*
X43796301Y-83831430D01*
X43792194Y-83752640D01*
X43779871Y-83682959D01*
X43759332Y-83622386D01*
X43730579Y-83570921D01*
X43681155Y-83518798D01*
X43620512Y-83487525D01*
X43548651Y-83477100D01*
X43492666Y-83483080D01*
X43444088Y-83501018D01*
X43402919Y-83530916D01*
X43370428Y-83571503D01*
X43347886Y-83621510D01*
X43335291Y-83680935D01*
X43440066Y-83680935D01*
X43462715Y-83619022D01*
X43498910Y-83581875D01*
X43548651Y-83569492D01*
X43609611Y-83586280D01*
X43655331Y-83636644D01*
X43676498Y-83688132D01*
X43689198Y-83753060D01*
X43693431Y-83831430D01*
X43687678Y-83918869D01*
X43670419Y-83986878D01*
X43641653Y-84035456D01*
X43601382Y-84064602D01*
X43549604Y-84074317D01*
X43499240Y-84065269D01*
X43460545Y-84038123D01*
X43435899Y-83994069D01*
X43427684Y-83934300D01*
X43427684Y-83880960D01*
X43554366Y-83880960D01*
X43554366Y-83800950D01*
X43330529Y-83800950D01*
X43330529Y-84153375D01*
X43204799Y-84153375D01*
X43204799Y-83486625D01*
X43103834Y-83486625D01*
X42866661Y-83963828D01*
X42859994Y-83963828D01*
X42859994Y-83486625D01*
X42766649Y-83486625D01*
X42766649Y-84153375D01*
X42633299Y-84153375D01*
X42633299Y-83486625D01*
X42464706Y-83486625D01*
X42399282Y-83492191D01*
X42342072Y-83508890D01*
X42293078Y-83536721D01*
X42252299Y-83575684D01*
X42220212Y-83624231D01*
X42197292Y-83680816D01*
X42183540Y-83745437D01*
X42178956Y-83818095D01*
X39826531Y-83818095D01*
X40186153Y-83278663D01*
X43994739Y-83278663D01*
X43994739Y-84361337D01*
X40186153Y-84361337D01*
X39825261Y-83820000D01*
G37*
G36*
X42533286Y-84062887D02*
G01*
X42470421Y-84062887D01*
X42413218Y-84055955D01*
X42366070Y-84035159D01*
X42328975Y-84000499D01*
X42302252Y-83952503D01*
X42286218Y-83891702D01*
X42280874Y-83818095D01*
X42286139Y-83744461D01*
X42301935Y-83684216D01*
X42328261Y-83637358D01*
X42365117Y-83603888D01*
X42412504Y-83583806D01*
X42470421Y-83577113D01*
X42533286Y-83577113D01*
X42533286Y-84062887D01*
G37*
%TO.C,kibuzzard-65FC58C8*%
G36*
X42526778Y-58595736D02*
G01*
X42487249Y-58636456D01*
X42435338Y-58650029D01*
X42383784Y-58635741D01*
X42343421Y-58592879D01*
X42324107Y-58548323D01*
X42312518Y-58490855D01*
X42308655Y-58420476D01*
X42311036Y-58367136D01*
X42318180Y-58317606D01*
X42526778Y-58595736D01*
G37*
G36*
X39834627Y-58420000D02*
G01*
X40176787Y-57906761D01*
X43985373Y-57906761D01*
X43985373Y-58933239D01*
X40176787Y-58933239D01*
X39835580Y-58421429D01*
X42206738Y-58421429D01*
X42210577Y-58494295D01*
X42222097Y-58557636D01*
X42241296Y-58611453D01*
X42268174Y-58655744D01*
X42314053Y-58699665D01*
X42369774Y-58726017D01*
X42435338Y-58734801D01*
X42501060Y-58725911D01*
X42557258Y-58699241D01*
X42603930Y-58654791D01*
X42631434Y-58610083D01*
X42651079Y-58555969D01*
X42662866Y-58492450D01*
X42666795Y-58419524D01*
X42662866Y-58347402D01*
X42651079Y-58284388D01*
X42638192Y-58249026D01*
X42768713Y-58249026D01*
X42948735Y-58725276D01*
X43066845Y-58725276D01*
X43222484Y-58315701D01*
X43364978Y-58315701D01*
X43369978Y-58371303D01*
X43384980Y-58421905D01*
X43408793Y-58471078D01*
X43440225Y-58522394D01*
X43571670Y-58725276D01*
X43691685Y-58725276D01*
X43527855Y-58490009D01*
X43599293Y-58502391D01*
X43673350Y-58488699D01*
X43733595Y-58447623D01*
X43763228Y-58407776D01*
X43781008Y-58361263D01*
X43786935Y-58308081D01*
X43780373Y-58252095D01*
X43760688Y-58203518D01*
X43727880Y-58162349D01*
X43684806Y-58131128D01*
X43634323Y-58112395D01*
X43576433Y-58106151D01*
X43517536Y-58112554D01*
X43466578Y-58131763D01*
X43423556Y-58163778D01*
X43391013Y-58206270D01*
X43371486Y-58256911D01*
X43364978Y-58315701D01*
X43222484Y-58315701D01*
X43247820Y-58249026D01*
X43147808Y-58249026D01*
X43010648Y-58624311D01*
X43003980Y-58624311D01*
X42867773Y-58249026D01*
X42768713Y-58249026D01*
X42638192Y-58249026D01*
X42631434Y-58230482D01*
X42603930Y-58185685D01*
X42557258Y-58140970D01*
X42501060Y-58114142D01*
X42435338Y-58105199D01*
X42369774Y-58114142D01*
X42314053Y-58140970D01*
X42268174Y-58185685D01*
X42241296Y-58230601D01*
X42222097Y-58284864D01*
X42210577Y-58348473D01*
X42206738Y-58421429D01*
X39835580Y-58421429D01*
X39834627Y-58420000D01*
G37*
G36*
X42487011Y-58204259D02*
G01*
X42527730Y-58247121D01*
X42547309Y-58291783D01*
X42559057Y-58349568D01*
X42562973Y-58420476D01*
X42560591Y-58476436D01*
X42553448Y-58522394D01*
X42344850Y-58245216D01*
X42384141Y-58203783D01*
X42435338Y-58189971D01*
X42487011Y-58204259D01*
G37*
G36*
X43623700Y-58195091D02*
G01*
X43659776Y-58221880D01*
X43682994Y-58261766D01*
X43690733Y-58309986D01*
X43683113Y-58357016D01*
X43660253Y-58395235D01*
X43624296Y-58420595D01*
X43577385Y-58429049D01*
X43531070Y-58420476D01*
X43494994Y-58394759D01*
X43471777Y-58356421D01*
X43464038Y-58309986D01*
X43471896Y-58261766D01*
X43495470Y-58221880D01*
X43531665Y-58195091D01*
X43577385Y-58186161D01*
X43623700Y-58195091D01*
G37*
%TO.C,kibuzzard-65AAA44C*%
G36*
X29665261Y-75658663D02*
G01*
X33473847Y-75658663D01*
X33834739Y-76200000D01*
X33473847Y-76741337D01*
X29665261Y-76741337D01*
X29665261Y-76198095D01*
X31658065Y-76198095D01*
X31662619Y-76271646D01*
X31676281Y-76337041D01*
X31699052Y-76394280D01*
X31730931Y-76443364D01*
X31771561Y-76482744D01*
X31820585Y-76510872D01*
X31878003Y-76527749D01*
X31943815Y-76533375D01*
X32112407Y-76533375D01*
X32245757Y-76533375D01*
X32346722Y-76533375D01*
X32583895Y-76057125D01*
X32590562Y-76057125D01*
X32590562Y-76533375D01*
X32683907Y-76533375D01*
X32809637Y-76533375D01*
X32886790Y-76533375D01*
X32898220Y-76476225D01*
X32904887Y-76476225D01*
X32952036Y-76520992D01*
X32993589Y-76537423D01*
X33046810Y-76542900D01*
X33114278Y-76533322D01*
X33170635Y-76504588D01*
X33215878Y-76456699D01*
X33241923Y-76409044D01*
X33260527Y-76352281D01*
X33271689Y-76286410D01*
X33275410Y-76211430D01*
X33271302Y-76132640D01*
X33258979Y-76062959D01*
X33238441Y-76002386D01*
X33209687Y-75950921D01*
X33160263Y-75898798D01*
X33099621Y-75867525D01*
X33027760Y-75857100D01*
X32971774Y-75863080D01*
X32923196Y-75881018D01*
X32882027Y-75910916D01*
X32849536Y-75951503D01*
X32826994Y-76001510D01*
X32814400Y-76060935D01*
X32919175Y-76060935D01*
X32941823Y-75999022D01*
X32978018Y-75961875D01*
X33027760Y-75949492D01*
X33088720Y-75966280D01*
X33134440Y-76016644D01*
X33155606Y-76068132D01*
X33168306Y-76133060D01*
X33172540Y-76211430D01*
X33166787Y-76298869D01*
X33149527Y-76366878D01*
X33120762Y-76415456D01*
X33080490Y-76444602D01*
X33028712Y-76454317D01*
X32978349Y-76445269D01*
X32939653Y-76418123D01*
X32915008Y-76374069D01*
X32906792Y-76314300D01*
X32906792Y-76260960D01*
X33033475Y-76260960D01*
X33033475Y-76180950D01*
X32809637Y-76180950D01*
X32809637Y-76533375D01*
X32683907Y-76533375D01*
X32683907Y-75866625D01*
X32582942Y-75866625D01*
X32345770Y-76343828D01*
X32339102Y-76343828D01*
X32339102Y-75866625D01*
X32245757Y-75866625D01*
X32245757Y-76533375D01*
X32112407Y-76533375D01*
X32112407Y-75866625D01*
X31943815Y-75866625D01*
X31878390Y-75872191D01*
X31821180Y-75888890D01*
X31772186Y-75916721D01*
X31731407Y-75955684D01*
X31699320Y-76004231D01*
X31676400Y-76060816D01*
X31662649Y-76125437D01*
X31658065Y-76198095D01*
X29665261Y-76198095D01*
X29665261Y-75658663D01*
G37*
G36*
X32012395Y-76442887D02*
G01*
X31949530Y-76442887D01*
X31892327Y-76435955D01*
X31845178Y-76415159D01*
X31808083Y-76380499D01*
X31781361Y-76332503D01*
X31765327Y-76271702D01*
X31759982Y-76198095D01*
X31765247Y-76124461D01*
X31781043Y-76064216D01*
X31807369Y-76017358D01*
X31844226Y-75983888D01*
X31891612Y-75963806D01*
X31949530Y-75957113D01*
X32012395Y-75957113D01*
X32012395Y-76442887D01*
G37*
%TO.C,kibuzzard-65AA5850*%
G36*
X42533286Y-91682887D02*
G01*
X42470421Y-91682887D01*
X42413218Y-91675955D01*
X42366070Y-91655159D01*
X42328975Y-91620499D01*
X42302252Y-91572503D01*
X42286218Y-91511702D01*
X42280874Y-91438095D01*
X42286139Y-91364461D01*
X42301935Y-91304216D01*
X42328261Y-91257358D01*
X42365117Y-91223888D01*
X42412504Y-91203806D01*
X42470421Y-91197113D01*
X42533286Y-91197113D01*
X42533286Y-91682887D01*
G37*
G36*
X39825261Y-91440000D02*
G01*
X39826531Y-91438095D01*
X42178956Y-91438095D01*
X42183511Y-91511646D01*
X42197173Y-91577041D01*
X42219944Y-91634280D01*
X42251823Y-91683364D01*
X42292453Y-91722744D01*
X42341477Y-91750872D01*
X42398895Y-91767749D01*
X42464706Y-91773375D01*
X42633299Y-91773375D01*
X42766649Y-91773375D01*
X42867614Y-91773375D01*
X43104786Y-91297125D01*
X43111454Y-91297125D01*
X43111454Y-91773375D01*
X43204799Y-91773375D01*
X43330529Y-91773375D01*
X43407681Y-91773375D01*
X43419111Y-91716225D01*
X43425779Y-91716225D01*
X43472928Y-91760992D01*
X43514480Y-91777423D01*
X43567701Y-91782900D01*
X43635170Y-91773322D01*
X43691526Y-91744588D01*
X43736770Y-91696699D01*
X43762815Y-91649044D01*
X43781419Y-91592281D01*
X43792581Y-91526410D01*
X43796301Y-91451430D01*
X43792194Y-91372640D01*
X43779871Y-91302959D01*
X43759332Y-91242386D01*
X43730579Y-91190921D01*
X43681155Y-91138798D01*
X43620512Y-91107525D01*
X43548651Y-91097100D01*
X43492666Y-91103080D01*
X43444088Y-91121018D01*
X43402919Y-91150916D01*
X43370428Y-91191503D01*
X43347886Y-91241510D01*
X43335291Y-91300935D01*
X43440066Y-91300935D01*
X43462715Y-91239022D01*
X43498910Y-91201875D01*
X43548651Y-91189492D01*
X43609611Y-91206280D01*
X43655331Y-91256644D01*
X43676498Y-91308132D01*
X43689198Y-91373060D01*
X43693431Y-91451430D01*
X43687678Y-91538869D01*
X43670419Y-91606878D01*
X43641653Y-91655456D01*
X43601382Y-91684602D01*
X43549604Y-91694317D01*
X43499240Y-91685269D01*
X43460545Y-91658123D01*
X43435899Y-91614069D01*
X43427684Y-91554300D01*
X43427684Y-91500960D01*
X43554366Y-91500960D01*
X43554366Y-91420950D01*
X43330529Y-91420950D01*
X43330529Y-91773375D01*
X43204799Y-91773375D01*
X43204799Y-91106625D01*
X43103834Y-91106625D01*
X42866661Y-91583828D01*
X42859994Y-91583828D01*
X42859994Y-91106625D01*
X42766649Y-91106625D01*
X42766649Y-91773375D01*
X42633299Y-91773375D01*
X42633299Y-91106625D01*
X42464706Y-91106625D01*
X42399282Y-91112191D01*
X42342072Y-91128890D01*
X42293078Y-91156721D01*
X42252299Y-91195684D01*
X42220212Y-91244231D01*
X42197292Y-91300816D01*
X42183540Y-91365437D01*
X42178956Y-91438095D01*
X39826531Y-91438095D01*
X40186153Y-90898663D01*
X43994739Y-90898663D01*
X43994739Y-91981337D01*
X40186153Y-91981337D01*
X39825261Y-91440000D01*
G37*
G36*
X39825261Y-68580000D02*
G01*
X39826531Y-68578095D01*
X42178956Y-68578095D01*
X42183511Y-68651646D01*
X42197173Y-68717041D01*
X42219944Y-68774280D01*
X42251823Y-68823364D01*
X42292453Y-68862744D01*
X42341477Y-68890872D01*
X42398895Y-68907749D01*
X42464706Y-68913375D01*
X42633299Y-68913375D01*
X42766649Y-68913375D01*
X42867614Y-68913375D01*
X43104786Y-68437125D01*
X43111454Y-68437125D01*
X43111454Y-68913375D01*
X43204799Y-68913375D01*
X43330529Y-68913375D01*
X43407681Y-68913375D01*
X43419111Y-68856225D01*
X43425779Y-68856225D01*
X43472928Y-68900992D01*
X43514480Y-68917423D01*
X43567701Y-68922900D01*
X43635170Y-68913322D01*
X43691526Y-68884588D01*
X43736770Y-68836699D01*
X43762815Y-68789044D01*
X43781419Y-68732281D01*
X43792581Y-68666410D01*
X43796301Y-68591430D01*
X43792194Y-68512640D01*
X43779871Y-68442959D01*
X43759332Y-68382386D01*
X43730579Y-68330921D01*
X43681155Y-68278798D01*
X43620512Y-68247525D01*
X43548651Y-68237100D01*
X43492666Y-68243080D01*
X43444088Y-68261018D01*
X43402919Y-68290916D01*
X43370428Y-68331503D01*
X43347886Y-68381510D01*
X43335291Y-68440935D01*
X43440066Y-68440935D01*
X43462715Y-68379022D01*
X43498910Y-68341875D01*
X43548651Y-68329492D01*
X43609611Y-68346280D01*
X43655331Y-68396644D01*
X43676498Y-68448132D01*
X43689198Y-68513060D01*
X43693431Y-68591430D01*
X43687678Y-68678869D01*
X43670419Y-68746878D01*
X43641653Y-68795456D01*
X43601382Y-68824602D01*
X43549604Y-68834317D01*
X43499240Y-68825269D01*
X43460545Y-68798123D01*
X43435899Y-68754069D01*
X43427684Y-68694300D01*
X43427684Y-68640960D01*
X43554366Y-68640960D01*
X43554366Y-68560950D01*
X43330529Y-68560950D01*
X43330529Y-68913375D01*
X43204799Y-68913375D01*
X43204799Y-68246625D01*
X43103834Y-68246625D01*
X42866661Y-68723828D01*
X42859994Y-68723828D01*
X42859994Y-68246625D01*
X42766649Y-68246625D01*
X42766649Y-68913375D01*
X42633299Y-68913375D01*
X42633299Y-68246625D01*
X42464706Y-68246625D01*
X42399282Y-68252191D01*
X42342072Y-68268890D01*
X42293078Y-68296721D01*
X42252299Y-68335684D01*
X42220212Y-68384231D01*
X42197292Y-68440816D01*
X42183540Y-68505437D01*
X42178956Y-68578095D01*
X39826531Y-68578095D01*
X40186153Y-68038663D01*
X43994739Y-68038663D01*
X43994739Y-69121337D01*
X40186153Y-69121337D01*
X39825261Y-68580000D01*
G37*
G36*
X42533286Y-68822887D02*
G01*
X42470421Y-68822887D01*
X42413218Y-68815955D01*
X42366070Y-68795159D01*
X42328975Y-68760499D01*
X42302252Y-68712503D01*
X42286218Y-68651702D01*
X42280874Y-68578095D01*
X42286139Y-68504461D01*
X42301935Y-68444216D01*
X42328261Y-68397358D01*
X42365117Y-68363888D01*
X42412504Y-68343806D01*
X42470421Y-68337113D01*
X42533286Y-68337113D01*
X42533286Y-68822887D01*
G37*
%TO.C,kibuzzard-65FC58D6*%
G36*
X43671841Y-63587630D02*
G01*
X43500391Y-63587630D01*
X43500391Y-63321883D01*
X43508011Y-63321883D01*
X43671841Y-63587630D01*
G37*
G36*
X39836374Y-63500000D02*
G01*
X40175040Y-62992000D01*
X43983626Y-62992000D01*
X43983626Y-64008000D01*
X40175040Y-64008000D01*
X39907494Y-63606680D01*
X42187846Y-63606680D01*
X42194620Y-63664148D01*
X42214940Y-63713360D01*
X42248806Y-63754318D01*
X42293362Y-63785009D01*
X42345750Y-63803424D01*
X42405969Y-63809563D01*
X42462378Y-63803953D01*
X42510956Y-63787126D01*
X42551701Y-63759080D01*
X42582922Y-63721615D01*
X42602925Y-63676530D01*
X42611709Y-63623825D01*
X42517411Y-63623825D01*
X42506815Y-63668116D01*
X42482645Y-63701930D01*
X42447522Y-63723361D01*
X42404064Y-63730505D01*
X42356677Y-63722290D01*
X42319291Y-63697644D01*
X42295003Y-63658948D01*
X42286906Y-63608585D01*
X42294645Y-63558222D01*
X42317863Y-63517621D01*
X42353939Y-63490832D01*
X42400254Y-63481903D01*
X42465024Y-63498095D01*
X42510744Y-63543815D01*
X42598374Y-63523813D01*
X42578943Y-63323788D01*
X42732676Y-63323788D01*
X42912699Y-63800038D01*
X43030809Y-63800038D01*
X43082930Y-63662878D01*
X43302271Y-63662878D01*
X43407046Y-63662878D01*
X43407046Y-63800038D01*
X43500391Y-63800038D01*
X43500391Y-63662878D01*
X43785189Y-63662878D01*
X43785189Y-63614300D01*
X43508964Y-63190438D01*
X43407046Y-63190438D01*
X43407046Y-63587630D01*
X43302271Y-63587630D01*
X43302271Y-63662878D01*
X43082930Y-63662878D01*
X43211784Y-63323788D01*
X43111771Y-63323788D01*
X42974611Y-63699073D01*
X42967944Y-63699073D01*
X42831736Y-63323788D01*
X42732676Y-63323788D01*
X42578943Y-63323788D01*
X42565989Y-63190438D01*
X42216421Y-63190438D01*
X42216421Y-63272353D01*
X42481216Y-63272353D01*
X42499314Y-63447613D01*
X42447165Y-63416894D01*
X42380251Y-63406655D01*
X42326700Y-63412952D01*
X42280345Y-63431843D01*
X42241186Y-63463329D01*
X42211553Y-63504445D01*
X42193773Y-63552229D01*
X42187846Y-63606680D01*
X39907494Y-63606680D01*
X39836374Y-63500000D01*
G37*
%TO.C,kibuzzard-65AAA3DF*%
G36*
X29665261Y-88900000D02*
G01*
X29708441Y-88835230D01*
X30340651Y-88835230D01*
X30534009Y-88835230D01*
X30534009Y-89064782D01*
X30522473Y-89118757D01*
X30487866Y-89151143D01*
X30430186Y-89161938D01*
X30367321Y-89154317D01*
X30367321Y-89232423D01*
X30409708Y-89240281D01*
X30453046Y-89242900D01*
X30517169Y-89236423D01*
X30524992Y-89233375D01*
X30921676Y-89233375D01*
X31009306Y-89233375D01*
X31018831Y-89174320D01*
X31025499Y-89174320D01*
X31062646Y-89212420D01*
X31110589Y-89235280D01*
X31169326Y-89242900D01*
X31241359Y-89230517D01*
X31297438Y-89193370D01*
X31333514Y-89134077D01*
X31345539Y-89055258D01*
X31345539Y-88900000D01*
X31465554Y-88900000D01*
X31469572Y-88975724D01*
X31481627Y-89042875D01*
X31501719Y-89101454D01*
X31529848Y-89151460D01*
X31577737Y-89202260D01*
X31635681Y-89232740D01*
X31703679Y-89242900D01*
X31772206Y-89232846D01*
X31830467Y-89202683D01*
X31878463Y-89152413D01*
X31906591Y-89102704D01*
X31916321Y-89074308D01*
X32621889Y-89074308D01*
X32646773Y-89143602D01*
X32694755Y-89197180D01*
X32737671Y-89222580D01*
X32787042Y-89237820D01*
X32842869Y-89242900D01*
X32909967Y-89235227D01*
X32914616Y-89233375D01*
X33202914Y-89233375D01*
X33636301Y-89233375D01*
X33636301Y-89144793D01*
X33468661Y-89144793D01*
X33468661Y-88655208D01*
X33631539Y-88655208D01*
X33631539Y-88566625D01*
X33207676Y-88566625D01*
X33207676Y-88655208D01*
X33368649Y-88655208D01*
X33368649Y-89144793D01*
X33202914Y-89144793D01*
X33202914Y-89233375D01*
X32914616Y-89233375D01*
X32967752Y-89212208D01*
X33016224Y-89173844D01*
X33052736Y-89123626D01*
X33074644Y-89065047D01*
X33081946Y-88998107D01*
X33074432Y-88929422D01*
X33051890Y-88869414D01*
X33014319Y-88818085D01*
X32965318Y-88778927D01*
X32908486Y-88755432D01*
X32843821Y-88747600D01*
X32789899Y-88752733D01*
X32741163Y-88768132D01*
X32697613Y-88793796D01*
X32662211Y-88828668D01*
X32637923Y-88871690D01*
X32624746Y-88922860D01*
X32722854Y-88922860D01*
X32737260Y-88886308D01*
X32763335Y-88856661D01*
X32799411Y-88837016D01*
X32843821Y-88830467D01*
X32900138Y-88842255D01*
X32945263Y-88877616D01*
X32974909Y-88931313D01*
X32984791Y-88998107D01*
X32975147Y-89062401D01*
X32946215Y-89114313D01*
X32901090Y-89148603D01*
X32842869Y-89160033D01*
X32799173Y-89154318D01*
X32763335Y-89137173D01*
X32736546Y-89110026D01*
X32719996Y-89074308D01*
X32621889Y-89074308D01*
X31916321Y-89074308D01*
X31926683Y-89044066D01*
X31938738Y-88976498D01*
X31942756Y-88900000D01*
X31938738Y-88824276D01*
X31926683Y-88757125D01*
X31906591Y-88698546D01*
X31878463Y-88648540D01*
X31830467Y-88597740D01*
X31772206Y-88567260D01*
X31703679Y-88557100D01*
X31635681Y-88567260D01*
X31577737Y-88597740D01*
X31529848Y-88648540D01*
X31501719Y-88698546D01*
X31481627Y-88757125D01*
X31469572Y-88824276D01*
X31465554Y-88900000D01*
X31345539Y-88900000D01*
X31345539Y-88757125D01*
X31248384Y-88757125D01*
X31248384Y-89038112D01*
X31240645Y-89091453D01*
X31217428Y-89129553D01*
X31182066Y-89152413D01*
X31137894Y-89160033D01*
X31090269Y-89151936D01*
X31052169Y-89127647D01*
X31027166Y-89087166D01*
X31018831Y-89030492D01*
X31018831Y-88757125D01*
X30921676Y-88757125D01*
X30921676Y-89233375D01*
X30524992Y-89233375D01*
X30567042Y-89216992D01*
X30602665Y-89184607D01*
X30624039Y-89139268D01*
X30631164Y-89080975D01*
X30631164Y-88835230D01*
X30782611Y-88835230D01*
X30782611Y-88757125D01*
X30704506Y-88757125D01*
X30640213Y-88738075D01*
X30621639Y-88671400D01*
X30621639Y-88627585D01*
X30534009Y-88627585D01*
X30534009Y-88757125D01*
X30340651Y-88757125D01*
X30340651Y-88835230D01*
X29708441Y-88835230D01*
X30026153Y-88358663D01*
X33834739Y-88358663D01*
X33834739Y-89441337D01*
X30026153Y-89441337D01*
X29665261Y-88900000D01*
G37*
G36*
X31761543Y-88665566D02*
G01*
X31805596Y-88713786D01*
X31826234Y-88763052D01*
X31838616Y-88825123D01*
X31842744Y-88900000D01*
X31838616Y-88974877D01*
X31826234Y-89036948D01*
X31805596Y-89086214D01*
X31761543Y-89134434D01*
X31703679Y-89150508D01*
X31646529Y-89134434D01*
X31602714Y-89086214D01*
X31582076Y-89036948D01*
X31569694Y-88974877D01*
X31565566Y-88900000D01*
X31569694Y-88825123D01*
X31582076Y-88763052D01*
X31602714Y-88713786D01*
X31646529Y-88665566D01*
X31703679Y-88649492D01*
X31761543Y-88665566D01*
G37*
%TO.C,kibuzzard-65AA5850*%
G36*
X39825261Y-60960000D02*
G01*
X39826531Y-60958095D01*
X42178956Y-60958095D01*
X42183511Y-61031646D01*
X42197173Y-61097041D01*
X42219944Y-61154280D01*
X42251823Y-61203364D01*
X42292453Y-61242744D01*
X42341477Y-61270872D01*
X42398895Y-61287749D01*
X42464706Y-61293375D01*
X42633299Y-61293375D01*
X42766649Y-61293375D01*
X42867614Y-61293375D01*
X43104786Y-60817125D01*
X43111454Y-60817125D01*
X43111454Y-61293375D01*
X43204799Y-61293375D01*
X43330529Y-61293375D01*
X43407681Y-61293375D01*
X43419111Y-61236225D01*
X43425779Y-61236225D01*
X43472928Y-61280992D01*
X43514480Y-61297423D01*
X43567701Y-61302900D01*
X43635170Y-61293322D01*
X43691526Y-61264588D01*
X43736770Y-61216699D01*
X43762815Y-61169044D01*
X43781419Y-61112281D01*
X43792581Y-61046410D01*
X43796301Y-60971430D01*
X43792194Y-60892640D01*
X43779871Y-60822959D01*
X43759332Y-60762386D01*
X43730579Y-60710921D01*
X43681155Y-60658798D01*
X43620512Y-60627525D01*
X43548651Y-60617100D01*
X43492666Y-60623080D01*
X43444088Y-60641018D01*
X43402919Y-60670916D01*
X43370428Y-60711503D01*
X43347886Y-60761510D01*
X43335291Y-60820935D01*
X43440066Y-60820935D01*
X43462715Y-60759022D01*
X43498910Y-60721875D01*
X43548651Y-60709492D01*
X43609611Y-60726280D01*
X43655331Y-60776644D01*
X43676498Y-60828132D01*
X43689198Y-60893060D01*
X43693431Y-60971430D01*
X43687678Y-61058869D01*
X43670419Y-61126878D01*
X43641653Y-61175456D01*
X43601382Y-61204602D01*
X43549604Y-61214317D01*
X43499240Y-61205269D01*
X43460545Y-61178123D01*
X43435899Y-61134069D01*
X43427684Y-61074300D01*
X43427684Y-61020960D01*
X43554366Y-61020960D01*
X43554366Y-60940950D01*
X43330529Y-60940950D01*
X43330529Y-61293375D01*
X43204799Y-61293375D01*
X43204799Y-60626625D01*
X43103834Y-60626625D01*
X42866661Y-61103828D01*
X42859994Y-61103828D01*
X42859994Y-60626625D01*
X42766649Y-60626625D01*
X42766649Y-61293375D01*
X42633299Y-61293375D01*
X42633299Y-60626625D01*
X42464706Y-60626625D01*
X42399282Y-60632191D01*
X42342072Y-60648890D01*
X42293078Y-60676721D01*
X42252299Y-60715684D01*
X42220212Y-60764231D01*
X42197292Y-60820816D01*
X42183540Y-60885437D01*
X42178956Y-60958095D01*
X39826531Y-60958095D01*
X40186153Y-60418663D01*
X43994739Y-60418663D01*
X43994739Y-61501337D01*
X40186153Y-61501337D01*
X39825261Y-60960000D01*
G37*
G36*
X42533286Y-61202887D02*
G01*
X42470421Y-61202887D01*
X42413218Y-61195955D01*
X42366070Y-61175159D01*
X42328975Y-61140499D01*
X42302252Y-61092503D01*
X42286218Y-61031702D01*
X42280874Y-60958095D01*
X42286139Y-60884461D01*
X42301935Y-60824216D01*
X42328261Y-60777358D01*
X42365117Y-60743888D01*
X42412504Y-60723806D01*
X42470421Y-60717113D01*
X42533286Y-60717113D01*
X42533286Y-61202887D01*
G37*
%TO.C,kibuzzard-65FC58E2*%
G36*
X29674627Y-66040000D02*
G01*
X30016787Y-65526761D01*
X33825373Y-65526761D01*
X33825373Y-66553239D01*
X30016787Y-66553239D01*
X29675580Y-66041429D01*
X32042928Y-66041429D01*
X32046767Y-66114295D01*
X32058287Y-66177636D01*
X32077486Y-66231453D01*
X32104364Y-66275744D01*
X32150243Y-66319665D01*
X32205964Y-66346017D01*
X32271528Y-66354801D01*
X32337250Y-66345911D01*
X32393448Y-66319241D01*
X32440120Y-66274791D01*
X32467624Y-66230083D01*
X32487269Y-66175969D01*
X32499056Y-66112450D01*
X32502985Y-66039524D01*
X32499056Y-65967402D01*
X32487269Y-65904388D01*
X32474382Y-65869026D01*
X32604903Y-65869026D01*
X32784925Y-66345276D01*
X32903035Y-66345276D01*
X32976511Y-66151919D01*
X33203073Y-66151919D01*
X33209846Y-66209386D01*
X33230166Y-66258599D01*
X33264033Y-66299556D01*
X33308588Y-66330248D01*
X33360976Y-66348663D01*
X33421195Y-66354801D01*
X33477604Y-66349192D01*
X33526182Y-66332365D01*
X33566928Y-66304319D01*
X33598148Y-66266854D01*
X33618151Y-66221769D01*
X33626935Y-66169064D01*
X33532638Y-66169064D01*
X33522041Y-66213355D01*
X33497871Y-66247169D01*
X33462748Y-66268600D01*
X33419290Y-66275744D01*
X33371903Y-66267528D01*
X33334518Y-66242883D01*
X33310229Y-66204187D01*
X33302133Y-66153824D01*
X33309872Y-66103460D01*
X33333089Y-66062860D01*
X33369165Y-66036071D01*
X33415480Y-66027141D01*
X33480250Y-66043334D01*
X33525970Y-66089054D01*
X33613600Y-66069051D01*
X33581215Y-65735676D01*
X33231648Y-65735676D01*
X33231648Y-65817591D01*
X33496443Y-65817591D01*
X33514540Y-65992851D01*
X33462391Y-65962133D01*
X33395478Y-65951894D01*
X33341926Y-65958191D01*
X33295571Y-65977082D01*
X33256413Y-66008568D01*
X33226779Y-66049684D01*
X33208999Y-66097468D01*
X33203073Y-66151919D01*
X32976511Y-66151919D01*
X33084010Y-65869026D01*
X32983998Y-65869026D01*
X32846838Y-66244311D01*
X32840170Y-66244311D01*
X32703963Y-65869026D01*
X32604903Y-65869026D01*
X32474382Y-65869026D01*
X32467624Y-65850482D01*
X32440120Y-65805685D01*
X32393448Y-65760970D01*
X32337250Y-65734142D01*
X32271528Y-65725199D01*
X32205964Y-65734142D01*
X32150243Y-65760970D01*
X32104364Y-65805685D01*
X32077486Y-65850601D01*
X32058287Y-65904864D01*
X32046767Y-65968473D01*
X32042928Y-66041429D01*
X29675580Y-66041429D01*
X29674627Y-66040000D01*
G37*
G36*
X32362968Y-66215736D02*
G01*
X32323439Y-66256456D01*
X32271528Y-66270029D01*
X32219974Y-66255741D01*
X32179611Y-66212879D01*
X32160297Y-66168323D01*
X32148708Y-66110855D01*
X32144845Y-66040476D01*
X32147226Y-65987136D01*
X32154370Y-65937606D01*
X32362968Y-66215736D01*
G37*
G36*
X32323201Y-65824259D02*
G01*
X32363920Y-65867121D01*
X32383499Y-65911783D01*
X32395247Y-65969568D01*
X32399163Y-66040476D01*
X32396781Y-66096436D01*
X32389638Y-66142394D01*
X32181040Y-65865216D01*
X32220331Y-65823783D01*
X32271528Y-65809971D01*
X32323201Y-65824259D01*
G37*
%TO.C,kibuzzard-65FC58D1*%
G36*
X29676374Y-62992000D02*
G01*
X33484960Y-62992000D01*
X33823626Y-63500000D01*
X33484960Y-64008000D01*
X29676374Y-64008000D01*
X29676374Y-63606680D01*
X31689180Y-63606680D01*
X31695953Y-63664148D01*
X31716273Y-63713360D01*
X31750140Y-63754318D01*
X31794696Y-63785009D01*
X31847083Y-63803424D01*
X31907302Y-63809563D01*
X31963711Y-63803953D01*
X32012289Y-63787126D01*
X32053035Y-63759080D01*
X32084256Y-63721615D01*
X32104258Y-63676530D01*
X32113042Y-63623825D01*
X32018745Y-63623825D01*
X32008148Y-63668116D01*
X31983978Y-63701930D01*
X31948855Y-63723361D01*
X31905397Y-63730505D01*
X31858010Y-63722290D01*
X31820625Y-63697644D01*
X31796336Y-63658948D01*
X31788240Y-63608585D01*
X31795979Y-63558222D01*
X31819196Y-63517621D01*
X31855272Y-63490832D01*
X31901587Y-63481903D01*
X31966357Y-63498095D01*
X32012077Y-63543815D01*
X32099707Y-63523813D01*
X32080276Y-63323788D01*
X32234010Y-63323788D01*
X32414032Y-63800038D01*
X32532142Y-63800038D01*
X32584263Y-63662878D01*
X32803605Y-63662878D01*
X32908380Y-63662878D01*
X32908380Y-63800038D01*
X33001725Y-63800038D01*
X33001725Y-63662878D01*
X33286522Y-63662878D01*
X33286522Y-63614300D01*
X33010297Y-63190438D01*
X32908380Y-63190438D01*
X32908380Y-63587630D01*
X32803605Y-63587630D01*
X32803605Y-63662878D01*
X32584263Y-63662878D01*
X32713117Y-63323788D01*
X32613105Y-63323788D01*
X32475945Y-63699073D01*
X32469277Y-63699073D01*
X32333070Y-63323788D01*
X32234010Y-63323788D01*
X32080276Y-63323788D01*
X32067322Y-63190438D01*
X31717755Y-63190438D01*
X31717755Y-63272353D01*
X31982550Y-63272353D01*
X32000647Y-63447613D01*
X31948498Y-63416894D01*
X31881585Y-63406655D01*
X31828033Y-63412952D01*
X31781678Y-63431843D01*
X31742520Y-63463329D01*
X31712886Y-63504445D01*
X31695106Y-63552229D01*
X31689180Y-63606680D01*
X29676374Y-63606680D01*
X29676374Y-62992000D01*
G37*
G36*
X33173175Y-63587630D02*
G01*
X33001725Y-63587630D01*
X33001725Y-63321883D01*
X33009345Y-63321883D01*
X33173175Y-63587630D01*
G37*
%TO.C,REF\u002A\u002A*%
G36*
X36437691Y-55306467D02*
G01*
X36442273Y-55309003D01*
X36479704Y-55338057D01*
X36513170Y-55375410D01*
X36519007Y-55383852D01*
X36530165Y-55403553D01*
X36538136Y-55426935D01*
X36543618Y-55459067D01*
X36547307Y-55505019D01*
X36549899Y-55569859D01*
X36552092Y-55658657D01*
X36552402Y-55673669D01*
X36553400Y-55770999D01*
X36551994Y-55839934D01*
X36548164Y-55880948D01*
X36541889Y-55894514D01*
X36522898Y-55890452D01*
X36490638Y-55878144D01*
X36483041Y-55874545D01*
X36471176Y-55866398D01*
X36462994Y-55853004D01*
X36457643Y-55829608D01*
X36454269Y-55791455D01*
X36452019Y-55733790D01*
X36450040Y-55651857D01*
X36449498Y-55627907D01*
X36447403Y-55552266D01*
X36444683Y-55499328D01*
X36440515Y-55464075D01*
X36434079Y-55441487D01*
X36424550Y-55426544D01*
X36411106Y-55414227D01*
X36371305Y-55392634D01*
X36322341Y-55388476D01*
X36278529Y-55404999D01*
X36247008Y-55439210D01*
X36234914Y-55488114D01*
X36234578Y-55501407D01*
X36227972Y-55525472D01*
X36208470Y-55529144D01*
X36170283Y-55514813D01*
X36161438Y-55510217D01*
X36137534Y-55483186D01*
X36137061Y-55442994D01*
X36159836Y-55387409D01*
X36180727Y-55357117D01*
X36234142Y-55314084D01*
X36300074Y-55289755D01*
X36370574Y-55286443D01*
X36437691Y-55306467D01*
G37*
D12*
X36437691Y-55306467D02*
X36442273Y-55309003D01*
X36479704Y-55338057D01*
X36513170Y-55375410D01*
X36519007Y-55383852D01*
X36530165Y-55403553D01*
X36538136Y-55426935D01*
X36543618Y-55459067D01*
X36547307Y-55505019D01*
X36549899Y-55569859D01*
X36552092Y-55658657D01*
X36552402Y-55673669D01*
X36553400Y-55770999D01*
X36551994Y-55839934D01*
X36548164Y-55880948D01*
X36541889Y-55894514D01*
X36522898Y-55890452D01*
X36490638Y-55878144D01*
X36483041Y-55874545D01*
X36471176Y-55866398D01*
X36462994Y-55853004D01*
X36457643Y-55829608D01*
X36454269Y-55791455D01*
X36452019Y-55733790D01*
X36450040Y-55651857D01*
X36449498Y-55627907D01*
X36447403Y-55552266D01*
X36444683Y-55499328D01*
X36440515Y-55464075D01*
X36434079Y-55441487D01*
X36424550Y-55426544D01*
X36411106Y-55414227D01*
X36371305Y-55392634D01*
X36322341Y-55388476D01*
X36278529Y-55404999D01*
X36247008Y-55439210D01*
X36234914Y-55488114D01*
X36234578Y-55501407D01*
X36227972Y-55525472D01*
X36208470Y-55529144D01*
X36170283Y-55514813D01*
X36161438Y-55510217D01*
X36137534Y-55483186D01*
X36137061Y-55442994D01*
X36159836Y-55387409D01*
X36180727Y-55357117D01*
X36234142Y-55314084D01*
X36300074Y-55289755D01*
X36370574Y-55286443D01*
X36437691Y-55306467D01*
G36*
X36943933Y-50582371D02*
G01*
X37019856Y-50582865D01*
X37074491Y-50584135D01*
X37111500Y-50586547D01*
X37134547Y-50590467D01*
X37147296Y-50596262D01*
X37153411Y-50604299D01*
X37156556Y-50614943D01*
X37156646Y-50615325D01*
X37161814Y-50640347D01*
X37171209Y-50688681D01*
X37183867Y-50755260D01*
X37198825Y-50835014D01*
X37215119Y-50922875D01*
X37216448Y-50930064D01*
X37232691Y-51015340D01*
X37247805Y-51090242D01*
X37260808Y-51150219D01*
X37270715Y-51190717D01*
X37276544Y-51207184D01*
X37276575Y-51207210D01*
X37294943Y-51216320D01*
X37332640Y-51231457D01*
X37381543Y-51249358D01*
X37384297Y-51250330D01*
X37446817Y-51273959D01*
X37519543Y-51303595D01*
X37587294Y-51333062D01*
X37698703Y-51383626D01*
X37945399Y-51215160D01*
X37962775Y-51203311D01*
X38037202Y-51152947D01*
X38103614Y-51108612D01*
X38158039Y-51072916D01*
X38196506Y-51048471D01*
X38215042Y-51037889D01*
X38227743Y-51040315D01*
X38256579Y-51059110D01*
X38301143Y-51096330D01*
X38362670Y-51153020D01*
X38442398Y-51230227D01*
X38449532Y-51237255D01*
X38512796Y-51300222D01*
X38568990Y-51357268D01*
X38614677Y-51404817D01*
X38646414Y-51439297D01*
X38660764Y-51457131D01*
X38660810Y-51457217D01*
X38662633Y-51470795D01*
X38655910Y-51492820D01*
X38638946Y-51526304D01*
X38610044Y-51574261D01*
X38567508Y-51639704D01*
X38509644Y-51725645D01*
X38499783Y-51740151D01*
X38449913Y-51813635D01*
X38405905Y-51878687D01*
X38370380Y-51931417D01*
X38345959Y-51967936D01*
X38335264Y-51984356D01*
X38334458Y-51987834D01*
X38339518Y-52013785D01*
X38354677Y-52056159D01*
X38377463Y-52107728D01*
X38408429Y-52175170D01*
X38443004Y-52255195D01*
X38472366Y-52327629D01*
X38479645Y-52346377D01*
X38498710Y-52394246D01*
X38512715Y-52427596D01*
X38519041Y-52440114D01*
X38526025Y-52441050D01*
X38557413Y-52446461D01*
X38608787Y-52455806D01*
X38674802Y-52468069D01*
X38750113Y-52482232D01*
X38829375Y-52497280D01*
X38907243Y-52512195D01*
X38978370Y-52525961D01*
X39037412Y-52537562D01*
X39079022Y-52545980D01*
X39097857Y-52550199D01*
X39100980Y-52551389D01*
X39108591Y-52557805D01*
X39114254Y-52571465D01*
X39118251Y-52595999D01*
X39120866Y-52635038D01*
X39122384Y-52692213D01*
X39123086Y-52771154D01*
X39123257Y-52875492D01*
X39123257Y-53192799D01*
X39047057Y-53207839D01*
X39037840Y-53209642D01*
X38988891Y-53218980D01*
X38921205Y-53231669D01*
X38842478Y-53246273D01*
X38760400Y-53261355D01*
X38728078Y-53267422D01*
X38655855Y-53282181D01*
X38595666Y-53296137D01*
X38553040Y-53307952D01*
X38533510Y-53316287D01*
X38524660Y-53329905D01*
X38508548Y-53365938D01*
X38492065Y-53412572D01*
X38486263Y-53430034D01*
X38464906Y-53487358D01*
X38437359Y-53555201D01*
X38408107Y-53622355D01*
X38392463Y-53657430D01*
X38370174Y-53709822D01*
X38354857Y-53749058D01*
X38349162Y-53768563D01*
X38349478Y-53770036D01*
X38360281Y-53790729D01*
X38384638Y-53830665D01*
X38420081Y-53885972D01*
X38464136Y-53952781D01*
X38514332Y-54027220D01*
X38679501Y-54269623D01*
X38462503Y-54486983D01*
X38441516Y-54507899D01*
X38377342Y-54570505D01*
X38319990Y-54624495D01*
X38272820Y-54666826D01*
X38239192Y-54694457D01*
X38222467Y-54704343D01*
X38204303Y-54696821D01*
X38166265Y-54675227D01*
X38112726Y-54642151D01*
X38047884Y-54600191D01*
X37975940Y-54551943D01*
X37905275Y-54504291D01*
X37841526Y-54462328D01*
X37789513Y-54429165D01*
X37753279Y-54407378D01*
X37736867Y-54399543D01*
X37735905Y-54399614D01*
X37714103Y-54407338D01*
X37675440Y-54425323D01*
X37627612Y-54450013D01*
X37627110Y-54450284D01*
X37563587Y-54482099D01*
X37520060Y-54497642D01*
X37493052Y-54497685D01*
X37479090Y-54483000D01*
X37473180Y-54468544D01*
X37457229Y-54429831D01*
X37432660Y-54370316D01*
X37400779Y-54293165D01*
X37362893Y-54201541D01*
X37320310Y-54098607D01*
X37274337Y-53987526D01*
X37232667Y-53886472D01*
X37190268Y-53782780D01*
X37152756Y-53690119D01*
X37121388Y-53611642D01*
X37097425Y-53550500D01*
X37082123Y-53509843D01*
X37076743Y-53492825D01*
X37087018Y-53477219D01*
X37115563Y-53451162D01*
X37155971Y-53420887D01*
X37252979Y-53341684D01*
X37339793Y-53240475D01*
X37403322Y-53129116D01*
X37443177Y-53010893D01*
X37458965Y-52889095D01*
X37450296Y-52767010D01*
X37416778Y-52647925D01*
X37358021Y-52535129D01*
X37273632Y-52431911D01*
X37229631Y-52391713D01*
X37124211Y-52320638D01*
X37011410Y-52274301D01*
X36894525Y-52251599D01*
X36776853Y-52251428D01*
X36661690Y-52272687D01*
X36552335Y-52314270D01*
X36452083Y-52375076D01*
X36364233Y-52454001D01*
X36292080Y-52549941D01*
X36238922Y-52661795D01*
X36208057Y-52788457D01*
X36202392Y-52849507D01*
X36210185Y-52981776D01*
X36245284Y-53107266D01*
X36306649Y-53223759D01*
X36393243Y-53329039D01*
X36504029Y-53420887D01*
X36542931Y-53449930D01*
X36572104Y-53476272D01*
X36583257Y-53492800D01*
X36578810Y-53507209D01*
X36564378Y-53545815D01*
X36541173Y-53605201D01*
X36510452Y-53682215D01*
X36473474Y-53773703D01*
X36431496Y-53876516D01*
X36385778Y-53987502D01*
X36344178Y-54088072D01*
X36301222Y-54191947D01*
X36262829Y-54284819D01*
X36230305Y-54363525D01*
X36204958Y-54424899D01*
X36188095Y-54465779D01*
X36181025Y-54483000D01*
X36180943Y-54483204D01*
X36166798Y-54497745D01*
X36139659Y-54497579D01*
X36096023Y-54481927D01*
X36032388Y-54450013D01*
X36027379Y-54447326D01*
X35980125Y-54423150D01*
X35942811Y-54406037D01*
X35923133Y-54399543D01*
X35907005Y-54407218D01*
X35870959Y-54428871D01*
X35819092Y-54461928D01*
X35755445Y-54503810D01*
X35684060Y-54551943D01*
X35613724Y-54599131D01*
X35548670Y-54641267D01*
X35494820Y-54674578D01*
X35456374Y-54696469D01*
X35437534Y-54704343D01*
X35434325Y-54703343D01*
X35411954Y-54687584D01*
X35373733Y-54655033D01*
X35323021Y-54608733D01*
X35263181Y-54551726D01*
X35197571Y-54487058D01*
X34980648Y-54269772D01*
X35149601Y-54021253D01*
X35318553Y-53772733D01*
X35267183Y-53661595D01*
X35267031Y-53661266D01*
X35236183Y-53590418D01*
X35204661Y-53511523D01*
X35179266Y-53441600D01*
X35175423Y-53430322D01*
X35156047Y-53377967D01*
X35138574Y-53337283D01*
X35126388Y-53316287D01*
X35121426Y-53313322D01*
X35091634Y-53303375D01*
X35041047Y-53290505D01*
X34975194Y-53276053D01*
X34899600Y-53261355D01*
X34876957Y-53257210D01*
X34795038Y-53242116D01*
X34718600Y-53227899D01*
X34655337Y-53215995D01*
X34612943Y-53207839D01*
X34536743Y-53192799D01*
X34536743Y-52875492D01*
X34536760Y-52836476D01*
X34537082Y-52741292D01*
X34538033Y-52670255D01*
X34539896Y-52619734D01*
X34542955Y-52586098D01*
X34547494Y-52565718D01*
X34553795Y-52554962D01*
X34562143Y-52550199D01*
X34570224Y-52548270D01*
X34603172Y-52541445D01*
X34655736Y-52531022D01*
X34722569Y-52518018D01*
X34798328Y-52503449D01*
X34877665Y-52488333D01*
X34955237Y-52473685D01*
X35025698Y-52460523D01*
X35083702Y-52449863D01*
X35123904Y-52442721D01*
X35140959Y-52440114D01*
X35142112Y-52438541D01*
X35151385Y-52418119D01*
X35167432Y-52379045D01*
X35187635Y-52327629D01*
X35215672Y-52258353D01*
X35250186Y-52178290D01*
X35282538Y-52107728D01*
X35289952Y-52091889D01*
X35310755Y-52042293D01*
X35323219Y-52004038D01*
X35324863Y-51984356D01*
X35324015Y-51982962D01*
X35310548Y-51962420D01*
X35283850Y-51922516D01*
X35246539Y-51867140D01*
X35201234Y-51800177D01*
X35150552Y-51725517D01*
X35093445Y-51640692D01*
X35050607Y-51574800D01*
X35021460Y-51526478D01*
X35004317Y-51492733D01*
X34997495Y-51470572D01*
X34999306Y-51457002D01*
X34999915Y-51455984D01*
X35016297Y-51436210D01*
X35049695Y-51400175D01*
X35096671Y-51351451D01*
X35153786Y-51293612D01*
X35217603Y-51230227D01*
X35283802Y-51165905D01*
X35348648Y-51105447D01*
X35396299Y-51064655D01*
X35427990Y-51042484D01*
X35444958Y-51037889D01*
X35447175Y-51038921D01*
X35470524Y-51052837D01*
X35512912Y-51080030D01*
X35570369Y-51117889D01*
X35638923Y-51163803D01*
X35714601Y-51215160D01*
X35961298Y-51383626D01*
X36072706Y-51333062D01*
X36075943Y-51331597D01*
X36144343Y-51301965D01*
X36216907Y-51272493D01*
X36278457Y-51249358D01*
X36278729Y-51249262D01*
X36327595Y-51231367D01*
X36365212Y-51216253D01*
X36383457Y-51207184D01*
X36383752Y-51206855D01*
X36389946Y-51188282D01*
X36400139Y-51146045D01*
X36413348Y-51084696D01*
X36428590Y-51008789D01*
X36444881Y-50922875D01*
X36445449Y-50919796D01*
X36461713Y-50832128D01*
X36476608Y-50752741D01*
X36489171Y-50686701D01*
X36498438Y-50639079D01*
X36503444Y-50614943D01*
X36503764Y-50613605D01*
X36507060Y-50603273D01*
X36513738Y-50595506D01*
X36527462Y-50589940D01*
X36551895Y-50586207D01*
X36590702Y-50583942D01*
X36647546Y-50582778D01*
X36726090Y-50582348D01*
X36830000Y-50582286D01*
X36843056Y-50582286D01*
X36943933Y-50582371D01*
G37*
X36943933Y-50582371D02*
X37019856Y-50582865D01*
X37074491Y-50584135D01*
X37111500Y-50586547D01*
X37134547Y-50590467D01*
X37147296Y-50596262D01*
X37153411Y-50604299D01*
X37156556Y-50614943D01*
X37156646Y-50615325D01*
X37161814Y-50640347D01*
X37171209Y-50688681D01*
X37183867Y-50755260D01*
X37198825Y-50835014D01*
X37215119Y-50922875D01*
X37216448Y-50930064D01*
X37232691Y-51015340D01*
X37247805Y-51090242D01*
X37260808Y-51150219D01*
X37270715Y-51190717D01*
X37276544Y-51207184D01*
X37276575Y-51207210D01*
X37294943Y-51216320D01*
X37332640Y-51231457D01*
X37381543Y-51249358D01*
X37384297Y-51250330D01*
X37446817Y-51273959D01*
X37519543Y-51303595D01*
X37587294Y-51333062D01*
X37698703Y-51383626D01*
X37945399Y-51215160D01*
X37962775Y-51203311D01*
X38037202Y-51152947D01*
X38103614Y-51108612D01*
X38158039Y-51072916D01*
X38196506Y-51048471D01*
X38215042Y-51037889D01*
X38227743Y-51040315D01*
X38256579Y-51059110D01*
X38301143Y-51096330D01*
X38362670Y-51153020D01*
X38442398Y-51230227D01*
X38449532Y-51237255D01*
X38512796Y-51300222D01*
X38568990Y-51357268D01*
X38614677Y-51404817D01*
X38646414Y-51439297D01*
X38660764Y-51457131D01*
X38660810Y-51457217D01*
X38662633Y-51470795D01*
X38655910Y-51492820D01*
X38638946Y-51526304D01*
X38610044Y-51574261D01*
X38567508Y-51639704D01*
X38509644Y-51725645D01*
X38499783Y-51740151D01*
X38449913Y-51813635D01*
X38405905Y-51878687D01*
X38370380Y-51931417D01*
X38345959Y-51967936D01*
X38335264Y-51984356D01*
X38334458Y-51987834D01*
X38339518Y-52013785D01*
X38354677Y-52056159D01*
X38377463Y-52107728D01*
X38408429Y-52175170D01*
X38443004Y-52255195D01*
X38472366Y-52327629D01*
X38479645Y-52346377D01*
X38498710Y-52394246D01*
X38512715Y-52427596D01*
X38519041Y-52440114D01*
X38526025Y-52441050D01*
X38557413Y-52446461D01*
X38608787Y-52455806D01*
X38674802Y-52468069D01*
X38750113Y-52482232D01*
X38829375Y-52497280D01*
X38907243Y-52512195D01*
X38978370Y-52525961D01*
X39037412Y-52537562D01*
X39079022Y-52545980D01*
X39097857Y-52550199D01*
X39100980Y-52551389D01*
X39108591Y-52557805D01*
X39114254Y-52571465D01*
X39118251Y-52595999D01*
X39120866Y-52635038D01*
X39122384Y-52692213D01*
X39123086Y-52771154D01*
X39123257Y-52875492D01*
X39123257Y-53192799D01*
X39047057Y-53207839D01*
X39037840Y-53209642D01*
X38988891Y-53218980D01*
X38921205Y-53231669D01*
X38842478Y-53246273D01*
X38760400Y-53261355D01*
X38728078Y-53267422D01*
X38655855Y-53282181D01*
X38595666Y-53296137D01*
X38553040Y-53307952D01*
X38533510Y-53316287D01*
X38524660Y-53329905D01*
X38508548Y-53365938D01*
X38492065Y-53412572D01*
X38486263Y-53430034D01*
X38464906Y-53487358D01*
X38437359Y-53555201D01*
X38408107Y-53622355D01*
X38392463Y-53657430D01*
X38370174Y-53709822D01*
X38354857Y-53749058D01*
X38349162Y-53768563D01*
X38349478Y-53770036D01*
X38360281Y-53790729D01*
X38384638Y-53830665D01*
X38420081Y-53885972D01*
X38464136Y-53952781D01*
X38514332Y-54027220D01*
X38679501Y-54269623D01*
X38462503Y-54486983D01*
X38441516Y-54507899D01*
X38377342Y-54570505D01*
X38319990Y-54624495D01*
X38272820Y-54666826D01*
X38239192Y-54694457D01*
X38222467Y-54704343D01*
X38204303Y-54696821D01*
X38166265Y-54675227D01*
X38112726Y-54642151D01*
X38047884Y-54600191D01*
X37975940Y-54551943D01*
X37905275Y-54504291D01*
X37841526Y-54462328D01*
X37789513Y-54429165D01*
X37753279Y-54407378D01*
X37736867Y-54399543D01*
X37735905Y-54399614D01*
X37714103Y-54407338D01*
X37675440Y-54425323D01*
X37627612Y-54450013D01*
X37627110Y-54450284D01*
X37563587Y-54482099D01*
X37520060Y-54497642D01*
X37493052Y-54497685D01*
X37479090Y-54483000D01*
X37473180Y-54468544D01*
X37457229Y-54429831D01*
X37432660Y-54370316D01*
X37400779Y-54293165D01*
X37362893Y-54201541D01*
X37320310Y-54098607D01*
X37274337Y-53987526D01*
X37232667Y-53886472D01*
X37190268Y-53782780D01*
X37152756Y-53690119D01*
X37121388Y-53611642D01*
X37097425Y-53550500D01*
X37082123Y-53509843D01*
X37076743Y-53492825D01*
X37087018Y-53477219D01*
X37115563Y-53451162D01*
X37155971Y-53420887D01*
X37252979Y-53341684D01*
X37339793Y-53240475D01*
X37403322Y-53129116D01*
X37443177Y-53010893D01*
X37458965Y-52889095D01*
X37450296Y-52767010D01*
X37416778Y-52647925D01*
X37358021Y-52535129D01*
X37273632Y-52431911D01*
X37229631Y-52391713D01*
X37124211Y-52320638D01*
X37011410Y-52274301D01*
X36894525Y-52251599D01*
X36776853Y-52251428D01*
X36661690Y-52272687D01*
X36552335Y-52314270D01*
X36452083Y-52375076D01*
X36364233Y-52454001D01*
X36292080Y-52549941D01*
X36238922Y-52661795D01*
X36208057Y-52788457D01*
X36202392Y-52849507D01*
X36210185Y-52981776D01*
X36245284Y-53107266D01*
X36306649Y-53223759D01*
X36393243Y-53329039D01*
X36504029Y-53420887D01*
X36542931Y-53449930D01*
X36572104Y-53476272D01*
X36583257Y-53492800D01*
X36578810Y-53507209D01*
X36564378Y-53545815D01*
X36541173Y-53605201D01*
X36510452Y-53682215D01*
X36473474Y-53773703D01*
X36431496Y-53876516D01*
X36385778Y-53987502D01*
X36344178Y-54088072D01*
X36301222Y-54191947D01*
X36262829Y-54284819D01*
X36230305Y-54363525D01*
X36204958Y-54424899D01*
X36188095Y-54465779D01*
X36181025Y-54483000D01*
X36180943Y-54483204D01*
X36166798Y-54497745D01*
X36139659Y-54497579D01*
X36096023Y-54481927D01*
X36032388Y-54450013D01*
X36027379Y-54447326D01*
X35980125Y-54423150D01*
X35942811Y-54406037D01*
X35923133Y-54399543D01*
X35907005Y-54407218D01*
X35870959Y-54428871D01*
X35819092Y-54461928D01*
X35755445Y-54503810D01*
X35684060Y-54551943D01*
X35613724Y-54599131D01*
X35548670Y-54641267D01*
X35494820Y-54674578D01*
X35456374Y-54696469D01*
X35437534Y-54704343D01*
X35434325Y-54703343D01*
X35411954Y-54687584D01*
X35373733Y-54655033D01*
X35323021Y-54608733D01*
X35263181Y-54551726D01*
X35197571Y-54487058D01*
X34980648Y-54269772D01*
X35149601Y-54021253D01*
X35318553Y-53772733D01*
X35267183Y-53661595D01*
X35267031Y-53661266D01*
X35236183Y-53590418D01*
X35204661Y-53511523D01*
X35179266Y-53441600D01*
X35175423Y-53430322D01*
X35156047Y-53377967D01*
X35138574Y-53337283D01*
X35126388Y-53316287D01*
X35121426Y-53313322D01*
X35091634Y-53303375D01*
X35041047Y-53290505D01*
X34975194Y-53276053D01*
X34899600Y-53261355D01*
X34876957Y-53257210D01*
X34795038Y-53242116D01*
X34718600Y-53227899D01*
X34655337Y-53215995D01*
X34612943Y-53207839D01*
X34536743Y-53192799D01*
X34536743Y-52875492D01*
X34536760Y-52836476D01*
X34537082Y-52741292D01*
X34538033Y-52670255D01*
X34539896Y-52619734D01*
X34542955Y-52586098D01*
X34547494Y-52565718D01*
X34553795Y-52554962D01*
X34562143Y-52550199D01*
X34570224Y-52548270D01*
X34603172Y-52541445D01*
X34655736Y-52531022D01*
X34722569Y-52518018D01*
X34798328Y-52503449D01*
X34877665Y-52488333D01*
X34955237Y-52473685D01*
X35025698Y-52460523D01*
X35083702Y-52449863D01*
X35123904Y-52442721D01*
X35140959Y-52440114D01*
X35142112Y-52438541D01*
X35151385Y-52418119D01*
X35167432Y-52379045D01*
X35187635Y-52327629D01*
X35215672Y-52258353D01*
X35250186Y-52178290D01*
X35282538Y-52107728D01*
X35289952Y-52091889D01*
X35310755Y-52042293D01*
X35323219Y-52004038D01*
X35324863Y-51984356D01*
X35324015Y-51982962D01*
X35310548Y-51962420D01*
X35283850Y-51922516D01*
X35246539Y-51867140D01*
X35201234Y-51800177D01*
X35150552Y-51725517D01*
X35093445Y-51640692D01*
X35050607Y-51574800D01*
X35021460Y-51526478D01*
X35004317Y-51492733D01*
X34997495Y-51470572D01*
X34999306Y-51457002D01*
X34999915Y-51455984D01*
X35016297Y-51436210D01*
X35049695Y-51400175D01*
X35096671Y-51351451D01*
X35153786Y-51293612D01*
X35217603Y-51230227D01*
X35283802Y-51165905D01*
X35348648Y-51105447D01*
X35396299Y-51064655D01*
X35427990Y-51042484D01*
X35444958Y-51037889D01*
X35447175Y-51038921D01*
X35470524Y-51052837D01*
X35512912Y-51080030D01*
X35570369Y-51117889D01*
X35638923Y-51163803D01*
X35714601Y-51215160D01*
X35961298Y-51383626D01*
X36072706Y-51333062D01*
X36075943Y-51331597D01*
X36144343Y-51301965D01*
X36216907Y-51272493D01*
X36278457Y-51249358D01*
X36278729Y-51249262D01*
X36327595Y-51231367D01*
X36365212Y-51216253D01*
X36383457Y-51207184D01*
X36383752Y-51206855D01*
X36389946Y-51188282D01*
X36400139Y-51146045D01*
X36413348Y-51084696D01*
X36428590Y-51008789D01*
X36444881Y-50922875D01*
X36445449Y-50919796D01*
X36461713Y-50832128D01*
X36476608Y-50752741D01*
X36489171Y-50686701D01*
X36498438Y-50639079D01*
X36503444Y-50614943D01*
X36503764Y-50613605D01*
X36507060Y-50603273D01*
X36513738Y-50595506D01*
X36527462Y-50589940D01*
X36551895Y-50586207D01*
X36590702Y-50583942D01*
X36647546Y-50582778D01*
X36726090Y-50582348D01*
X36830000Y-50582286D01*
X36843056Y-50582286D01*
X36943933Y-50582371D01*
G36*
X40095701Y-55590935D02*
G01*
X40094914Y-55661119D01*
X40092210Y-55710022D01*
X40086606Y-55744178D01*
X40077119Y-55770124D01*
X40062768Y-55794397D01*
X40059237Y-55799433D01*
X40021878Y-55839143D01*
X39979311Y-55869092D01*
X39957452Y-55878810D01*
X39878908Y-55895020D01*
X39801231Y-55884535D01*
X39729645Y-55848707D01*
X39669374Y-55788887D01*
X39664286Y-55780873D01*
X39647730Y-55734342D01*
X39636573Y-55669552D01*
X39631160Y-55594727D01*
X39631768Y-55525513D01*
X39778248Y-55525513D01*
X39779402Y-55621399D01*
X39779866Y-55627569D01*
X39786629Y-55680478D01*
X39798671Y-55714029D01*
X39819005Y-55737016D01*
X39853097Y-55758548D01*
X39886814Y-55759680D01*
X39921543Y-55734857D01*
X39927584Y-55728325D01*
X39939417Y-55708779D01*
X39946404Y-55680386D01*
X39949727Y-55636430D01*
X39950571Y-55570192D01*
X39949125Y-55508150D01*
X39941907Y-55449042D01*
X39927006Y-55411686D01*
X39902636Y-55392152D01*
X39867008Y-55386514D01*
X39853440Y-55387635D01*
X39815430Y-55408194D01*
X39790312Y-55454299D01*
X39778248Y-55525513D01*
X39631768Y-55525513D01*
X39631833Y-55518096D01*
X39638937Y-55447882D01*
X39652815Y-55392312D01*
X39670649Y-55355301D01*
X39720855Y-55297733D01*
X39788885Y-55261962D01*
X39872158Y-55249665D01*
X39894398Y-55250331D01*
X39959891Y-55263947D01*
X40013687Y-55298249D01*
X40063057Y-55357338D01*
X40065995Y-55361722D01*
X40079287Y-55385299D01*
X40087932Y-55411949D01*
X40092904Y-55448159D01*
X40095174Y-55500413D01*
X40095678Y-55570192D01*
X40095714Y-55575200D01*
X40095701Y-55590935D01*
G37*
X40095701Y-55590935D02*
X40094914Y-55661119D01*
X40092210Y-55710022D01*
X40086606Y-55744178D01*
X40077119Y-55770124D01*
X40062768Y-55794397D01*
X40059237Y-55799433D01*
X40021878Y-55839143D01*
X39979311Y-55869092D01*
X39957452Y-55878810D01*
X39878908Y-55895020D01*
X39801231Y-55884535D01*
X39729645Y-55848707D01*
X39669374Y-55788887D01*
X39664286Y-55780873D01*
X39647730Y-55734342D01*
X39636573Y-55669552D01*
X39631160Y-55594727D01*
X39631768Y-55525513D01*
X39778248Y-55525513D01*
X39779402Y-55621399D01*
X39779866Y-55627569D01*
X39786629Y-55680478D01*
X39798671Y-55714029D01*
X39819005Y-55737016D01*
X39853097Y-55758548D01*
X39886814Y-55759680D01*
X39921543Y-55734857D01*
X39927584Y-55728325D01*
X39939417Y-55708779D01*
X39946404Y-55680386D01*
X39949727Y-55636430D01*
X39950571Y-55570192D01*
X39949125Y-55508150D01*
X39941907Y-55449042D01*
X39927006Y-55411686D01*
X39902636Y-55392152D01*
X39867008Y-55386514D01*
X39853440Y-55387635D01*
X39815430Y-55408194D01*
X39790312Y-55454299D01*
X39778248Y-55525513D01*
X39631768Y-55525513D01*
X39631833Y-55518096D01*
X39638937Y-55447882D01*
X39652815Y-55392312D01*
X39670649Y-55355301D01*
X39720855Y-55297733D01*
X39788885Y-55261962D01*
X39872158Y-55249665D01*
X39894398Y-55250331D01*
X39959891Y-55263947D01*
X40013687Y-55298249D01*
X40063057Y-55357338D01*
X40065995Y-55361722D01*
X40079287Y-55385299D01*
X40087932Y-55411949D01*
X40092904Y-55448159D01*
X40095174Y-55500413D01*
X40095678Y-55570192D01*
X40095714Y-55575200D01*
X40095701Y-55590935D01*
G36*
X33970307Y-55631305D02*
G01*
X33966762Y-55707521D01*
X33957483Y-55763294D01*
X33940375Y-55804613D01*
X33913344Y-55837467D01*
X33874292Y-55867846D01*
X33849445Y-55881660D01*
X33809615Y-55890965D01*
X33753665Y-55890230D01*
X33722385Y-55887283D01*
X33684653Y-55878283D01*
X33654494Y-55858720D01*
X33619408Y-55822267D01*
X33614720Y-55816943D01*
X33583177Y-55775969D01*
X33568128Y-55740283D01*
X33564286Y-55697966D01*
X33564286Y-55635779D01*
X33607742Y-55652182D01*
X33639424Y-55671356D01*
X33666962Y-55716347D01*
X33672711Y-55730752D01*
X33704855Y-55771546D01*
X33748611Y-55792081D01*
X33796254Y-55790235D01*
X33840057Y-55763886D01*
X33855111Y-55747455D01*
X33868763Y-55722667D01*
X33864493Y-55700144D01*
X33839916Y-55676964D01*
X33792651Y-55650202D01*
X33720314Y-55616934D01*
X33571543Y-55551816D01*
X33567595Y-55487308D01*
X33569079Y-55446220D01*
X33666010Y-55446220D01*
X33673368Y-55471657D01*
X33706848Y-55498814D01*
X33767614Y-55529714D01*
X33777669Y-55534190D01*
X33825751Y-55555017D01*
X33861726Y-55569665D01*
X33878444Y-55575200D01*
X33880977Y-55571126D01*
X33881993Y-55546247D01*
X33878369Y-55506257D01*
X33869242Y-55467152D01*
X33840773Y-55417884D01*
X33799678Y-55390122D01*
X33750590Y-55386364D01*
X33698144Y-55409109D01*
X33683609Y-55420481D01*
X33666010Y-55446220D01*
X33569079Y-55446220D01*
X33569338Y-55439064D01*
X33591281Y-55378096D01*
X33618979Y-55344497D01*
X33676405Y-55306966D01*
X33744527Y-55288006D01*
X33814947Y-55289507D01*
X33879267Y-55313355D01*
X33893426Y-55322513D01*
X33925904Y-55350849D01*
X33948116Y-55386695D01*
X33961804Y-55435384D01*
X33968715Y-55502249D01*
X33969628Y-55546247D01*
X33970590Y-55592622D01*
X33970307Y-55631305D01*
G37*
X33970307Y-55631305D02*
X33966762Y-55707521D01*
X33957483Y-55763294D01*
X33940375Y-55804613D01*
X33913344Y-55837467D01*
X33874292Y-55867846D01*
X33849445Y-55881660D01*
X33809615Y-55890965D01*
X33753665Y-55890230D01*
X33722385Y-55887283D01*
X33684653Y-55878283D01*
X33654494Y-55858720D01*
X33619408Y-55822267D01*
X33614720Y-55816943D01*
X33583177Y-55775969D01*
X33568128Y-55740283D01*
X33564286Y-55697966D01*
X33564286Y-55635779D01*
X33607742Y-55652182D01*
X33639424Y-55671356D01*
X33666962Y-55716347D01*
X33672711Y-55730752D01*
X33704855Y-55771546D01*
X33748611Y-55792081D01*
X33796254Y-55790235D01*
X33840057Y-55763886D01*
X33855111Y-55747455D01*
X33868763Y-55722667D01*
X33864493Y-55700144D01*
X33839916Y-55676964D01*
X33792651Y-55650202D01*
X33720314Y-55616934D01*
X33571543Y-55551816D01*
X33567595Y-55487308D01*
X33569079Y-55446220D01*
X33666010Y-55446220D01*
X33673368Y-55471657D01*
X33706848Y-55498814D01*
X33767614Y-55529714D01*
X33777669Y-55534190D01*
X33825751Y-55555017D01*
X33861726Y-55569665D01*
X33878444Y-55575200D01*
X33880977Y-55571126D01*
X33881993Y-55546247D01*
X33878369Y-55506257D01*
X33869242Y-55467152D01*
X33840773Y-55417884D01*
X33799678Y-55390122D01*
X33750590Y-55386364D01*
X33698144Y-55409109D01*
X33683609Y-55420481D01*
X33666010Y-55446220D01*
X33569079Y-55446220D01*
X33569338Y-55439064D01*
X33591281Y-55378096D01*
X33618979Y-55344497D01*
X33676405Y-55306966D01*
X33744527Y-55288006D01*
X33814947Y-55289507D01*
X33879267Y-55313355D01*
X33893426Y-55322513D01*
X33925904Y-55350849D01*
X33948116Y-55386695D01*
X33961804Y-55435384D01*
X33968715Y-55502249D01*
X33969628Y-55546247D01*
X33970590Y-55592622D01*
X33970307Y-55631305D01*
G36*
X37508543Y-55089444D02*
G01*
X37555714Y-55109342D01*
X37555714Y-55506509D01*
X37555519Y-55609498D01*
X37554998Y-55702141D01*
X37554199Y-55780700D01*
X37553172Y-55841439D01*
X37551963Y-55880623D01*
X37550623Y-55894514D01*
X37550099Y-55894468D01*
X37532287Y-55889420D01*
X37499823Y-55878580D01*
X37454114Y-55862646D01*
X37454114Y-55658173D01*
X37453824Y-55577832D01*
X37452474Y-55519562D01*
X37449369Y-55479909D01*
X37443812Y-55453618D01*
X37435107Y-55435436D01*
X37422556Y-55420107D01*
X37413999Y-55411955D01*
X37367728Y-55389375D01*
X37316728Y-55391375D01*
X37269993Y-55418073D01*
X37263189Y-55424698D01*
X37252293Y-55438456D01*
X37244836Y-55456642D01*
X37240169Y-55484177D01*
X37237642Y-55525981D01*
X37236602Y-55586973D01*
X37236400Y-55672073D01*
X37236303Y-55715234D01*
X37235674Y-55786224D01*
X37234556Y-55843076D01*
X37233063Y-55880828D01*
X37231309Y-55894514D01*
X37230785Y-55894468D01*
X37212973Y-55889420D01*
X37180509Y-55878580D01*
X37134800Y-55862646D01*
X37134823Y-55657237D01*
X37134857Y-55638951D01*
X37136778Y-55543626D01*
X37142678Y-55471543D01*
X37154001Y-55417813D01*
X37172187Y-55377549D01*
X37198679Y-55345861D01*
X37234918Y-55317861D01*
X37270263Y-55300333D01*
X37326773Y-55286785D01*
X37382356Y-55286015D01*
X37425086Y-55299195D01*
X37428298Y-55301015D01*
X37438205Y-55300820D01*
X37444975Y-55285572D01*
X37449861Y-55250613D01*
X37454114Y-55191289D01*
X37461371Y-55069547D01*
X37508543Y-55089444D01*
G37*
X37508543Y-55089444D02*
X37555714Y-55109342D01*
X37555714Y-55506509D01*
X37555519Y-55609498D01*
X37554998Y-55702141D01*
X37554199Y-55780700D01*
X37553172Y-55841439D01*
X37551963Y-55880623D01*
X37550623Y-55894514D01*
X37550099Y-55894468D01*
X37532287Y-55889420D01*
X37499823Y-55878580D01*
X37454114Y-55862646D01*
X37454114Y-55658173D01*
X37453824Y-55577832D01*
X37452474Y-55519562D01*
X37449369Y-55479909D01*
X37443812Y-55453618D01*
X37435107Y-55435436D01*
X37422556Y-55420107D01*
X37413999Y-55411955D01*
X37367728Y-55389375D01*
X37316728Y-55391375D01*
X37269993Y-55418073D01*
X37263189Y-55424698D01*
X37252293Y-55438456D01*
X37244836Y-55456642D01*
X37240169Y-55484177D01*
X37237642Y-55525981D01*
X37236602Y-55586973D01*
X37236400Y-55672073D01*
X37236303Y-55715234D01*
X37235674Y-55786224D01*
X37234556Y-55843076D01*
X37233063Y-55880828D01*
X37231309Y-55894514D01*
X37230785Y-55894468D01*
X37212973Y-55889420D01*
X37180509Y-55878580D01*
X37134800Y-55862646D01*
X37134823Y-55657237D01*
X37134857Y-55638951D01*
X37136778Y-55543626D01*
X37142678Y-55471543D01*
X37154001Y-55417813D01*
X37172187Y-55377549D01*
X37198679Y-55345861D01*
X37234918Y-55317861D01*
X37270263Y-55300333D01*
X37326773Y-55286785D01*
X37382356Y-55286015D01*
X37425086Y-55299195D01*
X37428298Y-55301015D01*
X37438205Y-55300820D01*
X37444975Y-55285572D01*
X37449861Y-55250613D01*
X37454114Y-55191289D01*
X37461371Y-55069547D01*
X37508543Y-55089444D01*
G36*
X36059537Y-55646313D02*
G01*
X36051345Y-55723462D01*
X36033519Y-55781276D01*
X36003975Y-55825422D01*
X35960625Y-55861568D01*
X35919332Y-55882463D01*
X35849987Y-55894090D01*
X35780736Y-55881377D01*
X35718145Y-55845945D01*
X35668779Y-55789418D01*
X35662818Y-55778995D01*
X35654945Y-55760733D01*
X35649106Y-55737429D01*
X35644999Y-55705085D01*
X35642325Y-55659704D01*
X35640781Y-55597287D01*
X35640734Y-55591748D01*
X35741429Y-55591748D01*
X35741772Y-55644577D01*
X35743942Y-55692362D01*
X35749307Y-55723209D01*
X35759217Y-55743935D01*
X35775021Y-55761356D01*
X35778724Y-55764705D01*
X35826299Y-55789419D01*
X35876635Y-55786890D01*
X35923517Y-55757288D01*
X35937477Y-55741953D01*
X35949160Y-55721622D01*
X35955686Y-55693514D01*
X35958524Y-55650550D01*
X35959143Y-55585647D01*
X35958837Y-55536122D01*
X35956722Y-55487782D01*
X35951390Y-55456587D01*
X35941460Y-55435647D01*
X35925550Y-55418073D01*
X35916204Y-55410159D01*
X35867776Y-55388843D01*
X35817040Y-55392198D01*
X35772987Y-55420107D01*
X35763504Y-55431173D01*
X35751939Y-55452009D01*
X35745252Y-55481106D01*
X35742173Y-55525381D01*
X35741429Y-55591748D01*
X35640734Y-55591748D01*
X35640067Y-55513837D01*
X35639883Y-55405358D01*
X35639829Y-55068601D01*
X35687000Y-55088362D01*
X35699472Y-55093770D01*
X35719324Y-55105985D01*
X35730687Y-55124482D01*
X35736933Y-55156829D01*
X35741429Y-55210593D01*
X35745535Y-55258866D01*
X35750963Y-55290557D01*
X35758739Y-55302383D01*
X35770457Y-55299212D01*
X35800318Y-55288067D01*
X35853684Y-55285304D01*
X35911093Y-55295625D01*
X35960625Y-55317861D01*
X35987876Y-55338443D01*
X36022865Y-55378600D01*
X36045274Y-55430086D01*
X36057190Y-55498568D01*
X36060542Y-55585647D01*
X36060698Y-55589714D01*
X36059537Y-55646313D01*
G37*
X36059537Y-55646313D02*
X36051345Y-55723462D01*
X36033519Y-55781276D01*
X36003975Y-55825422D01*
X35960625Y-55861568D01*
X35919332Y-55882463D01*
X35849987Y-55894090D01*
X35780736Y-55881377D01*
X35718145Y-55845945D01*
X35668779Y-55789418D01*
X35662818Y-55778995D01*
X35654945Y-55760733D01*
X35649106Y-55737429D01*
X35644999Y-55705085D01*
X35642325Y-55659704D01*
X35640781Y-55597287D01*
X35640734Y-55591748D01*
X35741429Y-55591748D01*
X35741772Y-55644577D01*
X35743942Y-55692362D01*
X35749307Y-55723209D01*
X35759217Y-55743935D01*
X35775021Y-55761356D01*
X35778724Y-55764705D01*
X35826299Y-55789419D01*
X35876635Y-55786890D01*
X35923517Y-55757288D01*
X35937477Y-55741953D01*
X35949160Y-55721622D01*
X35955686Y-55693514D01*
X35958524Y-55650550D01*
X35959143Y-55585647D01*
X35958837Y-55536122D01*
X35956722Y-55487782D01*
X35951390Y-55456587D01*
X35941460Y-55435647D01*
X35925550Y-55418073D01*
X35916204Y-55410159D01*
X35867776Y-55388843D01*
X35817040Y-55392198D01*
X35772987Y-55420107D01*
X35763504Y-55431173D01*
X35751939Y-55452009D01*
X35745252Y-55481106D01*
X35742173Y-55525381D01*
X35741429Y-55591748D01*
X35640734Y-55591748D01*
X35640067Y-55513837D01*
X35639883Y-55405358D01*
X35639829Y-55068601D01*
X35687000Y-55088362D01*
X35699472Y-55093770D01*
X35719324Y-55105985D01*
X35730687Y-55124482D01*
X35736933Y-55156829D01*
X35741429Y-55210593D01*
X35745535Y-55258866D01*
X35750963Y-55290557D01*
X35758739Y-55302383D01*
X35770457Y-55299212D01*
X35800318Y-55288067D01*
X35853684Y-55285304D01*
X35911093Y-55295625D01*
X35960625Y-55317861D01*
X35987876Y-55338443D01*
X36022865Y-55378600D01*
X36045274Y-55430086D01*
X36057190Y-55498568D01*
X36060542Y-55585647D01*
X36060698Y-55589714D01*
X36059537Y-55646313D01*
G36*
X34312829Y-55291097D02*
G01*
X34372753Y-55313355D01*
X34397673Y-55330080D01*
X34422910Y-55354043D01*
X34440912Y-55384526D01*
X34452858Y-55426023D01*
X34459930Y-55483032D01*
X34463308Y-55560047D01*
X34464171Y-55661565D01*
X34464002Y-55714027D01*
X34463153Y-55785715D01*
X34461711Y-55842925D01*
X34459814Y-55880809D01*
X34457597Y-55894514D01*
X34443172Y-55889981D01*
X34414054Y-55877670D01*
X34413181Y-55877272D01*
X34398060Y-55869356D01*
X34387891Y-55858495D01*
X34381691Y-55839471D01*
X34378478Y-55807069D01*
X34377270Y-55756071D01*
X34377086Y-55681261D01*
X34376714Y-55633804D01*
X34372750Y-55544615D01*
X34363673Y-55479287D01*
X34348524Y-55434393D01*
X34326345Y-55406507D01*
X34296175Y-55392203D01*
X34291990Y-55391206D01*
X34235480Y-55390427D01*
X34191410Y-55415744D01*
X34160972Y-55466502D01*
X34155544Y-55481175D01*
X34143171Y-55513649D01*
X34136905Y-55528572D01*
X34124036Y-55526516D01*
X34095933Y-55515357D01*
X34069721Y-55496927D01*
X34057771Y-55462098D01*
X34061336Y-55437151D01*
X34083235Y-55386547D01*
X34118644Y-55339128D01*
X34160052Y-55306334D01*
X34177400Y-55298752D01*
X34243089Y-55286076D01*
X34312829Y-55291097D01*
G37*
X34312829Y-55291097D02*
X34372753Y-55313355D01*
X34397673Y-55330080D01*
X34422910Y-55354043D01*
X34440912Y-55384526D01*
X34452858Y-55426023D01*
X34459930Y-55483032D01*
X34463308Y-55560047D01*
X34464171Y-55661565D01*
X34464002Y-55714027D01*
X34463153Y-55785715D01*
X34461711Y-55842925D01*
X34459814Y-55880809D01*
X34457597Y-55894514D01*
X34443172Y-55889981D01*
X34414054Y-55877670D01*
X34413181Y-55877272D01*
X34398060Y-55869356D01*
X34387891Y-55858495D01*
X34381691Y-55839471D01*
X34378478Y-55807069D01*
X34377270Y-55756071D01*
X34377086Y-55681261D01*
X34376714Y-55633804D01*
X34372750Y-55544615D01*
X34363673Y-55479287D01*
X34348524Y-55434393D01*
X34326345Y-55406507D01*
X34296175Y-55392203D01*
X34291990Y-55391206D01*
X34235480Y-55390427D01*
X34191410Y-55415744D01*
X34160972Y-55466502D01*
X34155544Y-55481175D01*
X34143171Y-55513649D01*
X34136905Y-55528572D01*
X34124036Y-55526516D01*
X34095933Y-55515357D01*
X34069721Y-55496927D01*
X34057771Y-55462098D01*
X34061336Y-55437151D01*
X34083235Y-55386547D01*
X34118644Y-55339128D01*
X34160052Y-55306334D01*
X34177400Y-55298752D01*
X34243089Y-55286076D01*
X34312829Y-55291097D01*
G36*
X38261020Y-55257822D02*
G01*
X38328810Y-55289680D01*
X38384366Y-55344770D01*
X38395881Y-55362016D01*
X38405432Y-55381562D01*
X38412206Y-55406198D01*
X38416819Y-55440711D01*
X38419888Y-55489889D01*
X38422029Y-55558519D01*
X38423859Y-55651389D01*
X38428404Y-55909007D01*
X38390225Y-55894491D01*
X38355268Y-55881156D01*
X38329097Y-55868323D01*
X38312013Y-55851780D01*
X38302086Y-55826465D01*
X38297386Y-55787316D01*
X38295982Y-55729268D01*
X38295943Y-55647261D01*
X38295744Y-55581895D01*
X38294559Y-55519173D01*
X38291729Y-55476334D01*
X38286609Y-55448220D01*
X38278553Y-55429675D01*
X38266914Y-55415543D01*
X38238303Y-55395600D01*
X38190239Y-55388083D01*
X38142688Y-55407079D01*
X38139550Y-55409511D01*
X38129769Y-55420748D01*
X38122553Y-55438770D01*
X38117299Y-55468026D01*
X38113402Y-55512962D01*
X38110256Y-55578028D01*
X38107257Y-55667670D01*
X38100000Y-55907697D01*
X38038314Y-55880044D01*
X37976629Y-55852391D01*
X37976629Y-55633246D01*
X37976884Y-55573711D01*
X37979086Y-55490892D01*
X37984661Y-55429227D01*
X37994941Y-55383748D01*
X38011258Y-55349484D01*
X38034943Y-55321466D01*
X38067328Y-55294723D01*
X38113907Y-55267780D01*
X38187287Y-55250191D01*
X38261020Y-55257822D01*
G37*
X38261020Y-55257822D02*
X38328810Y-55289680D01*
X38384366Y-55344770D01*
X38395881Y-55362016D01*
X38405432Y-55381562D01*
X38412206Y-55406198D01*
X38416819Y-55440711D01*
X38419888Y-55489889D01*
X38422029Y-55558519D01*
X38423859Y-55651389D01*
X38428404Y-55909007D01*
X38390225Y-55894491D01*
X38355268Y-55881156D01*
X38329097Y-55868323D01*
X38312013Y-55851780D01*
X38302086Y-55826465D01*
X38297386Y-55787316D01*
X38295982Y-55729268D01*
X38295943Y-55647261D01*
X38295744Y-55581895D01*
X38294559Y-55519173D01*
X38291729Y-55476334D01*
X38286609Y-55448220D01*
X38278553Y-55429675D01*
X38266914Y-55415543D01*
X38238303Y-55395600D01*
X38190239Y-55388083D01*
X38142688Y-55407079D01*
X38139550Y-55409511D01*
X38129769Y-55420748D01*
X38122553Y-55438770D01*
X38117299Y-55468026D01*
X38113402Y-55512962D01*
X38110256Y-55578028D01*
X38107257Y-55667670D01*
X38100000Y-55907697D01*
X38038314Y-55880044D01*
X37976629Y-55852391D01*
X37976629Y-55633246D01*
X37976884Y-55573711D01*
X37979086Y-55490892D01*
X37984661Y-55429227D01*
X37994941Y-55383748D01*
X38011258Y-55349484D01*
X38034943Y-55321466D01*
X38067328Y-55294723D01*
X38113907Y-55267780D01*
X38187287Y-55250191D01*
X38261020Y-55257822D01*
G36*
X35483941Y-55289282D02*
G01*
X35515774Y-55301758D01*
X35552743Y-55318602D01*
X35552743Y-55805196D01*
X35506812Y-55851127D01*
X35496320Y-55861427D01*
X35467255Y-55884320D01*
X35437943Y-55891735D01*
X35394326Y-55888321D01*
X35376568Y-55886114D01*
X35330767Y-55881445D01*
X35298743Y-55879585D01*
X35289244Y-55879869D01*
X35250274Y-55882948D01*
X35203160Y-55888321D01*
X35188085Y-55890168D01*
X35150110Y-55890893D01*
X35122325Y-55879429D01*
X35090674Y-55851127D01*
X35044743Y-55805196D01*
X35044743Y-55545055D01*
X35045101Y-55468180D01*
X35046216Y-55394886D01*
X35047952Y-55336850D01*
X35050167Y-55298663D01*
X35052721Y-55284914D01*
X35053256Y-55284951D01*
X35071808Y-55291793D01*
X35103153Y-55306868D01*
X35145608Y-55328822D01*
X35149604Y-55557240D01*
X35153600Y-55785657D01*
X35240686Y-55785657D01*
X35244657Y-55535286D01*
X35245916Y-55467227D01*
X35247718Y-55394482D01*
X35249671Y-55336730D01*
X35251612Y-55298648D01*
X35253377Y-55284914D01*
X35253885Y-55284962D01*
X35271482Y-55290015D01*
X35303834Y-55300849D01*
X35349543Y-55316783D01*
X35349765Y-55536706D01*
X35349988Y-55574909D01*
X35351531Y-55649146D01*
X35354292Y-55711145D01*
X35357977Y-55755308D01*
X35362292Y-55776041D01*
X35377732Y-55787131D01*
X35409241Y-55790556D01*
X35443886Y-55785657D01*
X35447857Y-55535286D01*
X35449278Y-55471663D01*
X35452225Y-55396356D01*
X35456079Y-55337286D01*
X35460542Y-55298718D01*
X35465317Y-55284914D01*
X35483941Y-55289282D01*
G37*
X35483941Y-55289282D02*
X35515774Y-55301758D01*
X35552743Y-55318602D01*
X35552743Y-55805196D01*
X35506812Y-55851127D01*
X35496320Y-55861427D01*
X35467255Y-55884320D01*
X35437943Y-55891735D01*
X35394326Y-55888321D01*
X35376568Y-55886114D01*
X35330767Y-55881445D01*
X35298743Y-55879585D01*
X35289244Y-55879869D01*
X35250274Y-55882948D01*
X35203160Y-55888321D01*
X35188085Y-55890168D01*
X35150110Y-55890893D01*
X35122325Y-55879429D01*
X35090674Y-55851127D01*
X35044743Y-55805196D01*
X35044743Y-55545055D01*
X35045101Y-55468180D01*
X35046216Y-55394886D01*
X35047952Y-55336850D01*
X35050167Y-55298663D01*
X35052721Y-55284914D01*
X35053256Y-55284951D01*
X35071808Y-55291793D01*
X35103153Y-55306868D01*
X35145608Y-55328822D01*
X35149604Y-55557240D01*
X35153600Y-55785657D01*
X35240686Y-55785657D01*
X35244657Y-55535286D01*
X35245916Y-55467227D01*
X35247718Y-55394482D01*
X35249671Y-55336730D01*
X35251612Y-55298648D01*
X35253377Y-55284914D01*
X35253885Y-55284962D01*
X35271482Y-55290015D01*
X35303834Y-55300849D01*
X35349543Y-55316783D01*
X35349765Y-55536706D01*
X35349988Y-55574909D01*
X35351531Y-55649146D01*
X35354292Y-55711145D01*
X35357977Y-55755308D01*
X35362292Y-55776041D01*
X35377732Y-55787131D01*
X35409241Y-55790556D01*
X35443886Y-55785657D01*
X35447857Y-55535286D01*
X35449278Y-55471663D01*
X35452225Y-55396356D01*
X35456079Y-55337286D01*
X35460542Y-55298718D01*
X35465317Y-55284914D01*
X35483941Y-55289282D01*
G36*
X34797495Y-55286220D02*
G01*
X34828599Y-55294121D01*
X34857559Y-55313817D01*
X34894831Y-55350484D01*
X34918801Y-55376378D01*
X34943770Y-55409997D01*
X34955031Y-55441506D01*
X34957657Y-55481485D01*
X34957657Y-55546917D01*
X34913035Y-55523842D01*
X34877673Y-55495724D01*
X34853451Y-55457848D01*
X34849291Y-55447551D01*
X34817594Y-55407637D01*
X34773554Y-55387624D01*
X34725531Y-55389572D01*
X34681886Y-55415543D01*
X34663420Y-55436635D01*
X34652663Y-55463619D01*
X34664178Y-55487634D01*
X34699981Y-55511791D01*
X34762090Y-55539199D01*
X34771515Y-55542985D01*
X34828058Y-55567759D01*
X34876580Y-55592189D01*
X34907451Y-55611486D01*
X34938371Y-55645953D01*
X34958927Y-55700957D01*
X34956744Y-55759983D01*
X34932424Y-55815845D01*
X34886568Y-55861355D01*
X34849438Y-55880727D01*
X34777711Y-55894292D01*
X34737852Y-55892462D01*
X34700953Y-55882568D01*
X34686797Y-55861806D01*
X34692091Y-55827613D01*
X34693631Y-55823092D01*
X34705842Y-55799116D01*
X34726174Y-55790042D01*
X34764908Y-55790649D01*
X34792257Y-55791474D01*
X34824257Y-55784392D01*
X34846182Y-55763219D01*
X34858670Y-55737152D01*
X34860062Y-55709845D01*
X34859998Y-55709685D01*
X34843807Y-55694930D01*
X34809155Y-55673457D01*
X34764321Y-55649458D01*
X34717582Y-55627125D01*
X34677217Y-55610652D01*
X34651504Y-55604229D01*
X34647679Y-55610518D01*
X34642864Y-55640115D01*
X34639566Y-55688447D01*
X34638343Y-55749372D01*
X34638058Y-55791542D01*
X34636718Y-55844653D01*
X34634528Y-55881025D01*
X34631769Y-55894514D01*
X34617344Y-55889981D01*
X34588226Y-55877670D01*
X34551257Y-55860826D01*
X34551257Y-55644721D01*
X34551493Y-55589327D01*
X34553729Y-55505207D01*
X34559423Y-55442800D01*
X34569903Y-55397358D01*
X34586497Y-55364133D01*
X34610531Y-55338378D01*
X34643333Y-55315344D01*
X34685124Y-55296335D01*
X34762287Y-55284914D01*
X34797495Y-55286220D01*
G37*
X34797495Y-55286220D02*
X34828599Y-55294121D01*
X34857559Y-55313817D01*
X34894831Y-55350484D01*
X34918801Y-55376378D01*
X34943770Y-55409997D01*
X34955031Y-55441506D01*
X34957657Y-55481485D01*
X34957657Y-55546917D01*
X34913035Y-55523842D01*
X34877673Y-55495724D01*
X34853451Y-55457848D01*
X34849291Y-55447551D01*
X34817594Y-55407637D01*
X34773554Y-55387624D01*
X34725531Y-55389572D01*
X34681886Y-55415543D01*
X34663420Y-55436635D01*
X34652663Y-55463619D01*
X34664178Y-55487634D01*
X34699981Y-55511791D01*
X34762090Y-55539199D01*
X34771515Y-55542985D01*
X34828058Y-55567759D01*
X34876580Y-55592189D01*
X34907451Y-55611486D01*
X34938371Y-55645953D01*
X34958927Y-55700957D01*
X34956744Y-55759983D01*
X34932424Y-55815845D01*
X34886568Y-55861355D01*
X34849438Y-55880727D01*
X34777711Y-55894292D01*
X34737852Y-55892462D01*
X34700953Y-55882568D01*
X34686797Y-55861806D01*
X34692091Y-55827613D01*
X34693631Y-55823092D01*
X34705842Y-55799116D01*
X34726174Y-55790042D01*
X34764908Y-55790649D01*
X34792257Y-55791474D01*
X34824257Y-55784392D01*
X34846182Y-55763219D01*
X34858670Y-55737152D01*
X34860062Y-55709845D01*
X34859998Y-55709685D01*
X34843807Y-55694930D01*
X34809155Y-55673457D01*
X34764321Y-55649458D01*
X34717582Y-55627125D01*
X34677217Y-55610652D01*
X34651504Y-55604229D01*
X34647679Y-55610518D01*
X34642864Y-55640115D01*
X34639566Y-55688447D01*
X34638343Y-55749372D01*
X34638058Y-55791542D01*
X34636718Y-55844653D01*
X34634528Y-55881025D01*
X34631769Y-55894514D01*
X34617344Y-55889981D01*
X34588226Y-55877670D01*
X34551257Y-55860826D01*
X34551257Y-55644721D01*
X34551493Y-55589327D01*
X34553729Y-55505207D01*
X34559423Y-55442800D01*
X34569903Y-55397358D01*
X34586497Y-55364133D01*
X34610531Y-55338378D01*
X34643333Y-55315344D01*
X34685124Y-55296335D01*
X34762287Y-55284914D01*
X34797495Y-55286220D01*
G36*
X39541252Y-55753000D02*
G01*
X39541651Y-55785339D01*
X39542929Y-55893455D01*
X39543185Y-55976186D01*
X39541634Y-56036426D01*
X39537490Y-56077073D01*
X39529964Y-56101023D01*
X39518271Y-56111171D01*
X39501624Y-56110414D01*
X39479236Y-56101648D01*
X39450321Y-56087769D01*
X39444142Y-56084808D01*
X39418413Y-56070311D01*
X39404976Y-56053065D01*
X39399834Y-56024308D01*
X39398990Y-55975283D01*
X39398952Y-55887257D01*
X39308276Y-55887257D01*
X39252498Y-55884815D01*
X39208640Y-55874908D01*
X39172218Y-55854886D01*
X39169503Y-55852929D01*
X39132546Y-55819869D01*
X39106826Y-55779931D01*
X39090606Y-55727657D01*
X39082148Y-55657588D01*
X39080083Y-55578430D01*
X39224857Y-55578430D01*
X39224882Y-55591697D01*
X39226261Y-55651584D01*
X39230687Y-55690732D01*
X39239461Y-55716153D01*
X39253886Y-55734857D01*
X39254784Y-55735750D01*
X39290237Y-55759952D01*
X39324596Y-55757567D01*
X39363403Y-55728260D01*
X39372895Y-55718244D01*
X39386876Y-55697708D01*
X39394760Y-55670997D01*
X39398245Y-55630499D01*
X39399029Y-55568603D01*
X39398350Y-55531130D01*
X39390983Y-55462980D01*
X39374168Y-55418330D01*
X39346234Y-55393926D01*
X39305509Y-55386514D01*
X39288350Y-55388094D01*
X39258660Y-55403766D01*
X39239031Y-55438691D01*
X39228188Y-55495901D01*
X39224857Y-55578430D01*
X39080083Y-55578430D01*
X39079714Y-55564267D01*
X39080253Y-55496169D01*
X39082707Y-55444587D01*
X39088158Y-55408816D01*
X39097686Y-55382015D01*
X39112371Y-55357338D01*
X39125852Y-55338480D01*
X39174799Y-55287568D01*
X39230256Y-55259918D01*
X39299928Y-55251165D01*
X39379664Y-55259890D01*
X39448595Y-55291185D01*
X39503113Y-55346381D01*
X39507223Y-55352224D01*
X39516808Y-55367753D01*
X39524151Y-55385498D01*
X39529612Y-55409290D01*
X39533550Y-55442958D01*
X39536323Y-55490333D01*
X39538292Y-55555245D01*
X39538528Y-55568603D01*
X39539815Y-55641524D01*
X39541252Y-55753000D01*
G37*
X39541252Y-55753000D02*
X39541651Y-55785339D01*
X39542929Y-55893455D01*
X39543185Y-55976186D01*
X39541634Y-56036426D01*
X39537490Y-56077073D01*
X39529964Y-56101023D01*
X39518271Y-56111171D01*
X39501624Y-56110414D01*
X39479236Y-56101648D01*
X39450321Y-56087769D01*
X39444142Y-56084808D01*
X39418413Y-56070311D01*
X39404976Y-56053065D01*
X39399834Y-56024308D01*
X39398990Y-55975283D01*
X39398952Y-55887257D01*
X39308276Y-55887257D01*
X39252498Y-55884815D01*
X39208640Y-55874908D01*
X39172218Y-55854886D01*
X39169503Y-55852929D01*
X39132546Y-55819869D01*
X39106826Y-55779931D01*
X39090606Y-55727657D01*
X39082148Y-55657588D01*
X39080083Y-55578430D01*
X39224857Y-55578430D01*
X39224882Y-55591697D01*
X39226261Y-55651584D01*
X39230687Y-55690732D01*
X39239461Y-55716153D01*
X39253886Y-55734857D01*
X39254784Y-55735750D01*
X39290237Y-55759952D01*
X39324596Y-55757567D01*
X39363403Y-55728260D01*
X39372895Y-55718244D01*
X39386876Y-55697708D01*
X39394760Y-55670997D01*
X39398245Y-55630499D01*
X39399029Y-55568603D01*
X39398350Y-55531130D01*
X39390983Y-55462980D01*
X39374168Y-55418330D01*
X39346234Y-55393926D01*
X39305509Y-55386514D01*
X39288350Y-55388094D01*
X39258660Y-55403766D01*
X39239031Y-55438691D01*
X39228188Y-55495901D01*
X39224857Y-55578430D01*
X39080083Y-55578430D01*
X39079714Y-55564267D01*
X39080253Y-55496169D01*
X39082707Y-55444587D01*
X39088158Y-55408816D01*
X39097686Y-55382015D01*
X39112371Y-55357338D01*
X39125852Y-55338480D01*
X39174799Y-55287568D01*
X39230256Y-55259918D01*
X39299928Y-55251165D01*
X39379664Y-55259890D01*
X39448595Y-55291185D01*
X39503113Y-55346381D01*
X39507223Y-55352224D01*
X39516808Y-55367753D01*
X39524151Y-55385498D01*
X39529612Y-55409290D01*
X39533550Y-55442958D01*
X39536323Y-55490333D01*
X39538292Y-55555245D01*
X39538528Y-55568603D01*
X39539815Y-55641524D01*
X39541252Y-55753000D01*
G36*
X36919483Y-55300569D02*
G01*
X36969376Y-55329661D01*
X36991325Y-55352327D01*
X37033504Y-55420082D01*
X37047714Y-55493950D01*
X37047714Y-55544770D01*
X37000999Y-55525128D01*
X36968692Y-55505308D01*
X36943231Y-55464160D01*
X36940616Y-55455675D01*
X36912478Y-55412451D01*
X36870067Y-55389103D01*
X36821370Y-55388100D01*
X36774373Y-55411914D01*
X36767357Y-55418056D01*
X36743893Y-55444745D01*
X36740019Y-55468014D01*
X36757768Y-55490862D01*
X36799179Y-55516287D01*
X36866286Y-55547288D01*
X36870824Y-55549252D01*
X36945322Y-55583990D01*
X36996203Y-55614763D01*
X37027525Y-55645488D01*
X37043343Y-55680082D01*
X37047714Y-55722462D01*
X37041986Y-55769446D01*
X37013062Y-55829585D01*
X36962178Y-55872788D01*
X36925374Y-55885759D01*
X36873434Y-55892856D01*
X36822999Y-55891340D01*
X36786983Y-55880632D01*
X36783158Y-55877966D01*
X36772998Y-55859337D01*
X36780048Y-55826505D01*
X36792297Y-55800735D01*
X36811939Y-55790006D01*
X36849191Y-55790539D01*
X36900908Y-55787462D01*
X36934701Y-55766212D01*
X36946114Y-55726877D01*
X36946104Y-55725747D01*
X36939187Y-55702913D01*
X36915659Y-55681963D01*
X36869914Y-55657815D01*
X36807704Y-55628741D01*
X36766499Y-55612925D01*
X36742712Y-55613944D01*
X36731597Y-55634837D01*
X36728408Y-55678641D01*
X36728400Y-55748393D01*
X36728044Y-55791452D01*
X36726413Y-55844626D01*
X36723761Y-55881022D01*
X36720422Y-55894514D01*
X36719530Y-55894423D01*
X36700237Y-55887110D01*
X36668284Y-55871678D01*
X36624124Y-55848842D01*
X36629371Y-55643078D01*
X36629736Y-55629432D01*
X36633904Y-55533651D01*
X36641268Y-55461462D01*
X36653330Y-55408058D01*
X36671593Y-55368633D01*
X36697560Y-55338380D01*
X36732733Y-55312493D01*
X36733384Y-55312087D01*
X36790256Y-55290968D01*
X36856033Y-55287400D01*
X36919483Y-55300569D01*
G37*
X36919483Y-55300569D02*
X36969376Y-55329661D01*
X36991325Y-55352327D01*
X37033504Y-55420082D01*
X37047714Y-55493950D01*
X37047714Y-55544770D01*
X37000999Y-55525128D01*
X36968692Y-55505308D01*
X36943231Y-55464160D01*
X36940616Y-55455675D01*
X36912478Y-55412451D01*
X36870067Y-55389103D01*
X36821370Y-55388100D01*
X36774373Y-55411914D01*
X36767357Y-55418056D01*
X36743893Y-55444745D01*
X36740019Y-55468014D01*
X36757768Y-55490862D01*
X36799179Y-55516287D01*
X36866286Y-55547288D01*
X36870824Y-55549252D01*
X36945322Y-55583990D01*
X36996203Y-55614763D01*
X37027525Y-55645488D01*
X37043343Y-55680082D01*
X37047714Y-55722462D01*
X37041986Y-55769446D01*
X37013062Y-55829585D01*
X36962178Y-55872788D01*
X36925374Y-55885759D01*
X36873434Y-55892856D01*
X36822999Y-55891340D01*
X36786983Y-55880632D01*
X36783158Y-55877966D01*
X36772998Y-55859337D01*
X36780048Y-55826505D01*
X36792297Y-55800735D01*
X36811939Y-55790006D01*
X36849191Y-55790539D01*
X36900908Y-55787462D01*
X36934701Y-55766212D01*
X36946114Y-55726877D01*
X36946104Y-55725747D01*
X36939187Y-55702913D01*
X36915659Y-55681963D01*
X36869914Y-55657815D01*
X36807704Y-55628741D01*
X36766499Y-55612925D01*
X36742712Y-55613944D01*
X36731597Y-55634837D01*
X36728408Y-55678641D01*
X36728400Y-55748393D01*
X36728044Y-55791452D01*
X36726413Y-55844626D01*
X36723761Y-55881022D01*
X36720422Y-55894514D01*
X36719530Y-55894423D01*
X36700237Y-55887110D01*
X36668284Y-55871678D01*
X36624124Y-55848842D01*
X36629371Y-55643078D01*
X36629736Y-55629432D01*
X36633904Y-55533651D01*
X36641268Y-55461462D01*
X36653330Y-55408058D01*
X36671593Y-55368633D01*
X36697560Y-55338380D01*
X36732733Y-55312493D01*
X36733384Y-55312087D01*
X36790256Y-55290968D01*
X36856033Y-55287400D01*
X36919483Y-55300569D01*
G36*
X38987684Y-55644078D02*
G01*
X38985078Y-55667387D01*
X38965660Y-55750352D01*
X38930573Y-55813448D01*
X38877212Y-55861808D01*
X38874196Y-55863804D01*
X38806362Y-55892185D01*
X38735535Y-55894711D01*
X38667289Y-55873097D01*
X38607196Y-55829062D01*
X38560829Y-55764322D01*
X38560050Y-55762761D01*
X38544643Y-55722558D01*
X38533357Y-55676866D01*
X38527370Y-55633972D01*
X38527861Y-55602160D01*
X38536007Y-55589714D01*
X38543244Y-55590471D01*
X38577851Y-55604235D01*
X38617078Y-55629546D01*
X38650448Y-55658845D01*
X38667483Y-55684572D01*
X38685192Y-55719471D01*
X38721485Y-55751212D01*
X38763630Y-55763886D01*
X38779077Y-55760221D01*
X38809569Y-55741774D01*
X38836128Y-55716166D01*
X38847486Y-55692934D01*
X38847482Y-55692848D01*
X38834596Y-55682179D01*
X38800241Y-55662933D01*
X38749593Y-55637813D01*
X38687829Y-55609524D01*
X38687489Y-55609374D01*
X38620388Y-55579498D01*
X38575411Y-55557973D01*
X38548145Y-55541437D01*
X38534178Y-55526531D01*
X38529097Y-55509893D01*
X38528490Y-55488162D01*
X38532712Y-55447013D01*
X38676000Y-55447013D01*
X38690791Y-55459949D01*
X38727644Y-55479333D01*
X38728725Y-55479881D01*
X38772205Y-55500587D01*
X38811102Y-55517105D01*
X38835778Y-55524093D01*
X38845676Y-55514753D01*
X38847486Y-55482748D01*
X38839966Y-55442915D01*
X38813897Y-55406717D01*
X38776154Y-55387950D01*
X38734077Y-55389845D01*
X38695005Y-55415632D01*
X38679647Y-55433451D01*
X38676000Y-55447013D01*
X38532712Y-55447013D01*
X38533833Y-55436086D01*
X38560251Y-55365335D01*
X38604473Y-55309735D01*
X38661697Y-55271239D01*
X38727120Y-55251797D01*
X38795937Y-55253359D01*
X38863347Y-55277878D01*
X38924544Y-55327302D01*
X38958450Y-55376212D01*
X38982806Y-55446027D01*
X38986767Y-55482748D01*
X38992299Y-55534055D01*
X38987684Y-55644078D01*
G37*
X38987684Y-55644078D02*
X38985078Y-55667387D01*
X38965660Y-55750352D01*
X38930573Y-55813448D01*
X38877212Y-55861808D01*
X38874196Y-55863804D01*
X38806362Y-55892185D01*
X38735535Y-55894711D01*
X38667289Y-55873097D01*
X38607196Y-55829062D01*
X38560829Y-55764322D01*
X38560050Y-55762761D01*
X38544643Y-55722558D01*
X38533357Y-55676866D01*
X38527370Y-55633972D01*
X38527861Y-55602160D01*
X38536007Y-55589714D01*
X38543244Y-55590471D01*
X38577851Y-55604235D01*
X38617078Y-55629546D01*
X38650448Y-55658845D01*
X38667483Y-55684572D01*
X38685192Y-55719471D01*
X38721485Y-55751212D01*
X38763630Y-55763886D01*
X38779077Y-55760221D01*
X38809569Y-55741774D01*
X38836128Y-55716166D01*
X38847486Y-55692934D01*
X38847482Y-55692848D01*
X38834596Y-55682179D01*
X38800241Y-55662933D01*
X38749593Y-55637813D01*
X38687829Y-55609524D01*
X38687489Y-55609374D01*
X38620388Y-55579498D01*
X38575411Y-55557973D01*
X38548145Y-55541437D01*
X38534178Y-55526531D01*
X38529097Y-55509893D01*
X38528490Y-55488162D01*
X38532712Y-55447013D01*
X38676000Y-55447013D01*
X38690791Y-55459949D01*
X38727644Y-55479333D01*
X38728725Y-55479881D01*
X38772205Y-55500587D01*
X38811102Y-55517105D01*
X38835778Y-55524093D01*
X38845676Y-55514753D01*
X38847486Y-55482748D01*
X38839966Y-55442915D01*
X38813897Y-55406717D01*
X38776154Y-55387950D01*
X38734077Y-55389845D01*
X38695005Y-55415632D01*
X38679647Y-55433451D01*
X38676000Y-55447013D01*
X38532712Y-55447013D01*
X38533833Y-55436086D01*
X38560251Y-55365335D01*
X38604473Y-55309735D01*
X38661697Y-55271239D01*
X38727120Y-55251797D01*
X38795937Y-55253359D01*
X38863347Y-55277878D01*
X38924544Y-55327302D01*
X38958450Y-55376212D01*
X38982806Y-55446027D01*
X38986767Y-55482748D01*
X38992299Y-55534055D01*
X38987684Y-55644078D01*
%TO.C,kibuzzard-65AAA49E*%
G36*
X29666849Y-85823425D02*
G01*
X33475435Y-85823425D01*
X33833151Y-86360000D01*
X33475435Y-86896575D01*
X29666849Y-86896575D01*
X29666849Y-86688613D01*
X30561420Y-86688613D01*
X30658575Y-86688613D01*
X30658575Y-86407625D01*
X30666314Y-86354285D01*
X30689531Y-86316185D01*
X30724893Y-86293325D01*
X30769065Y-86285705D01*
X30816690Y-86293801D01*
X30854790Y-86318090D01*
X30879793Y-86358571D01*
X30888127Y-86415245D01*
X30888127Y-86688613D01*
X30985282Y-86688613D01*
X31129110Y-86688613D01*
X31562497Y-86688613D01*
X31562497Y-86600030D01*
X31394857Y-86600030D01*
X31394857Y-86529545D01*
X32262585Y-86529545D01*
X32287469Y-86598839D01*
X32335451Y-86652418D01*
X32378366Y-86677818D01*
X32427738Y-86693058D01*
X32483565Y-86698138D01*
X32550663Y-86690465D01*
X32555312Y-86688613D01*
X32843610Y-86688613D01*
X33276997Y-86688613D01*
X33276997Y-86600030D01*
X33109357Y-86600030D01*
X33109357Y-86110445D01*
X33272235Y-86110445D01*
X33272235Y-86021862D01*
X32848372Y-86021862D01*
X32848372Y-86110445D01*
X33009345Y-86110445D01*
X33009345Y-86600030D01*
X32843610Y-86600030D01*
X32843610Y-86688613D01*
X32555312Y-86688613D01*
X32608448Y-86667446D01*
X32656920Y-86629081D01*
X32693432Y-86578863D01*
X32715340Y-86520285D01*
X32722642Y-86453345D01*
X32715128Y-86384659D01*
X32692586Y-86324652D01*
X32655015Y-86273323D01*
X32606014Y-86234164D01*
X32549181Y-86210669D01*
X32484517Y-86202838D01*
X32430595Y-86207970D01*
X32381859Y-86223369D01*
X32338308Y-86249034D01*
X32302907Y-86283906D01*
X32278618Y-86326927D01*
X32265442Y-86378098D01*
X32363550Y-86378098D01*
X32377956Y-86341545D01*
X32404031Y-86311899D01*
X32440107Y-86292253D01*
X32484517Y-86285705D01*
X32540834Y-86297492D01*
X32585958Y-86332854D01*
X32615605Y-86386551D01*
X32625487Y-86453345D01*
X32615843Y-86517639D01*
X32586911Y-86569550D01*
X32541786Y-86603840D01*
X32483565Y-86615270D01*
X32439869Y-86609555D01*
X32404031Y-86592410D01*
X32377242Y-86565264D01*
X32360692Y-86529545D01*
X32262585Y-86529545D01*
X31394857Y-86529545D01*
X31394857Y-86110445D01*
X31557735Y-86110445D01*
X31557735Y-86021862D01*
X31133872Y-86021862D01*
X31133872Y-86110445D01*
X31294845Y-86110445D01*
X31294845Y-86600030D01*
X31129110Y-86600030D01*
X31129110Y-86688613D01*
X30985282Y-86688613D01*
X30985282Y-86212363D01*
X30897652Y-86212363D01*
X30888127Y-86271418D01*
X30881460Y-86271418D01*
X30844312Y-86233317D01*
X30796370Y-86210458D01*
X30737632Y-86202838D01*
X30665599Y-86215220D01*
X30609521Y-86252368D01*
X30573445Y-86311661D01*
X30561420Y-86390480D01*
X30561420Y-86688613D01*
X29666849Y-86688613D01*
X29666849Y-85823425D01*
G37*
%TO.C,kibuzzard-65FC58C1*%
G36*
X31984852Y-58204259D02*
G01*
X32025571Y-58247121D01*
X32045150Y-58291783D01*
X32056898Y-58349568D01*
X32060813Y-58420476D01*
X32058432Y-58476436D01*
X32051288Y-58522394D01*
X31842691Y-58245216D01*
X31881982Y-58203782D01*
X31933178Y-58189971D01*
X31984852Y-58204259D01*
G37*
G36*
X33121541Y-58195091D02*
G01*
X33157617Y-58221880D01*
X33180834Y-58261766D01*
X33188573Y-58309986D01*
X33180953Y-58357016D01*
X33158093Y-58395235D01*
X33122137Y-58420595D01*
X33075226Y-58429049D01*
X33028911Y-58420476D01*
X32992835Y-58394759D01*
X32969618Y-58356421D01*
X32961878Y-58309986D01*
X32969737Y-58261766D01*
X32993311Y-58221880D01*
X33029506Y-58195091D01*
X33075226Y-58186161D01*
X33121541Y-58195091D01*
G37*
G36*
X29674627Y-57906761D02*
G01*
X33483213Y-57906761D01*
X33825373Y-58420000D01*
X33483213Y-58933239D01*
X29674627Y-58933239D01*
X29674627Y-58421429D01*
X31704578Y-58421429D01*
X31708418Y-58494295D01*
X31719938Y-58557636D01*
X31739136Y-58611452D01*
X31766015Y-58655744D01*
X31811893Y-58699665D01*
X31867615Y-58726017D01*
X31933178Y-58734801D01*
X31998901Y-58725911D01*
X32055098Y-58699241D01*
X32101771Y-58654791D01*
X32129274Y-58610083D01*
X32148920Y-58555969D01*
X32160707Y-58492450D01*
X32164636Y-58419524D01*
X32160707Y-58347402D01*
X32148920Y-58284388D01*
X32136032Y-58249026D01*
X32266553Y-58249026D01*
X32446576Y-58725276D01*
X32564686Y-58725276D01*
X32720325Y-58315701D01*
X32862818Y-58315701D01*
X32867819Y-58371303D01*
X32882821Y-58421905D01*
X32906633Y-58471078D01*
X32938066Y-58522394D01*
X33069511Y-58725276D01*
X33189526Y-58725276D01*
X33025696Y-58490009D01*
X33097133Y-58502391D01*
X33171190Y-58488699D01*
X33231436Y-58447622D01*
X33261069Y-58407776D01*
X33278849Y-58361262D01*
X33284776Y-58308081D01*
X33278214Y-58252095D01*
X33258529Y-58203518D01*
X33225721Y-58162349D01*
X33182647Y-58131128D01*
X33132164Y-58112395D01*
X33074273Y-58106151D01*
X33015377Y-58112554D01*
X32964418Y-58131763D01*
X32921397Y-58163778D01*
X32888853Y-58206270D01*
X32869327Y-58256911D01*
X32862818Y-58315701D01*
X32720325Y-58315701D01*
X32745661Y-58249026D01*
X32645648Y-58249026D01*
X32508488Y-58624311D01*
X32501821Y-58624311D01*
X32365613Y-58249026D01*
X32266553Y-58249026D01*
X32136032Y-58249026D01*
X32129274Y-58230482D01*
X32101771Y-58185685D01*
X32055098Y-58140970D01*
X31998901Y-58114142D01*
X31933178Y-58105199D01*
X31867615Y-58114142D01*
X31811893Y-58140970D01*
X31766015Y-58185685D01*
X31739136Y-58230601D01*
X31719938Y-58284864D01*
X31708418Y-58348473D01*
X31704578Y-58421429D01*
X29674627Y-58421429D01*
X29674627Y-57906761D01*
G37*
G36*
X32024618Y-58595736D02*
G01*
X31985090Y-58636456D01*
X31933178Y-58650029D01*
X31881624Y-58635741D01*
X31841262Y-58592879D01*
X31821948Y-58548323D01*
X31810359Y-58490855D01*
X31806496Y-58420476D01*
X31808877Y-58367136D01*
X31816021Y-58317606D01*
X32024618Y-58595736D01*
G37*
%TO.C,kibuzzard-65AAA3BE*%
G36*
X33538194Y-73634283D02*
G01*
X33420084Y-73634283D01*
X33369006Y-73626663D01*
X33330073Y-73603802D01*
X33305427Y-73568322D01*
X33297211Y-73522840D01*
X33305427Y-73477001D01*
X33330073Y-73442354D01*
X33369006Y-73420565D01*
X33420084Y-73413302D01*
X33538194Y-73413302D01*
X33538194Y-73634283D01*
G37*
G36*
X29665261Y-73660000D02*
G01*
X29708441Y-73595230D01*
X32053246Y-73595230D01*
X32258986Y-73595230D01*
X32258986Y-73993375D01*
X32356141Y-73993375D01*
X32356141Y-73748583D01*
X32626651Y-73748583D01*
X32628556Y-73780015D01*
X32979076Y-73780015D01*
X32966694Y-73838475D01*
X32937166Y-73884314D01*
X32893351Y-73913960D01*
X32838106Y-73923843D01*
X32783179Y-73915693D01*
X32744126Y-73891246D01*
X32720949Y-73850500D01*
X32627604Y-73850500D01*
X32653083Y-73914198D01*
X32699041Y-73962419D01*
X32761906Y-73992780D01*
X32838106Y-74002900D01*
X32902559Y-73995439D01*
X32907741Y-73993375D01*
X33168624Y-73993375D01*
X33276256Y-73993375D01*
X33431514Y-73720960D01*
X33538194Y-73720960D01*
X33538194Y-73993375D01*
X33636301Y-73993375D01*
X33636301Y-73326625D01*
X33406749Y-73326625D01*
X33346953Y-73332446D01*
X33295836Y-73349908D01*
X33253396Y-73379012D01*
X33221646Y-73417747D01*
X33202596Y-73464102D01*
X33196246Y-73518077D01*
X33205414Y-73582252D01*
X33232918Y-73635711D01*
X33276614Y-73676788D01*
X33334359Y-73703815D01*
X33168624Y-73993375D01*
X32907741Y-73993375D01*
X32958756Y-73973055D01*
X33006699Y-73935749D01*
X33043211Y-73886378D01*
X33065119Y-73827799D01*
X33072421Y-73760013D01*
X33065119Y-73688840D01*
X33043211Y-73627721D01*
X33006699Y-73576656D01*
X32959286Y-73538292D01*
X32904676Y-73515273D01*
X32842869Y-73507600D01*
X32784184Y-73514479D01*
X32732591Y-73535117D01*
X32688088Y-73569513D01*
X32653956Y-73616926D01*
X32633478Y-73676616D01*
X32626651Y-73748583D01*
X32356141Y-73748583D01*
X32356141Y-73595230D01*
X32495206Y-73595230D01*
X32495206Y-73517125D01*
X32356141Y-73517125D01*
X32356141Y-73484740D01*
X32343402Y-73410802D01*
X32305183Y-73358534D01*
X32248152Y-73327458D01*
X32178976Y-73317100D01*
X32126113Y-73322339D01*
X32076106Y-73338055D01*
X32095156Y-73409492D01*
X32162784Y-73396157D01*
X32203384Y-73402706D01*
X32233745Y-73422351D01*
X32252676Y-73453427D01*
X32258986Y-73494265D01*
X32258986Y-73517125D01*
X32053246Y-73517125D01*
X32053246Y-73595230D01*
X29708441Y-73595230D01*
X30026153Y-73118663D01*
X33834739Y-73118663D01*
X33834739Y-74201337D01*
X30026153Y-74201337D01*
X29665261Y-73660000D01*
G37*
G36*
X32892161Y-73595587D02*
G01*
X32933356Y-73622376D01*
X32963122Y-73662500D01*
X32978124Y-73711435D01*
X32719996Y-73711435D01*
X32729164Y-73661310D01*
X32754763Y-73621424D01*
X32793696Y-73595349D01*
X32842869Y-73586658D01*
X32892161Y-73595587D01*
G37*
%TO.C,kibuzzard-65AAA3D1*%
G36*
X29665261Y-81280000D02*
G01*
X29708441Y-81215230D01*
X30866431Y-81215230D01*
X31059789Y-81215230D01*
X31059789Y-81444782D01*
X31048253Y-81498757D01*
X31013646Y-81531143D01*
X30955966Y-81541938D01*
X30893101Y-81534317D01*
X30893101Y-81612423D01*
X30935488Y-81620281D01*
X30978826Y-81622900D01*
X31042949Y-81616423D01*
X31050772Y-81613375D01*
X31447456Y-81613375D01*
X31535086Y-81613375D01*
X31544611Y-81554320D01*
X31551279Y-81554320D01*
X31588426Y-81592420D01*
X31636369Y-81615280D01*
X31695106Y-81622900D01*
X31767139Y-81610517D01*
X31823218Y-81573370D01*
X31859294Y-81514077D01*
X31871319Y-81435258D01*
X31871319Y-81280000D01*
X31991334Y-81280000D01*
X31995352Y-81355724D01*
X32007407Y-81422875D01*
X32027499Y-81481454D01*
X32055628Y-81531460D01*
X32103517Y-81582260D01*
X32161461Y-81612740D01*
X32229459Y-81622900D01*
X32294380Y-81613375D01*
X33110521Y-81613375D01*
X33214344Y-81613375D01*
X33264826Y-81439068D01*
X33482949Y-81439068D01*
X33532479Y-81613375D01*
X33636301Y-81613375D01*
X33434371Y-80946625D01*
X33312451Y-80946625D01*
X33110521Y-81613375D01*
X32294380Y-81613375D01*
X32297986Y-81612846D01*
X32356247Y-81582683D01*
X32404243Y-81532413D01*
X32432371Y-81482704D01*
X32452463Y-81424066D01*
X32464518Y-81356498D01*
X32468536Y-81280000D01*
X32464518Y-81204276D01*
X32452463Y-81137125D01*
X32432371Y-81078546D01*
X32404243Y-81028540D01*
X32356247Y-80977740D01*
X32297986Y-80947260D01*
X32229459Y-80937100D01*
X32161461Y-80947260D01*
X32103517Y-80977740D01*
X32055628Y-81028540D01*
X32027499Y-81078546D01*
X32007407Y-81137125D01*
X31995352Y-81204276D01*
X31991334Y-81280000D01*
X31871319Y-81280000D01*
X31871319Y-81137125D01*
X31774164Y-81137125D01*
X31774164Y-81418112D01*
X31766425Y-81471453D01*
X31743208Y-81509553D01*
X31707846Y-81532413D01*
X31663674Y-81540033D01*
X31616049Y-81531936D01*
X31577949Y-81507647D01*
X31552946Y-81467166D01*
X31544611Y-81410492D01*
X31544611Y-81137125D01*
X31447456Y-81137125D01*
X31447456Y-81613375D01*
X31050772Y-81613375D01*
X31092822Y-81596992D01*
X31128445Y-81564607D01*
X31149819Y-81519268D01*
X31156944Y-81460975D01*
X31156944Y-81215230D01*
X31308391Y-81215230D01*
X31308391Y-81137125D01*
X31230286Y-81137125D01*
X31165993Y-81118075D01*
X31147419Y-81051400D01*
X31147419Y-81007585D01*
X31059789Y-81007585D01*
X31059789Y-81137125D01*
X30866431Y-81137125D01*
X30866431Y-81215230D01*
X29708441Y-81215230D01*
X30026153Y-80738663D01*
X33834739Y-80738663D01*
X33834739Y-81821337D01*
X30026153Y-81821337D01*
X29665261Y-81280000D01*
G37*
G36*
X32287323Y-81045566D02*
G01*
X32331376Y-81093786D01*
X32352014Y-81143052D01*
X32364396Y-81205123D01*
X32368524Y-81280000D01*
X32364396Y-81354877D01*
X32352014Y-81416948D01*
X32331376Y-81466214D01*
X32287323Y-81514434D01*
X32229459Y-81530508D01*
X32172309Y-81514434D01*
X32128494Y-81466214D01*
X32107856Y-81416948D01*
X32095474Y-81354877D01*
X32091346Y-81280000D01*
X32095474Y-81205123D01*
X32107856Y-81143052D01*
X32128494Y-81093786D01*
X32172309Y-81045566D01*
X32229459Y-81029492D01*
X32287323Y-81045566D01*
G37*
G36*
X33458184Y-81354295D02*
G01*
X33288639Y-81354295D01*
X33370554Y-81069497D01*
X33377221Y-81069497D01*
X33458184Y-81354295D01*
G37*
%TO.C,G\u002A\u002A\u002A*%
G36*
X38544947Y-97138295D02*
G01*
X38547169Y-97189403D01*
X38549007Y-97250857D01*
X38549286Y-97261358D01*
X38550837Y-97309535D01*
X38552911Y-97362252D01*
X38555422Y-97418129D01*
X38558286Y-97475791D01*
X38561416Y-97533860D01*
X38564729Y-97590957D01*
X38568139Y-97645707D01*
X38571561Y-97696730D01*
X38574910Y-97742651D01*
X38578101Y-97782090D01*
X38581048Y-97813672D01*
X38583667Y-97836018D01*
X38585873Y-97847750D01*
X38586393Y-97848320D01*
X38591348Y-97843991D01*
X38600411Y-97830739D01*
X38612654Y-97810013D01*
X38627150Y-97783263D01*
X38675218Y-97697983D01*
X38733146Y-97611074D01*
X38797800Y-97529914D01*
X38871524Y-97451319D01*
X38898373Y-97425164D01*
X38930831Y-97395391D01*
X38957324Y-97373809D01*
X38978782Y-97359750D01*
X38996136Y-97352543D01*
X39010315Y-97351521D01*
X39016199Y-97351956D01*
X39026706Y-97349477D01*
X39038492Y-97341091D01*
X39054571Y-97324991D01*
X39068045Y-97312184D01*
X39092109Y-97293540D01*
X39115433Y-97279433D01*
X39119439Y-97277490D01*
X39137398Y-97269875D01*
X39154488Y-97265438D01*
X39174990Y-97263368D01*
X39203187Y-97262858D01*
X39208327Y-97262868D01*
X39235129Y-97263584D01*
X39254874Y-97265995D01*
X39271812Y-97270892D01*
X39290194Y-97279068D01*
X39305834Y-97287547D01*
X39327759Y-97302931D01*
X39349565Y-97323186D01*
X39373205Y-97350202D01*
X39400633Y-97385868D01*
X39423073Y-97418159D01*
X39456831Y-97477963D01*
X39480188Y-97538085D01*
X39493992Y-97600476D01*
X39494588Y-97605267D01*
X39496349Y-97625458D01*
X39498300Y-97655079D01*
X39500344Y-97692267D01*
X39502384Y-97735160D01*
X39504321Y-97781894D01*
X39506058Y-97830606D01*
X39507491Y-97871921D01*
X39516506Y-98066087D01*
X39528984Y-98251932D01*
X39544867Y-98429124D01*
X39564099Y-98597329D01*
X39586624Y-98756217D01*
X39612386Y-98905453D01*
X39641329Y-99044707D01*
X39673395Y-99173645D01*
X39708530Y-99291934D01*
X39746676Y-99399243D01*
X39787778Y-99495239D01*
X39790367Y-99500745D01*
X39807485Y-99538699D01*
X39819226Y-99568872D01*
X39826085Y-99593615D01*
X39828560Y-99615278D01*
X39827148Y-99636210D01*
X39822346Y-99658761D01*
X39806667Y-99702034D01*
X39780136Y-99745155D01*
X39745231Y-99780280D01*
X39717819Y-99798565D01*
X39690742Y-99808183D01*
X39666858Y-99806671D01*
X39660955Y-99804364D01*
X39643897Y-99795975D01*
X39621376Y-99783662D01*
X39596068Y-99769024D01*
X39570645Y-99753657D01*
X39547781Y-99739160D01*
X39530151Y-99727131D01*
X39520427Y-99719167D01*
X39518307Y-99716603D01*
X39512820Y-99705557D01*
X39510005Y-99689018D01*
X39509211Y-99663770D01*
X39509474Y-99648196D01*
X39511832Y-99625804D01*
X39517831Y-99605343D01*
X39528896Y-99580802D01*
X39543196Y-99556392D01*
X39563483Y-99530033D01*
X39585871Y-99507214D01*
X39607939Y-99490367D01*
X39627270Y-99481923D01*
X39639059Y-99478087D01*
X39644222Y-99473313D01*
X39644109Y-99472706D01*
X39639467Y-99464484D01*
X39629379Y-99450162D01*
X39615720Y-99432428D01*
X39600053Y-99411835D01*
X39559348Y-99348509D01*
X39520685Y-99273673D01*
X39484135Y-99187569D01*
X39449763Y-99090440D01*
X39417640Y-98982527D01*
X39387833Y-98864072D01*
X39360411Y-98735317D01*
X39335442Y-98596504D01*
X39312993Y-98447875D01*
X39293134Y-98289672D01*
X39291842Y-98278177D01*
X39287497Y-98237369D01*
X39283746Y-98198855D01*
X39280803Y-98165038D01*
X39278881Y-98138324D01*
X39278193Y-98121119D01*
X39279637Y-98094621D01*
X39289268Y-98042601D01*
X39308019Y-97983619D01*
X39335979Y-97917363D01*
X39360636Y-97862134D01*
X39380324Y-97811988D01*
X39394452Y-97767206D01*
X39403641Y-97725471D01*
X39408509Y-97684461D01*
X39409678Y-97641860D01*
X39408640Y-97601647D01*
X39406252Y-97570174D01*
X39402343Y-97548628D01*
X39396724Y-97535975D01*
X39389202Y-97531182D01*
X39384551Y-97530987D01*
X39380498Y-97533602D01*
X39378165Y-97541518D01*
X39376995Y-97556968D01*
X39376426Y-97582186D01*
X39375432Y-97593542D01*
X39372779Y-97623833D01*
X39359637Y-97681922D01*
X39337418Y-97745271D01*
X39306609Y-97813065D01*
X39267694Y-97884489D01*
X39221159Y-97958728D01*
X39167487Y-98034968D01*
X39107165Y-98112394D01*
X39040677Y-98190190D01*
X38968509Y-98267542D01*
X38951049Y-98285536D01*
X38925035Y-98312612D01*
X38902774Y-98336107D01*
X38885432Y-98354776D01*
X38874173Y-98367374D01*
X38870161Y-98372658D01*
X38871275Y-98375740D01*
X38877494Y-98386731D01*
X38887355Y-98401867D01*
X38887692Y-98402360D01*
X38915503Y-98449607D01*
X38940506Y-98504662D01*
X38961062Y-98563431D01*
X38975529Y-98621823D01*
X38978308Y-98640242D01*
X38981453Y-98674952D01*
X38983462Y-98717004D01*
X38984169Y-98763672D01*
X38984170Y-98860376D01*
X39019220Y-98873156D01*
X39035325Y-98879798D01*
X39053603Y-98889323D01*
X39064912Y-98897695D01*
X39066428Y-98899404D01*
X39070231Y-98905144D01*
X39070856Y-98911929D01*
X39067650Y-98922126D01*
X39059962Y-98938102D01*
X39047139Y-98962225D01*
X39045331Y-98965436D01*
X39016085Y-99017367D01*
X38939654Y-99136098D01*
X38853027Y-99250090D01*
X38757132Y-99358338D01*
X38652899Y-99459835D01*
X38541254Y-99553575D01*
X38423126Y-99638553D01*
X38371496Y-99671807D01*
X38236140Y-99750824D01*
X38091808Y-99824297D01*
X37939943Y-99891695D01*
X37799048Y-99945921D01*
X37781988Y-99952487D01*
X37619386Y-100006142D01*
X37453581Y-100052128D01*
X37286014Y-100089914D01*
X37118130Y-100118970D01*
X37019229Y-100133438D01*
X37002378Y-100112996D01*
X36993745Y-100103200D01*
X36978880Y-100088905D01*
X36965032Y-100078121D01*
X36953829Y-100071694D01*
X36946902Y-100070472D01*
X36945882Y-100075300D01*
X36952398Y-100087028D01*
X36954760Y-100091061D01*
X36960226Y-100110976D01*
X36962011Y-100141420D01*
X36962093Y-100150926D01*
X36963481Y-100171447D01*
X36967192Y-100184685D01*
X36974012Y-100194089D01*
X36977310Y-100197445D01*
X36981854Y-100201482D01*
X36987237Y-100204009D01*
X36995303Y-100205020D01*
X37007898Y-100204512D01*
X37026863Y-100202480D01*
X37054043Y-100198921D01*
X37091281Y-100193830D01*
X37237221Y-100170448D01*
X37412474Y-100133460D01*
X37586456Y-100087235D01*
X37757648Y-100032312D01*
X37924529Y-99969227D01*
X38085582Y-99898517D01*
X38239286Y-99820722D01*
X38384123Y-99736378D01*
X38415163Y-99716533D01*
X38535278Y-99630945D01*
X38649167Y-99535424D01*
X38756184Y-99430592D01*
X38855684Y-99317071D01*
X38947019Y-99195482D01*
X38984170Y-99141950D01*
X38984170Y-99208229D01*
X38983789Y-99237175D01*
X38981676Y-99266723D01*
X38976786Y-99291948D01*
X38968095Y-99316388D01*
X38954574Y-99343582D01*
X38935198Y-99377068D01*
X38896390Y-99438982D01*
X38816561Y-99551886D01*
X38728262Y-99660161D01*
X38633118Y-99762005D01*
X38532750Y-99855616D01*
X38428784Y-99939192D01*
X38360708Y-99987350D01*
X38242390Y-100061931D01*
X38115095Y-100132003D01*
X37980368Y-100196933D01*
X37839759Y-100256086D01*
X37694815Y-100308828D01*
X37547084Y-100354525D01*
X37398114Y-100392544D01*
X37249453Y-100422251D01*
X37170043Y-100434960D01*
X37094292Y-100445186D01*
X37026081Y-100452349D01*
X36966207Y-100456394D01*
X36915469Y-100457269D01*
X36874664Y-100454919D01*
X36844590Y-100449291D01*
X36843008Y-100448803D01*
X36836046Y-100446301D01*
X36827233Y-100442563D01*
X36816001Y-100437267D01*
X36801784Y-100430094D01*
X36784013Y-100420723D01*
X36762119Y-100408834D01*
X36735536Y-100394107D01*
X36703694Y-100376221D01*
X36666027Y-100354856D01*
X36621966Y-100329692D01*
X36570943Y-100300409D01*
X36512391Y-100266685D01*
X36445740Y-100228202D01*
X36370425Y-100184638D01*
X36285875Y-100135673D01*
X36191525Y-100080987D01*
X36156722Y-100060821D01*
X36098725Y-100027269D01*
X36088430Y-100021326D01*
X37088021Y-100021326D01*
X37089948Y-100032737D01*
X37095521Y-100037562D01*
X37095745Y-100037545D01*
X37108260Y-100035619D01*
X37130312Y-100031260D01*
X37159864Y-100024938D01*
X37194877Y-100017121D01*
X37233314Y-100008277D01*
X37273137Y-99998875D01*
X37312308Y-99989385D01*
X37348790Y-99980274D01*
X37380544Y-99972011D01*
X37478051Y-99945921D01*
X37478034Y-99924940D01*
X37520055Y-99924940D01*
X37520155Y-99926159D01*
X37522206Y-99928685D01*
X37528043Y-99928926D01*
X37539158Y-99926496D01*
X37557039Y-99921010D01*
X37583177Y-99912081D01*
X37619062Y-99899326D01*
X37629628Y-99895537D01*
X37661342Y-99884163D01*
X37690243Y-99873799D01*
X37713504Y-99865459D01*
X37728297Y-99860158D01*
X37753525Y-99851121D01*
X37754914Y-99822132D01*
X37802726Y-99822132D01*
X37804646Y-99827873D01*
X37806226Y-99827519D01*
X37817147Y-99823425D01*
X37836021Y-99815476D01*
X37860711Y-99804589D01*
X37889084Y-99791678D01*
X37894515Y-99789172D01*
X37926274Y-99774541D01*
X37956891Y-99760473D01*
X37983114Y-99748461D01*
X38001695Y-99739996D01*
X38017309Y-99732254D01*
X38033084Y-99721129D01*
X38039901Y-99709976D01*
X38039985Y-99709617D01*
X38041116Y-99697658D01*
X38041285Y-99690811D01*
X38079407Y-99690811D01*
X38081832Y-99696018D01*
X38082300Y-99695958D01*
X38091092Y-99692211D01*
X38107930Y-99683427D01*
X38130901Y-99670711D01*
X38158090Y-99655170D01*
X38187586Y-99637909D01*
X38217473Y-99620032D01*
X38245840Y-99602646D01*
X38270772Y-99586857D01*
X38322434Y-99553395D01*
X38325156Y-99525164D01*
X38361301Y-99525164D01*
X38361435Y-99525198D01*
X38367539Y-99521776D01*
X38381104Y-99512524D01*
X38400257Y-99498756D01*
X38423126Y-99481786D01*
X38429186Y-99477211D01*
X38553933Y-99375669D01*
X38669173Y-99267094D01*
X38775557Y-99150830D01*
X38873736Y-99026219D01*
X38918165Y-98965436D01*
X38918119Y-98924211D01*
X38918044Y-98916508D01*
X38914961Y-98871555D01*
X38907063Y-98823416D01*
X38893935Y-98770362D01*
X38875160Y-98710665D01*
X38850323Y-98642596D01*
X38843964Y-98626633D01*
X38827947Y-98589691D01*
X38809246Y-98549924D01*
X38788808Y-98509054D01*
X38767578Y-98468804D01*
X38746504Y-98430899D01*
X38726531Y-98397061D01*
X38708604Y-98369014D01*
X38693671Y-98348483D01*
X38682677Y-98337189D01*
X38677115Y-98333551D01*
X38668454Y-98331472D01*
X38659437Y-98337583D01*
X38656735Y-98340587D01*
X38652231Y-98348916D01*
X38648134Y-98361838D01*
X38644297Y-98380409D01*
X38640576Y-98405685D01*
X38636825Y-98438723D01*
X38632897Y-98480578D01*
X38628647Y-98532306D01*
X38626035Y-98567007D01*
X38623930Y-98594963D01*
X38622887Y-98609188D01*
X38616542Y-98692211D01*
X38610361Y-98766421D01*
X38609144Y-98779626D01*
X38604081Y-98834563D01*
X38597436Y-98899377D01*
X38590162Y-98963608D01*
X38581995Y-99029997D01*
X38579654Y-99048484D01*
X38575864Y-99078795D01*
X38572803Y-99103780D01*
X38570738Y-99121248D01*
X38569937Y-99129005D01*
X38569901Y-99129195D01*
X38566960Y-99125482D01*
X38559991Y-99112931D01*
X38549972Y-99093376D01*
X38537877Y-99068656D01*
X38532695Y-99058024D01*
X38519987Y-99032899D01*
X38505848Y-99005897D01*
X38491427Y-98979111D01*
X38477876Y-98954634D01*
X38466345Y-98934560D01*
X38457984Y-98920980D01*
X38453944Y-98915988D01*
X38453790Y-98916353D01*
X38453137Y-98924014D01*
X38452613Y-98938490D01*
X38451923Y-98946450D01*
X38448546Y-98966972D01*
X38443037Y-98993071D01*
X38436145Y-99020997D01*
X38431427Y-99039115D01*
X38425021Y-99065444D01*
X38419190Y-99092175D01*
X38413660Y-99120955D01*
X38408157Y-99153430D01*
X38402407Y-99191247D01*
X38396138Y-99236050D01*
X38389076Y-99289487D01*
X38380947Y-99353203D01*
X38379780Y-99362481D01*
X38374450Y-99405504D01*
X38369790Y-99444178D01*
X38367449Y-99464295D01*
X38365972Y-99476991D01*
X38363170Y-99502434D01*
X38361555Y-99518995D01*
X38361301Y-99525164D01*
X38325156Y-99525164D01*
X38326405Y-99512213D01*
X38327400Y-99464295D01*
X38319866Y-99401554D01*
X38303094Y-99333594D01*
X38277340Y-99261413D01*
X38242860Y-99186010D01*
X38232026Y-99165047D01*
X38217019Y-99137299D01*
X38202366Y-99111448D01*
X38189115Y-99089238D01*
X38178315Y-99072413D01*
X38171014Y-99062717D01*
X38168259Y-99061894D01*
X38169284Y-99066793D01*
X38174163Y-99078108D01*
X38175520Y-99081680D01*
X38176038Y-99093885D01*
X38172656Y-99113209D01*
X38165084Y-99141659D01*
X38161432Y-99154496D01*
X38152619Y-99187953D01*
X38144604Y-99222724D01*
X38137073Y-99260583D01*
X38129712Y-99303301D01*
X38122207Y-99352652D01*
X38114246Y-99410410D01*
X38105513Y-99478346D01*
X38104959Y-99482770D01*
X38099305Y-99527620D01*
X38093968Y-99569528D01*
X38089180Y-99606699D01*
X38085173Y-99637340D01*
X38082180Y-99659659D01*
X38080433Y-99671861D01*
X38079786Y-99676725D01*
X38079653Y-99677723D01*
X38079407Y-99690811D01*
X38041285Y-99690811D01*
X38041633Y-99676725D01*
X38041509Y-99649668D01*
X38040720Y-99619335D01*
X38040476Y-99612843D01*
X38038810Y-99580097D01*
X38036237Y-99554419D01*
X38032007Y-99531585D01*
X38025371Y-99507373D01*
X38015581Y-99477559D01*
X38015251Y-99476596D01*
X37999598Y-99434950D01*
X37980203Y-99389372D01*
X37958865Y-99343718D01*
X37937385Y-99301843D01*
X37917564Y-99267605D01*
X37902158Y-99243200D01*
X37891172Y-99269067D01*
X37889986Y-99272078D01*
X37884286Y-99290073D01*
X37877324Y-99316062D01*
X37869874Y-99347035D01*
X37862706Y-99379982D01*
X37859893Y-99393786D01*
X37855173Y-99417738D01*
X37850836Y-99441185D01*
X37846653Y-99465679D01*
X37842391Y-99492773D01*
X37837820Y-99524018D01*
X37832707Y-99560967D01*
X37826823Y-99605171D01*
X37819935Y-99658182D01*
X37811812Y-99721552D01*
X37810161Y-99734681D01*
X37805482Y-99775571D01*
X37803633Y-99797319D01*
X37803004Y-99804710D01*
X37802726Y-99822132D01*
X37754914Y-99822132D01*
X37755299Y-99814088D01*
X37755640Y-99797319D01*
X37754835Y-99766640D01*
X37752656Y-99738317D01*
X37752154Y-99734224D01*
X37743930Y-99692235D01*
X37729859Y-99643552D01*
X37710997Y-99590915D01*
X37688402Y-99537064D01*
X37663130Y-99484737D01*
X37636239Y-99436672D01*
X37630629Y-99427486D01*
X37621153Y-99412865D01*
X37615398Y-99406714D01*
X37611712Y-99407721D01*
X37608444Y-99414573D01*
X37605589Y-99422465D01*
X37597374Y-99448950D01*
X37588161Y-99482810D01*
X37578746Y-99520885D01*
X37569925Y-99560016D01*
X37562492Y-99597042D01*
X37560023Y-99611532D01*
X37556030Y-99637603D01*
X37551325Y-99670341D01*
X37546174Y-99707685D01*
X37540845Y-99747574D01*
X37535604Y-99787947D01*
X37530717Y-99826743D01*
X37526453Y-99861901D01*
X37523076Y-99891361D01*
X37520854Y-99913061D01*
X37520055Y-99924940D01*
X37478034Y-99924940D01*
X37478016Y-99903492D01*
X37473879Y-99839309D01*
X37460598Y-99764578D01*
X37438680Y-99685479D01*
X37408653Y-99603442D01*
X37371046Y-99519900D01*
X37326386Y-99436283D01*
X37275202Y-99354023D01*
X37254819Y-99324021D01*
X37378491Y-99324021D01*
X37379992Y-99328145D01*
X37385599Y-99342450D01*
X37394419Y-99364430D01*
X37405610Y-99391988D01*
X37418328Y-99423028D01*
X37426812Y-99443567D01*
X37438471Y-99471504D01*
X37448036Y-99494075D01*
X37454693Y-99509364D01*
X37457627Y-99515458D01*
X37458586Y-99515681D01*
X37463310Y-99509663D01*
X37469997Y-99495662D01*
X37477637Y-99476349D01*
X37485223Y-99454395D01*
X37491748Y-99432472D01*
X37496201Y-99413249D01*
X37497650Y-99403885D01*
X37500081Y-99381029D01*
X37502003Y-99353916D01*
X37503335Y-99325249D01*
X37503996Y-99297732D01*
X37503905Y-99274066D01*
X37502979Y-99256955D01*
X37501139Y-99249100D01*
X37495294Y-99250439D01*
X37481150Y-99256779D01*
X37460913Y-99267116D01*
X37436750Y-99280398D01*
X37414110Y-99293617D01*
X37392783Y-99307492D01*
X37381153Y-99317445D01*
X37378491Y-99324021D01*
X37254819Y-99324021D01*
X37254807Y-99324004D01*
X37229863Y-99289267D01*
X37209604Y-99264207D01*
X37193359Y-99248339D01*
X37180460Y-99241178D01*
X37170238Y-99242241D01*
X37162024Y-99251042D01*
X37155149Y-99267098D01*
X37154558Y-99269239D01*
X37151995Y-99284603D01*
X37149058Y-99310265D01*
X37145863Y-99344881D01*
X37142527Y-99387110D01*
X37139167Y-99435609D01*
X37135898Y-99489034D01*
X37134379Y-99515108D01*
X37129131Y-99598903D01*
X37128175Y-99612291D01*
X37123773Y-99673906D01*
X37118088Y-99742608D01*
X37111858Y-99807500D01*
X37104864Y-99871073D01*
X37096891Y-99935819D01*
X37093842Y-99960480D01*
X37090827Y-99987379D01*
X37088777Y-100008716D01*
X37088021Y-100021326D01*
X36088430Y-100021326D01*
X36044265Y-99995830D01*
X35994198Y-99966994D01*
X35949378Y-99941250D01*
X35910660Y-99919089D01*
X35878899Y-99901000D01*
X35854948Y-99887473D01*
X35839664Y-99878998D01*
X35833900Y-99876064D01*
X35833144Y-99880009D01*
X35834056Y-99893593D01*
X35836690Y-99914576D01*
X35840793Y-99940569D01*
X35846496Y-99975871D01*
X35853899Y-100026371D01*
X35861641Y-100083522D01*
X35869348Y-100144445D01*
X35876645Y-100206262D01*
X35883157Y-100266095D01*
X35884689Y-100283803D01*
X35886877Y-100322577D01*
X35888589Y-100372330D01*
X35889810Y-100432428D01*
X35890525Y-100502236D01*
X35890719Y-100581120D01*
X35890529Y-100642510D01*
X35889832Y-100709277D01*
X35888467Y-100767621D01*
X35886265Y-100819516D01*
X35883059Y-100866941D01*
X35878681Y-100911870D01*
X35872963Y-100956281D01*
X35865736Y-101002148D01*
X35856834Y-101051450D01*
X35846087Y-101106161D01*
X35836063Y-101152640D01*
X35815104Y-101235673D01*
X35790849Y-101316984D01*
X35764033Y-101394521D01*
X35735389Y-101466227D01*
X35705650Y-101530048D01*
X35675550Y-101583928D01*
X35660147Y-101608660D01*
X35692856Y-101630378D01*
X35699197Y-101634668D01*
X35722891Y-101653364D01*
X35737449Y-101671555D01*
X35744655Y-101692169D01*
X35746293Y-101718136D01*
X35745463Y-101731013D01*
X35735982Y-101771899D01*
X35717399Y-101812197D01*
X35691458Y-101848671D01*
X35659908Y-101878089D01*
X35656688Y-101880417D01*
X35637391Y-101892166D01*
X35619008Y-101898143D01*
X35599430Y-101898072D01*
X35576546Y-101891678D01*
X35548246Y-101878684D01*
X35512419Y-101858815D01*
X35502782Y-101853195D01*
X35477113Y-101837753D01*
X35459605Y-101826015D01*
X35448400Y-101816473D01*
X35441641Y-101807620D01*
X35437472Y-101797946D01*
X35432199Y-101765358D01*
X35435954Y-101728088D01*
X35448064Y-101689717D01*
X35467481Y-101652722D01*
X35493160Y-101619583D01*
X35524055Y-101592779D01*
X35528188Y-101589917D01*
X35537112Y-101583076D01*
X35543805Y-101575617D01*
X35549274Y-101565330D01*
X35554525Y-101550006D01*
X35560565Y-101527432D01*
X35568400Y-101495400D01*
X35589445Y-101404050D01*
X35614100Y-101280364D01*
X35633032Y-101160523D01*
X35646567Y-101041504D01*
X35655028Y-100920281D01*
X35658739Y-100793830D01*
X35658025Y-100659126D01*
X35657560Y-100637705D01*
X35655184Y-100558445D01*
X35651730Y-100483004D01*
X35647000Y-100409442D01*
X35640797Y-100335819D01*
X35632925Y-100260195D01*
X35623186Y-100180628D01*
X35611383Y-100095179D01*
X35597319Y-100001908D01*
X35580797Y-99898873D01*
X35549581Y-99708665D01*
X35289140Y-99557925D01*
X35277468Y-99551174D01*
X35227100Y-99522165D01*
X35180132Y-99495305D01*
X35137558Y-99471150D01*
X35100373Y-99450257D01*
X35069574Y-99433183D01*
X35046156Y-99420485D01*
X35031114Y-99412720D01*
X35025443Y-99410443D01*
X35025116Y-99414052D01*
X35026175Y-99427872D01*
X35028798Y-99450057D01*
X35032739Y-99478569D01*
X35037747Y-99511372D01*
X35048984Y-99583792D01*
X35059602Y-99657971D01*
X35068108Y-99725832D01*
X35074761Y-99790252D01*
X35079819Y-99854109D01*
X35083541Y-99920280D01*
X35086185Y-99991645D01*
X35088009Y-100071079D01*
X35088963Y-100147284D01*
X35088825Y-100222467D01*
X35087318Y-100290169D01*
X35084326Y-100352738D01*
X35079735Y-100412521D01*
X35073429Y-100471864D01*
X35065292Y-100533116D01*
X35050293Y-100624474D01*
X35026611Y-100736937D01*
X34998224Y-100843597D01*
X34965573Y-100942993D01*
X34929099Y-101033670D01*
X34889245Y-101114169D01*
X34857760Y-101171154D01*
X34893362Y-101196261D01*
X34902821Y-101203176D01*
X34925757Y-101223892D01*
X34938867Y-101244844D01*
X34943432Y-101268798D01*
X34940732Y-101298519D01*
X34937813Y-101311744D01*
X34929106Y-101339861D01*
X34918593Y-101365080D01*
X34909186Y-101381287D01*
X34889237Y-101407453D01*
X34865865Y-101431294D01*
X34841964Y-101449991D01*
X34820429Y-101460722D01*
X34816371Y-101461857D01*
X34804454Y-101463794D01*
X34791967Y-101462821D01*
X34776998Y-101458233D01*
X34757632Y-101449328D01*
X34731958Y-101435403D01*
X34698061Y-101415755D01*
X34685976Y-101408535D01*
X34660555Y-101391842D01*
X34643712Y-101377107D01*
X34633765Y-101362088D01*
X34629031Y-101344544D01*
X34627827Y-101322236D01*
X34629788Y-101299568D01*
X34640897Y-101260246D01*
X34660315Y-101221371D01*
X34686322Y-101186110D01*
X34717198Y-101157632D01*
X34745031Y-101137200D01*
X34764383Y-101057175D01*
X34773016Y-101020851D01*
X34797431Y-100908835D01*
X34816896Y-100802281D01*
X34831851Y-100697760D01*
X34842741Y-100591843D01*
X34850006Y-100481100D01*
X34854091Y-100362102D01*
X34854744Y-100322674D01*
X34854781Y-100232825D01*
X34852676Y-100142816D01*
X34848302Y-100051382D01*
X34841532Y-99957258D01*
X34832239Y-99859181D01*
X34820293Y-99755885D01*
X34805569Y-99646106D01*
X34787938Y-99528579D01*
X34767273Y-99402040D01*
X34757392Y-99345301D01*
X35541391Y-99345301D01*
X35542377Y-99347850D01*
X35549470Y-99345510D01*
X35561487Y-99341414D01*
X35596764Y-99337005D01*
X35630474Y-99344187D01*
X35662067Y-99362673D01*
X35690992Y-99392177D01*
X35716698Y-99432413D01*
X35719740Y-99438068D01*
X35730692Y-99456330D01*
X35739870Y-99468606D01*
X35745542Y-99472490D01*
X35751688Y-99465830D01*
X35757320Y-99452656D01*
X35760509Y-99442452D01*
X35772365Y-99415481D01*
X35787904Y-99396683D01*
X35809308Y-99383140D01*
X35817673Y-99379030D01*
X35837781Y-99368219D01*
X35853382Y-99358653D01*
X35863530Y-99352506D01*
X35873598Y-99351000D01*
X35879721Y-99359250D01*
X35883612Y-99378374D01*
X35884454Y-99384260D01*
X35886957Y-99398143D01*
X35888922Y-99404311D01*
X35889201Y-99404438D01*
X35897039Y-99407479D01*
X35914664Y-99414157D01*
X35940845Y-99424010D01*
X35974350Y-99436577D01*
X36013949Y-99451395D01*
X36058410Y-99468002D01*
X36106502Y-99485937D01*
X36142924Y-99499531D01*
X36192050Y-99517988D01*
X36231832Y-99533174D01*
X36263453Y-99545603D01*
X36288095Y-99555790D01*
X36306941Y-99564251D01*
X36321175Y-99571500D01*
X36331977Y-99578053D01*
X36340532Y-99584424D01*
X36348021Y-99591129D01*
X36355020Y-99597807D01*
X36367387Y-99609107D01*
X36372601Y-99612291D01*
X36371653Y-99607592D01*
X36365534Y-99595244D01*
X36361873Y-99588774D01*
X36352603Y-99576278D01*
X36339479Y-99563528D01*
X36320823Y-99549166D01*
X36294954Y-99531835D01*
X36260194Y-99510181D01*
X36245543Y-99501130D01*
X36218842Y-99483623D01*
X36199766Y-99469084D01*
X36186182Y-99455788D01*
X36175956Y-99442008D01*
X36156499Y-99415274D01*
X36116826Y-99376651D01*
X36069519Y-99346875D01*
X36068245Y-99346250D01*
X36046604Y-99336568D01*
X36027107Y-99330566D01*
X36005041Y-99327160D01*
X35975694Y-99325263D01*
X35942509Y-99322028D01*
X35894209Y-99311161D01*
X35841972Y-99292352D01*
X35783881Y-99264998D01*
X35766256Y-99256827D01*
X35749469Y-99251928D01*
X35729482Y-99249632D01*
X35701911Y-99249087D01*
X35682101Y-99249396D01*
X35659243Y-99251261D01*
X35641729Y-99255435D01*
X35625572Y-99262625D01*
X35600843Y-99277829D01*
X35570801Y-99303183D01*
X35549470Y-99330433D01*
X35546513Y-99335521D01*
X35541391Y-99345301D01*
X34757392Y-99345301D01*
X34743446Y-99265224D01*
X34738836Y-99239430D01*
X34480953Y-99090073D01*
X34471324Y-99084498D01*
X34421148Y-99055523D01*
X34374379Y-99028635D01*
X34332013Y-99004399D01*
X34295045Y-98983379D01*
X34264469Y-98966139D01*
X34241281Y-98953243D01*
X34226475Y-98945255D01*
X34221047Y-98942738D01*
X34220916Y-98944102D01*
X34221991Y-98954785D01*
X34224753Y-98974233D01*
X34228886Y-99000311D01*
X34234075Y-99030883D01*
X34240908Y-99071019D01*
X34266451Y-99246690D01*
X34284193Y-99417833D01*
X34294174Y-99583954D01*
X34296434Y-99744562D01*
X34291014Y-99899165D01*
X34277954Y-100047272D01*
X34257294Y-100188388D01*
X34229075Y-100322024D01*
X34193337Y-100447687D01*
X34150120Y-100564884D01*
X34099465Y-100673123D01*
X34097371Y-100677118D01*
X34084250Y-100702264D01*
X34073579Y-100722928D01*
X34066406Y-100737065D01*
X34063782Y-100742631D01*
X34063783Y-100742641D01*
X34068418Y-100746588D01*
X34080390Y-100755371D01*
X34097133Y-100767107D01*
X34101308Y-100770025D01*
X34125473Y-100789897D01*
X34139960Y-100809603D01*
X34146334Y-100832123D01*
X34146164Y-100860440D01*
X34141405Y-100888165D01*
X34128497Y-100925088D01*
X34109562Y-100959456D01*
X34086126Y-100989402D01*
X34059719Y-101013057D01*
X34031869Y-101028555D01*
X34004103Y-101034029D01*
X33996922Y-101033171D01*
X33976453Y-101026670D01*
X33950822Y-101015116D01*
X33922742Y-101000108D01*
X33894926Y-100983243D01*
X33870086Y-100966119D01*
X33850933Y-100950332D01*
X33840180Y-100937481D01*
X33832896Y-100913802D01*
X33832712Y-100882300D01*
X33839981Y-100847802D01*
X33853730Y-100812731D01*
X33872987Y-100779511D01*
X33896778Y-100750566D01*
X33924131Y-100728320D01*
X33931548Y-100723533D01*
X33938746Y-100717706D01*
X33944463Y-100710184D01*
X33949567Y-100698976D01*
X33954925Y-100682090D01*
X33961407Y-100657532D01*
X33969879Y-100623312D01*
X33976799Y-100594691D01*
X34003530Y-100472722D01*
X34024354Y-100355273D01*
X34039818Y-100238360D01*
X34050469Y-100118002D01*
X34056854Y-99990217D01*
X34059152Y-99852633D01*
X34056464Y-99709981D01*
X34048419Y-99565444D01*
X34034857Y-99416156D01*
X34015616Y-99259251D01*
X34012944Y-99240310D01*
X34008053Y-99207246D01*
X34002099Y-99168304D01*
X33995324Y-99124963D01*
X33987972Y-99078699D01*
X33980286Y-99030991D01*
X33972508Y-98983317D01*
X33964882Y-98937154D01*
X33959963Y-98907783D01*
X34737631Y-98907783D01*
X34738497Y-98908034D01*
X34747424Y-98906931D01*
X34762288Y-98903373D01*
X34776867Y-98900844D01*
X34808089Y-98902773D01*
X34839276Y-98912772D01*
X34865855Y-98929681D01*
X34867720Y-98931402D01*
X34881243Y-98946974D01*
X34896577Y-98968523D01*
X34910750Y-98991931D01*
X34914785Y-98999091D01*
X34926558Y-99017932D01*
X34936525Y-99031066D01*
X34942867Y-99035998D01*
X34944511Y-99035579D01*
X34950473Y-99027471D01*
X34954935Y-99011511D01*
X34960266Y-98994011D01*
X34973638Y-98971343D01*
X34991358Y-98953158D01*
X35010422Y-98943158D01*
X35013322Y-98942300D01*
X35029931Y-98934684D01*
X35047010Y-98923720D01*
X35056828Y-98917137D01*
X35068844Y-98914029D01*
X35075592Y-98921508D01*
X35077862Y-98939990D01*
X35078949Y-98950757D01*
X35082455Y-98961323D01*
X35082812Y-98961647D01*
X35091119Y-98965785D01*
X35109212Y-98973494D01*
X35135841Y-98984282D01*
X35169754Y-98997653D01*
X35209701Y-99013114D01*
X35254432Y-99030171D01*
X35302696Y-99048330D01*
X35333691Y-99059931D01*
X35383963Y-99078863D01*
X35424766Y-99094464D01*
X35457279Y-99107247D01*
X35482678Y-99117725D01*
X35502144Y-99126410D01*
X35516852Y-99133815D01*
X35527982Y-99140453D01*
X35536710Y-99146836D01*
X35544215Y-99153479D01*
X35548987Y-99158011D01*
X35562261Y-99170175D01*
X35568349Y-99174336D01*
X35568297Y-99170860D01*
X35563151Y-99160113D01*
X35559904Y-99154257D01*
X35559398Y-99153554D01*
X37658865Y-99153554D01*
X37659452Y-99156760D01*
X37663726Y-99169443D01*
X37665549Y-99174336D01*
X37671385Y-99189996D01*
X37681726Y-99216544D01*
X37694045Y-99247215D01*
X37702790Y-99268623D01*
X37714777Y-99297718D01*
X37714783Y-99297732D01*
X37724834Y-99321840D01*
X37732105Y-99338938D01*
X37735733Y-99346961D01*
X37737942Y-99348474D01*
X37743732Y-99343384D01*
X37751091Y-99330228D01*
X37759100Y-99311284D01*
X37766840Y-99288833D01*
X37773392Y-99265156D01*
X37777837Y-99242530D01*
X37779156Y-99231953D01*
X37781228Y-99207961D01*
X37782744Y-99180682D01*
X37783660Y-99152660D01*
X37783934Y-99126437D01*
X37783524Y-99104557D01*
X37782387Y-99089564D01*
X37780480Y-99084002D01*
X37775046Y-99086558D01*
X37761667Y-99093792D01*
X37742948Y-99104247D01*
X37721448Y-99116456D01*
X37699728Y-99128956D01*
X37680351Y-99140282D01*
X37665876Y-99148970D01*
X37658865Y-99153554D01*
X35559398Y-99153554D01*
X35550642Y-99141390D01*
X35537574Y-99128386D01*
X35519010Y-99113861D01*
X35493255Y-99096431D01*
X35458617Y-99074714D01*
X35443100Y-99065086D01*
X35415046Y-99046730D01*
X35395215Y-99031932D01*
X35381909Y-99019357D01*
X35373429Y-99007667D01*
X35372075Y-99005316D01*
X35361144Y-98990780D01*
X37941357Y-98990780D01*
X37942129Y-98994088D01*
X37946704Y-99006852D01*
X37954682Y-99027452D01*
X37965339Y-99054031D01*
X37977953Y-99084732D01*
X37987136Y-99106891D01*
X37995191Y-99126437D01*
X37999072Y-99135854D01*
X38008862Y-99159801D01*
X38015682Y-99176713D01*
X38018707Y-99184569D01*
X38019025Y-99185407D01*
X38023401Y-99186289D01*
X38030296Y-99177050D01*
X38038976Y-99158944D01*
X38048709Y-99133226D01*
X38054979Y-99109527D01*
X38060728Y-99077409D01*
X38065330Y-99041386D01*
X38068373Y-99005352D01*
X38069449Y-98973202D01*
X38068145Y-98948830D01*
X38066932Y-98940816D01*
X38064188Y-98927322D01*
X38061964Y-98921989D01*
X38061891Y-98922000D01*
X38055687Y-98925095D01*
X38041829Y-98932683D01*
X38022879Y-98943304D01*
X38001396Y-98955497D01*
X37979941Y-98967802D01*
X37961076Y-98978758D01*
X37947361Y-98986904D01*
X37941357Y-98990780D01*
X35361144Y-98990780D01*
X35342045Y-98965383D01*
X35303577Y-98932349D01*
X35258683Y-98907348D01*
X35209374Y-98891516D01*
X35157664Y-98885986D01*
X35136623Y-98884365D01*
X35100513Y-98876967D01*
X35060232Y-98864558D01*
X35019123Y-98848213D01*
X34980529Y-98829008D01*
X34979113Y-98828453D01*
X38236585Y-98828453D01*
X38238164Y-98832123D01*
X38243837Y-98845701D01*
X38252679Y-98867058D01*
X38263851Y-98894164D01*
X38276513Y-98924989D01*
X38284978Y-98945562D01*
X38296447Y-98973202D01*
X38296542Y-98973431D01*
X38305985Y-98995899D01*
X38312502Y-99011063D01*
X38315293Y-99017017D01*
X38316187Y-99017363D01*
X38321476Y-99012243D01*
X38329018Y-98999333D01*
X38337369Y-98981345D01*
X38345087Y-98960992D01*
X38347925Y-98950677D01*
X38352500Y-98927107D01*
X38356802Y-98897617D01*
X38360543Y-98865164D01*
X38363435Y-98832709D01*
X38365191Y-98803210D01*
X38365523Y-98779626D01*
X38364144Y-98764916D01*
X38360173Y-98749093D01*
X38296872Y-98785508D01*
X38295590Y-98786248D01*
X38271713Y-98800681D01*
X38252650Y-98813431D01*
X38240305Y-98823141D01*
X38236585Y-98828453D01*
X34979113Y-98828453D01*
X34942355Y-98814047D01*
X34900875Y-98809093D01*
X34858899Y-98813826D01*
X34818831Y-98827696D01*
X34783077Y-98850155D01*
X34754042Y-98880655D01*
X34747245Y-98890374D01*
X34739759Y-98902331D01*
X34737631Y-98907783D01*
X33959963Y-98907783D01*
X33957651Y-98893981D01*
X33951058Y-98855276D01*
X33945345Y-98822515D01*
X33940757Y-98797178D01*
X33937535Y-98780743D01*
X33935924Y-98774686D01*
X33921014Y-98765376D01*
X33900998Y-98746152D01*
X33889520Y-98725172D01*
X33889403Y-98724749D01*
X33887886Y-98713512D01*
X33886647Y-98692329D01*
X33885684Y-98660906D01*
X33884992Y-98618951D01*
X33884568Y-98566170D01*
X33884409Y-98502271D01*
X33884443Y-98477177D01*
X33942902Y-98477177D01*
X33976290Y-98473731D01*
X33998993Y-98472951D01*
X34034060Y-98479549D01*
X34064705Y-98496570D01*
X34091623Y-98524465D01*
X34115509Y-98563682D01*
X34123132Y-98578628D01*
X34132800Y-98595868D01*
X34139811Y-98604680D01*
X34145596Y-98606635D01*
X34151585Y-98603303D01*
X34156336Y-98596873D01*
X34159790Y-98583115D01*
X34162410Y-98570484D01*
X34172672Y-98551126D01*
X34187865Y-98532971D01*
X34204929Y-98520279D01*
X34208674Y-98518350D01*
X34226954Y-98508286D01*
X34245968Y-98497093D01*
X34260667Y-98489379D01*
X34272742Y-98488247D01*
X34280267Y-98497117D01*
X34285195Y-98516980D01*
X34288800Y-98538615D01*
X34507102Y-98620280D01*
X34510996Y-98621737D01*
X34567102Y-98642815D01*
X34613132Y-98660327D01*
X34650221Y-98674759D01*
X34679506Y-98686601D01*
X34702122Y-98696341D01*
X34719206Y-98704465D01*
X34731893Y-98711463D01*
X34741319Y-98717823D01*
X34748621Y-98724031D01*
X34752736Y-98727900D01*
X34765730Y-98739011D01*
X34770949Y-98740983D01*
X34768417Y-98733802D01*
X34758159Y-98717450D01*
X34749793Y-98708072D01*
X34730498Y-98691836D01*
X34702813Y-98671840D01*
X34668020Y-98649058D01*
X34639140Y-98630532D01*
X34614338Y-98613445D01*
X34596567Y-98599320D01*
X34583963Y-98586659D01*
X34574663Y-98573961D01*
X34547181Y-98538829D01*
X34511242Y-98506705D01*
X34471621Y-98482242D01*
X34471460Y-98482165D01*
X34446667Y-98472425D01*
X34417628Y-98464331D01*
X34388173Y-98458626D01*
X34362134Y-98456052D01*
X34343341Y-98457354D01*
X34331761Y-98456860D01*
X34310969Y-98451793D01*
X34283465Y-98442767D01*
X34251314Y-98430525D01*
X34216582Y-98415804D01*
X34181333Y-98399344D01*
X34156130Y-98389166D01*
X34111800Y-98381016D01*
X34067233Y-98384578D01*
X34023880Y-98399845D01*
X34016749Y-98403493D01*
X33990230Y-98419622D01*
X33970404Y-98437619D01*
X33953132Y-98461064D01*
X33942902Y-98477177D01*
X33884443Y-98477177D01*
X33884510Y-98426960D01*
X33884712Y-98378066D01*
X36548296Y-98378066D01*
X36548351Y-98378403D01*
X36551480Y-98386774D01*
X36558944Y-98404375D01*
X36570097Y-98429751D01*
X36584292Y-98461445D01*
X36600884Y-98497999D01*
X36619226Y-98537959D01*
X36689837Y-98690971D01*
X36963935Y-98732946D01*
X37016415Y-98740983D01*
X37238032Y-98774922D01*
X37238032Y-98797451D01*
X37238108Y-98801551D01*
X37239642Y-98814613D01*
X37242533Y-98819775D01*
X37242903Y-98819663D01*
X37250734Y-98815664D01*
X37267574Y-98806413D01*
X37292268Y-98792564D01*
X37323663Y-98774771D01*
X37360604Y-98753688D01*
X37401935Y-98729969D01*
X37446504Y-98704266D01*
X37645975Y-98588963D01*
X37646020Y-98567007D01*
X37645523Y-98561997D01*
X37641298Y-98546059D01*
X37632558Y-98521916D01*
X37619055Y-98488953D01*
X37600544Y-98446555D01*
X37576777Y-98394106D01*
X37507490Y-98243162D01*
X37525158Y-98223039D01*
X37532982Y-98212582D01*
X37545493Y-98191124D01*
X37555776Y-98168305D01*
X37556062Y-98167539D01*
X37560431Y-98154896D01*
X37563615Y-98142522D01*
X37565762Y-98128373D01*
X37567016Y-98110405D01*
X37567524Y-98086573D01*
X37567434Y-98054833D01*
X37566892Y-98013140D01*
X37565058Y-97892586D01*
X37545373Y-97852635D01*
X37539707Y-97841875D01*
X37509273Y-97799851D01*
X37493841Y-97786294D01*
X37944877Y-97786294D01*
X38027989Y-97834347D01*
X38039210Y-97840834D01*
X38072717Y-97860205D01*
X38112610Y-97883265D01*
X38156047Y-97908372D01*
X38200186Y-97933885D01*
X38242186Y-97958159D01*
X38272118Y-97975437D01*
X38304980Y-97994351D01*
X38333072Y-98010458D01*
X38354990Y-98022957D01*
X38369330Y-98031045D01*
X38374690Y-98033919D01*
X38374734Y-98033871D01*
X38374310Y-98027360D01*
X38372403Y-98011442D01*
X38369302Y-97988374D01*
X38365296Y-97960413D01*
X38365048Y-97958724D01*
X38359481Y-97918946D01*
X38713585Y-97918946D01*
X38722996Y-97941470D01*
X38724966Y-97946098D01*
X38735223Y-97966045D01*
X38746744Y-97979096D01*
X38762918Y-97989311D01*
X38788077Y-97997135D01*
X38821012Y-97995956D01*
X38858098Y-97984240D01*
X38898823Y-97962157D01*
X38942675Y-97929875D01*
X38978817Y-97896091D01*
X39017266Y-97850263D01*
X39050371Y-97799813D01*
X39077103Y-97746828D01*
X39096430Y-97693396D01*
X39107320Y-97641604D01*
X39108745Y-97593542D01*
X39106092Y-97572398D01*
X39096993Y-97542723D01*
X39081289Y-97520984D01*
X39057861Y-97505241D01*
X39053594Y-97503214D01*
X39037214Y-97497078D01*
X39022145Y-97496013D01*
X39002028Y-97499347D01*
X38976033Y-97506589D01*
X38931793Y-97526323D01*
X38889981Y-97553717D01*
X38852153Y-97587097D01*
X38819866Y-97624790D01*
X38794673Y-97665123D01*
X38778132Y-97706421D01*
X38771797Y-97747012D01*
X38771779Y-97762523D01*
X38773482Y-97777624D01*
X38778437Y-97787852D01*
X38787989Y-97797396D01*
X38789774Y-97798878D01*
X38804469Y-97808123D01*
X38817085Y-97811901D01*
X38832443Y-97809562D01*
X38858314Y-97798022D01*
X38885745Y-97778385D01*
X38912768Y-97752384D01*
X38937411Y-97721752D01*
X38957704Y-97688222D01*
X38969169Y-97664415D01*
X38976670Y-97644326D01*
X38980253Y-97625864D01*
X38981170Y-97604567D01*
X38978978Y-97576288D01*
X38971437Y-97556431D01*
X38957653Y-97545221D01*
X38936736Y-97541393D01*
X38915164Y-97540905D01*
X38933166Y-97532663D01*
X38937707Y-97530877D01*
X38957392Y-97526169D01*
X38978860Y-97524149D01*
X39002497Y-97526992D01*
X39025570Y-97538413D01*
X39042096Y-97557483D01*
X39052313Y-97583032D01*
X39056459Y-97613894D01*
X39054774Y-97648897D01*
X39047496Y-97686876D01*
X39034863Y-97726660D01*
X39017113Y-97767081D01*
X38994487Y-97806971D01*
X38967221Y-97845161D01*
X38935555Y-97880482D01*
X38899727Y-97911767D01*
X38890249Y-97918898D01*
X38860191Y-97939489D01*
X38834876Y-97952734D01*
X38811671Y-97959815D01*
X38787943Y-97961913D01*
X38779875Y-97961821D01*
X38762619Y-97959837D01*
X38749589Y-97953480D01*
X38735068Y-97940430D01*
X38713585Y-97918946D01*
X38359481Y-97918946D01*
X38358696Y-97913334D01*
X38352307Y-97863965D01*
X38346089Y-97812602D01*
X38340255Y-97761226D01*
X38335015Y-97711821D01*
X38330579Y-97666371D01*
X38327159Y-97626858D01*
X38324965Y-97595267D01*
X38324207Y-97573579D01*
X38324228Y-97569662D01*
X38325587Y-97539037D01*
X38329527Y-97509758D01*
X38336708Y-97479463D01*
X38347791Y-97445793D01*
X38363436Y-97406385D01*
X38384306Y-97358879D01*
X38389869Y-97346540D01*
X38410099Y-97300145D01*
X38425484Y-97261192D01*
X38436664Y-97227132D01*
X38444281Y-97195417D01*
X38448973Y-97163497D01*
X38451382Y-97128822D01*
X38452149Y-97088845D01*
X38452138Y-97073817D01*
X38451229Y-97036163D01*
X38448822Y-97008900D01*
X38444690Y-96990867D01*
X38438604Y-96980900D01*
X38430336Y-96977836D01*
X38430028Y-96977853D01*
X38425963Y-96983058D01*
X38423548Y-96998226D01*
X38422620Y-97024339D01*
X38421704Y-97046367D01*
X38419076Y-97064843D01*
X38415508Y-97089926D01*
X38403004Y-97136705D01*
X38383629Y-97188613D01*
X38356819Y-97247560D01*
X38317234Y-97323174D01*
X38256555Y-97422205D01*
X38186171Y-97520130D01*
X38105365Y-97617932D01*
X38013418Y-97716591D01*
X37944877Y-97786294D01*
X37493841Y-97786294D01*
X37468967Y-97764443D01*
X37419071Y-97735909D01*
X37348052Y-97707235D01*
X37256884Y-97681444D01*
X37165025Y-97667592D01*
X37072786Y-97665681D01*
X36980482Y-97675715D01*
X36888425Y-97697694D01*
X36796929Y-97731621D01*
X36769910Y-97744230D01*
X36730160Y-97767226D01*
X36699069Y-97792635D01*
X36674510Y-97822347D01*
X36654352Y-97858254D01*
X36647518Y-97874005D01*
X36635721Y-97916197D01*
X36634960Y-97956225D01*
X36645444Y-97995058D01*
X36667383Y-98033668D01*
X36700990Y-98073024D01*
X36713598Y-98084932D01*
X36756703Y-98116926D01*
X36808302Y-98145095D01*
X36866014Y-98168564D01*
X36927457Y-98186458D01*
X36990252Y-98197903D01*
X37052018Y-98202023D01*
X37091021Y-98202130D01*
X37067583Y-98215532D01*
X37058107Y-98221335D01*
X37035441Y-98241019D01*
X37022885Y-98264436D01*
X37019015Y-98293879D01*
X37019547Y-98305502D01*
X37027431Y-98334989D01*
X37044935Y-98357367D01*
X37072298Y-98372989D01*
X37084669Y-98377126D01*
X37097745Y-98379574D01*
X37113798Y-98380164D01*
X37135801Y-98378995D01*
X37166730Y-98376170D01*
X37211815Y-98370586D01*
X37288556Y-98355389D01*
X37356606Y-98334072D01*
X37369862Y-98329198D01*
X37385917Y-98323971D01*
X37394927Y-98321942D01*
X37396315Y-98322511D01*
X37398923Y-98330454D01*
X37399691Y-98348464D01*
X37398682Y-98377446D01*
X37397496Y-98394625D01*
X37391509Y-98435289D01*
X37380506Y-98467407D01*
X37363151Y-98493200D01*
X37338107Y-98514888D01*
X37304038Y-98534692D01*
X37276426Y-98547801D01*
X37237179Y-98562827D01*
X37197211Y-98572924D01*
X37150939Y-98579733D01*
X37100496Y-98582435D01*
X37043491Y-98579174D01*
X36988010Y-98569855D01*
X36936521Y-98555050D01*
X36891490Y-98535331D01*
X36855385Y-98511269D01*
X36844532Y-98501442D01*
X36825826Y-98478981D01*
X36813166Y-98453004D01*
X36805437Y-98420786D01*
X36801523Y-98379600D01*
X36798356Y-98317535D01*
X36773675Y-98304981D01*
X36768050Y-98302072D01*
X36748886Y-98291587D01*
X36733674Y-98282510D01*
X36728281Y-98279321D01*
X36722312Y-98277601D01*
X36714724Y-98278493D01*
X36703765Y-98282682D01*
X36687685Y-98290854D01*
X36664736Y-98303694D01*
X36633166Y-98321889D01*
X36613167Y-98333661D01*
X36587295Y-98349556D01*
X36566707Y-98363018D01*
X36553131Y-98372903D01*
X36548296Y-98378066D01*
X33884712Y-98378066D01*
X33884869Y-98339943D01*
X33886769Y-97976914D01*
X33904341Y-97926574D01*
X33918696Y-97891910D01*
X33946078Y-97843586D01*
X33979260Y-97800096D01*
X34015781Y-97765006D01*
X34016948Y-97764107D01*
X34030163Y-97755072D01*
X34052468Y-97740881D01*
X34082714Y-97722226D01*
X34119749Y-97699800D01*
X34162426Y-97674294D01*
X34209593Y-97646401D01*
X34260102Y-97616811D01*
X34312802Y-97586219D01*
X34576823Y-97433659D01*
X34580203Y-97546274D01*
X34581159Y-97576284D01*
X34582526Y-97609537D01*
X34584187Y-97634679D01*
X34586426Y-97653976D01*
X34589529Y-97669697D01*
X34593781Y-97684107D01*
X34599466Y-97699473D01*
X34611920Y-97727427D01*
X34641701Y-97778775D01*
X34679449Y-97830130D01*
X34723018Y-97878954D01*
X34770258Y-97922711D01*
X34819023Y-97958862D01*
X34829873Y-97965754D01*
X34917331Y-98014370D01*
X35014363Y-98056994D01*
X35120067Y-98093311D01*
X35233541Y-98123007D01*
X35353884Y-98145765D01*
X35380923Y-98149264D01*
X35429963Y-98153354D01*
X35486474Y-98156017D01*
X35547782Y-98157269D01*
X35611213Y-98157126D01*
X35674094Y-98155603D01*
X35733752Y-98152718D01*
X35787512Y-98148484D01*
X35832703Y-98142919D01*
X35939237Y-98122914D01*
X36041210Y-98096752D01*
X36136565Y-98065034D01*
X36224728Y-98028128D01*
X36305123Y-97986403D01*
X36377176Y-97940227D01*
X36440313Y-97889970D01*
X36493957Y-97836001D01*
X36537536Y-97778688D01*
X36570473Y-97718400D01*
X36592195Y-97655506D01*
X36594795Y-97643458D01*
X36597033Y-97628481D01*
X36598753Y-97610000D01*
X36600010Y-97586600D01*
X36600859Y-97556865D01*
X36601355Y-97519378D01*
X36601552Y-97472724D01*
X36601505Y-97415487D01*
X36601496Y-97411684D01*
X36601328Y-97358461D01*
X36601080Y-97316249D01*
X36600705Y-97284116D01*
X36600287Y-97266615D01*
X37052018Y-97266615D01*
X37055731Y-97269603D01*
X37068744Y-97278020D01*
X37089981Y-97291075D01*
X37118260Y-97308058D01*
X37152399Y-97328262D01*
X37191217Y-97350977D01*
X37233532Y-97375494D01*
X37268680Y-97395750D01*
X37309333Y-97419145D01*
X37346028Y-97440227D01*
X37377480Y-97458259D01*
X37402401Y-97472502D01*
X37419504Y-97482219D01*
X37427502Y-97486672D01*
X37439957Y-97493179D01*
X37429294Y-97413595D01*
X37424431Y-97376563D01*
X37423868Y-97372061D01*
X37760073Y-97372061D01*
X37760587Y-97375945D01*
X37766592Y-97390951D01*
X37777115Y-97408652D01*
X37789340Y-97424682D01*
X37800449Y-97434672D01*
X37802903Y-97436038D01*
X37833431Y-97446579D01*
X37866538Y-97446310D01*
X37902879Y-97435132D01*
X37943107Y-97412946D01*
X37988305Y-97378666D01*
X38033288Y-97334119D01*
X38072793Y-97283885D01*
X38105651Y-97229902D01*
X38130697Y-97174109D01*
X38146763Y-97118443D01*
X38152682Y-97064843D01*
X38152414Y-97048340D01*
X38147261Y-97009778D01*
X38135415Y-96980963D01*
X38116595Y-96961562D01*
X38090523Y-96951238D01*
X38056920Y-96949655D01*
X38034222Y-96952687D01*
X38002948Y-96962340D01*
X37970501Y-96979387D01*
X37934087Y-97005089D01*
X37901221Y-97032663D01*
X37867283Y-97068635D01*
X37842136Y-97106474D01*
X37824063Y-97148418D01*
X37815640Y-97182493D01*
X37814995Y-97213469D01*
X37822414Y-97236799D01*
X37836822Y-97251862D01*
X37857145Y-97258038D01*
X37882307Y-97254705D01*
X37911234Y-97241243D01*
X37942849Y-97217029D01*
X37950292Y-97209962D01*
X37976613Y-97179993D01*
X37997714Y-97147965D01*
X38013360Y-97115342D01*
X38023314Y-97083593D01*
X38027340Y-97054183D01*
X38025204Y-97028579D01*
X38016669Y-97008246D01*
X38001499Y-96994652D01*
X37979459Y-96989263D01*
X37972499Y-96988942D01*
X37968005Y-96987751D01*
X37973140Y-96984906D01*
X37988817Y-96979449D01*
X38003649Y-96975351D01*
X38034613Y-96973228D01*
X38060147Y-96980823D01*
X38079868Y-96997264D01*
X38093391Y-97021677D01*
X38100333Y-97053192D01*
X38100309Y-97090934D01*
X38092935Y-97134033D01*
X38077828Y-97181616D01*
X38064801Y-97211370D01*
X38039166Y-97256417D01*
X38008463Y-97298296D01*
X37974164Y-97335636D01*
X37937740Y-97367066D01*
X37900662Y-97391214D01*
X37864403Y-97406708D01*
X37830434Y-97412178D01*
X37823741Y-97412112D01*
X37806748Y-97410192D01*
X37794194Y-97403707D01*
X37780297Y-97390110D01*
X37772803Y-97382220D01*
X37763648Y-97373687D01*
X37760073Y-97372061D01*
X37423868Y-97372061D01*
X37417447Y-97320708D01*
X37411046Y-97266404D01*
X37405411Y-97215373D01*
X37400721Y-97169336D01*
X37397158Y-97130016D01*
X37394902Y-97099137D01*
X37394133Y-97078419D01*
X37394722Y-97059444D01*
X37398145Y-97029660D01*
X37405172Y-96998198D01*
X37416433Y-96962899D01*
X37432556Y-96921599D01*
X37454172Y-96872139D01*
X37469752Y-96837327D01*
X37487527Y-96795573D01*
X37500891Y-96760298D01*
X37510456Y-96729035D01*
X37516833Y-96699318D01*
X37520634Y-96668683D01*
X37522470Y-96634663D01*
X37522952Y-96594792D01*
X37522952Y-96589191D01*
X37522802Y-96555306D01*
X37522237Y-96531221D01*
X37521033Y-96515007D01*
X37518968Y-96504733D01*
X37515820Y-96498469D01*
X37511366Y-96494284D01*
X37503272Y-96488958D01*
X37496122Y-96485797D01*
X37494656Y-96490342D01*
X37494067Y-96503893D01*
X37494669Y-96523300D01*
X37493959Y-96555559D01*
X37492626Y-96563412D01*
X37485579Y-96604932D01*
X37469116Y-96660630D01*
X37445019Y-96721648D01*
X37413739Y-96786982D01*
X37375726Y-96855627D01*
X37331432Y-96926581D01*
X37281307Y-96998837D01*
X37275492Y-97006714D01*
X37251783Y-97037477D01*
X37223501Y-97072611D01*
X37192620Y-97109796D01*
X37161112Y-97146711D01*
X37130951Y-97181035D01*
X37104108Y-97210449D01*
X37082557Y-97232630D01*
X37081347Y-97233814D01*
X37066524Y-97248893D01*
X37056012Y-97260646D01*
X37052018Y-97266615D01*
X36600287Y-97266615D01*
X36600156Y-97261132D01*
X36599386Y-97246365D01*
X36598346Y-97238885D01*
X36596991Y-97237761D01*
X36595272Y-97242062D01*
X36593143Y-97250857D01*
X36583388Y-97286064D01*
X36557900Y-97345390D01*
X36521981Y-97403238D01*
X36476609Y-97458321D01*
X36422763Y-97509356D01*
X36361421Y-97555058D01*
X36326790Y-97576668D01*
X36243980Y-97620714D01*
X36152619Y-97660116D01*
X36054670Y-97694231D01*
X35952095Y-97722416D01*
X35846855Y-97744027D01*
X35740915Y-97758422D01*
X35703233Y-97761069D01*
X35655412Y-97762554D01*
X35601627Y-97762832D01*
X35544867Y-97761977D01*
X35488122Y-97760063D01*
X35434383Y-97757164D01*
X35386640Y-97753353D01*
X35347884Y-97748705D01*
X35263784Y-97733780D01*
X35162001Y-97709482D01*
X35066282Y-97679546D01*
X34977266Y-97644370D01*
X34895594Y-97604346D01*
X34821904Y-97559869D01*
X34756836Y-97511335D01*
X34701029Y-97459136D01*
X34655123Y-97403668D01*
X34619756Y-97345326D01*
X34595568Y-97284503D01*
X34590212Y-97264209D01*
X34581692Y-97201883D01*
X34584419Y-97139178D01*
X34597921Y-97077128D01*
X34621729Y-97016766D01*
X34655371Y-96959123D01*
X34698378Y-96905232D01*
X34750278Y-96856125D01*
X34810600Y-96812836D01*
X34811604Y-96812214D01*
X34831901Y-96800629D01*
X34856004Y-96788234D01*
X34881506Y-96776094D01*
X34906004Y-96765275D01*
X34927092Y-96756840D01*
X34942364Y-96751854D01*
X34949417Y-96751383D01*
X34946776Y-96754941D01*
X34936313Y-96763098D01*
X34920344Y-96773828D01*
X34912016Y-96779418D01*
X34883504Y-96801864D01*
X34852486Y-96830249D01*
X34821413Y-96861983D01*
X34792734Y-96894477D01*
X34768899Y-96925141D01*
X34752357Y-96951387D01*
X34750692Y-96954614D01*
X34726020Y-97014284D01*
X34713312Y-97073192D01*
X34712555Y-97131258D01*
X34723732Y-97188397D01*
X34746828Y-97244528D01*
X34781826Y-97299569D01*
X34828712Y-97353437D01*
X34841630Y-97366150D01*
X34898810Y-97415462D01*
X34961360Y-97458300D01*
X35030841Y-97495524D01*
X35108814Y-97527996D01*
X35196838Y-97556575D01*
X35215879Y-97561972D01*
X35266204Y-97575189D01*
X35312835Y-97585489D01*
X35358381Y-97593198D01*
X35405451Y-97598639D01*
X35456655Y-97602140D01*
X35514602Y-97604025D01*
X35581902Y-97604621D01*
X35596144Y-97604625D01*
X35648617Y-97604401D01*
X35692182Y-97603615D01*
X35729329Y-97602032D01*
X35762546Y-97599415D01*
X35794325Y-97595528D01*
X35827155Y-97590135D01*
X35863526Y-97582999D01*
X35905927Y-97573884D01*
X35988576Y-97552613D01*
X36073571Y-97523791D01*
X36152506Y-97489626D01*
X36224545Y-97450685D01*
X36288849Y-97407535D01*
X36344581Y-97360744D01*
X36390903Y-97310878D01*
X36426979Y-97258504D01*
X36451970Y-97204190D01*
X36458269Y-97183909D01*
X36468442Y-97124544D01*
X36466915Y-97064293D01*
X36453770Y-97004081D01*
X36429089Y-96944833D01*
X36413380Y-96919484D01*
X36388406Y-96887148D01*
X36358078Y-96853229D01*
X36324895Y-96820337D01*
X36291355Y-96791083D01*
X36259955Y-96768078D01*
X36246600Y-96759118D01*
X36235669Y-96750265D01*
X36235367Y-96746765D01*
X36245627Y-96748616D01*
X36266381Y-96755819D01*
X36297564Y-96768373D01*
X36345606Y-96791672D01*
X36409691Y-96833244D01*
X36468238Y-96883790D01*
X36519097Y-96941626D01*
X36529089Y-96954152D01*
X36556194Y-96981377D01*
X36588205Y-97003409D01*
X36592315Y-97005756D01*
X36611032Y-97015433D01*
X36625127Y-97021108D01*
X36631814Y-97021618D01*
X36632598Y-97020313D01*
X36636887Y-97009672D01*
X36643098Y-96991499D01*
X36650172Y-96968835D01*
X36668459Y-96912895D01*
X36676283Y-96893803D01*
X36836001Y-96893803D01*
X36839262Y-96905927D01*
X36849823Y-96922978D01*
X36864631Y-96939077D01*
X36880506Y-96950195D01*
X36882701Y-96951202D01*
X36912884Y-96958628D01*
X36946140Y-96955297D01*
X36982960Y-96941093D01*
X37023833Y-96915898D01*
X37080764Y-96868259D01*
X37131315Y-96811051D01*
X37173428Y-96746352D01*
X37206095Y-96675490D01*
X37212721Y-96656440D01*
X37218558Y-96633088D01*
X37221565Y-96607893D01*
X37222579Y-96575804D01*
X37222626Y-96563412D01*
X37222045Y-96539045D01*
X37220020Y-96522047D01*
X37216000Y-96509113D01*
X37209436Y-96496937D01*
X37208735Y-96495825D01*
X37187675Y-96472451D01*
X37161260Y-96459664D01*
X37129739Y-96457443D01*
X37093357Y-96465769D01*
X37052362Y-96484619D01*
X37007000Y-96513973D01*
X36976679Y-96538166D01*
X36939210Y-96577170D01*
X36911707Y-96619844D01*
X36892963Y-96667817D01*
X36887500Y-96693373D01*
X36887343Y-96723907D01*
X36895180Y-96747076D01*
X36910037Y-96762036D01*
X36930936Y-96767941D01*
X36956903Y-96763947D01*
X36986962Y-96749209D01*
X37014737Y-96727486D01*
X37045678Y-96693189D01*
X37071244Y-96653482D01*
X37089462Y-96611527D01*
X37098362Y-96570484D01*
X37098369Y-96570404D01*
X37099767Y-96549911D01*
X37098455Y-96536883D01*
X37093163Y-96526885D01*
X37082623Y-96515479D01*
X37077248Y-96510368D01*
X37062470Y-96500466D01*
X37048999Y-96499270D01*
X37038021Y-96500575D01*
X37035776Y-96498944D01*
X37041366Y-96495324D01*
X37053035Y-96490828D01*
X37069026Y-96486571D01*
X37082928Y-96484214D01*
X37114655Y-96484905D01*
X37139560Y-96495418D01*
X37157510Y-96515631D01*
X37168376Y-96545417D01*
X37172027Y-96584654D01*
X37171039Y-96605707D01*
X37161020Y-96657768D01*
X37141114Y-96710670D01*
X37112446Y-96762552D01*
X37076144Y-96811551D01*
X37033334Y-96855807D01*
X36985143Y-96893457D01*
X36972330Y-96901493D01*
X36936608Y-96917891D01*
X36904244Y-96923441D01*
X36875760Y-96918110D01*
X36851674Y-96901866D01*
X36848448Y-96898803D01*
X36839567Y-96892550D01*
X36836001Y-96893803D01*
X36676283Y-96893803D01*
X36713601Y-96802747D01*
X36769690Y-96695592D01*
X36836075Y-96592486D01*
X36912110Y-96494489D01*
X36997145Y-96402658D01*
X37027251Y-96373395D01*
X37054339Y-96348633D01*
X37076056Y-96331059D01*
X37093735Y-96319705D01*
X37108709Y-96313602D01*
X37122313Y-96311783D01*
X37127120Y-96311603D01*
X37140054Y-96308344D01*
X37153538Y-96299468D01*
X37170917Y-96282997D01*
X37189468Y-96265615D01*
X37223750Y-96242390D01*
X37261673Y-96228559D01*
X37306449Y-96222694D01*
X37341274Y-96222713D01*
X37378407Y-96228226D01*
X37411426Y-96240795D01*
X37442309Y-96261502D01*
X37473034Y-96291429D01*
X37505578Y-96331658D01*
X37510740Y-96338646D01*
X37551270Y-96399591D01*
X37581179Y-96457314D01*
X37600986Y-96512799D01*
X37603094Y-96522005D01*
X37606014Y-96540767D01*
X37608735Y-96566461D01*
X37610921Y-96594792D01*
X37611331Y-96600099D01*
X37613876Y-96642695D01*
X37616445Y-96695264D01*
X37619113Y-96758819D01*
X37620416Y-96791177D01*
X37625072Y-96897692D01*
X37629930Y-96995288D01*
X37634948Y-97083194D01*
X37640081Y-97160640D01*
X37645286Y-97226855D01*
X37649445Y-97274859D01*
X37669581Y-97235856D01*
X37721329Y-97144544D01*
X37791422Y-97042266D01*
X37870155Y-96947637D01*
X37956740Y-96861683D01*
X37973224Y-96847156D01*
X38003130Y-96823089D01*
X38026971Y-96807696D01*
X38045648Y-96800447D01*
X38060061Y-96800810D01*
X38068540Y-96800219D01*
X38081147Y-96792017D01*
X38098717Y-96774850D01*
X38116890Y-96757404D01*
X38155717Y-96731499D01*
X38199502Y-96716287D01*
X38249112Y-96711402D01*
X38269893Y-96712104D01*
X38306776Y-96717743D01*
X38339391Y-96730018D01*
X38369758Y-96750114D01*
X38399900Y-96779216D01*
X38431839Y-96818511D01*
X38435590Y-96823536D01*
X38461342Y-96859132D01*
X38480957Y-96888915D01*
X38496043Y-96915707D01*
X38508207Y-96942334D01*
X38519059Y-96971618D01*
X38521854Y-96980122D01*
X38528661Y-97004283D01*
X38534196Y-97030528D01*
X38538637Y-97060510D01*
X38541461Y-97088845D01*
X38542162Y-97095882D01*
X38544947Y-97138295D01*
G37*
G36*
X35700498Y-96520523D02*
G01*
X35710591Y-96521600D01*
X35787318Y-96533350D01*
X35861435Y-96550789D01*
X35930679Y-96573197D01*
X35992785Y-96599855D01*
X36045488Y-96630046D01*
X36048918Y-96632361D01*
X36071998Y-96648602D01*
X36092416Y-96664020D01*
X36108746Y-96677392D01*
X36119562Y-96687495D01*
X36123437Y-96693107D01*
X36118944Y-96693005D01*
X36107984Y-96688901D01*
X36089515Y-96681907D01*
X36067940Y-96673686D01*
X36067114Y-96673372D01*
X36048287Y-96666776D01*
X36023851Y-96658932D01*
X35996643Y-96650664D01*
X35969501Y-96642795D01*
X35945263Y-96636150D01*
X35926767Y-96631551D01*
X35916851Y-96629824D01*
X35916531Y-96632173D01*
X35920431Y-96642290D01*
X35928352Y-96657682D01*
X35941392Y-96690651D01*
X35944380Y-96727210D01*
X35936042Y-96763548D01*
X35916648Y-96798547D01*
X35886468Y-96831091D01*
X35885848Y-96831629D01*
X35852996Y-96854682D01*
X35811103Y-96875876D01*
X35763043Y-96894117D01*
X35711687Y-96908311D01*
X35659908Y-96917365D01*
X35645036Y-96918848D01*
X35590994Y-96920369D01*
X35533731Y-96916924D01*
X35479032Y-96908787D01*
X35441044Y-96899181D01*
X35399283Y-96884564D01*
X35359920Y-96866888D01*
X35325323Y-96847356D01*
X35297861Y-96827173D01*
X35279901Y-96807542D01*
X35275340Y-96800063D01*
X35275128Y-96794879D01*
X35282602Y-96791959D01*
X35299870Y-96789389D01*
X35335575Y-96781492D01*
X35364475Y-96768835D01*
X35385596Y-96752624D01*
X35398140Y-96734043D01*
X35401311Y-96714275D01*
X35394309Y-96694503D01*
X35376339Y-96675910D01*
X35369115Y-96670872D01*
X35332276Y-96653669D01*
X35292249Y-96647810D01*
X35291800Y-96647810D01*
X35277323Y-96647176D01*
X35272705Y-96644555D01*
X35275878Y-96638809D01*
X35279459Y-96633510D01*
X35279112Y-96629808D01*
X35275996Y-96630165D01*
X35262256Y-96633094D01*
X35241427Y-96638304D01*
X35216517Y-96644978D01*
X35190533Y-96652297D01*
X35166486Y-96659444D01*
X35147383Y-96665602D01*
X35130397Y-96671077D01*
X35115949Y-96674889D01*
X35109486Y-96675433D01*
X35110282Y-96672661D01*
X35118978Y-96664326D01*
X35135087Y-96652111D01*
X35156851Y-96637321D01*
X35182511Y-96621261D01*
X35215493Y-96603767D01*
X35257079Y-96585407D01*
X35303117Y-96567858D01*
X35349886Y-96552538D01*
X35393668Y-96540862D01*
X35403912Y-96538617D01*
X35460431Y-96528916D01*
X35522600Y-96521974D01*
X35586168Y-96518073D01*
X35646885Y-96517496D01*
X35700498Y-96520523D01*
G37*
%TO.C,kibuzzard-65FC58DD*%
G36*
X39834627Y-65526761D02*
G01*
X43643213Y-65526761D01*
X43985373Y-66040000D01*
X43643213Y-66553239D01*
X39834627Y-66553239D01*
X39834627Y-66041429D01*
X41860768Y-66041429D01*
X41864608Y-66114295D01*
X41876128Y-66177636D01*
X41895326Y-66231452D01*
X41922205Y-66275744D01*
X41968083Y-66319665D01*
X42023805Y-66346017D01*
X42089368Y-66354801D01*
X42155091Y-66345911D01*
X42211288Y-66319241D01*
X42257961Y-66274791D01*
X42285464Y-66230083D01*
X42305110Y-66175969D01*
X42316897Y-66112450D01*
X42320826Y-66039524D01*
X42316897Y-65967402D01*
X42305110Y-65904388D01*
X42292222Y-65869026D01*
X42422743Y-65869026D01*
X42602766Y-66345276D01*
X42720876Y-66345276D01*
X42794352Y-66151919D01*
X43020913Y-66151919D01*
X43027687Y-66209386D01*
X43048007Y-66258599D01*
X43081873Y-66299556D01*
X43126429Y-66330248D01*
X43178817Y-66348663D01*
X43239036Y-66354801D01*
X43295445Y-66349192D01*
X43344023Y-66332365D01*
X43384768Y-66304319D01*
X43415989Y-66266854D01*
X43435992Y-66221769D01*
X43444776Y-66169064D01*
X43350478Y-66169064D01*
X43339882Y-66213355D01*
X43315712Y-66247169D01*
X43280589Y-66268600D01*
X43237131Y-66275744D01*
X43189744Y-66267528D01*
X43152358Y-66242883D01*
X43128070Y-66204187D01*
X43119973Y-66153824D01*
X43127713Y-66103460D01*
X43150930Y-66062860D01*
X43187006Y-66036071D01*
X43233321Y-66027141D01*
X43298091Y-66043334D01*
X43343811Y-66089054D01*
X43431441Y-66069051D01*
X43399056Y-65735676D01*
X43049488Y-65735676D01*
X43049488Y-65817591D01*
X43314283Y-65817591D01*
X43332381Y-65992851D01*
X43280232Y-65962133D01*
X43213318Y-65951894D01*
X43159767Y-65958191D01*
X43113412Y-65977082D01*
X43074253Y-66008568D01*
X43044620Y-66049684D01*
X43026840Y-66097468D01*
X43020913Y-66151919D01*
X42794352Y-66151919D01*
X42901851Y-65869026D01*
X42801838Y-65869026D01*
X42664678Y-66244311D01*
X42658011Y-66244311D01*
X42521803Y-65869026D01*
X42422743Y-65869026D01*
X42292222Y-65869026D01*
X42285464Y-65850482D01*
X42257961Y-65805685D01*
X42211288Y-65760970D01*
X42155091Y-65734142D01*
X42089368Y-65725199D01*
X42023805Y-65734142D01*
X41968083Y-65760970D01*
X41922205Y-65805685D01*
X41895326Y-65850601D01*
X41876128Y-65904864D01*
X41864608Y-65968473D01*
X41860768Y-66041429D01*
X39834627Y-66041429D01*
X39834627Y-65526761D01*
G37*
G36*
X42141042Y-65824259D02*
G01*
X42181761Y-65867121D01*
X42201340Y-65911783D01*
X42213088Y-65969568D01*
X42217003Y-66040476D01*
X42214622Y-66096436D01*
X42207478Y-66142394D01*
X41998881Y-65865216D01*
X42038172Y-65823782D01*
X42089368Y-65809971D01*
X42141042Y-65824259D01*
G37*
G36*
X42180808Y-66215736D02*
G01*
X42141280Y-66256456D01*
X42089368Y-66270029D01*
X42037814Y-66255741D01*
X41997452Y-66212879D01*
X41978138Y-66168323D01*
X41966549Y-66110855D01*
X41962686Y-66040476D01*
X41965067Y-65987136D01*
X41972211Y-65937606D01*
X42180808Y-66215736D01*
G37*
%TO.C,kibuzzard-65AAA44C*%
G36*
X29665261Y-83278663D02*
G01*
X33473847Y-83278663D01*
X33834739Y-83820000D01*
X33473847Y-84361337D01*
X29665261Y-84361337D01*
X29665261Y-83818095D01*
X31658065Y-83818095D01*
X31662619Y-83891646D01*
X31676281Y-83957041D01*
X31699052Y-84014280D01*
X31730931Y-84063364D01*
X31771561Y-84102744D01*
X31820585Y-84130872D01*
X31878003Y-84147749D01*
X31943815Y-84153375D01*
X32112407Y-84153375D01*
X32245757Y-84153375D01*
X32346722Y-84153375D01*
X32583895Y-83677125D01*
X32590562Y-83677125D01*
X32590562Y-84153375D01*
X32683907Y-84153375D01*
X32809637Y-84153375D01*
X32886790Y-84153375D01*
X32898220Y-84096225D01*
X32904887Y-84096225D01*
X32952036Y-84140992D01*
X32993589Y-84157423D01*
X33046810Y-84162900D01*
X33114278Y-84153322D01*
X33170635Y-84124588D01*
X33215878Y-84076699D01*
X33241923Y-84029044D01*
X33260527Y-83972281D01*
X33271689Y-83906410D01*
X33275410Y-83831430D01*
X33271302Y-83752640D01*
X33258979Y-83682959D01*
X33238441Y-83622386D01*
X33209687Y-83570921D01*
X33160263Y-83518798D01*
X33099621Y-83487525D01*
X33027760Y-83477100D01*
X32971774Y-83483080D01*
X32923196Y-83501018D01*
X32882027Y-83530916D01*
X32849536Y-83571503D01*
X32826994Y-83621510D01*
X32814400Y-83680935D01*
X32919175Y-83680935D01*
X32941823Y-83619022D01*
X32978018Y-83581875D01*
X33027760Y-83569492D01*
X33088720Y-83586280D01*
X33134440Y-83636644D01*
X33155606Y-83688132D01*
X33168306Y-83753060D01*
X33172540Y-83831430D01*
X33166787Y-83918869D01*
X33149527Y-83986878D01*
X33120762Y-84035456D01*
X33080490Y-84064602D01*
X33028712Y-84074317D01*
X32978349Y-84065269D01*
X32939653Y-84038123D01*
X32915008Y-83994069D01*
X32906792Y-83934300D01*
X32906792Y-83880960D01*
X33033475Y-83880960D01*
X33033475Y-83800950D01*
X32809637Y-83800950D01*
X32809637Y-84153375D01*
X32683907Y-84153375D01*
X32683907Y-83486625D01*
X32582942Y-83486625D01*
X32345770Y-83963828D01*
X32339102Y-83963828D01*
X32339102Y-83486625D01*
X32245757Y-83486625D01*
X32245757Y-84153375D01*
X32112407Y-84153375D01*
X32112407Y-83486625D01*
X31943815Y-83486625D01*
X31878390Y-83492191D01*
X31821180Y-83508890D01*
X31772186Y-83536721D01*
X31731407Y-83575684D01*
X31699320Y-83624231D01*
X31676400Y-83680816D01*
X31662649Y-83745437D01*
X31658065Y-83818095D01*
X29665261Y-83818095D01*
X29665261Y-83278663D01*
G37*
G36*
X32012395Y-84062887D02*
G01*
X31949530Y-84062887D01*
X31892327Y-84055955D01*
X31845178Y-84035159D01*
X31808083Y-84000499D01*
X31781361Y-83952503D01*
X31765327Y-83891702D01*
X31759982Y-83818095D01*
X31765247Y-83744461D01*
X31781043Y-83684216D01*
X31807369Y-83637358D01*
X31844226Y-83603888D01*
X31891612Y-83583806D01*
X31949530Y-83577113D01*
X32012395Y-83577113D01*
X32012395Y-84062887D01*
G37*
%TO.C,kibuzzard-65AA5850*%
G36*
X42533286Y-76442887D02*
G01*
X42470421Y-76442887D01*
X42413218Y-76435955D01*
X42366070Y-76415159D01*
X42328975Y-76380499D01*
X42302252Y-76332503D01*
X42286218Y-76271702D01*
X42280874Y-76198095D01*
X42286139Y-76124461D01*
X42301935Y-76064216D01*
X42328261Y-76017358D01*
X42365117Y-75983888D01*
X42412504Y-75963806D01*
X42470421Y-75957113D01*
X42533286Y-75957113D01*
X42533286Y-76442887D01*
G37*
G36*
X39825261Y-76200000D02*
G01*
X39826531Y-76198095D01*
X42178956Y-76198095D01*
X42183511Y-76271646D01*
X42197173Y-76337041D01*
X42219944Y-76394280D01*
X42251823Y-76443364D01*
X42292453Y-76482744D01*
X42341477Y-76510872D01*
X42398895Y-76527749D01*
X42464706Y-76533375D01*
X42633299Y-76533375D01*
X42766649Y-76533375D01*
X42867614Y-76533375D01*
X43104786Y-76057125D01*
X43111454Y-76057125D01*
X43111454Y-76533375D01*
X43204799Y-76533375D01*
X43330529Y-76533375D01*
X43407681Y-76533375D01*
X43419111Y-76476225D01*
X43425779Y-76476225D01*
X43472928Y-76520992D01*
X43514480Y-76537423D01*
X43567701Y-76542900D01*
X43635170Y-76533322D01*
X43691526Y-76504588D01*
X43736770Y-76456699D01*
X43762815Y-76409044D01*
X43781419Y-76352281D01*
X43792581Y-76286410D01*
X43796301Y-76211430D01*
X43792194Y-76132640D01*
X43779871Y-76062959D01*
X43759332Y-76002386D01*
X43730579Y-75950921D01*
X43681155Y-75898798D01*
X43620512Y-75867525D01*
X43548651Y-75857100D01*
X43492666Y-75863080D01*
X43444088Y-75881018D01*
X43402919Y-75910916D01*
X43370428Y-75951503D01*
X43347886Y-76001510D01*
X43335291Y-76060935D01*
X43440066Y-76060935D01*
X43462715Y-75999022D01*
X43498910Y-75961875D01*
X43548651Y-75949492D01*
X43609611Y-75966280D01*
X43655331Y-76016644D01*
X43676498Y-76068132D01*
X43689198Y-76133060D01*
X43693431Y-76211430D01*
X43687678Y-76298869D01*
X43670419Y-76366878D01*
X43641653Y-76415456D01*
X43601382Y-76444602D01*
X43549604Y-76454317D01*
X43499240Y-76445269D01*
X43460545Y-76418123D01*
X43435899Y-76374069D01*
X43427684Y-76314300D01*
X43427684Y-76260960D01*
X43554366Y-76260960D01*
X43554366Y-76180950D01*
X43330529Y-76180950D01*
X43330529Y-76533375D01*
X43204799Y-76533375D01*
X43204799Y-75866625D01*
X43103834Y-75866625D01*
X42866661Y-76343828D01*
X42859994Y-76343828D01*
X42859994Y-75866625D01*
X42766649Y-75866625D01*
X42766649Y-76533375D01*
X42633299Y-76533375D01*
X42633299Y-75866625D01*
X42464706Y-75866625D01*
X42399282Y-75872191D01*
X42342072Y-75888890D01*
X42293078Y-75916721D01*
X42252299Y-75955684D01*
X42220212Y-76004231D01*
X42197292Y-76060816D01*
X42183540Y-76125437D01*
X42178956Y-76198095D01*
X39826531Y-76198095D01*
X40186153Y-75658663D01*
X43994739Y-75658663D01*
X43994739Y-76741337D01*
X40186153Y-76741337D01*
X39825261Y-76200000D01*
G37*
%TO.C,kibuzzard-65FC5A62*%
G36*
X41292735Y-93912253D02*
G01*
X41333930Y-93939042D01*
X41363696Y-93979167D01*
X41378698Y-94028101D01*
X41120570Y-94028101D01*
X41129738Y-93977976D01*
X41155336Y-93938090D01*
X41194270Y-93912015D01*
X41243443Y-93903324D01*
X41292735Y-93912253D01*
G37*
G36*
X39826372Y-93980000D02*
G01*
X40012110Y-93701394D01*
X42326435Y-93701394D01*
X42344533Y-93744733D01*
X42387395Y-93763306D01*
X42431686Y-93744733D01*
X42450260Y-93701394D01*
X42431686Y-93658055D01*
X42394576Y-93643291D01*
X43269410Y-93643291D01*
X43471340Y-94310041D01*
X43594213Y-94310041D01*
X43795190Y-93643291D01*
X43687558Y-93643291D01*
X43536110Y-94165261D01*
X43528490Y-94165261D01*
X43377043Y-93643291D01*
X43269410Y-93643291D01*
X42394576Y-93643291D01*
X42387395Y-93640434D01*
X42344533Y-93658055D01*
X42326435Y-93701394D01*
X40012110Y-93701394D01*
X40185042Y-93441996D01*
X43993628Y-93441996D01*
X43993628Y-94518004D01*
X40185042Y-94518004D01*
X39883205Y-94065249D01*
X41027225Y-94065249D01*
X41029130Y-94096681D01*
X41379650Y-94096681D01*
X41367268Y-94155141D01*
X41337740Y-94200980D01*
X41293925Y-94230627D01*
X41238680Y-94240509D01*
X41183753Y-94232360D01*
X41144700Y-94207912D01*
X41121523Y-94167166D01*
X41028178Y-94167166D01*
X41053657Y-94230865D01*
X41099615Y-94279085D01*
X41162480Y-94309446D01*
X41238680Y-94319566D01*
X41303133Y-94312105D01*
X41308315Y-94310041D01*
X41572055Y-94310041D01*
X41663495Y-94310041D01*
X41663495Y-93967141D01*
X41676830Y-93923803D01*
X41713025Y-93907134D01*
X41755411Y-93926660D01*
X41772080Y-93979524D01*
X41772080Y-94310041D01*
X41863520Y-94310041D01*
X41863520Y-93971904D01*
X41877331Y-93924755D01*
X41914003Y-93907134D01*
X41955436Y-93925231D01*
X41972105Y-93976666D01*
X41972105Y-94310041D01*
X42062593Y-94310041D01*
X42175940Y-94310041D01*
X42602660Y-94310041D01*
X42602660Y-94234794D01*
X42436925Y-94234794D01*
X42436925Y-93911896D01*
X42739820Y-93911896D01*
X42933178Y-93911896D01*
X42933178Y-94141449D01*
X42921642Y-94195424D01*
X42887034Y-94227809D01*
X42829355Y-94238604D01*
X42766490Y-94230984D01*
X42766490Y-94309089D01*
X42808876Y-94316947D01*
X42852215Y-94319566D01*
X42916337Y-94313089D01*
X42966210Y-94293658D01*
X43001834Y-94261273D01*
X43023208Y-94215934D01*
X43030333Y-94157641D01*
X43030333Y-93911896D01*
X43181780Y-93911896D01*
X43181780Y-93833791D01*
X43103675Y-93833791D01*
X43039381Y-93814741D01*
X43020808Y-93748066D01*
X43020808Y-93704251D01*
X42933178Y-93704251D01*
X42933178Y-93833791D01*
X42739820Y-93833791D01*
X42739820Y-93911896D01*
X42436925Y-93911896D01*
X42436925Y-93909039D01*
X42593135Y-93909039D01*
X42593135Y-93833791D01*
X42340723Y-93833791D01*
X42340723Y-94234794D01*
X42175940Y-94234794D01*
X42175940Y-94310041D01*
X42062593Y-94310041D01*
X42062593Y-93833791D01*
X41980678Y-93833791D01*
X41972105Y-93870939D01*
X41964485Y-93870939D01*
X41928052Y-93835934D01*
X41877808Y-93824266D01*
X41819229Y-93841411D01*
X41787320Y-93881416D01*
X41779700Y-93881416D01*
X41739933Y-93838554D01*
X41679688Y-93824266D01*
X41635873Y-93832243D01*
X41601583Y-93856175D01*
X41579437Y-93896061D01*
X41572055Y-93951901D01*
X41572055Y-94310041D01*
X41308315Y-94310041D01*
X41359330Y-94289721D01*
X41407273Y-94252415D01*
X41443785Y-94203044D01*
X41465693Y-94144465D01*
X41472995Y-94076679D01*
X41465693Y-94005506D01*
X41443785Y-93944387D01*
X41407273Y-93893323D01*
X41359859Y-93854958D01*
X41305249Y-93831939D01*
X41243443Y-93824266D01*
X41184758Y-93831145D01*
X41133164Y-93851783D01*
X41088661Y-93886179D01*
X41054530Y-93933592D01*
X41034051Y-93993282D01*
X41027225Y-94065249D01*
X39883205Y-94065249D01*
X39826372Y-93980000D01*
G37*
%TO.C,kibuzzard-65AA5905*%
G36*
X43337302Y-73634283D02*
G01*
X43219192Y-73634283D01*
X43168114Y-73626663D01*
X43129181Y-73603802D01*
X43104535Y-73568322D01*
X43096320Y-73522840D01*
X43104535Y-73477001D01*
X43129181Y-73442354D01*
X43168114Y-73420565D01*
X43219192Y-73413302D01*
X43337302Y-73413302D01*
X43337302Y-73634283D01*
G37*
G36*
X42691269Y-73595587D02*
G01*
X42732465Y-73622376D01*
X42762230Y-73662500D01*
X42777232Y-73711435D01*
X42519105Y-73711435D01*
X42528273Y-73661310D01*
X42553871Y-73621424D01*
X42592804Y-73595349D01*
X42641977Y-73586658D01*
X42691269Y-73595587D01*
G37*
G36*
X39825261Y-73118663D02*
G01*
X43633847Y-73118663D01*
X43994739Y-73660000D01*
X43633847Y-74201337D01*
X39825261Y-74201337D01*
X39825261Y-73595230D01*
X41852355Y-73595230D01*
X42058095Y-73595230D01*
X42058095Y-73993375D01*
X42155250Y-73993375D01*
X42155250Y-73748583D01*
X42425760Y-73748583D01*
X42427665Y-73780015D01*
X42778185Y-73780015D01*
X42765802Y-73838475D01*
X42736275Y-73884314D01*
X42692460Y-73913960D01*
X42637215Y-73923843D01*
X42582287Y-73915693D01*
X42543235Y-73891246D01*
X42520057Y-73850500D01*
X42426712Y-73850500D01*
X42452192Y-73914198D01*
X42498150Y-73962419D01*
X42561015Y-73992780D01*
X42637215Y-74002900D01*
X42701667Y-73995439D01*
X42706849Y-73993375D01*
X42967732Y-73993375D01*
X43075365Y-73993375D01*
X43230622Y-73720960D01*
X43337302Y-73720960D01*
X43337302Y-73993375D01*
X43435410Y-73993375D01*
X43435410Y-73326625D01*
X43205857Y-73326625D01*
X43146061Y-73332446D01*
X43094944Y-73349908D01*
X43052505Y-73379012D01*
X43020755Y-73417747D01*
X43001705Y-73464102D01*
X42995355Y-73518077D01*
X43004523Y-73582252D01*
X43032026Y-73635711D01*
X43075722Y-73676788D01*
X43133467Y-73703815D01*
X42967732Y-73993375D01*
X42706849Y-73993375D01*
X42757865Y-73973055D01*
X42805807Y-73935749D01*
X42842320Y-73886378D01*
X42864227Y-73827799D01*
X42871530Y-73760013D01*
X42864227Y-73688840D01*
X42842320Y-73627721D01*
X42805807Y-73576656D01*
X42758394Y-73538292D01*
X42703784Y-73515273D01*
X42641977Y-73507600D01*
X42583293Y-73514479D01*
X42531699Y-73535117D01*
X42487196Y-73569513D01*
X42453065Y-73616926D01*
X42432586Y-73676616D01*
X42425760Y-73748583D01*
X42155250Y-73748583D01*
X42155250Y-73595230D01*
X42294315Y-73595230D01*
X42294315Y-73517125D01*
X42155250Y-73517125D01*
X42155250Y-73484740D01*
X42142510Y-73410802D01*
X42104291Y-73358534D01*
X42047260Y-73327458D01*
X41978085Y-73317100D01*
X41925221Y-73322339D01*
X41875215Y-73338055D01*
X41894265Y-73409492D01*
X41961892Y-73396157D01*
X42002493Y-73402706D01*
X42032853Y-73422351D01*
X42051784Y-73453427D01*
X42058095Y-73494265D01*
X42058095Y-73517125D01*
X41852355Y-73517125D01*
X41852355Y-73595230D01*
X39825261Y-73595230D01*
X39825261Y-73118663D01*
G37*
%TO.C,kibuzzard-65FC5A5D*%
G36*
X29666372Y-93441996D02*
G01*
X33474958Y-93441996D01*
X33833628Y-93980000D01*
X33474958Y-94518004D01*
X29666372Y-94518004D01*
X29666372Y-94065249D01*
X30508556Y-94065249D01*
X30510461Y-94096681D01*
X30860981Y-94096681D01*
X30848598Y-94155141D01*
X30819071Y-94200980D01*
X30775256Y-94230627D01*
X30720011Y-94240509D01*
X30665083Y-94232360D01*
X30626031Y-94207912D01*
X30602853Y-94167166D01*
X30509508Y-94167166D01*
X30534988Y-94230865D01*
X30580946Y-94279085D01*
X30643811Y-94309446D01*
X30720011Y-94319566D01*
X30784463Y-94312105D01*
X30789645Y-94310041D01*
X31053386Y-94310041D01*
X31144826Y-94310041D01*
X31144826Y-93967141D01*
X31158161Y-93923803D01*
X31194356Y-93907134D01*
X31236742Y-93926660D01*
X31253411Y-93979524D01*
X31253411Y-94310041D01*
X31344851Y-94310041D01*
X31344851Y-93971904D01*
X31358662Y-93924755D01*
X31395333Y-93907134D01*
X31436767Y-93925231D01*
X31453436Y-93976666D01*
X31453436Y-94310041D01*
X31543923Y-94310041D01*
X31657271Y-94310041D01*
X32083991Y-94310041D01*
X32083991Y-94234794D01*
X31918256Y-94234794D01*
X31918256Y-93911896D01*
X32221151Y-93911896D01*
X32414508Y-93911896D01*
X32414508Y-94141449D01*
X32402973Y-94195424D01*
X32368365Y-94227809D01*
X32310686Y-94238604D01*
X32247821Y-94230984D01*
X32247821Y-94309089D01*
X32290207Y-94316947D01*
X32333546Y-94319566D01*
X32397668Y-94313089D01*
X32447541Y-94293658D01*
X32483165Y-94261273D01*
X32504539Y-94215934D01*
X32511663Y-94157641D01*
X32511663Y-93911896D01*
X32663111Y-93911896D01*
X32663111Y-93833791D01*
X32585006Y-93833791D01*
X32520712Y-93814741D01*
X32502138Y-93748066D01*
X32502138Y-93704251D01*
X32414508Y-93704251D01*
X32414508Y-93833791D01*
X32221151Y-93833791D01*
X32221151Y-93911896D01*
X31918256Y-93911896D01*
X31918256Y-93909039D01*
X32074466Y-93909039D01*
X32074466Y-93833791D01*
X31822053Y-93833791D01*
X31822053Y-94234794D01*
X31657271Y-94234794D01*
X31657271Y-94310041D01*
X31543923Y-94310041D01*
X31543923Y-93833791D01*
X31462008Y-93833791D01*
X31453436Y-93870939D01*
X31445816Y-93870939D01*
X31409383Y-93835934D01*
X31359138Y-93824266D01*
X31300560Y-93841411D01*
X31268651Y-93881416D01*
X31261031Y-93881416D01*
X31221264Y-93838554D01*
X31161018Y-93824266D01*
X31117203Y-93832243D01*
X31082913Y-93856175D01*
X31060768Y-93896061D01*
X31053386Y-93951901D01*
X31053386Y-94310041D01*
X30789645Y-94310041D01*
X30840661Y-94289721D01*
X30888603Y-94252415D01*
X30925116Y-94203044D01*
X30947023Y-94144465D01*
X30954326Y-94076679D01*
X30947023Y-94005506D01*
X30925116Y-93944387D01*
X30888603Y-93893323D01*
X30841190Y-93854958D01*
X30786580Y-93831939D01*
X30724773Y-93824266D01*
X30666089Y-93831145D01*
X30614495Y-93851783D01*
X30569992Y-93886179D01*
X30535861Y-93933592D01*
X30515382Y-93993282D01*
X30508556Y-94065249D01*
X29666372Y-94065249D01*
X29666372Y-93701394D01*
X31807766Y-93701394D01*
X31825863Y-93744733D01*
X31868726Y-93763306D01*
X31913017Y-93744733D01*
X31931591Y-93701394D01*
X31913017Y-93658055D01*
X31875907Y-93643291D01*
X32750741Y-93643291D01*
X32952671Y-94310041D01*
X33075543Y-94310041D01*
X33276521Y-93643291D01*
X33168888Y-93643291D01*
X33017441Y-94165261D01*
X33009821Y-94165261D01*
X32858373Y-93643291D01*
X32750741Y-93643291D01*
X31875907Y-93643291D01*
X31868726Y-93640434D01*
X31825863Y-93658055D01*
X31807766Y-93701394D01*
X29666372Y-93701394D01*
X29666372Y-93441996D01*
G37*
G36*
X30774065Y-93912253D02*
G01*
X30815261Y-93939042D01*
X30845027Y-93979167D01*
X30860028Y-94028101D01*
X30601901Y-94028101D01*
X30611069Y-93977976D01*
X30636667Y-93938090D01*
X30675601Y-93912015D01*
X30724773Y-93903324D01*
X30774065Y-93912253D01*
G37*
%TO.C,kibuzzard-65AAA47E*%
G36*
X33100467Y-78814295D02*
G01*
X32930922Y-78814295D01*
X33012837Y-78529497D01*
X33019505Y-78529497D01*
X33100467Y-78814295D01*
G37*
G36*
X29668436Y-78208187D02*
G01*
X33477022Y-78208187D01*
X33831564Y-78740000D01*
X33477022Y-79271813D01*
X29668436Y-79271813D01*
X29668436Y-79073375D01*
X31088787Y-79073375D01*
X31185942Y-79073375D01*
X31185942Y-78792388D01*
X31193681Y-78739048D01*
X31216898Y-78700947D01*
X31252260Y-78678087D01*
X31296432Y-78670467D01*
X31344057Y-78678564D01*
X31382157Y-78702852D01*
X31407160Y-78743334D01*
X31415495Y-78800008D01*
X31415495Y-79073375D01*
X31512650Y-79073375D01*
X31656477Y-79073375D01*
X32089865Y-79073375D01*
X32752805Y-79073375D01*
X32856627Y-79073375D01*
X32907110Y-78899068D01*
X33125232Y-78899068D01*
X33174762Y-79073375D01*
X33278585Y-79073375D01*
X33076655Y-78406625D01*
X32954735Y-78406625D01*
X32752805Y-79073375D01*
X32089865Y-79073375D01*
X32089865Y-78984793D01*
X31922225Y-78984793D01*
X31922225Y-78495208D01*
X32085102Y-78495208D01*
X32085102Y-78406625D01*
X31661240Y-78406625D01*
X31661240Y-78495208D01*
X31822212Y-78495208D01*
X31822212Y-78984793D01*
X31656477Y-78984793D01*
X31656477Y-79073375D01*
X31512650Y-79073375D01*
X31512650Y-78597125D01*
X31425020Y-78597125D01*
X31415495Y-78656180D01*
X31408827Y-78656180D01*
X31371680Y-78618080D01*
X31323737Y-78595220D01*
X31265000Y-78587600D01*
X31192967Y-78599982D01*
X31136888Y-78637130D01*
X31100813Y-78696423D01*
X31088787Y-78775242D01*
X31088787Y-79073375D01*
X29668436Y-79073375D01*
X29668436Y-78208187D01*
G37*
%TO.C,kibuzzard-65AAA44C*%
G36*
X32012395Y-61202887D02*
G01*
X31949530Y-61202887D01*
X31892327Y-61195955D01*
X31845178Y-61175159D01*
X31808083Y-61140499D01*
X31781361Y-61092503D01*
X31765327Y-61031702D01*
X31759982Y-60958095D01*
X31765247Y-60884461D01*
X31781043Y-60824216D01*
X31807369Y-60777358D01*
X31844226Y-60743888D01*
X31891612Y-60723806D01*
X31949530Y-60717113D01*
X32012395Y-60717113D01*
X32012395Y-61202887D01*
G37*
G36*
X29665261Y-60418663D02*
G01*
X33473847Y-60418663D01*
X33834739Y-60960000D01*
X33473847Y-61501337D01*
X29665261Y-61501337D01*
X29665261Y-60958095D01*
X31658065Y-60958095D01*
X31662619Y-61031646D01*
X31676281Y-61097041D01*
X31699052Y-61154280D01*
X31730931Y-61203364D01*
X31771561Y-61242744D01*
X31820585Y-61270872D01*
X31878003Y-61287749D01*
X31943815Y-61293375D01*
X32112407Y-61293375D01*
X32245757Y-61293375D01*
X32346722Y-61293375D01*
X32583895Y-60817125D01*
X32590562Y-60817125D01*
X32590562Y-61293375D01*
X32683907Y-61293375D01*
X32809637Y-61293375D01*
X32886790Y-61293375D01*
X32898220Y-61236225D01*
X32904887Y-61236225D01*
X32952036Y-61280992D01*
X32993589Y-61297423D01*
X33046810Y-61302900D01*
X33114278Y-61293322D01*
X33170635Y-61264588D01*
X33215878Y-61216699D01*
X33241923Y-61169044D01*
X33260527Y-61112281D01*
X33271689Y-61046410D01*
X33275410Y-60971430D01*
X33271302Y-60892640D01*
X33258979Y-60822959D01*
X33238441Y-60762386D01*
X33209687Y-60710921D01*
X33160263Y-60658798D01*
X33099621Y-60627525D01*
X33027760Y-60617100D01*
X32971774Y-60623080D01*
X32923196Y-60641018D01*
X32882027Y-60670916D01*
X32849536Y-60711503D01*
X32826994Y-60761510D01*
X32814400Y-60820935D01*
X32919175Y-60820935D01*
X32941823Y-60759022D01*
X32978018Y-60721875D01*
X33027760Y-60709492D01*
X33088720Y-60726280D01*
X33134440Y-60776644D01*
X33155606Y-60828132D01*
X33168306Y-60893060D01*
X33172540Y-60971430D01*
X33166787Y-61058869D01*
X33149527Y-61126878D01*
X33120762Y-61175456D01*
X33080490Y-61204602D01*
X33028712Y-61214317D01*
X32978349Y-61205269D01*
X32939653Y-61178123D01*
X32915008Y-61134069D01*
X32906792Y-61074300D01*
X32906792Y-61020960D01*
X33033475Y-61020960D01*
X33033475Y-60940950D01*
X32809637Y-60940950D01*
X32809637Y-61293375D01*
X32683907Y-61293375D01*
X32683907Y-60626625D01*
X32582942Y-60626625D01*
X32345770Y-61103828D01*
X32339102Y-61103828D01*
X32339102Y-60626625D01*
X32245757Y-60626625D01*
X32245757Y-61293375D01*
X32112407Y-61293375D01*
X32112407Y-60626625D01*
X31943815Y-60626625D01*
X31878390Y-60632191D01*
X31821180Y-60648890D01*
X31772186Y-60676721D01*
X31731407Y-60715684D01*
X31699320Y-60764231D01*
X31676400Y-60820816D01*
X31662649Y-60885437D01*
X31658065Y-60958095D01*
X29665261Y-60958095D01*
X29665261Y-60418663D01*
G37*
%TO.C,kibuzzard-65AA5A57*%
G36*
X43615009Y-78814295D02*
G01*
X43445464Y-78814295D01*
X43527379Y-78529497D01*
X43534046Y-78529497D01*
X43615009Y-78814295D01*
G37*
G36*
X39828436Y-78740000D02*
G01*
X40182978Y-78208187D01*
X43991564Y-78208187D01*
X43991564Y-79271813D01*
X40182978Y-79271813D01*
X40050686Y-79073375D01*
X41603329Y-79073375D01*
X41700484Y-79073375D01*
X41700484Y-78792388D01*
X41708223Y-78739048D01*
X41731440Y-78700947D01*
X41766802Y-78678087D01*
X41810974Y-78670467D01*
X41858599Y-78678564D01*
X41896699Y-78702852D01*
X41921702Y-78743334D01*
X41930036Y-78800008D01*
X41930036Y-79073375D01*
X42027191Y-79073375D01*
X42171019Y-79073375D01*
X42604406Y-79073375D01*
X43267346Y-79073375D01*
X43371169Y-79073375D01*
X43421651Y-78899068D01*
X43639774Y-78899068D01*
X43689304Y-79073375D01*
X43793126Y-79073375D01*
X43591196Y-78406625D01*
X43469276Y-78406625D01*
X43267346Y-79073375D01*
X42604406Y-79073375D01*
X42604406Y-78984793D01*
X42436766Y-78984793D01*
X42436766Y-78495208D01*
X42599644Y-78495208D01*
X42599644Y-78406625D01*
X42175781Y-78406625D01*
X42175781Y-78495208D01*
X42336754Y-78495208D01*
X42336754Y-78984793D01*
X42171019Y-78984793D01*
X42171019Y-79073375D01*
X42027191Y-79073375D01*
X42027191Y-78597125D01*
X41939561Y-78597125D01*
X41930036Y-78656180D01*
X41923369Y-78656180D01*
X41886221Y-78618080D01*
X41838279Y-78595220D01*
X41779541Y-78587600D01*
X41707509Y-78599982D01*
X41651430Y-78637130D01*
X41615354Y-78696423D01*
X41603329Y-78775242D01*
X41603329Y-79073375D01*
X40050686Y-79073375D01*
X39828436Y-78740000D01*
G37*
%TO.C,kibuzzard-65AAA3AC*%
G36*
X29665261Y-71120000D02*
G01*
X30026153Y-70578663D01*
X33834739Y-70578663D01*
X33834739Y-71661337D01*
X30026153Y-71661337D01*
X29887511Y-71453375D01*
X32016099Y-71453375D01*
X32130399Y-71453375D01*
X32332329Y-71156195D01*
X32377096Y-71156195D01*
X32377096Y-71453375D01*
X32477109Y-71453375D01*
X32615221Y-71453375D01*
X33039084Y-71453375D01*
X33039084Y-71246683D01*
X33160051Y-71246683D01*
X33174180Y-71312035D01*
X33198786Y-71365851D01*
X33233870Y-71408131D01*
X33277738Y-71438558D01*
X33328697Y-71456815D01*
X33386746Y-71462900D01*
X33461094Y-71452846D01*
X33522848Y-71422683D01*
X33572008Y-71372413D01*
X33600136Y-71322883D01*
X33620228Y-71264780D01*
X33632283Y-71198105D01*
X33636301Y-71122858D01*
X33632194Y-71046271D01*
X33619871Y-70978435D01*
X33599332Y-70919350D01*
X33570579Y-70869016D01*
X33520943Y-70817952D01*
X33459666Y-70787313D01*
X33386746Y-70777100D01*
X33329596Y-70783132D01*
X33280066Y-70801230D01*
X33238156Y-70831392D01*
X33204925Y-70874043D01*
X33181430Y-70929606D01*
X33167671Y-70998080D01*
X33270541Y-70998080D01*
X33291920Y-70926642D01*
X33330655Y-70883780D01*
X33386746Y-70869492D01*
X33448659Y-70886280D01*
X33495331Y-70936644D01*
X33517027Y-70987179D01*
X33530045Y-71049250D01*
X33534384Y-71122858D01*
X33529992Y-71197100D01*
X33516816Y-71258536D01*
X33494855Y-71307166D01*
X33448064Y-71354672D01*
X33386746Y-71370508D01*
X33328538Y-71356749D01*
X33287263Y-71315474D01*
X33262921Y-71246683D01*
X33160051Y-71246683D01*
X33039084Y-71246683D01*
X33039084Y-70786625D01*
X32937166Y-70786625D01*
X32937166Y-71362887D01*
X32615221Y-71362887D01*
X32615221Y-71453375D01*
X32477109Y-71453375D01*
X32477109Y-70786625D01*
X32377096Y-70786625D01*
X32377096Y-71065707D01*
X32332329Y-71065707D01*
X32152306Y-70786625D01*
X32038006Y-70786625D01*
X32239936Y-71105713D01*
X32239936Y-71110475D01*
X32016099Y-71453375D01*
X29887511Y-71453375D01*
X29665261Y-71120000D01*
G37*
%TO.C,kibuzzard-65AAA44C*%
G36*
X32012395Y-91682887D02*
G01*
X31949530Y-91682887D01*
X31892327Y-91675955D01*
X31845178Y-91655159D01*
X31808083Y-91620499D01*
X31781361Y-91572503D01*
X31765327Y-91511702D01*
X31759982Y-91438095D01*
X31765247Y-91364461D01*
X31781043Y-91304216D01*
X31807369Y-91257358D01*
X31844226Y-91223888D01*
X31891612Y-91203806D01*
X31949530Y-91197113D01*
X32012395Y-91197113D01*
X32012395Y-91682887D01*
G37*
G36*
X29665261Y-90898663D02*
G01*
X33473847Y-90898663D01*
X33834739Y-91440000D01*
X33473847Y-91981337D01*
X29665261Y-91981337D01*
X29665261Y-91438095D01*
X31658065Y-91438095D01*
X31662619Y-91511646D01*
X31676281Y-91577041D01*
X31699052Y-91634280D01*
X31730931Y-91683364D01*
X31771561Y-91722744D01*
X31820585Y-91750872D01*
X31878003Y-91767749D01*
X31943815Y-91773375D01*
X32112407Y-91773375D01*
X32245757Y-91773375D01*
X32346722Y-91773375D01*
X32583895Y-91297125D01*
X32590562Y-91297125D01*
X32590562Y-91773375D01*
X32683907Y-91773375D01*
X32809637Y-91773375D01*
X32886790Y-91773375D01*
X32898220Y-91716225D01*
X32904887Y-91716225D01*
X32952036Y-91760992D01*
X32993589Y-91777423D01*
X33046810Y-91782900D01*
X33114278Y-91773322D01*
X33170635Y-91744588D01*
X33215878Y-91696699D01*
X33241923Y-91649044D01*
X33260527Y-91592281D01*
X33271689Y-91526410D01*
X33275410Y-91451430D01*
X33271302Y-91372640D01*
X33258979Y-91302959D01*
X33238441Y-91242386D01*
X33209687Y-91190921D01*
X33160263Y-91138798D01*
X33099621Y-91107525D01*
X33027760Y-91097100D01*
X32971774Y-91103080D01*
X32923196Y-91121018D01*
X32882027Y-91150916D01*
X32849536Y-91191503D01*
X32826994Y-91241510D01*
X32814400Y-91300935D01*
X32919175Y-91300935D01*
X32941823Y-91239022D01*
X32978018Y-91201875D01*
X33027760Y-91189492D01*
X33088720Y-91206280D01*
X33134440Y-91256644D01*
X33155606Y-91308132D01*
X33168306Y-91373060D01*
X33172540Y-91451430D01*
X33166787Y-91538869D01*
X33149527Y-91606878D01*
X33120762Y-91655456D01*
X33080490Y-91684602D01*
X33028712Y-91694317D01*
X32978349Y-91685269D01*
X32939653Y-91658123D01*
X32915008Y-91614069D01*
X32906792Y-91554300D01*
X32906792Y-91500960D01*
X33033475Y-91500960D01*
X33033475Y-91420950D01*
X32809637Y-91420950D01*
X32809637Y-91773375D01*
X32683907Y-91773375D01*
X32683907Y-91106625D01*
X32582942Y-91106625D01*
X32345770Y-91583828D01*
X32339102Y-91583828D01*
X32339102Y-91106625D01*
X32245757Y-91106625D01*
X32245757Y-91773375D01*
X32112407Y-91773375D01*
X32112407Y-91106625D01*
X31943815Y-91106625D01*
X31878390Y-91112191D01*
X31821180Y-91128890D01*
X31772186Y-91156721D01*
X31731407Y-91195684D01*
X31699320Y-91244231D01*
X31676400Y-91300816D01*
X31662649Y-91365437D01*
X31658065Y-91438095D01*
X29665261Y-91438095D01*
X29665261Y-90898663D01*
G37*
%TO.C,kibuzzard-65AA5AB7*%
G36*
X39825261Y-88358663D02*
G01*
X43633847Y-88358663D01*
X43994739Y-88900000D01*
X43633847Y-89441337D01*
X39825261Y-89441337D01*
X39825261Y-88835230D01*
X40139760Y-88835230D01*
X40333117Y-88835230D01*
X40333117Y-89064782D01*
X40321581Y-89118757D01*
X40286974Y-89151143D01*
X40229295Y-89161938D01*
X40166430Y-89154317D01*
X40166430Y-89232423D01*
X40208816Y-89240281D01*
X40252155Y-89242900D01*
X40316277Y-89236423D01*
X40324100Y-89233375D01*
X40720785Y-89233375D01*
X40808415Y-89233375D01*
X40817940Y-89174320D01*
X40824607Y-89174320D01*
X40861755Y-89212420D01*
X40909697Y-89235280D01*
X40968435Y-89242900D01*
X41040468Y-89230517D01*
X41096546Y-89193370D01*
X41132622Y-89134077D01*
X41144647Y-89055258D01*
X41144647Y-88900000D01*
X41264662Y-88900000D01*
X41268681Y-88975724D01*
X41280736Y-89042875D01*
X41300827Y-89101454D01*
X41328956Y-89151460D01*
X41376846Y-89202260D01*
X41434789Y-89232740D01*
X41502787Y-89242900D01*
X41571314Y-89232846D01*
X41629576Y-89202683D01*
X41677571Y-89152413D01*
X41705699Y-89102704D01*
X41715429Y-89074308D01*
X42420997Y-89074308D01*
X42445881Y-89143602D01*
X42493863Y-89197180D01*
X42536779Y-89222580D01*
X42586150Y-89237820D01*
X42641977Y-89242900D01*
X42709076Y-89235227D01*
X42713725Y-89233375D01*
X43002022Y-89233375D01*
X43435410Y-89233375D01*
X43435410Y-89144793D01*
X43267770Y-89144793D01*
X43267770Y-88655208D01*
X43430647Y-88655208D01*
X43430647Y-88566625D01*
X43006785Y-88566625D01*
X43006785Y-88655208D01*
X43167757Y-88655208D01*
X43167757Y-89144793D01*
X43002022Y-89144793D01*
X43002022Y-89233375D01*
X42713725Y-89233375D01*
X42766861Y-89212208D01*
X42815332Y-89173844D01*
X42851845Y-89123626D01*
X42873752Y-89065047D01*
X42881055Y-88998107D01*
X42873541Y-88929422D01*
X42850998Y-88869414D01*
X42813427Y-88818085D01*
X42764426Y-88778927D01*
X42707594Y-88755432D01*
X42642930Y-88747600D01*
X42589008Y-88752733D01*
X42540271Y-88768132D01*
X42496721Y-88793796D01*
X42461320Y-88828668D01*
X42437031Y-88871690D01*
X42423855Y-88922860D01*
X42521962Y-88922860D01*
X42536369Y-88886308D01*
X42562443Y-88856661D01*
X42598519Y-88837016D01*
X42642930Y-88830467D01*
X42699246Y-88842255D01*
X42744371Y-88877616D01*
X42774018Y-88931313D01*
X42783900Y-88998107D01*
X42774256Y-89062401D01*
X42745323Y-89114313D01*
X42700199Y-89148603D01*
X42641977Y-89160033D01*
X42598281Y-89154318D01*
X42562443Y-89137173D01*
X42535654Y-89110026D01*
X42519105Y-89074308D01*
X42420997Y-89074308D01*
X41715429Y-89074308D01*
X41725791Y-89044066D01*
X41737846Y-88976498D01*
X41741865Y-88900000D01*
X41737846Y-88824276D01*
X41725791Y-88757125D01*
X41705699Y-88698546D01*
X41677571Y-88648540D01*
X41629576Y-88597740D01*
X41571314Y-88567260D01*
X41502787Y-88557100D01*
X41434789Y-88567260D01*
X41376846Y-88597740D01*
X41328956Y-88648540D01*
X41300827Y-88698546D01*
X41280736Y-88757125D01*
X41268681Y-88824276D01*
X41264662Y-88900000D01*
X41144647Y-88900000D01*
X41144647Y-88757125D01*
X41047492Y-88757125D01*
X41047492Y-89038112D01*
X41039753Y-89091453D01*
X41016536Y-89129553D01*
X40981174Y-89152413D01*
X40937002Y-89160033D01*
X40889377Y-89151936D01*
X40851277Y-89127647D01*
X40826274Y-89087166D01*
X40817940Y-89030492D01*
X40817940Y-88757125D01*
X40720785Y-88757125D01*
X40720785Y-89233375D01*
X40324100Y-89233375D01*
X40366150Y-89216992D01*
X40401773Y-89184607D01*
X40423148Y-89139268D01*
X40430272Y-89080975D01*
X40430272Y-88835230D01*
X40581720Y-88835230D01*
X40581720Y-88757125D01*
X40503615Y-88757125D01*
X40439321Y-88738075D01*
X40420747Y-88671400D01*
X40420747Y-88627585D01*
X40333117Y-88627585D01*
X40333117Y-88757125D01*
X40139760Y-88757125D01*
X40139760Y-88835230D01*
X39825261Y-88835230D01*
X39825261Y-88358663D01*
G37*
G36*
X41560652Y-88665566D02*
G01*
X41604705Y-88713786D01*
X41625342Y-88763052D01*
X41637725Y-88825123D01*
X41641852Y-88900000D01*
X41637725Y-88974877D01*
X41625342Y-89036948D01*
X41604705Y-89086214D01*
X41560652Y-89134434D01*
X41502787Y-89150508D01*
X41445637Y-89134434D01*
X41401822Y-89086214D01*
X41381185Y-89036948D01*
X41368802Y-88974877D01*
X41364675Y-88900000D01*
X41368802Y-88825123D01*
X41381185Y-88763052D01*
X41401822Y-88713786D01*
X41445637Y-88665566D01*
X41502787Y-88649492D01*
X41560652Y-88665566D01*
G37*
%TO.C,kibuzzard-65AA58EE*%
G36*
X39825261Y-70578663D02*
G01*
X43633847Y-70578663D01*
X43994739Y-71120000D01*
X43633847Y-71661337D01*
X39825261Y-71661337D01*
X39825261Y-71453375D01*
X41815207Y-71453375D01*
X41929507Y-71453375D01*
X42131437Y-71156195D01*
X42176205Y-71156195D01*
X42176205Y-71453375D01*
X42276217Y-71453375D01*
X42414330Y-71453375D01*
X42838192Y-71453375D01*
X42838192Y-71246683D01*
X42959160Y-71246683D01*
X42973288Y-71312035D01*
X42997895Y-71365851D01*
X43032978Y-71408131D01*
X43076846Y-71438558D01*
X43127805Y-71456815D01*
X43185855Y-71462900D01*
X43260203Y-71452846D01*
X43321956Y-71422683D01*
X43371116Y-71372413D01*
X43399244Y-71322883D01*
X43419336Y-71264780D01*
X43431391Y-71198105D01*
X43435410Y-71122858D01*
X43431302Y-71046271D01*
X43418979Y-70978435D01*
X43398441Y-70919350D01*
X43369687Y-70869016D01*
X43320051Y-70817952D01*
X43258774Y-70787313D01*
X43185855Y-70777100D01*
X43128705Y-70783132D01*
X43079175Y-70801230D01*
X43037265Y-70831392D01*
X43004033Y-70874043D01*
X42980538Y-70929606D01*
X42966780Y-70998080D01*
X43069650Y-70998080D01*
X43091028Y-70926642D01*
X43129763Y-70883780D01*
X43185855Y-70869492D01*
X43247767Y-70886280D01*
X43294440Y-70936644D01*
X43316136Y-70987179D01*
X43329153Y-71049250D01*
X43333492Y-71122858D01*
X43329100Y-71197100D01*
X43315924Y-71258536D01*
X43293963Y-71307166D01*
X43247172Y-71354672D01*
X43185855Y-71370508D01*
X43127646Y-71356749D01*
X43086371Y-71315474D01*
X43062030Y-71246683D01*
X42959160Y-71246683D01*
X42838192Y-71246683D01*
X42838192Y-70786625D01*
X42736275Y-70786625D01*
X42736275Y-71362887D01*
X42414330Y-71362887D01*
X42414330Y-71453375D01*
X42276217Y-71453375D01*
X42276217Y-70786625D01*
X42176205Y-70786625D01*
X42176205Y-71065707D01*
X42131437Y-71065707D01*
X41951415Y-70786625D01*
X41837115Y-70786625D01*
X42039045Y-71105713D01*
X42039045Y-71110475D01*
X41815207Y-71453375D01*
X39825261Y-71453375D01*
X39825261Y-70578663D01*
G37*
%TO.C,kibuzzard-65AA592D*%
G36*
X43257292Y-81354295D02*
G01*
X43087747Y-81354295D01*
X43169662Y-81069497D01*
X43176330Y-81069497D01*
X43257292Y-81354295D01*
G37*
G36*
X39825261Y-80738663D02*
G01*
X43633847Y-80738663D01*
X43994739Y-81280000D01*
X43633847Y-81821337D01*
X39825261Y-81821337D01*
X39825261Y-81215230D01*
X40665540Y-81215230D01*
X40858897Y-81215230D01*
X40858897Y-81444782D01*
X40847361Y-81498757D01*
X40812754Y-81531143D01*
X40755075Y-81541938D01*
X40692210Y-81534317D01*
X40692210Y-81612423D01*
X40734596Y-81620281D01*
X40777935Y-81622900D01*
X40842057Y-81616423D01*
X40849880Y-81613375D01*
X41246565Y-81613375D01*
X41334195Y-81613375D01*
X41343720Y-81554320D01*
X41350387Y-81554320D01*
X41387535Y-81592420D01*
X41435477Y-81615280D01*
X41494215Y-81622900D01*
X41566248Y-81610517D01*
X41622326Y-81573370D01*
X41658402Y-81514077D01*
X41670427Y-81435258D01*
X41670427Y-81280000D01*
X41790442Y-81280000D01*
X41794461Y-81355724D01*
X41806516Y-81422875D01*
X41826607Y-81481454D01*
X41854736Y-81531460D01*
X41902626Y-81582260D01*
X41960569Y-81612740D01*
X42028567Y-81622900D01*
X42093488Y-81613375D01*
X42909630Y-81613375D01*
X43013452Y-81613375D01*
X43063935Y-81439068D01*
X43282057Y-81439068D01*
X43331587Y-81613375D01*
X43435410Y-81613375D01*
X43233480Y-80946625D01*
X43111560Y-80946625D01*
X42909630Y-81613375D01*
X42093488Y-81613375D01*
X42097094Y-81612846D01*
X42155356Y-81582683D01*
X42203351Y-81532413D01*
X42231479Y-81482704D01*
X42251571Y-81424066D01*
X42263626Y-81356498D01*
X42267645Y-81280000D01*
X42263626Y-81204276D01*
X42251571Y-81137125D01*
X42231479Y-81078546D01*
X42203351Y-81028540D01*
X42155356Y-80977740D01*
X42097094Y-80947260D01*
X42028567Y-80937100D01*
X41960569Y-80947260D01*
X41902626Y-80977740D01*
X41854736Y-81028540D01*
X41826607Y-81078546D01*
X41806516Y-81137125D01*
X41794461Y-81204276D01*
X41790442Y-81280000D01*
X41670427Y-81280000D01*
X41670427Y-81137125D01*
X41573272Y-81137125D01*
X41573272Y-81418112D01*
X41565533Y-81471453D01*
X41542316Y-81509553D01*
X41506954Y-81532413D01*
X41462782Y-81540033D01*
X41415157Y-81531936D01*
X41377057Y-81507647D01*
X41352054Y-81467166D01*
X41343720Y-81410492D01*
X41343720Y-81137125D01*
X41246565Y-81137125D01*
X41246565Y-81613375D01*
X40849880Y-81613375D01*
X40891930Y-81596992D01*
X40927553Y-81564607D01*
X40948928Y-81519268D01*
X40956052Y-81460975D01*
X40956052Y-81215230D01*
X41107500Y-81215230D01*
X41107500Y-81137125D01*
X41029395Y-81137125D01*
X40965101Y-81118075D01*
X40946527Y-81051400D01*
X40946527Y-81007585D01*
X40858897Y-81007585D01*
X40858897Y-81137125D01*
X40665540Y-81137125D01*
X40665540Y-81215230D01*
X39825261Y-81215230D01*
X39825261Y-80738663D01*
G37*
G36*
X42086432Y-81045566D02*
G01*
X42130485Y-81093786D01*
X42151122Y-81143052D01*
X42163505Y-81205123D01*
X42167632Y-81280000D01*
X42163505Y-81354877D01*
X42151122Y-81416948D01*
X42130485Y-81466214D01*
X42086432Y-81514434D01*
X42028567Y-81530508D01*
X41971417Y-81514434D01*
X41927602Y-81466214D01*
X41906965Y-81416948D01*
X41894582Y-81354877D01*
X41890455Y-81280000D01*
X41894582Y-81205123D01*
X41906965Y-81143052D01*
X41927602Y-81093786D01*
X41971417Y-81045566D01*
X42028567Y-81029492D01*
X42086432Y-81045566D01*
G37*
%TO.C,kibuzzard-65AAA44C*%
G36*
X29665261Y-68038663D02*
G01*
X33473847Y-68038663D01*
X33834739Y-68580000D01*
X33473847Y-69121337D01*
X29665261Y-69121337D01*
X29665261Y-68578095D01*
X31658065Y-68578095D01*
X31662619Y-68651646D01*
X31676281Y-68717041D01*
X31699052Y-68774280D01*
X31730931Y-68823364D01*
X31771561Y-68862744D01*
X31820585Y-68890872D01*
X31878003Y-68907749D01*
X31943815Y-68913375D01*
X32112407Y-68913375D01*
X32245757Y-68913375D01*
X32346722Y-68913375D01*
X32583895Y-68437125D01*
X32590562Y-68437125D01*
X32590562Y-68913375D01*
X32683907Y-68913375D01*
X32809637Y-68913375D01*
X32886790Y-68913375D01*
X32898220Y-68856225D01*
X32904887Y-68856225D01*
X32952036Y-68900992D01*
X32993589Y-68917423D01*
X33046810Y-68922900D01*
X33114278Y-68913322D01*
X33170635Y-68884588D01*
X33215878Y-68836699D01*
X33241923Y-68789044D01*
X33260527Y-68732281D01*
X33271689Y-68666410D01*
X33275410Y-68591430D01*
X33271302Y-68512640D01*
X33258979Y-68442959D01*
X33238441Y-68382386D01*
X33209687Y-68330921D01*
X33160263Y-68278798D01*
X33099621Y-68247525D01*
X33027760Y-68237100D01*
X32971774Y-68243080D01*
X32923196Y-68261018D01*
X32882027Y-68290916D01*
X32849536Y-68331503D01*
X32826994Y-68381510D01*
X32814400Y-68440935D01*
X32919175Y-68440935D01*
X32941823Y-68379022D01*
X32978018Y-68341875D01*
X33027760Y-68329492D01*
X33088720Y-68346280D01*
X33134440Y-68396644D01*
X33155606Y-68448132D01*
X33168306Y-68513060D01*
X33172540Y-68591430D01*
X33166787Y-68678869D01*
X33149527Y-68746878D01*
X33120762Y-68795456D01*
X33080490Y-68824602D01*
X33028712Y-68834317D01*
X32978349Y-68825269D01*
X32939653Y-68798123D01*
X32915008Y-68754069D01*
X32906792Y-68694300D01*
X32906792Y-68640960D01*
X33033475Y-68640960D01*
X33033475Y-68560950D01*
X32809637Y-68560950D01*
X32809637Y-68913375D01*
X32683907Y-68913375D01*
X32683907Y-68246625D01*
X32582942Y-68246625D01*
X32345770Y-68723828D01*
X32339102Y-68723828D01*
X32339102Y-68246625D01*
X32245757Y-68246625D01*
X32245757Y-68913375D01*
X32112407Y-68913375D01*
X32112407Y-68246625D01*
X31943815Y-68246625D01*
X31878390Y-68252191D01*
X31821180Y-68268890D01*
X31772186Y-68296721D01*
X31731407Y-68335684D01*
X31699320Y-68384231D01*
X31676400Y-68440816D01*
X31662649Y-68505437D01*
X31658065Y-68578095D01*
X29665261Y-68578095D01*
X29665261Y-68038663D01*
G37*
G36*
X32012395Y-68822887D02*
G01*
X31949530Y-68822887D01*
X31892327Y-68815955D01*
X31845178Y-68795159D01*
X31808083Y-68760499D01*
X31781361Y-68712503D01*
X31765327Y-68651702D01*
X31759982Y-68578095D01*
X31765247Y-68504461D01*
X31781043Y-68444216D01*
X31807369Y-68397358D01*
X31844226Y-68363888D01*
X31891612Y-68343806D01*
X31949530Y-68337113D01*
X32012395Y-68337113D01*
X32012395Y-68822887D01*
G37*
%TO.C,kibuzzard-65AA59BE*%
G36*
X39826849Y-86360000D02*
G01*
X40184565Y-85823425D01*
X43993151Y-85823425D01*
X43993151Y-86896575D01*
X40184565Y-86896575D01*
X40045924Y-86688613D01*
X41079136Y-86688613D01*
X41176291Y-86688613D01*
X41176291Y-86407625D01*
X41184030Y-86354285D01*
X41207248Y-86316185D01*
X41242609Y-86293325D01*
X41286781Y-86285705D01*
X41334406Y-86293801D01*
X41372506Y-86318090D01*
X41397510Y-86358571D01*
X41405844Y-86415245D01*
X41405844Y-86688613D01*
X41502999Y-86688613D01*
X41646826Y-86688613D01*
X42080214Y-86688613D01*
X42080214Y-86600030D01*
X41912574Y-86600030D01*
X41912574Y-86529545D01*
X42780301Y-86529545D01*
X42805185Y-86598839D01*
X42853168Y-86652418D01*
X42896083Y-86677818D01*
X42945454Y-86693058D01*
X43001281Y-86698138D01*
X43068380Y-86690465D01*
X43073029Y-86688613D01*
X43361326Y-86688613D01*
X43794714Y-86688613D01*
X43794714Y-86600030D01*
X43627074Y-86600030D01*
X43627074Y-86110445D01*
X43789951Y-86110445D01*
X43789951Y-86021862D01*
X43366089Y-86021862D01*
X43366089Y-86110445D01*
X43527061Y-86110445D01*
X43527061Y-86600030D01*
X43361326Y-86600030D01*
X43361326Y-86688613D01*
X43073029Y-86688613D01*
X43126165Y-86667446D01*
X43174636Y-86629081D01*
X43211149Y-86578863D01*
X43233056Y-86520285D01*
X43240359Y-86453345D01*
X43232845Y-86384659D01*
X43210302Y-86324652D01*
X43172731Y-86273323D01*
X43123731Y-86234164D01*
X43066898Y-86210669D01*
X43002234Y-86202838D01*
X42948312Y-86207970D01*
X42899576Y-86223369D01*
X42856025Y-86249034D01*
X42820624Y-86283906D01*
X42796335Y-86326927D01*
X42783159Y-86378098D01*
X42881266Y-86378098D01*
X42895673Y-86341545D01*
X42921748Y-86311899D01*
X42957824Y-86292253D01*
X43002234Y-86285705D01*
X43058550Y-86297492D01*
X43103675Y-86332854D01*
X43133322Y-86386551D01*
X43143204Y-86453345D01*
X43133560Y-86517639D01*
X43104628Y-86569550D01*
X43059503Y-86603840D01*
X43001281Y-86615270D01*
X42957585Y-86609555D01*
X42921748Y-86592410D01*
X42894959Y-86565264D01*
X42878409Y-86529545D01*
X42780301Y-86529545D01*
X41912574Y-86529545D01*
X41912574Y-86110445D01*
X42075451Y-86110445D01*
X42075451Y-86021862D01*
X41651589Y-86021862D01*
X41651589Y-86110445D01*
X41812561Y-86110445D01*
X41812561Y-86600030D01*
X41646826Y-86600030D01*
X41646826Y-86688613D01*
X41502999Y-86688613D01*
X41502999Y-86212363D01*
X41415369Y-86212363D01*
X41405844Y-86271418D01*
X41399176Y-86271418D01*
X41362029Y-86233317D01*
X41314086Y-86210458D01*
X41255349Y-86202838D01*
X41183316Y-86215220D01*
X41127238Y-86252368D01*
X41091162Y-86311661D01*
X41079136Y-86390480D01*
X41079136Y-86688613D01*
X40045924Y-86688613D01*
X39826849Y-86360000D01*
G37*
%TD*%
%LPC*%
D13*
%TO.C,H103*%
X30480000Y-99060000D03*
%TD*%
D14*
%TO.C,H102*%
X30480000Y-53340000D03*
%TD*%
D13*
%TO.C,H101*%
X43180000Y-99060000D03*
%TD*%
D14*
%TO.C,H104*%
X43180000Y-53340000D03*
%TD*%
D15*
%TO.C,J103*%
X27940000Y-58420000D03*
D16*
X27940000Y-60960000D03*
X27940000Y-63500000D03*
X27940000Y-66040000D03*
X27940000Y-68580000D03*
X27940000Y-71120000D03*
X27940000Y-73660000D03*
X27940000Y-76200000D03*
X27940000Y-78740000D03*
X27940000Y-81280000D03*
X27940000Y-83820000D03*
X27940000Y-86360000D03*
X27940000Y-88900000D03*
X27940000Y-91440000D03*
X27940000Y-93980000D03*
%TD*%
D15*
%TO.C,J104*%
X45720000Y-58420000D03*
D16*
X45720000Y-60960000D03*
X45720000Y-63500000D03*
X45720000Y-66040000D03*
X45720000Y-68580000D03*
X45720000Y-71120000D03*
X45720000Y-73660000D03*
X45720000Y-76200000D03*
X45720000Y-78740000D03*
X45720000Y-81280000D03*
X45720000Y-83820000D03*
X45720000Y-86360000D03*
X45720000Y-88900000D03*
X45720000Y-91440000D03*
X45720000Y-93980000D03*
%TD*%
M02*
