%TF.GenerationSoftware,KiCad,Pcbnew,(6.0.9-0)*%
%TF.CreationDate,2025-08-18T12:38:07+02:00*%
%TF.ProjectId,pt-workshop,70742d77-6f72-46b7-9368-6f702e6b6963,rev?*%
%TF.SameCoordinates,Original*%
%TF.FileFunction,Legend,Bot*%
%TF.FilePolarity,Positive*%
%FSLAX46Y46*%
G04 Gerber Fmt 4.6, Leading zero omitted, Abs format (unit mm)*
G04 Created by KiCad (PCBNEW (6.0.9-0)) date 2025-08-18 12:38:07*
%MOMM*%
%LPD*%
G01*
G04 APERTURE LIST*
%ADD10C,0.120000*%
%ADD11C,0.110000*%
%ADD12C,5.500000*%
%ADD13C,3.200000*%
%ADD14R,1.700000X1.700000*%
%ADD15O,1.700000X1.700000*%
G04 APERTURE END LIST*
D10*
X41401428Y-102698571D02*
X41401428Y-103498571D01*
X41401428Y-102736666D02*
X41325238Y-102698571D01*
X41172857Y-102698571D01*
X41096666Y-102736666D01*
X41058571Y-102774761D01*
X41020476Y-102850952D01*
X41020476Y-103079523D01*
X41058571Y-103155714D01*
X41096666Y-103193809D01*
X41172857Y-103231904D01*
X41325238Y-103231904D01*
X41401428Y-103193809D01*
X40372857Y-103193809D02*
X40449047Y-103231904D01*
X40601428Y-103231904D01*
X40677619Y-103193809D01*
X40715714Y-103117619D01*
X40715714Y-102812857D01*
X40677619Y-102736666D01*
X40601428Y-102698571D01*
X40449047Y-102698571D01*
X40372857Y-102736666D01*
X40334761Y-102812857D01*
X40334761Y-102889047D01*
X40715714Y-102965238D01*
X39649047Y-103231904D02*
X39649047Y-102431904D01*
X39649047Y-103193809D02*
X39725238Y-103231904D01*
X39877619Y-103231904D01*
X39953809Y-103193809D01*
X39991904Y-103155714D01*
X40030000Y-103079523D01*
X40030000Y-102850952D01*
X39991904Y-102774761D01*
X39953809Y-102736666D01*
X39877619Y-102698571D01*
X39725238Y-102698571D01*
X39649047Y-102736666D01*
X38925238Y-103231904D02*
X38925238Y-102812857D01*
X38963333Y-102736666D01*
X39039523Y-102698571D01*
X39191904Y-102698571D01*
X39268095Y-102736666D01*
X38925238Y-103193809D02*
X39001428Y-103231904D01*
X39191904Y-103231904D01*
X39268095Y-103193809D01*
X39306190Y-103117619D01*
X39306190Y-103041428D01*
X39268095Y-102965238D01*
X39191904Y-102927142D01*
X39001428Y-102927142D01*
X38925238Y-102889047D01*
X38430000Y-103231904D02*
X38506190Y-103193809D01*
X38544285Y-103117619D01*
X38544285Y-102431904D01*
X38125238Y-103231904D02*
X38125238Y-102698571D01*
X38125238Y-102774761D02*
X38087142Y-102736666D01*
X38010952Y-102698571D01*
X37896666Y-102698571D01*
X37820476Y-102736666D01*
X37782380Y-102812857D01*
X37782380Y-103231904D01*
X37782380Y-102812857D02*
X37744285Y-102736666D01*
X37668095Y-102698571D01*
X37553809Y-102698571D01*
X37477619Y-102736666D01*
X37439523Y-102812857D01*
X37439523Y-103231904D01*
X36715714Y-103231904D02*
X36715714Y-102812857D01*
X36753809Y-102736666D01*
X36830000Y-102698571D01*
X36982380Y-102698571D01*
X37058571Y-102736666D01*
X36715714Y-103193809D02*
X36791904Y-103231904D01*
X36982380Y-103231904D01*
X37058571Y-103193809D01*
X37096666Y-103117619D01*
X37096666Y-103041428D01*
X37058571Y-102965238D01*
X36982380Y-102927142D01*
X36791904Y-102927142D01*
X36715714Y-102889047D01*
X36334761Y-103231904D02*
X36334761Y-102698571D01*
X36334761Y-102850952D02*
X36296666Y-102774761D01*
X36258571Y-102736666D01*
X36182380Y-102698571D01*
X36106190Y-102698571D01*
X35839523Y-103231904D02*
X35839523Y-102431904D01*
X35763333Y-102927142D02*
X35534761Y-103231904D01*
X35534761Y-102698571D02*
X35839523Y-103003333D01*
X35306190Y-102698571D02*
X35001428Y-102698571D01*
X35191904Y-102431904D02*
X35191904Y-103117619D01*
X35153809Y-103193809D01*
X35077619Y-103231904D01*
X35001428Y-103231904D01*
X34734761Y-103155714D02*
X34696666Y-103193809D01*
X34734761Y-103231904D01*
X34772857Y-103193809D01*
X34734761Y-103155714D01*
X34734761Y-103231904D01*
X34010952Y-103193809D02*
X34087142Y-103231904D01*
X34239523Y-103231904D01*
X34315714Y-103193809D01*
X34353809Y-103155714D01*
X34391904Y-103079523D01*
X34391904Y-102850952D01*
X34353809Y-102774761D01*
X34315714Y-102736666D01*
X34239523Y-102698571D01*
X34087142Y-102698571D01*
X34010952Y-102736666D01*
X33553809Y-103231904D02*
X33630000Y-103193809D01*
X33668095Y-103155714D01*
X33706190Y-103079523D01*
X33706190Y-102850952D01*
X33668095Y-102774761D01*
X33630000Y-102736666D01*
X33553809Y-102698571D01*
X33439523Y-102698571D01*
X33363333Y-102736666D01*
X33325238Y-102774761D01*
X33287142Y-102850952D01*
X33287142Y-103079523D01*
X33325238Y-103155714D01*
X33363333Y-103193809D01*
X33439523Y-103231904D01*
X33553809Y-103231904D01*
X32944285Y-103231904D02*
X32944285Y-102698571D01*
X32944285Y-102774761D02*
X32906190Y-102736666D01*
X32830000Y-102698571D01*
X32715714Y-102698571D01*
X32639523Y-102736666D01*
X32601428Y-102812857D01*
X32601428Y-103231904D01*
X32601428Y-102812857D02*
X32563333Y-102736666D01*
X32487142Y-102698571D01*
X32372857Y-102698571D01*
X32296666Y-102736666D01*
X32258571Y-102812857D01*
X32258571Y-103231904D01*
D11*
X45570000Y-51723333D02*
X46036666Y-51890000D01*
X45570000Y-52056666D01*
X46036666Y-52690000D02*
X46036666Y-52290000D01*
X46036666Y-52490000D02*
X45336666Y-52490000D01*
X45436666Y-52423333D01*
X45503333Y-52356666D01*
X45536666Y-52290000D01*
X46036666Y-52990000D02*
X45570000Y-52990000D01*
X45703333Y-52990000D02*
X45636666Y-53023333D01*
X45603333Y-53056666D01*
X45570000Y-53123333D01*
X45570000Y-53190000D01*
X46003333Y-53690000D02*
X46036666Y-53623333D01*
X46036666Y-53490000D01*
X46003333Y-53423333D01*
X45936666Y-53390000D01*
X45670000Y-53390000D01*
X45603333Y-53423333D01*
X45570000Y-53490000D01*
X45570000Y-53623333D01*
X45603333Y-53690000D01*
X45670000Y-53723333D01*
X45736666Y-53723333D01*
X45803333Y-53390000D01*
X45570000Y-53956666D02*
X46036666Y-54123333D01*
X45570000Y-54290000D01*
X45336666Y-54490000D02*
X45336666Y-54923333D01*
X45603333Y-54690000D01*
X45603333Y-54790000D01*
X45636666Y-54856666D01*
X45670000Y-54890000D01*
X45736666Y-54923333D01*
X45903333Y-54923333D01*
X45970000Y-54890000D01*
X46003333Y-54856666D01*
X46036666Y-54790000D01*
X46036666Y-54590000D01*
X46003333Y-54523333D01*
X45970000Y-54490000D01*
%TO.C,kibuzzard-68A2FF23*%
G36*
X39609999Y-76200000D02*
G01*
X39612116Y-76196825D01*
X41183697Y-76196825D01*
X41191287Y-76319410D01*
X41214058Y-76428402D01*
X41252009Y-76523800D01*
X41305140Y-76605606D01*
X41372857Y-76671239D01*
X41454564Y-76718120D01*
X41550260Y-76746249D01*
X41659947Y-76755625D01*
X41940934Y-76755625D01*
X42163184Y-76755625D01*
X42331459Y-76755625D01*
X42726747Y-75961875D01*
X42737859Y-75961875D01*
X42737859Y-76755625D01*
X42893434Y-76755625D01*
X43102984Y-76755625D01*
X43231572Y-76755625D01*
X43250622Y-76660375D01*
X43261734Y-76660375D01*
X43340315Y-76734988D01*
X43409570Y-76762372D01*
X43498272Y-76771500D01*
X43610720Y-76755537D01*
X43704647Y-76707647D01*
X43780053Y-76627831D01*
X43823461Y-76548407D01*
X43854467Y-76453802D01*
X43873071Y-76344016D01*
X43879272Y-76219050D01*
X43872426Y-76087734D01*
X43851887Y-75971598D01*
X43817657Y-75870643D01*
X43769734Y-75784869D01*
X43687361Y-75697997D01*
X43586290Y-75645874D01*
X43466522Y-75628500D01*
X43373212Y-75638466D01*
X43292249Y-75668364D01*
X43223634Y-75718194D01*
X43169483Y-75785839D01*
X43131912Y-75869183D01*
X43110922Y-75968225D01*
X43285547Y-75968225D01*
X43323294Y-75865037D01*
X43383619Y-75803125D01*
X43466522Y-75782488D01*
X43568122Y-75810467D01*
X43644322Y-75894406D01*
X43679599Y-75980219D01*
X43700766Y-76088434D01*
X43707822Y-76219050D01*
X43698233Y-76364782D01*
X43669468Y-76478130D01*
X43621525Y-76559093D01*
X43554406Y-76607670D01*
X43468109Y-76623863D01*
X43384170Y-76608781D01*
X43319678Y-76563538D01*
X43278601Y-76490116D01*
X43264909Y-76390500D01*
X43264909Y-76301600D01*
X43476047Y-76301600D01*
X43476047Y-76168250D01*
X43102984Y-76168250D01*
X43102984Y-76755625D01*
X42893434Y-76755625D01*
X42893434Y-75644375D01*
X42725159Y-75644375D01*
X42329872Y-76439713D01*
X42318759Y-76439713D01*
X42318759Y-75644375D01*
X42163184Y-75644375D01*
X42163184Y-76755625D01*
X41940934Y-76755625D01*
X41940934Y-75644375D01*
X41659947Y-75644375D01*
X41550905Y-75653652D01*
X41455556Y-75681483D01*
X41373899Y-75727868D01*
X41305934Y-75792806D01*
X41252455Y-75873719D01*
X41214256Y-75968027D01*
X41191337Y-76075729D01*
X41183697Y-76196825D01*
X39612116Y-76196825D01*
X40211485Y-75297771D01*
X44210001Y-75297771D01*
X44210001Y-77102229D01*
X40211485Y-77102229D01*
X39609999Y-76200000D01*
G37*
G36*
X41774247Y-76604812D02*
G01*
X41669472Y-76604812D01*
X41574134Y-76593259D01*
X41495552Y-76558599D01*
X41433728Y-76500831D01*
X41389190Y-76420839D01*
X41362467Y-76319503D01*
X41353559Y-76196825D01*
X41362335Y-76074102D01*
X41388661Y-75973693D01*
X41432537Y-75895597D01*
X41493965Y-75839814D01*
X41572943Y-75806344D01*
X41669472Y-75795188D01*
X41774247Y-75795188D01*
X41774247Y-76604812D01*
G37*
%TO.C,kibuzzard-68A2FF1E*%
G36*
X39609999Y-72757771D02*
G01*
X43608515Y-72757771D01*
X44210001Y-73660000D01*
X43608515Y-74562229D01*
X39609999Y-74562229D01*
X39609999Y-73552050D01*
X40639361Y-73552050D01*
X40982261Y-73552050D01*
X40982261Y-74215625D01*
X41144186Y-74215625D01*
X41144186Y-73807638D01*
X41595036Y-73807638D01*
X41598211Y-73860025D01*
X42182411Y-73860025D01*
X42161773Y-73957458D01*
X42112561Y-74033856D01*
X42039536Y-74083267D01*
X41947461Y-74099738D01*
X41855915Y-74086156D01*
X41790827Y-74045410D01*
X41752198Y-73977500D01*
X41596623Y-73977500D01*
X41639089Y-74083664D01*
X41715686Y-74164031D01*
X41820461Y-74214633D01*
X41947461Y-74231500D01*
X42054881Y-74219065D01*
X42063517Y-74215625D01*
X42498323Y-74215625D01*
X42677711Y-74215625D01*
X42936473Y-73761600D01*
X43114273Y-73761600D01*
X43114273Y-74215625D01*
X43277786Y-74215625D01*
X43277786Y-73104375D01*
X42895198Y-73104375D01*
X42795538Y-73114076D01*
X42710343Y-73143181D01*
X42639611Y-73191687D01*
X42586694Y-73256246D01*
X42554944Y-73333504D01*
X42544361Y-73423462D01*
X42559640Y-73530420D01*
X42605479Y-73619519D01*
X42678306Y-73687980D01*
X42774548Y-73733025D01*
X42498323Y-74215625D01*
X42063517Y-74215625D01*
X42148544Y-74181758D01*
X42228448Y-74119581D01*
X42289302Y-74037296D01*
X42325815Y-73939665D01*
X42337986Y-73826688D01*
X42325815Y-73708066D01*
X42289302Y-73606201D01*
X42228448Y-73521094D01*
X42149426Y-73457153D01*
X42058409Y-73418788D01*
X41955398Y-73406000D01*
X41857590Y-73417465D01*
X41771601Y-73451861D01*
X41697429Y-73509188D01*
X41640544Y-73588210D01*
X41606413Y-73687693D01*
X41595036Y-73807638D01*
X41144186Y-73807638D01*
X41144186Y-73552050D01*
X41375961Y-73552050D01*
X41375961Y-73421875D01*
X41144186Y-73421875D01*
X41144186Y-73367900D01*
X41122953Y-73244670D01*
X41059254Y-73157556D01*
X40964203Y-73105764D01*
X40848911Y-73088500D01*
X40760804Y-73097231D01*
X40677461Y-73123425D01*
X40709211Y-73242488D01*
X40821923Y-73220262D01*
X40889590Y-73231177D01*
X40940192Y-73263919D01*
X40971743Y-73315711D01*
X40982261Y-73383775D01*
X40982261Y-73421875D01*
X40639361Y-73421875D01*
X40639361Y-73552050D01*
X39609999Y-73552050D01*
X39609999Y-72757771D01*
G37*
G36*
X43114273Y-73617138D02*
G01*
X42917423Y-73617138D01*
X42832293Y-73604438D01*
X42767404Y-73566337D01*
X42726328Y-73507203D01*
X42712636Y-73431400D01*
X42726328Y-73355002D01*
X42767404Y-73297256D01*
X42832293Y-73260942D01*
X42917423Y-73248837D01*
X43114273Y-73248837D01*
X43114273Y-73617138D01*
G37*
G36*
X42037551Y-73552645D02*
G01*
X42106211Y-73597294D01*
X42155820Y-73664167D01*
X42180823Y-73745725D01*
X41750611Y-73745725D01*
X41765890Y-73662183D01*
X41808554Y-73595706D01*
X41873443Y-73552248D01*
X41955398Y-73537763D01*
X42037551Y-73552645D01*
G37*
%TO.C,kibuzzard-68A2FF19*%
G36*
X39609999Y-70217771D02*
G01*
X43608515Y-70217771D01*
X44210001Y-71120000D01*
X43608515Y-72022229D01*
X39609999Y-72022229D01*
X39609999Y-71675625D01*
X40577448Y-71675625D01*
X40767948Y-71675625D01*
X41104498Y-71180325D01*
X41179111Y-71180325D01*
X41179111Y-71675625D01*
X41345798Y-71675625D01*
X41575986Y-71675625D01*
X42282423Y-71675625D01*
X42282423Y-71331138D01*
X42484036Y-71331138D01*
X42507584Y-71440058D01*
X42548594Y-71529751D01*
X42607067Y-71600219D01*
X42680180Y-71650931D01*
X42765111Y-71681358D01*
X42861861Y-71691500D01*
X42985774Y-71674743D01*
X43088697Y-71624472D01*
X43170629Y-71540688D01*
X43217510Y-71458138D01*
X43250997Y-71361300D01*
X43271088Y-71250175D01*
X43277786Y-71124763D01*
X43270939Y-70997118D01*
X43250401Y-70884058D01*
X43216171Y-70785583D01*
X43168248Y-70701694D01*
X43085522Y-70616586D01*
X42983393Y-70565522D01*
X42861861Y-70548500D01*
X42766611Y-70558554D01*
X42684061Y-70588717D01*
X42614211Y-70638987D01*
X42558824Y-70710072D01*
X42519666Y-70802676D01*
X42496736Y-70916800D01*
X42668186Y-70916800D01*
X42703816Y-70797737D01*
X42768374Y-70726300D01*
X42861861Y-70702488D01*
X42965048Y-70730467D01*
X43042836Y-70814406D01*
X43078995Y-70898632D01*
X43100691Y-71002084D01*
X43107923Y-71124763D01*
X43100603Y-71248499D01*
X43078643Y-71350893D01*
X43042042Y-71431944D01*
X42964056Y-71511120D01*
X42861861Y-71537512D01*
X42764847Y-71514582D01*
X42696055Y-71445790D01*
X42655486Y-71331138D01*
X42484036Y-71331138D01*
X42282423Y-71331138D01*
X42282423Y-70564375D01*
X42112561Y-70564375D01*
X42112561Y-71524812D01*
X41575986Y-71524812D01*
X41575986Y-71675625D01*
X41345798Y-71675625D01*
X41345798Y-70564375D01*
X41179111Y-70564375D01*
X41179111Y-71029512D01*
X41104498Y-71029512D01*
X40804461Y-70564375D01*
X40613961Y-70564375D01*
X40950511Y-71096188D01*
X40950511Y-71104125D01*
X40577448Y-71675625D01*
X39609999Y-71675625D01*
X39609999Y-70217771D01*
G37*
%TO.C,kibuzzard-68A2FF07*%
G36*
X38462303Y-80377771D02*
G01*
X43740211Y-80377771D01*
X44341697Y-81280000D01*
X43740211Y-82182229D01*
X38462303Y-82182229D01*
X38462303Y-81172050D01*
X38793032Y-81172050D01*
X39115294Y-81172050D01*
X39115294Y-81554638D01*
X39096068Y-81644596D01*
X39038389Y-81698571D01*
X38942257Y-81716562D01*
X38837482Y-81703863D01*
X38837482Y-81834038D01*
X38908126Y-81847134D01*
X38980357Y-81851500D01*
X39087227Y-81840705D01*
X39100266Y-81835625D01*
X39761407Y-81835625D01*
X39907457Y-81835625D01*
X39923332Y-81737200D01*
X39934444Y-81737200D01*
X39996357Y-81800700D01*
X40076261Y-81838800D01*
X40174157Y-81851500D01*
X40294212Y-81830862D01*
X40387676Y-81768950D01*
X40447802Y-81670128D01*
X40467844Y-81538763D01*
X40467844Y-81280000D01*
X40667869Y-81280000D01*
X40674567Y-81406206D01*
X40694659Y-81518125D01*
X40728145Y-81615756D01*
X40775026Y-81699100D01*
X40854842Y-81783767D01*
X40951415Y-81834567D01*
X41064744Y-81851500D01*
X41172944Y-81835625D01*
X42533182Y-81835625D01*
X42706219Y-81835625D01*
X42790357Y-81545113D01*
X43153894Y-81545113D01*
X43236444Y-81835625D01*
X43409482Y-81835625D01*
X43072932Y-80724375D01*
X42869732Y-80724375D01*
X42533182Y-81835625D01*
X41172944Y-81835625D01*
X41178956Y-81834743D01*
X41276058Y-81784472D01*
X41356051Y-81700688D01*
X41402932Y-81617840D01*
X41436418Y-81520109D01*
X41456510Y-81407496D01*
X41463207Y-81280000D01*
X41456510Y-81153794D01*
X41436418Y-81041875D01*
X41402932Y-80944244D01*
X41356051Y-80860900D01*
X41276058Y-80776233D01*
X41178956Y-80725433D01*
X41064744Y-80708500D01*
X40951415Y-80725433D01*
X40854842Y-80776233D01*
X40775026Y-80860900D01*
X40728145Y-80944244D01*
X40694659Y-81041875D01*
X40674567Y-81153794D01*
X40667869Y-81280000D01*
X40467844Y-81280000D01*
X40467844Y-81041875D01*
X40305919Y-81041875D01*
X40305919Y-81510187D01*
X40293021Y-81599087D01*
X40254326Y-81662588D01*
X40195390Y-81700688D01*
X40121769Y-81713388D01*
X40042394Y-81699894D01*
X39978894Y-81659412D01*
X39937223Y-81591944D01*
X39923332Y-81497487D01*
X39923332Y-81041875D01*
X39761407Y-81041875D01*
X39761407Y-81835625D01*
X39100266Y-81835625D01*
X39170349Y-81808320D01*
X39229721Y-81754345D01*
X39265345Y-81678780D01*
X39277219Y-81581625D01*
X39277219Y-81172050D01*
X39529632Y-81172050D01*
X39529632Y-81041875D01*
X39399457Y-81041875D01*
X39292301Y-81010125D01*
X39261344Y-80899000D01*
X39261344Y-80825975D01*
X39115294Y-80825975D01*
X39115294Y-81041875D01*
X38793032Y-81041875D01*
X38793032Y-81172050D01*
X38462303Y-81172050D01*
X38462303Y-80377771D01*
G37*
G36*
X41161185Y-80889277D02*
G01*
X41234607Y-80969644D01*
X41269003Y-81051753D01*
X41289640Y-81155205D01*
X41296519Y-81280000D01*
X41289640Y-81404795D01*
X41269003Y-81508247D01*
X41234607Y-81590356D01*
X41161185Y-81670723D01*
X41064744Y-81697512D01*
X40969494Y-81670723D01*
X40896469Y-81590356D01*
X40862074Y-81508247D01*
X40841436Y-81404795D01*
X40834557Y-81280000D01*
X40841436Y-81155205D01*
X40862074Y-81051753D01*
X40896469Y-80969644D01*
X40969494Y-80889277D01*
X41064744Y-80862488D01*
X41161185Y-80889277D01*
G37*
G36*
X43112619Y-81403825D02*
G01*
X42830044Y-81403825D01*
X42966569Y-80929162D01*
X42977682Y-80929162D01*
X43112619Y-81403825D01*
G37*
%TO.C,kibuzzard-68A2FE8F*%
G36*
X38465742Y-93980000D02*
G01*
X38775305Y-93515656D01*
X41559603Y-93515656D01*
X41589766Y-93587888D01*
X41661203Y-93618844D01*
X41735022Y-93587888D01*
X41765978Y-93515656D01*
X41735022Y-93443425D01*
X41673175Y-93418819D01*
X43131228Y-93418819D01*
X43467778Y-94530069D01*
X43672566Y-94530069D01*
X44007528Y-93418819D01*
X43828141Y-93418819D01*
X43575728Y-94288769D01*
X43563028Y-94288769D01*
X43310616Y-93418819D01*
X43131228Y-93418819D01*
X41673175Y-93418819D01*
X41661203Y-93414056D01*
X41589766Y-93443425D01*
X41559603Y-93515656D01*
X38775305Y-93515656D01*
X39063524Y-93083327D01*
X44338258Y-93083327D01*
X44338258Y-94876673D01*
X39063524Y-94876673D01*
X38560463Y-94122081D01*
X39394253Y-94122081D01*
X39397428Y-94174469D01*
X39981628Y-94174469D01*
X39960991Y-94271902D01*
X39911778Y-94348300D01*
X39838753Y-94397711D01*
X39746678Y-94414181D01*
X39655133Y-94400599D01*
X39590045Y-94359853D01*
X39551416Y-94291944D01*
X39395841Y-94291944D01*
X39438307Y-94398108D01*
X39514903Y-94478475D01*
X39619678Y-94529077D01*
X39746678Y-94545944D01*
X39854099Y-94533508D01*
X39862733Y-94530069D01*
X40302303Y-94530069D01*
X40454703Y-94530069D01*
X40454703Y-93958569D01*
X40476928Y-93886338D01*
X40537253Y-93858556D01*
X40607897Y-93891100D01*
X40635678Y-93979206D01*
X40635678Y-94530069D01*
X40788078Y-94530069D01*
X40788078Y-93966506D01*
X40811097Y-93887925D01*
X40872216Y-93858556D01*
X40941272Y-93888719D01*
X40969053Y-93974444D01*
X40969053Y-94530069D01*
X41119866Y-94530069D01*
X41308778Y-94530069D01*
X42019978Y-94530069D01*
X42019978Y-94404656D01*
X41743753Y-94404656D01*
X41743753Y-93866494D01*
X42248578Y-93866494D01*
X42570841Y-93866494D01*
X42570841Y-94249081D01*
X42551615Y-94339040D01*
X42493935Y-94393015D01*
X42397803Y-94411006D01*
X42293028Y-94398306D01*
X42293028Y-94528481D01*
X42363672Y-94541578D01*
X42435903Y-94545944D01*
X42542774Y-94535149D01*
X42625895Y-94502764D01*
X42685268Y-94448789D01*
X42720891Y-94373224D01*
X42732766Y-94276069D01*
X42732766Y-93866494D01*
X42985178Y-93866494D01*
X42985178Y-93736319D01*
X42855003Y-93736319D01*
X42747847Y-93704569D01*
X42716891Y-93593444D01*
X42716891Y-93520419D01*
X42570841Y-93520419D01*
X42570841Y-93736319D01*
X42248578Y-93736319D01*
X42248578Y-93866494D01*
X41743753Y-93866494D01*
X41743753Y-93861731D01*
X42004103Y-93861731D01*
X42004103Y-93736319D01*
X41583416Y-93736319D01*
X41583416Y-94404656D01*
X41308778Y-94404656D01*
X41308778Y-94530069D01*
X41119866Y-94530069D01*
X41119866Y-93736319D01*
X40983341Y-93736319D01*
X40969053Y-93798231D01*
X40956353Y-93798231D01*
X40895632Y-93739891D01*
X40811891Y-93720444D01*
X40714260Y-93749019D01*
X40661078Y-93815694D01*
X40648378Y-93815694D01*
X40582100Y-93744256D01*
X40481691Y-93720444D01*
X40408666Y-93733739D01*
X40351516Y-93773625D01*
X40314607Y-93840102D01*
X40302303Y-93933169D01*
X40302303Y-94530069D01*
X39862733Y-94530069D01*
X39947762Y-94496202D01*
X40027666Y-94434025D01*
X40088520Y-94351740D01*
X40125033Y-94254108D01*
X40137203Y-94141131D01*
X40125033Y-94022510D01*
X40088520Y-93920645D01*
X40027666Y-93835538D01*
X39948644Y-93771597D01*
X39857627Y-93733232D01*
X39754616Y-93720444D01*
X39656808Y-93731909D01*
X39570819Y-93766305D01*
X39496647Y-93823631D01*
X39439762Y-93902653D01*
X39405631Y-94002137D01*
X39394253Y-94122081D01*
X38560463Y-94122081D01*
X38465742Y-93980000D01*
G37*
G36*
X39836769Y-93867089D02*
G01*
X39905428Y-93911737D01*
X39955038Y-93978611D01*
X39980041Y-94060169D01*
X39549828Y-94060169D01*
X39565108Y-93976627D01*
X39607772Y-93910150D01*
X39672661Y-93866692D01*
X39754616Y-93852206D01*
X39836769Y-93867089D01*
G37*
%TO.C,kibuzzard-68A2FE8A*%
G36*
X39609999Y-91440000D02*
G01*
X39612116Y-91436825D01*
X41183697Y-91436825D01*
X41191287Y-91559410D01*
X41214058Y-91668402D01*
X41252009Y-91763800D01*
X41305140Y-91845606D01*
X41372857Y-91911239D01*
X41454564Y-91958120D01*
X41550260Y-91986249D01*
X41659947Y-91995625D01*
X41940934Y-91995625D01*
X42163184Y-91995625D01*
X42331459Y-91995625D01*
X42726747Y-91201875D01*
X42737859Y-91201875D01*
X42737859Y-91995625D01*
X42893434Y-91995625D01*
X43102984Y-91995625D01*
X43231572Y-91995625D01*
X43250622Y-91900375D01*
X43261734Y-91900375D01*
X43340315Y-91974988D01*
X43409570Y-92002372D01*
X43498272Y-92011500D01*
X43610720Y-91995537D01*
X43704647Y-91947647D01*
X43780053Y-91867831D01*
X43823461Y-91788407D01*
X43854467Y-91693802D01*
X43873071Y-91584016D01*
X43879272Y-91459050D01*
X43872426Y-91327734D01*
X43851887Y-91211598D01*
X43817657Y-91110643D01*
X43769734Y-91024869D01*
X43687361Y-90937997D01*
X43586290Y-90885874D01*
X43466522Y-90868500D01*
X43373212Y-90878466D01*
X43292249Y-90908364D01*
X43223634Y-90958194D01*
X43169483Y-91025839D01*
X43131912Y-91109183D01*
X43110922Y-91208225D01*
X43285547Y-91208225D01*
X43323294Y-91105037D01*
X43383619Y-91043125D01*
X43466522Y-91022488D01*
X43568122Y-91050467D01*
X43644322Y-91134406D01*
X43679599Y-91220219D01*
X43700766Y-91328434D01*
X43707822Y-91459050D01*
X43698233Y-91604782D01*
X43669468Y-91718130D01*
X43621525Y-91799093D01*
X43554406Y-91847670D01*
X43468109Y-91863863D01*
X43384170Y-91848781D01*
X43319678Y-91803538D01*
X43278601Y-91730116D01*
X43264909Y-91630500D01*
X43264909Y-91541600D01*
X43476047Y-91541600D01*
X43476047Y-91408250D01*
X43102984Y-91408250D01*
X43102984Y-91995625D01*
X42893434Y-91995625D01*
X42893434Y-90884375D01*
X42725159Y-90884375D01*
X42329872Y-91679713D01*
X42318759Y-91679713D01*
X42318759Y-90884375D01*
X42163184Y-90884375D01*
X42163184Y-91995625D01*
X41940934Y-91995625D01*
X41940934Y-90884375D01*
X41659947Y-90884375D01*
X41550905Y-90893652D01*
X41455556Y-90921483D01*
X41373899Y-90967868D01*
X41305934Y-91032806D01*
X41252455Y-91113719D01*
X41214256Y-91208027D01*
X41191337Y-91315729D01*
X41183697Y-91436825D01*
X39612116Y-91436825D01*
X40211485Y-90537771D01*
X44210001Y-90537771D01*
X44210001Y-92342229D01*
X40211485Y-92342229D01*
X39609999Y-91440000D01*
G37*
G36*
X41774247Y-91844812D02*
G01*
X41669472Y-91844812D01*
X41574134Y-91833259D01*
X41495552Y-91798599D01*
X41433728Y-91740831D01*
X41389190Y-91660839D01*
X41362467Y-91559503D01*
X41353559Y-91436825D01*
X41362335Y-91314102D01*
X41388661Y-91213693D01*
X41432537Y-91135597D01*
X41493965Y-91079814D01*
X41572943Y-91046344D01*
X41669472Y-91035188D01*
X41774247Y-91035188D01*
X41774247Y-91844812D01*
G37*
%TO.C,kibuzzard-68A2FE85*%
G36*
X37516153Y-87997771D02*
G01*
X43670361Y-87997771D01*
X44271847Y-88900000D01*
X43670361Y-89802229D01*
X37516153Y-89802229D01*
X37516153Y-88792050D01*
X37846882Y-88792050D01*
X38169144Y-88792050D01*
X38169144Y-89174638D01*
X38149918Y-89264596D01*
X38092239Y-89318571D01*
X37996107Y-89336562D01*
X37891332Y-89323863D01*
X37891332Y-89454038D01*
X37961976Y-89467134D01*
X38034207Y-89471500D01*
X38141077Y-89460705D01*
X38154116Y-89455625D01*
X38815257Y-89455625D01*
X38961307Y-89455625D01*
X38977182Y-89357200D01*
X38988294Y-89357200D01*
X39050207Y-89420700D01*
X39130111Y-89458800D01*
X39228007Y-89471500D01*
X39348062Y-89450862D01*
X39441526Y-89388950D01*
X39501652Y-89290128D01*
X39521694Y-89158763D01*
X39521694Y-88900000D01*
X39721719Y-88900000D01*
X39728417Y-89026206D01*
X39748509Y-89138125D01*
X39781995Y-89235756D01*
X39828876Y-89319100D01*
X39908692Y-89403767D01*
X40005265Y-89454567D01*
X40118594Y-89471500D01*
X40232806Y-89454743D01*
X40329908Y-89404472D01*
X40409901Y-89320688D01*
X40456782Y-89237840D01*
X40472998Y-89190513D01*
X41648944Y-89190513D01*
X41690418Y-89306003D01*
X41770388Y-89395300D01*
X41841914Y-89437633D01*
X41924199Y-89463033D01*
X42017244Y-89471500D01*
X42129075Y-89458712D01*
X42136824Y-89455625D01*
X42617319Y-89455625D01*
X43339632Y-89455625D01*
X43339632Y-89307988D01*
X43060232Y-89307988D01*
X43060232Y-88492013D01*
X43331694Y-88492013D01*
X43331694Y-88344375D01*
X42625257Y-88344375D01*
X42625257Y-88492013D01*
X42893544Y-88492013D01*
X42893544Y-89307988D01*
X42617319Y-89307988D01*
X42617319Y-89455625D01*
X42136824Y-89455625D01*
X42225383Y-89420347D01*
X42306169Y-89356406D01*
X42367024Y-89272710D01*
X42403536Y-89175078D01*
X42415707Y-89063512D01*
X42403183Y-88949036D01*
X42365612Y-88849024D01*
X42302994Y-88763475D01*
X42221326Y-88698211D01*
X42126606Y-88659053D01*
X42018832Y-88646000D01*
X41928962Y-88654555D01*
X41847735Y-88680219D01*
X41775151Y-88722994D01*
X41716149Y-88781114D01*
X41675667Y-88852816D01*
X41653707Y-88938100D01*
X41817219Y-88938100D01*
X41841230Y-88877180D01*
X41884688Y-88827769D01*
X41944815Y-88795027D01*
X42018832Y-88784112D01*
X42112693Y-88803758D01*
X42187901Y-88862694D01*
X42237312Y-88952189D01*
X42253782Y-89063512D01*
X42237709Y-89170669D01*
X42189488Y-89257188D01*
X42114280Y-89314338D01*
X42017244Y-89333388D01*
X41944418Y-89323863D01*
X41884688Y-89295288D01*
X41840040Y-89250044D01*
X41812457Y-89190513D01*
X41648944Y-89190513D01*
X40472998Y-89190513D01*
X40490268Y-89140109D01*
X40510360Y-89027496D01*
X40517057Y-88900000D01*
X40510360Y-88773794D01*
X40490268Y-88661875D01*
X40456782Y-88564244D01*
X40409901Y-88480900D01*
X40329908Y-88396233D01*
X40232806Y-88345433D01*
X40118594Y-88328500D01*
X40005265Y-88345433D01*
X39908692Y-88396233D01*
X39828876Y-88480900D01*
X39781995Y-88564244D01*
X39748509Y-88661875D01*
X39728417Y-88773794D01*
X39721719Y-88900000D01*
X39521694Y-88900000D01*
X39521694Y-88661875D01*
X39359769Y-88661875D01*
X39359769Y-89130187D01*
X39346871Y-89219087D01*
X39308176Y-89282588D01*
X39249240Y-89320688D01*
X39175619Y-89333388D01*
X39096244Y-89319894D01*
X39032744Y-89279412D01*
X38991073Y-89211944D01*
X38977182Y-89117487D01*
X38977182Y-88661875D01*
X38815257Y-88661875D01*
X38815257Y-89455625D01*
X38154116Y-89455625D01*
X38224199Y-89428320D01*
X38283571Y-89374345D01*
X38319195Y-89298780D01*
X38331069Y-89201625D01*
X38331069Y-88792050D01*
X38583482Y-88792050D01*
X38583482Y-88661875D01*
X38453307Y-88661875D01*
X38346151Y-88630125D01*
X38315194Y-88519000D01*
X38315194Y-88445975D01*
X38169144Y-88445975D01*
X38169144Y-88661875D01*
X37846882Y-88661875D01*
X37846882Y-88792050D01*
X37516153Y-88792050D01*
X37516153Y-87997771D01*
G37*
G36*
X40215035Y-88509277D02*
G01*
X40288457Y-88589644D01*
X40322853Y-88671753D01*
X40343490Y-88775205D01*
X40350369Y-88900000D01*
X40343490Y-89024795D01*
X40322853Y-89128247D01*
X40288457Y-89210356D01*
X40215035Y-89290723D01*
X40118594Y-89317512D01*
X40023344Y-89290723D01*
X39950319Y-89210356D01*
X39915924Y-89128247D01*
X39895286Y-89024795D01*
X39888407Y-88900000D01*
X39895286Y-88775205D01*
X39915924Y-88671753D01*
X39950319Y-88589644D01*
X40023344Y-88509277D01*
X40118594Y-88482488D01*
X40215035Y-88509277D01*
G37*
%TO.C,kibuzzard-68A2FE80*%
G36*
X38510192Y-86360000D02*
G01*
X39106387Y-85465708D01*
X44293808Y-85465708D01*
X44293808Y-87254292D01*
X39106387Y-87254292D01*
X38875318Y-86907688D01*
X39437116Y-86907688D01*
X39599041Y-86907688D01*
X39599041Y-86439375D01*
X39611939Y-86350475D01*
X39650635Y-86286975D01*
X39709571Y-86248875D01*
X39783191Y-86236175D01*
X39862566Y-86249669D01*
X39926066Y-86290150D01*
X39967738Y-86357619D01*
X39981628Y-86452075D01*
X39981628Y-86907688D01*
X40143553Y-86907688D01*
X40383266Y-86907688D01*
X41105578Y-86907688D01*
X41105578Y-86760050D01*
X40826178Y-86760050D01*
X40826178Y-86642575D01*
X42272391Y-86642575D01*
X42313864Y-86758066D01*
X42393835Y-86847363D01*
X42465360Y-86889696D01*
X42547646Y-86915096D01*
X42640691Y-86923563D01*
X42752522Y-86910774D01*
X42760269Y-86907688D01*
X43240766Y-86907688D01*
X43963078Y-86907688D01*
X43963078Y-86760050D01*
X43683678Y-86760050D01*
X43683678Y-85944075D01*
X43955141Y-85944075D01*
X43955141Y-85796437D01*
X43248703Y-85796437D01*
X43248703Y-85944075D01*
X43516991Y-85944075D01*
X43516991Y-86760050D01*
X43240766Y-86760050D01*
X43240766Y-86907688D01*
X42760269Y-86907688D01*
X42848830Y-86872410D01*
X42929616Y-86808469D01*
X42990470Y-86724772D01*
X43026983Y-86627141D01*
X43039153Y-86515575D01*
X43026630Y-86401099D01*
X42989059Y-86301086D01*
X42926441Y-86215538D01*
X42844773Y-86150274D01*
X42750052Y-86111115D01*
X42642278Y-86098063D01*
X42552408Y-86106617D01*
X42471181Y-86132282D01*
X42398597Y-86175056D01*
X42339595Y-86233176D01*
X42299114Y-86304878D01*
X42277153Y-86390163D01*
X42440666Y-86390163D01*
X42464677Y-86329242D01*
X42508135Y-86279831D01*
X42568261Y-86247089D01*
X42642278Y-86236175D01*
X42736139Y-86255820D01*
X42811347Y-86314756D01*
X42860758Y-86404252D01*
X42877228Y-86515575D01*
X42861155Y-86622731D01*
X42812935Y-86709250D01*
X42737727Y-86766400D01*
X42640691Y-86785450D01*
X42567864Y-86775925D01*
X42508135Y-86747350D01*
X42463486Y-86702106D01*
X42435903Y-86642575D01*
X42272391Y-86642575D01*
X40826178Y-86642575D01*
X40826178Y-85944075D01*
X41097641Y-85944075D01*
X41097641Y-85796437D01*
X40391203Y-85796437D01*
X40391203Y-85944075D01*
X40659491Y-85944075D01*
X40659491Y-86760050D01*
X40383266Y-86760050D01*
X40383266Y-86907688D01*
X40143553Y-86907688D01*
X40143553Y-86113938D01*
X39997503Y-86113938D01*
X39981628Y-86212363D01*
X39970516Y-86212363D01*
X39908603Y-86148862D01*
X39828699Y-86110763D01*
X39730803Y-86098063D01*
X39610749Y-86118700D01*
X39517285Y-86180613D01*
X39457158Y-86279434D01*
X39437116Y-86410800D01*
X39437116Y-86907688D01*
X38875318Y-86907688D01*
X38510192Y-86360000D01*
G37*
%TO.C,kibuzzard-68A2FE7B*%
G36*
X39609999Y-83820000D02*
G01*
X39612116Y-83816825D01*
X41183697Y-83816825D01*
X41191287Y-83939410D01*
X41214058Y-84048402D01*
X41252009Y-84143800D01*
X41305140Y-84225606D01*
X41372857Y-84291239D01*
X41454564Y-84338120D01*
X41550260Y-84366249D01*
X41659947Y-84375625D01*
X41940934Y-84375625D01*
X42163184Y-84375625D01*
X42331459Y-84375625D01*
X42726747Y-83581875D01*
X42737859Y-83581875D01*
X42737859Y-84375625D01*
X42893434Y-84375625D01*
X43102984Y-84375625D01*
X43231572Y-84375625D01*
X43250622Y-84280375D01*
X43261734Y-84280375D01*
X43340315Y-84354988D01*
X43409570Y-84382372D01*
X43498272Y-84391500D01*
X43610720Y-84375537D01*
X43704647Y-84327647D01*
X43780053Y-84247831D01*
X43823461Y-84168407D01*
X43854467Y-84073802D01*
X43873071Y-83964016D01*
X43879272Y-83839050D01*
X43872426Y-83707734D01*
X43851887Y-83591598D01*
X43817657Y-83490643D01*
X43769734Y-83404869D01*
X43687361Y-83317997D01*
X43586290Y-83265874D01*
X43466522Y-83248500D01*
X43373212Y-83258466D01*
X43292249Y-83288364D01*
X43223634Y-83338194D01*
X43169483Y-83405839D01*
X43131912Y-83489183D01*
X43110922Y-83588225D01*
X43285547Y-83588225D01*
X43323294Y-83485037D01*
X43383619Y-83423125D01*
X43466522Y-83402488D01*
X43568122Y-83430467D01*
X43644322Y-83514406D01*
X43679599Y-83600219D01*
X43700766Y-83708434D01*
X43707822Y-83839050D01*
X43698233Y-83984782D01*
X43669468Y-84098130D01*
X43621525Y-84179093D01*
X43554406Y-84227670D01*
X43468109Y-84243863D01*
X43384170Y-84228781D01*
X43319678Y-84183538D01*
X43278601Y-84110116D01*
X43264909Y-84010500D01*
X43264909Y-83921600D01*
X43476047Y-83921600D01*
X43476047Y-83788250D01*
X43102984Y-83788250D01*
X43102984Y-84375625D01*
X42893434Y-84375625D01*
X42893434Y-83264375D01*
X42725159Y-83264375D01*
X42329872Y-84059713D01*
X42318759Y-84059713D01*
X42318759Y-83264375D01*
X42163184Y-83264375D01*
X42163184Y-84375625D01*
X41940934Y-84375625D01*
X41940934Y-83264375D01*
X41659947Y-83264375D01*
X41550905Y-83273652D01*
X41455556Y-83301483D01*
X41373899Y-83347868D01*
X41305934Y-83412806D01*
X41252455Y-83493719D01*
X41214256Y-83588027D01*
X41191337Y-83695729D01*
X41183697Y-83816825D01*
X39612116Y-83816825D01*
X40211485Y-82917771D01*
X44210001Y-82917771D01*
X44210001Y-84722229D01*
X40211485Y-84722229D01*
X39609999Y-83820000D01*
G37*
G36*
X41774247Y-84224812D02*
G01*
X41669472Y-84224812D01*
X41574134Y-84213259D01*
X41495552Y-84178599D01*
X41433728Y-84120831D01*
X41389190Y-84040839D01*
X41362467Y-83939503D01*
X41353559Y-83816825D01*
X41362335Y-83694102D01*
X41388661Y-83593693D01*
X41432537Y-83515597D01*
X41493965Y-83459814D01*
X41572943Y-83426344D01*
X41669472Y-83415188D01*
X41774247Y-83415188D01*
X41774247Y-84224812D01*
G37*
%TO.C,kibuzzard-68A2FE76*%
G36*
X39458988Y-78740000D02*
G01*
X40049891Y-77853646D01*
X44361012Y-77853646D01*
X44361012Y-79626354D01*
X40049891Y-79626354D01*
X39829405Y-79295625D01*
X40380620Y-79295625D01*
X40542545Y-79295625D01*
X40542545Y-78827313D01*
X40555444Y-78738413D01*
X40594139Y-78674912D01*
X40653075Y-78636812D01*
X40726695Y-78624112D01*
X40806070Y-78637606D01*
X40869570Y-78678088D01*
X40911242Y-78745556D01*
X40925133Y-78840013D01*
X40925133Y-79295625D01*
X41087058Y-79295625D01*
X41326770Y-79295625D01*
X42049083Y-79295625D01*
X43153983Y-79295625D01*
X43327020Y-79295625D01*
X43411158Y-79005113D01*
X43774695Y-79005113D01*
X43857245Y-79295625D01*
X44030283Y-79295625D01*
X43693733Y-78184375D01*
X43490533Y-78184375D01*
X43153983Y-79295625D01*
X42049083Y-79295625D01*
X42049083Y-79147988D01*
X41769683Y-79147988D01*
X41769683Y-78332013D01*
X42041145Y-78332013D01*
X42041145Y-78184375D01*
X41334708Y-78184375D01*
X41334708Y-78332013D01*
X41602995Y-78332013D01*
X41602995Y-79147988D01*
X41326770Y-79147988D01*
X41326770Y-79295625D01*
X41087058Y-79295625D01*
X41087058Y-78501875D01*
X40941008Y-78501875D01*
X40925133Y-78600300D01*
X40914020Y-78600300D01*
X40852108Y-78536800D01*
X40772203Y-78498700D01*
X40674308Y-78486000D01*
X40554253Y-78506637D01*
X40460789Y-78568550D01*
X40400662Y-78667372D01*
X40380620Y-78798737D01*
X40380620Y-79295625D01*
X39829405Y-79295625D01*
X39458988Y-78740000D01*
G37*
G36*
X43733420Y-78863825D02*
G01*
X43450845Y-78863825D01*
X43587370Y-78389162D01*
X43598483Y-78389162D01*
X43733420Y-78863825D01*
G37*
%TO.C,kibuzzard-68A2FE71*%
G36*
X39609999Y-68580000D02*
G01*
X39612116Y-68576825D01*
X41183697Y-68576825D01*
X41191287Y-68699410D01*
X41214058Y-68808402D01*
X41252009Y-68903800D01*
X41305140Y-68985606D01*
X41372857Y-69051239D01*
X41454564Y-69098120D01*
X41550260Y-69126249D01*
X41659947Y-69135625D01*
X41940934Y-69135625D01*
X42163184Y-69135625D01*
X42331459Y-69135625D01*
X42726747Y-68341875D01*
X42737859Y-68341875D01*
X42737859Y-69135625D01*
X42893434Y-69135625D01*
X43102984Y-69135625D01*
X43231572Y-69135625D01*
X43250622Y-69040375D01*
X43261734Y-69040375D01*
X43340315Y-69114988D01*
X43409570Y-69142372D01*
X43498272Y-69151500D01*
X43610720Y-69135537D01*
X43704647Y-69087647D01*
X43780053Y-69007831D01*
X43823461Y-68928407D01*
X43854467Y-68833802D01*
X43873071Y-68724016D01*
X43879272Y-68599050D01*
X43872426Y-68467734D01*
X43851887Y-68351598D01*
X43817657Y-68250643D01*
X43769734Y-68164869D01*
X43687361Y-68077997D01*
X43586290Y-68025874D01*
X43466522Y-68008500D01*
X43373212Y-68018466D01*
X43292249Y-68048364D01*
X43223634Y-68098194D01*
X43169483Y-68165839D01*
X43131912Y-68249183D01*
X43110922Y-68348225D01*
X43285547Y-68348225D01*
X43323294Y-68245037D01*
X43383619Y-68183125D01*
X43466522Y-68162488D01*
X43568122Y-68190467D01*
X43644322Y-68274406D01*
X43679599Y-68360219D01*
X43700766Y-68468434D01*
X43707822Y-68599050D01*
X43698233Y-68744782D01*
X43669468Y-68858130D01*
X43621525Y-68939093D01*
X43554406Y-68987670D01*
X43468109Y-69003863D01*
X43384170Y-68988781D01*
X43319678Y-68943538D01*
X43278601Y-68870116D01*
X43264909Y-68770500D01*
X43264909Y-68681600D01*
X43476047Y-68681600D01*
X43476047Y-68548250D01*
X43102984Y-68548250D01*
X43102984Y-69135625D01*
X42893434Y-69135625D01*
X42893434Y-68024375D01*
X42725159Y-68024375D01*
X42329872Y-68819713D01*
X42318759Y-68819713D01*
X42318759Y-68024375D01*
X42163184Y-68024375D01*
X42163184Y-69135625D01*
X41940934Y-69135625D01*
X41940934Y-68024375D01*
X41659947Y-68024375D01*
X41550905Y-68033652D01*
X41455556Y-68061483D01*
X41373899Y-68107868D01*
X41305934Y-68172806D01*
X41252455Y-68253719D01*
X41214256Y-68348027D01*
X41191337Y-68455729D01*
X41183697Y-68576825D01*
X39612116Y-68576825D01*
X40211485Y-67677771D01*
X44210001Y-67677771D01*
X44210001Y-69482229D01*
X40211485Y-69482229D01*
X39609999Y-68580000D01*
G37*
G36*
X41774247Y-68984812D02*
G01*
X41669472Y-68984812D01*
X41574134Y-68973259D01*
X41495552Y-68938599D01*
X41433728Y-68880831D01*
X41389190Y-68800839D01*
X41362467Y-68699503D01*
X41353559Y-68576825D01*
X41362335Y-68454102D01*
X41388661Y-68353693D01*
X41432537Y-68275597D01*
X41493965Y-68219814D01*
X41572943Y-68186344D01*
X41669472Y-68175188D01*
X41774247Y-68175188D01*
X41774247Y-68984812D01*
G37*
%TO.C,kibuzzard-68A2FE6B*%
G36*
X39625610Y-65184602D02*
G01*
X43624125Y-65184602D01*
X44194390Y-66040000D01*
X43624125Y-66895398D01*
X39625610Y-66895398D01*
X39625610Y-66042381D01*
X40653384Y-66042381D01*
X40659783Y-66163825D01*
X40678982Y-66269394D01*
X40710980Y-66359087D01*
X40755777Y-66432906D01*
X40832242Y-66506108D01*
X40925111Y-66550028D01*
X41034384Y-66564669D01*
X41143921Y-66549852D01*
X41237584Y-66505402D01*
X41315371Y-66431319D01*
X41361210Y-66356805D01*
X41393952Y-66266616D01*
X41413598Y-66160749D01*
X41420146Y-66039206D01*
X41413598Y-65919003D01*
X41393952Y-65813980D01*
X41372474Y-65755044D01*
X41590009Y-65755044D01*
X41890046Y-66548794D01*
X42086896Y-66548794D01*
X42209356Y-66226531D01*
X42586959Y-66226531D01*
X42598247Y-66322310D01*
X42632114Y-66404331D01*
X42688559Y-66472594D01*
X42762818Y-66523747D01*
X42850131Y-66554438D01*
X42950496Y-66564669D01*
X43044511Y-66555320D01*
X43125474Y-66527274D01*
X43193384Y-66480531D01*
X43245418Y-66418090D01*
X43278756Y-66342948D01*
X43293396Y-66255106D01*
X43136234Y-66255106D01*
X43118573Y-66328925D01*
X43078290Y-66385281D01*
X43019751Y-66421000D01*
X42947321Y-66432906D01*
X42868343Y-66419214D01*
X42806034Y-66378138D01*
X42765552Y-66313645D01*
X42752059Y-66229706D01*
X42764957Y-66145767D01*
X42803652Y-66078100D01*
X42863779Y-66033452D01*
X42940971Y-66018569D01*
X43048921Y-66045556D01*
X43125121Y-66121756D01*
X43271171Y-66088419D01*
X43217196Y-65532794D01*
X42634584Y-65532794D01*
X42634584Y-65669319D01*
X43075909Y-65669319D01*
X43106071Y-65961419D01*
X43019155Y-65910222D01*
X42907634Y-65893156D01*
X42818381Y-65903651D01*
X42741122Y-65935137D01*
X42675859Y-65987613D01*
X42626470Y-66056140D01*
X42596836Y-66135779D01*
X42586959Y-66226531D01*
X42209356Y-66226531D01*
X42388521Y-65755044D01*
X42221834Y-65755044D01*
X41993234Y-66380519D01*
X41982121Y-66380519D01*
X41755109Y-65755044D01*
X41590009Y-65755044D01*
X41372474Y-65755044D01*
X41361210Y-65724137D01*
X41315371Y-65649475D01*
X41237584Y-65574951D01*
X41143921Y-65530236D01*
X41034384Y-65515331D01*
X40925111Y-65530236D01*
X40832242Y-65574951D01*
X40755777Y-65649475D01*
X40710980Y-65724336D01*
X40678982Y-65814773D01*
X40659783Y-65920789D01*
X40653384Y-66042381D01*
X39625610Y-66042381D01*
X39625610Y-65184602D01*
G37*
G36*
X41120505Y-65680431D02*
G01*
X41188371Y-65751869D01*
X41221003Y-65826305D01*
X41240582Y-65922613D01*
X41247109Y-66040794D01*
X41243140Y-66134059D01*
X41231234Y-66210656D01*
X40883571Y-65748694D01*
X40949055Y-65679637D01*
X41034384Y-65656619D01*
X41120505Y-65680431D01*
G37*
G36*
X41186784Y-66332894D02*
G01*
X41120902Y-66400759D01*
X41034384Y-66423381D01*
X40948460Y-66399569D01*
X40881190Y-66328131D01*
X40848999Y-66253872D01*
X40829684Y-66158092D01*
X40823246Y-66040794D01*
X40827215Y-65951894D01*
X40839121Y-65869344D01*
X41186784Y-66332894D01*
G37*
%TO.C,kibuzzard-68A2FE67*%
G36*
X39628520Y-63500000D02*
G01*
X40192964Y-62653333D01*
X44191480Y-62653333D01*
X44191480Y-64346667D01*
X40192964Y-64346667D01*
X39747053Y-63677800D01*
X41198513Y-63677800D01*
X41209802Y-63773579D01*
X41243669Y-63855600D01*
X41300113Y-63923863D01*
X41374373Y-63975015D01*
X41461686Y-64005707D01*
X41562051Y-64015938D01*
X41656066Y-64006589D01*
X41737029Y-63978543D01*
X41804938Y-63931800D01*
X41856973Y-63869358D01*
X41890311Y-63794217D01*
X41904951Y-63706375D01*
X41747788Y-63706375D01*
X41730127Y-63780194D01*
X41689845Y-63836550D01*
X41631306Y-63872269D01*
X41558876Y-63884175D01*
X41479898Y-63870483D01*
X41417588Y-63829406D01*
X41377107Y-63764914D01*
X41363613Y-63680975D01*
X41376512Y-63597036D01*
X41415207Y-63529369D01*
X41475334Y-63484720D01*
X41552526Y-63469838D01*
X41660476Y-63496825D01*
X41736676Y-63573025D01*
X41882726Y-63539688D01*
X41850341Y-63206313D01*
X42106563Y-63206313D01*
X42406601Y-64000063D01*
X42603451Y-64000063D01*
X42690319Y-63771463D01*
X43055888Y-63771463D01*
X43230513Y-63771463D01*
X43230513Y-64000063D01*
X43386088Y-64000063D01*
X43386088Y-63771463D01*
X43860751Y-63771463D01*
X43860751Y-63690500D01*
X43400376Y-62984063D01*
X43230513Y-62984063D01*
X43230513Y-63646050D01*
X43055888Y-63646050D01*
X43055888Y-63771463D01*
X42690319Y-63771463D01*
X42905076Y-63206313D01*
X42738388Y-63206313D01*
X42509788Y-63831788D01*
X42498676Y-63831788D01*
X42271663Y-63206313D01*
X42106563Y-63206313D01*
X41850341Y-63206313D01*
X41828751Y-62984063D01*
X41246138Y-62984063D01*
X41246138Y-63120588D01*
X41687463Y-63120588D01*
X41717626Y-63412688D01*
X41630710Y-63361491D01*
X41519188Y-63344425D01*
X41429936Y-63354920D01*
X41352677Y-63386406D01*
X41287413Y-63438881D01*
X41238024Y-63507408D01*
X41208391Y-63587048D01*
X41198513Y-63677800D01*
X39747053Y-63677800D01*
X39628520Y-63500000D01*
G37*
G36*
X43671838Y-63646050D02*
G01*
X43386088Y-63646050D01*
X43386088Y-63203138D01*
X43398788Y-63203138D01*
X43671838Y-63646050D01*
G37*
%TO.C,kibuzzard-68A2FE62*%
G36*
X39609999Y-60960000D02*
G01*
X39612116Y-60956825D01*
X41183697Y-60956825D01*
X41191287Y-61079410D01*
X41214058Y-61188402D01*
X41252009Y-61283800D01*
X41305140Y-61365606D01*
X41372857Y-61431239D01*
X41454564Y-61478120D01*
X41550260Y-61506249D01*
X41659947Y-61515625D01*
X41940934Y-61515625D01*
X42163184Y-61515625D01*
X42331459Y-61515625D01*
X42726747Y-60721875D01*
X42737859Y-60721875D01*
X42737859Y-61515625D01*
X42893434Y-61515625D01*
X43102984Y-61515625D01*
X43231572Y-61515625D01*
X43250622Y-61420375D01*
X43261734Y-61420375D01*
X43340315Y-61494988D01*
X43409570Y-61522372D01*
X43498272Y-61531500D01*
X43610720Y-61515537D01*
X43704647Y-61467647D01*
X43780053Y-61387831D01*
X43823461Y-61308407D01*
X43854467Y-61213802D01*
X43873071Y-61104016D01*
X43879272Y-60979050D01*
X43872426Y-60847734D01*
X43851887Y-60731598D01*
X43817657Y-60630643D01*
X43769734Y-60544869D01*
X43687361Y-60457997D01*
X43586290Y-60405874D01*
X43466522Y-60388500D01*
X43373212Y-60398466D01*
X43292249Y-60428364D01*
X43223634Y-60478194D01*
X43169483Y-60545839D01*
X43131912Y-60629183D01*
X43110922Y-60728225D01*
X43285547Y-60728225D01*
X43323294Y-60625037D01*
X43383619Y-60563125D01*
X43466522Y-60542488D01*
X43568122Y-60570467D01*
X43644322Y-60654406D01*
X43679599Y-60740219D01*
X43700766Y-60848434D01*
X43707822Y-60979050D01*
X43698233Y-61124782D01*
X43669468Y-61238130D01*
X43621525Y-61319093D01*
X43554406Y-61367670D01*
X43468109Y-61383863D01*
X43384170Y-61368781D01*
X43319678Y-61323538D01*
X43278601Y-61250116D01*
X43264909Y-61150500D01*
X43264909Y-61061600D01*
X43476047Y-61061600D01*
X43476047Y-60928250D01*
X43102984Y-60928250D01*
X43102984Y-61515625D01*
X42893434Y-61515625D01*
X42893434Y-60404375D01*
X42725159Y-60404375D01*
X42329872Y-61199713D01*
X42318759Y-61199713D01*
X42318759Y-60404375D01*
X42163184Y-60404375D01*
X42163184Y-61515625D01*
X41940934Y-61515625D01*
X41940934Y-60404375D01*
X41659947Y-60404375D01*
X41550905Y-60413652D01*
X41455556Y-60441483D01*
X41373899Y-60487868D01*
X41305934Y-60552806D01*
X41252455Y-60633719D01*
X41214256Y-60728027D01*
X41191337Y-60835729D01*
X41183697Y-60956825D01*
X39612116Y-60956825D01*
X40211485Y-60057771D01*
X44210001Y-60057771D01*
X44210001Y-61862229D01*
X40211485Y-61862229D01*
X39609999Y-60960000D01*
G37*
G36*
X41774247Y-61364812D02*
G01*
X41669472Y-61364812D01*
X41574134Y-61353259D01*
X41495552Y-61318599D01*
X41433728Y-61260831D01*
X41389190Y-61180839D01*
X41362467Y-61079503D01*
X41353559Y-60956825D01*
X41362335Y-60834102D01*
X41388661Y-60733693D01*
X41432537Y-60655597D01*
X41493965Y-60599814D01*
X41572943Y-60566344D01*
X41669472Y-60555188D01*
X41774247Y-60555188D01*
X41774247Y-61364812D01*
G37*
%TO.C,kibuzzard-68A2FE5C*%
G36*
X39625610Y-58420000D02*
G01*
X40195875Y-57564602D01*
X44194390Y-57564602D01*
X44194390Y-59275398D01*
X40195875Y-59275398D01*
X39627197Y-58422381D01*
X41229999Y-58422381D01*
X41236398Y-58543825D01*
X41255597Y-58649394D01*
X41287595Y-58739088D01*
X41332393Y-58812906D01*
X41408857Y-58886108D01*
X41501726Y-58930028D01*
X41610999Y-58944669D01*
X41720536Y-58929852D01*
X41814199Y-58885402D01*
X41891986Y-58811319D01*
X41937825Y-58736805D01*
X41970568Y-58646616D01*
X41990213Y-58540749D01*
X41996761Y-58419206D01*
X41990213Y-58299003D01*
X41970568Y-58193980D01*
X41949089Y-58135044D01*
X42166624Y-58135044D01*
X42466661Y-58928794D01*
X42663511Y-58928794D01*
X42922909Y-58246169D01*
X43160399Y-58246169D01*
X43168733Y-58338839D01*
X43193736Y-58423175D01*
X43233424Y-58505130D01*
X43285811Y-58590656D01*
X43504886Y-58928794D01*
X43704911Y-58928794D01*
X43431861Y-58536681D01*
X43550924Y-58557319D01*
X43674352Y-58534498D01*
X43774761Y-58466038D01*
X43824150Y-58399627D01*
X43853784Y-58322104D01*
X43863661Y-58233469D01*
X43852725Y-58140159D01*
X43819917Y-58059197D01*
X43765236Y-57990581D01*
X43693446Y-57938547D01*
X43609309Y-57907326D01*
X43512824Y-57896919D01*
X43414663Y-57907590D01*
X43329732Y-57939605D01*
X43258030Y-57992963D01*
X43203790Y-58063783D01*
X43171247Y-58148185D01*
X43160399Y-58246169D01*
X42922909Y-58246169D01*
X42965136Y-58135044D01*
X42798449Y-58135044D01*
X42569849Y-58760519D01*
X42558736Y-58760519D01*
X42331724Y-58135044D01*
X42166624Y-58135044D01*
X41949089Y-58135044D01*
X41937825Y-58104137D01*
X41891986Y-58029475D01*
X41814199Y-57954951D01*
X41720536Y-57910236D01*
X41610999Y-57895331D01*
X41501726Y-57910236D01*
X41408857Y-57954951D01*
X41332393Y-58029475D01*
X41287595Y-58104336D01*
X41255597Y-58194773D01*
X41236398Y-58300789D01*
X41229999Y-58422381D01*
X39627197Y-58422381D01*
X39625610Y-58420000D01*
G37*
G36*
X41763399Y-58712894D02*
G01*
X41697518Y-58780759D01*
X41610999Y-58803381D01*
X41525075Y-58779569D01*
X41457805Y-58708131D01*
X41425614Y-58633872D01*
X41406299Y-58538092D01*
X41399861Y-58420794D01*
X41403830Y-58331894D01*
X41415736Y-58249344D01*
X41763399Y-58712894D01*
G37*
G36*
X41697121Y-58060431D02*
G01*
X41764986Y-58131869D01*
X41797618Y-58206305D01*
X41817197Y-58302613D01*
X41823724Y-58420794D01*
X41819755Y-58514059D01*
X41807849Y-58590656D01*
X41460186Y-58128694D01*
X41525671Y-58059638D01*
X41610999Y-58036619D01*
X41697121Y-58060431D01*
G37*
G36*
X43591603Y-58045152D02*
G01*
X43651730Y-58089800D01*
X43690425Y-58156277D01*
X43703324Y-58236644D01*
X43690624Y-58315027D01*
X43652524Y-58378725D01*
X43592596Y-58420992D01*
X43514411Y-58435081D01*
X43437219Y-58420794D01*
X43377093Y-58377931D01*
X43338397Y-58314034D01*
X43325499Y-58236644D01*
X43338596Y-58156277D01*
X43377886Y-58089800D01*
X43438211Y-58045152D01*
X43514411Y-58030269D01*
X43591603Y-58045152D01*
G37*
%TO.C,kibuzzard-68A2FE55*%
G36*
X29321742Y-93083327D02*
G01*
X34596476Y-93083327D01*
X35194258Y-93980000D01*
X34596476Y-94876673D01*
X29321742Y-94876673D01*
X29321742Y-94122081D01*
X29652472Y-94122081D01*
X29655647Y-94174469D01*
X30239847Y-94174469D01*
X30219209Y-94271902D01*
X30169997Y-94348300D01*
X30096972Y-94397711D01*
X30004897Y-94414181D01*
X29913351Y-94400599D01*
X29848263Y-94359853D01*
X29809634Y-94291944D01*
X29654059Y-94291944D01*
X29696525Y-94398108D01*
X29773122Y-94478475D01*
X29877897Y-94529077D01*
X30004897Y-94545944D01*
X30112317Y-94533508D01*
X30120951Y-94530069D01*
X30560522Y-94530069D01*
X30712922Y-94530069D01*
X30712922Y-93958569D01*
X30735147Y-93886338D01*
X30795472Y-93858556D01*
X30866115Y-93891100D01*
X30893897Y-93979206D01*
X30893897Y-94530069D01*
X31046297Y-94530069D01*
X31046297Y-93966506D01*
X31069315Y-93887925D01*
X31130434Y-93858556D01*
X31199490Y-93888719D01*
X31227272Y-93974444D01*
X31227272Y-94530069D01*
X31378084Y-94530069D01*
X31566997Y-94530069D01*
X32278197Y-94530069D01*
X32278197Y-94404656D01*
X32001972Y-94404656D01*
X32001972Y-93866494D01*
X32506797Y-93866494D01*
X32829059Y-93866494D01*
X32829059Y-94249081D01*
X32809833Y-94339040D01*
X32752153Y-94393015D01*
X32656022Y-94411006D01*
X32551247Y-94398306D01*
X32551247Y-94528481D01*
X32621890Y-94541578D01*
X32694122Y-94545944D01*
X32800992Y-94535149D01*
X32884114Y-94502764D01*
X32943486Y-94448789D01*
X32979110Y-94373224D01*
X32990984Y-94276069D01*
X32990984Y-93866494D01*
X33243397Y-93866494D01*
X33243397Y-93736319D01*
X33113222Y-93736319D01*
X33006065Y-93704569D01*
X32975109Y-93593444D01*
X32975109Y-93520419D01*
X32829059Y-93520419D01*
X32829059Y-93736319D01*
X32506797Y-93736319D01*
X32506797Y-93866494D01*
X32001972Y-93866494D01*
X32001972Y-93861731D01*
X32262322Y-93861731D01*
X32262322Y-93736319D01*
X31841634Y-93736319D01*
X31841634Y-94404656D01*
X31566997Y-94404656D01*
X31566997Y-94530069D01*
X31378084Y-94530069D01*
X31378084Y-93736319D01*
X31241559Y-93736319D01*
X31227272Y-93798231D01*
X31214572Y-93798231D01*
X31153850Y-93739891D01*
X31070109Y-93720444D01*
X30972478Y-93749019D01*
X30919297Y-93815694D01*
X30906597Y-93815694D01*
X30840318Y-93744256D01*
X30739909Y-93720444D01*
X30666884Y-93733739D01*
X30609734Y-93773625D01*
X30572825Y-93840102D01*
X30560522Y-93933169D01*
X30560522Y-94530069D01*
X30120951Y-94530069D01*
X30205980Y-94496202D01*
X30285884Y-94434025D01*
X30346738Y-94351740D01*
X30383251Y-94254108D01*
X30395422Y-94141131D01*
X30383251Y-94022510D01*
X30346738Y-93920645D01*
X30285884Y-93835538D01*
X30206862Y-93771597D01*
X30115845Y-93733232D01*
X30012834Y-93720444D01*
X29915026Y-93731909D01*
X29829037Y-93766305D01*
X29754865Y-93823631D01*
X29697980Y-93902653D01*
X29663849Y-94002137D01*
X29652472Y-94122081D01*
X29321742Y-94122081D01*
X29321742Y-93515656D01*
X31817822Y-93515656D01*
X31847984Y-93587888D01*
X31919422Y-93618844D01*
X31993240Y-93587888D01*
X32024197Y-93515656D01*
X31993240Y-93443425D01*
X31931394Y-93418819D01*
X33389447Y-93418819D01*
X33725997Y-94530069D01*
X33930784Y-94530069D01*
X34265747Y-93418819D01*
X34086359Y-93418819D01*
X33833947Y-94288769D01*
X33821247Y-94288769D01*
X33568834Y-93418819D01*
X33389447Y-93418819D01*
X31931394Y-93418819D01*
X31919422Y-93414056D01*
X31847984Y-93443425D01*
X31817822Y-93515656D01*
X29321742Y-93515656D01*
X29321742Y-93083327D01*
G37*
G36*
X30094987Y-93867089D02*
G01*
X30163647Y-93911737D01*
X30213256Y-93978611D01*
X30238259Y-94060169D01*
X29808047Y-94060169D01*
X29823326Y-93976627D01*
X29865990Y-93910150D01*
X29930879Y-93866692D01*
X30012834Y-93852206D01*
X30094987Y-93867089D01*
G37*
%TO.C,kibuzzard-68A2FE4F*%
G36*
X29449999Y-90537771D02*
G01*
X33448515Y-90537771D01*
X34050001Y-91440000D01*
X33448515Y-92342229D01*
X29449999Y-92342229D01*
X29449999Y-91436825D01*
X30422211Y-91436825D01*
X30429801Y-91559410D01*
X30452572Y-91668402D01*
X30490523Y-91763800D01*
X30543654Y-91845606D01*
X30611371Y-91911239D01*
X30693078Y-91958120D01*
X30788774Y-91986249D01*
X30898461Y-91995625D01*
X31179448Y-91995625D01*
X31401698Y-91995625D01*
X31569973Y-91995625D01*
X31965261Y-91201875D01*
X31976373Y-91201875D01*
X31976373Y-91995625D01*
X32131948Y-91995625D01*
X32341498Y-91995625D01*
X32470086Y-91995625D01*
X32489136Y-91900375D01*
X32500248Y-91900375D01*
X32578829Y-91974988D01*
X32648084Y-92002372D01*
X32736786Y-92011500D01*
X32849234Y-91995537D01*
X32943161Y-91947647D01*
X33018567Y-91867831D01*
X33061975Y-91788407D01*
X33092981Y-91693802D01*
X33111584Y-91584016D01*
X33117786Y-91459050D01*
X33110939Y-91327734D01*
X33090401Y-91211598D01*
X33056171Y-91110643D01*
X33008248Y-91024869D01*
X32925874Y-90937997D01*
X32824804Y-90885874D01*
X32705036Y-90868500D01*
X32611726Y-90878466D01*
X32530763Y-90908364D01*
X32462148Y-90958194D01*
X32407997Y-91025839D01*
X32370426Y-91109183D01*
X32349436Y-91208225D01*
X32524061Y-91208225D01*
X32561808Y-91105037D01*
X32622133Y-91043125D01*
X32705036Y-91022488D01*
X32806636Y-91050467D01*
X32882836Y-91134406D01*
X32918113Y-91220219D01*
X32939280Y-91328434D01*
X32946336Y-91459050D01*
X32936747Y-91604782D01*
X32907982Y-91718130D01*
X32860039Y-91799093D01*
X32792920Y-91847670D01*
X32706623Y-91863863D01*
X32622684Y-91848781D01*
X32558192Y-91803538D01*
X32517115Y-91730116D01*
X32503423Y-91630500D01*
X32503423Y-91541600D01*
X32714561Y-91541600D01*
X32714561Y-91408250D01*
X32341498Y-91408250D01*
X32341498Y-91995625D01*
X32131948Y-91995625D01*
X32131948Y-90884375D01*
X31963673Y-90884375D01*
X31568386Y-91679713D01*
X31557273Y-91679713D01*
X31557273Y-90884375D01*
X31401698Y-90884375D01*
X31401698Y-91995625D01*
X31179448Y-91995625D01*
X31179448Y-90884375D01*
X30898461Y-90884375D01*
X30789419Y-90893652D01*
X30694070Y-90921483D01*
X30612413Y-90967868D01*
X30544448Y-91032806D01*
X30490969Y-91113719D01*
X30452770Y-91208027D01*
X30429850Y-91315729D01*
X30422211Y-91436825D01*
X29449999Y-91436825D01*
X29449999Y-90537771D01*
G37*
G36*
X31012761Y-91844812D02*
G01*
X30907986Y-91844812D01*
X30812647Y-91833259D01*
X30734066Y-91798599D01*
X30672242Y-91740831D01*
X30627704Y-91660839D01*
X30600981Y-91559503D01*
X30592073Y-91436825D01*
X30600848Y-91314102D01*
X30627174Y-91213693D01*
X30671051Y-91135597D01*
X30732479Y-91079814D01*
X30811457Y-91046344D01*
X30907986Y-91035188D01*
X31012761Y-91035188D01*
X31012761Y-91844812D01*
G37*
%TO.C,kibuzzard-68A2FE4A*%
G36*
X29388153Y-88900000D02*
G01*
X29460120Y-88792050D01*
X30320368Y-88792050D01*
X30642631Y-88792050D01*
X30642631Y-89174638D01*
X30623404Y-89264596D01*
X30565725Y-89318571D01*
X30469593Y-89336562D01*
X30364818Y-89323863D01*
X30364818Y-89454038D01*
X30435462Y-89467134D01*
X30507693Y-89471500D01*
X30614564Y-89460705D01*
X30627603Y-89455625D01*
X31288743Y-89455625D01*
X31434793Y-89455625D01*
X31450668Y-89357200D01*
X31461781Y-89357200D01*
X31523693Y-89420700D01*
X31603597Y-89458800D01*
X31701493Y-89471500D01*
X31821548Y-89450862D01*
X31915012Y-89388950D01*
X31975138Y-89290128D01*
X31995181Y-89158763D01*
X31995181Y-88900000D01*
X32195206Y-88900000D01*
X32201903Y-89026206D01*
X32221995Y-89138125D01*
X32255481Y-89235756D01*
X32302362Y-89319100D01*
X32382178Y-89403767D01*
X32478751Y-89454567D01*
X32592081Y-89471500D01*
X32706292Y-89454743D01*
X32803394Y-89404472D01*
X32883387Y-89320688D01*
X32930268Y-89237840D01*
X32946484Y-89190513D01*
X34122431Y-89190513D01*
X34163904Y-89306003D01*
X34243874Y-89395300D01*
X34315400Y-89437633D01*
X34397685Y-89463033D01*
X34490731Y-89471500D01*
X34602561Y-89458712D01*
X34610310Y-89455625D01*
X35090806Y-89455625D01*
X35813118Y-89455625D01*
X35813118Y-89307988D01*
X35533718Y-89307988D01*
X35533718Y-88492013D01*
X35805181Y-88492013D01*
X35805181Y-88344375D01*
X35098743Y-88344375D01*
X35098743Y-88492013D01*
X35367031Y-88492013D01*
X35367031Y-89307988D01*
X35090806Y-89307988D01*
X35090806Y-89455625D01*
X34610310Y-89455625D01*
X34698869Y-89420347D01*
X34779656Y-89356406D01*
X34840510Y-89272710D01*
X34877022Y-89175078D01*
X34889193Y-89063512D01*
X34876669Y-88949036D01*
X34839099Y-88849024D01*
X34776481Y-88763475D01*
X34694813Y-88698211D01*
X34600092Y-88659053D01*
X34492318Y-88646000D01*
X34402448Y-88654555D01*
X34321221Y-88680219D01*
X34248637Y-88722994D01*
X34189635Y-88781114D01*
X34149153Y-88852816D01*
X34127193Y-88938100D01*
X34290706Y-88938100D01*
X34314716Y-88877180D01*
X34358174Y-88827769D01*
X34418301Y-88795027D01*
X34492318Y-88784112D01*
X34586179Y-88803758D01*
X34661387Y-88862694D01*
X34710798Y-88952189D01*
X34727268Y-89063512D01*
X34711195Y-89170669D01*
X34662974Y-89257188D01*
X34587766Y-89314338D01*
X34490731Y-89333388D01*
X34417904Y-89323863D01*
X34358174Y-89295288D01*
X34313526Y-89250044D01*
X34285943Y-89190513D01*
X34122431Y-89190513D01*
X32946484Y-89190513D01*
X32963754Y-89140109D01*
X32983846Y-89027496D01*
X32990543Y-88900000D01*
X32983846Y-88773794D01*
X32963754Y-88661875D01*
X32930268Y-88564244D01*
X32883387Y-88480900D01*
X32803394Y-88396233D01*
X32706292Y-88345433D01*
X32592081Y-88328500D01*
X32478751Y-88345433D01*
X32382178Y-88396233D01*
X32302362Y-88480900D01*
X32255481Y-88564244D01*
X32221995Y-88661875D01*
X32201903Y-88773794D01*
X32195206Y-88900000D01*
X31995181Y-88900000D01*
X31995181Y-88661875D01*
X31833256Y-88661875D01*
X31833256Y-89130187D01*
X31820357Y-89219087D01*
X31781662Y-89282588D01*
X31722726Y-89320688D01*
X31649106Y-89333388D01*
X31569731Y-89319894D01*
X31506231Y-89279412D01*
X31464559Y-89211944D01*
X31450668Y-89117487D01*
X31450668Y-88661875D01*
X31288743Y-88661875D01*
X31288743Y-89455625D01*
X30627603Y-89455625D01*
X30697685Y-89428320D01*
X30757058Y-89374345D01*
X30792681Y-89298780D01*
X30804556Y-89201625D01*
X30804556Y-88792050D01*
X31056968Y-88792050D01*
X31056968Y-88661875D01*
X30926793Y-88661875D01*
X30819637Y-88630125D01*
X30788681Y-88519000D01*
X30788681Y-88445975D01*
X30642631Y-88445975D01*
X30642631Y-88661875D01*
X30320368Y-88661875D01*
X30320368Y-88792050D01*
X29460120Y-88792050D01*
X29989639Y-87997771D01*
X36143847Y-87997771D01*
X36143847Y-89802229D01*
X29989639Y-89802229D01*
X29388153Y-88900000D01*
G37*
G36*
X32688521Y-88509277D02*
G01*
X32761943Y-88589644D01*
X32796339Y-88671753D01*
X32816976Y-88775205D01*
X32823856Y-88900000D01*
X32816976Y-89024795D01*
X32796339Y-89128247D01*
X32761943Y-89210356D01*
X32688521Y-89290723D01*
X32592081Y-89317512D01*
X32496831Y-89290723D01*
X32423806Y-89210356D01*
X32389410Y-89128247D01*
X32368772Y-89024795D01*
X32361893Y-88900000D01*
X32368772Y-88775205D01*
X32389410Y-88671753D01*
X32423806Y-88589644D01*
X32496831Y-88509277D01*
X32592081Y-88482488D01*
X32688521Y-88509277D01*
G37*
%TO.C,kibuzzard-68A2FE46*%
G36*
X29366192Y-85465708D02*
G01*
X34553613Y-85465708D01*
X35149808Y-86360000D01*
X34553613Y-87254292D01*
X29366192Y-87254292D01*
X29366192Y-86907688D01*
X29696922Y-86907688D01*
X29858847Y-86907688D01*
X29858847Y-86439375D01*
X29871745Y-86350475D01*
X29910440Y-86286975D01*
X29969376Y-86248875D01*
X30042997Y-86236175D01*
X30122372Y-86249669D01*
X30185872Y-86290150D01*
X30227543Y-86357619D01*
X30241434Y-86452075D01*
X30241434Y-86907688D01*
X30403359Y-86907688D01*
X30643072Y-86907688D01*
X31365384Y-86907688D01*
X31365384Y-86760050D01*
X31085984Y-86760050D01*
X31085984Y-86642575D01*
X32532197Y-86642575D01*
X32573670Y-86758066D01*
X32653640Y-86847363D01*
X32725166Y-86889696D01*
X32807451Y-86915096D01*
X32900497Y-86923563D01*
X33012327Y-86910774D01*
X33020074Y-86907688D01*
X33500572Y-86907688D01*
X34222884Y-86907688D01*
X34222884Y-86760050D01*
X33943484Y-86760050D01*
X33943484Y-85944075D01*
X34214947Y-85944075D01*
X34214947Y-85796437D01*
X33508509Y-85796437D01*
X33508509Y-85944075D01*
X33776797Y-85944075D01*
X33776797Y-86760050D01*
X33500572Y-86760050D01*
X33500572Y-86907688D01*
X33020074Y-86907688D01*
X33108635Y-86872410D01*
X33189422Y-86808469D01*
X33250276Y-86724772D01*
X33286788Y-86627141D01*
X33298959Y-86515575D01*
X33286435Y-86401099D01*
X33248865Y-86301086D01*
X33186247Y-86215538D01*
X33104578Y-86150274D01*
X33009858Y-86111115D01*
X32902084Y-86098063D01*
X32812214Y-86106617D01*
X32730987Y-86132282D01*
X32658403Y-86175056D01*
X32599401Y-86233176D01*
X32558919Y-86304878D01*
X32536959Y-86390163D01*
X32700472Y-86390163D01*
X32724482Y-86329242D01*
X32767940Y-86279831D01*
X32828067Y-86247089D01*
X32902084Y-86236175D01*
X32995945Y-86255820D01*
X33071153Y-86314756D01*
X33120564Y-86404252D01*
X33137034Y-86515575D01*
X33120961Y-86622731D01*
X33072740Y-86709250D01*
X32997532Y-86766400D01*
X32900497Y-86785450D01*
X32827670Y-86775925D01*
X32767940Y-86747350D01*
X32723292Y-86702106D01*
X32695709Y-86642575D01*
X32532197Y-86642575D01*
X31085984Y-86642575D01*
X31085984Y-85944075D01*
X31357447Y-85944075D01*
X31357447Y-85796437D01*
X30651009Y-85796437D01*
X30651009Y-85944075D01*
X30919297Y-85944075D01*
X30919297Y-86760050D01*
X30643072Y-86760050D01*
X30643072Y-86907688D01*
X30403359Y-86907688D01*
X30403359Y-86113938D01*
X30257309Y-86113938D01*
X30241434Y-86212363D01*
X30230322Y-86212363D01*
X30168409Y-86148862D01*
X30088505Y-86110763D01*
X29990609Y-86098063D01*
X29870554Y-86118700D01*
X29777090Y-86180613D01*
X29716964Y-86279434D01*
X29696922Y-86410800D01*
X29696922Y-86907688D01*
X29366192Y-86907688D01*
X29366192Y-85465708D01*
G37*
%TO.C,kibuzzard-68A2FE41*%
G36*
X29195999Y-82917771D02*
G01*
X33194515Y-82917771D01*
X33796001Y-83820000D01*
X33194515Y-84722229D01*
X29195999Y-84722229D01*
X29195999Y-83816825D01*
X30168211Y-83816825D01*
X30175801Y-83939410D01*
X30198572Y-84048402D01*
X30236523Y-84143800D01*
X30289654Y-84225606D01*
X30357371Y-84291239D01*
X30439078Y-84338120D01*
X30534774Y-84366249D01*
X30644461Y-84375625D01*
X30925448Y-84375625D01*
X31147698Y-84375625D01*
X31315973Y-84375625D01*
X31711261Y-83581875D01*
X31722373Y-83581875D01*
X31722373Y-84375625D01*
X31877948Y-84375625D01*
X32087498Y-84375625D01*
X32216086Y-84375625D01*
X32235136Y-84280375D01*
X32246248Y-84280375D01*
X32324829Y-84354988D01*
X32394084Y-84382372D01*
X32482786Y-84391500D01*
X32595234Y-84375537D01*
X32689161Y-84327647D01*
X32764567Y-84247831D01*
X32807975Y-84168407D01*
X32838981Y-84073802D01*
X32857584Y-83964016D01*
X32863786Y-83839050D01*
X32856939Y-83707734D01*
X32836401Y-83591598D01*
X32802171Y-83490643D01*
X32754248Y-83404869D01*
X32671874Y-83317997D01*
X32570804Y-83265874D01*
X32451036Y-83248500D01*
X32357726Y-83258466D01*
X32276763Y-83288364D01*
X32208148Y-83338194D01*
X32153997Y-83405839D01*
X32116426Y-83489183D01*
X32095436Y-83588225D01*
X32270061Y-83588225D01*
X32307808Y-83485037D01*
X32368133Y-83423125D01*
X32451036Y-83402488D01*
X32552636Y-83430467D01*
X32628836Y-83514406D01*
X32664113Y-83600219D01*
X32685280Y-83708434D01*
X32692336Y-83839050D01*
X32682747Y-83984782D01*
X32653982Y-84098130D01*
X32606039Y-84179093D01*
X32538920Y-84227670D01*
X32452623Y-84243863D01*
X32368684Y-84228781D01*
X32304192Y-84183538D01*
X32263115Y-84110116D01*
X32249423Y-84010500D01*
X32249423Y-83921600D01*
X32460561Y-83921600D01*
X32460561Y-83788250D01*
X32087498Y-83788250D01*
X32087498Y-84375625D01*
X31877948Y-84375625D01*
X31877948Y-83264375D01*
X31709673Y-83264375D01*
X31314386Y-84059713D01*
X31303273Y-84059713D01*
X31303273Y-83264375D01*
X31147698Y-83264375D01*
X31147698Y-84375625D01*
X30925448Y-84375625D01*
X30925448Y-83264375D01*
X30644461Y-83264375D01*
X30535419Y-83273652D01*
X30440070Y-83301483D01*
X30358413Y-83347868D01*
X30290448Y-83412806D01*
X30236969Y-83493719D01*
X30198770Y-83588027D01*
X30175850Y-83695729D01*
X30168211Y-83816825D01*
X29195999Y-83816825D01*
X29195999Y-82917771D01*
G37*
G36*
X30758761Y-84224812D02*
G01*
X30653986Y-84224812D01*
X30558647Y-84213259D01*
X30480066Y-84178599D01*
X30418242Y-84120831D01*
X30373704Y-84040839D01*
X30346981Y-83939503D01*
X30338073Y-83816825D01*
X30346848Y-83694102D01*
X30373174Y-83593693D01*
X30417051Y-83515597D01*
X30478479Y-83459814D01*
X30557457Y-83426344D01*
X30653986Y-83415188D01*
X30758761Y-83415188D01*
X30758761Y-84224812D01*
G37*
%TO.C,kibuzzard-68A2FE3C*%
G36*
X29318303Y-81280000D02*
G01*
X29390270Y-81172050D01*
X30250518Y-81172050D01*
X30572781Y-81172050D01*
X30572781Y-81554638D01*
X30553554Y-81644596D01*
X30495875Y-81698571D01*
X30399743Y-81716562D01*
X30294968Y-81703863D01*
X30294968Y-81834038D01*
X30365612Y-81847134D01*
X30437843Y-81851500D01*
X30544714Y-81840705D01*
X30557753Y-81835625D01*
X31218893Y-81835625D01*
X31364943Y-81835625D01*
X31380818Y-81737200D01*
X31391931Y-81737200D01*
X31453843Y-81800700D01*
X31533747Y-81838800D01*
X31631643Y-81851500D01*
X31751698Y-81830862D01*
X31845162Y-81768950D01*
X31905288Y-81670128D01*
X31925331Y-81538763D01*
X31925331Y-81280000D01*
X32125356Y-81280000D01*
X32132053Y-81406206D01*
X32152145Y-81518125D01*
X32185631Y-81615756D01*
X32232512Y-81699100D01*
X32312328Y-81783767D01*
X32408901Y-81834567D01*
X32522231Y-81851500D01*
X32630431Y-81835625D01*
X33990668Y-81835625D01*
X34163706Y-81835625D01*
X34247843Y-81545113D01*
X34611381Y-81545113D01*
X34693931Y-81835625D01*
X34866968Y-81835625D01*
X34530418Y-80724375D01*
X34327218Y-80724375D01*
X33990668Y-81835625D01*
X32630431Y-81835625D01*
X32636442Y-81834743D01*
X32733544Y-81784472D01*
X32813537Y-81700688D01*
X32860418Y-81617840D01*
X32893904Y-81520109D01*
X32913996Y-81407496D01*
X32920693Y-81280000D01*
X32913996Y-81153794D01*
X32893904Y-81041875D01*
X32860418Y-80944244D01*
X32813537Y-80860900D01*
X32733544Y-80776233D01*
X32636442Y-80725433D01*
X32522231Y-80708500D01*
X32408901Y-80725433D01*
X32312328Y-80776233D01*
X32232512Y-80860900D01*
X32185631Y-80944244D01*
X32152145Y-81041875D01*
X32132053Y-81153794D01*
X32125356Y-81280000D01*
X31925331Y-81280000D01*
X31925331Y-81041875D01*
X31763406Y-81041875D01*
X31763406Y-81510187D01*
X31750507Y-81599087D01*
X31711812Y-81662588D01*
X31652876Y-81700688D01*
X31579256Y-81713388D01*
X31499881Y-81699894D01*
X31436381Y-81659412D01*
X31394709Y-81591944D01*
X31380818Y-81497487D01*
X31380818Y-81041875D01*
X31218893Y-81041875D01*
X31218893Y-81835625D01*
X30557753Y-81835625D01*
X30627835Y-81808320D01*
X30687208Y-81754345D01*
X30722831Y-81678780D01*
X30734706Y-81581625D01*
X30734706Y-81172050D01*
X30987118Y-81172050D01*
X30987118Y-81041875D01*
X30856943Y-81041875D01*
X30749787Y-81010125D01*
X30718831Y-80899000D01*
X30718831Y-80825975D01*
X30572781Y-80825975D01*
X30572781Y-81041875D01*
X30250518Y-81041875D01*
X30250518Y-81172050D01*
X29390270Y-81172050D01*
X29919789Y-80377771D01*
X35197697Y-80377771D01*
X35197697Y-82182229D01*
X29919789Y-82182229D01*
X29318303Y-81280000D01*
G37*
G36*
X32618671Y-80889277D02*
G01*
X32692093Y-80969644D01*
X32726489Y-81051753D01*
X32747126Y-81155205D01*
X32754006Y-81280000D01*
X32747126Y-81404795D01*
X32726489Y-81508247D01*
X32692093Y-81590356D01*
X32618671Y-81670723D01*
X32522231Y-81697512D01*
X32426981Y-81670723D01*
X32353956Y-81590356D01*
X32319560Y-81508247D01*
X32298922Y-81404795D01*
X32292043Y-81280000D01*
X32298922Y-81155205D01*
X32319560Y-81051753D01*
X32353956Y-80969644D01*
X32426981Y-80889277D01*
X32522231Y-80862488D01*
X32618671Y-80889277D01*
G37*
G36*
X34570106Y-81403825D02*
G01*
X34287531Y-81403825D01*
X34424056Y-80929162D01*
X34435168Y-80929162D01*
X34570106Y-81403825D01*
G37*
%TO.C,kibuzzard-68A2FE36*%
G36*
X29298988Y-77853646D02*
G01*
X33610109Y-77853646D01*
X34201012Y-78740000D01*
X33610109Y-79626354D01*
X29298988Y-79626354D01*
X29298988Y-79295625D01*
X29629717Y-79295625D01*
X29791642Y-79295625D01*
X29791642Y-78827313D01*
X29804541Y-78738413D01*
X29843236Y-78674912D01*
X29902172Y-78636812D01*
X29975792Y-78624112D01*
X30055167Y-78637606D01*
X30118667Y-78678088D01*
X30160339Y-78745556D01*
X30174230Y-78840013D01*
X30174230Y-79295625D01*
X30336155Y-79295625D01*
X30575867Y-79295625D01*
X31298180Y-79295625D01*
X32403080Y-79295625D01*
X32576117Y-79295625D01*
X32660255Y-79005113D01*
X33023792Y-79005113D01*
X33106342Y-79295625D01*
X33279380Y-79295625D01*
X32942830Y-78184375D01*
X32739630Y-78184375D01*
X32403080Y-79295625D01*
X31298180Y-79295625D01*
X31298180Y-79147988D01*
X31018780Y-79147988D01*
X31018780Y-78332013D01*
X31290242Y-78332013D01*
X31290242Y-78184375D01*
X30583805Y-78184375D01*
X30583805Y-78332013D01*
X30852092Y-78332013D01*
X30852092Y-79147988D01*
X30575867Y-79147988D01*
X30575867Y-79295625D01*
X30336155Y-79295625D01*
X30336155Y-78501875D01*
X30190105Y-78501875D01*
X30174230Y-78600300D01*
X30163117Y-78600300D01*
X30101205Y-78536800D01*
X30021301Y-78498700D01*
X29923405Y-78486000D01*
X29803350Y-78506637D01*
X29709886Y-78568550D01*
X29649760Y-78667372D01*
X29629717Y-78798737D01*
X29629717Y-79295625D01*
X29298988Y-79295625D01*
X29298988Y-77853646D01*
G37*
G36*
X32982517Y-78863825D02*
G01*
X32699942Y-78863825D01*
X32836467Y-78389162D01*
X32847580Y-78389162D01*
X32982517Y-78863825D01*
G37*
%TO.C,kibuzzard-68A2FE30*%
G36*
X29449999Y-75297771D02*
G01*
X33448515Y-75297771D01*
X34050001Y-76200000D01*
X33448515Y-77102229D01*
X29449999Y-77102229D01*
X29449999Y-76196825D01*
X30422211Y-76196825D01*
X30429801Y-76319410D01*
X30452572Y-76428402D01*
X30490523Y-76523800D01*
X30543654Y-76605606D01*
X30611371Y-76671239D01*
X30693078Y-76718120D01*
X30788774Y-76746249D01*
X30898461Y-76755625D01*
X31179448Y-76755625D01*
X31401698Y-76755625D01*
X31569973Y-76755625D01*
X31965261Y-75961875D01*
X31976373Y-75961875D01*
X31976373Y-76755625D01*
X32131948Y-76755625D01*
X32341498Y-76755625D01*
X32470086Y-76755625D01*
X32489136Y-76660375D01*
X32500248Y-76660375D01*
X32578829Y-76734988D01*
X32648084Y-76762372D01*
X32736786Y-76771500D01*
X32849234Y-76755537D01*
X32943161Y-76707647D01*
X33018567Y-76627831D01*
X33061975Y-76548407D01*
X33092981Y-76453802D01*
X33111584Y-76344016D01*
X33117786Y-76219050D01*
X33110939Y-76087734D01*
X33090401Y-75971598D01*
X33056171Y-75870643D01*
X33008248Y-75784869D01*
X32925874Y-75697997D01*
X32824804Y-75645874D01*
X32705036Y-75628500D01*
X32611726Y-75638466D01*
X32530763Y-75668364D01*
X32462148Y-75718194D01*
X32407997Y-75785839D01*
X32370426Y-75869183D01*
X32349436Y-75968225D01*
X32524061Y-75968225D01*
X32561808Y-75865037D01*
X32622133Y-75803125D01*
X32705036Y-75782488D01*
X32806636Y-75810467D01*
X32882836Y-75894406D01*
X32918113Y-75980219D01*
X32939280Y-76088434D01*
X32946336Y-76219050D01*
X32936747Y-76364782D01*
X32907982Y-76478130D01*
X32860039Y-76559093D01*
X32792920Y-76607670D01*
X32706623Y-76623863D01*
X32622684Y-76608781D01*
X32558192Y-76563538D01*
X32517115Y-76490116D01*
X32503423Y-76390500D01*
X32503423Y-76301600D01*
X32714561Y-76301600D01*
X32714561Y-76168250D01*
X32341498Y-76168250D01*
X32341498Y-76755625D01*
X32131948Y-76755625D01*
X32131948Y-75644375D01*
X31963673Y-75644375D01*
X31568386Y-76439713D01*
X31557273Y-76439713D01*
X31557273Y-75644375D01*
X31401698Y-75644375D01*
X31401698Y-76755625D01*
X31179448Y-76755625D01*
X31179448Y-75644375D01*
X30898461Y-75644375D01*
X30789419Y-75653652D01*
X30694070Y-75681483D01*
X30612413Y-75727868D01*
X30544448Y-75792806D01*
X30490969Y-75873719D01*
X30452770Y-75968027D01*
X30429850Y-76075729D01*
X30422211Y-76196825D01*
X29449999Y-76196825D01*
X29449999Y-75297771D01*
G37*
G36*
X31012761Y-76604812D02*
G01*
X30907986Y-76604812D01*
X30812647Y-76593259D01*
X30734066Y-76558599D01*
X30672242Y-76500831D01*
X30627704Y-76420839D01*
X30600981Y-76319503D01*
X30592073Y-76196825D01*
X30600848Y-76074102D01*
X30627174Y-75973693D01*
X30671051Y-75895597D01*
X30732479Y-75839814D01*
X30811457Y-75806344D01*
X30907986Y-75795188D01*
X31012761Y-75795188D01*
X31012761Y-76604812D01*
G37*
%TO.C,kibuzzard-68A2FE2B*%
G36*
X29195999Y-73660000D02*
G01*
X29267966Y-73552050D01*
X30826847Y-73552050D01*
X31169747Y-73552050D01*
X31169747Y-74215625D01*
X31331672Y-74215625D01*
X31331672Y-73807638D01*
X31782522Y-73807638D01*
X31785697Y-73860025D01*
X32369897Y-73860025D01*
X32349259Y-73957458D01*
X32300047Y-74033856D01*
X32227022Y-74083267D01*
X32134947Y-74099738D01*
X32043401Y-74086156D01*
X31978313Y-74045410D01*
X31939684Y-73977500D01*
X31784109Y-73977500D01*
X31826575Y-74083664D01*
X31903172Y-74164031D01*
X32007947Y-74214633D01*
X32134947Y-74231500D01*
X32242368Y-74219065D01*
X32251004Y-74215625D01*
X32685809Y-74215625D01*
X32865197Y-74215625D01*
X33123959Y-73761600D01*
X33301759Y-73761600D01*
X33301759Y-74215625D01*
X33465272Y-74215625D01*
X33465272Y-73104375D01*
X33082684Y-73104375D01*
X32983024Y-73114076D01*
X32897829Y-73143181D01*
X32827097Y-73191687D01*
X32774180Y-73256246D01*
X32742430Y-73333504D01*
X32731847Y-73423462D01*
X32747126Y-73530420D01*
X32792965Y-73619519D01*
X32865792Y-73687980D01*
X32962034Y-73733025D01*
X32685809Y-74215625D01*
X32251004Y-74215625D01*
X32336030Y-74181758D01*
X32415934Y-74119581D01*
X32476788Y-74037296D01*
X32513301Y-73939665D01*
X32525472Y-73826688D01*
X32513301Y-73708066D01*
X32476788Y-73606201D01*
X32415934Y-73521094D01*
X32336912Y-73457153D01*
X32245895Y-73418788D01*
X32142884Y-73406000D01*
X32045077Y-73417465D01*
X31959087Y-73451861D01*
X31884915Y-73509188D01*
X31828030Y-73588210D01*
X31793899Y-73687693D01*
X31782522Y-73807638D01*
X31331672Y-73807638D01*
X31331672Y-73552050D01*
X31563447Y-73552050D01*
X31563447Y-73421875D01*
X31331672Y-73421875D01*
X31331672Y-73367900D01*
X31310439Y-73244670D01*
X31246740Y-73157556D01*
X31151689Y-73105764D01*
X31036397Y-73088500D01*
X30948290Y-73097231D01*
X30864947Y-73123425D01*
X30896697Y-73242488D01*
X31009409Y-73220262D01*
X31077076Y-73231177D01*
X31127678Y-73263919D01*
X31159230Y-73315711D01*
X31169747Y-73383775D01*
X31169747Y-73421875D01*
X30826847Y-73421875D01*
X30826847Y-73552050D01*
X29267966Y-73552050D01*
X29797485Y-72757771D01*
X33796001Y-72757771D01*
X33796001Y-74562229D01*
X29797485Y-74562229D01*
X29195999Y-73660000D01*
G37*
G36*
X33301759Y-73617138D02*
G01*
X33104909Y-73617138D01*
X33019780Y-73604438D01*
X32954890Y-73566337D01*
X32913814Y-73507203D01*
X32900122Y-73431400D01*
X32913814Y-73355002D01*
X32954890Y-73297256D01*
X33019780Y-73260942D01*
X33104909Y-73248837D01*
X33301759Y-73248837D01*
X33301759Y-73617138D01*
G37*
G36*
X32225037Y-73552645D02*
G01*
X32293697Y-73597294D01*
X32343306Y-73664167D01*
X32368309Y-73745725D01*
X31938097Y-73745725D01*
X31953376Y-73662183D01*
X31996040Y-73595706D01*
X32060930Y-73552248D01*
X32142884Y-73537763D01*
X32225037Y-73552645D01*
G37*
%TO.C,kibuzzard-68A2FE25*%
G36*
X29195999Y-71120000D02*
G01*
X29797485Y-70217771D01*
X33796001Y-70217771D01*
X33796001Y-72022229D01*
X29797485Y-72022229D01*
X29566416Y-71675625D01*
X30764934Y-71675625D01*
X30955434Y-71675625D01*
X31291984Y-71180325D01*
X31366597Y-71180325D01*
X31366597Y-71675625D01*
X31533284Y-71675625D01*
X31763472Y-71675625D01*
X32469909Y-71675625D01*
X32469909Y-71331138D01*
X32671522Y-71331138D01*
X32695070Y-71440058D01*
X32736080Y-71529751D01*
X32794553Y-71600219D01*
X32867666Y-71650931D01*
X32952597Y-71681358D01*
X33049347Y-71691500D01*
X33173260Y-71674743D01*
X33276183Y-71624472D01*
X33358115Y-71540688D01*
X33404996Y-71458138D01*
X33438483Y-71361300D01*
X33458574Y-71250175D01*
X33465272Y-71124763D01*
X33458426Y-70997118D01*
X33437887Y-70884058D01*
X33403657Y-70785583D01*
X33355734Y-70701694D01*
X33273008Y-70616586D01*
X33170879Y-70565522D01*
X33049347Y-70548500D01*
X32954097Y-70558554D01*
X32871547Y-70588717D01*
X32801697Y-70638987D01*
X32746311Y-70710072D01*
X32707152Y-70802676D01*
X32684222Y-70916800D01*
X32855672Y-70916800D01*
X32891302Y-70797737D01*
X32955861Y-70726300D01*
X33049347Y-70702488D01*
X33152534Y-70730467D01*
X33230322Y-70814406D01*
X33266481Y-70898632D01*
X33288177Y-71002084D01*
X33295409Y-71124763D01*
X33288089Y-71248499D01*
X33266129Y-71350893D01*
X33229528Y-71431944D01*
X33151542Y-71511120D01*
X33049347Y-71537512D01*
X32952333Y-71514582D01*
X32883541Y-71445790D01*
X32842972Y-71331138D01*
X32671522Y-71331138D01*
X32469909Y-71331138D01*
X32469909Y-70564375D01*
X32300047Y-70564375D01*
X32300047Y-71524812D01*
X31763472Y-71524812D01*
X31763472Y-71675625D01*
X31533284Y-71675625D01*
X31533284Y-70564375D01*
X31366597Y-70564375D01*
X31366597Y-71029512D01*
X31291984Y-71029512D01*
X30991947Y-70564375D01*
X30801447Y-70564375D01*
X31137997Y-71096188D01*
X31137997Y-71104125D01*
X30764934Y-71675625D01*
X29566416Y-71675625D01*
X29195999Y-71120000D01*
G37*
%TO.C,kibuzzard-68A2FE1E*%
G36*
X29449999Y-67677771D02*
G01*
X33448515Y-67677771D01*
X34050001Y-68580000D01*
X33448515Y-69482229D01*
X29449999Y-69482229D01*
X29449999Y-68576825D01*
X30422211Y-68576825D01*
X30429801Y-68699410D01*
X30452572Y-68808402D01*
X30490523Y-68903800D01*
X30543654Y-68985606D01*
X30611371Y-69051239D01*
X30693078Y-69098120D01*
X30788774Y-69126249D01*
X30898461Y-69135625D01*
X31179448Y-69135625D01*
X31401698Y-69135625D01*
X31569973Y-69135625D01*
X31965261Y-68341875D01*
X31976373Y-68341875D01*
X31976373Y-69135625D01*
X32131948Y-69135625D01*
X32341498Y-69135625D01*
X32470086Y-69135625D01*
X32489136Y-69040375D01*
X32500248Y-69040375D01*
X32578829Y-69114988D01*
X32648084Y-69142372D01*
X32736786Y-69151500D01*
X32849234Y-69135537D01*
X32943161Y-69087647D01*
X33018567Y-69007831D01*
X33061975Y-68928407D01*
X33092981Y-68833802D01*
X33111584Y-68724016D01*
X33117786Y-68599050D01*
X33110939Y-68467734D01*
X33090401Y-68351598D01*
X33056171Y-68250643D01*
X33008248Y-68164869D01*
X32925874Y-68077997D01*
X32824804Y-68025874D01*
X32705036Y-68008500D01*
X32611726Y-68018466D01*
X32530763Y-68048364D01*
X32462148Y-68098194D01*
X32407997Y-68165839D01*
X32370426Y-68249183D01*
X32349436Y-68348225D01*
X32524061Y-68348225D01*
X32561808Y-68245037D01*
X32622133Y-68183125D01*
X32705036Y-68162488D01*
X32806636Y-68190467D01*
X32882836Y-68274406D01*
X32918113Y-68360219D01*
X32939280Y-68468434D01*
X32946336Y-68599050D01*
X32936747Y-68744782D01*
X32907982Y-68858130D01*
X32860039Y-68939093D01*
X32792920Y-68987670D01*
X32706623Y-69003863D01*
X32622684Y-68988781D01*
X32558192Y-68943538D01*
X32517115Y-68870116D01*
X32503423Y-68770500D01*
X32503423Y-68681600D01*
X32714561Y-68681600D01*
X32714561Y-68548250D01*
X32341498Y-68548250D01*
X32341498Y-69135625D01*
X32131948Y-69135625D01*
X32131948Y-68024375D01*
X31963673Y-68024375D01*
X31568386Y-68819713D01*
X31557273Y-68819713D01*
X31557273Y-68024375D01*
X31401698Y-68024375D01*
X31401698Y-69135625D01*
X31179448Y-69135625D01*
X31179448Y-68024375D01*
X30898461Y-68024375D01*
X30789419Y-68033652D01*
X30694070Y-68061483D01*
X30612413Y-68107868D01*
X30544448Y-68172806D01*
X30490969Y-68253719D01*
X30452770Y-68348027D01*
X30429850Y-68455729D01*
X30422211Y-68576825D01*
X29449999Y-68576825D01*
X29449999Y-67677771D01*
G37*
G36*
X31012761Y-68984812D02*
G01*
X30907986Y-68984812D01*
X30812647Y-68973259D01*
X30734066Y-68938599D01*
X30672242Y-68880831D01*
X30627704Y-68800839D01*
X30600981Y-68699503D01*
X30592073Y-68576825D01*
X30600848Y-68454102D01*
X30627174Y-68353693D01*
X30671051Y-68275597D01*
X30732479Y-68219814D01*
X30811457Y-68186344D01*
X30907986Y-68175188D01*
X31012761Y-68175188D01*
X31012761Y-68984812D01*
G37*
%TO.C,kibuzzard-68A2FE18*%
G36*
X29211610Y-66040000D02*
G01*
X29781875Y-65184602D01*
X33780390Y-65184602D01*
X33780390Y-66895398D01*
X29781875Y-66895398D01*
X29213197Y-66042381D01*
X30809649Y-66042381D01*
X30816048Y-66163825D01*
X30835247Y-66269394D01*
X30867245Y-66359088D01*
X30912043Y-66432906D01*
X30988507Y-66506108D01*
X31081376Y-66550028D01*
X31190649Y-66564669D01*
X31300186Y-66549852D01*
X31393849Y-66505402D01*
X31471636Y-66431319D01*
X31517475Y-66356805D01*
X31550218Y-66266616D01*
X31569863Y-66160749D01*
X31576411Y-66039206D01*
X31569863Y-65919003D01*
X31550218Y-65813980D01*
X31528739Y-65755044D01*
X31746274Y-65755044D01*
X32046311Y-66548794D01*
X32243161Y-66548794D01*
X32365621Y-66226531D01*
X32743224Y-66226531D01*
X32754513Y-66322310D01*
X32788379Y-66404331D01*
X32844824Y-66472594D01*
X32919084Y-66523747D01*
X33006396Y-66554438D01*
X33106761Y-66564669D01*
X33200777Y-66555320D01*
X33281739Y-66527274D01*
X33349649Y-66480531D01*
X33401684Y-66418090D01*
X33435021Y-66342948D01*
X33449661Y-66255106D01*
X33292499Y-66255106D01*
X33274838Y-66328925D01*
X33234555Y-66385281D01*
X33176016Y-66421000D01*
X33103586Y-66432906D01*
X33024608Y-66419214D01*
X32962299Y-66378138D01*
X32921818Y-66313645D01*
X32908324Y-66229706D01*
X32921222Y-66145767D01*
X32959918Y-66078100D01*
X33020044Y-66033452D01*
X33097236Y-66018569D01*
X33205186Y-66045556D01*
X33281386Y-66121756D01*
X33427436Y-66088419D01*
X33373461Y-65532794D01*
X32790849Y-65532794D01*
X32790849Y-65669319D01*
X33232174Y-65669319D01*
X33262336Y-65961419D01*
X33175421Y-65910222D01*
X33063899Y-65893156D01*
X32974646Y-65903651D01*
X32897388Y-65935137D01*
X32832124Y-65987613D01*
X32782735Y-66056140D01*
X32753102Y-66135779D01*
X32743224Y-66226531D01*
X32365621Y-66226531D01*
X32544786Y-65755044D01*
X32378099Y-65755044D01*
X32149499Y-66380519D01*
X32138386Y-66380519D01*
X31911374Y-65755044D01*
X31746274Y-65755044D01*
X31528739Y-65755044D01*
X31517475Y-65724137D01*
X31471636Y-65649475D01*
X31393849Y-65574951D01*
X31300186Y-65530236D01*
X31190649Y-65515331D01*
X31081376Y-65530236D01*
X30988507Y-65574951D01*
X30912043Y-65649475D01*
X30867245Y-65724336D01*
X30835247Y-65814773D01*
X30816048Y-65920789D01*
X30809649Y-66042381D01*
X29213197Y-66042381D01*
X29211610Y-66040000D01*
G37*
G36*
X31343049Y-66332894D02*
G01*
X31277168Y-66400759D01*
X31190649Y-66423381D01*
X31104725Y-66399569D01*
X31037455Y-66328131D01*
X31005264Y-66253872D01*
X30985949Y-66158092D01*
X30979511Y-66040794D01*
X30983480Y-65951894D01*
X30995386Y-65869344D01*
X31343049Y-66332894D01*
G37*
G36*
X31276771Y-65680431D02*
G01*
X31344636Y-65751869D01*
X31377268Y-65826305D01*
X31396847Y-65922613D01*
X31403374Y-66040794D01*
X31399405Y-66134059D01*
X31387499Y-66210656D01*
X31039836Y-65748694D01*
X31105321Y-65679638D01*
X31190649Y-65656619D01*
X31276771Y-65680431D01*
G37*
%TO.C,kibuzzard-68A2FE0E*%
G36*
X29468520Y-62653333D02*
G01*
X33467036Y-62653333D01*
X34031480Y-63500000D01*
X33467036Y-64346667D01*
X29468520Y-64346667D01*
X29468520Y-63677800D01*
X30474069Y-63677800D01*
X30485358Y-63773579D01*
X30519224Y-63855600D01*
X30575669Y-63923863D01*
X30649929Y-63975015D01*
X30737241Y-64005707D01*
X30837606Y-64015938D01*
X30931622Y-64006589D01*
X31012584Y-63978543D01*
X31080494Y-63931800D01*
X31132529Y-63869358D01*
X31165866Y-63794217D01*
X31180506Y-63706375D01*
X31023344Y-63706375D01*
X31005683Y-63780194D01*
X30965400Y-63836550D01*
X30906861Y-63872269D01*
X30834431Y-63884175D01*
X30755453Y-63870483D01*
X30693144Y-63829406D01*
X30652663Y-63764914D01*
X30639169Y-63680975D01*
X30652067Y-63597036D01*
X30690763Y-63529369D01*
X30750889Y-63484720D01*
X30828081Y-63469838D01*
X30936031Y-63496825D01*
X31012231Y-63573025D01*
X31158281Y-63539688D01*
X31125896Y-63206313D01*
X31382119Y-63206313D01*
X31682156Y-64000063D01*
X31879006Y-64000063D01*
X31965874Y-63771463D01*
X32331444Y-63771463D01*
X32506069Y-63771463D01*
X32506069Y-64000063D01*
X32661644Y-64000063D01*
X32661644Y-63771463D01*
X33136306Y-63771463D01*
X33136306Y-63690500D01*
X32675931Y-62984063D01*
X32506069Y-62984063D01*
X32506069Y-63646050D01*
X32331444Y-63646050D01*
X32331444Y-63771463D01*
X31965874Y-63771463D01*
X32180631Y-63206313D01*
X32013944Y-63206313D01*
X31785344Y-63831788D01*
X31774231Y-63831788D01*
X31547219Y-63206313D01*
X31382119Y-63206313D01*
X31125896Y-63206313D01*
X31104306Y-62984063D01*
X30521694Y-62984063D01*
X30521694Y-63120588D01*
X30963019Y-63120588D01*
X30993181Y-63412688D01*
X30906266Y-63361491D01*
X30794744Y-63344425D01*
X30705491Y-63354920D01*
X30628233Y-63386406D01*
X30562969Y-63438881D01*
X30513580Y-63507408D01*
X30483947Y-63587048D01*
X30474069Y-63677800D01*
X29468520Y-63677800D01*
X29468520Y-62653333D01*
G37*
G36*
X32947394Y-63646050D02*
G01*
X32661644Y-63646050D01*
X32661644Y-63203138D01*
X32674344Y-63203138D01*
X32947394Y-63646050D01*
G37*
%TO.C,kibuzzard-68A2FE06*%
G36*
X29449999Y-60057771D02*
G01*
X33448515Y-60057771D01*
X34050001Y-60960000D01*
X33448515Y-61862229D01*
X29449999Y-61862229D01*
X29449999Y-60956825D01*
X30422211Y-60956825D01*
X30429801Y-61079410D01*
X30452572Y-61188402D01*
X30490523Y-61283800D01*
X30543654Y-61365606D01*
X30611371Y-61431239D01*
X30693078Y-61478120D01*
X30788774Y-61506249D01*
X30898461Y-61515625D01*
X31179448Y-61515625D01*
X31401698Y-61515625D01*
X31569973Y-61515625D01*
X31965261Y-60721875D01*
X31976373Y-60721875D01*
X31976373Y-61515625D01*
X32131948Y-61515625D01*
X32341498Y-61515625D01*
X32470086Y-61515625D01*
X32489136Y-61420375D01*
X32500248Y-61420375D01*
X32578829Y-61494988D01*
X32648084Y-61522372D01*
X32736786Y-61531500D01*
X32849234Y-61515537D01*
X32943161Y-61467647D01*
X33018567Y-61387831D01*
X33061975Y-61308407D01*
X33092981Y-61213802D01*
X33111584Y-61104016D01*
X33117786Y-60979050D01*
X33110939Y-60847734D01*
X33090401Y-60731598D01*
X33056171Y-60630643D01*
X33008248Y-60544869D01*
X32925874Y-60457997D01*
X32824804Y-60405874D01*
X32705036Y-60388500D01*
X32611726Y-60398466D01*
X32530763Y-60428364D01*
X32462148Y-60478194D01*
X32407997Y-60545839D01*
X32370426Y-60629183D01*
X32349436Y-60728225D01*
X32524061Y-60728225D01*
X32561808Y-60625037D01*
X32622133Y-60563125D01*
X32705036Y-60542488D01*
X32806636Y-60570467D01*
X32882836Y-60654406D01*
X32918113Y-60740219D01*
X32939280Y-60848434D01*
X32946336Y-60979050D01*
X32936747Y-61124782D01*
X32907982Y-61238130D01*
X32860039Y-61319093D01*
X32792920Y-61367670D01*
X32706623Y-61383863D01*
X32622684Y-61368781D01*
X32558192Y-61323538D01*
X32517115Y-61250116D01*
X32503423Y-61150500D01*
X32503423Y-61061600D01*
X32714561Y-61061600D01*
X32714561Y-60928250D01*
X32341498Y-60928250D01*
X32341498Y-61515625D01*
X32131948Y-61515625D01*
X32131948Y-60404375D01*
X31963673Y-60404375D01*
X31568386Y-61199713D01*
X31557273Y-61199713D01*
X31557273Y-60404375D01*
X31401698Y-60404375D01*
X31401698Y-61515625D01*
X31179448Y-61515625D01*
X31179448Y-60404375D01*
X30898461Y-60404375D01*
X30789419Y-60413652D01*
X30694070Y-60441483D01*
X30612413Y-60487868D01*
X30544448Y-60552806D01*
X30490969Y-60633719D01*
X30452770Y-60728027D01*
X30429850Y-60835729D01*
X30422211Y-60956825D01*
X29449999Y-60956825D01*
X29449999Y-60057771D01*
G37*
G36*
X31012761Y-61364812D02*
G01*
X30907986Y-61364812D01*
X30812647Y-61353259D01*
X30734066Y-61318599D01*
X30672242Y-61260831D01*
X30627704Y-61180839D01*
X30600981Y-61079503D01*
X30592073Y-60956825D01*
X30600848Y-60834102D01*
X30627174Y-60733693D01*
X30671051Y-60655597D01*
X30732479Y-60599814D01*
X30811457Y-60566344D01*
X30907986Y-60555188D01*
X31012761Y-60555188D01*
X31012761Y-61364812D01*
G37*
%TO.C,kibuzzard-68A2FE01*%
G36*
X29465610Y-57564602D02*
G01*
X33464125Y-57564602D01*
X34034390Y-58420000D01*
X33464125Y-59275398D01*
X29465610Y-59275398D01*
X29465610Y-58422381D01*
X30499734Y-58422381D01*
X30506133Y-58543825D01*
X30525332Y-58649394D01*
X30557330Y-58739087D01*
X30602127Y-58812906D01*
X30678592Y-58886108D01*
X30771461Y-58930028D01*
X30880734Y-58944669D01*
X30990271Y-58929852D01*
X31083934Y-58885402D01*
X31161721Y-58811319D01*
X31207560Y-58736805D01*
X31240302Y-58646616D01*
X31259948Y-58540749D01*
X31266496Y-58419206D01*
X31259948Y-58299003D01*
X31240302Y-58193980D01*
X31218824Y-58135044D01*
X31436359Y-58135044D01*
X31736396Y-58928794D01*
X31933246Y-58928794D01*
X32192644Y-58246169D01*
X32430134Y-58246169D01*
X32438468Y-58338839D01*
X32463471Y-58423175D01*
X32503159Y-58505130D01*
X32555546Y-58590656D01*
X32774621Y-58928794D01*
X32974646Y-58928794D01*
X32701596Y-58536681D01*
X32820659Y-58557319D01*
X32944087Y-58534498D01*
X33044496Y-58466037D01*
X33093885Y-58399627D01*
X33123518Y-58322104D01*
X33133396Y-58233469D01*
X33122460Y-58140159D01*
X33089652Y-58059197D01*
X33034971Y-57990581D01*
X32963181Y-57938547D01*
X32879043Y-57907326D01*
X32782559Y-57896919D01*
X32684398Y-57907590D01*
X32599467Y-57939605D01*
X32527765Y-57992963D01*
X32473525Y-58063783D01*
X32440981Y-58148185D01*
X32430134Y-58246169D01*
X32192644Y-58246169D01*
X32234871Y-58135044D01*
X32068184Y-58135044D01*
X31839584Y-58760519D01*
X31828471Y-58760519D01*
X31601459Y-58135044D01*
X31436359Y-58135044D01*
X31218824Y-58135044D01*
X31207560Y-58104137D01*
X31161721Y-58029475D01*
X31083934Y-57954951D01*
X30990271Y-57910236D01*
X30880734Y-57895331D01*
X30771461Y-57910236D01*
X30678592Y-57954951D01*
X30602127Y-58029475D01*
X30557330Y-58104336D01*
X30525332Y-58194773D01*
X30506133Y-58300789D01*
X30499734Y-58422381D01*
X29465610Y-58422381D01*
X29465610Y-57564602D01*
G37*
G36*
X31033134Y-58712894D02*
G01*
X30967252Y-58780759D01*
X30880734Y-58803381D01*
X30794810Y-58779569D01*
X30727540Y-58708131D01*
X30695349Y-58633872D01*
X30676034Y-58538092D01*
X30669596Y-58420794D01*
X30673565Y-58331894D01*
X30685471Y-58249344D01*
X31033134Y-58712894D01*
G37*
G36*
X30966855Y-58060431D02*
G01*
X31034721Y-58131869D01*
X31067353Y-58206305D01*
X31086932Y-58302613D01*
X31093459Y-58420794D01*
X31089490Y-58514059D01*
X31077584Y-58590656D01*
X30729921Y-58128694D01*
X30795405Y-58059637D01*
X30880734Y-58036619D01*
X30966855Y-58060431D01*
G37*
G36*
X32861338Y-58045152D02*
G01*
X32921465Y-58089800D01*
X32960160Y-58156277D01*
X32973059Y-58236644D01*
X32960359Y-58315027D01*
X32922259Y-58378725D01*
X32862330Y-58420992D01*
X32784146Y-58435081D01*
X32706954Y-58420794D01*
X32646827Y-58377931D01*
X32608132Y-58314034D01*
X32595234Y-58236644D01*
X32608330Y-58156277D01*
X32647621Y-58089800D01*
X32707946Y-58045152D01*
X32784146Y-58030269D01*
X32861338Y-58045152D01*
G37*
%TO.C,G\u002A\u002A\u002A*%
G36*
X38544947Y-97138295D02*
G01*
X38547169Y-97189403D01*
X38549007Y-97250857D01*
X38549286Y-97261358D01*
X38550837Y-97309535D01*
X38552911Y-97362252D01*
X38555422Y-97418129D01*
X38558286Y-97475791D01*
X38561416Y-97533860D01*
X38564729Y-97590957D01*
X38568139Y-97645707D01*
X38571561Y-97696730D01*
X38574910Y-97742651D01*
X38578101Y-97782090D01*
X38581048Y-97813672D01*
X38583667Y-97836018D01*
X38585873Y-97847750D01*
X38586393Y-97848320D01*
X38591348Y-97843991D01*
X38600411Y-97830739D01*
X38612654Y-97810013D01*
X38627150Y-97783263D01*
X38675218Y-97697983D01*
X38733146Y-97611074D01*
X38797800Y-97529914D01*
X38871524Y-97451319D01*
X38898373Y-97425164D01*
X38930831Y-97395391D01*
X38957324Y-97373809D01*
X38978782Y-97359750D01*
X38996136Y-97352543D01*
X39010315Y-97351521D01*
X39016199Y-97351956D01*
X39026706Y-97349477D01*
X39038492Y-97341091D01*
X39054571Y-97324991D01*
X39068045Y-97312184D01*
X39092109Y-97293540D01*
X39115433Y-97279433D01*
X39119439Y-97277490D01*
X39137398Y-97269875D01*
X39154488Y-97265438D01*
X39174990Y-97263368D01*
X39203187Y-97262858D01*
X39208327Y-97262868D01*
X39235129Y-97263584D01*
X39254874Y-97265995D01*
X39271812Y-97270892D01*
X39290194Y-97279068D01*
X39305834Y-97287547D01*
X39327759Y-97302931D01*
X39349565Y-97323186D01*
X39373205Y-97350202D01*
X39400633Y-97385868D01*
X39423073Y-97418159D01*
X39456831Y-97477963D01*
X39480188Y-97538085D01*
X39493992Y-97600476D01*
X39494588Y-97605267D01*
X39496349Y-97625458D01*
X39498300Y-97655079D01*
X39500344Y-97692267D01*
X39502384Y-97735160D01*
X39504321Y-97781894D01*
X39506058Y-97830606D01*
X39507491Y-97871921D01*
X39516506Y-98066087D01*
X39528984Y-98251932D01*
X39544867Y-98429124D01*
X39564099Y-98597329D01*
X39586624Y-98756217D01*
X39612386Y-98905453D01*
X39641329Y-99044707D01*
X39673395Y-99173645D01*
X39708530Y-99291934D01*
X39746676Y-99399243D01*
X39787778Y-99495239D01*
X39790367Y-99500745D01*
X39807485Y-99538699D01*
X39819226Y-99568872D01*
X39826085Y-99593615D01*
X39828560Y-99615278D01*
X39827148Y-99636210D01*
X39822346Y-99658761D01*
X39806667Y-99702034D01*
X39780136Y-99745155D01*
X39745231Y-99780280D01*
X39717819Y-99798565D01*
X39690742Y-99808183D01*
X39666858Y-99806671D01*
X39660955Y-99804364D01*
X39643897Y-99795975D01*
X39621376Y-99783662D01*
X39596068Y-99769024D01*
X39570645Y-99753657D01*
X39547781Y-99739160D01*
X39530151Y-99727131D01*
X39520427Y-99719167D01*
X39518307Y-99716603D01*
X39512820Y-99705557D01*
X39510005Y-99689018D01*
X39509211Y-99663770D01*
X39509474Y-99648196D01*
X39511832Y-99625804D01*
X39517831Y-99605343D01*
X39528896Y-99580802D01*
X39543196Y-99556392D01*
X39563483Y-99530033D01*
X39585871Y-99507214D01*
X39607939Y-99490367D01*
X39627270Y-99481923D01*
X39639059Y-99478087D01*
X39644222Y-99473313D01*
X39644109Y-99472706D01*
X39639467Y-99464484D01*
X39629379Y-99450162D01*
X39615720Y-99432428D01*
X39600053Y-99411835D01*
X39559348Y-99348509D01*
X39520685Y-99273673D01*
X39484135Y-99187569D01*
X39449763Y-99090440D01*
X39417640Y-98982527D01*
X39387833Y-98864072D01*
X39360411Y-98735317D01*
X39335442Y-98596504D01*
X39312993Y-98447875D01*
X39293134Y-98289672D01*
X39291842Y-98278177D01*
X39287497Y-98237369D01*
X39283746Y-98198855D01*
X39280803Y-98165038D01*
X39278881Y-98138324D01*
X39278193Y-98121119D01*
X39279637Y-98094621D01*
X39289268Y-98042601D01*
X39308019Y-97983619D01*
X39335979Y-97917363D01*
X39360636Y-97862134D01*
X39380324Y-97811988D01*
X39394452Y-97767206D01*
X39403641Y-97725471D01*
X39408509Y-97684461D01*
X39409678Y-97641860D01*
X39408640Y-97601647D01*
X39406252Y-97570174D01*
X39402343Y-97548628D01*
X39396724Y-97535975D01*
X39389202Y-97531182D01*
X39384551Y-97530987D01*
X39380498Y-97533602D01*
X39378165Y-97541518D01*
X39376995Y-97556968D01*
X39376426Y-97582186D01*
X39375432Y-97593542D01*
X39372779Y-97623833D01*
X39359637Y-97681922D01*
X39337418Y-97745271D01*
X39306609Y-97813065D01*
X39267694Y-97884489D01*
X39221159Y-97958728D01*
X39167487Y-98034968D01*
X39107165Y-98112394D01*
X39040677Y-98190190D01*
X38968509Y-98267542D01*
X38951049Y-98285536D01*
X38925035Y-98312612D01*
X38902774Y-98336107D01*
X38885432Y-98354776D01*
X38874173Y-98367374D01*
X38870161Y-98372658D01*
X38871275Y-98375740D01*
X38877494Y-98386731D01*
X38887355Y-98401867D01*
X38887692Y-98402360D01*
X38915503Y-98449607D01*
X38940506Y-98504662D01*
X38961062Y-98563431D01*
X38975529Y-98621823D01*
X38978308Y-98640242D01*
X38981453Y-98674952D01*
X38983462Y-98717004D01*
X38984169Y-98763672D01*
X38984170Y-98860376D01*
X39019220Y-98873156D01*
X39035325Y-98879798D01*
X39053603Y-98889323D01*
X39064912Y-98897695D01*
X39066428Y-98899404D01*
X39070231Y-98905144D01*
X39070856Y-98911929D01*
X39067650Y-98922126D01*
X39059962Y-98938102D01*
X39047139Y-98962225D01*
X39045331Y-98965436D01*
X39016085Y-99017367D01*
X38939654Y-99136098D01*
X38853027Y-99250090D01*
X38757132Y-99358338D01*
X38652899Y-99459835D01*
X38541254Y-99553575D01*
X38423126Y-99638553D01*
X38371496Y-99671807D01*
X38236140Y-99750824D01*
X38091808Y-99824297D01*
X37939943Y-99891695D01*
X37799048Y-99945921D01*
X37781988Y-99952487D01*
X37619386Y-100006142D01*
X37453581Y-100052128D01*
X37286014Y-100089914D01*
X37118130Y-100118970D01*
X37019229Y-100133438D01*
X37002378Y-100112996D01*
X36993745Y-100103200D01*
X36978880Y-100088905D01*
X36965032Y-100078121D01*
X36953829Y-100071694D01*
X36946902Y-100070472D01*
X36945882Y-100075300D01*
X36952398Y-100087028D01*
X36954760Y-100091061D01*
X36960226Y-100110976D01*
X36962011Y-100141420D01*
X36962093Y-100150926D01*
X36963481Y-100171447D01*
X36967192Y-100184685D01*
X36974012Y-100194089D01*
X36977310Y-100197445D01*
X36981854Y-100201482D01*
X36987237Y-100204009D01*
X36995303Y-100205020D01*
X37007898Y-100204512D01*
X37026863Y-100202480D01*
X37054043Y-100198921D01*
X37091281Y-100193830D01*
X37237221Y-100170448D01*
X37412474Y-100133460D01*
X37586456Y-100087235D01*
X37757648Y-100032312D01*
X37924529Y-99969227D01*
X38085582Y-99898517D01*
X38239286Y-99820722D01*
X38384123Y-99736378D01*
X38415163Y-99716533D01*
X38535278Y-99630945D01*
X38649167Y-99535424D01*
X38756184Y-99430592D01*
X38855684Y-99317071D01*
X38947019Y-99195482D01*
X38984170Y-99141950D01*
X38984170Y-99208229D01*
X38983789Y-99237175D01*
X38981676Y-99266723D01*
X38976786Y-99291948D01*
X38968095Y-99316388D01*
X38954574Y-99343582D01*
X38935198Y-99377068D01*
X38896390Y-99438982D01*
X38816561Y-99551886D01*
X38728262Y-99660161D01*
X38633118Y-99762005D01*
X38532750Y-99855616D01*
X38428784Y-99939192D01*
X38360708Y-99987350D01*
X38242390Y-100061931D01*
X38115095Y-100132003D01*
X37980368Y-100196933D01*
X37839759Y-100256086D01*
X37694815Y-100308828D01*
X37547084Y-100354525D01*
X37398114Y-100392544D01*
X37249453Y-100422251D01*
X37170043Y-100434960D01*
X37094292Y-100445186D01*
X37026081Y-100452349D01*
X36966207Y-100456394D01*
X36915469Y-100457269D01*
X36874664Y-100454919D01*
X36844590Y-100449291D01*
X36843008Y-100448803D01*
X36836046Y-100446301D01*
X36827233Y-100442563D01*
X36816001Y-100437267D01*
X36801784Y-100430094D01*
X36784013Y-100420723D01*
X36762119Y-100408834D01*
X36735536Y-100394107D01*
X36703694Y-100376221D01*
X36666027Y-100354856D01*
X36621966Y-100329692D01*
X36570943Y-100300409D01*
X36512391Y-100266685D01*
X36445740Y-100228202D01*
X36370425Y-100184638D01*
X36285875Y-100135673D01*
X36191525Y-100080987D01*
X36156722Y-100060821D01*
X36098725Y-100027269D01*
X36088430Y-100021326D01*
X37088021Y-100021326D01*
X37089948Y-100032737D01*
X37095521Y-100037562D01*
X37095745Y-100037545D01*
X37108260Y-100035619D01*
X37130312Y-100031260D01*
X37159864Y-100024938D01*
X37194877Y-100017121D01*
X37233314Y-100008277D01*
X37273137Y-99998875D01*
X37312308Y-99989385D01*
X37348790Y-99980274D01*
X37380544Y-99972011D01*
X37478051Y-99945921D01*
X37478034Y-99924940D01*
X37520055Y-99924940D01*
X37520155Y-99926159D01*
X37522206Y-99928685D01*
X37528043Y-99928926D01*
X37539158Y-99926496D01*
X37557039Y-99921010D01*
X37583177Y-99912081D01*
X37619062Y-99899326D01*
X37629628Y-99895537D01*
X37661342Y-99884163D01*
X37690243Y-99873799D01*
X37713504Y-99865459D01*
X37728297Y-99860158D01*
X37753525Y-99851121D01*
X37754914Y-99822132D01*
X37802726Y-99822132D01*
X37804646Y-99827873D01*
X37806226Y-99827519D01*
X37817147Y-99823425D01*
X37836021Y-99815476D01*
X37860711Y-99804589D01*
X37889084Y-99791678D01*
X37894515Y-99789172D01*
X37926274Y-99774541D01*
X37956891Y-99760473D01*
X37983114Y-99748461D01*
X38001695Y-99739996D01*
X38017309Y-99732254D01*
X38033084Y-99721129D01*
X38039901Y-99709976D01*
X38039985Y-99709617D01*
X38041116Y-99697658D01*
X38041285Y-99690811D01*
X38079407Y-99690811D01*
X38081832Y-99696018D01*
X38082300Y-99695958D01*
X38091092Y-99692211D01*
X38107930Y-99683427D01*
X38130901Y-99670711D01*
X38158090Y-99655170D01*
X38187586Y-99637909D01*
X38217473Y-99620032D01*
X38245840Y-99602646D01*
X38270772Y-99586857D01*
X38322434Y-99553395D01*
X38325156Y-99525164D01*
X38361301Y-99525164D01*
X38361435Y-99525198D01*
X38367539Y-99521776D01*
X38381104Y-99512524D01*
X38400257Y-99498756D01*
X38423126Y-99481786D01*
X38429186Y-99477211D01*
X38553933Y-99375669D01*
X38669173Y-99267094D01*
X38775557Y-99150830D01*
X38873736Y-99026219D01*
X38918165Y-98965436D01*
X38918119Y-98924211D01*
X38918044Y-98916508D01*
X38914961Y-98871555D01*
X38907063Y-98823416D01*
X38893935Y-98770362D01*
X38875160Y-98710665D01*
X38850323Y-98642596D01*
X38843964Y-98626633D01*
X38827947Y-98589691D01*
X38809246Y-98549924D01*
X38788808Y-98509054D01*
X38767578Y-98468804D01*
X38746504Y-98430899D01*
X38726531Y-98397061D01*
X38708604Y-98369014D01*
X38693671Y-98348483D01*
X38682677Y-98337189D01*
X38677115Y-98333551D01*
X38668454Y-98331472D01*
X38659437Y-98337583D01*
X38656735Y-98340587D01*
X38652231Y-98348916D01*
X38648134Y-98361838D01*
X38644297Y-98380409D01*
X38640576Y-98405685D01*
X38636825Y-98438723D01*
X38632897Y-98480578D01*
X38628647Y-98532306D01*
X38626035Y-98567007D01*
X38623930Y-98594963D01*
X38622887Y-98609188D01*
X38616542Y-98692211D01*
X38610361Y-98766421D01*
X38609144Y-98779626D01*
X38604081Y-98834563D01*
X38597436Y-98899377D01*
X38590162Y-98963608D01*
X38581995Y-99029997D01*
X38579654Y-99048484D01*
X38575864Y-99078795D01*
X38572803Y-99103780D01*
X38570738Y-99121248D01*
X38569937Y-99129005D01*
X38569901Y-99129195D01*
X38566960Y-99125482D01*
X38559991Y-99112931D01*
X38549972Y-99093376D01*
X38537877Y-99068656D01*
X38532695Y-99058024D01*
X38519987Y-99032899D01*
X38505848Y-99005897D01*
X38491427Y-98979111D01*
X38477876Y-98954634D01*
X38466345Y-98934560D01*
X38457984Y-98920980D01*
X38453944Y-98915988D01*
X38453790Y-98916353D01*
X38453137Y-98924014D01*
X38452613Y-98938490D01*
X38451923Y-98946450D01*
X38448546Y-98966972D01*
X38443037Y-98993071D01*
X38436145Y-99020997D01*
X38431427Y-99039115D01*
X38425021Y-99065444D01*
X38419190Y-99092175D01*
X38413660Y-99120955D01*
X38408157Y-99153430D01*
X38402407Y-99191247D01*
X38396138Y-99236050D01*
X38389076Y-99289487D01*
X38380947Y-99353203D01*
X38379780Y-99362481D01*
X38374450Y-99405504D01*
X38369790Y-99444178D01*
X38367449Y-99464295D01*
X38365972Y-99476991D01*
X38363170Y-99502434D01*
X38361555Y-99518995D01*
X38361301Y-99525164D01*
X38325156Y-99525164D01*
X38326405Y-99512213D01*
X38327400Y-99464295D01*
X38319866Y-99401554D01*
X38303094Y-99333594D01*
X38277340Y-99261413D01*
X38242860Y-99186010D01*
X38232026Y-99165047D01*
X38217019Y-99137299D01*
X38202366Y-99111448D01*
X38189115Y-99089238D01*
X38178315Y-99072413D01*
X38171014Y-99062717D01*
X38168259Y-99061894D01*
X38169284Y-99066793D01*
X38174163Y-99078108D01*
X38175520Y-99081680D01*
X38176038Y-99093885D01*
X38172656Y-99113209D01*
X38165084Y-99141659D01*
X38161432Y-99154496D01*
X38152619Y-99187953D01*
X38144604Y-99222724D01*
X38137073Y-99260583D01*
X38129712Y-99303301D01*
X38122207Y-99352652D01*
X38114246Y-99410410D01*
X38105513Y-99478346D01*
X38104959Y-99482770D01*
X38099305Y-99527620D01*
X38093968Y-99569528D01*
X38089180Y-99606699D01*
X38085173Y-99637340D01*
X38082180Y-99659659D01*
X38080433Y-99671861D01*
X38079786Y-99676725D01*
X38079653Y-99677723D01*
X38079407Y-99690811D01*
X38041285Y-99690811D01*
X38041633Y-99676725D01*
X38041509Y-99649668D01*
X38040720Y-99619335D01*
X38040476Y-99612843D01*
X38038810Y-99580097D01*
X38036237Y-99554419D01*
X38032007Y-99531585D01*
X38025371Y-99507373D01*
X38015581Y-99477559D01*
X38015251Y-99476596D01*
X37999598Y-99434950D01*
X37980203Y-99389372D01*
X37958865Y-99343718D01*
X37937385Y-99301843D01*
X37917564Y-99267605D01*
X37902158Y-99243200D01*
X37891172Y-99269067D01*
X37889986Y-99272078D01*
X37884286Y-99290073D01*
X37877324Y-99316062D01*
X37869874Y-99347035D01*
X37862706Y-99379982D01*
X37859893Y-99393786D01*
X37855173Y-99417738D01*
X37850836Y-99441185D01*
X37846653Y-99465679D01*
X37842391Y-99492773D01*
X37837820Y-99524018D01*
X37832707Y-99560967D01*
X37826823Y-99605171D01*
X37819935Y-99658182D01*
X37811812Y-99721552D01*
X37810161Y-99734681D01*
X37805482Y-99775571D01*
X37803633Y-99797319D01*
X37803004Y-99804710D01*
X37802726Y-99822132D01*
X37754914Y-99822132D01*
X37755299Y-99814088D01*
X37755640Y-99797319D01*
X37754835Y-99766640D01*
X37752656Y-99738317D01*
X37752154Y-99734224D01*
X37743930Y-99692235D01*
X37729859Y-99643552D01*
X37710997Y-99590915D01*
X37688402Y-99537064D01*
X37663130Y-99484737D01*
X37636239Y-99436672D01*
X37630629Y-99427486D01*
X37621153Y-99412865D01*
X37615398Y-99406714D01*
X37611712Y-99407721D01*
X37608444Y-99414573D01*
X37605589Y-99422465D01*
X37597374Y-99448950D01*
X37588161Y-99482810D01*
X37578746Y-99520885D01*
X37569925Y-99560016D01*
X37562492Y-99597042D01*
X37560023Y-99611532D01*
X37556030Y-99637603D01*
X37551325Y-99670341D01*
X37546174Y-99707685D01*
X37540845Y-99747574D01*
X37535604Y-99787947D01*
X37530717Y-99826743D01*
X37526453Y-99861901D01*
X37523076Y-99891361D01*
X37520854Y-99913061D01*
X37520055Y-99924940D01*
X37478034Y-99924940D01*
X37478016Y-99903492D01*
X37473879Y-99839309D01*
X37460598Y-99764578D01*
X37438680Y-99685479D01*
X37408653Y-99603442D01*
X37371046Y-99519900D01*
X37326386Y-99436283D01*
X37275202Y-99354023D01*
X37254819Y-99324021D01*
X37378491Y-99324021D01*
X37379992Y-99328145D01*
X37385599Y-99342450D01*
X37394419Y-99364430D01*
X37405610Y-99391988D01*
X37418328Y-99423028D01*
X37426812Y-99443567D01*
X37438471Y-99471504D01*
X37448036Y-99494075D01*
X37454693Y-99509364D01*
X37457627Y-99515458D01*
X37458586Y-99515681D01*
X37463310Y-99509663D01*
X37469997Y-99495662D01*
X37477637Y-99476349D01*
X37485223Y-99454395D01*
X37491748Y-99432472D01*
X37496201Y-99413249D01*
X37497650Y-99403885D01*
X37500081Y-99381029D01*
X37502003Y-99353916D01*
X37503335Y-99325249D01*
X37503996Y-99297732D01*
X37503905Y-99274066D01*
X37502979Y-99256955D01*
X37501139Y-99249100D01*
X37495294Y-99250439D01*
X37481150Y-99256779D01*
X37460913Y-99267116D01*
X37436750Y-99280398D01*
X37414110Y-99293617D01*
X37392783Y-99307492D01*
X37381153Y-99317445D01*
X37378491Y-99324021D01*
X37254819Y-99324021D01*
X37254807Y-99324004D01*
X37229863Y-99289267D01*
X37209604Y-99264207D01*
X37193359Y-99248339D01*
X37180460Y-99241178D01*
X37170238Y-99242241D01*
X37162024Y-99251042D01*
X37155149Y-99267098D01*
X37154558Y-99269239D01*
X37151995Y-99284603D01*
X37149058Y-99310265D01*
X37145863Y-99344881D01*
X37142527Y-99387110D01*
X37139167Y-99435609D01*
X37135898Y-99489034D01*
X37134379Y-99515108D01*
X37129131Y-99598903D01*
X37128175Y-99612291D01*
X37123773Y-99673906D01*
X37118088Y-99742608D01*
X37111858Y-99807500D01*
X37104864Y-99871073D01*
X37096891Y-99935819D01*
X37093842Y-99960480D01*
X37090827Y-99987379D01*
X37088777Y-100008716D01*
X37088021Y-100021326D01*
X36088430Y-100021326D01*
X36044265Y-99995830D01*
X35994198Y-99966994D01*
X35949378Y-99941250D01*
X35910660Y-99919089D01*
X35878899Y-99901000D01*
X35854948Y-99887473D01*
X35839664Y-99878998D01*
X35833900Y-99876064D01*
X35833144Y-99880009D01*
X35834056Y-99893593D01*
X35836690Y-99914576D01*
X35840793Y-99940569D01*
X35846496Y-99975871D01*
X35853899Y-100026371D01*
X35861641Y-100083522D01*
X35869348Y-100144445D01*
X35876645Y-100206262D01*
X35883157Y-100266095D01*
X35884689Y-100283803D01*
X35886877Y-100322577D01*
X35888589Y-100372330D01*
X35889810Y-100432428D01*
X35890525Y-100502236D01*
X35890719Y-100581120D01*
X35890529Y-100642510D01*
X35889832Y-100709277D01*
X35888467Y-100767621D01*
X35886265Y-100819516D01*
X35883059Y-100866941D01*
X35878681Y-100911870D01*
X35872963Y-100956281D01*
X35865736Y-101002148D01*
X35856834Y-101051450D01*
X35846087Y-101106161D01*
X35836063Y-101152640D01*
X35815104Y-101235673D01*
X35790849Y-101316984D01*
X35764033Y-101394521D01*
X35735389Y-101466227D01*
X35705650Y-101530048D01*
X35675550Y-101583928D01*
X35660147Y-101608660D01*
X35692856Y-101630378D01*
X35699197Y-101634668D01*
X35722891Y-101653364D01*
X35737449Y-101671555D01*
X35744655Y-101692169D01*
X35746293Y-101718136D01*
X35745463Y-101731013D01*
X35735982Y-101771899D01*
X35717399Y-101812197D01*
X35691458Y-101848671D01*
X35659908Y-101878089D01*
X35656688Y-101880417D01*
X35637391Y-101892166D01*
X35619008Y-101898143D01*
X35599430Y-101898072D01*
X35576546Y-101891678D01*
X35548246Y-101878684D01*
X35512419Y-101858815D01*
X35502782Y-101853195D01*
X35477113Y-101837753D01*
X35459605Y-101826015D01*
X35448400Y-101816473D01*
X35441641Y-101807620D01*
X35437472Y-101797946D01*
X35432199Y-101765358D01*
X35435954Y-101728088D01*
X35448064Y-101689717D01*
X35467481Y-101652722D01*
X35493160Y-101619583D01*
X35524055Y-101592779D01*
X35528188Y-101589917D01*
X35537112Y-101583076D01*
X35543805Y-101575617D01*
X35549274Y-101565330D01*
X35554525Y-101550006D01*
X35560565Y-101527432D01*
X35568400Y-101495400D01*
X35589445Y-101404050D01*
X35614100Y-101280364D01*
X35633032Y-101160523D01*
X35646567Y-101041504D01*
X35655028Y-100920281D01*
X35658739Y-100793830D01*
X35658025Y-100659126D01*
X35657560Y-100637705D01*
X35655184Y-100558445D01*
X35651730Y-100483004D01*
X35647000Y-100409442D01*
X35640797Y-100335819D01*
X35632925Y-100260195D01*
X35623186Y-100180628D01*
X35611383Y-100095179D01*
X35597319Y-100001908D01*
X35580797Y-99898873D01*
X35549581Y-99708665D01*
X35289140Y-99557925D01*
X35277468Y-99551174D01*
X35227100Y-99522165D01*
X35180132Y-99495305D01*
X35137558Y-99471150D01*
X35100373Y-99450257D01*
X35069574Y-99433183D01*
X35046156Y-99420485D01*
X35031114Y-99412720D01*
X35025443Y-99410443D01*
X35025116Y-99414052D01*
X35026175Y-99427872D01*
X35028798Y-99450057D01*
X35032739Y-99478569D01*
X35037747Y-99511372D01*
X35048984Y-99583792D01*
X35059602Y-99657971D01*
X35068108Y-99725832D01*
X35074761Y-99790252D01*
X35079819Y-99854109D01*
X35083541Y-99920280D01*
X35086185Y-99991645D01*
X35088009Y-100071079D01*
X35088963Y-100147284D01*
X35088825Y-100222467D01*
X35087318Y-100290169D01*
X35084326Y-100352738D01*
X35079735Y-100412521D01*
X35073429Y-100471864D01*
X35065292Y-100533116D01*
X35050293Y-100624474D01*
X35026611Y-100736937D01*
X34998224Y-100843597D01*
X34965573Y-100942993D01*
X34929099Y-101033670D01*
X34889245Y-101114169D01*
X34857760Y-101171154D01*
X34893362Y-101196261D01*
X34902821Y-101203176D01*
X34925757Y-101223892D01*
X34938867Y-101244844D01*
X34943432Y-101268798D01*
X34940732Y-101298519D01*
X34937813Y-101311744D01*
X34929106Y-101339861D01*
X34918593Y-101365080D01*
X34909186Y-101381287D01*
X34889237Y-101407453D01*
X34865865Y-101431294D01*
X34841964Y-101449991D01*
X34820429Y-101460722D01*
X34816371Y-101461857D01*
X34804454Y-101463794D01*
X34791967Y-101462821D01*
X34776998Y-101458233D01*
X34757632Y-101449328D01*
X34731958Y-101435403D01*
X34698061Y-101415755D01*
X34685976Y-101408535D01*
X34660555Y-101391842D01*
X34643712Y-101377107D01*
X34633765Y-101362088D01*
X34629031Y-101344544D01*
X34627827Y-101322236D01*
X34629788Y-101299568D01*
X34640897Y-101260246D01*
X34660315Y-101221371D01*
X34686322Y-101186110D01*
X34717198Y-101157632D01*
X34745031Y-101137200D01*
X34764383Y-101057175D01*
X34773016Y-101020851D01*
X34797431Y-100908835D01*
X34816896Y-100802281D01*
X34831851Y-100697760D01*
X34842741Y-100591843D01*
X34850006Y-100481100D01*
X34854091Y-100362102D01*
X34854744Y-100322674D01*
X34854781Y-100232825D01*
X34852676Y-100142816D01*
X34848302Y-100051382D01*
X34841532Y-99957258D01*
X34832239Y-99859181D01*
X34820293Y-99755885D01*
X34805569Y-99646106D01*
X34787938Y-99528579D01*
X34767273Y-99402040D01*
X34757392Y-99345301D01*
X35541391Y-99345301D01*
X35542377Y-99347850D01*
X35549470Y-99345510D01*
X35561487Y-99341414D01*
X35596764Y-99337005D01*
X35630474Y-99344187D01*
X35662067Y-99362673D01*
X35690992Y-99392177D01*
X35716698Y-99432413D01*
X35719740Y-99438068D01*
X35730692Y-99456330D01*
X35739870Y-99468606D01*
X35745542Y-99472490D01*
X35751688Y-99465830D01*
X35757320Y-99452656D01*
X35760509Y-99442452D01*
X35772365Y-99415481D01*
X35787904Y-99396683D01*
X35809308Y-99383140D01*
X35817673Y-99379030D01*
X35837781Y-99368219D01*
X35853382Y-99358653D01*
X35863530Y-99352506D01*
X35873598Y-99351000D01*
X35879721Y-99359250D01*
X35883612Y-99378374D01*
X35884454Y-99384260D01*
X35886957Y-99398143D01*
X35888922Y-99404311D01*
X35889201Y-99404438D01*
X35897039Y-99407479D01*
X35914664Y-99414157D01*
X35940845Y-99424010D01*
X35974350Y-99436577D01*
X36013949Y-99451395D01*
X36058410Y-99468002D01*
X36106502Y-99485937D01*
X36142924Y-99499531D01*
X36192050Y-99517988D01*
X36231832Y-99533174D01*
X36263453Y-99545603D01*
X36288095Y-99555790D01*
X36306941Y-99564251D01*
X36321175Y-99571500D01*
X36331977Y-99578053D01*
X36340532Y-99584424D01*
X36348021Y-99591129D01*
X36355020Y-99597807D01*
X36367387Y-99609107D01*
X36372601Y-99612291D01*
X36371653Y-99607592D01*
X36365534Y-99595244D01*
X36361873Y-99588774D01*
X36352603Y-99576278D01*
X36339479Y-99563528D01*
X36320823Y-99549166D01*
X36294954Y-99531835D01*
X36260194Y-99510181D01*
X36245543Y-99501130D01*
X36218842Y-99483623D01*
X36199766Y-99469084D01*
X36186182Y-99455788D01*
X36175956Y-99442008D01*
X36156499Y-99415274D01*
X36116826Y-99376651D01*
X36069519Y-99346875D01*
X36068245Y-99346250D01*
X36046604Y-99336568D01*
X36027107Y-99330566D01*
X36005041Y-99327160D01*
X35975694Y-99325263D01*
X35942509Y-99322028D01*
X35894209Y-99311161D01*
X35841972Y-99292352D01*
X35783881Y-99264998D01*
X35766256Y-99256827D01*
X35749469Y-99251928D01*
X35729482Y-99249632D01*
X35701911Y-99249087D01*
X35682101Y-99249396D01*
X35659243Y-99251261D01*
X35641729Y-99255435D01*
X35625572Y-99262625D01*
X35600843Y-99277829D01*
X35570801Y-99303183D01*
X35549470Y-99330433D01*
X35546513Y-99335521D01*
X35541391Y-99345301D01*
X34757392Y-99345301D01*
X34743446Y-99265224D01*
X34738836Y-99239430D01*
X34480953Y-99090073D01*
X34471324Y-99084498D01*
X34421148Y-99055523D01*
X34374379Y-99028635D01*
X34332013Y-99004399D01*
X34295045Y-98983379D01*
X34264469Y-98966139D01*
X34241281Y-98953243D01*
X34226475Y-98945255D01*
X34221047Y-98942738D01*
X34220916Y-98944102D01*
X34221991Y-98954785D01*
X34224753Y-98974233D01*
X34228886Y-99000311D01*
X34234075Y-99030883D01*
X34240908Y-99071019D01*
X34266451Y-99246690D01*
X34284193Y-99417833D01*
X34294174Y-99583954D01*
X34296434Y-99744562D01*
X34291014Y-99899165D01*
X34277954Y-100047272D01*
X34257294Y-100188388D01*
X34229075Y-100322024D01*
X34193337Y-100447687D01*
X34150120Y-100564884D01*
X34099465Y-100673123D01*
X34097371Y-100677118D01*
X34084250Y-100702264D01*
X34073579Y-100722928D01*
X34066406Y-100737065D01*
X34063782Y-100742631D01*
X34063783Y-100742641D01*
X34068418Y-100746588D01*
X34080390Y-100755371D01*
X34097133Y-100767107D01*
X34101308Y-100770025D01*
X34125473Y-100789897D01*
X34139960Y-100809603D01*
X34146334Y-100832123D01*
X34146164Y-100860440D01*
X34141405Y-100888165D01*
X34128497Y-100925088D01*
X34109562Y-100959456D01*
X34086126Y-100989402D01*
X34059719Y-101013057D01*
X34031869Y-101028555D01*
X34004103Y-101034029D01*
X33996922Y-101033171D01*
X33976453Y-101026670D01*
X33950822Y-101015116D01*
X33922742Y-101000108D01*
X33894926Y-100983243D01*
X33870086Y-100966119D01*
X33850933Y-100950332D01*
X33840180Y-100937481D01*
X33832896Y-100913802D01*
X33832712Y-100882300D01*
X33839981Y-100847802D01*
X33853730Y-100812731D01*
X33872987Y-100779511D01*
X33896778Y-100750566D01*
X33924131Y-100728320D01*
X33931548Y-100723533D01*
X33938746Y-100717706D01*
X33944463Y-100710184D01*
X33949567Y-100698976D01*
X33954925Y-100682090D01*
X33961407Y-100657532D01*
X33969879Y-100623312D01*
X33976799Y-100594691D01*
X34003530Y-100472722D01*
X34024354Y-100355273D01*
X34039818Y-100238360D01*
X34050469Y-100118002D01*
X34056854Y-99990217D01*
X34059152Y-99852633D01*
X34056464Y-99709981D01*
X34048419Y-99565444D01*
X34034857Y-99416156D01*
X34015616Y-99259251D01*
X34012944Y-99240310D01*
X34008053Y-99207246D01*
X34002099Y-99168304D01*
X33995324Y-99124963D01*
X33987972Y-99078699D01*
X33980286Y-99030991D01*
X33972508Y-98983317D01*
X33964882Y-98937154D01*
X33959963Y-98907783D01*
X34737631Y-98907783D01*
X34738497Y-98908034D01*
X34747424Y-98906931D01*
X34762288Y-98903373D01*
X34776867Y-98900844D01*
X34808089Y-98902773D01*
X34839276Y-98912772D01*
X34865855Y-98929681D01*
X34867720Y-98931402D01*
X34881243Y-98946974D01*
X34896577Y-98968523D01*
X34910750Y-98991931D01*
X34914785Y-98999091D01*
X34926558Y-99017932D01*
X34936525Y-99031066D01*
X34942867Y-99035998D01*
X34944511Y-99035579D01*
X34950473Y-99027471D01*
X34954935Y-99011511D01*
X34960266Y-98994011D01*
X34973638Y-98971343D01*
X34991358Y-98953158D01*
X35010422Y-98943158D01*
X35013322Y-98942300D01*
X35029931Y-98934684D01*
X35047010Y-98923720D01*
X35056828Y-98917137D01*
X35068844Y-98914029D01*
X35075592Y-98921508D01*
X35077862Y-98939990D01*
X35078949Y-98950757D01*
X35082455Y-98961323D01*
X35082812Y-98961647D01*
X35091119Y-98965785D01*
X35109212Y-98973494D01*
X35135841Y-98984282D01*
X35169754Y-98997653D01*
X35209701Y-99013114D01*
X35254432Y-99030171D01*
X35302696Y-99048330D01*
X35333691Y-99059931D01*
X35383963Y-99078863D01*
X35424766Y-99094464D01*
X35457279Y-99107247D01*
X35482678Y-99117725D01*
X35502144Y-99126410D01*
X35516852Y-99133815D01*
X35527982Y-99140453D01*
X35536710Y-99146836D01*
X35544215Y-99153479D01*
X35548987Y-99158011D01*
X35562261Y-99170175D01*
X35568349Y-99174336D01*
X35568297Y-99170860D01*
X35563151Y-99160113D01*
X35559904Y-99154257D01*
X35559398Y-99153554D01*
X37658865Y-99153554D01*
X37659452Y-99156760D01*
X37663726Y-99169443D01*
X37665549Y-99174336D01*
X37671385Y-99189996D01*
X37681726Y-99216544D01*
X37694045Y-99247215D01*
X37702790Y-99268623D01*
X37714777Y-99297718D01*
X37714783Y-99297732D01*
X37724834Y-99321840D01*
X37732105Y-99338938D01*
X37735733Y-99346961D01*
X37737942Y-99348474D01*
X37743732Y-99343384D01*
X37751091Y-99330228D01*
X37759100Y-99311284D01*
X37766840Y-99288833D01*
X37773392Y-99265156D01*
X37777837Y-99242530D01*
X37779156Y-99231953D01*
X37781228Y-99207961D01*
X37782744Y-99180682D01*
X37783660Y-99152660D01*
X37783934Y-99126437D01*
X37783524Y-99104557D01*
X37782387Y-99089564D01*
X37780480Y-99084002D01*
X37775046Y-99086558D01*
X37761667Y-99093792D01*
X37742948Y-99104247D01*
X37721448Y-99116456D01*
X37699728Y-99128956D01*
X37680351Y-99140282D01*
X37665876Y-99148970D01*
X37658865Y-99153554D01*
X35559398Y-99153554D01*
X35550642Y-99141390D01*
X35537574Y-99128386D01*
X35519010Y-99113861D01*
X35493255Y-99096431D01*
X35458617Y-99074714D01*
X35443100Y-99065086D01*
X35415046Y-99046730D01*
X35395215Y-99031932D01*
X35381909Y-99019357D01*
X35373429Y-99007667D01*
X35372075Y-99005316D01*
X35361144Y-98990780D01*
X37941357Y-98990780D01*
X37942129Y-98994088D01*
X37946704Y-99006852D01*
X37954682Y-99027452D01*
X37965339Y-99054031D01*
X37977953Y-99084732D01*
X37987136Y-99106891D01*
X37995191Y-99126437D01*
X37999072Y-99135854D01*
X38008862Y-99159801D01*
X38015682Y-99176713D01*
X38018707Y-99184569D01*
X38019025Y-99185407D01*
X38023401Y-99186289D01*
X38030296Y-99177050D01*
X38038976Y-99158944D01*
X38048709Y-99133226D01*
X38054979Y-99109527D01*
X38060728Y-99077409D01*
X38065330Y-99041386D01*
X38068373Y-99005352D01*
X38069449Y-98973202D01*
X38068145Y-98948830D01*
X38066932Y-98940816D01*
X38064188Y-98927322D01*
X38061964Y-98921989D01*
X38061891Y-98922000D01*
X38055687Y-98925095D01*
X38041829Y-98932683D01*
X38022879Y-98943304D01*
X38001396Y-98955497D01*
X37979941Y-98967802D01*
X37961076Y-98978758D01*
X37947361Y-98986904D01*
X37941357Y-98990780D01*
X35361144Y-98990780D01*
X35342045Y-98965383D01*
X35303577Y-98932349D01*
X35258683Y-98907348D01*
X35209374Y-98891516D01*
X35157664Y-98885986D01*
X35136623Y-98884365D01*
X35100513Y-98876967D01*
X35060232Y-98864558D01*
X35019123Y-98848213D01*
X34980529Y-98829008D01*
X34979113Y-98828453D01*
X38236585Y-98828453D01*
X38238164Y-98832123D01*
X38243837Y-98845701D01*
X38252679Y-98867058D01*
X38263851Y-98894164D01*
X38276513Y-98924989D01*
X38284978Y-98945562D01*
X38296447Y-98973202D01*
X38296542Y-98973431D01*
X38305985Y-98995899D01*
X38312502Y-99011063D01*
X38315293Y-99017017D01*
X38316187Y-99017363D01*
X38321476Y-99012243D01*
X38329018Y-98999333D01*
X38337369Y-98981345D01*
X38345087Y-98960992D01*
X38347925Y-98950677D01*
X38352500Y-98927107D01*
X38356802Y-98897617D01*
X38360543Y-98865164D01*
X38363435Y-98832709D01*
X38365191Y-98803210D01*
X38365523Y-98779626D01*
X38364144Y-98764916D01*
X38360173Y-98749093D01*
X38296872Y-98785508D01*
X38295590Y-98786248D01*
X38271713Y-98800681D01*
X38252650Y-98813431D01*
X38240305Y-98823141D01*
X38236585Y-98828453D01*
X34979113Y-98828453D01*
X34942355Y-98814047D01*
X34900875Y-98809093D01*
X34858899Y-98813826D01*
X34818831Y-98827696D01*
X34783077Y-98850155D01*
X34754042Y-98880655D01*
X34747245Y-98890374D01*
X34739759Y-98902331D01*
X34737631Y-98907783D01*
X33959963Y-98907783D01*
X33957651Y-98893981D01*
X33951058Y-98855276D01*
X33945345Y-98822515D01*
X33940757Y-98797178D01*
X33937535Y-98780743D01*
X33935924Y-98774686D01*
X33921014Y-98765376D01*
X33900998Y-98746152D01*
X33889520Y-98725172D01*
X33889403Y-98724749D01*
X33887886Y-98713512D01*
X33886647Y-98692329D01*
X33885684Y-98660906D01*
X33884992Y-98618951D01*
X33884568Y-98566170D01*
X33884409Y-98502271D01*
X33884443Y-98477177D01*
X33942902Y-98477177D01*
X33976290Y-98473731D01*
X33998993Y-98472951D01*
X34034060Y-98479549D01*
X34064705Y-98496570D01*
X34091623Y-98524465D01*
X34115509Y-98563682D01*
X34123132Y-98578628D01*
X34132800Y-98595868D01*
X34139811Y-98604680D01*
X34145596Y-98606635D01*
X34151585Y-98603303D01*
X34156336Y-98596873D01*
X34159790Y-98583115D01*
X34162410Y-98570484D01*
X34172672Y-98551126D01*
X34187865Y-98532971D01*
X34204929Y-98520279D01*
X34208674Y-98518350D01*
X34226954Y-98508286D01*
X34245968Y-98497093D01*
X34260667Y-98489379D01*
X34272742Y-98488247D01*
X34280267Y-98497117D01*
X34285195Y-98516980D01*
X34288800Y-98538615D01*
X34507102Y-98620280D01*
X34510996Y-98621737D01*
X34567102Y-98642815D01*
X34613132Y-98660327D01*
X34650221Y-98674759D01*
X34679506Y-98686601D01*
X34702122Y-98696341D01*
X34719206Y-98704465D01*
X34731893Y-98711463D01*
X34741319Y-98717823D01*
X34748621Y-98724031D01*
X34752736Y-98727900D01*
X34765730Y-98739011D01*
X34770949Y-98740983D01*
X34768417Y-98733802D01*
X34758159Y-98717450D01*
X34749793Y-98708072D01*
X34730498Y-98691836D01*
X34702813Y-98671840D01*
X34668020Y-98649058D01*
X34639140Y-98630532D01*
X34614338Y-98613445D01*
X34596567Y-98599320D01*
X34583963Y-98586659D01*
X34574663Y-98573961D01*
X34547181Y-98538829D01*
X34511242Y-98506705D01*
X34471621Y-98482242D01*
X34471460Y-98482165D01*
X34446667Y-98472425D01*
X34417628Y-98464331D01*
X34388173Y-98458626D01*
X34362134Y-98456052D01*
X34343341Y-98457354D01*
X34331761Y-98456860D01*
X34310969Y-98451793D01*
X34283465Y-98442767D01*
X34251314Y-98430525D01*
X34216582Y-98415804D01*
X34181333Y-98399344D01*
X34156130Y-98389166D01*
X34111800Y-98381016D01*
X34067233Y-98384578D01*
X34023880Y-98399845D01*
X34016749Y-98403493D01*
X33990230Y-98419622D01*
X33970404Y-98437619D01*
X33953132Y-98461064D01*
X33942902Y-98477177D01*
X33884443Y-98477177D01*
X33884510Y-98426960D01*
X33884712Y-98378066D01*
X36548296Y-98378066D01*
X36548351Y-98378403D01*
X36551480Y-98386774D01*
X36558944Y-98404375D01*
X36570097Y-98429751D01*
X36584292Y-98461445D01*
X36600884Y-98497999D01*
X36619226Y-98537959D01*
X36689837Y-98690971D01*
X36963935Y-98732946D01*
X37016415Y-98740983D01*
X37238032Y-98774922D01*
X37238032Y-98797451D01*
X37238108Y-98801551D01*
X37239642Y-98814613D01*
X37242533Y-98819775D01*
X37242903Y-98819663D01*
X37250734Y-98815664D01*
X37267574Y-98806413D01*
X37292268Y-98792564D01*
X37323663Y-98774771D01*
X37360604Y-98753688D01*
X37401935Y-98729969D01*
X37446504Y-98704266D01*
X37645975Y-98588963D01*
X37646020Y-98567007D01*
X37645523Y-98561997D01*
X37641298Y-98546059D01*
X37632558Y-98521916D01*
X37619055Y-98488953D01*
X37600544Y-98446555D01*
X37576777Y-98394106D01*
X37507490Y-98243162D01*
X37525158Y-98223039D01*
X37532982Y-98212582D01*
X37545493Y-98191124D01*
X37555776Y-98168305D01*
X37556062Y-98167539D01*
X37560431Y-98154896D01*
X37563615Y-98142522D01*
X37565762Y-98128373D01*
X37567016Y-98110405D01*
X37567524Y-98086573D01*
X37567434Y-98054833D01*
X37566892Y-98013140D01*
X37565058Y-97892586D01*
X37545373Y-97852635D01*
X37539707Y-97841875D01*
X37509273Y-97799851D01*
X37493841Y-97786294D01*
X37944877Y-97786294D01*
X38027989Y-97834347D01*
X38039210Y-97840834D01*
X38072717Y-97860205D01*
X38112610Y-97883265D01*
X38156047Y-97908372D01*
X38200186Y-97933885D01*
X38242186Y-97958159D01*
X38272118Y-97975437D01*
X38304980Y-97994351D01*
X38333072Y-98010458D01*
X38354990Y-98022957D01*
X38369330Y-98031045D01*
X38374690Y-98033919D01*
X38374734Y-98033871D01*
X38374310Y-98027360D01*
X38372403Y-98011442D01*
X38369302Y-97988374D01*
X38365296Y-97960413D01*
X38365048Y-97958724D01*
X38359481Y-97918946D01*
X38713585Y-97918946D01*
X38722996Y-97941470D01*
X38724966Y-97946098D01*
X38735223Y-97966045D01*
X38746744Y-97979096D01*
X38762918Y-97989311D01*
X38788077Y-97997135D01*
X38821012Y-97995956D01*
X38858098Y-97984240D01*
X38898823Y-97962157D01*
X38942675Y-97929875D01*
X38978817Y-97896091D01*
X39017266Y-97850263D01*
X39050371Y-97799813D01*
X39077103Y-97746828D01*
X39096430Y-97693396D01*
X39107320Y-97641604D01*
X39108745Y-97593542D01*
X39106092Y-97572398D01*
X39096993Y-97542723D01*
X39081289Y-97520984D01*
X39057861Y-97505241D01*
X39053594Y-97503214D01*
X39037214Y-97497078D01*
X39022145Y-97496013D01*
X39002028Y-97499347D01*
X38976033Y-97506589D01*
X38931793Y-97526323D01*
X38889981Y-97553717D01*
X38852153Y-97587097D01*
X38819866Y-97624790D01*
X38794673Y-97665123D01*
X38778132Y-97706421D01*
X38771797Y-97747012D01*
X38771779Y-97762523D01*
X38773482Y-97777624D01*
X38778437Y-97787852D01*
X38787989Y-97797396D01*
X38789774Y-97798878D01*
X38804469Y-97808123D01*
X38817085Y-97811901D01*
X38832443Y-97809562D01*
X38858314Y-97798022D01*
X38885745Y-97778385D01*
X38912768Y-97752384D01*
X38937411Y-97721752D01*
X38957704Y-97688222D01*
X38969169Y-97664415D01*
X38976670Y-97644326D01*
X38980253Y-97625864D01*
X38981170Y-97604567D01*
X38978978Y-97576288D01*
X38971437Y-97556431D01*
X38957653Y-97545221D01*
X38936736Y-97541393D01*
X38915164Y-97540905D01*
X38933166Y-97532663D01*
X38937707Y-97530877D01*
X38957392Y-97526169D01*
X38978860Y-97524149D01*
X39002497Y-97526992D01*
X39025570Y-97538413D01*
X39042096Y-97557483D01*
X39052313Y-97583032D01*
X39056459Y-97613894D01*
X39054774Y-97648897D01*
X39047496Y-97686876D01*
X39034863Y-97726660D01*
X39017113Y-97767081D01*
X38994487Y-97806971D01*
X38967221Y-97845161D01*
X38935555Y-97880482D01*
X38899727Y-97911767D01*
X38890249Y-97918898D01*
X38860191Y-97939489D01*
X38834876Y-97952734D01*
X38811671Y-97959815D01*
X38787943Y-97961913D01*
X38779875Y-97961821D01*
X38762619Y-97959837D01*
X38749589Y-97953480D01*
X38735068Y-97940430D01*
X38713585Y-97918946D01*
X38359481Y-97918946D01*
X38358696Y-97913334D01*
X38352307Y-97863965D01*
X38346089Y-97812602D01*
X38340255Y-97761226D01*
X38335015Y-97711821D01*
X38330579Y-97666371D01*
X38327159Y-97626858D01*
X38324965Y-97595267D01*
X38324207Y-97573579D01*
X38324228Y-97569662D01*
X38325587Y-97539037D01*
X38329527Y-97509758D01*
X38336708Y-97479463D01*
X38347791Y-97445793D01*
X38363436Y-97406385D01*
X38384306Y-97358879D01*
X38389869Y-97346540D01*
X38410099Y-97300145D01*
X38425484Y-97261192D01*
X38436664Y-97227132D01*
X38444281Y-97195417D01*
X38448973Y-97163497D01*
X38451382Y-97128822D01*
X38452149Y-97088845D01*
X38452138Y-97073817D01*
X38451229Y-97036163D01*
X38448822Y-97008900D01*
X38444690Y-96990867D01*
X38438604Y-96980900D01*
X38430336Y-96977836D01*
X38430028Y-96977853D01*
X38425963Y-96983058D01*
X38423548Y-96998226D01*
X38422620Y-97024339D01*
X38421704Y-97046367D01*
X38419076Y-97064843D01*
X38415508Y-97089926D01*
X38403004Y-97136705D01*
X38383629Y-97188613D01*
X38356819Y-97247560D01*
X38317234Y-97323174D01*
X38256555Y-97422205D01*
X38186171Y-97520130D01*
X38105365Y-97617932D01*
X38013418Y-97716591D01*
X37944877Y-97786294D01*
X37493841Y-97786294D01*
X37468967Y-97764443D01*
X37419071Y-97735909D01*
X37348052Y-97707235D01*
X37256884Y-97681444D01*
X37165025Y-97667592D01*
X37072786Y-97665681D01*
X36980482Y-97675715D01*
X36888425Y-97697694D01*
X36796929Y-97731621D01*
X36769910Y-97744230D01*
X36730160Y-97767226D01*
X36699069Y-97792635D01*
X36674510Y-97822347D01*
X36654352Y-97858254D01*
X36647518Y-97874005D01*
X36635721Y-97916197D01*
X36634960Y-97956225D01*
X36645444Y-97995058D01*
X36667383Y-98033668D01*
X36700990Y-98073024D01*
X36713598Y-98084932D01*
X36756703Y-98116926D01*
X36808302Y-98145095D01*
X36866014Y-98168564D01*
X36927457Y-98186458D01*
X36990252Y-98197903D01*
X37052018Y-98202023D01*
X37091021Y-98202130D01*
X37067583Y-98215532D01*
X37058107Y-98221335D01*
X37035441Y-98241019D01*
X37022885Y-98264436D01*
X37019015Y-98293879D01*
X37019547Y-98305502D01*
X37027431Y-98334989D01*
X37044935Y-98357367D01*
X37072298Y-98372989D01*
X37084669Y-98377126D01*
X37097745Y-98379574D01*
X37113798Y-98380164D01*
X37135801Y-98378995D01*
X37166730Y-98376170D01*
X37211815Y-98370586D01*
X37288556Y-98355389D01*
X37356606Y-98334072D01*
X37369862Y-98329198D01*
X37385917Y-98323971D01*
X37394927Y-98321942D01*
X37396315Y-98322511D01*
X37398923Y-98330454D01*
X37399691Y-98348464D01*
X37398682Y-98377446D01*
X37397496Y-98394625D01*
X37391509Y-98435289D01*
X37380506Y-98467407D01*
X37363151Y-98493200D01*
X37338107Y-98514888D01*
X37304038Y-98534692D01*
X37276426Y-98547801D01*
X37237179Y-98562827D01*
X37197211Y-98572924D01*
X37150939Y-98579733D01*
X37100496Y-98582435D01*
X37043491Y-98579174D01*
X36988010Y-98569855D01*
X36936521Y-98555050D01*
X36891490Y-98535331D01*
X36855385Y-98511269D01*
X36844532Y-98501442D01*
X36825826Y-98478981D01*
X36813166Y-98453004D01*
X36805437Y-98420786D01*
X36801523Y-98379600D01*
X36798356Y-98317535D01*
X36773675Y-98304981D01*
X36768050Y-98302072D01*
X36748886Y-98291587D01*
X36733674Y-98282510D01*
X36728281Y-98279321D01*
X36722312Y-98277601D01*
X36714724Y-98278493D01*
X36703765Y-98282682D01*
X36687685Y-98290854D01*
X36664736Y-98303694D01*
X36633166Y-98321889D01*
X36613167Y-98333661D01*
X36587295Y-98349556D01*
X36566707Y-98363018D01*
X36553131Y-98372903D01*
X36548296Y-98378066D01*
X33884712Y-98378066D01*
X33884869Y-98339943D01*
X33886769Y-97976914D01*
X33904341Y-97926574D01*
X33918696Y-97891910D01*
X33946078Y-97843586D01*
X33979260Y-97800096D01*
X34015781Y-97765006D01*
X34016948Y-97764107D01*
X34030163Y-97755072D01*
X34052468Y-97740881D01*
X34082714Y-97722226D01*
X34119749Y-97699800D01*
X34162426Y-97674294D01*
X34209593Y-97646401D01*
X34260102Y-97616811D01*
X34312802Y-97586219D01*
X34576823Y-97433659D01*
X34580203Y-97546274D01*
X34581159Y-97576284D01*
X34582526Y-97609537D01*
X34584187Y-97634679D01*
X34586426Y-97653976D01*
X34589529Y-97669697D01*
X34593781Y-97684107D01*
X34599466Y-97699473D01*
X34611920Y-97727427D01*
X34641701Y-97778775D01*
X34679449Y-97830130D01*
X34723018Y-97878954D01*
X34770258Y-97922711D01*
X34819023Y-97958862D01*
X34829873Y-97965754D01*
X34917331Y-98014370D01*
X35014363Y-98056994D01*
X35120067Y-98093311D01*
X35233541Y-98123007D01*
X35353884Y-98145765D01*
X35380923Y-98149264D01*
X35429963Y-98153354D01*
X35486474Y-98156017D01*
X35547782Y-98157269D01*
X35611213Y-98157126D01*
X35674094Y-98155603D01*
X35733752Y-98152718D01*
X35787512Y-98148484D01*
X35832703Y-98142919D01*
X35939237Y-98122914D01*
X36041210Y-98096752D01*
X36136565Y-98065034D01*
X36224728Y-98028128D01*
X36305123Y-97986403D01*
X36377176Y-97940227D01*
X36440313Y-97889970D01*
X36493957Y-97836001D01*
X36537536Y-97778688D01*
X36570473Y-97718400D01*
X36592195Y-97655506D01*
X36594795Y-97643458D01*
X36597033Y-97628481D01*
X36598753Y-97610000D01*
X36600010Y-97586600D01*
X36600859Y-97556865D01*
X36601355Y-97519378D01*
X36601552Y-97472724D01*
X36601505Y-97415487D01*
X36601496Y-97411684D01*
X36601328Y-97358461D01*
X36601080Y-97316249D01*
X36600705Y-97284116D01*
X36600287Y-97266615D01*
X37052018Y-97266615D01*
X37055731Y-97269603D01*
X37068744Y-97278020D01*
X37089981Y-97291075D01*
X37118260Y-97308058D01*
X37152399Y-97328262D01*
X37191217Y-97350977D01*
X37233532Y-97375494D01*
X37268680Y-97395750D01*
X37309333Y-97419145D01*
X37346028Y-97440227D01*
X37377480Y-97458259D01*
X37402401Y-97472502D01*
X37419504Y-97482219D01*
X37427502Y-97486672D01*
X37439957Y-97493179D01*
X37429294Y-97413595D01*
X37424431Y-97376563D01*
X37423868Y-97372061D01*
X37760073Y-97372061D01*
X37760587Y-97375945D01*
X37766592Y-97390951D01*
X37777115Y-97408652D01*
X37789340Y-97424682D01*
X37800449Y-97434672D01*
X37802903Y-97436038D01*
X37833431Y-97446579D01*
X37866538Y-97446310D01*
X37902879Y-97435132D01*
X37943107Y-97412946D01*
X37988305Y-97378666D01*
X38033288Y-97334119D01*
X38072793Y-97283885D01*
X38105651Y-97229902D01*
X38130697Y-97174109D01*
X38146763Y-97118443D01*
X38152682Y-97064843D01*
X38152414Y-97048340D01*
X38147261Y-97009778D01*
X38135415Y-96980963D01*
X38116595Y-96961562D01*
X38090523Y-96951238D01*
X38056920Y-96949655D01*
X38034222Y-96952687D01*
X38002948Y-96962340D01*
X37970501Y-96979387D01*
X37934087Y-97005089D01*
X37901221Y-97032663D01*
X37867283Y-97068635D01*
X37842136Y-97106474D01*
X37824063Y-97148418D01*
X37815640Y-97182493D01*
X37814995Y-97213469D01*
X37822414Y-97236799D01*
X37836822Y-97251862D01*
X37857145Y-97258038D01*
X37882307Y-97254705D01*
X37911234Y-97241243D01*
X37942849Y-97217029D01*
X37950292Y-97209962D01*
X37976613Y-97179993D01*
X37997714Y-97147965D01*
X38013360Y-97115342D01*
X38023314Y-97083593D01*
X38027340Y-97054183D01*
X38025204Y-97028579D01*
X38016669Y-97008246D01*
X38001499Y-96994652D01*
X37979459Y-96989263D01*
X37972499Y-96988942D01*
X37968005Y-96987751D01*
X37973140Y-96984906D01*
X37988817Y-96979449D01*
X38003649Y-96975351D01*
X38034613Y-96973228D01*
X38060147Y-96980823D01*
X38079868Y-96997264D01*
X38093391Y-97021677D01*
X38100333Y-97053192D01*
X38100309Y-97090934D01*
X38092935Y-97134033D01*
X38077828Y-97181616D01*
X38064801Y-97211370D01*
X38039166Y-97256417D01*
X38008463Y-97298296D01*
X37974164Y-97335636D01*
X37937740Y-97367066D01*
X37900662Y-97391214D01*
X37864403Y-97406708D01*
X37830434Y-97412178D01*
X37823741Y-97412112D01*
X37806748Y-97410192D01*
X37794194Y-97403707D01*
X37780297Y-97390110D01*
X37772803Y-97382220D01*
X37763648Y-97373687D01*
X37760073Y-97372061D01*
X37423868Y-97372061D01*
X37417447Y-97320708D01*
X37411046Y-97266404D01*
X37405411Y-97215373D01*
X37400721Y-97169336D01*
X37397158Y-97130016D01*
X37394902Y-97099137D01*
X37394133Y-97078419D01*
X37394722Y-97059444D01*
X37398145Y-97029660D01*
X37405172Y-96998198D01*
X37416433Y-96962899D01*
X37432556Y-96921599D01*
X37454172Y-96872139D01*
X37469752Y-96837327D01*
X37487527Y-96795573D01*
X37500891Y-96760298D01*
X37510456Y-96729035D01*
X37516833Y-96699318D01*
X37520634Y-96668683D01*
X37522470Y-96634663D01*
X37522952Y-96594792D01*
X37522952Y-96589191D01*
X37522802Y-96555306D01*
X37522237Y-96531221D01*
X37521033Y-96515007D01*
X37518968Y-96504733D01*
X37515820Y-96498469D01*
X37511366Y-96494284D01*
X37503272Y-96488958D01*
X37496122Y-96485797D01*
X37494656Y-96490342D01*
X37494067Y-96503893D01*
X37494669Y-96523300D01*
X37493959Y-96555559D01*
X37492626Y-96563412D01*
X37485579Y-96604932D01*
X37469116Y-96660630D01*
X37445019Y-96721648D01*
X37413739Y-96786982D01*
X37375726Y-96855627D01*
X37331432Y-96926581D01*
X37281307Y-96998837D01*
X37275492Y-97006714D01*
X37251783Y-97037477D01*
X37223501Y-97072611D01*
X37192620Y-97109796D01*
X37161112Y-97146711D01*
X37130951Y-97181035D01*
X37104108Y-97210449D01*
X37082557Y-97232630D01*
X37081347Y-97233814D01*
X37066524Y-97248893D01*
X37056012Y-97260646D01*
X37052018Y-97266615D01*
X36600287Y-97266615D01*
X36600156Y-97261132D01*
X36599386Y-97246365D01*
X36598346Y-97238885D01*
X36596991Y-97237761D01*
X36595272Y-97242062D01*
X36593143Y-97250857D01*
X36583388Y-97286064D01*
X36557900Y-97345390D01*
X36521981Y-97403238D01*
X36476609Y-97458321D01*
X36422763Y-97509356D01*
X36361421Y-97555058D01*
X36326790Y-97576668D01*
X36243980Y-97620714D01*
X36152619Y-97660116D01*
X36054670Y-97694231D01*
X35952095Y-97722416D01*
X35846855Y-97744027D01*
X35740915Y-97758422D01*
X35703233Y-97761069D01*
X35655412Y-97762554D01*
X35601627Y-97762832D01*
X35544867Y-97761977D01*
X35488122Y-97760063D01*
X35434383Y-97757164D01*
X35386640Y-97753353D01*
X35347884Y-97748705D01*
X35263784Y-97733780D01*
X35162001Y-97709482D01*
X35066282Y-97679546D01*
X34977266Y-97644370D01*
X34895594Y-97604346D01*
X34821904Y-97559869D01*
X34756836Y-97511335D01*
X34701029Y-97459136D01*
X34655123Y-97403668D01*
X34619756Y-97345326D01*
X34595568Y-97284503D01*
X34590212Y-97264209D01*
X34581692Y-97201883D01*
X34584419Y-97139178D01*
X34597921Y-97077128D01*
X34621729Y-97016766D01*
X34655371Y-96959123D01*
X34698378Y-96905232D01*
X34750278Y-96856125D01*
X34810600Y-96812836D01*
X34811604Y-96812214D01*
X34831901Y-96800629D01*
X34856004Y-96788234D01*
X34881506Y-96776094D01*
X34906004Y-96765275D01*
X34927092Y-96756840D01*
X34942364Y-96751854D01*
X34949417Y-96751383D01*
X34946776Y-96754941D01*
X34936313Y-96763098D01*
X34920344Y-96773828D01*
X34912016Y-96779418D01*
X34883504Y-96801864D01*
X34852486Y-96830249D01*
X34821413Y-96861983D01*
X34792734Y-96894477D01*
X34768899Y-96925141D01*
X34752357Y-96951387D01*
X34750692Y-96954614D01*
X34726020Y-97014284D01*
X34713312Y-97073192D01*
X34712555Y-97131258D01*
X34723732Y-97188397D01*
X34746828Y-97244528D01*
X34781826Y-97299569D01*
X34828712Y-97353437D01*
X34841630Y-97366150D01*
X34898810Y-97415462D01*
X34961360Y-97458300D01*
X35030841Y-97495524D01*
X35108814Y-97527996D01*
X35196838Y-97556575D01*
X35215879Y-97561972D01*
X35266204Y-97575189D01*
X35312835Y-97585489D01*
X35358381Y-97593198D01*
X35405451Y-97598639D01*
X35456655Y-97602140D01*
X35514602Y-97604025D01*
X35581902Y-97604621D01*
X35596144Y-97604625D01*
X35648617Y-97604401D01*
X35692182Y-97603615D01*
X35729329Y-97602032D01*
X35762546Y-97599415D01*
X35794325Y-97595528D01*
X35827155Y-97590135D01*
X35863526Y-97582999D01*
X35905927Y-97573884D01*
X35988576Y-97552613D01*
X36073571Y-97523791D01*
X36152506Y-97489626D01*
X36224545Y-97450685D01*
X36288849Y-97407535D01*
X36344581Y-97360744D01*
X36390903Y-97310878D01*
X36426979Y-97258504D01*
X36451970Y-97204190D01*
X36458269Y-97183909D01*
X36468442Y-97124544D01*
X36466915Y-97064293D01*
X36453770Y-97004081D01*
X36429089Y-96944833D01*
X36413380Y-96919484D01*
X36388406Y-96887148D01*
X36358078Y-96853229D01*
X36324895Y-96820337D01*
X36291355Y-96791083D01*
X36259955Y-96768078D01*
X36246600Y-96759118D01*
X36235669Y-96750265D01*
X36235367Y-96746765D01*
X36245627Y-96748616D01*
X36266381Y-96755819D01*
X36297564Y-96768373D01*
X36345606Y-96791672D01*
X36409691Y-96833244D01*
X36468238Y-96883790D01*
X36519097Y-96941626D01*
X36529089Y-96954152D01*
X36556194Y-96981377D01*
X36588205Y-97003409D01*
X36592315Y-97005756D01*
X36611032Y-97015433D01*
X36625127Y-97021108D01*
X36631814Y-97021618D01*
X36632598Y-97020313D01*
X36636887Y-97009672D01*
X36643098Y-96991499D01*
X36650172Y-96968835D01*
X36668459Y-96912895D01*
X36676283Y-96893803D01*
X36836001Y-96893803D01*
X36839262Y-96905927D01*
X36849823Y-96922978D01*
X36864631Y-96939077D01*
X36880506Y-96950195D01*
X36882701Y-96951202D01*
X36912884Y-96958628D01*
X36946140Y-96955297D01*
X36982960Y-96941093D01*
X37023833Y-96915898D01*
X37080764Y-96868259D01*
X37131315Y-96811051D01*
X37173428Y-96746352D01*
X37206095Y-96675490D01*
X37212721Y-96656440D01*
X37218558Y-96633088D01*
X37221565Y-96607893D01*
X37222579Y-96575804D01*
X37222626Y-96563412D01*
X37222045Y-96539045D01*
X37220020Y-96522047D01*
X37216000Y-96509113D01*
X37209436Y-96496937D01*
X37208735Y-96495825D01*
X37187675Y-96472451D01*
X37161260Y-96459664D01*
X37129739Y-96457443D01*
X37093357Y-96465769D01*
X37052362Y-96484619D01*
X37007000Y-96513973D01*
X36976679Y-96538166D01*
X36939210Y-96577170D01*
X36911707Y-96619844D01*
X36892963Y-96667817D01*
X36887500Y-96693373D01*
X36887343Y-96723907D01*
X36895180Y-96747076D01*
X36910037Y-96762036D01*
X36930936Y-96767941D01*
X36956903Y-96763947D01*
X36986962Y-96749209D01*
X37014737Y-96727486D01*
X37045678Y-96693189D01*
X37071244Y-96653482D01*
X37089462Y-96611527D01*
X37098362Y-96570484D01*
X37098369Y-96570404D01*
X37099767Y-96549911D01*
X37098455Y-96536883D01*
X37093163Y-96526885D01*
X37082623Y-96515479D01*
X37077248Y-96510368D01*
X37062470Y-96500466D01*
X37048999Y-96499270D01*
X37038021Y-96500575D01*
X37035776Y-96498944D01*
X37041366Y-96495324D01*
X37053035Y-96490828D01*
X37069026Y-96486571D01*
X37082928Y-96484214D01*
X37114655Y-96484905D01*
X37139560Y-96495418D01*
X37157510Y-96515631D01*
X37168376Y-96545417D01*
X37172027Y-96584654D01*
X37171039Y-96605707D01*
X37161020Y-96657768D01*
X37141114Y-96710670D01*
X37112446Y-96762552D01*
X37076144Y-96811551D01*
X37033334Y-96855807D01*
X36985143Y-96893457D01*
X36972330Y-96901493D01*
X36936608Y-96917891D01*
X36904244Y-96923441D01*
X36875760Y-96918110D01*
X36851674Y-96901866D01*
X36848448Y-96898803D01*
X36839567Y-96892550D01*
X36836001Y-96893803D01*
X36676283Y-96893803D01*
X36713601Y-96802747D01*
X36769690Y-96695592D01*
X36836075Y-96592486D01*
X36912110Y-96494489D01*
X36997145Y-96402658D01*
X37027251Y-96373395D01*
X37054339Y-96348633D01*
X37076056Y-96331059D01*
X37093735Y-96319705D01*
X37108709Y-96313602D01*
X37122313Y-96311783D01*
X37127120Y-96311603D01*
X37140054Y-96308344D01*
X37153538Y-96299468D01*
X37170917Y-96282997D01*
X37189468Y-96265615D01*
X37223750Y-96242390D01*
X37261673Y-96228559D01*
X37306449Y-96222694D01*
X37341274Y-96222713D01*
X37378407Y-96228226D01*
X37411426Y-96240795D01*
X37442309Y-96261502D01*
X37473034Y-96291429D01*
X37505578Y-96331658D01*
X37510740Y-96338646D01*
X37551270Y-96399591D01*
X37581179Y-96457314D01*
X37600986Y-96512799D01*
X37603094Y-96522005D01*
X37606014Y-96540767D01*
X37608735Y-96566461D01*
X37610921Y-96594792D01*
X37611331Y-96600099D01*
X37613876Y-96642695D01*
X37616445Y-96695264D01*
X37619113Y-96758819D01*
X37620416Y-96791177D01*
X37625072Y-96897692D01*
X37629930Y-96995288D01*
X37634948Y-97083194D01*
X37640081Y-97160640D01*
X37645286Y-97226855D01*
X37649445Y-97274859D01*
X37669581Y-97235856D01*
X37721329Y-97144544D01*
X37791422Y-97042266D01*
X37870155Y-96947637D01*
X37956740Y-96861683D01*
X37973224Y-96847156D01*
X38003130Y-96823089D01*
X38026971Y-96807696D01*
X38045648Y-96800447D01*
X38060061Y-96800810D01*
X38068540Y-96800219D01*
X38081147Y-96792017D01*
X38098717Y-96774850D01*
X38116890Y-96757404D01*
X38155717Y-96731499D01*
X38199502Y-96716287D01*
X38249112Y-96711402D01*
X38269893Y-96712104D01*
X38306776Y-96717743D01*
X38339391Y-96730018D01*
X38369758Y-96750114D01*
X38399900Y-96779216D01*
X38431839Y-96818511D01*
X38435590Y-96823536D01*
X38461342Y-96859132D01*
X38480957Y-96888915D01*
X38496043Y-96915707D01*
X38508207Y-96942334D01*
X38519059Y-96971618D01*
X38521854Y-96980122D01*
X38528661Y-97004283D01*
X38534196Y-97030528D01*
X38538637Y-97060510D01*
X38541461Y-97088845D01*
X38542162Y-97095882D01*
X38544947Y-97138295D01*
G37*
G36*
X35700498Y-96520523D02*
G01*
X35710591Y-96521600D01*
X35787318Y-96533350D01*
X35861435Y-96550789D01*
X35930679Y-96573197D01*
X35992785Y-96599855D01*
X36045488Y-96630046D01*
X36048918Y-96632361D01*
X36071998Y-96648602D01*
X36092416Y-96664020D01*
X36108746Y-96677392D01*
X36119562Y-96687495D01*
X36123437Y-96693107D01*
X36118944Y-96693005D01*
X36107984Y-96688901D01*
X36089515Y-96681907D01*
X36067940Y-96673686D01*
X36067114Y-96673372D01*
X36048287Y-96666776D01*
X36023851Y-96658932D01*
X35996643Y-96650664D01*
X35969501Y-96642795D01*
X35945263Y-96636150D01*
X35926767Y-96631551D01*
X35916851Y-96629824D01*
X35916531Y-96632173D01*
X35920431Y-96642290D01*
X35928352Y-96657682D01*
X35941392Y-96690651D01*
X35944380Y-96727210D01*
X35936042Y-96763548D01*
X35916648Y-96798547D01*
X35886468Y-96831091D01*
X35885848Y-96831629D01*
X35852996Y-96854682D01*
X35811103Y-96875876D01*
X35763043Y-96894117D01*
X35711687Y-96908311D01*
X35659908Y-96917365D01*
X35645036Y-96918848D01*
X35590994Y-96920369D01*
X35533731Y-96916924D01*
X35479032Y-96908787D01*
X35441044Y-96899181D01*
X35399283Y-96884564D01*
X35359920Y-96866888D01*
X35325323Y-96847356D01*
X35297861Y-96827173D01*
X35279901Y-96807542D01*
X35275340Y-96800063D01*
X35275128Y-96794879D01*
X35282602Y-96791959D01*
X35299870Y-96789389D01*
X35335575Y-96781492D01*
X35364475Y-96768835D01*
X35385596Y-96752624D01*
X35398140Y-96734043D01*
X35401311Y-96714275D01*
X35394309Y-96694503D01*
X35376339Y-96675910D01*
X35369115Y-96670872D01*
X35332276Y-96653669D01*
X35292249Y-96647810D01*
X35291800Y-96647810D01*
X35277323Y-96647176D01*
X35272705Y-96644555D01*
X35275878Y-96638809D01*
X35279459Y-96633510D01*
X35279112Y-96629808D01*
X35275996Y-96630165D01*
X35262256Y-96633094D01*
X35241427Y-96638304D01*
X35216517Y-96644978D01*
X35190533Y-96652297D01*
X35166486Y-96659444D01*
X35147383Y-96665602D01*
X35130397Y-96671077D01*
X35115949Y-96674889D01*
X35109486Y-96675433D01*
X35110282Y-96672661D01*
X35118978Y-96664326D01*
X35135087Y-96652111D01*
X35156851Y-96637321D01*
X35182511Y-96621261D01*
X35215493Y-96603767D01*
X35257079Y-96585407D01*
X35303117Y-96567858D01*
X35349886Y-96552538D01*
X35393668Y-96540862D01*
X35403912Y-96538617D01*
X35460431Y-96528916D01*
X35522600Y-96521974D01*
X35586168Y-96518073D01*
X35646885Y-96517496D01*
X35700498Y-96520523D01*
G37*
%TD*%
%LPC*%
D12*
%TO.C,H103*%
X30480000Y-99060000D03*
%TD*%
D13*
%TO.C,H102*%
X30480000Y-53340000D03*
%TD*%
D12*
%TO.C,H101*%
X43180000Y-99060000D03*
%TD*%
D13*
%TO.C,H104*%
X43180000Y-53340000D03*
%TD*%
D14*
%TO.C,J103*%
X27940000Y-58420000D03*
D15*
X27940000Y-60960000D03*
X27940000Y-63500000D03*
X27940000Y-66040000D03*
X27940000Y-68580000D03*
X27940000Y-71120000D03*
X27940000Y-73660000D03*
X27940000Y-76200000D03*
X27940000Y-78740000D03*
X27940000Y-81280000D03*
X27940000Y-83820000D03*
X27940000Y-86360000D03*
X27940000Y-88900000D03*
X27940000Y-91440000D03*
X27940000Y-93980000D03*
%TD*%
D14*
%TO.C,J104*%
X45720000Y-58420000D03*
D15*
X45720000Y-60960000D03*
X45720000Y-63500000D03*
X45720000Y-66040000D03*
X45720000Y-68580000D03*
X45720000Y-71120000D03*
X45720000Y-73660000D03*
X45720000Y-76200000D03*
X45720000Y-78740000D03*
X45720000Y-81280000D03*
X45720000Y-83820000D03*
X45720000Y-86360000D03*
X45720000Y-88900000D03*
X45720000Y-91440000D03*
X45720000Y-93980000D03*
%TD*%
M02*
