%TF.GenerationSoftware,KiCad,Pcbnew,(6.0.9-0)*%
%TF.CreationDate,2024-06-20T10:22:48+02:00*%
%TF.ProjectId,pot-adapter,706f742d-6164-4617-9074-65722e6b6963,rev?*%
%TF.SameCoordinates,Original*%
%TF.FileFunction,Legend,Bot*%
%TF.FilePolarity,Positive*%
%FSLAX46Y46*%
G04 Gerber Fmt 4.6, Leading zero omitted, Abs format (unit mm)*
G04 Created by KiCad (PCBNEW (6.0.9-0)) date 2024-06-20 10:22:48*
%MOMM*%
%LPD*%
G01*
G04 APERTURE LIST*
%ADD10C,0.150000*%
%ADD11R,1.700000X1.700000*%
%ADD12O,1.700000X1.700000*%
%ADD13O,2.700000X5.400000*%
%ADD14R,1.800000X1.800000*%
%ADD15C,1.800000*%
G04 APERTURE END LIST*
D10*
X113838571Y-119187142D02*
X113624285Y-119787142D01*
X113410000Y-119187142D01*
X112595714Y-119787142D02*
X113110000Y-119787142D01*
X112852857Y-119787142D02*
X112852857Y-118887142D01*
X112938571Y-119015714D01*
X113024285Y-119101428D01*
X113110000Y-119144285D01*
X112210000Y-119787142D02*
X112210000Y-119187142D01*
X112210000Y-119358571D02*
X112167142Y-119272857D01*
X112124285Y-119230000D01*
X112038571Y-119187142D01*
X111952857Y-119187142D01*
X111310000Y-119744285D02*
X111395714Y-119787142D01*
X111567142Y-119787142D01*
X111652857Y-119744285D01*
X111695714Y-119658571D01*
X111695714Y-119315714D01*
X111652857Y-119230000D01*
X111567142Y-119187142D01*
X111395714Y-119187142D01*
X111310000Y-119230000D01*
X111267142Y-119315714D01*
X111267142Y-119401428D01*
X111695714Y-119487142D01*
X110967142Y-119187142D02*
X110752857Y-119787142D01*
X110538571Y-119187142D01*
X109724285Y-119787142D02*
X110238571Y-119787142D01*
X109981428Y-119787142D02*
X109981428Y-118887142D01*
X110067142Y-119015714D01*
X110152857Y-119101428D01*
X110238571Y-119144285D01*
%LPC*%
D11*
%TO.C,J2*%
X109220000Y-111760000D03*
D12*
X111760000Y-111760000D03*
X114300000Y-111760000D03*
%TD*%
D11*
%TO.C,J1*%
X109220000Y-129540000D03*
D12*
X111760000Y-129540000D03*
X114300000Y-129540000D03*
%TD*%
D13*
%TO.C,RV1*%
X107360000Y-119380000D03*
X116160000Y-119380000D03*
D14*
X109260000Y-126380000D03*
D15*
X111760000Y-126380000D03*
X114260000Y-126380000D03*
%TD*%
M02*
