%TF.GenerationSoftware,KiCad,Pcbnew,(6.0.9-0)*%
%TF.CreationDate,2024-06-20T10:22:48+02:00*%
%TF.ProjectId,pot-adapter,706f742d-6164-4617-9074-65722e6b6963,rev?*%
%TF.SameCoordinates,Original*%
%TF.FileFunction,Copper,L2,Bot*%
%TF.FilePolarity,Positive*%
%FSLAX46Y46*%
G04 Gerber Fmt 4.6, Leading zero omitted, Abs format (unit mm)*
G04 Created by KiCad (PCBNEW (6.0.9-0)) date 2024-06-20 10:22:48*
%MOMM*%
%LPD*%
G01*
G04 APERTURE LIST*
%TA.AperFunction,ComponentPad*%
%ADD10R,1.700000X1.700000*%
%TD*%
%TA.AperFunction,ComponentPad*%
%ADD11O,1.700000X1.700000*%
%TD*%
%TA.AperFunction,ComponentPad*%
%ADD12O,2.700000X5.400000*%
%TD*%
%TA.AperFunction,ComponentPad*%
%ADD13R,1.800000X1.800000*%
%TD*%
%TA.AperFunction,ComponentPad*%
%ADD14C,1.800000*%
%TD*%
%TA.AperFunction,Conductor*%
%ADD15C,0.500000*%
%TD*%
G04 APERTURE END LIST*
D10*
%TO.P,J2,1,Pin_1*%
%TO.N,/pin1*%
X109220000Y-111760000D03*
D11*
%TO.P,J2,2,Pin_2*%
%TO.N,/pin2*%
X111760000Y-111760000D03*
%TO.P,J2,3,Pin_3*%
%TO.N,/pin3*%
X114300000Y-111760000D03*
%TD*%
D10*
%TO.P,J1,1,Pin_1*%
%TO.N,/pin1*%
X109220000Y-129540000D03*
D11*
%TO.P,J1,2,Pin_2*%
%TO.N,/pin2*%
X111760000Y-129540000D03*
%TO.P,J1,3,Pin_3*%
%TO.N,/pin3*%
X114300000Y-129540000D03*
%TD*%
D12*
%TO.P,RV1,0,ShieldPin*%
%TO.N,/mounting*%
X107360000Y-119380000D03*
X116160000Y-119380000D03*
D13*
%TO.P,RV1,1,1*%
%TO.N,/pin1*%
X109260000Y-126380000D03*
D14*
%TO.P,RV1,2,2*%
%TO.N,/pin2*%
X111760000Y-126380000D03*
%TO.P,RV1,3,3*%
%TO.N,/pin3*%
X114260000Y-126380000D03*
%TD*%
D15*
%TO.N,/pin2*%
X111760000Y-126380000D02*
X111760000Y-111760000D01*
%TD*%
%TA.AperFunction,Conductor*%
%TO.N,/mounting*%
G36*
X116810018Y-109730000D02*
G01*
X116824851Y-109732310D01*
X116824855Y-109732310D01*
X116833724Y-109733691D01*
X116842626Y-109732527D01*
X116842629Y-109732527D01*
X116850012Y-109731561D01*
X116874591Y-109730767D01*
X116901442Y-109732527D01*
X117096922Y-109745340D01*
X117113262Y-109747491D01*
X117235477Y-109771801D01*
X117357696Y-109796112D01*
X117373606Y-109800375D01*
X117609600Y-109880484D01*
X117624826Y-109886791D01*
X117848342Y-109997016D01*
X117862616Y-110005257D01*
X118069829Y-110143713D01*
X118082905Y-110153746D01*
X118270278Y-110318068D01*
X118281932Y-110329722D01*
X118446254Y-110517095D01*
X118456287Y-110530171D01*
X118594743Y-110737384D01*
X118602984Y-110751658D01*
X118713209Y-110975174D01*
X118719515Y-110990398D01*
X118799625Y-111226394D01*
X118803889Y-111242307D01*
X118852509Y-111486738D01*
X118854660Y-111503078D01*
X118868763Y-111718236D01*
X118867733Y-111741350D01*
X118867690Y-111744854D01*
X118866309Y-111753724D01*
X118867473Y-111762626D01*
X118867473Y-111762628D01*
X118870436Y-111785283D01*
X118871500Y-111801621D01*
X118871500Y-129490633D01*
X118870000Y-129510018D01*
X118867690Y-129524851D01*
X118867690Y-129524855D01*
X118866309Y-129533724D01*
X118867473Y-129542626D01*
X118867473Y-129542629D01*
X118868439Y-129550012D01*
X118869233Y-129574591D01*
X118854660Y-129796922D01*
X118852509Y-129813262D01*
X118808034Y-130036857D01*
X118803889Y-130057693D01*
X118799625Y-130073606D01*
X118744012Y-130237438D01*
X118719516Y-130309600D01*
X118713209Y-130324826D01*
X118602984Y-130548342D01*
X118594743Y-130562616D01*
X118456287Y-130769829D01*
X118446254Y-130782905D01*
X118281932Y-130970278D01*
X118270278Y-130981932D01*
X118082905Y-131146254D01*
X118069829Y-131156287D01*
X117862616Y-131294743D01*
X117848342Y-131302984D01*
X117624826Y-131413209D01*
X117609602Y-131419515D01*
X117373606Y-131499625D01*
X117357696Y-131503888D01*
X117235478Y-131528199D01*
X117113262Y-131552509D01*
X117096922Y-131554660D01*
X116948134Y-131564413D01*
X116881763Y-131568763D01*
X116858650Y-131567733D01*
X116855146Y-131567690D01*
X116846276Y-131566309D01*
X116837374Y-131567473D01*
X116837372Y-131567473D01*
X116823915Y-131569233D01*
X116814714Y-131570436D01*
X116798379Y-131571500D01*
X106729367Y-131571500D01*
X106709982Y-131570000D01*
X106695149Y-131567690D01*
X106695145Y-131567690D01*
X106686276Y-131566309D01*
X106677374Y-131567473D01*
X106677371Y-131567473D01*
X106669988Y-131568439D01*
X106645409Y-131569233D01*
X106600799Y-131566309D01*
X106423078Y-131554660D01*
X106406738Y-131552509D01*
X106284522Y-131528199D01*
X106162304Y-131503888D01*
X106146394Y-131499625D01*
X105910398Y-131419515D01*
X105895174Y-131413209D01*
X105671658Y-131302984D01*
X105657384Y-131294743D01*
X105450171Y-131156287D01*
X105437095Y-131146254D01*
X105249722Y-130981932D01*
X105238068Y-130970278D01*
X105073746Y-130782905D01*
X105063713Y-130769829D01*
X104925257Y-130562616D01*
X104917016Y-130548342D01*
X104862668Y-130438134D01*
X107861500Y-130438134D01*
X107868255Y-130500316D01*
X107919385Y-130636705D01*
X108006739Y-130753261D01*
X108123295Y-130840615D01*
X108259684Y-130891745D01*
X108321866Y-130898500D01*
X110118134Y-130898500D01*
X110180316Y-130891745D01*
X110316705Y-130840615D01*
X110433261Y-130753261D01*
X110520615Y-130636705D01*
X110553741Y-130548342D01*
X110564598Y-130519382D01*
X110607240Y-130462618D01*
X110673802Y-130437918D01*
X110743150Y-130453126D01*
X110777817Y-130481114D01*
X110806250Y-130513938D01*
X110978126Y-130656632D01*
X111171000Y-130769338D01*
X111379692Y-130849030D01*
X111384760Y-130850061D01*
X111384763Y-130850062D01*
X111492017Y-130871883D01*
X111598597Y-130893567D01*
X111603772Y-130893757D01*
X111603774Y-130893757D01*
X111816673Y-130901564D01*
X111816677Y-130901564D01*
X111821837Y-130901753D01*
X111826957Y-130901097D01*
X111826959Y-130901097D01*
X112038288Y-130874025D01*
X112038289Y-130874025D01*
X112043416Y-130873368D01*
X112048366Y-130871883D01*
X112252429Y-130810661D01*
X112252434Y-130810659D01*
X112257384Y-130809174D01*
X112457994Y-130710896D01*
X112639860Y-130581173D01*
X112798096Y-130423489D01*
X112928453Y-130242077D01*
X112929776Y-130243028D01*
X112976645Y-130199857D01*
X113046580Y-130187625D01*
X113112026Y-130215144D01*
X113139875Y-130246994D01*
X113199987Y-130345088D01*
X113346250Y-130513938D01*
X113518126Y-130656632D01*
X113711000Y-130769338D01*
X113919692Y-130849030D01*
X113924760Y-130850061D01*
X113924763Y-130850062D01*
X114032017Y-130871883D01*
X114138597Y-130893567D01*
X114143772Y-130893757D01*
X114143774Y-130893757D01*
X114356673Y-130901564D01*
X114356677Y-130901564D01*
X114361837Y-130901753D01*
X114366957Y-130901097D01*
X114366959Y-130901097D01*
X114578288Y-130874025D01*
X114578289Y-130874025D01*
X114583416Y-130873368D01*
X114588366Y-130871883D01*
X114792429Y-130810661D01*
X114792434Y-130810659D01*
X114797384Y-130809174D01*
X114997994Y-130710896D01*
X115179860Y-130581173D01*
X115338096Y-130423489D01*
X115468453Y-130242077D01*
X115489320Y-130199857D01*
X115565136Y-130046453D01*
X115565137Y-130046451D01*
X115567430Y-130041811D01*
X115599900Y-129934940D01*
X115630865Y-129833023D01*
X115630865Y-129833021D01*
X115632370Y-129828069D01*
X115661529Y-129606590D01*
X115662405Y-129570745D01*
X115663074Y-129543365D01*
X115663074Y-129543361D01*
X115663156Y-129540000D01*
X115644852Y-129317361D01*
X115590431Y-129100702D01*
X115501354Y-128895840D01*
X115380014Y-128708277D01*
X115229670Y-128543051D01*
X115225619Y-128539852D01*
X115225615Y-128539848D01*
X115058414Y-128407800D01*
X115058410Y-128407798D01*
X115054359Y-128404598D01*
X114858789Y-128296638D01*
X114853920Y-128294914D01*
X114853916Y-128294912D01*
X114653087Y-128223795D01*
X114653083Y-128223794D01*
X114648212Y-128222069D01*
X114643119Y-128221162D01*
X114643116Y-128221161D01*
X114433373Y-128183800D01*
X114433367Y-128183799D01*
X114428284Y-128182894D01*
X114354452Y-128181992D01*
X114210081Y-128180228D01*
X114210079Y-128180228D01*
X114204911Y-128180165D01*
X113984091Y-128213955D01*
X113771756Y-128283357D01*
X113573607Y-128386507D01*
X113569474Y-128389610D01*
X113569471Y-128389612D01*
X113399100Y-128517530D01*
X113394965Y-128520635D01*
X113391393Y-128524373D01*
X113283729Y-128637037D01*
X113240629Y-128682138D01*
X113133201Y-128839621D01*
X113078293Y-128884621D01*
X113007768Y-128892792D01*
X112944021Y-128861538D01*
X112923324Y-128837054D01*
X112842822Y-128712617D01*
X112842820Y-128712614D01*
X112840014Y-128708277D01*
X112689670Y-128543051D01*
X112685619Y-128539852D01*
X112685615Y-128539848D01*
X112518414Y-128407800D01*
X112518410Y-128407798D01*
X112514359Y-128404598D01*
X112318789Y-128296638D01*
X112313920Y-128294914D01*
X112313916Y-128294912D01*
X112113087Y-128223795D01*
X112113083Y-128223794D01*
X112108212Y-128222069D01*
X112103119Y-128221162D01*
X112103116Y-128221161D01*
X111893373Y-128183800D01*
X111893367Y-128183799D01*
X111888284Y-128182894D01*
X111814452Y-128181992D01*
X111670081Y-128180228D01*
X111670079Y-128180228D01*
X111664911Y-128180165D01*
X111444091Y-128213955D01*
X111231756Y-128283357D01*
X111033607Y-128386507D01*
X111029474Y-128389610D01*
X111029471Y-128389612D01*
X110859100Y-128517530D01*
X110854965Y-128520635D01*
X110798537Y-128579684D01*
X110774283Y-128605064D01*
X110712759Y-128640494D01*
X110641846Y-128637037D01*
X110584060Y-128595791D01*
X110565207Y-128562243D01*
X110523767Y-128451703D01*
X110520615Y-128443295D01*
X110433261Y-128326739D01*
X110316705Y-128239385D01*
X110180316Y-128188255D01*
X110118134Y-128181500D01*
X108321866Y-128181500D01*
X108259684Y-128188255D01*
X108123295Y-128239385D01*
X108006739Y-128326739D01*
X107919385Y-128443295D01*
X107868255Y-128579684D01*
X107861500Y-128641866D01*
X107861500Y-130438134D01*
X104862668Y-130438134D01*
X104806791Y-130324826D01*
X104800484Y-130309600D01*
X104775988Y-130237438D01*
X104720375Y-130073606D01*
X104716111Y-130057693D01*
X104711967Y-130036857D01*
X104667491Y-129813262D01*
X104665340Y-129796922D01*
X104651476Y-129585407D01*
X104652650Y-129562232D01*
X104652334Y-129562204D01*
X104652770Y-129557344D01*
X104653576Y-129552552D01*
X104653729Y-129540000D01*
X104649773Y-129512376D01*
X104648500Y-129494514D01*
X104648500Y-127328134D01*
X107851500Y-127328134D01*
X107858255Y-127390316D01*
X107909385Y-127526705D01*
X107996739Y-127643261D01*
X108113295Y-127730615D01*
X108249684Y-127781745D01*
X108311866Y-127788500D01*
X110208134Y-127788500D01*
X110270316Y-127781745D01*
X110406705Y-127730615D01*
X110523261Y-127643261D01*
X110610615Y-127526705D01*
X110625686Y-127486504D01*
X110668328Y-127429739D01*
X110734890Y-127405040D01*
X110804239Y-127420248D01*
X110824150Y-127433788D01*
X110949349Y-127537730D01*
X111149322Y-127654584D01*
X111365694Y-127737209D01*
X111370760Y-127738240D01*
X111370761Y-127738240D01*
X111423846Y-127749040D01*
X111592656Y-127783385D01*
X111722089Y-127788131D01*
X111818949Y-127791683D01*
X111818953Y-127791683D01*
X111824113Y-127791872D01*
X111829233Y-127791216D01*
X111829235Y-127791216D01*
X111903166Y-127781745D01*
X112053847Y-127762442D01*
X112058795Y-127760957D01*
X112058802Y-127760956D01*
X112270747Y-127697369D01*
X112275690Y-127695886D01*
X112356236Y-127656427D01*
X112479049Y-127596262D01*
X112479052Y-127596260D01*
X112483684Y-127593991D01*
X112672243Y-127459494D01*
X112836303Y-127296005D01*
X112905370Y-127199888D01*
X112961365Y-127156240D01*
X113032068Y-127149794D01*
X113095033Y-127182597D01*
X113115128Y-127207584D01*
X113116799Y-127210311D01*
X113116804Y-127210317D01*
X113119501Y-127214719D01*
X113271147Y-127389784D01*
X113449349Y-127537730D01*
X113649322Y-127654584D01*
X113865694Y-127737209D01*
X113870760Y-127738240D01*
X113870761Y-127738240D01*
X113923846Y-127749040D01*
X114092656Y-127783385D01*
X114222089Y-127788131D01*
X114318949Y-127791683D01*
X114318953Y-127791683D01*
X114324113Y-127791872D01*
X114329233Y-127791216D01*
X114329235Y-127791216D01*
X114403166Y-127781745D01*
X114553847Y-127762442D01*
X114558795Y-127760957D01*
X114558802Y-127760956D01*
X114770747Y-127697369D01*
X114775690Y-127695886D01*
X114856236Y-127656427D01*
X114979049Y-127596262D01*
X114979052Y-127596260D01*
X114983684Y-127593991D01*
X115172243Y-127459494D01*
X115336303Y-127296005D01*
X115471458Y-127107917D01*
X115574078Y-126900280D01*
X115641408Y-126678671D01*
X115671640Y-126449041D01*
X115673327Y-126380000D01*
X115667032Y-126303434D01*
X115654773Y-126154318D01*
X115654772Y-126154312D01*
X115654349Y-126149167D01*
X115597925Y-125924533D01*
X115505570Y-125712131D01*
X115379764Y-125517665D01*
X115223887Y-125346358D01*
X115219836Y-125343159D01*
X115219832Y-125343155D01*
X115046177Y-125206011D01*
X115046172Y-125206008D01*
X115042123Y-125202810D01*
X115037607Y-125200317D01*
X115037604Y-125200315D01*
X114843879Y-125093373D01*
X114843875Y-125093371D01*
X114839355Y-125090876D01*
X114834486Y-125089152D01*
X114834482Y-125089150D01*
X114625903Y-125015288D01*
X114625899Y-125015287D01*
X114621028Y-125013562D01*
X114615935Y-125012655D01*
X114615932Y-125012654D01*
X114398095Y-124973851D01*
X114398089Y-124973850D01*
X114393006Y-124972945D01*
X114320096Y-124972054D01*
X114166581Y-124970179D01*
X114166579Y-124970179D01*
X114161411Y-124970116D01*
X113932464Y-125005150D01*
X113712314Y-125077106D01*
X113707726Y-125079494D01*
X113707722Y-125079496D01*
X113620066Y-125125127D01*
X113506872Y-125184052D01*
X113502739Y-125187155D01*
X113502736Y-125187157D01*
X113359074Y-125295022D01*
X113321655Y-125323117D01*
X113161639Y-125490564D01*
X113114836Y-125559174D01*
X113059927Y-125604175D01*
X112989402Y-125612346D01*
X112925655Y-125581092D01*
X112904959Y-125556609D01*
X112882577Y-125522013D01*
X112882574Y-125522009D01*
X112879764Y-125517665D01*
X112723887Y-125346358D01*
X112719836Y-125343159D01*
X112719832Y-125343155D01*
X112566408Y-125221989D01*
X112525345Y-125164072D01*
X112518500Y-125123107D01*
X112518500Y-120796206D01*
X114302000Y-120796206D01*
X114302165Y-120800777D01*
X114316213Y-120994380D01*
X114317527Y-121003389D01*
X114373689Y-121257769D01*
X114376292Y-121266499D01*
X114468586Y-121510107D01*
X114472421Y-121518368D01*
X114598915Y-121746101D01*
X114603905Y-121753726D01*
X114761946Y-121960809D01*
X114767986Y-121967636D01*
X114954264Y-122149735D01*
X114961226Y-122155618D01*
X115171843Y-122308922D01*
X115179573Y-122313733D01*
X115410122Y-122435031D01*
X115418472Y-122438678D01*
X115664099Y-122525419D01*
X115672894Y-122527825D01*
X115888225Y-122570267D01*
X115901137Y-122569088D01*
X115905939Y-122554174D01*
X116414000Y-122554174D01*
X116418251Y-122568651D01*
X116430512Y-122570714D01*
X116466133Y-122567315D01*
X116475125Y-122565795D01*
X116728158Y-122503878D01*
X116736827Y-122501078D01*
X116978282Y-122403278D01*
X116986455Y-122399256D01*
X117211253Y-122267632D01*
X117218765Y-122262469D01*
X117422213Y-122099769D01*
X117428896Y-122093580D01*
X117606733Y-121903206D01*
X117612443Y-121896129D01*
X117760934Y-121682082D01*
X117765571Y-121674241D01*
X117881604Y-121441003D01*
X117885060Y-121432578D01*
X117966212Y-121185026D01*
X117968412Y-121176201D01*
X118013103Y-120918811D01*
X118013950Y-120911193D01*
X118017922Y-120831408D01*
X118018000Y-120828267D01*
X118018000Y-119652115D01*
X118013525Y-119636876D01*
X118012135Y-119635671D01*
X118004452Y-119634000D01*
X116432115Y-119634000D01*
X116416876Y-119638475D01*
X116415671Y-119639865D01*
X116414000Y-119647548D01*
X116414000Y-122554174D01*
X115905939Y-122554174D01*
X115906000Y-122553985D01*
X115906000Y-119652115D01*
X115901525Y-119636876D01*
X115900135Y-119635671D01*
X115892452Y-119634000D01*
X114320115Y-119634000D01*
X114304876Y-119638475D01*
X114303671Y-119639865D01*
X114302000Y-119647548D01*
X114302000Y-120796206D01*
X112518500Y-120796206D01*
X112518500Y-119107885D01*
X114302000Y-119107885D01*
X114306475Y-119123124D01*
X114307865Y-119124329D01*
X114315548Y-119126000D01*
X115887885Y-119126000D01*
X115903124Y-119121525D01*
X115904329Y-119120135D01*
X115906000Y-119112452D01*
X115906000Y-119107885D01*
X116414000Y-119107885D01*
X116418475Y-119123124D01*
X116419865Y-119124329D01*
X116427548Y-119126000D01*
X117999885Y-119126000D01*
X118015124Y-119121525D01*
X118016329Y-119120135D01*
X118018000Y-119112452D01*
X118018000Y-117963794D01*
X118017835Y-117959223D01*
X118003787Y-117765620D01*
X118002473Y-117756611D01*
X117946311Y-117502231D01*
X117943708Y-117493501D01*
X117851414Y-117249893D01*
X117847579Y-117241632D01*
X117721085Y-117013899D01*
X117716095Y-117006274D01*
X117558054Y-116799191D01*
X117552014Y-116792364D01*
X117365736Y-116610265D01*
X117358774Y-116604382D01*
X117148157Y-116451078D01*
X117140427Y-116446267D01*
X116909878Y-116324969D01*
X116901528Y-116321322D01*
X116655901Y-116234581D01*
X116647106Y-116232175D01*
X116431775Y-116189733D01*
X116418863Y-116190912D01*
X116414000Y-116206015D01*
X116414000Y-119107885D01*
X115906000Y-119107885D01*
X115906000Y-116205826D01*
X115901749Y-116191349D01*
X115889488Y-116189286D01*
X115853867Y-116192685D01*
X115844875Y-116194205D01*
X115591842Y-116256122D01*
X115583173Y-116258922D01*
X115341718Y-116356722D01*
X115333545Y-116360744D01*
X115108747Y-116492368D01*
X115101235Y-116497531D01*
X114897787Y-116660231D01*
X114891104Y-116666420D01*
X114713267Y-116856794D01*
X114707557Y-116863871D01*
X114559066Y-117077918D01*
X114554429Y-117085759D01*
X114438396Y-117318997D01*
X114434940Y-117327422D01*
X114353788Y-117574974D01*
X114351588Y-117583799D01*
X114306897Y-117841189D01*
X114306050Y-117848807D01*
X114302078Y-117928592D01*
X114302000Y-117931733D01*
X114302000Y-119107885D01*
X112518500Y-119107885D01*
X112518500Y-112952632D01*
X112538502Y-112884511D01*
X112571331Y-112850054D01*
X112639860Y-112801173D01*
X112798096Y-112643489D01*
X112928453Y-112462077D01*
X112929776Y-112463028D01*
X112976645Y-112419857D01*
X113046580Y-112407625D01*
X113112026Y-112435144D01*
X113139875Y-112466994D01*
X113199987Y-112565088D01*
X113346250Y-112733938D01*
X113518126Y-112876632D01*
X113711000Y-112989338D01*
X113919692Y-113069030D01*
X113924760Y-113070061D01*
X113924763Y-113070062D01*
X114032017Y-113091883D01*
X114138597Y-113113567D01*
X114143772Y-113113757D01*
X114143774Y-113113757D01*
X114356673Y-113121564D01*
X114356677Y-113121564D01*
X114361837Y-113121753D01*
X114366957Y-113121097D01*
X114366959Y-113121097D01*
X114578288Y-113094025D01*
X114578289Y-113094025D01*
X114583416Y-113093368D01*
X114588366Y-113091883D01*
X114792429Y-113030661D01*
X114792434Y-113030659D01*
X114797384Y-113029174D01*
X114997994Y-112930896D01*
X115179860Y-112801173D01*
X115338096Y-112643489D01*
X115468453Y-112462077D01*
X115489320Y-112419857D01*
X115565136Y-112266453D01*
X115565137Y-112266451D01*
X115567430Y-112261811D01*
X115632370Y-112048069D01*
X115661529Y-111826590D01*
X115662139Y-111801621D01*
X115663074Y-111763365D01*
X115663074Y-111763361D01*
X115663156Y-111760000D01*
X115644852Y-111537361D01*
X115590431Y-111320702D01*
X115501354Y-111115840D01*
X115380014Y-110928277D01*
X115229670Y-110763051D01*
X115225619Y-110759852D01*
X115225615Y-110759848D01*
X115058414Y-110627800D01*
X115058410Y-110627798D01*
X115054359Y-110624598D01*
X114858789Y-110516638D01*
X114853920Y-110514914D01*
X114853916Y-110514912D01*
X114653087Y-110443795D01*
X114653083Y-110443794D01*
X114648212Y-110442069D01*
X114643119Y-110441162D01*
X114643116Y-110441161D01*
X114433373Y-110403800D01*
X114433367Y-110403799D01*
X114428284Y-110402894D01*
X114354452Y-110401992D01*
X114210081Y-110400228D01*
X114210079Y-110400228D01*
X114204911Y-110400165D01*
X113984091Y-110433955D01*
X113771756Y-110503357D01*
X113573607Y-110606507D01*
X113569474Y-110609610D01*
X113569471Y-110609612D01*
X113399100Y-110737530D01*
X113394965Y-110740635D01*
X113391393Y-110744373D01*
X113283729Y-110857037D01*
X113240629Y-110902138D01*
X113133201Y-111059621D01*
X113078293Y-111104621D01*
X113007768Y-111112792D01*
X112944021Y-111081538D01*
X112923324Y-111057054D01*
X112842822Y-110932617D01*
X112842820Y-110932614D01*
X112840014Y-110928277D01*
X112689670Y-110763051D01*
X112685619Y-110759852D01*
X112685615Y-110759848D01*
X112518414Y-110627800D01*
X112518410Y-110627798D01*
X112514359Y-110624598D01*
X112318789Y-110516638D01*
X112313920Y-110514914D01*
X112313916Y-110514912D01*
X112113087Y-110443795D01*
X112113083Y-110443794D01*
X112108212Y-110442069D01*
X112103119Y-110441162D01*
X112103116Y-110441161D01*
X111893373Y-110403800D01*
X111893367Y-110403799D01*
X111888284Y-110402894D01*
X111814452Y-110401992D01*
X111670081Y-110400228D01*
X111670079Y-110400228D01*
X111664911Y-110400165D01*
X111444091Y-110433955D01*
X111231756Y-110503357D01*
X111033607Y-110606507D01*
X111029474Y-110609610D01*
X111029471Y-110609612D01*
X110859100Y-110737530D01*
X110854965Y-110740635D01*
X110798537Y-110799684D01*
X110774283Y-110825064D01*
X110712759Y-110860494D01*
X110641846Y-110857037D01*
X110584060Y-110815791D01*
X110565207Y-110782243D01*
X110523767Y-110671703D01*
X110520615Y-110663295D01*
X110433261Y-110546739D01*
X110316705Y-110459385D01*
X110180316Y-110408255D01*
X110118134Y-110401500D01*
X108321866Y-110401500D01*
X108259684Y-110408255D01*
X108123295Y-110459385D01*
X108006739Y-110546739D01*
X107919385Y-110663295D01*
X107868255Y-110799684D01*
X107861500Y-110861866D01*
X107861500Y-112658134D01*
X107868255Y-112720316D01*
X107919385Y-112856705D01*
X108006739Y-112973261D01*
X108123295Y-113060615D01*
X108259684Y-113111745D01*
X108321866Y-113118500D01*
X110118134Y-113118500D01*
X110180316Y-113111745D01*
X110316705Y-113060615D01*
X110433261Y-112973261D01*
X110520615Y-112856705D01*
X110542799Y-112797529D01*
X110564598Y-112739382D01*
X110607240Y-112682618D01*
X110673802Y-112657918D01*
X110743150Y-112673126D01*
X110777817Y-112701114D01*
X110806250Y-112733938D01*
X110954124Y-112856705D01*
X110955985Y-112858250D01*
X110995620Y-112917152D01*
X111001500Y-112955194D01*
X111001500Y-125125127D01*
X110981498Y-125193248D01*
X110951154Y-125225886D01*
X110821655Y-125323117D01*
X110820976Y-125322213D01*
X110761730Y-125350131D01*
X110691341Y-125340869D01*
X110637132Y-125295022D01*
X110624325Y-125269866D01*
X110613768Y-125241705D01*
X110613767Y-125241703D01*
X110610615Y-125233295D01*
X110523261Y-125116739D01*
X110406705Y-125029385D01*
X110270316Y-124978255D01*
X110208134Y-124971500D01*
X108311866Y-124971500D01*
X108249684Y-124978255D01*
X108113295Y-125029385D01*
X107996739Y-125116739D01*
X107909385Y-125233295D01*
X107858255Y-125369684D01*
X107851500Y-125431866D01*
X107851500Y-127328134D01*
X104648500Y-127328134D01*
X104648500Y-120796206D01*
X105502000Y-120796206D01*
X105502165Y-120800777D01*
X105516213Y-120994380D01*
X105517527Y-121003389D01*
X105573689Y-121257769D01*
X105576292Y-121266499D01*
X105668586Y-121510107D01*
X105672421Y-121518368D01*
X105798915Y-121746101D01*
X105803905Y-121753726D01*
X105961946Y-121960809D01*
X105967986Y-121967636D01*
X106154264Y-122149735D01*
X106161226Y-122155618D01*
X106371843Y-122308922D01*
X106379573Y-122313733D01*
X106610122Y-122435031D01*
X106618472Y-122438678D01*
X106864099Y-122525419D01*
X106872894Y-122527825D01*
X107088225Y-122570267D01*
X107101137Y-122569088D01*
X107105939Y-122554174D01*
X107614000Y-122554174D01*
X107618251Y-122568651D01*
X107630512Y-122570714D01*
X107666133Y-122567315D01*
X107675125Y-122565795D01*
X107928158Y-122503878D01*
X107936827Y-122501078D01*
X108178282Y-122403278D01*
X108186455Y-122399256D01*
X108411253Y-122267632D01*
X108418765Y-122262469D01*
X108622213Y-122099769D01*
X108628896Y-122093580D01*
X108806733Y-121903206D01*
X108812443Y-121896129D01*
X108960934Y-121682082D01*
X108965571Y-121674241D01*
X109081604Y-121441003D01*
X109085060Y-121432578D01*
X109166212Y-121185026D01*
X109168412Y-121176201D01*
X109213103Y-120918811D01*
X109213950Y-120911193D01*
X109217922Y-120831408D01*
X109218000Y-120828267D01*
X109218000Y-119652115D01*
X109213525Y-119636876D01*
X109212135Y-119635671D01*
X109204452Y-119634000D01*
X107632115Y-119634000D01*
X107616876Y-119638475D01*
X107615671Y-119639865D01*
X107614000Y-119647548D01*
X107614000Y-122554174D01*
X107105939Y-122554174D01*
X107106000Y-122553985D01*
X107106000Y-119652115D01*
X107101525Y-119636876D01*
X107100135Y-119635671D01*
X107092452Y-119634000D01*
X105520115Y-119634000D01*
X105504876Y-119638475D01*
X105503671Y-119639865D01*
X105502000Y-119647548D01*
X105502000Y-120796206D01*
X104648500Y-120796206D01*
X104648500Y-119107885D01*
X105502000Y-119107885D01*
X105506475Y-119123124D01*
X105507865Y-119124329D01*
X105515548Y-119126000D01*
X107087885Y-119126000D01*
X107103124Y-119121525D01*
X107104329Y-119120135D01*
X107106000Y-119112452D01*
X107106000Y-119107885D01*
X107614000Y-119107885D01*
X107618475Y-119123124D01*
X107619865Y-119124329D01*
X107627548Y-119126000D01*
X109199885Y-119126000D01*
X109215124Y-119121525D01*
X109216329Y-119120135D01*
X109218000Y-119112452D01*
X109218000Y-117963794D01*
X109217835Y-117959223D01*
X109203787Y-117765620D01*
X109202473Y-117756611D01*
X109146311Y-117502231D01*
X109143708Y-117493501D01*
X109051414Y-117249893D01*
X109047579Y-117241632D01*
X108921085Y-117013899D01*
X108916095Y-117006274D01*
X108758054Y-116799191D01*
X108752014Y-116792364D01*
X108565736Y-116610265D01*
X108558774Y-116604382D01*
X108348157Y-116451078D01*
X108340427Y-116446267D01*
X108109878Y-116324969D01*
X108101528Y-116321322D01*
X107855901Y-116234581D01*
X107847106Y-116232175D01*
X107631775Y-116189733D01*
X107618863Y-116190912D01*
X107614000Y-116206015D01*
X107614000Y-119107885D01*
X107106000Y-119107885D01*
X107106000Y-116205826D01*
X107101749Y-116191349D01*
X107089488Y-116189286D01*
X107053867Y-116192685D01*
X107044875Y-116194205D01*
X106791842Y-116256122D01*
X106783173Y-116258922D01*
X106541718Y-116356722D01*
X106533545Y-116360744D01*
X106308747Y-116492368D01*
X106301235Y-116497531D01*
X106097787Y-116660231D01*
X106091104Y-116666420D01*
X105913267Y-116856794D01*
X105907557Y-116863871D01*
X105759066Y-117077918D01*
X105754429Y-117085759D01*
X105638396Y-117318997D01*
X105634940Y-117327422D01*
X105553788Y-117574974D01*
X105551588Y-117583799D01*
X105506897Y-117841189D01*
X105506050Y-117848807D01*
X105502078Y-117928592D01*
X105502000Y-117931733D01*
X105502000Y-119107885D01*
X104648500Y-119107885D01*
X104648500Y-111813250D01*
X104650246Y-111792345D01*
X104652770Y-111777344D01*
X104652770Y-111777341D01*
X104653576Y-111772552D01*
X104653729Y-111760000D01*
X104652003Y-111747947D01*
X104651001Y-111721845D01*
X104665340Y-111503078D01*
X104667491Y-111486738D01*
X104716111Y-111242307D01*
X104720375Y-111226394D01*
X104800485Y-110990398D01*
X104806791Y-110975174D01*
X104917016Y-110751658D01*
X104925257Y-110737384D01*
X105063713Y-110530171D01*
X105073746Y-110517095D01*
X105238068Y-110329722D01*
X105249722Y-110318068D01*
X105437095Y-110153746D01*
X105450171Y-110143713D01*
X105657384Y-110005257D01*
X105671658Y-109997016D01*
X105895174Y-109886791D01*
X105910400Y-109880484D01*
X106146394Y-109800375D01*
X106162304Y-109796112D01*
X106284523Y-109771801D01*
X106406738Y-109747491D01*
X106423078Y-109745340D01*
X106571866Y-109735587D01*
X106638237Y-109731237D01*
X106661350Y-109732267D01*
X106664854Y-109732310D01*
X106673724Y-109733691D01*
X106682626Y-109732527D01*
X106682628Y-109732527D01*
X106699449Y-109730327D01*
X106705286Y-109729564D01*
X106721621Y-109728500D01*
X116790633Y-109728500D01*
X116810018Y-109730000D01*
G37*
%TD.AperFunction*%
%TD*%
M02*
