%TF.GenerationSoftware,KiCad,Pcbnew,(6.0.9-0)*%
%TF.CreationDate,2024-03-23T12:25:00+01:00*%
%TF.ProjectId,io-board,696f2d62-6f61-4726-942e-6b696361645f,rev?*%
%TF.SameCoordinates,Original*%
%TF.FileFunction,Legend,Bot*%
%TF.FilePolarity,Positive*%
%FSLAX46Y46*%
G04 Gerber Fmt 4.6, Leading zero omitted, Abs format (unit mm)*
G04 Created by KiCad (PCBNEW (6.0.9-0)) date 2024-03-23 12:25:00*
%MOMM*%
%LPD*%
G01*
G04 APERTURE LIST*
G04 Aperture macros list*
%AMRoundRect*
0 Rectangle with rounded corners*
0 $1 Rounding radius*
0 $2 $3 $4 $5 $6 $7 $8 $9 X,Y pos of 4 corners*
0 Add a 4 corners polygon primitive as box body*
4,1,4,$2,$3,$4,$5,$6,$7,$8,$9,$2,$3,0*
0 Add four circle primitives for the rounded corners*
1,1,$1+$1,$2,$3*
1,1,$1+$1,$4,$5*
1,1,$1+$1,$6,$7*
1,1,$1+$1,$8,$9*
0 Add four rect primitives between the rounded corners*
20,1,$1+$1,$2,$3,$4,$5,0*
20,1,$1+$1,$4,$5,$6,$7,0*
20,1,$1+$1,$6,$7,$8,$9,0*
20,1,$1+$1,$8,$9,$2,$3,0*%
G04 Aperture macros list end*
%ADD10C,0.150000*%
%ADD11C,0.152400*%
%ADD12C,0.127000*%
%ADD13C,0.120000*%
%ADD14R,3.416000X3.416000*%
%ADD15O,3.416000X3.416000*%
%ADD16C,3.200000*%
%ADD17C,0.800000*%
%ADD18C,6.400000*%
%ADD19O,1.200000X2.200000*%
%ADD20O,2.200000X1.200000*%
%ADD21R,1.700000X1.700000*%
%ADD22O,1.700000X1.700000*%
%ADD23R,4.600000X2.000000*%
%ADD24O,4.200000X2.000000*%
%ADD25O,2.000000X4.200000*%
%ADD26O,2.700000X5.400000*%
%ADD27R,1.800000X1.800000*%
%ADD28C,1.800000*%
%ADD29R,0.800000X1.900000*%
%ADD30RoundRect,0.237500X0.250000X0.237500X-0.250000X0.237500X-0.250000X-0.237500X0.250000X-0.237500X0*%
%ADD31RoundRect,0.237500X0.237500X-0.250000X0.237500X0.250000X-0.237500X0.250000X-0.237500X-0.250000X0*%
%ADD32RoundRect,0.150000X0.825000X0.150000X-0.825000X0.150000X-0.825000X-0.150000X0.825000X-0.150000X0*%
%ADD33RoundRect,0.237500X-0.237500X0.250000X-0.237500X-0.250000X0.237500X-0.250000X0.237500X0.250000X0*%
%ADD34RoundRect,0.250000X0.550000X-1.050000X0.550000X1.050000X-0.550000X1.050000X-0.550000X-1.050000X0*%
%ADD35RoundRect,0.237500X-0.250000X-0.237500X0.250000X-0.237500X0.250000X0.237500X-0.250000X0.237500X0*%
%ADD36RoundRect,0.237500X-0.237500X0.300000X-0.237500X-0.300000X0.237500X-0.300000X0.237500X0.300000X0*%
%ADD37RoundRect,0.250000X-0.550000X1.050000X-0.550000X-1.050000X0.550000X-1.050000X0.550000X1.050000X0*%
%ADD38RoundRect,0.237500X-0.300000X-0.237500X0.300000X-0.237500X0.300000X0.237500X-0.300000X0.237500X0*%
%ADD39RoundRect,0.150000X-0.150000X0.825000X-0.150000X-0.825000X0.150000X-0.825000X0.150000X0.825000X0*%
%ADD40RoundRect,0.250000X-1.050000X-0.550000X1.050000X-0.550000X1.050000X0.550000X-1.050000X0.550000X0*%
%ADD41RoundRect,0.250000X1.050000X0.550000X-1.050000X0.550000X-1.050000X-0.550000X1.050000X-0.550000X0*%
%ADD42RoundRect,0.237500X0.237500X-0.300000X0.237500X0.300000X-0.237500X0.300000X-0.237500X-0.300000X0*%
G04 APERTURE END LIST*
D10*
%TO.C,Q1*%
X76422619Y-80351761D02*
X76375000Y-80256523D01*
X76279761Y-80161285D01*
X76136904Y-80018428D01*
X76089285Y-79923190D01*
X76089285Y-79827952D01*
X76327380Y-79875571D02*
X76279761Y-79780333D01*
X76184523Y-79685095D01*
X75994047Y-79637476D01*
X75660714Y-79637476D01*
X75470238Y-79685095D01*
X75375000Y-79780333D01*
X75327380Y-79875571D01*
X75327380Y-80066047D01*
X75375000Y-80161285D01*
X75470238Y-80256523D01*
X75660714Y-80304142D01*
X75994047Y-80304142D01*
X76184523Y-80256523D01*
X76279761Y-80161285D01*
X76327380Y-80066047D01*
X76327380Y-79875571D01*
X76327380Y-81256523D02*
X76327380Y-80685095D01*
X76327380Y-80970809D02*
X75327380Y-80970809D01*
X75470238Y-80875571D01*
X75565476Y-80780333D01*
X75613095Y-80685095D01*
%TO.C,R15*%
X94170857Y-100584380D02*
X94504190Y-100108190D01*
X94742285Y-100584380D02*
X94742285Y-99584380D01*
X94361333Y-99584380D01*
X94266095Y-99632000D01*
X94218476Y-99679619D01*
X94170857Y-99774857D01*
X94170857Y-99917714D01*
X94218476Y-100012952D01*
X94266095Y-100060571D01*
X94361333Y-100108190D01*
X94742285Y-100108190D01*
X93218476Y-100584380D02*
X93789904Y-100584380D01*
X93504190Y-100584380D02*
X93504190Y-99584380D01*
X93599428Y-99727238D01*
X93694666Y-99822476D01*
X93789904Y-99870095D01*
X92313714Y-99584380D02*
X92789904Y-99584380D01*
X92837523Y-100060571D01*
X92789904Y-100012952D01*
X92694666Y-99965333D01*
X92456571Y-99965333D01*
X92361333Y-100012952D01*
X92313714Y-100060571D01*
X92266095Y-100155809D01*
X92266095Y-100393904D01*
X92313714Y-100489142D01*
X92361333Y-100536761D01*
X92456571Y-100584380D01*
X92694666Y-100584380D01*
X92789904Y-100536761D01*
X92837523Y-100489142D01*
%TO.C,R6*%
X73279380Y-81296333D02*
X72803190Y-80963000D01*
X73279380Y-80724904D02*
X72279380Y-80724904D01*
X72279380Y-81105857D01*
X72327000Y-81201095D01*
X72374619Y-81248714D01*
X72469857Y-81296333D01*
X72612714Y-81296333D01*
X72707952Y-81248714D01*
X72755571Y-81201095D01*
X72803190Y-81105857D01*
X72803190Y-80724904D01*
X72279380Y-82153476D02*
X72279380Y-81963000D01*
X72327000Y-81867761D01*
X72374619Y-81820142D01*
X72517476Y-81724904D01*
X72707952Y-81677285D01*
X73088904Y-81677285D01*
X73184142Y-81724904D01*
X73231761Y-81772523D01*
X73279380Y-81867761D01*
X73279380Y-82058238D01*
X73231761Y-82153476D01*
X73184142Y-82201095D01*
X73088904Y-82248714D01*
X72850809Y-82248714D01*
X72755571Y-82201095D01*
X72707952Y-82153476D01*
X72660333Y-82058238D01*
X72660333Y-81867761D01*
X72707952Y-81772523D01*
X72755571Y-81724904D01*
X72850809Y-81677285D01*
%TO.C,U1*%
X115371904Y-84396880D02*
X115371904Y-85206404D01*
X115324285Y-85301642D01*
X115276666Y-85349261D01*
X115181428Y-85396880D01*
X114990952Y-85396880D01*
X114895714Y-85349261D01*
X114848095Y-85301642D01*
X114800476Y-85206404D01*
X114800476Y-84396880D01*
X113800476Y-85396880D02*
X114371904Y-85396880D01*
X114086190Y-85396880D02*
X114086190Y-84396880D01*
X114181428Y-84539738D01*
X114276666Y-84634976D01*
X114371904Y-84682595D01*
%TO.C,Q2*%
X80486619Y-92797761D02*
X80439000Y-92702523D01*
X80343761Y-92607285D01*
X80200904Y-92464428D01*
X80153285Y-92369190D01*
X80153285Y-92273952D01*
X80391380Y-92321571D02*
X80343761Y-92226333D01*
X80248523Y-92131095D01*
X80058047Y-92083476D01*
X79724714Y-92083476D01*
X79534238Y-92131095D01*
X79439000Y-92226333D01*
X79391380Y-92321571D01*
X79391380Y-92512047D01*
X79439000Y-92607285D01*
X79534238Y-92702523D01*
X79724714Y-92750142D01*
X80058047Y-92750142D01*
X80248523Y-92702523D01*
X80343761Y-92607285D01*
X80391380Y-92512047D01*
X80391380Y-92321571D01*
X79486619Y-93131095D02*
X79439000Y-93178714D01*
X79391380Y-93273952D01*
X79391380Y-93512047D01*
X79439000Y-93607285D01*
X79486619Y-93654904D01*
X79581857Y-93702523D01*
X79677095Y-93702523D01*
X79819952Y-93654904D01*
X80391380Y-93083476D01*
X80391380Y-93702523D01*
%TO.C,R7*%
X77183380Y-93742333D02*
X76707190Y-93409000D01*
X77183380Y-93170904D02*
X76183380Y-93170904D01*
X76183380Y-93551857D01*
X76231000Y-93647095D01*
X76278619Y-93694714D01*
X76373857Y-93742333D01*
X76516714Y-93742333D01*
X76611952Y-93694714D01*
X76659571Y-93647095D01*
X76707190Y-93551857D01*
X76707190Y-93170904D01*
X76183380Y-94075666D02*
X76183380Y-94742333D01*
X77183380Y-94313761D01*
%TO.C,R16*%
X112077857Y-97409380D02*
X112411190Y-96933190D01*
X112649285Y-97409380D02*
X112649285Y-96409380D01*
X112268333Y-96409380D01*
X112173095Y-96457000D01*
X112125476Y-96504619D01*
X112077857Y-96599857D01*
X112077857Y-96742714D01*
X112125476Y-96837952D01*
X112173095Y-96885571D01*
X112268333Y-96933190D01*
X112649285Y-96933190D01*
X111125476Y-97409380D02*
X111696904Y-97409380D01*
X111411190Y-97409380D02*
X111411190Y-96409380D01*
X111506428Y-96552238D01*
X111601666Y-96647476D01*
X111696904Y-96695095D01*
X110268333Y-96409380D02*
X110458809Y-96409380D01*
X110554047Y-96457000D01*
X110601666Y-96504619D01*
X110696904Y-96647476D01*
X110744523Y-96837952D01*
X110744523Y-97218904D01*
X110696904Y-97314142D01*
X110649285Y-97361761D01*
X110554047Y-97409380D01*
X110363571Y-97409380D01*
X110268333Y-97361761D01*
X110220714Y-97314142D01*
X110173095Y-97218904D01*
X110173095Y-96980809D01*
X110220714Y-96885571D01*
X110268333Y-96837952D01*
X110363571Y-96790333D01*
X110554047Y-96790333D01*
X110649285Y-96837952D01*
X110696904Y-96885571D01*
X110744523Y-96980809D01*
%TO.C,C2*%
X82963142Y-90440333D02*
X83010761Y-90392714D01*
X83058380Y-90249857D01*
X83058380Y-90154619D01*
X83010761Y-90011761D01*
X82915523Y-89916523D01*
X82820285Y-89868904D01*
X82629809Y-89821285D01*
X82486952Y-89821285D01*
X82296476Y-89868904D01*
X82201238Y-89916523D01*
X82106000Y-90011761D01*
X82058380Y-90154619D01*
X82058380Y-90249857D01*
X82106000Y-90392714D01*
X82153619Y-90440333D01*
X82153619Y-90821285D02*
X82106000Y-90868904D01*
X82058380Y-90964142D01*
X82058380Y-91202238D01*
X82106000Y-91297476D01*
X82153619Y-91345095D01*
X82248857Y-91392714D01*
X82344095Y-91392714D01*
X82486952Y-91345095D01*
X83058380Y-90773666D01*
X83058380Y-91392714D01*
%TO.C,R22*%
X88780857Y-109108380D02*
X89114190Y-108632190D01*
X89352285Y-109108380D02*
X89352285Y-108108380D01*
X88971333Y-108108380D01*
X88876095Y-108156000D01*
X88828476Y-108203619D01*
X88780857Y-108298857D01*
X88780857Y-108441714D01*
X88828476Y-108536952D01*
X88876095Y-108584571D01*
X88971333Y-108632190D01*
X89352285Y-108632190D01*
X88399904Y-108203619D02*
X88352285Y-108156000D01*
X88257047Y-108108380D01*
X88018952Y-108108380D01*
X87923714Y-108156000D01*
X87876095Y-108203619D01*
X87828476Y-108298857D01*
X87828476Y-108394095D01*
X87876095Y-108536952D01*
X88447523Y-109108380D01*
X87828476Y-109108380D01*
X87447523Y-108203619D02*
X87399904Y-108156000D01*
X87304666Y-108108380D01*
X87066571Y-108108380D01*
X86971333Y-108156000D01*
X86923714Y-108203619D01*
X86876095Y-108298857D01*
X86876095Y-108394095D01*
X86923714Y-108536952D01*
X87495142Y-109108380D01*
X86876095Y-109108380D01*
%TO.C,C3*%
X81185142Y-82566333D02*
X81232761Y-82518714D01*
X81280380Y-82375857D01*
X81280380Y-82280619D01*
X81232761Y-82137761D01*
X81137523Y-82042523D01*
X81042285Y-81994904D01*
X80851809Y-81947285D01*
X80708952Y-81947285D01*
X80518476Y-81994904D01*
X80423238Y-82042523D01*
X80328000Y-82137761D01*
X80280380Y-82280619D01*
X80280380Y-82375857D01*
X80328000Y-82518714D01*
X80375619Y-82566333D01*
X80280380Y-82899666D02*
X80280380Y-83518714D01*
X80661333Y-83185380D01*
X80661333Y-83328238D01*
X80708952Y-83423476D01*
X80756571Y-83471095D01*
X80851809Y-83518714D01*
X81089904Y-83518714D01*
X81185142Y-83471095D01*
X81232761Y-83423476D01*
X81280380Y-83328238D01*
X81280380Y-83042523D01*
X81232761Y-82947285D01*
X81185142Y-82899666D01*
%TO.C,C5*%
X71914142Y-89297333D02*
X71961761Y-89249714D01*
X72009380Y-89106857D01*
X72009380Y-89011619D01*
X71961761Y-88868761D01*
X71866523Y-88773523D01*
X71771285Y-88725904D01*
X71580809Y-88678285D01*
X71437952Y-88678285D01*
X71247476Y-88725904D01*
X71152238Y-88773523D01*
X71057000Y-88868761D01*
X71009380Y-89011619D01*
X71009380Y-89106857D01*
X71057000Y-89249714D01*
X71104619Y-89297333D01*
X71009380Y-90202095D02*
X71009380Y-89725904D01*
X71485571Y-89678285D01*
X71437952Y-89725904D01*
X71390333Y-89821142D01*
X71390333Y-90059238D01*
X71437952Y-90154476D01*
X71485571Y-90202095D01*
X71580809Y-90249714D01*
X71818904Y-90249714D01*
X71914142Y-90202095D01*
X71961761Y-90154476D01*
X72009380Y-90059238D01*
X72009380Y-89821142D01*
X71961761Y-89725904D01*
X71914142Y-89678285D01*
%TO.C,R12*%
X104648380Y-88971642D02*
X104172190Y-88638309D01*
X104648380Y-88400214D02*
X103648380Y-88400214D01*
X103648380Y-88781166D01*
X103696000Y-88876404D01*
X103743619Y-88924023D01*
X103838857Y-88971642D01*
X103981714Y-88971642D01*
X104076952Y-88924023D01*
X104124571Y-88876404D01*
X104172190Y-88781166D01*
X104172190Y-88400214D01*
X104648380Y-89924023D02*
X104648380Y-89352595D01*
X104648380Y-89638309D02*
X103648380Y-89638309D01*
X103791238Y-89543071D01*
X103886476Y-89447833D01*
X103934095Y-89352595D01*
X103743619Y-90304976D02*
X103696000Y-90352595D01*
X103648380Y-90447833D01*
X103648380Y-90685928D01*
X103696000Y-90781166D01*
X103743619Y-90828785D01*
X103838857Y-90876404D01*
X103934095Y-90876404D01*
X104076952Y-90828785D01*
X104648380Y-90257357D01*
X104648380Y-90876404D01*
%TO.C,C1*%
X84106142Y-81113333D02*
X84153761Y-81065714D01*
X84201380Y-80922857D01*
X84201380Y-80827619D01*
X84153761Y-80684761D01*
X84058523Y-80589523D01*
X83963285Y-80541904D01*
X83772809Y-80494285D01*
X83629952Y-80494285D01*
X83439476Y-80541904D01*
X83344238Y-80589523D01*
X83249000Y-80684761D01*
X83201380Y-80827619D01*
X83201380Y-80922857D01*
X83249000Y-81065714D01*
X83296619Y-81113333D01*
X84201380Y-82065714D02*
X84201380Y-81494285D01*
X84201380Y-81780000D02*
X83201380Y-81780000D01*
X83344238Y-81684761D01*
X83439476Y-81589523D01*
X83487095Y-81494285D01*
%TO.C,R20*%
X111894857Y-109164380D02*
X112228190Y-108688190D01*
X112466285Y-109164380D02*
X112466285Y-108164380D01*
X112085333Y-108164380D01*
X111990095Y-108212000D01*
X111942476Y-108259619D01*
X111894857Y-108354857D01*
X111894857Y-108497714D01*
X111942476Y-108592952D01*
X111990095Y-108640571D01*
X112085333Y-108688190D01*
X112466285Y-108688190D01*
X111513904Y-108259619D02*
X111466285Y-108212000D01*
X111371047Y-108164380D01*
X111132952Y-108164380D01*
X111037714Y-108212000D01*
X110990095Y-108259619D01*
X110942476Y-108354857D01*
X110942476Y-108450095D01*
X110990095Y-108592952D01*
X111561523Y-109164380D01*
X110942476Y-109164380D01*
X110323428Y-108164380D02*
X110228190Y-108164380D01*
X110132952Y-108212000D01*
X110085333Y-108259619D01*
X110037714Y-108354857D01*
X109990095Y-108545333D01*
X109990095Y-108783428D01*
X110037714Y-108973904D01*
X110085333Y-109069142D01*
X110132952Y-109116761D01*
X110228190Y-109164380D01*
X110323428Y-109164380D01*
X110418666Y-109116761D01*
X110466285Y-109069142D01*
X110513904Y-108973904D01*
X110561523Y-108783428D01*
X110561523Y-108545333D01*
X110513904Y-108354857D01*
X110466285Y-108259619D01*
X110418666Y-108212000D01*
X110323428Y-108164380D01*
%TO.C,C11*%
X107830857Y-109069142D02*
X107878476Y-109116761D01*
X108021333Y-109164380D01*
X108116571Y-109164380D01*
X108259428Y-109116761D01*
X108354666Y-109021523D01*
X108402285Y-108926285D01*
X108449904Y-108735809D01*
X108449904Y-108592952D01*
X108402285Y-108402476D01*
X108354666Y-108307238D01*
X108259428Y-108212000D01*
X108116571Y-108164380D01*
X108021333Y-108164380D01*
X107878476Y-108212000D01*
X107830857Y-108259619D01*
X106878476Y-109164380D02*
X107449904Y-109164380D01*
X107164190Y-109164380D02*
X107164190Y-108164380D01*
X107259428Y-108307238D01*
X107354666Y-108402476D01*
X107449904Y-108450095D01*
X105926095Y-109164380D02*
X106497523Y-109164380D01*
X106211809Y-109164380D02*
X106211809Y-108164380D01*
X106307047Y-108307238D01*
X106402285Y-108402476D01*
X106497523Y-108450095D01*
%TO.C,R17*%
X90431857Y-98153380D02*
X90765190Y-97677190D01*
X91003285Y-98153380D02*
X91003285Y-97153380D01*
X90622333Y-97153380D01*
X90527095Y-97201000D01*
X90479476Y-97248619D01*
X90431857Y-97343857D01*
X90431857Y-97486714D01*
X90479476Y-97581952D01*
X90527095Y-97629571D01*
X90622333Y-97677190D01*
X91003285Y-97677190D01*
X89479476Y-98153380D02*
X90050904Y-98153380D01*
X89765190Y-98153380D02*
X89765190Y-97153380D01*
X89860428Y-97296238D01*
X89955666Y-97391476D01*
X90050904Y-97439095D01*
X89146142Y-97153380D02*
X88479476Y-97153380D01*
X88908047Y-98153380D01*
%TO.C,C7*%
X117727142Y-93511833D02*
X117774761Y-93464214D01*
X117822380Y-93321357D01*
X117822380Y-93226119D01*
X117774761Y-93083261D01*
X117679523Y-92988023D01*
X117584285Y-92940404D01*
X117393809Y-92892785D01*
X117250952Y-92892785D01*
X117060476Y-92940404D01*
X116965238Y-92988023D01*
X116870000Y-93083261D01*
X116822380Y-93226119D01*
X116822380Y-93321357D01*
X116870000Y-93464214D01*
X116917619Y-93511833D01*
X116822380Y-93845166D02*
X116822380Y-94511833D01*
X117822380Y-94083261D01*
%TO.C,R11*%
X107790380Y-88971642D02*
X107314190Y-88638309D01*
X107790380Y-88400214D02*
X106790380Y-88400214D01*
X106790380Y-88781166D01*
X106838000Y-88876404D01*
X106885619Y-88924023D01*
X106980857Y-88971642D01*
X107123714Y-88971642D01*
X107218952Y-88924023D01*
X107266571Y-88876404D01*
X107314190Y-88781166D01*
X107314190Y-88400214D01*
X107790380Y-89924023D02*
X107790380Y-89352595D01*
X107790380Y-89638309D02*
X106790380Y-89638309D01*
X106933238Y-89543071D01*
X107028476Y-89447833D01*
X107076095Y-89352595D01*
X107790380Y-90876404D02*
X107790380Y-90304976D01*
X107790380Y-90590690D02*
X106790380Y-90590690D01*
X106933238Y-90495452D01*
X107028476Y-90400214D01*
X107076095Y-90304976D01*
%TO.C,U3*%
X81523380Y-103378095D02*
X82332904Y-103378095D01*
X82428142Y-103425714D01*
X82475761Y-103473333D01*
X82523380Y-103568571D01*
X82523380Y-103759047D01*
X82475761Y-103854285D01*
X82428142Y-103901904D01*
X82332904Y-103949523D01*
X81523380Y-103949523D01*
X81523380Y-104330476D02*
X81523380Y-104949523D01*
X81904333Y-104616190D01*
X81904333Y-104759047D01*
X81951952Y-104854285D01*
X81999571Y-104901904D01*
X82094809Y-104949523D01*
X82332904Y-104949523D01*
X82428142Y-104901904D01*
X82475761Y-104854285D01*
X82523380Y-104759047D01*
X82523380Y-104473333D01*
X82475761Y-104378095D01*
X82428142Y-104330476D01*
%TO.C,R2*%
X90551380Y-83074333D02*
X90075190Y-82741000D01*
X90551380Y-82502904D02*
X89551380Y-82502904D01*
X89551380Y-82883857D01*
X89599000Y-82979095D01*
X89646619Y-83026714D01*
X89741857Y-83074333D01*
X89884714Y-83074333D01*
X89979952Y-83026714D01*
X90027571Y-82979095D01*
X90075190Y-82883857D01*
X90075190Y-82502904D01*
X89646619Y-83455285D02*
X89599000Y-83502904D01*
X89551380Y-83598142D01*
X89551380Y-83836238D01*
X89599000Y-83931476D01*
X89646619Y-83979095D01*
X89741857Y-84026714D01*
X89837095Y-84026714D01*
X89979952Y-83979095D01*
X90551380Y-83407666D01*
X90551380Y-84026714D01*
%TO.C,R19*%
X85605857Y-98115380D02*
X85939190Y-97639190D01*
X86177285Y-98115380D02*
X86177285Y-97115380D01*
X85796333Y-97115380D01*
X85701095Y-97163000D01*
X85653476Y-97210619D01*
X85605857Y-97305857D01*
X85605857Y-97448714D01*
X85653476Y-97543952D01*
X85701095Y-97591571D01*
X85796333Y-97639190D01*
X86177285Y-97639190D01*
X84653476Y-98115380D02*
X85224904Y-98115380D01*
X84939190Y-98115380D02*
X84939190Y-97115380D01*
X85034428Y-97258238D01*
X85129666Y-97353476D01*
X85224904Y-97401095D01*
X84177285Y-98115380D02*
X83986809Y-98115380D01*
X83891571Y-98067761D01*
X83843952Y-98020142D01*
X83748714Y-97877285D01*
X83701095Y-97686809D01*
X83701095Y-97305857D01*
X83748714Y-97210619D01*
X83796333Y-97163000D01*
X83891571Y-97115380D01*
X84082047Y-97115380D01*
X84177285Y-97163000D01*
X84224904Y-97210619D01*
X84272523Y-97305857D01*
X84272523Y-97543952D01*
X84224904Y-97639190D01*
X84177285Y-97686809D01*
X84082047Y-97734428D01*
X83891571Y-97734428D01*
X83796333Y-97686809D01*
X83748714Y-97639190D01*
X83701095Y-97543952D01*
%TO.C,R4*%
X81280380Y-78502333D02*
X80804190Y-78169000D01*
X81280380Y-77930904D02*
X80280380Y-77930904D01*
X80280380Y-78311857D01*
X80328000Y-78407095D01*
X80375619Y-78454714D01*
X80470857Y-78502333D01*
X80613714Y-78502333D01*
X80708952Y-78454714D01*
X80756571Y-78407095D01*
X80804190Y-78311857D01*
X80804190Y-77930904D01*
X80613714Y-79359476D02*
X81280380Y-79359476D01*
X80232761Y-79121380D02*
X80947047Y-78883285D01*
X80947047Y-79502333D01*
%TO.C,C12*%
X85097857Y-109013142D02*
X85145476Y-109060761D01*
X85288333Y-109108380D01*
X85383571Y-109108380D01*
X85526428Y-109060761D01*
X85621666Y-108965523D01*
X85669285Y-108870285D01*
X85716904Y-108679809D01*
X85716904Y-108536952D01*
X85669285Y-108346476D01*
X85621666Y-108251238D01*
X85526428Y-108156000D01*
X85383571Y-108108380D01*
X85288333Y-108108380D01*
X85145476Y-108156000D01*
X85097857Y-108203619D01*
X84145476Y-109108380D02*
X84716904Y-109108380D01*
X84431190Y-109108380D02*
X84431190Y-108108380D01*
X84526428Y-108251238D01*
X84621666Y-108346476D01*
X84716904Y-108394095D01*
X83764523Y-108203619D02*
X83716904Y-108156000D01*
X83621666Y-108108380D01*
X83383571Y-108108380D01*
X83288333Y-108156000D01*
X83240714Y-108203619D01*
X83193095Y-108298857D01*
X83193095Y-108394095D01*
X83240714Y-108536952D01*
X83812142Y-109108380D01*
X83193095Y-109108380D01*
%TO.C,C8*%
X104743666Y-92742142D02*
X104791285Y-92789761D01*
X104934142Y-92837380D01*
X105029380Y-92837380D01*
X105172238Y-92789761D01*
X105267476Y-92694523D01*
X105315095Y-92599285D01*
X105362714Y-92408809D01*
X105362714Y-92265952D01*
X105315095Y-92075476D01*
X105267476Y-91980238D01*
X105172238Y-91885000D01*
X105029380Y-91837380D01*
X104934142Y-91837380D01*
X104791285Y-91885000D01*
X104743666Y-91932619D01*
X104172238Y-92265952D02*
X104267476Y-92218333D01*
X104315095Y-92170714D01*
X104362714Y-92075476D01*
X104362714Y-92027857D01*
X104315095Y-91932619D01*
X104267476Y-91885000D01*
X104172238Y-91837380D01*
X103981761Y-91837380D01*
X103886523Y-91885000D01*
X103838904Y-91932619D01*
X103791285Y-92027857D01*
X103791285Y-92075476D01*
X103838904Y-92170714D01*
X103886523Y-92218333D01*
X103981761Y-92265952D01*
X104172238Y-92265952D01*
X104267476Y-92313571D01*
X104315095Y-92361190D01*
X104362714Y-92456428D01*
X104362714Y-92646904D01*
X104315095Y-92742142D01*
X104267476Y-92789761D01*
X104172238Y-92837380D01*
X103981761Y-92837380D01*
X103886523Y-92789761D01*
X103838904Y-92742142D01*
X103791285Y-92646904D01*
X103791285Y-92456428D01*
X103838904Y-92361190D01*
X103886523Y-92313571D01*
X103981761Y-92265952D01*
%TO.C,C10*%
X103949857Y-77629142D02*
X103997476Y-77676761D01*
X104140333Y-77724380D01*
X104235571Y-77724380D01*
X104378428Y-77676761D01*
X104473666Y-77581523D01*
X104521285Y-77486285D01*
X104568904Y-77295809D01*
X104568904Y-77152952D01*
X104521285Y-76962476D01*
X104473666Y-76867238D01*
X104378428Y-76772000D01*
X104235571Y-76724380D01*
X104140333Y-76724380D01*
X103997476Y-76772000D01*
X103949857Y-76819619D01*
X102997476Y-77724380D02*
X103568904Y-77724380D01*
X103283190Y-77724380D02*
X103283190Y-76724380D01*
X103378428Y-76867238D01*
X103473666Y-76962476D01*
X103568904Y-77010095D01*
X102378428Y-76724380D02*
X102283190Y-76724380D01*
X102187952Y-76772000D01*
X102140333Y-76819619D01*
X102092714Y-76914857D01*
X102045095Y-77105333D01*
X102045095Y-77343428D01*
X102092714Y-77533904D01*
X102140333Y-77629142D01*
X102187952Y-77676761D01*
X102283190Y-77724380D01*
X102378428Y-77724380D01*
X102473666Y-77676761D01*
X102521285Y-77629142D01*
X102568904Y-77533904D01*
X102616523Y-77343428D01*
X102616523Y-77105333D01*
X102568904Y-76914857D01*
X102521285Y-76819619D01*
X102473666Y-76772000D01*
X102378428Y-76724380D01*
%TO.C,C4*%
X80169142Y-89278066D02*
X80216761Y-89230447D01*
X80264380Y-89087590D01*
X80264380Y-88992352D01*
X80216761Y-88849494D01*
X80121523Y-88754256D01*
X80026285Y-88706637D01*
X79835809Y-88659018D01*
X79692952Y-88659018D01*
X79502476Y-88706637D01*
X79407238Y-88754256D01*
X79312000Y-88849494D01*
X79264380Y-88992352D01*
X79264380Y-89087590D01*
X79312000Y-89230447D01*
X79359619Y-89278066D01*
X79597714Y-90135209D02*
X80264380Y-90135209D01*
X79216761Y-89897113D02*
X79931047Y-89659018D01*
X79931047Y-90278066D01*
%TO.C,R8*%
X77216380Y-89678333D02*
X76740190Y-89345000D01*
X77216380Y-89106904D02*
X76216380Y-89106904D01*
X76216380Y-89487857D01*
X76264000Y-89583095D01*
X76311619Y-89630714D01*
X76406857Y-89678333D01*
X76549714Y-89678333D01*
X76644952Y-89630714D01*
X76692571Y-89583095D01*
X76740190Y-89487857D01*
X76740190Y-89106904D01*
X76644952Y-90249761D02*
X76597333Y-90154523D01*
X76549714Y-90106904D01*
X76454476Y-90059285D01*
X76406857Y-90059285D01*
X76311619Y-90106904D01*
X76264000Y-90154523D01*
X76216380Y-90249761D01*
X76216380Y-90440238D01*
X76264000Y-90535476D01*
X76311619Y-90583095D01*
X76406857Y-90630714D01*
X76454476Y-90630714D01*
X76549714Y-90583095D01*
X76597333Y-90535476D01*
X76644952Y-90440238D01*
X76644952Y-90249761D01*
X76692571Y-90154523D01*
X76740190Y-90106904D01*
X76835428Y-90059285D01*
X77025904Y-90059285D01*
X77121142Y-90106904D01*
X77168761Y-90154523D01*
X77216380Y-90249761D01*
X77216380Y-90440238D01*
X77168761Y-90535476D01*
X77121142Y-90583095D01*
X77025904Y-90630714D01*
X76835428Y-90630714D01*
X76740190Y-90583095D01*
X76692571Y-90535476D01*
X76644952Y-90440238D01*
%TO.C,R1*%
X98012666Y-79215380D02*
X98346000Y-78739190D01*
X98584095Y-79215380D02*
X98584095Y-78215380D01*
X98203142Y-78215380D01*
X98107904Y-78263000D01*
X98060285Y-78310619D01*
X98012666Y-78405857D01*
X98012666Y-78548714D01*
X98060285Y-78643952D01*
X98107904Y-78691571D01*
X98203142Y-78739190D01*
X98584095Y-78739190D01*
X97060285Y-79215380D02*
X97631714Y-79215380D01*
X97346000Y-79215380D02*
X97346000Y-78215380D01*
X97441238Y-78358238D01*
X97536476Y-78453476D01*
X97631714Y-78501095D01*
%TO.C,R21*%
X112085380Y-105656142D02*
X111609190Y-105322809D01*
X112085380Y-105084714D02*
X111085380Y-105084714D01*
X111085380Y-105465666D01*
X111133000Y-105560904D01*
X111180619Y-105608523D01*
X111275857Y-105656142D01*
X111418714Y-105656142D01*
X111513952Y-105608523D01*
X111561571Y-105560904D01*
X111609190Y-105465666D01*
X111609190Y-105084714D01*
X111180619Y-106037095D02*
X111133000Y-106084714D01*
X111085380Y-106179952D01*
X111085380Y-106418047D01*
X111133000Y-106513285D01*
X111180619Y-106560904D01*
X111275857Y-106608523D01*
X111371095Y-106608523D01*
X111513952Y-106560904D01*
X112085380Y-105989476D01*
X112085380Y-106608523D01*
X112085380Y-107560904D02*
X112085380Y-106989476D01*
X112085380Y-107275190D02*
X111085380Y-107275190D01*
X111228238Y-107179952D01*
X111323476Y-107084714D01*
X111371095Y-106989476D01*
%TO.C,R23*%
X89352380Y-105590142D02*
X88876190Y-105256809D01*
X89352380Y-105018714D02*
X88352380Y-105018714D01*
X88352380Y-105399666D01*
X88400000Y-105494904D01*
X88447619Y-105542523D01*
X88542857Y-105590142D01*
X88685714Y-105590142D01*
X88780952Y-105542523D01*
X88828571Y-105494904D01*
X88876190Y-105399666D01*
X88876190Y-105018714D01*
X88447619Y-105971095D02*
X88400000Y-106018714D01*
X88352380Y-106113952D01*
X88352380Y-106352047D01*
X88400000Y-106447285D01*
X88447619Y-106494904D01*
X88542857Y-106542523D01*
X88638095Y-106542523D01*
X88780952Y-106494904D01*
X89352380Y-105923476D01*
X89352380Y-106542523D01*
X88352380Y-106875857D02*
X88352380Y-107494904D01*
X88733333Y-107161571D01*
X88733333Y-107304428D01*
X88780952Y-107399666D01*
X88828571Y-107447285D01*
X88923809Y-107494904D01*
X89161904Y-107494904D01*
X89257142Y-107447285D01*
X89304761Y-107399666D01*
X89352380Y-107304428D01*
X89352380Y-107018714D01*
X89304761Y-106923476D01*
X89257142Y-106875857D01*
%TO.C,R5*%
X89281380Y-94206333D02*
X88805190Y-93873000D01*
X89281380Y-93634904D02*
X88281380Y-93634904D01*
X88281380Y-94015857D01*
X88329000Y-94111095D01*
X88376619Y-94158714D01*
X88471857Y-94206333D01*
X88614714Y-94206333D01*
X88709952Y-94158714D01*
X88757571Y-94111095D01*
X88805190Y-94015857D01*
X88805190Y-93634904D01*
X88281380Y-95111095D02*
X88281380Y-94634904D01*
X88757571Y-94587285D01*
X88709952Y-94634904D01*
X88662333Y-94730142D01*
X88662333Y-94968238D01*
X88709952Y-95063476D01*
X88757571Y-95111095D01*
X88852809Y-95158714D01*
X89090904Y-95158714D01*
X89186142Y-95111095D01*
X89233761Y-95063476D01*
X89281380Y-94968238D01*
X89281380Y-94730142D01*
X89233761Y-94634904D01*
X89186142Y-94587285D01*
%TO.C,R13*%
X111854380Y-93139142D02*
X111378190Y-92805809D01*
X111854380Y-92567714D02*
X110854380Y-92567714D01*
X110854380Y-92948666D01*
X110902000Y-93043904D01*
X110949619Y-93091523D01*
X111044857Y-93139142D01*
X111187714Y-93139142D01*
X111282952Y-93091523D01*
X111330571Y-93043904D01*
X111378190Y-92948666D01*
X111378190Y-92567714D01*
X111854380Y-94091523D02*
X111854380Y-93520095D01*
X111854380Y-93805809D02*
X110854380Y-93805809D01*
X110997238Y-93710571D01*
X111092476Y-93615333D01*
X111140095Y-93520095D01*
X110854380Y-94424857D02*
X110854380Y-95043904D01*
X111235333Y-94710571D01*
X111235333Y-94853428D01*
X111282952Y-94948666D01*
X111330571Y-94996285D01*
X111425809Y-95043904D01*
X111663904Y-95043904D01*
X111759142Y-94996285D01*
X111806761Y-94948666D01*
X111854380Y-94853428D01*
X111854380Y-94567714D01*
X111806761Y-94472476D01*
X111759142Y-94424857D01*
%TO.C,R10*%
X114808380Y-93035642D02*
X114332190Y-92702309D01*
X114808380Y-92464214D02*
X113808380Y-92464214D01*
X113808380Y-92845166D01*
X113856000Y-92940404D01*
X113903619Y-92988023D01*
X113998857Y-93035642D01*
X114141714Y-93035642D01*
X114236952Y-92988023D01*
X114284571Y-92940404D01*
X114332190Y-92845166D01*
X114332190Y-92464214D01*
X114808380Y-93988023D02*
X114808380Y-93416595D01*
X114808380Y-93702309D02*
X113808380Y-93702309D01*
X113951238Y-93607071D01*
X114046476Y-93511833D01*
X114094095Y-93416595D01*
X113808380Y-94607071D02*
X113808380Y-94702309D01*
X113856000Y-94797547D01*
X113903619Y-94845166D01*
X113998857Y-94892785D01*
X114189333Y-94940404D01*
X114427428Y-94940404D01*
X114617904Y-94892785D01*
X114713142Y-94845166D01*
X114760761Y-94797547D01*
X114808380Y-94702309D01*
X114808380Y-94607071D01*
X114760761Y-94511833D01*
X114713142Y-94464214D01*
X114617904Y-94416595D01*
X114427428Y-94368976D01*
X114189333Y-94368976D01*
X113998857Y-94416595D01*
X113903619Y-94464214D01*
X113856000Y-94511833D01*
X113808380Y-94607071D01*
%TO.C,R18*%
X104655857Y-98750380D02*
X104989190Y-98274190D01*
X105227285Y-98750380D02*
X105227285Y-97750380D01*
X104846333Y-97750380D01*
X104751095Y-97798000D01*
X104703476Y-97845619D01*
X104655857Y-97940857D01*
X104655857Y-98083714D01*
X104703476Y-98178952D01*
X104751095Y-98226571D01*
X104846333Y-98274190D01*
X105227285Y-98274190D01*
X103703476Y-98750380D02*
X104274904Y-98750380D01*
X103989190Y-98750380D02*
X103989190Y-97750380D01*
X104084428Y-97893238D01*
X104179666Y-97988476D01*
X104274904Y-98036095D01*
X103132047Y-98178952D02*
X103227285Y-98131333D01*
X103274904Y-98083714D01*
X103322523Y-97988476D01*
X103322523Y-97940857D01*
X103274904Y-97845619D01*
X103227285Y-97798000D01*
X103132047Y-97750380D01*
X102941571Y-97750380D01*
X102846333Y-97798000D01*
X102798714Y-97845619D01*
X102751095Y-97940857D01*
X102751095Y-97988476D01*
X102798714Y-98083714D01*
X102846333Y-98131333D01*
X102941571Y-98178952D01*
X103132047Y-98178952D01*
X103227285Y-98226571D01*
X103274904Y-98274190D01*
X103322523Y-98369428D01*
X103322523Y-98559904D01*
X103274904Y-98655142D01*
X103227285Y-98702761D01*
X103132047Y-98750380D01*
X102941571Y-98750380D01*
X102846333Y-98702761D01*
X102798714Y-98655142D01*
X102751095Y-98559904D01*
X102751095Y-98369428D01*
X102798714Y-98274190D01*
X102846333Y-98226571D01*
X102941571Y-98178952D01*
%TO.C,C6*%
X71977666Y-83852142D02*
X72025285Y-83899761D01*
X72168142Y-83947380D01*
X72263380Y-83947380D01*
X72406238Y-83899761D01*
X72501476Y-83804523D01*
X72549095Y-83709285D01*
X72596714Y-83518809D01*
X72596714Y-83375952D01*
X72549095Y-83185476D01*
X72501476Y-83090238D01*
X72406238Y-82995000D01*
X72263380Y-82947380D01*
X72168142Y-82947380D01*
X72025285Y-82995000D01*
X71977666Y-83042619D01*
X71120523Y-82947380D02*
X71311000Y-82947380D01*
X71406238Y-82995000D01*
X71453857Y-83042619D01*
X71549095Y-83185476D01*
X71596714Y-83375952D01*
X71596714Y-83756904D01*
X71549095Y-83852142D01*
X71501476Y-83899761D01*
X71406238Y-83947380D01*
X71215761Y-83947380D01*
X71120523Y-83899761D01*
X71072904Y-83852142D01*
X71025285Y-83756904D01*
X71025285Y-83518809D01*
X71072904Y-83423571D01*
X71120523Y-83375952D01*
X71215761Y-83328333D01*
X71406238Y-83328333D01*
X71501476Y-83375952D01*
X71549095Y-83423571D01*
X71596714Y-83518809D01*
%TO.C,R14*%
X104775380Y-84907642D02*
X104299190Y-84574309D01*
X104775380Y-84336214D02*
X103775380Y-84336214D01*
X103775380Y-84717166D01*
X103823000Y-84812404D01*
X103870619Y-84860023D01*
X103965857Y-84907642D01*
X104108714Y-84907642D01*
X104203952Y-84860023D01*
X104251571Y-84812404D01*
X104299190Y-84717166D01*
X104299190Y-84336214D01*
X104775380Y-85860023D02*
X104775380Y-85288595D01*
X104775380Y-85574309D02*
X103775380Y-85574309D01*
X103918238Y-85479071D01*
X104013476Y-85383833D01*
X104061095Y-85288595D01*
X104108714Y-86717166D02*
X104775380Y-86717166D01*
X103727761Y-86479071D02*
X104442047Y-86240976D01*
X104442047Y-86860023D01*
%TO.C,C13*%
X107601142Y-84907642D02*
X107648761Y-84860023D01*
X107696380Y-84717166D01*
X107696380Y-84621928D01*
X107648761Y-84479071D01*
X107553523Y-84383833D01*
X107458285Y-84336214D01*
X107267809Y-84288595D01*
X107124952Y-84288595D01*
X106934476Y-84336214D01*
X106839238Y-84383833D01*
X106744000Y-84479071D01*
X106696380Y-84621928D01*
X106696380Y-84717166D01*
X106744000Y-84860023D01*
X106791619Y-84907642D01*
X107696380Y-85860023D02*
X107696380Y-85288595D01*
X107696380Y-85574309D02*
X106696380Y-85574309D01*
X106839238Y-85479071D01*
X106934476Y-85383833D01*
X106982095Y-85288595D01*
X106696380Y-86193357D02*
X106696380Y-86812404D01*
X107077333Y-86479071D01*
X107077333Y-86621928D01*
X107124952Y-86717166D01*
X107172571Y-86764785D01*
X107267809Y-86812404D01*
X107505904Y-86812404D01*
X107601142Y-86764785D01*
X107648761Y-86717166D01*
X107696380Y-86621928D01*
X107696380Y-86336214D01*
X107648761Y-86240976D01*
X107601142Y-86193357D01*
%TO.C,U2*%
X104312380Y-103434095D02*
X105121904Y-103434095D01*
X105217142Y-103481714D01*
X105264761Y-103529333D01*
X105312380Y-103624571D01*
X105312380Y-103815047D01*
X105264761Y-103910285D01*
X105217142Y-103957904D01*
X105121904Y-104005523D01*
X104312380Y-104005523D01*
X104407619Y-104434095D02*
X104360000Y-104481714D01*
X104312380Y-104576952D01*
X104312380Y-104815047D01*
X104360000Y-104910285D01*
X104407619Y-104957904D01*
X104502857Y-105005523D01*
X104598095Y-105005523D01*
X104740952Y-104957904D01*
X105312380Y-104386476D01*
X105312380Y-105005523D01*
%TO.C,C9*%
X115284666Y-78795642D02*
X115332285Y-78843261D01*
X115475142Y-78890880D01*
X115570380Y-78890880D01*
X115713238Y-78843261D01*
X115808476Y-78748023D01*
X115856095Y-78652785D01*
X115903714Y-78462309D01*
X115903714Y-78319452D01*
X115856095Y-78128976D01*
X115808476Y-78033738D01*
X115713238Y-77938500D01*
X115570380Y-77890880D01*
X115475142Y-77890880D01*
X115332285Y-77938500D01*
X115284666Y-77986119D01*
X114808476Y-78890880D02*
X114618000Y-78890880D01*
X114522761Y-78843261D01*
X114475142Y-78795642D01*
X114379904Y-78652785D01*
X114332285Y-78462309D01*
X114332285Y-78081357D01*
X114379904Y-77986119D01*
X114427523Y-77938500D01*
X114522761Y-77890880D01*
X114713238Y-77890880D01*
X114808476Y-77938500D01*
X114856095Y-77986119D01*
X114903714Y-78081357D01*
X114903714Y-78319452D01*
X114856095Y-78414690D01*
X114808476Y-78462309D01*
X114713238Y-78509928D01*
X114522761Y-78509928D01*
X114427523Y-78462309D01*
X114379904Y-78414690D01*
X114332285Y-78319452D01*
D11*
%TO.C,SW2*%
X72714000Y-98450000D02*
X72714000Y-111150000D01*
D12*
X75635000Y-104800000D02*
X74365000Y-104800000D01*
D11*
X76651000Y-97815000D02*
X73349000Y-97815000D01*
D12*
X75000000Y-105435000D02*
X75000000Y-104165000D01*
D11*
X77286000Y-111150000D02*
X77286000Y-98450000D01*
X73349000Y-111785000D02*
X76651000Y-111785000D01*
X72714000Y-111150000D02*
X73349000Y-111150000D01*
X73349000Y-98450000D02*
X72714000Y-98450000D01*
X76651000Y-111150000D02*
X77286000Y-111150000D01*
X73349000Y-97815000D02*
X73349000Y-98450000D01*
X76651000Y-111785000D02*
X76651000Y-111150000D01*
X73349000Y-111150000D02*
X73349000Y-111785000D01*
X77286000Y-98450000D02*
X76651000Y-98450000D01*
X76651000Y-98450000D02*
X76651000Y-97815000D01*
D12*
X75635000Y-104800000D02*
G75*
G03*
X75635000Y-104800000I-635000J0D01*
G01*
D11*
%TO.C,SW1*%
X115936000Y-98196000D02*
X115936000Y-97688000D01*
X124064000Y-111404000D02*
X124064000Y-111912000D01*
D12*
X120000000Y-104165000D02*
X120000000Y-105435000D01*
D11*
X124064000Y-111912000D02*
X115936000Y-111912000D01*
X115936000Y-97688000D02*
X124064000Y-97688000D01*
D12*
X119365000Y-104800000D02*
X120635000Y-104800000D01*
D11*
X115936000Y-111404000D02*
X115428000Y-111404000D01*
X124572000Y-111404000D02*
X124064000Y-111404000D01*
X124064000Y-97688000D02*
X124064000Y-98196000D01*
X115428000Y-111404000D02*
X115428000Y-98196000D01*
X115936000Y-111912000D02*
X115936000Y-111404000D01*
X124572000Y-98196000D02*
X124572000Y-111404000D01*
X124064000Y-98196000D02*
X124572000Y-98196000D01*
X115428000Y-98196000D02*
X115936000Y-98196000D01*
D12*
X120635000Y-104800000D02*
G75*
G03*
X120635000Y-104800000I-635000J0D01*
G01*
D13*
%TO.C,Q1*%
X79868000Y-79687000D02*
X78938000Y-79687000D01*
X79868000Y-79687000D02*
X79868000Y-82847000D01*
X76708000Y-79687000D02*
X77638000Y-79687000D01*
X76708000Y-79687000D02*
X76708000Y-81147000D01*
%TO.C,R15*%
X96830724Y-99609500D02*
X96321276Y-99609500D01*
X96830724Y-100654500D02*
X96321276Y-100654500D01*
%TO.C,R6*%
X74873500Y-81717724D02*
X74873500Y-81208276D01*
X73828500Y-81717724D02*
X73828500Y-81208276D01*
%TO.C,U1*%
X114610000Y-85784500D02*
X112660000Y-85784500D01*
X114610000Y-90904500D02*
X116560000Y-90904500D01*
X114610000Y-85784500D02*
X118060000Y-85784500D01*
X114610000Y-90904500D02*
X112660000Y-90904500D01*
%TO.C,Q2*%
X82789000Y-94165000D02*
X82789000Y-97325000D01*
X79629000Y-94165000D02*
X79629000Y-95625000D01*
X82789000Y-94165000D02*
X81859000Y-94165000D01*
X79629000Y-94165000D02*
X80559000Y-94165000D01*
%TO.C,R7*%
X77638500Y-93654276D02*
X77638500Y-94163724D01*
X78683500Y-93654276D02*
X78683500Y-94163724D01*
%TO.C,R16*%
X111689724Y-97831500D02*
X111180276Y-97831500D01*
X111689724Y-98876500D02*
X111180276Y-98876500D01*
%TO.C,C2*%
X86849563Y-94010000D02*
X87914000Y-92945563D01*
X84458437Y-94010000D02*
X83394000Y-92945563D01*
X87214000Y-94750000D02*
X87214000Y-94250000D01*
X83394000Y-89490000D02*
X84594000Y-89490000D01*
X84458437Y-94010000D02*
X84594000Y-94010000D01*
X86849563Y-94010000D02*
X86714000Y-94010000D01*
X83394000Y-92945563D02*
X83394000Y-89490000D01*
X87914000Y-89490000D02*
X86714000Y-89490000D01*
X87914000Y-92945563D02*
X87914000Y-89490000D01*
X87464000Y-94500000D02*
X86964000Y-94500000D01*
%TO.C,R22*%
X87883276Y-109530500D02*
X88392724Y-109530500D01*
X87883276Y-110575500D02*
X88392724Y-110575500D01*
%TO.C,C3*%
X81715000Y-82586733D02*
X81715000Y-82879267D01*
X82735000Y-82586733D02*
X82735000Y-82879267D01*
%TO.C,C5*%
X72393437Y-95280000D02*
X72529000Y-95280000D01*
X74784563Y-95280000D02*
X74649000Y-95280000D01*
X72393437Y-95280000D02*
X71329000Y-94215563D01*
X75149000Y-96020000D02*
X75149000Y-95520000D01*
X75849000Y-90760000D02*
X74649000Y-90760000D01*
X75399000Y-95770000D02*
X74899000Y-95770000D01*
X71329000Y-94215563D02*
X71329000Y-90760000D01*
X75849000Y-94215563D02*
X75849000Y-90760000D01*
X74784563Y-95280000D02*
X75849000Y-94215563D01*
X71329000Y-90760000D02*
X72529000Y-90760000D01*
%TO.C,R12*%
X105197500Y-89869224D02*
X105197500Y-89359776D01*
X106242500Y-89869224D02*
X106242500Y-89359776D01*
%TO.C,C1*%
X84664000Y-84937000D02*
X85864000Y-84937000D01*
X84664000Y-81481437D02*
X84664000Y-84937000D01*
X89184000Y-84937000D02*
X87984000Y-84937000D01*
X85364000Y-79677000D02*
X85364000Y-80177000D01*
X85728437Y-80417000D02*
X85864000Y-80417000D01*
X88119563Y-80417000D02*
X89184000Y-81481437D01*
X85114000Y-79927000D02*
X85614000Y-79927000D01*
X89184000Y-81481437D02*
X89184000Y-84937000D01*
X85728437Y-80417000D02*
X84664000Y-81481437D01*
X88119563Y-80417000D02*
X87984000Y-80417000D01*
%TO.C,R20*%
X110997276Y-109586500D02*
X111506724Y-109586500D01*
X110997276Y-110631500D02*
X111506724Y-110631500D01*
%TO.C,C11*%
X107041733Y-110619000D02*
X107334267Y-110619000D01*
X107041733Y-109599000D02*
X107334267Y-109599000D01*
%TO.C,R17*%
X90043724Y-99653500D02*
X89534276Y-99653500D01*
X90043724Y-98608500D02*
X89534276Y-98608500D01*
%TO.C,C7*%
X119374437Y-90634500D02*
X118310000Y-91698937D01*
X119374437Y-90634500D02*
X119510000Y-90634500D01*
X122830000Y-95154500D02*
X121630000Y-95154500D01*
X118310000Y-91698937D02*
X118310000Y-95154500D01*
X121765563Y-90634500D02*
X122830000Y-91698937D01*
X121765563Y-90634500D02*
X121630000Y-90634500D01*
X118760000Y-90144500D02*
X119260000Y-90144500D01*
X119010000Y-89894500D02*
X119010000Y-90394500D01*
X118310000Y-95154500D02*
X119510000Y-95154500D01*
X122830000Y-91698937D02*
X122830000Y-95154500D01*
%TO.C,R11*%
X108245500Y-89359776D02*
X108245500Y-89869224D01*
X109290500Y-89359776D02*
X109290500Y-89869224D01*
%TO.C,U3*%
X88031000Y-104140000D02*
X88031000Y-102190000D01*
X88031000Y-104140000D02*
X88031000Y-106090000D01*
X82911000Y-104140000D02*
X82911000Y-100690000D01*
X82911000Y-104140000D02*
X82911000Y-106090000D01*
%TO.C,R2*%
X90973500Y-83495724D02*
X90973500Y-82986276D01*
X92018500Y-83495724D02*
X92018500Y-82986276D01*
%TO.C,R19*%
X85090724Y-98608500D02*
X84581276Y-98608500D01*
X85090724Y-99653500D02*
X84581276Y-99653500D01*
%TO.C,R4*%
X82747500Y-78923724D02*
X82747500Y-78414276D01*
X81702500Y-78923724D02*
X81702500Y-78414276D01*
%TO.C,C12*%
X84308733Y-110563000D02*
X84601267Y-110563000D01*
X84308733Y-109543000D02*
X84601267Y-109543000D01*
%TO.C,C8*%
X105794437Y-92538000D02*
X109250000Y-92538000D01*
X103990000Y-96358000D02*
X104490000Y-96358000D01*
X105794437Y-97058000D02*
X109250000Y-97058000D01*
X104240000Y-96608000D02*
X104240000Y-96108000D01*
X104730000Y-95993563D02*
X104730000Y-95858000D01*
X104730000Y-93602437D02*
X105794437Y-92538000D01*
X104730000Y-93602437D02*
X104730000Y-93738000D01*
X104730000Y-95993563D02*
X105794437Y-97058000D01*
X109250000Y-92538000D02*
X109250000Y-93738000D01*
X109250000Y-97058000D02*
X109250000Y-95858000D01*
%TO.C,C10*%
X105567000Y-79124437D02*
X105567000Y-79260000D01*
X104502563Y-78060000D02*
X101047000Y-78060000D01*
X106307000Y-78760000D02*
X105807000Y-78760000D01*
X104502563Y-82580000D02*
X101047000Y-82580000D01*
X105567000Y-79124437D02*
X104502563Y-78060000D01*
X106057000Y-78510000D02*
X106057000Y-79010000D01*
X105567000Y-81515563D02*
X105567000Y-81380000D01*
X101047000Y-78060000D02*
X101047000Y-79260000D01*
X101047000Y-82580000D02*
X101047000Y-81380000D01*
X105567000Y-81515563D02*
X104502563Y-82580000D01*
%TO.C,C4*%
X81719000Y-89737267D02*
X81719000Y-89444733D01*
X80699000Y-89737267D02*
X80699000Y-89444733D01*
%TO.C,R8*%
X78683500Y-89972724D02*
X78683500Y-89463276D01*
X77638500Y-89972724D02*
X77638500Y-89463276D01*
%TO.C,R1*%
X98100724Y-80715500D02*
X97591276Y-80715500D01*
X98100724Y-79670500D02*
X97591276Y-79670500D01*
%TO.C,R21*%
X112380500Y-106044276D02*
X112380500Y-106553724D01*
X113425500Y-106044276D02*
X113425500Y-106553724D01*
%TO.C,R23*%
X89774500Y-105978276D02*
X89774500Y-106487724D01*
X90819500Y-105978276D02*
X90819500Y-106487724D01*
%TO.C,R5*%
X90748500Y-94754724D02*
X90748500Y-94245276D01*
X89703500Y-94754724D02*
X89703500Y-94245276D01*
%TO.C,R13*%
X112309500Y-93527276D02*
X112309500Y-94036724D01*
X113354500Y-93527276D02*
X113354500Y-94036724D01*
%TO.C,R10*%
X115357500Y-93933224D02*
X115357500Y-93423776D01*
X116402500Y-93933224D02*
X116402500Y-93423776D01*
%TO.C,R18*%
X107498724Y-97831500D02*
X106989276Y-97831500D01*
X107498724Y-98876500D02*
X106989276Y-98876500D01*
%TO.C,kibuzzard-65DA328B*%
G36*
X99783063Y-61260488D02*
G01*
X99868074Y-61342165D01*
X99885854Y-61342165D01*
X99905856Y-61255487D01*
X100096991Y-61255487D01*
X100096991Y-62366737D01*
X99885854Y-62366737D01*
X99885854Y-61588862D01*
X99846960Y-61468847D01*
X99750281Y-61426620D01*
X99664715Y-61467736D01*
X99632489Y-61577750D01*
X99632489Y-62366737D01*
X99419129Y-62366737D01*
X99419129Y-61595530D01*
X99380235Y-61472181D01*
X99281334Y-61426620D01*
X99196879Y-61465514D01*
X99165764Y-61566637D01*
X99165764Y-62366737D01*
X98952404Y-62366737D01*
X98952404Y-61531077D01*
X98969628Y-61400783D01*
X99021301Y-61307716D01*
X99101311Y-61251876D01*
X99203546Y-61233262D01*
X99344119Y-61266600D01*
X99436909Y-61366612D01*
X99454689Y-61366612D01*
X99529143Y-61273267D01*
X99665826Y-61233262D01*
X99783063Y-61260488D01*
G37*
G36*
X101350481Y-60986565D02*
G01*
X100988214Y-60986565D01*
X100988214Y-62191160D01*
X101372706Y-62191160D01*
X101372706Y-62366737D01*
X100377026Y-62366737D01*
X100377026Y-62191160D01*
X100761519Y-62191160D01*
X100761519Y-60810987D01*
X101350481Y-60810987D01*
X101350481Y-60986565D01*
G37*
G36*
X94331826Y-61055462D02*
G01*
X94375165Y-61211037D01*
X94525184Y-61255487D01*
X94707429Y-61255487D01*
X94707429Y-61437732D01*
X94354051Y-61437732D01*
X94354051Y-62011137D01*
X94337427Y-62147154D01*
X94287554Y-62252945D01*
X94204433Y-62328510D01*
X94088062Y-62373849D01*
X93938444Y-62388962D01*
X93837320Y-62382851D01*
X93738419Y-62364515D01*
X93738419Y-62182270D01*
X93885104Y-62200050D01*
X94019688Y-62174862D01*
X94100439Y-62099297D01*
X94127356Y-61973355D01*
X94127356Y-61437732D01*
X93676189Y-61437732D01*
X93676189Y-61255487D01*
X94127356Y-61255487D01*
X94127356Y-60953227D01*
X94331826Y-60953227D01*
X94331826Y-61055462D01*
G37*
G36*
X102045630Y-62317842D02*
G01*
X101948334Y-62228942D01*
X101877769Y-62332289D01*
X101741641Y-62366737D01*
X101641629Y-62366737D01*
X101641629Y-62193382D01*
X101668299Y-62193382D01*
X101752754Y-62104482D01*
X101752754Y-61857785D01*
X101979449Y-61857785D01*
X101979449Y-61940017D01*
X102002507Y-62060033D01*
X102071683Y-62144487D01*
X102170862Y-62194494D01*
X102283931Y-62211162D01*
X102420615Y-62173380D01*
X102472844Y-62057810D01*
X102447408Y-61971379D01*
X102371103Y-61913594D01*
X102243926Y-61884455D01*
X101979449Y-61857785D01*
X101752754Y-61857785D01*
X101752754Y-61648870D01*
X101783591Y-61471903D01*
X101876103Y-61341054D01*
X102018065Y-61260210D01*
X102197254Y-61233262D01*
X102377554Y-61259655D01*
X102518405Y-61338831D01*
X102613139Y-61460235D01*
X102655089Y-61613310D01*
X102430616Y-61613310D01*
X102388389Y-61503420D01*
X102312083Y-61437486D01*
X102201699Y-61415507D01*
X102108632Y-61430232D01*
X102038345Y-61474404D01*
X101994173Y-61545246D01*
X101979449Y-61639980D01*
X101979449Y-61693320D01*
X102319491Y-61728880D01*
X102473955Y-61762217D01*
X102595081Y-61831115D01*
X102673424Y-61933906D01*
X102699539Y-62068922D01*
X102673147Y-62207551D01*
X102593970Y-62307841D01*
X102472010Y-62368682D01*
X102317269Y-62388962D01*
X102283931Y-62384975D01*
X102168608Y-62371182D01*
X102045630Y-62317842D01*
G37*
G36*
X89115063Y-61260488D02*
G01*
X89200074Y-61342165D01*
X89217854Y-61342165D01*
X89237856Y-61255487D01*
X89428991Y-61255487D01*
X89428991Y-62366737D01*
X89217854Y-62366737D01*
X89217854Y-61588862D01*
X89178960Y-61468847D01*
X89082281Y-61426620D01*
X88996715Y-61467736D01*
X88964489Y-61577750D01*
X88964489Y-62366737D01*
X88751129Y-62366737D01*
X88751129Y-61595530D01*
X88712235Y-61472181D01*
X88613334Y-61426620D01*
X88528879Y-61465514D01*
X88497764Y-61566637D01*
X88497764Y-62366737D01*
X88284404Y-62366737D01*
X88284404Y-61531077D01*
X88301628Y-61400783D01*
X88353301Y-61307716D01*
X88433311Y-61251876D01*
X88535546Y-61233262D01*
X88676119Y-61266600D01*
X88768909Y-61366612D01*
X88786689Y-61366612D01*
X88861142Y-61273267D01*
X88997826Y-61233262D01*
X89115063Y-61260488D01*
G37*
G36*
X92970545Y-62103371D02*
G01*
X93018329Y-62217830D01*
X92970545Y-62330066D01*
X92856086Y-62377850D01*
X92744961Y-62330066D01*
X92698289Y-62217830D01*
X92744961Y-62103371D01*
X92856086Y-62055587D01*
X92970545Y-62103371D01*
G37*
G36*
X89910780Y-62316361D02*
G01*
X89800149Y-62225609D01*
X89716188Y-62106705D01*
X89665811Y-61967799D01*
X89649019Y-61808890D01*
X89875714Y-61808890D01*
X89896827Y-61962798D01*
X89960169Y-62086702D01*
X90060181Y-62168379D01*
X90191309Y-62195605D01*
X90322436Y-62168379D01*
X90422449Y-62086702D01*
X90485790Y-61962798D01*
X90506904Y-61808890D01*
X90486068Y-61656927D01*
X90423560Y-61534411D01*
X90323825Y-61453568D01*
X90191309Y-61426620D01*
X90061570Y-61453568D01*
X89961280Y-61534411D01*
X89897105Y-61656927D01*
X89875714Y-61808890D01*
X89649019Y-61808890D01*
X89665934Y-61651339D01*
X89716682Y-61513544D01*
X89801260Y-61395505D01*
X89912262Y-61305370D01*
X90042278Y-61251289D01*
X90191309Y-61233262D01*
X90342562Y-61251166D01*
X90473319Y-61304876D01*
X90583580Y-61394394D01*
X90666924Y-61512063D01*
X90716930Y-61650228D01*
X90733599Y-61808890D01*
X90716807Y-61967799D01*
X90666430Y-62106705D01*
X90582469Y-62225609D01*
X90471838Y-62316361D01*
X90341451Y-62370812D01*
X90191309Y-62388962D01*
X90041167Y-62370812D01*
X89910780Y-62316361D01*
G37*
G36*
X103315912Y-62312904D02*
G01*
X103224049Y-62217830D01*
X103208491Y-62217830D01*
X103188489Y-62366737D01*
X103004021Y-62366737D01*
X103004021Y-61808890D01*
X103230716Y-61808890D01*
X103251830Y-61966965D01*
X103315171Y-62090036D01*
X103413517Y-62169213D01*
X103539644Y-62195605D01*
X103666604Y-62168935D01*
X103767450Y-62088925D01*
X103833292Y-61965576D01*
X103855239Y-61808890D01*
X103833292Y-61652759D01*
X103767450Y-61531077D01*
X103666604Y-61452734D01*
X103539644Y-61426620D01*
X103413517Y-61452734D01*
X103315171Y-61531077D01*
X103251830Y-61652759D01*
X103230716Y-61808890D01*
X103004021Y-61808890D01*
X103004021Y-60788762D01*
X103230716Y-60788762D01*
X103230716Y-61384392D01*
X103319863Y-61300431D01*
X103433211Y-61250055D01*
X103570759Y-61233262D01*
X103710282Y-61250672D01*
X103832520Y-61302901D01*
X103937471Y-61389949D01*
X104017728Y-61506136D01*
X104065882Y-61645783D01*
X104081934Y-61808890D01*
X104065882Y-61970021D01*
X104017728Y-62109668D01*
X103937471Y-62227831D01*
X103832520Y-62317349D01*
X103710282Y-62371059D01*
X103570759Y-62388962D01*
X103539644Y-62384715D01*
X103431482Y-62369948D01*
X103315912Y-62312904D01*
G37*
G36*
X96000924Y-62366737D02*
G01*
X95774229Y-62366737D01*
X95774229Y-61984467D01*
X95638656Y-61857785D01*
X95243051Y-62366737D01*
X94989686Y-62366737D01*
X95480859Y-61711100D01*
X94989686Y-61255487D01*
X95265276Y-61255487D01*
X95758671Y-61706655D01*
X95774229Y-61706655D01*
X95774229Y-60788762D01*
X96000924Y-60788762D01*
X96000924Y-62366737D01*
G37*
G36*
X106148859Y-62388962D02*
G01*
X106009335Y-62371553D01*
X105887098Y-62319324D01*
X105782146Y-62232276D01*
X105701889Y-62116089D01*
X105653735Y-61976442D01*
X105637684Y-61813335D01*
X105864379Y-61813335D01*
X105886326Y-61969466D01*
X105952168Y-62091147D01*
X106053013Y-62169491D01*
X106179974Y-62195605D01*
X106306101Y-62169491D01*
X106404446Y-62091147D01*
X106467788Y-61969466D01*
X106488901Y-61813335D01*
X106467788Y-61655260D01*
X106404446Y-61532189D01*
X106306101Y-61453012D01*
X106179974Y-61426620D01*
X106053013Y-61453290D01*
X105952168Y-61533300D01*
X105886326Y-61656649D01*
X105864379Y-61813335D01*
X105637684Y-61813335D01*
X105653735Y-61652204D01*
X105701889Y-61512557D01*
X105782146Y-61394394D01*
X105887098Y-61304876D01*
X106009335Y-61251166D01*
X106148859Y-61233262D01*
X106288135Y-61252277D01*
X106403705Y-61309321D01*
X106495569Y-61404395D01*
X106511126Y-61404395D01*
X106531129Y-61255487D01*
X106715596Y-61255487D01*
X106715596Y-62811237D01*
X106488901Y-62811237D01*
X106488901Y-62237832D01*
X106399754Y-62321794D01*
X106286407Y-62372170D01*
X106179974Y-62385164D01*
X106148859Y-62388962D01*
G37*
G36*
X98045130Y-62317842D02*
G01*
X97947834Y-62228942D01*
X97877269Y-62332289D01*
X97741141Y-62366737D01*
X97641129Y-62366737D01*
X97641129Y-62193382D01*
X97667799Y-62193382D01*
X97752254Y-62104482D01*
X97752254Y-61857785D01*
X97978949Y-61857785D01*
X97978949Y-61940017D01*
X98002007Y-62060033D01*
X98071183Y-62144487D01*
X98170362Y-62194494D01*
X98283431Y-62211162D01*
X98420115Y-62173380D01*
X98472344Y-62057810D01*
X98446908Y-61971379D01*
X98370603Y-61913594D01*
X98243426Y-61884455D01*
X97978949Y-61857785D01*
X97752254Y-61857785D01*
X97752254Y-61648870D01*
X97783091Y-61471903D01*
X97875603Y-61341054D01*
X98017565Y-61260210D01*
X98196754Y-61233262D01*
X98377054Y-61259655D01*
X98517905Y-61338831D01*
X98612639Y-61460235D01*
X98654589Y-61613310D01*
X98430116Y-61613310D01*
X98387889Y-61503420D01*
X98311583Y-61437486D01*
X98201199Y-61415507D01*
X98108132Y-61430232D01*
X98037845Y-61474404D01*
X97993673Y-61545246D01*
X97978949Y-61639980D01*
X97978949Y-61693320D01*
X98318991Y-61728880D01*
X98473455Y-61762217D01*
X98594581Y-61831115D01*
X98672924Y-61933906D01*
X98699039Y-62068922D01*
X98672647Y-62207551D01*
X98593470Y-62307841D01*
X98471510Y-62368682D01*
X98316769Y-62388962D01*
X98283431Y-62384975D01*
X98168108Y-62371182D01*
X98045130Y-62317842D01*
G37*
G36*
X104348634Y-61795555D02*
G01*
X104356856Y-61708877D01*
X104566439Y-61708877D01*
X105168736Y-61708877D01*
X105133732Y-61594697D01*
X105064279Y-61501074D01*
X104968156Y-61438566D01*
X104853141Y-61417730D01*
X104738405Y-61438010D01*
X104647560Y-61498851D01*
X104587830Y-61591918D01*
X104566439Y-61708877D01*
X104356856Y-61708877D01*
X104364562Y-61627633D01*
X104412345Y-61488356D01*
X104491985Y-61377725D01*
X104595825Y-61297468D01*
X104716211Y-61249314D01*
X104853141Y-61233262D01*
X104997357Y-61251166D01*
X105124780Y-61304876D01*
X105235411Y-61394394D01*
X105320607Y-61513544D01*
X105371725Y-61656155D01*
X105388764Y-61822225D01*
X105371725Y-61980393D01*
X105320607Y-62117077D01*
X105235411Y-62232276D01*
X105123545Y-62319324D01*
X104992418Y-62371553D01*
X104842029Y-62388962D01*
X104664229Y-62365348D01*
X104517544Y-62294506D01*
X104410308Y-62181992D01*
X104350856Y-62033362D01*
X104568661Y-62033362D01*
X104622742Y-62128436D01*
X104713865Y-62185480D01*
X104842029Y-62204495D01*
X104970934Y-62181437D01*
X105073169Y-62112261D01*
X105142066Y-62005303D01*
X105170959Y-61868897D01*
X104353079Y-61868897D01*
X104348634Y-61795555D01*
G37*
G36*
X96547103Y-61246042D02*
G01*
X96661006Y-61284380D01*
X96746017Y-61348832D01*
X96814359Y-61439955D01*
X96829916Y-61439955D01*
X96852141Y-61255487D01*
X97367761Y-61255487D01*
X97367761Y-61426620D01*
X97054389Y-61426620D01*
X97054389Y-62195605D01*
X97378874Y-62195605D01*
X97378874Y-62366737D01*
X96407641Y-62366737D01*
X96407641Y-62195605D01*
X96827694Y-62195605D01*
X96827694Y-61811112D01*
X96801302Y-61662205D01*
X96722125Y-61548857D01*
X96597943Y-61477182D01*
X96436534Y-61453290D01*
X96307629Y-61459957D01*
X96307629Y-61233262D01*
X96392084Y-61233262D01*
X96547103Y-61246042D01*
G37*
G36*
X91666802Y-61251536D02*
G01*
X91799411Y-61306358D01*
X91913746Y-61397727D01*
X92001412Y-61517496D01*
X92054011Y-61657513D01*
X92071544Y-61817780D01*
X92054505Y-61973972D01*
X92003387Y-62110656D01*
X91918191Y-62227831D01*
X91805091Y-62317349D01*
X91670259Y-62371059D01*
X91513696Y-62388962D01*
X91383433Y-62377109D01*
X91268233Y-62341549D01*
X91168097Y-62282282D01*
X91056139Y-62157267D01*
X90998076Y-61995580D01*
X91226994Y-61995580D01*
X91265610Y-62078924D01*
X91328117Y-62142265D01*
X91411739Y-62182270D01*
X91513696Y-62195605D01*
X91649547Y-62168935D01*
X91754837Y-62088925D01*
X91822346Y-61967799D01*
X91844849Y-61817780D01*
X91821790Y-61661927D01*
X91752615Y-61536634D01*
X91647324Y-61454123D01*
X91515919Y-61426620D01*
X91412295Y-61441900D01*
X91328117Y-61487739D01*
X91267277Y-61556914D01*
X91233661Y-61642202D01*
X91004744Y-61642202D01*
X91035488Y-61522805D01*
X91092162Y-61422422D01*
X91174765Y-61341054D01*
X91276383Y-61281170D01*
X91390101Y-61245239D01*
X91515919Y-61233262D01*
X91666802Y-61251536D01*
G37*
%TO.C,C6*%
X72218000Y-87103563D02*
X73282437Y-88168000D01*
X76738000Y-88168000D02*
X76738000Y-86968000D01*
X73282437Y-83648000D02*
X76738000Y-83648000D01*
X72218000Y-84712437D02*
X72218000Y-84848000D01*
X71728000Y-87718000D02*
X71728000Y-87218000D01*
X71478000Y-87468000D02*
X71978000Y-87468000D01*
X73282437Y-88168000D02*
X76738000Y-88168000D01*
X72218000Y-87103563D02*
X72218000Y-86968000D01*
X72218000Y-84712437D02*
X73282437Y-83648000D01*
X76738000Y-83648000D02*
X76738000Y-84848000D01*
%TO.C,R14*%
X105197500Y-85805224D02*
X105197500Y-85295776D01*
X106242500Y-85805224D02*
X106242500Y-85295776D01*
%TO.C,C13*%
X109278000Y-85696767D02*
X109278000Y-85404233D01*
X108258000Y-85696767D02*
X108258000Y-85404233D01*
%TO.C,U2*%
X105700000Y-104196000D02*
X105700000Y-106146000D01*
X110820000Y-104196000D02*
X110820000Y-106146000D01*
X105700000Y-104196000D02*
X105700000Y-100746000D01*
X110820000Y-104196000D02*
X110820000Y-102246000D01*
%TO.C,kibuzzard-65DA3308*%
G36*
X66927155Y-102185181D02*
G01*
X67039374Y-102222952D01*
X67123129Y-102286452D01*
X67190461Y-102376228D01*
X67205788Y-102376228D01*
X67227685Y-102194487D01*
X67735685Y-102194487D01*
X67735685Y-102363090D01*
X67426943Y-102363090D01*
X67426943Y-103120711D01*
X67746633Y-103120711D01*
X67746633Y-103289314D01*
X66789754Y-103289314D01*
X66789754Y-103120711D01*
X67203599Y-103120711D01*
X67203599Y-102741900D01*
X67177596Y-102595194D01*
X67099590Y-102483521D01*
X66977243Y-102412905D01*
X66818219Y-102389366D01*
X66691219Y-102395935D01*
X66691219Y-102172590D01*
X66774426Y-102172590D01*
X66927155Y-102185181D01*
G37*
G36*
X65977578Y-99162132D02*
G01*
X65999803Y-99262144D01*
X66066478Y-99322152D01*
X66177603Y-99342154D01*
X66337623Y-99342154D01*
X66337623Y-99526622D01*
X66002025Y-99526622D01*
X66002025Y-100322277D01*
X66375405Y-100322277D01*
X66375405Y-100511189D01*
X65406395Y-100511189D01*
X65406395Y-100322277D01*
X65768663Y-100322277D01*
X65768663Y-99088789D01*
X65977578Y-99088789D01*
X65977578Y-99162132D01*
G37*
G36*
X64597909Y-103057211D02*
G01*
X64613237Y-103057211D01*
X64928547Y-102194487D01*
X65158461Y-102194487D01*
X64742426Y-103289314D01*
X64470909Y-103289314D01*
X64057064Y-102194487D01*
X64284788Y-102194487D01*
X64597909Y-103057211D01*
G37*
G36*
X65416840Y-102726573D02*
G01*
X65424940Y-102641176D01*
X65631426Y-102641176D01*
X66224823Y-102641176D01*
X66190336Y-102528683D01*
X66121909Y-102436444D01*
X66027206Y-102374859D01*
X65913892Y-102354331D01*
X65800851Y-102374312D01*
X65711349Y-102434254D01*
X65652502Y-102525946D01*
X65631426Y-102641176D01*
X65424940Y-102641176D01*
X65432533Y-102561132D01*
X65479610Y-102423914D01*
X65558073Y-102314918D01*
X65660378Y-102235847D01*
X65778985Y-102188404D01*
X65913892Y-102172590D01*
X66055976Y-102190229D01*
X66181516Y-102243146D01*
X66290512Y-102331340D01*
X66374449Y-102448730D01*
X66424811Y-102589233D01*
X66441599Y-102752849D01*
X66424811Y-102908679D01*
X66374449Y-103043343D01*
X66290512Y-103156840D01*
X66180300Y-103242602D01*
X66051110Y-103294058D01*
X65902943Y-103311211D01*
X65727771Y-103287946D01*
X65583254Y-103218150D01*
X65477603Y-103107299D01*
X65419030Y-102960866D01*
X65633616Y-102960866D01*
X65686897Y-103054535D01*
X65776673Y-103110736D01*
X65902943Y-103129469D01*
X66029943Y-103106752D01*
X66130668Y-103038599D01*
X66198547Y-102933222D01*
X66227012Y-102798831D01*
X65421219Y-102798831D01*
X65416840Y-102726573D01*
G37*
G36*
X63378271Y-101960194D02*
G01*
X63400168Y-102058728D01*
X63465857Y-102117849D01*
X63575340Y-102137556D01*
X63732995Y-102137556D01*
X63732995Y-102319297D01*
X63402357Y-102319297D01*
X63402357Y-103103194D01*
X63770219Y-103103194D01*
X63770219Y-103289314D01*
X62815530Y-103289314D01*
X62815530Y-103103194D01*
X63172443Y-103103194D01*
X63172443Y-101887935D01*
X63378271Y-101887935D01*
X63378271Y-101960194D01*
G37*
G36*
X67215510Y-100275604D02*
G01*
X67231068Y-100275604D01*
X67551108Y-99399939D01*
X67784470Y-99399939D01*
X67362195Y-100511189D01*
X67086605Y-100511189D01*
X66666553Y-99399939D01*
X66897693Y-99399939D01*
X67215510Y-100275604D01*
G37*
%TO.C,C9*%
X112858000Y-79480500D02*
X112858000Y-80680500D01*
X117378000Y-80544937D02*
X117378000Y-80680500D01*
X117378000Y-82936063D02*
X117378000Y-82800500D01*
X118118000Y-80180500D02*
X117618000Y-80180500D01*
X116313563Y-79480500D02*
X112858000Y-79480500D01*
X117378000Y-82936063D02*
X116313563Y-84000500D01*
X116313563Y-84000500D02*
X112858000Y-84000500D01*
X117378000Y-80544937D02*
X116313563Y-79480500D01*
X117868000Y-79930500D02*
X117868000Y-80430500D01*
X112858000Y-84000500D02*
X112858000Y-82800500D01*
%TD*%
%LPC*%
D14*
%TO.C,SW2*%
X75000000Y-109499000D03*
D15*
X75000000Y-104800000D03*
X75000000Y-100101000D03*
%TD*%
D14*
%TO.C,SW1*%
X117587000Y-99966000D03*
D15*
X117587000Y-104796000D03*
X117587000Y-109626000D03*
X122417000Y-99966000D03*
X122417000Y-104796000D03*
X122417000Y-109626000D03*
%TD*%
D16*
%TO.C,J6*%
X74500000Y-70400000D03*
X85600000Y-70400000D03*
X85600000Y-64100000D03*
X74500000Y-64100000D03*
X74500000Y-76750000D03*
X85600000Y-76750000D03*
%TD*%
D17*
%TO.C,H3*%
X66400000Y-110000000D03*
X62302944Y-111697056D03*
X65697056Y-111697056D03*
X64000000Y-107600000D03*
X64000000Y-112400000D03*
X65697056Y-108302944D03*
X61600000Y-110000000D03*
X62302944Y-108302944D03*
D18*
X64000000Y-110000000D03*
%TD*%
D16*
%TO.C,J5*%
X109500000Y-70400000D03*
X120600000Y-70400000D03*
X120600000Y-64100000D03*
X109500000Y-64100000D03*
X109500000Y-76750000D03*
X120600000Y-76750000D03*
%TD*%
D17*
%TO.C,H4*%
X129302944Y-108302944D03*
D18*
X131000000Y-110000000D03*
D17*
X132697056Y-108302944D03*
X133400000Y-110000000D03*
X131000000Y-107600000D03*
X131000000Y-112400000D03*
X129302944Y-111697056D03*
X132697056Y-111697056D03*
X128600000Y-110000000D03*
%TD*%
D19*
%TO.C,J7*%
X92500000Y-104500000D03*
X95000000Y-104500000D03*
D20*
X97500000Y-109500000D03*
D19*
X102500000Y-104500000D03*
X100000000Y-104500000D03*
%TD*%
D21*
%TO.C,J8*%
X66350000Y-80701000D03*
D22*
X68890000Y-80701000D03*
X66350000Y-83241000D03*
X68890000Y-83241000D03*
X66350000Y-85781000D03*
X68890000Y-85781000D03*
X66350000Y-88321000D03*
X68890000Y-88321000D03*
X66350000Y-90861000D03*
X68890000Y-90861000D03*
X66350000Y-93401000D03*
X68890000Y-93401000D03*
%TD*%
D23*
%TO.C,J4*%
X97500000Y-70350000D03*
D24*
X97500000Y-64050000D03*
D25*
X92700000Y-67450000D03*
%TD*%
D17*
%TO.C,H1*%
X66400000Y-64000000D03*
X61600000Y-64000000D03*
X64000000Y-66400000D03*
X65697056Y-65697056D03*
D18*
X64000000Y-64000000D03*
D17*
X64000000Y-61600000D03*
X65697056Y-62302944D03*
X62302944Y-62302944D03*
X62302944Y-65697056D03*
%TD*%
D26*
%TO.C,RV1*%
X101900000Y-90600000D03*
X93100000Y-90600000D03*
D27*
X95000000Y-97600000D03*
D28*
X97500000Y-97600000D03*
X100000000Y-97600000D03*
%TD*%
D21*
%TO.C,J3*%
X126030000Y-80701000D03*
D22*
X128570000Y-80701000D03*
X126030000Y-83241000D03*
X128570000Y-83241000D03*
X126030000Y-85781000D03*
X128570000Y-85781000D03*
X126030000Y-88321000D03*
X128570000Y-88321000D03*
X126030000Y-90861000D03*
X128570000Y-90861000D03*
X126030000Y-93401000D03*
X128570000Y-93401000D03*
%TD*%
D17*
%TO.C,H2*%
X131000000Y-66400000D03*
D18*
X131000000Y-64000000D03*
D17*
X132697056Y-65697056D03*
X129302944Y-65697056D03*
X128600000Y-64000000D03*
X133400000Y-64000000D03*
X132697056Y-62302944D03*
X129302944Y-62302944D03*
X131000000Y-61600000D03*
%TD*%
D29*
%TO.C,Q1*%
X79238000Y-81947000D03*
X77338000Y-81947000D03*
X78288000Y-78947000D03*
%TD*%
D30*
%TO.C,R15*%
X97488500Y-100132000D03*
X95663500Y-100132000D03*
%TD*%
D31*
%TO.C,R6*%
X74351000Y-82375500D03*
X74351000Y-80550500D03*
%TD*%
D32*
%TO.C,U1*%
X117085000Y-86439500D03*
X117085000Y-87709500D03*
X117085000Y-88979500D03*
X117085000Y-90249500D03*
X112135000Y-90249500D03*
X112135000Y-88979500D03*
X112135000Y-87709500D03*
X112135000Y-86439500D03*
%TD*%
D29*
%TO.C,Q2*%
X82159000Y-96425000D03*
X80259000Y-96425000D03*
X81209000Y-93425000D03*
%TD*%
D33*
%TO.C,R7*%
X78161000Y-92996500D03*
X78161000Y-94821500D03*
%TD*%
D30*
%TO.C,R16*%
X112347500Y-98354000D03*
X110522500Y-98354000D03*
%TD*%
D34*
%TO.C,C2*%
X85654000Y-93550000D03*
X85654000Y-89950000D03*
%TD*%
D35*
%TO.C,R22*%
X87225500Y-110053000D03*
X89050500Y-110053000D03*
%TD*%
D36*
%TO.C,C3*%
X82225000Y-81870500D03*
X82225000Y-83595500D03*
%TD*%
D34*
%TO.C,C5*%
X73589000Y-94820000D03*
X73589000Y-91220000D03*
%TD*%
D31*
%TO.C,R12*%
X105720000Y-90527000D03*
X105720000Y-88702000D03*
%TD*%
D37*
%TO.C,C1*%
X86924000Y-80877000D03*
X86924000Y-84477000D03*
%TD*%
D35*
%TO.C,R20*%
X110339500Y-110109000D03*
X112164500Y-110109000D03*
%TD*%
D38*
%TO.C,C11*%
X106325500Y-110109000D03*
X108050500Y-110109000D03*
%TD*%
D30*
%TO.C,R17*%
X90701500Y-99131000D03*
X88876500Y-99131000D03*
%TD*%
D37*
%TO.C,C7*%
X120570000Y-91094500D03*
X120570000Y-94694500D03*
%TD*%
D33*
%TO.C,R11*%
X108768000Y-88702000D03*
X108768000Y-90527000D03*
%TD*%
D39*
%TO.C,U3*%
X83566000Y-101665000D03*
X84836000Y-101665000D03*
X86106000Y-101665000D03*
X87376000Y-101665000D03*
X87376000Y-106615000D03*
X86106000Y-106615000D03*
X84836000Y-106615000D03*
X83566000Y-106615000D03*
%TD*%
D31*
%TO.C,R2*%
X91496000Y-84153500D03*
X91496000Y-82328500D03*
%TD*%
D30*
%TO.C,R19*%
X85748500Y-99131000D03*
X83923500Y-99131000D03*
%TD*%
D31*
%TO.C,R4*%
X82225000Y-79581500D03*
X82225000Y-77756500D03*
%TD*%
D38*
%TO.C,C12*%
X83592500Y-110053000D03*
X85317500Y-110053000D03*
%TD*%
D40*
%TO.C,C8*%
X105190000Y-94798000D03*
X108790000Y-94798000D03*
%TD*%
D41*
%TO.C,C10*%
X105107000Y-80320000D03*
X101507000Y-80320000D03*
%TD*%
D42*
%TO.C,C4*%
X81209000Y-90453500D03*
X81209000Y-88728500D03*
%TD*%
D31*
%TO.C,R8*%
X78161000Y-90630500D03*
X78161000Y-88805500D03*
%TD*%
D30*
%TO.C,R1*%
X98758500Y-80193000D03*
X96933500Y-80193000D03*
%TD*%
D33*
%TO.C,R21*%
X112903000Y-105386500D03*
X112903000Y-107211500D03*
%TD*%
%TO.C,R23*%
X90297000Y-105320500D03*
X90297000Y-107145500D03*
%TD*%
D31*
%TO.C,R5*%
X90226000Y-95412500D03*
X90226000Y-93587500D03*
%TD*%
D33*
%TO.C,R13*%
X112832000Y-92869500D03*
X112832000Y-94694500D03*
%TD*%
D31*
%TO.C,R10*%
X115880000Y-94591000D03*
X115880000Y-92766000D03*
%TD*%
D30*
%TO.C,R18*%
X108156500Y-98354000D03*
X106331500Y-98354000D03*
%TD*%
D40*
%TO.C,C6*%
X72678000Y-85908000D03*
X76278000Y-85908000D03*
%TD*%
D31*
%TO.C,R14*%
X105720000Y-86463000D03*
X105720000Y-84638000D03*
%TD*%
D42*
%TO.C,C13*%
X108768000Y-86413000D03*
X108768000Y-84688000D03*
%TD*%
D39*
%TO.C,U2*%
X106355000Y-101721000D03*
X107625000Y-101721000D03*
X108895000Y-101721000D03*
X110165000Y-101721000D03*
X110165000Y-106671000D03*
X108895000Y-106671000D03*
X107625000Y-106671000D03*
X106355000Y-106671000D03*
%TD*%
D41*
%TO.C,C9*%
X116918000Y-81740500D03*
X113318000Y-81740500D03*
%TD*%
M02*
