M48
; DRILL file {KiCad (6.0.9-0)} date 2024 March 23, Saturday 12:25:00
; FORMAT={-:-/ absolute / inch / decimal}
; #@! TF.CreationDate,2024-03-23T12:25:00+01:00
; #@! TF.GenerationSoftware,Kicad,Pcbnew,(6.0.9-0)
; #@! TF.FileFunction,Plated,1,4,PTH
FMAT,2
INCH
; #@! TA.AperFunction,Plated,PTH,ViaDrill
T1C0.0118
; #@! TA.AperFunction,Plated,PTH,ViaDrill
T2C0.0157
; #@! TA.AperFunction,Plated,PTH,ComponentDrill
T3C0.0157
; #@! TA.AperFunction,Plated,PTH,ComponentDrill
T4C0.0197
; #@! TA.AperFunction,Plated,PTH,ComponentDrill
T5C0.0394
; #@! TA.AperFunction,Plated,PTH,ComponentDrill
T6C0.0472
; #@! TA.AperFunction,Plated,PTH,ComponentDrill
T7C0.0630
; #@! TA.AperFunction,Plated,PTH,ComponentDrill
T8C0.0709
; #@! TA.AperFunction,Plated,PTH,ComponentDrill
T9C0.0945
; #@! TA.AperFunction,Plated,PTH,ComponentDrill
T10C0.1260
%
G90
G05
T1
X2.58Y-2.965
X2.58Y-3.06
X2.735Y-4.195
X2.74Y-4.455
X2.79Y-4.0035
X2.79Y-4.195
X2.79Y-4.455
X2.795Y-3.58
X2.795Y-3.62
X2.795Y-3.855
X2.835Y-4.0
X2.845Y-3.855
X2.9687Y-3.1713
X3.08Y-3.77
X3.11Y-3.5
X3.155Y-3.56
X3.2318Y-3.4932
X3.275Y-3.225
X3.275Y-3.3
X3.645Y-3.235
X3.8258Y-3.0803
X3.865Y-3.08
X3.995Y-3.22
X4.19Y-3.495
X4.315Y-3.38
X4.3158Y-3.3342
X4.34Y-3.74
X4.36Y-4.0
X4.4488Y-2.8346
X4.4488Y-2.9724
X4.46Y-4.455
X4.4726Y-4.4219
X4.4882Y-2.8346
X4.4882Y-2.9724
X4.5878Y-3.6522
X4.61Y-3.58
X4.925Y-3.0315
X4.9257Y-2.8733
X4.9663Y-2.8703
X5.0038Y-2.84
X5.0038Y-2.9588
X5.045Y-2.87
X5.045Y-2.955
T2
X2.63Y-2.965
X2.63Y-3.06
X3.155Y-3.61
X3.305Y-4.38
X3.325Y-3.225
X3.3444Y-4.38
X3.465Y-4.0
X4.205Y-4.375
X4.2444Y-4.375
X4.8796Y-3.0296
X5.26Y-4.12
X5.26Y-4.175
T4
X2.4252Y-2.5197
X2.4252Y-4.3307
X2.4529Y-2.4529
X2.4529Y-2.5865
X2.4529Y-4.2639
X2.4529Y-4.3975
X2.5197Y-2.4252
X2.5197Y-2.6142
X2.5197Y-4.2362
X2.5197Y-4.4252
X2.5865Y-2.4529
X2.5865Y-2.5865
X2.5865Y-4.2639
X2.5865Y-4.3975
X2.6142Y-2.5197
X2.6142Y-4.3307
X5.063Y-2.5197
X5.063Y-4.3307
X5.0907Y-2.4529
X5.0907Y-2.5865
X5.0907Y-4.2639
X5.0907Y-4.3975
X5.1575Y-2.4252
X5.1575Y-2.6142
X5.1575Y-4.2362
X5.1575Y-4.4252
X5.2243Y-2.4529
X5.2243Y-2.5865
X5.2243Y-4.2639
X5.2243Y-4.3975
X5.252Y-2.5197
X5.252Y-4.3307
T5
X2.6122Y-3.1772
X2.6122Y-3.2772
X2.6122Y-3.3772
X2.6122Y-3.4772
X2.6122Y-3.5772
X2.6122Y-3.6772
X2.7122Y-3.1772
X2.7122Y-3.2772
X2.7122Y-3.3772
X2.7122Y-3.4772
X2.7122Y-3.5772
X2.7122Y-3.6772
X4.9618Y-3.1772
X4.9618Y-3.2772
X4.9618Y-3.3772
X4.9618Y-3.4772
X4.9618Y-3.5772
X4.9618Y-3.6772
X5.0618Y-3.1772
X5.0618Y-3.2772
X5.0618Y-3.3772
X5.0618Y-3.4772
X5.0618Y-3.5772
X5.0618Y-3.6772
T6
X3.7402Y-3.8425
X3.8386Y-3.8425
X3.937Y-3.8425
T7
X2.9331Y-2.5236
X2.9331Y-2.7717
X2.9331Y-3.0217
X3.3701Y-2.5236
X3.3701Y-2.7717
X3.3701Y-3.0217
X4.311Y-2.5236
X4.311Y-2.7717
X4.311Y-3.0217
X4.748Y-2.5236
X4.748Y-2.7717
X4.748Y-3.0217
T9
X2.9528Y-3.941
X2.9528Y-4.126
X2.9528Y-4.311
X4.6294Y-3.9357
X4.6294Y-4.1258
X4.6294Y-4.316
X4.8196Y-3.9357
X4.8196Y-4.1258
X4.8196Y-4.316
T10
X2.5197Y-2.5197
X2.5197Y-4.3307
X5.1575Y-2.5197
X5.1575Y-4.3307
T3
G00X3.6417Y-4.0945
M15
G01X3.6417Y-4.1339
M16
G05
G00X3.7402Y-4.0945
M15
G01X3.7402Y-4.1339
M16
G05
G00X3.8189Y-4.311
M15
G01X3.8583Y-4.311
M16
G05
G00X3.937Y-4.1339
M15
G01X3.937Y-4.0945
M16
G05
G00X4.0354Y-4.1339
M15
G01X4.0354Y-4.0945
M16
G05
T5
G00X3.6496Y-2.6988
M15
G01X3.6496Y-2.6122
M16
G05
G00X3.8819Y-2.5217
M15
G01X3.7953Y-2.5217
M16
G05
G00X3.8898Y-2.7697
M15
G01X3.7874Y-2.7697
M16
G05
T8
G00X3.6654Y-3.561
M15
G01X3.6654Y-3.5728
M16
G05
G00X4.0118Y-3.561
M15
G01X4.0118Y-3.5728
M16
G05
T0
M30
