%TF.GenerationSoftware,KiCad,Pcbnew,(6.0.9-0)*%
%TF.CreationDate,2024-03-23T13:07:17+01:00*%
%TF.ProjectId,io-board,696f2d62-6f61-4726-942e-6b696361645f,rev?*%
%TF.SameCoordinates,Original*%
%TF.FileFunction,Paste,Bot*%
%TF.FilePolarity,Positive*%
%FSLAX46Y46*%
G04 Gerber Fmt 4.6, Leading zero omitted, Abs format (unit mm)*
G04 Created by KiCad (PCBNEW (6.0.9-0)) date 2024-03-23 13:07:17*
%MOMM*%
%LPD*%
G01*
G04 APERTURE LIST*
G04 Aperture macros list*
%AMRoundRect*
0 Rectangle with rounded corners*
0 $1 Rounding radius*
0 $2 $3 $4 $5 $6 $7 $8 $9 X,Y pos of 4 corners*
0 Add a 4 corners polygon primitive as box body*
4,1,4,$2,$3,$4,$5,$6,$7,$8,$9,$2,$3,0*
0 Add four circle primitives for the rounded corners*
1,1,$1+$1,$2,$3*
1,1,$1+$1,$4,$5*
1,1,$1+$1,$6,$7*
1,1,$1+$1,$8,$9*
0 Add four rect primitives between the rounded corners*
20,1,$1+$1,$2,$3,$4,$5,0*
20,1,$1+$1,$4,$5,$6,$7,0*
20,1,$1+$1,$6,$7,$8,$9,0*
20,1,$1+$1,$8,$9,$2,$3,0*%
G04 Aperture macros list end*
%ADD10R,0.800000X1.900000*%
%ADD11RoundRect,0.237500X0.250000X0.237500X-0.250000X0.237500X-0.250000X-0.237500X0.250000X-0.237500X0*%
%ADD12RoundRect,0.237500X0.237500X-0.250000X0.237500X0.250000X-0.237500X0.250000X-0.237500X-0.250000X0*%
%ADD13RoundRect,0.150000X0.825000X0.150000X-0.825000X0.150000X-0.825000X-0.150000X0.825000X-0.150000X0*%
%ADD14RoundRect,0.237500X-0.237500X0.250000X-0.237500X-0.250000X0.237500X-0.250000X0.237500X0.250000X0*%
%ADD15RoundRect,0.250000X0.550000X-1.050000X0.550000X1.050000X-0.550000X1.050000X-0.550000X-1.050000X0*%
%ADD16RoundRect,0.237500X-0.250000X-0.237500X0.250000X-0.237500X0.250000X0.237500X-0.250000X0.237500X0*%
%ADD17RoundRect,0.237500X-0.237500X0.300000X-0.237500X-0.300000X0.237500X-0.300000X0.237500X0.300000X0*%
%ADD18RoundRect,0.250000X-0.550000X1.050000X-0.550000X-1.050000X0.550000X-1.050000X0.550000X1.050000X0*%
%ADD19RoundRect,0.237500X-0.300000X-0.237500X0.300000X-0.237500X0.300000X0.237500X-0.300000X0.237500X0*%
%ADD20RoundRect,0.150000X-0.150000X0.825000X-0.150000X-0.825000X0.150000X-0.825000X0.150000X0.825000X0*%
%ADD21RoundRect,0.250000X-1.050000X-0.550000X1.050000X-0.550000X1.050000X0.550000X-1.050000X0.550000X0*%
%ADD22RoundRect,0.250000X1.050000X0.550000X-1.050000X0.550000X-1.050000X-0.550000X1.050000X-0.550000X0*%
%ADD23RoundRect,0.237500X0.237500X-0.300000X0.237500X0.300000X-0.237500X0.300000X-0.237500X-0.300000X0*%
G04 APERTURE END LIST*
D10*
%TO.C,Q1*%
X79238000Y-81947000D03*
X77338000Y-81947000D03*
X78288000Y-78947000D03*
%TD*%
D11*
%TO.C,R15*%
X97488500Y-100132000D03*
X95663500Y-100132000D03*
%TD*%
D12*
%TO.C,R6*%
X74351000Y-82375500D03*
X74351000Y-80550500D03*
%TD*%
D13*
%TO.C,U1*%
X117085000Y-86439500D03*
X117085000Y-87709500D03*
X117085000Y-88979500D03*
X117085000Y-90249500D03*
X112135000Y-90249500D03*
X112135000Y-88979500D03*
X112135000Y-87709500D03*
X112135000Y-86439500D03*
%TD*%
D10*
%TO.C,Q2*%
X82159000Y-96425000D03*
X80259000Y-96425000D03*
X81209000Y-93425000D03*
%TD*%
D14*
%TO.C,R7*%
X78161000Y-92996500D03*
X78161000Y-94821500D03*
%TD*%
D11*
%TO.C,R16*%
X112347500Y-98354000D03*
X110522500Y-98354000D03*
%TD*%
D15*
%TO.C,C2*%
X85654000Y-93550000D03*
X85654000Y-89950000D03*
%TD*%
D16*
%TO.C,R22*%
X87225500Y-110053000D03*
X89050500Y-110053000D03*
%TD*%
D17*
%TO.C,C3*%
X82225000Y-81870500D03*
X82225000Y-83595500D03*
%TD*%
D15*
%TO.C,C5*%
X73589000Y-94820000D03*
X73589000Y-91220000D03*
%TD*%
D12*
%TO.C,R12*%
X105720000Y-90527000D03*
X105720000Y-88702000D03*
%TD*%
D18*
%TO.C,C1*%
X86924000Y-80877000D03*
X86924000Y-84477000D03*
%TD*%
D16*
%TO.C,R20*%
X110339500Y-110109000D03*
X112164500Y-110109000D03*
%TD*%
D19*
%TO.C,C11*%
X106325500Y-110109000D03*
X108050500Y-110109000D03*
%TD*%
D11*
%TO.C,R17*%
X90701500Y-99131000D03*
X88876500Y-99131000D03*
%TD*%
D18*
%TO.C,C7*%
X120570000Y-91094500D03*
X120570000Y-94694500D03*
%TD*%
D14*
%TO.C,R11*%
X108768000Y-88702000D03*
X108768000Y-90527000D03*
%TD*%
D20*
%TO.C,U3*%
X83566000Y-101665000D03*
X84836000Y-101665000D03*
X86106000Y-101665000D03*
X87376000Y-101665000D03*
X87376000Y-106615000D03*
X86106000Y-106615000D03*
X84836000Y-106615000D03*
X83566000Y-106615000D03*
%TD*%
D12*
%TO.C,R2*%
X91496000Y-84153500D03*
X91496000Y-82328500D03*
%TD*%
D11*
%TO.C,R19*%
X85748500Y-99131000D03*
X83923500Y-99131000D03*
%TD*%
D12*
%TO.C,R4*%
X82225000Y-79581500D03*
X82225000Y-77756500D03*
%TD*%
D19*
%TO.C,C12*%
X83592500Y-110053000D03*
X85317500Y-110053000D03*
%TD*%
D21*
%TO.C,C8*%
X105190000Y-94798000D03*
X108790000Y-94798000D03*
%TD*%
D22*
%TO.C,C10*%
X105107000Y-80320000D03*
X101507000Y-80320000D03*
%TD*%
D23*
%TO.C,C4*%
X81209000Y-90453500D03*
X81209000Y-88728500D03*
%TD*%
D12*
%TO.C,R8*%
X78161000Y-90630500D03*
X78161000Y-88805500D03*
%TD*%
D11*
%TO.C,R1*%
X98758500Y-80193000D03*
X96933500Y-80193000D03*
%TD*%
D14*
%TO.C,R21*%
X112903000Y-105386500D03*
X112903000Y-107211500D03*
%TD*%
%TO.C,R23*%
X90297000Y-105320500D03*
X90297000Y-107145500D03*
%TD*%
D12*
%TO.C,R5*%
X90226000Y-95412500D03*
X90226000Y-93587500D03*
%TD*%
D14*
%TO.C,R13*%
X112832000Y-92869500D03*
X112832000Y-94694500D03*
%TD*%
D12*
%TO.C,R10*%
X115880000Y-94591000D03*
X115880000Y-92766000D03*
%TD*%
D11*
%TO.C,R18*%
X108156500Y-98354000D03*
X106331500Y-98354000D03*
%TD*%
D21*
%TO.C,C6*%
X72678000Y-85908000D03*
X76278000Y-85908000D03*
%TD*%
D12*
%TO.C,R14*%
X105720000Y-86463000D03*
X105720000Y-84638000D03*
%TD*%
D23*
%TO.C,C13*%
X108768000Y-86413000D03*
X108768000Y-84688000D03*
%TD*%
D20*
%TO.C,U2*%
X106355000Y-101721000D03*
X107625000Y-101721000D03*
X108895000Y-101721000D03*
X110165000Y-101721000D03*
X110165000Y-106671000D03*
X108895000Y-106671000D03*
X107625000Y-106671000D03*
X106355000Y-106671000D03*
%TD*%
D22*
%TO.C,C9*%
X116918000Y-81740500D03*
X113318000Y-81740500D03*
%TD*%
M02*
