%TF.GenerationSoftware,KiCad,Pcbnew,(6.0.9-0)*%
%TF.CreationDate,2024-03-23T12:25:00+01:00*%
%TF.ProjectId,io-board,696f2d62-6f61-4726-942e-6b696361645f,rev?*%
%TF.SameCoordinates,Original*%
%TF.FileFunction,Soldermask,Top*%
%TF.FilePolarity,Negative*%
%FSLAX46Y46*%
G04 Gerber Fmt 4.6, Leading zero omitted, Abs format (unit mm)*
G04 Created by KiCad (PCBNEW (6.0.9-0)) date 2024-03-23 12:25:00*
%MOMM*%
%LPD*%
G01*
G04 APERTURE LIST*
G04 Aperture macros list*
%AMRoundRect*
0 Rectangle with rounded corners*
0 $1 Rounding radius*
0 $2 $3 $4 $5 $6 $7 $8 $9 X,Y pos of 4 corners*
0 Add a 4 corners polygon primitive as box body*
4,1,4,$2,$3,$4,$5,$6,$7,$8,$9,$2,$3,0*
0 Add four circle primitives for the rounded corners*
1,1,$1+$1,$2,$3*
1,1,$1+$1,$4,$5*
1,1,$1+$1,$6,$7*
1,1,$1+$1,$8,$9*
0 Add four rect primitives between the rounded corners*
20,1,$1+$1,$2,$3,$4,$5,0*
20,1,$1+$1,$4,$5,$6,$7,0*
20,1,$1+$1,$6,$7,$8,$9,0*
20,1,$1+$1,$8,$9,$2,$3,0*%
G04 Aperture macros list end*
%ADD10R,3.416000X3.416000*%
%ADD11O,3.416000X3.416000*%
%ADD12C,3.200000*%
%ADD13C,0.800000*%
%ADD14C,6.400000*%
%ADD15RoundRect,0.250000X0.325000X0.450000X-0.325000X0.450000X-0.325000X-0.450000X0.325000X-0.450000X0*%
%ADD16O,1.200000X2.200000*%
%ADD17O,2.200000X1.200000*%
%ADD18R,1.700000X1.700000*%
%ADD19O,1.700000X1.700000*%
%ADD20R,4.600000X2.000000*%
%ADD21O,4.200000X2.000000*%
%ADD22O,2.000000X4.200000*%
%ADD23O,2.700000X5.400000*%
%ADD24R,1.800000X1.800000*%
%ADD25C,1.800000*%
G04 APERTURE END LIST*
D10*
%TO.C,SW2*%
X75000000Y-109499000D03*
D11*
X75000000Y-104800000D03*
X75000000Y-100101000D03*
%TD*%
D10*
%TO.C,SW1*%
X117587000Y-99966000D03*
D11*
X117587000Y-104796000D03*
X117587000Y-109626000D03*
X122417000Y-99966000D03*
X122417000Y-104796000D03*
X122417000Y-109626000D03*
%TD*%
D12*
%TO.C,J6*%
X74500000Y-70400000D03*
X85600000Y-70400000D03*
X85600000Y-64100000D03*
X74500000Y-64100000D03*
X74500000Y-76750000D03*
X85600000Y-76750000D03*
%TD*%
D13*
%TO.C,H3*%
X66400000Y-110000000D03*
X62302944Y-111697056D03*
X65697056Y-111697056D03*
X64000000Y-107600000D03*
X64000000Y-112400000D03*
X65697056Y-108302944D03*
X61600000Y-110000000D03*
X62302944Y-108302944D03*
D14*
X64000000Y-110000000D03*
%TD*%
D15*
%TO.C,D1*%
X98525000Y-77000000D03*
X96475000Y-77000000D03*
%TD*%
D12*
%TO.C,J5*%
X109500000Y-70400000D03*
X120600000Y-70400000D03*
X120600000Y-64100000D03*
X109500000Y-64100000D03*
X109500000Y-76750000D03*
X120600000Y-76750000D03*
%TD*%
D13*
%TO.C,H4*%
X129302944Y-108302944D03*
D14*
X131000000Y-110000000D03*
D13*
X132697056Y-108302944D03*
X133400000Y-110000000D03*
X131000000Y-107600000D03*
X131000000Y-112400000D03*
X129302944Y-111697056D03*
X132697056Y-111697056D03*
X128600000Y-110000000D03*
%TD*%
D16*
%TO.C,J7*%
X92500000Y-104500000D03*
X95000000Y-104500000D03*
D17*
X97500000Y-109500000D03*
D16*
X102500000Y-104500000D03*
X100000000Y-104500000D03*
%TD*%
D18*
%TO.C,J8*%
X66350000Y-80701000D03*
D19*
X68890000Y-80701000D03*
X66350000Y-83241000D03*
X68890000Y-83241000D03*
X66350000Y-85781000D03*
X68890000Y-85781000D03*
X66350000Y-88321000D03*
X68890000Y-88321000D03*
X66350000Y-90861000D03*
X68890000Y-90861000D03*
X66350000Y-93401000D03*
X68890000Y-93401000D03*
%TD*%
D20*
%TO.C,J4*%
X97500000Y-70350000D03*
D21*
X97500000Y-64050000D03*
D22*
X92700000Y-67450000D03*
%TD*%
D13*
%TO.C,H1*%
X66400000Y-64000000D03*
X61600000Y-64000000D03*
X64000000Y-66400000D03*
X65697056Y-65697056D03*
D14*
X64000000Y-64000000D03*
D13*
X64000000Y-61600000D03*
X65697056Y-62302944D03*
X62302944Y-62302944D03*
X62302944Y-65697056D03*
%TD*%
D23*
%TO.C,RV1*%
X101900000Y-90600000D03*
X93100000Y-90600000D03*
D24*
X95000000Y-97600000D03*
D25*
X97500000Y-97600000D03*
X100000000Y-97600000D03*
%TD*%
D18*
%TO.C,J3*%
X126030000Y-80701000D03*
D19*
X128570000Y-80701000D03*
X126030000Y-83241000D03*
X128570000Y-83241000D03*
X126030000Y-85781000D03*
X128570000Y-85781000D03*
X126030000Y-88321000D03*
X128570000Y-88321000D03*
X126030000Y-90861000D03*
X128570000Y-90861000D03*
X126030000Y-93401000D03*
X128570000Y-93401000D03*
%TD*%
D13*
%TO.C,H2*%
X131000000Y-66400000D03*
D14*
X131000000Y-64000000D03*
D13*
X132697056Y-65697056D03*
X129302944Y-65697056D03*
X128600000Y-64000000D03*
X133400000Y-64000000D03*
X132697056Y-62302944D03*
X129302944Y-62302944D03*
X131000000Y-61600000D03*
%TD*%
M02*
