M48
; DRILL file {KiCad (6.0.9-0)} date 2024 November 07, Thursday 12:29:55
; FORMAT={-:-/ absolute / inch / decimal}
; #@! TF.CreationDate,2024-11-07T12:29:55+01:00
; #@! TF.GenerationSoftware,Kicad,Pcbnew,(6.0.9-0)
; #@! TF.FileFunction,Plated,1,4,PTH
FMAT,2
INCH
; #@! TA.AperFunction,Plated,PTH,ViaDrill
T1C0.0118
; #@! TA.AperFunction,Plated,PTH,ComponentDrill
T2C0.0394
; #@! TA.AperFunction,Plated,PTH,ComponentDrill
T3C0.1260
%
G90
G05
T1
X1.945Y-3.055
X2.0272Y-2.5472
X2.0308Y-2.655
X2.06Y-2.3034
X2.0609Y-2.3592
X2.085Y-2.655
X2.085Y-2.8515
X2.085Y-2.9026
X2.09Y-2.095
X2.09Y-2.1506
X2.165Y-2.75
X2.1694Y-2.9744
X2.1787Y-3.195
X2.19Y-3.285
X2.19Y-3.32
X2.205Y-2.485
X2.2075Y-2.525
X2.24Y-1.98
X2.24Y-2.745
X2.255Y-1.69
X2.2707Y-2.9744
X2.2819Y-2.945
X2.2997Y-3.5294
X2.305Y-3.27
X2.315Y-3.105
X2.3502Y-1.885
X2.36Y-1.64
X2.39Y-1.885
X2.3902Y-3.599
X2.3932Y-2.7715
X2.405Y-3.63
X2.4081Y-2.3671
X2.4103Y-2.7994
X2.4176Y-3.5256
X2.4206Y-3.5806
X2.425Y-2.77
X2.43Y-3.055
X2.4368Y-2.7338
X2.445Y-2.275
X2.445Y-2.37
X2.4483Y-3.465
X2.4491Y-3.526
X2.4675Y-2.7262
X2.4775Y-3.4975
X2.4797Y-2.27
X2.48Y-1.685
X2.5Y-2.085
X2.515Y-3.23
X2.5275Y-2.73
X2.555Y-3.22
X2.56Y-2.73
X2.585Y-1.85
X2.59Y-2.855
X2.593Y-1.8864
X2.595Y-1.64
X2.6Y-2.4914
X2.605Y-2.5386
X2.605Y-2.58
X2.6198Y-2.7297
X2.62Y-2.7656
X2.62Y-3.63
X2.635Y-3.66
X2.67Y-2.365
X2.7Y-3.335
X2.78Y-2.945
X2.79Y-1.935
X2.79Y-3.095
X2.85Y-2.755
X2.87Y-1.89
X2.94Y-3.645
T2
X2.0Y-2.0
X2.0Y-2.1
X2.0Y-2.2
X2.0Y-2.3
X2.0Y-2.4
X2.0Y-2.5
X2.0Y-2.6
X2.0Y-2.7
X2.0Y-2.8
X2.0Y-2.9
X2.0Y-3.0
X2.0Y-3.1
X2.0Y-3.2
X2.0Y-3.3
X2.0Y-3.4
X2.0Y-3.5
X2.0Y-3.6
X2.0Y-3.7
X2.9Y-2.0
X2.9Y-2.1
X2.9Y-2.2
X2.9Y-2.3
X2.9Y-2.4
X2.9Y-2.5
X2.9Y-2.6
X2.9Y-2.7
X2.9Y-2.8
X2.9Y-2.9
X2.9Y-3.0
X2.9Y-3.1
X2.9Y-3.2
X2.9Y-3.3
X2.9Y-3.4
X2.9Y-3.5
X2.9Y-3.6
X2.9Y-3.7
T3
X2.1Y-3.9
X2.8Y-3.9
T0
M30
