%TF.GenerationSoftware,KiCad,Pcbnew,(6.0.9-0)*%
%TF.CreationDate,2024-11-07T12:29:55+01:00*%
%TF.ProjectId,vca-board,7663612d-626f-4617-9264-2e6b69636164,rev?*%
%TF.SameCoordinates,Original*%
%TF.FileFunction,Soldermask,Bot*%
%TF.FilePolarity,Negative*%
%FSLAX46Y46*%
G04 Gerber Fmt 4.6, Leading zero omitted, Abs format (unit mm)*
G04 Created by KiCad (PCBNEW (6.0.9-0)) date 2024-11-07 12:29:55*
%MOMM*%
%LPD*%
G01*
G04 APERTURE LIST*
%ADD10C,5.500000*%
%ADD11C,3.200000*%
%ADD12O,1.700000X1.700000*%
%ADD13R,1.700000X1.700000*%
G04 APERTURE END LIST*
D10*
%TO.C,H3*%
X53340000Y-99060000D03*
%TD*%
D11*
%TO.C,H4*%
X71120000Y-45720000D03*
%TD*%
%TO.C,H2*%
X53340000Y-45720000D03*
%TD*%
D10*
%TO.C,H1*%
X71120000Y-99060000D03*
%TD*%
D12*
%TO.C,J2*%
X73660000Y-93980000D03*
X73660000Y-91440000D03*
X73660000Y-88900000D03*
X73660000Y-86360000D03*
X73660000Y-83820000D03*
X73660000Y-81280000D03*
X73660000Y-78740000D03*
X73660000Y-76200000D03*
X73660000Y-73660000D03*
X73660000Y-71120000D03*
X73660000Y-68580000D03*
X73660000Y-66040000D03*
X73660000Y-63500000D03*
X73660000Y-60960000D03*
X73660000Y-58420000D03*
X73660000Y-55880000D03*
X73660000Y-53340000D03*
D13*
X73660000Y-50800000D03*
%TD*%
D12*
%TO.C,J1*%
X50800000Y-93980000D03*
X50800000Y-91440000D03*
X50800000Y-88900000D03*
X50800000Y-86360000D03*
X50800000Y-83820000D03*
X50800000Y-81280000D03*
X50800000Y-78740000D03*
X50800000Y-76200000D03*
X50800000Y-73660000D03*
X50800000Y-71120000D03*
X50800000Y-68580000D03*
X50800000Y-66040000D03*
X50800000Y-63500000D03*
X50800000Y-60960000D03*
X50800000Y-58420000D03*
X50800000Y-55880000D03*
X50800000Y-53340000D03*
D13*
X50800000Y-50800000D03*
%TD*%
M02*
