%TF.GenerationSoftware,KiCad,Pcbnew,(6.0.9-0)*%
%TF.CreationDate,2024-11-07T12:08:30+01:00*%
%TF.ProjectId,vca-board,7663612d-626f-4617-9264-2e6b69636164,rev?*%
%TF.SameCoordinates,Original*%
%TF.FileFunction,Soldermask,Top*%
%TF.FilePolarity,Negative*%
%FSLAX46Y46*%
G04 Gerber Fmt 4.6, Leading zero omitted, Abs format (unit mm)*
G04 Created by KiCad (PCBNEW (6.0.9-0)) date 2024-11-07 12:08:30*
%MOMM*%
%LPD*%
G01*
G04 APERTURE LIST*
G04 Aperture macros list*
%AMRoundRect*
0 Rectangle with rounded corners*
0 $1 Rounding radius*
0 $2 $3 $4 $5 $6 $7 $8 $9 X,Y pos of 4 corners*
0 Add a 4 corners polygon primitive as box body*
4,1,4,$2,$3,$4,$5,$6,$7,$8,$9,$2,$3,0*
0 Add four circle primitives for the rounded corners*
1,1,$1+$1,$2,$3*
1,1,$1+$1,$4,$5*
1,1,$1+$1,$6,$7*
1,1,$1+$1,$8,$9*
0 Add four rect primitives between the rounded corners*
20,1,$1+$1,$2,$3,$4,$5,0*
20,1,$1+$1,$4,$5,$6,$7,0*
20,1,$1+$1,$6,$7,$8,$9,0*
20,1,$1+$1,$8,$9,$2,$3,0*%
G04 Aperture macros list end*
%ADD10R,1.200000X0.900000*%
%ADD11RoundRect,0.237500X-0.237500X0.300000X-0.237500X-0.300000X0.237500X-0.300000X0.237500X0.300000X0*%
%ADD12RoundRect,0.237500X-0.237500X0.250000X-0.237500X-0.250000X0.237500X-0.250000X0.237500X0.250000X0*%
%ADD13RoundRect,0.237500X0.237500X-0.250000X0.237500X0.250000X-0.237500X0.250000X-0.237500X-0.250000X0*%
%ADD14C,5.500000*%
%ADD15C,3.200000*%
%ADD16RoundRect,0.237500X-0.250000X-0.237500X0.250000X-0.237500X0.250000X0.237500X-0.250000X0.237500X0*%
%ADD17RoundRect,0.250000X0.425000X-0.537500X0.425000X0.537500X-0.425000X0.537500X-0.425000X-0.537500X0*%
%ADD18RoundRect,0.150000X0.825000X0.150000X-0.825000X0.150000X-0.825000X-0.150000X0.825000X-0.150000X0*%
%ADD19RoundRect,0.150000X-0.825000X-0.150000X0.825000X-0.150000X0.825000X0.150000X-0.825000X0.150000X0*%
%ADD20RoundRect,0.237500X0.237500X-0.300000X0.237500X0.300000X-0.237500X0.300000X-0.237500X-0.300000X0*%
%ADD21RoundRect,0.150000X-0.150000X0.825000X-0.150000X-0.825000X0.150000X-0.825000X0.150000X0.825000X0*%
%ADD22R,0.900000X1.200000*%
%ADD23RoundRect,0.237500X-0.300000X-0.237500X0.300000X-0.237500X0.300000X0.237500X-0.300000X0.237500X0*%
%ADD24R,1.700000X1.700000*%
%ADD25O,1.700000X1.700000*%
G04 APERTURE END LIST*
D10*
%TO.C,D3*%
X67818000Y-57508500D03*
X67818000Y-60808500D03*
%TD*%
D11*
%TO.C,C8*%
X70866000Y-57303500D03*
X70866000Y-59028500D03*
%TD*%
D12*
%TO.C,R36*%
X54356000Y-76153000D03*
X54356000Y-77978000D03*
%TD*%
%TO.C,R26*%
X70866000Y-50014500D03*
X70866000Y-51839500D03*
%TD*%
D13*
%TO.C,R34*%
X54356000Y-60706000D03*
X54356000Y-58881000D03*
%TD*%
D14*
%TO.C,H3*%
X53340000Y-99060000D03*
%TD*%
D15*
%TO.C,H4*%
X71120000Y-45720000D03*
%TD*%
D16*
%TO.C,R10*%
X61317500Y-102616000D03*
X63142500Y-102616000D03*
%TD*%
D13*
%TO.C,R22*%
X67818000Y-50800000D03*
X67818000Y-48975000D03*
%TD*%
D17*
%TO.C,C15*%
X64008000Y-46903500D03*
X64008000Y-44028500D03*
%TD*%
D11*
%TO.C,C10*%
X56896000Y-51184000D03*
X56896000Y-52909000D03*
%TD*%
D12*
%TO.C,R28*%
X54356000Y-72089000D03*
X54356000Y-73914000D03*
%TD*%
D13*
%TO.C,R30*%
X70866000Y-62761500D03*
X70866000Y-60936500D03*
%TD*%
D18*
%TO.C,U2*%
X64705000Y-94742000D03*
X64705000Y-93472000D03*
X64705000Y-92202000D03*
X64705000Y-90932000D03*
X64705000Y-89662000D03*
X64705000Y-88392000D03*
X64705000Y-87122000D03*
X59755000Y-87122000D03*
X59755000Y-88392000D03*
X59755000Y-89662000D03*
X59755000Y-90932000D03*
X59755000Y-92202000D03*
X59755000Y-93472000D03*
X59755000Y-94742000D03*
%TD*%
D19*
%TO.C,U4*%
X59755000Y-60555500D03*
X59755000Y-61825500D03*
X59755000Y-63095500D03*
X59755000Y-64365500D03*
X59755000Y-65635500D03*
X59755000Y-66905500D03*
X59755000Y-68175500D03*
X64705000Y-68175500D03*
X64705000Y-66905500D03*
X64705000Y-65635500D03*
X64705000Y-64365500D03*
X64705000Y-63095500D03*
X64705000Y-61825500D03*
X64705000Y-60555500D03*
%TD*%
D11*
%TO.C,C9*%
X54356000Y-55248000D03*
X54356000Y-56973000D03*
%TD*%
D12*
%TO.C,R13*%
X66802000Y-41656000D03*
X66802000Y-43481000D03*
%TD*%
D10*
%TO.C,D4*%
X67818000Y-52428500D03*
X67818000Y-55728500D03*
%TD*%
D15*
%TO.C,H2*%
X53340000Y-45720000D03*
%TD*%
D20*
%TO.C,C12*%
X67818000Y-68379500D03*
X67818000Y-66654500D03*
%TD*%
D13*
%TO.C,R3*%
X54356000Y-86360000D03*
X54356000Y-84535000D03*
%TD*%
D12*
%TO.C,R23*%
X54356000Y-51157500D03*
X54356000Y-52982500D03*
%TD*%
D20*
%TO.C,C2*%
X56896000Y-90374000D03*
X56896000Y-88649000D03*
%TD*%
D21*
%TO.C,U1*%
X67691000Y-75098500D03*
X66421000Y-75098500D03*
X65151000Y-75098500D03*
X63881000Y-75098500D03*
X62611000Y-75098500D03*
X61341000Y-75098500D03*
X60071000Y-75098500D03*
X58801000Y-75098500D03*
X58801000Y-80048500D03*
X60071000Y-80048500D03*
X61341000Y-80048500D03*
X62611000Y-80048500D03*
X63881000Y-80048500D03*
X65151000Y-80048500D03*
X66421000Y-80048500D03*
X67691000Y-80048500D03*
%TD*%
D20*
%TO.C,C1*%
X54356000Y-81992000D03*
X54356000Y-80267000D03*
%TD*%
D12*
%TO.C,R35*%
X56896000Y-66604500D03*
X56896000Y-68429500D03*
%TD*%
D22*
%TO.C,D6*%
X62610000Y-70461500D03*
X59310000Y-70461500D03*
%TD*%
D19*
%TO.C,U3*%
X59755000Y-49125500D03*
X59755000Y-50395500D03*
X59755000Y-51665500D03*
X59755000Y-52935500D03*
X59755000Y-54205500D03*
X59755000Y-55475500D03*
X59755000Y-56745500D03*
X64705000Y-56745500D03*
X64705000Y-55475500D03*
X64705000Y-54205500D03*
X64705000Y-52935500D03*
X64705000Y-51665500D03*
X64705000Y-50395500D03*
X64705000Y-49125500D03*
%TD*%
D20*
%TO.C,C19*%
X56896000Y-76404000D03*
X56896000Y-74679000D03*
%TD*%
D10*
%TO.C,D5*%
X53848000Y-66525500D03*
X53848000Y-69825500D03*
%TD*%
D20*
%TO.C,C7*%
X65024000Y-72694500D03*
X65024000Y-70969500D03*
%TD*%
D13*
%TO.C,R19*%
X67818000Y-64389000D03*
X67818000Y-62564000D03*
%TD*%
D11*
%TO.C,C11*%
X56896000Y-70615000D03*
X56896000Y-72340000D03*
%TD*%
D12*
%TO.C,R16*%
X70866000Y-79605500D03*
X70866000Y-81430500D03*
%TD*%
%TO.C,R24*%
X56896000Y-55198000D03*
X56896000Y-57023000D03*
%TD*%
D10*
%TO.C,D1*%
X70612000Y-77088000D03*
X70612000Y-73788000D03*
%TD*%
D20*
%TO.C,C13*%
X56896000Y-60656000D03*
X56896000Y-58931000D03*
%TD*%
D23*
%TO.C,C14*%
X62637500Y-41910000D03*
X64362500Y-41910000D03*
%TD*%
D20*
%TO.C,C18*%
X67818000Y-84786000D03*
X67818000Y-83061000D03*
%TD*%
D13*
%TO.C,R31*%
X54356000Y-64516000D03*
X54356000Y-62691000D03*
%TD*%
D12*
%TO.C,R29*%
X70866000Y-64873500D03*
X70866000Y-66698500D03*
%TD*%
%TO.C,R12*%
X66802000Y-45315500D03*
X66802000Y-47140500D03*
%TD*%
%TO.C,R2*%
X60706000Y-41656000D03*
X60706000Y-43481000D03*
%TD*%
%TO.C,R4*%
X56896000Y-78693000D03*
X56896000Y-80518000D03*
%TD*%
D13*
%TO.C,R7*%
X65024000Y-84836000D03*
X65024000Y-83011000D03*
%TD*%
D12*
%TO.C,R5*%
X54356000Y-88599000D03*
X54356000Y-90424000D03*
%TD*%
D23*
%TO.C,C16*%
X56795500Y-41910000D03*
X58520500Y-41910000D03*
%TD*%
D12*
%TO.C,R9*%
X54356000Y-93171000D03*
X54356000Y-94996000D03*
%TD*%
D14*
%TO.C,H1*%
X71120000Y-99060000D03*
%TD*%
D11*
%TO.C,C5*%
X70866000Y-93167500D03*
X70866000Y-94892500D03*
%TD*%
D12*
%TO.C,R1*%
X60706000Y-45315500D03*
X60706000Y-47140500D03*
%TD*%
%TO.C,R17*%
X70866000Y-69295000D03*
X70866000Y-71120000D03*
%TD*%
D13*
%TO.C,R20*%
X70866000Y-55395500D03*
X70866000Y-53570500D03*
%TD*%
D11*
%TO.C,C20*%
X56896000Y-62640500D03*
X56896000Y-64365500D03*
%TD*%
D13*
%TO.C,R8*%
X62230000Y-84836000D03*
X62230000Y-83011000D03*
%TD*%
D12*
%TO.C,R14*%
X67818000Y-94695000D03*
X67818000Y-96520000D03*
%TD*%
D16*
%TO.C,R25*%
X63349500Y-58650500D03*
X65174500Y-58650500D03*
%TD*%
D20*
%TO.C,C6*%
X67818000Y-92683500D03*
X67818000Y-90958500D03*
%TD*%
D16*
%TO.C,R21*%
X59285500Y-58650500D03*
X61110500Y-58650500D03*
%TD*%
D13*
%TO.C,R6*%
X56896000Y-84836000D03*
X56896000Y-83011000D03*
%TD*%
D12*
%TO.C,R18*%
X67818000Y-70946000D03*
X67818000Y-72771000D03*
%TD*%
D11*
%TO.C,C3*%
X59690000Y-83061000D03*
X59690000Y-84786000D03*
%TD*%
D12*
%TO.C,R11*%
X70866000Y-89408000D03*
X70866000Y-91233000D03*
%TD*%
D13*
%TO.C,R15*%
X67818000Y-88900000D03*
X67818000Y-87075000D03*
%TD*%
D17*
%TO.C,C17*%
X58166000Y-46903500D03*
X58166000Y-44028500D03*
%TD*%
D16*
%TO.C,R27*%
X59285500Y-72747500D03*
X61110500Y-72747500D03*
%TD*%
D20*
%TO.C,C4*%
X56896000Y-94946000D03*
X56896000Y-93221000D03*
%TD*%
D24*
%TO.C,J2*%
X73660000Y-50800000D03*
D25*
X73660000Y-53340000D03*
X73660000Y-55880000D03*
X73660000Y-58420000D03*
X73660000Y-60960000D03*
X73660000Y-63500000D03*
X73660000Y-66040000D03*
X73660000Y-68580000D03*
X73660000Y-71120000D03*
X73660000Y-73660000D03*
X73660000Y-76200000D03*
X73660000Y-78740000D03*
X73660000Y-81280000D03*
X73660000Y-83820000D03*
X73660000Y-86360000D03*
X73660000Y-88900000D03*
X73660000Y-91440000D03*
X73660000Y-93980000D03*
%TD*%
D24*
%TO.C,J1*%
X50800000Y-50800000D03*
D25*
X50800000Y-53340000D03*
X50800000Y-55880000D03*
X50800000Y-58420000D03*
X50800000Y-60960000D03*
X50800000Y-63500000D03*
X50800000Y-66040000D03*
X50800000Y-68580000D03*
X50800000Y-71120000D03*
X50800000Y-73660000D03*
X50800000Y-76200000D03*
X50800000Y-78740000D03*
X50800000Y-81280000D03*
X50800000Y-83820000D03*
X50800000Y-86360000D03*
X50800000Y-88900000D03*
X50800000Y-91440000D03*
X50800000Y-93980000D03*
%TD*%
M02*
