%TF.GenerationSoftware,KiCad,Pcbnew,(6.0.9-0)*%
%TF.CreationDate,2024-06-20T10:35:51+02:00*%
%TF.ProjectId,filter-board,66696c74-6572-42d6-926f-6172642e6b69,rev?*%
%TF.SameCoordinates,Original*%
%TF.FileFunction,Copper,L2,Inr*%
%TF.FilePolarity,Positive*%
%FSLAX46Y46*%
G04 Gerber Fmt 4.6, Leading zero omitted, Abs format (unit mm)*
G04 Created by KiCad (PCBNEW (6.0.9-0)) date 2024-06-20 10:35:51*
%MOMM*%
%LPD*%
G01*
G04 APERTURE LIST*
%TA.AperFunction,ComponentPad*%
%ADD10C,5.500000*%
%TD*%
%TA.AperFunction,ComponentPad*%
%ADD11R,1.700000X1.700000*%
%TD*%
%TA.AperFunction,ComponentPad*%
%ADD12O,1.700000X1.700000*%
%TD*%
%TA.AperFunction,ViaPad*%
%ADD13C,0.600000*%
%TD*%
G04 APERTURE END LIST*
D10*
%TO.N,/GND*%
%TO.C,H3*%
X76200000Y-93980000D03*
%TD*%
%TO.N,/GND*%
%TO.C,H1*%
X53340000Y-93980000D03*
%TD*%
D11*
%TO.N,/+9V*%
%TO.C,J1*%
X50800000Y-50800000D03*
D12*
%TO.N,/GND*%
X50800000Y-53340000D03*
%TO.N,/+4.5V*%
X50800000Y-55880000D03*
%TO.N,/In*%
X50800000Y-58420000D03*
%TO.N,/GND*%
X50800000Y-60960000D03*
%TO.N,/Freq_CV*%
X50800000Y-63500000D03*
%TO.N,/Res_CV*%
X50800000Y-66040000D03*
%TO.N,/GND*%
X50800000Y-68580000D03*
%TO.N,/HP*%
X50800000Y-71120000D03*
%TO.N,/UBP*%
X50800000Y-73660000D03*
%TO.N,/GND*%
X50800000Y-76200000D03*
%TO.N,/LBP*%
X50800000Y-78740000D03*
%TO.N,/LP*%
X50800000Y-81280000D03*
%TO.N,/GND*%
X50800000Y-83820000D03*
%TD*%
D11*
%TO.N,/+9V*%
%TO.C,J2*%
X78740000Y-50800000D03*
D12*
%TO.N,/GND*%
X78740000Y-53340000D03*
%TO.N,/+4.5V*%
X78740000Y-55880000D03*
%TO.N,/In*%
X78740000Y-58420000D03*
%TO.N,/GND*%
X78740000Y-60960000D03*
%TO.N,/Freq_CV*%
X78740000Y-63500000D03*
%TO.N,/Res_CV*%
X78740000Y-66040000D03*
%TO.N,/GND*%
X78740000Y-68580000D03*
%TO.N,/HP*%
X78740000Y-71120000D03*
%TO.N,/UBP*%
X78740000Y-73660000D03*
%TO.N,/GND*%
X78740000Y-76200000D03*
%TO.N,/LBP*%
X78740000Y-78740000D03*
%TO.N,/LP*%
X78740000Y-81280000D03*
%TO.N,/GND*%
X78740000Y-83820000D03*
%TD*%
D13*
%TO.N,/GND*%
X58621000Y-48313000D03*
X72009000Y-54102000D03*
X70104000Y-42418000D03*
X63355289Y-67189616D03*
X53848000Y-57277000D03*
X55118000Y-81661000D03*
X54864000Y-63754000D03*
X57912000Y-85090000D03*
X68707000Y-83820000D03*
X70866000Y-69215000D03*
X58928000Y-63260500D03*
X64149767Y-51703767D03*
X66040000Y-55118000D03*
X75946000Y-60071000D03*
X71896500Y-73533000D03*
X58039000Y-82423000D03*
X58166000Y-49784000D03*
X60465378Y-70358000D03*
X60706000Y-59309000D03*
X66096478Y-67174810D03*
X58674000Y-78867000D03*
X54868437Y-77824375D03*
X73660000Y-89662000D03*
X64516000Y-72644000D03*
X66069500Y-60960000D03*
X62992000Y-65659000D03*
X60452000Y-85090000D03*
X53848000Y-51943000D03*
X65786000Y-50050500D03*
X55626000Y-60960000D03*
X63793235Y-80264000D03*
X75692000Y-77597000D03*
X64770000Y-60960000D03*
X70712945Y-59277896D03*
X65862500Y-69821000D03*
X66040000Y-65659000D03*
X67310000Y-77470000D03*
X60452000Y-80899000D03*
X58420000Y-75438000D03*
X63793235Y-82281500D03*
X74930000Y-51816000D03*
%TO.N,/+5.35V*%
X56642000Y-60960000D03*
X64008000Y-61341000D03*
%TO.N,/+4.5V*%
X65278000Y-55880000D03*
%TO.N,/+5.35V_Buf*%
X53848000Y-52742503D03*
X63920053Y-52509415D03*
%TO.N,/+4.5V_Buf*%
X70104000Y-43434000D03*
X77449624Y-75544624D03*
X62865000Y-82079500D03*
X58674000Y-78067497D03*
X54737000Y-78613000D03*
X70744194Y-60076787D03*
X71209497Y-54102000D03*
X72794500Y-89765500D03*
X75692000Y-78613000D03*
X75946000Y-51562000D03*
X57531000Y-75438000D03*
X55193750Y-80696250D03*
X69506503Y-83820000D03*
X64770000Y-61759503D03*
%TO.N,/+9V*%
X50800000Y-85471000D03*
X58180500Y-63754000D03*
X58166000Y-50800000D03*
X55753000Y-63754000D03*
X58700500Y-83057500D03*
X75946000Y-60870503D03*
X60706000Y-60325000D03*
%TO.N,Net-(C13-Pad1)*%
X65424426Y-67772682D03*
X65024000Y-65532000D03*
%TO.N,Net-(C15-Pad1)*%
X65532000Y-72644000D03*
X71247000Y-72644000D03*
%TO.N,/LBP*%
X70954000Y-79590000D03*
%TO.N,/CV Processing/Freq_CV_Biased*%
X66598998Y-70132086D03*
X61595000Y-70014500D03*
X79756000Y-69850000D03*
%TO.N,/CV Processing/Res_CV_Biased*%
X64262000Y-67818000D03*
X64008000Y-65469500D03*
%TO.N,Net-(R15-Pad2)*%
X57404000Y-85852000D03*
X60833000Y-85979000D03*
%TO.N,Net-(R29-Pad2)*%
X65151000Y-81280000D03*
X63500000Y-81280000D03*
%TD*%
%TA.AperFunction,Conductor*%
%TO.N,/GND*%
G36*
X76170018Y-36070000D02*
G01*
X76184851Y-36072310D01*
X76184855Y-36072310D01*
X76193724Y-36073691D01*
X76214183Y-36071016D01*
X76236008Y-36070072D01*
X76592937Y-36085656D01*
X76603886Y-36086614D01*
X76988379Y-36137233D01*
X76999205Y-36139142D01*
X77377822Y-36223080D01*
X77388439Y-36225925D01*
X77558702Y-36279608D01*
X77758302Y-36342542D01*
X77768615Y-36346295D01*
X78126932Y-36494715D01*
X78136876Y-36499353D01*
X78480867Y-36678423D01*
X78490387Y-36683919D01*
X78817468Y-36892292D01*
X78826472Y-36898597D01*
X79134138Y-37134678D01*
X79142558Y-37141743D01*
X79428483Y-37403744D01*
X79436256Y-37411517D01*
X79698257Y-37697442D01*
X79705322Y-37705862D01*
X79941403Y-38013528D01*
X79947708Y-38022532D01*
X80156081Y-38349613D01*
X80161576Y-38359132D01*
X80293193Y-38611964D01*
X80340643Y-38703115D01*
X80345285Y-38713068D01*
X80467895Y-39009074D01*
X80493702Y-39071377D01*
X80497458Y-39081698D01*
X80533680Y-39196579D01*
X80614075Y-39451561D01*
X80616920Y-39462178D01*
X80700858Y-39840795D01*
X80702767Y-39851621D01*
X80753386Y-40236114D01*
X80754344Y-40247063D01*
X80765521Y-40503049D01*
X80769603Y-40596552D01*
X80768223Y-40621429D01*
X80766309Y-40633724D01*
X80767473Y-40642626D01*
X80767473Y-40642628D01*
X80770436Y-40665283D01*
X80771500Y-40681621D01*
X80771500Y-69562583D01*
X80751498Y-69630704D01*
X80697842Y-69677197D01*
X80627568Y-69687301D01*
X80562988Y-69657807D01*
X80526509Y-69604020D01*
X80492064Y-69505106D01*
X80492062Y-69505103D01*
X80489745Y-69498448D01*
X80431098Y-69404592D01*
X80397359Y-69350598D01*
X80393626Y-69344624D01*
X80332656Y-69283227D01*
X80270778Y-69220915D01*
X80270774Y-69220912D01*
X80265815Y-69215918D01*
X80254697Y-69208862D01*
X80118621Y-69122506D01*
X80118620Y-69122506D01*
X80112666Y-69118727D01*
X80106852Y-69116657D01*
X80054652Y-69069052D01*
X80036385Y-69000446D01*
X80041785Y-68967015D01*
X80070379Y-68872903D01*
X80072555Y-68862837D01*
X80073986Y-68851962D01*
X80071775Y-68837778D01*
X80058617Y-68834000D01*
X77423225Y-68834000D01*
X77409694Y-68837973D01*
X77408257Y-68847966D01*
X77438565Y-68982446D01*
X77441645Y-68992275D01*
X77521770Y-69189603D01*
X77526413Y-69198794D01*
X77637694Y-69380388D01*
X77643777Y-69388699D01*
X77783213Y-69549667D01*
X77790580Y-69556883D01*
X77954434Y-69692916D01*
X77962881Y-69698831D01*
X78031969Y-69739203D01*
X78080693Y-69790842D01*
X78093764Y-69860625D01*
X78067033Y-69926396D01*
X78026584Y-69959752D01*
X78013607Y-69966507D01*
X78009474Y-69969610D01*
X78009471Y-69969612D01*
X77841989Y-70095361D01*
X77834965Y-70100635D01*
X77680629Y-70262138D01*
X77677715Y-70266410D01*
X77677714Y-70266411D01*
X77612646Y-70361797D01*
X77554743Y-70446680D01*
X77515320Y-70531611D01*
X77470341Y-70628510D01*
X77460688Y-70649305D01*
X77400989Y-70864570D01*
X77377251Y-71086695D01*
X77377548Y-71091848D01*
X77377548Y-71091851D01*
X77383011Y-71186590D01*
X77390110Y-71309715D01*
X77391247Y-71314761D01*
X77391248Y-71314767D01*
X77411119Y-71402939D01*
X77439222Y-71527639D01*
X77523266Y-71734616D01*
X77525965Y-71739020D01*
X77631668Y-71911512D01*
X77639987Y-71925088D01*
X77786250Y-72093938D01*
X77958126Y-72236632D01*
X78026030Y-72276312D01*
X78031445Y-72279476D01*
X78080169Y-72331114D01*
X78093240Y-72400897D01*
X78066509Y-72466669D01*
X78026055Y-72500027D01*
X78013607Y-72506507D01*
X78009474Y-72509610D01*
X78009471Y-72509612D01*
X77845613Y-72632640D01*
X77834965Y-72640635D01*
X77680629Y-72802138D01*
X77554743Y-72986680D01*
X77460688Y-73189305D01*
X77400989Y-73404570D01*
X77377251Y-73626695D01*
X77377548Y-73631848D01*
X77377548Y-73631851D01*
X77383011Y-73726590D01*
X77390110Y-73849715D01*
X77391247Y-73854761D01*
X77391248Y-73854767D01*
X77411119Y-73942939D01*
X77439222Y-74067639D01*
X77523266Y-74274616D01*
X77639987Y-74465088D01*
X77643371Y-74468994D01*
X77643372Y-74468996D01*
X77704917Y-74540046D01*
X77734400Y-74604631D01*
X77724285Y-74674903D01*
X77677784Y-74728552D01*
X77609660Y-74748543D01*
X77594761Y-74747657D01*
X77495571Y-74735830D01*
X77455304Y-74731028D01*
X77448301Y-74731764D01*
X77448300Y-74731764D01*
X77281912Y-74749252D01*
X77281910Y-74749253D01*
X77274912Y-74749988D01*
X77103203Y-74808442D01*
X77069410Y-74829232D01*
X76954719Y-74899790D01*
X76954716Y-74899792D01*
X76948712Y-74903486D01*
X76943677Y-74908417D01*
X76943674Y-74908419D01*
X76843041Y-75006967D01*
X76819117Y-75030395D01*
X76720859Y-75182862D01*
X76718450Y-75189482D01*
X76718448Y-75189485D01*
X76691056Y-75264744D01*
X76658821Y-75353309D01*
X76636087Y-75533264D01*
X76653787Y-75713784D01*
X76711042Y-75885897D01*
X76714689Y-75891919D01*
X76714690Y-75891921D01*
X76782494Y-76003879D01*
X76805004Y-76041048D01*
X76809893Y-76046111D01*
X76809894Y-76046112D01*
X76851965Y-76089677D01*
X76931006Y-76171526D01*
X76963353Y-76192693D01*
X77051702Y-76250507D01*
X77082783Y-76270846D01*
X77089387Y-76273302D01*
X77089389Y-76273303D01*
X77246182Y-76331614D01*
X77246184Y-76331614D01*
X77252792Y-76334072D01*
X77273086Y-76336780D01*
X77295005Y-76339705D01*
X77359882Y-76368542D01*
X77398869Y-76427876D01*
X77401256Y-76436897D01*
X77438565Y-76602446D01*
X77441645Y-76612275D01*
X77521770Y-76809603D01*
X77526413Y-76818794D01*
X77637694Y-77000388D01*
X77643777Y-77008699D01*
X77783213Y-77169667D01*
X77790580Y-77176883D01*
X77954434Y-77312916D01*
X77962881Y-77318831D01*
X78031969Y-77359203D01*
X78080693Y-77410842D01*
X78093764Y-77480625D01*
X78067033Y-77546396D01*
X78026584Y-77579752D01*
X78013607Y-77586507D01*
X78009474Y-77589610D01*
X78009471Y-77589612D01*
X77839100Y-77717530D01*
X77834965Y-77720635D01*
X77680629Y-77882138D01*
X77554743Y-78066680D01*
X77507716Y-78167992D01*
X77475843Y-78236657D01*
X77460688Y-78269305D01*
X77400989Y-78484570D01*
X77377251Y-78706695D01*
X77377548Y-78711848D01*
X77377548Y-78711851D01*
X77386386Y-78865134D01*
X77390110Y-78929715D01*
X77391247Y-78934761D01*
X77391248Y-78934767D01*
X77395644Y-78954273D01*
X77439222Y-79147639D01*
X77478799Y-79245106D01*
X77515449Y-79335364D01*
X77523266Y-79354616D01*
X77639987Y-79545088D01*
X77786250Y-79713938D01*
X77958126Y-79856632D01*
X78003917Y-79883390D01*
X78031445Y-79899476D01*
X78080169Y-79951114D01*
X78093240Y-80020897D01*
X78066509Y-80086669D01*
X78026055Y-80120027D01*
X78013607Y-80126507D01*
X78009474Y-80129610D01*
X78009471Y-80129612D01*
X77839100Y-80257530D01*
X77834965Y-80260635D01*
X77831393Y-80264373D01*
X77714210Y-80386998D01*
X77680629Y-80422138D01*
X77554743Y-80606680D01*
X77460688Y-80809305D01*
X77400989Y-81024570D01*
X77377251Y-81246695D01*
X77377548Y-81251848D01*
X77377548Y-81251851D01*
X77382822Y-81343318D01*
X77390110Y-81469715D01*
X77391247Y-81474761D01*
X77391248Y-81474767D01*
X77399118Y-81509688D01*
X77439222Y-81687639D01*
X77477330Y-81781488D01*
X77520655Y-81888185D01*
X77523266Y-81894616D01*
X77525965Y-81899020D01*
X77636563Y-82079500D01*
X77639987Y-82085088D01*
X77786250Y-82253938D01*
X77958126Y-82396632D01*
X78012516Y-82428415D01*
X78031955Y-82439774D01*
X78080679Y-82491412D01*
X78093750Y-82561195D01*
X78067019Y-82626967D01*
X78026562Y-82660327D01*
X78018457Y-82664546D01*
X78009738Y-82670036D01*
X77839433Y-82797905D01*
X77831726Y-82804748D01*
X77684590Y-82958717D01*
X77678104Y-82966727D01*
X77558098Y-83142649D01*
X77553000Y-83151623D01*
X77463338Y-83344783D01*
X77459775Y-83354470D01*
X77404389Y-83554183D01*
X77405912Y-83562607D01*
X77418292Y-83566000D01*
X80058344Y-83566000D01*
X80071875Y-83562027D01*
X80073180Y-83552947D01*
X80031214Y-83385875D01*
X80027894Y-83376124D01*
X79942972Y-83180814D01*
X79938105Y-83171739D01*
X79822426Y-82992926D01*
X79816136Y-82984757D01*
X79672806Y-82827240D01*
X79665273Y-82820215D01*
X79498139Y-82688222D01*
X79489556Y-82682520D01*
X79452602Y-82662120D01*
X79402631Y-82611687D01*
X79387859Y-82542245D01*
X79412975Y-82475839D01*
X79440327Y-82449232D01*
X79491591Y-82412666D01*
X79619860Y-82321173D01*
X79697400Y-82243904D01*
X79774435Y-82167137D01*
X79778096Y-82163489D01*
X79828433Y-82093438D01*
X79905435Y-81986277D01*
X79908453Y-81982077D01*
X79935146Y-81928069D01*
X80005136Y-81786453D01*
X80005137Y-81786451D01*
X80007430Y-81781811D01*
X80072370Y-81568069D01*
X80101529Y-81346590D01*
X80101611Y-81343240D01*
X80103074Y-81283365D01*
X80103074Y-81283361D01*
X80103156Y-81280000D01*
X80084852Y-81057361D01*
X80030431Y-80840702D01*
X79941354Y-80635840D01*
X79845475Y-80487633D01*
X79822822Y-80452617D01*
X79822820Y-80452614D01*
X79820014Y-80448277D01*
X79669670Y-80283051D01*
X79665619Y-80279852D01*
X79665615Y-80279848D01*
X79498414Y-80147800D01*
X79498410Y-80147798D01*
X79494359Y-80144598D01*
X79453053Y-80121796D01*
X79403084Y-80071364D01*
X79388312Y-80001921D01*
X79413428Y-79935516D01*
X79440780Y-79908909D01*
X79484603Y-79877650D01*
X79619860Y-79781173D01*
X79778096Y-79623489D01*
X79785837Y-79612717D01*
X79905435Y-79446277D01*
X79908453Y-79442077D01*
X79916183Y-79426438D01*
X80005136Y-79246453D01*
X80005137Y-79246451D01*
X80007430Y-79241811D01*
X80056078Y-79081693D01*
X80070865Y-79033023D01*
X80070865Y-79033021D01*
X80072370Y-79028069D01*
X80101529Y-78806590D01*
X80101762Y-78797047D01*
X80103074Y-78743365D01*
X80103074Y-78743361D01*
X80103156Y-78740000D01*
X80084852Y-78517361D01*
X80030431Y-78300702D01*
X79941354Y-78095840D01*
X79901906Y-78034862D01*
X79822822Y-77912617D01*
X79822820Y-77912614D01*
X79820014Y-77908277D01*
X79669670Y-77743051D01*
X79665619Y-77739852D01*
X79665615Y-77739848D01*
X79498414Y-77607800D01*
X79498410Y-77607798D01*
X79494359Y-77604598D01*
X79452569Y-77581529D01*
X79402598Y-77531097D01*
X79387826Y-77461654D01*
X79412942Y-77395248D01*
X79440294Y-77368641D01*
X79615328Y-77243792D01*
X79623200Y-77237139D01*
X79774052Y-77086812D01*
X79780730Y-77078965D01*
X79905003Y-76906020D01*
X79910313Y-76897183D01*
X80004670Y-76706267D01*
X80008469Y-76696672D01*
X80070377Y-76492910D01*
X80072555Y-76482837D01*
X80073986Y-76471962D01*
X80071775Y-76457778D01*
X80058617Y-76454000D01*
X78612000Y-76454000D01*
X78543879Y-76433998D01*
X78497386Y-76380342D01*
X78486000Y-76328000D01*
X78486000Y-76072000D01*
X78506002Y-76003879D01*
X78559658Y-75957386D01*
X78612000Y-75946000D01*
X80058344Y-75946000D01*
X80071875Y-75942027D01*
X80073180Y-75932947D01*
X80031214Y-75765875D01*
X80027894Y-75756124D01*
X79942972Y-75560814D01*
X79938105Y-75551739D01*
X79822426Y-75372926D01*
X79816136Y-75364757D01*
X79672806Y-75207240D01*
X79665273Y-75200215D01*
X79498139Y-75068222D01*
X79489556Y-75062520D01*
X79452602Y-75042120D01*
X79402631Y-74991687D01*
X79387859Y-74922245D01*
X79412975Y-74855839D01*
X79440327Y-74829232D01*
X79468810Y-74808915D01*
X79619860Y-74701173D01*
X79675595Y-74645633D01*
X79774435Y-74547137D01*
X79778096Y-74543489D01*
X79837594Y-74460689D01*
X79905435Y-74366277D01*
X79908453Y-74362077D01*
X80007430Y-74161811D01*
X80072370Y-73948069D01*
X80101529Y-73726590D01*
X80103156Y-73660000D01*
X80084852Y-73437361D01*
X80030431Y-73220702D01*
X79941354Y-73015840D01*
X79901906Y-72954862D01*
X79822822Y-72832617D01*
X79822820Y-72832614D01*
X79820014Y-72828277D01*
X79669670Y-72663051D01*
X79665619Y-72659852D01*
X79665615Y-72659848D01*
X79498414Y-72527800D01*
X79498410Y-72527798D01*
X79494359Y-72524598D01*
X79453053Y-72501796D01*
X79403084Y-72451364D01*
X79388312Y-72381921D01*
X79413428Y-72315516D01*
X79440780Y-72288909D01*
X79484603Y-72257650D01*
X79619860Y-72161173D01*
X79647503Y-72133627D01*
X79774435Y-72007137D01*
X79778096Y-72003489D01*
X79781203Y-71999166D01*
X79905435Y-71826277D01*
X79908453Y-71822077D01*
X80007430Y-71621811D01*
X80072370Y-71408069D01*
X80101529Y-71186590D01*
X80103156Y-71120000D01*
X80084852Y-70897361D01*
X80079288Y-70875210D01*
X80041693Y-70725536D01*
X80044497Y-70654595D01*
X80085210Y-70596432D01*
X80099380Y-70586612D01*
X80241860Y-70501677D01*
X80241862Y-70501676D01*
X80247912Y-70498069D01*
X80379266Y-70372982D01*
X80479643Y-70221902D01*
X80524289Y-70104373D01*
X80527712Y-70095361D01*
X80570601Y-70038783D01*
X80637270Y-70014374D01*
X80706551Y-70029884D01*
X80756450Y-70080388D01*
X80771500Y-70140105D01*
X80771500Y-93930633D01*
X80770000Y-93950018D01*
X80767690Y-93964851D01*
X80767690Y-93964855D01*
X80766309Y-93973724D01*
X80768984Y-93994183D01*
X80769928Y-94016008D01*
X80755590Y-94344408D01*
X80754344Y-94372936D01*
X80753386Y-94383886D01*
X80702767Y-94768379D01*
X80700858Y-94779205D01*
X80616920Y-95157822D01*
X80614075Y-95168439D01*
X80497461Y-95538294D01*
X80493702Y-95548623D01*
X80345289Y-95906923D01*
X80340647Y-95916876D01*
X80249591Y-96091794D01*
X80161577Y-96260867D01*
X80156081Y-96270387D01*
X79947708Y-96597468D01*
X79941403Y-96606472D01*
X79705322Y-96914138D01*
X79698257Y-96922558D01*
X79436256Y-97208483D01*
X79428483Y-97216256D01*
X79142558Y-97478257D01*
X79134138Y-97485322D01*
X78826472Y-97721403D01*
X78817468Y-97727708D01*
X78490387Y-97936081D01*
X78480868Y-97941576D01*
X78136876Y-98120647D01*
X78126932Y-98125285D01*
X77768615Y-98273705D01*
X77758302Y-98277458D01*
X77558702Y-98340392D01*
X77388439Y-98394075D01*
X77377822Y-98396920D01*
X76999205Y-98480858D01*
X76988379Y-98482767D01*
X76603886Y-98533386D01*
X76592937Y-98534344D01*
X76243446Y-98549603D01*
X76218571Y-98548223D01*
X76206276Y-98546309D01*
X76197374Y-98547473D01*
X76197372Y-98547473D01*
X76182323Y-98549441D01*
X76174714Y-98550436D01*
X76158379Y-98551500D01*
X53389367Y-98551500D01*
X53369982Y-98550000D01*
X53355149Y-98547690D01*
X53355145Y-98547690D01*
X53346276Y-98546309D01*
X53325817Y-98548984D01*
X53303992Y-98549928D01*
X52947063Y-98534344D01*
X52936114Y-98533386D01*
X52551621Y-98482767D01*
X52540795Y-98480858D01*
X52162178Y-98396920D01*
X52151561Y-98394075D01*
X51981298Y-98340392D01*
X51781698Y-98277458D01*
X51771385Y-98273705D01*
X51413068Y-98125285D01*
X51403124Y-98120647D01*
X51059132Y-97941576D01*
X51049613Y-97936081D01*
X50722532Y-97727708D01*
X50713528Y-97721403D01*
X50405862Y-97485322D01*
X50397442Y-97478257D01*
X50111517Y-97216256D01*
X50103744Y-97208483D01*
X49841743Y-96922558D01*
X49834678Y-96914138D01*
X49598597Y-96606472D01*
X49592292Y-96597468D01*
X49504326Y-96459389D01*
X51225541Y-96459389D01*
X51233678Y-96470395D01*
X51493938Y-96670099D01*
X51499537Y-96673933D01*
X51795261Y-96853736D01*
X51801251Y-96856948D01*
X52114657Y-97003758D01*
X52120961Y-97006305D01*
X52448384Y-97118406D01*
X52454935Y-97120260D01*
X52792539Y-97196342D01*
X52799258Y-97197479D01*
X53143113Y-97236657D01*
X53149903Y-97237060D01*
X53495973Y-97238872D01*
X53502774Y-97238540D01*
X53847020Y-97202966D01*
X53853748Y-97201900D01*
X54192144Y-97129353D01*
X54198693Y-97127574D01*
X54527278Y-97018905D01*
X54533620Y-97016419D01*
X54848523Y-96872910D01*
X54854577Y-96869745D01*
X55152128Y-96693073D01*
X55157809Y-96689270D01*
X55434547Y-96481489D01*
X55439771Y-96477105D01*
X55446238Y-96471053D01*
X55453118Y-96459389D01*
X74085541Y-96459389D01*
X74093678Y-96470395D01*
X74353938Y-96670099D01*
X74359537Y-96673933D01*
X74655261Y-96853736D01*
X74661251Y-96856948D01*
X74974657Y-97003758D01*
X74980961Y-97006305D01*
X75308384Y-97118406D01*
X75314935Y-97120260D01*
X75652539Y-97196342D01*
X75659258Y-97197479D01*
X76003113Y-97236657D01*
X76009903Y-97237060D01*
X76355973Y-97238872D01*
X76362774Y-97238540D01*
X76707020Y-97202966D01*
X76713748Y-97201900D01*
X77052144Y-97129353D01*
X77058693Y-97127574D01*
X77387278Y-97018905D01*
X77393620Y-97016419D01*
X77708523Y-96872910D01*
X77714577Y-96869745D01*
X78012128Y-96693073D01*
X78017809Y-96689270D01*
X78294547Y-96481489D01*
X78299771Y-96477105D01*
X78306238Y-96471053D01*
X78314307Y-96457373D01*
X78314280Y-96456649D01*
X78309136Y-96448346D01*
X76212812Y-94352022D01*
X76198868Y-94344408D01*
X76197035Y-94344539D01*
X76190420Y-94348790D01*
X74092422Y-96446788D01*
X74085541Y-96459389D01*
X55453118Y-96459389D01*
X55454307Y-96457373D01*
X55454280Y-96456649D01*
X55449136Y-96448346D01*
X53352812Y-94352022D01*
X53338868Y-94344408D01*
X53337035Y-94344539D01*
X53330420Y-94348790D01*
X51232422Y-96446788D01*
X51225541Y-96459389D01*
X49504326Y-96459389D01*
X49383919Y-96270387D01*
X49378423Y-96260867D01*
X49290409Y-96091794D01*
X49199353Y-95916876D01*
X49194711Y-95906923D01*
X49046298Y-95548623D01*
X49042539Y-95538294D01*
X48925925Y-95168439D01*
X48923080Y-95157822D01*
X48839142Y-94779205D01*
X48837233Y-94768379D01*
X48786614Y-94383886D01*
X48785656Y-94372936D01*
X48770561Y-94027208D01*
X48772188Y-94000805D01*
X48772769Y-93997352D01*
X48772770Y-93997345D01*
X48773576Y-93992552D01*
X48773729Y-93980000D01*
X48772584Y-93972007D01*
X50077407Y-93972007D01*
X50094917Y-94317659D01*
X50095627Y-94324415D01*
X50150363Y-94666141D01*
X50151802Y-94672796D01*
X50243122Y-95006604D01*
X50245271Y-95013065D01*
X50372110Y-95335067D01*
X50374941Y-95341250D01*
X50535815Y-95647670D01*
X50539298Y-95653513D01*
X50732321Y-95940761D01*
X50736424Y-95946205D01*
X50851911Y-96083351D01*
X50864650Y-96091794D01*
X50875094Y-96085696D01*
X52967978Y-93992812D01*
X52974356Y-93981132D01*
X53704408Y-93981132D01*
X53704539Y-93982965D01*
X53708790Y-93989580D01*
X55803553Y-96084343D01*
X55817150Y-96091768D01*
X55826761Y-96085068D01*
X55922845Y-95973360D01*
X55927003Y-95967960D01*
X56123023Y-95682751D01*
X56126570Y-95676940D01*
X56290634Y-95372238D01*
X56293541Y-95366060D01*
X56423744Y-95045411D01*
X56425958Y-95038981D01*
X56520769Y-94706143D01*
X56522276Y-94699513D01*
X56580590Y-94358362D01*
X56581370Y-94351622D01*
X56602595Y-94004576D01*
X56602711Y-94000973D01*
X56602779Y-93981819D01*
X56602687Y-93978194D01*
X56602352Y-93972007D01*
X72937407Y-93972007D01*
X72954917Y-94317659D01*
X72955627Y-94324415D01*
X73010363Y-94666141D01*
X73011802Y-94672796D01*
X73103122Y-95006604D01*
X73105271Y-95013065D01*
X73232110Y-95335067D01*
X73234941Y-95341250D01*
X73395815Y-95647670D01*
X73399298Y-95653513D01*
X73592321Y-95940761D01*
X73596424Y-95946205D01*
X73711911Y-96083351D01*
X73724650Y-96091794D01*
X73735094Y-96085696D01*
X75827978Y-93992812D01*
X75834356Y-93981132D01*
X76564408Y-93981132D01*
X76564539Y-93982965D01*
X76568790Y-93989580D01*
X78663553Y-96084343D01*
X78677150Y-96091768D01*
X78686761Y-96085068D01*
X78782845Y-95973360D01*
X78787003Y-95967960D01*
X78983023Y-95682751D01*
X78986570Y-95676940D01*
X79150634Y-95372238D01*
X79153541Y-95366060D01*
X79283744Y-95045411D01*
X79285958Y-95038981D01*
X79380769Y-94706143D01*
X79382276Y-94699513D01*
X79440590Y-94358362D01*
X79441370Y-94351622D01*
X79462595Y-94004576D01*
X79462711Y-94000973D01*
X79462779Y-93981819D01*
X79462687Y-93978194D01*
X79443885Y-93631023D01*
X79443150Y-93624257D01*
X79387224Y-93282738D01*
X79385757Y-93276066D01*
X79293278Y-92942597D01*
X79291104Y-92936134D01*
X79163143Y-92614583D01*
X79160290Y-92608409D01*
X78998343Y-92302545D01*
X78994849Y-92296728D01*
X78800813Y-92010140D01*
X78796699Y-92004721D01*
X78688090Y-91876653D01*
X78675265Y-91868217D01*
X78664940Y-91874270D01*
X76572022Y-93967188D01*
X76564408Y-93981132D01*
X75834356Y-93981132D01*
X75835592Y-93978868D01*
X75835461Y-93977035D01*
X75831210Y-93970420D01*
X73736457Y-91875667D01*
X73722920Y-91868275D01*
X73713219Y-91875063D01*
X73610220Y-91995659D01*
X73606066Y-92001092D01*
X73411056Y-92286965D01*
X73407521Y-92292802D01*
X73244518Y-92598080D01*
X73241642Y-92604249D01*
X73112558Y-92925355D01*
X73110365Y-92931795D01*
X73016714Y-93264968D01*
X73015231Y-93271603D01*
X72958112Y-93612936D01*
X72957353Y-93619708D01*
X72937431Y-93965212D01*
X72937407Y-93972007D01*
X56602352Y-93972007D01*
X56583885Y-93631023D01*
X56583150Y-93624257D01*
X56527224Y-93282738D01*
X56525757Y-93276066D01*
X56433278Y-92942597D01*
X56431104Y-92936134D01*
X56303143Y-92614583D01*
X56300290Y-92608409D01*
X56138343Y-92302545D01*
X56134849Y-92296728D01*
X55940813Y-92010140D01*
X55936699Y-92004721D01*
X55828090Y-91876653D01*
X55815265Y-91868217D01*
X55804940Y-91874270D01*
X53712022Y-93967188D01*
X53704408Y-93981132D01*
X52974356Y-93981132D01*
X52975592Y-93978868D01*
X52975461Y-93977035D01*
X52971210Y-93970420D01*
X50876457Y-91875667D01*
X50862920Y-91868275D01*
X50853219Y-91875063D01*
X50750220Y-91995659D01*
X50746066Y-92001092D01*
X50551056Y-92286965D01*
X50547521Y-92292802D01*
X50384518Y-92598080D01*
X50381642Y-92604249D01*
X50252558Y-92925355D01*
X50250365Y-92931795D01*
X50156714Y-93264968D01*
X50155231Y-93271603D01*
X50098112Y-93612936D01*
X50097353Y-93619708D01*
X50077431Y-93965212D01*
X50077407Y-93972007D01*
X48772584Y-93972007D01*
X48769773Y-93952376D01*
X48768500Y-93934514D01*
X48768500Y-91502234D01*
X51225322Y-91502234D01*
X51225357Y-91503075D01*
X51230410Y-91511200D01*
X53327188Y-93607978D01*
X53341132Y-93615592D01*
X53342965Y-93615461D01*
X53349580Y-93611210D01*
X55447431Y-91513359D01*
X55453506Y-91502234D01*
X74085322Y-91502234D01*
X74085357Y-91503075D01*
X74090410Y-91511200D01*
X76187188Y-93607978D01*
X76201132Y-93615592D01*
X76202965Y-93615461D01*
X76209580Y-93611210D01*
X78307431Y-91513359D01*
X78315045Y-91499415D01*
X78314977Y-91498460D01*
X78311024Y-91492482D01*
X78036667Y-91283479D01*
X78031041Y-91279655D01*
X77734706Y-91100894D01*
X77728694Y-91097697D01*
X77414774Y-90951980D01*
X77408474Y-90949460D01*
X77080664Y-90838503D01*
X77074086Y-90836667D01*
X76736237Y-90761768D01*
X76729499Y-90760652D01*
X76385515Y-90722675D01*
X76378735Y-90722296D01*
X76032636Y-90721693D01*
X76025863Y-90722048D01*
X75681726Y-90758825D01*
X75675016Y-90759912D01*
X75336883Y-90833637D01*
X75330308Y-90835448D01*
X75002117Y-90945259D01*
X74995795Y-90947762D01*
X74681388Y-91092373D01*
X74675345Y-91095559D01*
X74378402Y-91273276D01*
X74372756Y-91277085D01*
X74096726Y-91485844D01*
X74093140Y-91488875D01*
X74085322Y-91502234D01*
X55453506Y-91502234D01*
X55455045Y-91499415D01*
X55454977Y-91498460D01*
X55451024Y-91492482D01*
X55176667Y-91283479D01*
X55171041Y-91279655D01*
X54874706Y-91100894D01*
X54868694Y-91097697D01*
X54554774Y-90951980D01*
X54548474Y-90949460D01*
X54220664Y-90838503D01*
X54214086Y-90836667D01*
X53876237Y-90761768D01*
X53869499Y-90760652D01*
X53525515Y-90722675D01*
X53518735Y-90722296D01*
X53172636Y-90721693D01*
X53165863Y-90722048D01*
X52821726Y-90758825D01*
X52815016Y-90759912D01*
X52476883Y-90833637D01*
X52470308Y-90835448D01*
X52142117Y-90945259D01*
X52135795Y-90947762D01*
X51821388Y-91092373D01*
X51815345Y-91095559D01*
X51518402Y-91273276D01*
X51512756Y-91277085D01*
X51236726Y-91485844D01*
X51233140Y-91488875D01*
X51225322Y-91502234D01*
X48768500Y-91502234D01*
X48768500Y-89754140D01*
X71980963Y-89754140D01*
X71998663Y-89934660D01*
X72055918Y-90106773D01*
X72059565Y-90112795D01*
X72059566Y-90112797D01*
X72070478Y-90130814D01*
X72149880Y-90261924D01*
X72275882Y-90392402D01*
X72427659Y-90491722D01*
X72434263Y-90494178D01*
X72434265Y-90494179D01*
X72591058Y-90552490D01*
X72591060Y-90552490D01*
X72597668Y-90554948D01*
X72681495Y-90566133D01*
X72770480Y-90578007D01*
X72770484Y-90578007D01*
X72777461Y-90578938D01*
X72784472Y-90578300D01*
X72784476Y-90578300D01*
X72926959Y-90565332D01*
X72958100Y-90562498D01*
X72964802Y-90560320D01*
X72964804Y-90560320D01*
X73123909Y-90508624D01*
X73123912Y-90508623D01*
X73130608Y-90506447D01*
X73286412Y-90413569D01*
X73417766Y-90288482D01*
X73518143Y-90137402D01*
X73582555Y-89967838D01*
X73583535Y-89960866D01*
X73607248Y-89792139D01*
X73607248Y-89792136D01*
X73607799Y-89788217D01*
X73608116Y-89765500D01*
X73587897Y-89585245D01*
X73585580Y-89578591D01*
X73530564Y-89420606D01*
X73530562Y-89420603D01*
X73528245Y-89413948D01*
X73432126Y-89260124D01*
X73418441Y-89246343D01*
X73309278Y-89136415D01*
X73309274Y-89136412D01*
X73304315Y-89131418D01*
X73293197Y-89124362D01*
X73245038Y-89093800D01*
X73151166Y-89034227D01*
X73121963Y-89023828D01*
X72986925Y-88975743D01*
X72986920Y-88975742D01*
X72980290Y-88973381D01*
X72973302Y-88972548D01*
X72973299Y-88972547D01*
X72850198Y-88957868D01*
X72800180Y-88951904D01*
X72793177Y-88952640D01*
X72793176Y-88952640D01*
X72626788Y-88970128D01*
X72626786Y-88970129D01*
X72619788Y-88970864D01*
X72448079Y-89029318D01*
X72442075Y-89033012D01*
X72299595Y-89120666D01*
X72299592Y-89120668D01*
X72293588Y-89124362D01*
X72288553Y-89129293D01*
X72288550Y-89129295D01*
X72169025Y-89246343D01*
X72163993Y-89251271D01*
X72065735Y-89403738D01*
X72063326Y-89410358D01*
X72063324Y-89410361D01*
X72006106Y-89567566D01*
X72003697Y-89574185D01*
X71980963Y-89754140D01*
X48768500Y-89754140D01*
X48768500Y-84087966D01*
X49468257Y-84087966D01*
X49498565Y-84222446D01*
X49501645Y-84232275D01*
X49581770Y-84429603D01*
X49586413Y-84438794D01*
X49697694Y-84620388D01*
X49703777Y-84628699D01*
X49843213Y-84789667D01*
X49850580Y-84796883D01*
X50014439Y-84932921D01*
X50022872Y-84938826D01*
X50024987Y-84940062D01*
X50025669Y-84940785D01*
X50027116Y-84941798D01*
X50026907Y-84942097D01*
X50073711Y-84991700D01*
X50086783Y-85061483D01*
X50074464Y-85104228D01*
X50071235Y-85109238D01*
X50054800Y-85154393D01*
X50022616Y-85242818D01*
X50009197Y-85279685D01*
X49986463Y-85459640D01*
X50004163Y-85640160D01*
X50061418Y-85812273D01*
X50065065Y-85818295D01*
X50065066Y-85818297D01*
X50082845Y-85847653D01*
X50155380Y-85967424D01*
X50160269Y-85972487D01*
X50160270Y-85972488D01*
X50213727Y-86027844D01*
X50281382Y-86097902D01*
X50357271Y-86147562D01*
X50416912Y-86186590D01*
X50433159Y-86197222D01*
X50439763Y-86199678D01*
X50439765Y-86199679D01*
X50596558Y-86257990D01*
X50596560Y-86257990D01*
X50603168Y-86260448D01*
X50686995Y-86271633D01*
X50775980Y-86283507D01*
X50775984Y-86283507D01*
X50782961Y-86284438D01*
X50789972Y-86283800D01*
X50789976Y-86283800D01*
X50932459Y-86270832D01*
X50963600Y-86267998D01*
X50970302Y-86265820D01*
X50970304Y-86265820D01*
X51129409Y-86214124D01*
X51129412Y-86214123D01*
X51136108Y-86211947D01*
X51232513Y-86154478D01*
X51285860Y-86122677D01*
X51285862Y-86122676D01*
X51291912Y-86119069D01*
X51423266Y-85993982D01*
X51523643Y-85842902D01*
X51524502Y-85840640D01*
X56590463Y-85840640D01*
X56608163Y-86021160D01*
X56665418Y-86193273D01*
X56669065Y-86199295D01*
X56669066Y-86199297D01*
X56745980Y-86326297D01*
X56759380Y-86348424D01*
X56764269Y-86353487D01*
X56764270Y-86353488D01*
X56779357Y-86369111D01*
X56885382Y-86478902D01*
X57037159Y-86578222D01*
X57043763Y-86580678D01*
X57043765Y-86580679D01*
X57200558Y-86638990D01*
X57200560Y-86638990D01*
X57207168Y-86641448D01*
X57290995Y-86652633D01*
X57379980Y-86664507D01*
X57379984Y-86664507D01*
X57386961Y-86665438D01*
X57393972Y-86664800D01*
X57393976Y-86664800D01*
X57536459Y-86651832D01*
X57567600Y-86648998D01*
X57574302Y-86646820D01*
X57574304Y-86646820D01*
X57733409Y-86595124D01*
X57733412Y-86595123D01*
X57740108Y-86592947D01*
X57895912Y-86500069D01*
X58027266Y-86374982D01*
X58127643Y-86223902D01*
X58174041Y-86101760D01*
X58189555Y-86060920D01*
X58189556Y-86060918D01*
X58192055Y-86054338D01*
X58193035Y-86047366D01*
X58204240Y-85967640D01*
X60019463Y-85967640D01*
X60037163Y-86148160D01*
X60094418Y-86320273D01*
X60098065Y-86326295D01*
X60098066Y-86326297D01*
X60127551Y-86374982D01*
X60188380Y-86475424D01*
X60193269Y-86480487D01*
X60193270Y-86480488D01*
X60214027Y-86501982D01*
X60314382Y-86605902D01*
X60466159Y-86705222D01*
X60472763Y-86707678D01*
X60472765Y-86707679D01*
X60629558Y-86765990D01*
X60629560Y-86765990D01*
X60636168Y-86768448D01*
X60719995Y-86779633D01*
X60808980Y-86791507D01*
X60808984Y-86791507D01*
X60815961Y-86792438D01*
X60822972Y-86791800D01*
X60822976Y-86791800D01*
X60965459Y-86778832D01*
X60996600Y-86775998D01*
X61003302Y-86773820D01*
X61003304Y-86773820D01*
X61162409Y-86722124D01*
X61162412Y-86722123D01*
X61169108Y-86719947D01*
X61288126Y-86648998D01*
X61318860Y-86630677D01*
X61318862Y-86630676D01*
X61324912Y-86627069D01*
X61456266Y-86501982D01*
X61556643Y-86350902D01*
X61616487Y-86193364D01*
X61618555Y-86187920D01*
X61618556Y-86187918D01*
X61621055Y-86181338D01*
X61622035Y-86174366D01*
X61645748Y-86005639D01*
X61645748Y-86005636D01*
X61646299Y-86001717D01*
X61646616Y-85979000D01*
X61626397Y-85798745D01*
X61624080Y-85792091D01*
X61569064Y-85634106D01*
X61569062Y-85634103D01*
X61566745Y-85627448D01*
X61483181Y-85493717D01*
X61474359Y-85479598D01*
X61470626Y-85473624D01*
X61464110Y-85467062D01*
X61347778Y-85349915D01*
X61347774Y-85349912D01*
X61342815Y-85344918D01*
X61331697Y-85337862D01*
X61251038Y-85286675D01*
X61189666Y-85247727D01*
X61119986Y-85222915D01*
X61025425Y-85189243D01*
X61025420Y-85189242D01*
X61018790Y-85186881D01*
X61011802Y-85186048D01*
X61011799Y-85186047D01*
X60888698Y-85171368D01*
X60838680Y-85165404D01*
X60831677Y-85166140D01*
X60831676Y-85166140D01*
X60665288Y-85183628D01*
X60665286Y-85183629D01*
X60658288Y-85184364D01*
X60486579Y-85242818D01*
X60480575Y-85246512D01*
X60338095Y-85334166D01*
X60338092Y-85334168D01*
X60332088Y-85337862D01*
X60327053Y-85342793D01*
X60327050Y-85342795D01*
X60207525Y-85459843D01*
X60202493Y-85464771D01*
X60104235Y-85617238D01*
X60101826Y-85623858D01*
X60101824Y-85623861D01*
X60081420Y-85679920D01*
X60042197Y-85787685D01*
X60019463Y-85967640D01*
X58204240Y-85967640D01*
X58216748Y-85878639D01*
X58216748Y-85878636D01*
X58217299Y-85874717D01*
X58217616Y-85852000D01*
X58197397Y-85671745D01*
X58195080Y-85665091D01*
X58140064Y-85507106D01*
X58140062Y-85507103D01*
X58137745Y-85500448D01*
X58041626Y-85346624D01*
X57979528Y-85284091D01*
X57918778Y-85222915D01*
X57918774Y-85222912D01*
X57913815Y-85217918D01*
X57902697Y-85210862D01*
X57832380Y-85166238D01*
X57760666Y-85120727D01*
X57674911Y-85090191D01*
X57596425Y-85062243D01*
X57596420Y-85062242D01*
X57589790Y-85059881D01*
X57582802Y-85059048D01*
X57582799Y-85059047D01*
X57459698Y-85044368D01*
X57409680Y-85038404D01*
X57402677Y-85039140D01*
X57402676Y-85039140D01*
X57236288Y-85056628D01*
X57236286Y-85056629D01*
X57229288Y-85057364D01*
X57089721Y-85104876D01*
X57065922Y-85112978D01*
X57057579Y-85115818D01*
X57019792Y-85139065D01*
X56909095Y-85207166D01*
X56909092Y-85207168D01*
X56903088Y-85210862D01*
X56898053Y-85215793D01*
X56898050Y-85215795D01*
X56839567Y-85273066D01*
X56773493Y-85337771D01*
X56675235Y-85490238D01*
X56672826Y-85496858D01*
X56672824Y-85496861D01*
X56618235Y-85646844D01*
X56613197Y-85660685D01*
X56590463Y-85840640D01*
X51524502Y-85840640D01*
X51588055Y-85673338D01*
X51589833Y-85660685D01*
X51612748Y-85497639D01*
X51612748Y-85497636D01*
X51613299Y-85493717D01*
X51613616Y-85471000D01*
X51593397Y-85290745D01*
X51589546Y-85279685D01*
X51550005Y-85166140D01*
X51533745Y-85119448D01*
X51530011Y-85113473D01*
X51530009Y-85113468D01*
X51529703Y-85112978D01*
X51529603Y-85112620D01*
X51526967Y-85107118D01*
X51527934Y-85106655D01*
X51510570Y-85044608D01*
X51531438Y-84976748D01*
X51563392Y-84943634D01*
X51675328Y-84863792D01*
X51683200Y-84857139D01*
X51834052Y-84706812D01*
X51840730Y-84698965D01*
X51965003Y-84526020D01*
X51970313Y-84517183D01*
X52064670Y-84326267D01*
X52068469Y-84316672D01*
X52130377Y-84112910D01*
X52132555Y-84102837D01*
X52133986Y-84091962D01*
X52131775Y-84077778D01*
X52118617Y-84074000D01*
X49483225Y-84074000D01*
X49469694Y-84077973D01*
X49468257Y-84087966D01*
X48768500Y-84087966D01*
X48768500Y-81246695D01*
X49437251Y-81246695D01*
X49437548Y-81251848D01*
X49437548Y-81251851D01*
X49442822Y-81343318D01*
X49450110Y-81469715D01*
X49451247Y-81474761D01*
X49451248Y-81474767D01*
X49459118Y-81509688D01*
X49499222Y-81687639D01*
X49537330Y-81781488D01*
X49580655Y-81888185D01*
X49583266Y-81894616D01*
X49585965Y-81899020D01*
X49696563Y-82079500D01*
X49699987Y-82085088D01*
X49846250Y-82253938D01*
X50018126Y-82396632D01*
X50072516Y-82428415D01*
X50091955Y-82439774D01*
X50140679Y-82491412D01*
X50153750Y-82561195D01*
X50127019Y-82626967D01*
X50086562Y-82660327D01*
X50078457Y-82664546D01*
X50069738Y-82670036D01*
X49899433Y-82797905D01*
X49891726Y-82804748D01*
X49744590Y-82958717D01*
X49738104Y-82966727D01*
X49618098Y-83142649D01*
X49613000Y-83151623D01*
X49523338Y-83344783D01*
X49519775Y-83354470D01*
X49464389Y-83554183D01*
X49465912Y-83562607D01*
X49478292Y-83566000D01*
X52118344Y-83566000D01*
X52131875Y-83562027D01*
X52133180Y-83552947D01*
X52091214Y-83385875D01*
X52087894Y-83376124D01*
X52002972Y-83180814D01*
X51998105Y-83171739D01*
X51916852Y-83046140D01*
X57886963Y-83046140D01*
X57904663Y-83226660D01*
X57961918Y-83398773D01*
X57965565Y-83404795D01*
X57965566Y-83404797D01*
X58008147Y-83475106D01*
X58055880Y-83553924D01*
X58060769Y-83558987D01*
X58060770Y-83558988D01*
X58075857Y-83574611D01*
X58181882Y-83684402D01*
X58333659Y-83783722D01*
X58340263Y-83786178D01*
X58340265Y-83786179D01*
X58497058Y-83844490D01*
X58497060Y-83844490D01*
X58503668Y-83846948D01*
X58587495Y-83858133D01*
X58676480Y-83870007D01*
X58676484Y-83870007D01*
X58683461Y-83870938D01*
X58690472Y-83870300D01*
X58690476Y-83870300D01*
X58832959Y-83857332D01*
X58864100Y-83854498D01*
X58870802Y-83852320D01*
X58870804Y-83852320D01*
X59005238Y-83808640D01*
X68692966Y-83808640D01*
X68710666Y-83989160D01*
X68767921Y-84161273D01*
X68771568Y-84167295D01*
X68771569Y-84167297D01*
X68782481Y-84185314D01*
X68861883Y-84316424D01*
X68987885Y-84446902D01*
X69139662Y-84546222D01*
X69146266Y-84548678D01*
X69146268Y-84548679D01*
X69303061Y-84606990D01*
X69303063Y-84606990D01*
X69309671Y-84609448D01*
X69391661Y-84620388D01*
X69482483Y-84632507D01*
X69482487Y-84632507D01*
X69489464Y-84633438D01*
X69496475Y-84632800D01*
X69496479Y-84632800D01*
X69638962Y-84619832D01*
X69670103Y-84616998D01*
X69676805Y-84614820D01*
X69676807Y-84614820D01*
X69835912Y-84563124D01*
X69835915Y-84563123D01*
X69842611Y-84560947D01*
X69998415Y-84468069D01*
X70129769Y-84342982D01*
X70230146Y-84191902D01*
X70269628Y-84087966D01*
X77408257Y-84087966D01*
X77438565Y-84222446D01*
X77441645Y-84232275D01*
X77521770Y-84429603D01*
X77526413Y-84438794D01*
X77637694Y-84620388D01*
X77643777Y-84628699D01*
X77783213Y-84789667D01*
X77790580Y-84796883D01*
X77954434Y-84932916D01*
X77962881Y-84938831D01*
X78146756Y-85046279D01*
X78156042Y-85050729D01*
X78355001Y-85126703D01*
X78364899Y-85129579D01*
X78468250Y-85150606D01*
X78482299Y-85149410D01*
X78486000Y-85139065D01*
X78486000Y-85138517D01*
X78994000Y-85138517D01*
X78998064Y-85152359D01*
X79011478Y-85154393D01*
X79018184Y-85153534D01*
X79028262Y-85151392D01*
X79232255Y-85090191D01*
X79241842Y-85086433D01*
X79433095Y-84992739D01*
X79441945Y-84987464D01*
X79615328Y-84863792D01*
X79623200Y-84857139D01*
X79774052Y-84706812D01*
X79780730Y-84698965D01*
X79905003Y-84526020D01*
X79910313Y-84517183D01*
X80004670Y-84326267D01*
X80008469Y-84316672D01*
X80070377Y-84112910D01*
X80072555Y-84102837D01*
X80073986Y-84091962D01*
X80071775Y-84077778D01*
X80058617Y-84074000D01*
X79012115Y-84074000D01*
X78996876Y-84078475D01*
X78995671Y-84079865D01*
X78994000Y-84087548D01*
X78994000Y-85138517D01*
X78486000Y-85138517D01*
X78486000Y-84092115D01*
X78481525Y-84076876D01*
X78480135Y-84075671D01*
X78472452Y-84074000D01*
X77423225Y-84074000D01*
X77409694Y-84077973D01*
X77408257Y-84087966D01*
X70269628Y-84087966D01*
X70273841Y-84076876D01*
X70292058Y-84028920D01*
X70292059Y-84028918D01*
X70294558Y-84022338D01*
X70295538Y-84015366D01*
X70319251Y-83846639D01*
X70319251Y-83846636D01*
X70319802Y-83842717D01*
X70320119Y-83820000D01*
X70299900Y-83639745D01*
X70297583Y-83633091D01*
X70242567Y-83475106D01*
X70242565Y-83475103D01*
X70240248Y-83468448D01*
X70144129Y-83314624D01*
X70130444Y-83300843D01*
X70021281Y-83190915D01*
X70021277Y-83190912D01*
X70016318Y-83185918D01*
X70008276Y-83180814D01*
X69948137Y-83142649D01*
X69863169Y-83088727D01*
X69786600Y-83061462D01*
X69698928Y-83030243D01*
X69698923Y-83030242D01*
X69692293Y-83027881D01*
X69685305Y-83027048D01*
X69685302Y-83027047D01*
X69562201Y-83012368D01*
X69512183Y-83006404D01*
X69505180Y-83007140D01*
X69505179Y-83007140D01*
X69338791Y-83024628D01*
X69338789Y-83024629D01*
X69331791Y-83025364D01*
X69160082Y-83083818D01*
X69154078Y-83087512D01*
X69011598Y-83175166D01*
X69011595Y-83175168D01*
X69005591Y-83178862D01*
X69000556Y-83183793D01*
X69000553Y-83183795D01*
X68881028Y-83300843D01*
X68875996Y-83305771D01*
X68777738Y-83458238D01*
X68775329Y-83464858D01*
X68775327Y-83464861D01*
X68731476Y-83585341D01*
X68715700Y-83628685D01*
X68692966Y-83808640D01*
X59005238Y-83808640D01*
X59029909Y-83800624D01*
X59029912Y-83800623D01*
X59036608Y-83798447D01*
X59192412Y-83705569D01*
X59323766Y-83580482D01*
X59424143Y-83429402D01*
X59471107Y-83305771D01*
X59486055Y-83266420D01*
X59486056Y-83266418D01*
X59488555Y-83259838D01*
X59489535Y-83252866D01*
X59513248Y-83084139D01*
X59513248Y-83084136D01*
X59513799Y-83080217D01*
X59514116Y-83057500D01*
X59493897Y-82877245D01*
X59490152Y-82866490D01*
X59436564Y-82712606D01*
X59436562Y-82712603D01*
X59434245Y-82705948D01*
X59408374Y-82664546D01*
X59341859Y-82558098D01*
X59338126Y-82552124D01*
X59295638Y-82509338D01*
X59215278Y-82428415D01*
X59215274Y-82428412D01*
X59210315Y-82423418D01*
X59199197Y-82416362D01*
X59151038Y-82385800D01*
X59057166Y-82326227D01*
X59027963Y-82315828D01*
X58892925Y-82267743D01*
X58892920Y-82267742D01*
X58886290Y-82265381D01*
X58879302Y-82264548D01*
X58879299Y-82264547D01*
X58756198Y-82249868D01*
X58706180Y-82243904D01*
X58699177Y-82244640D01*
X58699176Y-82244640D01*
X58532788Y-82262128D01*
X58532786Y-82262129D01*
X58525788Y-82262864D01*
X58354079Y-82321318D01*
X58348075Y-82325012D01*
X58205595Y-82412666D01*
X58205592Y-82412668D01*
X58199588Y-82416362D01*
X58194553Y-82421293D01*
X58194550Y-82421295D01*
X58104644Y-82509338D01*
X58069993Y-82543271D01*
X57971735Y-82695738D01*
X57969326Y-82702358D01*
X57969324Y-82702361D01*
X57927657Y-82816840D01*
X57909697Y-82866185D01*
X57886963Y-83046140D01*
X51916852Y-83046140D01*
X51882426Y-82992926D01*
X51876136Y-82984757D01*
X51732806Y-82827240D01*
X51725273Y-82820215D01*
X51558139Y-82688222D01*
X51549556Y-82682520D01*
X51512602Y-82662120D01*
X51462631Y-82611687D01*
X51447859Y-82542245D01*
X51472975Y-82475839D01*
X51500327Y-82449232D01*
X51551591Y-82412666D01*
X51679860Y-82321173D01*
X51757400Y-82243904D01*
X51834435Y-82167137D01*
X51838096Y-82163489D01*
X51888433Y-82093438D01*
X51906611Y-82068140D01*
X62051463Y-82068140D01*
X62069163Y-82248660D01*
X62126418Y-82420773D01*
X62130065Y-82426795D01*
X62130066Y-82426797D01*
X62204180Y-82549174D01*
X62220380Y-82575924D01*
X62225269Y-82580987D01*
X62225270Y-82580988D01*
X62283951Y-82641753D01*
X62346382Y-82706402D01*
X62498159Y-82805722D01*
X62504763Y-82808178D01*
X62504765Y-82808179D01*
X62661558Y-82866490D01*
X62661560Y-82866490D01*
X62668168Y-82868948D01*
X62751995Y-82880133D01*
X62840980Y-82892007D01*
X62840984Y-82892007D01*
X62847961Y-82892938D01*
X62854972Y-82892300D01*
X62854976Y-82892300D01*
X62997459Y-82879332D01*
X63028600Y-82876498D01*
X63035302Y-82874320D01*
X63035304Y-82874320D01*
X63194409Y-82822624D01*
X63194412Y-82822623D01*
X63201108Y-82820447D01*
X63356912Y-82727569D01*
X63488266Y-82602482D01*
X63588643Y-82451402D01*
X63636974Y-82324171D01*
X63650555Y-82288420D01*
X63650556Y-82288418D01*
X63653055Y-82281838D01*
X63656512Y-82257240D01*
X63671759Y-82148754D01*
X63701047Y-82084080D01*
X63757597Y-82046457D01*
X63829408Y-82023124D01*
X63836108Y-82020947D01*
X63991912Y-81928069D01*
X64123266Y-81802982D01*
X64140624Y-81776857D01*
X64222230Y-81654029D01*
X64276587Y-81608358D01*
X64347007Y-81599326D01*
X64411131Y-81629799D01*
X64434954Y-81658485D01*
X64474850Y-81724361D01*
X64506380Y-81776424D01*
X64632382Y-81906902D01*
X64638278Y-81910760D01*
X64747262Y-81982077D01*
X64784159Y-82006222D01*
X64790763Y-82008678D01*
X64790765Y-82008679D01*
X64947558Y-82066990D01*
X64947560Y-82066990D01*
X64954168Y-82069448D01*
X65029503Y-82079500D01*
X65126980Y-82092507D01*
X65126984Y-82092507D01*
X65133961Y-82093438D01*
X65140972Y-82092800D01*
X65140976Y-82092800D01*
X65283459Y-82079832D01*
X65314600Y-82076998D01*
X65321302Y-82074820D01*
X65321304Y-82074820D01*
X65480409Y-82023124D01*
X65480412Y-82023123D01*
X65487108Y-82020947D01*
X65642912Y-81928069D01*
X65774266Y-81802982D01*
X65874643Y-81651902D01*
X65939055Y-81482338D01*
X65940829Y-81469715D01*
X65963748Y-81306639D01*
X65963748Y-81306636D01*
X65964299Y-81302717D01*
X65964616Y-81280000D01*
X65944397Y-81099745D01*
X65942080Y-81093091D01*
X65887064Y-80935106D01*
X65887062Y-80935103D01*
X65884745Y-80928448D01*
X65861730Y-80891616D01*
X65792359Y-80780598D01*
X65788626Y-80774624D01*
X65729424Y-80715007D01*
X65665778Y-80650915D01*
X65665774Y-80650912D01*
X65660815Y-80645918D01*
X65652420Y-80640590D01*
X65592243Y-80602401D01*
X65507666Y-80548727D01*
X65478463Y-80538328D01*
X65343425Y-80490243D01*
X65343420Y-80490242D01*
X65336790Y-80487881D01*
X65329802Y-80487048D01*
X65329799Y-80487047D01*
X65206698Y-80472368D01*
X65156680Y-80466404D01*
X65149677Y-80467140D01*
X65149676Y-80467140D01*
X64983288Y-80484628D01*
X64983286Y-80484629D01*
X64976288Y-80485364D01*
X64804579Y-80543818D01*
X64798575Y-80547512D01*
X64656095Y-80635166D01*
X64656092Y-80635168D01*
X64650088Y-80638862D01*
X64645053Y-80643793D01*
X64645050Y-80643795D01*
X64525525Y-80760843D01*
X64520493Y-80765771D01*
X64489220Y-80814297D01*
X64430849Y-80904871D01*
X64377135Y-80951296D01*
X64306848Y-80961311D01*
X64242305Y-80931736D01*
X64218084Y-80903385D01*
X64141359Y-80780598D01*
X64137626Y-80774624D01*
X64078424Y-80715007D01*
X64014778Y-80650915D01*
X64014774Y-80650912D01*
X64009815Y-80645918D01*
X64001420Y-80640590D01*
X63941243Y-80602401D01*
X63856666Y-80548727D01*
X63827463Y-80538328D01*
X63692425Y-80490243D01*
X63692420Y-80490242D01*
X63685790Y-80487881D01*
X63678802Y-80487048D01*
X63678799Y-80487047D01*
X63555698Y-80472368D01*
X63505680Y-80466404D01*
X63498677Y-80467140D01*
X63498676Y-80467140D01*
X63332288Y-80484628D01*
X63332286Y-80484629D01*
X63325288Y-80485364D01*
X63153579Y-80543818D01*
X63147575Y-80547512D01*
X63005095Y-80635166D01*
X63005092Y-80635168D01*
X62999088Y-80638862D01*
X62994053Y-80643793D01*
X62994050Y-80643795D01*
X62874525Y-80760843D01*
X62869493Y-80765771D01*
X62771235Y-80918238D01*
X62768826Y-80924858D01*
X62768824Y-80924861D01*
X62711606Y-81082066D01*
X62709197Y-81088685D01*
X62695421Y-81197738D01*
X62694018Y-81208841D01*
X62665636Y-81273917D01*
X62609617Y-81312327D01*
X62592704Y-81318084D01*
X62525252Y-81341046D01*
X62525249Y-81341047D01*
X62518579Y-81343318D01*
X62456109Y-81381750D01*
X62370095Y-81434666D01*
X62370092Y-81434668D01*
X62364088Y-81438362D01*
X62359053Y-81443293D01*
X62359050Y-81443295D01*
X62291252Y-81509688D01*
X62234493Y-81565271D01*
X62136235Y-81717738D01*
X62133826Y-81724358D01*
X62133824Y-81724361D01*
X62103440Y-81807841D01*
X62074197Y-81888185D01*
X62051463Y-82068140D01*
X51906611Y-82068140D01*
X51965435Y-81986277D01*
X51968453Y-81982077D01*
X51995146Y-81928069D01*
X52065136Y-81786453D01*
X52065137Y-81786451D01*
X52067430Y-81781811D01*
X52132370Y-81568069D01*
X52161529Y-81346590D01*
X52161611Y-81343240D01*
X52163074Y-81283365D01*
X52163074Y-81283361D01*
X52163156Y-81280000D01*
X52144852Y-81057361D01*
X52090431Y-80840702D01*
X52022682Y-80684890D01*
X54380213Y-80684890D01*
X54397913Y-80865410D01*
X54455168Y-81037523D01*
X54458815Y-81043545D01*
X54458816Y-81043547D01*
X54492851Y-81099745D01*
X54549130Y-81192674D01*
X54675132Y-81323152D01*
X54826909Y-81422472D01*
X54833513Y-81424928D01*
X54833515Y-81424929D01*
X54990308Y-81483240D01*
X54990310Y-81483240D01*
X54996918Y-81485698D01*
X55080745Y-81496883D01*
X55169730Y-81508757D01*
X55169734Y-81508757D01*
X55176711Y-81509688D01*
X55183722Y-81509050D01*
X55183726Y-81509050D01*
X55326209Y-81496082D01*
X55357350Y-81493248D01*
X55364052Y-81491070D01*
X55364054Y-81491070D01*
X55523159Y-81439374D01*
X55523162Y-81439373D01*
X55529858Y-81437197D01*
X55626263Y-81379728D01*
X55679610Y-81347927D01*
X55679612Y-81347926D01*
X55685662Y-81344319D01*
X55817016Y-81219232D01*
X55917393Y-81068152D01*
X55971825Y-80924861D01*
X55979305Y-80905170D01*
X55979306Y-80905168D01*
X55981805Y-80898588D01*
X55982785Y-80891616D01*
X56006498Y-80722889D01*
X56006498Y-80722886D01*
X56007049Y-80718967D01*
X56007366Y-80696250D01*
X55987147Y-80515995D01*
X55984830Y-80509341D01*
X55929814Y-80351356D01*
X55929812Y-80351353D01*
X55927495Y-80344698D01*
X55831376Y-80190874D01*
X55785422Y-80144598D01*
X55708528Y-80067165D01*
X55708524Y-80067162D01*
X55703565Y-80062168D01*
X55692447Y-80055112D01*
X55624193Y-80011797D01*
X55550416Y-79964977D01*
X55511484Y-79951114D01*
X55386175Y-79906493D01*
X55386170Y-79906492D01*
X55379540Y-79904131D01*
X55372552Y-79903298D01*
X55372549Y-79903297D01*
X55249448Y-79888618D01*
X55199430Y-79882654D01*
X55192427Y-79883390D01*
X55192426Y-79883390D01*
X55026038Y-79900878D01*
X55026036Y-79900879D01*
X55019038Y-79901614D01*
X54847329Y-79960068D01*
X54841325Y-79963762D01*
X54698845Y-80051416D01*
X54698842Y-80051418D01*
X54692838Y-80055112D01*
X54687803Y-80060043D01*
X54687800Y-80060045D01*
X54601458Y-80144598D01*
X54563243Y-80182021D01*
X54464985Y-80334488D01*
X54462576Y-80341108D01*
X54462574Y-80341111D01*
X54410338Y-80484628D01*
X54402947Y-80504935D01*
X54380213Y-80684890D01*
X52022682Y-80684890D01*
X52001354Y-80635840D01*
X51905475Y-80487633D01*
X51882822Y-80452617D01*
X51882820Y-80452614D01*
X51880014Y-80448277D01*
X51729670Y-80283051D01*
X51725619Y-80279852D01*
X51725615Y-80279848D01*
X51558414Y-80147800D01*
X51558410Y-80147798D01*
X51554359Y-80144598D01*
X51513053Y-80121796D01*
X51463084Y-80071364D01*
X51448312Y-80001921D01*
X51473428Y-79935516D01*
X51500780Y-79908909D01*
X51544603Y-79877650D01*
X51679860Y-79781173D01*
X51838096Y-79623489D01*
X51845837Y-79612717D01*
X51870324Y-79578640D01*
X70140463Y-79578640D01*
X70158163Y-79759160D01*
X70215418Y-79931273D01*
X70219065Y-79937295D01*
X70219066Y-79937297D01*
X70288179Y-80051416D01*
X70309380Y-80086424D01*
X70314269Y-80091487D01*
X70314270Y-80091488D01*
X70391121Y-80171068D01*
X70435382Y-80216902D01*
X70587159Y-80316222D01*
X70593763Y-80318678D01*
X70593765Y-80318679D01*
X70750558Y-80376990D01*
X70750560Y-80376990D01*
X70757168Y-80379448D01*
X70840995Y-80390633D01*
X70929980Y-80402507D01*
X70929984Y-80402507D01*
X70936961Y-80403438D01*
X70943972Y-80402800D01*
X70943976Y-80402800D01*
X71086459Y-80389832D01*
X71117600Y-80386998D01*
X71124302Y-80384820D01*
X71124304Y-80384820D01*
X71283409Y-80333124D01*
X71283412Y-80333123D01*
X71290108Y-80330947D01*
X71445912Y-80238069D01*
X71577266Y-80112982D01*
X71677643Y-79961902D01*
X71742055Y-79792338D01*
X71744136Y-79777529D01*
X71766748Y-79616639D01*
X71766748Y-79616636D01*
X71767299Y-79612717D01*
X71767616Y-79590000D01*
X71747397Y-79409745D01*
X71744000Y-79399990D01*
X71690064Y-79245106D01*
X71690062Y-79245103D01*
X71687745Y-79238448D01*
X71591626Y-79084624D01*
X71540384Y-79033023D01*
X71468778Y-78960915D01*
X71468774Y-78960912D01*
X71463815Y-78955918D01*
X71452697Y-78948862D01*
X71345660Y-78880935D01*
X71310666Y-78858727D01*
X71281463Y-78848328D01*
X71146425Y-78800243D01*
X71146420Y-78800242D01*
X71139790Y-78797881D01*
X71132802Y-78797048D01*
X71132799Y-78797047D01*
X71007951Y-78782160D01*
X70959680Y-78776404D01*
X70952677Y-78777140D01*
X70952676Y-78777140D01*
X70786288Y-78794628D01*
X70786286Y-78794629D01*
X70779288Y-78795364D01*
X70607579Y-78853818D01*
X70564538Y-78880297D01*
X70459095Y-78945166D01*
X70459092Y-78945168D01*
X70453088Y-78948862D01*
X70448053Y-78953793D01*
X70448050Y-78953795D01*
X70328525Y-79070843D01*
X70323493Y-79075771D01*
X70225235Y-79228238D01*
X70222826Y-79234858D01*
X70222824Y-79234861D01*
X70180979Y-79349829D01*
X70163197Y-79398685D01*
X70140463Y-79578640D01*
X51870324Y-79578640D01*
X51965435Y-79446277D01*
X51968453Y-79442077D01*
X51976183Y-79426438D01*
X52065136Y-79246453D01*
X52065137Y-79246451D01*
X52067430Y-79241811D01*
X52116078Y-79081693D01*
X52130865Y-79033023D01*
X52130865Y-79033021D01*
X52132370Y-79028069D01*
X52161529Y-78806590D01*
X52161762Y-78797047D01*
X52163074Y-78743365D01*
X52163074Y-78743361D01*
X52163156Y-78740000D01*
X52151781Y-78601640D01*
X53923463Y-78601640D01*
X53941163Y-78782160D01*
X53998418Y-78954273D01*
X54002065Y-78960295D01*
X54002066Y-78960297D01*
X54080979Y-79090598D01*
X54092380Y-79109424D01*
X54218382Y-79239902D01*
X54370159Y-79339222D01*
X54376763Y-79341678D01*
X54376765Y-79341679D01*
X54533558Y-79399990D01*
X54533560Y-79399990D01*
X54540168Y-79402448D01*
X54623995Y-79413633D01*
X54712980Y-79425507D01*
X54712984Y-79425507D01*
X54719961Y-79426438D01*
X54726972Y-79425800D01*
X54726976Y-79425800D01*
X54869459Y-79412832D01*
X54900600Y-79409998D01*
X54907302Y-79407820D01*
X54907304Y-79407820D01*
X55066409Y-79356124D01*
X55066412Y-79356123D01*
X55073108Y-79353947D01*
X55228912Y-79261069D01*
X55360266Y-79135982D01*
X55460643Y-78984902D01*
X55508896Y-78857877D01*
X55522555Y-78821920D01*
X55522556Y-78821918D01*
X55525055Y-78815338D01*
X55526035Y-78808366D01*
X55549748Y-78639639D01*
X55549748Y-78639636D01*
X55550299Y-78635717D01*
X55550616Y-78613000D01*
X55530397Y-78432745D01*
X55528080Y-78426091D01*
X55473064Y-78268106D01*
X55473062Y-78268103D01*
X55470745Y-78261448D01*
X55374626Y-78107624D01*
X55353405Y-78086254D01*
X55323498Y-78056137D01*
X57860463Y-78056137D01*
X57878163Y-78236657D01*
X57935418Y-78408770D01*
X57939065Y-78414792D01*
X57939066Y-78414794D01*
X57984435Y-78489707D01*
X58029380Y-78563921D01*
X58034269Y-78568984D01*
X58034270Y-78568985D01*
X58111121Y-78648565D01*
X58155382Y-78694399D01*
X58187729Y-78715566D01*
X58281824Y-78777140D01*
X58307159Y-78793719D01*
X58313763Y-78796175D01*
X58313765Y-78796176D01*
X58470558Y-78854487D01*
X58470560Y-78854487D01*
X58477168Y-78856945D01*
X58560995Y-78868130D01*
X58649980Y-78880004D01*
X58649984Y-78880004D01*
X58656961Y-78880935D01*
X58663972Y-78880297D01*
X58663976Y-78880297D01*
X58806459Y-78867329D01*
X58837600Y-78864495D01*
X58844302Y-78862317D01*
X58844304Y-78862317D01*
X59003409Y-78810621D01*
X59003412Y-78810620D01*
X59010108Y-78808444D01*
X59165912Y-78715566D01*
X59285546Y-78601640D01*
X74878463Y-78601640D01*
X74896163Y-78782160D01*
X74953418Y-78954273D01*
X74957065Y-78960295D01*
X74957066Y-78960297D01*
X75035979Y-79090598D01*
X75047380Y-79109424D01*
X75173382Y-79239902D01*
X75325159Y-79339222D01*
X75331763Y-79341678D01*
X75331765Y-79341679D01*
X75488558Y-79399990D01*
X75488560Y-79399990D01*
X75495168Y-79402448D01*
X75578995Y-79413633D01*
X75667980Y-79425507D01*
X75667984Y-79425507D01*
X75674961Y-79426438D01*
X75681972Y-79425800D01*
X75681976Y-79425800D01*
X75824459Y-79412832D01*
X75855600Y-79409998D01*
X75862302Y-79407820D01*
X75862304Y-79407820D01*
X76021409Y-79356124D01*
X76021412Y-79356123D01*
X76028108Y-79353947D01*
X76183912Y-79261069D01*
X76315266Y-79135982D01*
X76415643Y-78984902D01*
X76463896Y-78857877D01*
X76477555Y-78821920D01*
X76477556Y-78821918D01*
X76480055Y-78815338D01*
X76481035Y-78808366D01*
X76504748Y-78639639D01*
X76504748Y-78639636D01*
X76505299Y-78635717D01*
X76505616Y-78613000D01*
X76485397Y-78432745D01*
X76483080Y-78426091D01*
X76428064Y-78268106D01*
X76428062Y-78268103D01*
X76425745Y-78261448D01*
X76329626Y-78107624D01*
X76308405Y-78086254D01*
X76206778Y-77983915D01*
X76206774Y-77983912D01*
X76201815Y-77978918D01*
X76190697Y-77971862D01*
X76090502Y-77908277D01*
X76048666Y-77881727D01*
X76014505Y-77869563D01*
X75884425Y-77823243D01*
X75884420Y-77823242D01*
X75877790Y-77820881D01*
X75870802Y-77820048D01*
X75870799Y-77820047D01*
X75747698Y-77805368D01*
X75697680Y-77799404D01*
X75690677Y-77800140D01*
X75690676Y-77800140D01*
X75524288Y-77817628D01*
X75524286Y-77817629D01*
X75517288Y-77818364D01*
X75345579Y-77876818D01*
X75300653Y-77904457D01*
X75197095Y-77968166D01*
X75197092Y-77968168D01*
X75191088Y-77971862D01*
X75186053Y-77976793D01*
X75186050Y-77976795D01*
X75089383Y-78071459D01*
X75061493Y-78098771D01*
X74963235Y-78251238D01*
X74960826Y-78257858D01*
X74960824Y-78257861D01*
X74945231Y-78300702D01*
X74901197Y-78421685D01*
X74878463Y-78601640D01*
X59285546Y-78601640D01*
X59297266Y-78590479D01*
X59397643Y-78439399D01*
X59439423Y-78329414D01*
X59459555Y-78276417D01*
X59459556Y-78276415D01*
X59462055Y-78269835D01*
X59464669Y-78251238D01*
X59486748Y-78094136D01*
X59486748Y-78094133D01*
X59487299Y-78090214D01*
X59487616Y-78067497D01*
X59467397Y-77887242D01*
X59465080Y-77880588D01*
X59410064Y-77722603D01*
X59410062Y-77722600D01*
X59407745Y-77715945D01*
X59311626Y-77562121D01*
X59297941Y-77548340D01*
X59188778Y-77438412D01*
X59188774Y-77438409D01*
X59183815Y-77433415D01*
X59172697Y-77426359D01*
X59066875Y-77359203D01*
X59030666Y-77336224D01*
X58981821Y-77318831D01*
X58866425Y-77277740D01*
X58866420Y-77277739D01*
X58859790Y-77275378D01*
X58852802Y-77274545D01*
X58852799Y-77274544D01*
X58729698Y-77259865D01*
X58679680Y-77253901D01*
X58672677Y-77254637D01*
X58672676Y-77254637D01*
X58506288Y-77272125D01*
X58506286Y-77272126D01*
X58499288Y-77272861D01*
X58327579Y-77331315D01*
X58321575Y-77335009D01*
X58179095Y-77422663D01*
X58179092Y-77422665D01*
X58173088Y-77426359D01*
X58168053Y-77431290D01*
X58168050Y-77431292D01*
X58066133Y-77531097D01*
X58043493Y-77553268D01*
X57945235Y-77705735D01*
X57942826Y-77712355D01*
X57942824Y-77712358D01*
X57903415Y-77820633D01*
X57883197Y-77876182D01*
X57860463Y-78056137D01*
X55323498Y-78056137D01*
X55251778Y-77983915D01*
X55251774Y-77983912D01*
X55246815Y-77978918D01*
X55235697Y-77971862D01*
X55135502Y-77908277D01*
X55093666Y-77881727D01*
X55059505Y-77869563D01*
X54929425Y-77823243D01*
X54929420Y-77823242D01*
X54922790Y-77820881D01*
X54915802Y-77820048D01*
X54915799Y-77820047D01*
X54792698Y-77805368D01*
X54742680Y-77799404D01*
X54735677Y-77800140D01*
X54735676Y-77800140D01*
X54569288Y-77817628D01*
X54569286Y-77817629D01*
X54562288Y-77818364D01*
X54390579Y-77876818D01*
X54345653Y-77904457D01*
X54242095Y-77968166D01*
X54242092Y-77968168D01*
X54236088Y-77971862D01*
X54231053Y-77976793D01*
X54231050Y-77976795D01*
X54134383Y-78071459D01*
X54106493Y-78098771D01*
X54008235Y-78251238D01*
X54005826Y-78257858D01*
X54005824Y-78257861D01*
X53990231Y-78300702D01*
X53946197Y-78421685D01*
X53923463Y-78601640D01*
X52151781Y-78601640D01*
X52144852Y-78517361D01*
X52090431Y-78300702D01*
X52001354Y-78095840D01*
X51961906Y-78034862D01*
X51882822Y-77912617D01*
X51882820Y-77912614D01*
X51880014Y-77908277D01*
X51729670Y-77743051D01*
X51725619Y-77739852D01*
X51725615Y-77739848D01*
X51558414Y-77607800D01*
X51558410Y-77607798D01*
X51554359Y-77604598D01*
X51512569Y-77581529D01*
X51462598Y-77531097D01*
X51447826Y-77461654D01*
X51472942Y-77395248D01*
X51500294Y-77368641D01*
X51675328Y-77243792D01*
X51683200Y-77237139D01*
X51834052Y-77086812D01*
X51840730Y-77078965D01*
X51965003Y-76906020D01*
X51970313Y-76897183D01*
X52064670Y-76706267D01*
X52068469Y-76696672D01*
X52130377Y-76492910D01*
X52132555Y-76482837D01*
X52133986Y-76471962D01*
X52131775Y-76457778D01*
X52118617Y-76454000D01*
X49483225Y-76454000D01*
X49469694Y-76457973D01*
X49468257Y-76467966D01*
X49498565Y-76602446D01*
X49501645Y-76612275D01*
X49581770Y-76809603D01*
X49586413Y-76818794D01*
X49697694Y-77000388D01*
X49703777Y-77008699D01*
X49843213Y-77169667D01*
X49850580Y-77176883D01*
X50014434Y-77312916D01*
X50022881Y-77318831D01*
X50091969Y-77359203D01*
X50140693Y-77410842D01*
X50153764Y-77480625D01*
X50127033Y-77546396D01*
X50086584Y-77579752D01*
X50073607Y-77586507D01*
X50069474Y-77589610D01*
X50069471Y-77589612D01*
X49899100Y-77717530D01*
X49894965Y-77720635D01*
X49740629Y-77882138D01*
X49614743Y-78066680D01*
X49567716Y-78167992D01*
X49535843Y-78236657D01*
X49520688Y-78269305D01*
X49460989Y-78484570D01*
X49437251Y-78706695D01*
X49437548Y-78711848D01*
X49437548Y-78711851D01*
X49446386Y-78865134D01*
X49450110Y-78929715D01*
X49451247Y-78934761D01*
X49451248Y-78934767D01*
X49455644Y-78954273D01*
X49499222Y-79147639D01*
X49538799Y-79245106D01*
X49575449Y-79335364D01*
X49583266Y-79354616D01*
X49699987Y-79545088D01*
X49846250Y-79713938D01*
X50018126Y-79856632D01*
X50063917Y-79883390D01*
X50091445Y-79899476D01*
X50140169Y-79951114D01*
X50153240Y-80020897D01*
X50126509Y-80086669D01*
X50086055Y-80120027D01*
X50073607Y-80126507D01*
X50069474Y-80129610D01*
X50069471Y-80129612D01*
X49899100Y-80257530D01*
X49894965Y-80260635D01*
X49891393Y-80264373D01*
X49774210Y-80386998D01*
X49740629Y-80422138D01*
X49614743Y-80606680D01*
X49520688Y-80809305D01*
X49460989Y-81024570D01*
X49437251Y-81246695D01*
X48768500Y-81246695D01*
X48768500Y-73626695D01*
X49437251Y-73626695D01*
X49437548Y-73631848D01*
X49437548Y-73631851D01*
X49443011Y-73726590D01*
X49450110Y-73849715D01*
X49451247Y-73854761D01*
X49451248Y-73854767D01*
X49471119Y-73942939D01*
X49499222Y-74067639D01*
X49583266Y-74274616D01*
X49699987Y-74465088D01*
X49846250Y-74633938D01*
X50018126Y-74776632D01*
X50064821Y-74803918D01*
X50091955Y-74819774D01*
X50140679Y-74871412D01*
X50153750Y-74941195D01*
X50127019Y-75006967D01*
X50086562Y-75040327D01*
X50078457Y-75044546D01*
X50069738Y-75050036D01*
X49899433Y-75177905D01*
X49891726Y-75184748D01*
X49744590Y-75338717D01*
X49738104Y-75346727D01*
X49618098Y-75522649D01*
X49613000Y-75531623D01*
X49523338Y-75724783D01*
X49519775Y-75734470D01*
X49464389Y-75934183D01*
X49465912Y-75942607D01*
X49478292Y-75946000D01*
X52118344Y-75946000D01*
X52131875Y-75942027D01*
X52133180Y-75932947D01*
X52091214Y-75765875D01*
X52087894Y-75756124D01*
X52002972Y-75560814D01*
X51998105Y-75551739D01*
X51917175Y-75426640D01*
X56717463Y-75426640D01*
X56735163Y-75607160D01*
X56792418Y-75779273D01*
X56796065Y-75785295D01*
X56796066Y-75785297D01*
X56875541Y-75916526D01*
X56886380Y-75934424D01*
X57012382Y-76064902D01*
X57164159Y-76164222D01*
X57170763Y-76166678D01*
X57170765Y-76166679D01*
X57327558Y-76224990D01*
X57327560Y-76224990D01*
X57334168Y-76227448D01*
X57417995Y-76238633D01*
X57506980Y-76250507D01*
X57506984Y-76250507D01*
X57513961Y-76251438D01*
X57520972Y-76250800D01*
X57520976Y-76250800D01*
X57663459Y-76237832D01*
X57694600Y-76234998D01*
X57701302Y-76232820D01*
X57701304Y-76232820D01*
X57860409Y-76181124D01*
X57860412Y-76181123D01*
X57867108Y-76178947D01*
X58022912Y-76086069D01*
X58154266Y-75960982D01*
X58254643Y-75809902D01*
X58319055Y-75640338D01*
X58320035Y-75633366D01*
X58343748Y-75464639D01*
X58343748Y-75464636D01*
X58344299Y-75460717D01*
X58344616Y-75438000D01*
X58324397Y-75257745D01*
X58322080Y-75251091D01*
X58267064Y-75093106D01*
X58267062Y-75093103D01*
X58264745Y-75086448D01*
X58249793Y-75062520D01*
X58172359Y-74938598D01*
X58168626Y-74932624D01*
X58146698Y-74910542D01*
X58045778Y-74808915D01*
X58045774Y-74808912D01*
X58040815Y-74803918D01*
X58029697Y-74796862D01*
X57959410Y-74752257D01*
X57887666Y-74706727D01*
X57798294Y-74674903D01*
X57723425Y-74648243D01*
X57723420Y-74648242D01*
X57716790Y-74645881D01*
X57709802Y-74645048D01*
X57709799Y-74645047D01*
X57583869Y-74630031D01*
X57536680Y-74624404D01*
X57529677Y-74625140D01*
X57529676Y-74625140D01*
X57363288Y-74642628D01*
X57363286Y-74642629D01*
X57356288Y-74643364D01*
X57184579Y-74701818D01*
X57122109Y-74740250D01*
X57036095Y-74793166D01*
X57036092Y-74793168D01*
X57030088Y-74796862D01*
X57025053Y-74801793D01*
X57025050Y-74801795D01*
X56921207Y-74903486D01*
X56900493Y-74923771D01*
X56802235Y-75076238D01*
X56799826Y-75082858D01*
X56799824Y-75082861D01*
X56757111Y-75200215D01*
X56740197Y-75246685D01*
X56717463Y-75426640D01*
X51917175Y-75426640D01*
X51882426Y-75372926D01*
X51876136Y-75364757D01*
X51732806Y-75207240D01*
X51725273Y-75200215D01*
X51558139Y-75068222D01*
X51549556Y-75062520D01*
X51512602Y-75042120D01*
X51462631Y-74991687D01*
X51447859Y-74922245D01*
X51472975Y-74855839D01*
X51500327Y-74829232D01*
X51528810Y-74808915D01*
X51679860Y-74701173D01*
X51735595Y-74645633D01*
X51834435Y-74547137D01*
X51838096Y-74543489D01*
X51897594Y-74460689D01*
X51965435Y-74366277D01*
X51968453Y-74362077D01*
X52067430Y-74161811D01*
X52132370Y-73948069D01*
X52161529Y-73726590D01*
X52163156Y-73660000D01*
X52144852Y-73437361D01*
X52090431Y-73220702D01*
X52001354Y-73015840D01*
X51961906Y-72954862D01*
X51882822Y-72832617D01*
X51882820Y-72832614D01*
X51880014Y-72828277D01*
X51729670Y-72663051D01*
X51725619Y-72659852D01*
X51725615Y-72659848D01*
X51691164Y-72632640D01*
X64718463Y-72632640D01*
X64736163Y-72813160D01*
X64793418Y-72985273D01*
X64797065Y-72991295D01*
X64797066Y-72991297D01*
X64814807Y-73020590D01*
X64887380Y-73140424D01*
X65013382Y-73270902D01*
X65165159Y-73370222D01*
X65171763Y-73372678D01*
X65171765Y-73372679D01*
X65328558Y-73430990D01*
X65328560Y-73430990D01*
X65335168Y-73433448D01*
X65418995Y-73444633D01*
X65507980Y-73456507D01*
X65507984Y-73456507D01*
X65514961Y-73457438D01*
X65521972Y-73456800D01*
X65521976Y-73456800D01*
X65664459Y-73443832D01*
X65695600Y-73440998D01*
X65702302Y-73438820D01*
X65702304Y-73438820D01*
X65861409Y-73387124D01*
X65861412Y-73387123D01*
X65868108Y-73384947D01*
X66023912Y-73292069D01*
X66155266Y-73166982D01*
X66255643Y-73015902D01*
X66320055Y-72846338D01*
X66321035Y-72839366D01*
X66344748Y-72670639D01*
X66344748Y-72670636D01*
X66345299Y-72666717D01*
X66345616Y-72644000D01*
X66344342Y-72632640D01*
X70433463Y-72632640D01*
X70451163Y-72813160D01*
X70508418Y-72985273D01*
X70512065Y-72991295D01*
X70512066Y-72991297D01*
X70529807Y-73020590D01*
X70602380Y-73140424D01*
X70728382Y-73270902D01*
X70880159Y-73370222D01*
X70886763Y-73372678D01*
X70886765Y-73372679D01*
X71043558Y-73430990D01*
X71043560Y-73430990D01*
X71050168Y-73433448D01*
X71133995Y-73444633D01*
X71222980Y-73456507D01*
X71222984Y-73456507D01*
X71229961Y-73457438D01*
X71236972Y-73456800D01*
X71236976Y-73456800D01*
X71379459Y-73443832D01*
X71410600Y-73440998D01*
X71417302Y-73438820D01*
X71417304Y-73438820D01*
X71576409Y-73387124D01*
X71576412Y-73387123D01*
X71583108Y-73384947D01*
X71738912Y-73292069D01*
X71870266Y-73166982D01*
X71970643Y-73015902D01*
X72035055Y-72846338D01*
X72036035Y-72839366D01*
X72059748Y-72670639D01*
X72059748Y-72670636D01*
X72060299Y-72666717D01*
X72060616Y-72644000D01*
X72040397Y-72463745D01*
X72038080Y-72457091D01*
X71983064Y-72299106D01*
X71983062Y-72299103D01*
X71980745Y-72292448D01*
X71945868Y-72236632D01*
X71888359Y-72144598D01*
X71884626Y-72138624D01*
X71836371Y-72090031D01*
X71761778Y-72014915D01*
X71761774Y-72014912D01*
X71756815Y-72009918D01*
X71746685Y-72003489D01*
X71609619Y-71916505D01*
X71609620Y-71916505D01*
X71603666Y-71912727D01*
X71574463Y-71902328D01*
X71439425Y-71854243D01*
X71439420Y-71854242D01*
X71432790Y-71851881D01*
X71425802Y-71851048D01*
X71425799Y-71851047D01*
X71302698Y-71836368D01*
X71252680Y-71830404D01*
X71245677Y-71831140D01*
X71245676Y-71831140D01*
X71079288Y-71848628D01*
X71079286Y-71848629D01*
X71072288Y-71849364D01*
X70900579Y-71907818D01*
X70894575Y-71911512D01*
X70752095Y-71999166D01*
X70752092Y-71999168D01*
X70746088Y-72002862D01*
X70741053Y-72007793D01*
X70741050Y-72007795D01*
X70621525Y-72124843D01*
X70616493Y-72129771D01*
X70518235Y-72282238D01*
X70515826Y-72288858D01*
X70515824Y-72288861D01*
X70475046Y-72400897D01*
X70456197Y-72452685D01*
X70433463Y-72632640D01*
X66344342Y-72632640D01*
X66325397Y-72463745D01*
X66323080Y-72457091D01*
X66268064Y-72299106D01*
X66268062Y-72299103D01*
X66265745Y-72292448D01*
X66230868Y-72236632D01*
X66173359Y-72144598D01*
X66169626Y-72138624D01*
X66121371Y-72090031D01*
X66046778Y-72014915D01*
X66046774Y-72014912D01*
X66041815Y-72009918D01*
X66031685Y-72003489D01*
X65894619Y-71916505D01*
X65894620Y-71916505D01*
X65888666Y-71912727D01*
X65859463Y-71902328D01*
X65724425Y-71854243D01*
X65724420Y-71854242D01*
X65717790Y-71851881D01*
X65710802Y-71851048D01*
X65710799Y-71851047D01*
X65587698Y-71836368D01*
X65537680Y-71830404D01*
X65530677Y-71831140D01*
X65530676Y-71831140D01*
X65364288Y-71848628D01*
X65364286Y-71848629D01*
X65357288Y-71849364D01*
X65185579Y-71907818D01*
X65179575Y-71911512D01*
X65037095Y-71999166D01*
X65037092Y-71999168D01*
X65031088Y-72002862D01*
X65026053Y-72007793D01*
X65026050Y-72007795D01*
X64906525Y-72124843D01*
X64901493Y-72129771D01*
X64803235Y-72282238D01*
X64800826Y-72288858D01*
X64800824Y-72288861D01*
X64760046Y-72400897D01*
X64741197Y-72452685D01*
X64718463Y-72632640D01*
X51691164Y-72632640D01*
X51558414Y-72527800D01*
X51558410Y-72527798D01*
X51554359Y-72524598D01*
X51513053Y-72501796D01*
X51463084Y-72451364D01*
X51448312Y-72381921D01*
X51473428Y-72315516D01*
X51500780Y-72288909D01*
X51544603Y-72257650D01*
X51679860Y-72161173D01*
X51707503Y-72133627D01*
X51834435Y-72007137D01*
X51838096Y-72003489D01*
X51841203Y-71999166D01*
X51965435Y-71826277D01*
X51968453Y-71822077D01*
X52067430Y-71621811D01*
X52132370Y-71408069D01*
X52161529Y-71186590D01*
X52163156Y-71120000D01*
X52144852Y-70897361D01*
X52090431Y-70680702D01*
X52001354Y-70475840D01*
X51909868Y-70334424D01*
X51882822Y-70292617D01*
X51882820Y-70292614D01*
X51880014Y-70288277D01*
X51729670Y-70123051D01*
X51725619Y-70119852D01*
X51725615Y-70119848D01*
X51577838Y-70003140D01*
X60781463Y-70003140D01*
X60799163Y-70183660D01*
X60856418Y-70355773D01*
X60860065Y-70361795D01*
X60860066Y-70361797D01*
X60944780Y-70501677D01*
X60950380Y-70510924D01*
X61076382Y-70641402D01*
X61228159Y-70740722D01*
X61234763Y-70743178D01*
X61234765Y-70743179D01*
X61391558Y-70801490D01*
X61391560Y-70801490D01*
X61398168Y-70803948D01*
X61481995Y-70815133D01*
X61570980Y-70827007D01*
X61570984Y-70827007D01*
X61577961Y-70827938D01*
X61584972Y-70827300D01*
X61584976Y-70827300D01*
X61727459Y-70814332D01*
X61758600Y-70811498D01*
X61765302Y-70809320D01*
X61765304Y-70809320D01*
X61924409Y-70757624D01*
X61924412Y-70757623D01*
X61931108Y-70755447D01*
X62056494Y-70680702D01*
X62080860Y-70666177D01*
X62080862Y-70666176D01*
X62086912Y-70662569D01*
X62218266Y-70537482D01*
X62318643Y-70386402D01*
X62383055Y-70216838D01*
X62384035Y-70209866D01*
X62396563Y-70120726D01*
X65785461Y-70120726D01*
X65803161Y-70301246D01*
X65860416Y-70473359D01*
X65864063Y-70479381D01*
X65864064Y-70479383D01*
X65902193Y-70542341D01*
X65954378Y-70628510D01*
X65959267Y-70633573D01*
X65959268Y-70633574D01*
X66009625Y-70685720D01*
X66080380Y-70758988D01*
X66232157Y-70858308D01*
X66238761Y-70860764D01*
X66238763Y-70860765D01*
X66395556Y-70919076D01*
X66395558Y-70919076D01*
X66402166Y-70921534D01*
X66485993Y-70932719D01*
X66574978Y-70944593D01*
X66574982Y-70944593D01*
X66581959Y-70945524D01*
X66588970Y-70944886D01*
X66588974Y-70944886D01*
X66731457Y-70931918D01*
X66762598Y-70929084D01*
X66769300Y-70926906D01*
X66769302Y-70926906D01*
X66928407Y-70875210D01*
X66928410Y-70875209D01*
X66935106Y-70873033D01*
X67090910Y-70780155D01*
X67222264Y-70655068D01*
X67322641Y-70503988D01*
X67387053Y-70334424D01*
X67388033Y-70327452D01*
X67411746Y-70158725D01*
X67411746Y-70158722D01*
X67412297Y-70154803D01*
X67412614Y-70132086D01*
X67392395Y-69951831D01*
X67390078Y-69945177D01*
X67335062Y-69787192D01*
X67335060Y-69787189D01*
X67332743Y-69780534D01*
X67274485Y-69687301D01*
X67240357Y-69632684D01*
X67236624Y-69626710D01*
X67160117Y-69549667D01*
X67113776Y-69503001D01*
X67113772Y-69502998D01*
X67108813Y-69498004D01*
X67100092Y-69492469D01*
X67047297Y-69458965D01*
X66955664Y-69400813D01*
X66887787Y-69376643D01*
X66791423Y-69342329D01*
X66791418Y-69342328D01*
X66784788Y-69339967D01*
X66777800Y-69339134D01*
X66777797Y-69339133D01*
X66654696Y-69324454D01*
X66604678Y-69318490D01*
X66597675Y-69319226D01*
X66597674Y-69319226D01*
X66431286Y-69336714D01*
X66431284Y-69336715D01*
X66424286Y-69337450D01*
X66252577Y-69395904D01*
X66246573Y-69399598D01*
X66104093Y-69487252D01*
X66104090Y-69487254D01*
X66098086Y-69490948D01*
X66093051Y-69495879D01*
X66093048Y-69495881D01*
X65982621Y-69604020D01*
X65968491Y-69617857D01*
X65870233Y-69770324D01*
X65867824Y-69776944D01*
X65867822Y-69776947D01*
X65813427Y-69926396D01*
X65808195Y-69940771D01*
X65785461Y-70120726D01*
X62396563Y-70120726D01*
X62407748Y-70041139D01*
X62407748Y-70041136D01*
X62408299Y-70037217D01*
X62408616Y-70014500D01*
X62388397Y-69834245D01*
X62386080Y-69827591D01*
X62331064Y-69669606D01*
X62331062Y-69669603D01*
X62328745Y-69662948D01*
X62232626Y-69509124D01*
X62223835Y-69500271D01*
X62109778Y-69385415D01*
X62109774Y-69385412D01*
X62104815Y-69380418D01*
X62093697Y-69373362D01*
X62008546Y-69319324D01*
X61951666Y-69283227D01*
X61922463Y-69272828D01*
X61787425Y-69224743D01*
X61787420Y-69224742D01*
X61780790Y-69222381D01*
X61773802Y-69221548D01*
X61773799Y-69221547D01*
X61650698Y-69206868D01*
X61600680Y-69200904D01*
X61593677Y-69201640D01*
X61593676Y-69201640D01*
X61427288Y-69219128D01*
X61427286Y-69219129D01*
X61420288Y-69219864D01*
X61248579Y-69278318D01*
X61242575Y-69282012D01*
X61100095Y-69369666D01*
X61100092Y-69369668D01*
X61094088Y-69373362D01*
X61089053Y-69378293D01*
X61089050Y-69378295D01*
X60974013Y-69490948D01*
X60964493Y-69500271D01*
X60866235Y-69652738D01*
X60863826Y-69659358D01*
X60863824Y-69659361D01*
X60806606Y-69816566D01*
X60804197Y-69823185D01*
X60781463Y-70003140D01*
X51577838Y-70003140D01*
X51558414Y-69987800D01*
X51558410Y-69987798D01*
X51554359Y-69984598D01*
X51512569Y-69961529D01*
X51462598Y-69911097D01*
X51447826Y-69841654D01*
X51472942Y-69775248D01*
X51500294Y-69748641D01*
X51675328Y-69623792D01*
X51683200Y-69617139D01*
X51834052Y-69466812D01*
X51840730Y-69458965D01*
X51965003Y-69286020D01*
X51970313Y-69277183D01*
X52064670Y-69086267D01*
X52068469Y-69076672D01*
X52130377Y-68872910D01*
X52132555Y-68862837D01*
X52133986Y-68851962D01*
X52131775Y-68837778D01*
X52118617Y-68834000D01*
X49483225Y-68834000D01*
X49469694Y-68837973D01*
X49468257Y-68847966D01*
X49498565Y-68982446D01*
X49501645Y-68992275D01*
X49581770Y-69189603D01*
X49586413Y-69198794D01*
X49697694Y-69380388D01*
X49703777Y-69388699D01*
X49843213Y-69549667D01*
X49850580Y-69556883D01*
X50014434Y-69692916D01*
X50022881Y-69698831D01*
X50091969Y-69739203D01*
X50140693Y-69790842D01*
X50153764Y-69860625D01*
X50127033Y-69926396D01*
X50086584Y-69959752D01*
X50073607Y-69966507D01*
X50069474Y-69969610D01*
X50069471Y-69969612D01*
X49901989Y-70095361D01*
X49894965Y-70100635D01*
X49740629Y-70262138D01*
X49737715Y-70266410D01*
X49737714Y-70266411D01*
X49672646Y-70361797D01*
X49614743Y-70446680D01*
X49575320Y-70531611D01*
X49530341Y-70628510D01*
X49520688Y-70649305D01*
X49460989Y-70864570D01*
X49437251Y-71086695D01*
X49437548Y-71091848D01*
X49437548Y-71091851D01*
X49443011Y-71186590D01*
X49450110Y-71309715D01*
X49451247Y-71314761D01*
X49451248Y-71314767D01*
X49471119Y-71402939D01*
X49499222Y-71527639D01*
X49583266Y-71734616D01*
X49585965Y-71739020D01*
X49691668Y-71911512D01*
X49699987Y-71925088D01*
X49846250Y-72093938D01*
X50018126Y-72236632D01*
X50086030Y-72276312D01*
X50091445Y-72279476D01*
X50140169Y-72331114D01*
X50153240Y-72400897D01*
X50126509Y-72466669D01*
X50086055Y-72500027D01*
X50073607Y-72506507D01*
X50069474Y-72509610D01*
X50069471Y-72509612D01*
X49905613Y-72632640D01*
X49894965Y-72640635D01*
X49740629Y-72802138D01*
X49614743Y-72986680D01*
X49520688Y-73189305D01*
X49460989Y-73404570D01*
X49437251Y-73626695D01*
X48768500Y-73626695D01*
X48768500Y-66006695D01*
X49437251Y-66006695D01*
X49437548Y-66011848D01*
X49437548Y-66011851D01*
X49447928Y-66191864D01*
X49450110Y-66229715D01*
X49451247Y-66234761D01*
X49451248Y-66234767D01*
X49462104Y-66282938D01*
X49499222Y-66447639D01*
X49583266Y-66654616D01*
X49699987Y-66845088D01*
X49846250Y-67013938D01*
X50018126Y-67156632D01*
X50064821Y-67183918D01*
X50091955Y-67199774D01*
X50140679Y-67251412D01*
X50153750Y-67321195D01*
X50127019Y-67386967D01*
X50086562Y-67420327D01*
X50078457Y-67424546D01*
X50069738Y-67430036D01*
X49899433Y-67557905D01*
X49891726Y-67564748D01*
X49744590Y-67718717D01*
X49738104Y-67726727D01*
X49618098Y-67902649D01*
X49613000Y-67911623D01*
X49523338Y-68104783D01*
X49519775Y-68114470D01*
X49464389Y-68314183D01*
X49465912Y-68322607D01*
X49478292Y-68326000D01*
X52118344Y-68326000D01*
X52131875Y-68322027D01*
X52133180Y-68312947D01*
X52091214Y-68145875D01*
X52087894Y-68136124D01*
X52002972Y-67940814D01*
X51998105Y-67931739D01*
X51917175Y-67806640D01*
X63448463Y-67806640D01*
X63466163Y-67987160D01*
X63523418Y-68159273D01*
X63527065Y-68165295D01*
X63527066Y-68165297D01*
X63606019Y-68295664D01*
X63617380Y-68314424D01*
X63743382Y-68444902D01*
X63895159Y-68544222D01*
X63901763Y-68546678D01*
X63901765Y-68546679D01*
X64058558Y-68604990D01*
X64058560Y-68604990D01*
X64065168Y-68607448D01*
X64148995Y-68618633D01*
X64237980Y-68630507D01*
X64237984Y-68630507D01*
X64244961Y-68631438D01*
X64251972Y-68630800D01*
X64251976Y-68630800D01*
X64394459Y-68617832D01*
X64425600Y-68614998D01*
X64432302Y-68612820D01*
X64432304Y-68612820D01*
X64591409Y-68561124D01*
X64591412Y-68561123D01*
X64598108Y-68558947D01*
X64753912Y-68466069D01*
X64784838Y-68436618D01*
X64847962Y-68404126D01*
X64918633Y-68410919D01*
X64940723Y-68422432D01*
X65012921Y-68469677D01*
X65057585Y-68498904D01*
X65064189Y-68501360D01*
X65064191Y-68501361D01*
X65220984Y-68559672D01*
X65220986Y-68559672D01*
X65227594Y-68562130D01*
X65311421Y-68573315D01*
X65400406Y-68585189D01*
X65400410Y-68585189D01*
X65407387Y-68586120D01*
X65414398Y-68585482D01*
X65414402Y-68585482D01*
X65556885Y-68572514D01*
X65588026Y-68569680D01*
X65594728Y-68567502D01*
X65594730Y-68567502D01*
X65753835Y-68515806D01*
X65753838Y-68515805D01*
X65760534Y-68513629D01*
X65869353Y-68448760D01*
X65910286Y-68424359D01*
X65910288Y-68424358D01*
X65916338Y-68420751D01*
X66047692Y-68295664D01*
X66148069Y-68144584D01*
X66189849Y-68034599D01*
X66209981Y-67981602D01*
X66209982Y-67981600D01*
X66212481Y-67975020D01*
X66237725Y-67795399D01*
X66238042Y-67772682D01*
X66217823Y-67592427D01*
X66215506Y-67585773D01*
X66160490Y-67427788D01*
X66160488Y-67427785D01*
X66158171Y-67421130D01*
X66062052Y-67267306D01*
X66027667Y-67232680D01*
X65939204Y-67143597D01*
X65939200Y-67143594D01*
X65934241Y-67138600D01*
X65923123Y-67131544D01*
X65848474Y-67084171D01*
X65781092Y-67041409D01*
X65751889Y-67031010D01*
X65616851Y-66982925D01*
X65616846Y-66982924D01*
X65610216Y-66980563D01*
X65603228Y-66979730D01*
X65603225Y-66979729D01*
X65480124Y-66965050D01*
X65430106Y-66959086D01*
X65423103Y-66959822D01*
X65423102Y-66959822D01*
X65256714Y-66977310D01*
X65256712Y-66977311D01*
X65249714Y-66978046D01*
X65078005Y-67036500D01*
X65072001Y-67040194D01*
X64929521Y-67127848D01*
X64929518Y-67127850D01*
X64923514Y-67131544D01*
X64918479Y-67136475D01*
X64918476Y-67136477D01*
X64902763Y-67151865D01*
X64840098Y-67185236D01*
X64769339Y-67179430D01*
X64747091Y-67168228D01*
X64618666Y-67086727D01*
X64589463Y-67076328D01*
X64454425Y-67028243D01*
X64454420Y-67028242D01*
X64447790Y-67025881D01*
X64440802Y-67025048D01*
X64440799Y-67025047D01*
X64314869Y-67010031D01*
X64267680Y-67004404D01*
X64260677Y-67005140D01*
X64260676Y-67005140D01*
X64094288Y-67022628D01*
X64094286Y-67022629D01*
X64087288Y-67023364D01*
X63915579Y-67081818D01*
X63853109Y-67120250D01*
X63767095Y-67173166D01*
X63767092Y-67173168D01*
X63761088Y-67176862D01*
X63756053Y-67181793D01*
X63756050Y-67181795D01*
X63662629Y-67273280D01*
X63631493Y-67303771D01*
X63533235Y-67456238D01*
X63530826Y-67462858D01*
X63530824Y-67462861D01*
X63473606Y-67620066D01*
X63471197Y-67626685D01*
X63448463Y-67806640D01*
X51917175Y-67806640D01*
X51882426Y-67752926D01*
X51876136Y-67744757D01*
X51732806Y-67587240D01*
X51725273Y-67580215D01*
X51558139Y-67448222D01*
X51549556Y-67442520D01*
X51512602Y-67422120D01*
X51462631Y-67371687D01*
X51447859Y-67302245D01*
X51472975Y-67235839D01*
X51500327Y-67209232D01*
X51550890Y-67173166D01*
X51679860Y-67081173D01*
X51720983Y-67040194D01*
X51834435Y-66927137D01*
X51838096Y-66923489D01*
X51897594Y-66840689D01*
X51965435Y-66746277D01*
X51968453Y-66742077D01*
X52067430Y-66541811D01*
X52132370Y-66328069D01*
X52161529Y-66106590D01*
X52162790Y-66054982D01*
X52163074Y-66043365D01*
X52163074Y-66043361D01*
X52163156Y-66040000D01*
X52144852Y-65817361D01*
X52090431Y-65600702D01*
X52028443Y-65458140D01*
X63194463Y-65458140D01*
X63212163Y-65638660D01*
X63269418Y-65810773D01*
X63273065Y-65816795D01*
X63273066Y-65816797D01*
X63321829Y-65897314D01*
X63363380Y-65965924D01*
X63489382Y-66096402D01*
X63541644Y-66130601D01*
X63617239Y-66180069D01*
X63641159Y-66195722D01*
X63647763Y-66198178D01*
X63647765Y-66198179D01*
X63804558Y-66256490D01*
X63804560Y-66256490D01*
X63811168Y-66258948D01*
X63889051Y-66269340D01*
X63983980Y-66282007D01*
X63983984Y-66282007D01*
X63990961Y-66282938D01*
X63997972Y-66282300D01*
X63997976Y-66282300D01*
X64140459Y-66269332D01*
X64171600Y-66266498D01*
X64178302Y-66264320D01*
X64178304Y-66264320D01*
X64337409Y-66212624D01*
X64337412Y-66212623D01*
X64344108Y-66210447D01*
X64402093Y-66175881D01*
X64470847Y-66158181D01*
X64535603Y-66178678D01*
X64613596Y-66229715D01*
X64657159Y-66258222D01*
X64663763Y-66260678D01*
X64663765Y-66260679D01*
X64820558Y-66318990D01*
X64820560Y-66318990D01*
X64827168Y-66321448D01*
X64910995Y-66332633D01*
X64999980Y-66344507D01*
X64999984Y-66344507D01*
X65006961Y-66345438D01*
X65013972Y-66344800D01*
X65013976Y-66344800D01*
X65156459Y-66331832D01*
X65187600Y-66328998D01*
X65194302Y-66326820D01*
X65194304Y-66326820D01*
X65353409Y-66275124D01*
X65353412Y-66275123D01*
X65360108Y-66272947D01*
X65471003Y-66206840D01*
X65509860Y-66183677D01*
X65509862Y-66183676D01*
X65515912Y-66180069D01*
X65647266Y-66054982D01*
X65679348Y-66006695D01*
X77377251Y-66006695D01*
X77377548Y-66011848D01*
X77377548Y-66011851D01*
X77387928Y-66191864D01*
X77390110Y-66229715D01*
X77391247Y-66234761D01*
X77391248Y-66234767D01*
X77402104Y-66282938D01*
X77439222Y-66447639D01*
X77523266Y-66654616D01*
X77639987Y-66845088D01*
X77786250Y-67013938D01*
X77958126Y-67156632D01*
X78004821Y-67183918D01*
X78031955Y-67199774D01*
X78080679Y-67251412D01*
X78093750Y-67321195D01*
X78067019Y-67386967D01*
X78026562Y-67420327D01*
X78018457Y-67424546D01*
X78009738Y-67430036D01*
X77839433Y-67557905D01*
X77831726Y-67564748D01*
X77684590Y-67718717D01*
X77678104Y-67726727D01*
X77558098Y-67902649D01*
X77553000Y-67911623D01*
X77463338Y-68104783D01*
X77459775Y-68114470D01*
X77404389Y-68314183D01*
X77405912Y-68322607D01*
X77418292Y-68326000D01*
X80058344Y-68326000D01*
X80071875Y-68322027D01*
X80073180Y-68312947D01*
X80031214Y-68145875D01*
X80027894Y-68136124D01*
X79942972Y-67940814D01*
X79938105Y-67931739D01*
X79822426Y-67752926D01*
X79816136Y-67744757D01*
X79672806Y-67587240D01*
X79665273Y-67580215D01*
X79498139Y-67448222D01*
X79489556Y-67442520D01*
X79452602Y-67422120D01*
X79402631Y-67371687D01*
X79387859Y-67302245D01*
X79412975Y-67235839D01*
X79440327Y-67209232D01*
X79490890Y-67173166D01*
X79619860Y-67081173D01*
X79660983Y-67040194D01*
X79774435Y-66927137D01*
X79778096Y-66923489D01*
X79837594Y-66840689D01*
X79905435Y-66746277D01*
X79908453Y-66742077D01*
X80007430Y-66541811D01*
X80072370Y-66328069D01*
X80101529Y-66106590D01*
X80102790Y-66054982D01*
X80103074Y-66043365D01*
X80103074Y-66043361D01*
X80103156Y-66040000D01*
X80084852Y-65817361D01*
X80030431Y-65600702D01*
X79941354Y-65395840D01*
X79820014Y-65208277D01*
X79669670Y-65043051D01*
X79665619Y-65039852D01*
X79665615Y-65039848D01*
X79498414Y-64907800D01*
X79498410Y-64907798D01*
X79494359Y-64904598D01*
X79453053Y-64881796D01*
X79403084Y-64831364D01*
X79388312Y-64761921D01*
X79413428Y-64695516D01*
X79440780Y-64668909D01*
X79484603Y-64637650D01*
X79619860Y-64541173D01*
X79669868Y-64491340D01*
X79774435Y-64387137D01*
X79778096Y-64383489D01*
X79837594Y-64300689D01*
X79905435Y-64206277D01*
X79908453Y-64202077D01*
X79958262Y-64101297D01*
X80005136Y-64006453D01*
X80005137Y-64006451D01*
X80007430Y-64001811D01*
X80072370Y-63788069D01*
X80101529Y-63566590D01*
X80101611Y-63563240D01*
X80103074Y-63503365D01*
X80103074Y-63503361D01*
X80103156Y-63500000D01*
X80084852Y-63277361D01*
X80030431Y-63060702D01*
X79941354Y-62855840D01*
X79820014Y-62668277D01*
X79669670Y-62503051D01*
X79665619Y-62499852D01*
X79665615Y-62499848D01*
X79498414Y-62367800D01*
X79498410Y-62367798D01*
X79494359Y-62364598D01*
X79452569Y-62341529D01*
X79402598Y-62291097D01*
X79387826Y-62221654D01*
X79412942Y-62155248D01*
X79440294Y-62128641D01*
X79615328Y-62003792D01*
X79623200Y-61997139D01*
X79774052Y-61846812D01*
X79780730Y-61838965D01*
X79905003Y-61666020D01*
X79910313Y-61657183D01*
X80004670Y-61466267D01*
X80008469Y-61456672D01*
X80070377Y-61252910D01*
X80072555Y-61242837D01*
X80073986Y-61231962D01*
X80071775Y-61217778D01*
X80058617Y-61214000D01*
X77423225Y-61214000D01*
X77409694Y-61217973D01*
X77408257Y-61227966D01*
X77438565Y-61362446D01*
X77441645Y-61372275D01*
X77521770Y-61569603D01*
X77526413Y-61578794D01*
X77637694Y-61760388D01*
X77643777Y-61768699D01*
X77783213Y-61929667D01*
X77790580Y-61936883D01*
X77954434Y-62072916D01*
X77962881Y-62078831D01*
X78031969Y-62119203D01*
X78080693Y-62170842D01*
X78093764Y-62240625D01*
X78067033Y-62306396D01*
X78026584Y-62339752D01*
X78013607Y-62346507D01*
X78009474Y-62349610D01*
X78009471Y-62349612D01*
X77839100Y-62477530D01*
X77834965Y-62480635D01*
X77680629Y-62642138D01*
X77554743Y-62826680D01*
X77460688Y-63029305D01*
X77400989Y-63244570D01*
X77377251Y-63466695D01*
X77377548Y-63471848D01*
X77377548Y-63471851D01*
X77383011Y-63566590D01*
X77390110Y-63689715D01*
X77391247Y-63694761D01*
X77391248Y-63694767D01*
X77409717Y-63776717D01*
X77439222Y-63907639D01*
X77523266Y-64114616D01*
X77525965Y-64119020D01*
X77622764Y-64276982D01*
X77639987Y-64305088D01*
X77786250Y-64473938D01*
X77958126Y-64616632D01*
X78025332Y-64655904D01*
X78031445Y-64659476D01*
X78080169Y-64711114D01*
X78093240Y-64780897D01*
X78066509Y-64846669D01*
X78026055Y-64880027D01*
X78013607Y-64886507D01*
X78009474Y-64889610D01*
X78009471Y-64889612D01*
X77914134Y-64961193D01*
X77834965Y-65020635D01*
X77680629Y-65182138D01*
X77554743Y-65366680D01*
X77539003Y-65400590D01*
X77469298Y-65550757D01*
X77460688Y-65569305D01*
X77400989Y-65784570D01*
X77377251Y-66006695D01*
X65679348Y-66006695D01*
X65747643Y-65903902D01*
X65791022Y-65789707D01*
X65809555Y-65740920D01*
X65809556Y-65740918D01*
X65812055Y-65734338D01*
X65837299Y-65554717D01*
X65837616Y-65532000D01*
X65817397Y-65351745D01*
X65789476Y-65271566D01*
X65760064Y-65187106D01*
X65760062Y-65187103D01*
X65757745Y-65180448D01*
X65661626Y-65026624D01*
X65655679Y-65020635D01*
X65538778Y-64902915D01*
X65538774Y-64902912D01*
X65533815Y-64897918D01*
X65508413Y-64881797D01*
X65453059Y-64846669D01*
X65380666Y-64800727D01*
X65324977Y-64780897D01*
X65216425Y-64742243D01*
X65216420Y-64742242D01*
X65209790Y-64739881D01*
X65202802Y-64739048D01*
X65202799Y-64739047D01*
X65079698Y-64724368D01*
X65029680Y-64718404D01*
X65022677Y-64719140D01*
X65022676Y-64719140D01*
X64856288Y-64736628D01*
X64856286Y-64736629D01*
X64849288Y-64737364D01*
X64677579Y-64795818D01*
X64631830Y-64823963D01*
X64563329Y-64842621D01*
X64498297Y-64823032D01*
X64364666Y-64738227D01*
X64311339Y-64719238D01*
X64200425Y-64679743D01*
X64200420Y-64679742D01*
X64193790Y-64677381D01*
X64186802Y-64676548D01*
X64186799Y-64676547D01*
X64043635Y-64659476D01*
X64013680Y-64655904D01*
X64006677Y-64656640D01*
X64006676Y-64656640D01*
X63840288Y-64674128D01*
X63840286Y-64674129D01*
X63833288Y-64674864D01*
X63661579Y-64733318D01*
X63647072Y-64742243D01*
X63513095Y-64824666D01*
X63513092Y-64824668D01*
X63507088Y-64828362D01*
X63502053Y-64833293D01*
X63502050Y-64833295D01*
X63382525Y-64950343D01*
X63377493Y-64955271D01*
X63279235Y-65107738D01*
X63276826Y-65114358D01*
X63276824Y-65114361D01*
X63241062Y-65212617D01*
X63217197Y-65278185D01*
X63194463Y-65458140D01*
X52028443Y-65458140D01*
X52001354Y-65395840D01*
X51880014Y-65208277D01*
X51729670Y-65043051D01*
X51725619Y-65039852D01*
X51725615Y-65039848D01*
X51558414Y-64907800D01*
X51558410Y-64907798D01*
X51554359Y-64904598D01*
X51513053Y-64881796D01*
X51463084Y-64831364D01*
X51448312Y-64761921D01*
X51473428Y-64695516D01*
X51500780Y-64668909D01*
X51544603Y-64637650D01*
X51679860Y-64541173D01*
X51729868Y-64491340D01*
X51834435Y-64387137D01*
X51838096Y-64383489D01*
X51897594Y-64300689D01*
X51965435Y-64206277D01*
X51968453Y-64202077D01*
X52018262Y-64101297D01*
X52065136Y-64006453D01*
X52065137Y-64006451D01*
X52067430Y-64001811D01*
X52132370Y-63788069D01*
X52138351Y-63742640D01*
X54939463Y-63742640D01*
X54957163Y-63923160D01*
X55014418Y-64095273D01*
X55018065Y-64101295D01*
X55018066Y-64101297D01*
X55076291Y-64197438D01*
X55108380Y-64250424D01*
X55234382Y-64380902D01*
X55240278Y-64384760D01*
X55370586Y-64470031D01*
X55386159Y-64480222D01*
X55392763Y-64482678D01*
X55392765Y-64482679D01*
X55549558Y-64540990D01*
X55549560Y-64540990D01*
X55556168Y-64543448D01*
X55639995Y-64554633D01*
X55728980Y-64566507D01*
X55728984Y-64566507D01*
X55735961Y-64567438D01*
X55742972Y-64566800D01*
X55742976Y-64566800D01*
X55885459Y-64553832D01*
X55916600Y-64550998D01*
X55923302Y-64548820D01*
X55923304Y-64548820D01*
X56082409Y-64497124D01*
X56082412Y-64497123D01*
X56089108Y-64494947D01*
X56244912Y-64402069D01*
X56376266Y-64276982D01*
X56476643Y-64125902D01*
X56541055Y-63956338D01*
X56542035Y-63949366D01*
X56565748Y-63780639D01*
X56565748Y-63780636D01*
X56566299Y-63776717D01*
X56566616Y-63754000D01*
X56565342Y-63742640D01*
X57366963Y-63742640D01*
X57384663Y-63923160D01*
X57441918Y-64095273D01*
X57445565Y-64101295D01*
X57445566Y-64101297D01*
X57503791Y-64197438D01*
X57535880Y-64250424D01*
X57661882Y-64380902D01*
X57667778Y-64384760D01*
X57798086Y-64470031D01*
X57813659Y-64480222D01*
X57820263Y-64482678D01*
X57820265Y-64482679D01*
X57977058Y-64540990D01*
X57977060Y-64540990D01*
X57983668Y-64543448D01*
X58067495Y-64554633D01*
X58156480Y-64566507D01*
X58156484Y-64566507D01*
X58163461Y-64567438D01*
X58170472Y-64566800D01*
X58170476Y-64566800D01*
X58312959Y-64553832D01*
X58344100Y-64550998D01*
X58350802Y-64548820D01*
X58350804Y-64548820D01*
X58509909Y-64497124D01*
X58509912Y-64497123D01*
X58516608Y-64494947D01*
X58672412Y-64402069D01*
X58803766Y-64276982D01*
X58904143Y-64125902D01*
X58968555Y-63956338D01*
X58969535Y-63949366D01*
X58993248Y-63780639D01*
X58993248Y-63780636D01*
X58993799Y-63776717D01*
X58994116Y-63754000D01*
X58973897Y-63573745D01*
X58971580Y-63567091D01*
X58916564Y-63409106D01*
X58916562Y-63409103D01*
X58914245Y-63402448D01*
X58818126Y-63248624D01*
X58804441Y-63234843D01*
X58695278Y-63124915D01*
X58695274Y-63124912D01*
X58690315Y-63119918D01*
X58679197Y-63112862D01*
X58597005Y-63060702D01*
X58537166Y-63022727D01*
X58507963Y-63012328D01*
X58372925Y-62964243D01*
X58372920Y-62964242D01*
X58366290Y-62961881D01*
X58359302Y-62961048D01*
X58359299Y-62961047D01*
X58236198Y-62946368D01*
X58186180Y-62940404D01*
X58179177Y-62941140D01*
X58179176Y-62941140D01*
X58012788Y-62958628D01*
X58012786Y-62958629D01*
X58005788Y-62959364D01*
X57834079Y-63017818D01*
X57807293Y-63034297D01*
X57685595Y-63109166D01*
X57685592Y-63109168D01*
X57679588Y-63112862D01*
X57674553Y-63117793D01*
X57674550Y-63117795D01*
X57555025Y-63234843D01*
X57549993Y-63239771D01*
X57451735Y-63392238D01*
X57449326Y-63398858D01*
X57449324Y-63398861D01*
X57411288Y-63503365D01*
X57389697Y-63562685D01*
X57366963Y-63742640D01*
X56565342Y-63742640D01*
X56546397Y-63573745D01*
X56544080Y-63567091D01*
X56489064Y-63409106D01*
X56489062Y-63409103D01*
X56486745Y-63402448D01*
X56390626Y-63248624D01*
X56376941Y-63234843D01*
X56267778Y-63124915D01*
X56267774Y-63124912D01*
X56262815Y-63119918D01*
X56251697Y-63112862D01*
X56169505Y-63060702D01*
X56109666Y-63022727D01*
X56080463Y-63012328D01*
X55945425Y-62964243D01*
X55945420Y-62964242D01*
X55938790Y-62961881D01*
X55931802Y-62961048D01*
X55931799Y-62961047D01*
X55808698Y-62946368D01*
X55758680Y-62940404D01*
X55751677Y-62941140D01*
X55751676Y-62941140D01*
X55585288Y-62958628D01*
X55585286Y-62958629D01*
X55578288Y-62959364D01*
X55406579Y-63017818D01*
X55379793Y-63034297D01*
X55258095Y-63109166D01*
X55258092Y-63109168D01*
X55252088Y-63112862D01*
X55247053Y-63117793D01*
X55247050Y-63117795D01*
X55127525Y-63234843D01*
X55122493Y-63239771D01*
X55024235Y-63392238D01*
X55021826Y-63398858D01*
X55021824Y-63398861D01*
X54983788Y-63503365D01*
X54962197Y-63562685D01*
X54939463Y-63742640D01*
X52138351Y-63742640D01*
X52161529Y-63566590D01*
X52161611Y-63563240D01*
X52163074Y-63503365D01*
X52163074Y-63503361D01*
X52163156Y-63500000D01*
X52144852Y-63277361D01*
X52090431Y-63060702D01*
X52001354Y-62855840D01*
X51880014Y-62668277D01*
X51729670Y-62503051D01*
X51725619Y-62499852D01*
X51725615Y-62499848D01*
X51558414Y-62367800D01*
X51558410Y-62367798D01*
X51554359Y-62364598D01*
X51512569Y-62341529D01*
X51462598Y-62291097D01*
X51447826Y-62221654D01*
X51472942Y-62155248D01*
X51500294Y-62128641D01*
X51675328Y-62003792D01*
X51683200Y-61997139D01*
X51834052Y-61846812D01*
X51840730Y-61838965D01*
X51965003Y-61666020D01*
X51970313Y-61657183D01*
X52064670Y-61466267D01*
X52068469Y-61456672D01*
X52130377Y-61252910D01*
X52132555Y-61242837D01*
X52133986Y-61231962D01*
X52131775Y-61217778D01*
X52118617Y-61214000D01*
X49483225Y-61214000D01*
X49469694Y-61217973D01*
X49468257Y-61227966D01*
X49498565Y-61362446D01*
X49501645Y-61372275D01*
X49581770Y-61569603D01*
X49586413Y-61578794D01*
X49697694Y-61760388D01*
X49703777Y-61768699D01*
X49843213Y-61929667D01*
X49850580Y-61936883D01*
X50014434Y-62072916D01*
X50022881Y-62078831D01*
X50091969Y-62119203D01*
X50140693Y-62170842D01*
X50153764Y-62240625D01*
X50127033Y-62306396D01*
X50086584Y-62339752D01*
X50073607Y-62346507D01*
X50069474Y-62349610D01*
X50069471Y-62349612D01*
X49899100Y-62477530D01*
X49894965Y-62480635D01*
X49740629Y-62642138D01*
X49614743Y-62826680D01*
X49520688Y-63029305D01*
X49460989Y-63244570D01*
X49437251Y-63466695D01*
X49437548Y-63471848D01*
X49437548Y-63471851D01*
X49443011Y-63566590D01*
X49450110Y-63689715D01*
X49451247Y-63694761D01*
X49451248Y-63694767D01*
X49469717Y-63776717D01*
X49499222Y-63907639D01*
X49583266Y-64114616D01*
X49585965Y-64119020D01*
X49682764Y-64276982D01*
X49699987Y-64305088D01*
X49846250Y-64473938D01*
X50018126Y-64616632D01*
X50085332Y-64655904D01*
X50091445Y-64659476D01*
X50140169Y-64711114D01*
X50153240Y-64780897D01*
X50126509Y-64846669D01*
X50086055Y-64880027D01*
X50073607Y-64886507D01*
X50069474Y-64889610D01*
X50069471Y-64889612D01*
X49974134Y-64961193D01*
X49894965Y-65020635D01*
X49740629Y-65182138D01*
X49614743Y-65366680D01*
X49599003Y-65400590D01*
X49529298Y-65550757D01*
X49520688Y-65569305D01*
X49460989Y-65784570D01*
X49437251Y-66006695D01*
X48768500Y-66006695D01*
X48768500Y-60948640D01*
X55828463Y-60948640D01*
X55846163Y-61129160D01*
X55903418Y-61301273D01*
X55907065Y-61307295D01*
X55907066Y-61307297D01*
X55962206Y-61398344D01*
X55997380Y-61456424D01*
X56002269Y-61461487D01*
X56002270Y-61461488D01*
X56052705Y-61513714D01*
X56123382Y-61586902D01*
X56161242Y-61611677D01*
X56258912Y-61675590D01*
X56275159Y-61686222D01*
X56281763Y-61688678D01*
X56281765Y-61688679D01*
X56438558Y-61746990D01*
X56438560Y-61746990D01*
X56445168Y-61749448D01*
X56527158Y-61760388D01*
X56617980Y-61772507D01*
X56617984Y-61772507D01*
X56624961Y-61773438D01*
X56631972Y-61772800D01*
X56631976Y-61772800D01*
X56778076Y-61759503D01*
X56805600Y-61756998D01*
X56812302Y-61754820D01*
X56812304Y-61754820D01*
X56971409Y-61703124D01*
X56971412Y-61703123D01*
X56978108Y-61700947D01*
X57074513Y-61643478D01*
X57127860Y-61611677D01*
X57127862Y-61611676D01*
X57133912Y-61608069D01*
X57265266Y-61482982D01*
X57365643Y-61331902D01*
X57366502Y-61329640D01*
X63194463Y-61329640D01*
X63212163Y-61510160D01*
X63269418Y-61682273D01*
X63273065Y-61688295D01*
X63273066Y-61688297D01*
X63332323Y-61786142D01*
X63363380Y-61837424D01*
X63489382Y-61967902D01*
X63641159Y-62067222D01*
X63647763Y-62069678D01*
X63647765Y-62069679D01*
X63804558Y-62127990D01*
X63804560Y-62127990D01*
X63811168Y-62130448D01*
X63904445Y-62142894D01*
X63983981Y-62153507D01*
X63983984Y-62153507D01*
X63990961Y-62154438D01*
X63995903Y-62153988D01*
X64062805Y-62175164D01*
X64100255Y-62214440D01*
X64125380Y-62255927D01*
X64130269Y-62260990D01*
X64130270Y-62260991D01*
X64174118Y-62306396D01*
X64251382Y-62386405D01*
X64257278Y-62390263D01*
X64395381Y-62480635D01*
X64403159Y-62485725D01*
X64409763Y-62488181D01*
X64409765Y-62488182D01*
X64566558Y-62546493D01*
X64566560Y-62546493D01*
X64573168Y-62548951D01*
X64656995Y-62560136D01*
X64745980Y-62572010D01*
X64745984Y-62572010D01*
X64752961Y-62572941D01*
X64759972Y-62572303D01*
X64759976Y-62572303D01*
X64902459Y-62559335D01*
X64933600Y-62556501D01*
X64940302Y-62554323D01*
X64940304Y-62554323D01*
X65099409Y-62502627D01*
X65099412Y-62502626D01*
X65106108Y-62500450D01*
X65261912Y-62407572D01*
X65393266Y-62282485D01*
X65493643Y-62131405D01*
X65542119Y-62003792D01*
X65555555Y-61968423D01*
X65555556Y-61968421D01*
X65558055Y-61961841D01*
X65583299Y-61782220D01*
X65583616Y-61759503D01*
X65563397Y-61579248D01*
X65543524Y-61522180D01*
X65506064Y-61414609D01*
X65506062Y-61414606D01*
X65503745Y-61407951D01*
X65459893Y-61337773D01*
X65411359Y-61260101D01*
X65407626Y-61254127D01*
X65395986Y-61242405D01*
X65284778Y-61130418D01*
X65284774Y-61130415D01*
X65279815Y-61125421D01*
X65270990Y-61119820D01*
X65220538Y-61087803D01*
X65126666Y-61028230D01*
X65097463Y-61017831D01*
X64962425Y-60969746D01*
X64962420Y-60969745D01*
X64955790Y-60967384D01*
X64948802Y-60966551D01*
X64948799Y-60966550D01*
X64775680Y-60945907D01*
X64775872Y-60944294D01*
X64716046Y-60926269D01*
X64678056Y-60887523D01*
X64649359Y-60841598D01*
X64645626Y-60835624D01*
X64581447Y-60770996D01*
X64522778Y-60711915D01*
X64522774Y-60711912D01*
X64517815Y-60706918D01*
X64506697Y-60699862D01*
X64458538Y-60669300D01*
X64364666Y-60609727D01*
X64315759Y-60592312D01*
X64200425Y-60551243D01*
X64200420Y-60551242D01*
X64193790Y-60548881D01*
X64186802Y-60548048D01*
X64186799Y-60548047D01*
X64063698Y-60533368D01*
X64013680Y-60527404D01*
X64006677Y-60528140D01*
X64006676Y-60528140D01*
X63840288Y-60545628D01*
X63840286Y-60545629D01*
X63833288Y-60546364D01*
X63661579Y-60604818D01*
X63599109Y-60643250D01*
X63513095Y-60696166D01*
X63513092Y-60696168D01*
X63507088Y-60699862D01*
X63502053Y-60704793D01*
X63502050Y-60704795D01*
X63386721Y-60817734D01*
X63377493Y-60826771D01*
X63279235Y-60979238D01*
X63276826Y-60985858D01*
X63276824Y-60985861D01*
X63219606Y-61143066D01*
X63217197Y-61149685D01*
X63194463Y-61329640D01*
X57366502Y-61329640D01*
X57430055Y-61162338D01*
X57431833Y-61149685D01*
X57454748Y-60986639D01*
X57454748Y-60986636D01*
X57455299Y-60982717D01*
X57455480Y-60969746D01*
X57455561Y-60963962D01*
X57455561Y-60963957D01*
X57455616Y-60960000D01*
X57435397Y-60779745D01*
X57433080Y-60773091D01*
X57378064Y-60615106D01*
X57378062Y-60615103D01*
X57375745Y-60608448D01*
X57325625Y-60528238D01*
X57283359Y-60460598D01*
X57279626Y-60454624D01*
X57274664Y-60449627D01*
X57156778Y-60330915D01*
X57156774Y-60330912D01*
X57151815Y-60325918D01*
X57144164Y-60321062D01*
X57132469Y-60313640D01*
X59892463Y-60313640D01*
X59910163Y-60494160D01*
X59967418Y-60666273D01*
X59971065Y-60672295D01*
X59971066Y-60672297D01*
X60056961Y-60814127D01*
X60061380Y-60821424D01*
X60066269Y-60826487D01*
X60066270Y-60826488D01*
X60143121Y-60906068D01*
X60187382Y-60951902D01*
X60199757Y-60960000D01*
X60304024Y-61028230D01*
X60339159Y-61051222D01*
X60345763Y-61053678D01*
X60345765Y-61053679D01*
X60502558Y-61111990D01*
X60502560Y-61111990D01*
X60509168Y-61114448D01*
X60591405Y-61125421D01*
X60681980Y-61137507D01*
X60681984Y-61137507D01*
X60688961Y-61138438D01*
X60695972Y-61137800D01*
X60695976Y-61137800D01*
X60838459Y-61124832D01*
X60869600Y-61121998D01*
X60876302Y-61119820D01*
X60876304Y-61119820D01*
X61035409Y-61068124D01*
X61035412Y-61068123D01*
X61042108Y-61065947D01*
X61175148Y-60986639D01*
X61191860Y-60976677D01*
X61191862Y-60976676D01*
X61197912Y-60973069D01*
X61329266Y-60847982D01*
X61429643Y-60696902D01*
X61484974Y-60551243D01*
X61491555Y-60533920D01*
X61491556Y-60533918D01*
X61494055Y-60527338D01*
X61496669Y-60508741D01*
X61518748Y-60351639D01*
X61518748Y-60351636D01*
X61519299Y-60347717D01*
X61519452Y-60336738D01*
X61519561Y-60328962D01*
X61519561Y-60328957D01*
X61519616Y-60325000D01*
X61499397Y-60144745D01*
X61497080Y-60138091D01*
X61471776Y-60065427D01*
X69930657Y-60065427D01*
X69948357Y-60245947D01*
X70005612Y-60418060D01*
X70009259Y-60424082D01*
X70009260Y-60424084D01*
X70086270Y-60551243D01*
X70099574Y-60573211D01*
X70104463Y-60578274D01*
X70104464Y-60578275D01*
X70129913Y-60604628D01*
X70225576Y-60703689D01*
X70377353Y-60803009D01*
X70383957Y-60805465D01*
X70383959Y-60805466D01*
X70540752Y-60863777D01*
X70540754Y-60863777D01*
X70547362Y-60866235D01*
X70631189Y-60877420D01*
X70720174Y-60889294D01*
X70720178Y-60889294D01*
X70727155Y-60890225D01*
X70734166Y-60889587D01*
X70734170Y-60889587D01*
X70900322Y-60874465D01*
X70907794Y-60873785D01*
X70914496Y-60871607D01*
X70914498Y-60871607D01*
X70952859Y-60859143D01*
X75132463Y-60859143D01*
X75150163Y-61039663D01*
X75207418Y-61211776D01*
X75211065Y-61217798D01*
X75211066Y-61217800D01*
X75283046Y-61336653D01*
X75301380Y-61366927D01*
X75306269Y-61371990D01*
X75306270Y-61371991D01*
X75321357Y-61387614D01*
X75427382Y-61497405D01*
X75433278Y-61501263D01*
X75570044Y-61590760D01*
X75579159Y-61596725D01*
X75585763Y-61599181D01*
X75585765Y-61599182D01*
X75742558Y-61657493D01*
X75742560Y-61657493D01*
X75749168Y-61659951D01*
X75832995Y-61671136D01*
X75921980Y-61683010D01*
X75921984Y-61683010D01*
X75928961Y-61683941D01*
X75935972Y-61683303D01*
X75935976Y-61683303D01*
X76078459Y-61670335D01*
X76109600Y-61667501D01*
X76116302Y-61665323D01*
X76116304Y-61665323D01*
X76275409Y-61613627D01*
X76275412Y-61613626D01*
X76282108Y-61611450D01*
X76437912Y-61518572D01*
X76569266Y-61393485D01*
X76669643Y-61242405D01*
X76734055Y-61072841D01*
X76737636Y-61047364D01*
X76758748Y-60897142D01*
X76758748Y-60897139D01*
X76759299Y-60893220D01*
X76759616Y-60870503D01*
X76739397Y-60690248D01*
X76737080Y-60683594D01*
X76682064Y-60525609D01*
X76682062Y-60525606D01*
X76679745Y-60518951D01*
X76635841Y-60448689D01*
X76587359Y-60371101D01*
X76583626Y-60365127D01*
X76549652Y-60330915D01*
X76460778Y-60241418D01*
X76460774Y-60241415D01*
X76455815Y-60236421D01*
X76444697Y-60229365D01*
X76396538Y-60198803D01*
X76302666Y-60139230D01*
X76211387Y-60106727D01*
X76138425Y-60080746D01*
X76138420Y-60080745D01*
X76131790Y-60078384D01*
X76124802Y-60077551D01*
X76124799Y-60077550D01*
X76001698Y-60062871D01*
X75951680Y-60056907D01*
X75944677Y-60057643D01*
X75944676Y-60057643D01*
X75778288Y-60075131D01*
X75778286Y-60075132D01*
X75771288Y-60075867D01*
X75599579Y-60134321D01*
X75550316Y-60164628D01*
X75451095Y-60225669D01*
X75451092Y-60225671D01*
X75445088Y-60229365D01*
X75440053Y-60234296D01*
X75440050Y-60234298D01*
X75328275Y-60343757D01*
X75315493Y-60356274D01*
X75217235Y-60508741D01*
X75214826Y-60515361D01*
X75214824Y-60515364D01*
X75180944Y-60608448D01*
X75155197Y-60679188D01*
X75132463Y-60859143D01*
X70952859Y-60859143D01*
X71073603Y-60819911D01*
X71073606Y-60819910D01*
X71080302Y-60817734D01*
X71236106Y-60724856D01*
X71367460Y-60599769D01*
X71467837Y-60448689D01*
X71515908Y-60322143D01*
X71529749Y-60285707D01*
X71529750Y-60285705D01*
X71532249Y-60279125D01*
X71533229Y-60272153D01*
X71556942Y-60103426D01*
X71556942Y-60103423D01*
X71557493Y-60099504D01*
X71557810Y-60076787D01*
X71537591Y-59896532D01*
X71535274Y-59889878D01*
X71480258Y-59731893D01*
X71480256Y-59731890D01*
X71477939Y-59725235D01*
X71398126Y-59597506D01*
X71385553Y-59577385D01*
X71381820Y-59571411D01*
X71342730Y-59532047D01*
X71258972Y-59447702D01*
X71258968Y-59447699D01*
X71254009Y-59442705D01*
X71242891Y-59435649D01*
X71171008Y-59390031D01*
X71100860Y-59345514D01*
X71071657Y-59335115D01*
X70936619Y-59287030D01*
X70936614Y-59287029D01*
X70929984Y-59284668D01*
X70922996Y-59283835D01*
X70922993Y-59283834D01*
X70799892Y-59269155D01*
X70749874Y-59263191D01*
X70742871Y-59263927D01*
X70742870Y-59263927D01*
X70576482Y-59281415D01*
X70576480Y-59281416D01*
X70569482Y-59282151D01*
X70397773Y-59340605D01*
X70391769Y-59344299D01*
X70249289Y-59431953D01*
X70249286Y-59431955D01*
X70243282Y-59435649D01*
X70238247Y-59440580D01*
X70238244Y-59440582D01*
X70137496Y-59539242D01*
X70113687Y-59562558D01*
X70015429Y-59715025D01*
X70013020Y-59721645D01*
X70013018Y-59721648D01*
X69977358Y-59819624D01*
X69953391Y-59885472D01*
X69930657Y-60065427D01*
X61471776Y-60065427D01*
X61442064Y-59980106D01*
X61442062Y-59980103D01*
X61439745Y-59973448D01*
X61421811Y-59944748D01*
X61347359Y-59825598D01*
X61343626Y-59819624D01*
X61324463Y-59800327D01*
X61220778Y-59695915D01*
X61220774Y-59695912D01*
X61215815Y-59690918D01*
X61204697Y-59683862D01*
X61097509Y-59615839D01*
X61062666Y-59593727D01*
X61016772Y-59577385D01*
X60898425Y-59535243D01*
X60898420Y-59535242D01*
X60891790Y-59532881D01*
X60884802Y-59532048D01*
X60884799Y-59532047D01*
X60761698Y-59517368D01*
X60711680Y-59511404D01*
X60704677Y-59512140D01*
X60704676Y-59512140D01*
X60538288Y-59529628D01*
X60538286Y-59529629D01*
X60531288Y-59530364D01*
X60359579Y-59588818D01*
X60353575Y-59592512D01*
X60211095Y-59680166D01*
X60211092Y-59680168D01*
X60205088Y-59683862D01*
X60200053Y-59688793D01*
X60200050Y-59688795D01*
X60080525Y-59805843D01*
X60075493Y-59810771D01*
X59977235Y-59963238D01*
X59974826Y-59969858D01*
X59974824Y-59969861D01*
X59917606Y-60127066D01*
X59915197Y-60133685D01*
X59892463Y-60313640D01*
X57132469Y-60313640D01*
X57078081Y-60279125D01*
X56998666Y-60228727D01*
X56969463Y-60218328D01*
X56834425Y-60170243D01*
X56834420Y-60170242D01*
X56827790Y-60167881D01*
X56820802Y-60167048D01*
X56820799Y-60167047D01*
X56692462Y-60151744D01*
X56647680Y-60146404D01*
X56640677Y-60147140D01*
X56640676Y-60147140D01*
X56474288Y-60164628D01*
X56474286Y-60164629D01*
X56467288Y-60165364D01*
X56295579Y-60223818D01*
X56233109Y-60262250D01*
X56147095Y-60315166D01*
X56147092Y-60315168D01*
X56141088Y-60318862D01*
X56136053Y-60323793D01*
X56136050Y-60323795D01*
X56087743Y-60371101D01*
X56011493Y-60445771D01*
X55913235Y-60598238D01*
X55910826Y-60604858D01*
X55910824Y-60604861D01*
X55865836Y-60728464D01*
X55851197Y-60768685D01*
X55828463Y-60948640D01*
X48768500Y-60948640D01*
X48768500Y-58386695D01*
X49437251Y-58386695D01*
X49437548Y-58391848D01*
X49437548Y-58391851D01*
X49443011Y-58486590D01*
X49450110Y-58609715D01*
X49451247Y-58614761D01*
X49451248Y-58614767D01*
X49471119Y-58702939D01*
X49499222Y-58827639D01*
X49583266Y-59034616D01*
X49699987Y-59225088D01*
X49846250Y-59393938D01*
X50018126Y-59536632D01*
X50054060Y-59557630D01*
X50091955Y-59579774D01*
X50140679Y-59631412D01*
X50153750Y-59701195D01*
X50127019Y-59766967D01*
X50086562Y-59800327D01*
X50078457Y-59804546D01*
X50069738Y-59810036D01*
X49899433Y-59937905D01*
X49891726Y-59944748D01*
X49744590Y-60098717D01*
X49738104Y-60106727D01*
X49618098Y-60282649D01*
X49613000Y-60291623D01*
X49523338Y-60484783D01*
X49519775Y-60494470D01*
X49464389Y-60694183D01*
X49465912Y-60702607D01*
X49478292Y-60706000D01*
X52118344Y-60706000D01*
X52131875Y-60702027D01*
X52133180Y-60692947D01*
X52091214Y-60525875D01*
X52087894Y-60516124D01*
X52002972Y-60320814D01*
X51998105Y-60311739D01*
X51882426Y-60132926D01*
X51876136Y-60124757D01*
X51732806Y-59967240D01*
X51725273Y-59960215D01*
X51558139Y-59828222D01*
X51549556Y-59822520D01*
X51512602Y-59802120D01*
X51462631Y-59751687D01*
X51447859Y-59682245D01*
X51472975Y-59615839D01*
X51500327Y-59589232D01*
X51544631Y-59557630D01*
X51679860Y-59461173D01*
X51705474Y-59435649D01*
X51834435Y-59307137D01*
X51838096Y-59303489D01*
X51851799Y-59284420D01*
X51965435Y-59126277D01*
X51968453Y-59122077D01*
X52067430Y-58921811D01*
X52132370Y-58708069D01*
X52161529Y-58486590D01*
X52163156Y-58420000D01*
X52160418Y-58386695D01*
X77377251Y-58386695D01*
X77377548Y-58391848D01*
X77377548Y-58391851D01*
X77383011Y-58486590D01*
X77390110Y-58609715D01*
X77391247Y-58614761D01*
X77391248Y-58614767D01*
X77411119Y-58702939D01*
X77439222Y-58827639D01*
X77523266Y-59034616D01*
X77639987Y-59225088D01*
X77786250Y-59393938D01*
X77958126Y-59536632D01*
X77994060Y-59557630D01*
X78031955Y-59579774D01*
X78080679Y-59631412D01*
X78093750Y-59701195D01*
X78067019Y-59766967D01*
X78026562Y-59800327D01*
X78018457Y-59804546D01*
X78009738Y-59810036D01*
X77839433Y-59937905D01*
X77831726Y-59944748D01*
X77684590Y-60098717D01*
X77678104Y-60106727D01*
X77558098Y-60282649D01*
X77553000Y-60291623D01*
X77463338Y-60484783D01*
X77459775Y-60494470D01*
X77404389Y-60694183D01*
X77405912Y-60702607D01*
X77418292Y-60706000D01*
X80058344Y-60706000D01*
X80071875Y-60702027D01*
X80073180Y-60692947D01*
X80031214Y-60525875D01*
X80027894Y-60516124D01*
X79942972Y-60320814D01*
X79938105Y-60311739D01*
X79822426Y-60132926D01*
X79816136Y-60124757D01*
X79672806Y-59967240D01*
X79665273Y-59960215D01*
X79498139Y-59828222D01*
X79489556Y-59822520D01*
X79452602Y-59802120D01*
X79402631Y-59751687D01*
X79387859Y-59682245D01*
X79412975Y-59615839D01*
X79440327Y-59589232D01*
X79484631Y-59557630D01*
X79619860Y-59461173D01*
X79645474Y-59435649D01*
X79774435Y-59307137D01*
X79778096Y-59303489D01*
X79791799Y-59284420D01*
X79905435Y-59126277D01*
X79908453Y-59122077D01*
X80007430Y-58921811D01*
X80072370Y-58708069D01*
X80101529Y-58486590D01*
X80103156Y-58420000D01*
X80084852Y-58197361D01*
X80030431Y-57980702D01*
X79941354Y-57775840D01*
X79820014Y-57588277D01*
X79669670Y-57423051D01*
X79665619Y-57419852D01*
X79665615Y-57419848D01*
X79498414Y-57287800D01*
X79498410Y-57287798D01*
X79494359Y-57284598D01*
X79453053Y-57261796D01*
X79403084Y-57211364D01*
X79388312Y-57141921D01*
X79413428Y-57075516D01*
X79440780Y-57048909D01*
X79484603Y-57017650D01*
X79619860Y-56921173D01*
X79778096Y-56763489D01*
X79828433Y-56693438D01*
X79905435Y-56586277D01*
X79908453Y-56582077D01*
X79935146Y-56528069D01*
X80005136Y-56386453D01*
X80005137Y-56386451D01*
X80007430Y-56381811D01*
X80072370Y-56168069D01*
X80101529Y-55946590D01*
X80103156Y-55880000D01*
X80084852Y-55657361D01*
X80030431Y-55440702D01*
X79941354Y-55235840D01*
X79845475Y-55087633D01*
X79822822Y-55052617D01*
X79822820Y-55052614D01*
X79820014Y-55048277D01*
X79669670Y-54883051D01*
X79665619Y-54879852D01*
X79665615Y-54879848D01*
X79498414Y-54747800D01*
X79498410Y-54747798D01*
X79494359Y-54744598D01*
X79452569Y-54721529D01*
X79402598Y-54671097D01*
X79387826Y-54601654D01*
X79412942Y-54535248D01*
X79440294Y-54508641D01*
X79615328Y-54383792D01*
X79623200Y-54377139D01*
X79774052Y-54226812D01*
X79780730Y-54218965D01*
X79905003Y-54046020D01*
X79910313Y-54037183D01*
X80004670Y-53846267D01*
X80008469Y-53836672D01*
X80070377Y-53632910D01*
X80072555Y-53622837D01*
X80073986Y-53611962D01*
X80071775Y-53597778D01*
X80058617Y-53594000D01*
X77423225Y-53594000D01*
X77409694Y-53597973D01*
X77408257Y-53607966D01*
X77438565Y-53742446D01*
X77441645Y-53752275D01*
X77521770Y-53949603D01*
X77526413Y-53958794D01*
X77637694Y-54140388D01*
X77643777Y-54148699D01*
X77783213Y-54309667D01*
X77790580Y-54316883D01*
X77954434Y-54452916D01*
X77962881Y-54458831D01*
X78031969Y-54499203D01*
X78080693Y-54550842D01*
X78093764Y-54620625D01*
X78067033Y-54686396D01*
X78026584Y-54719752D01*
X78013607Y-54726507D01*
X78009474Y-54729610D01*
X78009471Y-54729612D01*
X77839100Y-54857530D01*
X77834965Y-54860635D01*
X77680629Y-55022138D01*
X77554743Y-55206680D01*
X77460688Y-55409305D01*
X77400989Y-55624570D01*
X77377251Y-55846695D01*
X77377548Y-55851848D01*
X77377548Y-55851851D01*
X77383011Y-55946590D01*
X77390110Y-56069715D01*
X77391247Y-56074761D01*
X77391248Y-56074767D01*
X77394438Y-56088920D01*
X77439222Y-56287639D01*
X77523266Y-56494616D01*
X77525965Y-56499020D01*
X77628897Y-56666990D01*
X77639987Y-56685088D01*
X77786250Y-56853938D01*
X77958126Y-56996632D01*
X78028595Y-57037811D01*
X78031445Y-57039476D01*
X78080169Y-57091114D01*
X78093240Y-57160897D01*
X78066509Y-57226669D01*
X78026055Y-57260027D01*
X78013607Y-57266507D01*
X78009474Y-57269610D01*
X78009471Y-57269612D01*
X77985247Y-57287800D01*
X77834965Y-57400635D01*
X77680629Y-57562138D01*
X77554743Y-57746680D01*
X77460688Y-57949305D01*
X77400989Y-58164570D01*
X77377251Y-58386695D01*
X52160418Y-58386695D01*
X52144852Y-58197361D01*
X52090431Y-57980702D01*
X52001354Y-57775840D01*
X51880014Y-57588277D01*
X51729670Y-57423051D01*
X51725619Y-57419852D01*
X51725615Y-57419848D01*
X51558414Y-57287800D01*
X51558410Y-57287798D01*
X51554359Y-57284598D01*
X51513053Y-57261796D01*
X51463084Y-57211364D01*
X51448312Y-57141921D01*
X51473428Y-57075516D01*
X51500780Y-57048909D01*
X51544603Y-57017650D01*
X51679860Y-56921173D01*
X51838096Y-56763489D01*
X51888433Y-56693438D01*
X51965435Y-56586277D01*
X51968453Y-56582077D01*
X51995146Y-56528069D01*
X52065136Y-56386453D01*
X52065137Y-56386451D01*
X52067430Y-56381811D01*
X52132370Y-56168069D01*
X52161529Y-55946590D01*
X52163156Y-55880000D01*
X52162222Y-55868640D01*
X64464463Y-55868640D01*
X64482163Y-56049160D01*
X64539418Y-56221273D01*
X64543065Y-56227295D01*
X64543066Y-56227297D01*
X64553978Y-56245314D01*
X64633380Y-56376424D01*
X64759382Y-56506902D01*
X64765278Y-56510760D01*
X64874262Y-56582077D01*
X64911159Y-56606222D01*
X64917763Y-56608678D01*
X64917765Y-56608679D01*
X65074558Y-56666990D01*
X65074560Y-56666990D01*
X65081168Y-56669448D01*
X65164995Y-56680633D01*
X65253980Y-56692507D01*
X65253984Y-56692507D01*
X65260961Y-56693438D01*
X65267972Y-56692800D01*
X65267976Y-56692800D01*
X65410459Y-56679832D01*
X65441600Y-56676998D01*
X65448302Y-56674820D01*
X65448304Y-56674820D01*
X65607409Y-56623124D01*
X65607412Y-56623123D01*
X65614108Y-56620947D01*
X65769912Y-56528069D01*
X65901266Y-56402982D01*
X66001643Y-56251902D01*
X66066055Y-56082338D01*
X66067829Y-56069715D01*
X66090748Y-55906639D01*
X66090748Y-55906636D01*
X66091299Y-55902717D01*
X66091616Y-55880000D01*
X66071397Y-55699745D01*
X66069080Y-55693091D01*
X66014064Y-55535106D01*
X66014062Y-55535103D01*
X66011745Y-55528448D01*
X65915626Y-55374624D01*
X65901941Y-55360843D01*
X65792778Y-55250915D01*
X65792774Y-55250912D01*
X65787815Y-55245918D01*
X65779420Y-55240590D01*
X65719243Y-55202401D01*
X65634666Y-55148727D01*
X65605463Y-55138328D01*
X65470425Y-55090243D01*
X65470420Y-55090242D01*
X65463790Y-55087881D01*
X65456802Y-55087048D01*
X65456799Y-55087047D01*
X65333698Y-55072368D01*
X65283680Y-55066404D01*
X65276677Y-55067140D01*
X65276676Y-55067140D01*
X65110288Y-55084628D01*
X65110286Y-55084629D01*
X65103288Y-55085364D01*
X64931579Y-55143818D01*
X64925575Y-55147512D01*
X64783095Y-55235166D01*
X64783092Y-55235168D01*
X64777088Y-55238862D01*
X64772053Y-55243793D01*
X64772050Y-55243795D01*
X64652525Y-55360843D01*
X64647493Y-55365771D01*
X64549235Y-55518238D01*
X64546826Y-55524858D01*
X64546824Y-55524861D01*
X64489606Y-55682066D01*
X64487197Y-55688685D01*
X64464463Y-55868640D01*
X52162222Y-55868640D01*
X52144852Y-55657361D01*
X52090431Y-55440702D01*
X52001354Y-55235840D01*
X51905475Y-55087633D01*
X51882822Y-55052617D01*
X51882820Y-55052614D01*
X51880014Y-55048277D01*
X51729670Y-54883051D01*
X51725619Y-54879852D01*
X51725615Y-54879848D01*
X51558414Y-54747800D01*
X51558410Y-54747798D01*
X51554359Y-54744598D01*
X51512569Y-54721529D01*
X51462598Y-54671097D01*
X51447826Y-54601654D01*
X51472942Y-54535248D01*
X51500294Y-54508641D01*
X51675328Y-54383792D01*
X51683200Y-54377139D01*
X51834052Y-54226812D01*
X51840730Y-54218965D01*
X51932940Y-54090640D01*
X70395960Y-54090640D01*
X70413660Y-54271160D01*
X70470915Y-54443273D01*
X70474562Y-54449295D01*
X70474563Y-54449297D01*
X70542860Y-54562069D01*
X70564877Y-54598424D01*
X70569766Y-54603487D01*
X70569767Y-54603488D01*
X70590524Y-54624982D01*
X70690879Y-54728902D01*
X70842656Y-54828222D01*
X70849260Y-54830678D01*
X70849262Y-54830679D01*
X71006055Y-54888990D01*
X71006057Y-54888990D01*
X71012665Y-54891448D01*
X71096492Y-54902633D01*
X71185477Y-54914507D01*
X71185481Y-54914507D01*
X71192458Y-54915438D01*
X71199469Y-54914800D01*
X71199473Y-54914800D01*
X71341956Y-54901832D01*
X71373097Y-54898998D01*
X71379799Y-54896820D01*
X71379801Y-54896820D01*
X71538906Y-54845124D01*
X71538909Y-54845123D01*
X71545605Y-54842947D01*
X71701409Y-54750069D01*
X71832763Y-54624982D01*
X71933140Y-54473902D01*
X71997552Y-54304338D01*
X71998532Y-54297366D01*
X72022245Y-54128639D01*
X72022245Y-54128636D01*
X72022796Y-54124717D01*
X72023113Y-54102000D01*
X72002894Y-53921745D01*
X72000577Y-53915091D01*
X71945561Y-53757106D01*
X71945559Y-53757103D01*
X71943242Y-53750448D01*
X71847123Y-53596624D01*
X71806723Y-53555941D01*
X71724275Y-53472915D01*
X71724271Y-53472912D01*
X71719312Y-53467918D01*
X71708194Y-53460862D01*
X71603119Y-53394180D01*
X71566163Y-53370727D01*
X71536960Y-53360328D01*
X71401922Y-53312243D01*
X71401917Y-53312242D01*
X71395287Y-53309881D01*
X71388299Y-53309048D01*
X71388296Y-53309047D01*
X71265195Y-53294368D01*
X71215177Y-53288404D01*
X71208174Y-53289140D01*
X71208173Y-53289140D01*
X71041785Y-53306628D01*
X71041783Y-53306629D01*
X71034785Y-53307364D01*
X70863076Y-53365818D01*
X70800606Y-53404250D01*
X70714592Y-53457166D01*
X70714589Y-53457168D01*
X70708585Y-53460862D01*
X70703550Y-53465793D01*
X70703547Y-53465795D01*
X70584022Y-53582843D01*
X70578990Y-53587771D01*
X70480732Y-53740238D01*
X70478323Y-53746858D01*
X70478321Y-53746861D01*
X70442140Y-53846267D01*
X70418694Y-53910685D01*
X70395960Y-54090640D01*
X51932940Y-54090640D01*
X51965003Y-54046020D01*
X51970313Y-54037183D01*
X52064670Y-53846267D01*
X52068469Y-53836672D01*
X52130377Y-53632910D01*
X52132555Y-53622837D01*
X52133986Y-53611962D01*
X52131775Y-53597778D01*
X52118617Y-53594000D01*
X49483225Y-53594000D01*
X49469694Y-53597973D01*
X49468257Y-53607966D01*
X49498565Y-53742446D01*
X49501645Y-53752275D01*
X49581770Y-53949603D01*
X49586413Y-53958794D01*
X49697694Y-54140388D01*
X49703777Y-54148699D01*
X49843213Y-54309667D01*
X49850580Y-54316883D01*
X50014434Y-54452916D01*
X50022881Y-54458831D01*
X50091969Y-54499203D01*
X50140693Y-54550842D01*
X50153764Y-54620625D01*
X50127033Y-54686396D01*
X50086584Y-54719752D01*
X50073607Y-54726507D01*
X50069474Y-54729610D01*
X50069471Y-54729612D01*
X49899100Y-54857530D01*
X49894965Y-54860635D01*
X49740629Y-55022138D01*
X49614743Y-55206680D01*
X49520688Y-55409305D01*
X49460989Y-55624570D01*
X49437251Y-55846695D01*
X49437548Y-55851848D01*
X49437548Y-55851851D01*
X49443011Y-55946590D01*
X49450110Y-56069715D01*
X49451247Y-56074761D01*
X49451248Y-56074767D01*
X49454438Y-56088920D01*
X49499222Y-56287639D01*
X49583266Y-56494616D01*
X49585965Y-56499020D01*
X49688897Y-56666990D01*
X49699987Y-56685088D01*
X49846250Y-56853938D01*
X50018126Y-56996632D01*
X50088595Y-57037811D01*
X50091445Y-57039476D01*
X50140169Y-57091114D01*
X50153240Y-57160897D01*
X50126509Y-57226669D01*
X50086055Y-57260027D01*
X50073607Y-57266507D01*
X50069474Y-57269610D01*
X50069471Y-57269612D01*
X50045247Y-57287800D01*
X49894965Y-57400635D01*
X49740629Y-57562138D01*
X49614743Y-57746680D01*
X49520688Y-57949305D01*
X49460989Y-58164570D01*
X49437251Y-58386695D01*
X48768500Y-58386695D01*
X48768500Y-51698134D01*
X49441500Y-51698134D01*
X49448255Y-51760316D01*
X49499385Y-51896705D01*
X49586739Y-52013261D01*
X49703295Y-52100615D01*
X49711704Y-52103767D01*
X49711705Y-52103768D01*
X49820960Y-52144726D01*
X49877725Y-52187367D01*
X49902425Y-52253929D01*
X49887218Y-52323278D01*
X49867825Y-52349759D01*
X49744590Y-52478717D01*
X49738104Y-52486727D01*
X49618098Y-52662649D01*
X49613000Y-52671623D01*
X49523338Y-52864783D01*
X49519775Y-52874470D01*
X49464389Y-53074183D01*
X49465912Y-53082607D01*
X49478292Y-53086000D01*
X52118344Y-53086000D01*
X52131875Y-53082027D01*
X52133180Y-53072947D01*
X52091214Y-52905875D01*
X52087894Y-52896124D01*
X52016159Y-52731143D01*
X53034463Y-52731143D01*
X53052163Y-52911663D01*
X53109418Y-53083776D01*
X53113065Y-53089798D01*
X53113066Y-53089800D01*
X53154057Y-53157484D01*
X53203380Y-53238927D01*
X53208269Y-53243990D01*
X53208270Y-53243991D01*
X53269168Y-53307052D01*
X53329382Y-53369405D01*
X53481159Y-53468725D01*
X53487763Y-53471181D01*
X53487765Y-53471182D01*
X53644558Y-53529493D01*
X53644560Y-53529493D01*
X53651168Y-53531951D01*
X53734995Y-53543136D01*
X53823980Y-53555010D01*
X53823984Y-53555010D01*
X53830961Y-53555941D01*
X53837972Y-53555303D01*
X53837976Y-53555303D01*
X53980459Y-53542335D01*
X54011600Y-53539501D01*
X54018302Y-53537323D01*
X54018304Y-53537323D01*
X54177409Y-53485627D01*
X54177412Y-53485626D01*
X54184108Y-53483450D01*
X54339912Y-53390572D01*
X54471266Y-53265485D01*
X54571643Y-53114405D01*
X54636055Y-52944841D01*
X54637035Y-52937869D01*
X54660748Y-52769142D01*
X54660748Y-52769139D01*
X54661299Y-52765220D01*
X54661616Y-52742503D01*
X54641397Y-52562248D01*
X54639080Y-52555594D01*
X54619043Y-52498055D01*
X63106516Y-52498055D01*
X63124216Y-52678575D01*
X63181471Y-52850688D01*
X63185118Y-52856710D01*
X63185119Y-52856712D01*
X63242478Y-52951423D01*
X63275433Y-53005839D01*
X63280322Y-53010902D01*
X63280323Y-53010903D01*
X63350696Y-53083776D01*
X63401435Y-53136317D01*
X63553212Y-53235637D01*
X63559816Y-53238093D01*
X63559818Y-53238094D01*
X63716611Y-53296405D01*
X63716613Y-53296405D01*
X63723221Y-53298863D01*
X63799545Y-53309047D01*
X63896033Y-53321922D01*
X63896037Y-53321922D01*
X63903014Y-53322853D01*
X63910025Y-53322215D01*
X63910029Y-53322215D01*
X64054711Y-53309047D01*
X64083653Y-53306413D01*
X64090355Y-53304235D01*
X64090357Y-53304235D01*
X64249462Y-53252539D01*
X64249465Y-53252538D01*
X64256161Y-53250362D01*
X64411965Y-53157484D01*
X64543319Y-53032397D01*
X64643696Y-52881317D01*
X64697923Y-52738565D01*
X64705608Y-52718335D01*
X64705609Y-52718333D01*
X64708108Y-52711753D01*
X64709088Y-52704781D01*
X64732801Y-52536054D01*
X64732801Y-52536051D01*
X64733352Y-52532132D01*
X64733669Y-52509415D01*
X64713450Y-52329160D01*
X64711133Y-52322506D01*
X64656117Y-52164521D01*
X64656115Y-52164518D01*
X64653798Y-52157863D01*
X64626026Y-52113418D01*
X64561412Y-52010013D01*
X64557679Y-52004039D01*
X64506743Y-51952746D01*
X64434831Y-51880330D01*
X64434827Y-51880327D01*
X64429868Y-51875333D01*
X64418750Y-51868277D01*
X64370591Y-51837715D01*
X64276719Y-51778142D01*
X64218373Y-51757366D01*
X64112478Y-51719658D01*
X64112473Y-51719657D01*
X64105843Y-51717296D01*
X64098855Y-51716463D01*
X64098852Y-51716462D01*
X63973635Y-51701531D01*
X63925733Y-51695819D01*
X63918730Y-51696555D01*
X63918729Y-51696555D01*
X63752341Y-51714043D01*
X63752339Y-51714044D01*
X63745341Y-51714779D01*
X63573632Y-51773233D01*
X63567628Y-51776927D01*
X63425148Y-51864581D01*
X63425145Y-51864583D01*
X63419141Y-51868277D01*
X63414106Y-51873208D01*
X63414103Y-51873210D01*
X63335549Y-51950136D01*
X63289546Y-51995186D01*
X63191288Y-52147653D01*
X63188879Y-52154273D01*
X63188877Y-52154276D01*
X63152606Y-52253929D01*
X63129250Y-52318100D01*
X63106516Y-52498055D01*
X54619043Y-52498055D01*
X54584064Y-52397609D01*
X54584062Y-52397606D01*
X54581745Y-52390951D01*
X54575365Y-52380741D01*
X54489359Y-52243101D01*
X54485626Y-52237127D01*
X54462339Y-52213677D01*
X54362778Y-52113418D01*
X54362774Y-52113415D01*
X54357815Y-52108421D01*
X54350482Y-52103767D01*
X54216345Y-52018642D01*
X54204666Y-52011230D01*
X54145770Y-51990258D01*
X54040425Y-51952746D01*
X54040420Y-51952745D01*
X54033790Y-51950384D01*
X54026802Y-51949551D01*
X54026799Y-51949550D01*
X53895569Y-51933902D01*
X53853680Y-51928907D01*
X53846677Y-51929643D01*
X53846676Y-51929643D01*
X53680288Y-51947131D01*
X53680286Y-51947132D01*
X53673288Y-51947867D01*
X53501579Y-52006321D01*
X53487457Y-52015009D01*
X53353095Y-52097669D01*
X53353092Y-52097671D01*
X53347088Y-52101365D01*
X53342053Y-52106296D01*
X53342050Y-52106298D01*
X53241044Y-52205211D01*
X53217493Y-52228274D01*
X53138113Y-52351448D01*
X53123253Y-52374507D01*
X53119235Y-52380741D01*
X53116826Y-52387361D01*
X53116824Y-52387364D01*
X53072401Y-52509415D01*
X53057197Y-52551188D01*
X53034463Y-52731143D01*
X52016159Y-52731143D01*
X52002972Y-52700814D01*
X51998105Y-52691739D01*
X51882426Y-52512926D01*
X51876136Y-52504757D01*
X51732293Y-52346677D01*
X51701241Y-52282831D01*
X51709635Y-52212333D01*
X51754812Y-52157564D01*
X51781256Y-52143895D01*
X51888297Y-52103767D01*
X51896705Y-52100615D01*
X52013261Y-52013261D01*
X52100615Y-51896705D01*
X52151745Y-51760316D01*
X52158500Y-51698134D01*
X52158500Y-50788640D01*
X57352463Y-50788640D01*
X57370163Y-50969160D01*
X57427418Y-51141273D01*
X57431065Y-51147295D01*
X57431066Y-51147297D01*
X57473344Y-51217106D01*
X57521380Y-51296424D01*
X57526269Y-51301487D01*
X57526270Y-51301488D01*
X57597348Y-51375091D01*
X57647382Y-51426902D01*
X57799159Y-51526222D01*
X57805763Y-51528678D01*
X57805765Y-51528679D01*
X57962558Y-51586990D01*
X57962560Y-51586990D01*
X57969168Y-51589448D01*
X58052995Y-51600633D01*
X58141980Y-51612507D01*
X58141984Y-51612507D01*
X58148961Y-51613438D01*
X58155972Y-51612800D01*
X58155976Y-51612800D01*
X58298459Y-51599832D01*
X58329600Y-51596998D01*
X58336302Y-51594820D01*
X58336304Y-51594820D01*
X58472277Y-51550640D01*
X75132463Y-51550640D01*
X75150163Y-51731160D01*
X75207418Y-51903273D01*
X75211065Y-51909295D01*
X75211066Y-51909297D01*
X75274029Y-52013261D01*
X75301380Y-52058424D01*
X75306269Y-52063487D01*
X75306270Y-52063488D01*
X75345168Y-52103768D01*
X75427382Y-52188902D01*
X75465242Y-52213677D01*
X75570921Y-52282831D01*
X75579159Y-52288222D01*
X75585763Y-52290678D01*
X75585765Y-52290679D01*
X75742558Y-52348990D01*
X75742560Y-52348990D01*
X75749168Y-52351448D01*
X75832995Y-52362633D01*
X75921980Y-52374507D01*
X75921984Y-52374507D01*
X75928961Y-52375438D01*
X75935972Y-52374800D01*
X75935976Y-52374800D01*
X76078459Y-52361832D01*
X76109600Y-52358998D01*
X76116302Y-52356820D01*
X76116304Y-52356820D01*
X76275409Y-52305124D01*
X76275412Y-52305123D01*
X76282108Y-52302947D01*
X76397439Y-52234196D01*
X76431860Y-52213677D01*
X76431862Y-52213676D01*
X76437912Y-52210069D01*
X76569266Y-52084982D01*
X76669643Y-51933902D01*
X76727376Y-51781921D01*
X76731555Y-51770920D01*
X76731556Y-51770918D01*
X76734055Y-51764338D01*
X76735724Y-51752460D01*
X76743359Y-51698134D01*
X77381500Y-51698134D01*
X77388255Y-51760316D01*
X77439385Y-51896705D01*
X77526739Y-52013261D01*
X77643295Y-52100615D01*
X77651704Y-52103767D01*
X77651705Y-52103768D01*
X77760960Y-52144726D01*
X77817725Y-52187367D01*
X77842425Y-52253929D01*
X77827218Y-52323278D01*
X77807825Y-52349759D01*
X77684590Y-52478717D01*
X77678104Y-52486727D01*
X77558098Y-52662649D01*
X77553000Y-52671623D01*
X77463338Y-52864783D01*
X77459775Y-52874470D01*
X77404389Y-53074183D01*
X77405912Y-53082607D01*
X77418292Y-53086000D01*
X80058344Y-53086000D01*
X80071875Y-53082027D01*
X80073180Y-53072947D01*
X80031214Y-52905875D01*
X80027894Y-52896124D01*
X79942972Y-52700814D01*
X79938105Y-52691739D01*
X79822426Y-52512926D01*
X79816136Y-52504757D01*
X79672293Y-52346677D01*
X79641241Y-52282831D01*
X79649635Y-52212333D01*
X79694812Y-52157564D01*
X79721256Y-52143895D01*
X79828297Y-52103767D01*
X79836705Y-52100615D01*
X79953261Y-52013261D01*
X80040615Y-51896705D01*
X80091745Y-51760316D01*
X80098500Y-51698134D01*
X80098500Y-49901866D01*
X80091745Y-49839684D01*
X80040615Y-49703295D01*
X79953261Y-49586739D01*
X79836705Y-49499385D01*
X79700316Y-49448255D01*
X79638134Y-49441500D01*
X77841866Y-49441500D01*
X77779684Y-49448255D01*
X77643295Y-49499385D01*
X77526739Y-49586739D01*
X77439385Y-49703295D01*
X77388255Y-49839684D01*
X77381500Y-49901866D01*
X77381500Y-51698134D01*
X76743359Y-51698134D01*
X76758748Y-51588639D01*
X76758748Y-51588636D01*
X76759299Y-51584717D01*
X76759616Y-51562000D01*
X76739397Y-51381745D01*
X76737080Y-51375091D01*
X76682064Y-51217106D01*
X76682062Y-51217103D01*
X76679745Y-51210448D01*
X76583626Y-51056624D01*
X76536254Y-51008920D01*
X76460778Y-50932915D01*
X76460774Y-50932912D01*
X76455815Y-50927918D01*
X76444697Y-50920862D01*
X76396538Y-50890300D01*
X76302666Y-50830727D01*
X76227501Y-50803962D01*
X76138425Y-50772243D01*
X76138420Y-50772242D01*
X76131790Y-50769881D01*
X76124802Y-50769048D01*
X76124799Y-50769047D01*
X76001698Y-50754368D01*
X75951680Y-50748404D01*
X75944677Y-50749140D01*
X75944676Y-50749140D01*
X75778288Y-50766628D01*
X75778286Y-50766629D01*
X75771288Y-50767364D01*
X75599579Y-50825818D01*
X75593575Y-50829512D01*
X75451095Y-50917166D01*
X75451092Y-50917168D01*
X75445088Y-50920862D01*
X75440053Y-50925793D01*
X75440050Y-50925795D01*
X75355166Y-51008920D01*
X75315493Y-51047771D01*
X75217235Y-51200238D01*
X75214826Y-51206858D01*
X75214824Y-51206861D01*
X75170791Y-51327841D01*
X75155197Y-51370685D01*
X75132463Y-51550640D01*
X58472277Y-51550640D01*
X58495409Y-51543124D01*
X58495412Y-51543123D01*
X58502108Y-51540947D01*
X58657912Y-51448069D01*
X58789266Y-51322982D01*
X58889643Y-51171902D01*
X58935332Y-51051627D01*
X58951555Y-51008920D01*
X58951556Y-51008918D01*
X58954055Y-51002338D01*
X58955035Y-50995366D01*
X58978748Y-50826639D01*
X58978748Y-50826636D01*
X58979299Y-50822717D01*
X58979616Y-50800000D01*
X58959397Y-50619745D01*
X58957080Y-50613091D01*
X58902064Y-50455106D01*
X58902062Y-50455103D01*
X58899745Y-50448448D01*
X58803626Y-50294624D01*
X58789941Y-50280843D01*
X58680778Y-50170915D01*
X58680774Y-50170912D01*
X58675815Y-50165918D01*
X58664697Y-50158862D01*
X58616538Y-50128300D01*
X58522666Y-50068727D01*
X58493463Y-50058328D01*
X58358425Y-50010243D01*
X58358420Y-50010242D01*
X58351790Y-50007881D01*
X58344802Y-50007048D01*
X58344799Y-50007047D01*
X58221698Y-49992368D01*
X58171680Y-49986404D01*
X58164677Y-49987140D01*
X58164676Y-49987140D01*
X57998288Y-50004628D01*
X57998286Y-50004629D01*
X57991288Y-50005364D01*
X57819579Y-50063818D01*
X57813575Y-50067512D01*
X57671095Y-50155166D01*
X57671092Y-50155168D01*
X57665088Y-50158862D01*
X57660053Y-50163793D01*
X57660050Y-50163795D01*
X57540525Y-50280843D01*
X57535493Y-50285771D01*
X57437235Y-50438238D01*
X57434826Y-50444858D01*
X57434824Y-50444861D01*
X57377606Y-50602066D01*
X57375197Y-50608685D01*
X57352463Y-50788640D01*
X52158500Y-50788640D01*
X52158500Y-49901866D01*
X52151745Y-49839684D01*
X52100615Y-49703295D01*
X52013261Y-49586739D01*
X51896705Y-49499385D01*
X51760316Y-49448255D01*
X51698134Y-49441500D01*
X49901866Y-49441500D01*
X49839684Y-49448255D01*
X49703295Y-49499385D01*
X49586739Y-49586739D01*
X49499385Y-49703295D01*
X49448255Y-49839684D01*
X49441500Y-49901866D01*
X49441500Y-51698134D01*
X48768500Y-51698134D01*
X48768500Y-43422640D01*
X69290463Y-43422640D01*
X69308163Y-43603160D01*
X69365418Y-43775273D01*
X69369065Y-43781295D01*
X69369066Y-43781297D01*
X69379978Y-43799314D01*
X69459380Y-43930424D01*
X69585382Y-44060902D01*
X69737159Y-44160222D01*
X69743763Y-44162678D01*
X69743765Y-44162679D01*
X69900558Y-44220990D01*
X69900560Y-44220990D01*
X69907168Y-44223448D01*
X69990995Y-44234633D01*
X70079980Y-44246507D01*
X70079984Y-44246507D01*
X70086961Y-44247438D01*
X70093972Y-44246800D01*
X70093976Y-44246800D01*
X70236459Y-44233832D01*
X70267600Y-44230998D01*
X70274302Y-44228820D01*
X70274304Y-44228820D01*
X70433409Y-44177124D01*
X70433412Y-44177123D01*
X70440108Y-44174947D01*
X70595912Y-44082069D01*
X70727266Y-43956982D01*
X70827643Y-43805902D01*
X70892055Y-43636338D01*
X70893035Y-43629366D01*
X70916748Y-43460639D01*
X70916748Y-43460636D01*
X70917299Y-43456717D01*
X70917616Y-43434000D01*
X70897397Y-43253745D01*
X70895080Y-43247091D01*
X70840064Y-43089106D01*
X70840062Y-43089103D01*
X70837745Y-43082448D01*
X70741626Y-42928624D01*
X70727941Y-42914843D01*
X70618778Y-42804915D01*
X70618774Y-42804912D01*
X70613815Y-42799918D01*
X70602697Y-42792862D01*
X70532489Y-42748307D01*
X70460666Y-42702727D01*
X70386852Y-42676443D01*
X70296425Y-42644243D01*
X70296420Y-42644242D01*
X70289790Y-42641881D01*
X70282802Y-42641048D01*
X70282799Y-42641047D01*
X70159698Y-42626368D01*
X70109680Y-42620404D01*
X70102677Y-42621140D01*
X70102676Y-42621140D01*
X69936288Y-42638628D01*
X69936286Y-42638629D01*
X69929288Y-42639364D01*
X69757579Y-42697818D01*
X69751575Y-42701512D01*
X69609095Y-42789166D01*
X69609092Y-42789168D01*
X69603088Y-42792862D01*
X69598053Y-42797793D01*
X69598050Y-42797795D01*
X69478525Y-42914843D01*
X69473493Y-42919771D01*
X69375235Y-43072238D01*
X69372826Y-43078858D01*
X69372824Y-43078861D01*
X69315606Y-43236066D01*
X69313197Y-43242685D01*
X69290463Y-43422640D01*
X48768500Y-43422640D01*
X48768500Y-40772703D01*
X51230743Y-40772703D01*
X51268268Y-41057734D01*
X51344129Y-41335036D01*
X51456923Y-41599476D01*
X51604561Y-41846161D01*
X51784313Y-42070528D01*
X51992851Y-42268423D01*
X52226317Y-42436186D01*
X52230112Y-42438195D01*
X52230113Y-42438196D01*
X52251869Y-42449715D01*
X52480392Y-42570712D01*
X52750373Y-42669511D01*
X53031264Y-42730755D01*
X53059841Y-42733004D01*
X53254282Y-42748307D01*
X53254291Y-42748307D01*
X53256739Y-42748500D01*
X53412271Y-42748500D01*
X53414407Y-42748354D01*
X53414418Y-42748354D01*
X53622548Y-42734165D01*
X53622554Y-42734164D01*
X53626825Y-42733873D01*
X53631020Y-42733004D01*
X53631022Y-42733004D01*
X53783091Y-42701512D01*
X53908342Y-42675574D01*
X54179343Y-42579607D01*
X54434812Y-42447750D01*
X54438313Y-42445289D01*
X54438317Y-42445287D01*
X54552417Y-42365096D01*
X54670023Y-42282441D01*
X54880622Y-42086740D01*
X55062713Y-41864268D01*
X55212927Y-41619142D01*
X55328483Y-41355898D01*
X55407244Y-41079406D01*
X55447751Y-40794784D01*
X55447845Y-40776951D01*
X55447867Y-40772703D01*
X74090743Y-40772703D01*
X74128268Y-41057734D01*
X74204129Y-41335036D01*
X74316923Y-41599476D01*
X74464561Y-41846161D01*
X74644313Y-42070528D01*
X74852851Y-42268423D01*
X75086317Y-42436186D01*
X75090112Y-42438195D01*
X75090113Y-42438196D01*
X75111869Y-42449715D01*
X75340392Y-42570712D01*
X75610373Y-42669511D01*
X75891264Y-42730755D01*
X75919841Y-42733004D01*
X76114282Y-42748307D01*
X76114291Y-42748307D01*
X76116739Y-42748500D01*
X76272271Y-42748500D01*
X76274407Y-42748354D01*
X76274418Y-42748354D01*
X76482548Y-42734165D01*
X76482554Y-42734164D01*
X76486825Y-42733873D01*
X76491020Y-42733004D01*
X76491022Y-42733004D01*
X76643091Y-42701512D01*
X76768342Y-42675574D01*
X77039343Y-42579607D01*
X77294812Y-42447750D01*
X77298313Y-42445289D01*
X77298317Y-42445287D01*
X77412417Y-42365096D01*
X77530023Y-42282441D01*
X77740622Y-42086740D01*
X77922713Y-41864268D01*
X78072927Y-41619142D01*
X78188483Y-41355898D01*
X78267244Y-41079406D01*
X78307751Y-40794784D01*
X78307845Y-40776951D01*
X78309235Y-40511583D01*
X78309235Y-40511576D01*
X78309257Y-40507297D01*
X78271732Y-40222266D01*
X78195871Y-39944964D01*
X78083077Y-39680524D01*
X77952400Y-39462178D01*
X77937643Y-39437521D01*
X77937640Y-39437517D01*
X77935439Y-39433839D01*
X77755687Y-39209472D01*
X77547149Y-39011577D01*
X77313683Y-38843814D01*
X77291843Y-38832250D01*
X77268654Y-38819972D01*
X77059608Y-38709288D01*
X76789627Y-38610489D01*
X76508736Y-38549245D01*
X76477685Y-38546801D01*
X76285718Y-38531693D01*
X76285709Y-38531693D01*
X76283261Y-38531500D01*
X76127729Y-38531500D01*
X76125593Y-38531646D01*
X76125582Y-38531646D01*
X75917452Y-38545835D01*
X75917446Y-38545836D01*
X75913175Y-38546127D01*
X75908980Y-38546996D01*
X75908978Y-38546996D01*
X75772417Y-38575276D01*
X75631658Y-38604426D01*
X75360657Y-38700393D01*
X75105188Y-38832250D01*
X75101687Y-38834711D01*
X75101683Y-38834713D01*
X75091594Y-38841804D01*
X74869977Y-38997559D01*
X74659378Y-39193260D01*
X74477287Y-39415732D01*
X74327073Y-39660858D01*
X74211517Y-39924102D01*
X74132756Y-40200594D01*
X74092249Y-40485216D01*
X74092227Y-40489505D01*
X74092226Y-40489512D01*
X74091263Y-40673421D01*
X74090743Y-40772703D01*
X55447867Y-40772703D01*
X55449235Y-40511583D01*
X55449235Y-40511576D01*
X55449257Y-40507297D01*
X55411732Y-40222266D01*
X55335871Y-39944964D01*
X55223077Y-39680524D01*
X55092400Y-39462178D01*
X55077643Y-39437521D01*
X55077640Y-39437517D01*
X55075439Y-39433839D01*
X54895687Y-39209472D01*
X54687149Y-39011577D01*
X54453683Y-38843814D01*
X54431843Y-38832250D01*
X54408654Y-38819972D01*
X54199608Y-38709288D01*
X53929627Y-38610489D01*
X53648736Y-38549245D01*
X53617685Y-38546801D01*
X53425718Y-38531693D01*
X53425709Y-38531693D01*
X53423261Y-38531500D01*
X53267729Y-38531500D01*
X53265593Y-38531646D01*
X53265582Y-38531646D01*
X53057452Y-38545835D01*
X53057446Y-38545836D01*
X53053175Y-38546127D01*
X53048980Y-38546996D01*
X53048978Y-38546996D01*
X52912417Y-38575276D01*
X52771658Y-38604426D01*
X52500657Y-38700393D01*
X52245188Y-38832250D01*
X52241687Y-38834711D01*
X52241683Y-38834713D01*
X52231594Y-38841804D01*
X52009977Y-38997559D01*
X51799378Y-39193260D01*
X51617287Y-39415732D01*
X51467073Y-39660858D01*
X51351517Y-39924102D01*
X51272756Y-40200594D01*
X51232249Y-40485216D01*
X51232227Y-40489505D01*
X51232226Y-40489512D01*
X51231263Y-40673421D01*
X51230743Y-40772703D01*
X48768500Y-40772703D01*
X48768500Y-40693250D01*
X48770246Y-40672345D01*
X48772770Y-40657344D01*
X48772770Y-40657341D01*
X48773576Y-40652552D01*
X48773729Y-40640000D01*
X48773039Y-40635184D01*
X48773039Y-40635178D01*
X48771387Y-40623644D01*
X48770234Y-40600284D01*
X48774480Y-40503049D01*
X48785656Y-40247063D01*
X48786614Y-40236114D01*
X48837233Y-39851621D01*
X48839142Y-39840795D01*
X48923080Y-39462178D01*
X48925925Y-39451561D01*
X49006320Y-39196579D01*
X49042542Y-39081698D01*
X49046298Y-39071377D01*
X49072105Y-39009074D01*
X49194715Y-38713068D01*
X49199357Y-38703115D01*
X49246808Y-38611964D01*
X49378424Y-38359132D01*
X49383919Y-38349613D01*
X49592292Y-38022532D01*
X49598597Y-38013528D01*
X49834678Y-37705862D01*
X49841743Y-37697442D01*
X50103744Y-37411517D01*
X50111517Y-37403744D01*
X50397442Y-37141743D01*
X50405862Y-37134678D01*
X50713528Y-36898597D01*
X50722532Y-36892292D01*
X51049613Y-36683919D01*
X51059133Y-36678423D01*
X51403124Y-36499353D01*
X51413068Y-36494715D01*
X51771385Y-36346295D01*
X51781698Y-36342542D01*
X51981298Y-36279608D01*
X52151561Y-36225925D01*
X52162178Y-36223080D01*
X52540795Y-36139142D01*
X52551621Y-36137233D01*
X52936114Y-36086614D01*
X52947063Y-36085656D01*
X53296554Y-36070397D01*
X53321429Y-36071777D01*
X53333724Y-36073691D01*
X53342626Y-36072527D01*
X53342628Y-36072527D01*
X53361399Y-36070072D01*
X53365286Y-36069564D01*
X53381621Y-36068500D01*
X76150633Y-36068500D01*
X76170018Y-36070000D01*
G37*
%TD.AperFunction*%
%TD*%
M02*
