M48
; DRILL file {KiCad (6.0.9-0)} date 2024 June 20, Thursday 10:35:51
; FORMAT={-:-/ absolute / inch / decimal}
; #@! TF.CreationDate,2024-06-20T10:35:51+02:00
; #@! TF.GenerationSoftware,Kicad,Pcbnew,(6.0.9-0)
; #@! TF.FileFunction,Plated,1,4,PTH
FMAT,2
INCH
; #@! TA.AperFunction,Plated,PTH,ViaDrill
T1C0.0118
; #@! TA.AperFunction,Plated,PTH,ComponentDrill
T2C0.0394
; #@! TA.AperFunction,Plated,PTH,ComponentDrill
T3C0.1260
%
G90
G05
T1
X2.0Y-3.365
X2.12Y-2.045
X2.12Y-2.0765
X2.12Y-2.255
X2.155Y-3.095
X2.16Y-2.51
X2.1602Y-3.064
X2.17Y-3.215
X2.173Y-3.177
X2.19Y-2.4
X2.195Y-2.51
X2.23Y-2.4
X2.26Y-3.38
X2.265Y-2.97
X2.28Y-3.35
X2.285Y-3.245
X2.29Y-1.96
X2.29Y-2.0
X2.2906Y-2.51
X2.3Y-2.97
X2.3079Y-1.9021
X2.31Y-3.0735
X2.31Y-3.105
X2.311Y-3.27
X2.32Y-2.4906
X2.38Y-3.185
X2.38Y-3.35
X2.3805Y-2.77
X2.39Y-2.335
X2.39Y-2.375
X2.395Y-3.385
X2.425Y-2.7565
X2.475Y-3.2315
X2.48Y-2.585
X2.4943Y-2.6453
X2.5Y-3.2
X2.5115Y-3.16
X2.5115Y-3.2394
X2.5165Y-2.0673
X2.52Y-2.415
X2.52Y-2.5775
X2.5256Y-2.0356
X2.53Y-2.67
X2.54Y-2.86
X2.55Y-2.4
X2.55Y-2.4315
X2.56Y-2.58
X2.565Y-3.2
X2.57Y-2.2
X2.5758Y-2.6682
X2.58Y-2.86
X2.59Y-1.9705
X2.593Y-2.7489
X2.6Y-2.17
X2.6Y-2.585
X2.6012Y-2.4
X2.6022Y-2.6447
X2.622Y-2.7611
X2.65Y-3.05
X2.705Y-3.3
X2.7365Y-3.3
X2.76Y-1.67
X2.76Y-1.71
X2.784Y-2.3338
X2.7852Y-2.3652
X2.79Y-2.725
X2.7935Y-3.1335
X2.8035Y-2.13
X2.805Y-2.86
X2.8306Y-2.895
X2.835Y-2.13
X2.8659Y-3.5341
X2.9Y-3.53
X2.95Y-2.04
X2.98Y-3.055
X2.98Y-3.095
X2.99Y-2.03
X2.99Y-2.365
X2.99Y-2.3965
X3.0492Y-2.9742
X3.14Y-2.75
T2
X2.0Y-2.0
X2.0Y-2.1
X2.0Y-2.2
X2.0Y-2.3
X2.0Y-2.4
X2.0Y-2.5
X2.0Y-2.6
X2.0Y-2.7
X2.0Y-2.8
X2.0Y-2.9
X2.0Y-3.0
X2.0Y-3.1
X2.0Y-3.2
X2.0Y-3.3
X3.1Y-2.0
X3.1Y-2.1
X3.1Y-2.2
X3.1Y-2.3
X3.1Y-2.4
X3.1Y-2.5
X3.1Y-2.6
X3.1Y-2.7
X3.1Y-2.8
X3.1Y-2.9
X3.1Y-3.0
X3.1Y-3.1
X3.1Y-3.2
X3.1Y-3.3
T3
X2.1Y-3.7
X3.0Y-3.7
T0
M30
