%TF.GenerationSoftware,KiCad,Pcbnew,(6.0.9-0)*%
%TF.CreationDate,2024-06-20T10:35:51+02:00*%
%TF.ProjectId,filter-board,66696c74-6572-42d6-926f-6172642e6b69,rev?*%
%TF.SameCoordinates,Original*%
%TF.FileFunction,Copper,L4,Bot*%
%TF.FilePolarity,Positive*%
%FSLAX46Y46*%
G04 Gerber Fmt 4.6, Leading zero omitted, Abs format (unit mm)*
G04 Created by KiCad (PCBNEW (6.0.9-0)) date 2024-06-20 10:35:51*
%MOMM*%
%LPD*%
G01*
G04 APERTURE LIST*
%TA.AperFunction,ComponentPad*%
%ADD10C,5.500000*%
%TD*%
%TA.AperFunction,ComponentPad*%
%ADD11R,1.700000X1.700000*%
%TD*%
%TA.AperFunction,ComponentPad*%
%ADD12O,1.700000X1.700000*%
%TD*%
%TA.AperFunction,ViaPad*%
%ADD13C,0.600000*%
%TD*%
%TA.AperFunction,Conductor*%
%ADD14C,0.300000*%
%TD*%
%TA.AperFunction,Conductor*%
%ADD15C,0.500000*%
%TD*%
G04 APERTURE END LIST*
D10*
%TO.P,H3,1,1*%
%TO.N,/GND*%
X76200000Y-93980000D03*
%TD*%
%TO.P,H1,1,1*%
%TO.N,/GND*%
X53340000Y-93980000D03*
%TD*%
D11*
%TO.P,J1,1,Pin_1*%
%TO.N,/+9V*%
X50800000Y-50800000D03*
D12*
%TO.P,J1,2,Pin_2*%
%TO.N,/GND*%
X50800000Y-53340000D03*
%TO.P,J1,3,Pin_3*%
%TO.N,/+4.5V*%
X50800000Y-55880000D03*
%TO.P,J1,4,Pin_4*%
%TO.N,/In*%
X50800000Y-58420000D03*
%TO.P,J1,5,Pin_5*%
%TO.N,/GND*%
X50800000Y-60960000D03*
%TO.P,J1,6,Pin_6*%
%TO.N,/Freq_CV*%
X50800000Y-63500000D03*
%TO.P,J1,7,Pin_7*%
%TO.N,/Res_CV*%
X50800000Y-66040000D03*
%TO.P,J1,8,Pin_8*%
%TO.N,/GND*%
X50800000Y-68580000D03*
%TO.P,J1,9,Pin_9*%
%TO.N,/HP*%
X50800000Y-71120000D03*
%TO.P,J1,10,Pin_10*%
%TO.N,/UBP*%
X50800000Y-73660000D03*
%TO.P,J1,11,Pin_11*%
%TO.N,/GND*%
X50800000Y-76200000D03*
%TO.P,J1,12,Pin_12*%
%TO.N,/LBP*%
X50800000Y-78740000D03*
%TO.P,J1,13,Pin_13*%
%TO.N,/LP*%
X50800000Y-81280000D03*
%TO.P,J1,14,Pin_14*%
%TO.N,/GND*%
X50800000Y-83820000D03*
%TD*%
D11*
%TO.P,J2,1,Pin_1*%
%TO.N,/+9V*%
X78740000Y-50800000D03*
D12*
%TO.P,J2,2,Pin_2*%
%TO.N,/GND*%
X78740000Y-53340000D03*
%TO.P,J2,3,Pin_3*%
%TO.N,/+4.5V*%
X78740000Y-55880000D03*
%TO.P,J2,4,Pin_4*%
%TO.N,/In*%
X78740000Y-58420000D03*
%TO.P,J2,5,Pin_5*%
%TO.N,/GND*%
X78740000Y-60960000D03*
%TO.P,J2,6,Pin_6*%
%TO.N,/Freq_CV*%
X78740000Y-63500000D03*
%TO.P,J2,7,Pin_7*%
%TO.N,/Res_CV*%
X78740000Y-66040000D03*
%TO.P,J2,8,Pin_8*%
%TO.N,/GND*%
X78740000Y-68580000D03*
%TO.P,J2,9,Pin_9*%
%TO.N,/HP*%
X78740000Y-71120000D03*
%TO.P,J2,10,Pin_10*%
%TO.N,/UBP*%
X78740000Y-73660000D03*
%TO.P,J2,11,Pin_11*%
%TO.N,/GND*%
X78740000Y-76200000D03*
%TO.P,J2,12,Pin_12*%
%TO.N,/LBP*%
X78740000Y-78740000D03*
%TO.P,J2,13,Pin_13*%
%TO.N,/LP*%
X78740000Y-81280000D03*
%TO.P,J2,14,Pin_14*%
%TO.N,/GND*%
X78740000Y-83820000D03*
%TD*%
D13*
%TO.N,/GND*%
X58621000Y-48313000D03*
X72009000Y-54102000D03*
X70104000Y-42418000D03*
X63355289Y-67189616D03*
X53848000Y-57277000D03*
X55118000Y-81661000D03*
X54864000Y-63754000D03*
X57912000Y-85090000D03*
X68707000Y-83820000D03*
X70866000Y-69215000D03*
X58928000Y-63260500D03*
X64149767Y-51703767D03*
X66040000Y-55118000D03*
X75946000Y-60071000D03*
X71896500Y-73533000D03*
X58039000Y-82423000D03*
X58166000Y-49784000D03*
X60465378Y-70358000D03*
X60706000Y-59309000D03*
X66096478Y-67174810D03*
X58674000Y-78867000D03*
X54868437Y-77824375D03*
X73660000Y-89662000D03*
X64516000Y-72644000D03*
X66069500Y-60960000D03*
X62992000Y-65659000D03*
X60452000Y-85090000D03*
X53848000Y-51943000D03*
X65786000Y-50050500D03*
X55626000Y-60960000D03*
X63793235Y-80264000D03*
X75692000Y-77597000D03*
X64770000Y-60960000D03*
X70712945Y-59277896D03*
X65862500Y-69821000D03*
X66040000Y-65659000D03*
X67310000Y-77470000D03*
X60452000Y-80899000D03*
X58420000Y-75438000D03*
X63793235Y-82281500D03*
X74930000Y-51816000D03*
%TO.N,/+5.35V*%
X56642000Y-60960000D03*
X64008000Y-61341000D03*
%TO.N,/+4.5V*%
X65278000Y-55880000D03*
%TO.N,/+5.35V_Buf*%
X53848000Y-52742503D03*
X63920053Y-52509415D03*
%TO.N,/+4.5V_Buf*%
X70104000Y-43434000D03*
X77449624Y-75544624D03*
X62865000Y-82079500D03*
X58674000Y-78067497D03*
X54737000Y-78613000D03*
X70744194Y-60076787D03*
X71209497Y-54102000D03*
X72794500Y-89765500D03*
X75692000Y-78613000D03*
X75946000Y-51562000D03*
X57531000Y-75438000D03*
X55193750Y-80696250D03*
X69506503Y-83820000D03*
X64770000Y-61759503D03*
%TO.N,/+9V*%
X50800000Y-85471000D03*
X58180500Y-63754000D03*
X58166000Y-50800000D03*
X55753000Y-63754000D03*
X58700500Y-83057500D03*
X75946000Y-60870503D03*
X60706000Y-60325000D03*
%TO.N,Net-(C13-Pad1)*%
X65424426Y-67772682D03*
X65024000Y-65532000D03*
%TO.N,Net-(C15-Pad1)*%
X65532000Y-72644000D03*
X71247000Y-72644000D03*
%TO.N,/LBP*%
X70954000Y-79590000D03*
%TO.N,/CV Processing/Freq_CV_Biased*%
X66598998Y-70132086D03*
X61595000Y-70014500D03*
X79756000Y-69850000D03*
%TO.N,/CV Processing/Res_CV_Biased*%
X64262000Y-67818000D03*
X64008000Y-65469500D03*
%TO.N,Net-(R15-Pad2)*%
X57404000Y-85852000D03*
X60833000Y-85979000D03*
%TO.N,Net-(R29-Pad2)*%
X65151000Y-81280000D03*
X63500000Y-81280000D03*
%TD*%
D14*
%TO.N,/+5.35V*%
X56642000Y-60960000D02*
X56642000Y-61214000D01*
X56769000Y-61341000D02*
X64008000Y-61341000D01*
X56642000Y-61214000D02*
X56769000Y-61341000D01*
%TO.N,/+4.5V*%
X78740000Y-55880000D02*
X65278000Y-55880000D01*
X65278000Y-55880000D02*
X50800000Y-55880000D01*
%TO.N,/+5.35V_Buf*%
X53848000Y-52742503D02*
X54445497Y-53340000D01*
X54445497Y-53340000D02*
X63089468Y-53340000D01*
X63089468Y-53340000D02*
X63920053Y-52509415D01*
D15*
%TO.N,/+9V*%
X75902284Y-60826787D02*
X68700787Y-60826787D01*
X75946000Y-60870503D02*
X75902284Y-60826787D01*
X60821000Y-60210000D02*
X60706000Y-60325000D01*
X55753000Y-63754000D02*
X58180500Y-63754000D01*
X58674500Y-83057500D02*
X56261000Y-85471000D01*
X58166000Y-50800000D02*
X78740000Y-50800000D01*
X68700787Y-60826787D02*
X68084000Y-60210000D01*
X50800000Y-50800000D02*
X58166000Y-50800000D01*
X68084000Y-60210000D02*
X60821000Y-60210000D01*
X58700500Y-83057500D02*
X58674500Y-83057500D01*
X56261000Y-85471000D02*
X50800000Y-85471000D01*
D14*
%TO.N,/In*%
X50800000Y-58420000D02*
X78740000Y-58420000D01*
%TO.N,Net-(C13-Pad1)*%
X65424426Y-67772682D02*
X65424426Y-67492708D01*
X65024000Y-67092282D02*
X65024000Y-65532000D01*
X65424426Y-67492708D02*
X65024000Y-67092282D01*
%TO.N,/UBP*%
X78232000Y-74168000D02*
X78740000Y-73660000D01*
X51323000Y-74183000D02*
X72165739Y-74183000D01*
X50800000Y-73660000D02*
X51323000Y-74183000D01*
X72165739Y-74183000D02*
X72180739Y-74168000D01*
X72180739Y-74168000D02*
X78232000Y-74168000D01*
%TO.N,Net-(C15-Pad1)*%
X65532000Y-72644000D02*
X71247000Y-72644000D01*
%TO.N,/LBP*%
X77890000Y-79590000D02*
X70954000Y-79590000D01*
X70954000Y-79590000D02*
X51650000Y-79590000D01*
X51650000Y-79590000D02*
X50800000Y-78740000D01*
X78740000Y-78740000D02*
X77890000Y-79590000D01*
%TO.N,/LP*%
X59659761Y-81026000D02*
X61564761Y-82931000D01*
X51943000Y-81280000D02*
X52974000Y-82311000D01*
X77089000Y-82931000D02*
X78740000Y-81280000D01*
X52974000Y-82311000D02*
X55387239Y-82311000D01*
X55387239Y-82311000D02*
X56672239Y-81026000D01*
X61564761Y-82931000D02*
X77089000Y-82931000D01*
X56672239Y-81026000D02*
X59659761Y-81026000D01*
X50800000Y-81280000D02*
X51943000Y-81280000D01*
%TO.N,/CV Processing/Freq_CV_Biased*%
X62051000Y-70470500D02*
X61595000Y-70014500D01*
X78312943Y-69850000D02*
X79756000Y-69850000D01*
X78058943Y-70104000D02*
X78312943Y-69850000D01*
X66260584Y-70470500D02*
X62051000Y-70470500D01*
X66627084Y-70104000D02*
X78058943Y-70104000D01*
X66598998Y-70132086D02*
X66627084Y-70104000D01*
X66598998Y-70132086D02*
X66260584Y-70470500D01*
%TO.N,/CV Processing/Res_CV_Biased*%
X64008000Y-67564000D02*
X64008000Y-65469500D01*
X64262000Y-67818000D02*
X64008000Y-67564000D01*
%TO.N,/Freq_CV*%
X77851000Y-62611000D02*
X78740000Y-63500000D01*
X51689000Y-62611000D02*
X77851000Y-62611000D01*
X50800000Y-63500000D02*
X51689000Y-62611000D01*
%TO.N,/Res_CV*%
X77470000Y-64770000D02*
X78740000Y-66040000D01*
X52070000Y-64770000D02*
X77470000Y-64770000D01*
X50800000Y-66040000D02*
X52070000Y-64770000D01*
%TO.N,/HP*%
X50800000Y-71120000D02*
X78740000Y-71120000D01*
%TO.N,Net-(R15-Pad2)*%
X60706000Y-85852000D02*
X57404000Y-85852000D01*
X60833000Y-85979000D02*
X60706000Y-85852000D01*
%TO.N,Net-(R29-Pad2)*%
X63500000Y-81280000D02*
X65151000Y-81280000D01*
%TD*%
%TA.AperFunction,Conductor*%
%TO.N,/+4.5V_Buf*%
G36*
X76187103Y-35816921D02*
G01*
X76200000Y-35819486D01*
X76212170Y-35817065D01*
X76222599Y-35817065D01*
X76235735Y-35816060D01*
X76558600Y-35830156D01*
X76615075Y-35832622D01*
X76626023Y-35833580D01*
X77032496Y-35887093D01*
X77043301Y-35888999D01*
X77443566Y-35977736D01*
X77454176Y-35980579D01*
X77845175Y-36103860D01*
X77855488Y-36107613D01*
X78234277Y-36264513D01*
X78244221Y-36269151D01*
X78546931Y-36426731D01*
X78607867Y-36458452D01*
X78617387Y-36463948D01*
X78963148Y-36684223D01*
X78972152Y-36690527D01*
X79297413Y-36940108D01*
X79305830Y-36947172D01*
X79389622Y-37023952D01*
X79608088Y-37224139D01*
X79615857Y-37231908D01*
X79892826Y-37534167D01*
X79899892Y-37542587D01*
X80149473Y-37867848D01*
X80155777Y-37876852D01*
X80376052Y-38222613D01*
X80381548Y-38232133D01*
X80570845Y-38595770D01*
X80575487Y-38605723D01*
X80703083Y-38913766D01*
X80732384Y-38984504D01*
X80736140Y-38994825D01*
X80803994Y-39210030D01*
X80859421Y-39385823D01*
X80862264Y-39396434D01*
X80951001Y-39796699D01*
X80952907Y-39807504D01*
X80962635Y-39881397D01*
X81006420Y-40213976D01*
X81007378Y-40224926D01*
X81023940Y-40604265D01*
X81022935Y-40617401D01*
X81022935Y-40627830D01*
X81020514Y-40640000D01*
X81022935Y-40652170D01*
X81023079Y-40652894D01*
X81025500Y-40677476D01*
X81025500Y-93942524D01*
X81023079Y-93967103D01*
X81020514Y-93980000D01*
X81022935Y-93992170D01*
X81022935Y-94002599D01*
X81023940Y-94015735D01*
X81007378Y-94395074D01*
X81006420Y-94406023D01*
X80992343Y-94512953D01*
X80952908Y-94812488D01*
X80951001Y-94823301D01*
X80872975Y-95175253D01*
X80862266Y-95223560D01*
X80859421Y-95234176D01*
X80780402Y-95484796D01*
X80736143Y-95625167D01*
X80732387Y-95635488D01*
X80652921Y-95827337D01*
X80575491Y-96014268D01*
X80570849Y-96024221D01*
X80518556Y-96124676D01*
X80381548Y-96387867D01*
X80376052Y-96397387D01*
X80155777Y-96743148D01*
X80149473Y-96752152D01*
X79899892Y-97077413D01*
X79892828Y-97085830D01*
X79733856Y-97259319D01*
X79615861Y-97388088D01*
X79608092Y-97395857D01*
X79305833Y-97672826D01*
X79297413Y-97679892D01*
X78972152Y-97929473D01*
X78963148Y-97935777D01*
X78617387Y-98156052D01*
X78607868Y-98161547D01*
X78244221Y-98350849D01*
X78234277Y-98355487D01*
X77855488Y-98512387D01*
X77845175Y-98516140D01*
X77454177Y-98639421D01*
X77443566Y-98642264D01*
X77043301Y-98731001D01*
X77032496Y-98732907D01*
X76626024Y-98786420D01*
X76615075Y-98787378D01*
X76558600Y-98789844D01*
X76235735Y-98803940D01*
X76222599Y-98802935D01*
X76212170Y-98802935D01*
X76200000Y-98800514D01*
X76187103Y-98803079D01*
X76162524Y-98805500D01*
X53377476Y-98805500D01*
X53352897Y-98803079D01*
X53340000Y-98800514D01*
X53327830Y-98802935D01*
X53317401Y-98802935D01*
X53304265Y-98803940D01*
X52981400Y-98789844D01*
X52924925Y-98787378D01*
X52913976Y-98786420D01*
X52507504Y-98732907D01*
X52496699Y-98731001D01*
X52096434Y-98642264D01*
X52085823Y-98639421D01*
X51694825Y-98516140D01*
X51684512Y-98512387D01*
X51305723Y-98355487D01*
X51295779Y-98350849D01*
X50932132Y-98161547D01*
X50922613Y-98156052D01*
X50576852Y-97935777D01*
X50567848Y-97929473D01*
X50242587Y-97679892D01*
X50234167Y-97672826D01*
X49931908Y-97395857D01*
X49924139Y-97388088D01*
X49806145Y-97259319D01*
X49647172Y-97085830D01*
X49640108Y-97077413D01*
X49390527Y-96752152D01*
X49384223Y-96743148D01*
X49163948Y-96397387D01*
X49158452Y-96387867D01*
X49021444Y-96124676D01*
X48969151Y-96024221D01*
X48964509Y-96014268D01*
X48887080Y-95827337D01*
X48807613Y-95635488D01*
X48803857Y-95625167D01*
X48759599Y-95484796D01*
X48680579Y-95234176D01*
X48677734Y-95223560D01*
X48667025Y-95175253D01*
X48588999Y-94823301D01*
X48587092Y-94812488D01*
X48547658Y-94512953D01*
X48533580Y-94406023D01*
X48532622Y-94395074D01*
X48516060Y-94015735D01*
X48517065Y-94002599D01*
X48517065Y-93992170D01*
X48519486Y-93980000D01*
X48516921Y-93967103D01*
X48514500Y-93942524D01*
X48514500Y-93885466D01*
X50331893Y-93885466D01*
X50340963Y-94231836D01*
X50389784Y-94574868D01*
X50477708Y-94910015D01*
X50603570Y-95232835D01*
X50605274Y-95236053D01*
X50735264Y-95481560D01*
X50765703Y-95539050D01*
X50767755Y-95542035D01*
X50767760Y-95542044D01*
X50959899Y-95821608D01*
X50959905Y-95821615D01*
X50961956Y-95824600D01*
X51189729Y-96085701D01*
X51446002Y-96318892D01*
X51448960Y-96321017D01*
X51448963Y-96321020D01*
X51548786Y-96392750D01*
X51727380Y-96521083D01*
X52030132Y-96689592D01*
X52350246Y-96822188D01*
X52353740Y-96823183D01*
X52353742Y-96823184D01*
X52679977Y-96916114D01*
X52679982Y-96916115D01*
X52683478Y-96917111D01*
X52918649Y-96955622D01*
X53021832Y-96972519D01*
X53021836Y-96972519D01*
X53025412Y-96973105D01*
X53029038Y-96973276D01*
X53367889Y-96989256D01*
X53367890Y-96989256D01*
X53371516Y-96989427D01*
X53378128Y-96988976D01*
X53713570Y-96966108D01*
X53713577Y-96966107D01*
X53717202Y-96965860D01*
X53720778Y-96965197D01*
X53720780Y-96965197D01*
X54054323Y-96903379D01*
X54054327Y-96903378D01*
X54057888Y-96902718D01*
X54389060Y-96800836D01*
X54706326Y-96661566D01*
X55005483Y-96486753D01*
X55130683Y-96392750D01*
X55279657Y-96280897D01*
X55279661Y-96280894D01*
X55282564Y-96278714D01*
X55533898Y-96040207D01*
X55756153Y-95774394D01*
X55847392Y-95635496D01*
X55944396Y-95487822D01*
X55944401Y-95487813D01*
X55946383Y-95484796D01*
X56071488Y-95236053D01*
X56100440Y-95178489D01*
X56100443Y-95178481D01*
X56102067Y-95175253D01*
X56103312Y-95171851D01*
X56219893Y-94853279D01*
X56219894Y-94853275D01*
X56221141Y-94849868D01*
X56221986Y-94846346D01*
X56221989Y-94846338D01*
X56301180Y-94516482D01*
X56301181Y-94516478D01*
X56302027Y-94512953D01*
X56316292Y-94395074D01*
X56343317Y-94171753D01*
X56343318Y-94171746D01*
X56343653Y-94168974D01*
X56349592Y-93980000D01*
X56349431Y-93977204D01*
X56344142Y-93885466D01*
X73191893Y-93885466D01*
X73200963Y-94231836D01*
X73249784Y-94574868D01*
X73337708Y-94910015D01*
X73463570Y-95232835D01*
X73465274Y-95236053D01*
X73595264Y-95481560D01*
X73625703Y-95539050D01*
X73627755Y-95542035D01*
X73627760Y-95542044D01*
X73819899Y-95821608D01*
X73819905Y-95821615D01*
X73821956Y-95824600D01*
X74049729Y-96085701D01*
X74306002Y-96318892D01*
X74308960Y-96321017D01*
X74308963Y-96321020D01*
X74408786Y-96392750D01*
X74587380Y-96521083D01*
X74890132Y-96689592D01*
X75210246Y-96822188D01*
X75213740Y-96823183D01*
X75213742Y-96823184D01*
X75539977Y-96916114D01*
X75539982Y-96916115D01*
X75543478Y-96917111D01*
X75778649Y-96955622D01*
X75881832Y-96972519D01*
X75881836Y-96972519D01*
X75885412Y-96973105D01*
X75889038Y-96973276D01*
X76227889Y-96989256D01*
X76227890Y-96989256D01*
X76231516Y-96989427D01*
X76238128Y-96988976D01*
X76573570Y-96966108D01*
X76573577Y-96966107D01*
X76577202Y-96965860D01*
X76580778Y-96965197D01*
X76580780Y-96965197D01*
X76914323Y-96903379D01*
X76914327Y-96903378D01*
X76917888Y-96902718D01*
X77249060Y-96800836D01*
X77566326Y-96661566D01*
X77865483Y-96486753D01*
X77990683Y-96392750D01*
X78139657Y-96280897D01*
X78139661Y-96280894D01*
X78142564Y-96278714D01*
X78393898Y-96040207D01*
X78616153Y-95774394D01*
X78707392Y-95635496D01*
X78804396Y-95487822D01*
X78804401Y-95487813D01*
X78806383Y-95484796D01*
X78931488Y-95236053D01*
X78960440Y-95178489D01*
X78960443Y-95178481D01*
X78962067Y-95175253D01*
X78963312Y-95171851D01*
X79079893Y-94853279D01*
X79079894Y-94853275D01*
X79081141Y-94849868D01*
X79081986Y-94846346D01*
X79081989Y-94846338D01*
X79161180Y-94516482D01*
X79161181Y-94516478D01*
X79162027Y-94512953D01*
X79176292Y-94395074D01*
X79203317Y-94171753D01*
X79203318Y-94171746D01*
X79203653Y-94168974D01*
X79209592Y-93980000D01*
X79209431Y-93977204D01*
X79189856Y-93637706D01*
X79189855Y-93637701D01*
X79189647Y-93634086D01*
X79130075Y-93292757D01*
X79031667Y-92960537D01*
X78995414Y-92875542D01*
X78897151Y-92645168D01*
X78897149Y-92645165D01*
X78895727Y-92641830D01*
X78849676Y-92561093D01*
X78725847Y-92343999D01*
X78724056Y-92340859D01*
X78668683Y-92265477D01*
X78521070Y-92064527D01*
X78521068Y-92064525D01*
X78518930Y-92061614D01*
X78283069Y-91807796D01*
X78280309Y-91805439D01*
X78280303Y-91805433D01*
X78022353Y-91585124D01*
X78019597Y-91582770D01*
X77732007Y-91389518D01*
X77728798Y-91387862D01*
X77728790Y-91387857D01*
X77427331Y-91232263D01*
X77424111Y-91230601D01*
X77420730Y-91229323D01*
X77420720Y-91229319D01*
X77103389Y-91109410D01*
X77099991Y-91108126D01*
X76763941Y-91023716D01*
X76619050Y-91004641D01*
X76424021Y-90978964D01*
X76424013Y-90978963D01*
X76420417Y-90978490D01*
X76277229Y-90976241D01*
X76077613Y-90973105D01*
X76077609Y-90973105D01*
X76073971Y-90973048D01*
X76070357Y-90973409D01*
X76070351Y-90973409D01*
X75827044Y-90997695D01*
X75729196Y-91007461D01*
X75609304Y-91033602D01*
X75394205Y-91080501D01*
X75394200Y-91080502D01*
X75390661Y-91081274D01*
X75062853Y-91193507D01*
X74750118Y-91342674D01*
X74456600Y-91526798D01*
X74453766Y-91529068D01*
X74453761Y-91529072D01*
X74389254Y-91580752D01*
X74186190Y-91743437D01*
X73942472Y-91989721D01*
X73728676Y-92262385D01*
X73547636Y-92557815D01*
X73546117Y-92561087D01*
X73546114Y-92561093D01*
X73507088Y-92645168D01*
X73401752Y-92872095D01*
X73400612Y-92875542D01*
X73372503Y-92960537D01*
X73292957Y-93201060D01*
X73292221Y-93204615D01*
X73292220Y-93204618D01*
X73273228Y-93296330D01*
X73222694Y-93540350D01*
X73191893Y-93885466D01*
X56344142Y-93885466D01*
X56329856Y-93637706D01*
X56329855Y-93637701D01*
X56329647Y-93634086D01*
X56270075Y-93292757D01*
X56171667Y-92960537D01*
X56135414Y-92875542D01*
X56037151Y-92645168D01*
X56037149Y-92645165D01*
X56035727Y-92641830D01*
X55989676Y-92561093D01*
X55865847Y-92343999D01*
X55864056Y-92340859D01*
X55808683Y-92265477D01*
X55661070Y-92064527D01*
X55661068Y-92064525D01*
X55658930Y-92061614D01*
X55423069Y-91807796D01*
X55420309Y-91805439D01*
X55420303Y-91805433D01*
X55162353Y-91585124D01*
X55159597Y-91582770D01*
X54872007Y-91389518D01*
X54868798Y-91387862D01*
X54868790Y-91387857D01*
X54567331Y-91232263D01*
X54564111Y-91230601D01*
X54560730Y-91229323D01*
X54560720Y-91229319D01*
X54243389Y-91109410D01*
X54239991Y-91108126D01*
X53903941Y-91023716D01*
X53759050Y-91004641D01*
X53564021Y-90978964D01*
X53564013Y-90978963D01*
X53560417Y-90978490D01*
X53417229Y-90976241D01*
X53217613Y-90973105D01*
X53217609Y-90973105D01*
X53213971Y-90973048D01*
X53210357Y-90973409D01*
X53210351Y-90973409D01*
X52967044Y-90997695D01*
X52869196Y-91007461D01*
X52749304Y-91033602D01*
X52534205Y-91080501D01*
X52534200Y-91080502D01*
X52530661Y-91081274D01*
X52202853Y-91193507D01*
X51890118Y-91342674D01*
X51596600Y-91526798D01*
X51593766Y-91529068D01*
X51593761Y-91529072D01*
X51529254Y-91580752D01*
X51326190Y-91743437D01*
X51082472Y-91989721D01*
X50868676Y-92262385D01*
X50687636Y-92557815D01*
X50686117Y-92561087D01*
X50686114Y-92561093D01*
X50647088Y-92645168D01*
X50541752Y-92872095D01*
X50540612Y-92875542D01*
X50512503Y-92960537D01*
X50432957Y-93201060D01*
X50432221Y-93204615D01*
X50432220Y-93204618D01*
X50413228Y-93296330D01*
X50362694Y-93540350D01*
X50331893Y-93885466D01*
X48514500Y-93885466D01*
X48514500Y-89662000D01*
X73100715Y-89662000D01*
X73119772Y-89806754D01*
X73175645Y-89941642D01*
X73264526Y-90057474D01*
X73271076Y-90062500D01*
X73271079Y-90062503D01*
X73373804Y-90141327D01*
X73380357Y-90146355D01*
X73515246Y-90202228D01*
X73660000Y-90221285D01*
X73668188Y-90220207D01*
X73796566Y-90203306D01*
X73804754Y-90202228D01*
X73939643Y-90146355D01*
X73946196Y-90141327D01*
X74048921Y-90062503D01*
X74048924Y-90062500D01*
X74055474Y-90057474D01*
X74144355Y-89941642D01*
X74200228Y-89806754D01*
X74219285Y-89662000D01*
X74200228Y-89517246D01*
X74144355Y-89382358D01*
X74055474Y-89266526D01*
X74048924Y-89261500D01*
X74048921Y-89261497D01*
X73946196Y-89182673D01*
X73946194Y-89182672D01*
X73939643Y-89177645D01*
X73804754Y-89121772D01*
X73660000Y-89102715D01*
X73651812Y-89103793D01*
X73523432Y-89120694D01*
X73523430Y-89120695D01*
X73515246Y-89121772D01*
X73467430Y-89141578D01*
X73387986Y-89174485D01*
X73387984Y-89174486D01*
X73380358Y-89177645D01*
X73264526Y-89266526D01*
X73175645Y-89382358D01*
X73119772Y-89517246D01*
X73100715Y-89662000D01*
X48514500Y-89662000D01*
X48514500Y-83790964D01*
X49691148Y-83790964D01*
X49704424Y-83993522D01*
X49705845Y-83999118D01*
X49705846Y-83999123D01*
X49726119Y-84078945D01*
X49754392Y-84190269D01*
X49756809Y-84195512D01*
X49794010Y-84276208D01*
X49839377Y-84374616D01*
X49956533Y-84540389D01*
X50101938Y-84682035D01*
X50270720Y-84794812D01*
X50276023Y-84797090D01*
X50276026Y-84797092D01*
X50393501Y-84847563D01*
X50448194Y-84892831D01*
X50469731Y-84960482D01*
X50451274Y-85029038D01*
X50420467Y-85063293D01*
X50411076Y-85070499D01*
X50411072Y-85070503D01*
X50404526Y-85075526D01*
X50315645Y-85191358D01*
X50312486Y-85198984D01*
X50312485Y-85198986D01*
X50294508Y-85242387D01*
X50259772Y-85326246D01*
X50240715Y-85471000D01*
X50241793Y-85479188D01*
X50256392Y-85590077D01*
X50259772Y-85615754D01*
X50262931Y-85623380D01*
X50297670Y-85707246D01*
X50315645Y-85750642D01*
X50320672Y-85757193D01*
X50381255Y-85836146D01*
X50404526Y-85866474D01*
X50411076Y-85871500D01*
X50411079Y-85871503D01*
X50479596Y-85924078D01*
X50520357Y-85955355D01*
X50600540Y-85988568D01*
X50638714Y-86004380D01*
X50655246Y-86011228D01*
X50800000Y-86030285D01*
X50808188Y-86029207D01*
X50936566Y-86012306D01*
X50944754Y-86011228D01*
X51007855Y-85985091D01*
X51056072Y-85975500D01*
X56190376Y-85975500D01*
X56202381Y-85976841D01*
X56202421Y-85976345D01*
X56211368Y-85977065D01*
X56220124Y-85979046D01*
X56273382Y-85975742D01*
X56281184Y-85975500D01*
X56297226Y-85975500D01*
X56301657Y-85974865D01*
X56301662Y-85974865D01*
X56305687Y-85974288D01*
X56307457Y-85974035D01*
X56317514Y-85973004D01*
X56339976Y-85971611D01*
X56355400Y-85970654D01*
X56355402Y-85970654D01*
X56364359Y-85970098D01*
X56372799Y-85967051D01*
X56376089Y-85966370D01*
X56391938Y-85962418D01*
X56395168Y-85961473D01*
X56404052Y-85960201D01*
X56412223Y-85956486D01*
X56446763Y-85940782D01*
X56456128Y-85936970D01*
X56491837Y-85924078D01*
X56491840Y-85924076D01*
X56500284Y-85921028D01*
X56507533Y-85915732D01*
X56510490Y-85914160D01*
X56524614Y-85905907D01*
X56527437Y-85904102D01*
X56535605Y-85900388D01*
X56542402Y-85894531D01*
X56542404Y-85894530D01*
X56571153Y-85869757D01*
X56579064Y-85863475D01*
X56589944Y-85855527D01*
X56600806Y-85844665D01*
X56607653Y-85838307D01*
X56642222Y-85808520D01*
X56706884Y-85779206D01*
X56777129Y-85789505D01*
X56830656Y-85836146D01*
X56849392Y-85887527D01*
X56862513Y-85987188D01*
X56863772Y-85996754D01*
X56870214Y-86012306D01*
X56916378Y-86123754D01*
X56919645Y-86131642D01*
X57008526Y-86247474D01*
X57015076Y-86252500D01*
X57015079Y-86252503D01*
X57084533Y-86305797D01*
X57124357Y-86336355D01*
X57259246Y-86392228D01*
X57404000Y-86411285D01*
X57412188Y-86410207D01*
X57540566Y-86393306D01*
X57548754Y-86392228D01*
X57683643Y-86336355D01*
X57753778Y-86282538D01*
X57819998Y-86256937D01*
X57830482Y-86256500D01*
X60284865Y-86256500D01*
X60352986Y-86276502D01*
X60384828Y-86305797D01*
X60432496Y-86367920D01*
X60432499Y-86367923D01*
X60437526Y-86374474D01*
X60444076Y-86379500D01*
X60444079Y-86379503D01*
X60546804Y-86458327D01*
X60553357Y-86463355D01*
X60688246Y-86519228D01*
X60833000Y-86538285D01*
X60841188Y-86537207D01*
X60969566Y-86520306D01*
X60977754Y-86519228D01*
X61112643Y-86463355D01*
X61119196Y-86458327D01*
X61221921Y-86379503D01*
X61221924Y-86379500D01*
X61228474Y-86374474D01*
X61317355Y-86258642D01*
X61373228Y-86123754D01*
X61392285Y-85979000D01*
X61386752Y-85936970D01*
X61374306Y-85842432D01*
X61374305Y-85842430D01*
X61373228Y-85834246D01*
X61335438Y-85743014D01*
X61320515Y-85706986D01*
X61320514Y-85706984D01*
X61317355Y-85699358D01*
X61259055Y-85623380D01*
X61233501Y-85590077D01*
X61233500Y-85590076D01*
X61228474Y-85583526D01*
X61221924Y-85578500D01*
X61221921Y-85578497D01*
X61119196Y-85499673D01*
X61119194Y-85499672D01*
X61112643Y-85494645D01*
X61034385Y-85462230D01*
X60979105Y-85417682D01*
X60956684Y-85350318D01*
X60966196Y-85297602D01*
X60989067Y-85242387D01*
X60989068Y-85242382D01*
X60992228Y-85234754D01*
X61011285Y-85090000D01*
X60992228Y-84945246D01*
X60963107Y-84874942D01*
X60939515Y-84817986D01*
X60939514Y-84817984D01*
X60936355Y-84810358D01*
X60847474Y-84694526D01*
X60840924Y-84689500D01*
X60840921Y-84689497D01*
X60738196Y-84610673D01*
X60738194Y-84610672D01*
X60731643Y-84605645D01*
X60596754Y-84549772D01*
X60556132Y-84544424D01*
X60460188Y-84531793D01*
X60452000Y-84530715D01*
X60443812Y-84531793D01*
X60315432Y-84548694D01*
X60315430Y-84548695D01*
X60307246Y-84549772D01*
X60259430Y-84569578D01*
X60179986Y-84602485D01*
X60179984Y-84602486D01*
X60172358Y-84605645D01*
X60088270Y-84670168D01*
X60078061Y-84678002D01*
X60056526Y-84694526D01*
X59967645Y-84810358D01*
X59964486Y-84817984D01*
X59964485Y-84817986D01*
X59940893Y-84874942D01*
X59911772Y-84945246D01*
X59892715Y-85090000D01*
X59911772Y-85234754D01*
X59914932Y-85242383D01*
X59927730Y-85273280D01*
X59935320Y-85343870D01*
X59903542Y-85407357D01*
X59842484Y-85443586D01*
X59811322Y-85447500D01*
X58552678Y-85447500D01*
X58484557Y-85427498D01*
X58438064Y-85373842D01*
X58427960Y-85303568D01*
X58436270Y-85273280D01*
X58449068Y-85242383D01*
X58452228Y-85234754D01*
X58471285Y-85090000D01*
X58452228Y-84945246D01*
X58423107Y-84874942D01*
X58399515Y-84817986D01*
X58399514Y-84817984D01*
X58396355Y-84810358D01*
X58307474Y-84694526D01*
X58300924Y-84689500D01*
X58300921Y-84689497D01*
X58198196Y-84610673D01*
X58198194Y-84610672D01*
X58191643Y-84605645D01*
X58184014Y-84602485D01*
X58184009Y-84602482D01*
X58117088Y-84574762D01*
X58061807Y-84530214D01*
X58039387Y-84462850D01*
X58056946Y-84394059D01*
X58076212Y-84369259D01*
X58831780Y-83613691D01*
X58872656Y-83586378D01*
X58980143Y-83541855D01*
X59061494Y-83479432D01*
X59089421Y-83458003D01*
X59089424Y-83458000D01*
X59095974Y-83452974D01*
X59119368Y-83422487D01*
X59179828Y-83343693D01*
X59184855Y-83337142D01*
X59188392Y-83328605D01*
X59237569Y-83209880D01*
X59240728Y-83202254D01*
X59259785Y-83057500D01*
X59244831Y-82943911D01*
X59241806Y-82920932D01*
X59241805Y-82920930D01*
X59240728Y-82912746D01*
X59200996Y-82816826D01*
X59188015Y-82785486D01*
X59188014Y-82785484D01*
X59184855Y-82777858D01*
X59131715Y-82708605D01*
X59101001Y-82668577D01*
X59101000Y-82668576D01*
X59095974Y-82662026D01*
X59089424Y-82657000D01*
X59089421Y-82656997D01*
X58986696Y-82578173D01*
X58986694Y-82578172D01*
X58980143Y-82573145D01*
X58845254Y-82517272D01*
X58837066Y-82516194D01*
X58702415Y-82498467D01*
X58637488Y-82469745D01*
X58598396Y-82410480D01*
X58593939Y-82389991D01*
X58593158Y-82384054D01*
X58581459Y-82295192D01*
X58580306Y-82286432D01*
X58580305Y-82286430D01*
X58579228Y-82278246D01*
X58523355Y-82143358D01*
X58462726Y-82064345D01*
X58439501Y-82034077D01*
X58439500Y-82034076D01*
X58434474Y-82027526D01*
X58427924Y-82022500D01*
X58427921Y-82022497D01*
X58325196Y-81943673D01*
X58325194Y-81943672D01*
X58318643Y-81938645D01*
X58183754Y-81882772D01*
X58039000Y-81863715D01*
X58030812Y-81864793D01*
X57902432Y-81881694D01*
X57902430Y-81881695D01*
X57894246Y-81882772D01*
X57856196Y-81898533D01*
X57766986Y-81935485D01*
X57766984Y-81935486D01*
X57759358Y-81938645D01*
X57643526Y-82027526D01*
X57554645Y-82143358D01*
X57498772Y-82278246D01*
X57497695Y-82286430D01*
X57497694Y-82286432D01*
X57496541Y-82295192D01*
X57479715Y-82423000D01*
X57480793Y-82431188D01*
X57491595Y-82513236D01*
X57498772Y-82567754D01*
X57501931Y-82575380D01*
X57549560Y-82690365D01*
X57554645Y-82702642D01*
X57643526Y-82818474D01*
X57650076Y-82823500D01*
X57650079Y-82823503D01*
X57752804Y-82902327D01*
X57759357Y-82907355D01*
X57766986Y-82910515D01*
X57766991Y-82910518D01*
X57833912Y-82938238D01*
X57889193Y-82982786D01*
X57911613Y-83050150D01*
X57894054Y-83118941D01*
X57874788Y-83143741D01*
X56088934Y-84929595D01*
X56026622Y-84963621D01*
X55999839Y-84966500D01*
X51495053Y-84966500D01*
X51426932Y-84946498D01*
X51380439Y-84892842D01*
X51370335Y-84822568D01*
X51399829Y-84757988D01*
X51423516Y-84736813D01*
X51428276Y-84734147D01*
X51584345Y-84604345D01*
X51645583Y-84530715D01*
X51710453Y-84452718D01*
X51710455Y-84452715D01*
X51714147Y-84448276D01*
X51813334Y-84271165D01*
X51815190Y-84265698D01*
X51815192Y-84265693D01*
X51876728Y-84084414D01*
X51876729Y-84084409D01*
X51878584Y-84078945D01*
X51879412Y-84073236D01*
X51879413Y-84073231D01*
X51907179Y-83881727D01*
X51907712Y-83878053D01*
X51909232Y-83820000D01*
X51890658Y-83617859D01*
X51884484Y-83595968D01*
X51837125Y-83428046D01*
X51837124Y-83428044D01*
X51835557Y-83422487D01*
X51825672Y-83402441D01*
X51748331Y-83245609D01*
X51745776Y-83240428D01*
X51624320Y-83077779D01*
X51475258Y-82939987D01*
X51470375Y-82936906D01*
X51470371Y-82936903D01*
X51308464Y-82834748D01*
X51303581Y-82831667D01*
X51115039Y-82756446D01*
X51109379Y-82755320D01*
X51109375Y-82755319D01*
X50921613Y-82717971D01*
X50921610Y-82717971D01*
X50915946Y-82716844D01*
X50910171Y-82716768D01*
X50910167Y-82716768D01*
X50808793Y-82715441D01*
X50712971Y-82714187D01*
X50707274Y-82715166D01*
X50707273Y-82715166D01*
X50518607Y-82747585D01*
X50512910Y-82748564D01*
X50322463Y-82818824D01*
X50148010Y-82922612D01*
X50143670Y-82926418D01*
X50143666Y-82926421D01*
X50080332Y-82981964D01*
X49995392Y-83056455D01*
X49869720Y-83215869D01*
X49867031Y-83220980D01*
X49867029Y-83220983D01*
X49842908Y-83266829D01*
X49775203Y-83395515D01*
X49715007Y-83589378D01*
X49691148Y-83790964D01*
X48514500Y-83790964D01*
X48514500Y-81250964D01*
X49691148Y-81250964D01*
X49704424Y-81453522D01*
X49705845Y-81459118D01*
X49705846Y-81459123D01*
X49752971Y-81644674D01*
X49754392Y-81650269D01*
X49756809Y-81655512D01*
X49833241Y-81821306D01*
X49839377Y-81834616D01*
X49956533Y-82000389D01*
X50101938Y-82142035D01*
X50270720Y-82254812D01*
X50276023Y-82257090D01*
X50276026Y-82257092D01*
X50364707Y-82295192D01*
X50457228Y-82334942D01*
X50530244Y-82351464D01*
X50649579Y-82378467D01*
X50649584Y-82378468D01*
X50655216Y-82379742D01*
X50660987Y-82379969D01*
X50660989Y-82379969D01*
X50720756Y-82382317D01*
X50858053Y-82387712D01*
X50958499Y-82373148D01*
X51053231Y-82359413D01*
X51053236Y-82359412D01*
X51058945Y-82358584D01*
X51064409Y-82356729D01*
X51064414Y-82356728D01*
X51245693Y-82295192D01*
X51245698Y-82295190D01*
X51251165Y-82293334D01*
X51263490Y-82286432D01*
X51325683Y-82251602D01*
X51428276Y-82194147D01*
X51487451Y-82144932D01*
X51579913Y-82068031D01*
X51584345Y-82064345D01*
X51641768Y-81995302D01*
X51710453Y-81912718D01*
X51710455Y-81912715D01*
X51714147Y-81908276D01*
X51735157Y-81870760D01*
X51785891Y-81821101D01*
X51855422Y-81806753D01*
X51921673Y-81832275D01*
X51934184Y-81843234D01*
X52710485Y-82619535D01*
X52710489Y-82619538D01*
X52733277Y-82642326D01*
X52751200Y-82651458D01*
X52753160Y-82652457D01*
X52770017Y-82662787D01*
X52788071Y-82675904D01*
X52797501Y-82678968D01*
X52797503Y-82678969D01*
X52809295Y-82682801D01*
X52827557Y-82690365D01*
X52838606Y-82695995D01*
X52838610Y-82695996D01*
X52847445Y-82700498D01*
X52857243Y-82702050D01*
X52857244Y-82702050D01*
X52863363Y-82703019D01*
X52869483Y-82703988D01*
X52888714Y-82708605D01*
X52909934Y-82715500D01*
X55451305Y-82715500D01*
X55460737Y-82712435D01*
X55460739Y-82712435D01*
X55472526Y-82708605D01*
X55491752Y-82703989D01*
X55504001Y-82702049D01*
X55513794Y-82700498D01*
X55533678Y-82690366D01*
X55551944Y-82682801D01*
X55563735Y-82678970D01*
X55573168Y-82675905D01*
X55591228Y-82662784D01*
X55608085Y-82652454D01*
X55627962Y-82642326D01*
X55650750Y-82619538D01*
X55650754Y-82619535D01*
X56802883Y-81467405D01*
X56865195Y-81433380D01*
X56891978Y-81430500D01*
X59440021Y-81430500D01*
X59508142Y-81450502D01*
X59529116Y-81467405D01*
X61301246Y-83239535D01*
X61301250Y-83239538D01*
X61324038Y-83262326D01*
X61343915Y-83272454D01*
X61360772Y-83282784D01*
X61378832Y-83295905D01*
X61388265Y-83298970D01*
X61400056Y-83302801D01*
X61418322Y-83310366D01*
X61438206Y-83320498D01*
X61447999Y-83322049D01*
X61460248Y-83323989D01*
X61479474Y-83328605D01*
X61491261Y-83332435D01*
X61491263Y-83332435D01*
X61500695Y-83335500D01*
X68124335Y-83335500D01*
X68192456Y-83355502D01*
X68238949Y-83409158D01*
X68249053Y-83479432D01*
X68229677Y-83525429D01*
X68231801Y-83526655D01*
X68227671Y-83533808D01*
X68222645Y-83540358D01*
X68166772Y-83675246D01*
X68147715Y-83820000D01*
X68166772Y-83964754D01*
X68222645Y-84099642D01*
X68227672Y-84106193D01*
X68296209Y-84195512D01*
X68311526Y-84215474D01*
X68318076Y-84220500D01*
X68318079Y-84220503D01*
X68376972Y-84265693D01*
X68427357Y-84304355D01*
X68562246Y-84360228D01*
X68707000Y-84379285D01*
X68715188Y-84378207D01*
X68843566Y-84361306D01*
X68851754Y-84360228D01*
X68986643Y-84304355D01*
X69037028Y-84265693D01*
X69095921Y-84220503D01*
X69095924Y-84220500D01*
X69102474Y-84215474D01*
X69117792Y-84195512D01*
X69186328Y-84106193D01*
X69191355Y-84099642D01*
X69247228Y-83964754D01*
X69266285Y-83820000D01*
X69262462Y-83790964D01*
X77631148Y-83790964D01*
X77644424Y-83993522D01*
X77645845Y-83999118D01*
X77645846Y-83999123D01*
X77666119Y-84078945D01*
X77694392Y-84190269D01*
X77696809Y-84195512D01*
X77734010Y-84276208D01*
X77779377Y-84374616D01*
X77896533Y-84540389D01*
X78041938Y-84682035D01*
X78210720Y-84794812D01*
X78216023Y-84797090D01*
X78216026Y-84797092D01*
X78391921Y-84872662D01*
X78397228Y-84874942D01*
X78470244Y-84891464D01*
X78589579Y-84918467D01*
X78589584Y-84918468D01*
X78595216Y-84919742D01*
X78600987Y-84919969D01*
X78600989Y-84919969D01*
X78659757Y-84922278D01*
X78798053Y-84927712D01*
X78898499Y-84913148D01*
X78993231Y-84899413D01*
X78993236Y-84899412D01*
X78998945Y-84898584D01*
X79004409Y-84896729D01*
X79004414Y-84896728D01*
X79185693Y-84835192D01*
X79185698Y-84835190D01*
X79191165Y-84833334D01*
X79368276Y-84734147D01*
X79421955Y-84689503D01*
X79519913Y-84608031D01*
X79524345Y-84604345D01*
X79585583Y-84530715D01*
X79650453Y-84452718D01*
X79650455Y-84452715D01*
X79654147Y-84448276D01*
X79753334Y-84271165D01*
X79755190Y-84265698D01*
X79755192Y-84265693D01*
X79816728Y-84084414D01*
X79816729Y-84084409D01*
X79818584Y-84078945D01*
X79819412Y-84073236D01*
X79819413Y-84073231D01*
X79847179Y-83881727D01*
X79847712Y-83878053D01*
X79849232Y-83820000D01*
X79830658Y-83617859D01*
X79824484Y-83595968D01*
X79777125Y-83428046D01*
X79777124Y-83428044D01*
X79775557Y-83422487D01*
X79765672Y-83402441D01*
X79688331Y-83245609D01*
X79685776Y-83240428D01*
X79564320Y-83077779D01*
X79415258Y-82939987D01*
X79410375Y-82936906D01*
X79410371Y-82936903D01*
X79248464Y-82834748D01*
X79243581Y-82831667D01*
X79055039Y-82756446D01*
X79049379Y-82755320D01*
X79049375Y-82755319D01*
X78861613Y-82717971D01*
X78861610Y-82717971D01*
X78855946Y-82716844D01*
X78850171Y-82716768D01*
X78850167Y-82716768D01*
X78748793Y-82715441D01*
X78652971Y-82714187D01*
X78647274Y-82715166D01*
X78647273Y-82715166D01*
X78458607Y-82747585D01*
X78452910Y-82748564D01*
X78262463Y-82818824D01*
X78088010Y-82922612D01*
X78083670Y-82926418D01*
X78083666Y-82926421D01*
X78020332Y-82981964D01*
X77935392Y-83056455D01*
X77809720Y-83215869D01*
X77807031Y-83220980D01*
X77807029Y-83220983D01*
X77782908Y-83266829D01*
X77715203Y-83395515D01*
X77655007Y-83589378D01*
X77631148Y-83790964D01*
X69262462Y-83790964D01*
X69247228Y-83675246D01*
X69191355Y-83540358D01*
X69186329Y-83533808D01*
X69182199Y-83526655D01*
X69184684Y-83525220D01*
X69164102Y-83471990D01*
X69178364Y-83402441D01*
X69227962Y-83351642D01*
X69289665Y-83335500D01*
X77153066Y-83335500D01*
X77162498Y-83332435D01*
X77162500Y-83332435D01*
X77174287Y-83328605D01*
X77193513Y-83323989D01*
X77205762Y-83322049D01*
X77215555Y-83320498D01*
X77235439Y-83310366D01*
X77253705Y-83302801D01*
X77265496Y-83298970D01*
X77274929Y-83295905D01*
X77292989Y-83282784D01*
X77309846Y-83272454D01*
X77329723Y-83262326D01*
X77352507Y-83239542D01*
X77352516Y-83239534D01*
X77780127Y-82811923D01*
X78238837Y-82353212D01*
X78301150Y-82319187D01*
X78377672Y-82326540D01*
X78391925Y-82332664D01*
X78391928Y-82332665D01*
X78397228Y-82334942D01*
X78402857Y-82336216D01*
X78402858Y-82336216D01*
X78589579Y-82378467D01*
X78589584Y-82378468D01*
X78595216Y-82379742D01*
X78600987Y-82379969D01*
X78600989Y-82379969D01*
X78660756Y-82382317D01*
X78798053Y-82387712D01*
X78898499Y-82373148D01*
X78993231Y-82359413D01*
X78993236Y-82359412D01*
X78998945Y-82358584D01*
X79004409Y-82356729D01*
X79004414Y-82356728D01*
X79185693Y-82295192D01*
X79185698Y-82295190D01*
X79191165Y-82293334D01*
X79203490Y-82286432D01*
X79265683Y-82251602D01*
X79368276Y-82194147D01*
X79427451Y-82144932D01*
X79519913Y-82068031D01*
X79524345Y-82064345D01*
X79581768Y-81995302D01*
X79650453Y-81912718D01*
X79650455Y-81912715D01*
X79654147Y-81908276D01*
X79753334Y-81731165D01*
X79755190Y-81725698D01*
X79755192Y-81725693D01*
X79816728Y-81544414D01*
X79816729Y-81544409D01*
X79818584Y-81538945D01*
X79819412Y-81533236D01*
X79819413Y-81533231D01*
X79840327Y-81388986D01*
X79847712Y-81338053D01*
X79849232Y-81280000D01*
X79835230Y-81127620D01*
X79831187Y-81083613D01*
X79831186Y-81083610D01*
X79830658Y-81077859D01*
X79829090Y-81072299D01*
X79777125Y-80888046D01*
X79777124Y-80888044D01*
X79775557Y-80882487D01*
X79772112Y-80875500D01*
X79688331Y-80705609D01*
X79688330Y-80705608D01*
X79685776Y-80700428D01*
X79564320Y-80537779D01*
X79415258Y-80399987D01*
X79410375Y-80396906D01*
X79410371Y-80396903D01*
X79248464Y-80294748D01*
X79243581Y-80291667D01*
X79055039Y-80216446D01*
X79049379Y-80215320D01*
X79049375Y-80215319D01*
X78861613Y-80177971D01*
X78861610Y-80177971D01*
X78855946Y-80176844D01*
X78850171Y-80176768D01*
X78850167Y-80176768D01*
X78748793Y-80175441D01*
X78652971Y-80174187D01*
X78647274Y-80175166D01*
X78647273Y-80175166D01*
X78458607Y-80207585D01*
X78452910Y-80208564D01*
X78262463Y-80278824D01*
X78088010Y-80382612D01*
X78083670Y-80386418D01*
X78083666Y-80386421D01*
X78049505Y-80416380D01*
X77935392Y-80516455D01*
X77809720Y-80675869D01*
X77807031Y-80680980D01*
X77807029Y-80680983D01*
X77787835Y-80717465D01*
X77715203Y-80855515D01*
X77655007Y-81049378D01*
X77631148Y-81250964D01*
X77644424Y-81453522D01*
X77645845Y-81459118D01*
X77645846Y-81459123D01*
X77651683Y-81482104D01*
X77694392Y-81650269D01*
X77695342Y-81652330D01*
X77699164Y-81722084D01*
X77665602Y-81782349D01*
X77311204Y-82136746D01*
X76958354Y-82489596D01*
X76896042Y-82523621D01*
X76869259Y-82526500D01*
X64463941Y-82526500D01*
X64395820Y-82506498D01*
X64349327Y-82452842D01*
X64339019Y-82384054D01*
X64351442Y-82289689D01*
X64351442Y-82289688D01*
X64352520Y-82281500D01*
X64349307Y-82257092D01*
X64334541Y-82144932D01*
X64334540Y-82144930D01*
X64333463Y-82136746D01*
X64303473Y-82064345D01*
X64280750Y-82009486D01*
X64280749Y-82009484D01*
X64277590Y-82001858D01*
X64189613Y-81887204D01*
X64164013Y-81820984D01*
X64178278Y-81751435D01*
X64227879Y-81700639D01*
X64289576Y-81684500D01*
X64724518Y-81684500D01*
X64792639Y-81704502D01*
X64801222Y-81710538D01*
X64854520Y-81751435D01*
X64871357Y-81764355D01*
X65006246Y-81820228D01*
X65151000Y-81839285D01*
X65159188Y-81838207D01*
X65287566Y-81821306D01*
X65295754Y-81820228D01*
X65430643Y-81764355D01*
X65447481Y-81751435D01*
X65539921Y-81680503D01*
X65539924Y-81680500D01*
X65546474Y-81675474D01*
X65561792Y-81655512D01*
X65630328Y-81566193D01*
X65635355Y-81559642D01*
X65653331Y-81516246D01*
X65680563Y-81450502D01*
X65691228Y-81424754D01*
X65710285Y-81280000D01*
X65691228Y-81135246D01*
X65653375Y-81043861D01*
X65638515Y-81007986D01*
X65638514Y-81007984D01*
X65635355Y-81000358D01*
X65574404Y-80920925D01*
X65551501Y-80891077D01*
X65551500Y-80891076D01*
X65546474Y-80884526D01*
X65539924Y-80879500D01*
X65539921Y-80879497D01*
X65437196Y-80800673D01*
X65437194Y-80800672D01*
X65430643Y-80795645D01*
X65313779Y-80747238D01*
X65303383Y-80742932D01*
X65295754Y-80739772D01*
X65151000Y-80720715D01*
X65127255Y-80723841D01*
X65014432Y-80738694D01*
X65014430Y-80738695D01*
X65006246Y-80739772D01*
X64871358Y-80795645D01*
X64801220Y-80849464D01*
X64735001Y-80875063D01*
X64724518Y-80875500D01*
X64275349Y-80875500D01*
X64207228Y-80855498D01*
X64160735Y-80801842D01*
X64150631Y-80731568D01*
X64180125Y-80666988D01*
X64183147Y-80663742D01*
X64188709Y-80659474D01*
X64277590Y-80543642D01*
X64286973Y-80520991D01*
X64328940Y-80419673D01*
X64333463Y-80408754D01*
X64352520Y-80264000D01*
X64335793Y-80136945D01*
X64346732Y-80066798D01*
X64393860Y-80013699D01*
X64460715Y-79994500D01*
X70527518Y-79994500D01*
X70595639Y-80014502D01*
X70604222Y-80020538D01*
X70664509Y-80066798D01*
X70674357Y-80074355D01*
X70809246Y-80130228D01*
X70954000Y-80149285D01*
X70962188Y-80148207D01*
X71090566Y-80131306D01*
X71098754Y-80130228D01*
X71233643Y-80074355D01*
X71243492Y-80066798D01*
X71303778Y-80020538D01*
X71369998Y-79994937D01*
X71380482Y-79994500D01*
X77954066Y-79994500D01*
X77963498Y-79991435D01*
X77963500Y-79991435D01*
X77975287Y-79987605D01*
X77994513Y-79982989D01*
X78006762Y-79981049D01*
X78016555Y-79979498D01*
X78036439Y-79969366D01*
X78054705Y-79961801D01*
X78066496Y-79957970D01*
X78075929Y-79954905D01*
X78093989Y-79941784D01*
X78110846Y-79931454D01*
X78130723Y-79921326D01*
X78153511Y-79898538D01*
X78153515Y-79898535D01*
X78238838Y-79813212D01*
X78301150Y-79779186D01*
X78377674Y-79786541D01*
X78391916Y-79792660D01*
X78391918Y-79792661D01*
X78397228Y-79794942D01*
X78469259Y-79811241D01*
X78589579Y-79838467D01*
X78589584Y-79838468D01*
X78595216Y-79839742D01*
X78600987Y-79839969D01*
X78600989Y-79839969D01*
X78660756Y-79842317D01*
X78798053Y-79847712D01*
X78898499Y-79833148D01*
X78993231Y-79819413D01*
X78993236Y-79819412D01*
X78998945Y-79818584D01*
X79004409Y-79816729D01*
X79004414Y-79816728D01*
X79185693Y-79755192D01*
X79185698Y-79755190D01*
X79191165Y-79753334D01*
X79368276Y-79654147D01*
X79430934Y-79602035D01*
X79519913Y-79528031D01*
X79524345Y-79524345D01*
X79654147Y-79368276D01*
X79753334Y-79191165D01*
X79755190Y-79185698D01*
X79755192Y-79185693D01*
X79816728Y-79004414D01*
X79816729Y-79004409D01*
X79818584Y-78998945D01*
X79819412Y-78993236D01*
X79819413Y-78993231D01*
X79847179Y-78801727D01*
X79847712Y-78798053D01*
X79849232Y-78740000D01*
X79830658Y-78537859D01*
X79829090Y-78532299D01*
X79777125Y-78348046D01*
X79777124Y-78348044D01*
X79775557Y-78342487D01*
X79769366Y-78329931D01*
X79688331Y-78165609D01*
X79685776Y-78160428D01*
X79564320Y-77997779D01*
X79415258Y-77859987D01*
X79410375Y-77856906D01*
X79410371Y-77856903D01*
X79248464Y-77754748D01*
X79243581Y-77751667D01*
X79055039Y-77676446D01*
X79049379Y-77675320D01*
X79049375Y-77675319D01*
X78861613Y-77637971D01*
X78861610Y-77637971D01*
X78855946Y-77636844D01*
X78850171Y-77636768D01*
X78850167Y-77636768D01*
X78748793Y-77635441D01*
X78652971Y-77634187D01*
X78647274Y-77635166D01*
X78647273Y-77635166D01*
X78458607Y-77667585D01*
X78452910Y-77668564D01*
X78262463Y-77738824D01*
X78088010Y-77842612D01*
X78083670Y-77846418D01*
X78083666Y-77846421D01*
X78049206Y-77876642D01*
X77935392Y-77976455D01*
X77809720Y-78135869D01*
X77807031Y-78140980D01*
X77807029Y-78140983D01*
X77794073Y-78165609D01*
X77715203Y-78315515D01*
X77655007Y-78509378D01*
X77631148Y-78710964D01*
X77644424Y-78913522D01*
X77645845Y-78919118D01*
X77645846Y-78919123D01*
X77673621Y-79028484D01*
X77671003Y-79099433D01*
X77630443Y-79157703D01*
X77564818Y-79184794D01*
X77551498Y-79185500D01*
X71380482Y-79185500D01*
X71312361Y-79165498D01*
X71303778Y-79159462D01*
X71240196Y-79110673D01*
X71240194Y-79110672D01*
X71233643Y-79105645D01*
X71098754Y-79049772D01*
X70954000Y-79030715D01*
X70945812Y-79031793D01*
X70817432Y-79048694D01*
X70817430Y-79048695D01*
X70809246Y-79049772D01*
X70674358Y-79105645D01*
X70604220Y-79159464D01*
X70538001Y-79185063D01*
X70527518Y-79185500D01*
X59330764Y-79185500D01*
X59262643Y-79165498D01*
X59216150Y-79111842D01*
X59206046Y-79041568D01*
X59209057Y-79026892D01*
X59211070Y-79019377D01*
X59214228Y-79011754D01*
X59233285Y-78867000D01*
X59217053Y-78743704D01*
X59215306Y-78730432D01*
X59215305Y-78730430D01*
X59214228Y-78722246D01*
X59158355Y-78587358D01*
X59069474Y-78471526D01*
X59062924Y-78466500D01*
X59062921Y-78466497D01*
X58960196Y-78387673D01*
X58960194Y-78387672D01*
X58953643Y-78382645D01*
X58818754Y-78326772D01*
X58775162Y-78321033D01*
X58733248Y-78315515D01*
X58674000Y-78307715D01*
X58665812Y-78308793D01*
X58537432Y-78325694D01*
X58537430Y-78325695D01*
X58529246Y-78326772D01*
X58503813Y-78337307D01*
X58401986Y-78379485D01*
X58401984Y-78379486D01*
X58394358Y-78382645D01*
X58278526Y-78471526D01*
X58189645Y-78587358D01*
X58133772Y-78722246D01*
X58132695Y-78730430D01*
X58132694Y-78730432D01*
X58130947Y-78743704D01*
X58114715Y-78867000D01*
X58133772Y-79011754D01*
X58136930Y-79019377D01*
X58138943Y-79026892D01*
X58137252Y-79097868D01*
X58097457Y-79156663D01*
X58032192Y-79184609D01*
X58017236Y-79185500D01*
X51991090Y-79185500D01*
X51922969Y-79165498D01*
X51876476Y-79111842D01*
X51866372Y-79041568D01*
X51871776Y-79019001D01*
X51874236Y-79011754D01*
X51878584Y-78998945D01*
X51879412Y-78993236D01*
X51879413Y-78993231D01*
X51907179Y-78801727D01*
X51907712Y-78798053D01*
X51909232Y-78740000D01*
X51890658Y-78537859D01*
X51889090Y-78532299D01*
X51837125Y-78348046D01*
X51837124Y-78348044D01*
X51835557Y-78342487D01*
X51829366Y-78329931D01*
X51748331Y-78165609D01*
X51745776Y-78160428D01*
X51624320Y-77997779D01*
X51475258Y-77859987D01*
X51470375Y-77856906D01*
X51470371Y-77856903D01*
X51418817Y-77824375D01*
X54309152Y-77824375D01*
X54328209Y-77969129D01*
X54384082Y-78104017D01*
X54472963Y-78219849D01*
X54479513Y-78224875D01*
X54479516Y-78224878D01*
X54582241Y-78303702D01*
X54588794Y-78308730D01*
X54723683Y-78364603D01*
X54868437Y-78383660D01*
X54876625Y-78382582D01*
X54900150Y-78379485D01*
X55013191Y-78364603D01*
X55148080Y-78308730D01*
X55154633Y-78303702D01*
X55257358Y-78224878D01*
X55257361Y-78224875D01*
X55263911Y-78219849D01*
X55352792Y-78104017D01*
X55408665Y-77969129D01*
X55427722Y-77824375D01*
X55408665Y-77679621D01*
X55352792Y-77544733D01*
X55295447Y-77470000D01*
X66750715Y-77470000D01*
X66751793Y-77478188D01*
X66768513Y-77605188D01*
X66769772Y-77614754D01*
X66777853Y-77634263D01*
X66822387Y-77741776D01*
X66825645Y-77749642D01*
X66830672Y-77756193D01*
X66889273Y-77832563D01*
X66914526Y-77865474D01*
X66921076Y-77870500D01*
X66921079Y-77870503D01*
X67023804Y-77949327D01*
X67030357Y-77954355D01*
X67165246Y-78010228D01*
X67310000Y-78029285D01*
X67318188Y-78028207D01*
X67446566Y-78011306D01*
X67454754Y-78010228D01*
X67589643Y-77954355D01*
X67596196Y-77949327D01*
X67698921Y-77870503D01*
X67698924Y-77870500D01*
X67705474Y-77865474D01*
X67730728Y-77832563D01*
X67789328Y-77756193D01*
X67794355Y-77749642D01*
X67797614Y-77741776D01*
X67842147Y-77634263D01*
X67850228Y-77614754D01*
X67851488Y-77605188D01*
X67852566Y-77597000D01*
X75132715Y-77597000D01*
X75133793Y-77605188D01*
X75142008Y-77667585D01*
X75151772Y-77741754D01*
X75155878Y-77751667D01*
X75202372Y-77863911D01*
X75207645Y-77876642D01*
X75296526Y-77992474D01*
X75303076Y-77997500D01*
X75303079Y-77997503D01*
X75405804Y-78076327D01*
X75412357Y-78081355D01*
X75547246Y-78137228D01*
X75692000Y-78156285D01*
X75700188Y-78155207D01*
X75828566Y-78138306D01*
X75836754Y-78137228D01*
X75971643Y-78081355D01*
X75978196Y-78076327D01*
X76080921Y-77997503D01*
X76080924Y-77997500D01*
X76087474Y-77992474D01*
X76176355Y-77876642D01*
X76181629Y-77863911D01*
X76228122Y-77751667D01*
X76232228Y-77741754D01*
X76241993Y-77667585D01*
X76250207Y-77605188D01*
X76251285Y-77597000D01*
X76243542Y-77538182D01*
X76233306Y-77460432D01*
X76233305Y-77460430D01*
X76232228Y-77452246D01*
X76187825Y-77345048D01*
X76179515Y-77324986D01*
X76179514Y-77324984D01*
X76176355Y-77317358D01*
X76087474Y-77201526D01*
X76080924Y-77196500D01*
X76080921Y-77196497D01*
X75978196Y-77117673D01*
X75978194Y-77117672D01*
X75971643Y-77112645D01*
X75836754Y-77056772D01*
X75692000Y-77037715D01*
X75683812Y-77038793D01*
X75555432Y-77055694D01*
X75555430Y-77055695D01*
X75547246Y-77056772D01*
X75499430Y-77076578D01*
X75419986Y-77109485D01*
X75419984Y-77109486D01*
X75412358Y-77112645D01*
X75296526Y-77201526D01*
X75207645Y-77317358D01*
X75204486Y-77324984D01*
X75204485Y-77324986D01*
X75196175Y-77345048D01*
X75151772Y-77452246D01*
X75150695Y-77460430D01*
X75150694Y-77460432D01*
X75140458Y-77538182D01*
X75132715Y-77597000D01*
X67852566Y-77597000D01*
X67868207Y-77478188D01*
X67869285Y-77470000D01*
X67850228Y-77325246D01*
X67821107Y-77254942D01*
X67797515Y-77197986D01*
X67797514Y-77197984D01*
X67794355Y-77190358D01*
X67705474Y-77074526D01*
X67698924Y-77069500D01*
X67698921Y-77069497D01*
X67596196Y-76990673D01*
X67596194Y-76990672D01*
X67589643Y-76985645D01*
X67454754Y-76929772D01*
X67414132Y-76924424D01*
X67318188Y-76911793D01*
X67310000Y-76910715D01*
X67301812Y-76911793D01*
X67173432Y-76928694D01*
X67173430Y-76928695D01*
X67165246Y-76929772D01*
X67117430Y-76949578D01*
X67037986Y-76982485D01*
X67037984Y-76982486D01*
X67030358Y-76985645D01*
X66962499Y-77037715D01*
X66936061Y-77058002D01*
X66914526Y-77074526D01*
X66825645Y-77190358D01*
X66822486Y-77197984D01*
X66822485Y-77197986D01*
X66798893Y-77254942D01*
X66769772Y-77325246D01*
X66750715Y-77470000D01*
X55295447Y-77470000D01*
X55268938Y-77435452D01*
X55268937Y-77435451D01*
X55263911Y-77428901D01*
X55257361Y-77423875D01*
X55257358Y-77423872D01*
X55154633Y-77345048D01*
X55154631Y-77345047D01*
X55148080Y-77340020D01*
X55013191Y-77284147D01*
X54956838Y-77276728D01*
X54876625Y-77266168D01*
X54868437Y-77265090D01*
X54860249Y-77266168D01*
X54731869Y-77283069D01*
X54731867Y-77283070D01*
X54723683Y-77284147D01*
X54689112Y-77298467D01*
X54596423Y-77336860D01*
X54596421Y-77336861D01*
X54588795Y-77340020D01*
X54472963Y-77428901D01*
X54384082Y-77544733D01*
X54328209Y-77679621D01*
X54309152Y-77824375D01*
X51418817Y-77824375D01*
X51308464Y-77754748D01*
X51303581Y-77751667D01*
X51115039Y-77676446D01*
X51109379Y-77675320D01*
X51109375Y-77675319D01*
X50921613Y-77637971D01*
X50921610Y-77637971D01*
X50915946Y-77636844D01*
X50910171Y-77636768D01*
X50910167Y-77636768D01*
X50808793Y-77635441D01*
X50712971Y-77634187D01*
X50707274Y-77635166D01*
X50707273Y-77635166D01*
X50518607Y-77667585D01*
X50512910Y-77668564D01*
X50322463Y-77738824D01*
X50148010Y-77842612D01*
X50143670Y-77846418D01*
X50143666Y-77846421D01*
X50109206Y-77876642D01*
X49995392Y-77976455D01*
X49869720Y-78135869D01*
X49867031Y-78140980D01*
X49867029Y-78140983D01*
X49854073Y-78165609D01*
X49775203Y-78315515D01*
X49715007Y-78509378D01*
X49691148Y-78710964D01*
X49704424Y-78913522D01*
X49705845Y-78919118D01*
X49705846Y-78919123D01*
X49751640Y-79099433D01*
X49754392Y-79110269D01*
X49756809Y-79115512D01*
X49794010Y-79196208D01*
X49839377Y-79294616D01*
X49956533Y-79460389D01*
X50101938Y-79602035D01*
X50270720Y-79714812D01*
X50276023Y-79717090D01*
X50276026Y-79717092D01*
X50437674Y-79786541D01*
X50457228Y-79794942D01*
X50529259Y-79811241D01*
X50649579Y-79838467D01*
X50649584Y-79838468D01*
X50655216Y-79839742D01*
X50660987Y-79839969D01*
X50660989Y-79839969D01*
X50720756Y-79842317D01*
X50858053Y-79847712D01*
X50958499Y-79833148D01*
X51053231Y-79819413D01*
X51053236Y-79819412D01*
X51058945Y-79818584D01*
X51064409Y-79816729D01*
X51064414Y-79816728D01*
X51169596Y-79781023D01*
X51240531Y-79778067D01*
X51299192Y-79811241D01*
X51409277Y-79921326D01*
X51429158Y-79931456D01*
X51446017Y-79941787D01*
X51456050Y-79949077D01*
X51456052Y-79949078D01*
X51464072Y-79954905D01*
X51473501Y-79957969D01*
X51473506Y-79957971D01*
X51485300Y-79961803D01*
X51503568Y-79969370D01*
X51514607Y-79974995D01*
X51514609Y-79974996D01*
X51523445Y-79979498D01*
X51545313Y-79982961D01*
X51545487Y-79982989D01*
X51564713Y-79987605D01*
X51576500Y-79991435D01*
X51576502Y-79991435D01*
X51585934Y-79994500D01*
X63125755Y-79994500D01*
X63193876Y-80014502D01*
X63240369Y-80068158D01*
X63250677Y-80136945D01*
X63233950Y-80264000D01*
X63253007Y-80408754D01*
X63257530Y-80419673D01*
X63299498Y-80520991D01*
X63308880Y-80543642D01*
X63313906Y-80550193D01*
X63313909Y-80550197D01*
X63334299Y-80576770D01*
X63359899Y-80642990D01*
X63345634Y-80712539D01*
X63296033Y-80763334D01*
X63282554Y-80769882D01*
X63227989Y-80792484D01*
X63220358Y-80795645D01*
X63207869Y-80805228D01*
X63112295Y-80878565D01*
X63104526Y-80884526D01*
X63015645Y-81000358D01*
X63012486Y-81007984D01*
X63012485Y-81007986D01*
X62997625Y-81043861D01*
X62959772Y-81135246D01*
X62940715Y-81280000D01*
X62959772Y-81424754D01*
X62970437Y-81450502D01*
X62997670Y-81516246D01*
X63015645Y-81559642D01*
X63020672Y-81566193D01*
X63089209Y-81655512D01*
X63104526Y-81675474D01*
X63111076Y-81680500D01*
X63111079Y-81680503D01*
X63203519Y-81751435D01*
X63220357Y-81764355D01*
X63274112Y-81786621D01*
X63329392Y-81831170D01*
X63351813Y-81898533D01*
X63334254Y-81967325D01*
X63325856Y-81979733D01*
X63313909Y-81995302D01*
X63313904Y-81995310D01*
X63308880Y-82001858D01*
X63305721Y-82009484D01*
X63305720Y-82009486D01*
X63282997Y-82064345D01*
X63253007Y-82136746D01*
X63251930Y-82144930D01*
X63251929Y-82144932D01*
X63237163Y-82257092D01*
X63233950Y-82281500D01*
X63235028Y-82289688D01*
X63235028Y-82289689D01*
X63247451Y-82384054D01*
X63236511Y-82454203D01*
X63189383Y-82507301D01*
X63122529Y-82526500D01*
X61784501Y-82526500D01*
X61716380Y-82506498D01*
X61695406Y-82489595D01*
X60752619Y-81546808D01*
X60718593Y-81484496D01*
X60723658Y-81413681D01*
X60765009Y-81357752D01*
X60847474Y-81294474D01*
X60873546Y-81260497D01*
X60931328Y-81185193D01*
X60936355Y-81178642D01*
X60954331Y-81135246D01*
X60989069Y-81051380D01*
X60992228Y-81043754D01*
X61011285Y-80899000D01*
X60998340Y-80800672D01*
X60993306Y-80762432D01*
X60993305Y-80762430D01*
X60992228Y-80754246D01*
X60950258Y-80652922D01*
X60939515Y-80626986D01*
X60939514Y-80626984D01*
X60936355Y-80619358D01*
X60870746Y-80533855D01*
X60852501Y-80510077D01*
X60852500Y-80510076D01*
X60847474Y-80503526D01*
X60840924Y-80498500D01*
X60840921Y-80498497D01*
X60738196Y-80419673D01*
X60738194Y-80419672D01*
X60731643Y-80414645D01*
X60596754Y-80358772D01*
X60452000Y-80339715D01*
X60443812Y-80340793D01*
X60315432Y-80357694D01*
X60315430Y-80357695D01*
X60307246Y-80358772D01*
X60259430Y-80378578D01*
X60179986Y-80411485D01*
X60179984Y-80411486D01*
X60172358Y-80414645D01*
X60056526Y-80503526D01*
X60051503Y-80510072D01*
X60051499Y-80510076D01*
X59971880Y-80613837D01*
X59914542Y-80655704D01*
X59843671Y-80659926D01*
X59832982Y-80656966D01*
X59824466Y-80654199D01*
X59806199Y-80646633D01*
X59799049Y-80642990D01*
X59786316Y-80636502D01*
X59764274Y-80633011D01*
X59745048Y-80628395D01*
X59733261Y-80624565D01*
X59733259Y-80624565D01*
X59723827Y-80621500D01*
X56640405Y-80621500D01*
X56640401Y-80621501D01*
X56608173Y-80621501D01*
X56598736Y-80624567D01*
X56598737Y-80624567D01*
X56586957Y-80628394D01*
X56567732Y-80633010D01*
X56545684Y-80636502D01*
X56525799Y-80646634D01*
X56507535Y-80654199D01*
X56495746Y-80658030D01*
X56495745Y-80658031D01*
X56486310Y-80661096D01*
X56478286Y-80666926D01*
X56478284Y-80666927D01*
X56468262Y-80674209D01*
X56451403Y-80684541D01*
X56431516Y-80694674D01*
X55765809Y-81360381D01*
X55703497Y-81394407D01*
X55632682Y-81389342D01*
X55576752Y-81347990D01*
X55518505Y-81272081D01*
X55518500Y-81272076D01*
X55513474Y-81265526D01*
X55506924Y-81260500D01*
X55506921Y-81260497D01*
X55404196Y-81181673D01*
X55404194Y-81181672D01*
X55397643Y-81176645D01*
X55280779Y-81128238D01*
X55270383Y-81123932D01*
X55262754Y-81120772D01*
X55118000Y-81101715D01*
X55109812Y-81102793D01*
X54981432Y-81119694D01*
X54981430Y-81119695D01*
X54973246Y-81120772D01*
X54956714Y-81127620D01*
X54845986Y-81173485D01*
X54845984Y-81173486D01*
X54838358Y-81176645D01*
X54722526Y-81265526D01*
X54717503Y-81272072D01*
X54705340Y-81287923D01*
X54633645Y-81381358D01*
X54630486Y-81388984D01*
X54630485Y-81388986D01*
X54606142Y-81447755D01*
X54577772Y-81516246D01*
X54576695Y-81524430D01*
X54576694Y-81524432D01*
X54573748Y-81546808D01*
X54558715Y-81661000D01*
X54559793Y-81669188D01*
X54572282Y-81764054D01*
X54561342Y-81834203D01*
X54514214Y-81887301D01*
X54447360Y-81906500D01*
X53193740Y-81906500D01*
X53125619Y-81886498D01*
X53104645Y-81869595D01*
X52206515Y-80971465D01*
X52206511Y-80971462D01*
X52183723Y-80948674D01*
X52163844Y-80938545D01*
X52146989Y-80928216D01*
X52136953Y-80920925D01*
X52128929Y-80915095D01*
X52107704Y-80908199D01*
X52089438Y-80900633D01*
X52086233Y-80899000D01*
X52069555Y-80890502D01*
X52047513Y-80887011D01*
X52028287Y-80882395D01*
X52016500Y-80878565D01*
X52016498Y-80878565D01*
X52007066Y-80875500D01*
X51910463Y-80875500D01*
X51842342Y-80855498D01*
X51797457Y-80805228D01*
X51748331Y-80705608D01*
X51748328Y-80705604D01*
X51745776Y-80700428D01*
X51624320Y-80537779D01*
X51475258Y-80399987D01*
X51470375Y-80396906D01*
X51470371Y-80396903D01*
X51308464Y-80294748D01*
X51303581Y-80291667D01*
X51115039Y-80216446D01*
X51109379Y-80215320D01*
X51109375Y-80215319D01*
X50921613Y-80177971D01*
X50921610Y-80177971D01*
X50915946Y-80176844D01*
X50910171Y-80176768D01*
X50910167Y-80176768D01*
X50808793Y-80175441D01*
X50712971Y-80174187D01*
X50707274Y-80175166D01*
X50707273Y-80175166D01*
X50518607Y-80207585D01*
X50512910Y-80208564D01*
X50322463Y-80278824D01*
X50148010Y-80382612D01*
X50143670Y-80386418D01*
X50143666Y-80386421D01*
X50109505Y-80416380D01*
X49995392Y-80516455D01*
X49869720Y-80675869D01*
X49867031Y-80680980D01*
X49867029Y-80680983D01*
X49847835Y-80717465D01*
X49775203Y-80855515D01*
X49715007Y-81049378D01*
X49691148Y-81250964D01*
X48514500Y-81250964D01*
X48514500Y-76170964D01*
X49691148Y-76170964D01*
X49704424Y-76373522D01*
X49705845Y-76379118D01*
X49705846Y-76379123D01*
X49726119Y-76458945D01*
X49754392Y-76570269D01*
X49756809Y-76575512D01*
X49794010Y-76656208D01*
X49839377Y-76754616D01*
X49956533Y-76920389D01*
X50101938Y-77062035D01*
X50270720Y-77174812D01*
X50276023Y-77177090D01*
X50276026Y-77177092D01*
X50364707Y-77215192D01*
X50457228Y-77254942D01*
X50502076Y-77265090D01*
X50649579Y-77298467D01*
X50649584Y-77298468D01*
X50655216Y-77299742D01*
X50660987Y-77299969D01*
X50660989Y-77299969D01*
X50720756Y-77302317D01*
X50858053Y-77307712D01*
X50958499Y-77293148D01*
X51053231Y-77279413D01*
X51053236Y-77279412D01*
X51058945Y-77278584D01*
X51064409Y-77276729D01*
X51064414Y-77276728D01*
X51245693Y-77215192D01*
X51245698Y-77215190D01*
X51251165Y-77213334D01*
X51428276Y-77114147D01*
X51433882Y-77109485D01*
X51579913Y-76988031D01*
X51584345Y-76984345D01*
X51714147Y-76828276D01*
X51813334Y-76651165D01*
X51815190Y-76645698D01*
X51815192Y-76645693D01*
X51876728Y-76464414D01*
X51876729Y-76464409D01*
X51878584Y-76458945D01*
X51879412Y-76453236D01*
X51879413Y-76453231D01*
X51907179Y-76261727D01*
X51907712Y-76258053D01*
X51909232Y-76200000D01*
X51906564Y-76170964D01*
X77631148Y-76170964D01*
X77644424Y-76373522D01*
X77645845Y-76379118D01*
X77645846Y-76379123D01*
X77666119Y-76458945D01*
X77694392Y-76570269D01*
X77696809Y-76575512D01*
X77734010Y-76656208D01*
X77779377Y-76754616D01*
X77896533Y-76920389D01*
X78041938Y-77062035D01*
X78210720Y-77174812D01*
X78216023Y-77177090D01*
X78216026Y-77177092D01*
X78304707Y-77215192D01*
X78397228Y-77254942D01*
X78442076Y-77265090D01*
X78589579Y-77298467D01*
X78589584Y-77298468D01*
X78595216Y-77299742D01*
X78600987Y-77299969D01*
X78600989Y-77299969D01*
X78660756Y-77302317D01*
X78798053Y-77307712D01*
X78898499Y-77293148D01*
X78993231Y-77279413D01*
X78993236Y-77279412D01*
X78998945Y-77278584D01*
X79004409Y-77276729D01*
X79004414Y-77276728D01*
X79185693Y-77215192D01*
X79185698Y-77215190D01*
X79191165Y-77213334D01*
X79368276Y-77114147D01*
X79373882Y-77109485D01*
X79519913Y-76988031D01*
X79524345Y-76984345D01*
X79654147Y-76828276D01*
X79753334Y-76651165D01*
X79755190Y-76645698D01*
X79755192Y-76645693D01*
X79816728Y-76464414D01*
X79816729Y-76464409D01*
X79818584Y-76458945D01*
X79819412Y-76453236D01*
X79819413Y-76453231D01*
X79847179Y-76261727D01*
X79847712Y-76258053D01*
X79849232Y-76200000D01*
X79830658Y-75997859D01*
X79829090Y-75992299D01*
X79777125Y-75808046D01*
X79777124Y-75808044D01*
X79775557Y-75802487D01*
X79764978Y-75781033D01*
X79688331Y-75625609D01*
X79685776Y-75620428D01*
X79564320Y-75457779D01*
X79415258Y-75319987D01*
X79410375Y-75316906D01*
X79410371Y-75316903D01*
X79248464Y-75214748D01*
X79243581Y-75211667D01*
X79055039Y-75136446D01*
X79049379Y-75135320D01*
X79049375Y-75135319D01*
X78861613Y-75097971D01*
X78861610Y-75097971D01*
X78855946Y-75096844D01*
X78850171Y-75096768D01*
X78850167Y-75096768D01*
X78748793Y-75095441D01*
X78652971Y-75094187D01*
X78647274Y-75095166D01*
X78647273Y-75095166D01*
X78458607Y-75127585D01*
X78452910Y-75128564D01*
X78262463Y-75198824D01*
X78088010Y-75302612D01*
X78083670Y-75306418D01*
X78083666Y-75306421D01*
X78063723Y-75323911D01*
X77935392Y-75436455D01*
X77809720Y-75595869D01*
X77807031Y-75600980D01*
X77807029Y-75600983D01*
X77794073Y-75625609D01*
X77715203Y-75775515D01*
X77655007Y-75969378D01*
X77631148Y-76170964D01*
X51906564Y-76170964D01*
X51890658Y-75997859D01*
X51889090Y-75992299D01*
X51837125Y-75808046D01*
X51837124Y-75808044D01*
X51835557Y-75802487D01*
X51824978Y-75781033D01*
X51748331Y-75625609D01*
X51745776Y-75620428D01*
X51624320Y-75457779D01*
X51602923Y-75438000D01*
X57860715Y-75438000D01*
X57879772Y-75582754D01*
X57935645Y-75717642D01*
X58024526Y-75833474D01*
X58031076Y-75838500D01*
X58031079Y-75838503D01*
X58133804Y-75917327D01*
X58140357Y-75922355D01*
X58275246Y-75978228D01*
X58420000Y-75997285D01*
X58428188Y-75996207D01*
X58556566Y-75979306D01*
X58564754Y-75978228D01*
X58699643Y-75922355D01*
X58706196Y-75917327D01*
X58808921Y-75838503D01*
X58808924Y-75838500D01*
X58815474Y-75833474D01*
X58904355Y-75717642D01*
X58960228Y-75582754D01*
X58979285Y-75438000D01*
X58964265Y-75323911D01*
X58961306Y-75301432D01*
X58961305Y-75301430D01*
X58960228Y-75293246D01*
X58904355Y-75158358D01*
X58815474Y-75042526D01*
X58808924Y-75037500D01*
X58808921Y-75037497D01*
X58706196Y-74958673D01*
X58706194Y-74958672D01*
X58699643Y-74953645D01*
X58564754Y-74897772D01*
X58420000Y-74878715D01*
X58411812Y-74879793D01*
X58283432Y-74896694D01*
X58283430Y-74896695D01*
X58275246Y-74897772D01*
X58227430Y-74917578D01*
X58147986Y-74950485D01*
X58147984Y-74950486D01*
X58140358Y-74953645D01*
X58024526Y-75042526D01*
X57935645Y-75158358D01*
X57879772Y-75293246D01*
X57878695Y-75301430D01*
X57878694Y-75301432D01*
X57875735Y-75323911D01*
X57860715Y-75438000D01*
X51602923Y-75438000D01*
X51475258Y-75319987D01*
X51470375Y-75316906D01*
X51470371Y-75316903D01*
X51308464Y-75214748D01*
X51303581Y-75211667D01*
X51115039Y-75136446D01*
X51109379Y-75135320D01*
X51109375Y-75135319D01*
X50921613Y-75097971D01*
X50921610Y-75097971D01*
X50915946Y-75096844D01*
X50910171Y-75096768D01*
X50910167Y-75096768D01*
X50808793Y-75095441D01*
X50712971Y-75094187D01*
X50707274Y-75095166D01*
X50707273Y-75095166D01*
X50518607Y-75127585D01*
X50512910Y-75128564D01*
X50322463Y-75198824D01*
X50148010Y-75302612D01*
X50143670Y-75306418D01*
X50143666Y-75306421D01*
X50123723Y-75323911D01*
X49995392Y-75436455D01*
X49869720Y-75595869D01*
X49867031Y-75600980D01*
X49867029Y-75600983D01*
X49854073Y-75625609D01*
X49775203Y-75775515D01*
X49715007Y-75969378D01*
X49691148Y-76170964D01*
X48514500Y-76170964D01*
X48514500Y-73630964D01*
X49691148Y-73630964D01*
X49704424Y-73833522D01*
X49705845Y-73839118D01*
X49705846Y-73839123D01*
X49726119Y-73918945D01*
X49754392Y-74030269D01*
X49756809Y-74035512D01*
X49794010Y-74116208D01*
X49839377Y-74214616D01*
X49956533Y-74380389D01*
X50101938Y-74522035D01*
X50270720Y-74634812D01*
X50276023Y-74637090D01*
X50276026Y-74637092D01*
X50364707Y-74675192D01*
X50457228Y-74714942D01*
X50530244Y-74731464D01*
X50649579Y-74758467D01*
X50649584Y-74758468D01*
X50655216Y-74759742D01*
X50660987Y-74759969D01*
X50660989Y-74759969D01*
X50720756Y-74762317D01*
X50858053Y-74767712D01*
X50958499Y-74753148D01*
X51053231Y-74739413D01*
X51053236Y-74739412D01*
X51058945Y-74738584D01*
X51064409Y-74736729D01*
X51064414Y-74736728D01*
X51204919Y-74689032D01*
X51251165Y-74673334D01*
X51375747Y-74603565D01*
X51437313Y-74587500D01*
X72229805Y-74587500D01*
X72239237Y-74584435D01*
X72239239Y-74584435D01*
X72251026Y-74580605D01*
X72270249Y-74575989D01*
X72282489Y-74574051D01*
X72302198Y-74572500D01*
X78079242Y-74572500D01*
X78149244Y-74593735D01*
X78210720Y-74634812D01*
X78216023Y-74637090D01*
X78216026Y-74637092D01*
X78304707Y-74675192D01*
X78397228Y-74714942D01*
X78470244Y-74731464D01*
X78589579Y-74758467D01*
X78589584Y-74758468D01*
X78595216Y-74759742D01*
X78600987Y-74759969D01*
X78600989Y-74759969D01*
X78660756Y-74762317D01*
X78798053Y-74767712D01*
X78898499Y-74753148D01*
X78993231Y-74739413D01*
X78993236Y-74739412D01*
X78998945Y-74738584D01*
X79004409Y-74736729D01*
X79004414Y-74736728D01*
X79185693Y-74675192D01*
X79185698Y-74675190D01*
X79191165Y-74673334D01*
X79368276Y-74574147D01*
X79430934Y-74522035D01*
X79519913Y-74448031D01*
X79524345Y-74444345D01*
X79654147Y-74288276D01*
X79753334Y-74111165D01*
X79755190Y-74105698D01*
X79755192Y-74105693D01*
X79816728Y-73924414D01*
X79816729Y-73924409D01*
X79818584Y-73918945D01*
X79819412Y-73913236D01*
X79819413Y-73913231D01*
X79842581Y-73753442D01*
X79847712Y-73718053D01*
X79849232Y-73660000D01*
X79830658Y-73457859D01*
X79829090Y-73452299D01*
X79777125Y-73268046D01*
X79777124Y-73268044D01*
X79775557Y-73262487D01*
X79771056Y-73253358D01*
X79688331Y-73085609D01*
X79685776Y-73080428D01*
X79676871Y-73068502D01*
X79642968Y-73023101D01*
X79564320Y-72917779D01*
X79415258Y-72779987D01*
X79410375Y-72776906D01*
X79410371Y-72776903D01*
X79248464Y-72674748D01*
X79243581Y-72671667D01*
X79055039Y-72596446D01*
X79049379Y-72595320D01*
X79049375Y-72595319D01*
X78861613Y-72557971D01*
X78861610Y-72557971D01*
X78855946Y-72556844D01*
X78850171Y-72556768D01*
X78850167Y-72556768D01*
X78748793Y-72555441D01*
X78652971Y-72554187D01*
X78647274Y-72555166D01*
X78647273Y-72555166D01*
X78458607Y-72587585D01*
X78452910Y-72588564D01*
X78262463Y-72658824D01*
X78088010Y-72762612D01*
X78083670Y-72766418D01*
X78083666Y-72766421D01*
X78010187Y-72830861D01*
X77935392Y-72896455D01*
X77931817Y-72900990D01*
X77931816Y-72900991D01*
X77921675Y-72913855D01*
X77809720Y-73055869D01*
X77807031Y-73060980D01*
X77807029Y-73060983D01*
X77794073Y-73085609D01*
X77715203Y-73235515D01*
X77655007Y-73429378D01*
X77631148Y-73630964D01*
X77631526Y-73636730D01*
X77631420Y-73640793D01*
X77609645Y-73708367D01*
X77554792Y-73753442D01*
X77505463Y-73763500D01*
X72569115Y-73763500D01*
X72500994Y-73743498D01*
X72454501Y-73689842D01*
X72444193Y-73621054D01*
X72454707Y-73541189D01*
X72454707Y-73541188D01*
X72455785Y-73533000D01*
X72445161Y-73452299D01*
X72437806Y-73396432D01*
X72437805Y-73396430D01*
X72436728Y-73388246D01*
X72386939Y-73268046D01*
X72384015Y-73260986D01*
X72384014Y-73260984D01*
X72380855Y-73253358D01*
X72291974Y-73137526D01*
X72285424Y-73132500D01*
X72285421Y-73132497D01*
X72182696Y-73053673D01*
X72182694Y-73053672D01*
X72176143Y-73048645D01*
X72041254Y-72992772D01*
X71896500Y-72973715D01*
X71895512Y-72973845D01*
X71830620Y-72954791D01*
X71784127Y-72901135D01*
X71774023Y-72830861D01*
X71782332Y-72800575D01*
X71784068Y-72796383D01*
X71784069Y-72796380D01*
X71787228Y-72788754D01*
X71806285Y-72644000D01*
X71800306Y-72598586D01*
X71788306Y-72507432D01*
X71788305Y-72507430D01*
X71787228Y-72499246D01*
X71731355Y-72364358D01*
X71663726Y-72276222D01*
X71647501Y-72255077D01*
X71647500Y-72255076D01*
X71642474Y-72248526D01*
X71635924Y-72243500D01*
X71635921Y-72243497D01*
X71533196Y-72164673D01*
X71533194Y-72164672D01*
X71526643Y-72159645D01*
X71391754Y-72103772D01*
X71247000Y-72084715D01*
X71238812Y-72085793D01*
X71110432Y-72102694D01*
X71110430Y-72102695D01*
X71102246Y-72103772D01*
X70967358Y-72159645D01*
X70897220Y-72213464D01*
X70831001Y-72239063D01*
X70820518Y-72239500D01*
X65958482Y-72239500D01*
X65890361Y-72219498D01*
X65881778Y-72213462D01*
X65818196Y-72164673D01*
X65818194Y-72164672D01*
X65811643Y-72159645D01*
X65676754Y-72103772D01*
X65532000Y-72084715D01*
X65523812Y-72085793D01*
X65395432Y-72102694D01*
X65395430Y-72102695D01*
X65387246Y-72103772D01*
X65339430Y-72123578D01*
X65259986Y-72156485D01*
X65259984Y-72156486D01*
X65252358Y-72159645D01*
X65136526Y-72248526D01*
X65131503Y-72255072D01*
X65131502Y-72255073D01*
X65123962Y-72264899D01*
X65066623Y-72306766D01*
X64995752Y-72310987D01*
X64933850Y-72276222D01*
X64924038Y-72264899D01*
X64916502Y-72255079D01*
X64911474Y-72248526D01*
X64904924Y-72243500D01*
X64904921Y-72243497D01*
X64802196Y-72164673D01*
X64802194Y-72164672D01*
X64795643Y-72159645D01*
X64660754Y-72103772D01*
X64516000Y-72084715D01*
X64507812Y-72085793D01*
X64379432Y-72102694D01*
X64379430Y-72102695D01*
X64371246Y-72103772D01*
X64323430Y-72123578D01*
X64243986Y-72156485D01*
X64243984Y-72156486D01*
X64236358Y-72159645D01*
X64120526Y-72248526D01*
X64031645Y-72364358D01*
X63975772Y-72499246D01*
X63974695Y-72507430D01*
X63974694Y-72507432D01*
X63962694Y-72598586D01*
X63956715Y-72644000D01*
X63975772Y-72788754D01*
X63993213Y-72830861D01*
X64022263Y-72900991D01*
X64031645Y-72923642D01*
X64070067Y-72973715D01*
X64115498Y-73032921D01*
X64120526Y-73039474D01*
X64127076Y-73044500D01*
X64127079Y-73044503D01*
X64229804Y-73123327D01*
X64236357Y-73128355D01*
X64371246Y-73184228D01*
X64516000Y-73203285D01*
X64524188Y-73202207D01*
X64652566Y-73185306D01*
X64660754Y-73184228D01*
X64795643Y-73128355D01*
X64802196Y-73123327D01*
X64904921Y-73044503D01*
X64904924Y-73044500D01*
X64911474Y-73039474D01*
X64919095Y-73029543D01*
X64924038Y-73023101D01*
X64981377Y-72981234D01*
X65052248Y-72977013D01*
X65114150Y-73011778D01*
X65123962Y-73023101D01*
X65128905Y-73029543D01*
X65136526Y-73039474D01*
X65143076Y-73044500D01*
X65143079Y-73044503D01*
X65245804Y-73123327D01*
X65252357Y-73128355D01*
X65387246Y-73184228D01*
X65532000Y-73203285D01*
X65540188Y-73202207D01*
X65668566Y-73185306D01*
X65676754Y-73184228D01*
X65811643Y-73128355D01*
X65881778Y-73074538D01*
X65947998Y-73048937D01*
X65958482Y-73048500D01*
X70820518Y-73048500D01*
X70888639Y-73068502D01*
X70897222Y-73074538D01*
X70967357Y-73128355D01*
X71102246Y-73184228D01*
X71247000Y-73203285D01*
X71247988Y-73203155D01*
X71312880Y-73222209D01*
X71359373Y-73275865D01*
X71369477Y-73346139D01*
X71361168Y-73376425D01*
X71356272Y-73388246D01*
X71355195Y-73396430D01*
X71355194Y-73396432D01*
X71347839Y-73452299D01*
X71337215Y-73533000D01*
X71338293Y-73541188D01*
X71350782Y-73636054D01*
X71339842Y-73706203D01*
X71292714Y-73759301D01*
X71225860Y-73778500D01*
X52034835Y-73778500D01*
X51966714Y-73758498D01*
X51920221Y-73704842D01*
X51909685Y-73659958D01*
X51909232Y-73660000D01*
X51908934Y-73656759D01*
X51890658Y-73457859D01*
X51889090Y-73452299D01*
X51837125Y-73268046D01*
X51837124Y-73268044D01*
X51835557Y-73262487D01*
X51831056Y-73253358D01*
X51748331Y-73085609D01*
X51745776Y-73080428D01*
X51736871Y-73068502D01*
X51702968Y-73023101D01*
X51624320Y-72917779D01*
X51475258Y-72779987D01*
X51470375Y-72776906D01*
X51470371Y-72776903D01*
X51308464Y-72674748D01*
X51303581Y-72671667D01*
X51115039Y-72596446D01*
X51109379Y-72595320D01*
X51109375Y-72595319D01*
X50921613Y-72557971D01*
X50921610Y-72557971D01*
X50915946Y-72556844D01*
X50910171Y-72556768D01*
X50910167Y-72556768D01*
X50808793Y-72555441D01*
X50712971Y-72554187D01*
X50707274Y-72555166D01*
X50707273Y-72555166D01*
X50518607Y-72587585D01*
X50512910Y-72588564D01*
X50322463Y-72658824D01*
X50148010Y-72762612D01*
X50143670Y-72766418D01*
X50143666Y-72766421D01*
X50070187Y-72830861D01*
X49995392Y-72896455D01*
X49991817Y-72900990D01*
X49991816Y-72900991D01*
X49981675Y-72913855D01*
X49869720Y-73055869D01*
X49867031Y-73060980D01*
X49867029Y-73060983D01*
X49854073Y-73085609D01*
X49775203Y-73235515D01*
X49715007Y-73429378D01*
X49691148Y-73630964D01*
X48514500Y-73630964D01*
X48514500Y-71090964D01*
X49691148Y-71090964D01*
X49704424Y-71293522D01*
X49705845Y-71299118D01*
X49705846Y-71299123D01*
X49726119Y-71378945D01*
X49754392Y-71490269D01*
X49756809Y-71495512D01*
X49794010Y-71576208D01*
X49839377Y-71674616D01*
X49956533Y-71840389D01*
X50101938Y-71982035D01*
X50270720Y-72094812D01*
X50276023Y-72097090D01*
X50276026Y-72097092D01*
X50433324Y-72164672D01*
X50457228Y-72174942D01*
X50530244Y-72191464D01*
X50649579Y-72218467D01*
X50649584Y-72218468D01*
X50655216Y-72219742D01*
X50660987Y-72219969D01*
X50660989Y-72219969D01*
X50720756Y-72222317D01*
X50858053Y-72227712D01*
X50958499Y-72213148D01*
X51053231Y-72199413D01*
X51053236Y-72199412D01*
X51058945Y-72198584D01*
X51064409Y-72196729D01*
X51064414Y-72196728D01*
X51245693Y-72135192D01*
X51245698Y-72135190D01*
X51251165Y-72133334D01*
X51428276Y-72034147D01*
X51490934Y-71982035D01*
X51579913Y-71908031D01*
X51584345Y-71904345D01*
X51714147Y-71748276D01*
X51803383Y-71588934D01*
X51854120Y-71539272D01*
X51913317Y-71524500D01*
X77629515Y-71524500D01*
X77697636Y-71544502D01*
X77743941Y-71597749D01*
X77779377Y-71674616D01*
X77896533Y-71840389D01*
X78041938Y-71982035D01*
X78210720Y-72094812D01*
X78216023Y-72097090D01*
X78216026Y-72097092D01*
X78373324Y-72164672D01*
X78397228Y-72174942D01*
X78470244Y-72191464D01*
X78589579Y-72218467D01*
X78589584Y-72218468D01*
X78595216Y-72219742D01*
X78600987Y-72219969D01*
X78600989Y-72219969D01*
X78660756Y-72222317D01*
X78798053Y-72227712D01*
X78898499Y-72213148D01*
X78993231Y-72199413D01*
X78993236Y-72199412D01*
X78998945Y-72198584D01*
X79004409Y-72196729D01*
X79004414Y-72196728D01*
X79185693Y-72135192D01*
X79185698Y-72135190D01*
X79191165Y-72133334D01*
X79368276Y-72034147D01*
X79430934Y-71982035D01*
X79519913Y-71908031D01*
X79524345Y-71904345D01*
X79654147Y-71748276D01*
X79753334Y-71571165D01*
X79755190Y-71565698D01*
X79755192Y-71565693D01*
X79816728Y-71384414D01*
X79816729Y-71384409D01*
X79818584Y-71378945D01*
X79819412Y-71373236D01*
X79819413Y-71373231D01*
X79847179Y-71181727D01*
X79847712Y-71178053D01*
X79849232Y-71120000D01*
X79830658Y-70917859D01*
X79829090Y-70912299D01*
X79777125Y-70728046D01*
X79777124Y-70728044D01*
X79775557Y-70722487D01*
X79772112Y-70715500D01*
X79707096Y-70583661D01*
X79694906Y-70513719D01*
X79722466Y-70448289D01*
X79781024Y-70408146D01*
X79803656Y-70403011D01*
X79892566Y-70391306D01*
X79900754Y-70390228D01*
X80035643Y-70334355D01*
X80042196Y-70329327D01*
X80144921Y-70250503D01*
X80144924Y-70250500D01*
X80151474Y-70245474D01*
X80176204Y-70213246D01*
X80235328Y-70136193D01*
X80240355Y-70129642D01*
X80243614Y-70121776D01*
X80288147Y-70014263D01*
X80296228Y-69994754D01*
X80301272Y-69956446D01*
X80314207Y-69858188D01*
X80315285Y-69850000D01*
X80301131Y-69742486D01*
X80297306Y-69713432D01*
X80297305Y-69713430D01*
X80296228Y-69705246D01*
X80267107Y-69634942D01*
X80243515Y-69577986D01*
X80243514Y-69577984D01*
X80240355Y-69570358D01*
X80176403Y-69487014D01*
X80156501Y-69461077D01*
X80156500Y-69461076D01*
X80151474Y-69454526D01*
X80144924Y-69449500D01*
X80144921Y-69449497D01*
X80042196Y-69370673D01*
X80042194Y-69370672D01*
X80035643Y-69365645D01*
X79900754Y-69309772D01*
X79860132Y-69304424D01*
X79802479Y-69296834D01*
X79737552Y-69268112D01*
X79698460Y-69208847D01*
X79697615Y-69137855D01*
X79708990Y-69110346D01*
X79753334Y-69031165D01*
X79755190Y-69025698D01*
X79755192Y-69025693D01*
X79816728Y-68844414D01*
X79816729Y-68844409D01*
X79818584Y-68838945D01*
X79819412Y-68833236D01*
X79819413Y-68833231D01*
X79847179Y-68641727D01*
X79847712Y-68638053D01*
X79849232Y-68580000D01*
X79830658Y-68377859D01*
X79829090Y-68372299D01*
X79777125Y-68188046D01*
X79777124Y-68188044D01*
X79775557Y-68182487D01*
X79765260Y-68161605D01*
X79688331Y-68005609D01*
X79685776Y-68000428D01*
X79564320Y-67837779D01*
X79415258Y-67699987D01*
X79410375Y-67696906D01*
X79410371Y-67696903D01*
X79248464Y-67594748D01*
X79243581Y-67591667D01*
X79055039Y-67516446D01*
X79049379Y-67515320D01*
X79049375Y-67515319D01*
X78861613Y-67477971D01*
X78861610Y-67477971D01*
X78855946Y-67476844D01*
X78850171Y-67476768D01*
X78850167Y-67476768D01*
X78748793Y-67475441D01*
X78652971Y-67474187D01*
X78647274Y-67475166D01*
X78647273Y-67475166D01*
X78458607Y-67507585D01*
X78452910Y-67508564D01*
X78262463Y-67578824D01*
X78088010Y-67682612D01*
X78083670Y-67686418D01*
X78083666Y-67686421D01*
X77979647Y-67777644D01*
X77935392Y-67816455D01*
X77809720Y-67975869D01*
X77807031Y-67980980D01*
X77807029Y-67980983D01*
X77794073Y-68005609D01*
X77715203Y-68155515D01*
X77655007Y-68349378D01*
X77631148Y-68550964D01*
X77644424Y-68753522D01*
X77645845Y-68759118D01*
X77645846Y-68759123D01*
X77666119Y-68838945D01*
X77694392Y-68950269D01*
X77696809Y-68955512D01*
X77734007Y-69036200D01*
X77779377Y-69134616D01*
X77782710Y-69139332D01*
X77884902Y-69283931D01*
X77896533Y-69300389D01*
X78004657Y-69405718D01*
X78039493Y-69467575D01*
X78035356Y-69538451D01*
X78005829Y-69585064D01*
X77928298Y-69662595D01*
X77865986Y-69696621D01*
X77839203Y-69699500D01*
X71448665Y-69699500D01*
X71380544Y-69679498D01*
X71334051Y-69625842D01*
X71323947Y-69555568D01*
X71343323Y-69509571D01*
X71341199Y-69508345D01*
X71345329Y-69501192D01*
X71350355Y-69494642D01*
X71366687Y-69455215D01*
X71401705Y-69370673D01*
X71406228Y-69359754D01*
X71408609Y-69341673D01*
X71424207Y-69223188D01*
X71425285Y-69215000D01*
X71415129Y-69137855D01*
X71407306Y-69078432D01*
X71407305Y-69078430D01*
X71406228Y-69070246D01*
X71358703Y-68955512D01*
X71353515Y-68942986D01*
X71353514Y-68942984D01*
X71350355Y-68935358D01*
X71261474Y-68819526D01*
X71254924Y-68814500D01*
X71254921Y-68814497D01*
X71152196Y-68735673D01*
X71152194Y-68735672D01*
X71145643Y-68730645D01*
X71010754Y-68674772D01*
X70866000Y-68655715D01*
X70857812Y-68656793D01*
X70729432Y-68673694D01*
X70729430Y-68673695D01*
X70721246Y-68674772D01*
X70673430Y-68694578D01*
X70593986Y-68727485D01*
X70593984Y-68727486D01*
X70586358Y-68730645D01*
X70470526Y-68819526D01*
X70381645Y-68935358D01*
X70378486Y-68942984D01*
X70378485Y-68942986D01*
X70373297Y-68955512D01*
X70325772Y-69070246D01*
X70324695Y-69078430D01*
X70324694Y-69078432D01*
X70316871Y-69137855D01*
X70306715Y-69215000D01*
X70307793Y-69223188D01*
X70323392Y-69341673D01*
X70325772Y-69359754D01*
X70330295Y-69370673D01*
X70365314Y-69455215D01*
X70381645Y-69494642D01*
X70386671Y-69501192D01*
X70390801Y-69508345D01*
X70388316Y-69509780D01*
X70408898Y-69563010D01*
X70394636Y-69632559D01*
X70345038Y-69683358D01*
X70283335Y-69699500D01*
X66988878Y-69699500D01*
X66920757Y-69679498D01*
X66912174Y-69673462D01*
X66885194Y-69652759D01*
X66885192Y-69652758D01*
X66878641Y-69647731D01*
X66743752Y-69591858D01*
X66734144Y-69590593D01*
X66607186Y-69573879D01*
X66598998Y-69572801D01*
X66590810Y-69573879D01*
X66463851Y-69590593D01*
X66393702Y-69579653D01*
X66349705Y-69539171D01*
X66346855Y-69541358D01*
X66263001Y-69432077D01*
X66263000Y-69432076D01*
X66257974Y-69425526D01*
X66251424Y-69420500D01*
X66251421Y-69420497D01*
X66148696Y-69341673D01*
X66148694Y-69341672D01*
X66142143Y-69336645D01*
X66007254Y-69280772D01*
X65862500Y-69261715D01*
X65854312Y-69262793D01*
X65725932Y-69279694D01*
X65725930Y-69279695D01*
X65717746Y-69280772D01*
X65693742Y-69290715D01*
X65590486Y-69333485D01*
X65590484Y-69333486D01*
X65582858Y-69336645D01*
X65541955Y-69368031D01*
X65492846Y-69405714D01*
X65467026Y-69425526D01*
X65378145Y-69541358D01*
X65374986Y-69548984D01*
X65374985Y-69548986D01*
X65344564Y-69622430D01*
X65322272Y-69676246D01*
X65321195Y-69684430D01*
X65321194Y-69684432D01*
X65318454Y-69705246D01*
X65303215Y-69821000D01*
X65304293Y-69829188D01*
X65304293Y-69829189D01*
X65316716Y-69923554D01*
X65305776Y-69993703D01*
X65258648Y-70046801D01*
X65191794Y-70066000D01*
X62271564Y-70066000D01*
X62203443Y-70045998D01*
X62156950Y-69992342D01*
X62146642Y-69956446D01*
X62146624Y-69956305D01*
X62137262Y-69885194D01*
X62136306Y-69877932D01*
X62136305Y-69877930D01*
X62135228Y-69869746D01*
X62079355Y-69734858D01*
X62012500Y-69647731D01*
X61995501Y-69625577D01*
X61995500Y-69625576D01*
X61990474Y-69619026D01*
X61983924Y-69614000D01*
X61983921Y-69613997D01*
X61881196Y-69535173D01*
X61881194Y-69535172D01*
X61874643Y-69530145D01*
X61739754Y-69474272D01*
X61595000Y-69455215D01*
X61586812Y-69456293D01*
X61458432Y-69473194D01*
X61458430Y-69473195D01*
X61450246Y-69474272D01*
X61411182Y-69490453D01*
X61322986Y-69526985D01*
X61322984Y-69526986D01*
X61315358Y-69530145D01*
X61199526Y-69619026D01*
X61110645Y-69734858D01*
X61054772Y-69869746D01*
X61053694Y-69877932D01*
X61051557Y-69885909D01*
X61048887Y-69885194D01*
X61025639Y-69937728D01*
X60966369Y-69976813D01*
X60895377Y-69977649D01*
X60852745Y-69956305D01*
X60810063Y-69923554D01*
X60745021Y-69873645D01*
X60610132Y-69817772D01*
X60465378Y-69798715D01*
X60457190Y-69799793D01*
X60328810Y-69816694D01*
X60328808Y-69816695D01*
X60320624Y-69817772D01*
X60312831Y-69821000D01*
X60193364Y-69870485D01*
X60193362Y-69870486D01*
X60185736Y-69873645D01*
X60069904Y-69962526D01*
X59981023Y-70078358D01*
X59925150Y-70213246D01*
X59924073Y-70221430D01*
X59924072Y-70221432D01*
X59921113Y-70243911D01*
X59906093Y-70358000D01*
X59907171Y-70366188D01*
X59917980Y-70448289D01*
X59925150Y-70502754D01*
X59928310Y-70510383D01*
X59941108Y-70541280D01*
X59948698Y-70611870D01*
X59916920Y-70675357D01*
X59855862Y-70711586D01*
X59824700Y-70715500D01*
X51910463Y-70715500D01*
X51842342Y-70695498D01*
X51797457Y-70645228D01*
X51748331Y-70545608D01*
X51748328Y-70545604D01*
X51745776Y-70540428D01*
X51624320Y-70377779D01*
X51475258Y-70239987D01*
X51470375Y-70236906D01*
X51470371Y-70236903D01*
X51308464Y-70134748D01*
X51303581Y-70131667D01*
X51115039Y-70056446D01*
X51109379Y-70055320D01*
X51109375Y-70055319D01*
X50921613Y-70017971D01*
X50921610Y-70017971D01*
X50915946Y-70016844D01*
X50910171Y-70016768D01*
X50910167Y-70016768D01*
X50808793Y-70015441D01*
X50712971Y-70014187D01*
X50707274Y-70015166D01*
X50707273Y-70015166D01*
X50527843Y-70045998D01*
X50512910Y-70048564D01*
X50322463Y-70118824D01*
X50148010Y-70222612D01*
X50143670Y-70226418D01*
X50143666Y-70226421D01*
X50066446Y-70294142D01*
X49995392Y-70356455D01*
X49869720Y-70515869D01*
X49867031Y-70520980D01*
X49867029Y-70520983D01*
X49854073Y-70545608D01*
X49775203Y-70695515D01*
X49715007Y-70889378D01*
X49691148Y-71090964D01*
X48514500Y-71090964D01*
X48514500Y-68550964D01*
X49691148Y-68550964D01*
X49704424Y-68753522D01*
X49705845Y-68759118D01*
X49705846Y-68759123D01*
X49726119Y-68838945D01*
X49754392Y-68950269D01*
X49756809Y-68955512D01*
X49794007Y-69036200D01*
X49839377Y-69134616D01*
X49842710Y-69139332D01*
X49944902Y-69283931D01*
X49956533Y-69300389D01*
X50101938Y-69442035D01*
X50106742Y-69445245D01*
X50130436Y-69461077D01*
X50270720Y-69554812D01*
X50276023Y-69557090D01*
X50276026Y-69557092D01*
X50435430Y-69625577D01*
X50457228Y-69634942D01*
X50530244Y-69651464D01*
X50649579Y-69678467D01*
X50649584Y-69678468D01*
X50655216Y-69679742D01*
X50660987Y-69679969D01*
X50660989Y-69679969D01*
X50720756Y-69682317D01*
X50858053Y-69687712D01*
X50958499Y-69673148D01*
X51053231Y-69659413D01*
X51053236Y-69659412D01*
X51058945Y-69658584D01*
X51064409Y-69656729D01*
X51064414Y-69656728D01*
X51245693Y-69595192D01*
X51245698Y-69595190D01*
X51251165Y-69593334D01*
X51285905Y-69573879D01*
X51347880Y-69539171D01*
X51428276Y-69494147D01*
X51436853Y-69487014D01*
X51579913Y-69368031D01*
X51584345Y-69364345D01*
X51651225Y-69283931D01*
X51710453Y-69212718D01*
X51710455Y-69212715D01*
X51714147Y-69208276D01*
X51813334Y-69031165D01*
X51815190Y-69025698D01*
X51815192Y-69025693D01*
X51876728Y-68844414D01*
X51876729Y-68844409D01*
X51878584Y-68838945D01*
X51879412Y-68833236D01*
X51879413Y-68833231D01*
X51907179Y-68641727D01*
X51907712Y-68638053D01*
X51909232Y-68580000D01*
X51890658Y-68377859D01*
X51889090Y-68372299D01*
X51837125Y-68188046D01*
X51837124Y-68188044D01*
X51835557Y-68182487D01*
X51825260Y-68161605D01*
X51748331Y-68005609D01*
X51745776Y-68000428D01*
X51624320Y-67837779D01*
X51475258Y-67699987D01*
X51470375Y-67696906D01*
X51470371Y-67696903D01*
X51308464Y-67594748D01*
X51303581Y-67591667D01*
X51115039Y-67516446D01*
X51109379Y-67515320D01*
X51109375Y-67515319D01*
X50921613Y-67477971D01*
X50921610Y-67477971D01*
X50915946Y-67476844D01*
X50910171Y-67476768D01*
X50910167Y-67476768D01*
X50808793Y-67475441D01*
X50712971Y-67474187D01*
X50707274Y-67475166D01*
X50707273Y-67475166D01*
X50518607Y-67507585D01*
X50512910Y-67508564D01*
X50322463Y-67578824D01*
X50148010Y-67682612D01*
X50143670Y-67686418D01*
X50143666Y-67686421D01*
X50039647Y-67777644D01*
X49995392Y-67816455D01*
X49869720Y-67975869D01*
X49867031Y-67980980D01*
X49867029Y-67980983D01*
X49854073Y-68005609D01*
X49775203Y-68155515D01*
X49715007Y-68349378D01*
X49691148Y-68550964D01*
X48514500Y-68550964D01*
X48514500Y-66010964D01*
X49691148Y-66010964D01*
X49704424Y-66213522D01*
X49705845Y-66219118D01*
X49705846Y-66219123D01*
X49726119Y-66298945D01*
X49754392Y-66410269D01*
X49756809Y-66415512D01*
X49794010Y-66496208D01*
X49839377Y-66594616D01*
X49842710Y-66599332D01*
X49917573Y-66705261D01*
X49956533Y-66760389D01*
X49960675Y-66764424D01*
X49975983Y-66779336D01*
X50101938Y-66902035D01*
X50106742Y-66905245D01*
X50135906Y-66924732D01*
X50270720Y-67014812D01*
X50276023Y-67017090D01*
X50276026Y-67017092D01*
X50364707Y-67055192D01*
X50457228Y-67094942D01*
X50530244Y-67111464D01*
X50649579Y-67138467D01*
X50649584Y-67138468D01*
X50655216Y-67139742D01*
X50660987Y-67139969D01*
X50660989Y-67139969D01*
X50720756Y-67142317D01*
X50858053Y-67147712D01*
X50958499Y-67133148D01*
X51053231Y-67119413D01*
X51053236Y-67119412D01*
X51058945Y-67118584D01*
X51064409Y-67116729D01*
X51064414Y-67116728D01*
X51245693Y-67055192D01*
X51245698Y-67055190D01*
X51251165Y-67053334D01*
X51428276Y-66954147D01*
X51463644Y-66924732D01*
X51579913Y-66828031D01*
X51584345Y-66824345D01*
X51691520Y-66695482D01*
X51710453Y-66672718D01*
X51710455Y-66672715D01*
X51714147Y-66668276D01*
X51813334Y-66491165D01*
X51815190Y-66485698D01*
X51815192Y-66485693D01*
X51876728Y-66304414D01*
X51876729Y-66304409D01*
X51878584Y-66298945D01*
X51879412Y-66293236D01*
X51879413Y-66293231D01*
X51900685Y-66146515D01*
X51907712Y-66098053D01*
X51909232Y-66040000D01*
X51890658Y-65837859D01*
X51884244Y-65815115D01*
X51841085Y-65662088D01*
X51841845Y-65591095D01*
X51873259Y-65538791D01*
X52200645Y-65211405D01*
X52262957Y-65177379D01*
X52289740Y-65174500D01*
X62409335Y-65174500D01*
X62477456Y-65194502D01*
X62523949Y-65248158D01*
X62534053Y-65318432D01*
X62514677Y-65364429D01*
X62516801Y-65365655D01*
X62512671Y-65372808D01*
X62507645Y-65379358D01*
X62451772Y-65514246D01*
X62450695Y-65522430D01*
X62450694Y-65522432D01*
X62441655Y-65591095D01*
X62432715Y-65659000D01*
X62451772Y-65803754D01*
X62456478Y-65815115D01*
X62498147Y-65915711D01*
X62507645Y-65938642D01*
X62512672Y-65945193D01*
X62575062Y-66026501D01*
X62596526Y-66054474D01*
X62603076Y-66059500D01*
X62603079Y-66059503D01*
X62705804Y-66138327D01*
X62712357Y-66143355D01*
X62847246Y-66199228D01*
X62992000Y-66218285D01*
X63000188Y-66217207D01*
X63128566Y-66200306D01*
X63136754Y-66199228D01*
X63271643Y-66143355D01*
X63286271Y-66132131D01*
X63380921Y-66059502D01*
X63387474Y-66054474D01*
X63390047Y-66051121D01*
X63450721Y-66017993D01*
X63521537Y-66023061D01*
X63578371Y-66065610D01*
X63603179Y-66132131D01*
X63603500Y-66141115D01*
X63603500Y-66519333D01*
X63583498Y-66587454D01*
X63529842Y-66633947D01*
X63461054Y-66644255D01*
X63387579Y-66634582D01*
X63355289Y-66630331D01*
X63347101Y-66631409D01*
X63218721Y-66648310D01*
X63218719Y-66648311D01*
X63210535Y-66649388D01*
X63164936Y-66668276D01*
X63083275Y-66702101D01*
X63083273Y-66702102D01*
X63075647Y-66705261D01*
X62959815Y-66794142D01*
X62870934Y-66909974D01*
X62867775Y-66917600D01*
X62867774Y-66917602D01*
X62834867Y-66997046D01*
X62815061Y-67044862D01*
X62813984Y-67053046D01*
X62813983Y-67053048D01*
X62813701Y-67055192D01*
X62796004Y-67189616D01*
X62797082Y-67197804D01*
X62813112Y-67319564D01*
X62815061Y-67334370D01*
X62834867Y-67382186D01*
X62867515Y-67461003D01*
X62870934Y-67469258D01*
X62959815Y-67585090D01*
X62966365Y-67590116D01*
X62966368Y-67590119D01*
X63069093Y-67668943D01*
X63075646Y-67673971D01*
X63174790Y-67715038D01*
X63197745Y-67724546D01*
X63210535Y-67729844D01*
X63218723Y-67730922D01*
X63242825Y-67734095D01*
X63355289Y-67748901D01*
X63363477Y-67747823D01*
X63491855Y-67730922D01*
X63500043Y-67729844D01*
X63507672Y-67726684D01*
X63515651Y-67724546D01*
X63516056Y-67726056D01*
X63577370Y-67719464D01*
X63640857Y-67751243D01*
X63667264Y-67786256D01*
X63676674Y-67804723D01*
X63683686Y-67811735D01*
X63687108Y-67816445D01*
X63710095Y-67874060D01*
X63716810Y-67925062D01*
X63721772Y-67962754D01*
X63777645Y-68097642D01*
X63782672Y-68104193D01*
X63826726Y-68161605D01*
X63866526Y-68213474D01*
X63873076Y-68218500D01*
X63873079Y-68218503D01*
X63975804Y-68297327D01*
X63982357Y-68302355D01*
X64117246Y-68358228D01*
X64262000Y-68377285D01*
X64270188Y-68376207D01*
X64398566Y-68359306D01*
X64406754Y-68358228D01*
X64541643Y-68302355D01*
X64548196Y-68297327D01*
X64650921Y-68218503D01*
X64650924Y-68218500D01*
X64657474Y-68213474D01*
X64746355Y-68097642D01*
X64749487Y-68090081D01*
X64800845Y-68041111D01*
X64870559Y-68027675D01*
X64936470Y-68054061D01*
X64958544Y-68076400D01*
X65023921Y-68161601D01*
X65023925Y-68161605D01*
X65028952Y-68168156D01*
X65035502Y-68173182D01*
X65035505Y-68173185D01*
X65138230Y-68252009D01*
X65144783Y-68257037D01*
X65279672Y-68312910D01*
X65424426Y-68331967D01*
X65432614Y-68330889D01*
X65560992Y-68313988D01*
X65569180Y-68312910D01*
X65704069Y-68257037D01*
X65710622Y-68252009D01*
X65813347Y-68173185D01*
X65813350Y-68173182D01*
X65819900Y-68168156D01*
X65833526Y-68150399D01*
X65864340Y-68110240D01*
X65908781Y-68052324D01*
X65964654Y-67917436D01*
X65970365Y-67874060D01*
X65974510Y-67842571D01*
X66003232Y-67777644D01*
X66062497Y-67738552D01*
X66094221Y-67733798D01*
X66096478Y-67734095D01*
X66104666Y-67733017D01*
X66120580Y-67730922D01*
X66241232Y-67715038D01*
X66376121Y-67659165D01*
X66416830Y-67627928D01*
X66485399Y-67575313D01*
X66485402Y-67575310D01*
X66491952Y-67570284D01*
X66580833Y-67454452D01*
X66594058Y-67422526D01*
X66633547Y-67327190D01*
X66636706Y-67319564D01*
X66655763Y-67174810D01*
X66648361Y-67118584D01*
X66637784Y-67038242D01*
X66637783Y-67038240D01*
X66636706Y-67030056D01*
X66585007Y-66905245D01*
X66583993Y-66902796D01*
X66583992Y-66902794D01*
X66580833Y-66895168D01*
X66499459Y-66789119D01*
X66496979Y-66785887D01*
X66496978Y-66785886D01*
X66491952Y-66779336D01*
X66485402Y-66774310D01*
X66485399Y-66774307D01*
X66382674Y-66695483D01*
X66382672Y-66695482D01*
X66376121Y-66690455D01*
X66241232Y-66634582D01*
X66217131Y-66631409D01*
X66104666Y-66616603D01*
X66096478Y-66615525D01*
X66088290Y-66616603D01*
X65959910Y-66633504D01*
X65959908Y-66633505D01*
X65951724Y-66634582D01*
X65928372Y-66644255D01*
X65824464Y-66687295D01*
X65824462Y-66687296D01*
X65816836Y-66690455D01*
X65701004Y-66779336D01*
X65695981Y-66785882D01*
X65695977Y-66785886D01*
X65654462Y-66839989D01*
X65597124Y-66881856D01*
X65526253Y-66886078D01*
X65464350Y-66851314D01*
X65431069Y-66788601D01*
X65428500Y-66763285D01*
X65428500Y-66141115D01*
X65448502Y-66072994D01*
X65502158Y-66026501D01*
X65572432Y-66016397D01*
X65637012Y-66045891D01*
X65640260Y-66048914D01*
X65644526Y-66054474D01*
X65651079Y-66059502D01*
X65745730Y-66132131D01*
X65760357Y-66143355D01*
X65895246Y-66199228D01*
X66040000Y-66218285D01*
X66048188Y-66217207D01*
X66176566Y-66200306D01*
X66184754Y-66199228D01*
X66319643Y-66143355D01*
X66326196Y-66138327D01*
X66428921Y-66059503D01*
X66428924Y-66059500D01*
X66435474Y-66054474D01*
X66456939Y-66026501D01*
X66519328Y-65945193D01*
X66524355Y-65938642D01*
X66533854Y-65915711D01*
X66575522Y-65815115D01*
X66580228Y-65803754D01*
X66599285Y-65659000D01*
X66590345Y-65591095D01*
X66581306Y-65522432D01*
X66581305Y-65522430D01*
X66580228Y-65514246D01*
X66524355Y-65379358D01*
X66519329Y-65372808D01*
X66515199Y-65365655D01*
X66517684Y-65364220D01*
X66497102Y-65310990D01*
X66511364Y-65241441D01*
X66560962Y-65190642D01*
X66622665Y-65174500D01*
X77250260Y-65174500D01*
X77318381Y-65194502D01*
X77339355Y-65211405D01*
X77668100Y-65540150D01*
X77702126Y-65602462D01*
X77699338Y-65666609D01*
X77655007Y-65809378D01*
X77631148Y-66010964D01*
X77644424Y-66213522D01*
X77645845Y-66219118D01*
X77645846Y-66219123D01*
X77666119Y-66298945D01*
X77694392Y-66410269D01*
X77696809Y-66415512D01*
X77734010Y-66496208D01*
X77779377Y-66594616D01*
X77782710Y-66599332D01*
X77857573Y-66705261D01*
X77896533Y-66760389D01*
X77900675Y-66764424D01*
X77915983Y-66779336D01*
X78041938Y-66902035D01*
X78046742Y-66905245D01*
X78075906Y-66924732D01*
X78210720Y-67014812D01*
X78216023Y-67017090D01*
X78216026Y-67017092D01*
X78304707Y-67055192D01*
X78397228Y-67094942D01*
X78470244Y-67111464D01*
X78589579Y-67138467D01*
X78589584Y-67138468D01*
X78595216Y-67139742D01*
X78600987Y-67139969D01*
X78600989Y-67139969D01*
X78660756Y-67142317D01*
X78798053Y-67147712D01*
X78898499Y-67133148D01*
X78993231Y-67119413D01*
X78993236Y-67119412D01*
X78998945Y-67118584D01*
X79004409Y-67116729D01*
X79004414Y-67116728D01*
X79185693Y-67055192D01*
X79185698Y-67055190D01*
X79191165Y-67053334D01*
X79368276Y-66954147D01*
X79403644Y-66924732D01*
X79519913Y-66828031D01*
X79524345Y-66824345D01*
X79631520Y-66695482D01*
X79650453Y-66672718D01*
X79650455Y-66672715D01*
X79654147Y-66668276D01*
X79753334Y-66491165D01*
X79755190Y-66485698D01*
X79755192Y-66485693D01*
X79816728Y-66304414D01*
X79816729Y-66304409D01*
X79818584Y-66298945D01*
X79819412Y-66293236D01*
X79819413Y-66293231D01*
X79840685Y-66146515D01*
X79847712Y-66098053D01*
X79849232Y-66040000D01*
X79830658Y-65837859D01*
X79824533Y-65816141D01*
X79777125Y-65648046D01*
X79777124Y-65648044D01*
X79775557Y-65642487D01*
X79764978Y-65621033D01*
X79688331Y-65465609D01*
X79685776Y-65460428D01*
X79564320Y-65297779D01*
X79447572Y-65189858D01*
X79419503Y-65163911D01*
X79415258Y-65159987D01*
X79410375Y-65156906D01*
X79410371Y-65156903D01*
X79248464Y-65054748D01*
X79243581Y-65051667D01*
X79055039Y-64976446D01*
X79049379Y-64975320D01*
X79049375Y-64975319D01*
X78861613Y-64937971D01*
X78861610Y-64937971D01*
X78855946Y-64936844D01*
X78850171Y-64936768D01*
X78850167Y-64936768D01*
X78748793Y-64935441D01*
X78652971Y-64934187D01*
X78647274Y-64935166D01*
X78647273Y-64935166D01*
X78458607Y-64967585D01*
X78452910Y-64968564D01*
X78447484Y-64970566D01*
X78447483Y-64970566D01*
X78373498Y-64997860D01*
X78302665Y-65002672D01*
X78240793Y-64968743D01*
X77733515Y-64461465D01*
X77733511Y-64461462D01*
X77710723Y-64438674D01*
X77690844Y-64428545D01*
X77673989Y-64418216D01*
X77663953Y-64410925D01*
X77655929Y-64405095D01*
X77634704Y-64398199D01*
X77616438Y-64390633D01*
X77596555Y-64380502D01*
X77574513Y-64377011D01*
X77555287Y-64372395D01*
X77543500Y-64368565D01*
X77543498Y-64368565D01*
X77534066Y-64365500D01*
X58662614Y-64365500D01*
X58594493Y-64345498D01*
X58548000Y-64291842D01*
X58537896Y-64221568D01*
X58567390Y-64156988D01*
X58570412Y-64153742D01*
X58575974Y-64149474D01*
X58664855Y-64033642D01*
X58696930Y-63956208D01*
X58717569Y-63906382D01*
X58717570Y-63906378D01*
X58720728Y-63898754D01*
X58720916Y-63898832D01*
X58755503Y-63842088D01*
X58819363Y-63811066D01*
X58856705Y-63810399D01*
X58892070Y-63815055D01*
X58928000Y-63819785D01*
X58936188Y-63818707D01*
X59064566Y-63801806D01*
X59072754Y-63800728D01*
X59207643Y-63744855D01*
X59214196Y-63739827D01*
X59316921Y-63661003D01*
X59316924Y-63661000D01*
X59323474Y-63655974D01*
X59412355Y-63540142D01*
X59442318Y-63467807D01*
X59465069Y-63412880D01*
X59468228Y-63405254D01*
X59487285Y-63260500D01*
X59481079Y-63213360D01*
X59473784Y-63157946D01*
X59484724Y-63087797D01*
X59531852Y-63034699D01*
X59598706Y-63015500D01*
X77562779Y-63015500D01*
X77630900Y-63035502D01*
X77677393Y-63089158D01*
X77687497Y-63159432D01*
X77683112Y-63178864D01*
X77666222Y-63233260D01*
X77655007Y-63269378D01*
X77631148Y-63470964D01*
X77631526Y-63476730D01*
X77642845Y-63649423D01*
X77644424Y-63673522D01*
X77645845Y-63679118D01*
X77645846Y-63679123D01*
X77687235Y-63842088D01*
X77694392Y-63870269D01*
X77696809Y-63875512D01*
X77734010Y-63956208D01*
X77779377Y-64054616D01*
X77782710Y-64059332D01*
X77846416Y-64149474D01*
X77896533Y-64220389D01*
X78041938Y-64362035D01*
X78210720Y-64474812D01*
X78216023Y-64477090D01*
X78216026Y-64477092D01*
X78304707Y-64515192D01*
X78397228Y-64554942D01*
X78470244Y-64571464D01*
X78589579Y-64598467D01*
X78589584Y-64598468D01*
X78595216Y-64599742D01*
X78600987Y-64599969D01*
X78600989Y-64599969D01*
X78660756Y-64602317D01*
X78798053Y-64607712D01*
X78898499Y-64593148D01*
X78993231Y-64579413D01*
X78993236Y-64579412D01*
X78998945Y-64578584D01*
X79004409Y-64576729D01*
X79004414Y-64576728D01*
X79185693Y-64515192D01*
X79185698Y-64515190D01*
X79191165Y-64513334D01*
X79368276Y-64414147D01*
X79387452Y-64398199D01*
X79519913Y-64288031D01*
X79524345Y-64284345D01*
X79574181Y-64224424D01*
X79650453Y-64132718D01*
X79650455Y-64132715D01*
X79654147Y-64128276D01*
X79753334Y-63951165D01*
X79755190Y-63945698D01*
X79755192Y-63945693D01*
X79816728Y-63764414D01*
X79816729Y-63764409D01*
X79818584Y-63758945D01*
X79819412Y-63753236D01*
X79819413Y-63753231D01*
X79847179Y-63561727D01*
X79847712Y-63558053D01*
X79849232Y-63500000D01*
X79836633Y-63362888D01*
X79831187Y-63303613D01*
X79831186Y-63303610D01*
X79830658Y-63297859D01*
X79829090Y-63292299D01*
X79777125Y-63108046D01*
X79777124Y-63108044D01*
X79775557Y-63102487D01*
X79764978Y-63081033D01*
X79688331Y-62925609D01*
X79685776Y-62920428D01*
X79564320Y-62757779D01*
X79415258Y-62619987D01*
X79410375Y-62616906D01*
X79410371Y-62616903D01*
X79248464Y-62514748D01*
X79243581Y-62511667D01*
X79055039Y-62436446D01*
X79049379Y-62435320D01*
X79049375Y-62435319D01*
X78861613Y-62397971D01*
X78861610Y-62397971D01*
X78855946Y-62396844D01*
X78850171Y-62396768D01*
X78850167Y-62396768D01*
X78748793Y-62395441D01*
X78652971Y-62394187D01*
X78647274Y-62395166D01*
X78647273Y-62395166D01*
X78458607Y-62427585D01*
X78452910Y-62428564D01*
X78447484Y-62430566D01*
X78447483Y-62430566D01*
X78373498Y-62457860D01*
X78302665Y-62462672D01*
X78240793Y-62428743D01*
X78114515Y-62302465D01*
X78114511Y-62302462D01*
X78091723Y-62279674D01*
X78071844Y-62269545D01*
X78054989Y-62259216D01*
X78044953Y-62251925D01*
X78036929Y-62246095D01*
X78015704Y-62239199D01*
X77997438Y-62231633D01*
X77977555Y-62221502D01*
X77955513Y-62218011D01*
X77936287Y-62213395D01*
X77924500Y-62209565D01*
X77924498Y-62209565D01*
X77915066Y-62206500D01*
X51624934Y-62206500D01*
X51615502Y-62209565D01*
X51615500Y-62209565D01*
X51603713Y-62213395D01*
X51584487Y-62218011D01*
X51562445Y-62221502D01*
X51542562Y-62231633D01*
X51524296Y-62239199D01*
X51503071Y-62246095D01*
X51495047Y-62251925D01*
X51485011Y-62259216D01*
X51468156Y-62269545D01*
X51448277Y-62279674D01*
X51425489Y-62302462D01*
X51425485Y-62302465D01*
X51299871Y-62428079D01*
X51237559Y-62462105D01*
X51164087Y-62456014D01*
X51115039Y-62436446D01*
X51109379Y-62435320D01*
X51109375Y-62435319D01*
X50921613Y-62397971D01*
X50921610Y-62397971D01*
X50915946Y-62396844D01*
X50910171Y-62396768D01*
X50910167Y-62396768D01*
X50808793Y-62395441D01*
X50712971Y-62394187D01*
X50707274Y-62395166D01*
X50707273Y-62395166D01*
X50518607Y-62427585D01*
X50512910Y-62428564D01*
X50322463Y-62498824D01*
X50148010Y-62602612D01*
X50143670Y-62606418D01*
X50143666Y-62606421D01*
X50123723Y-62623911D01*
X49995392Y-62736455D01*
X49869720Y-62895869D01*
X49867031Y-62900980D01*
X49867029Y-62900983D01*
X49854073Y-62925609D01*
X49775203Y-63075515D01*
X49715007Y-63269378D01*
X49691148Y-63470964D01*
X49691526Y-63476730D01*
X49702845Y-63649423D01*
X49704424Y-63673522D01*
X49705845Y-63679118D01*
X49705846Y-63679123D01*
X49747235Y-63842088D01*
X49754392Y-63870269D01*
X49756809Y-63875512D01*
X49794010Y-63956208D01*
X49839377Y-64054616D01*
X49842710Y-64059332D01*
X49906416Y-64149474D01*
X49956533Y-64220389D01*
X50101938Y-64362035D01*
X50270720Y-64474812D01*
X50276023Y-64477090D01*
X50276026Y-64477092D01*
X50364707Y-64515192D01*
X50457228Y-64554942D01*
X50530244Y-64571464D01*
X50649579Y-64598467D01*
X50649584Y-64598468D01*
X50655216Y-64599742D01*
X50660987Y-64599969D01*
X50660989Y-64599969D01*
X50720756Y-64602317D01*
X50858053Y-64607712D01*
X50958499Y-64593148D01*
X51053231Y-64579413D01*
X51053236Y-64579412D01*
X51058945Y-64578584D01*
X51064409Y-64576729D01*
X51064414Y-64576728D01*
X51245693Y-64515192D01*
X51245698Y-64515190D01*
X51251165Y-64513334D01*
X51428276Y-64414147D01*
X51447452Y-64398199D01*
X51579913Y-64288031D01*
X51584345Y-64284345D01*
X51634181Y-64224424D01*
X51710453Y-64132718D01*
X51710455Y-64132715D01*
X51714147Y-64128276D01*
X51813334Y-63951165D01*
X51815190Y-63945698D01*
X51815192Y-63945693D01*
X51876728Y-63764414D01*
X51876729Y-63764409D01*
X51878584Y-63758945D01*
X51879412Y-63753236D01*
X51879413Y-63753231D01*
X51907179Y-63561727D01*
X51907712Y-63558053D01*
X51909232Y-63500000D01*
X51896633Y-63362888D01*
X51891187Y-63303613D01*
X51891186Y-63303610D01*
X51890658Y-63297859D01*
X51884244Y-63275115D01*
X51856206Y-63175702D01*
X51856966Y-63104709D01*
X51895987Y-63045397D01*
X51960880Y-63016598D01*
X51977475Y-63015500D01*
X54564472Y-63015500D01*
X54632593Y-63035502D01*
X54679086Y-63089158D01*
X54689190Y-63159432D01*
X54659696Y-63224012D01*
X54612690Y-63257909D01*
X54591989Y-63266484D01*
X54584358Y-63269645D01*
X54468526Y-63358526D01*
X54379645Y-63474358D01*
X54376486Y-63481984D01*
X54376485Y-63481986D01*
X54346513Y-63554344D01*
X54323772Y-63609246D01*
X54322695Y-63617430D01*
X54322694Y-63617432D01*
X54307841Y-63730255D01*
X54304715Y-63754000D01*
X54323772Y-63898754D01*
X54379645Y-64033642D01*
X54468526Y-64149474D01*
X54471875Y-64152044D01*
X54505005Y-64212712D01*
X54499943Y-64283528D01*
X54457399Y-64340365D01*
X54390879Y-64365179D01*
X54381886Y-64365500D01*
X52005934Y-64365500D01*
X51996501Y-64368565D01*
X51984714Y-64372395D01*
X51965483Y-64377012D01*
X51959363Y-64377981D01*
X51953244Y-64378950D01*
X51953243Y-64378950D01*
X51943445Y-64380502D01*
X51934610Y-64385004D01*
X51934606Y-64385005D01*
X51923557Y-64390635D01*
X51905295Y-64398199D01*
X51893503Y-64402031D01*
X51893501Y-64402032D01*
X51884071Y-64405096D01*
X51867725Y-64416972D01*
X51866017Y-64418213D01*
X51849160Y-64428543D01*
X51829277Y-64438674D01*
X51806489Y-64461462D01*
X51806485Y-64461465D01*
X51299871Y-64968079D01*
X51237559Y-65002105D01*
X51164087Y-64996014D01*
X51115039Y-64976446D01*
X51109379Y-64975320D01*
X51109375Y-64975319D01*
X50921613Y-64937971D01*
X50921610Y-64937971D01*
X50915946Y-64936844D01*
X50910171Y-64936768D01*
X50910167Y-64936768D01*
X50808793Y-64935441D01*
X50712971Y-64934187D01*
X50707274Y-64935166D01*
X50707273Y-64935166D01*
X50518607Y-64967585D01*
X50512910Y-64968564D01*
X50322463Y-65038824D01*
X50148010Y-65142612D01*
X50143670Y-65146418D01*
X50143666Y-65146421D01*
X50027658Y-65248158D01*
X49995392Y-65276455D01*
X49869720Y-65435869D01*
X49867031Y-65440980D01*
X49867029Y-65440983D01*
X49854073Y-65465609D01*
X49775203Y-65615515D01*
X49715007Y-65809378D01*
X49691148Y-66010964D01*
X48514500Y-66010964D01*
X48514500Y-60930964D01*
X49691148Y-60930964D01*
X49704424Y-61133522D01*
X49705845Y-61139118D01*
X49705846Y-61139123D01*
X49746002Y-61297234D01*
X49754392Y-61330269D01*
X49756809Y-61335512D01*
X49791982Y-61411809D01*
X49839377Y-61514616D01*
X49842710Y-61519332D01*
X49950835Y-61672326D01*
X49956533Y-61680389D01*
X49960675Y-61684424D01*
X50007972Y-61730498D01*
X50101938Y-61822035D01*
X50270720Y-61934812D01*
X50276023Y-61937090D01*
X50276026Y-61937092D01*
X50364707Y-61975192D01*
X50457228Y-62014942D01*
X50530244Y-62031464D01*
X50649579Y-62058467D01*
X50649584Y-62058468D01*
X50655216Y-62059742D01*
X50660987Y-62059969D01*
X50660989Y-62059969D01*
X50720756Y-62062317D01*
X50858053Y-62067712D01*
X50958499Y-62053148D01*
X51053231Y-62039413D01*
X51053236Y-62039412D01*
X51058945Y-62038584D01*
X51064409Y-62036729D01*
X51064414Y-62036728D01*
X51245693Y-61975192D01*
X51245698Y-61975190D01*
X51251165Y-61973334D01*
X51428276Y-61874147D01*
X51490934Y-61822035D01*
X51579913Y-61748031D01*
X51584345Y-61744345D01*
X51650074Y-61665315D01*
X51710453Y-61592718D01*
X51710455Y-61592715D01*
X51714147Y-61588276D01*
X51805021Y-61426009D01*
X51810510Y-61416208D01*
X51810511Y-61416206D01*
X51813334Y-61411165D01*
X51815190Y-61405698D01*
X51815192Y-61405693D01*
X51876728Y-61224414D01*
X51876729Y-61224409D01*
X51878584Y-61218945D01*
X51879412Y-61213236D01*
X51879413Y-61213231D01*
X51903996Y-61043680D01*
X51907712Y-61018053D01*
X51909232Y-60960000D01*
X51890658Y-60757859D01*
X51889090Y-60752299D01*
X51837125Y-60568046D01*
X51837124Y-60568044D01*
X51835557Y-60562487D01*
X51824978Y-60541033D01*
X51748331Y-60385609D01*
X51745776Y-60380428D01*
X51624320Y-60217779D01*
X51475258Y-60079987D01*
X51470375Y-60076906D01*
X51470371Y-60076903D01*
X51308464Y-59974748D01*
X51303581Y-59971667D01*
X51115039Y-59896446D01*
X51109379Y-59895320D01*
X51109375Y-59895319D01*
X50921613Y-59857971D01*
X50921610Y-59857971D01*
X50915946Y-59856844D01*
X50910171Y-59856768D01*
X50910167Y-59856768D01*
X50808793Y-59855441D01*
X50712971Y-59854187D01*
X50707274Y-59855166D01*
X50707273Y-59855166D01*
X50599302Y-59873719D01*
X50512910Y-59888564D01*
X50322463Y-59958824D01*
X50148010Y-60062612D01*
X50143670Y-60066418D01*
X50143666Y-60066421D01*
X50013875Y-60180246D01*
X49995392Y-60196455D01*
X49869720Y-60355869D01*
X49867031Y-60360980D01*
X49867029Y-60360983D01*
X49836666Y-60418694D01*
X49775203Y-60535515D01*
X49715007Y-60729378D01*
X49691148Y-60930964D01*
X48514500Y-60930964D01*
X48514500Y-58390964D01*
X49691148Y-58390964D01*
X49704424Y-58593522D01*
X49705845Y-58599118D01*
X49705846Y-58599123D01*
X49726119Y-58678945D01*
X49754392Y-58790269D01*
X49756809Y-58795512D01*
X49794010Y-58876208D01*
X49839377Y-58974616D01*
X49956533Y-59140389D01*
X50101938Y-59282035D01*
X50270720Y-59394812D01*
X50276023Y-59397090D01*
X50276026Y-59397092D01*
X50451921Y-59472662D01*
X50457228Y-59474942D01*
X50530244Y-59491464D01*
X50649579Y-59518467D01*
X50649584Y-59518468D01*
X50655216Y-59519742D01*
X50660987Y-59519969D01*
X50660989Y-59519969D01*
X50720756Y-59522317D01*
X50858053Y-59527712D01*
X50960947Y-59512793D01*
X51053231Y-59499413D01*
X51053236Y-59499412D01*
X51058945Y-59498584D01*
X51064409Y-59496729D01*
X51064414Y-59496728D01*
X51245693Y-59435192D01*
X51245698Y-59435190D01*
X51251165Y-59433334D01*
X51256626Y-59430276D01*
X51325683Y-59391602D01*
X51428276Y-59334147D01*
X51490934Y-59282035D01*
X51579913Y-59208031D01*
X51584345Y-59204345D01*
X51714147Y-59048276D01*
X51803383Y-58888934D01*
X51854120Y-58839272D01*
X51913317Y-58824500D01*
X60123335Y-58824500D01*
X60191456Y-58844502D01*
X60237949Y-58898158D01*
X60248053Y-58968432D01*
X60228677Y-59014429D01*
X60230801Y-59015655D01*
X60226671Y-59022808D01*
X60221645Y-59029358D01*
X60218486Y-59036984D01*
X60218485Y-59036986D01*
X60213809Y-59048276D01*
X60165772Y-59164246D01*
X60164695Y-59172430D01*
X60164694Y-59172432D01*
X60151888Y-59269708D01*
X60146715Y-59309000D01*
X60147793Y-59317188D01*
X60163084Y-59433334D01*
X60165772Y-59453754D01*
X60175077Y-59476217D01*
X60211475Y-59564089D01*
X60221645Y-59588642D01*
X60226672Y-59595193D01*
X60284455Y-59670497D01*
X60310526Y-59704474D01*
X60325645Y-59716075D01*
X60326901Y-59717039D01*
X60368767Y-59774378D01*
X60372987Y-59845249D01*
X60338222Y-59907151D01*
X60326897Y-59916964D01*
X60310526Y-59929526D01*
X60221645Y-60045358D01*
X60218486Y-60052984D01*
X60218485Y-60052986D01*
X60185578Y-60132430D01*
X60165772Y-60180246D01*
X60146715Y-60325000D01*
X60165772Y-60469754D01*
X60170295Y-60480673D01*
X60215937Y-60590861D01*
X60221645Y-60604642D01*
X60310526Y-60720474D01*
X60313875Y-60723044D01*
X60347005Y-60783712D01*
X60341943Y-60854528D01*
X60299399Y-60911365D01*
X60232879Y-60936179D01*
X60223886Y-60936500D01*
X57308690Y-60936500D01*
X57240569Y-60916498D01*
X57194076Y-60862842D01*
X57183769Y-60826949D01*
X57182228Y-60815246D01*
X57149036Y-60735115D01*
X57129515Y-60687986D01*
X57129514Y-60687984D01*
X57126355Y-60680358D01*
X57052651Y-60584305D01*
X57042501Y-60571077D01*
X57042500Y-60571076D01*
X57037474Y-60564526D01*
X57030924Y-60559500D01*
X57030921Y-60559497D01*
X56928196Y-60480673D01*
X56928194Y-60480672D01*
X56921643Y-60475645D01*
X56786754Y-60419772D01*
X56642000Y-60400715D01*
X56633812Y-60401793D01*
X56505432Y-60418694D01*
X56505430Y-60418695D01*
X56497246Y-60419772D01*
X56449430Y-60439578D01*
X56369986Y-60472485D01*
X56369984Y-60472486D01*
X56362358Y-60475645D01*
X56246526Y-60564526D01*
X56241503Y-60571072D01*
X56241502Y-60571073D01*
X56233962Y-60580899D01*
X56176623Y-60622766D01*
X56105752Y-60626987D01*
X56043850Y-60592222D01*
X56034038Y-60580899D01*
X56026502Y-60571079D01*
X56021474Y-60564526D01*
X56014924Y-60559500D01*
X56014921Y-60559497D01*
X55912196Y-60480673D01*
X55912194Y-60480672D01*
X55905643Y-60475645D01*
X55770754Y-60419772D01*
X55626000Y-60400715D01*
X55617812Y-60401793D01*
X55489432Y-60418694D01*
X55489430Y-60418695D01*
X55481246Y-60419772D01*
X55433430Y-60439578D01*
X55353986Y-60472485D01*
X55353984Y-60472486D01*
X55346358Y-60475645D01*
X55230526Y-60564526D01*
X55141645Y-60680358D01*
X55138486Y-60687984D01*
X55138485Y-60687986D01*
X55118964Y-60735115D01*
X55085772Y-60815246D01*
X55066715Y-60960000D01*
X55067793Y-60968188D01*
X55077732Y-61043680D01*
X55085772Y-61104754D01*
X55101623Y-61143022D01*
X55130123Y-61211825D01*
X55141645Y-61239642D01*
X55167900Y-61273858D01*
X55225498Y-61348921D01*
X55230526Y-61355474D01*
X55237076Y-61360500D01*
X55237079Y-61360503D01*
X55339804Y-61439327D01*
X55346357Y-61444355D01*
X55481246Y-61500228D01*
X55489434Y-61501306D01*
X55498382Y-61502484D01*
X55626000Y-61519285D01*
X55634188Y-61518207D01*
X55762566Y-61501306D01*
X55770754Y-61500228D01*
X55905643Y-61444355D01*
X55912196Y-61439327D01*
X56014921Y-61360503D01*
X56014924Y-61360500D01*
X56021474Y-61355474D01*
X56029095Y-61345543D01*
X56034038Y-61339101D01*
X56091377Y-61297234D01*
X56162248Y-61293013D01*
X56224150Y-61327778D01*
X56233962Y-61339101D01*
X56241499Y-61348923D01*
X56246526Y-61355474D01*
X56251498Y-61359289D01*
X56273696Y-61389842D01*
X56274031Y-61390500D01*
X56277095Y-61399929D01*
X56285726Y-61411809D01*
X56290216Y-61417989D01*
X56300545Y-61434844D01*
X56310674Y-61454723D01*
X56333462Y-61477511D01*
X56333465Y-61477515D01*
X56505485Y-61649535D01*
X56505489Y-61649538D01*
X56528277Y-61672326D01*
X56544102Y-61680389D01*
X56548160Y-61682457D01*
X56565017Y-61692787D01*
X56583071Y-61705904D01*
X56592501Y-61708968D01*
X56592503Y-61708969D01*
X56604295Y-61712801D01*
X56622557Y-61720365D01*
X56633606Y-61725995D01*
X56633610Y-61725996D01*
X56642445Y-61730498D01*
X56652243Y-61732050D01*
X56652244Y-61732050D01*
X56658363Y-61733019D01*
X56664483Y-61733988D01*
X56683714Y-61738605D01*
X56704934Y-61745500D01*
X63581518Y-61745500D01*
X63649639Y-61765502D01*
X63658222Y-61771538D01*
X63728357Y-61825355D01*
X63863246Y-61881228D01*
X64008000Y-61900285D01*
X64016188Y-61899207D01*
X64144566Y-61882306D01*
X64152754Y-61881228D01*
X64287643Y-61825355D01*
X64297226Y-61818002D01*
X64396921Y-61741503D01*
X64396924Y-61741500D01*
X64403474Y-61736474D01*
X64492355Y-61620642D01*
X64495514Y-61613015D01*
X64495516Y-61613012D01*
X64509526Y-61579188D01*
X64554074Y-61523907D01*
X64621437Y-61501486D01*
X64642381Y-61502484D01*
X64761812Y-61518207D01*
X64770000Y-61519285D01*
X64778188Y-61518207D01*
X64906566Y-61501306D01*
X64914754Y-61500228D01*
X65049643Y-61444355D01*
X65056196Y-61439327D01*
X65158921Y-61360503D01*
X65158924Y-61360500D01*
X65165474Y-61355474D01*
X65170503Y-61348921D01*
X65228100Y-61273858D01*
X65254355Y-61239642D01*
X65265878Y-61211825D01*
X65303341Y-61121381D01*
X65347890Y-61066101D01*
X65415253Y-61043680D01*
X65484045Y-61061239D01*
X65532423Y-61113201D01*
X65536159Y-61121381D01*
X65573623Y-61211825D01*
X65585145Y-61239642D01*
X65611400Y-61273858D01*
X65668998Y-61348921D01*
X65674026Y-61355474D01*
X65680576Y-61360500D01*
X65680579Y-61360503D01*
X65783304Y-61439327D01*
X65789857Y-61444355D01*
X65924746Y-61500228D01*
X65932934Y-61501306D01*
X65941882Y-61502484D01*
X66069500Y-61519285D01*
X66077688Y-61518207D01*
X66206066Y-61501306D01*
X66214254Y-61500228D01*
X66349143Y-61444355D01*
X66355696Y-61439327D01*
X66458421Y-61360503D01*
X66458424Y-61360500D01*
X66464974Y-61355474D01*
X66470003Y-61348921D01*
X66527600Y-61273858D01*
X66553855Y-61239642D01*
X66565378Y-61211825D01*
X66593877Y-61143022D01*
X66609728Y-61104754D01*
X66617769Y-61043680D01*
X66627707Y-60968188D01*
X66628785Y-60960000D01*
X66615218Y-60856946D01*
X66626158Y-60786797D01*
X66673286Y-60733699D01*
X66740140Y-60714500D01*
X67822838Y-60714500D01*
X67890959Y-60734502D01*
X67911933Y-60751404D01*
X68294111Y-61133581D01*
X68301654Y-61143022D01*
X68302033Y-61142699D01*
X68307849Y-61149532D01*
X68312640Y-61157126D01*
X68319370Y-61163070D01*
X68319372Y-61163072D01*
X68352653Y-61192465D01*
X68358341Y-61197811D01*
X68369668Y-61209138D01*
X68373251Y-61211823D01*
X68373253Y-61211825D01*
X68377939Y-61215337D01*
X68385782Y-61221722D01*
X68420957Y-61252788D01*
X68429084Y-61256603D01*
X68431904Y-61258456D01*
X68445881Y-61266854D01*
X68448838Y-61268473D01*
X68456023Y-61273858D01*
X68464433Y-61277011D01*
X68464435Y-61277012D01*
X68499980Y-61290338D01*
X68509293Y-61294262D01*
X68551769Y-61314204D01*
X68560641Y-61315585D01*
X68563871Y-61316573D01*
X68579642Y-61320711D01*
X68582931Y-61321434D01*
X68591339Y-61324586D01*
X68627284Y-61327257D01*
X68638146Y-61328064D01*
X68648194Y-61329218D01*
X68656667Y-61330537D01*
X68656668Y-61330537D01*
X68661484Y-61331287D01*
X68676836Y-61331287D01*
X68686173Y-61331633D01*
X68735454Y-61335295D01*
X68744231Y-61333421D01*
X68752920Y-61332829D01*
X68767529Y-61331287D01*
X75593926Y-61331287D01*
X75656928Y-61348169D01*
X75659803Y-61349829D01*
X75666357Y-61354858D01*
X75801246Y-61410731D01*
X75946000Y-61429788D01*
X75954188Y-61428710D01*
X75974705Y-61426009D01*
X76090754Y-61410731D01*
X76225643Y-61354858D01*
X76232196Y-61349830D01*
X76334921Y-61271006D01*
X76334924Y-61271003D01*
X76341474Y-61265977D01*
X76430355Y-61150145D01*
X76439630Y-61127755D01*
X76483069Y-61022883D01*
X76486228Y-61015257D01*
X76496597Y-60936500D01*
X76497326Y-60930964D01*
X77631148Y-60930964D01*
X77644424Y-61133522D01*
X77645845Y-61139118D01*
X77645846Y-61139123D01*
X77686002Y-61297234D01*
X77694392Y-61330269D01*
X77696809Y-61335512D01*
X77731982Y-61411809D01*
X77779377Y-61514616D01*
X77782710Y-61519332D01*
X77890835Y-61672326D01*
X77896533Y-61680389D01*
X77900675Y-61684424D01*
X77947972Y-61730498D01*
X78041938Y-61822035D01*
X78210720Y-61934812D01*
X78216023Y-61937090D01*
X78216026Y-61937092D01*
X78304707Y-61975192D01*
X78397228Y-62014942D01*
X78470244Y-62031464D01*
X78589579Y-62058467D01*
X78589584Y-62058468D01*
X78595216Y-62059742D01*
X78600987Y-62059969D01*
X78600989Y-62059969D01*
X78660756Y-62062317D01*
X78798053Y-62067712D01*
X78898499Y-62053148D01*
X78993231Y-62039413D01*
X78993236Y-62039412D01*
X78998945Y-62038584D01*
X79004409Y-62036729D01*
X79004414Y-62036728D01*
X79185693Y-61975192D01*
X79185698Y-61975190D01*
X79191165Y-61973334D01*
X79368276Y-61874147D01*
X79430934Y-61822035D01*
X79519913Y-61748031D01*
X79524345Y-61744345D01*
X79590074Y-61665315D01*
X79650453Y-61592718D01*
X79650455Y-61592715D01*
X79654147Y-61588276D01*
X79745021Y-61426009D01*
X79750510Y-61416208D01*
X79750511Y-61416206D01*
X79753334Y-61411165D01*
X79755190Y-61405698D01*
X79755192Y-61405693D01*
X79816728Y-61224414D01*
X79816729Y-61224409D01*
X79818584Y-61218945D01*
X79819412Y-61213236D01*
X79819413Y-61213231D01*
X79843996Y-61043680D01*
X79847712Y-61018053D01*
X79849232Y-60960000D01*
X79830658Y-60757859D01*
X79829090Y-60752299D01*
X79777125Y-60568046D01*
X79777124Y-60568044D01*
X79775557Y-60562487D01*
X79764978Y-60541033D01*
X79688331Y-60385609D01*
X79685776Y-60380428D01*
X79564320Y-60217779D01*
X79415258Y-60079987D01*
X79410375Y-60076906D01*
X79410371Y-60076903D01*
X79248464Y-59974748D01*
X79243581Y-59971667D01*
X79055039Y-59896446D01*
X79049379Y-59895320D01*
X79049375Y-59895319D01*
X78861613Y-59857971D01*
X78861610Y-59857971D01*
X78855946Y-59856844D01*
X78850171Y-59856768D01*
X78850167Y-59856768D01*
X78748793Y-59855441D01*
X78652971Y-59854187D01*
X78647274Y-59855166D01*
X78647273Y-59855166D01*
X78539302Y-59873719D01*
X78452910Y-59888564D01*
X78262463Y-59958824D01*
X78088010Y-60062612D01*
X78083670Y-60066418D01*
X78083666Y-60066421D01*
X77953875Y-60180246D01*
X77935392Y-60196455D01*
X77809720Y-60355869D01*
X77807031Y-60360980D01*
X77807029Y-60360983D01*
X77776666Y-60418694D01*
X77715203Y-60535515D01*
X77655007Y-60729378D01*
X77631148Y-60930964D01*
X76497326Y-60930964D01*
X76504207Y-60878691D01*
X76505285Y-60870503D01*
X76491213Y-60763613D01*
X76487306Y-60733935D01*
X76487305Y-60733933D01*
X76486228Y-60725749D01*
X76438777Y-60611193D01*
X76433515Y-60598489D01*
X76433514Y-60598487D01*
X76430355Y-60590861D01*
X76425327Y-60584308D01*
X76425325Y-60584305D01*
X76397050Y-60547456D01*
X76371449Y-60481236D01*
X76385714Y-60411687D01*
X76397049Y-60394049D01*
X76425326Y-60357197D01*
X76425329Y-60357193D01*
X76430355Y-60350642D01*
X76440977Y-60325000D01*
X76483069Y-60223380D01*
X76486228Y-60215754D01*
X76505285Y-60071000D01*
X76501047Y-60038807D01*
X76487306Y-59934432D01*
X76487305Y-59934430D01*
X76486228Y-59926246D01*
X76457947Y-59857971D01*
X76433515Y-59798986D01*
X76433514Y-59798984D01*
X76430355Y-59791358D01*
X76372588Y-59716075D01*
X76346501Y-59682077D01*
X76346500Y-59682076D01*
X76341474Y-59675526D01*
X76334924Y-59670500D01*
X76334921Y-59670497D01*
X76232196Y-59591673D01*
X76232194Y-59591672D01*
X76225643Y-59586645D01*
X76090754Y-59530772D01*
X76065787Y-59527485D01*
X75954188Y-59512793D01*
X75946000Y-59511715D01*
X75937812Y-59512793D01*
X75809432Y-59529694D01*
X75809430Y-59529695D01*
X75801246Y-59530772D01*
X75755043Y-59549910D01*
X75673986Y-59583485D01*
X75673984Y-59583486D01*
X75666358Y-59586645D01*
X75550526Y-59675526D01*
X75461645Y-59791358D01*
X75458486Y-59798984D01*
X75458485Y-59798986D01*
X75434053Y-59857971D01*
X75405772Y-59926246D01*
X75404695Y-59934430D01*
X75404694Y-59934432D01*
X75390953Y-60038807D01*
X75386715Y-60071000D01*
X75387793Y-60079188D01*
X75401044Y-60179841D01*
X75390105Y-60249990D01*
X75342976Y-60303088D01*
X75276122Y-60322287D01*
X68961948Y-60322287D01*
X68893827Y-60302285D01*
X68872853Y-60285382D01*
X68490677Y-59903206D01*
X68483135Y-59893766D01*
X68482755Y-59894089D01*
X68476937Y-59887253D01*
X68472147Y-59879661D01*
X68432140Y-59844328D01*
X68426454Y-59838983D01*
X68415120Y-59827649D01*
X68406845Y-59821447D01*
X68399000Y-59815060D01*
X68370557Y-59789940D01*
X68363830Y-59783999D01*
X68355708Y-59780186D01*
X68352907Y-59778346D01*
X68338912Y-59769937D01*
X68335949Y-59768315D01*
X68328764Y-59762930D01*
X68320354Y-59759777D01*
X68320352Y-59759776D01*
X68284818Y-59746454D01*
X68275502Y-59742529D01*
X68233018Y-59722583D01*
X68224144Y-59721201D01*
X68220917Y-59720215D01*
X68205134Y-59716075D01*
X68201856Y-59715354D01*
X68193448Y-59712202D01*
X68179691Y-59711180D01*
X68146643Y-59708724D01*
X68136596Y-59707570D01*
X68128114Y-59706249D01*
X68128111Y-59706249D01*
X68123303Y-59705500D01*
X68107938Y-59705500D01*
X68098601Y-59705154D01*
X68082519Y-59703959D01*
X68049333Y-59701493D01*
X68040558Y-59703366D01*
X68031862Y-59703959D01*
X68017262Y-59705500D01*
X61330524Y-59705500D01*
X61262403Y-59685498D01*
X61215910Y-59631842D01*
X61205806Y-59561568D01*
X61214115Y-59531282D01*
X61243068Y-59461383D01*
X61243069Y-59461380D01*
X61246228Y-59453754D01*
X61248917Y-59433334D01*
X61264207Y-59317188D01*
X61265285Y-59309000D01*
X61260112Y-59269708D01*
X61247306Y-59172432D01*
X61247305Y-59172430D01*
X61246228Y-59164246D01*
X61198191Y-59048276D01*
X61193515Y-59036986D01*
X61193514Y-59036984D01*
X61190355Y-59029358D01*
X61185329Y-59022808D01*
X61181199Y-59015655D01*
X61183684Y-59014220D01*
X61163102Y-58960990D01*
X61177364Y-58891441D01*
X61226962Y-58840642D01*
X61288665Y-58824500D01*
X70111988Y-58824500D01*
X70180109Y-58844502D01*
X70226602Y-58898158D01*
X70236706Y-58968432D01*
X70228397Y-58998718D01*
X70206030Y-59052718D01*
X70172717Y-59133142D01*
X70171640Y-59141326D01*
X70171639Y-59141328D01*
X70163343Y-59204345D01*
X70153660Y-59277896D01*
X70154738Y-59286084D01*
X70168630Y-59391602D01*
X70172717Y-59422650D01*
X70175876Y-59430276D01*
X70218812Y-59533931D01*
X70228590Y-59557538D01*
X70317471Y-59673370D01*
X70324021Y-59678396D01*
X70324024Y-59678399D01*
X70412715Y-59746454D01*
X70433302Y-59762251D01*
X70568191Y-59818124D01*
X70712945Y-59837181D01*
X70721133Y-59836103D01*
X70849511Y-59819202D01*
X70857699Y-59818124D01*
X70992588Y-59762251D01*
X71013175Y-59746454D01*
X71101866Y-59678399D01*
X71101869Y-59678396D01*
X71108419Y-59673370D01*
X71197300Y-59557538D01*
X71207079Y-59533931D01*
X71250014Y-59430276D01*
X71253173Y-59422650D01*
X71257261Y-59391602D01*
X71271152Y-59286084D01*
X71272230Y-59277896D01*
X71262547Y-59204345D01*
X71254251Y-59141328D01*
X71254250Y-59141326D01*
X71253173Y-59133142D01*
X71219860Y-59052718D01*
X71197493Y-58998718D01*
X71189904Y-58928128D01*
X71221683Y-58864641D01*
X71282741Y-58828414D01*
X71313902Y-58824500D01*
X77629515Y-58824500D01*
X77697636Y-58844502D01*
X77743941Y-58897749D01*
X77779377Y-58974616D01*
X77896533Y-59140389D01*
X78041938Y-59282035D01*
X78210720Y-59394812D01*
X78216023Y-59397090D01*
X78216026Y-59397092D01*
X78391921Y-59472662D01*
X78397228Y-59474942D01*
X78470244Y-59491464D01*
X78589579Y-59518467D01*
X78589584Y-59518468D01*
X78595216Y-59519742D01*
X78600987Y-59519969D01*
X78600989Y-59519969D01*
X78660756Y-59522317D01*
X78798053Y-59527712D01*
X78900947Y-59512793D01*
X78993231Y-59499413D01*
X78993236Y-59499412D01*
X78998945Y-59498584D01*
X79004409Y-59496729D01*
X79004414Y-59496728D01*
X79185693Y-59435192D01*
X79185698Y-59435190D01*
X79191165Y-59433334D01*
X79196626Y-59430276D01*
X79265683Y-59391602D01*
X79368276Y-59334147D01*
X79430934Y-59282035D01*
X79519913Y-59208031D01*
X79524345Y-59204345D01*
X79654147Y-59048276D01*
X79753334Y-58871165D01*
X79755190Y-58865698D01*
X79755192Y-58865693D01*
X79816728Y-58684414D01*
X79816729Y-58684409D01*
X79818584Y-58678945D01*
X79819412Y-58673236D01*
X79819413Y-58673231D01*
X79847179Y-58481727D01*
X79847712Y-58478053D01*
X79849232Y-58420000D01*
X79830658Y-58217859D01*
X79829090Y-58212299D01*
X79777125Y-58028046D01*
X79777124Y-58028044D01*
X79775557Y-58022487D01*
X79772112Y-58015500D01*
X79688331Y-57845609D01*
X79688330Y-57845608D01*
X79685776Y-57840428D01*
X79564320Y-57677779D01*
X79415258Y-57539987D01*
X79410375Y-57536906D01*
X79410371Y-57536903D01*
X79248464Y-57434748D01*
X79243581Y-57431667D01*
X79055039Y-57356446D01*
X79049379Y-57355320D01*
X79049375Y-57355319D01*
X78861613Y-57317971D01*
X78861610Y-57317971D01*
X78855946Y-57316844D01*
X78850171Y-57316768D01*
X78850167Y-57316768D01*
X78748793Y-57315441D01*
X78652971Y-57314187D01*
X78647274Y-57315166D01*
X78647273Y-57315166D01*
X78458607Y-57347585D01*
X78452910Y-57348564D01*
X78262463Y-57418824D01*
X78088010Y-57522612D01*
X78083670Y-57526418D01*
X78083666Y-57526421D01*
X78063723Y-57543911D01*
X77935392Y-57656455D01*
X77809720Y-57815869D01*
X77807031Y-57820980D01*
X77807029Y-57820983D01*
X77796799Y-57840428D01*
X77741661Y-57945228D01*
X77740114Y-57948168D01*
X77690695Y-57999140D01*
X77628606Y-58015500D01*
X54147528Y-58015500D01*
X54079407Y-57995498D01*
X54032914Y-57941842D01*
X54022810Y-57871568D01*
X54052304Y-57806988D01*
X54099310Y-57773091D01*
X54101577Y-57772152D01*
X54127643Y-57761355D01*
X54230527Y-57682409D01*
X54236921Y-57677503D01*
X54236924Y-57677500D01*
X54243474Y-57672474D01*
X54332355Y-57556642D01*
X54337629Y-57543911D01*
X54385069Y-57429380D01*
X54388228Y-57421754D01*
X54397993Y-57347585D01*
X54406207Y-57285188D01*
X54407285Y-57277000D01*
X54388228Y-57132246D01*
X54332355Y-56997358D01*
X54243474Y-56881526D01*
X54236924Y-56876500D01*
X54236921Y-56876497D01*
X54134196Y-56797673D01*
X54134194Y-56797672D01*
X54127643Y-56792645D01*
X53992754Y-56736772D01*
X53848000Y-56717715D01*
X53839812Y-56718793D01*
X53711432Y-56735694D01*
X53711430Y-56735695D01*
X53703246Y-56736772D01*
X53690540Y-56742035D01*
X53575986Y-56789485D01*
X53575984Y-56789486D01*
X53568358Y-56792645D01*
X53452526Y-56881526D01*
X53363645Y-56997358D01*
X53307772Y-57132246D01*
X53288715Y-57277000D01*
X53289793Y-57285188D01*
X53298008Y-57347585D01*
X53307772Y-57421754D01*
X53310931Y-57429380D01*
X53358372Y-57543911D01*
X53363645Y-57556642D01*
X53452526Y-57672474D01*
X53459076Y-57677500D01*
X53459079Y-57677503D01*
X53465473Y-57682409D01*
X53568357Y-57761355D01*
X53594423Y-57772152D01*
X53596690Y-57773091D01*
X53651971Y-57817640D01*
X53674392Y-57885003D01*
X53656834Y-57953794D01*
X53604871Y-58002173D01*
X53548472Y-58015500D01*
X51910463Y-58015500D01*
X51842342Y-57995498D01*
X51797457Y-57945228D01*
X51748331Y-57845608D01*
X51748328Y-57845604D01*
X51745776Y-57840428D01*
X51624320Y-57677779D01*
X51475258Y-57539987D01*
X51470375Y-57536906D01*
X51470371Y-57536903D01*
X51308464Y-57434748D01*
X51303581Y-57431667D01*
X51115039Y-57356446D01*
X51109379Y-57355320D01*
X51109375Y-57355319D01*
X50921613Y-57317971D01*
X50921610Y-57317971D01*
X50915946Y-57316844D01*
X50910171Y-57316768D01*
X50910167Y-57316768D01*
X50808793Y-57315441D01*
X50712971Y-57314187D01*
X50707274Y-57315166D01*
X50707273Y-57315166D01*
X50518607Y-57347585D01*
X50512910Y-57348564D01*
X50322463Y-57418824D01*
X50148010Y-57522612D01*
X50143670Y-57526418D01*
X50143666Y-57526421D01*
X50123723Y-57543911D01*
X49995392Y-57656455D01*
X49869720Y-57815869D01*
X49867031Y-57820980D01*
X49867029Y-57820983D01*
X49819128Y-57912027D01*
X49775203Y-57995515D01*
X49715007Y-58189378D01*
X49691148Y-58390964D01*
X48514500Y-58390964D01*
X48514500Y-55850964D01*
X49691148Y-55850964D01*
X49704424Y-56053522D01*
X49705845Y-56059118D01*
X49705846Y-56059123D01*
X49726119Y-56138945D01*
X49754392Y-56250269D01*
X49756809Y-56255512D01*
X49794010Y-56336208D01*
X49839377Y-56434616D01*
X49956533Y-56600389D01*
X50101938Y-56742035D01*
X50270720Y-56854812D01*
X50276023Y-56857090D01*
X50276026Y-56857092D01*
X50364707Y-56895192D01*
X50457228Y-56934942D01*
X50530244Y-56951464D01*
X50649579Y-56978467D01*
X50649584Y-56978468D01*
X50655216Y-56979742D01*
X50660987Y-56979969D01*
X50660989Y-56979969D01*
X50720756Y-56982317D01*
X50858053Y-56987712D01*
X50958499Y-56973148D01*
X51053231Y-56959413D01*
X51053236Y-56959412D01*
X51058945Y-56958584D01*
X51064409Y-56956729D01*
X51064414Y-56956728D01*
X51245693Y-56895192D01*
X51245698Y-56895190D01*
X51251165Y-56893334D01*
X51428276Y-56794147D01*
X51433882Y-56789485D01*
X51579913Y-56668031D01*
X51584345Y-56664345D01*
X51714147Y-56508276D01*
X51803383Y-56348934D01*
X51854120Y-56299272D01*
X51913317Y-56284500D01*
X64851518Y-56284500D01*
X64919639Y-56304502D01*
X64928222Y-56310538D01*
X64998357Y-56364355D01*
X65133246Y-56420228D01*
X65278000Y-56439285D01*
X65286188Y-56438207D01*
X65414566Y-56421306D01*
X65422754Y-56420228D01*
X65557643Y-56364355D01*
X65627778Y-56310538D01*
X65693998Y-56284937D01*
X65704482Y-56284500D01*
X77629515Y-56284500D01*
X77697636Y-56304502D01*
X77743941Y-56357749D01*
X77746986Y-56364355D01*
X77779377Y-56434616D01*
X77896533Y-56600389D01*
X78041938Y-56742035D01*
X78210720Y-56854812D01*
X78216023Y-56857090D01*
X78216026Y-56857092D01*
X78304707Y-56895192D01*
X78397228Y-56934942D01*
X78470244Y-56951464D01*
X78589579Y-56978467D01*
X78589584Y-56978468D01*
X78595216Y-56979742D01*
X78600987Y-56979969D01*
X78600989Y-56979969D01*
X78660756Y-56982317D01*
X78798053Y-56987712D01*
X78898499Y-56973148D01*
X78993231Y-56959413D01*
X78993236Y-56959412D01*
X78998945Y-56958584D01*
X79004409Y-56956729D01*
X79004414Y-56956728D01*
X79185693Y-56895192D01*
X79185698Y-56895190D01*
X79191165Y-56893334D01*
X79368276Y-56794147D01*
X79373882Y-56789485D01*
X79519913Y-56668031D01*
X79524345Y-56664345D01*
X79654147Y-56508276D01*
X79753334Y-56331165D01*
X79755190Y-56325698D01*
X79755192Y-56325693D01*
X79816728Y-56144414D01*
X79816729Y-56144409D01*
X79818584Y-56138945D01*
X79819412Y-56133236D01*
X79819413Y-56133231D01*
X79847179Y-55941727D01*
X79847712Y-55938053D01*
X79849232Y-55880000D01*
X79830658Y-55677859D01*
X79829090Y-55672299D01*
X79777125Y-55488046D01*
X79777124Y-55488044D01*
X79775557Y-55482487D01*
X79772112Y-55475500D01*
X79688331Y-55305609D01*
X79688330Y-55305608D01*
X79685776Y-55300428D01*
X79564320Y-55137779D01*
X79415258Y-54999987D01*
X79410375Y-54996906D01*
X79410371Y-54996903D01*
X79248464Y-54894748D01*
X79243581Y-54891667D01*
X79055039Y-54816446D01*
X79049379Y-54815320D01*
X79049375Y-54815319D01*
X78861613Y-54777971D01*
X78861610Y-54777971D01*
X78855946Y-54776844D01*
X78850171Y-54776768D01*
X78850167Y-54776768D01*
X78748793Y-54775441D01*
X78652971Y-54774187D01*
X78647274Y-54775166D01*
X78647273Y-54775166D01*
X78458607Y-54807585D01*
X78452910Y-54808564D01*
X78262463Y-54878824D01*
X78088010Y-54982612D01*
X78083670Y-54986418D01*
X78083666Y-54986421D01*
X78063723Y-55003911D01*
X77935392Y-55116455D01*
X77809720Y-55275869D01*
X77807031Y-55280980D01*
X77807029Y-55280983D01*
X77786125Y-55320715D01*
X77741661Y-55405228D01*
X77740114Y-55408168D01*
X77690695Y-55459140D01*
X77628606Y-55475500D01*
X66680678Y-55475500D01*
X66612557Y-55455498D01*
X66566064Y-55401842D01*
X66555960Y-55331568D01*
X66564270Y-55301280D01*
X66577068Y-55270383D01*
X66580228Y-55262754D01*
X66599285Y-55118000D01*
X66584265Y-55003911D01*
X66581306Y-54981432D01*
X66581305Y-54981430D01*
X66580228Y-54973246D01*
X66524355Y-54838358D01*
X66435474Y-54722526D01*
X66428924Y-54717500D01*
X66428921Y-54717497D01*
X66326196Y-54638673D01*
X66326194Y-54638672D01*
X66319643Y-54633645D01*
X66184754Y-54577772D01*
X66040000Y-54558715D01*
X66031812Y-54559793D01*
X65903432Y-54576694D01*
X65903430Y-54576695D01*
X65895246Y-54577772D01*
X65886664Y-54581327D01*
X65767986Y-54630485D01*
X65767984Y-54630486D01*
X65760358Y-54633645D01*
X65644526Y-54722526D01*
X65555645Y-54838358D01*
X65499772Y-54973246D01*
X65498695Y-54981430D01*
X65498694Y-54981432D01*
X65495735Y-55003911D01*
X65480715Y-55118000D01*
X65483929Y-55142409D01*
X65490016Y-55188648D01*
X65479077Y-55258796D01*
X65431949Y-55311895D01*
X65363595Y-55331085D01*
X65348650Y-55330016D01*
X65278000Y-55320715D01*
X65269812Y-55321793D01*
X65141432Y-55338694D01*
X65141430Y-55338695D01*
X65133246Y-55339772D01*
X64998358Y-55395645D01*
X64928220Y-55449464D01*
X64862001Y-55475063D01*
X64851518Y-55475500D01*
X51910463Y-55475500D01*
X51842342Y-55455498D01*
X51797457Y-55405228D01*
X51792035Y-55394232D01*
X51765178Y-55339772D01*
X51748331Y-55305608D01*
X51748328Y-55305604D01*
X51745776Y-55300428D01*
X51624320Y-55137779D01*
X51475258Y-54999987D01*
X51470375Y-54996906D01*
X51470371Y-54996903D01*
X51308464Y-54894748D01*
X51303581Y-54891667D01*
X51115039Y-54816446D01*
X51109379Y-54815320D01*
X51109375Y-54815319D01*
X50921613Y-54777971D01*
X50921610Y-54777971D01*
X50915946Y-54776844D01*
X50910171Y-54776768D01*
X50910167Y-54776768D01*
X50808793Y-54775441D01*
X50712971Y-54774187D01*
X50707274Y-54775166D01*
X50707273Y-54775166D01*
X50518607Y-54807585D01*
X50512910Y-54808564D01*
X50322463Y-54878824D01*
X50148010Y-54982612D01*
X50143670Y-54986418D01*
X50143666Y-54986421D01*
X50123723Y-55003911D01*
X49995392Y-55116455D01*
X49869720Y-55275869D01*
X49867031Y-55280980D01*
X49867029Y-55280983D01*
X49846125Y-55320715D01*
X49775203Y-55455515D01*
X49715007Y-55649378D01*
X49691148Y-55850964D01*
X48514500Y-55850964D01*
X48514500Y-53310964D01*
X49691148Y-53310964D01*
X49704424Y-53513522D01*
X49705845Y-53519118D01*
X49705846Y-53519123D01*
X49751549Y-53699075D01*
X49754392Y-53710269D01*
X49756809Y-53715512D01*
X49794010Y-53796208D01*
X49839377Y-53894616D01*
X49956533Y-54060389D01*
X50101938Y-54202035D01*
X50270720Y-54314812D01*
X50276023Y-54317090D01*
X50276026Y-54317092D01*
X50426271Y-54381642D01*
X50457228Y-54394942D01*
X50530244Y-54411464D01*
X50649579Y-54438467D01*
X50649584Y-54438468D01*
X50655216Y-54439742D01*
X50660987Y-54439969D01*
X50660989Y-54439969D01*
X50720756Y-54442317D01*
X50858053Y-54447712D01*
X50958499Y-54433148D01*
X51053231Y-54419413D01*
X51053236Y-54419412D01*
X51058945Y-54418584D01*
X51064409Y-54416729D01*
X51064414Y-54416728D01*
X51245693Y-54355192D01*
X51245698Y-54355190D01*
X51251165Y-54353334D01*
X51428276Y-54254147D01*
X51437166Y-54246754D01*
X51579913Y-54128031D01*
X51584345Y-54124345D01*
X51602929Y-54102000D01*
X71449715Y-54102000D01*
X71450793Y-54110188D01*
X71462885Y-54202035D01*
X71468772Y-54246754D01*
X71488578Y-54294570D01*
X71511750Y-54350510D01*
X71524645Y-54381642D01*
X71613526Y-54497474D01*
X71620076Y-54502500D01*
X71620079Y-54502503D01*
X71722804Y-54581327D01*
X71729357Y-54586355D01*
X71864246Y-54642228D01*
X72009000Y-54661285D01*
X72017188Y-54660207D01*
X72145566Y-54643306D01*
X72153754Y-54642228D01*
X72288643Y-54586355D01*
X72295196Y-54581327D01*
X72397921Y-54502503D01*
X72397924Y-54502500D01*
X72404474Y-54497474D01*
X72493355Y-54381642D01*
X72506251Y-54350510D01*
X72529422Y-54294570D01*
X72549228Y-54246754D01*
X72555116Y-54202035D01*
X72567207Y-54110188D01*
X72568285Y-54102000D01*
X72562807Y-54060389D01*
X72550306Y-53965432D01*
X72550305Y-53965430D01*
X72549228Y-53957246D01*
X72493355Y-53822358D01*
X72448915Y-53764442D01*
X72409501Y-53713077D01*
X72409500Y-53713076D01*
X72404474Y-53706526D01*
X72397924Y-53701500D01*
X72397921Y-53701497D01*
X72295196Y-53622673D01*
X72295194Y-53622672D01*
X72288643Y-53617645D01*
X72153754Y-53561772D01*
X72009000Y-53542715D01*
X72000812Y-53543793D01*
X71872432Y-53560694D01*
X71872430Y-53560695D01*
X71864246Y-53561772D01*
X71818495Y-53580723D01*
X71736986Y-53614485D01*
X71736984Y-53614486D01*
X71729358Y-53617645D01*
X71613526Y-53706526D01*
X71524645Y-53822358D01*
X71468772Y-53957246D01*
X71467695Y-53965430D01*
X71467694Y-53965432D01*
X71455193Y-54060389D01*
X71449715Y-54102000D01*
X51602929Y-54102000D01*
X51714147Y-53968276D01*
X51813334Y-53791165D01*
X51815190Y-53785698D01*
X51815192Y-53785693D01*
X51876728Y-53604414D01*
X51876729Y-53604409D01*
X51878584Y-53598945D01*
X51879412Y-53593236D01*
X51879413Y-53593231D01*
X51907179Y-53401727D01*
X51907712Y-53398053D01*
X51909232Y-53340000D01*
X51890658Y-53137859D01*
X51888844Y-53131426D01*
X51837125Y-52948046D01*
X51837124Y-52948044D01*
X51835557Y-52942487D01*
X51832112Y-52935500D01*
X51748331Y-52765609D01*
X51745776Y-52760428D01*
X51726277Y-52734315D01*
X51697467Y-52695734D01*
X51624320Y-52597779D01*
X51475258Y-52459987D01*
X51470375Y-52456906D01*
X51470371Y-52456903D01*
X51308464Y-52354748D01*
X51303581Y-52351667D01*
X51115039Y-52276446D01*
X51109379Y-52275320D01*
X51109375Y-52275319D01*
X50921613Y-52237971D01*
X50921610Y-52237971D01*
X50915946Y-52236844D01*
X50910171Y-52236768D01*
X50910167Y-52236768D01*
X50808793Y-52235441D01*
X50712971Y-52234187D01*
X50707274Y-52235166D01*
X50707273Y-52235166D01*
X50527558Y-52266047D01*
X50512910Y-52268564D01*
X50322463Y-52338824D01*
X50317502Y-52341776D01*
X50317501Y-52341776D01*
X50308672Y-52347029D01*
X50148010Y-52442612D01*
X50143670Y-52446418D01*
X50143666Y-52446421D01*
X49999733Y-52572648D01*
X49995392Y-52576455D01*
X49869720Y-52735869D01*
X49867031Y-52740980D01*
X49867029Y-52740983D01*
X49819128Y-52832027D01*
X49775203Y-52915515D01*
X49715007Y-53109378D01*
X49691148Y-53310964D01*
X48514500Y-53310964D01*
X48514500Y-49924933D01*
X49695500Y-49924933D01*
X49695501Y-51675066D01*
X49710266Y-51749301D01*
X49766516Y-51833484D01*
X49850699Y-51889734D01*
X49924933Y-51904500D01*
X50799858Y-51904500D01*
X51675066Y-51904499D01*
X51710818Y-51897388D01*
X51737126Y-51892156D01*
X51737128Y-51892155D01*
X51749301Y-51889734D01*
X51759621Y-51882839D01*
X51759622Y-51882838D01*
X51823168Y-51840377D01*
X51833484Y-51833484D01*
X51889734Y-51749301D01*
X51904500Y-51675067D01*
X51904500Y-51430500D01*
X51924502Y-51362379D01*
X51978158Y-51315886D01*
X52030500Y-51304500D01*
X53398059Y-51304500D01*
X53466180Y-51324502D01*
X53512673Y-51378158D01*
X53522777Y-51448432D01*
X53493283Y-51513012D01*
X53474764Y-51530462D01*
X53452526Y-51547526D01*
X53363645Y-51663358D01*
X53360486Y-51670984D01*
X53360485Y-51670986D01*
X53350298Y-51695579D01*
X53307772Y-51798246D01*
X53306695Y-51806430D01*
X53306694Y-51806432D01*
X53295409Y-51892155D01*
X53288715Y-51943000D01*
X53307772Y-52087754D01*
X53363645Y-52222642D01*
X53368673Y-52229195D01*
X53368675Y-52229198D01*
X53396950Y-52266047D01*
X53422551Y-52332267D01*
X53408286Y-52401816D01*
X53396951Y-52419454D01*
X53368674Y-52456306D01*
X53368671Y-52456310D01*
X53363645Y-52462861D01*
X53360486Y-52470487D01*
X53360485Y-52470489D01*
X53341121Y-52517237D01*
X53307772Y-52597749D01*
X53288715Y-52742503D01*
X53307772Y-52887257D01*
X53317159Y-52909918D01*
X53353201Y-52996930D01*
X53363645Y-53022145D01*
X53452526Y-53137977D01*
X53459076Y-53143003D01*
X53459079Y-53143006D01*
X53561804Y-53221830D01*
X53568357Y-53226858D01*
X53703246Y-53282731D01*
X53790894Y-53294270D01*
X53855821Y-53322992D01*
X53863543Y-53330096D01*
X54114171Y-53580723D01*
X54204774Y-53671326D01*
X54224661Y-53681459D01*
X54241519Y-53691791D01*
X54259568Y-53704904D01*
X54269003Y-53707969D01*
X54269004Y-53707970D01*
X54280793Y-53711801D01*
X54299057Y-53719366D01*
X54318942Y-53729498D01*
X54340466Y-53732907D01*
X54340990Y-53732990D01*
X54360215Y-53737606D01*
X54369630Y-53740665D01*
X54381431Y-53744499D01*
X54413659Y-53744499D01*
X54413663Y-53744500D01*
X63153534Y-53744500D01*
X63162966Y-53741435D01*
X63162968Y-53741435D01*
X63174755Y-53737605D01*
X63193981Y-53732989D01*
X63206230Y-53731049D01*
X63216023Y-53729498D01*
X63235907Y-53719366D01*
X63254173Y-53711801D01*
X63265964Y-53707970D01*
X63275397Y-53704905D01*
X63293457Y-53691784D01*
X63310314Y-53681454D01*
X63330191Y-53671326D01*
X63352979Y-53648538D01*
X63352983Y-53648535D01*
X63690554Y-53310964D01*
X77631148Y-53310964D01*
X77644424Y-53513522D01*
X77645845Y-53519118D01*
X77645846Y-53519123D01*
X77691549Y-53699075D01*
X77694392Y-53710269D01*
X77696809Y-53715512D01*
X77734010Y-53796208D01*
X77779377Y-53894616D01*
X77896533Y-54060389D01*
X78041938Y-54202035D01*
X78210720Y-54314812D01*
X78216023Y-54317090D01*
X78216026Y-54317092D01*
X78366271Y-54381642D01*
X78397228Y-54394942D01*
X78470244Y-54411464D01*
X78589579Y-54438467D01*
X78589584Y-54438468D01*
X78595216Y-54439742D01*
X78600987Y-54439969D01*
X78600989Y-54439969D01*
X78660756Y-54442317D01*
X78798053Y-54447712D01*
X78898499Y-54433148D01*
X78993231Y-54419413D01*
X78993236Y-54419412D01*
X78998945Y-54418584D01*
X79004409Y-54416729D01*
X79004414Y-54416728D01*
X79185693Y-54355192D01*
X79185698Y-54355190D01*
X79191165Y-54353334D01*
X79368276Y-54254147D01*
X79377166Y-54246754D01*
X79519913Y-54128031D01*
X79524345Y-54124345D01*
X79654147Y-53968276D01*
X79753334Y-53791165D01*
X79755190Y-53785698D01*
X79755192Y-53785693D01*
X79816728Y-53604414D01*
X79816729Y-53604409D01*
X79818584Y-53598945D01*
X79819412Y-53593236D01*
X79819413Y-53593231D01*
X79847179Y-53401727D01*
X79847712Y-53398053D01*
X79849232Y-53340000D01*
X79830658Y-53137859D01*
X79828844Y-53131426D01*
X79777125Y-52948046D01*
X79777124Y-52948044D01*
X79775557Y-52942487D01*
X79772112Y-52935500D01*
X79688331Y-52765609D01*
X79685776Y-52760428D01*
X79666277Y-52734315D01*
X79637467Y-52695734D01*
X79564320Y-52597779D01*
X79415258Y-52459987D01*
X79410375Y-52456906D01*
X79410371Y-52456903D01*
X79248464Y-52354748D01*
X79243581Y-52351667D01*
X79055039Y-52276446D01*
X79049379Y-52275320D01*
X79049375Y-52275319D01*
X78861613Y-52237971D01*
X78861610Y-52237971D01*
X78855946Y-52236844D01*
X78850171Y-52236768D01*
X78850167Y-52236768D01*
X78748793Y-52235441D01*
X78652971Y-52234187D01*
X78647274Y-52235166D01*
X78647273Y-52235166D01*
X78467558Y-52266047D01*
X78452910Y-52268564D01*
X78262463Y-52338824D01*
X78257502Y-52341776D01*
X78257501Y-52341776D01*
X78248672Y-52347029D01*
X78088010Y-52442612D01*
X78083670Y-52446418D01*
X78083666Y-52446421D01*
X77939733Y-52572648D01*
X77935392Y-52576455D01*
X77809720Y-52735869D01*
X77807031Y-52740980D01*
X77807029Y-52740983D01*
X77759128Y-52832027D01*
X77715203Y-52915515D01*
X77655007Y-53109378D01*
X77631148Y-53310964D01*
X63690554Y-53310964D01*
X63904509Y-53097009D01*
X63966821Y-53062983D01*
X63977152Y-53061183D01*
X64064807Y-53049643D01*
X64199696Y-52993770D01*
X64206249Y-52988742D01*
X64308974Y-52909918D01*
X64308977Y-52909915D01*
X64315527Y-52904889D01*
X64404408Y-52789057D01*
X64417254Y-52758046D01*
X64457122Y-52661795D01*
X64460281Y-52654169D01*
X64468222Y-52593855D01*
X64478260Y-52517603D01*
X64479338Y-52509415D01*
X64467495Y-52419454D01*
X64461359Y-52372847D01*
X64461358Y-52372845D01*
X64460281Y-52364661D01*
X64434346Y-52302049D01*
X64426757Y-52231459D01*
X64458536Y-52167972D01*
X64474050Y-52153868D01*
X64538691Y-52104267D01*
X64545241Y-52099241D01*
X64554056Y-52087754D01*
X64629095Y-51989960D01*
X64634122Y-51983409D01*
X64640348Y-51968380D01*
X64686836Y-51856147D01*
X64689995Y-51848521D01*
X64693199Y-51824188D01*
X64707974Y-51711955D01*
X64709052Y-51703767D01*
X64689995Y-51559013D01*
X64670941Y-51513012D01*
X64656736Y-51478718D01*
X64649147Y-51408128D01*
X64680926Y-51344641D01*
X64741984Y-51308414D01*
X64773145Y-51304500D01*
X74368053Y-51304500D01*
X74436174Y-51324502D01*
X74482667Y-51378158D01*
X74492771Y-51448432D01*
X74468015Y-51507205D01*
X74450672Y-51529806D01*
X74450670Y-51529809D01*
X74445645Y-51536358D01*
X74442486Y-51543984D01*
X74442485Y-51543986D01*
X74438305Y-51554077D01*
X74389772Y-51671246D01*
X74388695Y-51679430D01*
X74388694Y-51679432D01*
X74379496Y-51749301D01*
X74370715Y-51816000D01*
X74371793Y-51824188D01*
X74388513Y-51951188D01*
X74389772Y-51960754D01*
X74398458Y-51981723D01*
X74442378Y-52087754D01*
X74445645Y-52095642D01*
X74534526Y-52211474D01*
X74541076Y-52216500D01*
X74541079Y-52216503D01*
X74619198Y-52276446D01*
X74650357Y-52300355D01*
X74785246Y-52356228D01*
X74930000Y-52375285D01*
X74938188Y-52374207D01*
X74948519Y-52372847D01*
X75074754Y-52356228D01*
X75209643Y-52300355D01*
X75240802Y-52276446D01*
X75318921Y-52216503D01*
X75318924Y-52216500D01*
X75325474Y-52211474D01*
X75414355Y-52095642D01*
X75417623Y-52087754D01*
X75461542Y-51981723D01*
X75470228Y-51960754D01*
X75471488Y-51951188D01*
X75488207Y-51824188D01*
X75489285Y-51816000D01*
X75480504Y-51749301D01*
X75471306Y-51679432D01*
X75471305Y-51679430D01*
X75470228Y-51671246D01*
X75421695Y-51554077D01*
X75417515Y-51543986D01*
X75417514Y-51543984D01*
X75414355Y-51536358D01*
X75409330Y-51529809D01*
X75409328Y-51529806D01*
X75391985Y-51507205D01*
X75366384Y-51440985D01*
X75380648Y-51371436D01*
X75430249Y-51320639D01*
X75491947Y-51304500D01*
X77509501Y-51304500D01*
X77577622Y-51324502D01*
X77624115Y-51378158D01*
X77635501Y-51430500D01*
X77635501Y-51675066D01*
X77650266Y-51749301D01*
X77706516Y-51833484D01*
X77790699Y-51889734D01*
X77864933Y-51904500D01*
X78739858Y-51904500D01*
X79615066Y-51904499D01*
X79650818Y-51897388D01*
X79677126Y-51892156D01*
X79677128Y-51892155D01*
X79689301Y-51889734D01*
X79699621Y-51882839D01*
X79699622Y-51882838D01*
X79763168Y-51840377D01*
X79773484Y-51833484D01*
X79829734Y-51749301D01*
X79844500Y-51675067D01*
X79844499Y-49924934D01*
X79829734Y-49850699D01*
X79773484Y-49766516D01*
X79689301Y-49710266D01*
X79615067Y-49695500D01*
X78740142Y-49695500D01*
X77864934Y-49695501D01*
X77829182Y-49702612D01*
X77802874Y-49707844D01*
X77802872Y-49707845D01*
X77790699Y-49710266D01*
X77780379Y-49717161D01*
X77780378Y-49717162D01*
X77719985Y-49757516D01*
X77706516Y-49766516D01*
X77650266Y-49850699D01*
X77635500Y-49924933D01*
X77635500Y-50169500D01*
X77615498Y-50237621D01*
X77561842Y-50284114D01*
X77509500Y-50295500D01*
X66456706Y-50295500D01*
X66388585Y-50275498D01*
X66342092Y-50221842D01*
X66331784Y-50153054D01*
X66344207Y-50058689D01*
X66344207Y-50058688D01*
X66345285Y-50050500D01*
X66328754Y-49924933D01*
X66327306Y-49913932D01*
X66327305Y-49913930D01*
X66326228Y-49905746D01*
X66299151Y-49840378D01*
X66273515Y-49778486D01*
X66273514Y-49778484D01*
X66270355Y-49770858D01*
X66222003Y-49707844D01*
X66186501Y-49661577D01*
X66186500Y-49661576D01*
X66181474Y-49655026D01*
X66174924Y-49650000D01*
X66174921Y-49649997D01*
X66072196Y-49571173D01*
X66072194Y-49571172D01*
X66065643Y-49566145D01*
X65930754Y-49510272D01*
X65786000Y-49491215D01*
X65777812Y-49492293D01*
X65649432Y-49509194D01*
X65649430Y-49509195D01*
X65641246Y-49510272D01*
X65593430Y-49530078D01*
X65513986Y-49562985D01*
X65513984Y-49562986D01*
X65506358Y-49566145D01*
X65390526Y-49655026D01*
X65301645Y-49770858D01*
X65298486Y-49778484D01*
X65298485Y-49778486D01*
X65272849Y-49840378D01*
X65245772Y-49905746D01*
X65244695Y-49913930D01*
X65244694Y-49913932D01*
X65243246Y-49924933D01*
X65226715Y-50050500D01*
X65227793Y-50058688D01*
X65227793Y-50058689D01*
X65240216Y-50153054D01*
X65229276Y-50223203D01*
X65182148Y-50276301D01*
X65115294Y-50295500D01*
X58727947Y-50295500D01*
X58659826Y-50275498D01*
X58613333Y-50221842D01*
X58603229Y-50151568D01*
X58627985Y-50092795D01*
X58645328Y-50070194D01*
X58645330Y-50070191D01*
X58650355Y-50063642D01*
X58659191Y-50042312D01*
X58703069Y-49936380D01*
X58706228Y-49928754D01*
X58708180Y-49913932D01*
X58724207Y-49792188D01*
X58725285Y-49784000D01*
X58709168Y-49661577D01*
X58707306Y-49647432D01*
X58707305Y-49647430D01*
X58706228Y-49639246D01*
X58654114Y-49513432D01*
X58653515Y-49511986D01*
X58653514Y-49511984D01*
X58650355Y-49504358D01*
X58561474Y-49388526D01*
X58554924Y-49383500D01*
X58554921Y-49383497D01*
X58452196Y-49304673D01*
X58452194Y-49304672D01*
X58445643Y-49299645D01*
X58310754Y-49243772D01*
X58166000Y-49224715D01*
X58157812Y-49225793D01*
X58029432Y-49242694D01*
X58029430Y-49242695D01*
X58021246Y-49243772D01*
X57973430Y-49263578D01*
X57893986Y-49296485D01*
X57893984Y-49296486D01*
X57886358Y-49299645D01*
X57770526Y-49388526D01*
X57681645Y-49504358D01*
X57678486Y-49511984D01*
X57678485Y-49511986D01*
X57677886Y-49513432D01*
X57625772Y-49639246D01*
X57624695Y-49647430D01*
X57624694Y-49647432D01*
X57622832Y-49661577D01*
X57606715Y-49784000D01*
X57607793Y-49792188D01*
X57623821Y-49913932D01*
X57625772Y-49928754D01*
X57628931Y-49936380D01*
X57672810Y-50042312D01*
X57681645Y-50063642D01*
X57686670Y-50070191D01*
X57686672Y-50070194D01*
X57704015Y-50092795D01*
X57729616Y-50159015D01*
X57715352Y-50228564D01*
X57665751Y-50279361D01*
X57604053Y-50295500D01*
X52030499Y-50295500D01*
X51962378Y-50275498D01*
X51915885Y-50221842D01*
X51904499Y-50169500D01*
X51904499Y-49924934D01*
X51889734Y-49850699D01*
X51833484Y-49766516D01*
X51749301Y-49710266D01*
X51675067Y-49695500D01*
X50800142Y-49695500D01*
X49924934Y-49695501D01*
X49889182Y-49702612D01*
X49862874Y-49707844D01*
X49862872Y-49707845D01*
X49850699Y-49710266D01*
X49840379Y-49717161D01*
X49840378Y-49717162D01*
X49779985Y-49757516D01*
X49766516Y-49766516D01*
X49710266Y-49850699D01*
X49695500Y-49924933D01*
X48514500Y-49924933D01*
X48514500Y-48313000D01*
X58061715Y-48313000D01*
X58080772Y-48457754D01*
X58136645Y-48592642D01*
X58225526Y-48708474D01*
X58232076Y-48713500D01*
X58232079Y-48713503D01*
X58334804Y-48792327D01*
X58341357Y-48797355D01*
X58476246Y-48853228D01*
X58621000Y-48872285D01*
X58629188Y-48871207D01*
X58757566Y-48854306D01*
X58765754Y-48853228D01*
X58900643Y-48797355D01*
X58907196Y-48792327D01*
X59009921Y-48713503D01*
X59009924Y-48713500D01*
X59016474Y-48708474D01*
X59105355Y-48592642D01*
X59161228Y-48457754D01*
X59180285Y-48313000D01*
X59161228Y-48168246D01*
X59105355Y-48033358D01*
X59016474Y-47917526D01*
X59009924Y-47912500D01*
X59009921Y-47912497D01*
X58907196Y-47833673D01*
X58907194Y-47833672D01*
X58900643Y-47828645D01*
X58765754Y-47772772D01*
X58621000Y-47753715D01*
X58612812Y-47754793D01*
X58484432Y-47771694D01*
X58484430Y-47771695D01*
X58476246Y-47772772D01*
X58428430Y-47792578D01*
X58348986Y-47825485D01*
X58348984Y-47825486D01*
X58341358Y-47828645D01*
X58225526Y-47917526D01*
X58136645Y-48033358D01*
X58080772Y-48168246D01*
X58061715Y-48313000D01*
X48514500Y-48313000D01*
X48514500Y-40683233D01*
X51434906Y-40683233D01*
X51461102Y-40957792D01*
X51526657Y-41225694D01*
X51630199Y-41481326D01*
X51632500Y-41485256D01*
X51632503Y-41485262D01*
X51767255Y-41715403D01*
X51767260Y-41715410D01*
X51769558Y-41719335D01*
X51772405Y-41722895D01*
X51938420Y-41930485D01*
X51941816Y-41934732D01*
X51945157Y-41937853D01*
X52042812Y-42029077D01*
X52143364Y-42123008D01*
X52369979Y-42280216D01*
X52374055Y-42282244D01*
X52374057Y-42282245D01*
X52612827Y-42401032D01*
X52612830Y-42401033D01*
X52616914Y-42403065D01*
X52878998Y-42488980D01*
X52883489Y-42489760D01*
X52883490Y-42489760D01*
X53146957Y-42535506D01*
X53146965Y-42535507D01*
X53150738Y-42536162D01*
X53154575Y-42536353D01*
X53236305Y-42540422D01*
X53236313Y-42540422D01*
X53237876Y-42540500D01*
X53410070Y-42540500D01*
X53412338Y-42540335D01*
X53412350Y-42540335D01*
X53546603Y-42530594D01*
X53615083Y-42525625D01*
X53619538Y-42524641D01*
X53619541Y-42524641D01*
X53879947Y-42467148D01*
X53879950Y-42467147D01*
X53884403Y-42466164D01*
X54011531Y-42418000D01*
X69544715Y-42418000D01*
X69545793Y-42426188D01*
X69560821Y-42540335D01*
X69563772Y-42562754D01*
X69619645Y-42697642D01*
X69708526Y-42813474D01*
X69715076Y-42818500D01*
X69715079Y-42818503D01*
X69817804Y-42897327D01*
X69824357Y-42902355D01*
X69959246Y-42958228D01*
X70104000Y-42977285D01*
X70112188Y-42976207D01*
X70240566Y-42959306D01*
X70248754Y-42958228D01*
X70383643Y-42902355D01*
X70390196Y-42897327D01*
X70492921Y-42818503D01*
X70492924Y-42818500D01*
X70499474Y-42813474D01*
X70588355Y-42697642D01*
X70644228Y-42562754D01*
X70647180Y-42540335D01*
X70662207Y-42426188D01*
X70663285Y-42418000D01*
X70660159Y-42394255D01*
X70645306Y-42281432D01*
X70645305Y-42281430D01*
X70644228Y-42273246D01*
X70588355Y-42138358D01*
X70499474Y-42022526D01*
X70492924Y-42017500D01*
X70492921Y-42017497D01*
X70390196Y-41938673D01*
X70390194Y-41938672D01*
X70383643Y-41933645D01*
X70248754Y-41877772D01*
X70104000Y-41858715D01*
X70095812Y-41859793D01*
X69967432Y-41876694D01*
X69967430Y-41876695D01*
X69959246Y-41877772D01*
X69911430Y-41897578D01*
X69831986Y-41930485D01*
X69831984Y-41930486D01*
X69824358Y-41933645D01*
X69708526Y-42022526D01*
X69619645Y-42138358D01*
X69563772Y-42273246D01*
X69562695Y-42281430D01*
X69562694Y-42281432D01*
X69547841Y-42394255D01*
X69544715Y-42418000D01*
X54011531Y-42418000D01*
X54142319Y-42368449D01*
X54298980Y-42281432D01*
X54379435Y-42236743D01*
X54379436Y-42236742D01*
X54383428Y-42234525D01*
X54602678Y-42067198D01*
X54651264Y-42017497D01*
X54792283Y-41873242D01*
X54792287Y-41873237D01*
X54795477Y-41869974D01*
X54957787Y-41646984D01*
X55086206Y-41402899D01*
X55178045Y-41142832D01*
X55214516Y-40957792D01*
X55230499Y-40876704D01*
X55230500Y-40876698D01*
X55231380Y-40872232D01*
X55231607Y-40867676D01*
X55240790Y-40683233D01*
X74294906Y-40683233D01*
X74321102Y-40957792D01*
X74386657Y-41225694D01*
X74490199Y-41481326D01*
X74492500Y-41485256D01*
X74492503Y-41485262D01*
X74627255Y-41715403D01*
X74627260Y-41715410D01*
X74629558Y-41719335D01*
X74632405Y-41722895D01*
X74798420Y-41930485D01*
X74801816Y-41934732D01*
X74805157Y-41937853D01*
X74902812Y-42029077D01*
X75003364Y-42123008D01*
X75229979Y-42280216D01*
X75234055Y-42282244D01*
X75234057Y-42282245D01*
X75472827Y-42401032D01*
X75472830Y-42401033D01*
X75476914Y-42403065D01*
X75738998Y-42488980D01*
X75743489Y-42489760D01*
X75743490Y-42489760D01*
X76006957Y-42535506D01*
X76006965Y-42535507D01*
X76010738Y-42536162D01*
X76014575Y-42536353D01*
X76096305Y-42540422D01*
X76096313Y-42540422D01*
X76097876Y-42540500D01*
X76270070Y-42540500D01*
X76272338Y-42540335D01*
X76272350Y-42540335D01*
X76406603Y-42530594D01*
X76475083Y-42525625D01*
X76479538Y-42524641D01*
X76479541Y-42524641D01*
X76739947Y-42467148D01*
X76739950Y-42467147D01*
X76744403Y-42466164D01*
X77002319Y-42368449D01*
X77158980Y-42281432D01*
X77239435Y-42236743D01*
X77239436Y-42236742D01*
X77243428Y-42234525D01*
X77462678Y-42067198D01*
X77511264Y-42017497D01*
X77652283Y-41873242D01*
X77652287Y-41873237D01*
X77655477Y-41869974D01*
X77817787Y-41646984D01*
X77946206Y-41402899D01*
X78038045Y-41142832D01*
X78074516Y-40957792D01*
X78090499Y-40876704D01*
X78090500Y-40876698D01*
X78091380Y-40872232D01*
X78091607Y-40867676D01*
X78104867Y-40601336D01*
X78104867Y-40601330D01*
X78105094Y-40596767D01*
X78078898Y-40322208D01*
X78055094Y-40224926D01*
X78014429Y-40058744D01*
X78013343Y-40054306D01*
X77909801Y-39798674D01*
X77907500Y-39794744D01*
X77907497Y-39794738D01*
X77772745Y-39564597D01*
X77772740Y-39564590D01*
X77770442Y-39560665D01*
X77652927Y-39413720D01*
X77601036Y-39348834D01*
X77601035Y-39348833D01*
X77598184Y-39345268D01*
X77396636Y-39156992D01*
X77170021Y-38999784D01*
X77165943Y-38997755D01*
X76927173Y-38878968D01*
X76927170Y-38878967D01*
X76923086Y-38876935D01*
X76661002Y-38791020D01*
X76656510Y-38790240D01*
X76393043Y-38744494D01*
X76393035Y-38744493D01*
X76389262Y-38743838D01*
X76379029Y-38743329D01*
X76303695Y-38739578D01*
X76303687Y-38739578D01*
X76302124Y-38739500D01*
X76129930Y-38739500D01*
X76127662Y-38739665D01*
X76127650Y-38739665D01*
X75993397Y-38749406D01*
X75924917Y-38754375D01*
X75920462Y-38755359D01*
X75920459Y-38755359D01*
X75660053Y-38812852D01*
X75660050Y-38812853D01*
X75655597Y-38813836D01*
X75397681Y-38911551D01*
X75393694Y-38913765D01*
X75393693Y-38913766D01*
X75247745Y-38994833D01*
X75156572Y-39045475D01*
X74937322Y-39212802D01*
X74934129Y-39216068D01*
X74934127Y-39216070D01*
X74747717Y-39406758D01*
X74747713Y-39406763D01*
X74744523Y-39410026D01*
X74582213Y-39633016D01*
X74453794Y-39877101D01*
X74361955Y-40137168D01*
X74346816Y-40213976D01*
X74324587Y-40326760D01*
X74308620Y-40407768D01*
X74308393Y-40412322D01*
X74308393Y-40412324D01*
X74295193Y-40677476D01*
X74294906Y-40683233D01*
X55240790Y-40683233D01*
X55244867Y-40601336D01*
X55244867Y-40601330D01*
X55245094Y-40596767D01*
X55218898Y-40322208D01*
X55195094Y-40224926D01*
X55154429Y-40058744D01*
X55153343Y-40054306D01*
X55049801Y-39798674D01*
X55047500Y-39794744D01*
X55047497Y-39794738D01*
X54912745Y-39564597D01*
X54912740Y-39564590D01*
X54910442Y-39560665D01*
X54792927Y-39413720D01*
X54741036Y-39348834D01*
X54741035Y-39348833D01*
X54738184Y-39345268D01*
X54536636Y-39156992D01*
X54310021Y-38999784D01*
X54305943Y-38997755D01*
X54067173Y-38878968D01*
X54067170Y-38878967D01*
X54063086Y-38876935D01*
X53801002Y-38791020D01*
X53796510Y-38790240D01*
X53533043Y-38744494D01*
X53533035Y-38744493D01*
X53529262Y-38743838D01*
X53519029Y-38743329D01*
X53443695Y-38739578D01*
X53443687Y-38739578D01*
X53442124Y-38739500D01*
X53269930Y-38739500D01*
X53267662Y-38739665D01*
X53267650Y-38739665D01*
X53133397Y-38749406D01*
X53064917Y-38754375D01*
X53060462Y-38755359D01*
X53060459Y-38755359D01*
X52800053Y-38812852D01*
X52800050Y-38812853D01*
X52795597Y-38813836D01*
X52537681Y-38911551D01*
X52533694Y-38913765D01*
X52533693Y-38913766D01*
X52387745Y-38994833D01*
X52296572Y-39045475D01*
X52077322Y-39212802D01*
X52074129Y-39216068D01*
X52074127Y-39216070D01*
X51887717Y-39406758D01*
X51887713Y-39406763D01*
X51884523Y-39410026D01*
X51722213Y-39633016D01*
X51593794Y-39877101D01*
X51501955Y-40137168D01*
X51486816Y-40213976D01*
X51464587Y-40326760D01*
X51448620Y-40407768D01*
X51448393Y-40412322D01*
X51448393Y-40412324D01*
X51435193Y-40677476D01*
X51434906Y-40683233D01*
X48514500Y-40683233D01*
X48514500Y-40677476D01*
X48516921Y-40652894D01*
X48517065Y-40652170D01*
X48519486Y-40640000D01*
X48517065Y-40627830D01*
X48517065Y-40617401D01*
X48516060Y-40604265D01*
X48532622Y-40224926D01*
X48533580Y-40213976D01*
X48577365Y-39881397D01*
X48587093Y-39807504D01*
X48588999Y-39796699D01*
X48677736Y-39396434D01*
X48680579Y-39385823D01*
X48736006Y-39210030D01*
X48803860Y-38994825D01*
X48807616Y-38984504D01*
X48836917Y-38913766D01*
X48964513Y-38605723D01*
X48969155Y-38595770D01*
X49158452Y-38232133D01*
X49163948Y-38222613D01*
X49384223Y-37876852D01*
X49390527Y-37867848D01*
X49640108Y-37542587D01*
X49647174Y-37534167D01*
X49924143Y-37231908D01*
X49931912Y-37224139D01*
X50150379Y-37023952D01*
X50234170Y-36947172D01*
X50242587Y-36940108D01*
X50567848Y-36690527D01*
X50576852Y-36684223D01*
X50922613Y-36463948D01*
X50932133Y-36458452D01*
X50993069Y-36426731D01*
X51295779Y-36269151D01*
X51305723Y-36264513D01*
X51684512Y-36107613D01*
X51694825Y-36103860D01*
X52085824Y-35980579D01*
X52096434Y-35977736D01*
X52496699Y-35888999D01*
X52507504Y-35887093D01*
X52913977Y-35833580D01*
X52924925Y-35832622D01*
X52981400Y-35830156D01*
X53304265Y-35816060D01*
X53317401Y-35817065D01*
X53327830Y-35817065D01*
X53340000Y-35819486D01*
X53352897Y-35816921D01*
X53377476Y-35814500D01*
X76162524Y-35814500D01*
X76187103Y-35816921D01*
G37*
%TD.AperFunction*%
%TD*%
M02*
