%TF.GenerationSoftware,KiCad,Pcbnew,(6.0.9-0)*%
%TF.CreationDate,2024-06-20T10:35:51+02:00*%
%TF.ProjectId,filter-board,66696c74-6572-42d6-926f-6172642e6b69,rev?*%
%TF.SameCoordinates,Original*%
%TF.FileFunction,Soldermask,Top*%
%TF.FilePolarity,Negative*%
%FSLAX46Y46*%
G04 Gerber Fmt 4.6, Leading zero omitted, Abs format (unit mm)*
G04 Created by KiCad (PCBNEW (6.0.9-0)) date 2024-06-20 10:35:51*
%MOMM*%
%LPD*%
G01*
G04 APERTURE LIST*
G04 Aperture macros list*
%AMRoundRect*
0 Rectangle with rounded corners*
0 $1 Rounding radius*
0 $2 $3 $4 $5 $6 $7 $8 $9 X,Y pos of 4 corners*
0 Add a 4 corners polygon primitive as box body*
4,1,4,$2,$3,$4,$5,$6,$7,$8,$9,$2,$3,0*
0 Add four circle primitives for the rounded corners*
1,1,$1+$1,$2,$3*
1,1,$1+$1,$4,$5*
1,1,$1+$1,$6,$7*
1,1,$1+$1,$8,$9*
0 Add four rect primitives between the rounded corners*
20,1,$1+$1,$2,$3,$4,$5,0*
20,1,$1+$1,$4,$5,$6,$7,0*
20,1,$1+$1,$6,$7,$8,$9,0*
20,1,$1+$1,$8,$9,$2,$3,0*%
G04 Aperture macros list end*
%ADD10RoundRect,0.150000X-0.825000X-0.150000X0.825000X-0.150000X0.825000X0.150000X-0.825000X0.150000X0*%
%ADD11RoundRect,0.237500X-0.237500X0.250000X-0.237500X-0.250000X0.237500X-0.250000X0.237500X0.250000X0*%
%ADD12RoundRect,0.250000X0.550000X-1.250000X0.550000X1.250000X-0.550000X1.250000X-0.550000X-1.250000X0*%
%ADD13RoundRect,0.237500X-0.237500X0.300000X-0.237500X-0.300000X0.237500X-0.300000X0.237500X0.300000X0*%
%ADD14RoundRect,0.237500X0.237500X-0.250000X0.237500X0.250000X-0.237500X0.250000X-0.237500X-0.250000X0*%
%ADD15R,1.200000X0.900000*%
%ADD16RoundRect,0.250000X0.425000X-0.537500X0.425000X0.537500X-0.425000X0.537500X-0.425000X-0.537500X0*%
%ADD17RoundRect,0.237500X0.237500X-0.300000X0.237500X0.300000X-0.237500X0.300000X-0.237500X-0.300000X0*%
%ADD18C,3.200000*%
%ADD19C,5.500000*%
%ADD20R,1.700000X1.700000*%
%ADD21O,1.700000X1.700000*%
G04 APERTURE END LIST*
D10*
%TO.C,U1*%
X62295000Y-57150000D03*
X62295000Y-58420000D03*
X62295000Y-59690000D03*
X62295000Y-60960000D03*
X62295000Y-62230000D03*
X62295000Y-63500000D03*
X62295000Y-64770000D03*
X67245000Y-64770000D03*
X67245000Y-63500000D03*
X67245000Y-62230000D03*
X67245000Y-60960000D03*
X67245000Y-59690000D03*
X67245000Y-58420000D03*
X67245000Y-57150000D03*
%TD*%
D11*
%TO.C,R15*%
X53848000Y-85066500D03*
X53848000Y-86891500D03*
%TD*%
D12*
%TO.C,C9*%
X73914000Y-61509000D03*
X73914000Y-57109000D03*
%TD*%
D13*
%TO.C,C16*%
X72898000Y-71908500D03*
X72898000Y-73633500D03*
%TD*%
%TO.C,C14*%
X75692000Y-71908500D03*
X75692000Y-73633500D03*
%TD*%
D14*
%TO.C,R6*%
X59436000Y-59967500D03*
X59436000Y-58142500D03*
%TD*%
%TO.C,R3*%
X56642000Y-59967500D03*
X56642000Y-58142500D03*
%TD*%
D11*
%TO.C,R31*%
X69342000Y-89765500D03*
X69342000Y-91590500D03*
%TD*%
D13*
%TO.C,C11*%
X56642000Y-73686500D03*
X56642000Y-75411500D03*
%TD*%
D11*
%TO.C,R21*%
X71882000Y-89765500D03*
X71882000Y-91590500D03*
%TD*%
D15*
%TO.C,D8*%
X75692000Y-80011000D03*
X75692000Y-83311000D03*
%TD*%
D11*
%TO.C,R19*%
X56642000Y-85066500D03*
X56642000Y-86891500D03*
%TD*%
D16*
%TO.C,C3*%
X53848000Y-53634500D03*
X53848000Y-50759500D03*
%TD*%
D17*
%TO.C,C15*%
X70104000Y-81761500D03*
X70104000Y-80036500D03*
%TD*%
D14*
%TO.C,R10*%
X70104000Y-50315500D03*
X70104000Y-48490500D03*
%TD*%
D15*
%TO.C,D3*%
X64262000Y-44195000D03*
X64262000Y-40895000D03*
%TD*%
D13*
%TO.C,C1*%
X53848000Y-58192500D03*
X53848000Y-59917500D03*
%TD*%
D11*
%TO.C,R8*%
X56642000Y-52046500D03*
X56642000Y-53871500D03*
%TD*%
D10*
%TO.C,U2*%
X62295000Y-46355000D03*
X62295000Y-47625000D03*
X62295000Y-48895000D03*
X62295000Y-50165000D03*
X62295000Y-51435000D03*
X62295000Y-52705000D03*
X62295000Y-53975000D03*
X67245000Y-53975000D03*
X67245000Y-52705000D03*
X67245000Y-51435000D03*
X67245000Y-50165000D03*
X67245000Y-48895000D03*
X67245000Y-47625000D03*
X67245000Y-46355000D03*
%TD*%
D13*
%TO.C,C8*%
X59436000Y-48313000D03*
X59436000Y-50038000D03*
%TD*%
D14*
%TO.C,R14*%
X59436000Y-67587500D03*
X59436000Y-65762500D03*
%TD*%
D11*
%TO.C,R11*%
X70104000Y-44680500D03*
X70104000Y-46505500D03*
%TD*%
D15*
%TO.C,D5*%
X66548000Y-89790000D03*
X66548000Y-93090000D03*
%TD*%
D11*
%TO.C,R35*%
X72898000Y-75668500D03*
X72898000Y-77493500D03*
%TD*%
D14*
%TO.C,R33*%
X70104000Y-77493500D03*
X70104000Y-75668500D03*
%TD*%
D16*
%TO.C,C4*%
X69723000Y-60873500D03*
X69723000Y-57998500D03*
%TD*%
D14*
%TO.C,R20*%
X59436000Y-86891500D03*
X59436000Y-85066500D03*
%TD*%
D15*
%TO.C,D4*%
X72644000Y-50291000D03*
X72644000Y-46991000D03*
%TD*%
%TO.C,D1*%
X67818000Y-44195000D03*
X67818000Y-40895000D03*
%TD*%
D18*
%TO.C,H2*%
X53340000Y-40640000D03*
%TD*%
D11*
%TO.C,R24*%
X56642000Y-69676000D03*
X56642000Y-71501000D03*
%TD*%
D14*
%TO.C,R4*%
X75946000Y-54125500D03*
X75946000Y-52300500D03*
%TD*%
D15*
%TO.C,D6*%
X63500000Y-93090000D03*
X63500000Y-89790000D03*
%TD*%
D17*
%TO.C,C6*%
X59436000Y-46201500D03*
X59436000Y-44476500D03*
%TD*%
%TO.C,C10*%
X60452000Y-91540500D03*
X60452000Y-89815500D03*
%TD*%
D11*
%TO.C,R25*%
X53848000Y-73636500D03*
X53848000Y-75461500D03*
%TD*%
D14*
%TO.C,R26*%
X75692000Y-69873500D03*
X75692000Y-68048500D03*
%TD*%
D17*
%TO.C,C2*%
X73152000Y-54075500D03*
X73152000Y-52350500D03*
%TD*%
D14*
%TO.C,R13*%
X53848000Y-71651500D03*
X53848000Y-69826500D03*
%TD*%
%TO.C,R9*%
X61214000Y-44219500D03*
X61214000Y-42394500D03*
%TD*%
D11*
%TO.C,R18*%
X56642000Y-65762500D03*
X56642000Y-67587500D03*
%TD*%
D14*
%TO.C,R23*%
X59436000Y-75461500D03*
X59436000Y-73636500D03*
%TD*%
%TO.C,R7*%
X56642000Y-46251500D03*
X56642000Y-44426500D03*
%TD*%
D13*
%TO.C,C20*%
X70104000Y-68098500D03*
X70104000Y-69823500D03*
%TD*%
%TO.C,C5*%
X59436000Y-62002500D03*
X59436000Y-63727500D03*
%TD*%
D15*
%TO.C,D2*%
X75692000Y-46991000D03*
X75692000Y-50291000D03*
%TD*%
D11*
%TO.C,R16*%
X53848000Y-81256500D03*
X53848000Y-83081500D03*
%TD*%
%TO.C,R1*%
X56642000Y-61952500D03*
X56642000Y-63777500D03*
%TD*%
D14*
%TO.C,R2*%
X53848000Y-63777500D03*
X53848000Y-61952500D03*
%TD*%
%TO.C,R34*%
X70104000Y-73683500D03*
X70104000Y-71858500D03*
%TD*%
%TO.C,R12*%
X70104000Y-54125500D03*
X70104000Y-52300500D03*
%TD*%
D17*
%TO.C,C19*%
X59436000Y-83031500D03*
X59436000Y-81306500D03*
%TD*%
D19*
%TO.C,H3*%
X76200000Y-93980000D03*
%TD*%
D10*
%TO.C,U3*%
X62295000Y-80010000D03*
X62295000Y-81280000D03*
X62295000Y-82550000D03*
X62295000Y-83820000D03*
X62295000Y-85090000D03*
X62295000Y-86360000D03*
X62295000Y-87630000D03*
X67245000Y-87630000D03*
X67245000Y-86360000D03*
X67245000Y-85090000D03*
X67245000Y-83820000D03*
X67245000Y-82550000D03*
X67245000Y-81280000D03*
X67245000Y-80010000D03*
%TD*%
D13*
%TO.C,C18*%
X70104000Y-85624500D03*
X70104000Y-87349500D03*
%TD*%
D11*
%TO.C,R17*%
X56642000Y-81256500D03*
X56642000Y-83081500D03*
%TD*%
D18*
%TO.C,H4*%
X76200000Y-40640000D03*
%TD*%
D15*
%TO.C,D7*%
X72644000Y-80011000D03*
X72644000Y-83311000D03*
%TD*%
D14*
%TO.C,R32*%
X56642000Y-79271500D03*
X56642000Y-77446500D03*
%TD*%
D11*
%TO.C,R28*%
X58039000Y-89765500D03*
X58039000Y-91590500D03*
%TD*%
D13*
%TO.C,C13*%
X69977000Y-63272500D03*
X69977000Y-64997500D03*
%TD*%
D14*
%TO.C,R22*%
X59436000Y-71501000D03*
X59436000Y-69676000D03*
%TD*%
D11*
%TO.C,R27*%
X72898000Y-68048500D03*
X72898000Y-69873500D03*
%TD*%
D10*
%TO.C,U4*%
X62295000Y-67945000D03*
X62295000Y-69215000D03*
X62295000Y-70485000D03*
X62295000Y-71755000D03*
X62295000Y-73025000D03*
X62295000Y-74295000D03*
X62295000Y-75565000D03*
X62295000Y-76835000D03*
X67245000Y-76835000D03*
X67245000Y-75565000D03*
X67245000Y-74295000D03*
X67245000Y-73025000D03*
X67245000Y-71755000D03*
X67245000Y-70485000D03*
X67245000Y-69215000D03*
X67245000Y-67945000D03*
%TD*%
D14*
%TO.C,R5*%
X56642000Y-50061500D03*
X56642000Y-48236500D03*
%TD*%
%TO.C,R29*%
X75692000Y-87399500D03*
X75692000Y-85574500D03*
%TD*%
D13*
%TO.C,C17*%
X59436000Y-77496500D03*
X59436000Y-79221500D03*
%TD*%
%TO.C,C12*%
X53848000Y-77496500D03*
X53848000Y-79221500D03*
%TD*%
D11*
%TO.C,R30*%
X72898000Y-85574500D03*
X72898000Y-87399500D03*
%TD*%
D13*
%TO.C,C7*%
X59436000Y-52096500D03*
X59436000Y-53821500D03*
%TD*%
D19*
%TO.C,H1*%
X53340000Y-93980000D03*
%TD*%
D20*
%TO.C,J1*%
X50800000Y-50800000D03*
D21*
X50800000Y-53340000D03*
X50800000Y-55880000D03*
X50800000Y-58420000D03*
X50800000Y-60960000D03*
X50800000Y-63500000D03*
X50800000Y-66040000D03*
X50800000Y-68580000D03*
X50800000Y-71120000D03*
X50800000Y-73660000D03*
X50800000Y-76200000D03*
X50800000Y-78740000D03*
X50800000Y-81280000D03*
X50800000Y-83820000D03*
%TD*%
D20*
%TO.C,J2*%
X78740000Y-50800000D03*
D21*
X78740000Y-53340000D03*
X78740000Y-55880000D03*
X78740000Y-58420000D03*
X78740000Y-60960000D03*
X78740000Y-63500000D03*
X78740000Y-66040000D03*
X78740000Y-68580000D03*
X78740000Y-71120000D03*
X78740000Y-73660000D03*
X78740000Y-76200000D03*
X78740000Y-78740000D03*
X78740000Y-81280000D03*
X78740000Y-83820000D03*
%TD*%
M02*
