%TF.GenerationSoftware,KiCad,Pcbnew,(6.0.9-0)*%
%TF.CreationDate,2024-06-20T10:35:51+02:00*%
%TF.ProjectId,filter-board,66696c74-6572-42d6-926f-6172642e6b69,rev?*%
%TF.SameCoordinates,Original*%
%TF.FileFunction,Legend,Top*%
%TF.FilePolarity,Positive*%
%FSLAX46Y46*%
G04 Gerber Fmt 4.6, Leading zero omitted, Abs format (unit mm)*
G04 Created by KiCad (PCBNEW (6.0.9-0)) date 2024-06-20 10:35:51*
%MOMM*%
%LPD*%
G01*
G04 APERTURE LIST*
G04 Aperture macros list*
%AMRoundRect*
0 Rectangle with rounded corners*
0 $1 Rounding radius*
0 $2 $3 $4 $5 $6 $7 $8 $9 X,Y pos of 4 corners*
0 Add a 4 corners polygon primitive as box body*
4,1,4,$2,$3,$4,$5,$6,$7,$8,$9,$2,$3,0*
0 Add four circle primitives for the rounded corners*
1,1,$1+$1,$2,$3*
1,1,$1+$1,$4,$5*
1,1,$1+$1,$6,$7*
1,1,$1+$1,$8,$9*
0 Add four rect primitives between the rounded corners*
20,1,$1+$1,$2,$3,$4,$5,0*
20,1,$1+$1,$4,$5,$6,$7,0*
20,1,$1+$1,$6,$7,$8,$9,0*
20,1,$1+$1,$8,$9,$2,$3,0*%
G04 Aperture macros list end*
%ADD10C,0.120000*%
%ADD11C,0.100000*%
%ADD12C,0.150000*%
%ADD13RoundRect,0.150000X-0.825000X-0.150000X0.825000X-0.150000X0.825000X0.150000X-0.825000X0.150000X0*%
%ADD14RoundRect,0.237500X-0.237500X0.250000X-0.237500X-0.250000X0.237500X-0.250000X0.237500X0.250000X0*%
%ADD15RoundRect,0.250000X0.550000X-1.250000X0.550000X1.250000X-0.550000X1.250000X-0.550000X-1.250000X0*%
%ADD16RoundRect,0.237500X-0.237500X0.300000X-0.237500X-0.300000X0.237500X-0.300000X0.237500X0.300000X0*%
%ADD17RoundRect,0.237500X0.237500X-0.250000X0.237500X0.250000X-0.237500X0.250000X-0.237500X-0.250000X0*%
%ADD18R,1.200000X0.900000*%
%ADD19RoundRect,0.250000X0.425000X-0.537500X0.425000X0.537500X-0.425000X0.537500X-0.425000X-0.537500X0*%
%ADD20RoundRect,0.237500X0.237500X-0.300000X0.237500X0.300000X-0.237500X0.300000X-0.237500X-0.300000X0*%
%ADD21C,3.200000*%
%ADD22C,5.500000*%
%ADD23R,1.700000X1.700000*%
%ADD24O,1.700000X1.700000*%
G04 APERTURE END LIST*
D10*
X51800000Y-60960000D02*
G75*
G03*
X51800000Y-60960000I-1000000J0D01*
G01*
X51816000Y-53340000D02*
G75*
G03*
X51816000Y-53340000I-1000000J0D01*
G01*
X51800000Y-76200000D02*
G75*
G03*
X51800000Y-76200000I-1000000J0D01*
G01*
X79740000Y-68580000D02*
G75*
G03*
X79740000Y-68580000I-1000000J0D01*
G01*
X79740000Y-53340000D02*
G75*
G03*
X79740000Y-53340000I-1000000J0D01*
G01*
X79740000Y-60960000D02*
G75*
G03*
X79740000Y-60960000I-1000000J0D01*
G01*
X51800000Y-83820000D02*
G75*
G03*
X51800000Y-83820000I-1000000J0D01*
G01*
X79740000Y-83820000D02*
G75*
G03*
X79740000Y-83820000I-1000000J0D01*
G01*
X79720551Y-76200000D02*
G75*
G03*
X79720551Y-76200000I-1000000J0D01*
G01*
X51800000Y-68580000D02*
G75*
G03*
X51800000Y-68580000I-1000000J0D01*
G01*
X48958976Y-71481904D02*
X49073261Y-71481904D01*
X49135166Y-71443809D01*
X49168500Y-71405714D01*
X49239928Y-71291428D01*
X49287547Y-71139047D01*
X49325642Y-70834285D01*
X49306595Y-70758095D01*
X49282785Y-70720000D01*
X49230404Y-70681904D01*
X49116119Y-70681904D01*
X49054214Y-70720000D01*
X49020880Y-70758095D01*
X48982785Y-70834285D01*
X48958976Y-71024761D01*
X48978023Y-71100952D01*
X49001833Y-71139047D01*
X49054214Y-71177142D01*
X49168500Y-71177142D01*
X49230404Y-71139047D01*
X49263738Y-71100952D01*
X49301833Y-71024761D01*
D11*
X48958976Y-74021904D02*
X48616119Y-74021904D01*
X48787547Y-74021904D02*
X48887547Y-73221904D01*
X48816119Y-73336190D01*
X48749452Y-73412380D01*
X48687547Y-73450476D01*
X49430404Y-73221904D02*
X49487547Y-73221904D01*
X49539928Y-73260000D01*
X49563738Y-73298095D01*
X49582785Y-73374285D01*
X49592309Y-73526666D01*
X49568500Y-73717142D01*
X49520880Y-73869523D01*
X49482785Y-73945714D01*
X49449452Y-73983809D01*
X49387547Y-74021904D01*
X49330404Y-74021904D01*
X49278023Y-73983809D01*
X49254214Y-73945714D01*
X49235166Y-73869523D01*
X49225642Y-73717142D01*
X49249452Y-73526666D01*
X49297071Y-73374285D01*
X49335166Y-73298095D01*
X49368500Y-73260000D01*
X49430404Y-73221904D01*
D10*
X49316119Y-60521904D02*
X49030404Y-60521904D01*
X48954214Y-60902857D01*
X48987547Y-60864761D01*
X49049452Y-60826666D01*
X49192309Y-60826666D01*
X49244690Y-60864761D01*
X49268500Y-60902857D01*
X49287547Y-60979047D01*
X49263738Y-61169523D01*
X49225642Y-61245714D01*
X49192309Y-61283809D01*
X49130404Y-61321904D01*
X48987547Y-61321904D01*
X48935166Y-61283809D01*
X48911357Y-61245714D01*
X49073261Y-68484761D02*
X49020880Y-68446666D01*
X48997071Y-68408571D01*
X48978023Y-68332380D01*
X48982785Y-68294285D01*
X49020880Y-68218095D01*
X49054214Y-68180000D01*
X49116119Y-68141904D01*
X49230404Y-68141904D01*
X49282785Y-68180000D01*
X49306595Y-68218095D01*
X49325642Y-68294285D01*
X49320880Y-68332380D01*
X49282785Y-68408571D01*
X49249452Y-68446666D01*
X49187547Y-68484761D01*
X49073261Y-68484761D01*
X49011357Y-68522857D01*
X48978023Y-68560952D01*
X48939928Y-68637142D01*
X48920880Y-68789523D01*
X48939928Y-68865714D01*
X48963738Y-68903809D01*
X49016119Y-68941904D01*
X49130404Y-68941904D01*
X49192309Y-68903809D01*
X49225642Y-68865714D01*
X49263738Y-68789523D01*
X49282785Y-68637142D01*
X49263738Y-68560952D01*
X49239928Y-68522857D01*
X49187547Y-68484761D01*
D11*
X80200976Y-76561904D02*
X79858119Y-76561904D01*
X80029547Y-76561904D02*
X80129547Y-75761904D01*
X80058119Y-75876190D01*
X79991452Y-75952380D01*
X79929547Y-75990476D01*
X80772404Y-76561904D02*
X80429547Y-76561904D01*
X80600976Y-76561904D02*
X80700976Y-75761904D01*
X80629547Y-75876190D01*
X80562880Y-75952380D01*
X80500976Y-75990476D01*
D10*
X49244690Y-51161904D02*
X48901833Y-51161904D01*
X49073261Y-51161904D02*
X49173261Y-50361904D01*
X49101833Y-50476190D01*
X49035166Y-50552380D01*
X48973261Y-50590476D01*
D11*
X48958976Y-76561904D02*
X48616119Y-76561904D01*
X48787547Y-76561904D02*
X48887547Y-75761904D01*
X48816119Y-75876190D01*
X48749452Y-75952380D01*
X48687547Y-75990476D01*
X49530404Y-76561904D02*
X49187547Y-76561904D01*
X49358976Y-76561904D02*
X49458976Y-75761904D01*
X49387547Y-75876190D01*
X49320880Y-75952380D01*
X49258976Y-75990476D01*
D10*
X49254214Y-58248571D02*
X49187547Y-58781904D01*
X49149452Y-57943809D02*
X48935166Y-58515238D01*
X49306595Y-58515238D01*
X80486690Y-51161904D02*
X80143833Y-51161904D01*
X80315261Y-51161904D02*
X80415261Y-50361904D01*
X80343833Y-50476190D01*
X80277166Y-50552380D01*
X80215261Y-50590476D01*
X48973261Y-65601904D02*
X49373261Y-65601904D01*
X49016119Y-66401904D01*
X80496214Y-58248571D02*
X80429547Y-58781904D01*
X80391452Y-57943809D02*
X80177166Y-58515238D01*
X80548595Y-58515238D01*
D11*
X80200976Y-79101904D02*
X79858119Y-79101904D01*
X80029547Y-79101904D02*
X80129547Y-78301904D01*
X80058119Y-78416190D01*
X79991452Y-78492380D01*
X79929547Y-78530476D01*
X80520023Y-78378095D02*
X80553357Y-78340000D01*
X80615261Y-78301904D01*
X80758119Y-78301904D01*
X80810500Y-78340000D01*
X80834309Y-78378095D01*
X80853357Y-78454285D01*
X80843833Y-78530476D01*
X80800976Y-78644761D01*
X80400976Y-79101904D01*
X80772404Y-79101904D01*
X80200976Y-81641904D02*
X79858119Y-81641904D01*
X80029547Y-81641904D02*
X80129547Y-80841904D01*
X80058119Y-80956190D01*
X79991452Y-81032380D01*
X79929547Y-81070476D01*
X80500976Y-80841904D02*
X80872404Y-80841904D01*
X80634309Y-81146666D01*
X80720023Y-81146666D01*
X80772404Y-81184761D01*
X80796214Y-81222857D01*
X80815261Y-81299047D01*
X80791452Y-81489523D01*
X80753357Y-81565714D01*
X80720023Y-81603809D01*
X80658119Y-81641904D01*
X80486690Y-81641904D01*
X80434309Y-81603809D01*
X80410500Y-81565714D01*
D10*
X80200976Y-71481904D02*
X80315261Y-71481904D01*
X80377166Y-71443809D01*
X80410500Y-71405714D01*
X80481928Y-71291428D01*
X80529547Y-71139047D01*
X80567642Y-70834285D01*
X80548595Y-70758095D01*
X80524785Y-70720000D01*
X80472404Y-70681904D01*
X80358119Y-70681904D01*
X80296214Y-70720000D01*
X80262880Y-70758095D01*
X80224785Y-70834285D01*
X80200976Y-71024761D01*
X80220023Y-71100952D01*
X80243833Y-71139047D01*
X80296214Y-71177142D01*
X80410500Y-71177142D01*
X80472404Y-71139047D01*
X80505738Y-71100952D01*
X80543833Y-71024761D01*
X80215261Y-65601904D02*
X80615261Y-65601904D01*
X80258119Y-66401904D01*
X80215261Y-55441904D02*
X80586690Y-55441904D01*
X80348595Y-55746666D01*
X80434309Y-55746666D01*
X80486690Y-55784761D01*
X80510500Y-55822857D01*
X80529547Y-55899047D01*
X80505738Y-56089523D01*
X80467642Y-56165714D01*
X80434309Y-56203809D01*
X80372404Y-56241904D01*
X80200976Y-56241904D01*
X80148595Y-56203809D01*
X80124785Y-56165714D01*
X48973261Y-55441904D02*
X49344690Y-55441904D01*
X49106595Y-55746666D01*
X49192309Y-55746666D01*
X49244690Y-55784761D01*
X49268500Y-55822857D01*
X49287547Y-55899047D01*
X49263738Y-56089523D01*
X49225642Y-56165714D01*
X49192309Y-56203809D01*
X49130404Y-56241904D01*
X48958976Y-56241904D01*
X48906595Y-56203809D01*
X48882785Y-56165714D01*
D11*
X48958976Y-81641904D02*
X48616119Y-81641904D01*
X48787547Y-81641904D02*
X48887547Y-80841904D01*
X48816119Y-80956190D01*
X48749452Y-81032380D01*
X48687547Y-81070476D01*
X49258976Y-80841904D02*
X49630404Y-80841904D01*
X49392309Y-81146666D01*
X49478023Y-81146666D01*
X49530404Y-81184761D01*
X49554214Y-81222857D01*
X49573261Y-81299047D01*
X49549452Y-81489523D01*
X49511357Y-81565714D01*
X49478023Y-81603809D01*
X49416119Y-81641904D01*
X49244690Y-81641904D01*
X49192309Y-81603809D01*
X49168500Y-81565714D01*
X80200976Y-84181904D02*
X79858119Y-84181904D01*
X80029547Y-84181904D02*
X80129547Y-83381904D01*
X80058119Y-83496190D01*
X79991452Y-83572380D01*
X79929547Y-83610476D01*
X80781928Y-83648571D02*
X80715261Y-84181904D01*
X80677166Y-83343809D02*
X80462880Y-83915238D01*
X80834309Y-83915238D01*
D10*
X80234309Y-52978095D02*
X80267642Y-52940000D01*
X80329547Y-52901904D01*
X80472404Y-52901904D01*
X80524785Y-52940000D01*
X80548595Y-52978095D01*
X80567642Y-53054285D01*
X80558119Y-53130476D01*
X80515261Y-53244761D01*
X80115261Y-53701904D01*
X80486690Y-53701904D01*
X48992309Y-52978095D02*
X49025642Y-52940000D01*
X49087547Y-52901904D01*
X49230404Y-52901904D01*
X49282785Y-52940000D01*
X49306595Y-52978095D01*
X49325642Y-53054285D01*
X49316119Y-53130476D01*
X49273261Y-53244761D01*
X48873261Y-53701904D01*
X49244690Y-53701904D01*
X80315261Y-68484761D02*
X80262880Y-68446666D01*
X80239071Y-68408571D01*
X80220023Y-68332380D01*
X80224785Y-68294285D01*
X80262880Y-68218095D01*
X80296214Y-68180000D01*
X80358119Y-68141904D01*
X80472404Y-68141904D01*
X80524785Y-68180000D01*
X80548595Y-68218095D01*
X80567642Y-68294285D01*
X80562880Y-68332380D01*
X80524785Y-68408571D01*
X80491452Y-68446666D01*
X80429547Y-68484761D01*
X80315261Y-68484761D01*
X80253357Y-68522857D01*
X80220023Y-68560952D01*
X80181928Y-68637142D01*
X80162880Y-68789523D01*
X80181928Y-68865714D01*
X80205738Y-68903809D01*
X80258119Y-68941904D01*
X80372404Y-68941904D01*
X80434309Y-68903809D01*
X80467642Y-68865714D01*
X80505738Y-68789523D01*
X80524785Y-68637142D01*
X80505738Y-68560952D01*
X80481928Y-68522857D01*
X80429547Y-68484761D01*
D12*
X64585904Y-53606238D02*
X65157333Y-53606238D01*
X65271619Y-53644333D01*
X65347809Y-53720523D01*
X65385904Y-53834809D01*
X65385904Y-53911000D01*
X65385904Y-52844333D02*
X65385904Y-53225285D01*
X64585904Y-53225285D01*
X65309714Y-52120523D02*
X65347809Y-52158619D01*
X65385904Y-52272904D01*
X65385904Y-52349095D01*
X65347809Y-52463380D01*
X65271619Y-52539571D01*
X65195428Y-52577666D01*
X65043047Y-52615761D01*
X64928761Y-52615761D01*
X64776380Y-52577666D01*
X64700190Y-52539571D01*
X64624000Y-52463380D01*
X64585904Y-52349095D01*
X64585904Y-52272904D01*
X64624000Y-52158619D01*
X64662095Y-52120523D01*
X64585904Y-51549095D02*
X65157333Y-51549095D01*
X65271619Y-51587190D01*
X65347809Y-51663380D01*
X65385904Y-51777666D01*
X65385904Y-51853857D01*
X65385904Y-50787190D02*
X65385904Y-51168142D01*
X64585904Y-51168142D01*
X65309714Y-50063380D02*
X65347809Y-50101476D01*
X65385904Y-50215761D01*
X65385904Y-50291952D01*
X65347809Y-50406238D01*
X65271619Y-50482428D01*
X65195428Y-50520523D01*
X65043047Y-50558619D01*
X64928761Y-50558619D01*
X64776380Y-50520523D01*
X64700190Y-50482428D01*
X64624000Y-50406238D01*
X64585904Y-50291952D01*
X64585904Y-50215761D01*
X64624000Y-50101476D01*
X64662095Y-50063380D01*
X64585904Y-49491952D02*
X65157333Y-49491952D01*
X65271619Y-49530047D01*
X65347809Y-49606238D01*
X65385904Y-49720523D01*
X65385904Y-49796714D01*
X65385904Y-48730047D02*
X65385904Y-49111000D01*
X64585904Y-49111000D01*
X65309714Y-48006238D02*
X65347809Y-48044333D01*
X65385904Y-48158619D01*
X65385904Y-48234809D01*
X65347809Y-48349095D01*
X65271619Y-48425285D01*
X65195428Y-48463380D01*
X65043047Y-48501476D01*
X64928761Y-48501476D01*
X64776380Y-48463380D01*
X64700190Y-48425285D01*
X64624000Y-48349095D01*
X64585904Y-48234809D01*
X64585904Y-48158619D01*
X64624000Y-48044333D01*
X64662095Y-48006238D01*
X64585904Y-47434809D02*
X65157333Y-47434809D01*
X65271619Y-47472904D01*
X65347809Y-47549095D01*
X65385904Y-47663380D01*
X65385904Y-47739571D01*
X65385904Y-46672904D02*
X65385904Y-47053857D01*
X64585904Y-47053857D01*
X65309714Y-45949095D02*
X65347809Y-45987190D01*
X65385904Y-46101476D01*
X65385904Y-46177666D01*
X65347809Y-46291952D01*
X65271619Y-46368142D01*
X65195428Y-46406238D01*
X65043047Y-46444333D01*
X64928761Y-46444333D01*
X64776380Y-46406238D01*
X64700190Y-46368142D01*
X64624000Y-46291952D01*
X64585904Y-46177666D01*
X64585904Y-46101476D01*
X64624000Y-45987190D01*
X64662095Y-45949095D01*
D11*
X80200976Y-74021904D02*
X79858119Y-74021904D01*
X80029547Y-74021904D02*
X80129547Y-73221904D01*
X80058119Y-73336190D01*
X79991452Y-73412380D01*
X79929547Y-73450476D01*
X80672404Y-73221904D02*
X80729547Y-73221904D01*
X80781928Y-73260000D01*
X80805738Y-73298095D01*
X80824785Y-73374285D01*
X80834309Y-73526666D01*
X80810500Y-73717142D01*
X80762880Y-73869523D01*
X80724785Y-73945714D01*
X80691452Y-73983809D01*
X80629547Y-74021904D01*
X80572404Y-74021904D01*
X80520023Y-73983809D01*
X80496214Y-73945714D01*
X80477166Y-73869523D01*
X80467642Y-73717142D01*
X80491452Y-73526666D01*
X80539071Y-73374285D01*
X80577166Y-73298095D01*
X80610500Y-73260000D01*
X80672404Y-73221904D01*
X48958976Y-84181904D02*
X48616119Y-84181904D01*
X48787547Y-84181904D02*
X48887547Y-83381904D01*
X48816119Y-83496190D01*
X48749452Y-83572380D01*
X48687547Y-83610476D01*
X49539928Y-83648571D02*
X49473261Y-84181904D01*
X49435166Y-83343809D02*
X49220880Y-83915238D01*
X49592309Y-83915238D01*
D10*
X80558119Y-60521904D02*
X80272404Y-60521904D01*
X80196214Y-60902857D01*
X80229547Y-60864761D01*
X80291452Y-60826666D01*
X80434309Y-60826666D01*
X80486690Y-60864761D01*
X80510500Y-60902857D01*
X80529547Y-60979047D01*
X80505738Y-61169523D01*
X80467642Y-61245714D01*
X80434309Y-61283809D01*
X80372404Y-61321904D01*
X80229547Y-61321904D01*
X80177166Y-61283809D01*
X80153357Y-61245714D01*
X80529547Y-63061904D02*
X80415261Y-63061904D01*
X80353357Y-63100000D01*
X80320023Y-63138095D01*
X80248595Y-63252380D01*
X80200976Y-63404761D01*
X80162880Y-63709523D01*
X80181928Y-63785714D01*
X80205738Y-63823809D01*
X80258119Y-63861904D01*
X80372404Y-63861904D01*
X80434309Y-63823809D01*
X80467642Y-63785714D01*
X80505738Y-63709523D01*
X80529547Y-63519047D01*
X80510500Y-63442857D01*
X80486690Y-63404761D01*
X80434309Y-63366666D01*
X80320023Y-63366666D01*
X80258119Y-63404761D01*
X80224785Y-63442857D01*
X80186690Y-63519047D01*
X49287547Y-63061904D02*
X49173261Y-63061904D01*
X49111357Y-63100000D01*
X49078023Y-63138095D01*
X49006595Y-63252380D01*
X48958976Y-63404761D01*
X48920880Y-63709523D01*
X48939928Y-63785714D01*
X48963738Y-63823809D01*
X49016119Y-63861904D01*
X49130404Y-63861904D01*
X49192309Y-63823809D01*
X49225642Y-63785714D01*
X49263738Y-63709523D01*
X49287547Y-63519047D01*
X49268500Y-63442857D01*
X49244690Y-63404761D01*
X49192309Y-63366666D01*
X49078023Y-63366666D01*
X49016119Y-63404761D01*
X48982785Y-63442857D01*
X48944690Y-63519047D01*
D11*
X48958976Y-79101904D02*
X48616119Y-79101904D01*
X48787547Y-79101904D02*
X48887547Y-78301904D01*
X48816119Y-78416190D01*
X48749452Y-78492380D01*
X48687547Y-78530476D01*
X49278023Y-78378095D02*
X49311357Y-78340000D01*
X49373261Y-78301904D01*
X49516119Y-78301904D01*
X49568500Y-78340000D01*
X49592309Y-78378095D01*
X49611357Y-78454285D01*
X49601833Y-78530476D01*
X49558976Y-78644761D01*
X49158976Y-79101904D01*
X49530404Y-79101904D01*
D10*
%TO.C,U1*%
X64770000Y-65395000D02*
X66720000Y-65395000D01*
X64770000Y-56525000D02*
X66720000Y-56525000D01*
X64770000Y-56525000D02*
X61320000Y-56525000D01*
X64770000Y-65395000D02*
X62820000Y-65395000D01*
%TO.C,R15*%
X53325500Y-85724276D02*
X53325500Y-86233724D01*
X54370500Y-85724276D02*
X54370500Y-86233724D01*
%TO.C,C9*%
X72218437Y-62069000D02*
X72854000Y-62069000D01*
X76674000Y-56549000D02*
X74974000Y-56549000D01*
X71154000Y-56549000D02*
X72854000Y-56549000D01*
X72229000Y-62934000D02*
X72229000Y-62309000D01*
X75609563Y-62069000D02*
X76674000Y-61004563D01*
X76674000Y-61004563D02*
X76674000Y-56549000D01*
X71916500Y-62621500D02*
X72541500Y-62621500D01*
X71154000Y-61004563D02*
X71154000Y-56549000D01*
X75609563Y-62069000D02*
X74974000Y-62069000D01*
X72218437Y-62069000D02*
X71154000Y-61004563D01*
%TO.C,C16*%
X72388000Y-72624733D02*
X72388000Y-72917267D01*
X73408000Y-72624733D02*
X73408000Y-72917267D01*
%TO.C,C14*%
X76202000Y-72624733D02*
X76202000Y-72917267D01*
X75182000Y-72624733D02*
X75182000Y-72917267D01*
%TO.C,R6*%
X59958500Y-59309724D02*
X59958500Y-58800276D01*
X58913500Y-59309724D02*
X58913500Y-58800276D01*
%TO.C,R3*%
X56119500Y-59309724D02*
X56119500Y-58800276D01*
X57164500Y-59309724D02*
X57164500Y-58800276D01*
%TO.C,R31*%
X69864500Y-90423276D02*
X69864500Y-90932724D01*
X68819500Y-90423276D02*
X68819500Y-90932724D01*
%TO.C,C11*%
X56132000Y-74402733D02*
X56132000Y-74695267D01*
X57152000Y-74402733D02*
X57152000Y-74695267D01*
%TO.C,R21*%
X72404500Y-90423276D02*
X72404500Y-90932724D01*
X71359500Y-90423276D02*
X71359500Y-90932724D01*
%TO.C,D8*%
X74692000Y-79411000D02*
X74692000Y-83311000D01*
X76692000Y-79411000D02*
X74692000Y-79411000D01*
X76692000Y-79411000D02*
X76692000Y-83311000D01*
%TO.C,R19*%
X57164500Y-85724276D02*
X57164500Y-86233724D01*
X56119500Y-85724276D02*
X56119500Y-86233724D01*
%TO.C,C3*%
X54783000Y-54682000D02*
X54783000Y-50597000D01*
X52913000Y-50597000D02*
X52913000Y-54682000D01*
X52913000Y-54682000D02*
X54783000Y-54682000D01*
%TO.C,C15*%
X70614000Y-81045267D02*
X70614000Y-80752733D01*
X69594000Y-81045267D02*
X69594000Y-80752733D01*
%TO.C,R10*%
X70626500Y-49657724D02*
X70626500Y-49148276D01*
X69581500Y-49657724D02*
X69581500Y-49148276D01*
%TO.C,D3*%
X65262000Y-44795000D02*
X65262000Y-40895000D01*
X63262000Y-44795000D02*
X63262000Y-40895000D01*
X63262000Y-44795000D02*
X65262000Y-44795000D01*
%TO.C,C1*%
X54358000Y-58908733D02*
X54358000Y-59201267D01*
X53338000Y-58908733D02*
X53338000Y-59201267D01*
%TO.C,R8*%
X57164500Y-52704276D02*
X57164500Y-53213724D01*
X56119500Y-52704276D02*
X56119500Y-53213724D01*
%TO.C,U2*%
X64770000Y-54600000D02*
X66720000Y-54600000D01*
X64770000Y-45730000D02*
X66720000Y-45730000D01*
X64770000Y-45730000D02*
X61320000Y-45730000D01*
X64770000Y-54600000D02*
X62820000Y-54600000D01*
%TO.C,C8*%
X58926000Y-49029233D02*
X58926000Y-49321767D01*
X59946000Y-49029233D02*
X59946000Y-49321767D01*
%TO.C,R14*%
X58913500Y-66929724D02*
X58913500Y-66420276D01*
X59958500Y-66929724D02*
X59958500Y-66420276D01*
%TO.C,R11*%
X70626500Y-45338276D02*
X70626500Y-45847724D01*
X69581500Y-45338276D02*
X69581500Y-45847724D01*
%TO.C,D5*%
X67548000Y-89190000D02*
X67548000Y-93090000D01*
X67548000Y-89190000D02*
X65548000Y-89190000D01*
X65548000Y-89190000D02*
X65548000Y-93090000D01*
%TO.C,R35*%
X73420500Y-76326276D02*
X73420500Y-76835724D01*
X72375500Y-76326276D02*
X72375500Y-76835724D01*
%TO.C,R33*%
X70626500Y-76835724D02*
X70626500Y-76326276D01*
X69581500Y-76835724D02*
X69581500Y-76326276D01*
%TO.C,C4*%
X70658000Y-61921000D02*
X70658000Y-57836000D01*
X68788000Y-57836000D02*
X68788000Y-61921000D01*
X68788000Y-61921000D02*
X70658000Y-61921000D01*
%TO.C,R20*%
X58913500Y-86233724D02*
X58913500Y-85724276D01*
X59958500Y-86233724D02*
X59958500Y-85724276D01*
%TO.C,D4*%
X71644000Y-50891000D02*
X71644000Y-46991000D01*
X71644000Y-50891000D02*
X73644000Y-50891000D01*
X73644000Y-50891000D02*
X73644000Y-46991000D01*
%TO.C,D1*%
X66818000Y-44795000D02*
X68818000Y-44795000D01*
X66818000Y-44795000D02*
X66818000Y-40895000D01*
X68818000Y-44795000D02*
X68818000Y-40895000D01*
%TO.C,R24*%
X57164500Y-70333776D02*
X57164500Y-70843224D01*
X56119500Y-70333776D02*
X56119500Y-70843224D01*
%TO.C,R4*%
X75423500Y-53467724D02*
X75423500Y-52958276D01*
X76468500Y-53467724D02*
X76468500Y-52958276D01*
%TO.C,D6*%
X62500000Y-93690000D02*
X64500000Y-93690000D01*
X64500000Y-93690000D02*
X64500000Y-89790000D01*
X62500000Y-93690000D02*
X62500000Y-89790000D01*
%TO.C,kibuzzard-666D7707*%
G36*
X62355412Y-94405450D02*
G01*
X64914462Y-94405450D01*
X64914462Y-98532950D01*
X62355412Y-98532950D01*
X62355412Y-96923225D01*
X62603062Y-96923225D01*
X62809437Y-97501075D01*
X64460437Y-97501075D01*
X64666812Y-96923225D01*
X64666812Y-95437325D01*
X64006412Y-95437325D01*
X64006412Y-97253425D01*
X63758762Y-97253425D01*
X63758762Y-95437325D01*
X63511112Y-95437325D01*
X63511112Y-97253425D01*
X63263462Y-97253425D01*
X63263462Y-95437325D01*
X62603062Y-95437325D01*
X62603062Y-96923225D01*
X62355412Y-96923225D01*
X62355412Y-94405450D01*
G37*
G36*
X66482913Y-94405450D02*
G01*
X68546663Y-94405450D01*
X68546663Y-98532950D01*
X66482913Y-98532950D01*
X66482913Y-97501075D01*
X66730563Y-97501075D01*
X67390963Y-97501075D01*
X67390963Y-95684975D01*
X67638613Y-95684975D01*
X67638613Y-97501075D01*
X68299013Y-97501075D01*
X68299013Y-95437325D01*
X66730563Y-95437325D01*
X66730563Y-97501075D01*
X66482913Y-97501075D01*
X66482913Y-94405450D01*
G37*
G36*
X66235263Y-96593025D02*
G01*
X65162113Y-96593025D01*
X65162113Y-96345375D01*
X66235263Y-96345375D01*
X66235263Y-96593025D01*
G37*
G36*
X60993337Y-94405450D02*
G01*
X62603062Y-94405450D01*
X62603062Y-98532950D01*
X60993337Y-98532950D01*
X60993337Y-97501075D01*
X61240987Y-97501075D01*
X61901387Y-97501075D01*
X61901387Y-95684975D01*
X62355412Y-95684975D01*
X62355412Y-95437325D01*
X61240987Y-95437325D01*
X61240987Y-97501075D01*
X60993337Y-97501075D01*
X60993337Y-94405450D01*
G37*
G36*
X69867463Y-96593025D02*
G01*
X68794313Y-96593025D01*
X68794313Y-96345375D01*
X69867463Y-96345375D01*
X69867463Y-96593025D01*
G37*
G36*
X64666812Y-94405450D02*
G01*
X66730563Y-94405450D01*
X66730563Y-98532950D01*
X64666812Y-98532950D01*
X64666812Y-97501075D01*
X64914462Y-97501075D01*
X66482913Y-97501075D01*
X66482913Y-95437325D01*
X65574863Y-95437325D01*
X65574863Y-94818200D01*
X64914462Y-94818200D01*
X64914462Y-97501075D01*
X64666812Y-97501075D01*
X64666812Y-94405450D01*
G37*
G36*
X68299013Y-94405450D02*
G01*
X70362763Y-94405450D01*
X70362763Y-98532950D01*
X68299013Y-98532950D01*
X68299013Y-97501075D01*
X68546663Y-97501075D01*
X70115113Y-97501075D01*
X70115113Y-94818200D01*
X69454713Y-94818200D01*
X69454713Y-95437325D01*
X68546663Y-95437325D01*
X68546663Y-97501075D01*
X68299013Y-97501075D01*
X68299013Y-94405450D01*
G37*
G36*
X59177237Y-94405450D02*
G01*
X61240987Y-94405450D01*
X61240987Y-98532950D01*
X59177237Y-98532950D01*
X59177237Y-97501075D01*
X59424887Y-97501075D01*
X60085287Y-97501075D01*
X60085287Y-95684975D01*
X60332937Y-95684975D01*
X60332937Y-97501075D01*
X60993337Y-97501075D01*
X60993337Y-95437325D01*
X59424887Y-95437325D01*
X59424887Y-97501075D01*
X59177237Y-97501075D01*
X59177237Y-94405450D01*
G37*
%TO.C,C6*%
X59946000Y-45485267D02*
X59946000Y-45192733D01*
X58926000Y-45485267D02*
X58926000Y-45192733D01*
%TO.C,C10*%
X59942000Y-90824267D02*
X59942000Y-90531733D01*
X60962000Y-90824267D02*
X60962000Y-90531733D01*
%TO.C,R25*%
X53325500Y-74294276D02*
X53325500Y-74803724D01*
X54370500Y-74294276D02*
X54370500Y-74803724D01*
%TO.C,R26*%
X76214500Y-69215724D02*
X76214500Y-68706276D01*
X75169500Y-69215724D02*
X75169500Y-68706276D01*
%TO.C,C2*%
X72642000Y-53359267D02*
X72642000Y-53066733D01*
X73662000Y-53359267D02*
X73662000Y-53066733D01*
%TO.C,R13*%
X54370500Y-70993724D02*
X54370500Y-70484276D01*
X53325500Y-70993724D02*
X53325500Y-70484276D01*
%TO.C,R9*%
X60691500Y-43561724D02*
X60691500Y-43052276D01*
X61736500Y-43561724D02*
X61736500Y-43052276D01*
%TO.C,R18*%
X57164500Y-66420276D02*
X57164500Y-66929724D01*
X56119500Y-66420276D02*
X56119500Y-66929724D01*
%TO.C,R23*%
X58913500Y-74803724D02*
X58913500Y-74294276D01*
X59958500Y-74803724D02*
X59958500Y-74294276D01*
%TO.C,R7*%
X57164500Y-45593724D02*
X57164500Y-45084276D01*
X56119500Y-45593724D02*
X56119500Y-45084276D01*
%TO.C,C20*%
X70614000Y-68814733D02*
X70614000Y-69107267D01*
X69594000Y-68814733D02*
X69594000Y-69107267D01*
%TO.C,C5*%
X59946000Y-62718733D02*
X59946000Y-63011267D01*
X58926000Y-62718733D02*
X58926000Y-63011267D01*
%TO.C,D2*%
X76692000Y-46391000D02*
X74692000Y-46391000D01*
X76692000Y-46391000D02*
X76692000Y-50291000D01*
X74692000Y-46391000D02*
X74692000Y-50291000D01*
%TO.C,R16*%
X53325500Y-81914276D02*
X53325500Y-82423724D01*
X54370500Y-81914276D02*
X54370500Y-82423724D01*
%TO.C,R1*%
X56119500Y-62610276D02*
X56119500Y-63119724D01*
X57164500Y-62610276D02*
X57164500Y-63119724D01*
%TO.C,R2*%
X53325500Y-63119724D02*
X53325500Y-62610276D01*
X54370500Y-63119724D02*
X54370500Y-62610276D01*
%TO.C,R34*%
X69581500Y-73025724D02*
X69581500Y-72516276D01*
X70626500Y-73025724D02*
X70626500Y-72516276D01*
%TO.C,R12*%
X70626500Y-53467724D02*
X70626500Y-52958276D01*
X69581500Y-53467724D02*
X69581500Y-52958276D01*
%TO.C,C19*%
X59946000Y-82315267D02*
X59946000Y-82022733D01*
X58926000Y-82315267D02*
X58926000Y-82022733D01*
%TO.C,U3*%
X64770000Y-79385000D02*
X61320000Y-79385000D01*
X64770000Y-88255000D02*
X66720000Y-88255000D01*
X64770000Y-88255000D02*
X62820000Y-88255000D01*
X64770000Y-79385000D02*
X66720000Y-79385000D01*
%TO.C,C18*%
X70614000Y-86340733D02*
X70614000Y-86633267D01*
X69594000Y-86340733D02*
X69594000Y-86633267D01*
%TO.C,R17*%
X57164500Y-81914276D02*
X57164500Y-82423724D01*
X56119500Y-81914276D02*
X56119500Y-82423724D01*
%TO.C,D7*%
X73644000Y-79411000D02*
X73644000Y-83311000D01*
X71644000Y-79411000D02*
X71644000Y-83311000D01*
X73644000Y-79411000D02*
X71644000Y-79411000D01*
%TO.C,R32*%
X57164500Y-78613724D02*
X57164500Y-78104276D01*
X56119500Y-78613724D02*
X56119500Y-78104276D01*
%TO.C,R28*%
X57516500Y-90423276D02*
X57516500Y-90932724D01*
X58561500Y-90423276D02*
X58561500Y-90932724D01*
%TO.C,C13*%
X70487000Y-63988733D02*
X70487000Y-64281267D01*
X69467000Y-63988733D02*
X69467000Y-64281267D01*
%TO.C,R22*%
X59958500Y-70843224D02*
X59958500Y-70333776D01*
X58913500Y-70843224D02*
X58913500Y-70333776D01*
%TO.C,R27*%
X73420500Y-68706276D02*
X73420500Y-69215724D01*
X72375500Y-68706276D02*
X72375500Y-69215724D01*
%TO.C,U4*%
X64770000Y-67330000D02*
X66720000Y-67330000D01*
X64770000Y-67330000D02*
X61320000Y-67330000D01*
X64770000Y-77450000D02*
X66720000Y-77450000D01*
X64770000Y-77450000D02*
X62820000Y-77450000D01*
%TO.C,R5*%
X56119500Y-49403724D02*
X56119500Y-48894276D01*
X57164500Y-49403724D02*
X57164500Y-48894276D01*
%TO.C,R29*%
X76214500Y-86741724D02*
X76214500Y-86232276D01*
X75169500Y-86741724D02*
X75169500Y-86232276D01*
%TO.C,C17*%
X58926000Y-78212733D02*
X58926000Y-78505267D01*
X59946000Y-78212733D02*
X59946000Y-78505267D01*
%TO.C,C12*%
X54358000Y-78212733D02*
X54358000Y-78505267D01*
X53338000Y-78212733D02*
X53338000Y-78505267D01*
%TO.C,R30*%
X72375500Y-86232276D02*
X72375500Y-86741724D01*
X73420500Y-86232276D02*
X73420500Y-86741724D01*
%TO.C,C7*%
X58926000Y-52812733D02*
X58926000Y-53105267D01*
X59946000Y-52812733D02*
X59946000Y-53105267D01*
%TD*%
%LPC*%
D13*
%TO.C,U1*%
X62295000Y-57150000D03*
X62295000Y-58420000D03*
X62295000Y-59690000D03*
X62295000Y-60960000D03*
X62295000Y-62230000D03*
X62295000Y-63500000D03*
X62295000Y-64770000D03*
X67245000Y-64770000D03*
X67245000Y-63500000D03*
X67245000Y-62230000D03*
X67245000Y-60960000D03*
X67245000Y-59690000D03*
X67245000Y-58420000D03*
X67245000Y-57150000D03*
%TD*%
D14*
%TO.C,R15*%
X53848000Y-85066500D03*
X53848000Y-86891500D03*
%TD*%
D15*
%TO.C,C9*%
X73914000Y-61509000D03*
X73914000Y-57109000D03*
%TD*%
D16*
%TO.C,C16*%
X72898000Y-71908500D03*
X72898000Y-73633500D03*
%TD*%
%TO.C,C14*%
X75692000Y-71908500D03*
X75692000Y-73633500D03*
%TD*%
D17*
%TO.C,R6*%
X59436000Y-59967500D03*
X59436000Y-58142500D03*
%TD*%
%TO.C,R3*%
X56642000Y-59967500D03*
X56642000Y-58142500D03*
%TD*%
D14*
%TO.C,R31*%
X69342000Y-89765500D03*
X69342000Y-91590500D03*
%TD*%
D16*
%TO.C,C11*%
X56642000Y-73686500D03*
X56642000Y-75411500D03*
%TD*%
D14*
%TO.C,R21*%
X71882000Y-89765500D03*
X71882000Y-91590500D03*
%TD*%
D18*
%TO.C,D8*%
X75692000Y-80011000D03*
X75692000Y-83311000D03*
%TD*%
D14*
%TO.C,R19*%
X56642000Y-85066500D03*
X56642000Y-86891500D03*
%TD*%
D19*
%TO.C,C3*%
X53848000Y-53634500D03*
X53848000Y-50759500D03*
%TD*%
D20*
%TO.C,C15*%
X70104000Y-81761500D03*
X70104000Y-80036500D03*
%TD*%
D17*
%TO.C,R10*%
X70104000Y-50315500D03*
X70104000Y-48490500D03*
%TD*%
D18*
%TO.C,D3*%
X64262000Y-44195000D03*
X64262000Y-40895000D03*
%TD*%
D16*
%TO.C,C1*%
X53848000Y-58192500D03*
X53848000Y-59917500D03*
%TD*%
D14*
%TO.C,R8*%
X56642000Y-52046500D03*
X56642000Y-53871500D03*
%TD*%
D13*
%TO.C,U2*%
X62295000Y-46355000D03*
X62295000Y-47625000D03*
X62295000Y-48895000D03*
X62295000Y-50165000D03*
X62295000Y-51435000D03*
X62295000Y-52705000D03*
X62295000Y-53975000D03*
X67245000Y-53975000D03*
X67245000Y-52705000D03*
X67245000Y-51435000D03*
X67245000Y-50165000D03*
X67245000Y-48895000D03*
X67245000Y-47625000D03*
X67245000Y-46355000D03*
%TD*%
D16*
%TO.C,C8*%
X59436000Y-48313000D03*
X59436000Y-50038000D03*
%TD*%
D17*
%TO.C,R14*%
X59436000Y-67587500D03*
X59436000Y-65762500D03*
%TD*%
D14*
%TO.C,R11*%
X70104000Y-44680500D03*
X70104000Y-46505500D03*
%TD*%
D18*
%TO.C,D5*%
X66548000Y-89790000D03*
X66548000Y-93090000D03*
%TD*%
D14*
%TO.C,R35*%
X72898000Y-75668500D03*
X72898000Y-77493500D03*
%TD*%
D17*
%TO.C,R33*%
X70104000Y-77493500D03*
X70104000Y-75668500D03*
%TD*%
D19*
%TO.C,C4*%
X69723000Y-60873500D03*
X69723000Y-57998500D03*
%TD*%
D17*
%TO.C,R20*%
X59436000Y-86891500D03*
X59436000Y-85066500D03*
%TD*%
D18*
%TO.C,D4*%
X72644000Y-50291000D03*
X72644000Y-46991000D03*
%TD*%
%TO.C,D1*%
X67818000Y-44195000D03*
X67818000Y-40895000D03*
%TD*%
D21*
%TO.C,H2*%
X53340000Y-40640000D03*
%TD*%
D14*
%TO.C,R24*%
X56642000Y-69676000D03*
X56642000Y-71501000D03*
%TD*%
D17*
%TO.C,R4*%
X75946000Y-54125500D03*
X75946000Y-52300500D03*
%TD*%
D18*
%TO.C,D6*%
X63500000Y-93090000D03*
X63500000Y-89790000D03*
%TD*%
D20*
%TO.C,C6*%
X59436000Y-46201500D03*
X59436000Y-44476500D03*
%TD*%
%TO.C,C10*%
X60452000Y-91540500D03*
X60452000Y-89815500D03*
%TD*%
D14*
%TO.C,R25*%
X53848000Y-73636500D03*
X53848000Y-75461500D03*
%TD*%
D17*
%TO.C,R26*%
X75692000Y-69873500D03*
X75692000Y-68048500D03*
%TD*%
D20*
%TO.C,C2*%
X73152000Y-54075500D03*
X73152000Y-52350500D03*
%TD*%
D17*
%TO.C,R13*%
X53848000Y-71651500D03*
X53848000Y-69826500D03*
%TD*%
%TO.C,R9*%
X61214000Y-44219500D03*
X61214000Y-42394500D03*
%TD*%
D14*
%TO.C,R18*%
X56642000Y-65762500D03*
X56642000Y-67587500D03*
%TD*%
D17*
%TO.C,R23*%
X59436000Y-75461500D03*
X59436000Y-73636500D03*
%TD*%
%TO.C,R7*%
X56642000Y-46251500D03*
X56642000Y-44426500D03*
%TD*%
D16*
%TO.C,C20*%
X70104000Y-68098500D03*
X70104000Y-69823500D03*
%TD*%
%TO.C,C5*%
X59436000Y-62002500D03*
X59436000Y-63727500D03*
%TD*%
D18*
%TO.C,D2*%
X75692000Y-46991000D03*
X75692000Y-50291000D03*
%TD*%
D14*
%TO.C,R16*%
X53848000Y-81256500D03*
X53848000Y-83081500D03*
%TD*%
%TO.C,R1*%
X56642000Y-61952500D03*
X56642000Y-63777500D03*
%TD*%
D17*
%TO.C,R2*%
X53848000Y-63777500D03*
X53848000Y-61952500D03*
%TD*%
%TO.C,R34*%
X70104000Y-73683500D03*
X70104000Y-71858500D03*
%TD*%
%TO.C,R12*%
X70104000Y-54125500D03*
X70104000Y-52300500D03*
%TD*%
D20*
%TO.C,C19*%
X59436000Y-83031500D03*
X59436000Y-81306500D03*
%TD*%
D22*
%TO.C,H3*%
X76200000Y-93980000D03*
%TD*%
D13*
%TO.C,U3*%
X62295000Y-80010000D03*
X62295000Y-81280000D03*
X62295000Y-82550000D03*
X62295000Y-83820000D03*
X62295000Y-85090000D03*
X62295000Y-86360000D03*
X62295000Y-87630000D03*
X67245000Y-87630000D03*
X67245000Y-86360000D03*
X67245000Y-85090000D03*
X67245000Y-83820000D03*
X67245000Y-82550000D03*
X67245000Y-81280000D03*
X67245000Y-80010000D03*
%TD*%
D16*
%TO.C,C18*%
X70104000Y-85624500D03*
X70104000Y-87349500D03*
%TD*%
D14*
%TO.C,R17*%
X56642000Y-81256500D03*
X56642000Y-83081500D03*
%TD*%
D21*
%TO.C,H4*%
X76200000Y-40640000D03*
%TD*%
D18*
%TO.C,D7*%
X72644000Y-80011000D03*
X72644000Y-83311000D03*
%TD*%
D17*
%TO.C,R32*%
X56642000Y-79271500D03*
X56642000Y-77446500D03*
%TD*%
D14*
%TO.C,R28*%
X58039000Y-89765500D03*
X58039000Y-91590500D03*
%TD*%
D16*
%TO.C,C13*%
X69977000Y-63272500D03*
X69977000Y-64997500D03*
%TD*%
D17*
%TO.C,R22*%
X59436000Y-71501000D03*
X59436000Y-69676000D03*
%TD*%
D14*
%TO.C,R27*%
X72898000Y-68048500D03*
X72898000Y-69873500D03*
%TD*%
D13*
%TO.C,U4*%
X62295000Y-67945000D03*
X62295000Y-69215000D03*
X62295000Y-70485000D03*
X62295000Y-71755000D03*
X62295000Y-73025000D03*
X62295000Y-74295000D03*
X62295000Y-75565000D03*
X62295000Y-76835000D03*
X67245000Y-76835000D03*
X67245000Y-75565000D03*
X67245000Y-74295000D03*
X67245000Y-73025000D03*
X67245000Y-71755000D03*
X67245000Y-70485000D03*
X67245000Y-69215000D03*
X67245000Y-67945000D03*
%TD*%
D17*
%TO.C,R5*%
X56642000Y-50061500D03*
X56642000Y-48236500D03*
%TD*%
%TO.C,R29*%
X75692000Y-87399500D03*
X75692000Y-85574500D03*
%TD*%
D16*
%TO.C,C17*%
X59436000Y-77496500D03*
X59436000Y-79221500D03*
%TD*%
%TO.C,C12*%
X53848000Y-77496500D03*
X53848000Y-79221500D03*
%TD*%
D14*
%TO.C,R30*%
X72898000Y-85574500D03*
X72898000Y-87399500D03*
%TD*%
D16*
%TO.C,C7*%
X59436000Y-52096500D03*
X59436000Y-53821500D03*
%TD*%
D22*
%TO.C,H1*%
X53340000Y-93980000D03*
%TD*%
D23*
%TO.C,J1*%
X50800000Y-50800000D03*
D24*
X50800000Y-53340000D03*
X50800000Y-55880000D03*
X50800000Y-58420000D03*
X50800000Y-60960000D03*
X50800000Y-63500000D03*
X50800000Y-66040000D03*
X50800000Y-68580000D03*
X50800000Y-71120000D03*
X50800000Y-73660000D03*
X50800000Y-76200000D03*
X50800000Y-78740000D03*
X50800000Y-81280000D03*
X50800000Y-83820000D03*
%TD*%
D23*
%TO.C,J2*%
X78740000Y-50800000D03*
D24*
X78740000Y-53340000D03*
X78740000Y-55880000D03*
X78740000Y-58420000D03*
X78740000Y-60960000D03*
X78740000Y-63500000D03*
X78740000Y-66040000D03*
X78740000Y-68580000D03*
X78740000Y-71120000D03*
X78740000Y-73660000D03*
X78740000Y-76200000D03*
X78740000Y-78740000D03*
X78740000Y-81280000D03*
X78740000Y-83820000D03*
%TD*%
M02*
