%TF.GenerationSoftware,KiCad,Pcbnew,(6.0.9-0)*%
%TF.CreationDate,2024-06-20T10:35:51+02:00*%
%TF.ProjectId,filter-board,66696c74-6572-42d6-926f-6172642e6b69,rev?*%
%TF.SameCoordinates,Original*%
%TF.FileFunction,Legend,Bot*%
%TF.FilePolarity,Positive*%
%FSLAX46Y46*%
G04 Gerber Fmt 4.6, Leading zero omitted, Abs format (unit mm)*
G04 Created by KiCad (PCBNEW (6.0.9-0)) date 2024-06-20 10:35:51*
%MOMM*%
%LPD*%
G01*
G04 APERTURE LIST*
%ADD10C,0.150000*%
%ADD11C,0.010000*%
%ADD12C,3.200000*%
%ADD13C,5.500000*%
%ADD14R,1.700000X1.700000*%
%ADD15O,1.700000X1.700000*%
G04 APERTURE END LIST*
D10*
X78547142Y-38561428D02*
X79147142Y-38775714D01*
X78547142Y-38990000D01*
X79147142Y-39804285D02*
X79147142Y-39290000D01*
X79147142Y-39547142D02*
X78247142Y-39547142D01*
X78375714Y-39461428D01*
X78461428Y-39375714D01*
X78504285Y-39290000D01*
X79147142Y-40190000D02*
X78547142Y-40190000D01*
X78718571Y-40190000D02*
X78632857Y-40232857D01*
X78590000Y-40275714D01*
X78547142Y-40361428D01*
X78547142Y-40447142D01*
X79104285Y-41090000D02*
X79147142Y-41004285D01*
X79147142Y-40832857D01*
X79104285Y-40747142D01*
X79018571Y-40704285D01*
X78675714Y-40704285D01*
X78590000Y-40747142D01*
X78547142Y-40832857D01*
X78547142Y-41004285D01*
X78590000Y-41090000D01*
X78675714Y-41132857D01*
X78761428Y-41132857D01*
X78847142Y-40704285D01*
X78547142Y-41432857D02*
X79147142Y-41647142D01*
X78547142Y-41861428D01*
X79147142Y-42675714D02*
X79147142Y-42161428D01*
X79147142Y-42418571D02*
X78247142Y-42418571D01*
X78375714Y-42332857D01*
X78461428Y-42247142D01*
X78504285Y-42161428D01*
X70484285Y-97575714D02*
X70484285Y-98575714D01*
X70484285Y-97623333D02*
X70389047Y-97575714D01*
X70198571Y-97575714D01*
X70103333Y-97623333D01*
X70055714Y-97670952D01*
X70008095Y-97766190D01*
X70008095Y-98051904D01*
X70055714Y-98147142D01*
X70103333Y-98194761D01*
X70198571Y-98242380D01*
X70389047Y-98242380D01*
X70484285Y-98194761D01*
X69198571Y-98194761D02*
X69293809Y-98242380D01*
X69484285Y-98242380D01*
X69579523Y-98194761D01*
X69627142Y-98099523D01*
X69627142Y-97718571D01*
X69579523Y-97623333D01*
X69484285Y-97575714D01*
X69293809Y-97575714D01*
X69198571Y-97623333D01*
X69150952Y-97718571D01*
X69150952Y-97813809D01*
X69627142Y-97909047D01*
X68293809Y-98242380D02*
X68293809Y-97242380D01*
X68293809Y-98194761D02*
X68389047Y-98242380D01*
X68579523Y-98242380D01*
X68674761Y-98194761D01*
X68722380Y-98147142D01*
X68770000Y-98051904D01*
X68770000Y-97766190D01*
X68722380Y-97670952D01*
X68674761Y-97623333D01*
X68579523Y-97575714D01*
X68389047Y-97575714D01*
X68293809Y-97623333D01*
X67389047Y-98242380D02*
X67389047Y-97718571D01*
X67436666Y-97623333D01*
X67531904Y-97575714D01*
X67722380Y-97575714D01*
X67817619Y-97623333D01*
X67389047Y-98194761D02*
X67484285Y-98242380D01*
X67722380Y-98242380D01*
X67817619Y-98194761D01*
X67865238Y-98099523D01*
X67865238Y-98004285D01*
X67817619Y-97909047D01*
X67722380Y-97861428D01*
X67484285Y-97861428D01*
X67389047Y-97813809D01*
X66770000Y-98242380D02*
X66865238Y-98194761D01*
X66912857Y-98099523D01*
X66912857Y-97242380D01*
X66389047Y-98242380D02*
X66389047Y-97575714D01*
X66389047Y-97670952D02*
X66341428Y-97623333D01*
X66246190Y-97575714D01*
X66103333Y-97575714D01*
X66008095Y-97623333D01*
X65960476Y-97718571D01*
X65960476Y-98242380D01*
X65960476Y-97718571D02*
X65912857Y-97623333D01*
X65817619Y-97575714D01*
X65674761Y-97575714D01*
X65579523Y-97623333D01*
X65531904Y-97718571D01*
X65531904Y-98242380D01*
X64627142Y-98242380D02*
X64627142Y-97718571D01*
X64674761Y-97623333D01*
X64770000Y-97575714D01*
X64960476Y-97575714D01*
X65055714Y-97623333D01*
X64627142Y-98194761D02*
X64722380Y-98242380D01*
X64960476Y-98242380D01*
X65055714Y-98194761D01*
X65103333Y-98099523D01*
X65103333Y-98004285D01*
X65055714Y-97909047D01*
X64960476Y-97861428D01*
X64722380Y-97861428D01*
X64627142Y-97813809D01*
X64150952Y-98242380D02*
X64150952Y-97575714D01*
X64150952Y-97766190D02*
X64103333Y-97670952D01*
X64055714Y-97623333D01*
X63960476Y-97575714D01*
X63865238Y-97575714D01*
X63531904Y-98242380D02*
X63531904Y-97242380D01*
X63436666Y-97861428D02*
X63150952Y-98242380D01*
X63150952Y-97575714D02*
X63531904Y-97956666D01*
X62865238Y-97575714D02*
X62484285Y-97575714D01*
X62722380Y-97242380D02*
X62722380Y-98099523D01*
X62674761Y-98194761D01*
X62579523Y-98242380D01*
X62484285Y-98242380D01*
X62150952Y-98147142D02*
X62103333Y-98194761D01*
X62150952Y-98242380D01*
X62198571Y-98194761D01*
X62150952Y-98147142D01*
X62150952Y-98242380D01*
X61246190Y-98194761D02*
X61341428Y-98242380D01*
X61531904Y-98242380D01*
X61627142Y-98194761D01*
X61674761Y-98147142D01*
X61722380Y-98051904D01*
X61722380Y-97766190D01*
X61674761Y-97670952D01*
X61627142Y-97623333D01*
X61531904Y-97575714D01*
X61341428Y-97575714D01*
X61246190Y-97623333D01*
X60674761Y-98242380D02*
X60770000Y-98194761D01*
X60817619Y-98147142D01*
X60865238Y-98051904D01*
X60865238Y-97766190D01*
X60817619Y-97670952D01*
X60770000Y-97623333D01*
X60674761Y-97575714D01*
X60531904Y-97575714D01*
X60436666Y-97623333D01*
X60389047Y-97670952D01*
X60341428Y-97766190D01*
X60341428Y-98051904D01*
X60389047Y-98147142D01*
X60436666Y-98194761D01*
X60531904Y-98242380D01*
X60674761Y-98242380D01*
X59912857Y-98242380D02*
X59912857Y-97575714D01*
X59912857Y-97670952D02*
X59865238Y-97623333D01*
X59770000Y-97575714D01*
X59627142Y-97575714D01*
X59531904Y-97623333D01*
X59484285Y-97718571D01*
X59484285Y-98242380D01*
X59484285Y-97718571D02*
X59436666Y-97623333D01*
X59341428Y-97575714D01*
X59198571Y-97575714D01*
X59103333Y-97623333D01*
X59055714Y-97718571D01*
X59055714Y-98242380D01*
%TO.C,kibuzzard-666B0D69*%
G36*
X72375999Y-83820000D02*
G01*
X72378116Y-83816825D01*
X73949697Y-83816825D01*
X73957287Y-83939410D01*
X73980058Y-84048402D01*
X74018009Y-84143800D01*
X74071140Y-84225606D01*
X74138857Y-84291239D01*
X74220564Y-84338120D01*
X74316260Y-84366249D01*
X74425947Y-84375625D01*
X74706934Y-84375625D01*
X74929184Y-84375625D01*
X75097459Y-84375625D01*
X75492747Y-83581875D01*
X75503859Y-83581875D01*
X75503859Y-84375625D01*
X75659434Y-84375625D01*
X75868984Y-84375625D01*
X75997572Y-84375625D01*
X76016622Y-84280375D01*
X76027734Y-84280375D01*
X76106315Y-84354988D01*
X76175570Y-84382372D01*
X76264272Y-84391500D01*
X76376720Y-84375537D01*
X76470647Y-84327647D01*
X76546053Y-84247831D01*
X76589461Y-84168407D01*
X76620467Y-84073802D01*
X76639071Y-83964016D01*
X76645272Y-83839050D01*
X76638426Y-83707734D01*
X76617887Y-83591598D01*
X76583657Y-83490643D01*
X76535734Y-83404869D01*
X76453361Y-83317997D01*
X76352290Y-83265874D01*
X76232522Y-83248500D01*
X76139212Y-83258466D01*
X76058249Y-83288364D01*
X75989634Y-83338194D01*
X75935483Y-83405839D01*
X75897912Y-83489183D01*
X75876922Y-83588225D01*
X76051547Y-83588225D01*
X76089294Y-83485037D01*
X76149619Y-83423125D01*
X76232522Y-83402488D01*
X76334122Y-83430467D01*
X76410322Y-83514406D01*
X76445599Y-83600219D01*
X76466766Y-83708434D01*
X76473822Y-83839050D01*
X76464233Y-83984782D01*
X76435468Y-84098130D01*
X76387525Y-84179093D01*
X76320406Y-84227670D01*
X76234109Y-84243863D01*
X76150170Y-84228781D01*
X76085678Y-84183538D01*
X76044601Y-84110116D01*
X76030909Y-84010500D01*
X76030909Y-83921600D01*
X76242047Y-83921600D01*
X76242047Y-83788250D01*
X75868984Y-83788250D01*
X75868984Y-84375625D01*
X75659434Y-84375625D01*
X75659434Y-83264375D01*
X75491159Y-83264375D01*
X75095872Y-84059713D01*
X75084759Y-84059713D01*
X75084759Y-83264375D01*
X74929184Y-83264375D01*
X74929184Y-84375625D01*
X74706934Y-84375625D01*
X74706934Y-83264375D01*
X74425947Y-83264375D01*
X74316905Y-83273652D01*
X74221556Y-83301483D01*
X74139899Y-83347868D01*
X74071934Y-83412806D01*
X74018455Y-83493719D01*
X73980256Y-83588027D01*
X73957337Y-83695729D01*
X73949697Y-83816825D01*
X72378116Y-83816825D01*
X72977485Y-82917771D01*
X76976001Y-82917771D01*
X76976001Y-84722229D01*
X72977485Y-84722229D01*
X72375999Y-83820000D01*
G37*
G36*
X74540247Y-84224812D02*
G01*
X74435472Y-84224812D01*
X74340134Y-84213259D01*
X74261552Y-84178599D01*
X74199728Y-84120831D01*
X74155190Y-84040839D01*
X74128467Y-83939503D01*
X74119559Y-83816825D01*
X74128335Y-83694102D01*
X74154661Y-83593693D01*
X74198537Y-83515597D01*
X74259965Y-83459814D01*
X74338943Y-83426344D01*
X74435472Y-83415188D01*
X74540247Y-83415188D01*
X74540247Y-84224812D01*
G37*
%TO.C,kibuzzard-666B0D3F*%
G36*
X54147134Y-51092894D02*
G01*
X54081252Y-51160759D01*
X53994734Y-51183381D01*
X53908810Y-51159569D01*
X53841540Y-51088131D01*
X53809349Y-51013872D01*
X53790034Y-50918092D01*
X53783596Y-50800794D01*
X53787565Y-50711894D01*
X53799471Y-50629344D01*
X54147134Y-51092894D01*
G37*
G36*
X54080855Y-50440431D02*
G01*
X54148721Y-50511869D01*
X54181353Y-50586305D01*
X54200932Y-50682613D01*
X54207459Y-50800794D01*
X54203490Y-50894059D01*
X54191584Y-50970656D01*
X53843921Y-50508694D01*
X53909405Y-50439637D01*
X53994734Y-50416619D01*
X54080855Y-50440431D01*
G37*
G36*
X55975338Y-50425152D02*
G01*
X56035465Y-50469800D01*
X56074160Y-50536277D01*
X56087059Y-50616644D01*
X56074359Y-50695027D01*
X56036259Y-50758725D01*
X55976330Y-50800992D01*
X55898146Y-50815081D01*
X55820954Y-50800794D01*
X55760827Y-50757931D01*
X55722132Y-50694034D01*
X55709234Y-50616644D01*
X55722330Y-50536277D01*
X55761621Y-50469800D01*
X55821946Y-50425152D01*
X55898146Y-50410269D01*
X55975338Y-50425152D01*
G37*
G36*
X52579610Y-49944602D02*
G01*
X56578125Y-49944602D01*
X57148390Y-50800000D01*
X56578125Y-51655398D01*
X52579610Y-51655398D01*
X52579610Y-50802381D01*
X53613734Y-50802381D01*
X53620133Y-50923825D01*
X53639332Y-51029394D01*
X53671330Y-51119087D01*
X53716127Y-51192906D01*
X53792592Y-51266108D01*
X53885461Y-51310028D01*
X53994734Y-51324669D01*
X54104271Y-51309852D01*
X54197934Y-51265402D01*
X54275721Y-51191319D01*
X54321560Y-51116805D01*
X54354302Y-51026616D01*
X54373948Y-50920749D01*
X54380496Y-50799206D01*
X54373948Y-50679003D01*
X54354302Y-50573980D01*
X54332824Y-50515044D01*
X54550359Y-50515044D01*
X54850396Y-51308794D01*
X55047246Y-51308794D01*
X55306644Y-50626169D01*
X55544134Y-50626169D01*
X55552468Y-50718839D01*
X55577471Y-50803175D01*
X55617159Y-50885130D01*
X55669546Y-50970656D01*
X55888621Y-51308794D01*
X56088646Y-51308794D01*
X55815596Y-50916681D01*
X55934659Y-50937319D01*
X56058087Y-50914498D01*
X56158496Y-50846037D01*
X56207885Y-50779627D01*
X56237518Y-50702104D01*
X56247396Y-50613469D01*
X56236460Y-50520159D01*
X56203652Y-50439197D01*
X56148971Y-50370581D01*
X56077181Y-50318547D01*
X55993043Y-50287326D01*
X55896559Y-50276919D01*
X55798398Y-50287590D01*
X55713467Y-50319605D01*
X55641765Y-50372963D01*
X55587525Y-50443783D01*
X55554981Y-50528185D01*
X55544134Y-50626169D01*
X55306644Y-50626169D01*
X55348871Y-50515044D01*
X55182184Y-50515044D01*
X54953584Y-51140519D01*
X54942471Y-51140519D01*
X54715459Y-50515044D01*
X54550359Y-50515044D01*
X54332824Y-50515044D01*
X54321560Y-50484137D01*
X54275721Y-50409475D01*
X54197934Y-50334951D01*
X54104271Y-50290236D01*
X53994734Y-50275331D01*
X53885461Y-50290236D01*
X53792592Y-50334951D01*
X53716127Y-50409475D01*
X53671330Y-50484336D01*
X53639332Y-50574773D01*
X53620133Y-50680789D01*
X53613734Y-50802381D01*
X52579610Y-50802381D01*
X52579610Y-49944602D01*
G37*
%TO.C,G\u002A\u002A\u002A*%
G36*
X66484947Y-92058295D02*
G01*
X66487169Y-92109403D01*
X66489007Y-92170857D01*
X66489286Y-92181358D01*
X66490837Y-92229535D01*
X66492911Y-92282252D01*
X66495422Y-92338129D01*
X66498286Y-92395791D01*
X66501416Y-92453860D01*
X66504729Y-92510957D01*
X66508139Y-92565707D01*
X66511561Y-92616730D01*
X66514910Y-92662651D01*
X66518101Y-92702090D01*
X66521048Y-92733672D01*
X66523667Y-92756018D01*
X66525873Y-92767750D01*
X66526393Y-92768320D01*
X66531348Y-92763991D01*
X66540411Y-92750739D01*
X66552654Y-92730013D01*
X66567150Y-92703263D01*
X66615218Y-92617983D01*
X66673146Y-92531074D01*
X66737800Y-92449914D01*
X66811524Y-92371319D01*
X66838373Y-92345164D01*
X66870831Y-92315391D01*
X66897324Y-92293809D01*
X66918782Y-92279750D01*
X66936136Y-92272543D01*
X66950315Y-92271521D01*
X66956199Y-92271956D01*
X66966706Y-92269477D01*
X66978492Y-92261091D01*
X66994571Y-92244991D01*
X67008045Y-92232184D01*
X67032109Y-92213540D01*
X67055433Y-92199433D01*
X67059439Y-92197490D01*
X67077398Y-92189875D01*
X67094488Y-92185438D01*
X67114990Y-92183368D01*
X67143187Y-92182858D01*
X67148327Y-92182868D01*
X67175129Y-92183584D01*
X67194874Y-92185995D01*
X67211812Y-92190892D01*
X67230194Y-92199068D01*
X67245834Y-92207547D01*
X67267759Y-92222931D01*
X67289565Y-92243186D01*
X67313205Y-92270202D01*
X67340633Y-92305868D01*
X67363073Y-92338159D01*
X67396831Y-92397963D01*
X67420188Y-92458085D01*
X67433992Y-92520476D01*
X67434588Y-92525267D01*
X67436349Y-92545458D01*
X67438300Y-92575079D01*
X67440344Y-92612267D01*
X67442384Y-92655160D01*
X67444321Y-92701894D01*
X67446058Y-92750606D01*
X67447491Y-92791921D01*
X67456506Y-92986087D01*
X67468984Y-93171932D01*
X67484867Y-93349124D01*
X67504099Y-93517329D01*
X67526624Y-93676217D01*
X67552386Y-93825453D01*
X67581329Y-93964707D01*
X67613395Y-94093645D01*
X67648530Y-94211934D01*
X67686676Y-94319243D01*
X67727778Y-94415239D01*
X67730367Y-94420745D01*
X67747485Y-94458699D01*
X67759226Y-94488872D01*
X67766085Y-94513615D01*
X67768560Y-94535278D01*
X67767148Y-94556210D01*
X67762346Y-94578761D01*
X67746667Y-94622034D01*
X67720136Y-94665155D01*
X67685231Y-94700280D01*
X67657819Y-94718565D01*
X67630742Y-94728183D01*
X67606858Y-94726671D01*
X67600955Y-94724364D01*
X67583897Y-94715975D01*
X67561376Y-94703662D01*
X67536068Y-94689024D01*
X67510645Y-94673657D01*
X67487781Y-94659160D01*
X67470151Y-94647131D01*
X67460427Y-94639167D01*
X67458307Y-94636603D01*
X67452820Y-94625557D01*
X67450005Y-94609018D01*
X67449211Y-94583770D01*
X67449474Y-94568196D01*
X67451832Y-94545804D01*
X67457831Y-94525343D01*
X67468896Y-94500802D01*
X67483196Y-94476392D01*
X67503483Y-94450033D01*
X67525871Y-94427214D01*
X67547939Y-94410367D01*
X67567270Y-94401923D01*
X67579059Y-94398087D01*
X67584222Y-94393313D01*
X67584109Y-94392706D01*
X67579467Y-94384484D01*
X67569379Y-94370162D01*
X67555720Y-94352428D01*
X67540053Y-94331835D01*
X67499348Y-94268509D01*
X67460685Y-94193673D01*
X67424135Y-94107569D01*
X67389763Y-94010440D01*
X67357640Y-93902527D01*
X67327833Y-93784072D01*
X67300411Y-93655317D01*
X67275442Y-93516504D01*
X67252993Y-93367875D01*
X67233134Y-93209672D01*
X67231842Y-93198177D01*
X67227497Y-93157369D01*
X67223746Y-93118855D01*
X67220803Y-93085038D01*
X67218881Y-93058324D01*
X67218193Y-93041119D01*
X67219637Y-93014621D01*
X67229268Y-92962601D01*
X67248019Y-92903619D01*
X67275979Y-92837363D01*
X67300636Y-92782134D01*
X67320324Y-92731988D01*
X67334452Y-92687206D01*
X67343641Y-92645471D01*
X67348509Y-92604461D01*
X67349678Y-92561860D01*
X67348640Y-92521647D01*
X67346252Y-92490174D01*
X67342343Y-92468628D01*
X67336724Y-92455975D01*
X67329202Y-92451182D01*
X67324551Y-92450987D01*
X67320498Y-92453602D01*
X67318165Y-92461518D01*
X67316995Y-92476968D01*
X67316426Y-92502186D01*
X67315432Y-92513542D01*
X67312779Y-92543833D01*
X67299637Y-92601922D01*
X67277418Y-92665271D01*
X67246609Y-92733065D01*
X67207694Y-92804489D01*
X67161159Y-92878728D01*
X67107487Y-92954968D01*
X67047165Y-93032394D01*
X66980677Y-93110190D01*
X66908509Y-93187542D01*
X66891049Y-93205536D01*
X66865035Y-93232612D01*
X66842774Y-93256107D01*
X66825432Y-93274776D01*
X66814173Y-93287374D01*
X66810161Y-93292658D01*
X66811275Y-93295740D01*
X66817494Y-93306731D01*
X66827355Y-93321867D01*
X66827692Y-93322360D01*
X66855503Y-93369607D01*
X66880506Y-93424662D01*
X66901062Y-93483431D01*
X66915529Y-93541823D01*
X66918308Y-93560242D01*
X66921453Y-93594952D01*
X66923462Y-93637004D01*
X66924169Y-93683672D01*
X66924170Y-93780376D01*
X66959220Y-93793156D01*
X66975325Y-93799798D01*
X66993603Y-93809323D01*
X67004912Y-93817695D01*
X67006428Y-93819404D01*
X67010231Y-93825144D01*
X67010856Y-93831929D01*
X67007650Y-93842126D01*
X66999962Y-93858102D01*
X66987139Y-93882225D01*
X66985331Y-93885436D01*
X66956085Y-93937367D01*
X66879654Y-94056098D01*
X66793027Y-94170090D01*
X66697132Y-94278338D01*
X66592899Y-94379835D01*
X66481254Y-94473575D01*
X66363126Y-94558553D01*
X66311496Y-94591807D01*
X66176140Y-94670824D01*
X66031808Y-94744297D01*
X65879943Y-94811695D01*
X65739048Y-94865921D01*
X65721988Y-94872487D01*
X65559386Y-94926142D01*
X65393581Y-94972128D01*
X65226014Y-95009914D01*
X65058130Y-95038970D01*
X64959229Y-95053438D01*
X64942378Y-95032996D01*
X64933745Y-95023200D01*
X64918880Y-95008905D01*
X64905032Y-94998121D01*
X64893829Y-94991694D01*
X64886902Y-94990472D01*
X64885882Y-94995300D01*
X64892398Y-95007028D01*
X64894760Y-95011061D01*
X64900226Y-95030976D01*
X64902011Y-95061420D01*
X64902093Y-95070926D01*
X64903481Y-95091447D01*
X64907192Y-95104685D01*
X64914012Y-95114089D01*
X64917310Y-95117445D01*
X64921854Y-95121482D01*
X64927237Y-95124009D01*
X64935303Y-95125020D01*
X64947898Y-95124512D01*
X64966863Y-95122480D01*
X64994043Y-95118921D01*
X65031281Y-95113830D01*
X65177221Y-95090448D01*
X65352474Y-95053460D01*
X65526456Y-95007235D01*
X65697648Y-94952312D01*
X65864529Y-94889227D01*
X66025582Y-94818517D01*
X66179286Y-94740722D01*
X66324123Y-94656378D01*
X66355163Y-94636533D01*
X66475278Y-94550945D01*
X66589167Y-94455424D01*
X66696184Y-94350592D01*
X66795684Y-94237071D01*
X66887019Y-94115482D01*
X66924170Y-94061950D01*
X66924170Y-94128229D01*
X66923789Y-94157175D01*
X66921676Y-94186723D01*
X66916786Y-94211948D01*
X66908095Y-94236388D01*
X66894574Y-94263582D01*
X66875198Y-94297068D01*
X66836390Y-94358982D01*
X66756561Y-94471886D01*
X66668262Y-94580161D01*
X66573118Y-94682005D01*
X66472750Y-94775616D01*
X66368784Y-94859192D01*
X66300708Y-94907350D01*
X66182390Y-94981931D01*
X66055095Y-95052003D01*
X65920368Y-95116933D01*
X65779759Y-95176086D01*
X65634815Y-95228828D01*
X65487084Y-95274525D01*
X65338114Y-95312544D01*
X65189453Y-95342251D01*
X65110043Y-95354960D01*
X65034292Y-95365186D01*
X64966081Y-95372349D01*
X64906207Y-95376394D01*
X64855469Y-95377269D01*
X64814664Y-95374919D01*
X64784590Y-95369291D01*
X64783008Y-95368803D01*
X64776046Y-95366301D01*
X64767233Y-95362563D01*
X64756001Y-95357267D01*
X64741784Y-95350094D01*
X64724013Y-95340723D01*
X64702119Y-95328834D01*
X64675536Y-95314107D01*
X64643694Y-95296221D01*
X64606027Y-95274856D01*
X64561966Y-95249692D01*
X64510943Y-95220409D01*
X64452391Y-95186685D01*
X64385740Y-95148202D01*
X64310425Y-95104638D01*
X64225875Y-95055673D01*
X64131525Y-95000987D01*
X64096722Y-94980821D01*
X64038725Y-94947269D01*
X64028430Y-94941326D01*
X65028021Y-94941326D01*
X65029948Y-94952737D01*
X65035521Y-94957562D01*
X65035745Y-94957545D01*
X65048260Y-94955619D01*
X65070312Y-94951260D01*
X65099864Y-94944938D01*
X65134877Y-94937121D01*
X65173314Y-94928277D01*
X65213137Y-94918875D01*
X65252308Y-94909385D01*
X65288790Y-94900274D01*
X65320544Y-94892011D01*
X65418051Y-94865921D01*
X65418034Y-94844940D01*
X65460055Y-94844940D01*
X65460155Y-94846159D01*
X65462206Y-94848685D01*
X65468043Y-94848926D01*
X65479158Y-94846496D01*
X65497039Y-94841010D01*
X65523177Y-94832081D01*
X65559062Y-94819326D01*
X65569628Y-94815537D01*
X65601342Y-94804163D01*
X65630243Y-94793799D01*
X65653504Y-94785459D01*
X65668297Y-94780158D01*
X65693525Y-94771121D01*
X65694914Y-94742132D01*
X65742726Y-94742132D01*
X65744646Y-94747873D01*
X65746226Y-94747519D01*
X65757147Y-94743425D01*
X65776021Y-94735476D01*
X65800711Y-94724589D01*
X65829084Y-94711678D01*
X65834515Y-94709172D01*
X65866274Y-94694541D01*
X65896891Y-94680473D01*
X65923114Y-94668461D01*
X65941695Y-94659996D01*
X65957309Y-94652254D01*
X65973084Y-94641129D01*
X65979901Y-94629976D01*
X65979985Y-94629617D01*
X65981116Y-94617658D01*
X65981285Y-94610811D01*
X66019407Y-94610811D01*
X66021832Y-94616018D01*
X66022300Y-94615958D01*
X66031092Y-94612211D01*
X66047930Y-94603427D01*
X66070901Y-94590711D01*
X66098090Y-94575170D01*
X66127586Y-94557909D01*
X66157473Y-94540032D01*
X66185840Y-94522646D01*
X66210772Y-94506857D01*
X66262434Y-94473395D01*
X66265156Y-94445164D01*
X66301301Y-94445164D01*
X66301435Y-94445198D01*
X66307539Y-94441776D01*
X66321104Y-94432524D01*
X66340257Y-94418756D01*
X66363126Y-94401786D01*
X66369186Y-94397211D01*
X66493933Y-94295669D01*
X66609173Y-94187094D01*
X66715557Y-94070830D01*
X66813736Y-93946219D01*
X66858165Y-93885436D01*
X66858119Y-93844211D01*
X66858044Y-93836508D01*
X66854961Y-93791555D01*
X66847063Y-93743416D01*
X66833935Y-93690362D01*
X66815160Y-93630665D01*
X66790323Y-93562596D01*
X66783964Y-93546633D01*
X66767947Y-93509691D01*
X66749246Y-93469924D01*
X66728808Y-93429054D01*
X66707578Y-93388804D01*
X66686504Y-93350899D01*
X66666531Y-93317061D01*
X66648604Y-93289014D01*
X66633671Y-93268483D01*
X66622677Y-93257189D01*
X66617115Y-93253551D01*
X66608454Y-93251472D01*
X66599437Y-93257583D01*
X66596735Y-93260587D01*
X66592231Y-93268916D01*
X66588134Y-93281838D01*
X66584297Y-93300409D01*
X66580576Y-93325685D01*
X66576825Y-93358723D01*
X66572897Y-93400578D01*
X66568647Y-93452306D01*
X66566035Y-93487007D01*
X66563930Y-93514963D01*
X66562887Y-93529188D01*
X66556542Y-93612211D01*
X66550361Y-93686421D01*
X66549144Y-93699626D01*
X66544081Y-93754563D01*
X66537436Y-93819377D01*
X66530162Y-93883608D01*
X66521995Y-93949997D01*
X66519654Y-93968484D01*
X66515864Y-93998795D01*
X66512803Y-94023780D01*
X66510738Y-94041248D01*
X66509937Y-94049005D01*
X66509901Y-94049195D01*
X66506960Y-94045482D01*
X66499991Y-94032931D01*
X66489972Y-94013376D01*
X66477877Y-93988656D01*
X66472695Y-93978024D01*
X66459987Y-93952899D01*
X66445848Y-93925897D01*
X66431427Y-93899111D01*
X66417876Y-93874634D01*
X66406345Y-93854560D01*
X66397984Y-93840980D01*
X66393944Y-93835988D01*
X66393790Y-93836353D01*
X66393137Y-93844014D01*
X66392613Y-93858490D01*
X66391923Y-93866450D01*
X66388546Y-93886972D01*
X66383037Y-93913071D01*
X66376145Y-93940997D01*
X66371427Y-93959115D01*
X66365021Y-93985444D01*
X66359190Y-94012175D01*
X66353660Y-94040955D01*
X66348157Y-94073430D01*
X66342407Y-94111247D01*
X66336138Y-94156050D01*
X66329076Y-94209487D01*
X66320947Y-94273203D01*
X66319780Y-94282481D01*
X66314450Y-94325504D01*
X66309790Y-94364178D01*
X66307449Y-94384295D01*
X66305972Y-94396991D01*
X66303170Y-94422434D01*
X66301555Y-94438995D01*
X66301301Y-94445164D01*
X66265156Y-94445164D01*
X66266405Y-94432213D01*
X66267400Y-94384295D01*
X66259866Y-94321554D01*
X66243094Y-94253594D01*
X66217340Y-94181413D01*
X66182860Y-94106010D01*
X66172026Y-94085047D01*
X66157019Y-94057299D01*
X66142366Y-94031448D01*
X66129115Y-94009238D01*
X66118315Y-93992413D01*
X66111014Y-93982717D01*
X66108259Y-93981894D01*
X66109284Y-93986793D01*
X66114163Y-93998108D01*
X66115520Y-94001680D01*
X66116038Y-94013885D01*
X66112656Y-94033209D01*
X66105084Y-94061659D01*
X66101432Y-94074496D01*
X66092619Y-94107953D01*
X66084604Y-94142724D01*
X66077073Y-94180583D01*
X66069712Y-94223301D01*
X66062207Y-94272652D01*
X66054246Y-94330410D01*
X66045513Y-94398346D01*
X66044959Y-94402770D01*
X66039305Y-94447620D01*
X66033968Y-94489528D01*
X66029180Y-94526699D01*
X66025173Y-94557340D01*
X66022180Y-94579659D01*
X66020433Y-94591861D01*
X66019786Y-94596725D01*
X66019653Y-94597723D01*
X66019407Y-94610811D01*
X65981285Y-94610811D01*
X65981633Y-94596725D01*
X65981509Y-94569668D01*
X65980720Y-94539335D01*
X65980476Y-94532843D01*
X65978810Y-94500097D01*
X65976237Y-94474419D01*
X65972007Y-94451585D01*
X65965371Y-94427373D01*
X65955581Y-94397559D01*
X65955251Y-94396596D01*
X65939598Y-94354950D01*
X65920203Y-94309372D01*
X65898865Y-94263718D01*
X65877385Y-94221843D01*
X65857564Y-94187605D01*
X65842158Y-94163200D01*
X65831172Y-94189067D01*
X65829986Y-94192078D01*
X65824286Y-94210073D01*
X65817324Y-94236062D01*
X65809874Y-94267035D01*
X65802706Y-94299982D01*
X65799893Y-94313786D01*
X65795173Y-94337738D01*
X65790836Y-94361185D01*
X65786653Y-94385679D01*
X65782391Y-94412773D01*
X65777820Y-94444018D01*
X65772707Y-94480967D01*
X65766823Y-94525171D01*
X65759935Y-94578182D01*
X65751812Y-94641552D01*
X65750161Y-94654681D01*
X65745482Y-94695571D01*
X65743633Y-94717319D01*
X65743004Y-94724710D01*
X65742726Y-94742132D01*
X65694914Y-94742132D01*
X65695299Y-94734088D01*
X65695640Y-94717319D01*
X65694835Y-94686640D01*
X65692656Y-94658317D01*
X65692154Y-94654224D01*
X65683930Y-94612235D01*
X65669859Y-94563552D01*
X65650997Y-94510915D01*
X65628402Y-94457064D01*
X65603130Y-94404737D01*
X65576239Y-94356672D01*
X65570629Y-94347486D01*
X65561153Y-94332865D01*
X65555398Y-94326714D01*
X65551712Y-94327721D01*
X65548444Y-94334573D01*
X65545589Y-94342465D01*
X65537374Y-94368950D01*
X65528161Y-94402810D01*
X65518746Y-94440885D01*
X65509925Y-94480016D01*
X65502492Y-94517042D01*
X65500023Y-94531532D01*
X65496030Y-94557603D01*
X65491325Y-94590341D01*
X65486174Y-94627685D01*
X65480845Y-94667574D01*
X65475604Y-94707947D01*
X65470717Y-94746743D01*
X65466453Y-94781901D01*
X65463076Y-94811361D01*
X65460854Y-94833061D01*
X65460055Y-94844940D01*
X65418034Y-94844940D01*
X65418016Y-94823492D01*
X65413879Y-94759309D01*
X65400598Y-94684578D01*
X65378680Y-94605479D01*
X65348653Y-94523442D01*
X65311046Y-94439900D01*
X65266386Y-94356283D01*
X65215202Y-94274023D01*
X65194819Y-94244021D01*
X65318491Y-94244021D01*
X65319992Y-94248145D01*
X65325599Y-94262450D01*
X65334419Y-94284430D01*
X65345610Y-94311988D01*
X65358328Y-94343028D01*
X65366812Y-94363567D01*
X65378471Y-94391504D01*
X65388036Y-94414075D01*
X65394693Y-94429364D01*
X65397627Y-94435458D01*
X65398586Y-94435681D01*
X65403310Y-94429663D01*
X65409997Y-94415662D01*
X65417637Y-94396349D01*
X65425223Y-94374395D01*
X65431748Y-94352472D01*
X65436201Y-94333249D01*
X65437650Y-94323885D01*
X65440081Y-94301029D01*
X65442003Y-94273916D01*
X65443335Y-94245249D01*
X65443996Y-94217732D01*
X65443905Y-94194066D01*
X65442979Y-94176955D01*
X65441139Y-94169100D01*
X65435294Y-94170439D01*
X65421150Y-94176779D01*
X65400913Y-94187116D01*
X65376750Y-94200398D01*
X65354110Y-94213617D01*
X65332783Y-94227492D01*
X65321153Y-94237445D01*
X65318491Y-94244021D01*
X65194819Y-94244021D01*
X65194807Y-94244004D01*
X65169863Y-94209267D01*
X65149604Y-94184207D01*
X65133359Y-94168339D01*
X65120460Y-94161178D01*
X65110238Y-94162241D01*
X65102024Y-94171042D01*
X65095149Y-94187098D01*
X65094558Y-94189239D01*
X65091995Y-94204603D01*
X65089058Y-94230265D01*
X65085863Y-94264881D01*
X65082527Y-94307110D01*
X65079167Y-94355609D01*
X65075898Y-94409034D01*
X65074379Y-94435108D01*
X65069131Y-94518903D01*
X65068175Y-94532291D01*
X65063773Y-94593906D01*
X65058088Y-94662608D01*
X65051858Y-94727500D01*
X65044864Y-94791073D01*
X65036891Y-94855819D01*
X65033842Y-94880480D01*
X65030827Y-94907379D01*
X65028777Y-94928716D01*
X65028021Y-94941326D01*
X64028430Y-94941326D01*
X63984265Y-94915830D01*
X63934198Y-94886994D01*
X63889378Y-94861250D01*
X63850660Y-94839089D01*
X63818899Y-94821000D01*
X63794948Y-94807473D01*
X63779664Y-94798998D01*
X63773900Y-94796064D01*
X63773144Y-94800009D01*
X63774056Y-94813593D01*
X63776690Y-94834576D01*
X63780793Y-94860569D01*
X63786496Y-94895871D01*
X63793899Y-94946371D01*
X63801641Y-95003522D01*
X63809348Y-95064445D01*
X63816645Y-95126262D01*
X63823157Y-95186095D01*
X63824689Y-95203803D01*
X63826877Y-95242577D01*
X63828589Y-95292330D01*
X63829810Y-95352428D01*
X63830525Y-95422236D01*
X63830719Y-95501120D01*
X63830529Y-95562510D01*
X63829832Y-95629277D01*
X63828467Y-95687621D01*
X63826265Y-95739516D01*
X63823059Y-95786941D01*
X63818681Y-95831870D01*
X63812963Y-95876281D01*
X63805736Y-95922148D01*
X63796834Y-95971450D01*
X63786087Y-96026161D01*
X63776063Y-96072640D01*
X63755104Y-96155673D01*
X63730849Y-96236984D01*
X63704033Y-96314521D01*
X63675389Y-96386227D01*
X63645650Y-96450048D01*
X63615550Y-96503928D01*
X63600147Y-96528660D01*
X63632856Y-96550378D01*
X63639197Y-96554668D01*
X63662891Y-96573364D01*
X63677449Y-96591555D01*
X63684655Y-96612169D01*
X63686293Y-96638136D01*
X63685463Y-96651013D01*
X63675982Y-96691899D01*
X63657399Y-96732197D01*
X63631458Y-96768671D01*
X63599908Y-96798089D01*
X63596688Y-96800417D01*
X63577391Y-96812166D01*
X63559008Y-96818143D01*
X63539430Y-96818072D01*
X63516546Y-96811678D01*
X63488246Y-96798684D01*
X63452419Y-96778815D01*
X63442782Y-96773195D01*
X63417113Y-96757753D01*
X63399605Y-96746015D01*
X63388400Y-96736473D01*
X63381641Y-96727620D01*
X63377472Y-96717946D01*
X63372199Y-96685358D01*
X63375954Y-96648088D01*
X63388064Y-96609717D01*
X63407481Y-96572722D01*
X63433160Y-96539583D01*
X63464055Y-96512779D01*
X63468188Y-96509917D01*
X63477112Y-96503076D01*
X63483805Y-96495617D01*
X63489274Y-96485330D01*
X63494525Y-96470006D01*
X63500565Y-96447432D01*
X63508400Y-96415400D01*
X63529445Y-96324050D01*
X63554100Y-96200364D01*
X63573032Y-96080523D01*
X63586567Y-95961504D01*
X63595028Y-95840281D01*
X63598739Y-95713830D01*
X63598025Y-95579126D01*
X63597560Y-95557705D01*
X63595184Y-95478445D01*
X63591730Y-95403004D01*
X63587000Y-95329442D01*
X63580797Y-95255819D01*
X63572925Y-95180195D01*
X63563186Y-95100628D01*
X63551383Y-95015179D01*
X63537319Y-94921908D01*
X63520797Y-94818873D01*
X63489581Y-94628665D01*
X63229140Y-94477925D01*
X63217468Y-94471174D01*
X63167100Y-94442165D01*
X63120132Y-94415305D01*
X63077558Y-94391150D01*
X63040373Y-94370257D01*
X63009574Y-94353183D01*
X62986156Y-94340485D01*
X62971114Y-94332720D01*
X62965443Y-94330443D01*
X62965116Y-94334052D01*
X62966175Y-94347872D01*
X62968798Y-94370057D01*
X62972739Y-94398569D01*
X62977747Y-94431372D01*
X62988984Y-94503792D01*
X62999602Y-94577971D01*
X63008108Y-94645832D01*
X63014761Y-94710252D01*
X63019819Y-94774109D01*
X63023541Y-94840280D01*
X63026185Y-94911645D01*
X63028009Y-94991079D01*
X63028963Y-95067284D01*
X63028825Y-95142467D01*
X63027318Y-95210169D01*
X63024326Y-95272738D01*
X63019735Y-95332521D01*
X63013429Y-95391864D01*
X63005292Y-95453116D01*
X62990293Y-95544474D01*
X62966611Y-95656937D01*
X62938224Y-95763597D01*
X62905573Y-95862993D01*
X62869099Y-95953670D01*
X62829245Y-96034169D01*
X62797760Y-96091154D01*
X62833362Y-96116261D01*
X62842821Y-96123176D01*
X62865757Y-96143892D01*
X62878867Y-96164844D01*
X62883432Y-96188798D01*
X62880732Y-96218519D01*
X62877813Y-96231744D01*
X62869106Y-96259861D01*
X62858593Y-96285080D01*
X62849186Y-96301287D01*
X62829237Y-96327453D01*
X62805865Y-96351294D01*
X62781964Y-96369991D01*
X62760429Y-96380722D01*
X62756371Y-96381857D01*
X62744454Y-96383794D01*
X62731967Y-96382821D01*
X62716998Y-96378233D01*
X62697632Y-96369328D01*
X62671958Y-96355403D01*
X62638061Y-96335755D01*
X62625976Y-96328535D01*
X62600555Y-96311842D01*
X62583712Y-96297107D01*
X62573765Y-96282088D01*
X62569031Y-96264544D01*
X62567827Y-96242236D01*
X62569788Y-96219568D01*
X62580897Y-96180246D01*
X62600315Y-96141371D01*
X62626322Y-96106110D01*
X62657198Y-96077632D01*
X62685031Y-96057200D01*
X62704383Y-95977175D01*
X62713016Y-95940851D01*
X62737431Y-95828835D01*
X62756896Y-95722281D01*
X62771851Y-95617760D01*
X62782741Y-95511843D01*
X62790006Y-95401100D01*
X62794091Y-95282102D01*
X62794744Y-95242674D01*
X62794781Y-95152825D01*
X62792676Y-95062816D01*
X62788302Y-94971382D01*
X62781532Y-94877258D01*
X62772239Y-94779181D01*
X62760293Y-94675885D01*
X62745569Y-94566106D01*
X62727938Y-94448579D01*
X62707273Y-94322040D01*
X62697392Y-94265301D01*
X63481391Y-94265301D01*
X63482377Y-94267850D01*
X63489470Y-94265510D01*
X63501487Y-94261414D01*
X63536764Y-94257005D01*
X63570474Y-94264187D01*
X63602067Y-94282673D01*
X63630992Y-94312177D01*
X63656698Y-94352413D01*
X63659740Y-94358068D01*
X63670692Y-94376330D01*
X63679870Y-94388606D01*
X63685542Y-94392490D01*
X63691688Y-94385830D01*
X63697320Y-94372656D01*
X63700509Y-94362452D01*
X63712365Y-94335481D01*
X63727904Y-94316683D01*
X63749308Y-94303140D01*
X63757673Y-94299030D01*
X63777781Y-94288219D01*
X63793382Y-94278653D01*
X63803530Y-94272506D01*
X63813598Y-94271000D01*
X63819721Y-94279250D01*
X63823612Y-94298374D01*
X63824454Y-94304260D01*
X63826957Y-94318143D01*
X63828922Y-94324311D01*
X63829201Y-94324438D01*
X63837039Y-94327479D01*
X63854664Y-94334157D01*
X63880845Y-94344010D01*
X63914350Y-94356577D01*
X63953949Y-94371395D01*
X63998410Y-94388002D01*
X64046502Y-94405937D01*
X64082924Y-94419531D01*
X64132050Y-94437988D01*
X64171832Y-94453174D01*
X64203453Y-94465603D01*
X64228095Y-94475790D01*
X64246941Y-94484251D01*
X64261175Y-94491500D01*
X64271977Y-94498053D01*
X64280532Y-94504424D01*
X64288021Y-94511129D01*
X64295020Y-94517807D01*
X64307387Y-94529107D01*
X64312601Y-94532291D01*
X64311653Y-94527592D01*
X64305534Y-94515244D01*
X64301873Y-94508774D01*
X64292603Y-94496278D01*
X64279479Y-94483528D01*
X64260823Y-94469166D01*
X64234954Y-94451835D01*
X64200194Y-94430181D01*
X64185543Y-94421130D01*
X64158842Y-94403623D01*
X64139766Y-94389084D01*
X64126182Y-94375788D01*
X64115956Y-94362008D01*
X64096499Y-94335274D01*
X64056826Y-94296651D01*
X64009519Y-94266875D01*
X64008245Y-94266250D01*
X63986604Y-94256568D01*
X63967107Y-94250566D01*
X63945041Y-94247160D01*
X63915694Y-94245263D01*
X63882509Y-94242028D01*
X63834209Y-94231161D01*
X63781972Y-94212352D01*
X63723881Y-94184998D01*
X63706256Y-94176827D01*
X63689469Y-94171928D01*
X63669482Y-94169632D01*
X63641911Y-94169087D01*
X63622101Y-94169396D01*
X63599243Y-94171261D01*
X63581729Y-94175435D01*
X63565572Y-94182625D01*
X63540843Y-94197829D01*
X63510801Y-94223183D01*
X63489470Y-94250433D01*
X63486513Y-94255521D01*
X63481391Y-94265301D01*
X62697392Y-94265301D01*
X62683446Y-94185224D01*
X62678836Y-94159430D01*
X62420953Y-94010073D01*
X62411324Y-94004498D01*
X62361148Y-93975523D01*
X62314379Y-93948635D01*
X62272013Y-93924399D01*
X62235045Y-93903379D01*
X62204469Y-93886139D01*
X62181281Y-93873243D01*
X62166475Y-93865255D01*
X62161047Y-93862738D01*
X62160916Y-93864102D01*
X62161991Y-93874785D01*
X62164753Y-93894233D01*
X62168886Y-93920311D01*
X62174075Y-93950883D01*
X62180908Y-93991019D01*
X62206451Y-94166690D01*
X62224193Y-94337833D01*
X62234174Y-94503954D01*
X62236434Y-94664562D01*
X62231014Y-94819165D01*
X62217954Y-94967272D01*
X62197294Y-95108388D01*
X62169075Y-95242024D01*
X62133337Y-95367687D01*
X62090120Y-95484884D01*
X62039465Y-95593123D01*
X62037371Y-95597118D01*
X62024250Y-95622264D01*
X62013579Y-95642928D01*
X62006406Y-95657065D01*
X62003782Y-95662631D01*
X62003783Y-95662641D01*
X62008418Y-95666588D01*
X62020390Y-95675371D01*
X62037133Y-95687107D01*
X62041308Y-95690025D01*
X62065473Y-95709897D01*
X62079960Y-95729603D01*
X62086334Y-95752123D01*
X62086164Y-95780440D01*
X62081405Y-95808165D01*
X62068497Y-95845088D01*
X62049562Y-95879456D01*
X62026126Y-95909402D01*
X61999719Y-95933057D01*
X61971869Y-95948555D01*
X61944103Y-95954029D01*
X61936922Y-95953171D01*
X61916453Y-95946670D01*
X61890822Y-95935116D01*
X61862742Y-95920108D01*
X61834926Y-95903243D01*
X61810086Y-95886119D01*
X61790933Y-95870332D01*
X61780180Y-95857481D01*
X61772896Y-95833802D01*
X61772712Y-95802300D01*
X61779981Y-95767802D01*
X61793730Y-95732731D01*
X61812987Y-95699511D01*
X61836778Y-95670566D01*
X61864131Y-95648320D01*
X61871548Y-95643533D01*
X61878746Y-95637706D01*
X61884463Y-95630184D01*
X61889567Y-95618976D01*
X61894925Y-95602090D01*
X61901407Y-95577532D01*
X61909879Y-95543312D01*
X61916799Y-95514691D01*
X61943530Y-95392722D01*
X61964354Y-95275273D01*
X61979818Y-95158360D01*
X61990469Y-95038002D01*
X61996854Y-94910217D01*
X61999152Y-94772633D01*
X61996464Y-94629981D01*
X61988419Y-94485444D01*
X61974857Y-94336156D01*
X61955616Y-94179251D01*
X61952944Y-94160310D01*
X61948053Y-94127246D01*
X61942099Y-94088304D01*
X61935324Y-94044963D01*
X61927972Y-93998699D01*
X61920286Y-93950991D01*
X61912508Y-93903317D01*
X61904882Y-93857154D01*
X61899963Y-93827783D01*
X62677631Y-93827783D01*
X62678497Y-93828034D01*
X62687424Y-93826931D01*
X62702288Y-93823373D01*
X62716867Y-93820844D01*
X62748089Y-93822773D01*
X62779276Y-93832772D01*
X62805855Y-93849681D01*
X62807720Y-93851402D01*
X62821243Y-93866974D01*
X62836577Y-93888523D01*
X62850750Y-93911931D01*
X62854785Y-93919091D01*
X62866558Y-93937932D01*
X62876525Y-93951066D01*
X62882867Y-93955998D01*
X62884511Y-93955579D01*
X62890473Y-93947471D01*
X62894935Y-93931511D01*
X62900266Y-93914011D01*
X62913638Y-93891343D01*
X62931358Y-93873158D01*
X62950422Y-93863158D01*
X62953322Y-93862300D01*
X62969931Y-93854684D01*
X62987010Y-93843720D01*
X62996828Y-93837137D01*
X63008844Y-93834029D01*
X63015592Y-93841508D01*
X63017862Y-93859990D01*
X63018949Y-93870757D01*
X63022455Y-93881323D01*
X63022812Y-93881647D01*
X63031119Y-93885785D01*
X63049212Y-93893494D01*
X63075841Y-93904282D01*
X63109754Y-93917653D01*
X63149701Y-93933114D01*
X63194432Y-93950171D01*
X63242696Y-93968330D01*
X63273691Y-93979931D01*
X63323963Y-93998863D01*
X63364766Y-94014464D01*
X63397279Y-94027247D01*
X63422678Y-94037725D01*
X63442144Y-94046410D01*
X63456852Y-94053815D01*
X63467982Y-94060453D01*
X63476710Y-94066836D01*
X63484215Y-94073479D01*
X63488987Y-94078011D01*
X63502261Y-94090175D01*
X63508349Y-94094336D01*
X63508297Y-94090860D01*
X63503151Y-94080113D01*
X63499904Y-94074257D01*
X63499398Y-94073554D01*
X65598865Y-94073554D01*
X65599452Y-94076760D01*
X65603726Y-94089443D01*
X65605549Y-94094336D01*
X65611385Y-94109996D01*
X65621726Y-94136544D01*
X65634045Y-94167215D01*
X65642790Y-94188623D01*
X65654777Y-94217718D01*
X65654783Y-94217732D01*
X65664834Y-94241840D01*
X65672105Y-94258938D01*
X65675733Y-94266961D01*
X65677942Y-94268474D01*
X65683732Y-94263384D01*
X65691091Y-94250228D01*
X65699100Y-94231284D01*
X65706840Y-94208833D01*
X65713392Y-94185156D01*
X65717837Y-94162530D01*
X65719156Y-94151953D01*
X65721228Y-94127961D01*
X65722744Y-94100682D01*
X65723660Y-94072660D01*
X65723934Y-94046437D01*
X65723524Y-94024557D01*
X65722387Y-94009564D01*
X65720480Y-94004002D01*
X65715046Y-94006558D01*
X65701667Y-94013792D01*
X65682948Y-94024247D01*
X65661448Y-94036456D01*
X65639728Y-94048956D01*
X65620351Y-94060282D01*
X65605876Y-94068970D01*
X65598865Y-94073554D01*
X63499398Y-94073554D01*
X63490642Y-94061390D01*
X63477574Y-94048386D01*
X63459010Y-94033861D01*
X63433255Y-94016431D01*
X63398617Y-93994714D01*
X63383100Y-93985086D01*
X63355046Y-93966730D01*
X63335215Y-93951932D01*
X63321909Y-93939357D01*
X63313429Y-93927667D01*
X63312075Y-93925316D01*
X63301144Y-93910780D01*
X65881357Y-93910780D01*
X65882129Y-93914088D01*
X65886704Y-93926852D01*
X65894682Y-93947452D01*
X65905339Y-93974031D01*
X65917953Y-94004732D01*
X65927136Y-94026891D01*
X65935191Y-94046437D01*
X65939072Y-94055854D01*
X65948862Y-94079801D01*
X65955682Y-94096713D01*
X65958707Y-94104569D01*
X65959025Y-94105407D01*
X65963401Y-94106289D01*
X65970296Y-94097050D01*
X65978976Y-94078944D01*
X65988709Y-94053226D01*
X65994979Y-94029527D01*
X66000728Y-93997409D01*
X66005330Y-93961386D01*
X66008373Y-93925352D01*
X66009449Y-93893202D01*
X66008145Y-93868830D01*
X66006932Y-93860816D01*
X66004188Y-93847322D01*
X66001964Y-93841989D01*
X66001891Y-93842000D01*
X65995687Y-93845095D01*
X65981829Y-93852683D01*
X65962879Y-93863304D01*
X65941396Y-93875497D01*
X65919941Y-93887802D01*
X65901076Y-93898758D01*
X65887361Y-93906904D01*
X65881357Y-93910780D01*
X63301144Y-93910780D01*
X63282045Y-93885383D01*
X63243577Y-93852349D01*
X63198683Y-93827348D01*
X63149374Y-93811516D01*
X63097664Y-93805986D01*
X63076623Y-93804365D01*
X63040513Y-93796967D01*
X63000232Y-93784558D01*
X62959123Y-93768213D01*
X62920529Y-93749008D01*
X62919113Y-93748453D01*
X66176585Y-93748453D01*
X66178164Y-93752123D01*
X66183837Y-93765701D01*
X66192679Y-93787058D01*
X66203851Y-93814164D01*
X66216513Y-93844989D01*
X66224978Y-93865562D01*
X66236447Y-93893202D01*
X66236542Y-93893431D01*
X66245985Y-93915899D01*
X66252502Y-93931063D01*
X66255293Y-93937017D01*
X66256187Y-93937363D01*
X66261476Y-93932243D01*
X66269018Y-93919333D01*
X66277369Y-93901345D01*
X66285087Y-93880992D01*
X66287925Y-93870677D01*
X66292500Y-93847107D01*
X66296802Y-93817617D01*
X66300543Y-93785164D01*
X66303435Y-93752709D01*
X66305191Y-93723210D01*
X66305523Y-93699626D01*
X66304144Y-93684916D01*
X66300173Y-93669093D01*
X66236872Y-93705508D01*
X66235590Y-93706248D01*
X66211713Y-93720681D01*
X66192650Y-93733431D01*
X66180305Y-93743141D01*
X66176585Y-93748453D01*
X62919113Y-93748453D01*
X62882355Y-93734047D01*
X62840875Y-93729093D01*
X62798899Y-93733826D01*
X62758831Y-93747696D01*
X62723077Y-93770155D01*
X62694042Y-93800655D01*
X62687245Y-93810374D01*
X62679759Y-93822331D01*
X62677631Y-93827783D01*
X61899963Y-93827783D01*
X61897651Y-93813981D01*
X61891058Y-93775276D01*
X61885345Y-93742515D01*
X61880757Y-93717178D01*
X61877535Y-93700743D01*
X61875924Y-93694686D01*
X61861014Y-93685376D01*
X61840998Y-93666152D01*
X61829520Y-93645172D01*
X61829403Y-93644749D01*
X61827886Y-93633512D01*
X61826647Y-93612329D01*
X61825684Y-93580906D01*
X61824992Y-93538951D01*
X61824568Y-93486170D01*
X61824409Y-93422271D01*
X61824443Y-93397177D01*
X61882902Y-93397177D01*
X61916290Y-93393731D01*
X61938993Y-93392951D01*
X61974060Y-93399549D01*
X62004705Y-93416570D01*
X62031623Y-93444465D01*
X62055509Y-93483682D01*
X62063132Y-93498628D01*
X62072800Y-93515868D01*
X62079811Y-93524680D01*
X62085596Y-93526635D01*
X62091585Y-93523303D01*
X62096336Y-93516873D01*
X62099790Y-93503115D01*
X62102410Y-93490484D01*
X62112672Y-93471126D01*
X62127865Y-93452971D01*
X62144929Y-93440279D01*
X62148674Y-93438350D01*
X62166954Y-93428286D01*
X62185968Y-93417093D01*
X62200667Y-93409379D01*
X62212742Y-93408247D01*
X62220267Y-93417117D01*
X62225195Y-93436980D01*
X62228800Y-93458615D01*
X62447102Y-93540280D01*
X62450996Y-93541737D01*
X62507102Y-93562815D01*
X62553132Y-93580327D01*
X62590221Y-93594759D01*
X62619506Y-93606601D01*
X62642122Y-93616341D01*
X62659206Y-93624465D01*
X62671893Y-93631463D01*
X62681319Y-93637823D01*
X62688621Y-93644031D01*
X62692736Y-93647900D01*
X62705730Y-93659011D01*
X62710949Y-93660983D01*
X62708417Y-93653802D01*
X62698159Y-93637450D01*
X62689793Y-93628072D01*
X62670498Y-93611836D01*
X62642813Y-93591840D01*
X62608020Y-93569058D01*
X62579140Y-93550532D01*
X62554338Y-93533445D01*
X62536567Y-93519320D01*
X62523963Y-93506659D01*
X62514663Y-93493961D01*
X62487181Y-93458829D01*
X62451242Y-93426705D01*
X62411621Y-93402242D01*
X62411460Y-93402165D01*
X62386667Y-93392425D01*
X62357628Y-93384331D01*
X62328173Y-93378626D01*
X62302134Y-93376052D01*
X62283341Y-93377354D01*
X62271761Y-93376860D01*
X62250969Y-93371793D01*
X62223465Y-93362767D01*
X62191314Y-93350525D01*
X62156582Y-93335804D01*
X62121333Y-93319344D01*
X62096130Y-93309166D01*
X62051800Y-93301016D01*
X62007233Y-93304578D01*
X61963880Y-93319845D01*
X61956749Y-93323493D01*
X61930230Y-93339622D01*
X61910404Y-93357619D01*
X61893132Y-93381064D01*
X61882902Y-93397177D01*
X61824443Y-93397177D01*
X61824510Y-93346960D01*
X61824712Y-93298066D01*
X64488296Y-93298066D01*
X64488351Y-93298403D01*
X64491480Y-93306774D01*
X64498944Y-93324375D01*
X64510097Y-93349751D01*
X64524292Y-93381445D01*
X64540884Y-93417999D01*
X64559226Y-93457959D01*
X64629837Y-93610971D01*
X64903935Y-93652946D01*
X64956415Y-93660983D01*
X65178032Y-93694922D01*
X65178032Y-93717451D01*
X65178108Y-93721551D01*
X65179642Y-93734613D01*
X65182533Y-93739775D01*
X65182903Y-93739663D01*
X65190734Y-93735664D01*
X65207574Y-93726413D01*
X65232268Y-93712564D01*
X65263663Y-93694771D01*
X65300604Y-93673688D01*
X65341935Y-93649969D01*
X65386504Y-93624266D01*
X65585975Y-93508963D01*
X65586020Y-93487007D01*
X65585523Y-93481997D01*
X65581298Y-93466059D01*
X65572558Y-93441916D01*
X65559055Y-93408953D01*
X65540544Y-93366555D01*
X65516777Y-93314106D01*
X65447490Y-93163162D01*
X65465158Y-93143039D01*
X65472982Y-93132582D01*
X65485493Y-93111124D01*
X65495776Y-93088305D01*
X65496062Y-93087539D01*
X65500431Y-93074896D01*
X65503615Y-93062522D01*
X65505762Y-93048373D01*
X65507016Y-93030405D01*
X65507524Y-93006573D01*
X65507434Y-92974833D01*
X65506892Y-92933140D01*
X65505058Y-92812586D01*
X65485373Y-92772635D01*
X65479707Y-92761875D01*
X65449273Y-92719851D01*
X65433841Y-92706294D01*
X65884877Y-92706294D01*
X65967989Y-92754347D01*
X65979210Y-92760834D01*
X66012717Y-92780205D01*
X66052610Y-92803265D01*
X66096047Y-92828372D01*
X66140186Y-92853885D01*
X66182186Y-92878159D01*
X66212118Y-92895437D01*
X66244980Y-92914351D01*
X66273072Y-92930458D01*
X66294990Y-92942957D01*
X66309330Y-92951045D01*
X66314690Y-92953919D01*
X66314734Y-92953871D01*
X66314310Y-92947360D01*
X66312403Y-92931442D01*
X66309302Y-92908374D01*
X66305296Y-92880413D01*
X66305048Y-92878724D01*
X66299481Y-92838946D01*
X66653585Y-92838946D01*
X66662996Y-92861470D01*
X66664966Y-92866098D01*
X66675223Y-92886045D01*
X66686744Y-92899096D01*
X66702918Y-92909311D01*
X66728077Y-92917135D01*
X66761012Y-92915956D01*
X66798098Y-92904240D01*
X66838823Y-92882157D01*
X66882675Y-92849875D01*
X66918817Y-92816091D01*
X66957266Y-92770263D01*
X66990371Y-92719813D01*
X67017103Y-92666828D01*
X67036430Y-92613396D01*
X67047320Y-92561604D01*
X67048745Y-92513542D01*
X67046092Y-92492398D01*
X67036993Y-92462723D01*
X67021289Y-92440984D01*
X66997861Y-92425241D01*
X66993594Y-92423214D01*
X66977214Y-92417078D01*
X66962145Y-92416013D01*
X66942028Y-92419347D01*
X66916033Y-92426589D01*
X66871793Y-92446323D01*
X66829981Y-92473717D01*
X66792153Y-92507097D01*
X66759866Y-92544790D01*
X66734673Y-92585123D01*
X66718132Y-92626421D01*
X66711797Y-92667012D01*
X66711779Y-92682523D01*
X66713482Y-92697624D01*
X66718437Y-92707852D01*
X66727989Y-92717396D01*
X66729774Y-92718878D01*
X66744469Y-92728123D01*
X66757085Y-92731901D01*
X66772443Y-92729562D01*
X66798314Y-92718022D01*
X66825745Y-92698385D01*
X66852768Y-92672384D01*
X66877411Y-92641752D01*
X66897704Y-92608222D01*
X66909169Y-92584415D01*
X66916670Y-92564326D01*
X66920253Y-92545864D01*
X66921170Y-92524567D01*
X66918978Y-92496288D01*
X66911437Y-92476431D01*
X66897653Y-92465221D01*
X66876736Y-92461393D01*
X66855164Y-92460905D01*
X66873166Y-92452663D01*
X66877707Y-92450877D01*
X66897392Y-92446169D01*
X66918860Y-92444149D01*
X66942497Y-92446992D01*
X66965570Y-92458413D01*
X66982096Y-92477483D01*
X66992313Y-92503032D01*
X66996459Y-92533894D01*
X66994774Y-92568897D01*
X66987496Y-92606876D01*
X66974863Y-92646660D01*
X66957113Y-92687081D01*
X66934487Y-92726971D01*
X66907221Y-92765161D01*
X66875555Y-92800482D01*
X66839727Y-92831767D01*
X66830249Y-92838898D01*
X66800191Y-92859489D01*
X66774876Y-92872734D01*
X66751671Y-92879815D01*
X66727943Y-92881913D01*
X66719875Y-92881821D01*
X66702619Y-92879837D01*
X66689589Y-92873480D01*
X66675068Y-92860430D01*
X66653585Y-92838946D01*
X66299481Y-92838946D01*
X66298696Y-92833334D01*
X66292307Y-92783965D01*
X66286089Y-92732602D01*
X66280255Y-92681226D01*
X66275015Y-92631821D01*
X66270579Y-92586371D01*
X66267159Y-92546858D01*
X66264965Y-92515267D01*
X66264207Y-92493579D01*
X66264228Y-92489662D01*
X66265587Y-92459037D01*
X66269527Y-92429758D01*
X66276708Y-92399463D01*
X66287791Y-92365793D01*
X66303436Y-92326385D01*
X66324306Y-92278879D01*
X66329869Y-92266540D01*
X66350099Y-92220145D01*
X66365484Y-92181192D01*
X66376664Y-92147132D01*
X66384281Y-92115417D01*
X66388973Y-92083497D01*
X66391382Y-92048822D01*
X66392149Y-92008845D01*
X66392138Y-91993817D01*
X66391229Y-91956163D01*
X66388822Y-91928900D01*
X66384690Y-91910867D01*
X66378604Y-91900900D01*
X66370336Y-91897836D01*
X66370028Y-91897853D01*
X66365963Y-91903058D01*
X66363548Y-91918226D01*
X66362620Y-91944339D01*
X66361704Y-91966367D01*
X66359076Y-91984843D01*
X66355508Y-92009926D01*
X66343004Y-92056705D01*
X66323629Y-92108613D01*
X66296819Y-92167560D01*
X66257234Y-92243174D01*
X66196555Y-92342205D01*
X66126171Y-92440130D01*
X66045365Y-92537932D01*
X65953418Y-92636591D01*
X65884877Y-92706294D01*
X65433841Y-92706294D01*
X65408967Y-92684443D01*
X65359071Y-92655909D01*
X65288052Y-92627235D01*
X65196884Y-92601444D01*
X65105025Y-92587592D01*
X65012786Y-92585681D01*
X64920482Y-92595715D01*
X64828425Y-92617694D01*
X64736929Y-92651621D01*
X64709910Y-92664230D01*
X64670160Y-92687226D01*
X64639069Y-92712635D01*
X64614510Y-92742347D01*
X64594352Y-92778254D01*
X64587518Y-92794005D01*
X64575721Y-92836197D01*
X64574960Y-92876225D01*
X64585444Y-92915058D01*
X64607383Y-92953668D01*
X64640990Y-92993024D01*
X64653598Y-93004932D01*
X64696703Y-93036926D01*
X64748302Y-93065095D01*
X64806014Y-93088564D01*
X64867457Y-93106458D01*
X64930252Y-93117903D01*
X64992018Y-93122023D01*
X65031021Y-93122130D01*
X65007583Y-93135532D01*
X64998107Y-93141335D01*
X64975441Y-93161019D01*
X64962885Y-93184436D01*
X64959015Y-93213879D01*
X64959547Y-93225502D01*
X64967431Y-93254989D01*
X64984935Y-93277367D01*
X65012298Y-93292989D01*
X65024669Y-93297126D01*
X65037745Y-93299574D01*
X65053798Y-93300164D01*
X65075801Y-93298995D01*
X65106730Y-93296170D01*
X65151815Y-93290586D01*
X65228556Y-93275389D01*
X65296606Y-93254072D01*
X65309862Y-93249198D01*
X65325917Y-93243971D01*
X65334927Y-93241942D01*
X65336315Y-93242511D01*
X65338923Y-93250454D01*
X65339691Y-93268464D01*
X65338682Y-93297446D01*
X65337496Y-93314625D01*
X65331509Y-93355289D01*
X65320506Y-93387407D01*
X65303151Y-93413200D01*
X65278107Y-93434888D01*
X65244038Y-93454692D01*
X65216426Y-93467801D01*
X65177179Y-93482827D01*
X65137211Y-93492924D01*
X65090939Y-93499733D01*
X65040496Y-93502435D01*
X64983491Y-93499174D01*
X64928010Y-93489855D01*
X64876521Y-93475050D01*
X64831490Y-93455331D01*
X64795385Y-93431269D01*
X64784532Y-93421442D01*
X64765826Y-93398981D01*
X64753166Y-93373004D01*
X64745437Y-93340786D01*
X64741523Y-93299600D01*
X64738356Y-93237535D01*
X64713675Y-93224981D01*
X64708050Y-93222072D01*
X64688886Y-93211587D01*
X64673674Y-93202510D01*
X64668281Y-93199321D01*
X64662312Y-93197601D01*
X64654724Y-93198493D01*
X64643765Y-93202682D01*
X64627685Y-93210854D01*
X64604736Y-93223694D01*
X64573166Y-93241889D01*
X64553167Y-93253661D01*
X64527295Y-93269556D01*
X64506707Y-93283018D01*
X64493131Y-93292903D01*
X64488296Y-93298066D01*
X61824712Y-93298066D01*
X61824869Y-93259943D01*
X61826769Y-92896914D01*
X61844341Y-92846574D01*
X61858696Y-92811910D01*
X61886078Y-92763586D01*
X61919260Y-92720096D01*
X61955781Y-92685006D01*
X61956948Y-92684107D01*
X61970163Y-92675072D01*
X61992468Y-92660881D01*
X62022714Y-92642226D01*
X62059749Y-92619800D01*
X62102426Y-92594294D01*
X62149593Y-92566401D01*
X62200102Y-92536811D01*
X62252802Y-92506219D01*
X62516823Y-92353659D01*
X62520203Y-92466274D01*
X62521159Y-92496284D01*
X62522526Y-92529537D01*
X62524187Y-92554679D01*
X62526426Y-92573976D01*
X62529529Y-92589697D01*
X62533781Y-92604107D01*
X62539466Y-92619473D01*
X62551920Y-92647427D01*
X62581701Y-92698775D01*
X62619449Y-92750130D01*
X62663018Y-92798954D01*
X62710258Y-92842711D01*
X62759023Y-92878862D01*
X62769873Y-92885754D01*
X62857331Y-92934370D01*
X62954363Y-92976994D01*
X63060067Y-93013311D01*
X63173541Y-93043007D01*
X63293884Y-93065765D01*
X63320923Y-93069264D01*
X63369963Y-93073354D01*
X63426474Y-93076017D01*
X63487782Y-93077269D01*
X63551213Y-93077126D01*
X63614094Y-93075603D01*
X63673752Y-93072718D01*
X63727512Y-93068484D01*
X63772703Y-93062919D01*
X63879237Y-93042914D01*
X63981210Y-93016752D01*
X64076565Y-92985034D01*
X64164728Y-92948128D01*
X64245123Y-92906403D01*
X64317176Y-92860227D01*
X64380313Y-92809970D01*
X64433957Y-92756001D01*
X64477536Y-92698688D01*
X64510473Y-92638400D01*
X64532195Y-92575506D01*
X64534795Y-92563458D01*
X64537033Y-92548481D01*
X64538753Y-92530000D01*
X64540010Y-92506600D01*
X64540859Y-92476865D01*
X64541355Y-92439378D01*
X64541552Y-92392724D01*
X64541505Y-92335487D01*
X64541496Y-92331684D01*
X64541328Y-92278461D01*
X64541080Y-92236249D01*
X64540705Y-92204116D01*
X64540287Y-92186615D01*
X64992018Y-92186615D01*
X64995731Y-92189603D01*
X65008744Y-92198020D01*
X65029981Y-92211075D01*
X65058260Y-92228058D01*
X65092399Y-92248262D01*
X65131217Y-92270977D01*
X65173532Y-92295494D01*
X65208680Y-92315750D01*
X65249333Y-92339145D01*
X65286028Y-92360227D01*
X65317480Y-92378259D01*
X65342401Y-92392502D01*
X65359504Y-92402219D01*
X65367502Y-92406672D01*
X65379957Y-92413179D01*
X65369294Y-92333595D01*
X65364431Y-92296563D01*
X65363868Y-92292061D01*
X65700073Y-92292061D01*
X65700587Y-92295945D01*
X65706592Y-92310951D01*
X65717115Y-92328652D01*
X65729340Y-92344682D01*
X65740449Y-92354672D01*
X65742903Y-92356038D01*
X65773431Y-92366579D01*
X65806538Y-92366310D01*
X65842879Y-92355132D01*
X65883107Y-92332946D01*
X65928305Y-92298666D01*
X65973288Y-92254119D01*
X66012793Y-92203885D01*
X66045651Y-92149902D01*
X66070697Y-92094109D01*
X66086763Y-92038443D01*
X66092682Y-91984843D01*
X66092414Y-91968340D01*
X66087261Y-91929778D01*
X66075415Y-91900963D01*
X66056595Y-91881562D01*
X66030523Y-91871238D01*
X65996920Y-91869655D01*
X65974222Y-91872687D01*
X65942948Y-91882340D01*
X65910501Y-91899387D01*
X65874087Y-91925089D01*
X65841221Y-91952663D01*
X65807283Y-91988635D01*
X65782136Y-92026474D01*
X65764063Y-92068418D01*
X65755640Y-92102493D01*
X65754995Y-92133469D01*
X65762414Y-92156799D01*
X65776822Y-92171862D01*
X65797145Y-92178038D01*
X65822307Y-92174705D01*
X65851234Y-92161243D01*
X65882849Y-92137029D01*
X65890292Y-92129962D01*
X65916613Y-92099993D01*
X65937714Y-92067965D01*
X65953360Y-92035342D01*
X65963314Y-92003593D01*
X65967340Y-91974183D01*
X65965204Y-91948579D01*
X65956669Y-91928246D01*
X65941499Y-91914652D01*
X65919459Y-91909263D01*
X65912499Y-91908942D01*
X65908005Y-91907751D01*
X65913140Y-91904906D01*
X65928817Y-91899449D01*
X65943649Y-91895351D01*
X65974613Y-91893228D01*
X66000147Y-91900823D01*
X66019868Y-91917264D01*
X66033391Y-91941677D01*
X66040333Y-91973192D01*
X66040309Y-92010934D01*
X66032935Y-92054033D01*
X66017828Y-92101616D01*
X66004801Y-92131370D01*
X65979166Y-92176417D01*
X65948463Y-92218296D01*
X65914164Y-92255636D01*
X65877740Y-92287066D01*
X65840662Y-92311214D01*
X65804403Y-92326708D01*
X65770434Y-92332178D01*
X65763741Y-92332112D01*
X65746748Y-92330192D01*
X65734194Y-92323707D01*
X65720297Y-92310110D01*
X65712803Y-92302220D01*
X65703648Y-92293687D01*
X65700073Y-92292061D01*
X65363868Y-92292061D01*
X65357447Y-92240708D01*
X65351046Y-92186404D01*
X65345411Y-92135373D01*
X65340721Y-92089336D01*
X65337158Y-92050016D01*
X65334902Y-92019137D01*
X65334133Y-91998419D01*
X65334722Y-91979444D01*
X65338145Y-91949660D01*
X65345172Y-91918198D01*
X65356433Y-91882899D01*
X65372556Y-91841599D01*
X65394172Y-91792139D01*
X65409752Y-91757327D01*
X65427527Y-91715573D01*
X65440891Y-91680298D01*
X65450456Y-91649035D01*
X65456833Y-91619318D01*
X65460634Y-91588683D01*
X65462470Y-91554663D01*
X65462952Y-91514792D01*
X65462952Y-91509191D01*
X65462802Y-91475306D01*
X65462237Y-91451221D01*
X65461033Y-91435007D01*
X65458968Y-91424733D01*
X65455820Y-91418469D01*
X65451366Y-91414284D01*
X65443272Y-91408958D01*
X65436122Y-91405797D01*
X65434656Y-91410342D01*
X65434067Y-91423893D01*
X65434669Y-91443300D01*
X65433959Y-91475559D01*
X65432626Y-91483412D01*
X65425579Y-91524932D01*
X65409116Y-91580630D01*
X65385019Y-91641648D01*
X65353739Y-91706982D01*
X65315726Y-91775627D01*
X65271432Y-91846581D01*
X65221307Y-91918837D01*
X65215492Y-91926714D01*
X65191783Y-91957477D01*
X65163501Y-91992611D01*
X65132620Y-92029796D01*
X65101112Y-92066711D01*
X65070951Y-92101035D01*
X65044108Y-92130449D01*
X65022557Y-92152630D01*
X65021347Y-92153814D01*
X65006524Y-92168893D01*
X64996012Y-92180646D01*
X64992018Y-92186615D01*
X64540287Y-92186615D01*
X64540156Y-92181132D01*
X64539386Y-92166365D01*
X64538346Y-92158885D01*
X64536991Y-92157761D01*
X64535272Y-92162062D01*
X64533143Y-92170857D01*
X64523388Y-92206064D01*
X64497900Y-92265390D01*
X64461981Y-92323238D01*
X64416609Y-92378321D01*
X64362763Y-92429356D01*
X64301421Y-92475058D01*
X64266790Y-92496668D01*
X64183980Y-92540714D01*
X64092619Y-92580116D01*
X63994670Y-92614231D01*
X63892095Y-92642416D01*
X63786855Y-92664027D01*
X63680915Y-92678422D01*
X63643233Y-92681069D01*
X63595412Y-92682554D01*
X63541627Y-92682832D01*
X63484867Y-92681977D01*
X63428122Y-92680063D01*
X63374383Y-92677164D01*
X63326640Y-92673353D01*
X63287884Y-92668705D01*
X63203784Y-92653780D01*
X63102001Y-92629482D01*
X63006282Y-92599546D01*
X62917266Y-92564370D01*
X62835594Y-92524346D01*
X62761904Y-92479869D01*
X62696836Y-92431335D01*
X62641029Y-92379136D01*
X62595123Y-92323668D01*
X62559756Y-92265326D01*
X62535568Y-92204503D01*
X62530212Y-92184209D01*
X62521692Y-92121883D01*
X62524419Y-92059178D01*
X62537921Y-91997128D01*
X62561729Y-91936766D01*
X62595371Y-91879123D01*
X62638378Y-91825232D01*
X62690278Y-91776125D01*
X62750600Y-91732836D01*
X62751604Y-91732214D01*
X62771901Y-91720629D01*
X62796004Y-91708234D01*
X62821506Y-91696094D01*
X62846004Y-91685275D01*
X62867092Y-91676840D01*
X62882364Y-91671854D01*
X62889417Y-91671383D01*
X62886776Y-91674941D01*
X62876313Y-91683098D01*
X62860344Y-91693828D01*
X62852016Y-91699418D01*
X62823504Y-91721864D01*
X62792486Y-91750249D01*
X62761413Y-91781983D01*
X62732734Y-91814477D01*
X62708899Y-91845141D01*
X62692357Y-91871387D01*
X62690692Y-91874614D01*
X62666020Y-91934284D01*
X62653312Y-91993192D01*
X62652555Y-92051258D01*
X62663732Y-92108397D01*
X62686828Y-92164528D01*
X62721826Y-92219569D01*
X62768712Y-92273437D01*
X62781630Y-92286150D01*
X62838810Y-92335462D01*
X62901360Y-92378300D01*
X62970841Y-92415524D01*
X63048814Y-92447996D01*
X63136838Y-92476575D01*
X63155879Y-92481972D01*
X63206204Y-92495189D01*
X63252835Y-92505489D01*
X63298381Y-92513198D01*
X63345451Y-92518639D01*
X63396655Y-92522140D01*
X63454602Y-92524025D01*
X63521902Y-92524621D01*
X63536144Y-92524625D01*
X63588617Y-92524401D01*
X63632182Y-92523615D01*
X63669329Y-92522032D01*
X63702546Y-92519415D01*
X63734325Y-92515528D01*
X63767155Y-92510135D01*
X63803526Y-92502999D01*
X63845927Y-92493884D01*
X63928576Y-92472613D01*
X64013571Y-92443791D01*
X64092506Y-92409626D01*
X64164545Y-92370685D01*
X64228849Y-92327535D01*
X64284581Y-92280744D01*
X64330903Y-92230878D01*
X64366979Y-92178504D01*
X64391970Y-92124190D01*
X64398269Y-92103909D01*
X64408442Y-92044544D01*
X64406915Y-91984293D01*
X64393770Y-91924081D01*
X64369089Y-91864833D01*
X64353380Y-91839484D01*
X64328406Y-91807148D01*
X64298078Y-91773229D01*
X64264895Y-91740337D01*
X64231355Y-91711083D01*
X64199955Y-91688078D01*
X64186600Y-91679118D01*
X64175669Y-91670265D01*
X64175367Y-91666765D01*
X64185627Y-91668616D01*
X64206381Y-91675819D01*
X64237564Y-91688373D01*
X64285606Y-91711672D01*
X64349691Y-91753244D01*
X64408238Y-91803790D01*
X64459097Y-91861626D01*
X64469089Y-91874152D01*
X64496194Y-91901377D01*
X64528205Y-91923409D01*
X64532315Y-91925756D01*
X64551032Y-91935433D01*
X64565127Y-91941108D01*
X64571814Y-91941618D01*
X64572598Y-91940313D01*
X64576887Y-91929672D01*
X64583098Y-91911499D01*
X64590172Y-91888835D01*
X64608459Y-91832895D01*
X64616283Y-91813803D01*
X64776001Y-91813803D01*
X64779262Y-91825927D01*
X64789823Y-91842978D01*
X64804631Y-91859077D01*
X64820506Y-91870195D01*
X64822701Y-91871202D01*
X64852884Y-91878628D01*
X64886140Y-91875297D01*
X64922960Y-91861093D01*
X64963833Y-91835898D01*
X65020764Y-91788259D01*
X65071315Y-91731051D01*
X65113428Y-91666352D01*
X65146095Y-91595490D01*
X65152721Y-91576440D01*
X65158558Y-91553088D01*
X65161565Y-91527893D01*
X65162579Y-91495804D01*
X65162626Y-91483412D01*
X65162045Y-91459045D01*
X65160020Y-91442047D01*
X65156000Y-91429113D01*
X65149436Y-91416937D01*
X65148735Y-91415825D01*
X65127675Y-91392451D01*
X65101260Y-91379664D01*
X65069739Y-91377443D01*
X65033357Y-91385769D01*
X64992362Y-91404619D01*
X64947000Y-91433973D01*
X64916679Y-91458166D01*
X64879210Y-91497170D01*
X64851707Y-91539844D01*
X64832963Y-91587817D01*
X64827500Y-91613373D01*
X64827343Y-91643907D01*
X64835180Y-91667076D01*
X64850037Y-91682036D01*
X64870936Y-91687941D01*
X64896903Y-91683947D01*
X64926962Y-91669209D01*
X64954737Y-91647486D01*
X64985678Y-91613189D01*
X65011244Y-91573482D01*
X65029462Y-91531527D01*
X65038362Y-91490484D01*
X65038369Y-91490404D01*
X65039767Y-91469911D01*
X65038455Y-91456883D01*
X65033163Y-91446885D01*
X65022623Y-91435479D01*
X65017248Y-91430368D01*
X65002470Y-91420466D01*
X64988999Y-91419270D01*
X64978021Y-91420575D01*
X64975776Y-91418944D01*
X64981366Y-91415324D01*
X64993035Y-91410828D01*
X65009026Y-91406571D01*
X65022928Y-91404214D01*
X65054655Y-91404905D01*
X65079560Y-91415418D01*
X65097510Y-91435631D01*
X65108376Y-91465417D01*
X65112027Y-91504654D01*
X65111039Y-91525707D01*
X65101020Y-91577768D01*
X65081114Y-91630670D01*
X65052446Y-91682552D01*
X65016144Y-91731551D01*
X64973334Y-91775807D01*
X64925143Y-91813457D01*
X64912330Y-91821493D01*
X64876608Y-91837891D01*
X64844244Y-91843441D01*
X64815760Y-91838110D01*
X64791674Y-91821866D01*
X64788448Y-91818803D01*
X64779567Y-91812550D01*
X64776001Y-91813803D01*
X64616283Y-91813803D01*
X64653601Y-91722747D01*
X64709690Y-91615592D01*
X64776075Y-91512486D01*
X64852110Y-91414489D01*
X64937145Y-91322658D01*
X64967251Y-91293395D01*
X64994339Y-91268633D01*
X65016056Y-91251059D01*
X65033735Y-91239705D01*
X65048709Y-91233602D01*
X65062313Y-91231783D01*
X65067120Y-91231603D01*
X65080054Y-91228344D01*
X65093538Y-91219468D01*
X65110917Y-91202997D01*
X65129468Y-91185615D01*
X65163750Y-91162390D01*
X65201673Y-91148559D01*
X65246449Y-91142694D01*
X65281274Y-91142713D01*
X65318407Y-91148226D01*
X65351426Y-91160795D01*
X65382309Y-91181502D01*
X65413034Y-91211429D01*
X65445578Y-91251658D01*
X65450740Y-91258646D01*
X65491270Y-91319591D01*
X65521179Y-91377314D01*
X65540986Y-91432799D01*
X65543094Y-91442005D01*
X65546014Y-91460767D01*
X65548735Y-91486461D01*
X65550921Y-91514792D01*
X65551331Y-91520099D01*
X65553876Y-91562695D01*
X65556445Y-91615264D01*
X65559113Y-91678819D01*
X65560416Y-91711177D01*
X65565072Y-91817692D01*
X65569930Y-91915288D01*
X65574948Y-92003194D01*
X65580081Y-92080640D01*
X65585286Y-92146855D01*
X65589445Y-92194859D01*
X65609581Y-92155856D01*
X65661329Y-92064544D01*
X65731422Y-91962266D01*
X65810155Y-91867637D01*
X65896740Y-91781683D01*
X65913224Y-91767156D01*
X65943130Y-91743089D01*
X65966971Y-91727696D01*
X65985648Y-91720447D01*
X66000061Y-91720810D01*
X66008540Y-91720219D01*
X66021147Y-91712017D01*
X66038717Y-91694850D01*
X66056890Y-91677404D01*
X66095717Y-91651499D01*
X66139502Y-91636287D01*
X66189112Y-91631402D01*
X66209893Y-91632104D01*
X66246776Y-91637743D01*
X66279391Y-91650018D01*
X66309758Y-91670114D01*
X66339900Y-91699216D01*
X66371839Y-91738511D01*
X66375590Y-91743536D01*
X66401342Y-91779132D01*
X66420957Y-91808915D01*
X66436043Y-91835707D01*
X66448207Y-91862334D01*
X66459059Y-91891618D01*
X66461854Y-91900122D01*
X66468661Y-91924283D01*
X66474196Y-91950528D01*
X66478637Y-91980510D01*
X66481461Y-92008845D01*
X66482162Y-92015882D01*
X66484947Y-92058295D01*
G37*
G36*
X63640498Y-91440523D02*
G01*
X63650591Y-91441600D01*
X63727318Y-91453350D01*
X63801435Y-91470789D01*
X63870679Y-91493197D01*
X63932785Y-91519855D01*
X63985488Y-91550046D01*
X63988918Y-91552361D01*
X64011998Y-91568602D01*
X64032416Y-91584020D01*
X64048746Y-91597392D01*
X64059562Y-91607495D01*
X64063437Y-91613107D01*
X64058944Y-91613005D01*
X64047984Y-91608901D01*
X64029515Y-91601907D01*
X64007940Y-91593686D01*
X64007114Y-91593372D01*
X63988287Y-91586776D01*
X63963851Y-91578932D01*
X63936643Y-91570664D01*
X63909501Y-91562795D01*
X63885263Y-91556150D01*
X63866767Y-91551551D01*
X63856851Y-91549824D01*
X63856531Y-91552173D01*
X63860431Y-91562290D01*
X63868352Y-91577682D01*
X63881392Y-91610651D01*
X63884380Y-91647210D01*
X63876042Y-91683548D01*
X63856648Y-91718547D01*
X63826468Y-91751091D01*
X63825848Y-91751629D01*
X63792996Y-91774682D01*
X63751103Y-91795876D01*
X63703043Y-91814117D01*
X63651687Y-91828311D01*
X63599908Y-91837365D01*
X63585036Y-91838848D01*
X63530994Y-91840369D01*
X63473731Y-91836924D01*
X63419032Y-91828787D01*
X63381044Y-91819181D01*
X63339283Y-91804564D01*
X63299920Y-91786888D01*
X63265323Y-91767356D01*
X63237861Y-91747173D01*
X63219901Y-91727542D01*
X63215340Y-91720063D01*
X63215128Y-91714879D01*
X63222602Y-91711959D01*
X63239870Y-91709389D01*
X63275575Y-91701492D01*
X63304475Y-91688835D01*
X63325596Y-91672624D01*
X63338140Y-91654043D01*
X63341311Y-91634275D01*
X63334309Y-91614503D01*
X63316339Y-91595910D01*
X63309115Y-91590872D01*
X63272276Y-91573669D01*
X63232249Y-91567810D01*
X63231800Y-91567810D01*
X63217323Y-91567176D01*
X63212705Y-91564555D01*
X63215878Y-91558809D01*
X63219459Y-91553510D01*
X63219112Y-91549808D01*
X63215996Y-91550165D01*
X63202256Y-91553094D01*
X63181427Y-91558304D01*
X63156517Y-91564978D01*
X63130533Y-91572297D01*
X63106486Y-91579444D01*
X63087383Y-91585602D01*
X63070397Y-91591077D01*
X63055949Y-91594889D01*
X63049486Y-91595433D01*
X63050282Y-91592661D01*
X63058978Y-91584326D01*
X63075087Y-91572111D01*
X63096851Y-91557321D01*
X63122511Y-91541261D01*
X63155493Y-91523767D01*
X63197079Y-91505407D01*
X63243117Y-91487858D01*
X63289886Y-91472538D01*
X63333668Y-91460862D01*
X63343912Y-91458617D01*
X63400431Y-91448916D01*
X63462600Y-91441974D01*
X63526168Y-91438073D01*
X63586885Y-91437496D01*
X63640498Y-91440523D01*
G37*
%TO.C,kibuzzard-6673E380*%
G36*
X54994197Y-65924708D02*
G01*
X55062856Y-65969356D01*
X55112466Y-66036230D01*
X55137469Y-66117788D01*
X54707256Y-66117788D01*
X54722536Y-66034245D01*
X54765200Y-65967769D01*
X54830089Y-65924311D01*
X54912044Y-65909825D01*
X54994197Y-65924708D01*
G37*
G36*
X56070919Y-65989200D02*
G01*
X55874069Y-65989200D01*
X55788939Y-65976500D01*
X55724050Y-65938400D01*
X55682974Y-65879266D01*
X55669281Y-65803463D01*
X55682974Y-65727064D01*
X55724050Y-65669319D01*
X55788939Y-65633005D01*
X55874069Y-65620900D01*
X56070919Y-65620900D01*
X56070919Y-65989200D01*
G37*
G36*
X52566645Y-65145708D02*
G01*
X56565161Y-65145708D01*
X57161355Y-66040000D01*
X56565161Y-66934292D01*
X52566645Y-66934292D01*
X52566645Y-66370200D01*
X53635694Y-66370200D01*
X53658713Y-66470808D01*
X53727769Y-66544031D01*
X53831353Y-66588680D01*
X53957956Y-66603563D01*
X54062996Y-66595713D01*
X54149515Y-66572165D01*
X54217513Y-66532919D01*
X54285577Y-66449773D01*
X54313556Y-66341625D01*
X54156394Y-66341625D01*
X54127290Y-66418354D01*
X54061144Y-66464392D01*
X53957956Y-66479738D01*
X53834131Y-66453544D01*
X53784919Y-66373375D01*
X53825400Y-66299556D01*
X53879177Y-66272370D01*
X53959544Y-66249550D01*
X54034156Y-66233675D01*
X54144091Y-66201330D01*
X54183762Y-66179700D01*
X54551681Y-66179700D01*
X54554856Y-66232088D01*
X55139056Y-66232088D01*
X55118419Y-66329520D01*
X55069206Y-66405919D01*
X54996181Y-66455330D01*
X54904106Y-66471800D01*
X54812561Y-66458218D01*
X54747473Y-66417472D01*
X54708844Y-66349562D01*
X54553269Y-66349562D01*
X54595735Y-66455727D01*
X54672331Y-66536094D01*
X54777106Y-66586695D01*
X54904106Y-66603563D01*
X55011527Y-66591127D01*
X55020161Y-66587688D01*
X55454969Y-66587688D01*
X55634356Y-66587688D01*
X55893119Y-66133663D01*
X56070919Y-66133663D01*
X56070919Y-66587688D01*
X56234431Y-66587688D01*
X56234431Y-65476437D01*
X55851844Y-65476437D01*
X55752184Y-65486139D01*
X55666988Y-65515243D01*
X55596256Y-65563750D01*
X55543340Y-65628308D01*
X55511590Y-65705567D01*
X55501006Y-65795525D01*
X55516286Y-65902483D01*
X55562125Y-65991581D01*
X55634952Y-66060042D01*
X55731194Y-66105088D01*
X55454969Y-66587688D01*
X55020161Y-66587688D01*
X55105190Y-66553821D01*
X55185094Y-66491644D01*
X55245948Y-66409358D01*
X55282461Y-66311727D01*
X55294631Y-66198750D01*
X55282461Y-66080128D01*
X55245948Y-65978264D01*
X55185094Y-65893156D01*
X55106072Y-65829215D01*
X55015055Y-65790851D01*
X54912044Y-65778063D01*
X54814236Y-65789528D01*
X54728247Y-65823924D01*
X54654075Y-65881250D01*
X54597190Y-65960272D01*
X54563059Y-66059756D01*
X54551681Y-66179700D01*
X54183762Y-66179700D01*
X54223069Y-66158269D01*
X54270694Y-66098142D01*
X54286569Y-66014600D01*
X54264344Y-65915580D01*
X54197669Y-65840769D01*
X54098053Y-65793739D01*
X53977006Y-65778063D01*
X53844252Y-65794930D01*
X53744438Y-65845531D01*
X53680342Y-65920342D01*
X53654744Y-66009838D01*
X53811906Y-66009838D01*
X53863500Y-65932050D01*
X53977006Y-65901888D01*
X54089719Y-65928875D01*
X54134169Y-66006663D01*
X54096069Y-66073338D01*
X54043681Y-66093975D01*
X53962719Y-66114613D01*
X53896044Y-66130488D01*
X53781149Y-66167198D01*
X53699988Y-66217006D01*
X53651767Y-66283483D01*
X53635694Y-66370200D01*
X52566645Y-66370200D01*
X52566645Y-65145708D01*
G37*
%TO.C,kibuzzard-6673E33D*%
G36*
X54236519Y-73633013D02*
G01*
X54028556Y-73633013D01*
X53938664Y-73619916D01*
X53872187Y-73580625D01*
X53831111Y-73518316D01*
X53817419Y-73436163D01*
X53831111Y-73356589D01*
X53872187Y-73295669D01*
X53936283Y-73256973D01*
X54019031Y-73244075D01*
X54236519Y-73244075D01*
X54236519Y-73633013D01*
G37*
G36*
X55185844Y-73567925D02*
G01*
X54960419Y-73567925D01*
X54887394Y-73556217D01*
X54833419Y-73521094D01*
X54800081Y-73466127D01*
X54788969Y-73394887D01*
X54800280Y-73327022D01*
X54834212Y-73275825D01*
X54887195Y-73243678D01*
X54955656Y-73232963D01*
X55185844Y-73232963D01*
X55185844Y-73567925D01*
G37*
G36*
X52719045Y-73660000D02*
G01*
X52868269Y-73436163D01*
X53645969Y-73436163D01*
X53656552Y-73533882D01*
X53688302Y-73617490D01*
X53741219Y-73686988D01*
X53812303Y-73739022D01*
X53898557Y-73770243D01*
X53999981Y-73780650D01*
X54236519Y-73780650D01*
X54236519Y-74207688D01*
X54398444Y-74207688D01*
X54398444Y-73904475D01*
X54593706Y-73904475D01*
X54603760Y-73993551D01*
X54633923Y-74068164D01*
X54684194Y-74128313D01*
X54752809Y-74172410D01*
X54838005Y-74198868D01*
X54939781Y-74207688D01*
X55349356Y-74207688D01*
X55349356Y-73829863D01*
X55576369Y-73829863D01*
X55587216Y-73946191D01*
X55619760Y-74043293D01*
X55674000Y-74121169D01*
X55746584Y-74178054D01*
X55834161Y-74212185D01*
X55936731Y-74223563D01*
X56039478Y-74212185D01*
X56127584Y-74178054D01*
X56201050Y-74121169D01*
X56256171Y-74043293D01*
X56289244Y-73946191D01*
X56300269Y-73829863D01*
X56300269Y-73096437D01*
X56133581Y-73096437D01*
X56133581Y-73848913D01*
X56119889Y-73941980D01*
X56078812Y-74011631D01*
X56015908Y-74055089D01*
X55936731Y-74069575D01*
X55858944Y-74055089D01*
X55797031Y-74011631D01*
X55756550Y-73941980D01*
X55743056Y-73848913D01*
X55743056Y-73096437D01*
X55576369Y-73096437D01*
X55576369Y-73829863D01*
X55349356Y-73829863D01*
X55349356Y-73096437D01*
X54942956Y-73096437D01*
X54847353Y-73104728D01*
X54767978Y-73129599D01*
X54704831Y-73171050D01*
X54642919Y-73258759D01*
X54622281Y-73372663D01*
X54639567Y-73476732D01*
X54691426Y-73558224D01*
X54777856Y-73617138D01*
X54777856Y-73626663D01*
X54706220Y-73663770D01*
X54646887Y-73721119D01*
X54607001Y-73800692D01*
X54593706Y-73904475D01*
X54398444Y-73904475D01*
X54398444Y-73096437D01*
X53990456Y-73096437D01*
X53892737Y-73106844D01*
X53809128Y-73138065D01*
X53739631Y-73190100D01*
X53687596Y-73259068D01*
X53656376Y-73341089D01*
X53645969Y-73436163D01*
X52868269Y-73436163D01*
X53315239Y-72765708D01*
X57313755Y-72765708D01*
X57313755Y-74554292D01*
X53315239Y-74554292D01*
X52719045Y-73660000D01*
G37*
G36*
X55185844Y-74071163D02*
G01*
X54952481Y-74071163D01*
X54873106Y-74059058D01*
X54812781Y-74022744D01*
X54774681Y-73965792D01*
X54761981Y-73891775D01*
X54774880Y-73816766D01*
X54813575Y-73756838D01*
X54874098Y-73717547D01*
X54952481Y-73704450D01*
X55185844Y-73704450D01*
X55185844Y-74071163D01*
G37*
%TO.C,kibuzzard-666B0D4B*%
G36*
X54126761Y-53744812D02*
G01*
X54021986Y-53744812D01*
X53926647Y-53733259D01*
X53848066Y-53698599D01*
X53786242Y-53640831D01*
X53741704Y-53560839D01*
X53714981Y-53459503D01*
X53706073Y-53336825D01*
X53714848Y-53214102D01*
X53741174Y-53113693D01*
X53785051Y-53035597D01*
X53846479Y-52979814D01*
X53925457Y-52946344D01*
X54021986Y-52935188D01*
X54126761Y-52935188D01*
X54126761Y-53744812D01*
G37*
G36*
X52563999Y-52437771D02*
G01*
X56562515Y-52437771D01*
X57164001Y-53340000D01*
X56562515Y-54242229D01*
X52563999Y-54242229D01*
X52563999Y-53336825D01*
X53536211Y-53336825D01*
X53543801Y-53459410D01*
X53566572Y-53568402D01*
X53604523Y-53663800D01*
X53657654Y-53745606D01*
X53725371Y-53811239D01*
X53807078Y-53858120D01*
X53902774Y-53886249D01*
X54012461Y-53895625D01*
X54293448Y-53895625D01*
X54515698Y-53895625D01*
X54683973Y-53895625D01*
X55079261Y-53101875D01*
X55090373Y-53101875D01*
X55090373Y-53895625D01*
X55245948Y-53895625D01*
X55455498Y-53895625D01*
X55584086Y-53895625D01*
X55603136Y-53800375D01*
X55614248Y-53800375D01*
X55692829Y-53874988D01*
X55762084Y-53902372D01*
X55850786Y-53911500D01*
X55963234Y-53895537D01*
X56057161Y-53847647D01*
X56132567Y-53767831D01*
X56175975Y-53688407D01*
X56206981Y-53593802D01*
X56225584Y-53484016D01*
X56231786Y-53359050D01*
X56224939Y-53227734D01*
X56204401Y-53111598D01*
X56170171Y-53010643D01*
X56122248Y-52924869D01*
X56039874Y-52837997D01*
X55938804Y-52785874D01*
X55819036Y-52768500D01*
X55725726Y-52778466D01*
X55644763Y-52808364D01*
X55576148Y-52858194D01*
X55521997Y-52925839D01*
X55484426Y-53009183D01*
X55463436Y-53108225D01*
X55638061Y-53108225D01*
X55675808Y-53005037D01*
X55736133Y-52943125D01*
X55819036Y-52922488D01*
X55920636Y-52950467D01*
X55996836Y-53034406D01*
X56032113Y-53120219D01*
X56053280Y-53228434D01*
X56060336Y-53359050D01*
X56050747Y-53504782D01*
X56021982Y-53618130D01*
X55974039Y-53699093D01*
X55906920Y-53747670D01*
X55820623Y-53763863D01*
X55736684Y-53748781D01*
X55672192Y-53703538D01*
X55631115Y-53630116D01*
X55617423Y-53530500D01*
X55617423Y-53441600D01*
X55828561Y-53441600D01*
X55828561Y-53308250D01*
X55455498Y-53308250D01*
X55455498Y-53895625D01*
X55245948Y-53895625D01*
X55245948Y-52784375D01*
X55077673Y-52784375D01*
X54682386Y-53579713D01*
X54671273Y-53579713D01*
X54671273Y-52784375D01*
X54515698Y-52784375D01*
X54515698Y-53895625D01*
X54293448Y-53895625D01*
X54293448Y-52784375D01*
X54012461Y-52784375D01*
X53903419Y-52793652D01*
X53808070Y-52821483D01*
X53726413Y-52867868D01*
X53658448Y-52932806D01*
X53604969Y-53013719D01*
X53566770Y-53108027D01*
X53543850Y-53215729D01*
X53536211Y-53336825D01*
X52563999Y-53336825D01*
X52563999Y-52437771D01*
G37*
%TO.C,kibuzzard-6673E338*%
G36*
X55183198Y-79159100D02*
G01*
X54949835Y-79159100D01*
X54870460Y-79146995D01*
X54810135Y-79110681D01*
X54772035Y-79053730D01*
X54759335Y-78979713D01*
X54772234Y-78904703D01*
X54810929Y-78844775D01*
X54871452Y-78805484D01*
X54949835Y-78792387D01*
X55183198Y-78792387D01*
X55183198Y-79159100D01*
G37*
G36*
X52721691Y-78740000D02*
G01*
X52865624Y-78524100D01*
X53643323Y-78524100D01*
X53653906Y-78621819D01*
X53685656Y-78705428D01*
X53738573Y-78774925D01*
X53809657Y-78826960D01*
X53895912Y-78858181D01*
X53997335Y-78868588D01*
X54233873Y-78868588D01*
X54233873Y-79295625D01*
X54395798Y-79295625D01*
X54395798Y-78992413D01*
X54591060Y-78992413D01*
X54601114Y-79081489D01*
X54631277Y-79156101D01*
X54681548Y-79216250D01*
X54750163Y-79260347D01*
X54835359Y-79286806D01*
X54937135Y-79295625D01*
X55346710Y-79295625D01*
X55578485Y-79295625D01*
X56284923Y-79295625D01*
X56284923Y-78184375D01*
X56115060Y-78184375D01*
X56115060Y-79144812D01*
X55578485Y-79144812D01*
X55578485Y-79295625D01*
X55346710Y-79295625D01*
X55346710Y-78184375D01*
X54940310Y-78184375D01*
X54844707Y-78192665D01*
X54765332Y-78217536D01*
X54702185Y-78258987D01*
X54640273Y-78346697D01*
X54619635Y-78460600D01*
X54636921Y-78564669D01*
X54688780Y-78646161D01*
X54775210Y-78705075D01*
X54775210Y-78714600D01*
X54703574Y-78751708D01*
X54644241Y-78809056D01*
X54604356Y-78888630D01*
X54591060Y-78992413D01*
X54395798Y-78992413D01*
X54395798Y-78184375D01*
X53987810Y-78184375D01*
X53890091Y-78194782D01*
X53806482Y-78226003D01*
X53736985Y-78278037D01*
X53684951Y-78347006D01*
X53653730Y-78429026D01*
X53643323Y-78524100D01*
X52865624Y-78524100D01*
X53312594Y-77853646D01*
X57311109Y-77853646D01*
X57311109Y-79626354D01*
X53312594Y-79626354D01*
X52721691Y-78740000D01*
G37*
G36*
X54233873Y-78720950D02*
G01*
X54025910Y-78720950D01*
X53936018Y-78707853D01*
X53869541Y-78668562D01*
X53828465Y-78606253D01*
X53814773Y-78524100D01*
X53828465Y-78444527D01*
X53869541Y-78383606D01*
X53933637Y-78344911D01*
X54016385Y-78332013D01*
X54233873Y-78332013D01*
X54233873Y-78720950D01*
G37*
G36*
X55183198Y-78655862D02*
G01*
X54957773Y-78655862D01*
X54884748Y-78644155D01*
X54830773Y-78609031D01*
X54797435Y-78554064D01*
X54786323Y-78482825D01*
X54797634Y-78414959D01*
X54831566Y-78363762D01*
X54884549Y-78331616D01*
X54953010Y-78320900D01*
X55183198Y-78320900D01*
X55183198Y-78655862D01*
G37*
%TO.C,kibuzzard-6673E38A*%
G36*
X74498509Y-63233895D02*
G01*
X74567168Y-63278544D01*
X74616777Y-63345417D01*
X74641781Y-63426975D01*
X74211568Y-63426975D01*
X74226848Y-63343433D01*
X74269512Y-63276956D01*
X74334401Y-63233498D01*
X74416356Y-63219013D01*
X74498509Y-63233895D01*
G37*
G36*
X73568829Y-63244413D02*
G01*
X73640862Y-63301563D01*
X73687891Y-63389669D01*
X73703568Y-63501588D01*
X73687891Y-63613109D01*
X73640862Y-63700025D01*
X73568829Y-63755984D01*
X73478143Y-63774638D01*
X73388052Y-63755984D01*
X73317806Y-63700025D01*
X73272562Y-63613109D01*
X73257481Y-63501588D01*
X73272562Y-63388677D01*
X73317806Y-63300769D01*
X73388052Y-63244214D01*
X73478143Y-63225363D01*
X73568829Y-63244413D01*
G37*
G36*
X72068090Y-63500000D02*
G01*
X72443798Y-62936438D01*
X75986393Y-62936438D01*
X76480106Y-62936438D01*
X76480106Y-63280925D01*
X76054656Y-63280925D01*
X76054656Y-63428563D01*
X76480106Y-63428563D01*
X76480106Y-63896875D01*
X76648381Y-63896875D01*
X76648381Y-62785625D01*
X75986393Y-62785625D01*
X75986393Y-62936438D01*
X72443798Y-62936438D01*
X72764826Y-62454896D01*
X76979110Y-62454896D01*
X76979110Y-64545104D01*
X72764826Y-64545104D01*
X72544340Y-64214375D01*
X73095556Y-64214375D01*
X73257481Y-64214375D01*
X73257481Y-63804800D01*
X73321157Y-63864772D01*
X73402119Y-63900756D01*
X73500368Y-63912750D01*
X73600028Y-63900315D01*
X73687340Y-63863008D01*
X73762306Y-63800831D01*
X73819632Y-63717840D01*
X73854028Y-63618092D01*
X73865493Y-63501588D01*
X73864228Y-63488888D01*
X74055993Y-63488888D01*
X74059168Y-63541275D01*
X74643368Y-63541275D01*
X74622731Y-63638708D01*
X74573518Y-63715106D01*
X74500493Y-63764517D01*
X74408418Y-63780988D01*
X74316872Y-63767406D01*
X74251785Y-63726660D01*
X74213156Y-63658750D01*
X74057581Y-63658750D01*
X74100046Y-63764914D01*
X74176643Y-63845281D01*
X74281418Y-63895883D01*
X74408418Y-63912750D01*
X74515839Y-63900315D01*
X74609501Y-63863008D01*
X74689406Y-63800831D01*
X74750260Y-63718546D01*
X74786772Y-63620915D01*
X74798943Y-63507938D01*
X74786772Y-63389316D01*
X74750260Y-63287451D01*
X74722892Y-63249175D01*
X74979918Y-63249175D01*
X75071993Y-63244413D01*
X75187285Y-63261478D01*
X75275987Y-63312675D01*
X75332541Y-63393638D01*
X75351393Y-63500000D01*
X75351393Y-63774638D01*
X75051356Y-63774638D01*
X75051356Y-63896875D01*
X75745093Y-63896875D01*
X75745093Y-63774638D01*
X75513318Y-63774638D01*
X75513318Y-63225363D01*
X75737156Y-63225363D01*
X75737156Y-63103125D01*
X75368856Y-63103125D01*
X75352981Y-63234888D01*
X75341868Y-63234888D01*
X75293052Y-63169800D01*
X75232331Y-63123763D01*
X75150971Y-63096378D01*
X75040243Y-63087250D01*
X74979918Y-63087250D01*
X74979918Y-63249175D01*
X74722892Y-63249175D01*
X74689406Y-63202344D01*
X74610383Y-63138403D01*
X74519367Y-63100038D01*
X74416356Y-63087250D01*
X74318548Y-63098715D01*
X74232558Y-63133111D01*
X74158387Y-63190438D01*
X74101501Y-63269460D01*
X74067370Y-63368943D01*
X74055993Y-63488888D01*
X73864228Y-63488888D01*
X73854028Y-63386494D01*
X73819632Y-63286746D01*
X73762306Y-63202344D01*
X73687340Y-63138403D01*
X73600028Y-63100038D01*
X73500368Y-63087250D01*
X73400885Y-63100832D01*
X73318335Y-63141578D01*
X73252718Y-63209488D01*
X73241606Y-63209488D01*
X73227318Y-63103125D01*
X73095556Y-63103125D01*
X73095556Y-64214375D01*
X72544340Y-64214375D01*
X72068090Y-63500000D01*
G37*
%TO.C,kibuzzard-666B0D4B*%
G36*
X54126761Y-61364812D02*
G01*
X54021986Y-61364812D01*
X53926647Y-61353259D01*
X53848066Y-61318599D01*
X53786242Y-61260831D01*
X53741704Y-61180839D01*
X53714981Y-61079503D01*
X53706073Y-60956825D01*
X53714848Y-60834102D01*
X53741174Y-60733693D01*
X53785051Y-60655597D01*
X53846479Y-60599814D01*
X53925457Y-60566344D01*
X54021986Y-60555188D01*
X54126761Y-60555188D01*
X54126761Y-61364812D01*
G37*
G36*
X52563999Y-60057771D02*
G01*
X56562515Y-60057771D01*
X57164001Y-60960000D01*
X56562515Y-61862229D01*
X52563999Y-61862229D01*
X52563999Y-60956825D01*
X53536211Y-60956825D01*
X53543801Y-61079410D01*
X53566572Y-61188402D01*
X53604523Y-61283800D01*
X53657654Y-61365606D01*
X53725371Y-61431239D01*
X53807078Y-61478120D01*
X53902774Y-61506249D01*
X54012461Y-61515625D01*
X54293448Y-61515625D01*
X54515698Y-61515625D01*
X54683973Y-61515625D01*
X55079261Y-60721875D01*
X55090373Y-60721875D01*
X55090373Y-61515625D01*
X55245948Y-61515625D01*
X55455498Y-61515625D01*
X55584086Y-61515625D01*
X55603136Y-61420375D01*
X55614248Y-61420375D01*
X55692829Y-61494988D01*
X55762084Y-61522372D01*
X55850786Y-61531500D01*
X55963234Y-61515537D01*
X56057161Y-61467647D01*
X56132567Y-61387831D01*
X56175975Y-61308407D01*
X56206981Y-61213802D01*
X56225584Y-61104016D01*
X56231786Y-60979050D01*
X56224939Y-60847734D01*
X56204401Y-60731598D01*
X56170171Y-60630643D01*
X56122248Y-60544869D01*
X56039874Y-60457997D01*
X55938804Y-60405874D01*
X55819036Y-60388500D01*
X55725726Y-60398466D01*
X55644763Y-60428364D01*
X55576148Y-60478194D01*
X55521997Y-60545839D01*
X55484426Y-60629183D01*
X55463436Y-60728225D01*
X55638061Y-60728225D01*
X55675808Y-60625037D01*
X55736133Y-60563125D01*
X55819036Y-60542488D01*
X55920636Y-60570467D01*
X55996836Y-60654406D01*
X56032113Y-60740219D01*
X56053280Y-60848434D01*
X56060336Y-60979050D01*
X56050747Y-61124782D01*
X56021982Y-61238130D01*
X55974039Y-61319093D01*
X55906920Y-61367670D01*
X55820623Y-61383863D01*
X55736684Y-61368781D01*
X55672192Y-61323538D01*
X55631115Y-61250116D01*
X55617423Y-61150500D01*
X55617423Y-61061600D01*
X55828561Y-61061600D01*
X55828561Y-60928250D01*
X55455498Y-60928250D01*
X55455498Y-61515625D01*
X55245948Y-61515625D01*
X55245948Y-60404375D01*
X55077673Y-60404375D01*
X54682386Y-61199713D01*
X54671273Y-61199713D01*
X54671273Y-60404375D01*
X54515698Y-60404375D01*
X54515698Y-61515625D01*
X54293448Y-61515625D01*
X54293448Y-60404375D01*
X54012461Y-60404375D01*
X53903419Y-60413652D01*
X53808070Y-60441483D01*
X53726413Y-60487868D01*
X53658448Y-60552806D01*
X53604969Y-60633719D01*
X53566770Y-60728027D01*
X53543850Y-60835729D01*
X53536211Y-60956825D01*
X52563999Y-60956825D01*
X52563999Y-60057771D01*
G37*
%TO.C,kibuzzard-6673E386*%
G36*
X76479113Y-65989200D02*
G01*
X76282263Y-65989200D01*
X76197134Y-65976500D01*
X76132245Y-65938400D01*
X76091168Y-65879266D01*
X76077476Y-65803463D01*
X76091168Y-65727064D01*
X76132245Y-65669319D01*
X76197134Y-65633005D01*
X76282263Y-65620900D01*
X76479113Y-65620900D01*
X76479113Y-65989200D01*
G37*
G36*
X75402391Y-65924708D02*
G01*
X75471051Y-65969356D01*
X75520660Y-66036230D01*
X75545663Y-66117788D01*
X75115451Y-66117788D01*
X75130731Y-66034245D01*
X75173395Y-65967769D01*
X75238284Y-65924311D01*
X75320238Y-65909825D01*
X75402391Y-65924708D01*
G37*
G36*
X72378645Y-66040000D02*
G01*
X72974839Y-65145708D01*
X76973355Y-65145708D01*
X76973355Y-66934292D01*
X72974839Y-66934292D01*
X72598778Y-66370200D01*
X74043888Y-66370200D01*
X74066907Y-66470808D01*
X74135963Y-66544031D01*
X74239548Y-66588680D01*
X74366151Y-66603563D01*
X74471190Y-66595713D01*
X74557709Y-66572165D01*
X74625707Y-66532919D01*
X74693771Y-66449773D01*
X74721751Y-66341625D01*
X74564588Y-66341625D01*
X74535484Y-66418354D01*
X74469338Y-66464392D01*
X74366151Y-66479738D01*
X74242326Y-66453544D01*
X74193113Y-66373375D01*
X74233595Y-66299556D01*
X74287371Y-66272370D01*
X74367738Y-66249550D01*
X74442351Y-66233675D01*
X74552285Y-66201330D01*
X74591956Y-66179700D01*
X74959876Y-66179700D01*
X74963051Y-66232088D01*
X75547251Y-66232088D01*
X75526613Y-66329520D01*
X75477401Y-66405919D01*
X75404376Y-66455330D01*
X75312301Y-66471800D01*
X75220755Y-66458218D01*
X75155668Y-66417472D01*
X75117038Y-66349562D01*
X74961463Y-66349562D01*
X75003929Y-66455727D01*
X75080526Y-66536094D01*
X75185301Y-66586695D01*
X75312301Y-66603563D01*
X75419722Y-66591127D01*
X75428356Y-66587688D01*
X75863163Y-66587688D01*
X76042551Y-66587688D01*
X76301313Y-66133663D01*
X76479113Y-66133663D01*
X76479113Y-66587688D01*
X76642626Y-66587688D01*
X76642626Y-65476437D01*
X76260038Y-65476437D01*
X76160379Y-65486139D01*
X76075183Y-65515243D01*
X76004451Y-65563750D01*
X75951534Y-65628308D01*
X75919784Y-65705567D01*
X75909201Y-65795525D01*
X75924481Y-65902483D01*
X75970320Y-65991581D01*
X76043146Y-66060042D01*
X76139388Y-66105088D01*
X75863163Y-66587688D01*
X75428356Y-66587688D01*
X75513384Y-66553821D01*
X75593288Y-66491644D01*
X75654143Y-66409358D01*
X75690655Y-66311727D01*
X75702826Y-66198750D01*
X75690655Y-66080128D01*
X75654143Y-65978264D01*
X75593288Y-65893156D01*
X75514266Y-65829215D01*
X75423249Y-65790851D01*
X75320238Y-65778063D01*
X75222431Y-65789528D01*
X75136441Y-65823924D01*
X75062270Y-65881250D01*
X75005384Y-65960272D01*
X74971253Y-66059756D01*
X74959876Y-66179700D01*
X74591956Y-66179700D01*
X74631263Y-66158269D01*
X74678888Y-66098142D01*
X74694763Y-66014600D01*
X74672538Y-65915580D01*
X74605863Y-65840769D01*
X74506248Y-65793739D01*
X74385201Y-65778063D01*
X74252446Y-65794930D01*
X74152632Y-65845531D01*
X74088537Y-65920342D01*
X74062938Y-66009838D01*
X74220101Y-66009838D01*
X74271695Y-65932050D01*
X74385201Y-65901888D01*
X74497913Y-65928875D01*
X74542363Y-66006663D01*
X74504263Y-66073338D01*
X74451876Y-66093975D01*
X74370913Y-66114613D01*
X74304238Y-66130488D01*
X74189343Y-66167198D01*
X74108182Y-66217006D01*
X74059962Y-66283483D01*
X74043888Y-66370200D01*
X72598778Y-66370200D01*
X72378645Y-66040000D01*
G37*
%TO.C,kibuzzard-666B0D69*%
G36*
X72375999Y-76200000D02*
G01*
X72378116Y-76196825D01*
X73949697Y-76196825D01*
X73957287Y-76319410D01*
X73980058Y-76428402D01*
X74018009Y-76523800D01*
X74071140Y-76605606D01*
X74138857Y-76671239D01*
X74220564Y-76718120D01*
X74316260Y-76746249D01*
X74425947Y-76755625D01*
X74706934Y-76755625D01*
X74929184Y-76755625D01*
X75097459Y-76755625D01*
X75492747Y-75961875D01*
X75503859Y-75961875D01*
X75503859Y-76755625D01*
X75659434Y-76755625D01*
X75868984Y-76755625D01*
X75997572Y-76755625D01*
X76016622Y-76660375D01*
X76027734Y-76660375D01*
X76106315Y-76734988D01*
X76175570Y-76762372D01*
X76264272Y-76771500D01*
X76376720Y-76755537D01*
X76470647Y-76707647D01*
X76546053Y-76627831D01*
X76589461Y-76548407D01*
X76620467Y-76453802D01*
X76639071Y-76344016D01*
X76645272Y-76219050D01*
X76638426Y-76087734D01*
X76617887Y-75971598D01*
X76583657Y-75870643D01*
X76535734Y-75784869D01*
X76453361Y-75697997D01*
X76352290Y-75645874D01*
X76232522Y-75628500D01*
X76139212Y-75638466D01*
X76058249Y-75668364D01*
X75989634Y-75718194D01*
X75935483Y-75785839D01*
X75897912Y-75869183D01*
X75876922Y-75968225D01*
X76051547Y-75968225D01*
X76089294Y-75865037D01*
X76149619Y-75803125D01*
X76232522Y-75782488D01*
X76334122Y-75810467D01*
X76410322Y-75894406D01*
X76445599Y-75980219D01*
X76466766Y-76088434D01*
X76473822Y-76219050D01*
X76464233Y-76364782D01*
X76435468Y-76478130D01*
X76387525Y-76559093D01*
X76320406Y-76607670D01*
X76234109Y-76623863D01*
X76150170Y-76608781D01*
X76085678Y-76563538D01*
X76044601Y-76490116D01*
X76030909Y-76390500D01*
X76030909Y-76301600D01*
X76242047Y-76301600D01*
X76242047Y-76168250D01*
X75868984Y-76168250D01*
X75868984Y-76755625D01*
X75659434Y-76755625D01*
X75659434Y-75644375D01*
X75491159Y-75644375D01*
X75095872Y-76439713D01*
X75084759Y-76439713D01*
X75084759Y-75644375D01*
X74929184Y-75644375D01*
X74929184Y-76755625D01*
X74706934Y-76755625D01*
X74706934Y-75644375D01*
X74425947Y-75644375D01*
X74316905Y-75653652D01*
X74221556Y-75681483D01*
X74139899Y-75727868D01*
X74071934Y-75792806D01*
X74018455Y-75873719D01*
X73980256Y-75968027D01*
X73957337Y-76075729D01*
X73949697Y-76196825D01*
X72378116Y-76196825D01*
X72977485Y-75297771D01*
X76976001Y-75297771D01*
X76976001Y-77102229D01*
X72977485Y-77102229D01*
X72375999Y-76200000D01*
G37*
G36*
X74540247Y-76604812D02*
G01*
X74435472Y-76604812D01*
X74340134Y-76593259D01*
X74261552Y-76558599D01*
X74199728Y-76500831D01*
X74155190Y-76420839D01*
X74128467Y-76319503D01*
X74119559Y-76196825D01*
X74128335Y-76074102D01*
X74154661Y-75973693D01*
X74198537Y-75895597D01*
X74259965Y-75839814D01*
X74338943Y-75806344D01*
X74435472Y-75795188D01*
X74540247Y-75795188D01*
X74540247Y-76604812D01*
G37*
%TO.C,kibuzzard-666B0D4B*%
G36*
X54126761Y-76604812D02*
G01*
X54021986Y-76604812D01*
X53926647Y-76593259D01*
X53848066Y-76558599D01*
X53786242Y-76500831D01*
X53741704Y-76420839D01*
X53714981Y-76319503D01*
X53706073Y-76196825D01*
X53714848Y-76074102D01*
X53741174Y-75973693D01*
X53785051Y-75895597D01*
X53846479Y-75839814D01*
X53925457Y-75806344D01*
X54021986Y-75795188D01*
X54126761Y-75795188D01*
X54126761Y-76604812D01*
G37*
G36*
X52563999Y-75297771D02*
G01*
X56562515Y-75297771D01*
X57164001Y-76200000D01*
X56562515Y-77102229D01*
X52563999Y-77102229D01*
X52563999Y-76196825D01*
X53536211Y-76196825D01*
X53543801Y-76319410D01*
X53566572Y-76428402D01*
X53604523Y-76523800D01*
X53657654Y-76605606D01*
X53725371Y-76671239D01*
X53807078Y-76718120D01*
X53902774Y-76746249D01*
X54012461Y-76755625D01*
X54293448Y-76755625D01*
X54515698Y-76755625D01*
X54683973Y-76755625D01*
X55079261Y-75961875D01*
X55090373Y-75961875D01*
X55090373Y-76755625D01*
X55245948Y-76755625D01*
X55455498Y-76755625D01*
X55584086Y-76755625D01*
X55603136Y-76660375D01*
X55614248Y-76660375D01*
X55692829Y-76734988D01*
X55762084Y-76762372D01*
X55850786Y-76771500D01*
X55963234Y-76755537D01*
X56057161Y-76707647D01*
X56132567Y-76627831D01*
X56175975Y-76548407D01*
X56206981Y-76453802D01*
X56225584Y-76344016D01*
X56231786Y-76219050D01*
X56224939Y-76087734D01*
X56204401Y-75971598D01*
X56170171Y-75870643D01*
X56122248Y-75784869D01*
X56039874Y-75697997D01*
X55938804Y-75645874D01*
X55819036Y-75628500D01*
X55725726Y-75638466D01*
X55644763Y-75668364D01*
X55576148Y-75718194D01*
X55521997Y-75785839D01*
X55484426Y-75869183D01*
X55463436Y-75968225D01*
X55638061Y-75968225D01*
X55675808Y-75865037D01*
X55736133Y-75803125D01*
X55819036Y-75782488D01*
X55920636Y-75810467D01*
X55996836Y-75894406D01*
X56032113Y-75980219D01*
X56053280Y-76088434D01*
X56060336Y-76219050D01*
X56050747Y-76364782D01*
X56021982Y-76478130D01*
X55974039Y-76559093D01*
X55906920Y-76607670D01*
X55820623Y-76623863D01*
X55736684Y-76608781D01*
X55672192Y-76563538D01*
X55631115Y-76490116D01*
X55617423Y-76390500D01*
X55617423Y-76301600D01*
X55828561Y-76301600D01*
X55828561Y-76168250D01*
X55455498Y-76168250D01*
X55455498Y-76755625D01*
X55245948Y-76755625D01*
X55245948Y-75644375D01*
X55077673Y-75644375D01*
X54682386Y-76439713D01*
X54671273Y-76439713D01*
X54671273Y-75644375D01*
X54515698Y-75644375D01*
X54515698Y-76755625D01*
X54293448Y-76755625D01*
X54293448Y-75644375D01*
X54012461Y-75644375D01*
X53903419Y-75653652D01*
X53808070Y-75681483D01*
X53726413Y-75727868D01*
X53658448Y-75792806D01*
X53604969Y-75873719D01*
X53566770Y-75968027D01*
X53543850Y-76075729D01*
X53536211Y-76196825D01*
X52563999Y-76196825D01*
X52563999Y-75297771D01*
G37*
G36*
X54126761Y-84224812D02*
G01*
X54021986Y-84224812D01*
X53926647Y-84213259D01*
X53848066Y-84178599D01*
X53786242Y-84120831D01*
X53741704Y-84040839D01*
X53714981Y-83939503D01*
X53706073Y-83816825D01*
X53714848Y-83694102D01*
X53741174Y-83593693D01*
X53785051Y-83515597D01*
X53846479Y-83459814D01*
X53925457Y-83426344D01*
X54021986Y-83415188D01*
X54126761Y-83415188D01*
X54126761Y-84224812D01*
G37*
G36*
X52563999Y-82917771D02*
G01*
X56562515Y-82917771D01*
X57164001Y-83820000D01*
X56562515Y-84722229D01*
X52563999Y-84722229D01*
X52563999Y-83816825D01*
X53536211Y-83816825D01*
X53543801Y-83939410D01*
X53566572Y-84048402D01*
X53604523Y-84143800D01*
X53657654Y-84225606D01*
X53725371Y-84291239D01*
X53807078Y-84338120D01*
X53902774Y-84366249D01*
X54012461Y-84375625D01*
X54293448Y-84375625D01*
X54515698Y-84375625D01*
X54683973Y-84375625D01*
X55079261Y-83581875D01*
X55090373Y-83581875D01*
X55090373Y-84375625D01*
X55245948Y-84375625D01*
X55455498Y-84375625D01*
X55584086Y-84375625D01*
X55603136Y-84280375D01*
X55614248Y-84280375D01*
X55692829Y-84354988D01*
X55762084Y-84382372D01*
X55850786Y-84391500D01*
X55963234Y-84375537D01*
X56057161Y-84327647D01*
X56132567Y-84247831D01*
X56175975Y-84168407D01*
X56206981Y-84073802D01*
X56225584Y-83964016D01*
X56231786Y-83839050D01*
X56224939Y-83707734D01*
X56204401Y-83591598D01*
X56170171Y-83490643D01*
X56122248Y-83404869D01*
X56039874Y-83317997D01*
X55938804Y-83265874D01*
X55819036Y-83248500D01*
X55725726Y-83258466D01*
X55644763Y-83288364D01*
X55576148Y-83338194D01*
X55521997Y-83405839D01*
X55484426Y-83489183D01*
X55463436Y-83588225D01*
X55638061Y-83588225D01*
X55675808Y-83485037D01*
X55736133Y-83423125D01*
X55819036Y-83402488D01*
X55920636Y-83430467D01*
X55996836Y-83514406D01*
X56032113Y-83600219D01*
X56053280Y-83708434D01*
X56060336Y-83839050D01*
X56050747Y-83984782D01*
X56021982Y-84098130D01*
X55974039Y-84179093D01*
X55906920Y-84227670D01*
X55820623Y-84243863D01*
X55736684Y-84228781D01*
X55672192Y-84183538D01*
X55631115Y-84110116D01*
X55617423Y-84010500D01*
X55617423Y-83921600D01*
X55828561Y-83921600D01*
X55828561Y-83788250D01*
X55455498Y-83788250D01*
X55455498Y-84375625D01*
X55245948Y-84375625D01*
X55245948Y-83264375D01*
X55077673Y-83264375D01*
X54682386Y-84059713D01*
X54671273Y-84059713D01*
X54671273Y-83264375D01*
X54515698Y-83264375D01*
X54515698Y-84375625D01*
X54293448Y-84375625D01*
X54293448Y-83264375D01*
X54012461Y-83264375D01*
X53903419Y-83273652D01*
X53808070Y-83301483D01*
X53726413Y-83347868D01*
X53658448Y-83412806D01*
X53604969Y-83493719D01*
X53566770Y-83588027D01*
X53543850Y-83695729D01*
X53536211Y-83816825D01*
X52563999Y-83816825D01*
X52563999Y-82917771D01*
G37*
%TO.C,kibuzzard-6673E342*%
G36*
X74830406Y-74071163D02*
G01*
X74597044Y-74071163D01*
X74517669Y-74059058D01*
X74457344Y-74022744D01*
X74419244Y-73965792D01*
X74406544Y-73891775D01*
X74419442Y-73816766D01*
X74458138Y-73756838D01*
X74518661Y-73717547D01*
X74597044Y-73704450D01*
X74830406Y-73704450D01*
X74830406Y-74071163D01*
G37*
G36*
X72277045Y-72765708D02*
G01*
X76275561Y-72765708D01*
X76871755Y-73660000D01*
X76275561Y-74554292D01*
X72277045Y-74554292D01*
X72277045Y-73436163D01*
X73290531Y-73436163D01*
X73301115Y-73533882D01*
X73332865Y-73617490D01*
X73385781Y-73686988D01*
X73456866Y-73739022D01*
X73543120Y-73770243D01*
X73644544Y-73780650D01*
X73881081Y-73780650D01*
X73881081Y-74207688D01*
X74043006Y-74207688D01*
X74043006Y-73904475D01*
X74238269Y-73904475D01*
X74248323Y-73993551D01*
X74278486Y-74068164D01*
X74328756Y-74128313D01*
X74397372Y-74172410D01*
X74482568Y-74198868D01*
X74584344Y-74207688D01*
X74993919Y-74207688D01*
X74993919Y-73829863D01*
X75220931Y-73829863D01*
X75231779Y-73946191D01*
X75264323Y-74043293D01*
X75318563Y-74121169D01*
X75391147Y-74178054D01*
X75478724Y-74212185D01*
X75581294Y-74223563D01*
X75684040Y-74212185D01*
X75772147Y-74178054D01*
X75845613Y-74121169D01*
X75900734Y-74043293D01*
X75933807Y-73946191D01*
X75944831Y-73829863D01*
X75944831Y-73096437D01*
X75778144Y-73096437D01*
X75778144Y-73848913D01*
X75764452Y-73941980D01*
X75723375Y-74011631D01*
X75660470Y-74055089D01*
X75581294Y-74069575D01*
X75503506Y-74055089D01*
X75441594Y-74011631D01*
X75401113Y-73941980D01*
X75387619Y-73848913D01*
X75387619Y-73096437D01*
X75220931Y-73096437D01*
X75220931Y-73829863D01*
X74993919Y-73829863D01*
X74993919Y-73096437D01*
X74587519Y-73096437D01*
X74491916Y-73104728D01*
X74412541Y-73129599D01*
X74349394Y-73171050D01*
X74287481Y-73258759D01*
X74266844Y-73372663D01*
X74284130Y-73476732D01*
X74335988Y-73558224D01*
X74422419Y-73617138D01*
X74422419Y-73626663D01*
X74350783Y-73663770D01*
X74291450Y-73721119D01*
X74251564Y-73800692D01*
X74238269Y-73904475D01*
X74043006Y-73904475D01*
X74043006Y-73096437D01*
X73635019Y-73096437D01*
X73537299Y-73106844D01*
X73453691Y-73138065D01*
X73384194Y-73190100D01*
X73332159Y-73259068D01*
X73300938Y-73341089D01*
X73290531Y-73436163D01*
X72277045Y-73436163D01*
X72277045Y-72765708D01*
G37*
G36*
X74830406Y-73567925D02*
G01*
X74604981Y-73567925D01*
X74531956Y-73556217D01*
X74477981Y-73521094D01*
X74444644Y-73466127D01*
X74433531Y-73394887D01*
X74444842Y-73327022D01*
X74478775Y-73275825D01*
X74531758Y-73243678D01*
X74600219Y-73232963D01*
X74830406Y-73232963D01*
X74830406Y-73567925D01*
G37*
G36*
X73881081Y-73633013D02*
G01*
X73673119Y-73633013D01*
X73583227Y-73619916D01*
X73516750Y-73580625D01*
X73475674Y-73518316D01*
X73461981Y-73436163D01*
X73475674Y-73356589D01*
X73516750Y-73295669D01*
X73580845Y-73256973D01*
X73663594Y-73244075D01*
X73881081Y-73244075D01*
X73881081Y-73633013D01*
G37*
%TO.C,kibuzzard-666B0D65*%
G36*
X72391610Y-50800000D02*
G01*
X72961875Y-49944602D01*
X76960390Y-49944602D01*
X76960390Y-51655398D01*
X72961875Y-51655398D01*
X72393197Y-50802381D01*
X73995999Y-50802381D01*
X74002398Y-50923825D01*
X74021597Y-51029394D01*
X74053595Y-51119088D01*
X74098393Y-51192906D01*
X74174857Y-51266108D01*
X74267726Y-51310028D01*
X74376999Y-51324669D01*
X74486536Y-51309852D01*
X74580199Y-51265402D01*
X74657986Y-51191319D01*
X74703825Y-51116805D01*
X74736568Y-51026616D01*
X74756213Y-50920749D01*
X74762761Y-50799206D01*
X74756213Y-50679003D01*
X74736568Y-50573980D01*
X74715089Y-50515044D01*
X74932624Y-50515044D01*
X75232661Y-51308794D01*
X75429511Y-51308794D01*
X75688909Y-50626169D01*
X75926399Y-50626169D01*
X75934733Y-50718839D01*
X75959736Y-50803175D01*
X75999424Y-50885130D01*
X76051811Y-50970656D01*
X76270886Y-51308794D01*
X76470911Y-51308794D01*
X76197861Y-50916681D01*
X76316924Y-50937319D01*
X76440352Y-50914498D01*
X76540761Y-50846038D01*
X76590150Y-50779627D01*
X76619784Y-50702104D01*
X76629661Y-50613469D01*
X76618725Y-50520159D01*
X76585917Y-50439197D01*
X76531236Y-50370581D01*
X76459446Y-50318547D01*
X76375309Y-50287326D01*
X76278824Y-50276919D01*
X76180663Y-50287590D01*
X76095732Y-50319605D01*
X76024030Y-50372963D01*
X75969790Y-50443783D01*
X75937247Y-50528185D01*
X75926399Y-50626169D01*
X75688909Y-50626169D01*
X75731136Y-50515044D01*
X75564449Y-50515044D01*
X75335849Y-51140519D01*
X75324736Y-51140519D01*
X75097724Y-50515044D01*
X74932624Y-50515044D01*
X74715089Y-50515044D01*
X74703825Y-50484137D01*
X74657986Y-50409475D01*
X74580199Y-50334951D01*
X74486536Y-50290236D01*
X74376999Y-50275331D01*
X74267726Y-50290236D01*
X74174857Y-50334951D01*
X74098393Y-50409475D01*
X74053595Y-50484336D01*
X74021597Y-50574773D01*
X74002398Y-50680789D01*
X73995999Y-50802381D01*
X72393197Y-50802381D01*
X72391610Y-50800000D01*
G37*
G36*
X76357603Y-50425152D02*
G01*
X76417730Y-50469800D01*
X76456425Y-50536277D01*
X76469324Y-50616644D01*
X76456624Y-50695027D01*
X76418524Y-50758725D01*
X76358596Y-50800992D01*
X76280411Y-50815081D01*
X76203219Y-50800794D01*
X76143093Y-50757931D01*
X76104397Y-50694034D01*
X76091499Y-50616644D01*
X76104596Y-50536277D01*
X76143886Y-50469800D01*
X76204211Y-50425152D01*
X76280411Y-50410269D01*
X76357603Y-50425152D01*
G37*
G36*
X74529399Y-51092894D02*
G01*
X74463518Y-51160759D01*
X74376999Y-51183381D01*
X74291075Y-51159569D01*
X74223805Y-51088131D01*
X74191614Y-51013872D01*
X74172299Y-50918092D01*
X74165861Y-50800794D01*
X74169830Y-50711894D01*
X74181736Y-50629344D01*
X74529399Y-51092894D01*
G37*
G36*
X74463121Y-50440431D02*
G01*
X74530986Y-50511869D01*
X74563618Y-50586305D01*
X74583197Y-50682613D01*
X74589724Y-50800794D01*
X74585755Y-50894059D01*
X74573849Y-50970656D01*
X74226186Y-50508694D01*
X74291671Y-50439638D01*
X74376999Y-50416619D01*
X74463121Y-50440431D01*
G37*
%TO.C,kibuzzard-6673E301*%
G36*
X52721691Y-71120000D02*
G01*
X52865624Y-70904100D01*
X53643323Y-70904100D01*
X53653906Y-71001819D01*
X53685656Y-71085428D01*
X53738573Y-71154925D01*
X53809657Y-71206960D01*
X53895912Y-71238181D01*
X53997335Y-71248588D01*
X54233873Y-71248588D01*
X54233873Y-71675625D01*
X54395798Y-71675625D01*
X54618048Y-71675625D01*
X54784735Y-71675625D01*
X54784735Y-71188262D01*
X55181610Y-71188262D01*
X55181610Y-71675625D01*
X55348298Y-71675625D01*
X55348298Y-70564375D01*
X55181610Y-70564375D01*
X55181610Y-71037450D01*
X54784735Y-71037450D01*
X54784735Y-70564375D01*
X54618048Y-70564375D01*
X54618048Y-71675625D01*
X54395798Y-71675625D01*
X54395798Y-70564375D01*
X53987810Y-70564375D01*
X53890091Y-70574782D01*
X53806482Y-70606003D01*
X53736985Y-70658037D01*
X53684951Y-70727006D01*
X53653730Y-70809026D01*
X53643323Y-70904100D01*
X52865624Y-70904100D01*
X53312594Y-70233646D01*
X57311109Y-70233646D01*
X57311109Y-72006354D01*
X53312594Y-72006354D01*
X52721691Y-71120000D01*
G37*
G36*
X54233873Y-71100950D02*
G01*
X54025910Y-71100950D01*
X53936018Y-71087853D01*
X53869541Y-71048562D01*
X53828465Y-70986253D01*
X53814773Y-70904100D01*
X53828465Y-70824527D01*
X53869541Y-70763606D01*
X53933637Y-70724911D01*
X54016385Y-70712013D01*
X54233873Y-70712013D01*
X54233873Y-71100950D01*
G37*
%TO.C,kibuzzard-666B0D69*%
G36*
X74540247Y-61364812D02*
G01*
X74435472Y-61364812D01*
X74340134Y-61353259D01*
X74261552Y-61318599D01*
X74199728Y-61260831D01*
X74155190Y-61180839D01*
X74128467Y-61079503D01*
X74119559Y-60956825D01*
X74128335Y-60834102D01*
X74154661Y-60733693D01*
X74198537Y-60655597D01*
X74259965Y-60599814D01*
X74338943Y-60566344D01*
X74435472Y-60555188D01*
X74540247Y-60555188D01*
X74540247Y-61364812D01*
G37*
G36*
X72375999Y-60960000D02*
G01*
X72378116Y-60956825D01*
X73949697Y-60956825D01*
X73957287Y-61079410D01*
X73980058Y-61188402D01*
X74018009Y-61283800D01*
X74071140Y-61365606D01*
X74138857Y-61431239D01*
X74220564Y-61478120D01*
X74316260Y-61506249D01*
X74425947Y-61515625D01*
X74706934Y-61515625D01*
X74929184Y-61515625D01*
X75097459Y-61515625D01*
X75492747Y-60721875D01*
X75503859Y-60721875D01*
X75503859Y-61515625D01*
X75659434Y-61515625D01*
X75868984Y-61515625D01*
X75997572Y-61515625D01*
X76016622Y-61420375D01*
X76027734Y-61420375D01*
X76106315Y-61494988D01*
X76175570Y-61522372D01*
X76264272Y-61531500D01*
X76376720Y-61515537D01*
X76470647Y-61467647D01*
X76546053Y-61387831D01*
X76589461Y-61308407D01*
X76620467Y-61213802D01*
X76639071Y-61104016D01*
X76645272Y-60979050D01*
X76638426Y-60847734D01*
X76617887Y-60731598D01*
X76583657Y-60630643D01*
X76535734Y-60544869D01*
X76453361Y-60457997D01*
X76352290Y-60405874D01*
X76232522Y-60388500D01*
X76139212Y-60398466D01*
X76058249Y-60428364D01*
X75989634Y-60478194D01*
X75935483Y-60545839D01*
X75897912Y-60629183D01*
X75876922Y-60728225D01*
X76051547Y-60728225D01*
X76089294Y-60625037D01*
X76149619Y-60563125D01*
X76232522Y-60542488D01*
X76334122Y-60570467D01*
X76410322Y-60654406D01*
X76445599Y-60740219D01*
X76466766Y-60848434D01*
X76473822Y-60979050D01*
X76464233Y-61124782D01*
X76435468Y-61238130D01*
X76387525Y-61319093D01*
X76320406Y-61367670D01*
X76234109Y-61383863D01*
X76150170Y-61368781D01*
X76085678Y-61323538D01*
X76044601Y-61250116D01*
X76030909Y-61150500D01*
X76030909Y-61061600D01*
X76242047Y-61061600D01*
X76242047Y-60928250D01*
X75868984Y-60928250D01*
X75868984Y-61515625D01*
X75659434Y-61515625D01*
X75659434Y-60404375D01*
X75491159Y-60404375D01*
X75095872Y-61199713D01*
X75084759Y-61199713D01*
X75084759Y-60404375D01*
X74929184Y-60404375D01*
X74929184Y-61515625D01*
X74706934Y-61515625D01*
X74706934Y-60404375D01*
X74425947Y-60404375D01*
X74316905Y-60413652D01*
X74221556Y-60441483D01*
X74139899Y-60487868D01*
X74071934Y-60552806D01*
X74018455Y-60633719D01*
X73980256Y-60728027D01*
X73957337Y-60835729D01*
X73949697Y-60956825D01*
X72378116Y-60956825D01*
X72977485Y-60057771D01*
X76976001Y-60057771D01*
X76976001Y-61862229D01*
X72977485Y-61862229D01*
X72375999Y-60960000D01*
G37*
%TO.C,kibuzzard-6673E097*%
G36*
X72381291Y-58420000D02*
G01*
X72972194Y-57533646D01*
X76970709Y-57533646D01*
X76970709Y-59306354D01*
X72972194Y-59306354D01*
X72751708Y-58975625D01*
X74971518Y-58975625D01*
X75133443Y-58975625D01*
X75133443Y-58507313D01*
X75146341Y-58418413D01*
X75185036Y-58354912D01*
X75243972Y-58316812D01*
X75317593Y-58304112D01*
X75396968Y-58317606D01*
X75460468Y-58358088D01*
X75502139Y-58425556D01*
X75516030Y-58520013D01*
X75516030Y-58975625D01*
X75677955Y-58975625D01*
X75917668Y-58975625D01*
X76639980Y-58975625D01*
X76639980Y-58827988D01*
X76360580Y-58827988D01*
X76360580Y-58012013D01*
X76632043Y-58012013D01*
X76632043Y-57864375D01*
X75925605Y-57864375D01*
X75925605Y-58012013D01*
X76193893Y-58012013D01*
X76193893Y-58827988D01*
X75917668Y-58827988D01*
X75917668Y-58975625D01*
X75677955Y-58975625D01*
X75677955Y-58181875D01*
X75531905Y-58181875D01*
X75516030Y-58280300D01*
X75504918Y-58280300D01*
X75443005Y-58216800D01*
X75363101Y-58178700D01*
X75265205Y-58166000D01*
X75145150Y-58186637D01*
X75051686Y-58248550D01*
X74991560Y-58347372D01*
X74971518Y-58478737D01*
X74971518Y-58975625D01*
X72751708Y-58975625D01*
X72381291Y-58420000D01*
G37*
%TO.C,kibuzzard-666B0D69*%
G36*
X74540247Y-68984812D02*
G01*
X74435472Y-68984812D01*
X74340134Y-68973259D01*
X74261552Y-68938599D01*
X74199728Y-68880831D01*
X74155190Y-68800839D01*
X74128467Y-68699503D01*
X74119559Y-68576825D01*
X74128335Y-68454102D01*
X74154661Y-68353693D01*
X74198537Y-68275597D01*
X74259965Y-68219814D01*
X74338943Y-68186344D01*
X74435472Y-68175188D01*
X74540247Y-68175188D01*
X74540247Y-68984812D01*
G37*
G36*
X72375999Y-68580000D02*
G01*
X72378116Y-68576825D01*
X73949697Y-68576825D01*
X73957287Y-68699410D01*
X73980058Y-68808402D01*
X74018009Y-68903800D01*
X74071140Y-68985606D01*
X74138857Y-69051239D01*
X74220564Y-69098120D01*
X74316260Y-69126249D01*
X74425947Y-69135625D01*
X74706934Y-69135625D01*
X74929184Y-69135625D01*
X75097459Y-69135625D01*
X75492747Y-68341875D01*
X75503859Y-68341875D01*
X75503859Y-69135625D01*
X75659434Y-69135625D01*
X75868984Y-69135625D01*
X75997572Y-69135625D01*
X76016622Y-69040375D01*
X76027734Y-69040375D01*
X76106315Y-69114988D01*
X76175570Y-69142372D01*
X76264272Y-69151500D01*
X76376720Y-69135537D01*
X76470647Y-69087647D01*
X76546053Y-69007831D01*
X76589461Y-68928407D01*
X76620467Y-68833802D01*
X76639071Y-68724016D01*
X76645272Y-68599050D01*
X76638426Y-68467734D01*
X76617887Y-68351598D01*
X76583657Y-68250643D01*
X76535734Y-68164869D01*
X76453361Y-68077997D01*
X76352290Y-68025874D01*
X76232522Y-68008500D01*
X76139212Y-68018466D01*
X76058249Y-68048364D01*
X75989634Y-68098194D01*
X75935483Y-68165839D01*
X75897912Y-68249183D01*
X75876922Y-68348225D01*
X76051547Y-68348225D01*
X76089294Y-68245037D01*
X76149619Y-68183125D01*
X76232522Y-68162488D01*
X76334122Y-68190467D01*
X76410322Y-68274406D01*
X76445599Y-68360219D01*
X76466766Y-68468434D01*
X76473822Y-68599050D01*
X76464233Y-68744782D01*
X76435468Y-68858130D01*
X76387525Y-68939093D01*
X76320406Y-68987670D01*
X76234109Y-69003863D01*
X76150170Y-68988781D01*
X76085678Y-68943538D01*
X76044601Y-68870116D01*
X76030909Y-68770500D01*
X76030909Y-68681600D01*
X76242047Y-68681600D01*
X76242047Y-68548250D01*
X75868984Y-68548250D01*
X75868984Y-69135625D01*
X75659434Y-69135625D01*
X75659434Y-68024375D01*
X75491159Y-68024375D01*
X75095872Y-68819713D01*
X75084759Y-68819713D01*
X75084759Y-68024375D01*
X74929184Y-68024375D01*
X74929184Y-69135625D01*
X74706934Y-69135625D01*
X74706934Y-68024375D01*
X74425947Y-68024375D01*
X74316905Y-68033652D01*
X74221556Y-68061483D01*
X74139899Y-68107868D01*
X74071934Y-68172806D01*
X74018455Y-68253719D01*
X73980256Y-68348027D01*
X73957337Y-68455729D01*
X73949697Y-68576825D01*
X72378116Y-68576825D01*
X72977485Y-67677771D01*
X76976001Y-67677771D01*
X76976001Y-69482229D01*
X72977485Y-69482229D01*
X72375999Y-68580000D01*
G37*
G36*
X72375999Y-53340000D02*
G01*
X72378116Y-53336825D01*
X73949697Y-53336825D01*
X73957287Y-53459410D01*
X73980058Y-53568402D01*
X74018009Y-53663800D01*
X74071140Y-53745606D01*
X74138857Y-53811239D01*
X74220564Y-53858120D01*
X74316260Y-53886249D01*
X74425947Y-53895625D01*
X74706934Y-53895625D01*
X74929184Y-53895625D01*
X75097459Y-53895625D01*
X75492747Y-53101875D01*
X75503859Y-53101875D01*
X75503859Y-53895625D01*
X75659434Y-53895625D01*
X75868984Y-53895625D01*
X75997572Y-53895625D01*
X76016622Y-53800375D01*
X76027734Y-53800375D01*
X76106315Y-53874988D01*
X76175570Y-53902372D01*
X76264272Y-53911500D01*
X76376720Y-53895537D01*
X76470647Y-53847647D01*
X76546053Y-53767831D01*
X76589461Y-53688407D01*
X76620467Y-53593802D01*
X76639071Y-53484016D01*
X76645272Y-53359050D01*
X76638426Y-53227734D01*
X76617887Y-53111598D01*
X76583657Y-53010643D01*
X76535734Y-52924869D01*
X76453361Y-52837997D01*
X76352290Y-52785874D01*
X76232522Y-52768500D01*
X76139212Y-52778466D01*
X76058249Y-52808364D01*
X75989634Y-52858194D01*
X75935483Y-52925839D01*
X75897912Y-53009183D01*
X75876922Y-53108225D01*
X76051547Y-53108225D01*
X76089294Y-53005037D01*
X76149619Y-52943125D01*
X76232522Y-52922488D01*
X76334122Y-52950467D01*
X76410322Y-53034406D01*
X76445599Y-53120219D01*
X76466766Y-53228434D01*
X76473822Y-53359050D01*
X76464233Y-53504782D01*
X76435468Y-53618130D01*
X76387525Y-53699093D01*
X76320406Y-53747670D01*
X76234109Y-53763863D01*
X76150170Y-53748781D01*
X76085678Y-53703538D01*
X76044601Y-53630116D01*
X76030909Y-53530500D01*
X76030909Y-53441600D01*
X76242047Y-53441600D01*
X76242047Y-53308250D01*
X75868984Y-53308250D01*
X75868984Y-53895625D01*
X75659434Y-53895625D01*
X75659434Y-52784375D01*
X75491159Y-52784375D01*
X75095872Y-53579713D01*
X75084759Y-53579713D01*
X75084759Y-52784375D01*
X74929184Y-52784375D01*
X74929184Y-53895625D01*
X74706934Y-53895625D01*
X74706934Y-52784375D01*
X74425947Y-52784375D01*
X74316905Y-52793652D01*
X74221556Y-52821483D01*
X74139899Y-52867868D01*
X74071934Y-52932806D01*
X74018455Y-53013719D01*
X73980256Y-53108027D01*
X73957337Y-53215729D01*
X73949697Y-53336825D01*
X72378116Y-53336825D01*
X72977485Y-52437771D01*
X76976001Y-52437771D01*
X76976001Y-54242229D01*
X72977485Y-54242229D01*
X72375999Y-53340000D01*
G37*
G36*
X74540247Y-53744812D02*
G01*
X74435472Y-53744812D01*
X74340134Y-53733259D01*
X74261552Y-53698599D01*
X74199728Y-53640831D01*
X74155190Y-53560839D01*
X74128467Y-53459503D01*
X74119559Y-53336825D01*
X74128335Y-53214102D01*
X74154661Y-53113693D01*
X74198537Y-53035597D01*
X74259965Y-52979814D01*
X74338943Y-52946344D01*
X74435472Y-52935188D01*
X74540247Y-52935188D01*
X74540247Y-53744812D01*
G37*
%TO.C,kibuzzard-6673E306*%
G36*
X74833052Y-71100950D02*
G01*
X74625090Y-71100950D01*
X74535198Y-71087853D01*
X74468721Y-71048562D01*
X74427644Y-70986253D01*
X74413952Y-70904100D01*
X74427644Y-70824527D01*
X74468721Y-70763606D01*
X74532816Y-70724911D01*
X74615565Y-70712013D01*
X74833052Y-70712013D01*
X74833052Y-71100950D01*
G37*
G36*
X72279691Y-70233646D02*
G01*
X76278206Y-70233646D01*
X76869109Y-71120000D01*
X76278206Y-72006354D01*
X72279691Y-72006354D01*
X72279691Y-70904100D01*
X74242502Y-70904100D01*
X74253086Y-71001819D01*
X74284836Y-71085428D01*
X74337752Y-71154925D01*
X74408837Y-71206960D01*
X74495091Y-71238181D01*
X74596515Y-71248588D01*
X74833052Y-71248588D01*
X74833052Y-71675625D01*
X74994977Y-71675625D01*
X75217227Y-71675625D01*
X75383915Y-71675625D01*
X75383915Y-71188262D01*
X75780790Y-71188262D01*
X75780790Y-71675625D01*
X75947477Y-71675625D01*
X75947477Y-70564375D01*
X75780790Y-70564375D01*
X75780790Y-71037450D01*
X75383915Y-71037450D01*
X75383915Y-70564375D01*
X75217227Y-70564375D01*
X75217227Y-71675625D01*
X74994977Y-71675625D01*
X74994977Y-70564375D01*
X74586990Y-70564375D01*
X74489270Y-70574782D01*
X74405662Y-70606003D01*
X74336165Y-70658037D01*
X74284130Y-70727006D01*
X74252909Y-70809026D01*
X74242502Y-70904100D01*
X72279691Y-70904100D01*
X72279691Y-70233646D01*
G37*
%TO.C,kibuzzard-666B0D6E*%
G36*
X76437838Y-56026050D02*
G01*
X76152088Y-56026050D01*
X76152088Y-55583138D01*
X76164788Y-55583138D01*
X76437838Y-56026050D01*
G37*
G36*
X72394520Y-55880000D02*
G01*
X72958964Y-55033333D01*
X76957480Y-55033333D01*
X76957480Y-56726667D01*
X72958964Y-56726667D01*
X72513053Y-56057800D01*
X73964513Y-56057800D01*
X73975802Y-56153579D01*
X74009669Y-56235600D01*
X74066113Y-56303863D01*
X74140373Y-56355015D01*
X74227686Y-56385707D01*
X74328051Y-56395938D01*
X74422066Y-56386589D01*
X74503029Y-56358543D01*
X74570938Y-56311800D01*
X74622973Y-56249358D01*
X74656311Y-56174217D01*
X74670951Y-56086375D01*
X74513788Y-56086375D01*
X74496127Y-56160194D01*
X74455845Y-56216550D01*
X74397306Y-56252269D01*
X74324876Y-56264175D01*
X74245898Y-56250483D01*
X74183588Y-56209406D01*
X74143107Y-56144914D01*
X74129613Y-56060975D01*
X74142512Y-55977036D01*
X74181207Y-55909369D01*
X74241334Y-55864720D01*
X74318526Y-55849838D01*
X74426476Y-55876825D01*
X74502676Y-55953025D01*
X74648726Y-55919688D01*
X74616341Y-55586313D01*
X74872563Y-55586313D01*
X75172601Y-56380063D01*
X75369451Y-56380063D01*
X75456319Y-56151463D01*
X75821888Y-56151463D01*
X75996513Y-56151463D01*
X75996513Y-56380063D01*
X76152088Y-56380063D01*
X76152088Y-56151463D01*
X76626751Y-56151463D01*
X76626751Y-56070500D01*
X76166376Y-55364063D01*
X75996513Y-55364063D01*
X75996513Y-56026050D01*
X75821888Y-56026050D01*
X75821888Y-56151463D01*
X75456319Y-56151463D01*
X75671076Y-55586313D01*
X75504388Y-55586313D01*
X75275788Y-56211788D01*
X75264676Y-56211788D01*
X75037663Y-55586313D01*
X74872563Y-55586313D01*
X74616341Y-55586313D01*
X74594751Y-55364063D01*
X74012138Y-55364063D01*
X74012138Y-55500588D01*
X74453463Y-55500588D01*
X74483626Y-55792688D01*
X74396710Y-55741491D01*
X74285188Y-55724425D01*
X74195936Y-55734920D01*
X74118677Y-55766406D01*
X74053413Y-55818881D01*
X74004024Y-55887408D01*
X73974391Y-55967048D01*
X73964513Y-56057800D01*
X72513053Y-56057800D01*
X72394520Y-55880000D01*
G37*
%TO.C,kibuzzard-6673E32C*%
G36*
X74848927Y-81260950D02*
G01*
X74640965Y-81260950D01*
X74551073Y-81247853D01*
X74484596Y-81208562D01*
X74443519Y-81146253D01*
X74429827Y-81064100D01*
X74443519Y-80984527D01*
X74484596Y-80923606D01*
X74548691Y-80884911D01*
X74631440Y-80872013D01*
X74848927Y-80872013D01*
X74848927Y-81260950D01*
G37*
G36*
X72279691Y-80393646D02*
G01*
X76278206Y-80393646D01*
X76869109Y-81280000D01*
X76278206Y-82166354D01*
X72279691Y-82166354D01*
X72279691Y-81064100D01*
X74258377Y-81064100D01*
X74268961Y-81161819D01*
X74300711Y-81245428D01*
X74353627Y-81314925D01*
X74424712Y-81366960D01*
X74510966Y-81398181D01*
X74612390Y-81408588D01*
X74848927Y-81408588D01*
X74848927Y-81835625D01*
X75010852Y-81835625D01*
X75241040Y-81835625D01*
X75947477Y-81835625D01*
X75947477Y-80724375D01*
X75777615Y-80724375D01*
X75777615Y-81684812D01*
X75241040Y-81684812D01*
X75241040Y-81835625D01*
X75010852Y-81835625D01*
X75010852Y-80724375D01*
X74602865Y-80724375D01*
X74505145Y-80734782D01*
X74421537Y-80766003D01*
X74352040Y-80818037D01*
X74300005Y-80887006D01*
X74268784Y-80969026D01*
X74258377Y-81064100D01*
X72279691Y-81064100D01*
X72279691Y-80393646D01*
G37*
%TO.C,kibuzzard-6673E377*%
G36*
X52560890Y-62454896D02*
G01*
X56775174Y-62454896D01*
X57471910Y-63500000D01*
X56775174Y-64545104D01*
X52560890Y-64545104D01*
X52560890Y-64214375D01*
X52891619Y-64214375D01*
X53053544Y-64214375D01*
X53053544Y-63804800D01*
X53117221Y-63864772D01*
X53198183Y-63900756D01*
X53296432Y-63912750D01*
X53396092Y-63900315D01*
X53483404Y-63863008D01*
X53558369Y-63800831D01*
X53615696Y-63717840D01*
X53650092Y-63618092D01*
X53661557Y-63501588D01*
X53660292Y-63488888D01*
X53852057Y-63488888D01*
X53855232Y-63541275D01*
X54439432Y-63541275D01*
X54418794Y-63638708D01*
X54369582Y-63715106D01*
X54296557Y-63764517D01*
X54204482Y-63780988D01*
X54112936Y-63767406D01*
X54047849Y-63726660D01*
X54009219Y-63658750D01*
X53853644Y-63658750D01*
X53896110Y-63764914D01*
X53972707Y-63845281D01*
X54077482Y-63895883D01*
X54204482Y-63912750D01*
X54311903Y-63900315D01*
X54405565Y-63863008D01*
X54485469Y-63800831D01*
X54546324Y-63718546D01*
X54582836Y-63620915D01*
X54595007Y-63507938D01*
X54582836Y-63389316D01*
X54546324Y-63287451D01*
X54518955Y-63249175D01*
X54775982Y-63249175D01*
X54868057Y-63244413D01*
X54983349Y-63261478D01*
X55072051Y-63312675D01*
X55128605Y-63393638D01*
X55147457Y-63500000D01*
X55147457Y-63774638D01*
X54847419Y-63774638D01*
X54847419Y-63896875D01*
X55541157Y-63896875D01*
X55541157Y-63774638D01*
X55309382Y-63774638D01*
X55309382Y-63225363D01*
X55533219Y-63225363D01*
X55533219Y-63103125D01*
X55164919Y-63103125D01*
X55149044Y-63234888D01*
X55137932Y-63234888D01*
X55089116Y-63169800D01*
X55028394Y-63123763D01*
X54947035Y-63096378D01*
X54836307Y-63087250D01*
X54775982Y-63087250D01*
X54775982Y-63249175D01*
X54518955Y-63249175D01*
X54485469Y-63202344D01*
X54406447Y-63138403D01*
X54315431Y-63100038D01*
X54212419Y-63087250D01*
X54114612Y-63098715D01*
X54028622Y-63133111D01*
X53954451Y-63190438D01*
X53897565Y-63269460D01*
X53863434Y-63368943D01*
X53852057Y-63488888D01*
X53660292Y-63488888D01*
X53650092Y-63386494D01*
X53615696Y-63286746D01*
X53558369Y-63202344D01*
X53483404Y-63138403D01*
X53396092Y-63100038D01*
X53296432Y-63087250D01*
X53196949Y-63100832D01*
X53114399Y-63141578D01*
X53048782Y-63209488D01*
X53037669Y-63209488D01*
X53023382Y-63103125D01*
X52891619Y-63103125D01*
X52891619Y-64214375D01*
X52560890Y-64214375D01*
X52560890Y-62936438D01*
X55782457Y-62936438D01*
X56276169Y-62936438D01*
X56276169Y-63280925D01*
X55850719Y-63280925D01*
X55850719Y-63428563D01*
X56276169Y-63428563D01*
X56276169Y-63896875D01*
X56444444Y-63896875D01*
X56444444Y-62785625D01*
X55782457Y-62785625D01*
X55782457Y-62936438D01*
X52560890Y-62936438D01*
X52560890Y-62454896D01*
G37*
G36*
X54294573Y-63233895D02*
G01*
X54363232Y-63278544D01*
X54412841Y-63345417D01*
X54437844Y-63426975D01*
X54007632Y-63426975D01*
X54022912Y-63343433D01*
X54065576Y-63276956D01*
X54130465Y-63233498D01*
X54212419Y-63219013D01*
X54294573Y-63233895D01*
G37*
G36*
X53364893Y-63244413D02*
G01*
X53436926Y-63301563D01*
X53483955Y-63389669D01*
X53499632Y-63501588D01*
X53483955Y-63613109D01*
X53436926Y-63700025D01*
X53364893Y-63755984D01*
X53274207Y-63774638D01*
X53184116Y-63755984D01*
X53113869Y-63700025D01*
X53068626Y-63613109D01*
X53053544Y-63501588D01*
X53068626Y-63388677D01*
X53113869Y-63300769D01*
X53184116Y-63244214D01*
X53274207Y-63225363D01*
X53364893Y-63244413D01*
G37*
%TO.C,kibuzzard-666B0D54*%
G36*
X52582520Y-55033333D02*
G01*
X56581036Y-55033333D01*
X57145480Y-55880000D01*
X56581036Y-56726667D01*
X52582520Y-56726667D01*
X52582520Y-56057800D01*
X53588069Y-56057800D01*
X53599358Y-56153579D01*
X53633224Y-56235600D01*
X53689669Y-56303863D01*
X53763929Y-56355015D01*
X53851241Y-56385707D01*
X53951606Y-56395938D01*
X54045622Y-56386589D01*
X54126584Y-56358543D01*
X54194494Y-56311800D01*
X54246529Y-56249358D01*
X54279866Y-56174217D01*
X54294506Y-56086375D01*
X54137344Y-56086375D01*
X54119683Y-56160194D01*
X54079400Y-56216550D01*
X54020861Y-56252269D01*
X53948431Y-56264175D01*
X53869453Y-56250483D01*
X53807144Y-56209406D01*
X53766663Y-56144914D01*
X53753169Y-56060975D01*
X53766067Y-55977036D01*
X53804763Y-55909369D01*
X53864889Y-55864720D01*
X53942081Y-55849838D01*
X54050031Y-55876825D01*
X54126231Y-55953025D01*
X54272281Y-55919688D01*
X54239896Y-55586313D01*
X54496119Y-55586313D01*
X54796156Y-56380063D01*
X54993006Y-56380063D01*
X55079874Y-56151463D01*
X55445444Y-56151463D01*
X55620069Y-56151463D01*
X55620069Y-56380063D01*
X55775644Y-56380063D01*
X55775644Y-56151463D01*
X56250306Y-56151463D01*
X56250306Y-56070500D01*
X55789931Y-55364063D01*
X55620069Y-55364063D01*
X55620069Y-56026050D01*
X55445444Y-56026050D01*
X55445444Y-56151463D01*
X55079874Y-56151463D01*
X55294631Y-55586313D01*
X55127944Y-55586313D01*
X54899344Y-56211788D01*
X54888231Y-56211788D01*
X54661219Y-55586313D01*
X54496119Y-55586313D01*
X54239896Y-55586313D01*
X54218306Y-55364063D01*
X53635694Y-55364063D01*
X53635694Y-55500588D01*
X54077019Y-55500588D01*
X54107181Y-55792688D01*
X54020266Y-55741491D01*
X53908744Y-55724425D01*
X53819491Y-55734920D01*
X53742233Y-55766406D01*
X53676969Y-55818881D01*
X53627580Y-55887408D01*
X53597947Y-55967048D01*
X53588069Y-56057800D01*
X52582520Y-56057800D01*
X52582520Y-55033333D01*
G37*
G36*
X56061394Y-56026050D02*
G01*
X55775644Y-56026050D01*
X55775644Y-55583138D01*
X55788344Y-55583138D01*
X56061394Y-56026050D01*
G37*
%TO.C,kibuzzard-6673E332*%
G36*
X74845752Y-79159100D02*
G01*
X74612390Y-79159100D01*
X74533015Y-79146995D01*
X74472690Y-79110681D01*
X74434590Y-79053730D01*
X74421890Y-78979713D01*
X74434788Y-78904703D01*
X74473484Y-78844775D01*
X74534007Y-78805484D01*
X74612390Y-78792387D01*
X74845752Y-78792387D01*
X74845752Y-79159100D01*
G37*
G36*
X73896427Y-78720950D02*
G01*
X73688465Y-78720950D01*
X73598573Y-78707853D01*
X73532096Y-78668562D01*
X73491019Y-78606253D01*
X73477327Y-78524100D01*
X73491019Y-78444527D01*
X73532096Y-78383606D01*
X73596191Y-78344911D01*
X73678940Y-78332013D01*
X73896427Y-78332013D01*
X73896427Y-78720950D01*
G37*
G36*
X74845752Y-78655862D02*
G01*
X74620327Y-78655862D01*
X74547302Y-78644155D01*
X74493327Y-78609031D01*
X74459990Y-78554064D01*
X74448877Y-78482825D01*
X74460188Y-78414959D01*
X74494121Y-78363762D01*
X74547104Y-78331616D01*
X74615565Y-78320900D01*
X74845752Y-78320900D01*
X74845752Y-78655862D01*
G37*
G36*
X72279691Y-77853646D02*
G01*
X76278206Y-77853646D01*
X76869109Y-78740000D01*
X76278206Y-79626354D01*
X72279691Y-79626354D01*
X72279691Y-78524100D01*
X73305877Y-78524100D01*
X73316461Y-78621819D01*
X73348211Y-78705428D01*
X73401127Y-78774925D01*
X73472212Y-78826960D01*
X73558466Y-78858181D01*
X73659890Y-78868588D01*
X73896427Y-78868588D01*
X73896427Y-79295625D01*
X74058352Y-79295625D01*
X74058352Y-78992413D01*
X74253615Y-78992413D01*
X74263669Y-79081489D01*
X74293831Y-79156101D01*
X74344102Y-79216250D01*
X74412718Y-79260347D01*
X74497913Y-79286806D01*
X74599690Y-79295625D01*
X75009265Y-79295625D01*
X75241040Y-79295625D01*
X75947477Y-79295625D01*
X75947477Y-78184375D01*
X75777615Y-78184375D01*
X75777615Y-79144812D01*
X75241040Y-79144812D01*
X75241040Y-79295625D01*
X75009265Y-79295625D01*
X75009265Y-78184375D01*
X74602865Y-78184375D01*
X74507262Y-78192665D01*
X74427887Y-78217536D01*
X74364740Y-78258987D01*
X74302827Y-78346697D01*
X74282190Y-78460600D01*
X74299476Y-78564669D01*
X74351334Y-78646161D01*
X74437765Y-78705075D01*
X74437765Y-78714600D01*
X74366129Y-78751708D01*
X74306796Y-78809056D01*
X74266910Y-78888630D01*
X74253615Y-78992413D01*
X74058352Y-78992413D01*
X74058352Y-78184375D01*
X73650365Y-78184375D01*
X73552645Y-78194782D01*
X73469037Y-78226003D01*
X73399540Y-78278037D01*
X73347505Y-78347006D01*
X73316284Y-78429026D01*
X73305877Y-78524100D01*
X72279691Y-78524100D01*
X72279691Y-77853646D01*
G37*
%TO.C,REF\u002A\u002A*%
G36*
X64377691Y-42987467D02*
G01*
X64382273Y-42990003D01*
X64419704Y-43019057D01*
X64453170Y-43056410D01*
X64459007Y-43064852D01*
X64470165Y-43084553D01*
X64478136Y-43107935D01*
X64483618Y-43140067D01*
X64487307Y-43186019D01*
X64489899Y-43250859D01*
X64492092Y-43339657D01*
X64492402Y-43354669D01*
X64493400Y-43451999D01*
X64491994Y-43520934D01*
X64488164Y-43561948D01*
X64481889Y-43575514D01*
X64462898Y-43571452D01*
X64430638Y-43559144D01*
X64423041Y-43555545D01*
X64411176Y-43547398D01*
X64402994Y-43534004D01*
X64397643Y-43510608D01*
X64394269Y-43472455D01*
X64392019Y-43414790D01*
X64390040Y-43332857D01*
X64389498Y-43308907D01*
X64387403Y-43233266D01*
X64384683Y-43180328D01*
X64380515Y-43145075D01*
X64374079Y-43122487D01*
X64364550Y-43107544D01*
X64351106Y-43095227D01*
X64311305Y-43073634D01*
X64262341Y-43069476D01*
X64218529Y-43085999D01*
X64187008Y-43120210D01*
X64174914Y-43169114D01*
X64174578Y-43182407D01*
X64167972Y-43206472D01*
X64148470Y-43210144D01*
X64110283Y-43195813D01*
X64101438Y-43191217D01*
X64077534Y-43164186D01*
X64077061Y-43123994D01*
X64099836Y-43068409D01*
X64120727Y-43038117D01*
X64174142Y-42995084D01*
X64240074Y-42970755D01*
X64310574Y-42967443D01*
X64377691Y-42987467D01*
G37*
D11*
X64377691Y-42987467D02*
X64382273Y-42990003D01*
X64419704Y-43019057D01*
X64453170Y-43056410D01*
X64459007Y-43064852D01*
X64470165Y-43084553D01*
X64478136Y-43107935D01*
X64483618Y-43140067D01*
X64487307Y-43186019D01*
X64489899Y-43250859D01*
X64492092Y-43339657D01*
X64492402Y-43354669D01*
X64493400Y-43451999D01*
X64491994Y-43520934D01*
X64488164Y-43561948D01*
X64481889Y-43575514D01*
X64462898Y-43571452D01*
X64430638Y-43559144D01*
X64423041Y-43555545D01*
X64411176Y-43547398D01*
X64402994Y-43534004D01*
X64397643Y-43510608D01*
X64394269Y-43472455D01*
X64392019Y-43414790D01*
X64390040Y-43332857D01*
X64389498Y-43308907D01*
X64387403Y-43233266D01*
X64384683Y-43180328D01*
X64380515Y-43145075D01*
X64374079Y-43122487D01*
X64364550Y-43107544D01*
X64351106Y-43095227D01*
X64311305Y-43073634D01*
X64262341Y-43069476D01*
X64218529Y-43085999D01*
X64187008Y-43120210D01*
X64174914Y-43169114D01*
X64174578Y-43182407D01*
X64167972Y-43206472D01*
X64148470Y-43210144D01*
X64110283Y-43195813D01*
X64101438Y-43191217D01*
X64077534Y-43164186D01*
X64077061Y-43123994D01*
X64099836Y-43068409D01*
X64120727Y-43038117D01*
X64174142Y-42995084D01*
X64240074Y-42970755D01*
X64310574Y-42967443D01*
X64377691Y-42987467D01*
G36*
X64883933Y-38263371D02*
G01*
X64959856Y-38263865D01*
X65014491Y-38265135D01*
X65051500Y-38267547D01*
X65074547Y-38271467D01*
X65087296Y-38277262D01*
X65093411Y-38285299D01*
X65096556Y-38295943D01*
X65096646Y-38296325D01*
X65101814Y-38321347D01*
X65111209Y-38369681D01*
X65123867Y-38436260D01*
X65138825Y-38516014D01*
X65155119Y-38603875D01*
X65156448Y-38611064D01*
X65172691Y-38696340D01*
X65187805Y-38771242D01*
X65200808Y-38831219D01*
X65210715Y-38871717D01*
X65216544Y-38888184D01*
X65216575Y-38888210D01*
X65234943Y-38897320D01*
X65272640Y-38912457D01*
X65321543Y-38930358D01*
X65324297Y-38931330D01*
X65386817Y-38954959D01*
X65459543Y-38984595D01*
X65527294Y-39014062D01*
X65638703Y-39064626D01*
X65885399Y-38896160D01*
X65902775Y-38884311D01*
X65977202Y-38833947D01*
X66043614Y-38789612D01*
X66098039Y-38753916D01*
X66136506Y-38729471D01*
X66155042Y-38718889D01*
X66167743Y-38721315D01*
X66196579Y-38740110D01*
X66241143Y-38777330D01*
X66302670Y-38834020D01*
X66382398Y-38911227D01*
X66389532Y-38918255D01*
X66452796Y-38981222D01*
X66508990Y-39038268D01*
X66554677Y-39085817D01*
X66586414Y-39120297D01*
X66600764Y-39138131D01*
X66600810Y-39138217D01*
X66602633Y-39151795D01*
X66595910Y-39173820D01*
X66578946Y-39207304D01*
X66550044Y-39255261D01*
X66507508Y-39320704D01*
X66449644Y-39406645D01*
X66439783Y-39421151D01*
X66389913Y-39494635D01*
X66345905Y-39559687D01*
X66310380Y-39612417D01*
X66285959Y-39648936D01*
X66275264Y-39665356D01*
X66274458Y-39668834D01*
X66279518Y-39694785D01*
X66294677Y-39737159D01*
X66317463Y-39788728D01*
X66348429Y-39856170D01*
X66383004Y-39936195D01*
X66412366Y-40008629D01*
X66419645Y-40027377D01*
X66438710Y-40075246D01*
X66452715Y-40108596D01*
X66459041Y-40121114D01*
X66466025Y-40122050D01*
X66497413Y-40127461D01*
X66548787Y-40136806D01*
X66614802Y-40149069D01*
X66690113Y-40163232D01*
X66769375Y-40178280D01*
X66847243Y-40193195D01*
X66918370Y-40206961D01*
X66977412Y-40218562D01*
X67019022Y-40226980D01*
X67037857Y-40231199D01*
X67040980Y-40232389D01*
X67048591Y-40238805D01*
X67054254Y-40252465D01*
X67058251Y-40276999D01*
X67060866Y-40316038D01*
X67062384Y-40373213D01*
X67063086Y-40452154D01*
X67063257Y-40556492D01*
X67063257Y-40873799D01*
X66987057Y-40888839D01*
X66977840Y-40890642D01*
X66928891Y-40899980D01*
X66861205Y-40912669D01*
X66782478Y-40927273D01*
X66700400Y-40942355D01*
X66668078Y-40948422D01*
X66595855Y-40963181D01*
X66535666Y-40977137D01*
X66493040Y-40988952D01*
X66473510Y-40997287D01*
X66464660Y-41010905D01*
X66448548Y-41046938D01*
X66432065Y-41093572D01*
X66426263Y-41111034D01*
X66404906Y-41168358D01*
X66377359Y-41236201D01*
X66348107Y-41303355D01*
X66332463Y-41338430D01*
X66310174Y-41390822D01*
X66294857Y-41430058D01*
X66289162Y-41449563D01*
X66289478Y-41451036D01*
X66300281Y-41471729D01*
X66324638Y-41511665D01*
X66360081Y-41566972D01*
X66404136Y-41633781D01*
X66454332Y-41708220D01*
X66619501Y-41950623D01*
X66402503Y-42167983D01*
X66381516Y-42188899D01*
X66317342Y-42251505D01*
X66259990Y-42305495D01*
X66212820Y-42347826D01*
X66179192Y-42375457D01*
X66162467Y-42385343D01*
X66144303Y-42377821D01*
X66106265Y-42356227D01*
X66052726Y-42323151D01*
X65987884Y-42281191D01*
X65915940Y-42232943D01*
X65845275Y-42185291D01*
X65781526Y-42143328D01*
X65729513Y-42110165D01*
X65693279Y-42088378D01*
X65676867Y-42080543D01*
X65675905Y-42080614D01*
X65654103Y-42088338D01*
X65615440Y-42106323D01*
X65567612Y-42131013D01*
X65567110Y-42131284D01*
X65503587Y-42163099D01*
X65460060Y-42178642D01*
X65433052Y-42178685D01*
X65419090Y-42164000D01*
X65413180Y-42149544D01*
X65397229Y-42110831D01*
X65372660Y-42051316D01*
X65340779Y-41974165D01*
X65302893Y-41882541D01*
X65260310Y-41779607D01*
X65214337Y-41668526D01*
X65172667Y-41567472D01*
X65130268Y-41463780D01*
X65092756Y-41371119D01*
X65061388Y-41292642D01*
X65037425Y-41231500D01*
X65022123Y-41190843D01*
X65016743Y-41173825D01*
X65027018Y-41158219D01*
X65055563Y-41132162D01*
X65095971Y-41101887D01*
X65192979Y-41022684D01*
X65279793Y-40921475D01*
X65343322Y-40810116D01*
X65383177Y-40691893D01*
X65398965Y-40570095D01*
X65390296Y-40448010D01*
X65356778Y-40328925D01*
X65298021Y-40216129D01*
X65213632Y-40112911D01*
X65169631Y-40072713D01*
X65064211Y-40001638D01*
X64951410Y-39955301D01*
X64834525Y-39932599D01*
X64716853Y-39932428D01*
X64601690Y-39953687D01*
X64492335Y-39995270D01*
X64392083Y-40056076D01*
X64304233Y-40135001D01*
X64232080Y-40230941D01*
X64178922Y-40342795D01*
X64148057Y-40469457D01*
X64142392Y-40530507D01*
X64150185Y-40662776D01*
X64185284Y-40788266D01*
X64246649Y-40904759D01*
X64333243Y-41010039D01*
X64444029Y-41101887D01*
X64482931Y-41130930D01*
X64512104Y-41157272D01*
X64523257Y-41173800D01*
X64518810Y-41188209D01*
X64504378Y-41226815D01*
X64481173Y-41286201D01*
X64450452Y-41363215D01*
X64413474Y-41454703D01*
X64371496Y-41557516D01*
X64325778Y-41668502D01*
X64284178Y-41769072D01*
X64241222Y-41872947D01*
X64202829Y-41965819D01*
X64170305Y-42044525D01*
X64144958Y-42105899D01*
X64128095Y-42146779D01*
X64121025Y-42164000D01*
X64120943Y-42164204D01*
X64106798Y-42178745D01*
X64079659Y-42178579D01*
X64036023Y-42162927D01*
X63972388Y-42131013D01*
X63967379Y-42128326D01*
X63920125Y-42104150D01*
X63882811Y-42087037D01*
X63863133Y-42080543D01*
X63847005Y-42088218D01*
X63810959Y-42109871D01*
X63759092Y-42142928D01*
X63695445Y-42184810D01*
X63624060Y-42232943D01*
X63553724Y-42280131D01*
X63488670Y-42322267D01*
X63434820Y-42355578D01*
X63396374Y-42377469D01*
X63377534Y-42385343D01*
X63374325Y-42384343D01*
X63351954Y-42368584D01*
X63313733Y-42336033D01*
X63263021Y-42289733D01*
X63203181Y-42232726D01*
X63137571Y-42168058D01*
X62920648Y-41950772D01*
X63089601Y-41702253D01*
X63258553Y-41453733D01*
X63207183Y-41342595D01*
X63207031Y-41342266D01*
X63176183Y-41271418D01*
X63144661Y-41192523D01*
X63119266Y-41122600D01*
X63115423Y-41111322D01*
X63096047Y-41058967D01*
X63078574Y-41018283D01*
X63066388Y-40997287D01*
X63061426Y-40994322D01*
X63031634Y-40984375D01*
X62981047Y-40971505D01*
X62915194Y-40957053D01*
X62839600Y-40942355D01*
X62816957Y-40938210D01*
X62735038Y-40923116D01*
X62658600Y-40908899D01*
X62595337Y-40896995D01*
X62552943Y-40888839D01*
X62476743Y-40873799D01*
X62476743Y-40556492D01*
X62476760Y-40517476D01*
X62477082Y-40422292D01*
X62478033Y-40351255D01*
X62479896Y-40300734D01*
X62482955Y-40267098D01*
X62487494Y-40246718D01*
X62493795Y-40235962D01*
X62502143Y-40231199D01*
X62510224Y-40229270D01*
X62543172Y-40222445D01*
X62595736Y-40212022D01*
X62662569Y-40199018D01*
X62738328Y-40184449D01*
X62817665Y-40169333D01*
X62895237Y-40154685D01*
X62965698Y-40141523D01*
X63023702Y-40130863D01*
X63063904Y-40123721D01*
X63080959Y-40121114D01*
X63082112Y-40119541D01*
X63091385Y-40099119D01*
X63107432Y-40060045D01*
X63127635Y-40008629D01*
X63155672Y-39939353D01*
X63190186Y-39859290D01*
X63222538Y-39788728D01*
X63229952Y-39772889D01*
X63250755Y-39723293D01*
X63263219Y-39685038D01*
X63264863Y-39665356D01*
X63264015Y-39663962D01*
X63250548Y-39643420D01*
X63223850Y-39603516D01*
X63186539Y-39548140D01*
X63141234Y-39481177D01*
X63090552Y-39406517D01*
X63033445Y-39321692D01*
X62990607Y-39255800D01*
X62961460Y-39207478D01*
X62944317Y-39173733D01*
X62937495Y-39151572D01*
X62939306Y-39138002D01*
X62939915Y-39136984D01*
X62956297Y-39117210D01*
X62989695Y-39081175D01*
X63036671Y-39032451D01*
X63093786Y-38974612D01*
X63157603Y-38911227D01*
X63223802Y-38846905D01*
X63288648Y-38786447D01*
X63336299Y-38745655D01*
X63367990Y-38723484D01*
X63384958Y-38718889D01*
X63387175Y-38719921D01*
X63410524Y-38733837D01*
X63452912Y-38761030D01*
X63510369Y-38798889D01*
X63578923Y-38844803D01*
X63654601Y-38896160D01*
X63901298Y-39064626D01*
X64012706Y-39014062D01*
X64015943Y-39012597D01*
X64084343Y-38982965D01*
X64156907Y-38953493D01*
X64218457Y-38930358D01*
X64218729Y-38930262D01*
X64267595Y-38912367D01*
X64305212Y-38897253D01*
X64323457Y-38888184D01*
X64323752Y-38887855D01*
X64329946Y-38869282D01*
X64340139Y-38827045D01*
X64353348Y-38765696D01*
X64368590Y-38689789D01*
X64384881Y-38603875D01*
X64385449Y-38600796D01*
X64401713Y-38513128D01*
X64416608Y-38433741D01*
X64429171Y-38367701D01*
X64438438Y-38320079D01*
X64443444Y-38295943D01*
X64443764Y-38294605D01*
X64447060Y-38284273D01*
X64453738Y-38276506D01*
X64467462Y-38270940D01*
X64491895Y-38267207D01*
X64530702Y-38264942D01*
X64587546Y-38263778D01*
X64666090Y-38263348D01*
X64770000Y-38263286D01*
X64783056Y-38263286D01*
X64883933Y-38263371D01*
G37*
X64883933Y-38263371D02*
X64959856Y-38263865D01*
X65014491Y-38265135D01*
X65051500Y-38267547D01*
X65074547Y-38271467D01*
X65087296Y-38277262D01*
X65093411Y-38285299D01*
X65096556Y-38295943D01*
X65096646Y-38296325D01*
X65101814Y-38321347D01*
X65111209Y-38369681D01*
X65123867Y-38436260D01*
X65138825Y-38516014D01*
X65155119Y-38603875D01*
X65156448Y-38611064D01*
X65172691Y-38696340D01*
X65187805Y-38771242D01*
X65200808Y-38831219D01*
X65210715Y-38871717D01*
X65216544Y-38888184D01*
X65216575Y-38888210D01*
X65234943Y-38897320D01*
X65272640Y-38912457D01*
X65321543Y-38930358D01*
X65324297Y-38931330D01*
X65386817Y-38954959D01*
X65459543Y-38984595D01*
X65527294Y-39014062D01*
X65638703Y-39064626D01*
X65885399Y-38896160D01*
X65902775Y-38884311D01*
X65977202Y-38833947D01*
X66043614Y-38789612D01*
X66098039Y-38753916D01*
X66136506Y-38729471D01*
X66155042Y-38718889D01*
X66167743Y-38721315D01*
X66196579Y-38740110D01*
X66241143Y-38777330D01*
X66302670Y-38834020D01*
X66382398Y-38911227D01*
X66389532Y-38918255D01*
X66452796Y-38981222D01*
X66508990Y-39038268D01*
X66554677Y-39085817D01*
X66586414Y-39120297D01*
X66600764Y-39138131D01*
X66600810Y-39138217D01*
X66602633Y-39151795D01*
X66595910Y-39173820D01*
X66578946Y-39207304D01*
X66550044Y-39255261D01*
X66507508Y-39320704D01*
X66449644Y-39406645D01*
X66439783Y-39421151D01*
X66389913Y-39494635D01*
X66345905Y-39559687D01*
X66310380Y-39612417D01*
X66285959Y-39648936D01*
X66275264Y-39665356D01*
X66274458Y-39668834D01*
X66279518Y-39694785D01*
X66294677Y-39737159D01*
X66317463Y-39788728D01*
X66348429Y-39856170D01*
X66383004Y-39936195D01*
X66412366Y-40008629D01*
X66419645Y-40027377D01*
X66438710Y-40075246D01*
X66452715Y-40108596D01*
X66459041Y-40121114D01*
X66466025Y-40122050D01*
X66497413Y-40127461D01*
X66548787Y-40136806D01*
X66614802Y-40149069D01*
X66690113Y-40163232D01*
X66769375Y-40178280D01*
X66847243Y-40193195D01*
X66918370Y-40206961D01*
X66977412Y-40218562D01*
X67019022Y-40226980D01*
X67037857Y-40231199D01*
X67040980Y-40232389D01*
X67048591Y-40238805D01*
X67054254Y-40252465D01*
X67058251Y-40276999D01*
X67060866Y-40316038D01*
X67062384Y-40373213D01*
X67063086Y-40452154D01*
X67063257Y-40556492D01*
X67063257Y-40873799D01*
X66987057Y-40888839D01*
X66977840Y-40890642D01*
X66928891Y-40899980D01*
X66861205Y-40912669D01*
X66782478Y-40927273D01*
X66700400Y-40942355D01*
X66668078Y-40948422D01*
X66595855Y-40963181D01*
X66535666Y-40977137D01*
X66493040Y-40988952D01*
X66473510Y-40997287D01*
X66464660Y-41010905D01*
X66448548Y-41046938D01*
X66432065Y-41093572D01*
X66426263Y-41111034D01*
X66404906Y-41168358D01*
X66377359Y-41236201D01*
X66348107Y-41303355D01*
X66332463Y-41338430D01*
X66310174Y-41390822D01*
X66294857Y-41430058D01*
X66289162Y-41449563D01*
X66289478Y-41451036D01*
X66300281Y-41471729D01*
X66324638Y-41511665D01*
X66360081Y-41566972D01*
X66404136Y-41633781D01*
X66454332Y-41708220D01*
X66619501Y-41950623D01*
X66402503Y-42167983D01*
X66381516Y-42188899D01*
X66317342Y-42251505D01*
X66259990Y-42305495D01*
X66212820Y-42347826D01*
X66179192Y-42375457D01*
X66162467Y-42385343D01*
X66144303Y-42377821D01*
X66106265Y-42356227D01*
X66052726Y-42323151D01*
X65987884Y-42281191D01*
X65915940Y-42232943D01*
X65845275Y-42185291D01*
X65781526Y-42143328D01*
X65729513Y-42110165D01*
X65693279Y-42088378D01*
X65676867Y-42080543D01*
X65675905Y-42080614D01*
X65654103Y-42088338D01*
X65615440Y-42106323D01*
X65567612Y-42131013D01*
X65567110Y-42131284D01*
X65503587Y-42163099D01*
X65460060Y-42178642D01*
X65433052Y-42178685D01*
X65419090Y-42164000D01*
X65413180Y-42149544D01*
X65397229Y-42110831D01*
X65372660Y-42051316D01*
X65340779Y-41974165D01*
X65302893Y-41882541D01*
X65260310Y-41779607D01*
X65214337Y-41668526D01*
X65172667Y-41567472D01*
X65130268Y-41463780D01*
X65092756Y-41371119D01*
X65061388Y-41292642D01*
X65037425Y-41231500D01*
X65022123Y-41190843D01*
X65016743Y-41173825D01*
X65027018Y-41158219D01*
X65055563Y-41132162D01*
X65095971Y-41101887D01*
X65192979Y-41022684D01*
X65279793Y-40921475D01*
X65343322Y-40810116D01*
X65383177Y-40691893D01*
X65398965Y-40570095D01*
X65390296Y-40448010D01*
X65356778Y-40328925D01*
X65298021Y-40216129D01*
X65213632Y-40112911D01*
X65169631Y-40072713D01*
X65064211Y-40001638D01*
X64951410Y-39955301D01*
X64834525Y-39932599D01*
X64716853Y-39932428D01*
X64601690Y-39953687D01*
X64492335Y-39995270D01*
X64392083Y-40056076D01*
X64304233Y-40135001D01*
X64232080Y-40230941D01*
X64178922Y-40342795D01*
X64148057Y-40469457D01*
X64142392Y-40530507D01*
X64150185Y-40662776D01*
X64185284Y-40788266D01*
X64246649Y-40904759D01*
X64333243Y-41010039D01*
X64444029Y-41101887D01*
X64482931Y-41130930D01*
X64512104Y-41157272D01*
X64523257Y-41173800D01*
X64518810Y-41188209D01*
X64504378Y-41226815D01*
X64481173Y-41286201D01*
X64450452Y-41363215D01*
X64413474Y-41454703D01*
X64371496Y-41557516D01*
X64325778Y-41668502D01*
X64284178Y-41769072D01*
X64241222Y-41872947D01*
X64202829Y-41965819D01*
X64170305Y-42044525D01*
X64144958Y-42105899D01*
X64128095Y-42146779D01*
X64121025Y-42164000D01*
X64120943Y-42164204D01*
X64106798Y-42178745D01*
X64079659Y-42178579D01*
X64036023Y-42162927D01*
X63972388Y-42131013D01*
X63967379Y-42128326D01*
X63920125Y-42104150D01*
X63882811Y-42087037D01*
X63863133Y-42080543D01*
X63847005Y-42088218D01*
X63810959Y-42109871D01*
X63759092Y-42142928D01*
X63695445Y-42184810D01*
X63624060Y-42232943D01*
X63553724Y-42280131D01*
X63488670Y-42322267D01*
X63434820Y-42355578D01*
X63396374Y-42377469D01*
X63377534Y-42385343D01*
X63374325Y-42384343D01*
X63351954Y-42368584D01*
X63313733Y-42336033D01*
X63263021Y-42289733D01*
X63203181Y-42232726D01*
X63137571Y-42168058D01*
X62920648Y-41950772D01*
X63089601Y-41702253D01*
X63258553Y-41453733D01*
X63207183Y-41342595D01*
X63207031Y-41342266D01*
X63176183Y-41271418D01*
X63144661Y-41192523D01*
X63119266Y-41122600D01*
X63115423Y-41111322D01*
X63096047Y-41058967D01*
X63078574Y-41018283D01*
X63066388Y-40997287D01*
X63061426Y-40994322D01*
X63031634Y-40984375D01*
X62981047Y-40971505D01*
X62915194Y-40957053D01*
X62839600Y-40942355D01*
X62816957Y-40938210D01*
X62735038Y-40923116D01*
X62658600Y-40908899D01*
X62595337Y-40896995D01*
X62552943Y-40888839D01*
X62476743Y-40873799D01*
X62476743Y-40556492D01*
X62476760Y-40517476D01*
X62477082Y-40422292D01*
X62478033Y-40351255D01*
X62479896Y-40300734D01*
X62482955Y-40267098D01*
X62487494Y-40246718D01*
X62493795Y-40235962D01*
X62502143Y-40231199D01*
X62510224Y-40229270D01*
X62543172Y-40222445D01*
X62595736Y-40212022D01*
X62662569Y-40199018D01*
X62738328Y-40184449D01*
X62817665Y-40169333D01*
X62895237Y-40154685D01*
X62965698Y-40141523D01*
X63023702Y-40130863D01*
X63063904Y-40123721D01*
X63080959Y-40121114D01*
X63082112Y-40119541D01*
X63091385Y-40099119D01*
X63107432Y-40060045D01*
X63127635Y-40008629D01*
X63155672Y-39939353D01*
X63190186Y-39859290D01*
X63222538Y-39788728D01*
X63229952Y-39772889D01*
X63250755Y-39723293D01*
X63263219Y-39685038D01*
X63264863Y-39665356D01*
X63264015Y-39663962D01*
X63250548Y-39643420D01*
X63223850Y-39603516D01*
X63186539Y-39548140D01*
X63141234Y-39481177D01*
X63090552Y-39406517D01*
X63033445Y-39321692D01*
X62990607Y-39255800D01*
X62961460Y-39207478D01*
X62944317Y-39173733D01*
X62937495Y-39151572D01*
X62939306Y-39138002D01*
X62939915Y-39136984D01*
X62956297Y-39117210D01*
X62989695Y-39081175D01*
X63036671Y-39032451D01*
X63093786Y-38974612D01*
X63157603Y-38911227D01*
X63223802Y-38846905D01*
X63288648Y-38786447D01*
X63336299Y-38745655D01*
X63367990Y-38723484D01*
X63384958Y-38718889D01*
X63387175Y-38719921D01*
X63410524Y-38733837D01*
X63452912Y-38761030D01*
X63510369Y-38798889D01*
X63578923Y-38844803D01*
X63654601Y-38896160D01*
X63901298Y-39064626D01*
X64012706Y-39014062D01*
X64015943Y-39012597D01*
X64084343Y-38982965D01*
X64156907Y-38953493D01*
X64218457Y-38930358D01*
X64218729Y-38930262D01*
X64267595Y-38912367D01*
X64305212Y-38897253D01*
X64323457Y-38888184D01*
X64323752Y-38887855D01*
X64329946Y-38869282D01*
X64340139Y-38827045D01*
X64353348Y-38765696D01*
X64368590Y-38689789D01*
X64384881Y-38603875D01*
X64385449Y-38600796D01*
X64401713Y-38513128D01*
X64416608Y-38433741D01*
X64429171Y-38367701D01*
X64438438Y-38320079D01*
X64443444Y-38295943D01*
X64443764Y-38294605D01*
X64447060Y-38284273D01*
X64453738Y-38276506D01*
X64467462Y-38270940D01*
X64491895Y-38267207D01*
X64530702Y-38264942D01*
X64587546Y-38263778D01*
X64666090Y-38263348D01*
X64770000Y-38263286D01*
X64783056Y-38263286D01*
X64883933Y-38263371D01*
G36*
X68035701Y-43271935D02*
G01*
X68034914Y-43342119D01*
X68032210Y-43391022D01*
X68026606Y-43425178D01*
X68017119Y-43451124D01*
X68002768Y-43475397D01*
X67999237Y-43480433D01*
X67961878Y-43520143D01*
X67919311Y-43550092D01*
X67897452Y-43559810D01*
X67818908Y-43576020D01*
X67741231Y-43565535D01*
X67669645Y-43529707D01*
X67609374Y-43469887D01*
X67604286Y-43461873D01*
X67587730Y-43415342D01*
X67576573Y-43350552D01*
X67571160Y-43275727D01*
X67571768Y-43206513D01*
X67718248Y-43206513D01*
X67719402Y-43302399D01*
X67719866Y-43308569D01*
X67726629Y-43361478D01*
X67738671Y-43395029D01*
X67759005Y-43418016D01*
X67793097Y-43439548D01*
X67826814Y-43440680D01*
X67861543Y-43415857D01*
X67867584Y-43409325D01*
X67879417Y-43389779D01*
X67886404Y-43361386D01*
X67889727Y-43317430D01*
X67890571Y-43251192D01*
X67889125Y-43189150D01*
X67881907Y-43130042D01*
X67867006Y-43092686D01*
X67842636Y-43073152D01*
X67807008Y-43067514D01*
X67793440Y-43068635D01*
X67755430Y-43089194D01*
X67730312Y-43135299D01*
X67718248Y-43206513D01*
X67571768Y-43206513D01*
X67571833Y-43199096D01*
X67578937Y-43128882D01*
X67592815Y-43073312D01*
X67610649Y-43036301D01*
X67660855Y-42978733D01*
X67728885Y-42942962D01*
X67812158Y-42930665D01*
X67834398Y-42931331D01*
X67899891Y-42944947D01*
X67953687Y-42979249D01*
X68003057Y-43038338D01*
X68005995Y-43042722D01*
X68019287Y-43066299D01*
X68027932Y-43092949D01*
X68032904Y-43129159D01*
X68035174Y-43181413D01*
X68035678Y-43251192D01*
X68035714Y-43256200D01*
X68035701Y-43271935D01*
G37*
X68035701Y-43271935D02*
X68034914Y-43342119D01*
X68032210Y-43391022D01*
X68026606Y-43425178D01*
X68017119Y-43451124D01*
X68002768Y-43475397D01*
X67999237Y-43480433D01*
X67961878Y-43520143D01*
X67919311Y-43550092D01*
X67897452Y-43559810D01*
X67818908Y-43576020D01*
X67741231Y-43565535D01*
X67669645Y-43529707D01*
X67609374Y-43469887D01*
X67604286Y-43461873D01*
X67587730Y-43415342D01*
X67576573Y-43350552D01*
X67571160Y-43275727D01*
X67571768Y-43206513D01*
X67718248Y-43206513D01*
X67719402Y-43302399D01*
X67719866Y-43308569D01*
X67726629Y-43361478D01*
X67738671Y-43395029D01*
X67759005Y-43418016D01*
X67793097Y-43439548D01*
X67826814Y-43440680D01*
X67861543Y-43415857D01*
X67867584Y-43409325D01*
X67879417Y-43389779D01*
X67886404Y-43361386D01*
X67889727Y-43317430D01*
X67890571Y-43251192D01*
X67889125Y-43189150D01*
X67881907Y-43130042D01*
X67867006Y-43092686D01*
X67842636Y-43073152D01*
X67807008Y-43067514D01*
X67793440Y-43068635D01*
X67755430Y-43089194D01*
X67730312Y-43135299D01*
X67718248Y-43206513D01*
X67571768Y-43206513D01*
X67571833Y-43199096D01*
X67578937Y-43128882D01*
X67592815Y-43073312D01*
X67610649Y-43036301D01*
X67660855Y-42978733D01*
X67728885Y-42942962D01*
X67812158Y-42930665D01*
X67834398Y-42931331D01*
X67899891Y-42944947D01*
X67953687Y-42979249D01*
X68003057Y-43038338D01*
X68005995Y-43042722D01*
X68019287Y-43066299D01*
X68027932Y-43092949D01*
X68032904Y-43129159D01*
X68035174Y-43181413D01*
X68035678Y-43251192D01*
X68035714Y-43256200D01*
X68035701Y-43271935D01*
G36*
X61910307Y-43312305D02*
G01*
X61906762Y-43388521D01*
X61897483Y-43444294D01*
X61880375Y-43485613D01*
X61853344Y-43518467D01*
X61814292Y-43548846D01*
X61789445Y-43562660D01*
X61749615Y-43571965D01*
X61693665Y-43571230D01*
X61662385Y-43568283D01*
X61624653Y-43559283D01*
X61594494Y-43539720D01*
X61559408Y-43503267D01*
X61554720Y-43497943D01*
X61523177Y-43456969D01*
X61508128Y-43421283D01*
X61504286Y-43378966D01*
X61504286Y-43316779D01*
X61547742Y-43333182D01*
X61579424Y-43352356D01*
X61606962Y-43397347D01*
X61612711Y-43411752D01*
X61644855Y-43452546D01*
X61688611Y-43473081D01*
X61736254Y-43471235D01*
X61780057Y-43444886D01*
X61795111Y-43428455D01*
X61808763Y-43403667D01*
X61804493Y-43381144D01*
X61779916Y-43357964D01*
X61732651Y-43331202D01*
X61660314Y-43297934D01*
X61511543Y-43232816D01*
X61507595Y-43168308D01*
X61509079Y-43127220D01*
X61606010Y-43127220D01*
X61613368Y-43152657D01*
X61646848Y-43179814D01*
X61707614Y-43210714D01*
X61717669Y-43215190D01*
X61765751Y-43236017D01*
X61801726Y-43250665D01*
X61818444Y-43256200D01*
X61820977Y-43252126D01*
X61821993Y-43227247D01*
X61818369Y-43187257D01*
X61809242Y-43148152D01*
X61780773Y-43098884D01*
X61739678Y-43071122D01*
X61690590Y-43067364D01*
X61638144Y-43090109D01*
X61623609Y-43101481D01*
X61606010Y-43127220D01*
X61509079Y-43127220D01*
X61509338Y-43120064D01*
X61531281Y-43059096D01*
X61558979Y-43025497D01*
X61616405Y-42987966D01*
X61684527Y-42969006D01*
X61754947Y-42970507D01*
X61819267Y-42994355D01*
X61833426Y-43003513D01*
X61865904Y-43031849D01*
X61888116Y-43067695D01*
X61901804Y-43116384D01*
X61908715Y-43183249D01*
X61909628Y-43227247D01*
X61910590Y-43273622D01*
X61910307Y-43312305D01*
G37*
X61910307Y-43312305D02*
X61906762Y-43388521D01*
X61897483Y-43444294D01*
X61880375Y-43485613D01*
X61853344Y-43518467D01*
X61814292Y-43548846D01*
X61789445Y-43562660D01*
X61749615Y-43571965D01*
X61693665Y-43571230D01*
X61662385Y-43568283D01*
X61624653Y-43559283D01*
X61594494Y-43539720D01*
X61559408Y-43503267D01*
X61554720Y-43497943D01*
X61523177Y-43456969D01*
X61508128Y-43421283D01*
X61504286Y-43378966D01*
X61504286Y-43316779D01*
X61547742Y-43333182D01*
X61579424Y-43352356D01*
X61606962Y-43397347D01*
X61612711Y-43411752D01*
X61644855Y-43452546D01*
X61688611Y-43473081D01*
X61736254Y-43471235D01*
X61780057Y-43444886D01*
X61795111Y-43428455D01*
X61808763Y-43403667D01*
X61804493Y-43381144D01*
X61779916Y-43357964D01*
X61732651Y-43331202D01*
X61660314Y-43297934D01*
X61511543Y-43232816D01*
X61507595Y-43168308D01*
X61509079Y-43127220D01*
X61606010Y-43127220D01*
X61613368Y-43152657D01*
X61646848Y-43179814D01*
X61707614Y-43210714D01*
X61717669Y-43215190D01*
X61765751Y-43236017D01*
X61801726Y-43250665D01*
X61818444Y-43256200D01*
X61820977Y-43252126D01*
X61821993Y-43227247D01*
X61818369Y-43187257D01*
X61809242Y-43148152D01*
X61780773Y-43098884D01*
X61739678Y-43071122D01*
X61690590Y-43067364D01*
X61638144Y-43090109D01*
X61623609Y-43101481D01*
X61606010Y-43127220D01*
X61509079Y-43127220D01*
X61509338Y-43120064D01*
X61531281Y-43059096D01*
X61558979Y-43025497D01*
X61616405Y-42987966D01*
X61684527Y-42969006D01*
X61754947Y-42970507D01*
X61819267Y-42994355D01*
X61833426Y-43003513D01*
X61865904Y-43031849D01*
X61888116Y-43067695D01*
X61901804Y-43116384D01*
X61908715Y-43183249D01*
X61909628Y-43227247D01*
X61910590Y-43273622D01*
X61910307Y-43312305D01*
G36*
X65448543Y-42770444D02*
G01*
X65495714Y-42790342D01*
X65495714Y-43187509D01*
X65495519Y-43290498D01*
X65494998Y-43383141D01*
X65494199Y-43461700D01*
X65493172Y-43522439D01*
X65491963Y-43561623D01*
X65490623Y-43575514D01*
X65490099Y-43575468D01*
X65472287Y-43570420D01*
X65439823Y-43559580D01*
X65394114Y-43543646D01*
X65394114Y-43339173D01*
X65393824Y-43258832D01*
X65392474Y-43200562D01*
X65389369Y-43160909D01*
X65383812Y-43134618D01*
X65375107Y-43116436D01*
X65362556Y-43101107D01*
X65353999Y-43092955D01*
X65307728Y-43070375D01*
X65256728Y-43072375D01*
X65209993Y-43099073D01*
X65203189Y-43105698D01*
X65192293Y-43119456D01*
X65184836Y-43137642D01*
X65180169Y-43165177D01*
X65177642Y-43206981D01*
X65176602Y-43267973D01*
X65176400Y-43353073D01*
X65176303Y-43396234D01*
X65175674Y-43467224D01*
X65174556Y-43524076D01*
X65173063Y-43561828D01*
X65171309Y-43575514D01*
X65170785Y-43575468D01*
X65152973Y-43570420D01*
X65120509Y-43559580D01*
X65074800Y-43543646D01*
X65074823Y-43338237D01*
X65074857Y-43319951D01*
X65076778Y-43224626D01*
X65082678Y-43152543D01*
X65094001Y-43098813D01*
X65112187Y-43058549D01*
X65138679Y-43026861D01*
X65174918Y-42998861D01*
X65210263Y-42981333D01*
X65266773Y-42967785D01*
X65322356Y-42967015D01*
X65365086Y-42980195D01*
X65368298Y-42982015D01*
X65378205Y-42981820D01*
X65384975Y-42966572D01*
X65389861Y-42931613D01*
X65394114Y-42872289D01*
X65401371Y-42750547D01*
X65448543Y-42770444D01*
G37*
X65448543Y-42770444D02*
X65495714Y-42790342D01*
X65495714Y-43187509D01*
X65495519Y-43290498D01*
X65494998Y-43383141D01*
X65494199Y-43461700D01*
X65493172Y-43522439D01*
X65491963Y-43561623D01*
X65490623Y-43575514D01*
X65490099Y-43575468D01*
X65472287Y-43570420D01*
X65439823Y-43559580D01*
X65394114Y-43543646D01*
X65394114Y-43339173D01*
X65393824Y-43258832D01*
X65392474Y-43200562D01*
X65389369Y-43160909D01*
X65383812Y-43134618D01*
X65375107Y-43116436D01*
X65362556Y-43101107D01*
X65353999Y-43092955D01*
X65307728Y-43070375D01*
X65256728Y-43072375D01*
X65209993Y-43099073D01*
X65203189Y-43105698D01*
X65192293Y-43119456D01*
X65184836Y-43137642D01*
X65180169Y-43165177D01*
X65177642Y-43206981D01*
X65176602Y-43267973D01*
X65176400Y-43353073D01*
X65176303Y-43396234D01*
X65175674Y-43467224D01*
X65174556Y-43524076D01*
X65173063Y-43561828D01*
X65171309Y-43575514D01*
X65170785Y-43575468D01*
X65152973Y-43570420D01*
X65120509Y-43559580D01*
X65074800Y-43543646D01*
X65074823Y-43338237D01*
X65074857Y-43319951D01*
X65076778Y-43224626D01*
X65082678Y-43152543D01*
X65094001Y-43098813D01*
X65112187Y-43058549D01*
X65138679Y-43026861D01*
X65174918Y-42998861D01*
X65210263Y-42981333D01*
X65266773Y-42967785D01*
X65322356Y-42967015D01*
X65365086Y-42980195D01*
X65368298Y-42982015D01*
X65378205Y-42981820D01*
X65384975Y-42966572D01*
X65389861Y-42931613D01*
X65394114Y-42872289D01*
X65401371Y-42750547D01*
X65448543Y-42770444D01*
G36*
X63999537Y-43327313D02*
G01*
X63991345Y-43404462D01*
X63973519Y-43462276D01*
X63943975Y-43506422D01*
X63900625Y-43542568D01*
X63859332Y-43563463D01*
X63789987Y-43575090D01*
X63720736Y-43562377D01*
X63658145Y-43526945D01*
X63608779Y-43470418D01*
X63602818Y-43459995D01*
X63594945Y-43441733D01*
X63589106Y-43418429D01*
X63584999Y-43386085D01*
X63582325Y-43340704D01*
X63580781Y-43278287D01*
X63580734Y-43272748D01*
X63681429Y-43272748D01*
X63681772Y-43325577D01*
X63683942Y-43373362D01*
X63689307Y-43404209D01*
X63699217Y-43424935D01*
X63715021Y-43442356D01*
X63718724Y-43445705D01*
X63766299Y-43470419D01*
X63816635Y-43467890D01*
X63863517Y-43438288D01*
X63877477Y-43422953D01*
X63889160Y-43402622D01*
X63895686Y-43374514D01*
X63898524Y-43331550D01*
X63899143Y-43266647D01*
X63898837Y-43217122D01*
X63896722Y-43168782D01*
X63891390Y-43137587D01*
X63881460Y-43116647D01*
X63865550Y-43099073D01*
X63856204Y-43091159D01*
X63807776Y-43069843D01*
X63757040Y-43073198D01*
X63712987Y-43101107D01*
X63703504Y-43112173D01*
X63691939Y-43133009D01*
X63685252Y-43162106D01*
X63682173Y-43206381D01*
X63681429Y-43272748D01*
X63580734Y-43272748D01*
X63580067Y-43194837D01*
X63579883Y-43086358D01*
X63579829Y-42749601D01*
X63627000Y-42769362D01*
X63639472Y-42774770D01*
X63659324Y-42786985D01*
X63670687Y-42805482D01*
X63676933Y-42837829D01*
X63681429Y-42891593D01*
X63685535Y-42939866D01*
X63690963Y-42971557D01*
X63698739Y-42983383D01*
X63710457Y-42980212D01*
X63740318Y-42969067D01*
X63793684Y-42966304D01*
X63851093Y-42976625D01*
X63900625Y-42998861D01*
X63927876Y-43019443D01*
X63962865Y-43059600D01*
X63985274Y-43111086D01*
X63997190Y-43179568D01*
X64000542Y-43266647D01*
X64000698Y-43270714D01*
X63999537Y-43327313D01*
G37*
X63999537Y-43327313D02*
X63991345Y-43404462D01*
X63973519Y-43462276D01*
X63943975Y-43506422D01*
X63900625Y-43542568D01*
X63859332Y-43563463D01*
X63789987Y-43575090D01*
X63720736Y-43562377D01*
X63658145Y-43526945D01*
X63608779Y-43470418D01*
X63602818Y-43459995D01*
X63594945Y-43441733D01*
X63589106Y-43418429D01*
X63584999Y-43386085D01*
X63582325Y-43340704D01*
X63580781Y-43278287D01*
X63580734Y-43272748D01*
X63681429Y-43272748D01*
X63681772Y-43325577D01*
X63683942Y-43373362D01*
X63689307Y-43404209D01*
X63699217Y-43424935D01*
X63715021Y-43442356D01*
X63718724Y-43445705D01*
X63766299Y-43470419D01*
X63816635Y-43467890D01*
X63863517Y-43438288D01*
X63877477Y-43422953D01*
X63889160Y-43402622D01*
X63895686Y-43374514D01*
X63898524Y-43331550D01*
X63899143Y-43266647D01*
X63898837Y-43217122D01*
X63896722Y-43168782D01*
X63891390Y-43137587D01*
X63881460Y-43116647D01*
X63865550Y-43099073D01*
X63856204Y-43091159D01*
X63807776Y-43069843D01*
X63757040Y-43073198D01*
X63712987Y-43101107D01*
X63703504Y-43112173D01*
X63691939Y-43133009D01*
X63685252Y-43162106D01*
X63682173Y-43206381D01*
X63681429Y-43272748D01*
X63580734Y-43272748D01*
X63580067Y-43194837D01*
X63579883Y-43086358D01*
X63579829Y-42749601D01*
X63627000Y-42769362D01*
X63639472Y-42774770D01*
X63659324Y-42786985D01*
X63670687Y-42805482D01*
X63676933Y-42837829D01*
X63681429Y-42891593D01*
X63685535Y-42939866D01*
X63690963Y-42971557D01*
X63698739Y-42983383D01*
X63710457Y-42980212D01*
X63740318Y-42969067D01*
X63793684Y-42966304D01*
X63851093Y-42976625D01*
X63900625Y-42998861D01*
X63927876Y-43019443D01*
X63962865Y-43059600D01*
X63985274Y-43111086D01*
X63997190Y-43179568D01*
X64000542Y-43266647D01*
X64000698Y-43270714D01*
X63999537Y-43327313D01*
G36*
X62252829Y-42972097D02*
G01*
X62312753Y-42994355D01*
X62337673Y-43011080D01*
X62362910Y-43035043D01*
X62380912Y-43065526D01*
X62392858Y-43107023D01*
X62399930Y-43164032D01*
X62403308Y-43241047D01*
X62404171Y-43342565D01*
X62404002Y-43395027D01*
X62403153Y-43466715D01*
X62401711Y-43523925D01*
X62399814Y-43561809D01*
X62397597Y-43575514D01*
X62383172Y-43570981D01*
X62354054Y-43558670D01*
X62353181Y-43558272D01*
X62338060Y-43550356D01*
X62327891Y-43539495D01*
X62321691Y-43520471D01*
X62318478Y-43488069D01*
X62317270Y-43437071D01*
X62317086Y-43362261D01*
X62316714Y-43314804D01*
X62312750Y-43225615D01*
X62303673Y-43160287D01*
X62288524Y-43115393D01*
X62266345Y-43087507D01*
X62236175Y-43073203D01*
X62231990Y-43072206D01*
X62175480Y-43071427D01*
X62131410Y-43096744D01*
X62100972Y-43147502D01*
X62095544Y-43162175D01*
X62083171Y-43194649D01*
X62076905Y-43209572D01*
X62064036Y-43207516D01*
X62035933Y-43196357D01*
X62009721Y-43177927D01*
X61997771Y-43143098D01*
X62001336Y-43118151D01*
X62023235Y-43067547D01*
X62058644Y-43020128D01*
X62100052Y-42987334D01*
X62117400Y-42979752D01*
X62183089Y-42967076D01*
X62252829Y-42972097D01*
G37*
X62252829Y-42972097D02*
X62312753Y-42994355D01*
X62337673Y-43011080D01*
X62362910Y-43035043D01*
X62380912Y-43065526D01*
X62392858Y-43107023D01*
X62399930Y-43164032D01*
X62403308Y-43241047D01*
X62404171Y-43342565D01*
X62404002Y-43395027D01*
X62403153Y-43466715D01*
X62401711Y-43523925D01*
X62399814Y-43561809D01*
X62397597Y-43575514D01*
X62383172Y-43570981D01*
X62354054Y-43558670D01*
X62353181Y-43558272D01*
X62338060Y-43550356D01*
X62327891Y-43539495D01*
X62321691Y-43520471D01*
X62318478Y-43488069D01*
X62317270Y-43437071D01*
X62317086Y-43362261D01*
X62316714Y-43314804D01*
X62312750Y-43225615D01*
X62303673Y-43160287D01*
X62288524Y-43115393D01*
X62266345Y-43087507D01*
X62236175Y-43073203D01*
X62231990Y-43072206D01*
X62175480Y-43071427D01*
X62131410Y-43096744D01*
X62100972Y-43147502D01*
X62095544Y-43162175D01*
X62083171Y-43194649D01*
X62076905Y-43209572D01*
X62064036Y-43207516D01*
X62035933Y-43196357D01*
X62009721Y-43177927D01*
X61997771Y-43143098D01*
X62001336Y-43118151D01*
X62023235Y-43067547D01*
X62058644Y-43020128D01*
X62100052Y-42987334D01*
X62117400Y-42979752D01*
X62183089Y-42967076D01*
X62252829Y-42972097D01*
G36*
X66201020Y-42938822D02*
G01*
X66268810Y-42970680D01*
X66324366Y-43025770D01*
X66335881Y-43043016D01*
X66345432Y-43062562D01*
X66352206Y-43087198D01*
X66356819Y-43121711D01*
X66359888Y-43170889D01*
X66362029Y-43239519D01*
X66363859Y-43332389D01*
X66368404Y-43590007D01*
X66330225Y-43575491D01*
X66295268Y-43562156D01*
X66269097Y-43549323D01*
X66252013Y-43532780D01*
X66242086Y-43507465D01*
X66237386Y-43468316D01*
X66235982Y-43410268D01*
X66235943Y-43328261D01*
X66235744Y-43262895D01*
X66234559Y-43200173D01*
X66231729Y-43157334D01*
X66226609Y-43129220D01*
X66218553Y-43110675D01*
X66206914Y-43096543D01*
X66178303Y-43076600D01*
X66130239Y-43069083D01*
X66082688Y-43088079D01*
X66079550Y-43090511D01*
X66069769Y-43101748D01*
X66062553Y-43119770D01*
X66057299Y-43149026D01*
X66053402Y-43193962D01*
X66050256Y-43259028D01*
X66047257Y-43348670D01*
X66040000Y-43588697D01*
X65978314Y-43561044D01*
X65916629Y-43533391D01*
X65916629Y-43314246D01*
X65916884Y-43254711D01*
X65919086Y-43171892D01*
X65924661Y-43110227D01*
X65934941Y-43064748D01*
X65951258Y-43030484D01*
X65974943Y-43002466D01*
X66007328Y-42975723D01*
X66053907Y-42948780D01*
X66127287Y-42931191D01*
X66201020Y-42938822D01*
G37*
X66201020Y-42938822D02*
X66268810Y-42970680D01*
X66324366Y-43025770D01*
X66335881Y-43043016D01*
X66345432Y-43062562D01*
X66352206Y-43087198D01*
X66356819Y-43121711D01*
X66359888Y-43170889D01*
X66362029Y-43239519D01*
X66363859Y-43332389D01*
X66368404Y-43590007D01*
X66330225Y-43575491D01*
X66295268Y-43562156D01*
X66269097Y-43549323D01*
X66252013Y-43532780D01*
X66242086Y-43507465D01*
X66237386Y-43468316D01*
X66235982Y-43410268D01*
X66235943Y-43328261D01*
X66235744Y-43262895D01*
X66234559Y-43200173D01*
X66231729Y-43157334D01*
X66226609Y-43129220D01*
X66218553Y-43110675D01*
X66206914Y-43096543D01*
X66178303Y-43076600D01*
X66130239Y-43069083D01*
X66082688Y-43088079D01*
X66079550Y-43090511D01*
X66069769Y-43101748D01*
X66062553Y-43119770D01*
X66057299Y-43149026D01*
X66053402Y-43193962D01*
X66050256Y-43259028D01*
X66047257Y-43348670D01*
X66040000Y-43588697D01*
X65978314Y-43561044D01*
X65916629Y-43533391D01*
X65916629Y-43314246D01*
X65916884Y-43254711D01*
X65919086Y-43171892D01*
X65924661Y-43110227D01*
X65934941Y-43064748D01*
X65951258Y-43030484D01*
X65974943Y-43002466D01*
X66007328Y-42975723D01*
X66053907Y-42948780D01*
X66127287Y-42931191D01*
X66201020Y-42938822D01*
G36*
X63423941Y-42970282D02*
G01*
X63455774Y-42982758D01*
X63492743Y-42999602D01*
X63492743Y-43486196D01*
X63446812Y-43532127D01*
X63436320Y-43542427D01*
X63407255Y-43565320D01*
X63377943Y-43572735D01*
X63334326Y-43569321D01*
X63316568Y-43567114D01*
X63270767Y-43562445D01*
X63238743Y-43560585D01*
X63229244Y-43560869D01*
X63190274Y-43563948D01*
X63143160Y-43569321D01*
X63128085Y-43571168D01*
X63090110Y-43571893D01*
X63062325Y-43560429D01*
X63030674Y-43532127D01*
X62984743Y-43486196D01*
X62984743Y-43226055D01*
X62985101Y-43149180D01*
X62986216Y-43075886D01*
X62987952Y-43017850D01*
X62990167Y-42979663D01*
X62992721Y-42965914D01*
X62993256Y-42965951D01*
X63011808Y-42972793D01*
X63043153Y-42987868D01*
X63085608Y-43009822D01*
X63089604Y-43238240D01*
X63093600Y-43466657D01*
X63180686Y-43466657D01*
X63184657Y-43216286D01*
X63185916Y-43148227D01*
X63187718Y-43075482D01*
X63189671Y-43017730D01*
X63191612Y-42979648D01*
X63193377Y-42965914D01*
X63193885Y-42965962D01*
X63211482Y-42971015D01*
X63243834Y-42981849D01*
X63289543Y-42997783D01*
X63289765Y-43217706D01*
X63289988Y-43255909D01*
X63291531Y-43330146D01*
X63294292Y-43392145D01*
X63297977Y-43436308D01*
X63302292Y-43457041D01*
X63317732Y-43468131D01*
X63349241Y-43471556D01*
X63383886Y-43466657D01*
X63387857Y-43216286D01*
X63389278Y-43152663D01*
X63392225Y-43077356D01*
X63396079Y-43018286D01*
X63400542Y-42979718D01*
X63405317Y-42965914D01*
X63423941Y-42970282D01*
G37*
X63423941Y-42970282D02*
X63455774Y-42982758D01*
X63492743Y-42999602D01*
X63492743Y-43486196D01*
X63446812Y-43532127D01*
X63436320Y-43542427D01*
X63407255Y-43565320D01*
X63377943Y-43572735D01*
X63334326Y-43569321D01*
X63316568Y-43567114D01*
X63270767Y-43562445D01*
X63238743Y-43560585D01*
X63229244Y-43560869D01*
X63190274Y-43563948D01*
X63143160Y-43569321D01*
X63128085Y-43571168D01*
X63090110Y-43571893D01*
X63062325Y-43560429D01*
X63030674Y-43532127D01*
X62984743Y-43486196D01*
X62984743Y-43226055D01*
X62985101Y-43149180D01*
X62986216Y-43075886D01*
X62987952Y-43017850D01*
X62990167Y-42979663D01*
X62992721Y-42965914D01*
X62993256Y-42965951D01*
X63011808Y-42972793D01*
X63043153Y-42987868D01*
X63085608Y-43009822D01*
X63089604Y-43238240D01*
X63093600Y-43466657D01*
X63180686Y-43466657D01*
X63184657Y-43216286D01*
X63185916Y-43148227D01*
X63187718Y-43075482D01*
X63189671Y-43017730D01*
X63191612Y-42979648D01*
X63193377Y-42965914D01*
X63193885Y-42965962D01*
X63211482Y-42971015D01*
X63243834Y-42981849D01*
X63289543Y-42997783D01*
X63289765Y-43217706D01*
X63289988Y-43255909D01*
X63291531Y-43330146D01*
X63294292Y-43392145D01*
X63297977Y-43436308D01*
X63302292Y-43457041D01*
X63317732Y-43468131D01*
X63349241Y-43471556D01*
X63383886Y-43466657D01*
X63387857Y-43216286D01*
X63389278Y-43152663D01*
X63392225Y-43077356D01*
X63396079Y-43018286D01*
X63400542Y-42979718D01*
X63405317Y-42965914D01*
X63423941Y-42970282D01*
G36*
X62737495Y-42967220D02*
G01*
X62768599Y-42975121D01*
X62797559Y-42994817D01*
X62834831Y-43031484D01*
X62858801Y-43057378D01*
X62883770Y-43090997D01*
X62895031Y-43122506D01*
X62897657Y-43162485D01*
X62897657Y-43227917D01*
X62853035Y-43204842D01*
X62817673Y-43176724D01*
X62793451Y-43138848D01*
X62789291Y-43128551D01*
X62757594Y-43088637D01*
X62713554Y-43068624D01*
X62665531Y-43070572D01*
X62621886Y-43096543D01*
X62603420Y-43117635D01*
X62592663Y-43144619D01*
X62604178Y-43168634D01*
X62639981Y-43192791D01*
X62702090Y-43220199D01*
X62711515Y-43223985D01*
X62768058Y-43248759D01*
X62816580Y-43273189D01*
X62847451Y-43292486D01*
X62878371Y-43326953D01*
X62898927Y-43381957D01*
X62896744Y-43440983D01*
X62872424Y-43496845D01*
X62826568Y-43542355D01*
X62789438Y-43561727D01*
X62717711Y-43575292D01*
X62677852Y-43573462D01*
X62640953Y-43563568D01*
X62626797Y-43542806D01*
X62632091Y-43508613D01*
X62633631Y-43504092D01*
X62645842Y-43480116D01*
X62666174Y-43471042D01*
X62704908Y-43471649D01*
X62732257Y-43472474D01*
X62764257Y-43465392D01*
X62786182Y-43444219D01*
X62798670Y-43418152D01*
X62800062Y-43390845D01*
X62799998Y-43390685D01*
X62783807Y-43375930D01*
X62749155Y-43354457D01*
X62704321Y-43330458D01*
X62657582Y-43308125D01*
X62617217Y-43291652D01*
X62591504Y-43285229D01*
X62587679Y-43291518D01*
X62582864Y-43321115D01*
X62579566Y-43369447D01*
X62578343Y-43430372D01*
X62578058Y-43472542D01*
X62576718Y-43525653D01*
X62574528Y-43562025D01*
X62571769Y-43575514D01*
X62557344Y-43570981D01*
X62528226Y-43558670D01*
X62491257Y-43541826D01*
X62491257Y-43325721D01*
X62491493Y-43270327D01*
X62493729Y-43186207D01*
X62499423Y-43123800D01*
X62509903Y-43078358D01*
X62526497Y-43045133D01*
X62550531Y-43019378D01*
X62583333Y-42996344D01*
X62625124Y-42977335D01*
X62702287Y-42965914D01*
X62737495Y-42967220D01*
G37*
X62737495Y-42967220D02*
X62768599Y-42975121D01*
X62797559Y-42994817D01*
X62834831Y-43031484D01*
X62858801Y-43057378D01*
X62883770Y-43090997D01*
X62895031Y-43122506D01*
X62897657Y-43162485D01*
X62897657Y-43227917D01*
X62853035Y-43204842D01*
X62817673Y-43176724D01*
X62793451Y-43138848D01*
X62789291Y-43128551D01*
X62757594Y-43088637D01*
X62713554Y-43068624D01*
X62665531Y-43070572D01*
X62621886Y-43096543D01*
X62603420Y-43117635D01*
X62592663Y-43144619D01*
X62604178Y-43168634D01*
X62639981Y-43192791D01*
X62702090Y-43220199D01*
X62711515Y-43223985D01*
X62768058Y-43248759D01*
X62816580Y-43273189D01*
X62847451Y-43292486D01*
X62878371Y-43326953D01*
X62898927Y-43381957D01*
X62896744Y-43440983D01*
X62872424Y-43496845D01*
X62826568Y-43542355D01*
X62789438Y-43561727D01*
X62717711Y-43575292D01*
X62677852Y-43573462D01*
X62640953Y-43563568D01*
X62626797Y-43542806D01*
X62632091Y-43508613D01*
X62633631Y-43504092D01*
X62645842Y-43480116D01*
X62666174Y-43471042D01*
X62704908Y-43471649D01*
X62732257Y-43472474D01*
X62764257Y-43465392D01*
X62786182Y-43444219D01*
X62798670Y-43418152D01*
X62800062Y-43390845D01*
X62799998Y-43390685D01*
X62783807Y-43375930D01*
X62749155Y-43354457D01*
X62704321Y-43330458D01*
X62657582Y-43308125D01*
X62617217Y-43291652D01*
X62591504Y-43285229D01*
X62587679Y-43291518D01*
X62582864Y-43321115D01*
X62579566Y-43369447D01*
X62578343Y-43430372D01*
X62578058Y-43472542D01*
X62576718Y-43525653D01*
X62574528Y-43562025D01*
X62571769Y-43575514D01*
X62557344Y-43570981D01*
X62528226Y-43558670D01*
X62491257Y-43541826D01*
X62491257Y-43325721D01*
X62491493Y-43270327D01*
X62493729Y-43186207D01*
X62499423Y-43123800D01*
X62509903Y-43078358D01*
X62526497Y-43045133D01*
X62550531Y-43019378D01*
X62583333Y-42996344D01*
X62625124Y-42977335D01*
X62702287Y-42965914D01*
X62737495Y-42967220D01*
G36*
X67481252Y-43434000D02*
G01*
X67481651Y-43466339D01*
X67482929Y-43574455D01*
X67483185Y-43657186D01*
X67481634Y-43717426D01*
X67477490Y-43758073D01*
X67469964Y-43782023D01*
X67458271Y-43792171D01*
X67441624Y-43791414D01*
X67419236Y-43782648D01*
X67390321Y-43768769D01*
X67384142Y-43765808D01*
X67358413Y-43751311D01*
X67344976Y-43734065D01*
X67339834Y-43705308D01*
X67338990Y-43656283D01*
X67338952Y-43568257D01*
X67248276Y-43568257D01*
X67192498Y-43565815D01*
X67148640Y-43555908D01*
X67112218Y-43535886D01*
X67109503Y-43533929D01*
X67072546Y-43500869D01*
X67046826Y-43460931D01*
X67030606Y-43408657D01*
X67022148Y-43338588D01*
X67020083Y-43259430D01*
X67164857Y-43259430D01*
X67164882Y-43272697D01*
X67166261Y-43332584D01*
X67170687Y-43371732D01*
X67179461Y-43397153D01*
X67193886Y-43415857D01*
X67194784Y-43416750D01*
X67230237Y-43440952D01*
X67264596Y-43438567D01*
X67303403Y-43409260D01*
X67312895Y-43399244D01*
X67326876Y-43378708D01*
X67334760Y-43351997D01*
X67338245Y-43311499D01*
X67339029Y-43249603D01*
X67338350Y-43212130D01*
X67330983Y-43143980D01*
X67314168Y-43099330D01*
X67286234Y-43074926D01*
X67245509Y-43067514D01*
X67228350Y-43069094D01*
X67198660Y-43084766D01*
X67179031Y-43119691D01*
X67168188Y-43176901D01*
X67164857Y-43259430D01*
X67020083Y-43259430D01*
X67019714Y-43245267D01*
X67020253Y-43177169D01*
X67022707Y-43125587D01*
X67028158Y-43089816D01*
X67037686Y-43063015D01*
X67052371Y-43038338D01*
X67065852Y-43019480D01*
X67114799Y-42968568D01*
X67170256Y-42940918D01*
X67239928Y-42932165D01*
X67319664Y-42940890D01*
X67388595Y-42972185D01*
X67443113Y-43027381D01*
X67447223Y-43033224D01*
X67456808Y-43048753D01*
X67464151Y-43066498D01*
X67469612Y-43090290D01*
X67473550Y-43123958D01*
X67476323Y-43171333D01*
X67478292Y-43236245D01*
X67478528Y-43249603D01*
X67479815Y-43322524D01*
X67481252Y-43434000D01*
G37*
X67481252Y-43434000D02*
X67481651Y-43466339D01*
X67482929Y-43574455D01*
X67483185Y-43657186D01*
X67481634Y-43717426D01*
X67477490Y-43758073D01*
X67469964Y-43782023D01*
X67458271Y-43792171D01*
X67441624Y-43791414D01*
X67419236Y-43782648D01*
X67390321Y-43768769D01*
X67384142Y-43765808D01*
X67358413Y-43751311D01*
X67344976Y-43734065D01*
X67339834Y-43705308D01*
X67338990Y-43656283D01*
X67338952Y-43568257D01*
X67248276Y-43568257D01*
X67192498Y-43565815D01*
X67148640Y-43555908D01*
X67112218Y-43535886D01*
X67109503Y-43533929D01*
X67072546Y-43500869D01*
X67046826Y-43460931D01*
X67030606Y-43408657D01*
X67022148Y-43338588D01*
X67020083Y-43259430D01*
X67164857Y-43259430D01*
X67164882Y-43272697D01*
X67166261Y-43332584D01*
X67170687Y-43371732D01*
X67179461Y-43397153D01*
X67193886Y-43415857D01*
X67194784Y-43416750D01*
X67230237Y-43440952D01*
X67264596Y-43438567D01*
X67303403Y-43409260D01*
X67312895Y-43399244D01*
X67326876Y-43378708D01*
X67334760Y-43351997D01*
X67338245Y-43311499D01*
X67339029Y-43249603D01*
X67338350Y-43212130D01*
X67330983Y-43143980D01*
X67314168Y-43099330D01*
X67286234Y-43074926D01*
X67245509Y-43067514D01*
X67228350Y-43069094D01*
X67198660Y-43084766D01*
X67179031Y-43119691D01*
X67168188Y-43176901D01*
X67164857Y-43259430D01*
X67020083Y-43259430D01*
X67019714Y-43245267D01*
X67020253Y-43177169D01*
X67022707Y-43125587D01*
X67028158Y-43089816D01*
X67037686Y-43063015D01*
X67052371Y-43038338D01*
X67065852Y-43019480D01*
X67114799Y-42968568D01*
X67170256Y-42940918D01*
X67239928Y-42932165D01*
X67319664Y-42940890D01*
X67388595Y-42972185D01*
X67443113Y-43027381D01*
X67447223Y-43033224D01*
X67456808Y-43048753D01*
X67464151Y-43066498D01*
X67469612Y-43090290D01*
X67473550Y-43123958D01*
X67476323Y-43171333D01*
X67478292Y-43236245D01*
X67478528Y-43249603D01*
X67479815Y-43322524D01*
X67481252Y-43434000D01*
G36*
X64859483Y-42981569D02*
G01*
X64909376Y-43010661D01*
X64931325Y-43033327D01*
X64973504Y-43101082D01*
X64987714Y-43174950D01*
X64987714Y-43225770D01*
X64940999Y-43206128D01*
X64908692Y-43186308D01*
X64883231Y-43145160D01*
X64880616Y-43136675D01*
X64852478Y-43093451D01*
X64810067Y-43070103D01*
X64761370Y-43069100D01*
X64714373Y-43092914D01*
X64707357Y-43099056D01*
X64683893Y-43125745D01*
X64680019Y-43149014D01*
X64697768Y-43171862D01*
X64739179Y-43197287D01*
X64806286Y-43228288D01*
X64810824Y-43230252D01*
X64885322Y-43264990D01*
X64936203Y-43295763D01*
X64967525Y-43326488D01*
X64983343Y-43361082D01*
X64987714Y-43403462D01*
X64981986Y-43450446D01*
X64953062Y-43510585D01*
X64902178Y-43553788D01*
X64865374Y-43566759D01*
X64813434Y-43573856D01*
X64762999Y-43572340D01*
X64726983Y-43561632D01*
X64723158Y-43558966D01*
X64712998Y-43540337D01*
X64720048Y-43507505D01*
X64732297Y-43481735D01*
X64751939Y-43471006D01*
X64789191Y-43471539D01*
X64840908Y-43468462D01*
X64874701Y-43447212D01*
X64886114Y-43407877D01*
X64886104Y-43406747D01*
X64879187Y-43383913D01*
X64855659Y-43362963D01*
X64809914Y-43338815D01*
X64747704Y-43309741D01*
X64706499Y-43293925D01*
X64682712Y-43294944D01*
X64671597Y-43315837D01*
X64668408Y-43359641D01*
X64668400Y-43429393D01*
X64668044Y-43472452D01*
X64666413Y-43525626D01*
X64663761Y-43562022D01*
X64660422Y-43575514D01*
X64659530Y-43575423D01*
X64640237Y-43568110D01*
X64608284Y-43552678D01*
X64564124Y-43529842D01*
X64569371Y-43324078D01*
X64569736Y-43310432D01*
X64573904Y-43214651D01*
X64581268Y-43142462D01*
X64593330Y-43089058D01*
X64611593Y-43049633D01*
X64637560Y-43019380D01*
X64672733Y-42993493D01*
X64673384Y-42993087D01*
X64730256Y-42971968D01*
X64796033Y-42968400D01*
X64859483Y-42981569D01*
G37*
X64859483Y-42981569D02*
X64909376Y-43010661D01*
X64931325Y-43033327D01*
X64973504Y-43101082D01*
X64987714Y-43174950D01*
X64987714Y-43225770D01*
X64940999Y-43206128D01*
X64908692Y-43186308D01*
X64883231Y-43145160D01*
X64880616Y-43136675D01*
X64852478Y-43093451D01*
X64810067Y-43070103D01*
X64761370Y-43069100D01*
X64714373Y-43092914D01*
X64707357Y-43099056D01*
X64683893Y-43125745D01*
X64680019Y-43149014D01*
X64697768Y-43171862D01*
X64739179Y-43197287D01*
X64806286Y-43228288D01*
X64810824Y-43230252D01*
X64885322Y-43264990D01*
X64936203Y-43295763D01*
X64967525Y-43326488D01*
X64983343Y-43361082D01*
X64987714Y-43403462D01*
X64981986Y-43450446D01*
X64953062Y-43510585D01*
X64902178Y-43553788D01*
X64865374Y-43566759D01*
X64813434Y-43573856D01*
X64762999Y-43572340D01*
X64726983Y-43561632D01*
X64723158Y-43558966D01*
X64712998Y-43540337D01*
X64720048Y-43507505D01*
X64732297Y-43481735D01*
X64751939Y-43471006D01*
X64789191Y-43471539D01*
X64840908Y-43468462D01*
X64874701Y-43447212D01*
X64886114Y-43407877D01*
X64886104Y-43406747D01*
X64879187Y-43383913D01*
X64855659Y-43362963D01*
X64809914Y-43338815D01*
X64747704Y-43309741D01*
X64706499Y-43293925D01*
X64682712Y-43294944D01*
X64671597Y-43315837D01*
X64668408Y-43359641D01*
X64668400Y-43429393D01*
X64668044Y-43472452D01*
X64666413Y-43525626D01*
X64663761Y-43562022D01*
X64660422Y-43575514D01*
X64659530Y-43575423D01*
X64640237Y-43568110D01*
X64608284Y-43552678D01*
X64564124Y-43529842D01*
X64569371Y-43324078D01*
X64569736Y-43310432D01*
X64573904Y-43214651D01*
X64581268Y-43142462D01*
X64593330Y-43089058D01*
X64611593Y-43049633D01*
X64637560Y-43019380D01*
X64672733Y-42993493D01*
X64673384Y-42993087D01*
X64730256Y-42971968D01*
X64796033Y-42968400D01*
X64859483Y-42981569D01*
G36*
X66927684Y-43325078D02*
G01*
X66925078Y-43348387D01*
X66905660Y-43431352D01*
X66870573Y-43494448D01*
X66817212Y-43542808D01*
X66814196Y-43544804D01*
X66746362Y-43573185D01*
X66675535Y-43575711D01*
X66607289Y-43554097D01*
X66547196Y-43510062D01*
X66500829Y-43445322D01*
X66500050Y-43443761D01*
X66484643Y-43403558D01*
X66473357Y-43357866D01*
X66467370Y-43314972D01*
X66467861Y-43283160D01*
X66476007Y-43270714D01*
X66483244Y-43271471D01*
X66517851Y-43285235D01*
X66557078Y-43310546D01*
X66590448Y-43339845D01*
X66607483Y-43365572D01*
X66625192Y-43400471D01*
X66661485Y-43432212D01*
X66703630Y-43444886D01*
X66719077Y-43441221D01*
X66749569Y-43422774D01*
X66776128Y-43397166D01*
X66787486Y-43373934D01*
X66787482Y-43373848D01*
X66774596Y-43363179D01*
X66740241Y-43343933D01*
X66689593Y-43318813D01*
X66627829Y-43290524D01*
X66627489Y-43290374D01*
X66560388Y-43260498D01*
X66515411Y-43238973D01*
X66488145Y-43222437D01*
X66474178Y-43207531D01*
X66469097Y-43190893D01*
X66468490Y-43169162D01*
X66472712Y-43128013D01*
X66616000Y-43128013D01*
X66630791Y-43140949D01*
X66667644Y-43160333D01*
X66668725Y-43160881D01*
X66712205Y-43181587D01*
X66751102Y-43198105D01*
X66775778Y-43205093D01*
X66785676Y-43195753D01*
X66787486Y-43163748D01*
X66779966Y-43123915D01*
X66753897Y-43087717D01*
X66716154Y-43068950D01*
X66674077Y-43070845D01*
X66635005Y-43096632D01*
X66619647Y-43114451D01*
X66616000Y-43128013D01*
X66472712Y-43128013D01*
X66473833Y-43117086D01*
X66500251Y-43046335D01*
X66544473Y-42990735D01*
X66601697Y-42952239D01*
X66667120Y-42932797D01*
X66735937Y-42934359D01*
X66803347Y-42958878D01*
X66864544Y-43008302D01*
X66898450Y-43057212D01*
X66922806Y-43127027D01*
X66926767Y-43163748D01*
X66932299Y-43215055D01*
X66927684Y-43325078D01*
G37*
X66927684Y-43325078D02*
X66925078Y-43348387D01*
X66905660Y-43431352D01*
X66870573Y-43494448D01*
X66817212Y-43542808D01*
X66814196Y-43544804D01*
X66746362Y-43573185D01*
X66675535Y-43575711D01*
X66607289Y-43554097D01*
X66547196Y-43510062D01*
X66500829Y-43445322D01*
X66500050Y-43443761D01*
X66484643Y-43403558D01*
X66473357Y-43357866D01*
X66467370Y-43314972D01*
X66467861Y-43283160D01*
X66476007Y-43270714D01*
X66483244Y-43271471D01*
X66517851Y-43285235D01*
X66557078Y-43310546D01*
X66590448Y-43339845D01*
X66607483Y-43365572D01*
X66625192Y-43400471D01*
X66661485Y-43432212D01*
X66703630Y-43444886D01*
X66719077Y-43441221D01*
X66749569Y-43422774D01*
X66776128Y-43397166D01*
X66787486Y-43373934D01*
X66787482Y-43373848D01*
X66774596Y-43363179D01*
X66740241Y-43343933D01*
X66689593Y-43318813D01*
X66627829Y-43290524D01*
X66627489Y-43290374D01*
X66560388Y-43260498D01*
X66515411Y-43238973D01*
X66488145Y-43222437D01*
X66474178Y-43207531D01*
X66469097Y-43190893D01*
X66468490Y-43169162D01*
X66472712Y-43128013D01*
X66616000Y-43128013D01*
X66630791Y-43140949D01*
X66667644Y-43160333D01*
X66668725Y-43160881D01*
X66712205Y-43181587D01*
X66751102Y-43198105D01*
X66775778Y-43205093D01*
X66785676Y-43195753D01*
X66787486Y-43163748D01*
X66779966Y-43123915D01*
X66753897Y-43087717D01*
X66716154Y-43068950D01*
X66674077Y-43070845D01*
X66635005Y-43096632D01*
X66619647Y-43114451D01*
X66616000Y-43128013D01*
X66472712Y-43128013D01*
X66473833Y-43117086D01*
X66500251Y-43046335D01*
X66544473Y-42990735D01*
X66601697Y-42952239D01*
X66667120Y-42932797D01*
X66735937Y-42934359D01*
X66803347Y-42958878D01*
X66864544Y-43008302D01*
X66898450Y-43057212D01*
X66922806Y-43127027D01*
X66926767Y-43163748D01*
X66932299Y-43215055D01*
X66927684Y-43325078D01*
%TO.C,kibuzzard-6673E326*%
G36*
X52721691Y-81280000D02*
G01*
X52865624Y-81064100D01*
X53643323Y-81064100D01*
X53653906Y-81161819D01*
X53685656Y-81245428D01*
X53738573Y-81314925D01*
X53809657Y-81366960D01*
X53895912Y-81398181D01*
X53997335Y-81408588D01*
X54233873Y-81408588D01*
X54233873Y-81835625D01*
X54395798Y-81835625D01*
X54625985Y-81835625D01*
X55332423Y-81835625D01*
X55332423Y-80724375D01*
X55162560Y-80724375D01*
X55162560Y-81684812D01*
X54625985Y-81684812D01*
X54625985Y-81835625D01*
X54395798Y-81835625D01*
X54395798Y-80724375D01*
X53987810Y-80724375D01*
X53890091Y-80734782D01*
X53806482Y-80766003D01*
X53736985Y-80818037D01*
X53684951Y-80887006D01*
X53653730Y-80969026D01*
X53643323Y-81064100D01*
X52865624Y-81064100D01*
X53312594Y-80393646D01*
X57311109Y-80393646D01*
X57311109Y-82166354D01*
X53312594Y-82166354D01*
X52721691Y-81280000D01*
G37*
G36*
X54233873Y-81260950D02*
G01*
X54025910Y-81260950D01*
X53936018Y-81247853D01*
X53869541Y-81208562D01*
X53828465Y-81146253D01*
X53814773Y-81064100D01*
X53828465Y-80984527D01*
X53869541Y-80923606D01*
X53933637Y-80884911D01*
X54016385Y-80872013D01*
X54233873Y-80872013D01*
X54233873Y-81260950D01*
G37*
%TO.C,kibuzzard-6673DFE6*%
G36*
X52569291Y-57533646D02*
G01*
X56567806Y-57533646D01*
X57158709Y-58420000D01*
X56567806Y-59306354D01*
X52569291Y-59306354D01*
X52569291Y-58975625D01*
X54568615Y-58975625D01*
X54730540Y-58975625D01*
X54730540Y-58507313D01*
X54743438Y-58418413D01*
X54782134Y-58354912D01*
X54841069Y-58316812D01*
X54914690Y-58304112D01*
X54994065Y-58317606D01*
X55057565Y-58358088D01*
X55099237Y-58425556D01*
X55113127Y-58520013D01*
X55113127Y-58975625D01*
X55275052Y-58975625D01*
X55514765Y-58975625D01*
X56237077Y-58975625D01*
X56237077Y-58827988D01*
X55957677Y-58827988D01*
X55957677Y-58012013D01*
X56229140Y-58012013D01*
X56229140Y-57864375D01*
X55522702Y-57864375D01*
X55522702Y-58012013D01*
X55790990Y-58012013D01*
X55790990Y-58827988D01*
X55514765Y-58827988D01*
X55514765Y-58975625D01*
X55275052Y-58975625D01*
X55275052Y-58181875D01*
X55129002Y-58181875D01*
X55113127Y-58280300D01*
X55102015Y-58280300D01*
X55040102Y-58216800D01*
X54960198Y-58178700D01*
X54862302Y-58166000D01*
X54742248Y-58186637D01*
X54648784Y-58248550D01*
X54588657Y-58347372D01*
X54568615Y-58478737D01*
X54568615Y-58975625D01*
X52569291Y-58975625D01*
X52569291Y-57533646D01*
G37*
%TO.C,kibuzzard-666B0D4B*%
G36*
X54126761Y-68984812D02*
G01*
X54021986Y-68984812D01*
X53926647Y-68973259D01*
X53848066Y-68938599D01*
X53786242Y-68880831D01*
X53741704Y-68800839D01*
X53714981Y-68699503D01*
X53706073Y-68576825D01*
X53714848Y-68454102D01*
X53741174Y-68353693D01*
X53785051Y-68275597D01*
X53846479Y-68219814D01*
X53925457Y-68186344D01*
X54021986Y-68175188D01*
X54126761Y-68175188D01*
X54126761Y-68984812D01*
G37*
G36*
X52563999Y-67677771D02*
G01*
X56562515Y-67677771D01*
X57164001Y-68580000D01*
X56562515Y-69482229D01*
X52563999Y-69482229D01*
X52563999Y-68576825D01*
X53536211Y-68576825D01*
X53543801Y-68699410D01*
X53566572Y-68808402D01*
X53604523Y-68903800D01*
X53657654Y-68985606D01*
X53725371Y-69051239D01*
X53807078Y-69098120D01*
X53902774Y-69126249D01*
X54012461Y-69135625D01*
X54293448Y-69135625D01*
X54515698Y-69135625D01*
X54683973Y-69135625D01*
X55079261Y-68341875D01*
X55090373Y-68341875D01*
X55090373Y-69135625D01*
X55245948Y-69135625D01*
X55455498Y-69135625D01*
X55584086Y-69135625D01*
X55603136Y-69040375D01*
X55614248Y-69040375D01*
X55692829Y-69114988D01*
X55762084Y-69142372D01*
X55850786Y-69151500D01*
X55963234Y-69135537D01*
X56057161Y-69087647D01*
X56132567Y-69007831D01*
X56175975Y-68928407D01*
X56206981Y-68833802D01*
X56225584Y-68724016D01*
X56231786Y-68599050D01*
X56224939Y-68467734D01*
X56204401Y-68351598D01*
X56170171Y-68250643D01*
X56122248Y-68164869D01*
X56039874Y-68077997D01*
X55938804Y-68025874D01*
X55819036Y-68008500D01*
X55725726Y-68018466D01*
X55644763Y-68048364D01*
X55576148Y-68098194D01*
X55521997Y-68165839D01*
X55484426Y-68249183D01*
X55463436Y-68348225D01*
X55638061Y-68348225D01*
X55675808Y-68245037D01*
X55736133Y-68183125D01*
X55819036Y-68162488D01*
X55920636Y-68190467D01*
X55996836Y-68274406D01*
X56032113Y-68360219D01*
X56053280Y-68468434D01*
X56060336Y-68599050D01*
X56050747Y-68744782D01*
X56021982Y-68858130D01*
X55974039Y-68939093D01*
X55906920Y-68987670D01*
X55820623Y-69003863D01*
X55736684Y-68988781D01*
X55672192Y-68943538D01*
X55631115Y-68870116D01*
X55617423Y-68770500D01*
X55617423Y-68681600D01*
X55828561Y-68681600D01*
X55828561Y-68548250D01*
X55455498Y-68548250D01*
X55455498Y-69135625D01*
X55245948Y-69135625D01*
X55245948Y-68024375D01*
X55077673Y-68024375D01*
X54682386Y-68819713D01*
X54671273Y-68819713D01*
X54671273Y-68024375D01*
X54515698Y-68024375D01*
X54515698Y-69135625D01*
X54293448Y-69135625D01*
X54293448Y-68024375D01*
X54012461Y-68024375D01*
X53903419Y-68033652D01*
X53808070Y-68061483D01*
X53726413Y-68107868D01*
X53658448Y-68172806D01*
X53604969Y-68253719D01*
X53566770Y-68348027D01*
X53543850Y-68455729D01*
X53536211Y-68576825D01*
X52563999Y-68576825D01*
X52563999Y-67677771D01*
G37*
%TD*%
%LPC*%
D12*
%TO.C,H2*%
X53340000Y-40640000D03*
%TD*%
D13*
%TO.C,H3*%
X76200000Y-93980000D03*
%TD*%
D12*
%TO.C,H4*%
X76200000Y-40640000D03*
%TD*%
D13*
%TO.C,H1*%
X53340000Y-93980000D03*
%TD*%
D14*
%TO.C,J1*%
X50800000Y-50800000D03*
D15*
X50800000Y-53340000D03*
X50800000Y-55880000D03*
X50800000Y-58420000D03*
X50800000Y-60960000D03*
X50800000Y-63500000D03*
X50800000Y-66040000D03*
X50800000Y-68580000D03*
X50800000Y-71120000D03*
X50800000Y-73660000D03*
X50800000Y-76200000D03*
X50800000Y-78740000D03*
X50800000Y-81280000D03*
X50800000Y-83820000D03*
%TD*%
D14*
%TO.C,J2*%
X78740000Y-50800000D03*
D15*
X78740000Y-53340000D03*
X78740000Y-55880000D03*
X78740000Y-58420000D03*
X78740000Y-60960000D03*
X78740000Y-63500000D03*
X78740000Y-66040000D03*
X78740000Y-68580000D03*
X78740000Y-71120000D03*
X78740000Y-73660000D03*
X78740000Y-76200000D03*
X78740000Y-78740000D03*
X78740000Y-81280000D03*
X78740000Y-83820000D03*
%TD*%
M02*
