%TF.GenerationSoftware,KiCad,Pcbnew,(6.0.9-0)*%
%TF.CreationDate,2024-03-23T11:21:51+01:00*%
%TF.ProjectId,lfo-board,6c666f2d-626f-4617-9264-2e6b69636164,rev?*%
%TF.SameCoordinates,Original*%
%TF.FileFunction,Soldermask,Top*%
%TF.FilePolarity,Negative*%
%FSLAX46Y46*%
G04 Gerber Fmt 4.6, Leading zero omitted, Abs format (unit mm)*
G04 Created by KiCad (PCBNEW (6.0.9-0)) date 2024-03-23 11:21:51*
%MOMM*%
%LPD*%
G01*
G04 APERTURE LIST*
G04 Aperture macros list*
%AMRoundRect*
0 Rectangle with rounded corners*
0 $1 Rounding radius*
0 $2 $3 $4 $5 $6 $7 $8 $9 X,Y pos of 4 corners*
0 Add a 4 corners polygon primitive as box body*
4,1,4,$2,$3,$4,$5,$6,$7,$8,$9,$2,$3,0*
0 Add four circle primitives for the rounded corners*
1,1,$1+$1,$2,$3*
1,1,$1+$1,$4,$5*
1,1,$1+$1,$6,$7*
1,1,$1+$1,$8,$9*
0 Add four rect primitives between the rounded corners*
20,1,$1+$1,$2,$3,$4,$5,0*
20,1,$1+$1,$4,$5,$6,$7,0*
20,1,$1+$1,$6,$7,$8,$9,0*
20,1,$1+$1,$8,$9,$2,$3,0*%
%AMFreePoly0*
4,1,9,3.862500,-0.866500,0.737500,-0.866500,0.737500,-0.450000,-0.737500,-0.450000,-0.737500,0.450000,0.737500,0.450000,0.737500,0.866500,3.862500,0.866500,3.862500,-0.866500,3.862500,-0.866500,$1*%
G04 Aperture macros list end*
%ADD10RoundRect,0.237500X-0.300000X-0.237500X0.300000X-0.237500X0.300000X0.237500X-0.300000X0.237500X0*%
%ADD11C,5.500000*%
%ADD12RoundRect,0.237500X0.250000X0.237500X-0.250000X0.237500X-0.250000X-0.237500X0.250000X-0.237500X0*%
%ADD13RoundRect,0.237500X0.237500X-0.250000X0.237500X0.250000X-0.237500X0.250000X-0.237500X-0.250000X0*%
%ADD14R,0.900000X1.300000*%
%ADD15FreePoly0,270.000000*%
%ADD16C,3.200000*%
%ADD17RoundRect,0.237500X0.300000X0.237500X-0.300000X0.237500X-0.300000X-0.237500X0.300000X-0.237500X0*%
%ADD18RoundRect,0.150000X0.587500X0.150000X-0.587500X0.150000X-0.587500X-0.150000X0.587500X-0.150000X0*%
%ADD19RoundRect,0.200000X-0.200000X-0.800000X0.200000X-0.800000X0.200000X0.800000X-0.200000X0.800000X0*%
%ADD20RoundRect,0.150000X-0.825000X-0.150000X0.825000X-0.150000X0.825000X0.150000X-0.825000X0.150000X0*%
%ADD21RoundRect,0.237500X-0.250000X-0.237500X0.250000X-0.237500X0.250000X0.237500X-0.250000X0.237500X0*%
%ADD22R,1.800000X1.800000*%
%ADD23C,1.800000*%
%ADD24RoundRect,0.250000X0.425000X-0.537500X0.425000X0.537500X-0.425000X0.537500X-0.425000X-0.537500X0*%
%ADD25RoundRect,0.237500X0.237500X-0.300000X0.237500X0.300000X-0.237500X0.300000X-0.237500X-0.300000X0*%
%ADD26RoundRect,0.250000X-0.425000X0.537500X-0.425000X-0.537500X0.425000X-0.537500X0.425000X0.537500X0*%
%ADD27RoundRect,0.237500X-0.237500X0.250000X-0.237500X-0.250000X0.237500X-0.250000X0.237500X0.250000X0*%
%ADD28R,1.700000X1.700000*%
%ADD29O,1.700000X1.700000*%
%ADD30R,3.500000X1.800000*%
%ADD31RoundRect,0.150000X0.150000X-0.825000X0.150000X0.825000X-0.150000X0.825000X-0.150000X-0.825000X0*%
G04 APERTURE END LIST*
D10*
%TO.C,C7*%
X42672000Y-93599000D03*
X44397000Y-93599000D03*
%TD*%
D11*
%TO.C,H1*%
X30480000Y-99060000D03*
%TD*%
D12*
%TO.C,R12*%
X36472500Y-84074000D03*
X34647500Y-84074000D03*
%TD*%
D13*
%TO.C,R34*%
X46355000Y-51712500D03*
X46355000Y-49887500D03*
%TD*%
D14*
%TO.C,U5*%
X34012000Y-69470000D03*
D15*
X32512000Y-69557500D03*
D14*
X31012000Y-69470000D03*
%TD*%
D16*
%TO.C,H2*%
X30480000Y-53376102D03*
%TD*%
D12*
%TO.C,R26*%
X48664500Y-89662000D03*
X46839500Y-89662000D03*
%TD*%
%TO.C,R23*%
X52728500Y-81280000D03*
X50903500Y-81280000D03*
%TD*%
D17*
%TO.C,C14*%
X47917500Y-63246000D03*
X46192500Y-63246000D03*
%TD*%
D18*
%TO.C,Q1*%
X39037500Y-77658000D03*
X39037500Y-75758000D03*
X37162500Y-76708000D03*
%TD*%
D19*
%TO.C,SW1*%
X30666000Y-76708000D03*
X34866000Y-76708000D03*
%TD*%
D20*
%TO.C,U4*%
X46547000Y-66294000D03*
X46547000Y-67564000D03*
X46547000Y-68834000D03*
X46547000Y-70104000D03*
X51497000Y-70104000D03*
X51497000Y-68834000D03*
X51497000Y-67564000D03*
X51497000Y-66294000D03*
%TD*%
D12*
%TO.C,R25*%
X52728500Y-84074000D03*
X50903500Y-84074000D03*
%TD*%
D21*
%TO.C,R10*%
X30837500Y-89662000D03*
X32662500Y-89662000D03*
%TD*%
D17*
%TO.C,C3*%
X36422500Y-81280000D03*
X34697500Y-81280000D03*
%TD*%
D21*
%TO.C,R29*%
X50903500Y-86868000D03*
X52728500Y-86868000D03*
%TD*%
D22*
%TO.C,D2*%
X43185000Y-50800000D03*
D23*
X40645000Y-50800000D03*
%TD*%
D24*
%TO.C,C13*%
X34544000Y-65699500D03*
X34544000Y-62824500D03*
%TD*%
D25*
%TO.C,C19*%
X35814000Y-55599500D03*
X35814000Y-53874500D03*
%TD*%
D11*
%TO.C,H3*%
X53340000Y-99060000D03*
%TD*%
D25*
%TO.C,C17*%
X33020000Y-59536500D03*
X33020000Y-57811500D03*
%TD*%
D21*
%TO.C,R2*%
X34647500Y-92456000D03*
X36472500Y-92456000D03*
%TD*%
D13*
%TO.C,R32*%
X43434000Y-64412500D03*
X43434000Y-62587500D03*
%TD*%
D21*
%TO.C,R1*%
X30837500Y-84074000D03*
X32662500Y-84074000D03*
%TD*%
D17*
%TO.C,C11*%
X36422500Y-86868000D03*
X34697500Y-86868000D03*
%TD*%
D20*
%TO.C,U1*%
X39181000Y-83058000D03*
X39181000Y-84328000D03*
X39181000Y-85598000D03*
X39181000Y-86868000D03*
X39181000Y-88138000D03*
X39181000Y-89408000D03*
X39181000Y-90678000D03*
X44131000Y-90678000D03*
X44131000Y-89408000D03*
X44131000Y-88138000D03*
X44131000Y-86868000D03*
X44131000Y-85598000D03*
X44131000Y-84328000D03*
X44131000Y-83058000D03*
%TD*%
D13*
%TO.C,R31*%
X51308000Y-59586500D03*
X51308000Y-57761500D03*
%TD*%
D26*
%TO.C,C16*%
X40894000Y-69682500D03*
X40894000Y-72557500D03*
%TD*%
D13*
%TO.C,R33*%
X35814000Y-59586500D03*
X35814000Y-57761500D03*
%TD*%
D21*
%TO.C,R14*%
X50395500Y-63246000D03*
X52220500Y-63246000D03*
%TD*%
D12*
%TO.C,R20*%
X52728500Y-92456000D03*
X50903500Y-92456000D03*
%TD*%
D27*
%TO.C,R35*%
X49149000Y-49887500D03*
X49149000Y-51712500D03*
%TD*%
D28*
%TO.C,J2*%
X27940000Y-58420000D03*
D29*
X27940000Y-60960000D03*
X27940000Y-63500000D03*
X27940000Y-66040000D03*
X27940000Y-68580000D03*
X27940000Y-71120000D03*
X27940000Y-73660000D03*
X27940000Y-76200000D03*
X27940000Y-78740000D03*
X27940000Y-81280000D03*
X27940000Y-83820000D03*
X27940000Y-86360000D03*
X27940000Y-88900000D03*
X27940000Y-91440000D03*
X27940000Y-93980000D03*
%TD*%
D12*
%TO.C,R3*%
X48664500Y-92456000D03*
X46839500Y-92456000D03*
%TD*%
%TO.C,R4*%
X48664500Y-81280000D03*
X46839500Y-81280000D03*
%TD*%
D27*
%TO.C,R5*%
X42164000Y-75795500D03*
X42164000Y-77620500D03*
%TD*%
D12*
%TO.C,R22*%
X52728500Y-89662000D03*
X50903500Y-89662000D03*
%TD*%
D21*
%TO.C,R8*%
X30837500Y-86868000D03*
X32662500Y-86868000D03*
%TD*%
%TO.C,R9*%
X30837500Y-92456000D03*
X32662500Y-92456000D03*
%TD*%
D27*
%TO.C,R30*%
X48260000Y-57761500D03*
X48260000Y-59586500D03*
%TD*%
D12*
%TO.C,R27*%
X48664500Y-84074000D03*
X46839500Y-84074000D03*
%TD*%
D17*
%TO.C,C8*%
X48614500Y-86868000D03*
X46889500Y-86868000D03*
%TD*%
D16*
%TO.C,H4*%
X53340000Y-53376102D03*
%TD*%
D13*
%TO.C,R37*%
X40640000Y-64412500D03*
X40640000Y-62587500D03*
%TD*%
D30*
%TO.C,D1*%
X45760000Y-77216000D03*
X50760000Y-77216000D03*
%TD*%
D12*
%TO.C,R28*%
X52093500Y-73152000D03*
X50268500Y-73152000D03*
%TD*%
D17*
%TO.C,C4*%
X40486500Y-93599000D03*
X38761500Y-93599000D03*
%TD*%
D24*
%TO.C,C12*%
X30988000Y-65699500D03*
X30988000Y-62824500D03*
%TD*%
D27*
%TO.C,R38*%
X45466000Y-53824500D03*
X45466000Y-55649500D03*
%TD*%
D31*
%TO.C,U6*%
X38735000Y-59371000D03*
X40005000Y-59371000D03*
X41275000Y-59371000D03*
X42545000Y-59371000D03*
X42545000Y-54421000D03*
X41275000Y-54421000D03*
X40005000Y-54421000D03*
X38735000Y-54421000D03*
%TD*%
D12*
%TO.C,R15*%
X47902500Y-73152000D03*
X46077500Y-73152000D03*
%TD*%
D25*
%TO.C,C18*%
X45466000Y-59536500D03*
X45466000Y-57811500D03*
%TD*%
D21*
%TO.C,R13*%
X34647500Y-89662000D03*
X36472500Y-89662000D03*
%TD*%
%TO.C,R6*%
X30837500Y-81280000D03*
X32662500Y-81280000D03*
%TD*%
D26*
%TO.C,C15*%
X37592000Y-69682500D03*
X37592000Y-72557500D03*
%TD*%
D28*
%TO.C,J1*%
X55880000Y-58420000D03*
D29*
X55880000Y-60960000D03*
X55880000Y-63500000D03*
X55880000Y-66040000D03*
X55880000Y-68580000D03*
X55880000Y-71120000D03*
X55880000Y-73660000D03*
X55880000Y-76200000D03*
X55880000Y-78740000D03*
X55880000Y-81280000D03*
X55880000Y-83820000D03*
X55880000Y-86360000D03*
X55880000Y-88900000D03*
X55880000Y-91440000D03*
X55880000Y-93980000D03*
%TD*%
D13*
%TO.C,R36*%
X37846000Y-64412500D03*
X37846000Y-62587500D03*
%TD*%
M02*
