M48
; DRILL file {KiCad (6.0.9-0)} date 2024 March 23, Saturday 11:21:51
; FORMAT={-:-/ absolute / inch / decimal}
; #@! TF.CreationDate,2024-03-23T11:21:51+01:00
; #@! TF.GenerationSoftware,Kicad,Pcbnew,(6.0.9-0)
; #@! TF.FileFunction,Plated,1,4,PTH
FMAT,2
INCH
; #@! TA.AperFunction,Plated,PTH,ViaDrill
T1C0.0118
; #@! TA.AperFunction,Plated,PTH,ViaDrill
T2C0.0157
; #@! TA.AperFunction,Plated,PTH,ComponentDrill
T3C0.0354
; #@! TA.AperFunction,Plated,PTH,ComponentDrill
T4C0.0394
; #@! TA.AperFunction,Plated,PTH,ComponentDrill
T5C0.1260
%
G90
G05
T1
X1.235Y-3.04
X1.2616Y-2.4734
X1.28Y-2.685
X1.3166Y-2.4734
X1.365Y-3.1
X1.365Y-3.15
X1.3912Y-3.42
X1.445Y-2.19
X1.465Y-3.455
X1.48Y-3.35
X1.51Y-3.455
X1.515Y-2.855
X1.5152Y-3.3535
X1.54Y-2.96
X1.575Y-2.855
X1.63Y-2.535
X1.685Y-2.735
X1.685Y-3.3846
X1.685Y-3.42
X1.685Y-3.4554
X1.69Y-2.98
X1.7Y-2.335
X1.72Y-2.96
X1.79Y-2.24
X1.885Y-2.46
X1.96Y-2.73
X2.0Y-2.965
X2.025Y-2.5685
T2
X1.975Y-1.965
T3
X1.6002Y-2.0
X1.7002Y-2.0
T4
X1.1Y-2.3
X1.1Y-2.4
X1.1Y-2.5
X1.1Y-2.6
X1.1Y-2.7
X1.1Y-2.8
X1.1Y-2.9
X1.1Y-3.0
X1.1Y-3.1
X1.1Y-3.2
X1.1Y-3.3
X1.1Y-3.4
X1.1Y-3.5
X1.1Y-3.6
X1.1Y-3.7
X2.2Y-2.3
X2.2Y-2.4
X2.2Y-2.5
X2.2Y-2.6
X2.2Y-2.7
X2.2Y-2.8
X2.2Y-2.9
X2.2Y-3.0
X2.2Y-3.1
X2.2Y-3.2
X2.2Y-3.3
X2.2Y-3.4
X2.2Y-3.5
X2.2Y-3.6
X2.2Y-3.7
T5
X1.2Y-3.9
X2.1Y-3.9
T0
M30
