%TF.GenerationSoftware,KiCad,Pcbnew,(6.0.9-0)*%
%TF.CreationDate,2024-03-23T11:21:51+01:00*%
%TF.ProjectId,lfo-board,6c666f2d-626f-4617-9264-2e6b69636164,rev?*%
%TF.SameCoordinates,Original*%
%TF.FileFunction,Copper,L1,Top*%
%TF.FilePolarity,Positive*%
%FSLAX46Y46*%
G04 Gerber Fmt 4.6, Leading zero omitted, Abs format (unit mm)*
G04 Created by KiCad (PCBNEW (6.0.9-0)) date 2024-03-23 11:21:51*
%MOMM*%
%LPD*%
G01*
G04 APERTURE LIST*
G04 Aperture macros list*
%AMRoundRect*
0 Rectangle with rounded corners*
0 $1 Rounding radius*
0 $2 $3 $4 $5 $6 $7 $8 $9 X,Y pos of 4 corners*
0 Add a 4 corners polygon primitive as box body*
4,1,4,$2,$3,$4,$5,$6,$7,$8,$9,$2,$3,0*
0 Add four circle primitives for the rounded corners*
1,1,$1+$1,$2,$3*
1,1,$1+$1,$4,$5*
1,1,$1+$1,$6,$7*
1,1,$1+$1,$8,$9*
0 Add four rect primitives between the rounded corners*
20,1,$1+$1,$2,$3,$4,$5,0*
20,1,$1+$1,$4,$5,$6,$7,0*
20,1,$1+$1,$6,$7,$8,$9,0*
20,1,$1+$1,$8,$9,$2,$3,0*%
%AMFreePoly0*
4,1,9,3.862500,-0.866500,0.737500,-0.866500,0.737500,-0.450000,-0.737500,-0.450000,-0.737500,0.450000,0.737500,0.450000,0.737500,0.866500,3.862500,0.866500,3.862500,-0.866500,3.862500,-0.866500,$1*%
G04 Aperture macros list end*
%TA.AperFunction,SMDPad,CuDef*%
%ADD10RoundRect,0.237500X-0.300000X-0.237500X0.300000X-0.237500X0.300000X0.237500X-0.300000X0.237500X0*%
%TD*%
%TA.AperFunction,ComponentPad*%
%ADD11C,5.500000*%
%TD*%
%TA.AperFunction,SMDPad,CuDef*%
%ADD12RoundRect,0.237500X0.250000X0.237500X-0.250000X0.237500X-0.250000X-0.237500X0.250000X-0.237500X0*%
%TD*%
%TA.AperFunction,SMDPad,CuDef*%
%ADD13RoundRect,0.237500X0.237500X-0.250000X0.237500X0.250000X-0.237500X0.250000X-0.237500X-0.250000X0*%
%TD*%
%TA.AperFunction,SMDPad,CuDef*%
%ADD14R,0.900000X1.300000*%
%TD*%
%TA.AperFunction,SMDPad,CuDef*%
%ADD15FreePoly0,270.000000*%
%TD*%
%TA.AperFunction,SMDPad,CuDef*%
%ADD16RoundRect,0.237500X0.300000X0.237500X-0.300000X0.237500X-0.300000X-0.237500X0.300000X-0.237500X0*%
%TD*%
%TA.AperFunction,SMDPad,CuDef*%
%ADD17RoundRect,0.150000X0.587500X0.150000X-0.587500X0.150000X-0.587500X-0.150000X0.587500X-0.150000X0*%
%TD*%
%TA.AperFunction,SMDPad,CuDef*%
%ADD18RoundRect,0.200000X-0.200000X-0.800000X0.200000X-0.800000X0.200000X0.800000X-0.200000X0.800000X0*%
%TD*%
%TA.AperFunction,SMDPad,CuDef*%
%ADD19RoundRect,0.150000X-0.825000X-0.150000X0.825000X-0.150000X0.825000X0.150000X-0.825000X0.150000X0*%
%TD*%
%TA.AperFunction,SMDPad,CuDef*%
%ADD20RoundRect,0.237500X-0.250000X-0.237500X0.250000X-0.237500X0.250000X0.237500X-0.250000X0.237500X0*%
%TD*%
%TA.AperFunction,ComponentPad*%
%ADD21R,1.800000X1.800000*%
%TD*%
%TA.AperFunction,ComponentPad*%
%ADD22C,1.800000*%
%TD*%
%TA.AperFunction,SMDPad,CuDef*%
%ADD23RoundRect,0.250000X0.425000X-0.537500X0.425000X0.537500X-0.425000X0.537500X-0.425000X-0.537500X0*%
%TD*%
%TA.AperFunction,SMDPad,CuDef*%
%ADD24RoundRect,0.237500X0.237500X-0.300000X0.237500X0.300000X-0.237500X0.300000X-0.237500X-0.300000X0*%
%TD*%
%TA.AperFunction,SMDPad,CuDef*%
%ADD25RoundRect,0.250000X-0.425000X0.537500X-0.425000X-0.537500X0.425000X-0.537500X0.425000X0.537500X0*%
%TD*%
%TA.AperFunction,SMDPad,CuDef*%
%ADD26RoundRect,0.237500X-0.237500X0.250000X-0.237500X-0.250000X0.237500X-0.250000X0.237500X0.250000X0*%
%TD*%
%TA.AperFunction,ComponentPad*%
%ADD27R,1.700000X1.700000*%
%TD*%
%TA.AperFunction,ComponentPad*%
%ADD28O,1.700000X1.700000*%
%TD*%
%TA.AperFunction,SMDPad,CuDef*%
%ADD29R,3.500000X1.800000*%
%TD*%
%TA.AperFunction,SMDPad,CuDef*%
%ADD30RoundRect,0.150000X0.150000X-0.825000X0.150000X0.825000X-0.150000X0.825000X-0.150000X-0.825000X0*%
%TD*%
%TA.AperFunction,ViaPad*%
%ADD31C,0.700000*%
%TD*%
%TA.AperFunction,ViaPad*%
%ADD32C,0.800000*%
%TD*%
%TA.AperFunction,Conductor*%
%ADD33C,0.500000*%
%TD*%
%TA.AperFunction,Conductor*%
%ADD34C,0.300000*%
%TD*%
%TA.AperFunction,Conductor*%
%ADD35C,0.800000*%
%TD*%
G04 APERTURE END LIST*
D10*
%TO.P,C7,1*%
%TO.N,Net-(C7-Pad1)*%
X42672000Y-93599000D03*
%TO.P,C7,2*%
%TO.N,Net-(C7-Pad2)*%
X44397000Y-93599000D03*
%TD*%
D11*
%TO.P,H1,1,1*%
%TO.N,/GND*%
X30480000Y-99060000D03*
%TD*%
D12*
%TO.P,R12,1*%
%TO.N,Net-(C3-Pad1)*%
X36472500Y-84074000D03*
%TO.P,R12,2*%
%TO.N,Net-(C3-Pad2)*%
X34647500Y-84074000D03*
%TD*%
D13*
%TO.P,R34,1*%
%TO.N,Net-(D2-Pad1)*%
X46355000Y-51712500D03*
%TO.P,R34,2*%
%TO.N,/+4.5V*%
X46355000Y-49887500D03*
%TD*%
D14*
%TO.P,U5,1,OUT*%
%TO.N,/+5V*%
X34012000Y-69470000D03*
D15*
%TO.P,U5,2,GND*%
%TO.N,/GND*%
X32512000Y-69557500D03*
D14*
%TO.P,U5,3,IN*%
%TO.N,/+9V*%
X31012000Y-69470000D03*
%TD*%
D12*
%TO.P,R26,1*%
%TO.N,Net-(C7-Pad1)*%
X48664500Y-89662000D03*
%TO.P,R26,2*%
%TO.N,Net-(C7-Pad2)*%
X46839500Y-89662000D03*
%TD*%
%TO.P,R23,1*%
%TO.N,/+9V*%
X52728500Y-81280000D03*
%TO.P,R23,2*%
%TO.N,Net-(R23-Pad2)*%
X50903500Y-81280000D03*
%TD*%
D16*
%TO.P,C14,1*%
%TO.N,/GND*%
X47917500Y-63246000D03*
%TO.P,C14,2*%
%TO.N,/+5V*%
X46192500Y-63246000D03*
%TD*%
D17*
%TO.P,Q1,1,B*%
%TO.N,Net-(D1-Pad1)*%
X39037500Y-77658000D03*
%TO.P,Q1,2,E*%
%TO.N,/GND*%
X39037500Y-75758000D03*
%TO.P,Q1,3,C*%
%TO.N,/Tap*%
X37162500Y-76708000D03*
%TD*%
D18*
%TO.P,SW1,1,1*%
%TO.N,/GND*%
X30666000Y-76708000D03*
%TO.P,SW1,2,2*%
%TO.N,/Tap*%
X34866000Y-76708000D03*
%TD*%
D19*
%TO.P,U4,1,+5V*%
%TO.N,/+5V*%
X46547000Y-66294000D03*
%TO.P,U4,2,Offset_CV*%
%TO.N,/LFO/OffsetCV*%
X46547000Y-67564000D03*
%TO.P,U4,3,PDM_Out*%
%TO.N,Net-(R31-Pad1)*%
X46547000Y-68834000D03*
%TO.P,U4,4,Tap_Tempo*%
%TO.N,/Tap*%
X46547000Y-70104000D03*
%TO.P,U4,5,Depth_CV*%
%TO.N,/LFO/DepthCV*%
X51497000Y-70104000D03*
%TO.P,U4,6,Waveform_CV*%
%TO.N,/LFO/WaveformCV*%
X51497000Y-68834000D03*
%TO.P,U4,7,Freq_CV*%
%TO.N,/LFO/FreqCV*%
X51497000Y-67564000D03*
%TO.P,U4,8,GND*%
%TO.N,/GND*%
X51497000Y-66294000D03*
%TD*%
D12*
%TO.P,R25,1*%
%TO.N,/Vform*%
X52728500Y-84074000D03*
%TO.P,R25,2*%
%TO.N,Net-(C8-Pad1)*%
X50903500Y-84074000D03*
%TD*%
D20*
%TO.P,R10,1*%
%TO.N,/Vof*%
X30837500Y-89662000D03*
%TO.P,R10,2*%
%TO.N,Net-(C4-Pad1)*%
X32662500Y-89662000D03*
%TD*%
D16*
%TO.P,C3,1*%
%TO.N,Net-(C3-Pad1)*%
X36422500Y-81280000D03*
%TO.P,C3,2*%
%TO.N,Net-(C3-Pad2)*%
X34697500Y-81280000D03*
%TD*%
D20*
%TO.P,R29,1*%
%TO.N,Net-(C8-Pad2)*%
X50903500Y-86868000D03*
%TO.P,R29,2*%
%TO.N,/LFO/WaveformCV*%
X52728500Y-86868000D03*
%TD*%
D21*
%TO.P,D2,1,KA*%
%TO.N,Net-(D2-Pad1)*%
X43185000Y-50800000D03*
D22*
%TO.P,D2,2,AK*%
%TO.N,Net-(D2-Pad2)*%
X40645000Y-50800000D03*
%TD*%
D23*
%TO.P,C13,1*%
%TO.N,/+9V*%
X34544000Y-65699500D03*
%TO.P,C13,2*%
%TO.N,/GND*%
X34544000Y-62824500D03*
%TD*%
D24*
%TO.P,C19,1*%
%TO.N,/GND*%
X35814000Y-55599500D03*
%TO.P,C19,2*%
%TO.N,/+9V*%
X35814000Y-53874500D03*
%TD*%
D11*
%TO.P,H3,1,1*%
%TO.N,/GND*%
X53340000Y-99060000D03*
%TD*%
D24*
%TO.P,C17,1*%
%TO.N,Net-(C17-Pad1)*%
X33020000Y-59536500D03*
%TO.P,C17,2*%
%TO.N,/LFO/LFOFiltered*%
X33020000Y-57811500D03*
%TD*%
D20*
%TO.P,R2,1*%
%TO.N,Net-(R2-Pad1)*%
X34647500Y-92456000D03*
%TO.P,R2,2*%
%TO.N,Net-(C4-Pad1)*%
X36472500Y-92456000D03*
%TD*%
D13*
%TO.P,R32,1*%
%TO.N,Net-(C17-Pad1)*%
X43434000Y-64412500D03*
%TO.P,R32,2*%
%TO.N,Net-(C18-Pad1)*%
X43434000Y-62587500D03*
%TD*%
D20*
%TO.P,R1,1*%
%TO.N,Net-(R1-Pad1)*%
X30837500Y-84074000D03*
%TO.P,R1,2*%
%TO.N,Net-(C3-Pad1)*%
X32662500Y-84074000D03*
%TD*%
D16*
%TO.P,C11,1*%
%TO.N,/+5V*%
X36422500Y-86868000D03*
%TO.P,C11,2*%
%TO.N,/GND*%
X34697500Y-86868000D03*
%TD*%
D19*
%TO.P,U1,1*%
%TO.N,Net-(C3-Pad2)*%
X39181000Y-83058000D03*
%TO.P,U1,2,-*%
%TO.N,Net-(C3-Pad1)*%
X39181000Y-84328000D03*
%TO.P,U1,3,+*%
%TO.N,/+4.5V*%
X39181000Y-85598000D03*
%TO.P,U1,4,V+*%
%TO.N,/+5V*%
X39181000Y-86868000D03*
%TO.P,U1,5,+*%
%TO.N,/+4.5V*%
X39181000Y-88138000D03*
%TO.P,U1,6,-*%
%TO.N,Net-(C4-Pad1)*%
X39181000Y-89408000D03*
%TO.P,U1,7*%
%TO.N,Net-(C4-Pad2)*%
X39181000Y-90678000D03*
%TO.P,U1,8*%
%TO.N,Net-(C7-Pad2)*%
X44131000Y-90678000D03*
%TO.P,U1,9,-*%
%TO.N,Net-(C7-Pad1)*%
X44131000Y-89408000D03*
%TO.P,U1,10,+*%
%TO.N,/+4.5V*%
X44131000Y-88138000D03*
%TO.P,U1,11,V-*%
%TO.N,/GND*%
X44131000Y-86868000D03*
%TO.P,U1,12,+*%
%TO.N,/+4.5V*%
X44131000Y-85598000D03*
%TO.P,U1,13,-*%
%TO.N,Net-(C8-Pad1)*%
X44131000Y-84328000D03*
%TO.P,U1,14*%
%TO.N,Net-(C8-Pad2)*%
X44131000Y-83058000D03*
%TD*%
D13*
%TO.P,R31,1*%
%TO.N,Net-(R31-Pad1)*%
X51308000Y-59586500D03*
%TO.P,R31,2*%
%TO.N,Net-(C17-Pad1)*%
X51308000Y-57761500D03*
%TD*%
D25*
%TO.P,C16,1*%
%TO.N,/+5V*%
X40894000Y-69682500D03*
%TO.P,C16,2*%
%TO.N,/GND*%
X40894000Y-72557500D03*
%TD*%
D13*
%TO.P,R33,1*%
%TO.N,/LFO/LFOFiltered*%
X35814000Y-59586500D03*
%TO.P,R33,2*%
%TO.N,Net-(R33-Pad2)*%
X35814000Y-57761500D03*
%TD*%
D20*
%TO.P,R14,1*%
%TO.N,Net-(C3-Pad2)*%
X50395500Y-63246000D03*
%TO.P,R14,2*%
%TO.N,/LFO/FreqCV*%
X52220500Y-63246000D03*
%TD*%
D12*
%TO.P,R20,1*%
%TO.N,/+9V*%
X52728500Y-92456000D03*
%TO.P,R20,2*%
%TO.N,Net-(R20-Pad2)*%
X50903500Y-92456000D03*
%TD*%
D26*
%TO.P,R35,1*%
%TO.N,/+4.5V*%
X49149000Y-49887500D03*
%TO.P,R35,2*%
%TO.N,Net-(R33-Pad2)*%
X49149000Y-51712500D03*
%TD*%
D27*
%TO.P,J2,1,Pin_1*%
%TO.N,/+9V*%
X27940000Y-58420000D03*
D28*
%TO.P,J2,2,Pin_2*%
%TO.N,/GND*%
X27940000Y-60960000D03*
%TO.P,J2,3,Pin_3*%
%TO.N,/+4.5V*%
X27940000Y-63500000D03*
%TO.P,J2,4,Pin_4*%
%TO.N,/+5V*%
X27940000Y-66040000D03*
%TO.P,J2,5,Pin_5*%
%TO.N,/GND*%
X27940000Y-68580000D03*
%TO.P,J2,6,Pin_6*%
%TO.N,/Out*%
X27940000Y-71120000D03*
%TO.P,J2,7,Pin_7*%
%TO.N,/GND*%
X27940000Y-73660000D03*
%TO.P,J2,8,Pin_8*%
%TO.N,/Sync*%
X27940000Y-76200000D03*
%TO.P,J2,9,Pin_9*%
%TO.N,/Tap*%
X27940000Y-78740000D03*
%TO.P,J2,10,Pin_10*%
%TO.N,/Vfreq*%
X27940000Y-81280000D03*
%TO.P,J2,11,Pin_11*%
%TO.N,/Vof*%
X27940000Y-83820000D03*
%TO.P,J2,12,Pin_12*%
%TO.N,/GND*%
X27940000Y-86360000D03*
%TO.P,J2,13,Pin_13*%
%TO.N,/Vform*%
X27940000Y-88900000D03*
%TO.P,J2,14,Pin_14*%
%TO.N,/Vdepth*%
X27940000Y-91440000D03*
%TO.P,J2,15,Pin_15*%
%TO.N,/GND*%
X27940000Y-93980000D03*
%TD*%
D12*
%TO.P,R3,1*%
%TO.N,Net-(R20-Pad2)*%
X48664500Y-92456000D03*
%TO.P,R3,2*%
%TO.N,Net-(C7-Pad1)*%
X46839500Y-92456000D03*
%TD*%
%TO.P,R4,1*%
%TO.N,Net-(R23-Pad2)*%
X48664500Y-81280000D03*
%TO.P,R4,2*%
%TO.N,Net-(C8-Pad1)*%
X46839500Y-81280000D03*
%TD*%
D26*
%TO.P,R5,1*%
%TO.N,/Sync*%
X42164000Y-75795500D03*
%TO.P,R5,2*%
%TO.N,Net-(D1-Pad1)*%
X42164000Y-77620500D03*
%TD*%
D12*
%TO.P,R22,1*%
%TO.N,/Vdepth*%
X52728500Y-89662000D03*
%TO.P,R22,2*%
%TO.N,Net-(C7-Pad1)*%
X50903500Y-89662000D03*
%TD*%
D20*
%TO.P,R8,1*%
%TO.N,/Vfreq*%
X30837500Y-86868000D03*
%TO.P,R8,2*%
%TO.N,Net-(C3-Pad1)*%
X32662500Y-86868000D03*
%TD*%
%TO.P,R9,1*%
%TO.N,/+9V*%
X30837500Y-92456000D03*
%TO.P,R9,2*%
%TO.N,Net-(R2-Pad1)*%
X32662500Y-92456000D03*
%TD*%
D26*
%TO.P,R30,1*%
%TO.N,/+9V*%
X48260000Y-57761500D03*
%TO.P,R30,2*%
%TO.N,Net-(C17-Pad1)*%
X48260000Y-59586500D03*
%TD*%
D12*
%TO.P,R27,1*%
%TO.N,Net-(C8-Pad1)*%
X48664500Y-84074000D03*
%TO.P,R27,2*%
%TO.N,Net-(C8-Pad2)*%
X46839500Y-84074000D03*
%TD*%
D16*
%TO.P,C8,1*%
%TO.N,Net-(C8-Pad1)*%
X48614500Y-86868000D03*
%TO.P,C8,2*%
%TO.N,Net-(C8-Pad2)*%
X46889500Y-86868000D03*
%TD*%
D13*
%TO.P,R37,1*%
%TO.N,/GND*%
X40640000Y-64412500D03*
%TO.P,R37,2*%
%TO.N,Net-(R36-Pad1)*%
X40640000Y-62587500D03*
%TD*%
D29*
%TO.P,D1,1,K*%
%TO.N,Net-(D1-Pad1)*%
X45760000Y-77216000D03*
%TO.P,D1,2,A*%
%TO.N,/GND*%
X50760000Y-77216000D03*
%TD*%
D12*
%TO.P,R28,1*%
%TO.N,Net-(C7-Pad2)*%
X52093500Y-73152000D03*
%TO.P,R28,2*%
%TO.N,/LFO/DepthCV*%
X50268500Y-73152000D03*
%TD*%
D16*
%TO.P,C4,1*%
%TO.N,Net-(C4-Pad1)*%
X40486500Y-93599000D03*
%TO.P,C4,2*%
%TO.N,Net-(C4-Pad2)*%
X38761500Y-93599000D03*
%TD*%
D23*
%TO.P,C12,1*%
%TO.N,/+9V*%
X30988000Y-65699500D03*
%TO.P,C12,2*%
%TO.N,/GND*%
X30988000Y-62824500D03*
%TD*%
D26*
%TO.P,R38,1*%
%TO.N,/Out*%
X45466000Y-53824500D03*
%TO.P,R38,2*%
%TO.N,/LFO/LFOFiltered*%
X45466000Y-55649500D03*
%TD*%
D30*
%TO.P,U6,1*%
%TO.N,/LFO/LFOFiltered*%
X38735000Y-59371000D03*
%TO.P,U6,2,-*%
%TO.N,Net-(R36-Pad1)*%
X40005000Y-59371000D03*
%TO.P,U6,3,+*%
%TO.N,Net-(C18-Pad1)*%
X41275000Y-59371000D03*
%TO.P,U6,4,V-*%
%TO.N,/GND*%
X42545000Y-59371000D03*
%TO.P,U6,5,+*%
%TO.N,Net-(R33-Pad2)*%
X42545000Y-54421000D03*
%TO.P,U6,6,-*%
%TO.N,Net-(D2-Pad1)*%
X41275000Y-54421000D03*
%TO.P,U6,7*%
%TO.N,Net-(D2-Pad2)*%
X40005000Y-54421000D03*
%TO.P,U6,8,V+*%
%TO.N,/+9V*%
X38735000Y-54421000D03*
%TD*%
D12*
%TO.P,R15,1*%
%TO.N,Net-(C4-Pad2)*%
X47902500Y-73152000D03*
%TO.P,R15,2*%
%TO.N,/LFO/OffsetCV*%
X46077500Y-73152000D03*
%TD*%
D24*
%TO.P,C18,1*%
%TO.N,Net-(C18-Pad1)*%
X45466000Y-59536500D03*
%TO.P,C18,2*%
%TO.N,/GND*%
X45466000Y-57811500D03*
%TD*%
D20*
%TO.P,R13,1*%
%TO.N,Net-(C4-Pad1)*%
X34647500Y-89662000D03*
%TO.P,R13,2*%
%TO.N,Net-(C4-Pad2)*%
X36472500Y-89662000D03*
%TD*%
%TO.P,R6,1*%
%TO.N,/+9V*%
X30837500Y-81280000D03*
%TO.P,R6,2*%
%TO.N,Net-(R1-Pad1)*%
X32662500Y-81280000D03*
%TD*%
D25*
%TO.P,C15,1*%
%TO.N,/+5V*%
X37592000Y-69682500D03*
%TO.P,C15,2*%
%TO.N,/GND*%
X37592000Y-72557500D03*
%TD*%
D27*
%TO.P,J1,1,Pin_1*%
%TO.N,/+9V*%
X55880000Y-58420000D03*
D28*
%TO.P,J1,2,Pin_2*%
%TO.N,/GND*%
X55880000Y-60960000D03*
%TO.P,J1,3,Pin_3*%
%TO.N,/+4.5V*%
X55880000Y-63500000D03*
%TO.P,J1,4,Pin_4*%
%TO.N,/+5V*%
X55880000Y-66040000D03*
%TO.P,J1,5,Pin_5*%
%TO.N,/GND*%
X55880000Y-68580000D03*
%TO.P,J1,6,Pin_6*%
%TO.N,/Out*%
X55880000Y-71120000D03*
%TO.P,J1,7,Pin_7*%
%TO.N,/GND*%
X55880000Y-73660000D03*
%TO.P,J1,8,Pin_8*%
%TO.N,/Sync*%
X55880000Y-76200000D03*
%TO.P,J1,9,Pin_9*%
%TO.N,/Tap*%
X55880000Y-78740000D03*
%TO.P,J1,10,Pin_10*%
%TO.N,/Vfreq*%
X55880000Y-81280000D03*
%TO.P,J1,11,Pin_11*%
%TO.N,/Vof*%
X55880000Y-83820000D03*
%TO.P,J1,12,Pin_12*%
%TO.N,/GND*%
X55880000Y-86360000D03*
%TO.P,J1,13,Pin_13*%
%TO.N,/Vform*%
X55880000Y-88900000D03*
%TO.P,J1,14,Pin_14*%
%TO.N,/Vdepth*%
X55880000Y-91440000D03*
%TO.P,J1,15,Pin_15*%
%TO.N,/GND*%
X55880000Y-93980000D03*
%TD*%
D13*
%TO.P,R36,1*%
%TO.N,Net-(R36-Pad1)*%
X37846000Y-64412500D03*
%TO.P,R36,2*%
%TO.N,/LFO/LFOFiltered*%
X37846000Y-62587500D03*
%TD*%
D31*
%TO.N,Net-(C3-Pad2)*%
X42799000Y-69469000D03*
X49784000Y-69342000D03*
%TO.N,/GND*%
X41402000Y-64389000D03*
X36703000Y-55626000D03*
X37592000Y-85090000D03*
X43688000Y-75184000D03*
X40005000Y-72517000D03*
X35335500Y-86868000D03*
X42799000Y-86868000D03*
X34671000Y-80010000D03*
X32044500Y-62824500D03*
X45466000Y-56896000D03*
X31369000Y-77216000D03*
X39116000Y-75184000D03*
X33441500Y-62824500D03*
X37211000Y-87757000D03*
X51435000Y-65240500D03*
X32512000Y-68199000D03*
X43180000Y-59309000D03*
X38481000Y-72517000D03*
X50800000Y-75311000D03*
X47879000Y-62484000D03*
%TO.N,/+4.5V*%
X38354000Y-87757000D03*
X42799000Y-85968497D03*
D32*
X50165000Y-49911000D03*
D31*
X38487160Y-85178279D03*
X42799000Y-87767503D03*
%TO.N,/Sync*%
X42926000Y-75692000D03*
%TO.N,/Tap*%
X34671000Y-78740000D03*
%TD*%
D33*
%TO.N,/Vfreq*%
X29900000Y-83240000D02*
X29900000Y-84790050D01*
X29900000Y-84790050D02*
X30837500Y-85727550D01*
X30837500Y-85727550D02*
X30837500Y-86868000D01*
X27940000Y-81280000D02*
X29900000Y-83240000D01*
%TO.N,/Vof*%
X27940000Y-83820000D02*
X29464000Y-85344000D01*
X29464000Y-85344000D02*
X29464000Y-88288500D01*
X29464000Y-88288500D02*
X30837500Y-89662000D01*
%TO.N,/Vform*%
X54229000Y-84709000D02*
X53594000Y-84074000D01*
X55880000Y-88900000D02*
X54229000Y-87249000D01*
X54229000Y-87249000D02*
X54229000Y-84709000D01*
X53594000Y-84074000D02*
X52728500Y-84074000D01*
%TO.N,/Vdepth*%
X54506500Y-91440000D02*
X52728500Y-89662000D01*
X55880000Y-91440000D02*
X54506500Y-91440000D01*
D34*
%TO.N,Net-(C3-Pad1)*%
X36472500Y-84074000D02*
X36472500Y-81330000D01*
X36472500Y-84074000D02*
X38927000Y-84074000D01*
X32662500Y-86868000D02*
X32662500Y-86844500D01*
X34036000Y-85471000D02*
X35560000Y-85471000D01*
X38927000Y-84074000D02*
X39181000Y-84328000D01*
X36472500Y-81330000D02*
X36422500Y-81280000D01*
X32662500Y-84074000D02*
X32662500Y-86868000D01*
X35560000Y-85471000D02*
X36472500Y-84558500D01*
X36472500Y-84558500D02*
X36472500Y-84074000D01*
X32662500Y-86844500D02*
X34036000Y-85471000D01*
%TO.N,Net-(C3-Pad2)*%
X50395500Y-63246000D02*
X50395500Y-64666500D01*
X33971000Y-75376000D02*
X33971000Y-80553500D01*
X33971000Y-80553500D02*
X34697500Y-81280000D01*
X42799000Y-69469000D02*
X42799000Y-69588528D01*
X49784000Y-65278000D02*
X49784000Y-69342000D01*
X42799000Y-69588528D02*
X41521528Y-70866000D01*
X41521528Y-70866000D02*
X37084000Y-70866000D01*
X39181000Y-81599000D02*
X37846000Y-80264000D01*
X34647500Y-84074000D02*
X34647500Y-81330000D01*
X39181000Y-83058000D02*
X39181000Y-81599000D01*
X35713500Y-80264000D02*
X34697500Y-81280000D01*
X37084000Y-70866000D02*
X36567000Y-71383000D01*
X36567000Y-71383000D02*
X36567000Y-72780000D01*
X37846000Y-80264000D02*
X35713500Y-80264000D01*
X34647500Y-81330000D02*
X34697500Y-81280000D01*
X50395500Y-64666500D02*
X49784000Y-65278000D01*
X36567000Y-72780000D02*
X33971000Y-75376000D01*
%TO.N,Net-(C4-Pad1)*%
X39181000Y-89408000D02*
X38100000Y-89408000D01*
X36472500Y-92456000D02*
X36472500Y-91487000D01*
X36472500Y-91487000D02*
X34647500Y-89662000D01*
X39370000Y-95250000D02*
X37846000Y-95250000D01*
X37338000Y-88646000D02*
X35663500Y-88646000D01*
X40486500Y-94133500D02*
X39370000Y-95250000D01*
X40486500Y-93599000D02*
X40486500Y-94133500D01*
X37846000Y-95250000D02*
X36472500Y-93876500D01*
X34647500Y-89662000D02*
X32662500Y-89662000D01*
X36472500Y-93876500D02*
X36472500Y-92456000D01*
X38100000Y-89408000D02*
X37338000Y-88646000D01*
X35663500Y-88646000D02*
X34647500Y-89662000D01*
%TO.N,Net-(C4-Pad2)*%
X42672000Y-79248000D02*
X40767000Y-81153000D01*
X40640000Y-90678000D02*
X39181000Y-90678000D01*
X47860000Y-73194500D02*
X47860000Y-78378000D01*
X38761500Y-93599000D02*
X38761500Y-91097500D01*
X39181000Y-90678000D02*
X37488500Y-90678000D01*
X40767000Y-81153000D02*
X40767000Y-90551000D01*
X40767000Y-90551000D02*
X40640000Y-90678000D01*
X37488500Y-90678000D02*
X36472500Y-89662000D01*
X38761500Y-91097500D02*
X39181000Y-90678000D01*
X47860000Y-78378000D02*
X46990000Y-79248000D01*
X46990000Y-79248000D02*
X42672000Y-79248000D01*
X47902500Y-73152000D02*
X47860000Y-73194500D01*
%TO.N,Net-(R1-Pad1)*%
X30837500Y-84074000D02*
X30837500Y-82827500D01*
X30837500Y-82827500D02*
X32385000Y-81280000D01*
X32385000Y-81280000D02*
X32662500Y-81280000D01*
%TO.N,Net-(R2-Pad1)*%
X32662500Y-92456000D02*
X34647500Y-92456000D01*
%TO.N,Net-(R20-Pad2)*%
X48664500Y-92456000D02*
X50903500Y-92456000D01*
%TO.N,Net-(R23-Pad2)*%
X50903500Y-81280000D02*
X48664500Y-81280000D01*
%TO.N,Net-(C7-Pad1)*%
X46839500Y-93114500D02*
X46839500Y-92456000D01*
X44958000Y-94996000D02*
X46839500Y-93114500D01*
X44069000Y-94996000D02*
X44958000Y-94996000D01*
X42672000Y-89662000D02*
X42672000Y-93599000D01*
X48664500Y-90019500D02*
X48664500Y-89662000D01*
X48664500Y-89662000D02*
X50903500Y-89662000D01*
X42672000Y-93599000D02*
X44069000Y-94996000D01*
X44131000Y-89408000D02*
X42926000Y-89408000D01*
X42926000Y-89408000D02*
X42672000Y-89662000D01*
X46839500Y-92456000D02*
X46839500Y-91844500D01*
X46839500Y-91844500D02*
X48664500Y-90019500D01*
%TO.N,Net-(C7-Pad2)*%
X44397000Y-93599000D02*
X44397000Y-90944000D01*
X42926000Y-80264000D02*
X41656000Y-81534000D01*
X44397000Y-90944000D02*
X44131000Y-90678000D01*
X41656000Y-94996000D02*
X42164000Y-95504000D01*
X51816000Y-88392000D02*
X47244000Y-88392000D01*
X47498000Y-80264000D02*
X42926000Y-80264000D01*
X51816000Y-93726000D02*
X51816000Y-88392000D01*
X46839500Y-90320500D02*
X46839500Y-89662000D01*
X42164000Y-95504000D02*
X50038000Y-95504000D01*
X44131000Y-90678000D02*
X46482000Y-90678000D01*
X51562000Y-73152000D02*
X51106000Y-73608000D01*
X51106000Y-73632850D02*
X50761850Y-73977000D01*
X50737000Y-73977000D02*
X48660000Y-76054000D01*
X50038000Y-95504000D02*
X51816000Y-93726000D01*
X48660000Y-76054000D02*
X48660000Y-79102000D01*
X46839500Y-88796500D02*
X46839500Y-89662000D01*
X41656000Y-81534000D02*
X41656000Y-94996000D01*
X50761850Y-73977000D02*
X50737000Y-73977000D01*
X46482000Y-90678000D02*
X46839500Y-90320500D01*
X52093500Y-73152000D02*
X51562000Y-73152000D01*
X47244000Y-88392000D02*
X46839500Y-88796500D01*
X51106000Y-73608000D02*
X51106000Y-73632850D01*
X48660000Y-79102000D02*
X47498000Y-80264000D01*
%TO.N,Net-(C8-Pad1)*%
X44131000Y-84328000D02*
X42926000Y-84328000D01*
X48614500Y-86868000D02*
X48614500Y-84124000D01*
X48664500Y-84074000D02*
X48664500Y-83462500D01*
X48614500Y-84124000D02*
X48664500Y-84074000D01*
X48664500Y-83462500D02*
X46839500Y-81637500D01*
X42926000Y-84328000D02*
X42545000Y-83947000D01*
X42545000Y-82042000D02*
X43307000Y-81280000D01*
X43307000Y-81280000D02*
X46839500Y-81280000D01*
X42545000Y-83947000D02*
X42545000Y-82042000D01*
X46839500Y-81637500D02*
X46839500Y-81280000D01*
X50903500Y-84074000D02*
X48664500Y-84074000D01*
%TO.N,Net-(C8-Pad2)*%
X50903500Y-87018500D02*
X50229000Y-87693000D01*
X46839500Y-84074000D02*
X46736000Y-84074000D01*
X47714500Y-87693000D02*
X46889500Y-86868000D01*
X46736000Y-84074000D02*
X45720000Y-83058000D01*
X46839500Y-84074000D02*
X46839500Y-86818000D01*
X46839500Y-86818000D02*
X46889500Y-86868000D01*
X50903500Y-86868000D02*
X50903500Y-87018500D01*
X50229000Y-87693000D02*
X47714500Y-87693000D01*
X45720000Y-83058000D02*
X44131000Y-83058000D01*
D35*
%TO.N,/+5V*%
X40894000Y-69682500D02*
X37592000Y-69682500D01*
X41910000Y-66294000D02*
X46547000Y-66294000D01*
X46228000Y-63281500D02*
X46192500Y-63246000D01*
D34*
X32131000Y-82677000D02*
X31750000Y-83058000D01*
D33*
X36422500Y-86868000D02*
X39181000Y-86868000D01*
D35*
X37379500Y-69470000D02*
X37592000Y-69682500D01*
D33*
X34036000Y-73533000D02*
X34036000Y-72898000D01*
D34*
X33471000Y-80715000D02*
X33471000Y-80760606D01*
X33471000Y-80760606D02*
X33655000Y-80944606D01*
X32639000Y-79883000D02*
X33471000Y-80715000D01*
D33*
X34036000Y-72898000D02*
X34012000Y-72874000D01*
D34*
X33655000Y-82169000D02*
X33147000Y-82677000D01*
D33*
X32639000Y-74930000D02*
X34036000Y-73533000D01*
X31877000Y-88138000D02*
X35306000Y-88138000D01*
X34012000Y-72874000D02*
X34012000Y-69470000D01*
D35*
X40894000Y-69682500D02*
X40894000Y-67310000D01*
D33*
X32639000Y-79883000D02*
X32639000Y-74930000D01*
D34*
X31750000Y-83058000D02*
X31750000Y-88011000D01*
D35*
X34012000Y-69470000D02*
X37379500Y-69470000D01*
X40894000Y-67310000D02*
X41910000Y-66294000D01*
D34*
X33147000Y-82677000D02*
X32131000Y-82677000D01*
D35*
X46228000Y-65975000D02*
X46228000Y-63281500D01*
X46547000Y-66294000D02*
X46228000Y-65975000D01*
D33*
X35306000Y-88138000D02*
X36422500Y-87021500D01*
X36422500Y-87021500D02*
X36422500Y-86868000D01*
D34*
X33655000Y-80944606D02*
X33655000Y-82169000D01*
X31750000Y-88011000D02*
X31877000Y-88138000D01*
D33*
%TO.N,/GND*%
X40894000Y-72557500D02*
X40045500Y-72557500D01*
X36676500Y-55599500D02*
X36703000Y-55626000D01*
X43118000Y-59371000D02*
X43180000Y-59309000D01*
X41378500Y-64412500D02*
X41402000Y-64389000D01*
X39037500Y-75262500D02*
X39116000Y-75184000D01*
X45466000Y-57811500D02*
X45466000Y-56896000D01*
D34*
X44131000Y-86868000D02*
X42799000Y-86868000D01*
D33*
X38440500Y-72557500D02*
X38481000Y-72517000D01*
X39037500Y-75758000D02*
X39037500Y-75262500D01*
X50760000Y-77216000D02*
X50760000Y-75351000D01*
X32044500Y-62824500D02*
X30988000Y-62824500D01*
X30666000Y-76708000D02*
X30861000Y-76708000D01*
X50760000Y-75351000D02*
X50800000Y-75311000D01*
D34*
X34697500Y-86868000D02*
X35335500Y-86868000D01*
D33*
X32512000Y-69557500D02*
X32512000Y-68199000D01*
X47917500Y-62522500D02*
X47917500Y-63246000D01*
X33441500Y-62824500D02*
X34544000Y-62824500D01*
X30861000Y-76708000D02*
X31369000Y-77216000D01*
X51497000Y-65302500D02*
X51435000Y-65240500D01*
X47879000Y-62484000D02*
X47917500Y-62522500D01*
X51497000Y-66294000D02*
X51497000Y-65302500D01*
X42545000Y-59371000D02*
X43118000Y-59371000D01*
X37592000Y-72557500D02*
X38440500Y-72557500D01*
X35814000Y-55599500D02*
X36676500Y-55599500D01*
X40640000Y-64412500D02*
X41378500Y-64412500D01*
X40045500Y-72557500D02*
X40005000Y-72517000D01*
D34*
%TO.N,/+9V*%
X30837500Y-93448500D02*
X34163000Y-96774000D01*
X30837500Y-92456000D02*
X30837500Y-93622500D01*
X53928500Y-80080000D02*
X57093000Y-80080000D01*
X53848000Y-58420000D02*
X55880000Y-58420000D01*
D33*
X29591000Y-60071000D02*
X29591000Y-64302500D01*
D34*
X30353000Y-80010000D02*
X30837500Y-80494500D01*
X54356000Y-59944000D02*
X55880000Y-58420000D01*
D33*
X35814000Y-53874500D02*
X38188500Y-53874500D01*
X35814000Y-53874500D02*
X33882500Y-53874500D01*
D34*
X30837500Y-93622500D02*
X28702000Y-95758000D01*
X52832000Y-92559500D02*
X52728500Y-92456000D01*
X28702000Y-95758000D02*
X26416000Y-95758000D01*
X34163000Y-96774000D02*
X50165000Y-96774000D01*
X26416000Y-95758000D02*
X26416000Y-81106943D01*
D33*
X29337000Y-58420000D02*
X27940000Y-58420000D01*
D34*
X27512943Y-80010000D02*
X30353000Y-80010000D01*
X48260000Y-57531000D02*
X49022000Y-56769000D01*
X49022000Y-56769000D02*
X52197000Y-56769000D01*
X26416000Y-81106943D02*
X27512943Y-80010000D01*
X52728500Y-81280000D02*
X53928500Y-80080000D01*
X57023000Y-95885000D02*
X54610000Y-95885000D01*
X57531000Y-80518000D02*
X57531000Y-95377000D01*
X48260000Y-57761500D02*
X48260000Y-57531000D01*
X50165000Y-96774000D02*
X52832000Y-94107000D01*
X54356000Y-79652500D02*
X54356000Y-59944000D01*
X52197000Y-56769000D02*
X53848000Y-58420000D01*
D33*
X29591000Y-64302500D02*
X30988000Y-65699500D01*
D34*
X52728500Y-81280000D02*
X54356000Y-79652500D01*
X30837500Y-80494500D02*
X30837500Y-81280000D01*
X57093000Y-80080000D02*
X57531000Y-80518000D01*
D35*
X31012000Y-69470000D02*
X31012000Y-65723500D01*
X31012000Y-65723500D02*
X30988000Y-65699500D01*
D34*
X30837500Y-92456000D02*
X30837500Y-93448500D01*
X54610000Y-95885000D02*
X52832000Y-94107000D01*
D33*
X27940000Y-58420000D02*
X29591000Y-60071000D01*
X38188500Y-53874500D02*
X38735000Y-54421000D01*
D34*
X57531000Y-95377000D02*
X57023000Y-95885000D01*
D35*
X34544000Y-65699500D02*
X30988000Y-65699500D01*
D33*
X33882500Y-53874500D02*
X29337000Y-58420000D01*
D34*
X52832000Y-94107000D02*
X52832000Y-92559500D01*
%TO.N,Net-(C17-Pad1)*%
X43434000Y-64412500D02*
X42314500Y-65532000D01*
X33274000Y-60960000D02*
X33020000Y-60706000D01*
X46839500Y-59586500D02*
X48260000Y-59586500D01*
X33020000Y-60706000D02*
X33020000Y-59536500D01*
X43434000Y-64412500D02*
X44450000Y-63396500D01*
X36830000Y-65532000D02*
X36322000Y-65024000D01*
X44450000Y-63396500D02*
X44450000Y-61976000D01*
X44450000Y-61976000D02*
X46839500Y-59586500D01*
X42314500Y-65532000D02*
X36830000Y-65532000D01*
X50085000Y-57761500D02*
X48260000Y-59586500D01*
X35560000Y-60960000D02*
X33274000Y-60960000D01*
X36322000Y-65024000D02*
X36322000Y-61722000D01*
X36322000Y-61722000D02*
X35560000Y-60960000D01*
X51308000Y-57761500D02*
X50085000Y-57761500D01*
%TO.N,/LFO/LFOFiltered*%
X42164000Y-57531000D02*
X39116000Y-57531000D01*
X38735000Y-59371000D02*
X36029500Y-59371000D01*
X39116000Y-57531000D02*
X38735000Y-57912000D01*
X45466000Y-55649500D02*
X44045500Y-55649500D01*
X37846000Y-62103000D02*
X38735000Y-61214000D01*
X38735000Y-61214000D02*
X38735000Y-59371000D01*
X35814000Y-59586500D02*
X34795000Y-59586500D01*
X38735000Y-57912000D02*
X38735000Y-59371000D01*
X36029500Y-59371000D02*
X35814000Y-59586500D01*
X37846000Y-62587500D02*
X37846000Y-62103000D01*
X34795000Y-59586500D02*
X33020000Y-57811500D01*
X44045500Y-55649500D02*
X42164000Y-57531000D01*
%TO.N,Net-(C18-Pad1)*%
X43434000Y-61468000D02*
X45365500Y-59536500D01*
X45365500Y-59536500D02*
X45466000Y-59536500D01*
X43434000Y-62587500D02*
X41275000Y-60428500D01*
X43434000Y-62587500D02*
X43434000Y-61468000D01*
X41275000Y-60428500D02*
X41275000Y-59371000D01*
%TO.N,Net-(D1-Pad1)*%
X42164000Y-77620500D02*
X39075000Y-77620500D01*
X39075000Y-77620500D02*
X39037500Y-77658000D01*
X42164000Y-77620500D02*
X42568500Y-77216000D01*
X42568500Y-77216000D02*
X45760000Y-77216000D01*
D33*
%TO.N,Net-(D2-Pad1)*%
X46355000Y-51712500D02*
X44097500Y-51712500D01*
X41275000Y-54421000D02*
X41275000Y-52710000D01*
X41275000Y-52710000D02*
X43185000Y-50800000D01*
X44097500Y-51712500D02*
X43185000Y-50800000D01*
%TO.N,Net-(D2-Pad2)*%
X40005000Y-51440000D02*
X40645000Y-50800000D01*
X40005000Y-54421000D02*
X40005000Y-51440000D01*
D34*
%TO.N,/+4.5V*%
X43169497Y-88138000D02*
X44131000Y-88138000D01*
X38487160Y-85178279D02*
X38906881Y-85598000D01*
X39181000Y-88138000D02*
X38735000Y-88138000D01*
D33*
X49149000Y-49887500D02*
X46355000Y-49887500D01*
D34*
X38906881Y-85598000D02*
X39181000Y-85598000D01*
D33*
X49149000Y-49887500D02*
X50141500Y-49887500D01*
D34*
X43169497Y-85598000D02*
X44131000Y-85598000D01*
X38735000Y-88138000D02*
X38354000Y-87757000D01*
D33*
X50141500Y-49887500D02*
X50165000Y-49911000D01*
D34*
X42799000Y-87767503D02*
X43169497Y-88138000D01*
X42799000Y-85968497D02*
X43169497Y-85598000D01*
D33*
%TO.N,/Out*%
X57531000Y-69469000D02*
X55880000Y-71120000D01*
X57531000Y-56896000D02*
X57531000Y-69469000D01*
X56515000Y-55880000D02*
X57531000Y-56896000D01*
X47093500Y-53824500D02*
X49149000Y-55880000D01*
X45466000Y-53824500D02*
X47093500Y-53824500D01*
X49149000Y-55880000D02*
X56515000Y-55880000D01*
%TO.N,/Sync*%
X42926000Y-75692000D02*
X42267500Y-75692000D01*
X42267500Y-75692000D02*
X42164000Y-75795500D01*
D34*
%TO.N,/Tap*%
X40767000Y-76581000D02*
X40640000Y-76708000D01*
X34866000Y-76708000D02*
X34866000Y-78545000D01*
X37162500Y-76708000D02*
X34866000Y-76708000D01*
X41721000Y-74484000D02*
X40767000Y-75438000D01*
X40640000Y-76708000D02*
X37162500Y-76708000D01*
X46801000Y-74484000D02*
X41721000Y-74484000D01*
X40767000Y-75438000D02*
X40767000Y-76581000D01*
X46980000Y-74305000D02*
X46801000Y-74484000D01*
X46980000Y-71110000D02*
X46980000Y-74305000D01*
X46547000Y-70104000D02*
X46547000Y-70677000D01*
X46547000Y-70677000D02*
X46980000Y-71110000D01*
X34866000Y-78545000D02*
X34671000Y-78740000D01*
%TO.N,/LFO/OffsetCV*%
X46077500Y-73152000D02*
X44958000Y-72032500D01*
X44958000Y-72032500D02*
X44958000Y-68580000D01*
X45974000Y-67564000D02*
X46547000Y-67564000D01*
X44958000Y-68580000D02*
X45974000Y-67564000D01*
%TO.N,/LFO/FreqCV*%
X53340000Y-64365500D02*
X53340000Y-66802000D01*
X52578000Y-67564000D02*
X51497000Y-67564000D01*
X52220500Y-63246000D02*
X53340000Y-64365500D01*
X53340000Y-66802000D02*
X52578000Y-67564000D01*
%TO.N,/LFO/WaveformCV*%
X52578000Y-68834000D02*
X51497000Y-68834000D01*
X52931000Y-78387000D02*
X52931000Y-69187000D01*
X52931000Y-69187000D02*
X52578000Y-68834000D01*
X51891000Y-79427000D02*
X52931000Y-78387000D01*
X52728500Y-86868000D02*
X51891000Y-86030500D01*
X51891000Y-86030500D02*
X51891000Y-79427000D01*
%TO.N,/LFO/DepthCV*%
X50268500Y-73152000D02*
X50268500Y-71332500D01*
X50268500Y-71332500D02*
X51497000Y-70104000D01*
%TO.N,Net-(R31-Pad1)*%
X49022000Y-61595000D02*
X49403000Y-61214000D01*
X49403000Y-61214000D02*
X51054000Y-61214000D01*
X51054000Y-61214000D02*
X51308000Y-60960000D01*
X46547000Y-68834000D02*
X48006000Y-68834000D01*
X49022000Y-67818000D02*
X49022000Y-61595000D01*
X51308000Y-60960000D02*
X51308000Y-59586500D01*
X48006000Y-68834000D02*
X49022000Y-67818000D01*
%TO.N,Net-(R33-Pad2)*%
X37742500Y-57761500D02*
X39116000Y-56388000D01*
X42545000Y-54421000D02*
X44134000Y-52832000D01*
X48514000Y-52832000D02*
X49149000Y-52197000D01*
X41656000Y-56388000D02*
X42545000Y-55499000D01*
X39116000Y-56388000D02*
X41656000Y-56388000D01*
X42545000Y-55499000D02*
X42545000Y-54421000D01*
X49149000Y-52197000D02*
X49149000Y-51712500D01*
X44134000Y-52832000D02*
X48514000Y-52832000D01*
X35814000Y-57761500D02*
X37742500Y-57761500D01*
%TO.N,Net-(R36-Pad1)*%
X40640000Y-61595000D02*
X40005000Y-60960000D01*
X38076500Y-64412500D02*
X39901500Y-62587500D01*
X37846000Y-64412500D02*
X38076500Y-64412500D01*
X40005000Y-60960000D02*
X40005000Y-59371000D01*
X40640000Y-62587500D02*
X40640000Y-61595000D01*
X39901500Y-62587500D02*
X40640000Y-62587500D01*
%TD*%
%TA.AperFunction,Conductor*%
%TO.N,/+5V*%
G36*
X33735706Y-87466042D02*
G01*
X33762140Y-87496493D01*
X33808884Y-87572031D01*
X33814066Y-87577204D01*
X33926816Y-87689758D01*
X33926821Y-87689762D01*
X33931997Y-87694929D01*
X33938227Y-87698769D01*
X33938228Y-87698770D01*
X34061695Y-87774876D01*
X34080080Y-87786209D01*
X34245191Y-87840974D01*
X34252027Y-87841674D01*
X34252030Y-87841675D01*
X34303526Y-87846951D01*
X34347928Y-87851500D01*
X35047072Y-87851500D01*
X35050318Y-87851163D01*
X35050322Y-87851163D01*
X35144235Y-87841419D01*
X35144239Y-87841418D01*
X35151093Y-87840707D01*
X35157629Y-87838526D01*
X35157631Y-87838526D01*
X35298620Y-87791488D01*
X35316107Y-87785654D01*
X35385707Y-87742585D01*
X35425809Y-87726484D01*
X35556193Y-87698770D01*
X35587136Y-87692193D01*
X35657926Y-87697595D01*
X35679448Y-87708180D01*
X35752382Y-87753137D01*
X35799875Y-87805909D01*
X35811299Y-87875981D01*
X35783025Y-87941104D01*
X35724031Y-87980604D01*
X35690224Y-87986335D01*
X35655131Y-87987438D01*
X35651173Y-87987500D01*
X35622068Y-87987500D01*
X35617668Y-87988056D01*
X35605836Y-87988988D01*
X35559669Y-87990438D01*
X35539079Y-87996420D01*
X35519718Y-88000430D01*
X35512730Y-88001312D01*
X35506296Y-88002125D01*
X35506295Y-88002125D01*
X35498436Y-88003118D01*
X35491071Y-88006034D01*
X35491067Y-88006035D01*
X35455479Y-88020126D01*
X35444269Y-88023965D01*
X35399900Y-88036855D01*
X35381435Y-88047775D01*
X35363695Y-88056466D01*
X35343744Y-88064365D01*
X35306374Y-88091516D01*
X35296452Y-88098033D01*
X35263523Y-88117507D01*
X35263519Y-88117510D01*
X35256693Y-88121547D01*
X35241529Y-88136711D01*
X35226496Y-88149551D01*
X35209143Y-88162159D01*
X35179698Y-88197752D01*
X35171708Y-88206532D01*
X34736645Y-88641595D01*
X34674333Y-88675621D01*
X34647550Y-88678500D01*
X34347928Y-88678500D01*
X34344682Y-88678837D01*
X34344678Y-88678837D01*
X34250765Y-88688581D01*
X34250761Y-88688582D01*
X34243907Y-88689293D01*
X34237371Y-88691474D01*
X34237369Y-88691474D01*
X34194933Y-88705632D01*
X34078893Y-88744346D01*
X33930969Y-88835884D01*
X33810574Y-88956489D01*
X33810572Y-88956491D01*
X33808071Y-88958997D01*
X33807642Y-88958569D01*
X33753920Y-88996656D01*
X33712958Y-89003500D01*
X33597033Y-89003500D01*
X33528912Y-88983498D01*
X33501620Y-88958783D01*
X33501116Y-88957969D01*
X33486062Y-88942941D01*
X33383184Y-88840242D01*
X33383179Y-88840238D01*
X33378003Y-88835071D01*
X33371772Y-88831230D01*
X33236150Y-88747631D01*
X33236148Y-88747630D01*
X33229920Y-88743791D01*
X33064809Y-88689026D01*
X33057973Y-88688326D01*
X33057970Y-88688325D01*
X33006474Y-88683049D01*
X32962072Y-88678500D01*
X32362928Y-88678500D01*
X32359682Y-88678837D01*
X32359678Y-88678837D01*
X32265765Y-88688581D01*
X32265761Y-88688582D01*
X32258907Y-88689293D01*
X32252371Y-88691474D01*
X32252369Y-88691474D01*
X32209933Y-88705632D01*
X32093893Y-88744346D01*
X31945969Y-88835884D01*
X31940796Y-88841066D01*
X31839253Y-88942786D01*
X31776970Y-88976865D01*
X31706150Y-88971862D01*
X31661063Y-88942941D01*
X31558188Y-88840246D01*
X31558183Y-88840242D01*
X31553003Y-88835071D01*
X31546772Y-88831230D01*
X31411150Y-88747631D01*
X31411148Y-88747630D01*
X31404920Y-88743791D01*
X31239809Y-88689026D01*
X31232973Y-88688326D01*
X31232970Y-88688325D01*
X31181474Y-88683049D01*
X31137072Y-88678500D01*
X30978871Y-88678500D01*
X30910750Y-88658498D01*
X30889776Y-88641595D01*
X30293582Y-88045401D01*
X30259556Y-87983089D01*
X30264621Y-87912274D01*
X30307168Y-87855438D01*
X30373688Y-87830627D01*
X30422341Y-87836712D01*
X30435191Y-87840974D01*
X30442027Y-87841674D01*
X30442030Y-87841675D01*
X30493526Y-87846951D01*
X30537928Y-87851500D01*
X31137072Y-87851500D01*
X31140318Y-87851163D01*
X31140322Y-87851163D01*
X31234235Y-87841419D01*
X31234239Y-87841418D01*
X31241093Y-87840707D01*
X31247629Y-87838526D01*
X31247631Y-87838526D01*
X31388620Y-87791488D01*
X31406107Y-87785654D01*
X31554031Y-87694116D01*
X31594265Y-87653812D01*
X31660747Y-87587214D01*
X31723030Y-87553135D01*
X31793850Y-87558138D01*
X31838937Y-87587059D01*
X31941812Y-87689754D01*
X31941817Y-87689758D01*
X31946997Y-87694929D01*
X31953227Y-87698769D01*
X31953228Y-87698770D01*
X32076695Y-87774876D01*
X32095080Y-87786209D01*
X32260191Y-87840974D01*
X32267027Y-87841674D01*
X32267030Y-87841675D01*
X32318526Y-87846951D01*
X32362928Y-87851500D01*
X32962072Y-87851500D01*
X32965318Y-87851163D01*
X32965322Y-87851163D01*
X33059235Y-87841419D01*
X33059239Y-87841418D01*
X33066093Y-87840707D01*
X33072629Y-87838526D01*
X33072631Y-87838526D01*
X33213620Y-87791488D01*
X33231107Y-87785654D01*
X33379031Y-87694116D01*
X33394305Y-87678815D01*
X33496758Y-87576184D01*
X33496762Y-87576179D01*
X33501929Y-87571003D01*
X33547740Y-87496684D01*
X33600511Y-87449192D01*
X33670582Y-87437768D01*
X33735706Y-87466042D01*
G37*
%TD.AperFunction*%
%TA.AperFunction,Conductor*%
G36*
X36721920Y-85344506D02*
G01*
X36778756Y-85387053D01*
X36797721Y-85423624D01*
X36803401Y-85441107D01*
X36893633Y-85597393D01*
X36898051Y-85602300D01*
X36898052Y-85602301D01*
X36972492Y-85684975D01*
X37003210Y-85748982D01*
X36994445Y-85819436D01*
X36948982Y-85873967D01*
X36881255Y-85895262D01*
X36866014Y-85894629D01*
X36775232Y-85885328D01*
X36768815Y-85885000D01*
X36694615Y-85885000D01*
X36679376Y-85889475D01*
X36678171Y-85890865D01*
X36676500Y-85898548D01*
X36676500Y-86996000D01*
X36656498Y-87064121D01*
X36602842Y-87110614D01*
X36550500Y-87122000D01*
X36311970Y-87122000D01*
X36243849Y-87101998D01*
X36197356Y-87048342D01*
X36186660Y-86982829D01*
X36198039Y-86874565D01*
X36198729Y-86868000D01*
X36179865Y-86688525D01*
X36174667Y-86672527D01*
X36168500Y-86633591D01*
X36168500Y-85903115D01*
X36164740Y-85890309D01*
X36164742Y-85819312D01*
X36196542Y-85765718D01*
X36588793Y-85373467D01*
X36651105Y-85339441D01*
X36721920Y-85344506D01*
G37*
%TD.AperFunction*%
%TA.AperFunction,Conductor*%
G36*
X33735706Y-81878042D02*
G01*
X33762140Y-81908493D01*
X33808884Y-81984031D01*
X33814065Y-81989203D01*
X33814066Y-81989204D01*
X33859346Y-82034405D01*
X33931997Y-82106929D01*
X33938225Y-82110768D01*
X33941093Y-82113033D01*
X33982155Y-82170950D01*
X33989000Y-82211914D01*
X33989000Y-83142060D01*
X33968998Y-83210181D01*
X33941264Y-83240806D01*
X33937194Y-83244032D01*
X33930969Y-83247884D01*
X33925798Y-83253064D01*
X33813242Y-83365816D01*
X33813240Y-83365819D01*
X33808071Y-83370997D01*
X33763436Y-83443409D01*
X33762261Y-83445315D01*
X33709489Y-83492808D01*
X33639418Y-83504232D01*
X33574294Y-83475958D01*
X33547860Y-83445507D01*
X33501116Y-83369969D01*
X33492692Y-83361560D01*
X33383184Y-83252242D01*
X33383179Y-83252238D01*
X33378003Y-83247071D01*
X33368101Y-83240967D01*
X33236150Y-83159631D01*
X33236148Y-83159630D01*
X33229920Y-83155791D01*
X33064809Y-83101026D01*
X33057973Y-83100326D01*
X33057970Y-83100325D01*
X33006474Y-83095049D01*
X32962072Y-83090500D01*
X32362928Y-83090500D01*
X32359682Y-83090837D01*
X32359678Y-83090837D01*
X32265765Y-83100581D01*
X32265761Y-83100582D01*
X32258907Y-83101293D01*
X32252371Y-83103474D01*
X32252369Y-83103474D01*
X32153894Y-83136328D01*
X32093893Y-83156346D01*
X31945969Y-83247884D01*
X31940797Y-83253065D01*
X31940796Y-83253066D01*
X31839253Y-83354786D01*
X31776970Y-83388865D01*
X31706150Y-83383862D01*
X31661063Y-83354941D01*
X31558185Y-83252243D01*
X31558180Y-83252239D01*
X31553003Y-83247071D01*
X31549061Y-83244641D01*
X31508636Y-83187626D01*
X31505404Y-83116703D01*
X31538695Y-83057565D01*
X32295854Y-82300405D01*
X32358167Y-82266380D01*
X32384950Y-82263500D01*
X32962072Y-82263500D01*
X32965318Y-82263163D01*
X32965322Y-82263163D01*
X33059235Y-82253419D01*
X33059239Y-82253418D01*
X33066093Y-82252707D01*
X33072629Y-82250526D01*
X33072631Y-82250526D01*
X33221000Y-82201026D01*
X33231107Y-82197654D01*
X33379031Y-82106116D01*
X33414947Y-82070137D01*
X33496758Y-81988184D01*
X33496762Y-81988179D01*
X33501929Y-81983003D01*
X33506613Y-81975405D01*
X33547739Y-81908685D01*
X33600511Y-81861192D01*
X33670582Y-81849768D01*
X33735706Y-81878042D01*
G37*
%TD.AperFunction*%
%TA.AperFunction,Conductor*%
G36*
X45729126Y-48788502D02*
G01*
X45775619Y-48842158D01*
X45785723Y-48912432D01*
X45756229Y-48977012D01*
X45727308Y-49001644D01*
X45650969Y-49048884D01*
X45645796Y-49054066D01*
X45533242Y-49166816D01*
X45533238Y-49166821D01*
X45528071Y-49171997D01*
X45524231Y-49178227D01*
X45524230Y-49178228D01*
X45512774Y-49196814D01*
X45436791Y-49320080D01*
X45382026Y-49485191D01*
X45381326Y-49492027D01*
X45381325Y-49492030D01*
X45377296Y-49531358D01*
X45371500Y-49587928D01*
X45371500Y-50187072D01*
X45382293Y-50291093D01*
X45437346Y-50456107D01*
X45528884Y-50604031D01*
X45534066Y-50609204D01*
X45635786Y-50710747D01*
X45669865Y-50773030D01*
X45664862Y-50843850D01*
X45635941Y-50888938D01*
X45607910Y-50917018D01*
X45545628Y-50951097D01*
X45518737Y-50954000D01*
X44719500Y-50954000D01*
X44651379Y-50933998D01*
X44604886Y-50880342D01*
X44593500Y-50828000D01*
X44593500Y-49851866D01*
X44586745Y-49789684D01*
X44535615Y-49653295D01*
X44448261Y-49536739D01*
X44331705Y-49449385D01*
X44195316Y-49398255D01*
X44133134Y-49391500D01*
X42236866Y-49391500D01*
X42174684Y-49398255D01*
X42038295Y-49449385D01*
X41921739Y-49536739D01*
X41834385Y-49653295D01*
X41831233Y-49661703D01*
X41831232Y-49661705D01*
X41810538Y-49716906D01*
X41767897Y-49773671D01*
X41701335Y-49798371D01*
X41631986Y-49783164D01*
X41609167Y-49766666D01*
X41608887Y-49766358D01*
X41546270Y-49716906D01*
X41431177Y-49626011D01*
X41431172Y-49626008D01*
X41427123Y-49622810D01*
X41422607Y-49620317D01*
X41422604Y-49620315D01*
X41228879Y-49513373D01*
X41228875Y-49513371D01*
X41224355Y-49510876D01*
X41219486Y-49509152D01*
X41219482Y-49509150D01*
X41010903Y-49435288D01*
X41010899Y-49435287D01*
X41006028Y-49433562D01*
X41000935Y-49432655D01*
X41000932Y-49432654D01*
X40783095Y-49393851D01*
X40783089Y-49393850D01*
X40778006Y-49392945D01*
X40705096Y-49392054D01*
X40551581Y-49390179D01*
X40551579Y-49390179D01*
X40546411Y-49390116D01*
X40317464Y-49425150D01*
X40097314Y-49497106D01*
X40092726Y-49499494D01*
X40092722Y-49499496D01*
X39928991Y-49584729D01*
X39891872Y-49604052D01*
X39887739Y-49607155D01*
X39887736Y-49607157D01*
X39736016Y-49721072D01*
X39706655Y-49743117D01*
X39546639Y-49910564D01*
X39416119Y-50101899D01*
X39318602Y-50311981D01*
X39256707Y-50535169D01*
X39232095Y-50765469D01*
X39245427Y-50996697D01*
X39246566Y-51001750D01*
X39246566Y-51001752D01*
X39279477Y-51147791D01*
X39279920Y-51201149D01*
X39265514Y-51270411D01*
X39264544Y-51274696D01*
X39247192Y-51345610D01*
X39246500Y-51356764D01*
X39246464Y-51356762D01*
X39246225Y-51360755D01*
X39245851Y-51364947D01*
X39244360Y-51372115D01*
X39244558Y-51379432D01*
X39246454Y-51449521D01*
X39246500Y-51452928D01*
X39246500Y-52847481D01*
X39226498Y-52915602D01*
X39172842Y-52962095D01*
X39102568Y-52972199D01*
X39085348Y-52968478D01*
X38995011Y-52942233D01*
X38995007Y-52942232D01*
X38988831Y-52940438D01*
X38982426Y-52939934D01*
X38982421Y-52939933D01*
X38953958Y-52937693D01*
X38953950Y-52937693D01*
X38951502Y-52937500D01*
X38518498Y-52937500D01*
X38516050Y-52937693D01*
X38516042Y-52937693D01*
X38487579Y-52939933D01*
X38487574Y-52939934D01*
X38481169Y-52940438D01*
X38404804Y-52962624D01*
X38329012Y-52984643D01*
X38329010Y-52984644D01*
X38321399Y-52986855D01*
X38314572Y-52990892D01*
X38314573Y-52990892D01*
X38185020Y-53067509D01*
X38185017Y-53067511D01*
X38178193Y-53071547D01*
X38170645Y-53079095D01*
X38168751Y-53080129D01*
X38166325Y-53082011D01*
X38166021Y-53081620D01*
X38108333Y-53113121D01*
X38081550Y-53116000D01*
X36700288Y-53116000D01*
X36632167Y-53095998D01*
X36611271Y-53079173D01*
X36522188Y-52990246D01*
X36522183Y-52990242D01*
X36517003Y-52985071D01*
X36496121Y-52972199D01*
X36375150Y-52897631D01*
X36375148Y-52897630D01*
X36368920Y-52893791D01*
X36203809Y-52839026D01*
X36196973Y-52838326D01*
X36196970Y-52838325D01*
X36145474Y-52833049D01*
X36101072Y-52828500D01*
X35526928Y-52828500D01*
X35523682Y-52828837D01*
X35523678Y-52828837D01*
X35429765Y-52838581D01*
X35429761Y-52838582D01*
X35422907Y-52839293D01*
X35416371Y-52841474D01*
X35416369Y-52841474D01*
X35283605Y-52885768D01*
X35257893Y-52894346D01*
X35109969Y-52985884D01*
X35104796Y-52991066D01*
X35104791Y-52991070D01*
X35016998Y-53079017D01*
X34954716Y-53113097D01*
X34927825Y-53116000D01*
X33949570Y-53116000D01*
X33930620Y-53114567D01*
X33916385Y-53112401D01*
X33916381Y-53112401D01*
X33909151Y-53111301D01*
X33901859Y-53111894D01*
X33901856Y-53111894D01*
X33856482Y-53115585D01*
X33846267Y-53116000D01*
X33838207Y-53116000D01*
X33834573Y-53116424D01*
X33834567Y-53116424D01*
X33821542Y-53117943D01*
X33809980Y-53119291D01*
X33805632Y-53119721D01*
X33732864Y-53125640D01*
X33725903Y-53127895D01*
X33719963Y-53129082D01*
X33714088Y-53130471D01*
X33706819Y-53131318D01*
X33638170Y-53156236D01*
X33634042Y-53157653D01*
X33571564Y-53177893D01*
X33571562Y-53177894D01*
X33564601Y-53180149D01*
X33558346Y-53183945D01*
X33552872Y-53186451D01*
X33547442Y-53189170D01*
X33540563Y-53191667D01*
X33534443Y-53195680D01*
X33534442Y-53195680D01*
X33479524Y-53231686D01*
X33475820Y-53234023D01*
X33413393Y-53271905D01*
X33405016Y-53279303D01*
X33404992Y-53279276D01*
X33402000Y-53281929D01*
X33398767Y-53284632D01*
X33392648Y-53288644D01*
X33366884Y-53315841D01*
X33339372Y-53344883D01*
X33336994Y-53347325D01*
X32760844Y-53923475D01*
X32698532Y-53957501D01*
X32627717Y-53952436D01*
X32570881Y-53909889D01*
X32546070Y-53843369D01*
X32547991Y-53815614D01*
X32547244Y-53815508D01*
X32587146Y-53535138D01*
X32587146Y-53535136D01*
X32587751Y-53530886D01*
X32587783Y-53524928D01*
X32589235Y-53247685D01*
X32589235Y-53247678D01*
X32589257Y-53243399D01*
X32587874Y-53232890D01*
X32560396Y-53024181D01*
X32551732Y-52958368D01*
X32535273Y-52898202D01*
X32521397Y-52847481D01*
X32475871Y-52681066D01*
X32383749Y-52465091D01*
X32364763Y-52420578D01*
X32364761Y-52420574D01*
X32363077Y-52416626D01*
X32260603Y-52245405D01*
X32217643Y-52173623D01*
X32217640Y-52173619D01*
X32215439Y-52169941D01*
X32035687Y-51945574D01*
X31827149Y-51747679D01*
X31593683Y-51579916D01*
X31571843Y-51568352D01*
X31548654Y-51556074D01*
X31339608Y-51445390D01*
X31069627Y-51346591D01*
X30788736Y-51285347D01*
X30757685Y-51282903D01*
X30565718Y-51267795D01*
X30565709Y-51267795D01*
X30563261Y-51267602D01*
X30407729Y-51267602D01*
X30405593Y-51267748D01*
X30405582Y-51267748D01*
X30197452Y-51281937D01*
X30197446Y-51281938D01*
X30193175Y-51282229D01*
X30188980Y-51283098D01*
X30188978Y-51283098D01*
X30095922Y-51302369D01*
X29911658Y-51340528D01*
X29640657Y-51436495D01*
X29385188Y-51568352D01*
X29381687Y-51570813D01*
X29381683Y-51570815D01*
X29371594Y-51577906D01*
X29149977Y-51733661D01*
X28939378Y-51929362D01*
X28757287Y-52151834D01*
X28607073Y-52396960D01*
X28491517Y-52660204D01*
X28490342Y-52664331D01*
X28490341Y-52664332D01*
X28471923Y-52728988D01*
X28412756Y-52936696D01*
X28372249Y-53221318D01*
X28372227Y-53225607D01*
X28372226Y-53225614D01*
X28370765Y-53504519D01*
X28370743Y-53508805D01*
X28371302Y-53513049D01*
X28371302Y-53513053D01*
X28373084Y-53526590D01*
X28408268Y-53793836D01*
X28484129Y-54071138D01*
X28596923Y-54335578D01*
X28744561Y-54582263D01*
X28924313Y-54806630D01*
X28999966Y-54878422D01*
X29124026Y-54996150D01*
X29132851Y-55004525D01*
X29308383Y-55130658D01*
X29355105Y-55164231D01*
X29366317Y-55172288D01*
X29620392Y-55306814D01*
X29738207Y-55349928D01*
X29811302Y-55376677D01*
X29890373Y-55405613D01*
X30171264Y-55466857D01*
X30199841Y-55469106D01*
X30394282Y-55484409D01*
X30394291Y-55484409D01*
X30396739Y-55484602D01*
X30552271Y-55484602D01*
X30554407Y-55484456D01*
X30554418Y-55484456D01*
X30762548Y-55470267D01*
X30762554Y-55470266D01*
X30766825Y-55469975D01*
X30771020Y-55469106D01*
X30771022Y-55469106D01*
X30918665Y-55438531D01*
X30989427Y-55444304D01*
X31045834Y-55487416D01*
X31069979Y-55554181D01*
X31054194Y-55623401D01*
X31033311Y-55651008D01*
X29394961Y-57289358D01*
X29332649Y-57323384D01*
X29261834Y-57318319D01*
X29205040Y-57275828D01*
X29158642Y-57213919D01*
X29153261Y-57206739D01*
X29036705Y-57119385D01*
X28900316Y-57068255D01*
X28838134Y-57061500D01*
X27041866Y-57061500D01*
X26979684Y-57068255D01*
X26843295Y-57119385D01*
X26726739Y-57206739D01*
X26639385Y-57323295D01*
X26588255Y-57459684D01*
X26581500Y-57521866D01*
X26581500Y-59318134D01*
X26588255Y-59380316D01*
X26639385Y-59516705D01*
X26726739Y-59633261D01*
X26843295Y-59720615D01*
X26851704Y-59723767D01*
X26851705Y-59723768D01*
X26960451Y-59764535D01*
X27017216Y-59807176D01*
X27041916Y-59873738D01*
X27026709Y-59943087D01*
X27007316Y-59969568D01*
X26950044Y-60029500D01*
X26880629Y-60102138D01*
X26877715Y-60106410D01*
X26877714Y-60106411D01*
X26811400Y-60203624D01*
X26754743Y-60286680D01*
X26744753Y-60308202D01*
X26671308Y-60466427D01*
X26660688Y-60489305D01*
X26600989Y-60704570D01*
X26577251Y-60926695D01*
X26577548Y-60931848D01*
X26577548Y-60931851D01*
X26585689Y-61073048D01*
X26590110Y-61149715D01*
X26591247Y-61154761D01*
X26591248Y-61154767D01*
X26609198Y-61234414D01*
X26639222Y-61367639D01*
X26694599Y-61504018D01*
X26721280Y-61569724D01*
X26723266Y-61574616D01*
X26759609Y-61633922D01*
X26830926Y-61750301D01*
X26839987Y-61765088D01*
X26986250Y-61933938D01*
X27158126Y-62076632D01*
X27214832Y-62109768D01*
X27231445Y-62119476D01*
X27280169Y-62171114D01*
X27293240Y-62240897D01*
X27266509Y-62306669D01*
X27226055Y-62340027D01*
X27213607Y-62346507D01*
X27209474Y-62349610D01*
X27209471Y-62349612D01*
X27039100Y-62477530D01*
X27034965Y-62480635D01*
X26880629Y-62642138D01*
X26754743Y-62826680D01*
X26707716Y-62927992D01*
X26675391Y-62997631D01*
X26660688Y-63029305D01*
X26600989Y-63244570D01*
X26577251Y-63466695D01*
X26577548Y-63471848D01*
X26577548Y-63471851D01*
X26587076Y-63637093D01*
X26590110Y-63689715D01*
X26591247Y-63694761D01*
X26591248Y-63694767D01*
X26604238Y-63752407D01*
X26639222Y-63907639D01*
X26694798Y-64044508D01*
X26720591Y-64108027D01*
X26723266Y-64114616D01*
X26761499Y-64177006D01*
X26834784Y-64296597D01*
X26839987Y-64305088D01*
X26986250Y-64473938D01*
X27158126Y-64616632D01*
X27184172Y-64631852D01*
X27231955Y-64659774D01*
X27280679Y-64711412D01*
X27293750Y-64781195D01*
X27267019Y-64846967D01*
X27226562Y-64880327D01*
X27218457Y-64884546D01*
X27209738Y-64890036D01*
X27039433Y-65017905D01*
X27031726Y-65024748D01*
X26884590Y-65178717D01*
X26878104Y-65186727D01*
X26758098Y-65362649D01*
X26753000Y-65371623D01*
X26663338Y-65564783D01*
X26659775Y-65574470D01*
X26604389Y-65774183D01*
X26605912Y-65782607D01*
X26618292Y-65786000D01*
X29258344Y-65786000D01*
X29271875Y-65782027D01*
X29273180Y-65772947D01*
X29231214Y-65605875D01*
X29227894Y-65596124D01*
X29142972Y-65400814D01*
X29138105Y-65391739D01*
X29022426Y-65212926D01*
X29016136Y-65204757D01*
X28872806Y-65047240D01*
X28865273Y-65040215D01*
X28698139Y-64908222D01*
X28689556Y-64902520D01*
X28652602Y-64882120D01*
X28602631Y-64831687D01*
X28587859Y-64762245D01*
X28612975Y-64695839D01*
X28640324Y-64669234D01*
X28727634Y-64606957D01*
X28794705Y-64583685D01*
X28863713Y-64600368D01*
X28906377Y-64645610D01*
X28908167Y-64644437D01*
X28948186Y-64705476D01*
X28950523Y-64709180D01*
X28988405Y-64771607D01*
X28992121Y-64775815D01*
X28992122Y-64775816D01*
X28995803Y-64779984D01*
X28995776Y-64780008D01*
X28998429Y-64783000D01*
X29001132Y-64786233D01*
X29005144Y-64792352D01*
X29021631Y-64807970D01*
X29061383Y-64845628D01*
X29063825Y-64848006D01*
X29767595Y-65551776D01*
X29801621Y-65614088D01*
X29804500Y-65640871D01*
X29804500Y-66287400D01*
X29815474Y-66393166D01*
X29871450Y-66560946D01*
X29964522Y-66711348D01*
X29999255Y-66746020D01*
X30066518Y-66813166D01*
X30100597Y-66875448D01*
X30103500Y-66902339D01*
X30103500Y-68571487D01*
X30095482Y-68615716D01*
X30064107Y-68699410D01*
X30060255Y-68709684D01*
X30059402Y-68717532D01*
X30059402Y-68717534D01*
X30058980Y-68721422D01*
X30053500Y-68771866D01*
X30053500Y-70168134D01*
X30060255Y-70230316D01*
X30111385Y-70366705D01*
X30198739Y-70483261D01*
X30315295Y-70570615D01*
X30451684Y-70621745D01*
X30513866Y-70628500D01*
X31005771Y-70628500D01*
X31073892Y-70648502D01*
X31120385Y-70702158D01*
X31131771Y-70754500D01*
X31131771Y-73420000D01*
X31137000Y-73493111D01*
X31157249Y-73562072D01*
X31173374Y-73616988D01*
X31178196Y-73633411D01*
X31183067Y-73640990D01*
X31252378Y-73748841D01*
X31252380Y-73748844D01*
X31257250Y-73756421D01*
X31264060Y-73762322D01*
X31360945Y-73846274D01*
X31360948Y-73846276D01*
X31367757Y-73852176D01*
X31375954Y-73855920D01*
X31375955Y-73855920D01*
X31417417Y-73874855D01*
X31500766Y-73912919D01*
X31645500Y-73933729D01*
X33378500Y-73933729D01*
X33410486Y-73931441D01*
X33444873Y-73928982D01*
X33444874Y-73928982D01*
X33451611Y-73928500D01*
X33540618Y-73902365D01*
X33583265Y-73889843D01*
X33583267Y-73889842D01*
X33591911Y-73887304D01*
X33642172Y-73855003D01*
X33707341Y-73813122D01*
X33707344Y-73813120D01*
X33714921Y-73808250D01*
X33736562Y-73783275D01*
X33804774Y-73704555D01*
X33804776Y-73704552D01*
X33810676Y-73697743D01*
X33871419Y-73564734D01*
X33892229Y-73420000D01*
X33892229Y-70609884D01*
X34266000Y-70609884D01*
X34270475Y-70625123D01*
X34271865Y-70626328D01*
X34279548Y-70627999D01*
X34506669Y-70627999D01*
X34513490Y-70627629D01*
X34564352Y-70622105D01*
X34579604Y-70618479D01*
X34700054Y-70573324D01*
X34715649Y-70564786D01*
X34817724Y-70488285D01*
X34830285Y-70475724D01*
X34906786Y-70373649D01*
X34915324Y-70358054D01*
X34960478Y-70237606D01*
X34964105Y-70222351D01*
X34969631Y-70171486D01*
X34970000Y-70164672D01*
X34970000Y-69742115D01*
X34965525Y-69726876D01*
X34964135Y-69725671D01*
X34956452Y-69724000D01*
X34284115Y-69724000D01*
X34268876Y-69728475D01*
X34267671Y-69729865D01*
X34266000Y-69737548D01*
X34266000Y-70609884D01*
X33892229Y-70609884D01*
X33892229Y-70295000D01*
X33887000Y-70221889D01*
X33859100Y-70126870D01*
X33848343Y-70090235D01*
X33848342Y-70090233D01*
X33845804Y-70081589D01*
X33838968Y-70070951D01*
X33778002Y-69976087D01*
X33758000Y-69907966D01*
X33758000Y-69410385D01*
X36409000Y-69410385D01*
X36413475Y-69425624D01*
X36414865Y-69426829D01*
X36422548Y-69428500D01*
X37319885Y-69428500D01*
X37335124Y-69424025D01*
X37336329Y-69422635D01*
X37338000Y-69414952D01*
X37338000Y-69410385D01*
X37846000Y-69410385D01*
X37850475Y-69425624D01*
X37851865Y-69426829D01*
X37859548Y-69428500D01*
X38756884Y-69428500D01*
X38772123Y-69424025D01*
X38773328Y-69422635D01*
X38774999Y-69414952D01*
X38774999Y-69410385D01*
X39711000Y-69410385D01*
X39715475Y-69425624D01*
X39716865Y-69426829D01*
X39724548Y-69428500D01*
X40621885Y-69428500D01*
X40637124Y-69424025D01*
X40638329Y-69422635D01*
X40640000Y-69414952D01*
X40640000Y-68405116D01*
X40635525Y-68389877D01*
X40634135Y-68388672D01*
X40626452Y-68387001D01*
X40421905Y-68387001D01*
X40415386Y-68387338D01*
X40319794Y-68397257D01*
X40306400Y-68400149D01*
X40152216Y-68451588D01*
X40139038Y-68457761D01*
X40001193Y-68543063D01*
X39989792Y-68552099D01*
X39875261Y-68666829D01*
X39866249Y-68678240D01*
X39781184Y-68816243D01*
X39775037Y-68829424D01*
X39723862Y-68983710D01*
X39720995Y-68997086D01*
X39711328Y-69091438D01*
X39711000Y-69097855D01*
X39711000Y-69410385D01*
X38774999Y-69410385D01*
X38774999Y-69097905D01*
X38774662Y-69091386D01*
X38764743Y-68995794D01*
X38761851Y-68982400D01*
X38710412Y-68828216D01*
X38704239Y-68815038D01*
X38618937Y-68677193D01*
X38609901Y-68665792D01*
X38495171Y-68551261D01*
X38483760Y-68542249D01*
X38345757Y-68457184D01*
X38332576Y-68451037D01*
X38178290Y-68399862D01*
X38164914Y-68396995D01*
X38070562Y-68387328D01*
X38064145Y-68387000D01*
X37864115Y-68387000D01*
X37848876Y-68391475D01*
X37847671Y-68392865D01*
X37846000Y-68400548D01*
X37846000Y-69410385D01*
X37338000Y-69410385D01*
X37338000Y-68405116D01*
X37333525Y-68389877D01*
X37332135Y-68388672D01*
X37324452Y-68387001D01*
X37119905Y-68387001D01*
X37113386Y-68387338D01*
X37017794Y-68397257D01*
X37004400Y-68400149D01*
X36850216Y-68451588D01*
X36837038Y-68457761D01*
X36699193Y-68543063D01*
X36687792Y-68552099D01*
X36573261Y-68666829D01*
X36564249Y-68678240D01*
X36479184Y-68816243D01*
X36473037Y-68829424D01*
X36421862Y-68983710D01*
X36418995Y-68997086D01*
X36409328Y-69091438D01*
X36409000Y-69097855D01*
X36409000Y-69410385D01*
X33758000Y-69410385D01*
X33758000Y-69197885D01*
X34266000Y-69197885D01*
X34270475Y-69213124D01*
X34271865Y-69214329D01*
X34279548Y-69216000D01*
X34951884Y-69216000D01*
X34967123Y-69211525D01*
X34968328Y-69210135D01*
X34969999Y-69202452D01*
X34969999Y-68775331D01*
X34969629Y-68768510D01*
X34964105Y-68717648D01*
X34960479Y-68702396D01*
X34915324Y-68581946D01*
X34906786Y-68566351D01*
X34830285Y-68464276D01*
X34817724Y-68451715D01*
X34715649Y-68375214D01*
X34700054Y-68366676D01*
X34579606Y-68321522D01*
X34564351Y-68317895D01*
X34513486Y-68312369D01*
X34506672Y-68312000D01*
X34284115Y-68312000D01*
X34268876Y-68316475D01*
X34267671Y-68317865D01*
X34266000Y-68325548D01*
X34266000Y-69197885D01*
X33758000Y-69197885D01*
X33758000Y-68330116D01*
X33753525Y-68314877D01*
X33752135Y-68313672D01*
X33744452Y-68312001D01*
X33517325Y-68312001D01*
X33507351Y-68312541D01*
X33438248Y-68296251D01*
X33388923Y-68245187D01*
X33377500Y-68198761D01*
X33375229Y-68199000D01*
X33357055Y-68026089D01*
X33357055Y-68026088D01*
X33356365Y-68019525D01*
X33352515Y-68007674D01*
X33302641Y-67854178D01*
X33300599Y-67847893D01*
X33210367Y-67691607D01*
X33131883Y-67604441D01*
X33094035Y-67562407D01*
X33094034Y-67562406D01*
X33089613Y-67557496D01*
X33072745Y-67545240D01*
X32948957Y-67455303D01*
X32948956Y-67455302D01*
X32943615Y-67451422D01*
X32937587Y-67448738D01*
X32937585Y-67448737D01*
X32784783Y-67380705D01*
X32784781Y-67380705D01*
X32778752Y-67378020D01*
X32690492Y-67359260D01*
X32608689Y-67341872D01*
X32608685Y-67341872D01*
X32602232Y-67340500D01*
X32421768Y-67340500D01*
X32415315Y-67341872D01*
X32415311Y-67341872D01*
X32333508Y-67359260D01*
X32245248Y-67378020D01*
X32239219Y-67380704D01*
X32239217Y-67380705D01*
X32097749Y-67443691D01*
X32027382Y-67453125D01*
X31963085Y-67423019D01*
X31925271Y-67362930D01*
X31920500Y-67328584D01*
X31920500Y-66854395D01*
X31940502Y-66786274D01*
X31957327Y-66765377D01*
X32007134Y-66715483D01*
X32012305Y-66710303D01*
X32016148Y-66704069D01*
X32038454Y-66667883D01*
X32091226Y-66620390D01*
X32145713Y-66608000D01*
X33386366Y-66608000D01*
X33454487Y-66628002D01*
X33493509Y-66667696D01*
X33520522Y-66711348D01*
X33645697Y-66836305D01*
X33651927Y-66840145D01*
X33651928Y-66840146D01*
X33789090Y-66924694D01*
X33796262Y-66929115D01*
X33876005Y-66955564D01*
X33957611Y-66982632D01*
X33957613Y-66982632D01*
X33964139Y-66984797D01*
X33970975Y-66985497D01*
X33970978Y-66985498D01*
X34014031Y-66989909D01*
X34068600Y-66995500D01*
X35019400Y-66995500D01*
X35022646Y-66995163D01*
X35022650Y-66995163D01*
X35118308Y-66985238D01*
X35118312Y-66985237D01*
X35125166Y-66984526D01*
X35131702Y-66982345D01*
X35131704Y-66982345D01*
X35263806Y-66938272D01*
X35292946Y-66928550D01*
X35443348Y-66835478D01*
X35568305Y-66710303D01*
X35619036Y-66628002D01*
X35657275Y-66565968D01*
X35657276Y-66565966D01*
X35661115Y-66559738D01*
X35716797Y-66391861D01*
X35727500Y-66287400D01*
X35727500Y-65664951D01*
X35747502Y-65596830D01*
X35801158Y-65550337D01*
X35871432Y-65540233D01*
X35936012Y-65569727D01*
X35942595Y-65575855D01*
X36306345Y-65939604D01*
X36314335Y-65948385D01*
X36318584Y-65955080D01*
X36324362Y-65960506D01*
X36324363Y-65960507D01*
X36370273Y-66003619D01*
X36373115Y-66006374D01*
X36393667Y-66026926D01*
X36396801Y-66029357D01*
X36397163Y-66029638D01*
X36406191Y-66037348D01*
X36439867Y-66068972D01*
X36446818Y-66072793D01*
X36446819Y-66072794D01*
X36458655Y-66079301D01*
X36475184Y-66090158D01*
X36485869Y-66098447D01*
X36485871Y-66098448D01*
X36492131Y-66103304D01*
X36534544Y-66121657D01*
X36545181Y-66126868D01*
X36585663Y-66149124D01*
X36593342Y-66151096D01*
X36593343Y-66151096D01*
X36606434Y-66154457D01*
X36625136Y-66160859D01*
X36644823Y-66169379D01*
X36652652Y-66170619D01*
X36690448Y-66176605D01*
X36702074Y-66179013D01*
X36739135Y-66188529D01*
X36739136Y-66188529D01*
X36746812Y-66190500D01*
X36768258Y-66190500D01*
X36787968Y-66192051D01*
X36809151Y-66195406D01*
X36855135Y-66191059D01*
X36866994Y-66190500D01*
X42232444Y-66190500D01*
X42244300Y-66191059D01*
X42244303Y-66191059D01*
X42252037Y-66192788D01*
X42322869Y-66190562D01*
X42326827Y-66190500D01*
X42355932Y-66190500D01*
X42360332Y-66189944D01*
X42372164Y-66189012D01*
X42418331Y-66187562D01*
X42438921Y-66181580D01*
X42458282Y-66177570D01*
X42465924Y-66176605D01*
X42471704Y-66175875D01*
X42471705Y-66175875D01*
X42479564Y-66174882D01*
X42486929Y-66171966D01*
X42486933Y-66171965D01*
X42522521Y-66157874D01*
X42533731Y-66154035D01*
X42578100Y-66141145D01*
X42596565Y-66130225D01*
X42614305Y-66121534D01*
X42634256Y-66113635D01*
X42671629Y-66086482D01*
X42681548Y-66079967D01*
X42714477Y-66060493D01*
X42714481Y-66060490D01*
X42721307Y-66056453D01*
X42736471Y-66041289D01*
X42751505Y-66028448D01*
X42759547Y-66022605D01*
X45072061Y-66022605D01*
X45072101Y-66036706D01*
X45079370Y-66040000D01*
X46274885Y-66040000D01*
X46290124Y-66035525D01*
X46291329Y-66034135D01*
X46293000Y-66026452D01*
X46293000Y-66021885D01*
X46801000Y-66021885D01*
X46805475Y-66037124D01*
X46806865Y-66038329D01*
X46814548Y-66040000D01*
X48008878Y-66040000D01*
X48022409Y-66036027D01*
X48023544Y-66028129D01*
X47982893Y-65888210D01*
X47976648Y-65873779D01*
X47900089Y-65744322D01*
X47890449Y-65731896D01*
X47784104Y-65625551D01*
X47771678Y-65615911D01*
X47642221Y-65539352D01*
X47627790Y-65533107D01*
X47481935Y-65490731D01*
X47469333Y-65488430D01*
X47440916Y-65486193D01*
X47435986Y-65486000D01*
X46819115Y-65486000D01*
X46803876Y-65490475D01*
X46802671Y-65491865D01*
X46801000Y-65499548D01*
X46801000Y-66021885D01*
X46293000Y-66021885D01*
X46293000Y-65504116D01*
X46288525Y-65488877D01*
X46287135Y-65487672D01*
X46279452Y-65486001D01*
X45658017Y-65486001D01*
X45653080Y-65486195D01*
X45624664Y-65488430D01*
X45612069Y-65490730D01*
X45466210Y-65533107D01*
X45451779Y-65539352D01*
X45322322Y-65615911D01*
X45309896Y-65625551D01*
X45203551Y-65731896D01*
X45193911Y-65744322D01*
X45117352Y-65873779D01*
X45111107Y-65888210D01*
X45072061Y-66022605D01*
X42759547Y-66022605D01*
X42762443Y-66020501D01*
X42768857Y-66015841D01*
X42798303Y-65980247D01*
X42806292Y-65971468D01*
X43332355Y-65445405D01*
X43394667Y-65411379D01*
X43421450Y-65408500D01*
X43721072Y-65408500D01*
X43724318Y-65408163D01*
X43724322Y-65408163D01*
X43818235Y-65398419D01*
X43818239Y-65398418D01*
X43825093Y-65397707D01*
X43831629Y-65395526D01*
X43831631Y-65395526D01*
X43983159Y-65344972D01*
X43990107Y-65342654D01*
X44138031Y-65251116D01*
X44143204Y-65245934D01*
X44255758Y-65133184D01*
X44255762Y-65133179D01*
X44260929Y-65128003D01*
X44302215Y-65061025D01*
X44348369Y-64986150D01*
X44348370Y-64986148D01*
X44352209Y-64979920D01*
X44406974Y-64814809D01*
X44408508Y-64799842D01*
X44416975Y-64717197D01*
X44417500Y-64712072D01*
X44417500Y-64412450D01*
X44437502Y-64344329D01*
X44454405Y-64323355D01*
X44857605Y-63920155D01*
X44866385Y-63912165D01*
X44866387Y-63912163D01*
X44873080Y-63907916D01*
X44921605Y-63856242D01*
X44924359Y-63853401D01*
X44944927Y-63832833D01*
X44947647Y-63829326D01*
X44955353Y-63820304D01*
X44981546Y-63792411D01*
X44986972Y-63786633D01*
X44990791Y-63779687D01*
X44994538Y-63774529D01*
X45050760Y-63731175D01*
X45121496Y-63725100D01*
X45184288Y-63758231D01*
X45210575Y-63795139D01*
X45216655Y-63808118D01*
X45300426Y-63943492D01*
X45309460Y-63954890D01*
X45422129Y-64067363D01*
X45433540Y-64076375D01*
X45569063Y-64159912D01*
X45582241Y-64166056D01*
X45733766Y-64216315D01*
X45747132Y-64219181D01*
X45839770Y-64228672D01*
X45846185Y-64229000D01*
X45920385Y-64229000D01*
X45935624Y-64224525D01*
X45936829Y-64223135D01*
X45938500Y-64215452D01*
X45938500Y-62281115D01*
X45934025Y-62265876D01*
X45932635Y-62264671D01*
X45924952Y-62263000D01*
X45846234Y-62263000D01*
X45839718Y-62263337D01*
X45745868Y-62273075D01*
X45732472Y-62275968D01*
X45581047Y-62326488D01*
X45567885Y-62332653D01*
X45432508Y-62416426D01*
X45421110Y-62425460D01*
X45323673Y-62523067D01*
X45261391Y-62557146D01*
X45190570Y-62552143D01*
X45133698Y-62509646D01*
X45108829Y-62443147D01*
X45108500Y-62434049D01*
X45108500Y-62300950D01*
X45128502Y-62232829D01*
X45145405Y-62211855D01*
X47075354Y-60281905D01*
X47137666Y-60247880D01*
X47164449Y-60245000D01*
X47328060Y-60245000D01*
X47396181Y-60265002D01*
X47426806Y-60292736D01*
X47430032Y-60296806D01*
X47433884Y-60303031D01*
X47439064Y-60308202D01*
X47551816Y-60420758D01*
X47551819Y-60420760D01*
X47556997Y-60425929D01*
X47563227Y-60429769D01*
X47563228Y-60429770D01*
X47696612Y-60511989D01*
X47705080Y-60517209D01*
X47870191Y-60571974D01*
X47877027Y-60572674D01*
X47877030Y-60572675D01*
X47928526Y-60577951D01*
X47972928Y-60582500D01*
X48547072Y-60582500D01*
X48550318Y-60582163D01*
X48550322Y-60582163D01*
X48644235Y-60572419D01*
X48644239Y-60572418D01*
X48651093Y-60571707D01*
X48657629Y-60569526D01*
X48657631Y-60569526D01*
X48794301Y-60523929D01*
X48816107Y-60516654D01*
X48822336Y-60512800D01*
X48824066Y-60511989D01*
X48894239Y-60501203D01*
X48945309Y-60523929D01*
X48940664Y-60480138D01*
X48975457Y-60413670D01*
X49081758Y-60307184D01*
X49081762Y-60307179D01*
X49086929Y-60302003D01*
X49122066Y-60245000D01*
X49174369Y-60160150D01*
X49174370Y-60160148D01*
X49178209Y-60153920D01*
X49232974Y-59988809D01*
X49233775Y-59980996D01*
X49242281Y-59897971D01*
X49243500Y-59886072D01*
X49243500Y-59586450D01*
X49263502Y-59518329D01*
X49280405Y-59497355D01*
X50301949Y-58475811D01*
X50364261Y-58441785D01*
X50435076Y-58446850D01*
X50480232Y-58479685D01*
X50481884Y-58478031D01*
X50588786Y-58584747D01*
X50622865Y-58647030D01*
X50617862Y-58717850D01*
X50588941Y-58762937D01*
X50486246Y-58865812D01*
X50486242Y-58865817D01*
X50481071Y-58870997D01*
X50477231Y-58877227D01*
X50477230Y-58877228D01*
X50394364Y-59011662D01*
X50389791Y-59019080D01*
X50335026Y-59184191D01*
X50324500Y-59286928D01*
X50324500Y-59886072D01*
X50324837Y-59889318D01*
X50324837Y-59889322D01*
X50333119Y-59969138D01*
X50335293Y-59990093D01*
X50390346Y-60155107D01*
X50481884Y-60303031D01*
X50487064Y-60308202D01*
X50487066Y-60308204D01*
X50519245Y-60340327D01*
X50553324Y-60402610D01*
X50548321Y-60473430D01*
X50505824Y-60530302D01*
X50439325Y-60555171D01*
X50430227Y-60555500D01*
X49485056Y-60555500D01*
X49473200Y-60554941D01*
X49473197Y-60554941D01*
X49465463Y-60553212D01*
X49410446Y-60554941D01*
X49394631Y-60555438D01*
X49390673Y-60555500D01*
X49361568Y-60555500D01*
X49357168Y-60556056D01*
X49345336Y-60556988D01*
X49299169Y-60558438D01*
X49278579Y-60564420D01*
X49259218Y-60568430D01*
X49252230Y-60569312D01*
X49245796Y-60570125D01*
X49245795Y-60570125D01*
X49237936Y-60571118D01*
X49230571Y-60574034D01*
X49230567Y-60574035D01*
X49194979Y-60588126D01*
X49183769Y-60591965D01*
X49139400Y-60604855D01*
X49132577Y-60608890D01*
X49132575Y-60608891D01*
X49128768Y-60611142D01*
X49125393Y-60611998D01*
X49125299Y-60612039D01*
X49125292Y-60612024D01*
X49059952Y-60628601D01*
X48998245Y-60607965D01*
X48998754Y-60660412D01*
X48960952Y-60720508D01*
X48956973Y-60723699D01*
X48955055Y-60725501D01*
X48948643Y-60730159D01*
X48925837Y-60757727D01*
X48919198Y-60765752D01*
X48911208Y-60774533D01*
X48614391Y-61071349D01*
X48605612Y-61079337D01*
X48598920Y-61083584D01*
X48593495Y-61089361D01*
X48550395Y-61135258D01*
X48547640Y-61138100D01*
X48527073Y-61158667D01*
X48524356Y-61162170D01*
X48516648Y-61171195D01*
X48485028Y-61204867D01*
X48481207Y-61211818D01*
X48481206Y-61211819D01*
X48474697Y-61223658D01*
X48463843Y-61240182D01*
X48456217Y-61250015D01*
X48450696Y-61257132D01*
X48447549Y-61264404D01*
X48447548Y-61264406D01*
X48432346Y-61299535D01*
X48427124Y-61310195D01*
X48424584Y-61314816D01*
X48404876Y-61350663D01*
X48399541Y-61371441D01*
X48393142Y-61390131D01*
X48384620Y-61409824D01*
X48383380Y-61417655D01*
X48377394Y-61455448D01*
X48374987Y-61467071D01*
X48372779Y-61475671D01*
X48363500Y-61511812D01*
X48363500Y-61533259D01*
X48361949Y-61552969D01*
X48359296Y-61569722D01*
X48359295Y-61569724D01*
X48358728Y-61573304D01*
X48358594Y-61574152D01*
X48357880Y-61574039D01*
X48337642Y-61635727D01*
X48282554Y-61680513D01*
X48211997Y-61688406D01*
X48182585Y-61679419D01*
X48151787Y-61665706D01*
X48151779Y-61665703D01*
X48145752Y-61663020D01*
X48047490Y-61642134D01*
X47975689Y-61626872D01*
X47975685Y-61626872D01*
X47969232Y-61625500D01*
X47788768Y-61625500D01*
X47782315Y-61626872D01*
X47782311Y-61626872D01*
X47710510Y-61642134D01*
X47612248Y-61663020D01*
X47606219Y-61665704D01*
X47606217Y-61665705D01*
X47453416Y-61733737D01*
X47453414Y-61733738D01*
X47447386Y-61736422D01*
X47442045Y-61740302D01*
X47442044Y-61740303D01*
X47306731Y-61838613D01*
X47306729Y-61838615D01*
X47301387Y-61842496D01*
X47296966Y-61847406D01*
X47296965Y-61847407D01*
X47190184Y-61966000D01*
X47180633Y-61976607D01*
X47145718Y-62037081D01*
X47121377Y-62079242D01*
X47090401Y-62132893D01*
X47088359Y-62139178D01*
X47040204Y-62287384D01*
X47000131Y-62345990D01*
X46934734Y-62373627D01*
X46864777Y-62361520D01*
X46854255Y-62355708D01*
X46815937Y-62332088D01*
X46802759Y-62325944D01*
X46651234Y-62275685D01*
X46637868Y-62272819D01*
X46545230Y-62263328D01*
X46538815Y-62263000D01*
X46464615Y-62263000D01*
X46449376Y-62267475D01*
X46448171Y-62268865D01*
X46446500Y-62276548D01*
X46446500Y-64210885D01*
X46450975Y-64226124D01*
X46452365Y-64227329D01*
X46460048Y-64229000D01*
X46538766Y-64229000D01*
X46545282Y-64228663D01*
X46639132Y-64218925D01*
X46652528Y-64216032D01*
X46803953Y-64165512D01*
X46817115Y-64159347D01*
X46952492Y-64075574D01*
X46963894Y-64066536D01*
X46965567Y-64064861D01*
X46966993Y-64064081D01*
X46969627Y-64061993D01*
X46969984Y-64062444D01*
X47027849Y-64030781D01*
X47098669Y-64035784D01*
X47143754Y-64064701D01*
X47146421Y-64067363D01*
X47151997Y-64072929D01*
X47158227Y-64076769D01*
X47158228Y-64076770D01*
X47269943Y-64145632D01*
X47300080Y-64164209D01*
X47465191Y-64218974D01*
X47472027Y-64219674D01*
X47472030Y-64219675D01*
X47519370Y-64224525D01*
X47567928Y-64229500D01*
X48237500Y-64229500D01*
X48305621Y-64249502D01*
X48352114Y-64303158D01*
X48363500Y-64355500D01*
X48363500Y-67493050D01*
X48343498Y-67561171D01*
X48326595Y-67582145D01*
X48245595Y-67663145D01*
X48183283Y-67697171D01*
X48112468Y-67692106D01*
X48055632Y-67649559D01*
X48030821Y-67583039D01*
X48030500Y-67574050D01*
X48030500Y-67347498D01*
X48030307Y-67345042D01*
X48028067Y-67316579D01*
X48028066Y-67316574D01*
X48027562Y-67310169D01*
X47981145Y-67150399D01*
X47896453Y-67007193D01*
X47893513Y-67004253D01*
X47868180Y-66939734D01*
X47882079Y-66870111D01*
X47894126Y-66851364D01*
X47900090Y-66843676D01*
X47976648Y-66714221D01*
X47982893Y-66699790D01*
X48021939Y-66565395D01*
X48021899Y-66551294D01*
X48014630Y-66548000D01*
X45085122Y-66548000D01*
X45071591Y-66551973D01*
X45070456Y-66559871D01*
X45111107Y-66699790D01*
X45117352Y-66714221D01*
X45193911Y-66843677D01*
X45199871Y-66851360D01*
X45225820Y-66917444D01*
X45211922Y-66987067D01*
X45201579Y-67003161D01*
X45197547Y-67007193D01*
X45112855Y-67150399D01*
X45066438Y-67310169D01*
X45065934Y-67316574D01*
X45065933Y-67316579D01*
X45063693Y-67345042D01*
X45063500Y-67347498D01*
X45063500Y-67491050D01*
X45043498Y-67559171D01*
X45026595Y-67580145D01*
X44550395Y-68056345D01*
X44541615Y-68064335D01*
X44541613Y-68064337D01*
X44534920Y-68068584D01*
X44529494Y-68074362D01*
X44529493Y-68074363D01*
X44486396Y-68120257D01*
X44483641Y-68123099D01*
X44463073Y-68143667D01*
X44460356Y-68147170D01*
X44452648Y-68156195D01*
X44421028Y-68189867D01*
X44417207Y-68196818D01*
X44417206Y-68196819D01*
X44410697Y-68208658D01*
X44399843Y-68225182D01*
X44392018Y-68235271D01*
X44386696Y-68242132D01*
X44383549Y-68249404D01*
X44383548Y-68249406D01*
X44368346Y-68284535D01*
X44363124Y-68295195D01*
X44346975Y-68324570D01*
X44340876Y-68335663D01*
X44335541Y-68356441D01*
X44329142Y-68375131D01*
X44320620Y-68394824D01*
X44319380Y-68402655D01*
X44313394Y-68440448D01*
X44310987Y-68452071D01*
X44303798Y-68480072D01*
X44299500Y-68496812D01*
X44299500Y-68518259D01*
X44297949Y-68537969D01*
X44294594Y-68559152D01*
X44295340Y-68567043D01*
X44298941Y-68605138D01*
X44299500Y-68616996D01*
X44299500Y-71950444D01*
X44298941Y-71962300D01*
X44297212Y-71970037D01*
X44297461Y-71977959D01*
X44299438Y-72040869D01*
X44299500Y-72044827D01*
X44299500Y-72073932D01*
X44300056Y-72078332D01*
X44300988Y-72090164D01*
X44302438Y-72136331D01*
X44304650Y-72143944D01*
X44304650Y-72143945D01*
X44308419Y-72156916D01*
X44312430Y-72176282D01*
X44315118Y-72197564D01*
X44318034Y-72204929D01*
X44318035Y-72204933D01*
X44332126Y-72240521D01*
X44335965Y-72251731D01*
X44348855Y-72296100D01*
X44359775Y-72314565D01*
X44368466Y-72332305D01*
X44376365Y-72352256D01*
X44403516Y-72389626D01*
X44410033Y-72399548D01*
X44429507Y-72432477D01*
X44429510Y-72432481D01*
X44433547Y-72439307D01*
X44448711Y-72454471D01*
X44461551Y-72469504D01*
X44474159Y-72486857D01*
X44497912Y-72506507D01*
X44509752Y-72516302D01*
X44518532Y-72524292D01*
X45044595Y-73050355D01*
X45078621Y-73112667D01*
X45081500Y-73139450D01*
X45081500Y-73439072D01*
X45081837Y-73442318D01*
X45081837Y-73442322D01*
X45087780Y-73499594D01*
X45092293Y-73543093D01*
X45094474Y-73549629D01*
X45094474Y-73549631D01*
X45099513Y-73564734D01*
X45122426Y-73633411D01*
X45131171Y-73659624D01*
X45133755Y-73730573D01*
X45097572Y-73791657D01*
X45034108Y-73823482D01*
X45011647Y-73825500D01*
X41965372Y-73825500D01*
X41897251Y-73805498D01*
X41850758Y-73751842D01*
X41840654Y-73681568D01*
X41870148Y-73616988D01*
X41876199Y-73610482D01*
X41913134Y-73573483D01*
X41918305Y-73568303D01*
X41995993Y-73442271D01*
X42007275Y-73423968D01*
X42007276Y-73423966D01*
X42011115Y-73417738D01*
X42066797Y-73249861D01*
X42069271Y-73225720D01*
X42072490Y-73194297D01*
X42077500Y-73145400D01*
X42077500Y-71969600D01*
X42076743Y-71962300D01*
X42067238Y-71870692D01*
X42067237Y-71870688D01*
X42066526Y-71863834D01*
X42033030Y-71763433D01*
X42012868Y-71703002D01*
X42010550Y-71696054D01*
X41917478Y-71545652D01*
X41919113Y-71544640D01*
X41896147Y-71487905D01*
X41909317Y-71418140D01*
X41932435Y-71386353D01*
X41943499Y-71375289D01*
X41958533Y-71362448D01*
X41975885Y-71349841D01*
X42005331Y-71314247D01*
X42013320Y-71305468D01*
X42992443Y-70326345D01*
X43053030Y-70293447D01*
X43053013Y-70293394D01*
X43053299Y-70293301D01*
X43055338Y-70292194D01*
X43059296Y-70291353D01*
X43059303Y-70291351D01*
X43065752Y-70289980D01*
X43128286Y-70262138D01*
X43224585Y-70219263D01*
X43224587Y-70219262D01*
X43230615Y-70216578D01*
X43246259Y-70205212D01*
X43371269Y-70114387D01*
X43371271Y-70114385D01*
X43376613Y-70110504D01*
X43497367Y-69976393D01*
X43570817Y-69849174D01*
X43584295Y-69825830D01*
X43584296Y-69825829D01*
X43587599Y-69820107D01*
X43629743Y-69690399D01*
X43641325Y-69654754D01*
X43641325Y-69654753D01*
X43643365Y-69648475D01*
X43653302Y-69553938D01*
X43661539Y-69475565D01*
X43662229Y-69469000D01*
X43659744Y-69445354D01*
X43644055Y-69296089D01*
X43644055Y-69296088D01*
X43643365Y-69289525D01*
X43639515Y-69277674D01*
X43589641Y-69124178D01*
X43587599Y-69117893D01*
X43497367Y-68961607D01*
X43376613Y-68827496D01*
X43359467Y-68815038D01*
X43235957Y-68725303D01*
X43235956Y-68725302D01*
X43230615Y-68721422D01*
X43224587Y-68718738D01*
X43224585Y-68718737D01*
X43071783Y-68650705D01*
X43071781Y-68650705D01*
X43065752Y-68648020D01*
X42977492Y-68629260D01*
X42895689Y-68611872D01*
X42895685Y-68611872D01*
X42889232Y-68610500D01*
X42708768Y-68610500D01*
X42702315Y-68611872D01*
X42702311Y-68611872D01*
X42620508Y-68629260D01*
X42532248Y-68648020D01*
X42526219Y-68650704D01*
X42526217Y-68650705D01*
X42373416Y-68718737D01*
X42373414Y-68718738D01*
X42367386Y-68721422D01*
X42362045Y-68725302D01*
X42362044Y-68725303D01*
X42226731Y-68823613D01*
X42226729Y-68823615D01*
X42221387Y-68827496D01*
X42210834Y-68839216D01*
X42150390Y-68876454D01*
X42079406Y-68875102D01*
X42020422Y-68835588D01*
X42010056Y-68821207D01*
X41920937Y-68677193D01*
X41911901Y-68665792D01*
X41797171Y-68551261D01*
X41785760Y-68542249D01*
X41647757Y-68457184D01*
X41634576Y-68451037D01*
X41480290Y-68399862D01*
X41466914Y-68396995D01*
X41372562Y-68387328D01*
X41366145Y-68387000D01*
X41166115Y-68387000D01*
X41150876Y-68391475D01*
X41149671Y-68392865D01*
X41148000Y-68400548D01*
X41148000Y-69810500D01*
X41127998Y-69878621D01*
X41074342Y-69925114D01*
X41022000Y-69936500D01*
X39729116Y-69936500D01*
X39713877Y-69940975D01*
X39712672Y-69942365D01*
X39711001Y-69950048D01*
X39711001Y-70081500D01*
X39690999Y-70149621D01*
X39637343Y-70196114D01*
X39585001Y-70207500D01*
X38901000Y-70207500D01*
X38832879Y-70187498D01*
X38786386Y-70133842D01*
X38775000Y-70081500D01*
X38775000Y-69954615D01*
X38770525Y-69939376D01*
X38769135Y-69938171D01*
X38761452Y-69936500D01*
X36427116Y-69936500D01*
X36411877Y-69940975D01*
X36410672Y-69942365D01*
X36409001Y-69950048D01*
X36409001Y-70267095D01*
X36409338Y-70273614D01*
X36419257Y-70369206D01*
X36422149Y-70382600D01*
X36451030Y-70469168D01*
X36453614Y-70540118D01*
X36420602Y-70598139D01*
X36264240Y-70754500D01*
X36159391Y-70859349D01*
X36150612Y-70867337D01*
X36143920Y-70871584D01*
X36138495Y-70877361D01*
X36095395Y-70923258D01*
X36092640Y-70926100D01*
X36072073Y-70946667D01*
X36069356Y-70950170D01*
X36061648Y-70959195D01*
X36030028Y-70992867D01*
X36026207Y-70999818D01*
X36026206Y-70999819D01*
X36019697Y-71011658D01*
X36008843Y-71028182D01*
X36004233Y-71034126D01*
X35995696Y-71045132D01*
X35992549Y-71052404D01*
X35992548Y-71052406D01*
X35977346Y-71087535D01*
X35972124Y-71098195D01*
X35953893Y-71131357D01*
X35949876Y-71138663D01*
X35944541Y-71159441D01*
X35938142Y-71178131D01*
X35929620Y-71197824D01*
X35928380Y-71205655D01*
X35922394Y-71243448D01*
X35919987Y-71255071D01*
X35908500Y-71299812D01*
X35908500Y-71321259D01*
X35906949Y-71340969D01*
X35903594Y-71362152D01*
X35907450Y-71402939D01*
X35907941Y-71408138D01*
X35908500Y-71419996D01*
X35908500Y-72455051D01*
X35888498Y-72523172D01*
X35871595Y-72544146D01*
X34715768Y-73699972D01*
X33563395Y-74852345D01*
X33554615Y-74860335D01*
X33554613Y-74860337D01*
X33547920Y-74864584D01*
X33542494Y-74870362D01*
X33542493Y-74870363D01*
X33499396Y-74916257D01*
X33496641Y-74919099D01*
X33476073Y-74939667D01*
X33473356Y-74943170D01*
X33465648Y-74952195D01*
X33434028Y-74985867D01*
X33430207Y-74992818D01*
X33430206Y-74992819D01*
X33423697Y-75004658D01*
X33412843Y-75021182D01*
X33405018Y-75031271D01*
X33399696Y-75038132D01*
X33396549Y-75045404D01*
X33396548Y-75045406D01*
X33381346Y-75080535D01*
X33376124Y-75091195D01*
X33353876Y-75131663D01*
X33348541Y-75152441D01*
X33342142Y-75171131D01*
X33333620Y-75190824D01*
X33328811Y-75221188D01*
X33326394Y-75236448D01*
X33323987Y-75248071D01*
X33322124Y-75255329D01*
X33312500Y-75292812D01*
X33312500Y-75314259D01*
X33310949Y-75333969D01*
X33307594Y-75355152D01*
X33308340Y-75363043D01*
X33311941Y-75401138D01*
X33312500Y-75412996D01*
X33312500Y-80214639D01*
X33292498Y-80282760D01*
X33238842Y-80329253D01*
X33168568Y-80339357D01*
X33146833Y-80334232D01*
X33110156Y-80322067D01*
X33064809Y-80307026D01*
X33057973Y-80306326D01*
X33057970Y-80306325D01*
X33006474Y-80301049D01*
X32962072Y-80296500D01*
X32362928Y-80296500D01*
X32359682Y-80296837D01*
X32359678Y-80296837D01*
X32265765Y-80306581D01*
X32265761Y-80306582D01*
X32258907Y-80307293D01*
X32252371Y-80309474D01*
X32252369Y-80309474D01*
X32192536Y-80329436D01*
X32093893Y-80362346D01*
X31945969Y-80453884D01*
X31940796Y-80459066D01*
X31839253Y-80560786D01*
X31776970Y-80594865D01*
X31706150Y-80589862D01*
X31661063Y-80560941D01*
X31558188Y-80458246D01*
X31558183Y-80458242D01*
X31553003Y-80453071D01*
X31546771Y-80449229D01*
X31546769Y-80449228D01*
X31543403Y-80447153D01*
X31541587Y-80445136D01*
X31541027Y-80444693D01*
X31541103Y-80444597D01*
X31495910Y-80394381D01*
X31488525Y-80375052D01*
X31487082Y-80370086D01*
X31483070Y-80350716D01*
X31481375Y-80337296D01*
X31481375Y-80337295D01*
X31480382Y-80329436D01*
X31477466Y-80322071D01*
X31477465Y-80322067D01*
X31463376Y-80286482D01*
X31459531Y-80275253D01*
X31448856Y-80238510D01*
X31446645Y-80230899D01*
X31435730Y-80212443D01*
X31427031Y-80194687D01*
X31426682Y-80193807D01*
X31419135Y-80174744D01*
X31391980Y-80137368D01*
X31385465Y-80127449D01*
X31365992Y-80094523D01*
X31365989Y-80094519D01*
X31361952Y-80087693D01*
X31346791Y-80072532D01*
X31333949Y-80057497D01*
X31321341Y-80040143D01*
X31285748Y-80010698D01*
X31276967Y-80002708D01*
X30876651Y-79602391D01*
X30868663Y-79593612D01*
X30864416Y-79586920D01*
X30836085Y-79560315D01*
X30812742Y-79538395D01*
X30809900Y-79535640D01*
X30789333Y-79515073D01*
X30785826Y-79512353D01*
X30776804Y-79504647D01*
X30748913Y-79478456D01*
X30743133Y-79473028D01*
X30736181Y-79469206D01*
X30724342Y-79462697D01*
X30707818Y-79451843D01*
X30697132Y-79443555D01*
X30690868Y-79438696D01*
X30683596Y-79435549D01*
X30683594Y-79435548D01*
X30648465Y-79420346D01*
X30637805Y-79415124D01*
X30604284Y-79396695D01*
X30604282Y-79396694D01*
X30597337Y-79392876D01*
X30576559Y-79387541D01*
X30557869Y-79381142D01*
X30538176Y-79372620D01*
X30492552Y-79365394D01*
X30480929Y-79362987D01*
X30448324Y-79354616D01*
X30436188Y-79351500D01*
X30414741Y-79351500D01*
X30395031Y-79349949D01*
X30381677Y-79347834D01*
X30373848Y-79346594D01*
X30327859Y-79350941D01*
X30316004Y-79351500D01*
X29344072Y-79351500D01*
X29275951Y-79331498D01*
X29229458Y-79277842D01*
X29219354Y-79207568D01*
X29223514Y-79188871D01*
X29225401Y-79182663D01*
X29272370Y-79028069D01*
X29301529Y-78806590D01*
X29302344Y-78773253D01*
X29303074Y-78743365D01*
X29303074Y-78743361D01*
X29303156Y-78740000D01*
X29284852Y-78517361D01*
X29230431Y-78300702D01*
X29141354Y-78095840D01*
X29053279Y-77959697D01*
X29022822Y-77912617D01*
X29022820Y-77912614D01*
X29020014Y-77908277D01*
X28869670Y-77743051D01*
X28865619Y-77739852D01*
X28865615Y-77739848D01*
X28698414Y-77607800D01*
X28698410Y-77607798D01*
X28694359Y-77604598D01*
X28653053Y-77581796D01*
X28603084Y-77531364D01*
X28588312Y-77461921D01*
X28613428Y-77395516D01*
X28640780Y-77368909D01*
X28684603Y-77337650D01*
X28819860Y-77241173D01*
X28978096Y-77083489D01*
X29037594Y-77000689D01*
X29105435Y-76906277D01*
X29108453Y-76902077D01*
X29113334Y-76892202D01*
X29205136Y-76706453D01*
X29205137Y-76706451D01*
X29207430Y-76701811D01*
X29253402Y-76550500D01*
X29270865Y-76493023D01*
X29270865Y-76493021D01*
X29272370Y-76488069D01*
X29301529Y-76266590D01*
X29303156Y-76200000D01*
X29284852Y-75977361D01*
X29253204Y-75851365D01*
X29757500Y-75851365D01*
X29757501Y-77564634D01*
X29757764Y-77567492D01*
X29757764Y-77567501D01*
X29759796Y-77589612D01*
X29764247Y-77638062D01*
X29766246Y-77644440D01*
X29766246Y-77644441D01*
X29798346Y-77746870D01*
X29815528Y-77801699D01*
X29904361Y-77948381D01*
X30025619Y-78069639D01*
X30172301Y-78158472D01*
X30179548Y-78160743D01*
X30179550Y-78160744D01*
X30190368Y-78164134D01*
X30335938Y-78209753D01*
X30409365Y-78216500D01*
X30412263Y-78216500D01*
X30666665Y-78216499D01*
X30922634Y-78216499D01*
X30925492Y-78216236D01*
X30925501Y-78216236D01*
X30961004Y-78212974D01*
X30996062Y-78209753D01*
X31087902Y-78180972D01*
X31152450Y-78160744D01*
X31152452Y-78160743D01*
X31159699Y-78158472D01*
X31268263Y-78092724D01*
X31333533Y-78074500D01*
X31459232Y-78074500D01*
X31465685Y-78073128D01*
X31465689Y-78073128D01*
X31547492Y-78055740D01*
X31635752Y-78036980D01*
X31652923Y-78029335D01*
X31794585Y-77966263D01*
X31794587Y-77966262D01*
X31800615Y-77963578D01*
X31805957Y-77959697D01*
X31941269Y-77861387D01*
X31941271Y-77861385D01*
X31946613Y-77857504D01*
X32067367Y-77723393D01*
X32135954Y-77604598D01*
X32154295Y-77572830D01*
X32154296Y-77572829D01*
X32157599Y-77567107D01*
X32213365Y-77395475D01*
X32216411Y-77366500D01*
X32231539Y-77222565D01*
X32232229Y-77216000D01*
X32213365Y-77036525D01*
X32204419Y-77008990D01*
X32159641Y-76871178D01*
X32157599Y-76864893D01*
X32128572Y-76814616D01*
X32100605Y-76766177D01*
X32067367Y-76708607D01*
X31980765Y-76612425D01*
X31951035Y-76579407D01*
X31951034Y-76579406D01*
X31946613Y-76574496D01*
X31923221Y-76557500D01*
X31805957Y-76472303D01*
X31805956Y-76472302D01*
X31800615Y-76468422D01*
X31794587Y-76465738D01*
X31794585Y-76465737D01*
X31724628Y-76434590D01*
X31649249Y-76401029D01*
X31595154Y-76355050D01*
X31574499Y-76285923D01*
X31574499Y-75851366D01*
X31574234Y-75848474D01*
X31568364Y-75784592D01*
X31567753Y-75777938D01*
X31537531Y-75681500D01*
X31518744Y-75621550D01*
X31518743Y-75621548D01*
X31516472Y-75614301D01*
X31427639Y-75467619D01*
X31306381Y-75346361D01*
X31159699Y-75257528D01*
X31152452Y-75255257D01*
X31152450Y-75255256D01*
X31086164Y-75234483D01*
X30996062Y-75206247D01*
X30922635Y-75199500D01*
X30919737Y-75199500D01*
X30665335Y-75199501D01*
X30409366Y-75199501D01*
X30406508Y-75199764D01*
X30406499Y-75199764D01*
X30370996Y-75203026D01*
X30335938Y-75206247D01*
X30329560Y-75208246D01*
X30329559Y-75208246D01*
X30179550Y-75255256D01*
X30179548Y-75255257D01*
X30172301Y-75257528D01*
X30025619Y-75346361D01*
X29904361Y-75467619D01*
X29815528Y-75614301D01*
X29813257Y-75621548D01*
X29813256Y-75621550D01*
X29794469Y-75681500D01*
X29764247Y-75777938D01*
X29757500Y-75851365D01*
X29253204Y-75851365D01*
X29230431Y-75760702D01*
X29141354Y-75555840D01*
X29048944Y-75412996D01*
X29022822Y-75372617D01*
X29022820Y-75372614D01*
X29020014Y-75368277D01*
X28869670Y-75203051D01*
X28865619Y-75199852D01*
X28865615Y-75199848D01*
X28698414Y-75067800D01*
X28698410Y-75067798D01*
X28694359Y-75064598D01*
X28653053Y-75041796D01*
X28603084Y-74991364D01*
X28588312Y-74921921D01*
X28613428Y-74855516D01*
X28640780Y-74828909D01*
X28684603Y-74797650D01*
X28819860Y-74701173D01*
X28855545Y-74665613D01*
X28974435Y-74547137D01*
X28978096Y-74543489D01*
X29037594Y-74460689D01*
X29105435Y-74366277D01*
X29108453Y-74362077D01*
X29125853Y-74326872D01*
X29205136Y-74166453D01*
X29205137Y-74166451D01*
X29207430Y-74161811D01*
X29262070Y-73981970D01*
X29270865Y-73953023D01*
X29270865Y-73953021D01*
X29272370Y-73948069D01*
X29301529Y-73726590D01*
X29301620Y-73722882D01*
X29303074Y-73663365D01*
X29303074Y-73663361D01*
X29303156Y-73660000D01*
X29284852Y-73437361D01*
X29230431Y-73220702D01*
X29141354Y-73015840D01*
X29075586Y-72914178D01*
X29022822Y-72832617D01*
X29022820Y-72832614D01*
X29020014Y-72828277D01*
X28869670Y-72663051D01*
X28865619Y-72659852D01*
X28865615Y-72659848D01*
X28698414Y-72527800D01*
X28698410Y-72527798D01*
X28694359Y-72524598D01*
X28653053Y-72501796D01*
X28603084Y-72451364D01*
X28588312Y-72381921D01*
X28613428Y-72315516D01*
X28640780Y-72288909D01*
X28700877Y-72246042D01*
X28819860Y-72161173D01*
X28832580Y-72148498D01*
X28968025Y-72013525D01*
X28978096Y-72003489D01*
X29016213Y-71950444D01*
X29105435Y-71826277D01*
X29108453Y-71822077D01*
X29132559Y-71773303D01*
X29205136Y-71626453D01*
X29205137Y-71626451D01*
X29207430Y-71621811D01*
X29272370Y-71408069D01*
X29301529Y-71186590D01*
X29301685Y-71180200D01*
X29303074Y-71123365D01*
X29303074Y-71123361D01*
X29303156Y-71120000D01*
X29284852Y-70897361D01*
X29230431Y-70680702D01*
X29141354Y-70475840D01*
X29060864Y-70351421D01*
X29022822Y-70292617D01*
X29022820Y-70292614D01*
X29020014Y-70288277D01*
X28869670Y-70123051D01*
X28865619Y-70119852D01*
X28865615Y-70119848D01*
X28698414Y-69987800D01*
X28698410Y-69987798D01*
X28694359Y-69984598D01*
X28653053Y-69961796D01*
X28603084Y-69911364D01*
X28588312Y-69841921D01*
X28613428Y-69775516D01*
X28640780Y-69748909D01*
X28684603Y-69717650D01*
X28819860Y-69621173D01*
X28978096Y-69463489D01*
X28982265Y-69457688D01*
X29105435Y-69286277D01*
X29108453Y-69282077D01*
X29142532Y-69213124D01*
X29205136Y-69086453D01*
X29205137Y-69086451D01*
X29207430Y-69081811D01*
X29263760Y-68896408D01*
X29270865Y-68873023D01*
X29270865Y-68873021D01*
X29272370Y-68868069D01*
X29301529Y-68646590D01*
X29302252Y-68616996D01*
X29303074Y-68583365D01*
X29303074Y-68583361D01*
X29303156Y-68580000D01*
X29284852Y-68357361D01*
X29230431Y-68140702D01*
X29141354Y-67935840D01*
X29101906Y-67874862D01*
X29022822Y-67752617D01*
X29022820Y-67752614D01*
X29020014Y-67748277D01*
X28869670Y-67583051D01*
X28865619Y-67579852D01*
X28865615Y-67579848D01*
X28698414Y-67447800D01*
X28698410Y-67447798D01*
X28694359Y-67444598D01*
X28652569Y-67421529D01*
X28602598Y-67371097D01*
X28587826Y-67301654D01*
X28612942Y-67235248D01*
X28640294Y-67208641D01*
X28815328Y-67083792D01*
X28823200Y-67077139D01*
X28974052Y-66926812D01*
X28980730Y-66918965D01*
X29105003Y-66746020D01*
X29110313Y-66737183D01*
X29204670Y-66546267D01*
X29208469Y-66536672D01*
X29270377Y-66332910D01*
X29272555Y-66322837D01*
X29273986Y-66311962D01*
X29271775Y-66297778D01*
X29258617Y-66294000D01*
X26623225Y-66294000D01*
X26609694Y-66297973D01*
X26608257Y-66307966D01*
X26638565Y-66442446D01*
X26641645Y-66452275D01*
X26721770Y-66649603D01*
X26726413Y-66658794D01*
X26837694Y-66840388D01*
X26843777Y-66848699D01*
X26983213Y-67009667D01*
X26990580Y-67016883D01*
X27154434Y-67152916D01*
X27162881Y-67158831D01*
X27231969Y-67199203D01*
X27280693Y-67250842D01*
X27293764Y-67320625D01*
X27267033Y-67386396D01*
X27226584Y-67419752D01*
X27213607Y-67426507D01*
X27209474Y-67429610D01*
X27209471Y-67429612D01*
X27039100Y-67557530D01*
X27034965Y-67560635D01*
X26880629Y-67722138D01*
X26754743Y-67906680D01*
X26739003Y-67940590D01*
X26672972Y-68082842D01*
X26660688Y-68109305D01*
X26600989Y-68324570D01*
X26577251Y-68546695D01*
X26577548Y-68551848D01*
X26577548Y-68551851D01*
X26582963Y-68645760D01*
X26590110Y-68769715D01*
X26591247Y-68774761D01*
X26591248Y-68774767D01*
X26609018Y-68853614D01*
X26639222Y-68987639D01*
X26700673Y-69138976D01*
X26708188Y-69157482D01*
X26723266Y-69194616D01*
X26725965Y-69199020D01*
X26820227Y-69352842D01*
X26839987Y-69385088D01*
X26986250Y-69553938D01*
X27158126Y-69696632D01*
X27209883Y-69726876D01*
X27231445Y-69739476D01*
X27280169Y-69791114D01*
X27293240Y-69860897D01*
X27266509Y-69926669D01*
X27226055Y-69960027D01*
X27213607Y-69966507D01*
X27209474Y-69969610D01*
X27209471Y-69969612D01*
X27046115Y-70092263D01*
X27034965Y-70100635D01*
X27031393Y-70104373D01*
X26885678Y-70256855D01*
X26880629Y-70262138D01*
X26877715Y-70266410D01*
X26877714Y-70266411D01*
X26859271Y-70293447D01*
X26754743Y-70446680D01*
X26741096Y-70476081D01*
X26670517Y-70628131D01*
X26660688Y-70649305D01*
X26600989Y-70864570D01*
X26577251Y-71086695D01*
X26577548Y-71091848D01*
X26577548Y-71091851D01*
X26584110Y-71205655D01*
X26590110Y-71309715D01*
X26591247Y-71314761D01*
X26591248Y-71314767D01*
X26604888Y-71375289D01*
X26639222Y-71527639D01*
X26723266Y-71734616D01*
X26725965Y-71739020D01*
X26807218Y-71871613D01*
X26839987Y-71925088D01*
X26986250Y-72093938D01*
X27158126Y-72236632D01*
X27184006Y-72251755D01*
X27231445Y-72279476D01*
X27280169Y-72331114D01*
X27293240Y-72400897D01*
X27266509Y-72466669D01*
X27226055Y-72500027D01*
X27213607Y-72506507D01*
X27209474Y-72509610D01*
X27209471Y-72509612D01*
X27083721Y-72604028D01*
X27034965Y-72640635D01*
X26880629Y-72802138D01*
X26877715Y-72806410D01*
X26877714Y-72806411D01*
X26792556Y-72931249D01*
X26754743Y-72986680D01*
X26660688Y-73189305D01*
X26600989Y-73404570D01*
X26577251Y-73626695D01*
X26577548Y-73631848D01*
X26577548Y-73631851D01*
X26587719Y-73808250D01*
X26590110Y-73849715D01*
X26591247Y-73854761D01*
X26591248Y-73854767D01*
X26597483Y-73882433D01*
X26639222Y-74067639D01*
X26723266Y-74274616D01*
X26774019Y-74357438D01*
X26822421Y-74436422D01*
X26839987Y-74465088D01*
X26986250Y-74633938D01*
X27158126Y-74776632D01*
X27214074Y-74809325D01*
X27231445Y-74819476D01*
X27280169Y-74871114D01*
X27293240Y-74940897D01*
X27266509Y-75006669D01*
X27226055Y-75040027D01*
X27213607Y-75046507D01*
X27209474Y-75049610D01*
X27209471Y-75049612D01*
X27039100Y-75177530D01*
X27034965Y-75180635D01*
X27010490Y-75206247D01*
X26904112Y-75317565D01*
X26880629Y-75342138D01*
X26877715Y-75346410D01*
X26877714Y-75346411D01*
X26866074Y-75363475D01*
X26754743Y-75526680D01*
X26739003Y-75560590D01*
X26700397Y-75643760D01*
X26660688Y-75729305D01*
X26600989Y-75944570D01*
X26577251Y-76166695D01*
X26577548Y-76171848D01*
X26577548Y-76171851D01*
X26586957Y-76335039D01*
X26590110Y-76389715D01*
X26591247Y-76394761D01*
X26591248Y-76394767D01*
X26608722Y-76472303D01*
X26639222Y-76607639D01*
X26682686Y-76714679D01*
X26715287Y-76794965D01*
X26723266Y-76814616D01*
X26839987Y-77005088D01*
X26986250Y-77173938D01*
X27158126Y-77316632D01*
X27228595Y-77357811D01*
X27231445Y-77359476D01*
X27280169Y-77411114D01*
X27293240Y-77480897D01*
X27266509Y-77546669D01*
X27226055Y-77580027D01*
X27213607Y-77586507D01*
X27209474Y-77589610D01*
X27209471Y-77589612D01*
X27185247Y-77607800D01*
X27034965Y-77720635D01*
X27031393Y-77724373D01*
X26890286Y-77872033D01*
X26880629Y-77882138D01*
X26754743Y-78066680D01*
X26713961Y-78154537D01*
X26685200Y-78216499D01*
X26660688Y-78269305D01*
X26600989Y-78484570D01*
X26577251Y-78706695D01*
X26577548Y-78711848D01*
X26577548Y-78711851D01*
X26588629Y-78904036D01*
X26590110Y-78929715D01*
X26591247Y-78934761D01*
X26591248Y-78934767D01*
X26603846Y-78990667D01*
X26639222Y-79147639D01*
X26700673Y-79298976D01*
X26720312Y-79347340D01*
X26723266Y-79354616D01*
X26779349Y-79446135D01*
X26836383Y-79539206D01*
X26839987Y-79545088D01*
X26843367Y-79548990D01*
X26859092Y-79567144D01*
X26888574Y-79631730D01*
X26878457Y-79702002D01*
X26852948Y-79738735D01*
X26123595Y-80468088D01*
X26061283Y-80502114D01*
X25990468Y-80497049D01*
X25933632Y-80454502D01*
X25908821Y-80387982D01*
X25908500Y-80378993D01*
X25908500Y-53393250D01*
X25910246Y-53372345D01*
X25912770Y-53357344D01*
X25912770Y-53357341D01*
X25913576Y-53352552D01*
X25913655Y-53346098D01*
X25913670Y-53344865D01*
X25913670Y-53344861D01*
X25913729Y-53340000D01*
X25913039Y-53335184D01*
X25913039Y-53335178D01*
X25911387Y-53323644D01*
X25910234Y-53300284D01*
X25910511Y-53293956D01*
X25925656Y-52947063D01*
X25926614Y-52936114D01*
X25977233Y-52551621D01*
X25979142Y-52540795D01*
X26063080Y-52162178D01*
X26065925Y-52151561D01*
X26182539Y-51781706D01*
X26186298Y-51771377D01*
X26334715Y-51413068D01*
X26339357Y-51403115D01*
X26361409Y-51360755D01*
X26518424Y-51059132D01*
X26523919Y-51049613D01*
X26560923Y-50991529D01*
X26732292Y-50722532D01*
X26738597Y-50713528D01*
X26974678Y-50405862D01*
X26981743Y-50397442D01*
X27243744Y-50111517D01*
X27251517Y-50103744D01*
X27253531Y-50101899D01*
X27469025Y-49904435D01*
X27537442Y-49841743D01*
X27545862Y-49834678D01*
X27853528Y-49598597D01*
X27862532Y-49592292D01*
X28189613Y-49383919D01*
X28199133Y-49378423D01*
X28311209Y-49320080D01*
X28543124Y-49199353D01*
X28553068Y-49194715D01*
X28911385Y-49046295D01*
X28921698Y-49042542D01*
X29129533Y-48977012D01*
X29291561Y-48925925D01*
X29302178Y-48923080D01*
X29680795Y-48839142D01*
X29691621Y-48837233D01*
X30076114Y-48786614D01*
X30087063Y-48785656D01*
X30436554Y-48770397D01*
X30461429Y-48771777D01*
X30473724Y-48773691D01*
X30482626Y-48772527D01*
X30482628Y-48772527D01*
X30501399Y-48770072D01*
X30505286Y-48769564D01*
X30521621Y-48768500D01*
X45661005Y-48768500D01*
X45729126Y-48788502D01*
G37*
%TD.AperFunction*%
%TD*%
M02*
