%TF.GenerationSoftware,KiCad,Pcbnew,(6.0.9-0)*%
%TF.CreationDate,2024-11-07T13:56:04+01:00*%
%TF.ProjectId,lfo-board,6c666f2d-626f-4617-9264-2e6b69636164,rev?*%
%TF.SameCoordinates,Original*%
%TF.FileFunction,Legend,Top*%
%TF.FilePolarity,Positive*%
%FSLAX46Y46*%
G04 Gerber Fmt 4.6, Leading zero omitted, Abs format (unit mm)*
G04 Created by KiCad (PCBNEW (6.0.9-0)) date 2024-11-07 13:56:04*
%MOMM*%
%LPD*%
G01*
G04 APERTURE LIST*
G04 Aperture macros list*
%AMRoundRect*
0 Rectangle with rounded corners*
0 $1 Rounding radius*
0 $2 $3 $4 $5 $6 $7 $8 $9 X,Y pos of 4 corners*
0 Add a 4 corners polygon primitive as box body*
4,1,4,$2,$3,$4,$5,$6,$7,$8,$9,$2,$3,0*
0 Add four circle primitives for the rounded corners*
1,1,$1+$1,$2,$3*
1,1,$1+$1,$4,$5*
1,1,$1+$1,$6,$7*
1,1,$1+$1,$8,$9*
0 Add four rect primitives between the rounded corners*
20,1,$1+$1,$2,$3,$4,$5,0*
20,1,$1+$1,$4,$5,$6,$7,0*
20,1,$1+$1,$6,$7,$8,$9,0*
20,1,$1+$1,$8,$9,$2,$3,0*%
%AMFreePoly0*
4,1,9,3.862500,-0.866500,0.737500,-0.866500,0.737500,-0.450000,-0.737500,-0.450000,-0.737500,0.450000,0.737500,0.450000,0.737500,0.866500,3.862500,0.866500,3.862500,-0.866500,3.862500,-0.866500,$1*%
G04 Aperture macros list end*
%ADD10C,0.120000*%
%ADD11C,0.100000*%
%ADD12C,0.150000*%
%ADD13RoundRect,0.237500X-0.300000X-0.237500X0.300000X-0.237500X0.300000X0.237500X-0.300000X0.237500X0*%
%ADD14C,5.500000*%
%ADD15RoundRect,0.237500X0.250000X0.237500X-0.250000X0.237500X-0.250000X-0.237500X0.250000X-0.237500X0*%
%ADD16RoundRect,0.237500X0.237500X-0.250000X0.237500X0.250000X-0.237500X0.250000X-0.237500X-0.250000X0*%
%ADD17R,0.900000X1.300000*%
%ADD18FreePoly0,270.000000*%
%ADD19C,3.200000*%
%ADD20RoundRect,0.237500X0.300000X0.237500X-0.300000X0.237500X-0.300000X-0.237500X0.300000X-0.237500X0*%
%ADD21RoundRect,0.150000X0.587500X0.150000X-0.587500X0.150000X-0.587500X-0.150000X0.587500X-0.150000X0*%
%ADD22RoundRect,0.200000X-0.200000X-0.800000X0.200000X-0.800000X0.200000X0.800000X-0.200000X0.800000X0*%
%ADD23RoundRect,0.150000X-0.825000X-0.150000X0.825000X-0.150000X0.825000X0.150000X-0.825000X0.150000X0*%
%ADD24RoundRect,0.237500X-0.250000X-0.237500X0.250000X-0.237500X0.250000X0.237500X-0.250000X0.237500X0*%
%ADD25C,1.800000*%
%ADD26R,1.800000X1.800000*%
%ADD27RoundRect,0.250000X0.425000X-0.537500X0.425000X0.537500X-0.425000X0.537500X-0.425000X-0.537500X0*%
%ADD28RoundRect,0.237500X0.237500X-0.300000X0.237500X0.300000X-0.237500X0.300000X-0.237500X-0.300000X0*%
%ADD29RoundRect,0.250000X-0.425000X0.537500X-0.425000X-0.537500X0.425000X-0.537500X0.425000X0.537500X0*%
%ADD30RoundRect,0.237500X-0.237500X0.250000X-0.237500X-0.250000X0.237500X-0.250000X0.237500X0.250000X0*%
%ADD31O,1.700000X1.700000*%
%ADD32R,1.700000X1.700000*%
%ADD33R,3.500000X1.800000*%
%ADD34RoundRect,0.150000X0.150000X-0.825000X0.150000X0.825000X-0.150000X0.825000X-0.150000X-0.825000X0*%
G04 APERTURE END LIST*
D10*
X56880000Y-73660000D02*
G75*
G03*
X56880000Y-73660000I-1000000J0D01*
G01*
X28940000Y-93980000D02*
G75*
G03*
X28940000Y-93980000I-1000000J0D01*
G01*
X28940000Y-73660000D02*
G75*
G03*
X28940000Y-73660000I-1000000J0D01*
G01*
X56880000Y-93980000D02*
G75*
G03*
X56880000Y-93980000I-1000000J0D01*
G01*
X56880000Y-60960000D02*
G75*
G03*
X56880000Y-60960000I-1000000J0D01*
G01*
X28940000Y-68580000D02*
G75*
G03*
X28940000Y-68580000I-1000000J0D01*
G01*
X28956000Y-60960000D02*
G75*
G03*
X28956000Y-60960000I-1000000J0D01*
G01*
X56860551Y-86336661D02*
G75*
G03*
X56860551Y-86336661I-1000000J0D01*
G01*
X56880000Y-68580000D02*
G75*
G03*
X56880000Y-68580000I-1000000J0D01*
G01*
X28940000Y-86360000D02*
G75*
G03*
X28940000Y-86360000I-1000000J0D01*
G01*
D11*
X26109976Y-94341904D02*
X25767119Y-94341904D01*
X25938547Y-94341904D02*
X26038547Y-93541904D01*
X25967119Y-93656190D01*
X25900452Y-93732380D01*
X25838547Y-93770476D01*
X26752833Y-93541904D02*
X26467119Y-93541904D01*
X26390928Y-93922857D01*
X26424261Y-93884761D01*
X26486166Y-93846666D01*
X26629023Y-93846666D01*
X26681404Y-93884761D01*
X26705214Y-93922857D01*
X26724261Y-93999047D01*
X26700452Y-94189523D01*
X26662357Y-94265714D01*
X26629023Y-94303809D01*
X26567119Y-94341904D01*
X26424261Y-94341904D01*
X26371880Y-94303809D01*
X26348071Y-94265714D01*
D10*
X26109976Y-79101904D02*
X26224261Y-79101904D01*
X26286166Y-79063809D01*
X26319500Y-79025714D01*
X26390928Y-78911428D01*
X26438547Y-78759047D01*
X26476642Y-78454285D01*
X26457595Y-78378095D01*
X26433785Y-78340000D01*
X26381404Y-78301904D01*
X26267119Y-78301904D01*
X26205214Y-78340000D01*
X26171880Y-78378095D01*
X26133785Y-78454285D01*
X26109976Y-78644761D01*
X26129023Y-78720952D01*
X26152833Y-78759047D01*
X26205214Y-78797142D01*
X26319500Y-78797142D01*
X26381404Y-78759047D01*
X26414738Y-78720952D01*
X26452833Y-78644761D01*
D11*
X26109976Y-81641904D02*
X25767119Y-81641904D01*
X25938547Y-81641904D02*
X26038547Y-80841904D01*
X25967119Y-80956190D01*
X25900452Y-81032380D01*
X25838547Y-81070476D01*
X26581404Y-80841904D02*
X26638547Y-80841904D01*
X26690928Y-80880000D01*
X26714738Y-80918095D01*
X26733785Y-80994285D01*
X26743309Y-81146666D01*
X26719500Y-81337142D01*
X26671880Y-81489523D01*
X26633785Y-81565714D01*
X26600452Y-81603809D01*
X26538547Y-81641904D01*
X26481404Y-81641904D01*
X26429023Y-81603809D01*
X26405214Y-81565714D01*
X26386166Y-81489523D01*
X26376642Y-81337142D01*
X26400452Y-81146666D01*
X26448071Y-80994285D01*
X26486166Y-80918095D01*
X26519500Y-80880000D01*
X26581404Y-80841904D01*
D10*
X57705214Y-65868571D02*
X57638547Y-66401904D01*
X57600452Y-65563809D02*
X57386166Y-66135238D01*
X57757595Y-66135238D01*
D11*
X26109976Y-91801904D02*
X25767119Y-91801904D01*
X25938547Y-91801904D02*
X26038547Y-91001904D01*
X25967119Y-91116190D01*
X25900452Y-91192380D01*
X25838547Y-91230476D01*
X26690928Y-91268571D02*
X26624261Y-91801904D01*
X26586166Y-90963809D02*
X26371880Y-91535238D01*
X26743309Y-91535238D01*
X57409976Y-89261904D02*
X57067119Y-89261904D01*
X57238547Y-89261904D02*
X57338547Y-88461904D01*
X57267119Y-88576190D01*
X57200452Y-88652380D01*
X57138547Y-88690476D01*
X57709976Y-88461904D02*
X58081404Y-88461904D01*
X57843309Y-88766666D01*
X57929023Y-88766666D01*
X57981404Y-88804761D01*
X58005214Y-88842857D01*
X58024261Y-88919047D01*
X58000452Y-89109523D01*
X57962357Y-89185714D01*
X57929023Y-89223809D01*
X57867119Y-89261904D01*
X57695690Y-89261904D01*
X57643309Y-89223809D01*
X57619500Y-89185714D01*
X26109976Y-84181904D02*
X25767119Y-84181904D01*
X25938547Y-84181904D02*
X26038547Y-83381904D01*
X25967119Y-83496190D01*
X25900452Y-83572380D01*
X25838547Y-83610476D01*
X26681404Y-84181904D02*
X26338547Y-84181904D01*
X26509976Y-84181904D02*
X26609976Y-83381904D01*
X26538547Y-83496190D01*
X26471880Y-83572380D01*
X26409976Y-83610476D01*
D10*
X57409976Y-79101904D02*
X57524261Y-79101904D01*
X57586166Y-79063809D01*
X57619500Y-79025714D01*
X57690928Y-78911428D01*
X57738547Y-78759047D01*
X57776642Y-78454285D01*
X57757595Y-78378095D01*
X57733785Y-78340000D01*
X57681404Y-78301904D01*
X57567119Y-78301904D01*
X57505214Y-78340000D01*
X57471880Y-78378095D01*
X57433785Y-78454285D01*
X57409976Y-78644761D01*
X57429023Y-78720952D01*
X57452833Y-78759047D01*
X57505214Y-78797142D01*
X57619500Y-78797142D01*
X57681404Y-78759047D01*
X57714738Y-78720952D01*
X57752833Y-78644761D01*
X26467119Y-68141904D02*
X26181404Y-68141904D01*
X26105214Y-68522857D01*
X26138547Y-68484761D01*
X26200452Y-68446666D01*
X26343309Y-68446666D01*
X26395690Y-68484761D01*
X26419500Y-68522857D01*
X26438547Y-68599047D01*
X26414738Y-68789523D01*
X26376642Y-68865714D01*
X26343309Y-68903809D01*
X26281404Y-68941904D01*
X26138547Y-68941904D01*
X26086166Y-68903809D01*
X26062357Y-68865714D01*
X57424261Y-73221904D02*
X57824261Y-73221904D01*
X57467119Y-74021904D01*
X26124261Y-73221904D02*
X26524261Y-73221904D01*
X26167119Y-74021904D01*
X57695690Y-58781904D02*
X57352833Y-58781904D01*
X57524261Y-58781904D02*
X57624261Y-57981904D01*
X57552833Y-58096190D01*
X57486166Y-58172380D01*
X57424261Y-58210476D01*
X57424261Y-63061904D02*
X57795690Y-63061904D01*
X57557595Y-63366666D01*
X57643309Y-63366666D01*
X57695690Y-63404761D01*
X57719500Y-63442857D01*
X57738547Y-63519047D01*
X57714738Y-63709523D01*
X57676642Y-63785714D01*
X57643309Y-63823809D01*
X57581404Y-63861904D01*
X57409976Y-63861904D01*
X57357595Y-63823809D01*
X57333785Y-63785714D01*
D11*
X26109976Y-86721904D02*
X25767119Y-86721904D01*
X25938547Y-86721904D02*
X26038547Y-85921904D01*
X25967119Y-86036190D01*
X25900452Y-86112380D01*
X25838547Y-86150476D01*
X26429023Y-85998095D02*
X26462357Y-85960000D01*
X26524261Y-85921904D01*
X26667119Y-85921904D01*
X26719500Y-85960000D01*
X26743309Y-85998095D01*
X26762357Y-86074285D01*
X26752833Y-86150476D01*
X26709976Y-86264761D01*
X26309976Y-86721904D01*
X26681404Y-86721904D01*
D10*
X57443309Y-60598095D02*
X57476642Y-60560000D01*
X57538547Y-60521904D01*
X57681404Y-60521904D01*
X57733785Y-60560000D01*
X57757595Y-60598095D01*
X57776642Y-60674285D01*
X57767119Y-60750476D01*
X57724261Y-60864761D01*
X57324261Y-61321904D01*
X57695690Y-61321904D01*
D11*
X57409976Y-84181904D02*
X57067119Y-84181904D01*
X57238547Y-84181904D02*
X57338547Y-83381904D01*
X57267119Y-83496190D01*
X57200452Y-83572380D01*
X57138547Y-83610476D01*
X57981404Y-84181904D02*
X57638547Y-84181904D01*
X57809976Y-84181904D02*
X57909976Y-83381904D01*
X57838547Y-83496190D01*
X57771880Y-83572380D01*
X57709976Y-83610476D01*
D12*
X40963904Y-90563238D02*
X41535333Y-90563238D01*
X41649619Y-90601333D01*
X41725809Y-90677523D01*
X41763904Y-90791809D01*
X41763904Y-90868000D01*
X41763904Y-89801333D02*
X41763904Y-90182285D01*
X40963904Y-90182285D01*
X41687714Y-89077523D02*
X41725809Y-89115619D01*
X41763904Y-89229904D01*
X41763904Y-89306095D01*
X41725809Y-89420380D01*
X41649619Y-89496571D01*
X41573428Y-89534666D01*
X41421047Y-89572761D01*
X41306761Y-89572761D01*
X41154380Y-89534666D01*
X41078190Y-89496571D01*
X41002000Y-89420380D01*
X40963904Y-89306095D01*
X40963904Y-89229904D01*
X41002000Y-89115619D01*
X41040095Y-89077523D01*
X40963904Y-88506095D02*
X41535333Y-88506095D01*
X41649619Y-88544190D01*
X41725809Y-88620380D01*
X41763904Y-88734666D01*
X41763904Y-88810857D01*
X41763904Y-87744190D02*
X41763904Y-88125142D01*
X40963904Y-88125142D01*
X41687714Y-87020380D02*
X41725809Y-87058476D01*
X41763904Y-87172761D01*
X41763904Y-87248952D01*
X41725809Y-87363238D01*
X41649619Y-87439428D01*
X41573428Y-87477523D01*
X41421047Y-87515619D01*
X41306761Y-87515619D01*
X41154380Y-87477523D01*
X41078190Y-87439428D01*
X41002000Y-87363238D01*
X40963904Y-87248952D01*
X40963904Y-87172761D01*
X41002000Y-87058476D01*
X41040095Y-87020380D01*
X40963904Y-86448952D02*
X41535333Y-86448952D01*
X41649619Y-86487047D01*
X41725809Y-86563238D01*
X41763904Y-86677523D01*
X41763904Y-86753714D01*
X41763904Y-85687047D02*
X41763904Y-86068000D01*
X40963904Y-86068000D01*
X41687714Y-84963238D02*
X41725809Y-85001333D01*
X41763904Y-85115619D01*
X41763904Y-85191809D01*
X41725809Y-85306095D01*
X41649619Y-85382285D01*
X41573428Y-85420380D01*
X41421047Y-85458476D01*
X41306761Y-85458476D01*
X41154380Y-85420380D01*
X41078190Y-85382285D01*
X41002000Y-85306095D01*
X40963904Y-85191809D01*
X40963904Y-85115619D01*
X41002000Y-85001333D01*
X41040095Y-84963238D01*
X40963904Y-84391809D02*
X41535333Y-84391809D01*
X41649619Y-84429904D01*
X41725809Y-84506095D01*
X41763904Y-84620380D01*
X41763904Y-84696571D01*
X41763904Y-83629904D02*
X41763904Y-84010857D01*
X40963904Y-84010857D01*
X41687714Y-82906095D02*
X41725809Y-82944190D01*
X41763904Y-83058476D01*
X41763904Y-83134666D01*
X41725809Y-83248952D01*
X41649619Y-83325142D01*
X41573428Y-83363238D01*
X41421047Y-83401333D01*
X41306761Y-83401333D01*
X41154380Y-83363238D01*
X41078190Y-83325142D01*
X41002000Y-83248952D01*
X40963904Y-83134666D01*
X40963904Y-83058476D01*
X41002000Y-82944190D01*
X41040095Y-82906095D01*
D10*
X26124261Y-63061904D02*
X26495690Y-63061904D01*
X26257595Y-63366666D01*
X26343309Y-63366666D01*
X26395690Y-63404761D01*
X26419500Y-63442857D01*
X26438547Y-63519047D01*
X26414738Y-63709523D01*
X26376642Y-63785714D01*
X26343309Y-63823809D01*
X26281404Y-63861904D01*
X26109976Y-63861904D01*
X26057595Y-63823809D01*
X26033785Y-63785714D01*
X26438547Y-70681904D02*
X26324261Y-70681904D01*
X26262357Y-70720000D01*
X26229023Y-70758095D01*
X26157595Y-70872380D01*
X26109976Y-71024761D01*
X26071880Y-71329523D01*
X26090928Y-71405714D01*
X26114738Y-71443809D01*
X26167119Y-71481904D01*
X26281404Y-71481904D01*
X26343309Y-71443809D01*
X26376642Y-71405714D01*
X26414738Y-71329523D01*
X26438547Y-71139047D01*
X26419500Y-71062857D01*
X26395690Y-71024761D01*
X26343309Y-70986666D01*
X26229023Y-70986666D01*
X26167119Y-71024761D01*
X26133785Y-71062857D01*
X26095690Y-71139047D01*
X57767119Y-68141904D02*
X57481404Y-68141904D01*
X57405214Y-68522857D01*
X57438547Y-68484761D01*
X57500452Y-68446666D01*
X57643309Y-68446666D01*
X57695690Y-68484761D01*
X57719500Y-68522857D01*
X57738547Y-68599047D01*
X57714738Y-68789523D01*
X57676642Y-68865714D01*
X57643309Y-68903809D01*
X57581404Y-68941904D01*
X57438547Y-68941904D01*
X57386166Y-68903809D01*
X57362357Y-68865714D01*
X57524261Y-76104761D02*
X57471880Y-76066666D01*
X57448071Y-76028571D01*
X57429023Y-75952380D01*
X57433785Y-75914285D01*
X57471880Y-75838095D01*
X57505214Y-75800000D01*
X57567119Y-75761904D01*
X57681404Y-75761904D01*
X57733785Y-75800000D01*
X57757595Y-75838095D01*
X57776642Y-75914285D01*
X57771880Y-75952380D01*
X57733785Y-76028571D01*
X57700452Y-76066666D01*
X57638547Y-76104761D01*
X57524261Y-76104761D01*
X57462357Y-76142857D01*
X57429023Y-76180952D01*
X57390928Y-76257142D01*
X57371880Y-76409523D01*
X57390928Y-76485714D01*
X57414738Y-76523809D01*
X57467119Y-76561904D01*
X57581404Y-76561904D01*
X57643309Y-76523809D01*
X57676642Y-76485714D01*
X57714738Y-76409523D01*
X57733785Y-76257142D01*
X57714738Y-76180952D01*
X57690928Y-76142857D01*
X57638547Y-76104761D01*
D11*
X57409976Y-94341904D02*
X57067119Y-94341904D01*
X57238547Y-94341904D02*
X57338547Y-93541904D01*
X57267119Y-93656190D01*
X57200452Y-93732380D01*
X57138547Y-93770476D01*
X58052833Y-93541904D02*
X57767119Y-93541904D01*
X57690928Y-93922857D01*
X57724261Y-93884761D01*
X57786166Y-93846666D01*
X57929023Y-93846666D01*
X57981404Y-93884761D01*
X58005214Y-93922857D01*
X58024261Y-93999047D01*
X58000452Y-94189523D01*
X57962357Y-94265714D01*
X57929023Y-94303809D01*
X57867119Y-94341904D01*
X57724261Y-94341904D01*
X57671880Y-94303809D01*
X57648071Y-94265714D01*
D10*
X26405214Y-65868571D02*
X26338547Y-66401904D01*
X26300452Y-65563809D02*
X26086166Y-66135238D01*
X26457595Y-66135238D01*
X26143309Y-60598095D02*
X26176642Y-60560000D01*
X26238547Y-60521904D01*
X26381404Y-60521904D01*
X26433785Y-60560000D01*
X26457595Y-60598095D01*
X26476642Y-60674285D01*
X26467119Y-60750476D01*
X26424261Y-60864761D01*
X26024261Y-61321904D01*
X26395690Y-61321904D01*
D11*
X57409976Y-86721904D02*
X57067119Y-86721904D01*
X57238547Y-86721904D02*
X57338547Y-85921904D01*
X57267119Y-86036190D01*
X57200452Y-86112380D01*
X57138547Y-86150476D01*
X57729023Y-85998095D02*
X57762357Y-85960000D01*
X57824261Y-85921904D01*
X57967119Y-85921904D01*
X58019500Y-85960000D01*
X58043309Y-85998095D01*
X58062357Y-86074285D01*
X58052833Y-86150476D01*
X58009976Y-86264761D01*
X57609976Y-86721904D01*
X57981404Y-86721904D01*
D10*
X26224261Y-76104761D02*
X26171880Y-76066666D01*
X26148071Y-76028571D01*
X26129023Y-75952380D01*
X26133785Y-75914285D01*
X26171880Y-75838095D01*
X26205214Y-75800000D01*
X26267119Y-75761904D01*
X26381404Y-75761904D01*
X26433785Y-75800000D01*
X26457595Y-75838095D01*
X26476642Y-75914285D01*
X26471880Y-75952380D01*
X26433785Y-76028571D01*
X26400452Y-76066666D01*
X26338547Y-76104761D01*
X26224261Y-76104761D01*
X26162357Y-76142857D01*
X26129023Y-76180952D01*
X26090928Y-76257142D01*
X26071880Y-76409523D01*
X26090928Y-76485714D01*
X26114738Y-76523809D01*
X26167119Y-76561904D01*
X26281404Y-76561904D01*
X26343309Y-76523809D01*
X26376642Y-76485714D01*
X26414738Y-76409523D01*
X26433785Y-76257142D01*
X26414738Y-76180952D01*
X26390928Y-76142857D01*
X26338547Y-76104761D01*
D11*
X26109976Y-89261904D02*
X25767119Y-89261904D01*
X25938547Y-89261904D02*
X26038547Y-88461904D01*
X25967119Y-88576190D01*
X25900452Y-88652380D01*
X25838547Y-88690476D01*
X26409976Y-88461904D02*
X26781404Y-88461904D01*
X26543309Y-88766666D01*
X26629023Y-88766666D01*
X26681404Y-88804761D01*
X26705214Y-88842857D01*
X26724261Y-88919047D01*
X26700452Y-89109523D01*
X26662357Y-89185714D01*
X26629023Y-89223809D01*
X26567119Y-89261904D01*
X26395690Y-89261904D01*
X26343309Y-89223809D01*
X26319500Y-89185714D01*
D10*
X57738547Y-70681904D02*
X57624261Y-70681904D01*
X57562357Y-70720000D01*
X57529023Y-70758095D01*
X57457595Y-70872380D01*
X57409976Y-71024761D01*
X57371880Y-71329523D01*
X57390928Y-71405714D01*
X57414738Y-71443809D01*
X57467119Y-71481904D01*
X57581404Y-71481904D01*
X57643309Y-71443809D01*
X57676642Y-71405714D01*
X57714738Y-71329523D01*
X57738547Y-71139047D01*
X57719500Y-71062857D01*
X57695690Y-71024761D01*
X57643309Y-70986666D01*
X57529023Y-70986666D01*
X57467119Y-71024761D01*
X57433785Y-71062857D01*
X57395690Y-71139047D01*
D11*
X57409976Y-81641904D02*
X57067119Y-81641904D01*
X57238547Y-81641904D02*
X57338547Y-80841904D01*
X57267119Y-80956190D01*
X57200452Y-81032380D01*
X57138547Y-81070476D01*
X57881404Y-80841904D02*
X57938547Y-80841904D01*
X57990928Y-80880000D01*
X58014738Y-80918095D01*
X58033785Y-80994285D01*
X58043309Y-81146666D01*
X58019500Y-81337142D01*
X57971880Y-81489523D01*
X57933785Y-81565714D01*
X57900452Y-81603809D01*
X57838547Y-81641904D01*
X57781404Y-81641904D01*
X57729023Y-81603809D01*
X57705214Y-81565714D01*
X57686166Y-81489523D01*
X57676642Y-81337142D01*
X57700452Y-81146666D01*
X57748071Y-80994285D01*
X57786166Y-80918095D01*
X57819500Y-80880000D01*
X57881404Y-80841904D01*
D10*
X26395690Y-58781904D02*
X26052833Y-58781904D01*
X26224261Y-58781904D02*
X26324261Y-57981904D01*
X26252833Y-58096190D01*
X26186166Y-58172380D01*
X26124261Y-58210476D01*
D11*
X57409976Y-91801904D02*
X57067119Y-91801904D01*
X57238547Y-91801904D02*
X57338547Y-91001904D01*
X57267119Y-91116190D01*
X57200452Y-91192380D01*
X57138547Y-91230476D01*
X57990928Y-91268571D02*
X57924261Y-91801904D01*
X57886166Y-90963809D02*
X57671880Y-91535238D01*
X58043309Y-91535238D01*
D10*
%TO.C,C7*%
X43388233Y-94109000D02*
X43680767Y-94109000D01*
X43388233Y-93089000D02*
X43680767Y-93089000D01*
%TO.C,R12*%
X35814724Y-84596500D02*
X35305276Y-84596500D01*
X35814724Y-83551500D02*
X35305276Y-83551500D01*
%TO.C,R34*%
X46877500Y-51054724D02*
X46877500Y-50545276D01*
X45832500Y-51054724D02*
X45832500Y-50545276D01*
%TO.C,U5*%
X30152000Y-70060000D02*
X30382000Y-70060000D01*
X34872000Y-70060000D02*
X34642000Y-70060000D01*
X34872000Y-72780000D02*
X33562000Y-72780000D01*
X31462000Y-72780000D02*
X30152000Y-72780000D01*
X30152000Y-72780000D02*
X30152000Y-70060000D01*
X34642000Y-68920000D02*
X34642000Y-70060000D01*
X34872000Y-70060000D02*
X34872000Y-72780000D01*
%TO.C,R26*%
X48006724Y-89139500D02*
X47497276Y-89139500D01*
X48006724Y-90184500D02*
X47497276Y-90184500D01*
%TO.C,R23*%
X52070724Y-80757500D02*
X51561276Y-80757500D01*
X52070724Y-81802500D02*
X51561276Y-81802500D01*
%TO.C,C14*%
X47201267Y-62736000D02*
X46908733Y-62736000D01*
X47201267Y-63756000D02*
X46908733Y-63756000D01*
%TO.C,Q1*%
X38100000Y-78268000D02*
X39775000Y-78268000D01*
X38100000Y-75148000D02*
X38750000Y-75148000D01*
X38100000Y-78268000D02*
X37450000Y-78268000D01*
X38100000Y-75148000D02*
X37450000Y-75148000D01*
%TO.C,SW1*%
X34836000Y-77978000D02*
X34836000Y-78278000D01*
X34836000Y-75138000D02*
X34836000Y-75438000D01*
X30696000Y-78278000D02*
X30696000Y-77978000D01*
X34836000Y-78278000D02*
X30696000Y-78278000D01*
X30696000Y-75438000D02*
X30696000Y-75138000D01*
X30696000Y-75138000D02*
X34836000Y-75138000D01*
%TO.C,U4*%
X49022000Y-65639000D02*
X50972000Y-65639000D01*
X49022000Y-70759000D02*
X47072000Y-70759000D01*
X49022000Y-65639000D02*
X45572000Y-65639000D01*
X49022000Y-70759000D02*
X50972000Y-70759000D01*
%TO.C,R25*%
X52070724Y-83551500D02*
X51561276Y-83551500D01*
X52070724Y-84596500D02*
X51561276Y-84596500D01*
%TO.C,R10*%
X31495276Y-89139500D02*
X32004724Y-89139500D01*
X31495276Y-90184500D02*
X32004724Y-90184500D01*
%TO.C,C3*%
X35706267Y-80770000D02*
X35413733Y-80770000D01*
X35706267Y-81790000D02*
X35413733Y-81790000D01*
%TO.C,R29*%
X51561276Y-86345500D02*
X52070724Y-86345500D01*
X51561276Y-87390500D02*
X52070724Y-87390500D01*
%TO.C,D2*%
X40873870Y-51879837D02*
G75*
G03*
X42955961Y-51880000I1041130J1079837D01*
G01*
X43475000Y-49564484D02*
G75*
G03*
X40242665Y-49721392I-1560000J-1235516D01*
G01*
X40242665Y-51878608D02*
G75*
G03*
X43475000Y-52035516I1672335J1078608D01*
G01*
X42955961Y-49720000D02*
G75*
G03*
X40873870Y-49720163I-1040961J-1080000D01*
G01*
X43475000Y-49720000D02*
X43475000Y-49564000D01*
X43475000Y-52036000D02*
X43475000Y-51880000D01*
%TO.C,C13*%
X35479000Y-66747000D02*
X35479000Y-62662000D01*
X33609000Y-62662000D02*
X33609000Y-66747000D01*
X33609000Y-66747000D02*
X35479000Y-66747000D01*
%TO.C,C19*%
X35304000Y-54883267D02*
X35304000Y-54590733D01*
X36324000Y-54883267D02*
X36324000Y-54590733D01*
%TO.C,C17*%
X33530000Y-58820267D02*
X33530000Y-58527733D01*
X32510000Y-58820267D02*
X32510000Y-58527733D01*
%TO.C,R2*%
X35305276Y-92978500D02*
X35814724Y-92978500D01*
X35305276Y-91933500D02*
X35814724Y-91933500D01*
%TO.C,R32*%
X42911500Y-63754724D02*
X42911500Y-63245276D01*
X43956500Y-63754724D02*
X43956500Y-63245276D01*
%TO.C,R1*%
X31495276Y-83551500D02*
X32004724Y-83551500D01*
X31495276Y-84596500D02*
X32004724Y-84596500D01*
%TO.C,C11*%
X35706267Y-87378000D02*
X35413733Y-87378000D01*
X35706267Y-86358000D02*
X35413733Y-86358000D01*
%TO.C,U1*%
X41656000Y-91303000D02*
X39706000Y-91303000D01*
X41656000Y-82433000D02*
X38206000Y-82433000D01*
X41656000Y-91303000D02*
X43606000Y-91303000D01*
X41656000Y-82433000D02*
X43606000Y-82433000D01*
%TO.C,R31*%
X51830500Y-58928724D02*
X51830500Y-58419276D01*
X50785500Y-58928724D02*
X50785500Y-58419276D01*
%TO.C,C16*%
X41829000Y-72720000D02*
X41829000Y-68635000D01*
X41829000Y-68635000D02*
X39959000Y-68635000D01*
X39959000Y-68635000D02*
X39959000Y-72720000D01*
%TO.C,R33*%
X35291500Y-58928724D02*
X35291500Y-58419276D01*
X36336500Y-58928724D02*
X36336500Y-58419276D01*
%TO.C,R14*%
X51053276Y-62723500D02*
X51562724Y-62723500D01*
X51053276Y-63768500D02*
X51562724Y-63768500D01*
%TO.C,R20*%
X52070724Y-91933500D02*
X51561276Y-91933500D01*
X52070724Y-92978500D02*
X51561276Y-92978500D01*
%TO.C,R35*%
X49671500Y-50545276D02*
X49671500Y-51054724D01*
X48626500Y-50545276D02*
X48626500Y-51054724D01*
%TO.C,R3*%
X48006724Y-91933500D02*
X47497276Y-91933500D01*
X48006724Y-92978500D02*
X47497276Y-92978500D01*
%TO.C,R4*%
X48006724Y-80757500D02*
X47497276Y-80757500D01*
X48006724Y-81802500D02*
X47497276Y-81802500D01*
%TO.C,R5*%
X41641500Y-76453276D02*
X41641500Y-76962724D01*
X42686500Y-76453276D02*
X42686500Y-76962724D01*
%TO.C,R22*%
X52070724Y-90184500D02*
X51561276Y-90184500D01*
X52070724Y-89139500D02*
X51561276Y-89139500D01*
%TO.C,R8*%
X31495276Y-86345500D02*
X32004724Y-86345500D01*
X31495276Y-87390500D02*
X32004724Y-87390500D01*
%TO.C,R9*%
X31495276Y-91933500D02*
X32004724Y-91933500D01*
X31495276Y-92978500D02*
X32004724Y-92978500D01*
%TO.C,R30*%
X48782500Y-58419276D02*
X48782500Y-58928724D01*
X47737500Y-58419276D02*
X47737500Y-58928724D01*
%TO.C,R27*%
X48006724Y-83551500D02*
X47497276Y-83551500D01*
X48006724Y-84596500D02*
X47497276Y-84596500D01*
%TO.C,C8*%
X47898267Y-87378000D02*
X47605733Y-87378000D01*
X47898267Y-86358000D02*
X47605733Y-86358000D01*
%TO.C,kibuzzard-65FC6621*%
G36*
X45720000Y-96678750D02*
G01*
X48101250Y-96678750D01*
X48101250Y-101441250D01*
X45720000Y-101441250D01*
X45720000Y-99583875D01*
X46005750Y-99583875D01*
X46243875Y-100250625D01*
X47577375Y-100250625D01*
X47815500Y-99583875D01*
X47815500Y-97869375D01*
X47053500Y-97869375D01*
X47053500Y-99964875D01*
X46767750Y-99964875D01*
X46767750Y-97869375D01*
X46005750Y-97869375D01*
X46005750Y-99583875D01*
X45720000Y-99583875D01*
X45720000Y-96678750D01*
G37*
G36*
X45434250Y-99488625D02*
G01*
X44196000Y-99488625D01*
X44196000Y-99202875D01*
X45434250Y-99202875D01*
X45434250Y-99488625D01*
G37*
G36*
X36766500Y-96678750D02*
G01*
X39147750Y-96678750D01*
X39147750Y-101441250D01*
X36766500Y-101441250D01*
X36766500Y-100250625D01*
X37052250Y-100250625D01*
X37814250Y-100250625D01*
X37814250Y-98155125D01*
X38100000Y-98155125D01*
X38100000Y-100250625D01*
X38862000Y-100250625D01*
X38862000Y-97869375D01*
X37052250Y-97869375D01*
X37052250Y-100250625D01*
X36766500Y-100250625D01*
X36766500Y-96678750D01*
G37*
G36*
X43624500Y-96678750D02*
G01*
X46005750Y-96678750D01*
X46005750Y-101441250D01*
X43624500Y-101441250D01*
X43624500Y-100250625D01*
X43910250Y-100250625D01*
X45720000Y-100250625D01*
X45720000Y-97869375D01*
X43910250Y-97869375D01*
X43910250Y-98631375D01*
X45434250Y-98631375D01*
X45434250Y-98917125D01*
X43910250Y-98917125D01*
X43910250Y-100250625D01*
X43624500Y-100250625D01*
X43624500Y-96678750D01*
G37*
G36*
X47815500Y-96678750D02*
G01*
X50196750Y-96678750D01*
X50196750Y-101441250D01*
X47815500Y-101441250D01*
X47815500Y-100250625D01*
X48101250Y-100250625D01*
X49911000Y-100250625D01*
X49911000Y-99488625D01*
X48387000Y-99488625D01*
X48387000Y-99202875D01*
X49911000Y-99202875D01*
X49911000Y-97869375D01*
X48101250Y-97869375D01*
X48101250Y-100250625D01*
X47815500Y-100250625D01*
X47815500Y-96678750D01*
G37*
G36*
X38862000Y-96678750D02*
G01*
X41243250Y-96678750D01*
X41243250Y-101441250D01*
X38862000Y-101441250D01*
X38862000Y-100965000D01*
X39147750Y-100965000D01*
X40957500Y-100965000D01*
X40957500Y-99488625D01*
X40195500Y-99488625D01*
X40195500Y-99202875D01*
X40957500Y-99202875D01*
X40957500Y-97488375D01*
X40671750Y-97488375D01*
X40671750Y-97869375D01*
X39147750Y-97869375D01*
X39147750Y-99202875D01*
X39909750Y-99202875D01*
X39909750Y-99488625D01*
X39147750Y-99488625D01*
X39147750Y-100965000D01*
X38862000Y-100965000D01*
X38862000Y-96678750D01*
G37*
G36*
X33623250Y-96678750D02*
G01*
X34956750Y-96678750D01*
X34956750Y-101441250D01*
X33623250Y-101441250D01*
X33623250Y-100250625D01*
X33909000Y-100250625D01*
X34671000Y-100250625D01*
X34671000Y-97155000D01*
X33909000Y-97155000D01*
X33909000Y-100250625D01*
X33623250Y-100250625D01*
X33623250Y-96678750D01*
G37*
G36*
X40957500Y-96678750D02*
G01*
X43910250Y-96678750D01*
X43910250Y-101441250D01*
X40957500Y-101441250D01*
X40957500Y-99583875D01*
X41243250Y-99583875D01*
X41481375Y-100250625D01*
X43386375Y-100250625D01*
X43624500Y-99583875D01*
X43624500Y-97869375D01*
X42862500Y-97869375D01*
X42862500Y-99964875D01*
X42576750Y-99964875D01*
X42576750Y-97869375D01*
X42291000Y-97869375D01*
X42291000Y-99964875D01*
X42005250Y-99964875D01*
X42005250Y-97869375D01*
X41243250Y-97869375D01*
X41243250Y-99583875D01*
X40957500Y-99583875D01*
X40957500Y-96678750D01*
G37*
G36*
X40671750Y-100060125D02*
G01*
X39433500Y-100060125D01*
X39433500Y-99774375D01*
X40671750Y-99774375D01*
X40671750Y-100060125D01*
G37*
G36*
X49625250Y-98917125D02*
G01*
X48387000Y-98917125D01*
X48387000Y-98631375D01*
X49625250Y-98631375D01*
X49625250Y-98917125D01*
G37*
G36*
X36480750Y-99202875D02*
G01*
X35242500Y-99202875D01*
X35242500Y-98917125D01*
X36480750Y-98917125D01*
X36480750Y-99202875D01*
G37*
G36*
X40671750Y-98917125D02*
G01*
X39433500Y-98917125D01*
X39433500Y-98631375D01*
X40671750Y-98631375D01*
X40671750Y-98917125D01*
G37*
G36*
X34671000Y-96678750D02*
G01*
X37052250Y-96678750D01*
X37052250Y-101441250D01*
X34671000Y-101441250D01*
X34671000Y-100250625D01*
X34956750Y-100250625D01*
X36766500Y-100250625D01*
X36766500Y-97869375D01*
X34956750Y-97869375D01*
X34956750Y-100250625D01*
X34671000Y-100250625D01*
X34671000Y-96678750D01*
G37*
%TO.C,R37*%
X41162500Y-63754724D02*
X41162500Y-63245276D01*
X40117500Y-63754724D02*
X40117500Y-63245276D01*
%TO.C,D1*%
X43860000Y-78866000D02*
X50760000Y-78866000D01*
X43860000Y-75566000D02*
X50760000Y-75566000D01*
X43860000Y-75566000D02*
X43860000Y-78866000D01*
%TO.C,R28*%
X51435724Y-73674500D02*
X50926276Y-73674500D01*
X51435724Y-72629500D02*
X50926276Y-72629500D01*
%TO.C,C4*%
X39770267Y-94109000D02*
X39477733Y-94109000D01*
X39770267Y-93089000D02*
X39477733Y-93089000D01*
%TO.C,C12*%
X30053000Y-66747000D02*
X31923000Y-66747000D01*
X30053000Y-62662000D02*
X30053000Y-66747000D01*
X31923000Y-66747000D02*
X31923000Y-62662000D01*
%TO.C,R38*%
X45988500Y-54482276D02*
X45988500Y-54991724D01*
X44943500Y-54482276D02*
X44943500Y-54991724D01*
%TO.C,U6*%
X43200000Y-56896000D02*
X43200000Y-58846000D01*
X43200000Y-56896000D02*
X43200000Y-54946000D01*
X38080000Y-56896000D02*
X38080000Y-54946000D01*
X38080000Y-56896000D02*
X38080000Y-60346000D01*
%TO.C,R15*%
X47244724Y-73674500D02*
X46735276Y-73674500D01*
X47244724Y-72629500D02*
X46735276Y-72629500D01*
%TO.C,C18*%
X44956000Y-58820267D02*
X44956000Y-58527733D01*
X45976000Y-58820267D02*
X45976000Y-58527733D01*
%TO.C,R13*%
X35305276Y-90184500D02*
X35814724Y-90184500D01*
X35305276Y-89139500D02*
X35814724Y-89139500D01*
%TO.C,R6*%
X31495276Y-80757500D02*
X32004724Y-80757500D01*
X31495276Y-81802500D02*
X32004724Y-81802500D01*
%TO.C,C15*%
X38527000Y-68635000D02*
X36657000Y-68635000D01*
X36657000Y-68635000D02*
X36657000Y-72720000D01*
X38527000Y-72720000D02*
X38527000Y-68635000D01*
%TO.C,R36*%
X37323500Y-63754724D02*
X37323500Y-63245276D01*
X38368500Y-63754724D02*
X38368500Y-63245276D01*
%TD*%
%LPC*%
D13*
%TO.C,C7*%
X44397000Y-93599000D03*
X42672000Y-93599000D03*
%TD*%
D14*
%TO.C,H1*%
X30480000Y-99060000D03*
%TD*%
D15*
%TO.C,R12*%
X34647500Y-84074000D03*
X36472500Y-84074000D03*
%TD*%
D16*
%TO.C,R34*%
X46355000Y-49887500D03*
X46355000Y-51712500D03*
%TD*%
D17*
%TO.C,U5*%
X31012000Y-69470000D03*
D18*
X32512000Y-69557500D03*
D17*
X34012000Y-69470000D03*
%TD*%
D19*
%TO.C,H2*%
X30480000Y-53376102D03*
%TD*%
D15*
%TO.C,R26*%
X46839500Y-89662000D03*
X48664500Y-89662000D03*
%TD*%
%TO.C,R23*%
X50903500Y-81280000D03*
X52728500Y-81280000D03*
%TD*%
D20*
%TO.C,C14*%
X46192500Y-63246000D03*
X47917500Y-63246000D03*
%TD*%
D21*
%TO.C,Q1*%
X37162500Y-76708000D03*
X39037500Y-75758000D03*
X39037500Y-77658000D03*
%TD*%
D22*
%TO.C,SW1*%
X34866000Y-76708000D03*
X30666000Y-76708000D03*
%TD*%
D23*
%TO.C,U4*%
X51497000Y-66294000D03*
X51497000Y-67564000D03*
X51497000Y-68834000D03*
X51497000Y-70104000D03*
X46547000Y-70104000D03*
X46547000Y-68834000D03*
X46547000Y-67564000D03*
X46547000Y-66294000D03*
%TD*%
D15*
%TO.C,R25*%
X50903500Y-84074000D03*
X52728500Y-84074000D03*
%TD*%
D24*
%TO.C,R10*%
X32662500Y-89662000D03*
X30837500Y-89662000D03*
%TD*%
D20*
%TO.C,C3*%
X34697500Y-81280000D03*
X36422500Y-81280000D03*
%TD*%
D24*
%TO.C,R29*%
X52728500Y-86868000D03*
X50903500Y-86868000D03*
%TD*%
D25*
%TO.C,D2*%
X40645000Y-50800000D03*
D26*
X43185000Y-50800000D03*
%TD*%
D27*
%TO.C,C13*%
X34544000Y-62824500D03*
X34544000Y-65699500D03*
%TD*%
D28*
%TO.C,C19*%
X35814000Y-53874500D03*
X35814000Y-55599500D03*
%TD*%
D14*
%TO.C,H3*%
X53340000Y-99060000D03*
%TD*%
D28*
%TO.C,C17*%
X33020000Y-57811500D03*
X33020000Y-59536500D03*
%TD*%
D24*
%TO.C,R2*%
X36472500Y-92456000D03*
X34647500Y-92456000D03*
%TD*%
D16*
%TO.C,R32*%
X43434000Y-62587500D03*
X43434000Y-64412500D03*
%TD*%
D24*
%TO.C,R1*%
X32662500Y-84074000D03*
X30837500Y-84074000D03*
%TD*%
D20*
%TO.C,C11*%
X34697500Y-86868000D03*
X36422500Y-86868000D03*
%TD*%
D23*
%TO.C,U1*%
X44131000Y-83058000D03*
X44131000Y-84328000D03*
X44131000Y-85598000D03*
X44131000Y-86868000D03*
X44131000Y-88138000D03*
X44131000Y-89408000D03*
X44131000Y-90678000D03*
X39181000Y-90678000D03*
X39181000Y-89408000D03*
X39181000Y-88138000D03*
X39181000Y-86868000D03*
X39181000Y-85598000D03*
X39181000Y-84328000D03*
X39181000Y-83058000D03*
%TD*%
D16*
%TO.C,R31*%
X51308000Y-57761500D03*
X51308000Y-59586500D03*
%TD*%
D29*
%TO.C,C16*%
X40894000Y-72557500D03*
X40894000Y-69682500D03*
%TD*%
D16*
%TO.C,R33*%
X35814000Y-57761500D03*
X35814000Y-59586500D03*
%TD*%
D24*
%TO.C,R14*%
X52220500Y-63246000D03*
X50395500Y-63246000D03*
%TD*%
D15*
%TO.C,R20*%
X50903500Y-92456000D03*
X52728500Y-92456000D03*
%TD*%
D30*
%TO.C,R35*%
X49149000Y-51712500D03*
X49149000Y-49887500D03*
%TD*%
D31*
%TO.C,J2*%
X27940000Y-93980000D03*
X27940000Y-91440000D03*
X27940000Y-88900000D03*
X27940000Y-86360000D03*
X27940000Y-83820000D03*
X27940000Y-81280000D03*
X27940000Y-78740000D03*
X27940000Y-76200000D03*
X27940000Y-73660000D03*
X27940000Y-71120000D03*
X27940000Y-68580000D03*
X27940000Y-66040000D03*
X27940000Y-63500000D03*
X27940000Y-60960000D03*
D32*
X27940000Y-58420000D03*
%TD*%
D15*
%TO.C,R3*%
X46839500Y-92456000D03*
X48664500Y-92456000D03*
%TD*%
%TO.C,R4*%
X46839500Y-81280000D03*
X48664500Y-81280000D03*
%TD*%
D30*
%TO.C,R5*%
X42164000Y-77620500D03*
X42164000Y-75795500D03*
%TD*%
D15*
%TO.C,R22*%
X50903500Y-89662000D03*
X52728500Y-89662000D03*
%TD*%
D24*
%TO.C,R8*%
X32662500Y-86868000D03*
X30837500Y-86868000D03*
%TD*%
%TO.C,R9*%
X32662500Y-92456000D03*
X30837500Y-92456000D03*
%TD*%
D30*
%TO.C,R30*%
X48260000Y-59586500D03*
X48260000Y-57761500D03*
%TD*%
D15*
%TO.C,R27*%
X46839500Y-84074000D03*
X48664500Y-84074000D03*
%TD*%
D20*
%TO.C,C8*%
X46889500Y-86868000D03*
X48614500Y-86868000D03*
%TD*%
D19*
%TO.C,H4*%
X53340000Y-53376102D03*
%TD*%
D16*
%TO.C,R37*%
X40640000Y-62587500D03*
X40640000Y-64412500D03*
%TD*%
D33*
%TO.C,D1*%
X50760000Y-77216000D03*
X45760000Y-77216000D03*
%TD*%
D15*
%TO.C,R28*%
X50268500Y-73152000D03*
X52093500Y-73152000D03*
%TD*%
D20*
%TO.C,C4*%
X38761500Y-93599000D03*
X40486500Y-93599000D03*
%TD*%
D27*
%TO.C,C12*%
X30988000Y-62824500D03*
X30988000Y-65699500D03*
%TD*%
D30*
%TO.C,R38*%
X45466000Y-55649500D03*
X45466000Y-53824500D03*
%TD*%
D34*
%TO.C,U6*%
X38735000Y-54421000D03*
X40005000Y-54421000D03*
X41275000Y-54421000D03*
X42545000Y-54421000D03*
X42545000Y-59371000D03*
X41275000Y-59371000D03*
X40005000Y-59371000D03*
X38735000Y-59371000D03*
%TD*%
D15*
%TO.C,R15*%
X46077500Y-73152000D03*
X47902500Y-73152000D03*
%TD*%
D28*
%TO.C,C18*%
X45466000Y-57811500D03*
X45466000Y-59536500D03*
%TD*%
D24*
%TO.C,R13*%
X36472500Y-89662000D03*
X34647500Y-89662000D03*
%TD*%
%TO.C,R6*%
X32662500Y-81280000D03*
X30837500Y-81280000D03*
%TD*%
D29*
%TO.C,C15*%
X37592000Y-72557500D03*
X37592000Y-69682500D03*
%TD*%
D31*
%TO.C,J1*%
X55880000Y-93980000D03*
X55880000Y-91440000D03*
X55880000Y-88900000D03*
X55880000Y-86360000D03*
X55880000Y-83820000D03*
X55880000Y-81280000D03*
X55880000Y-78740000D03*
X55880000Y-76200000D03*
X55880000Y-73660000D03*
X55880000Y-71120000D03*
X55880000Y-68580000D03*
X55880000Y-66040000D03*
X55880000Y-63500000D03*
X55880000Y-60960000D03*
D32*
X55880000Y-58420000D03*
%TD*%
D16*
%TO.C,R36*%
X37846000Y-62587500D03*
X37846000Y-64412500D03*
%TD*%
M02*
