%TF.GenerationSoftware,KiCad,Pcbnew,(6.0.9-0)*%
%TF.CreationDate,2024-11-07T13:56:04+01:00*%
%TF.ProjectId,lfo-board,6c666f2d-626f-4617-9264-2e6b69636164,rev?*%
%TF.SameCoordinates,Original*%
%TF.FileFunction,Copper,L2,Inr*%
%TF.FilePolarity,Positive*%
%FSLAX46Y46*%
G04 Gerber Fmt 4.6, Leading zero omitted, Abs format (unit mm)*
G04 Created by KiCad (PCBNEW (6.0.9-0)) date 2024-11-07 13:56:04*
%MOMM*%
%LPD*%
G01*
G04 APERTURE LIST*
%TA.AperFunction,ComponentPad*%
%ADD10C,5.500000*%
%TD*%
%TA.AperFunction,ComponentPad*%
%ADD11C,1.800000*%
%TD*%
%TA.AperFunction,ComponentPad*%
%ADD12R,1.800000X1.800000*%
%TD*%
%TA.AperFunction,ComponentPad*%
%ADD13O,1.700000X1.700000*%
%TD*%
%TA.AperFunction,ComponentPad*%
%ADD14R,1.700000X1.700000*%
%TD*%
%TA.AperFunction,ViaPad*%
%ADD15C,0.700000*%
%TD*%
%TA.AperFunction,ViaPad*%
%ADD16C,0.800000*%
%TD*%
G04 APERTURE END LIST*
D10*
%TO.N,/GND*%
%TO.C,H1*%
X30480000Y-99060000D03*
%TD*%
D11*
%TO.N,Net-(D2-Pad2)*%
%TO.C,D2*%
X40645000Y-50800000D03*
D12*
%TO.N,Net-(D2-Pad1)*%
X43185000Y-50800000D03*
%TD*%
D10*
%TO.N,/GND*%
%TO.C,H3*%
X53340000Y-99060000D03*
%TD*%
D13*
%TO.N,/GND*%
%TO.C,J2*%
X27940000Y-93980000D03*
%TO.N,/Vdepth*%
X27940000Y-91440000D03*
%TO.N,/Vform*%
X27940000Y-88900000D03*
%TO.N,/GND*%
X27940000Y-86360000D03*
%TO.N,/Vof*%
X27940000Y-83820000D03*
%TO.N,/Vfreq*%
X27940000Y-81280000D03*
%TO.N,/Tap*%
X27940000Y-78740000D03*
%TO.N,/Sync*%
X27940000Y-76200000D03*
%TO.N,/GND*%
X27940000Y-73660000D03*
%TO.N,/Out*%
X27940000Y-71120000D03*
%TO.N,/GND*%
X27940000Y-68580000D03*
%TO.N,/+5V*%
X27940000Y-66040000D03*
%TO.N,/+4.5V*%
X27940000Y-63500000D03*
%TO.N,/GND*%
X27940000Y-60960000D03*
D14*
%TO.N,/+9V*%
X27940000Y-58420000D03*
%TD*%
D13*
%TO.N,/GND*%
%TO.C,J1*%
X55880000Y-93980000D03*
%TO.N,/Vdepth*%
X55880000Y-91440000D03*
%TO.N,/Vform*%
X55880000Y-88900000D03*
%TO.N,/GND*%
X55880000Y-86360000D03*
%TO.N,/Vof*%
X55880000Y-83820000D03*
%TO.N,/Vfreq*%
X55880000Y-81280000D03*
%TO.N,/Tap*%
X55880000Y-78740000D03*
%TO.N,/Sync*%
X55880000Y-76200000D03*
%TO.N,/GND*%
X55880000Y-73660000D03*
%TO.N,/Out*%
X55880000Y-71120000D03*
%TO.N,/GND*%
X55880000Y-68580000D03*
%TO.N,/+5V*%
X55880000Y-66040000D03*
%TO.N,/+4.5V*%
X55880000Y-63500000D03*
%TO.N,/GND*%
X55880000Y-60960000D03*
D14*
%TO.N,/+9V*%
X55880000Y-58420000D03*
%TD*%
D15*
%TO.N,Net-(C3-Pad2)*%
X42799000Y-69469000D03*
X49784000Y-69342000D03*
%TO.N,/GND*%
X41402000Y-64389000D03*
X36703000Y-55626000D03*
X37592000Y-85090000D03*
X43688000Y-75184000D03*
X40005000Y-72517000D03*
X35335500Y-86868000D03*
X42799000Y-86868000D03*
X34671000Y-80010000D03*
X32044500Y-62824500D03*
X45466000Y-56896000D03*
X31369000Y-77216000D03*
X39116000Y-75184000D03*
X33441500Y-62824500D03*
X37211000Y-87757000D03*
X51435000Y-65240500D03*
X32512000Y-68199000D03*
X43180000Y-59309000D03*
X38481000Y-72517000D03*
X50800000Y-75311000D03*
X47879000Y-62484000D03*
%TO.N,/+4.5V*%
X38354000Y-87757000D03*
X42799000Y-85968497D03*
D16*
X50165000Y-49911000D03*
D15*
X38487160Y-85178279D03*
X42799000Y-87767503D03*
%TO.N,/Sync*%
X42926000Y-75692000D03*
%TO.N,/Tap*%
X34671000Y-78740000D03*
%TD*%
%TA.AperFunction,Conductor*%
%TO.N,/GND*%
G36*
X50039706Y-48788502D02*
G01*
X50086199Y-48842158D01*
X50096303Y-48912432D01*
X50066809Y-48977012D01*
X50007083Y-49015396D01*
X49997783Y-49017747D01*
X49882712Y-49042206D01*
X49876682Y-49044891D01*
X49876681Y-49044891D01*
X49714278Y-49117197D01*
X49714276Y-49117198D01*
X49708248Y-49119882D01*
X49553747Y-49232134D01*
X49425960Y-49374056D01*
X49330473Y-49539444D01*
X49271458Y-49721072D01*
X49270768Y-49727633D01*
X49270768Y-49727635D01*
X49258775Y-49841743D01*
X49251496Y-49911000D01*
X49252186Y-49917565D01*
X49266382Y-50052628D01*
X49271458Y-50100928D01*
X49330473Y-50282556D01*
X49333776Y-50288278D01*
X49333777Y-50288279D01*
X49350333Y-50316954D01*
X49425960Y-50447944D01*
X49430378Y-50452851D01*
X49430379Y-50452852D01*
X49549325Y-50584955D01*
X49553747Y-50589866D01*
X49708248Y-50702118D01*
X49714276Y-50704802D01*
X49714278Y-50704803D01*
X49839008Y-50760336D01*
X49882712Y-50779794D01*
X49976112Y-50799647D01*
X50063056Y-50818128D01*
X50063061Y-50818128D01*
X50069513Y-50819500D01*
X50260487Y-50819500D01*
X50266939Y-50818128D01*
X50266944Y-50818128D01*
X50353887Y-50799647D01*
X50447288Y-50779794D01*
X50490992Y-50760336D01*
X50615722Y-50704803D01*
X50615724Y-50704802D01*
X50621752Y-50702118D01*
X50776253Y-50589866D01*
X50780675Y-50584955D01*
X50899621Y-50452852D01*
X50899622Y-50452851D01*
X50904040Y-50447944D01*
X50979667Y-50316954D01*
X50996223Y-50288279D01*
X50996224Y-50288278D01*
X50999527Y-50282556D01*
X51058542Y-50100928D01*
X51063619Y-50052628D01*
X51077814Y-49917565D01*
X51078504Y-49911000D01*
X51071225Y-49841743D01*
X51059232Y-49727635D01*
X51059232Y-49727633D01*
X51058542Y-49721072D01*
X50999527Y-49539444D01*
X50904040Y-49374056D01*
X50776253Y-49232134D01*
X50621752Y-49119882D01*
X50615724Y-49117198D01*
X50615722Y-49117197D01*
X50453319Y-49044891D01*
X50453318Y-49044891D01*
X50447288Y-49042206D01*
X50332218Y-49017747D01*
X50269745Y-48984018D01*
X50235423Y-48921869D01*
X50240151Y-48851030D01*
X50282427Y-48793992D01*
X50348828Y-48768865D01*
X50358415Y-48768500D01*
X53290633Y-48768500D01*
X53310018Y-48770000D01*
X53324851Y-48772310D01*
X53324855Y-48772310D01*
X53333724Y-48773691D01*
X53354183Y-48771016D01*
X53376008Y-48770072D01*
X53732937Y-48785656D01*
X53743886Y-48786614D01*
X54128379Y-48837233D01*
X54139205Y-48839142D01*
X54517822Y-48923080D01*
X54528439Y-48925925D01*
X54690467Y-48977012D01*
X54898302Y-49042542D01*
X54908615Y-49046295D01*
X55266932Y-49194715D01*
X55276876Y-49199353D01*
X55603050Y-49369148D01*
X55620867Y-49378423D01*
X55630387Y-49383919D01*
X55957468Y-49592292D01*
X55966472Y-49598597D01*
X56274138Y-49834678D01*
X56282558Y-49841743D01*
X56350975Y-49904435D01*
X56566470Y-50101899D01*
X56568483Y-50103744D01*
X56576256Y-50111517D01*
X56838257Y-50397442D01*
X56845322Y-50405862D01*
X57081403Y-50713528D01*
X57087708Y-50722532D01*
X57259078Y-50991529D01*
X57296081Y-51049613D01*
X57301576Y-51059132D01*
X57450743Y-51345677D01*
X57480643Y-51403115D01*
X57485285Y-51413068D01*
X57633702Y-51771377D01*
X57637458Y-51781698D01*
X57658522Y-51848503D01*
X57754075Y-52151561D01*
X57756920Y-52162178D01*
X57840858Y-52540795D01*
X57842767Y-52551621D01*
X57893386Y-52936114D01*
X57894344Y-52947063D01*
X57906133Y-53217066D01*
X57909603Y-53296552D01*
X57908223Y-53321429D01*
X57906309Y-53333724D01*
X57907473Y-53342626D01*
X57907473Y-53342628D01*
X57910436Y-53365283D01*
X57911500Y-53381621D01*
X57911500Y-99010633D01*
X57910000Y-99030018D01*
X57907690Y-99044851D01*
X57907690Y-99044855D01*
X57906309Y-99053724D01*
X57908984Y-99074183D01*
X57909928Y-99096008D01*
X57895590Y-99424408D01*
X57894344Y-99452936D01*
X57893386Y-99463886D01*
X57842767Y-99848379D01*
X57840858Y-99859205D01*
X57756920Y-100237822D01*
X57754075Y-100248439D01*
X57637461Y-100618294D01*
X57633702Y-100628623D01*
X57485289Y-100986923D01*
X57480647Y-100996876D01*
X57389591Y-101171794D01*
X57301577Y-101340867D01*
X57296081Y-101350387D01*
X57087708Y-101677468D01*
X57081403Y-101686472D01*
X56845322Y-101994138D01*
X56838257Y-102002558D01*
X56576256Y-102288483D01*
X56568483Y-102296256D01*
X56282558Y-102558257D01*
X56274138Y-102565322D01*
X55966472Y-102801403D01*
X55957468Y-102807708D01*
X55630387Y-103016081D01*
X55620868Y-103021576D01*
X55276876Y-103200647D01*
X55266932Y-103205285D01*
X54908615Y-103353705D01*
X54898302Y-103357458D01*
X54698702Y-103420392D01*
X54528439Y-103474075D01*
X54517822Y-103476920D01*
X54139205Y-103560858D01*
X54128379Y-103562767D01*
X53743886Y-103613386D01*
X53732937Y-103614344D01*
X53383446Y-103629603D01*
X53358571Y-103628223D01*
X53346276Y-103626309D01*
X53337374Y-103627473D01*
X53337372Y-103627473D01*
X53322323Y-103629441D01*
X53314714Y-103630436D01*
X53298379Y-103631500D01*
X30529367Y-103631500D01*
X30509982Y-103630000D01*
X30495149Y-103627690D01*
X30495145Y-103627690D01*
X30486276Y-103626309D01*
X30465817Y-103628984D01*
X30443992Y-103629928D01*
X30087063Y-103614344D01*
X30076114Y-103613386D01*
X29691621Y-103562767D01*
X29680795Y-103560858D01*
X29302178Y-103476920D01*
X29291561Y-103474075D01*
X29121298Y-103420392D01*
X28921698Y-103357458D01*
X28911385Y-103353705D01*
X28553068Y-103205285D01*
X28543124Y-103200647D01*
X28199132Y-103021576D01*
X28189613Y-103016081D01*
X27862532Y-102807708D01*
X27853528Y-102801403D01*
X27545862Y-102565322D01*
X27537442Y-102558257D01*
X27251517Y-102296256D01*
X27243744Y-102288483D01*
X26981743Y-102002558D01*
X26974678Y-101994138D01*
X26738597Y-101686472D01*
X26732292Y-101677468D01*
X26644326Y-101539389D01*
X28365541Y-101539389D01*
X28373678Y-101550395D01*
X28633938Y-101750099D01*
X28639537Y-101753933D01*
X28935261Y-101933736D01*
X28941251Y-101936948D01*
X29254657Y-102083758D01*
X29260961Y-102086305D01*
X29588384Y-102198406D01*
X29594935Y-102200260D01*
X29932539Y-102276342D01*
X29939258Y-102277479D01*
X30283113Y-102316657D01*
X30289903Y-102317060D01*
X30635973Y-102318872D01*
X30642774Y-102318540D01*
X30987020Y-102282966D01*
X30993748Y-102281900D01*
X31332144Y-102209353D01*
X31338693Y-102207574D01*
X31667278Y-102098905D01*
X31673620Y-102096419D01*
X31988523Y-101952910D01*
X31994577Y-101949745D01*
X32292128Y-101773073D01*
X32297809Y-101769270D01*
X32574547Y-101561489D01*
X32579771Y-101557105D01*
X32586238Y-101551053D01*
X32593118Y-101539389D01*
X51225541Y-101539389D01*
X51233678Y-101550395D01*
X51493938Y-101750099D01*
X51499537Y-101753933D01*
X51795261Y-101933736D01*
X51801251Y-101936948D01*
X52114657Y-102083758D01*
X52120961Y-102086305D01*
X52448384Y-102198406D01*
X52454935Y-102200260D01*
X52792539Y-102276342D01*
X52799258Y-102277479D01*
X53143113Y-102316657D01*
X53149903Y-102317060D01*
X53495973Y-102318872D01*
X53502774Y-102318540D01*
X53847020Y-102282966D01*
X53853748Y-102281900D01*
X54192144Y-102209353D01*
X54198693Y-102207574D01*
X54527278Y-102098905D01*
X54533620Y-102096419D01*
X54848523Y-101952910D01*
X54854577Y-101949745D01*
X55152128Y-101773073D01*
X55157809Y-101769270D01*
X55434547Y-101561489D01*
X55439771Y-101557105D01*
X55446238Y-101551053D01*
X55454307Y-101537373D01*
X55454280Y-101536649D01*
X55449136Y-101528346D01*
X53352812Y-99432022D01*
X53338868Y-99424408D01*
X53337035Y-99424539D01*
X53330420Y-99428790D01*
X51232422Y-101526788D01*
X51225541Y-101539389D01*
X32593118Y-101539389D01*
X32594307Y-101537373D01*
X32594280Y-101536649D01*
X32589136Y-101528346D01*
X30492812Y-99432022D01*
X30478868Y-99424408D01*
X30477035Y-99424539D01*
X30470420Y-99428790D01*
X28372422Y-101526788D01*
X28365541Y-101539389D01*
X26644326Y-101539389D01*
X26523919Y-101350387D01*
X26518423Y-101340867D01*
X26430409Y-101171794D01*
X26339353Y-100996876D01*
X26334711Y-100986923D01*
X26186298Y-100628623D01*
X26182539Y-100618294D01*
X26065925Y-100248439D01*
X26063080Y-100237822D01*
X25979142Y-99859205D01*
X25977233Y-99848379D01*
X25926614Y-99463886D01*
X25925656Y-99452936D01*
X25910561Y-99107208D01*
X25912188Y-99080805D01*
X25912769Y-99077352D01*
X25912770Y-99077345D01*
X25913576Y-99072552D01*
X25913729Y-99060000D01*
X25912584Y-99052007D01*
X27217407Y-99052007D01*
X27234917Y-99397659D01*
X27235627Y-99404415D01*
X27290363Y-99746141D01*
X27291802Y-99752796D01*
X27383122Y-100086604D01*
X27385271Y-100093065D01*
X27512110Y-100415067D01*
X27514941Y-100421250D01*
X27675815Y-100727670D01*
X27679298Y-100733513D01*
X27872321Y-101020761D01*
X27876424Y-101026205D01*
X27991911Y-101163351D01*
X28004650Y-101171794D01*
X28015094Y-101165696D01*
X30107978Y-99072812D01*
X30114356Y-99061132D01*
X30844408Y-99061132D01*
X30844539Y-99062965D01*
X30848790Y-99069580D01*
X32943553Y-101164343D01*
X32957150Y-101171768D01*
X32966761Y-101165068D01*
X33062845Y-101053360D01*
X33067003Y-101047960D01*
X33263023Y-100762751D01*
X33266570Y-100756940D01*
X33430634Y-100452238D01*
X33433541Y-100446060D01*
X33563744Y-100125411D01*
X33565958Y-100118981D01*
X33660769Y-99786143D01*
X33662276Y-99779513D01*
X33720590Y-99438362D01*
X33721370Y-99431622D01*
X33742595Y-99084576D01*
X33742711Y-99080973D01*
X33742779Y-99061819D01*
X33742687Y-99058194D01*
X33742352Y-99052007D01*
X50077407Y-99052007D01*
X50094917Y-99397659D01*
X50095627Y-99404415D01*
X50150363Y-99746141D01*
X50151802Y-99752796D01*
X50243122Y-100086604D01*
X50245271Y-100093065D01*
X50372110Y-100415067D01*
X50374941Y-100421250D01*
X50535815Y-100727670D01*
X50539298Y-100733513D01*
X50732321Y-101020761D01*
X50736424Y-101026205D01*
X50851911Y-101163351D01*
X50864650Y-101171794D01*
X50875094Y-101165696D01*
X52967978Y-99072812D01*
X52974356Y-99061132D01*
X53704408Y-99061132D01*
X53704539Y-99062965D01*
X53708790Y-99069580D01*
X55803553Y-101164343D01*
X55817150Y-101171768D01*
X55826761Y-101165068D01*
X55922845Y-101053360D01*
X55927003Y-101047960D01*
X56123023Y-100762751D01*
X56126570Y-100756940D01*
X56290634Y-100452238D01*
X56293541Y-100446060D01*
X56423744Y-100125411D01*
X56425958Y-100118981D01*
X56520769Y-99786143D01*
X56522276Y-99779513D01*
X56580590Y-99438362D01*
X56581370Y-99431622D01*
X56602595Y-99084576D01*
X56602711Y-99080973D01*
X56602779Y-99061819D01*
X56602687Y-99058194D01*
X56583885Y-98711023D01*
X56583150Y-98704257D01*
X56527224Y-98362738D01*
X56525757Y-98356066D01*
X56433278Y-98022597D01*
X56431104Y-98016134D01*
X56303143Y-97694583D01*
X56300290Y-97688409D01*
X56138343Y-97382545D01*
X56134849Y-97376728D01*
X55940813Y-97090140D01*
X55936699Y-97084721D01*
X55828090Y-96956653D01*
X55815265Y-96948217D01*
X55804940Y-96954270D01*
X53712022Y-99047188D01*
X53704408Y-99061132D01*
X52974356Y-99061132D01*
X52975592Y-99058868D01*
X52975461Y-99057035D01*
X52971210Y-99050420D01*
X50876457Y-96955667D01*
X50862920Y-96948275D01*
X50853219Y-96955063D01*
X50750220Y-97075659D01*
X50746066Y-97081092D01*
X50551056Y-97366965D01*
X50547521Y-97372802D01*
X50384518Y-97678080D01*
X50381642Y-97684249D01*
X50252558Y-98005355D01*
X50250365Y-98011795D01*
X50156714Y-98344968D01*
X50155231Y-98351603D01*
X50098112Y-98692936D01*
X50097353Y-98699708D01*
X50077431Y-99045212D01*
X50077407Y-99052007D01*
X33742352Y-99052007D01*
X33723885Y-98711023D01*
X33723150Y-98704257D01*
X33667224Y-98362738D01*
X33665757Y-98356066D01*
X33573278Y-98022597D01*
X33571104Y-98016134D01*
X33443143Y-97694583D01*
X33440290Y-97688409D01*
X33278343Y-97382545D01*
X33274849Y-97376728D01*
X33080813Y-97090140D01*
X33076699Y-97084721D01*
X32968090Y-96956653D01*
X32955265Y-96948217D01*
X32944940Y-96954270D01*
X30852022Y-99047188D01*
X30844408Y-99061132D01*
X30114356Y-99061132D01*
X30115592Y-99058868D01*
X30115461Y-99057035D01*
X30111210Y-99050420D01*
X28016457Y-96955667D01*
X28002920Y-96948275D01*
X27993219Y-96955063D01*
X27890220Y-97075659D01*
X27886066Y-97081092D01*
X27691056Y-97366965D01*
X27687521Y-97372802D01*
X27524518Y-97678080D01*
X27521642Y-97684249D01*
X27392558Y-98005355D01*
X27390365Y-98011795D01*
X27296714Y-98344968D01*
X27295231Y-98351603D01*
X27238112Y-98692936D01*
X27237353Y-98699708D01*
X27217431Y-99045212D01*
X27217407Y-99052007D01*
X25912584Y-99052007D01*
X25909773Y-99032376D01*
X25908500Y-99014514D01*
X25908500Y-96582234D01*
X28365322Y-96582234D01*
X28365357Y-96583075D01*
X28370410Y-96591200D01*
X30467188Y-98687978D01*
X30481132Y-98695592D01*
X30482965Y-98695461D01*
X30489580Y-98691210D01*
X32587431Y-96593359D01*
X32593506Y-96582234D01*
X51225322Y-96582234D01*
X51225357Y-96583075D01*
X51230410Y-96591200D01*
X53327188Y-98687978D01*
X53341132Y-98695592D01*
X53342965Y-98695461D01*
X53349580Y-98691210D01*
X55447431Y-96593359D01*
X55455045Y-96579415D01*
X55454977Y-96578460D01*
X55451024Y-96572482D01*
X55176667Y-96363479D01*
X55171041Y-96359655D01*
X54874706Y-96180894D01*
X54868694Y-96177697D01*
X54554774Y-96031980D01*
X54548474Y-96029460D01*
X54220664Y-95918503D01*
X54214086Y-95916667D01*
X53876237Y-95841768D01*
X53869499Y-95840652D01*
X53525515Y-95802675D01*
X53518735Y-95802296D01*
X53172636Y-95801693D01*
X53165863Y-95802048D01*
X52821726Y-95838825D01*
X52815016Y-95839912D01*
X52476883Y-95913637D01*
X52470308Y-95915448D01*
X52142117Y-96025259D01*
X52135795Y-96027762D01*
X51821388Y-96172373D01*
X51815345Y-96175559D01*
X51518402Y-96353276D01*
X51512756Y-96357085D01*
X51236726Y-96565844D01*
X51233140Y-96568875D01*
X51225322Y-96582234D01*
X32593506Y-96582234D01*
X32595045Y-96579415D01*
X32594977Y-96578460D01*
X32591024Y-96572482D01*
X32316667Y-96363479D01*
X32311041Y-96359655D01*
X32014706Y-96180894D01*
X32008694Y-96177697D01*
X31694774Y-96031980D01*
X31688474Y-96029460D01*
X31360664Y-95918503D01*
X31354086Y-95916667D01*
X31016237Y-95841768D01*
X31009499Y-95840652D01*
X30665515Y-95802675D01*
X30658735Y-95802296D01*
X30312636Y-95801693D01*
X30305863Y-95802048D01*
X29961726Y-95838825D01*
X29955016Y-95839912D01*
X29616883Y-95913637D01*
X29610308Y-95915448D01*
X29282117Y-96025259D01*
X29275795Y-96027762D01*
X28961388Y-96172373D01*
X28955345Y-96175559D01*
X28658402Y-96353276D01*
X28652756Y-96357085D01*
X28376726Y-96565844D01*
X28373140Y-96568875D01*
X28365322Y-96582234D01*
X25908500Y-96582234D01*
X25908500Y-94247966D01*
X26608257Y-94247966D01*
X26638565Y-94382446D01*
X26641645Y-94392275D01*
X26721770Y-94589603D01*
X26726413Y-94598794D01*
X26837694Y-94780388D01*
X26843777Y-94788699D01*
X26983213Y-94949667D01*
X26990580Y-94956883D01*
X27154434Y-95092916D01*
X27162881Y-95098831D01*
X27346756Y-95206279D01*
X27356042Y-95210729D01*
X27555001Y-95286703D01*
X27564899Y-95289579D01*
X27668250Y-95310606D01*
X27682299Y-95309410D01*
X27686000Y-95299065D01*
X27686000Y-95298517D01*
X28194000Y-95298517D01*
X28198064Y-95312359D01*
X28211478Y-95314393D01*
X28218184Y-95313534D01*
X28228262Y-95311392D01*
X28432255Y-95250191D01*
X28441842Y-95246433D01*
X28633095Y-95152739D01*
X28641945Y-95147464D01*
X28815328Y-95023792D01*
X28823200Y-95017139D01*
X28974052Y-94866812D01*
X28980730Y-94858965D01*
X29105003Y-94686020D01*
X29110313Y-94677183D01*
X29204670Y-94486267D01*
X29208469Y-94476672D01*
X29270377Y-94272910D01*
X29272555Y-94262837D01*
X29273986Y-94251962D01*
X29273363Y-94247966D01*
X54548257Y-94247966D01*
X54578565Y-94382446D01*
X54581645Y-94392275D01*
X54661770Y-94589603D01*
X54666413Y-94598794D01*
X54777694Y-94780388D01*
X54783777Y-94788699D01*
X54923213Y-94949667D01*
X54930580Y-94956883D01*
X55094434Y-95092916D01*
X55102881Y-95098831D01*
X55286756Y-95206279D01*
X55296042Y-95210729D01*
X55495001Y-95286703D01*
X55504899Y-95289579D01*
X55608250Y-95310606D01*
X55622299Y-95309410D01*
X55626000Y-95299065D01*
X55626000Y-95298517D01*
X56134000Y-95298517D01*
X56138064Y-95312359D01*
X56151478Y-95314393D01*
X56158184Y-95313534D01*
X56168262Y-95311392D01*
X56372255Y-95250191D01*
X56381842Y-95246433D01*
X56573095Y-95152739D01*
X56581945Y-95147464D01*
X56755328Y-95023792D01*
X56763200Y-95017139D01*
X56914052Y-94866812D01*
X56920730Y-94858965D01*
X57045003Y-94686020D01*
X57050313Y-94677183D01*
X57144670Y-94486267D01*
X57148469Y-94476672D01*
X57210377Y-94272910D01*
X57212555Y-94262837D01*
X57213986Y-94251962D01*
X57211775Y-94237778D01*
X57198617Y-94234000D01*
X56152115Y-94234000D01*
X56136876Y-94238475D01*
X56135671Y-94239865D01*
X56134000Y-94247548D01*
X56134000Y-95298517D01*
X55626000Y-95298517D01*
X55626000Y-94252115D01*
X55621525Y-94236876D01*
X55620135Y-94235671D01*
X55612452Y-94234000D01*
X54563225Y-94234000D01*
X54549694Y-94237973D01*
X54548257Y-94247966D01*
X29273363Y-94247966D01*
X29271775Y-94237778D01*
X29258617Y-94234000D01*
X28212115Y-94234000D01*
X28196876Y-94238475D01*
X28195671Y-94239865D01*
X28194000Y-94247548D01*
X28194000Y-95298517D01*
X27686000Y-95298517D01*
X27686000Y-94252115D01*
X27681525Y-94236876D01*
X27680135Y-94235671D01*
X27672452Y-94234000D01*
X26623225Y-94234000D01*
X26609694Y-94237973D01*
X26608257Y-94247966D01*
X25908500Y-94247966D01*
X25908500Y-91406695D01*
X26577251Y-91406695D01*
X26577548Y-91411848D01*
X26577548Y-91411851D01*
X26583011Y-91506590D01*
X26590110Y-91629715D01*
X26591247Y-91634761D01*
X26591248Y-91634767D01*
X26611119Y-91722939D01*
X26639222Y-91847639D01*
X26723266Y-92054616D01*
X26839987Y-92245088D01*
X26986250Y-92413938D01*
X27158126Y-92556632D01*
X27231955Y-92599774D01*
X27280679Y-92651412D01*
X27293750Y-92721195D01*
X27267019Y-92786967D01*
X27226562Y-92820327D01*
X27218457Y-92824546D01*
X27209738Y-92830036D01*
X27039433Y-92957905D01*
X27031726Y-92964748D01*
X26884590Y-93118717D01*
X26878104Y-93126727D01*
X26758098Y-93302649D01*
X26753000Y-93311623D01*
X26663338Y-93504783D01*
X26659775Y-93514470D01*
X26604389Y-93714183D01*
X26605912Y-93722607D01*
X26618292Y-93726000D01*
X29258344Y-93726000D01*
X29271875Y-93722027D01*
X29273180Y-93712947D01*
X29231214Y-93545875D01*
X29227894Y-93536124D01*
X29142972Y-93340814D01*
X29138105Y-93331739D01*
X29022426Y-93152926D01*
X29016136Y-93144757D01*
X28872806Y-92987240D01*
X28865273Y-92980215D01*
X28698139Y-92848222D01*
X28689556Y-92842520D01*
X28652602Y-92822120D01*
X28602631Y-92771687D01*
X28587859Y-92702245D01*
X28612975Y-92635839D01*
X28640327Y-92609232D01*
X28663797Y-92592491D01*
X28819860Y-92481173D01*
X28978096Y-92323489D01*
X29037594Y-92240689D01*
X29105435Y-92146277D01*
X29108453Y-92142077D01*
X29207430Y-91941811D01*
X29272370Y-91728069D01*
X29301529Y-91506590D01*
X29303156Y-91440000D01*
X29300418Y-91406695D01*
X54517251Y-91406695D01*
X54517548Y-91411848D01*
X54517548Y-91411851D01*
X54523011Y-91506590D01*
X54530110Y-91629715D01*
X54531247Y-91634761D01*
X54531248Y-91634767D01*
X54551119Y-91722939D01*
X54579222Y-91847639D01*
X54663266Y-92054616D01*
X54779987Y-92245088D01*
X54926250Y-92413938D01*
X55098126Y-92556632D01*
X55171955Y-92599774D01*
X55220679Y-92651412D01*
X55233750Y-92721195D01*
X55207019Y-92786967D01*
X55166562Y-92820327D01*
X55158457Y-92824546D01*
X55149738Y-92830036D01*
X54979433Y-92957905D01*
X54971726Y-92964748D01*
X54824590Y-93118717D01*
X54818104Y-93126727D01*
X54698098Y-93302649D01*
X54693000Y-93311623D01*
X54603338Y-93504783D01*
X54599775Y-93514470D01*
X54544389Y-93714183D01*
X54545912Y-93722607D01*
X54558292Y-93726000D01*
X57198344Y-93726000D01*
X57211875Y-93722027D01*
X57213180Y-93712947D01*
X57171214Y-93545875D01*
X57167894Y-93536124D01*
X57082972Y-93340814D01*
X57078105Y-93331739D01*
X56962426Y-93152926D01*
X56956136Y-93144757D01*
X56812806Y-92987240D01*
X56805273Y-92980215D01*
X56638139Y-92848222D01*
X56629556Y-92842520D01*
X56592602Y-92822120D01*
X56542631Y-92771687D01*
X56527859Y-92702245D01*
X56552975Y-92635839D01*
X56580327Y-92609232D01*
X56603797Y-92592491D01*
X56759860Y-92481173D01*
X56918096Y-92323489D01*
X56977594Y-92240689D01*
X57045435Y-92146277D01*
X57048453Y-92142077D01*
X57147430Y-91941811D01*
X57212370Y-91728069D01*
X57241529Y-91506590D01*
X57243156Y-91440000D01*
X57224852Y-91217361D01*
X57170431Y-91000702D01*
X57081354Y-90795840D01*
X56960014Y-90608277D01*
X56809670Y-90443051D01*
X56805619Y-90439852D01*
X56805615Y-90439848D01*
X56638414Y-90307800D01*
X56638410Y-90307798D01*
X56634359Y-90304598D01*
X56593053Y-90281796D01*
X56543084Y-90231364D01*
X56528312Y-90161921D01*
X56553428Y-90095516D01*
X56580780Y-90068909D01*
X56624603Y-90037650D01*
X56759860Y-89941173D01*
X56918096Y-89783489D01*
X56977594Y-89700689D01*
X57045435Y-89606277D01*
X57048453Y-89602077D01*
X57147430Y-89401811D01*
X57212370Y-89188069D01*
X57241529Y-88966590D01*
X57243156Y-88900000D01*
X57224852Y-88677361D01*
X57170431Y-88460702D01*
X57081354Y-88255840D01*
X56960014Y-88068277D01*
X56809670Y-87903051D01*
X56805619Y-87899852D01*
X56805615Y-87899848D01*
X56638414Y-87767800D01*
X56638410Y-87767798D01*
X56634359Y-87764598D01*
X56592569Y-87741529D01*
X56542598Y-87691097D01*
X56527826Y-87621654D01*
X56552942Y-87555248D01*
X56580294Y-87528641D01*
X56755328Y-87403792D01*
X56763200Y-87397139D01*
X56914052Y-87246812D01*
X56920730Y-87238965D01*
X57045003Y-87066020D01*
X57050313Y-87057183D01*
X57144670Y-86866267D01*
X57148469Y-86856672D01*
X57210377Y-86652910D01*
X57212555Y-86642837D01*
X57213986Y-86631962D01*
X57211775Y-86617778D01*
X57198617Y-86614000D01*
X54563225Y-86614000D01*
X54549694Y-86617973D01*
X54548257Y-86627966D01*
X54578565Y-86762446D01*
X54581645Y-86772275D01*
X54661770Y-86969603D01*
X54666413Y-86978794D01*
X54777694Y-87160388D01*
X54783777Y-87168699D01*
X54923213Y-87329667D01*
X54930580Y-87336883D01*
X55094434Y-87472916D01*
X55102881Y-87478831D01*
X55171969Y-87519203D01*
X55220693Y-87570842D01*
X55233764Y-87640625D01*
X55207033Y-87706396D01*
X55166584Y-87739752D01*
X55153607Y-87746507D01*
X55149474Y-87749610D01*
X55149471Y-87749612D01*
X55125247Y-87767800D01*
X54974965Y-87880635D01*
X54820629Y-88042138D01*
X54694743Y-88226680D01*
X54675016Y-88269178D01*
X54608308Y-88412890D01*
X54600688Y-88429305D01*
X54540989Y-88644570D01*
X54517251Y-88866695D01*
X54517548Y-88871848D01*
X54517548Y-88871851D01*
X54523011Y-88966590D01*
X54530110Y-89089715D01*
X54531247Y-89094761D01*
X54531248Y-89094767D01*
X54551119Y-89182939D01*
X54579222Y-89307639D01*
X54663266Y-89514616D01*
X54779987Y-89705088D01*
X54926250Y-89873938D01*
X55098126Y-90016632D01*
X55168595Y-90057811D01*
X55171445Y-90059476D01*
X55220169Y-90111114D01*
X55233240Y-90180897D01*
X55206509Y-90246669D01*
X55166055Y-90280027D01*
X55153607Y-90286507D01*
X55149474Y-90289610D01*
X55149471Y-90289612D01*
X55125247Y-90307800D01*
X54974965Y-90420635D01*
X54820629Y-90582138D01*
X54694743Y-90766680D01*
X54600688Y-90969305D01*
X54540989Y-91184570D01*
X54517251Y-91406695D01*
X29300418Y-91406695D01*
X29284852Y-91217361D01*
X29230431Y-91000702D01*
X29141354Y-90795840D01*
X29020014Y-90608277D01*
X28869670Y-90443051D01*
X28865619Y-90439852D01*
X28865615Y-90439848D01*
X28698414Y-90307800D01*
X28698410Y-90307798D01*
X28694359Y-90304598D01*
X28653053Y-90281796D01*
X28603084Y-90231364D01*
X28588312Y-90161921D01*
X28613428Y-90095516D01*
X28640780Y-90068909D01*
X28684603Y-90037650D01*
X28819860Y-89941173D01*
X28978096Y-89783489D01*
X29037594Y-89700689D01*
X29105435Y-89606277D01*
X29108453Y-89602077D01*
X29207430Y-89401811D01*
X29272370Y-89188069D01*
X29301529Y-88966590D01*
X29303156Y-88900000D01*
X29284852Y-88677361D01*
X29230431Y-88460702D01*
X29141354Y-88255840D01*
X29020014Y-88068277D01*
X28869670Y-87903051D01*
X28865619Y-87899852D01*
X28865615Y-87899848D01*
X28698414Y-87767800D01*
X28698410Y-87767798D01*
X28694359Y-87764598D01*
X28680595Y-87757000D01*
X37490771Y-87757000D01*
X37509635Y-87936475D01*
X37511675Y-87942753D01*
X37511675Y-87942754D01*
X37515088Y-87953257D01*
X37565401Y-88108107D01*
X37655633Y-88264393D01*
X37776387Y-88398504D01*
X37781729Y-88402385D01*
X37781731Y-88402387D01*
X37917043Y-88500697D01*
X37922385Y-88504578D01*
X37928413Y-88507262D01*
X37928415Y-88507263D01*
X38081217Y-88575295D01*
X38087248Y-88577980D01*
X38175508Y-88596740D01*
X38257311Y-88614128D01*
X38257315Y-88614128D01*
X38263768Y-88615500D01*
X38444232Y-88615500D01*
X38450685Y-88614128D01*
X38450689Y-88614128D01*
X38532492Y-88596740D01*
X38620752Y-88577980D01*
X38626783Y-88575295D01*
X38779585Y-88507263D01*
X38779587Y-88507262D01*
X38785615Y-88504578D01*
X38790957Y-88500697D01*
X38926269Y-88402387D01*
X38926271Y-88402385D01*
X38931613Y-88398504D01*
X39052367Y-88264393D01*
X39142599Y-88108107D01*
X39192912Y-87953257D01*
X39196325Y-87942754D01*
X39196325Y-87942753D01*
X39198365Y-87936475D01*
X39216125Y-87767503D01*
X41935771Y-87767503D01*
X41954635Y-87946978D01*
X42010401Y-88118610D01*
X42100633Y-88274896D01*
X42221387Y-88409007D01*
X42226729Y-88412888D01*
X42226731Y-88412890D01*
X42347587Y-88500697D01*
X42367385Y-88515081D01*
X42373413Y-88517765D01*
X42373415Y-88517766D01*
X42526217Y-88585798D01*
X42532248Y-88588483D01*
X42620508Y-88607243D01*
X42702311Y-88624631D01*
X42702315Y-88624631D01*
X42708768Y-88626003D01*
X42889232Y-88626003D01*
X42895685Y-88624631D01*
X42895689Y-88624631D01*
X42977492Y-88607243D01*
X43065752Y-88588483D01*
X43071783Y-88585798D01*
X43224585Y-88517766D01*
X43224587Y-88517765D01*
X43230615Y-88515081D01*
X43250413Y-88500697D01*
X43371269Y-88412890D01*
X43371271Y-88412888D01*
X43376613Y-88409007D01*
X43497367Y-88274896D01*
X43587599Y-88118610D01*
X43643365Y-87946978D01*
X43662229Y-87767503D01*
X43650576Y-87656638D01*
X43644055Y-87594592D01*
X43644055Y-87594591D01*
X43643365Y-87588028D01*
X43639953Y-87577525D01*
X43589641Y-87422681D01*
X43587599Y-87416396D01*
X43497367Y-87260110D01*
X43485394Y-87246812D01*
X43381035Y-87130910D01*
X43381034Y-87130909D01*
X43376613Y-87125999D01*
X43368917Y-87120407D01*
X43235957Y-87023806D01*
X43235956Y-87023805D01*
X43230615Y-87019925D01*
X43224587Y-87017241D01*
X43224585Y-87017240D01*
X43147921Y-86983107D01*
X43093825Y-86937126D01*
X43073176Y-86869199D01*
X43092529Y-86800891D01*
X43147921Y-86752893D01*
X43224585Y-86718760D01*
X43224587Y-86718759D01*
X43230615Y-86716075D01*
X43317554Y-86652910D01*
X43371269Y-86613884D01*
X43371271Y-86613882D01*
X43376613Y-86610001D01*
X43497367Y-86475890D01*
X43587599Y-86319604D01*
X43643365Y-86147972D01*
X43649149Y-86092947D01*
X43661539Y-85975062D01*
X43662229Y-85968497D01*
X43661539Y-85961932D01*
X43644055Y-85795586D01*
X43644055Y-85795585D01*
X43643365Y-85789022D01*
X43611719Y-85691623D01*
X43589641Y-85623675D01*
X43587599Y-85617390D01*
X43497367Y-85461104D01*
X43376613Y-85326993D01*
X43230615Y-85220919D01*
X43224587Y-85218235D01*
X43224585Y-85218234D01*
X43071783Y-85150202D01*
X43071781Y-85150202D01*
X43065752Y-85147517D01*
X42977492Y-85128757D01*
X42895689Y-85111369D01*
X42895685Y-85111369D01*
X42889232Y-85109997D01*
X42708768Y-85109997D01*
X42702315Y-85111369D01*
X42702311Y-85111369D01*
X42620508Y-85128757D01*
X42532248Y-85147517D01*
X42526219Y-85150201D01*
X42526217Y-85150202D01*
X42373416Y-85218234D01*
X42373414Y-85218235D01*
X42367386Y-85220919D01*
X42362045Y-85224799D01*
X42362044Y-85224800D01*
X42226731Y-85323110D01*
X42226729Y-85323112D01*
X42221387Y-85326993D01*
X42100633Y-85461104D01*
X42010401Y-85617390D01*
X42008359Y-85623675D01*
X41986282Y-85691623D01*
X41954635Y-85789022D01*
X41953945Y-85795585D01*
X41953945Y-85795586D01*
X41936461Y-85961932D01*
X41935771Y-85968497D01*
X41936461Y-85975062D01*
X41948852Y-86092947D01*
X41954635Y-86147972D01*
X42010401Y-86319604D01*
X42100633Y-86475890D01*
X42221387Y-86610001D01*
X42226729Y-86613882D01*
X42226731Y-86613884D01*
X42280446Y-86652910D01*
X42367385Y-86716075D01*
X42373413Y-86718759D01*
X42373415Y-86718760D01*
X42407992Y-86734155D01*
X42450081Y-86752894D01*
X42504176Y-86798873D01*
X42524825Y-86866800D01*
X42505473Y-86935108D01*
X42450080Y-86983107D01*
X42373416Y-87017240D01*
X42373414Y-87017241D01*
X42367386Y-87019925D01*
X42362045Y-87023805D01*
X42362044Y-87023806D01*
X42226731Y-87122116D01*
X42226729Y-87122118D01*
X42221387Y-87125999D01*
X42216966Y-87130909D01*
X42216965Y-87130910D01*
X42112607Y-87246812D01*
X42100633Y-87260110D01*
X42010401Y-87416396D01*
X42008359Y-87422681D01*
X41958048Y-87577525D01*
X41954635Y-87588028D01*
X41953945Y-87594591D01*
X41953945Y-87594592D01*
X41947424Y-87656638D01*
X41935771Y-87767503D01*
X39216125Y-87767503D01*
X39217229Y-87757000D01*
X39198365Y-87577525D01*
X39142599Y-87405893D01*
X39052367Y-87249607D01*
X38931613Y-87115496D01*
X38863516Y-87066020D01*
X38790957Y-87013303D01*
X38790956Y-87013302D01*
X38785615Y-87009422D01*
X38779587Y-87006738D01*
X38779585Y-87006737D01*
X38626783Y-86938705D01*
X38626781Y-86938705D01*
X38620752Y-86936020D01*
X38532492Y-86917260D01*
X38450689Y-86899872D01*
X38450685Y-86899872D01*
X38444232Y-86898500D01*
X38263768Y-86898500D01*
X38257315Y-86899872D01*
X38257311Y-86899872D01*
X38175508Y-86917260D01*
X38087248Y-86936020D01*
X38081219Y-86938704D01*
X38081217Y-86938705D01*
X37928416Y-87006737D01*
X37928414Y-87006738D01*
X37922386Y-87009422D01*
X37917045Y-87013302D01*
X37917044Y-87013303D01*
X37781731Y-87111613D01*
X37781729Y-87111615D01*
X37776387Y-87115496D01*
X37655633Y-87249607D01*
X37565401Y-87405893D01*
X37509635Y-87577525D01*
X37490771Y-87757000D01*
X28680595Y-87757000D01*
X28652569Y-87741529D01*
X28602598Y-87691097D01*
X28587826Y-87621654D01*
X28612942Y-87555248D01*
X28640294Y-87528641D01*
X28815328Y-87403792D01*
X28823200Y-87397139D01*
X28974052Y-87246812D01*
X28980730Y-87238965D01*
X29105003Y-87066020D01*
X29110313Y-87057183D01*
X29204670Y-86866267D01*
X29208469Y-86856672D01*
X29270377Y-86652910D01*
X29272555Y-86642837D01*
X29273986Y-86631962D01*
X29271775Y-86617778D01*
X29258617Y-86614000D01*
X26623225Y-86614000D01*
X26609694Y-86617973D01*
X26608257Y-86627966D01*
X26638565Y-86762446D01*
X26641645Y-86772275D01*
X26721770Y-86969603D01*
X26726413Y-86978794D01*
X26837694Y-87160388D01*
X26843777Y-87168699D01*
X26983213Y-87329667D01*
X26990580Y-87336883D01*
X27154434Y-87472916D01*
X27162881Y-87478831D01*
X27231969Y-87519203D01*
X27280693Y-87570842D01*
X27293764Y-87640625D01*
X27267033Y-87706396D01*
X27226584Y-87739752D01*
X27213607Y-87746507D01*
X27209474Y-87749610D01*
X27209471Y-87749612D01*
X27185247Y-87767800D01*
X27034965Y-87880635D01*
X26880629Y-88042138D01*
X26754743Y-88226680D01*
X26735016Y-88269178D01*
X26668308Y-88412890D01*
X26660688Y-88429305D01*
X26600989Y-88644570D01*
X26577251Y-88866695D01*
X26577548Y-88871848D01*
X26577548Y-88871851D01*
X26583011Y-88966590D01*
X26590110Y-89089715D01*
X26591247Y-89094761D01*
X26591248Y-89094767D01*
X26611119Y-89182939D01*
X26639222Y-89307639D01*
X26723266Y-89514616D01*
X26839987Y-89705088D01*
X26986250Y-89873938D01*
X27158126Y-90016632D01*
X27228595Y-90057811D01*
X27231445Y-90059476D01*
X27280169Y-90111114D01*
X27293240Y-90180897D01*
X27266509Y-90246669D01*
X27226055Y-90280027D01*
X27213607Y-90286507D01*
X27209474Y-90289610D01*
X27209471Y-90289612D01*
X27185247Y-90307800D01*
X27034965Y-90420635D01*
X26880629Y-90582138D01*
X26754743Y-90766680D01*
X26660688Y-90969305D01*
X26600989Y-91184570D01*
X26577251Y-91406695D01*
X25908500Y-91406695D01*
X25908500Y-83786695D01*
X26577251Y-83786695D01*
X26577548Y-83791848D01*
X26577548Y-83791851D01*
X26583011Y-83886590D01*
X26590110Y-84009715D01*
X26591247Y-84014761D01*
X26591248Y-84014767D01*
X26611119Y-84102939D01*
X26639222Y-84227639D01*
X26723266Y-84434616D01*
X26839987Y-84625088D01*
X26986250Y-84793938D01*
X27158126Y-84936632D01*
X27231955Y-84979774D01*
X27280679Y-85031412D01*
X27293750Y-85101195D01*
X27267019Y-85166967D01*
X27226562Y-85200327D01*
X27218457Y-85204546D01*
X27209738Y-85210036D01*
X27039433Y-85337905D01*
X27031726Y-85344748D01*
X26884590Y-85498717D01*
X26878104Y-85506727D01*
X26758098Y-85682649D01*
X26753000Y-85691623D01*
X26663338Y-85884783D01*
X26659775Y-85894470D01*
X26604389Y-86094183D01*
X26605912Y-86102607D01*
X26618292Y-86106000D01*
X29258344Y-86106000D01*
X29271875Y-86102027D01*
X29273180Y-86092947D01*
X29231214Y-85925875D01*
X29227894Y-85916124D01*
X29142972Y-85720814D01*
X29138105Y-85711739D01*
X29022426Y-85532926D01*
X29016136Y-85524757D01*
X28872806Y-85367240D01*
X28865273Y-85360215D01*
X28698139Y-85228222D01*
X28689556Y-85222520D01*
X28652602Y-85202120D01*
X28628979Y-85178279D01*
X37623931Y-85178279D01*
X37624621Y-85184844D01*
X37628131Y-85218234D01*
X37642795Y-85357754D01*
X37698561Y-85529386D01*
X37788793Y-85685672D01*
X37909547Y-85819783D01*
X37914889Y-85823664D01*
X37914891Y-85823666D01*
X38050203Y-85921976D01*
X38055545Y-85925857D01*
X38061573Y-85928541D01*
X38061575Y-85928542D01*
X38214377Y-85996574D01*
X38220408Y-85999259D01*
X38308668Y-86018019D01*
X38390471Y-86035407D01*
X38390475Y-86035407D01*
X38396928Y-86036779D01*
X38577392Y-86036779D01*
X38583845Y-86035407D01*
X38583849Y-86035407D01*
X38665652Y-86018019D01*
X38753912Y-85999259D01*
X38759943Y-85996574D01*
X38912745Y-85928542D01*
X38912747Y-85928541D01*
X38918775Y-85925857D01*
X38924117Y-85921976D01*
X39059429Y-85823666D01*
X39059431Y-85823664D01*
X39064773Y-85819783D01*
X39185527Y-85685672D01*
X39275759Y-85529386D01*
X39331525Y-85357754D01*
X39346190Y-85218234D01*
X39349699Y-85184844D01*
X39350389Y-85178279D01*
X39342287Y-85101195D01*
X39332215Y-85005368D01*
X39332215Y-85005367D01*
X39331525Y-84998804D01*
X39310251Y-84933327D01*
X39277801Y-84833457D01*
X39275759Y-84827172D01*
X39185527Y-84670886D01*
X39140330Y-84620689D01*
X39069195Y-84541686D01*
X39069194Y-84541685D01*
X39064773Y-84536775D01*
X38918775Y-84430701D01*
X38912747Y-84428017D01*
X38912745Y-84428016D01*
X38759943Y-84359984D01*
X38759941Y-84359984D01*
X38753912Y-84357299D01*
X38665652Y-84338539D01*
X38583849Y-84321151D01*
X38583845Y-84321151D01*
X38577392Y-84319779D01*
X38396928Y-84319779D01*
X38390475Y-84321151D01*
X38390471Y-84321151D01*
X38308668Y-84338539D01*
X38220408Y-84357299D01*
X38214379Y-84359983D01*
X38214377Y-84359984D01*
X38061576Y-84428016D01*
X38061574Y-84428017D01*
X38055546Y-84430701D01*
X38050205Y-84434581D01*
X38050204Y-84434582D01*
X37914891Y-84532892D01*
X37914889Y-84532894D01*
X37909547Y-84536775D01*
X37905126Y-84541685D01*
X37905125Y-84541686D01*
X37833991Y-84620689D01*
X37788793Y-84670886D01*
X37698561Y-84827172D01*
X37696519Y-84833457D01*
X37664070Y-84933327D01*
X37642795Y-84998804D01*
X37642105Y-85005367D01*
X37642105Y-85005368D01*
X37632033Y-85101195D01*
X37623931Y-85178279D01*
X28628979Y-85178279D01*
X28602631Y-85151687D01*
X28587859Y-85082245D01*
X28612975Y-85015839D01*
X28640327Y-84989232D01*
X28663797Y-84972491D01*
X28819860Y-84861173D01*
X28978096Y-84703489D01*
X29001524Y-84670886D01*
X29105435Y-84526277D01*
X29108453Y-84522077D01*
X29151696Y-84434582D01*
X29205136Y-84326453D01*
X29205137Y-84326451D01*
X29207430Y-84321811D01*
X29272370Y-84108069D01*
X29301529Y-83886590D01*
X29303156Y-83820000D01*
X29300418Y-83786695D01*
X54517251Y-83786695D01*
X54517548Y-83791848D01*
X54517548Y-83791851D01*
X54523011Y-83886590D01*
X54530110Y-84009715D01*
X54531247Y-84014761D01*
X54531248Y-84014767D01*
X54551119Y-84102939D01*
X54579222Y-84227639D01*
X54663266Y-84434616D01*
X54779987Y-84625088D01*
X54926250Y-84793938D01*
X55098126Y-84936632D01*
X55171955Y-84979774D01*
X55220679Y-85031412D01*
X55233750Y-85101195D01*
X55207019Y-85166967D01*
X55166562Y-85200327D01*
X55158457Y-85204546D01*
X55149738Y-85210036D01*
X54979433Y-85337905D01*
X54971726Y-85344748D01*
X54824590Y-85498717D01*
X54818104Y-85506727D01*
X54698098Y-85682649D01*
X54693000Y-85691623D01*
X54603338Y-85884783D01*
X54599775Y-85894470D01*
X54544389Y-86094183D01*
X54545912Y-86102607D01*
X54558292Y-86106000D01*
X57198344Y-86106000D01*
X57211875Y-86102027D01*
X57213180Y-86092947D01*
X57171214Y-85925875D01*
X57167894Y-85916124D01*
X57082972Y-85720814D01*
X57078105Y-85711739D01*
X56962426Y-85532926D01*
X56956136Y-85524757D01*
X56812806Y-85367240D01*
X56805273Y-85360215D01*
X56638139Y-85228222D01*
X56629556Y-85222520D01*
X56592602Y-85202120D01*
X56542631Y-85151687D01*
X56527859Y-85082245D01*
X56552975Y-85015839D01*
X56580327Y-84989232D01*
X56603797Y-84972491D01*
X56759860Y-84861173D01*
X56918096Y-84703489D01*
X56941524Y-84670886D01*
X57045435Y-84526277D01*
X57048453Y-84522077D01*
X57091696Y-84434582D01*
X57145136Y-84326453D01*
X57145137Y-84326451D01*
X57147430Y-84321811D01*
X57212370Y-84108069D01*
X57241529Y-83886590D01*
X57243156Y-83820000D01*
X57224852Y-83597361D01*
X57170431Y-83380702D01*
X57081354Y-83175840D01*
X56960014Y-82988277D01*
X56809670Y-82823051D01*
X56805619Y-82819852D01*
X56805615Y-82819848D01*
X56638414Y-82687800D01*
X56638410Y-82687798D01*
X56634359Y-82684598D01*
X56593053Y-82661796D01*
X56543084Y-82611364D01*
X56528312Y-82541921D01*
X56553428Y-82475516D01*
X56580780Y-82448909D01*
X56624603Y-82417650D01*
X56759860Y-82321173D01*
X56918096Y-82163489D01*
X56977594Y-82080689D01*
X57045435Y-81986277D01*
X57048453Y-81982077D01*
X57147430Y-81781811D01*
X57212370Y-81568069D01*
X57241529Y-81346590D01*
X57243156Y-81280000D01*
X57224852Y-81057361D01*
X57170431Y-80840702D01*
X57081354Y-80635840D01*
X56960014Y-80448277D01*
X56809670Y-80283051D01*
X56805619Y-80279852D01*
X56805615Y-80279848D01*
X56638414Y-80147800D01*
X56638410Y-80147798D01*
X56634359Y-80144598D01*
X56593053Y-80121796D01*
X56543084Y-80071364D01*
X56528312Y-80001921D01*
X56553428Y-79935516D01*
X56580780Y-79908909D01*
X56624603Y-79877650D01*
X56759860Y-79781173D01*
X56918096Y-79623489D01*
X56977594Y-79540689D01*
X57045435Y-79446277D01*
X57048453Y-79442077D01*
X57147430Y-79241811D01*
X57212370Y-79028069D01*
X57241529Y-78806590D01*
X57243156Y-78740000D01*
X57224852Y-78517361D01*
X57170431Y-78300702D01*
X57081354Y-78095840D01*
X56966964Y-77919020D01*
X56962822Y-77912617D01*
X56962820Y-77912614D01*
X56960014Y-77908277D01*
X56809670Y-77743051D01*
X56805619Y-77739852D01*
X56805615Y-77739848D01*
X56638414Y-77607800D01*
X56638410Y-77607798D01*
X56634359Y-77604598D01*
X56593053Y-77581796D01*
X56543084Y-77531364D01*
X56528312Y-77461921D01*
X56553428Y-77395516D01*
X56580780Y-77368909D01*
X56624603Y-77337650D01*
X56759860Y-77241173D01*
X56918096Y-77083489D01*
X56977594Y-77000689D01*
X57045435Y-76906277D01*
X57048453Y-76902077D01*
X57147430Y-76701811D01*
X57204385Y-76514352D01*
X57210865Y-76493023D01*
X57210865Y-76493021D01*
X57212370Y-76488069D01*
X57241529Y-76266590D01*
X57243156Y-76200000D01*
X57224852Y-75977361D01*
X57170431Y-75760702D01*
X57081354Y-75555840D01*
X56960014Y-75368277D01*
X56809670Y-75203051D01*
X56805619Y-75199852D01*
X56805615Y-75199848D01*
X56638414Y-75067800D01*
X56638410Y-75067798D01*
X56634359Y-75064598D01*
X56617710Y-75055407D01*
X56592569Y-75041529D01*
X56542598Y-74991097D01*
X56527826Y-74921654D01*
X56552942Y-74855248D01*
X56580294Y-74828641D01*
X56755328Y-74703792D01*
X56763200Y-74697139D01*
X56914052Y-74546812D01*
X56920730Y-74538965D01*
X57045003Y-74366020D01*
X57050313Y-74357183D01*
X57144670Y-74166267D01*
X57148469Y-74156672D01*
X57210377Y-73952910D01*
X57212555Y-73942837D01*
X57213986Y-73931962D01*
X57211775Y-73917778D01*
X57198617Y-73914000D01*
X54563225Y-73914000D01*
X54549694Y-73917973D01*
X54548257Y-73927966D01*
X54578565Y-74062446D01*
X54581645Y-74072275D01*
X54661770Y-74269603D01*
X54666413Y-74278794D01*
X54777694Y-74460388D01*
X54783777Y-74468699D01*
X54923213Y-74629667D01*
X54930580Y-74636883D01*
X55094434Y-74772916D01*
X55102881Y-74778831D01*
X55171969Y-74819203D01*
X55220693Y-74870842D01*
X55233764Y-74940625D01*
X55207033Y-75006396D01*
X55166584Y-75039752D01*
X55153607Y-75046507D01*
X55149474Y-75049610D01*
X55149471Y-75049612D01*
X55125247Y-75067800D01*
X54974965Y-75180635D01*
X54820629Y-75342138D01*
X54694743Y-75526680D01*
X54679003Y-75560590D01*
X54621052Y-75685435D01*
X54600688Y-75729305D01*
X54540989Y-75944570D01*
X54517251Y-76166695D01*
X54517548Y-76171848D01*
X54517548Y-76171851D01*
X54523011Y-76266590D01*
X54530110Y-76389715D01*
X54531247Y-76394761D01*
X54531248Y-76394767D01*
X54541347Y-76439578D01*
X54579222Y-76607639D01*
X54663266Y-76814616D01*
X54779987Y-77005088D01*
X54926250Y-77173938D01*
X55098126Y-77316632D01*
X55168595Y-77357811D01*
X55171445Y-77359476D01*
X55220169Y-77411114D01*
X55233240Y-77480897D01*
X55206509Y-77546669D01*
X55166055Y-77580027D01*
X55153607Y-77586507D01*
X55149474Y-77589610D01*
X55149471Y-77589612D01*
X55125247Y-77607800D01*
X54974965Y-77720635D01*
X54820629Y-77882138D01*
X54694743Y-78066680D01*
X54679975Y-78098496D01*
X54617723Y-78232607D01*
X54600688Y-78269305D01*
X54540989Y-78484570D01*
X54517251Y-78706695D01*
X54517548Y-78711848D01*
X54517548Y-78711851D01*
X54523011Y-78806590D01*
X54530110Y-78929715D01*
X54531247Y-78934761D01*
X54531248Y-78934767D01*
X54551119Y-79022939D01*
X54579222Y-79147639D01*
X54663266Y-79354616D01*
X54779987Y-79545088D01*
X54926250Y-79713938D01*
X55098126Y-79856632D01*
X55168595Y-79897811D01*
X55171445Y-79899476D01*
X55220169Y-79951114D01*
X55233240Y-80020897D01*
X55206509Y-80086669D01*
X55166055Y-80120027D01*
X55153607Y-80126507D01*
X55149474Y-80129610D01*
X55149471Y-80129612D01*
X55125247Y-80147800D01*
X54974965Y-80260635D01*
X54820629Y-80422138D01*
X54694743Y-80606680D01*
X54600688Y-80809305D01*
X54540989Y-81024570D01*
X54517251Y-81246695D01*
X54517548Y-81251848D01*
X54517548Y-81251851D01*
X54523011Y-81346590D01*
X54530110Y-81469715D01*
X54531247Y-81474761D01*
X54531248Y-81474767D01*
X54551119Y-81562939D01*
X54579222Y-81687639D01*
X54663266Y-81894616D01*
X54779987Y-82085088D01*
X54926250Y-82253938D01*
X55098126Y-82396632D01*
X55168595Y-82437811D01*
X55171445Y-82439476D01*
X55220169Y-82491114D01*
X55233240Y-82560897D01*
X55206509Y-82626669D01*
X55166055Y-82660027D01*
X55153607Y-82666507D01*
X55149474Y-82669610D01*
X55149471Y-82669612D01*
X55125247Y-82687800D01*
X54974965Y-82800635D01*
X54820629Y-82962138D01*
X54694743Y-83146680D01*
X54600688Y-83349305D01*
X54540989Y-83564570D01*
X54517251Y-83786695D01*
X29300418Y-83786695D01*
X29284852Y-83597361D01*
X29230431Y-83380702D01*
X29141354Y-83175840D01*
X29020014Y-82988277D01*
X28869670Y-82823051D01*
X28865619Y-82819852D01*
X28865615Y-82819848D01*
X28698414Y-82687800D01*
X28698410Y-82687798D01*
X28694359Y-82684598D01*
X28653053Y-82661796D01*
X28603084Y-82611364D01*
X28588312Y-82541921D01*
X28613428Y-82475516D01*
X28640780Y-82448909D01*
X28684603Y-82417650D01*
X28819860Y-82321173D01*
X28978096Y-82163489D01*
X29037594Y-82080689D01*
X29105435Y-81986277D01*
X29108453Y-81982077D01*
X29207430Y-81781811D01*
X29272370Y-81568069D01*
X29301529Y-81346590D01*
X29303156Y-81280000D01*
X29284852Y-81057361D01*
X29230431Y-80840702D01*
X29141354Y-80635840D01*
X29020014Y-80448277D01*
X28869670Y-80283051D01*
X28865619Y-80279852D01*
X28865615Y-80279848D01*
X28698414Y-80147800D01*
X28698410Y-80147798D01*
X28694359Y-80144598D01*
X28653053Y-80121796D01*
X28603084Y-80071364D01*
X28588312Y-80001921D01*
X28613428Y-79935516D01*
X28640780Y-79908909D01*
X28684603Y-79877650D01*
X28819860Y-79781173D01*
X28978096Y-79623489D01*
X29037594Y-79540689D01*
X29105435Y-79446277D01*
X29108453Y-79442077D01*
X29207430Y-79241811D01*
X29272370Y-79028069D01*
X29301529Y-78806590D01*
X29303156Y-78740000D01*
X33807771Y-78740000D01*
X33826635Y-78919475D01*
X33828675Y-78925753D01*
X33828675Y-78925754D01*
X33859825Y-79021625D01*
X33882401Y-79091107D01*
X33972633Y-79247393D01*
X34093387Y-79381504D01*
X34239385Y-79487578D01*
X34245413Y-79490262D01*
X34245415Y-79490263D01*
X34368554Y-79545088D01*
X34404248Y-79560980D01*
X34492508Y-79579740D01*
X34574311Y-79597128D01*
X34574315Y-79597128D01*
X34580768Y-79598500D01*
X34761232Y-79598500D01*
X34767685Y-79597128D01*
X34767689Y-79597128D01*
X34849492Y-79579740D01*
X34937752Y-79560980D01*
X34973446Y-79545088D01*
X35096585Y-79490263D01*
X35096587Y-79490262D01*
X35102615Y-79487578D01*
X35248613Y-79381504D01*
X35369367Y-79247393D01*
X35459599Y-79091107D01*
X35482175Y-79021625D01*
X35513325Y-78925754D01*
X35513325Y-78925753D01*
X35515365Y-78919475D01*
X35534229Y-78740000D01*
X35515365Y-78560525D01*
X35459599Y-78388893D01*
X35369367Y-78232607D01*
X35248613Y-78098496D01*
X35211285Y-78071375D01*
X35107957Y-77996303D01*
X35107956Y-77996302D01*
X35102615Y-77992422D01*
X35096587Y-77989738D01*
X35096585Y-77989737D01*
X34943783Y-77921705D01*
X34943781Y-77921705D01*
X34937752Y-77919020D01*
X34849492Y-77900260D01*
X34767689Y-77882872D01*
X34767685Y-77882872D01*
X34761232Y-77881500D01*
X34580768Y-77881500D01*
X34574315Y-77882872D01*
X34574311Y-77882872D01*
X34492508Y-77900260D01*
X34404248Y-77919020D01*
X34398219Y-77921704D01*
X34398217Y-77921705D01*
X34245416Y-77989737D01*
X34245414Y-77989738D01*
X34239386Y-77992422D01*
X34234045Y-77996302D01*
X34234044Y-77996303D01*
X34098731Y-78094613D01*
X34098729Y-78094615D01*
X34093387Y-78098496D01*
X33972633Y-78232607D01*
X33882401Y-78388893D01*
X33826635Y-78560525D01*
X33807771Y-78740000D01*
X29303156Y-78740000D01*
X29284852Y-78517361D01*
X29230431Y-78300702D01*
X29141354Y-78095840D01*
X29026964Y-77919020D01*
X29022822Y-77912617D01*
X29022820Y-77912614D01*
X29020014Y-77908277D01*
X28869670Y-77743051D01*
X28865619Y-77739852D01*
X28865615Y-77739848D01*
X28698414Y-77607800D01*
X28698410Y-77607798D01*
X28694359Y-77604598D01*
X28653053Y-77581796D01*
X28603084Y-77531364D01*
X28588312Y-77461921D01*
X28613428Y-77395516D01*
X28640780Y-77368909D01*
X28684603Y-77337650D01*
X28819860Y-77241173D01*
X28978096Y-77083489D01*
X29037594Y-77000689D01*
X29105435Y-76906277D01*
X29108453Y-76902077D01*
X29207430Y-76701811D01*
X29264385Y-76514352D01*
X29270865Y-76493023D01*
X29270865Y-76493021D01*
X29272370Y-76488069D01*
X29301529Y-76266590D01*
X29303156Y-76200000D01*
X29284852Y-75977361D01*
X29230431Y-75760702D01*
X29200558Y-75692000D01*
X42062771Y-75692000D01*
X42063461Y-75698565D01*
X42066199Y-75724610D01*
X42081635Y-75871475D01*
X42137401Y-76043107D01*
X42227633Y-76199393D01*
X42348387Y-76333504D01*
X42353729Y-76337385D01*
X42353731Y-76337387D01*
X42432708Y-76394767D01*
X42494385Y-76439578D01*
X42500413Y-76442262D01*
X42500415Y-76442263D01*
X42591775Y-76482939D01*
X42659248Y-76512980D01*
X42747508Y-76531740D01*
X42829311Y-76549128D01*
X42829315Y-76549128D01*
X42835768Y-76550500D01*
X43016232Y-76550500D01*
X43022685Y-76549128D01*
X43022689Y-76549128D01*
X43104492Y-76531740D01*
X43192752Y-76512980D01*
X43260225Y-76482939D01*
X43351585Y-76442263D01*
X43351587Y-76442262D01*
X43357615Y-76439578D01*
X43419292Y-76394767D01*
X43498269Y-76337387D01*
X43498271Y-76337385D01*
X43503613Y-76333504D01*
X43624367Y-76199393D01*
X43714599Y-76043107D01*
X43770365Y-75871475D01*
X43785802Y-75724610D01*
X43788539Y-75698565D01*
X43789229Y-75692000D01*
X43770365Y-75512525D01*
X43714599Y-75340893D01*
X43624367Y-75184607D01*
X43516311Y-75064598D01*
X43508035Y-75055407D01*
X43508034Y-75055406D01*
X43503613Y-75050496D01*
X43421858Y-74991097D01*
X43362957Y-74948303D01*
X43362956Y-74948302D01*
X43357615Y-74944422D01*
X43351587Y-74941738D01*
X43351585Y-74941737D01*
X43198783Y-74873705D01*
X43198781Y-74873705D01*
X43192752Y-74871020D01*
X43104492Y-74852260D01*
X43022689Y-74834872D01*
X43022685Y-74834872D01*
X43016232Y-74833500D01*
X42835768Y-74833500D01*
X42829315Y-74834872D01*
X42829311Y-74834872D01*
X42747508Y-74852260D01*
X42659248Y-74871020D01*
X42653219Y-74873704D01*
X42653217Y-74873705D01*
X42500416Y-74941737D01*
X42500414Y-74941738D01*
X42494386Y-74944422D01*
X42489045Y-74948302D01*
X42489044Y-74948303D01*
X42353731Y-75046613D01*
X42353729Y-75046615D01*
X42348387Y-75050496D01*
X42343966Y-75055406D01*
X42343965Y-75055407D01*
X42335690Y-75064598D01*
X42227633Y-75184607D01*
X42137401Y-75340893D01*
X42081635Y-75512525D01*
X42062771Y-75692000D01*
X29200558Y-75692000D01*
X29141354Y-75555840D01*
X29020014Y-75368277D01*
X28869670Y-75203051D01*
X28865619Y-75199852D01*
X28865615Y-75199848D01*
X28698414Y-75067800D01*
X28698410Y-75067798D01*
X28694359Y-75064598D01*
X28677710Y-75055407D01*
X28652569Y-75041529D01*
X28602598Y-74991097D01*
X28587826Y-74921654D01*
X28612942Y-74855248D01*
X28640294Y-74828641D01*
X28815328Y-74703792D01*
X28823200Y-74697139D01*
X28974052Y-74546812D01*
X28980730Y-74538965D01*
X29105003Y-74366020D01*
X29110313Y-74357183D01*
X29204670Y-74166267D01*
X29208469Y-74156672D01*
X29270377Y-73952910D01*
X29272555Y-73942837D01*
X29273986Y-73931962D01*
X29271775Y-73917778D01*
X29258617Y-73914000D01*
X26623225Y-73914000D01*
X26609694Y-73917973D01*
X26608257Y-73927966D01*
X26638565Y-74062446D01*
X26641645Y-74072275D01*
X26721770Y-74269603D01*
X26726413Y-74278794D01*
X26837694Y-74460388D01*
X26843777Y-74468699D01*
X26983213Y-74629667D01*
X26990580Y-74636883D01*
X27154434Y-74772916D01*
X27162881Y-74778831D01*
X27231969Y-74819203D01*
X27280693Y-74870842D01*
X27293764Y-74940625D01*
X27267033Y-75006396D01*
X27226584Y-75039752D01*
X27213607Y-75046507D01*
X27209474Y-75049610D01*
X27209471Y-75049612D01*
X27185247Y-75067800D01*
X27034965Y-75180635D01*
X26880629Y-75342138D01*
X26754743Y-75526680D01*
X26739003Y-75560590D01*
X26681052Y-75685435D01*
X26660688Y-75729305D01*
X26600989Y-75944570D01*
X26577251Y-76166695D01*
X26577548Y-76171848D01*
X26577548Y-76171851D01*
X26583011Y-76266590D01*
X26590110Y-76389715D01*
X26591247Y-76394761D01*
X26591248Y-76394767D01*
X26601347Y-76439578D01*
X26639222Y-76607639D01*
X26723266Y-76814616D01*
X26839987Y-77005088D01*
X26986250Y-77173938D01*
X27158126Y-77316632D01*
X27228595Y-77357811D01*
X27231445Y-77359476D01*
X27280169Y-77411114D01*
X27293240Y-77480897D01*
X27266509Y-77546669D01*
X27226055Y-77580027D01*
X27213607Y-77586507D01*
X27209474Y-77589610D01*
X27209471Y-77589612D01*
X27185247Y-77607800D01*
X27034965Y-77720635D01*
X26880629Y-77882138D01*
X26754743Y-78066680D01*
X26739975Y-78098496D01*
X26677723Y-78232607D01*
X26660688Y-78269305D01*
X26600989Y-78484570D01*
X26577251Y-78706695D01*
X26577548Y-78711848D01*
X26577548Y-78711851D01*
X26583011Y-78806590D01*
X26590110Y-78929715D01*
X26591247Y-78934761D01*
X26591248Y-78934767D01*
X26611119Y-79022939D01*
X26639222Y-79147639D01*
X26723266Y-79354616D01*
X26839987Y-79545088D01*
X26986250Y-79713938D01*
X27158126Y-79856632D01*
X27228595Y-79897811D01*
X27231445Y-79899476D01*
X27280169Y-79951114D01*
X27293240Y-80020897D01*
X27266509Y-80086669D01*
X27226055Y-80120027D01*
X27213607Y-80126507D01*
X27209474Y-80129610D01*
X27209471Y-80129612D01*
X27185247Y-80147800D01*
X27034965Y-80260635D01*
X26880629Y-80422138D01*
X26754743Y-80606680D01*
X26660688Y-80809305D01*
X26600989Y-81024570D01*
X26577251Y-81246695D01*
X26577548Y-81251848D01*
X26577548Y-81251851D01*
X26583011Y-81346590D01*
X26590110Y-81469715D01*
X26591247Y-81474761D01*
X26591248Y-81474767D01*
X26611119Y-81562939D01*
X26639222Y-81687639D01*
X26723266Y-81894616D01*
X26839987Y-82085088D01*
X26986250Y-82253938D01*
X27158126Y-82396632D01*
X27228595Y-82437811D01*
X27231445Y-82439476D01*
X27280169Y-82491114D01*
X27293240Y-82560897D01*
X27266509Y-82626669D01*
X27226055Y-82660027D01*
X27213607Y-82666507D01*
X27209474Y-82669610D01*
X27209471Y-82669612D01*
X27185247Y-82687800D01*
X27034965Y-82800635D01*
X26880629Y-82962138D01*
X26754743Y-83146680D01*
X26660688Y-83349305D01*
X26600989Y-83564570D01*
X26577251Y-83786695D01*
X25908500Y-83786695D01*
X25908500Y-71086695D01*
X26577251Y-71086695D01*
X26577548Y-71091848D01*
X26577548Y-71091851D01*
X26583011Y-71186590D01*
X26590110Y-71309715D01*
X26591247Y-71314761D01*
X26591248Y-71314767D01*
X26611119Y-71402939D01*
X26639222Y-71527639D01*
X26723266Y-71734616D01*
X26839987Y-71925088D01*
X26986250Y-72093938D01*
X27158126Y-72236632D01*
X27231955Y-72279774D01*
X27280679Y-72331412D01*
X27293750Y-72401195D01*
X27267019Y-72466967D01*
X27226562Y-72500327D01*
X27218457Y-72504546D01*
X27209738Y-72510036D01*
X27039433Y-72637905D01*
X27031726Y-72644748D01*
X26884590Y-72798717D01*
X26878104Y-72806727D01*
X26758098Y-72982649D01*
X26753000Y-72991623D01*
X26663338Y-73184783D01*
X26659775Y-73194470D01*
X26604389Y-73394183D01*
X26605912Y-73402607D01*
X26618292Y-73406000D01*
X29258344Y-73406000D01*
X29271875Y-73402027D01*
X29273180Y-73392947D01*
X29231214Y-73225875D01*
X29227894Y-73216124D01*
X29142972Y-73020814D01*
X29138105Y-73011739D01*
X29022426Y-72832926D01*
X29016136Y-72824757D01*
X28872806Y-72667240D01*
X28865273Y-72660215D01*
X28698139Y-72528222D01*
X28689556Y-72522520D01*
X28652602Y-72502120D01*
X28602631Y-72451687D01*
X28587859Y-72382245D01*
X28612975Y-72315839D01*
X28640327Y-72289232D01*
X28663797Y-72272491D01*
X28819860Y-72161173D01*
X28978096Y-72003489D01*
X29037594Y-71920689D01*
X29105435Y-71826277D01*
X29108453Y-71822077D01*
X29207430Y-71621811D01*
X29272370Y-71408069D01*
X29301529Y-71186590D01*
X29303156Y-71120000D01*
X29300418Y-71086695D01*
X54517251Y-71086695D01*
X54517548Y-71091848D01*
X54517548Y-71091851D01*
X54523011Y-71186590D01*
X54530110Y-71309715D01*
X54531247Y-71314761D01*
X54531248Y-71314767D01*
X54551119Y-71402939D01*
X54579222Y-71527639D01*
X54663266Y-71734616D01*
X54779987Y-71925088D01*
X54926250Y-72093938D01*
X55098126Y-72236632D01*
X55171955Y-72279774D01*
X55220679Y-72331412D01*
X55233750Y-72401195D01*
X55207019Y-72466967D01*
X55166562Y-72500327D01*
X55158457Y-72504546D01*
X55149738Y-72510036D01*
X54979433Y-72637905D01*
X54971726Y-72644748D01*
X54824590Y-72798717D01*
X54818104Y-72806727D01*
X54698098Y-72982649D01*
X54693000Y-72991623D01*
X54603338Y-73184783D01*
X54599775Y-73194470D01*
X54544389Y-73394183D01*
X54545912Y-73402607D01*
X54558292Y-73406000D01*
X57198344Y-73406000D01*
X57211875Y-73402027D01*
X57213180Y-73392947D01*
X57171214Y-73225875D01*
X57167894Y-73216124D01*
X57082972Y-73020814D01*
X57078105Y-73011739D01*
X56962426Y-72832926D01*
X56956136Y-72824757D01*
X56812806Y-72667240D01*
X56805273Y-72660215D01*
X56638139Y-72528222D01*
X56629556Y-72522520D01*
X56592602Y-72502120D01*
X56542631Y-72451687D01*
X56527859Y-72382245D01*
X56552975Y-72315839D01*
X56580327Y-72289232D01*
X56603797Y-72272491D01*
X56759860Y-72161173D01*
X56918096Y-72003489D01*
X56977594Y-71920689D01*
X57045435Y-71826277D01*
X57048453Y-71822077D01*
X57147430Y-71621811D01*
X57212370Y-71408069D01*
X57241529Y-71186590D01*
X57243156Y-71120000D01*
X57224852Y-70897361D01*
X57170431Y-70680702D01*
X57081354Y-70475840D01*
X56960014Y-70288277D01*
X56809670Y-70123051D01*
X56805619Y-70119852D01*
X56805615Y-70119848D01*
X56638414Y-69987800D01*
X56638410Y-69987798D01*
X56634359Y-69984598D01*
X56628387Y-69981301D01*
X56592569Y-69961529D01*
X56542598Y-69911097D01*
X56527826Y-69841654D01*
X56552942Y-69775248D01*
X56580294Y-69748641D01*
X56755328Y-69623792D01*
X56763200Y-69617139D01*
X56914052Y-69466812D01*
X56920730Y-69458965D01*
X57045003Y-69286020D01*
X57050313Y-69277183D01*
X57144670Y-69086267D01*
X57148469Y-69076672D01*
X57210377Y-68872910D01*
X57212555Y-68862837D01*
X57213986Y-68851962D01*
X57211775Y-68837778D01*
X57198617Y-68834000D01*
X54563225Y-68834000D01*
X54549694Y-68837973D01*
X54548257Y-68847966D01*
X54578565Y-68982446D01*
X54581645Y-68992275D01*
X54661770Y-69189603D01*
X54666413Y-69198794D01*
X54777694Y-69380388D01*
X54783777Y-69388699D01*
X54923213Y-69549667D01*
X54930580Y-69556883D01*
X55094434Y-69692916D01*
X55102881Y-69698831D01*
X55171969Y-69739203D01*
X55220693Y-69790842D01*
X55233764Y-69860625D01*
X55207033Y-69926396D01*
X55166584Y-69959752D01*
X55153607Y-69966507D01*
X55149474Y-69969610D01*
X55149471Y-69969612D01*
X54986115Y-70092263D01*
X54974965Y-70100635D01*
X54820629Y-70262138D01*
X54817715Y-70266410D01*
X54817714Y-70266411D01*
X54799838Y-70292617D01*
X54694743Y-70446680D01*
X54600688Y-70649305D01*
X54540989Y-70864570D01*
X54517251Y-71086695D01*
X29300418Y-71086695D01*
X29284852Y-70897361D01*
X29230431Y-70680702D01*
X29141354Y-70475840D01*
X29020014Y-70288277D01*
X28869670Y-70123051D01*
X28865619Y-70119852D01*
X28865615Y-70119848D01*
X28698414Y-69987800D01*
X28698410Y-69987798D01*
X28694359Y-69984598D01*
X28688387Y-69981301D01*
X28652569Y-69961529D01*
X28602598Y-69911097D01*
X28587826Y-69841654D01*
X28612942Y-69775248D01*
X28640294Y-69748641D01*
X28815328Y-69623792D01*
X28823200Y-69617139D01*
X28971856Y-69469000D01*
X41935771Y-69469000D01*
X41954635Y-69648475D01*
X41956675Y-69654753D01*
X41956675Y-69654754D01*
X41969075Y-69692916D01*
X42010401Y-69820107D01*
X42100633Y-69976393D01*
X42105051Y-69981300D01*
X42105052Y-69981301D01*
X42107036Y-69983504D01*
X42221387Y-70110504D01*
X42226729Y-70114385D01*
X42226731Y-70114387D01*
X42362043Y-70212697D01*
X42367385Y-70216578D01*
X42373413Y-70219262D01*
X42373415Y-70219263D01*
X42469714Y-70262138D01*
X42532248Y-70289980D01*
X42620508Y-70308740D01*
X42702311Y-70326128D01*
X42702315Y-70326128D01*
X42708768Y-70327500D01*
X42889232Y-70327500D01*
X42895685Y-70326128D01*
X42895689Y-70326128D01*
X42977492Y-70308740D01*
X43065752Y-70289980D01*
X43128286Y-70262138D01*
X43224585Y-70219263D01*
X43224587Y-70219262D01*
X43230615Y-70216578D01*
X43235957Y-70212697D01*
X43371269Y-70114387D01*
X43371271Y-70114385D01*
X43376613Y-70110504D01*
X43490964Y-69983504D01*
X43492948Y-69981301D01*
X43492949Y-69981300D01*
X43497367Y-69976393D01*
X43587599Y-69820107D01*
X43628925Y-69692916D01*
X43641325Y-69654754D01*
X43641325Y-69654753D01*
X43643365Y-69648475D01*
X43662229Y-69469000D01*
X43652915Y-69380388D01*
X43648880Y-69342000D01*
X48920771Y-69342000D01*
X48921461Y-69348565D01*
X48934810Y-69475565D01*
X48939635Y-69521475D01*
X48995401Y-69693107D01*
X49085633Y-69849393D01*
X49090051Y-69854300D01*
X49090052Y-69854301D01*
X49194836Y-69970675D01*
X49206387Y-69983504D01*
X49211729Y-69987385D01*
X49211731Y-69987387D01*
X49347043Y-70085697D01*
X49352385Y-70089578D01*
X49358413Y-70092262D01*
X49358415Y-70092263D01*
X49511217Y-70160295D01*
X49517248Y-70162980D01*
X49605508Y-70181740D01*
X49687311Y-70199128D01*
X49687315Y-70199128D01*
X49693768Y-70200500D01*
X49874232Y-70200500D01*
X49880685Y-70199128D01*
X49880689Y-70199128D01*
X49962492Y-70181740D01*
X50050752Y-70162980D01*
X50056783Y-70160295D01*
X50209585Y-70092263D01*
X50209587Y-70092262D01*
X50215615Y-70089578D01*
X50220957Y-70085697D01*
X50356269Y-69987387D01*
X50356271Y-69987385D01*
X50361613Y-69983504D01*
X50373164Y-69970675D01*
X50477948Y-69854301D01*
X50477949Y-69854300D01*
X50482367Y-69849393D01*
X50572599Y-69693107D01*
X50628365Y-69521475D01*
X50633191Y-69475565D01*
X50646539Y-69348565D01*
X50647229Y-69342000D01*
X50628365Y-69162525D01*
X50615906Y-69124178D01*
X50574641Y-68997178D01*
X50572599Y-68990893D01*
X50482367Y-68834607D01*
X50361613Y-68700496D01*
X50289387Y-68648020D01*
X50220957Y-68598303D01*
X50220956Y-68598302D01*
X50215615Y-68594422D01*
X50209587Y-68591738D01*
X50209585Y-68591737D01*
X50056783Y-68523705D01*
X50056781Y-68523705D01*
X50050752Y-68521020D01*
X49962492Y-68502260D01*
X49880689Y-68484872D01*
X49880685Y-68484872D01*
X49874232Y-68483500D01*
X49693768Y-68483500D01*
X49687315Y-68484872D01*
X49687311Y-68484872D01*
X49605508Y-68502260D01*
X49517248Y-68521020D01*
X49511219Y-68523704D01*
X49511217Y-68523705D01*
X49358416Y-68591737D01*
X49358414Y-68591738D01*
X49352386Y-68594422D01*
X49347045Y-68598302D01*
X49347044Y-68598303D01*
X49211731Y-68696613D01*
X49211729Y-68696615D01*
X49206387Y-68700496D01*
X49085633Y-68834607D01*
X48995401Y-68990893D01*
X48993359Y-68997178D01*
X48952095Y-69124178D01*
X48939635Y-69162525D01*
X48920771Y-69342000D01*
X43648880Y-69342000D01*
X43644055Y-69296089D01*
X43644055Y-69296088D01*
X43643365Y-69289525D01*
X43587599Y-69117893D01*
X43497367Y-68961607D01*
X43376613Y-68827496D01*
X43230615Y-68721422D01*
X43224587Y-68718738D01*
X43224585Y-68718737D01*
X43071783Y-68650705D01*
X43071781Y-68650705D01*
X43065752Y-68648020D01*
X42977492Y-68629260D01*
X42895689Y-68611872D01*
X42895685Y-68611872D01*
X42889232Y-68610500D01*
X42708768Y-68610500D01*
X42702315Y-68611872D01*
X42702311Y-68611872D01*
X42620508Y-68629260D01*
X42532248Y-68648020D01*
X42526219Y-68650704D01*
X42526217Y-68650705D01*
X42373416Y-68718737D01*
X42373414Y-68718738D01*
X42367386Y-68721422D01*
X42362045Y-68725302D01*
X42362044Y-68725303D01*
X42226731Y-68823613D01*
X42226729Y-68823615D01*
X42221387Y-68827496D01*
X42100633Y-68961607D01*
X42010401Y-69117893D01*
X41954635Y-69289525D01*
X41953945Y-69296088D01*
X41953945Y-69296089D01*
X41945085Y-69380388D01*
X41935771Y-69469000D01*
X28971856Y-69469000D01*
X28974052Y-69466812D01*
X28980730Y-69458965D01*
X29105003Y-69286020D01*
X29110313Y-69277183D01*
X29204670Y-69086267D01*
X29208469Y-69076672D01*
X29270377Y-68872910D01*
X29272555Y-68862837D01*
X29273986Y-68851962D01*
X29271775Y-68837778D01*
X29258617Y-68834000D01*
X26623225Y-68834000D01*
X26609694Y-68837973D01*
X26608257Y-68847966D01*
X26638565Y-68982446D01*
X26641645Y-68992275D01*
X26721770Y-69189603D01*
X26726413Y-69198794D01*
X26837694Y-69380388D01*
X26843777Y-69388699D01*
X26983213Y-69549667D01*
X26990580Y-69556883D01*
X27154434Y-69692916D01*
X27162881Y-69698831D01*
X27231969Y-69739203D01*
X27280693Y-69790842D01*
X27293764Y-69860625D01*
X27267033Y-69926396D01*
X27226584Y-69959752D01*
X27213607Y-69966507D01*
X27209474Y-69969610D01*
X27209471Y-69969612D01*
X27046115Y-70092263D01*
X27034965Y-70100635D01*
X26880629Y-70262138D01*
X26877715Y-70266410D01*
X26877714Y-70266411D01*
X26859838Y-70292617D01*
X26754743Y-70446680D01*
X26660688Y-70649305D01*
X26600989Y-70864570D01*
X26577251Y-71086695D01*
X25908500Y-71086695D01*
X25908500Y-66006695D01*
X26577251Y-66006695D01*
X26577548Y-66011848D01*
X26577548Y-66011851D01*
X26583011Y-66106590D01*
X26590110Y-66229715D01*
X26591247Y-66234761D01*
X26591248Y-66234767D01*
X26611119Y-66322939D01*
X26639222Y-66447639D01*
X26723266Y-66654616D01*
X26839987Y-66845088D01*
X26986250Y-67013938D01*
X27158126Y-67156632D01*
X27231955Y-67199774D01*
X27280679Y-67251412D01*
X27293750Y-67321195D01*
X27267019Y-67386967D01*
X27226562Y-67420327D01*
X27218457Y-67424546D01*
X27209738Y-67430036D01*
X27039433Y-67557905D01*
X27031726Y-67564748D01*
X26884590Y-67718717D01*
X26878104Y-67726727D01*
X26758098Y-67902649D01*
X26753000Y-67911623D01*
X26663338Y-68104783D01*
X26659775Y-68114470D01*
X26604389Y-68314183D01*
X26605912Y-68322607D01*
X26618292Y-68326000D01*
X29258344Y-68326000D01*
X29271875Y-68322027D01*
X29273180Y-68312947D01*
X29231214Y-68145875D01*
X29227894Y-68136124D01*
X29142972Y-67940814D01*
X29138105Y-67931739D01*
X29022426Y-67752926D01*
X29016136Y-67744757D01*
X28872806Y-67587240D01*
X28865273Y-67580215D01*
X28698139Y-67448222D01*
X28689556Y-67442520D01*
X28652602Y-67422120D01*
X28602631Y-67371687D01*
X28587859Y-67302245D01*
X28612975Y-67235839D01*
X28640327Y-67209232D01*
X28663797Y-67192491D01*
X28819860Y-67081173D01*
X28978096Y-66923489D01*
X29037594Y-66840689D01*
X29105435Y-66746277D01*
X29108453Y-66742077D01*
X29207430Y-66541811D01*
X29272370Y-66328069D01*
X29301529Y-66106590D01*
X29303156Y-66040000D01*
X29300418Y-66006695D01*
X54517251Y-66006695D01*
X54517548Y-66011848D01*
X54517548Y-66011851D01*
X54523011Y-66106590D01*
X54530110Y-66229715D01*
X54531247Y-66234761D01*
X54531248Y-66234767D01*
X54551119Y-66322939D01*
X54579222Y-66447639D01*
X54663266Y-66654616D01*
X54779987Y-66845088D01*
X54926250Y-67013938D01*
X55098126Y-67156632D01*
X55171955Y-67199774D01*
X55220679Y-67251412D01*
X55233750Y-67321195D01*
X55207019Y-67386967D01*
X55166562Y-67420327D01*
X55158457Y-67424546D01*
X55149738Y-67430036D01*
X54979433Y-67557905D01*
X54971726Y-67564748D01*
X54824590Y-67718717D01*
X54818104Y-67726727D01*
X54698098Y-67902649D01*
X54693000Y-67911623D01*
X54603338Y-68104783D01*
X54599775Y-68114470D01*
X54544389Y-68314183D01*
X54545912Y-68322607D01*
X54558292Y-68326000D01*
X57198344Y-68326000D01*
X57211875Y-68322027D01*
X57213180Y-68312947D01*
X57171214Y-68145875D01*
X57167894Y-68136124D01*
X57082972Y-67940814D01*
X57078105Y-67931739D01*
X56962426Y-67752926D01*
X56956136Y-67744757D01*
X56812806Y-67587240D01*
X56805273Y-67580215D01*
X56638139Y-67448222D01*
X56629556Y-67442520D01*
X56592602Y-67422120D01*
X56542631Y-67371687D01*
X56527859Y-67302245D01*
X56552975Y-67235839D01*
X56580327Y-67209232D01*
X56603797Y-67192491D01*
X56759860Y-67081173D01*
X56918096Y-66923489D01*
X56977594Y-66840689D01*
X57045435Y-66746277D01*
X57048453Y-66742077D01*
X57147430Y-66541811D01*
X57212370Y-66328069D01*
X57241529Y-66106590D01*
X57243156Y-66040000D01*
X57224852Y-65817361D01*
X57170431Y-65600702D01*
X57081354Y-65395840D01*
X56960014Y-65208277D01*
X56809670Y-65043051D01*
X56805619Y-65039852D01*
X56805615Y-65039848D01*
X56638414Y-64907800D01*
X56638410Y-64907798D01*
X56634359Y-64904598D01*
X56593053Y-64881796D01*
X56543084Y-64831364D01*
X56528312Y-64761921D01*
X56553428Y-64695516D01*
X56580780Y-64668909D01*
X56624603Y-64637650D01*
X56759860Y-64541173D01*
X56918096Y-64383489D01*
X56977594Y-64300689D01*
X57045435Y-64206277D01*
X57048453Y-64202077D01*
X57147430Y-64001811D01*
X57212370Y-63788069D01*
X57241529Y-63566590D01*
X57243156Y-63500000D01*
X57224852Y-63277361D01*
X57170431Y-63060702D01*
X57081354Y-62855840D01*
X56960014Y-62668277D01*
X56809670Y-62503051D01*
X56805619Y-62499852D01*
X56805615Y-62499848D01*
X56638414Y-62367800D01*
X56638410Y-62367798D01*
X56634359Y-62364598D01*
X56592569Y-62341529D01*
X56542598Y-62291097D01*
X56527826Y-62221654D01*
X56552942Y-62155248D01*
X56580294Y-62128641D01*
X56755328Y-62003792D01*
X56763200Y-61997139D01*
X56914052Y-61846812D01*
X56920730Y-61838965D01*
X57045003Y-61666020D01*
X57050313Y-61657183D01*
X57144670Y-61466267D01*
X57148469Y-61456672D01*
X57210377Y-61252910D01*
X57212555Y-61242837D01*
X57213986Y-61231962D01*
X57211775Y-61217778D01*
X57198617Y-61214000D01*
X54563225Y-61214000D01*
X54549694Y-61217973D01*
X54548257Y-61227966D01*
X54578565Y-61362446D01*
X54581645Y-61372275D01*
X54661770Y-61569603D01*
X54666413Y-61578794D01*
X54777694Y-61760388D01*
X54783777Y-61768699D01*
X54923213Y-61929667D01*
X54930580Y-61936883D01*
X55094434Y-62072916D01*
X55102881Y-62078831D01*
X55171969Y-62119203D01*
X55220693Y-62170842D01*
X55233764Y-62240625D01*
X55207033Y-62306396D01*
X55166584Y-62339752D01*
X55153607Y-62346507D01*
X55149474Y-62349610D01*
X55149471Y-62349612D01*
X55125247Y-62367800D01*
X54974965Y-62480635D01*
X54820629Y-62642138D01*
X54694743Y-62826680D01*
X54600688Y-63029305D01*
X54540989Y-63244570D01*
X54517251Y-63466695D01*
X54517548Y-63471848D01*
X54517548Y-63471851D01*
X54523011Y-63566590D01*
X54530110Y-63689715D01*
X54531247Y-63694761D01*
X54531248Y-63694767D01*
X54551119Y-63782939D01*
X54579222Y-63907639D01*
X54663266Y-64114616D01*
X54779987Y-64305088D01*
X54926250Y-64473938D01*
X55098126Y-64616632D01*
X55168595Y-64657811D01*
X55171445Y-64659476D01*
X55220169Y-64711114D01*
X55233240Y-64780897D01*
X55206509Y-64846669D01*
X55166055Y-64880027D01*
X55153607Y-64886507D01*
X55149474Y-64889610D01*
X55149471Y-64889612D01*
X55125247Y-64907800D01*
X54974965Y-65020635D01*
X54820629Y-65182138D01*
X54694743Y-65366680D01*
X54600688Y-65569305D01*
X54540989Y-65784570D01*
X54517251Y-66006695D01*
X29300418Y-66006695D01*
X29284852Y-65817361D01*
X29230431Y-65600702D01*
X29141354Y-65395840D01*
X29020014Y-65208277D01*
X28869670Y-65043051D01*
X28865619Y-65039852D01*
X28865615Y-65039848D01*
X28698414Y-64907800D01*
X28698410Y-64907798D01*
X28694359Y-64904598D01*
X28653053Y-64881796D01*
X28603084Y-64831364D01*
X28588312Y-64761921D01*
X28613428Y-64695516D01*
X28640780Y-64668909D01*
X28684603Y-64637650D01*
X28819860Y-64541173D01*
X28978096Y-64383489D01*
X29037594Y-64300689D01*
X29105435Y-64206277D01*
X29108453Y-64202077D01*
X29207430Y-64001811D01*
X29272370Y-63788069D01*
X29301529Y-63566590D01*
X29303156Y-63500000D01*
X29284852Y-63277361D01*
X29230431Y-63060702D01*
X29141354Y-62855840D01*
X29020014Y-62668277D01*
X28869670Y-62503051D01*
X28865619Y-62499852D01*
X28865615Y-62499848D01*
X28698414Y-62367800D01*
X28698410Y-62367798D01*
X28694359Y-62364598D01*
X28652569Y-62341529D01*
X28602598Y-62291097D01*
X28587826Y-62221654D01*
X28612942Y-62155248D01*
X28640294Y-62128641D01*
X28815328Y-62003792D01*
X28823200Y-61997139D01*
X28974052Y-61846812D01*
X28980730Y-61838965D01*
X29105003Y-61666020D01*
X29110313Y-61657183D01*
X29204670Y-61466267D01*
X29208469Y-61456672D01*
X29270377Y-61252910D01*
X29272555Y-61242837D01*
X29273986Y-61231962D01*
X29271775Y-61217778D01*
X29258617Y-61214000D01*
X26623225Y-61214000D01*
X26609694Y-61217973D01*
X26608257Y-61227966D01*
X26638565Y-61362446D01*
X26641645Y-61372275D01*
X26721770Y-61569603D01*
X26726413Y-61578794D01*
X26837694Y-61760388D01*
X26843777Y-61768699D01*
X26983213Y-61929667D01*
X26990580Y-61936883D01*
X27154434Y-62072916D01*
X27162881Y-62078831D01*
X27231969Y-62119203D01*
X27280693Y-62170842D01*
X27293764Y-62240625D01*
X27267033Y-62306396D01*
X27226584Y-62339752D01*
X27213607Y-62346507D01*
X27209474Y-62349610D01*
X27209471Y-62349612D01*
X27185247Y-62367800D01*
X27034965Y-62480635D01*
X26880629Y-62642138D01*
X26754743Y-62826680D01*
X26660688Y-63029305D01*
X26600989Y-63244570D01*
X26577251Y-63466695D01*
X26577548Y-63471848D01*
X26577548Y-63471851D01*
X26583011Y-63566590D01*
X26590110Y-63689715D01*
X26591247Y-63694761D01*
X26591248Y-63694767D01*
X26611119Y-63782939D01*
X26639222Y-63907639D01*
X26723266Y-64114616D01*
X26839987Y-64305088D01*
X26986250Y-64473938D01*
X27158126Y-64616632D01*
X27228595Y-64657811D01*
X27231445Y-64659476D01*
X27280169Y-64711114D01*
X27293240Y-64780897D01*
X27266509Y-64846669D01*
X27226055Y-64880027D01*
X27213607Y-64886507D01*
X27209474Y-64889610D01*
X27209471Y-64889612D01*
X27185247Y-64907800D01*
X27034965Y-65020635D01*
X26880629Y-65182138D01*
X26754743Y-65366680D01*
X26660688Y-65569305D01*
X26600989Y-65784570D01*
X26577251Y-66006695D01*
X25908500Y-66006695D01*
X25908500Y-59318134D01*
X26581500Y-59318134D01*
X26588255Y-59380316D01*
X26639385Y-59516705D01*
X26726739Y-59633261D01*
X26843295Y-59720615D01*
X26851704Y-59723767D01*
X26851705Y-59723768D01*
X26960960Y-59764726D01*
X27017725Y-59807367D01*
X27042425Y-59873929D01*
X27027218Y-59943278D01*
X27007825Y-59969759D01*
X26884590Y-60098717D01*
X26878104Y-60106727D01*
X26758098Y-60282649D01*
X26753000Y-60291623D01*
X26663338Y-60484783D01*
X26659775Y-60494470D01*
X26604389Y-60694183D01*
X26605912Y-60702607D01*
X26618292Y-60706000D01*
X29258344Y-60706000D01*
X29271875Y-60702027D01*
X29273180Y-60692947D01*
X29231214Y-60525875D01*
X29227894Y-60516124D01*
X29142972Y-60320814D01*
X29138105Y-60311739D01*
X29022426Y-60132926D01*
X29016136Y-60124757D01*
X28872293Y-59966677D01*
X28841241Y-59902831D01*
X28849635Y-59832333D01*
X28894812Y-59777564D01*
X28921256Y-59763895D01*
X29028297Y-59723767D01*
X29036705Y-59720615D01*
X29153261Y-59633261D01*
X29240615Y-59516705D01*
X29291745Y-59380316D01*
X29298500Y-59318134D01*
X54521500Y-59318134D01*
X54528255Y-59380316D01*
X54579385Y-59516705D01*
X54666739Y-59633261D01*
X54783295Y-59720615D01*
X54791704Y-59723767D01*
X54791705Y-59723768D01*
X54900960Y-59764726D01*
X54957725Y-59807367D01*
X54982425Y-59873929D01*
X54967218Y-59943278D01*
X54947825Y-59969759D01*
X54824590Y-60098717D01*
X54818104Y-60106727D01*
X54698098Y-60282649D01*
X54693000Y-60291623D01*
X54603338Y-60484783D01*
X54599775Y-60494470D01*
X54544389Y-60694183D01*
X54545912Y-60702607D01*
X54558292Y-60706000D01*
X57198344Y-60706000D01*
X57211875Y-60702027D01*
X57213180Y-60692947D01*
X57171214Y-60525875D01*
X57167894Y-60516124D01*
X57082972Y-60320814D01*
X57078105Y-60311739D01*
X56962426Y-60132926D01*
X56956136Y-60124757D01*
X56812293Y-59966677D01*
X56781241Y-59902831D01*
X56789635Y-59832333D01*
X56834812Y-59777564D01*
X56861256Y-59763895D01*
X56968297Y-59723767D01*
X56976705Y-59720615D01*
X57093261Y-59633261D01*
X57180615Y-59516705D01*
X57231745Y-59380316D01*
X57238500Y-59318134D01*
X57238500Y-57521866D01*
X57231745Y-57459684D01*
X57180615Y-57323295D01*
X57093261Y-57206739D01*
X56976705Y-57119385D01*
X56840316Y-57068255D01*
X56778134Y-57061500D01*
X54981866Y-57061500D01*
X54919684Y-57068255D01*
X54783295Y-57119385D01*
X54666739Y-57206739D01*
X54579385Y-57323295D01*
X54528255Y-57459684D01*
X54521500Y-57521866D01*
X54521500Y-59318134D01*
X29298500Y-59318134D01*
X29298500Y-57521866D01*
X29291745Y-57459684D01*
X29240615Y-57323295D01*
X29153261Y-57206739D01*
X29036705Y-57119385D01*
X28900316Y-57068255D01*
X28838134Y-57061500D01*
X27041866Y-57061500D01*
X26979684Y-57068255D01*
X26843295Y-57119385D01*
X26726739Y-57206739D01*
X26639385Y-57323295D01*
X26588255Y-57459684D01*
X26581500Y-57521866D01*
X26581500Y-59318134D01*
X25908500Y-59318134D01*
X25908500Y-53508805D01*
X28370743Y-53508805D01*
X28408268Y-53793836D01*
X28484129Y-54071138D01*
X28596923Y-54335578D01*
X28744561Y-54582263D01*
X28924313Y-54806630D01*
X29132851Y-55004525D01*
X29366317Y-55172288D01*
X29370112Y-55174297D01*
X29370113Y-55174298D01*
X29391869Y-55185817D01*
X29620392Y-55306814D01*
X29890373Y-55405613D01*
X30171264Y-55466857D01*
X30199841Y-55469106D01*
X30394282Y-55484409D01*
X30394291Y-55484409D01*
X30396739Y-55484602D01*
X30552271Y-55484602D01*
X30554407Y-55484456D01*
X30554418Y-55484456D01*
X30762548Y-55470267D01*
X30762554Y-55470266D01*
X30766825Y-55469975D01*
X30771020Y-55469106D01*
X30771022Y-55469106D01*
X30907583Y-55440826D01*
X31048342Y-55411676D01*
X31319343Y-55315709D01*
X31574812Y-55183852D01*
X31578313Y-55181391D01*
X31578317Y-55181389D01*
X31692418Y-55101197D01*
X31810023Y-55018543D01*
X32020622Y-54822842D01*
X32202713Y-54600370D01*
X32352927Y-54355244D01*
X32468483Y-54092000D01*
X32547244Y-53815508D01*
X32587751Y-53530886D01*
X32587845Y-53513053D01*
X32587867Y-53508805D01*
X51230743Y-53508805D01*
X51268268Y-53793836D01*
X51344129Y-54071138D01*
X51456923Y-54335578D01*
X51604561Y-54582263D01*
X51784313Y-54806630D01*
X51992851Y-55004525D01*
X52226317Y-55172288D01*
X52230112Y-55174297D01*
X52230113Y-55174298D01*
X52251869Y-55185817D01*
X52480392Y-55306814D01*
X52750373Y-55405613D01*
X53031264Y-55466857D01*
X53059841Y-55469106D01*
X53254282Y-55484409D01*
X53254291Y-55484409D01*
X53256739Y-55484602D01*
X53412271Y-55484602D01*
X53414407Y-55484456D01*
X53414418Y-55484456D01*
X53622548Y-55470267D01*
X53622554Y-55470266D01*
X53626825Y-55469975D01*
X53631020Y-55469106D01*
X53631022Y-55469106D01*
X53767583Y-55440826D01*
X53908342Y-55411676D01*
X54179343Y-55315709D01*
X54434812Y-55183852D01*
X54438313Y-55181391D01*
X54438317Y-55181389D01*
X54552418Y-55101197D01*
X54670023Y-55018543D01*
X54880622Y-54822842D01*
X55062713Y-54600370D01*
X55212927Y-54355244D01*
X55328483Y-54092000D01*
X55407244Y-53815508D01*
X55447751Y-53530886D01*
X55447845Y-53513053D01*
X55449235Y-53247685D01*
X55449235Y-53247678D01*
X55449257Y-53243399D01*
X55411732Y-52958368D01*
X55335871Y-52681066D01*
X55223077Y-52416626D01*
X55098516Y-52208500D01*
X55077643Y-52173623D01*
X55077640Y-52173619D01*
X55075439Y-52169941D01*
X54895687Y-51945574D01*
X54712122Y-51771377D01*
X54690258Y-51750629D01*
X54690255Y-51750627D01*
X54687149Y-51747679D01*
X54453683Y-51579916D01*
X54431843Y-51568352D01*
X54408654Y-51556074D01*
X54199608Y-51445390D01*
X53929627Y-51346591D01*
X53648736Y-51285347D01*
X53617685Y-51282903D01*
X53425718Y-51267795D01*
X53425709Y-51267795D01*
X53423261Y-51267602D01*
X53267729Y-51267602D01*
X53265593Y-51267748D01*
X53265582Y-51267748D01*
X53057452Y-51281937D01*
X53057446Y-51281938D01*
X53053175Y-51282229D01*
X53048980Y-51283098D01*
X53048978Y-51283098D01*
X52912417Y-51311378D01*
X52771658Y-51340528D01*
X52500657Y-51436495D01*
X52245188Y-51568352D01*
X52241687Y-51570813D01*
X52241683Y-51570815D01*
X52231594Y-51577906D01*
X52009977Y-51733661D01*
X51994892Y-51747679D01*
X51852921Y-51879607D01*
X51799378Y-51929362D01*
X51617287Y-52151834D01*
X51467073Y-52396960D01*
X51351517Y-52660204D01*
X51272756Y-52936696D01*
X51232249Y-53221318D01*
X51232227Y-53225607D01*
X51232226Y-53225614D01*
X51231452Y-53373421D01*
X51230743Y-53508805D01*
X32587867Y-53508805D01*
X32589235Y-53247685D01*
X32589235Y-53247678D01*
X32589257Y-53243399D01*
X32551732Y-52958368D01*
X32475871Y-52681066D01*
X32363077Y-52416626D01*
X32238516Y-52208500D01*
X32217643Y-52173623D01*
X32217640Y-52173619D01*
X32215439Y-52169941D01*
X32035687Y-51945574D01*
X31852122Y-51771377D01*
X31830258Y-51750629D01*
X31830255Y-51750627D01*
X31827149Y-51747679D01*
X31593683Y-51579916D01*
X31571843Y-51568352D01*
X31548654Y-51556074D01*
X31339608Y-51445390D01*
X31069627Y-51346591D01*
X30788736Y-51285347D01*
X30757685Y-51282903D01*
X30565718Y-51267795D01*
X30565709Y-51267795D01*
X30563261Y-51267602D01*
X30407729Y-51267602D01*
X30405593Y-51267748D01*
X30405582Y-51267748D01*
X30197452Y-51281937D01*
X30197446Y-51281938D01*
X30193175Y-51282229D01*
X30188980Y-51283098D01*
X30188978Y-51283098D01*
X30052417Y-51311378D01*
X29911658Y-51340528D01*
X29640657Y-51436495D01*
X29385188Y-51568352D01*
X29381687Y-51570813D01*
X29381683Y-51570815D01*
X29371594Y-51577906D01*
X29149977Y-51733661D01*
X29134892Y-51747679D01*
X28992921Y-51879607D01*
X28939378Y-51929362D01*
X28757287Y-52151834D01*
X28607073Y-52396960D01*
X28491517Y-52660204D01*
X28412756Y-52936696D01*
X28372249Y-53221318D01*
X28372227Y-53225607D01*
X28372226Y-53225614D01*
X28371452Y-53373421D01*
X28370743Y-53508805D01*
X25908500Y-53508805D01*
X25908500Y-53393250D01*
X25910246Y-53372345D01*
X25912770Y-53357344D01*
X25912770Y-53357341D01*
X25913576Y-53352552D01*
X25913729Y-53340000D01*
X25913039Y-53335184D01*
X25913039Y-53335178D01*
X25911387Y-53323644D01*
X25910234Y-53300284D01*
X25913868Y-53217066D01*
X25925656Y-52947063D01*
X25926614Y-52936114D01*
X25977233Y-52551621D01*
X25979142Y-52540795D01*
X26063080Y-52162178D01*
X26065925Y-52151561D01*
X26161478Y-51848503D01*
X26182542Y-51781698D01*
X26186298Y-51771377D01*
X26334715Y-51413068D01*
X26339357Y-51403115D01*
X26369258Y-51345677D01*
X26518424Y-51059132D01*
X26523919Y-51049613D01*
X26560923Y-50991529D01*
X26704938Y-50765469D01*
X39232095Y-50765469D01*
X39245427Y-50996697D01*
X39246564Y-51001743D01*
X39246565Y-51001749D01*
X39278741Y-51144523D01*
X39296346Y-51222642D01*
X39298288Y-51227424D01*
X39298289Y-51227428D01*
X39381540Y-51432450D01*
X39383484Y-51437237D01*
X39504501Y-51634719D01*
X39656147Y-51809784D01*
X39834349Y-51957730D01*
X40034322Y-52074584D01*
X40250694Y-52157209D01*
X40255760Y-52158240D01*
X40255761Y-52158240D01*
X40275117Y-52162178D01*
X40477656Y-52203385D01*
X40607089Y-52208131D01*
X40703949Y-52211683D01*
X40703953Y-52211683D01*
X40709113Y-52211872D01*
X40714233Y-52211216D01*
X40714235Y-52211216D01*
X40788166Y-52201745D01*
X40938847Y-52182442D01*
X40943795Y-52180957D01*
X40943802Y-52180956D01*
X41155747Y-52117369D01*
X41160690Y-52115886D01*
X41241236Y-52076427D01*
X41364049Y-52016262D01*
X41364052Y-52016260D01*
X41368684Y-52013991D01*
X41557243Y-51879494D01*
X41602309Y-51834585D01*
X41664681Y-51800669D01*
X41735487Y-51805857D01*
X41792249Y-51848503D01*
X41809231Y-51879607D01*
X41829128Y-51932681D01*
X41834385Y-51946705D01*
X41921739Y-52063261D01*
X42038295Y-52150615D01*
X42174684Y-52201745D01*
X42236866Y-52208500D01*
X44133134Y-52208500D01*
X44195316Y-52201745D01*
X44331705Y-52150615D01*
X44448261Y-52063261D01*
X44535615Y-51946705D01*
X44586745Y-51810316D01*
X44593500Y-51748134D01*
X44593500Y-49851866D01*
X44586745Y-49789684D01*
X44535615Y-49653295D01*
X44448261Y-49536739D01*
X44331705Y-49449385D01*
X44195316Y-49398255D01*
X44133134Y-49391500D01*
X42236866Y-49391500D01*
X42174684Y-49398255D01*
X42038295Y-49449385D01*
X41921739Y-49536739D01*
X41834385Y-49653295D01*
X41831233Y-49661703D01*
X41831232Y-49661705D01*
X41810538Y-49716906D01*
X41767897Y-49773671D01*
X41701335Y-49798371D01*
X41631986Y-49783164D01*
X41609167Y-49766666D01*
X41608887Y-49766358D01*
X41546270Y-49716906D01*
X41431177Y-49626011D01*
X41431172Y-49626008D01*
X41427123Y-49622810D01*
X41422607Y-49620317D01*
X41422604Y-49620315D01*
X41228879Y-49513373D01*
X41228875Y-49513371D01*
X41224355Y-49510876D01*
X41219486Y-49509152D01*
X41219482Y-49509150D01*
X41010903Y-49435288D01*
X41010899Y-49435287D01*
X41006028Y-49433562D01*
X41000935Y-49432655D01*
X41000932Y-49432654D01*
X40783095Y-49393851D01*
X40783089Y-49393850D01*
X40778006Y-49392945D01*
X40705096Y-49392054D01*
X40551581Y-49390179D01*
X40551579Y-49390179D01*
X40546411Y-49390116D01*
X40317464Y-49425150D01*
X40097314Y-49497106D01*
X40092726Y-49499494D01*
X40092722Y-49499496D01*
X39914463Y-49592292D01*
X39891872Y-49604052D01*
X39887739Y-49607155D01*
X39887736Y-49607157D01*
X39736016Y-49721072D01*
X39706655Y-49743117D01*
X39546639Y-49910564D01*
X39416119Y-50101899D01*
X39318602Y-50311981D01*
X39256707Y-50535169D01*
X39232095Y-50765469D01*
X26704938Y-50765469D01*
X26732292Y-50722532D01*
X26738597Y-50713528D01*
X26974678Y-50405862D01*
X26981743Y-50397442D01*
X27243744Y-50111517D01*
X27251517Y-50103744D01*
X27253531Y-50101899D01*
X27469025Y-49904435D01*
X27537442Y-49841743D01*
X27545862Y-49834678D01*
X27853528Y-49598597D01*
X27862532Y-49592292D01*
X28189613Y-49383919D01*
X28199133Y-49378423D01*
X28216950Y-49369148D01*
X28543124Y-49199353D01*
X28553068Y-49194715D01*
X28911385Y-49046295D01*
X28921698Y-49042542D01*
X29129533Y-48977012D01*
X29291561Y-48925925D01*
X29302178Y-48923080D01*
X29680795Y-48839142D01*
X29691621Y-48837233D01*
X30076114Y-48786614D01*
X30087063Y-48785656D01*
X30436554Y-48770397D01*
X30461429Y-48771777D01*
X30473724Y-48773691D01*
X30482626Y-48772527D01*
X30482628Y-48772527D01*
X30501399Y-48770072D01*
X30505286Y-48769564D01*
X30521621Y-48768500D01*
X49971585Y-48768500D01*
X50039706Y-48788502D01*
G37*
%TD.AperFunction*%
%TD*%
M02*
