%TF.GenerationSoftware,KiCad,Pcbnew,(6.0.9-0)*%
%TF.CreationDate,2024-06-20T10:44:05+02:00*%
%TF.ProjectId,follower-board,666f6c6c-6f77-4657-922d-626f6172642e,rev?*%
%TF.SameCoordinates,Original*%
%TF.FileFunction,Copper,L3,Inr*%
%TF.FilePolarity,Positive*%
%FSLAX46Y46*%
G04 Gerber Fmt 4.6, Leading zero omitted, Abs format (unit mm)*
G04 Created by KiCad (PCBNEW (6.0.9-0)) date 2024-06-20 10:44:05*
%MOMM*%
%LPD*%
G01*
G04 APERTURE LIST*
%TA.AperFunction,ComponentPad*%
%ADD10R,1.800000X1.800000*%
%TD*%
%TA.AperFunction,ComponentPad*%
%ADD11C,1.800000*%
%TD*%
%TA.AperFunction,ComponentPad*%
%ADD12C,5.500000*%
%TD*%
%TA.AperFunction,ComponentPad*%
%ADD13R,1.700000X1.700000*%
%TD*%
%TA.AperFunction,ComponentPad*%
%ADD14O,1.700000X1.700000*%
%TD*%
%TA.AperFunction,ViaPad*%
%ADD15C,0.600000*%
%TD*%
G04 APERTURE END LIST*
D10*
%TO.N,Net-(D3-Pad1)*%
%TO.C,D3*%
X63500000Y-43180000D03*
D11*
%TO.N,Net-(D3-Pad2)*%
X60960000Y-43180000D03*
%TD*%
D12*
%TO.N,/GND*%
%TO.C,H3*%
X71120000Y-83820000D03*
%TD*%
%TO.N,/GND*%
%TO.C,H1*%
X53340000Y-83820000D03*
%TD*%
D13*
%TO.N,/+9V*%
%TO.C,J1*%
X50800000Y-50800000D03*
D14*
%TO.N,/GND*%
X50800000Y-53340000D03*
%TO.N,/+4.5V*%
X50800000Y-55880000D03*
%TO.N,/In*%
X50800000Y-58420000D03*
%TO.N,/GND*%
X50800000Y-60960000D03*
%TO.N,/RectifiedOut*%
X50800000Y-63500000D03*
%TO.N,/FollowerOut*%
X50800000Y-66040000D03*
%TO.N,/GND*%
X50800000Y-68580000D03*
%TO.N,/ThreshIn*%
X50800000Y-71120000D03*
%TO.N,/PeakOut*%
X50800000Y-73660000D03*
%TO.N,/GND*%
X50800000Y-76200000D03*
%TD*%
D13*
%TO.N,/+9V*%
%TO.C,J2*%
X73660000Y-50800000D03*
D14*
%TO.N,/GND*%
X73660000Y-53340000D03*
%TO.N,/+4.5V*%
X73660000Y-55880000D03*
%TO.N,/In*%
X73660000Y-58420000D03*
%TO.N,/GND*%
X73660000Y-60960000D03*
%TO.N,/RectifiedOut*%
X73660000Y-63500000D03*
%TO.N,/FollowerOut*%
X73660000Y-66040000D03*
%TO.N,/GND*%
X73660000Y-68580000D03*
%TO.N,/ThreshIn*%
X73660000Y-71120000D03*
%TO.N,/PeakOut*%
X73660000Y-73660000D03*
%TO.N,/GND*%
X73660000Y-76200000D03*
%TD*%
D15*
%TO.N,Net-(C2-Pad2)*%
X63119000Y-50800000D03*
X60564500Y-50800000D03*
%TO.N,/+4.5V*%
X62992000Y-66929000D03*
X69215000Y-55626000D03*
X61087000Y-46863000D03*
X68643500Y-75120500D03*
X57912000Y-41021000D03*
X54927500Y-75501500D03*
X69723000Y-64897000D03*
X66421000Y-41021000D03*
X58547000Y-53340000D03*
X68834000Y-67945000D03*
X59412500Y-83970500D03*
%TO.N,/RectifiedOut*%
X59817000Y-63500000D03*
%TO.N,/+9V*%
X55372000Y-53467000D03*
X56007000Y-75819000D03*
X50800000Y-77724000D03*
%TO.N,/GND*%
X69342000Y-74422000D03*
X60325000Y-46355000D03*
X66040000Y-54610000D03*
X63246000Y-76200000D03*
X55372000Y-54266503D03*
X60706000Y-64149500D03*
X59436000Y-82931000D03*
X65405000Y-41021000D03*
X63119000Y-51689000D03*
X62278734Y-54434266D03*
X57404000Y-53594000D03*
X69469000Y-67183000D03*
X70612000Y-73025000D03*
X55880000Y-74803000D03*
X69088000Y-56642000D03*
X61849000Y-66929000D03*
X58928000Y-41021000D03*
X60071000Y-50000500D03*
X68961000Y-64389000D03*
%TO.N,/PeakOut*%
X71486500Y-73279000D03*
%TO.N,Net-(R6-Pad2)*%
X58401219Y-55771781D03*
X62357500Y-55399270D03*
%TD*%
%TA.AperFunction,Conductor*%
%TO.N,/GND*%
G36*
X71090018Y-38610000D02*
G01*
X71104851Y-38612310D01*
X71104855Y-38612310D01*
X71113724Y-38613691D01*
X71134183Y-38611016D01*
X71156008Y-38610072D01*
X71512937Y-38625656D01*
X71523886Y-38626614D01*
X71908379Y-38677233D01*
X71919205Y-38679142D01*
X72297822Y-38763080D01*
X72308439Y-38765925D01*
X72478702Y-38819608D01*
X72678302Y-38882542D01*
X72688615Y-38886295D01*
X73046932Y-39034715D01*
X73056876Y-39039353D01*
X73400867Y-39218423D01*
X73410387Y-39223919D01*
X73737468Y-39432292D01*
X73746472Y-39438597D01*
X74054138Y-39674678D01*
X74062558Y-39681743D01*
X74348483Y-39943744D01*
X74356256Y-39951517D01*
X74618257Y-40237442D01*
X74625322Y-40245862D01*
X74861403Y-40553528D01*
X74867708Y-40562532D01*
X75076081Y-40889613D01*
X75081576Y-40899132D01*
X75250348Y-41223338D01*
X75260643Y-41243115D01*
X75265285Y-41253068D01*
X75387895Y-41549074D01*
X75413702Y-41611377D01*
X75417458Y-41621698D01*
X75464807Y-41771869D01*
X75534075Y-41991561D01*
X75536920Y-42002178D01*
X75620858Y-42380795D01*
X75622767Y-42391621D01*
X75673386Y-42776114D01*
X75674344Y-42787063D01*
X75685521Y-43043049D01*
X75689603Y-43136552D01*
X75688223Y-43161429D01*
X75686309Y-43173724D01*
X75687473Y-43182626D01*
X75687473Y-43182628D01*
X75690436Y-43205283D01*
X75691500Y-43221621D01*
X75691500Y-83770633D01*
X75690000Y-83790018D01*
X75687690Y-83804851D01*
X75687690Y-83804855D01*
X75686309Y-83813724D01*
X75688984Y-83834183D01*
X75689928Y-83856008D01*
X75676399Y-84165866D01*
X75674344Y-84212936D01*
X75673386Y-84223886D01*
X75622767Y-84608379D01*
X75620858Y-84619205D01*
X75536920Y-84997822D01*
X75534075Y-85008439D01*
X75417461Y-85378294D01*
X75413702Y-85388623D01*
X75265289Y-85746923D01*
X75260647Y-85756876D01*
X75169591Y-85931794D01*
X75081577Y-86100867D01*
X75076081Y-86110387D01*
X74867708Y-86437468D01*
X74861403Y-86446472D01*
X74625322Y-86754138D01*
X74618257Y-86762558D01*
X74356256Y-87048483D01*
X74348483Y-87056256D01*
X74062558Y-87318257D01*
X74054138Y-87325322D01*
X73746472Y-87561403D01*
X73737468Y-87567708D01*
X73410387Y-87776081D01*
X73400868Y-87781576D01*
X73056876Y-87960647D01*
X73046932Y-87965285D01*
X72688615Y-88113705D01*
X72678302Y-88117458D01*
X72478702Y-88180392D01*
X72308439Y-88234075D01*
X72297822Y-88236920D01*
X71919205Y-88320858D01*
X71908379Y-88322767D01*
X71523886Y-88373386D01*
X71512937Y-88374344D01*
X71163446Y-88389603D01*
X71138571Y-88388223D01*
X71126276Y-88386309D01*
X71117374Y-88387473D01*
X71117372Y-88387473D01*
X71102323Y-88389441D01*
X71094714Y-88390436D01*
X71078379Y-88391500D01*
X53389367Y-88391500D01*
X53369982Y-88390000D01*
X53355149Y-88387690D01*
X53355145Y-88387690D01*
X53346276Y-88386309D01*
X53325817Y-88388984D01*
X53303992Y-88389928D01*
X52947063Y-88374344D01*
X52936114Y-88373386D01*
X52551621Y-88322767D01*
X52540795Y-88320858D01*
X52162178Y-88236920D01*
X52151561Y-88234075D01*
X51981298Y-88180392D01*
X51781698Y-88117458D01*
X51771385Y-88113705D01*
X51413068Y-87965285D01*
X51403124Y-87960647D01*
X51059132Y-87781576D01*
X51049613Y-87776081D01*
X50722532Y-87567708D01*
X50713528Y-87561403D01*
X50405862Y-87325322D01*
X50397442Y-87318257D01*
X50111517Y-87056256D01*
X50103744Y-87048483D01*
X49841743Y-86762558D01*
X49834678Y-86754138D01*
X49598597Y-86446472D01*
X49592292Y-86437468D01*
X49504326Y-86299389D01*
X51225541Y-86299389D01*
X51233678Y-86310395D01*
X51493938Y-86510099D01*
X51499537Y-86513933D01*
X51795261Y-86693736D01*
X51801251Y-86696948D01*
X52114657Y-86843758D01*
X52120961Y-86846305D01*
X52448384Y-86958406D01*
X52454935Y-86960260D01*
X52792539Y-87036342D01*
X52799258Y-87037479D01*
X53143113Y-87076657D01*
X53149903Y-87077060D01*
X53495973Y-87078872D01*
X53502774Y-87078540D01*
X53847020Y-87042966D01*
X53853748Y-87041900D01*
X54192144Y-86969353D01*
X54198693Y-86967574D01*
X54527278Y-86858905D01*
X54533620Y-86856419D01*
X54848523Y-86712910D01*
X54854577Y-86709745D01*
X55152128Y-86533073D01*
X55157809Y-86529270D01*
X55434547Y-86321489D01*
X55439771Y-86317105D01*
X55446238Y-86311053D01*
X55453118Y-86299389D01*
X69005541Y-86299389D01*
X69013678Y-86310395D01*
X69273938Y-86510099D01*
X69279537Y-86513933D01*
X69575261Y-86693736D01*
X69581251Y-86696948D01*
X69894657Y-86843758D01*
X69900961Y-86846305D01*
X70228384Y-86958406D01*
X70234935Y-86960260D01*
X70572539Y-87036342D01*
X70579258Y-87037479D01*
X70923113Y-87076657D01*
X70929903Y-87077060D01*
X71275973Y-87078872D01*
X71282774Y-87078540D01*
X71627020Y-87042966D01*
X71633748Y-87041900D01*
X71972144Y-86969353D01*
X71978693Y-86967574D01*
X72307278Y-86858905D01*
X72313620Y-86856419D01*
X72628523Y-86712910D01*
X72634577Y-86709745D01*
X72932128Y-86533073D01*
X72937809Y-86529270D01*
X73214547Y-86321489D01*
X73219771Y-86317105D01*
X73226238Y-86311053D01*
X73234307Y-86297373D01*
X73234280Y-86296649D01*
X73229136Y-86288346D01*
X71132812Y-84192022D01*
X71118868Y-84184408D01*
X71117035Y-84184539D01*
X71110420Y-84188790D01*
X69012422Y-86286788D01*
X69005541Y-86299389D01*
X55453118Y-86299389D01*
X55454307Y-86297373D01*
X55454280Y-86296649D01*
X55449136Y-86288346D01*
X53352812Y-84192022D01*
X53338868Y-84184408D01*
X53337035Y-84184539D01*
X53330420Y-84188790D01*
X51232422Y-86286788D01*
X51225541Y-86299389D01*
X49504326Y-86299389D01*
X49383919Y-86110387D01*
X49378423Y-86100867D01*
X49290409Y-85931794D01*
X49199353Y-85756876D01*
X49194711Y-85746923D01*
X49046298Y-85388623D01*
X49042539Y-85378294D01*
X48925925Y-85008439D01*
X48923080Y-84997822D01*
X48839142Y-84619205D01*
X48837233Y-84608379D01*
X48786614Y-84223886D01*
X48785656Y-84212936D01*
X48783243Y-84157659D01*
X48770561Y-83867206D01*
X48772188Y-83840805D01*
X48772769Y-83837352D01*
X48772770Y-83837345D01*
X48773576Y-83832552D01*
X48773729Y-83820000D01*
X48772584Y-83812007D01*
X50077407Y-83812007D01*
X50094917Y-84157659D01*
X50095627Y-84164415D01*
X50150363Y-84506141D01*
X50151802Y-84512796D01*
X50243122Y-84846604D01*
X50245271Y-84853065D01*
X50372110Y-85175067D01*
X50374941Y-85181250D01*
X50535815Y-85487670D01*
X50539298Y-85493513D01*
X50732321Y-85780761D01*
X50736424Y-85786205D01*
X50851911Y-85923351D01*
X50864650Y-85931794D01*
X50875094Y-85925696D01*
X52967978Y-83832812D01*
X52974356Y-83821132D01*
X53704408Y-83821132D01*
X53704539Y-83822965D01*
X53708790Y-83829580D01*
X55803553Y-85924343D01*
X55817150Y-85931768D01*
X55826761Y-85925068D01*
X55922845Y-85813360D01*
X55927003Y-85807960D01*
X56123023Y-85522751D01*
X56126570Y-85516940D01*
X56290634Y-85212238D01*
X56293541Y-85206060D01*
X56423744Y-84885411D01*
X56425958Y-84878981D01*
X56520769Y-84546143D01*
X56522276Y-84539513D01*
X56580590Y-84198362D01*
X56581370Y-84191622D01*
X56595588Y-83959140D01*
X58598963Y-83959140D01*
X58616663Y-84139660D01*
X58673918Y-84311773D01*
X58677565Y-84317795D01*
X58677566Y-84317797D01*
X58688478Y-84335814D01*
X58767880Y-84466924D01*
X58893882Y-84597402D01*
X59045659Y-84696722D01*
X59052263Y-84699178D01*
X59052265Y-84699179D01*
X59209058Y-84757490D01*
X59209060Y-84757490D01*
X59215668Y-84759948D01*
X59299495Y-84771133D01*
X59388480Y-84783007D01*
X59388484Y-84783007D01*
X59395461Y-84783938D01*
X59402472Y-84783300D01*
X59402476Y-84783300D01*
X59544959Y-84770332D01*
X59576100Y-84767498D01*
X59582802Y-84765320D01*
X59582804Y-84765320D01*
X59741909Y-84713624D01*
X59741912Y-84713623D01*
X59748608Y-84711447D01*
X59904412Y-84618569D01*
X60035766Y-84493482D01*
X60136143Y-84342402D01*
X60177923Y-84232417D01*
X60198055Y-84179420D01*
X60198056Y-84179418D01*
X60200555Y-84172838D01*
X60202688Y-84157659D01*
X60225248Y-83997139D01*
X60225248Y-83997136D01*
X60225799Y-83993217D01*
X60226116Y-83970500D01*
X60208338Y-83812007D01*
X67857407Y-83812007D01*
X67874917Y-84157659D01*
X67875627Y-84164415D01*
X67930363Y-84506141D01*
X67931802Y-84512796D01*
X68023122Y-84846604D01*
X68025271Y-84853065D01*
X68152110Y-85175067D01*
X68154941Y-85181250D01*
X68315815Y-85487670D01*
X68319298Y-85493513D01*
X68512321Y-85780761D01*
X68516424Y-85786205D01*
X68631911Y-85923351D01*
X68644650Y-85931794D01*
X68655094Y-85925696D01*
X70747978Y-83832812D01*
X70754356Y-83821132D01*
X71484408Y-83821132D01*
X71484539Y-83822965D01*
X71488790Y-83829580D01*
X73583553Y-85924343D01*
X73597150Y-85931768D01*
X73606761Y-85925068D01*
X73702845Y-85813360D01*
X73707003Y-85807960D01*
X73903023Y-85522751D01*
X73906570Y-85516940D01*
X74070634Y-85212238D01*
X74073541Y-85206060D01*
X74203744Y-84885411D01*
X74205958Y-84878981D01*
X74300769Y-84546143D01*
X74302276Y-84539513D01*
X74360590Y-84198362D01*
X74361370Y-84191622D01*
X74382595Y-83844576D01*
X74382711Y-83840973D01*
X74382779Y-83821819D01*
X74382687Y-83818194D01*
X74363885Y-83471023D01*
X74363150Y-83464257D01*
X74307224Y-83122738D01*
X74305757Y-83116066D01*
X74213278Y-82782597D01*
X74211104Y-82776134D01*
X74083143Y-82454583D01*
X74080290Y-82448409D01*
X73918343Y-82142545D01*
X73914849Y-82136728D01*
X73720813Y-81850140D01*
X73716699Y-81844721D01*
X73608090Y-81716653D01*
X73595265Y-81708217D01*
X73584940Y-81714270D01*
X71492022Y-83807188D01*
X71484408Y-83821132D01*
X70754356Y-83821132D01*
X70755592Y-83818868D01*
X70755461Y-83817035D01*
X70751210Y-83810420D01*
X68656457Y-81715667D01*
X68642920Y-81708275D01*
X68633219Y-81715063D01*
X68530220Y-81835659D01*
X68526066Y-81841092D01*
X68331056Y-82126965D01*
X68327521Y-82132802D01*
X68164518Y-82438080D01*
X68161642Y-82444249D01*
X68032558Y-82765355D01*
X68030365Y-82771795D01*
X67936714Y-83104968D01*
X67935231Y-83111603D01*
X67878112Y-83452936D01*
X67877353Y-83459708D01*
X67857431Y-83805212D01*
X67857407Y-83812007D01*
X60208338Y-83812007D01*
X60205897Y-83790245D01*
X60202464Y-83780386D01*
X60148564Y-83625606D01*
X60148562Y-83625603D01*
X60146245Y-83618948D01*
X60050126Y-83465124D01*
X60041335Y-83456271D01*
X59927278Y-83341415D01*
X59927274Y-83341412D01*
X59922315Y-83336418D01*
X59911197Y-83329362D01*
X59863038Y-83298800D01*
X59769166Y-83239227D01*
X59739963Y-83228828D01*
X59604925Y-83180743D01*
X59604920Y-83180742D01*
X59598290Y-83178381D01*
X59591302Y-83177548D01*
X59591299Y-83177547D01*
X59468198Y-83162868D01*
X59418180Y-83156904D01*
X59411177Y-83157640D01*
X59411176Y-83157640D01*
X59244788Y-83175128D01*
X59244786Y-83175129D01*
X59237788Y-83175864D01*
X59066079Y-83234318D01*
X59060075Y-83238012D01*
X58917595Y-83325666D01*
X58917592Y-83325668D01*
X58911588Y-83329362D01*
X58906553Y-83334293D01*
X58906550Y-83334295D01*
X58787161Y-83451210D01*
X58781993Y-83456271D01*
X58683735Y-83608738D01*
X58681326Y-83615358D01*
X58681324Y-83615361D01*
X58624810Y-83770633D01*
X58621697Y-83779185D01*
X58598963Y-83959140D01*
X56595588Y-83959140D01*
X56602595Y-83844576D01*
X56602711Y-83840973D01*
X56602779Y-83821819D01*
X56602687Y-83818194D01*
X56583885Y-83471023D01*
X56583150Y-83464257D01*
X56527224Y-83122738D01*
X56525757Y-83116066D01*
X56433278Y-82782597D01*
X56431104Y-82776134D01*
X56303143Y-82454583D01*
X56300290Y-82448409D01*
X56138343Y-82142545D01*
X56134849Y-82136728D01*
X55940813Y-81850140D01*
X55936699Y-81844721D01*
X55828090Y-81716653D01*
X55815265Y-81708217D01*
X55804940Y-81714270D01*
X53712022Y-83807188D01*
X53704408Y-83821132D01*
X52974356Y-83821132D01*
X52975592Y-83818868D01*
X52975461Y-83817035D01*
X52971210Y-83810420D01*
X50876457Y-81715667D01*
X50862920Y-81708275D01*
X50853219Y-81715063D01*
X50750220Y-81835659D01*
X50746066Y-81841092D01*
X50551056Y-82126965D01*
X50547521Y-82132802D01*
X50384518Y-82438080D01*
X50381642Y-82444249D01*
X50252558Y-82765355D01*
X50250365Y-82771795D01*
X50156714Y-83104968D01*
X50155231Y-83111603D01*
X50098112Y-83452936D01*
X50097353Y-83459708D01*
X50077431Y-83805212D01*
X50077407Y-83812007D01*
X48772584Y-83812007D01*
X48769773Y-83792376D01*
X48768500Y-83774514D01*
X48768500Y-81342234D01*
X51225322Y-81342234D01*
X51225357Y-81343075D01*
X51230410Y-81351200D01*
X53327188Y-83447978D01*
X53341132Y-83455592D01*
X53342965Y-83455461D01*
X53349580Y-83451210D01*
X55447431Y-81353359D01*
X55453506Y-81342234D01*
X69005322Y-81342234D01*
X69005357Y-81343075D01*
X69010410Y-81351200D01*
X71107188Y-83447978D01*
X71121132Y-83455592D01*
X71122965Y-83455461D01*
X71129580Y-83451210D01*
X73227431Y-81353359D01*
X73235045Y-81339415D01*
X73234977Y-81338460D01*
X73231024Y-81332482D01*
X72956667Y-81123479D01*
X72951041Y-81119655D01*
X72654706Y-80940894D01*
X72648694Y-80937697D01*
X72334774Y-80791980D01*
X72328474Y-80789460D01*
X72000664Y-80678503D01*
X71994086Y-80676667D01*
X71656237Y-80601768D01*
X71649499Y-80600652D01*
X71305515Y-80562675D01*
X71298735Y-80562296D01*
X70952636Y-80561693D01*
X70945863Y-80562048D01*
X70601726Y-80598825D01*
X70595016Y-80599912D01*
X70256883Y-80673637D01*
X70250308Y-80675448D01*
X69922117Y-80785259D01*
X69915795Y-80787762D01*
X69601388Y-80932373D01*
X69595345Y-80935559D01*
X69298402Y-81113276D01*
X69292756Y-81117085D01*
X69016726Y-81325844D01*
X69013140Y-81328875D01*
X69005322Y-81342234D01*
X55453506Y-81342234D01*
X55455045Y-81339415D01*
X55454977Y-81338460D01*
X55451024Y-81332482D01*
X55176667Y-81123479D01*
X55171041Y-81119655D01*
X54874706Y-80940894D01*
X54868694Y-80937697D01*
X54554774Y-80791980D01*
X54548474Y-80789460D01*
X54220664Y-80678503D01*
X54214086Y-80676667D01*
X53876237Y-80601768D01*
X53869499Y-80600652D01*
X53525515Y-80562675D01*
X53518735Y-80562296D01*
X53172636Y-80561693D01*
X53165863Y-80562048D01*
X52821726Y-80598825D01*
X52815016Y-80599912D01*
X52476883Y-80673637D01*
X52470308Y-80675448D01*
X52142117Y-80785259D01*
X52135795Y-80787762D01*
X51821388Y-80932373D01*
X51815345Y-80935559D01*
X51518402Y-81113276D01*
X51512756Y-81117085D01*
X51236726Y-81325844D01*
X51233140Y-81328875D01*
X51225322Y-81342234D01*
X48768500Y-81342234D01*
X48768500Y-76467966D01*
X49468257Y-76467966D01*
X49498565Y-76602446D01*
X49501645Y-76612275D01*
X49581770Y-76809603D01*
X49586413Y-76818794D01*
X49697694Y-77000388D01*
X49703777Y-77008699D01*
X49843213Y-77169667D01*
X49850580Y-77176883D01*
X50003580Y-77303906D01*
X50043215Y-77362809D01*
X50044713Y-77433790D01*
X50041497Y-77443943D01*
X50009197Y-77532685D01*
X49986463Y-77712640D01*
X50004163Y-77893160D01*
X50061418Y-78065273D01*
X50065065Y-78071295D01*
X50065066Y-78071297D01*
X50075978Y-78089314D01*
X50155380Y-78220424D01*
X50281382Y-78350902D01*
X50433159Y-78450222D01*
X50439763Y-78452678D01*
X50439765Y-78452679D01*
X50596558Y-78510990D01*
X50596560Y-78510990D01*
X50603168Y-78513448D01*
X50686995Y-78524633D01*
X50775980Y-78536507D01*
X50775984Y-78536507D01*
X50782961Y-78537438D01*
X50789972Y-78536800D01*
X50789976Y-78536800D01*
X50932459Y-78523832D01*
X50963600Y-78520998D01*
X50970302Y-78518820D01*
X50970304Y-78518820D01*
X51129409Y-78467124D01*
X51129412Y-78467123D01*
X51136108Y-78464947D01*
X51291912Y-78372069D01*
X51423266Y-78246982D01*
X51523643Y-78095902D01*
X51588055Y-77926338D01*
X51589035Y-77919366D01*
X51612748Y-77750639D01*
X51612748Y-77750636D01*
X51613299Y-77746717D01*
X51613616Y-77724000D01*
X51593397Y-77543745D01*
X51589546Y-77532685D01*
X51557083Y-77439466D01*
X51553569Y-77368557D01*
X51588950Y-77307004D01*
X51602905Y-77295451D01*
X51675325Y-77243794D01*
X51683200Y-77237139D01*
X51834052Y-77086812D01*
X51840730Y-77078965D01*
X51965003Y-76906020D01*
X51970313Y-76897183D01*
X52064670Y-76706267D01*
X52068469Y-76696672D01*
X52130377Y-76492910D01*
X52132555Y-76482837D01*
X52133986Y-76471962D01*
X52131775Y-76457778D01*
X52118617Y-76454000D01*
X49483225Y-76454000D01*
X49469694Y-76457973D01*
X49468257Y-76467966D01*
X48768500Y-76467966D01*
X48768500Y-73626695D01*
X49437251Y-73626695D01*
X49437548Y-73631848D01*
X49437548Y-73631851D01*
X49443011Y-73726590D01*
X49450110Y-73849715D01*
X49451247Y-73854761D01*
X49451248Y-73854767D01*
X49454716Y-73870154D01*
X49499222Y-74067639D01*
X49583266Y-74274616D01*
X49699987Y-74465088D01*
X49846250Y-74633938D01*
X49934090Y-74706864D01*
X50008871Y-74768948D01*
X50018126Y-74776632D01*
X50091955Y-74819774D01*
X50140679Y-74871412D01*
X50153750Y-74941195D01*
X50127019Y-75006967D01*
X50086562Y-75040327D01*
X50078457Y-75044546D01*
X50069738Y-75050036D01*
X49899433Y-75177905D01*
X49891726Y-75184748D01*
X49744590Y-75338717D01*
X49738104Y-75346727D01*
X49618098Y-75522649D01*
X49613000Y-75531623D01*
X49523338Y-75724783D01*
X49519775Y-75734470D01*
X49464389Y-75934183D01*
X49465912Y-75942607D01*
X49478292Y-75946000D01*
X52118344Y-75946000D01*
X52131875Y-75942027D01*
X52133180Y-75932947D01*
X52091214Y-75765875D01*
X52087894Y-75756124D01*
X52002972Y-75560814D01*
X51998105Y-75551739D01*
X51958255Y-75490140D01*
X54113963Y-75490140D01*
X54131663Y-75670660D01*
X54188918Y-75842773D01*
X54192565Y-75848795D01*
X54192566Y-75848797D01*
X54243743Y-75933300D01*
X54282880Y-75997924D01*
X54408882Y-76128402D01*
X54560659Y-76227722D01*
X54567263Y-76230178D01*
X54567265Y-76230179D01*
X54724058Y-76288490D01*
X54724060Y-76288490D01*
X54730668Y-76290948D01*
X54814495Y-76302133D01*
X54903480Y-76314007D01*
X54903484Y-76314007D01*
X54910461Y-76314938D01*
X54917472Y-76314300D01*
X54917476Y-76314300D01*
X55059959Y-76301332D01*
X55091100Y-76298498D01*
X55097802Y-76296320D01*
X55097804Y-76296320D01*
X55168298Y-76273415D01*
X55214233Y-76258490D01*
X55285200Y-76256462D01*
X55345997Y-76293125D01*
X55354169Y-76304021D01*
X55354433Y-76303818D01*
X55358733Y-76309401D01*
X55362380Y-76315424D01*
X55488382Y-76445902D01*
X55640159Y-76545222D01*
X55646763Y-76547678D01*
X55646765Y-76547679D01*
X55803558Y-76605990D01*
X55803560Y-76605990D01*
X55810168Y-76608448D01*
X55893995Y-76619633D01*
X55982980Y-76631507D01*
X55982984Y-76631507D01*
X55989961Y-76632438D01*
X55996972Y-76631800D01*
X55996976Y-76631800D01*
X56139459Y-76618832D01*
X56170600Y-76615998D01*
X56177302Y-76613820D01*
X56177304Y-76613820D01*
X56336409Y-76562124D01*
X56336412Y-76562123D01*
X56343108Y-76559947D01*
X56439513Y-76502478D01*
X56492860Y-76470677D01*
X56492862Y-76470676D01*
X56497407Y-76467966D01*
X72328257Y-76467966D01*
X72358565Y-76602446D01*
X72361645Y-76612275D01*
X72441770Y-76809603D01*
X72446413Y-76818794D01*
X72557694Y-77000388D01*
X72563777Y-77008699D01*
X72703213Y-77169667D01*
X72710580Y-77176883D01*
X72874434Y-77312916D01*
X72882881Y-77318831D01*
X73066756Y-77426279D01*
X73076042Y-77430729D01*
X73275001Y-77506703D01*
X73284899Y-77509579D01*
X73388250Y-77530606D01*
X73402299Y-77529410D01*
X73406000Y-77519065D01*
X73406000Y-77518517D01*
X73914000Y-77518517D01*
X73918064Y-77532359D01*
X73931478Y-77534393D01*
X73938184Y-77533534D01*
X73948262Y-77531392D01*
X74152255Y-77470191D01*
X74161842Y-77466433D01*
X74353095Y-77372739D01*
X74361945Y-77367464D01*
X74535328Y-77243792D01*
X74543200Y-77237139D01*
X74694052Y-77086812D01*
X74700730Y-77078965D01*
X74825003Y-76906020D01*
X74830313Y-76897183D01*
X74924670Y-76706267D01*
X74928469Y-76696672D01*
X74990377Y-76492910D01*
X74992555Y-76482837D01*
X74993986Y-76471962D01*
X74991775Y-76457778D01*
X74978617Y-76454000D01*
X73932115Y-76454000D01*
X73916876Y-76458475D01*
X73915671Y-76459865D01*
X73914000Y-76467548D01*
X73914000Y-77518517D01*
X73406000Y-77518517D01*
X73406000Y-76472115D01*
X73401525Y-76456876D01*
X73400135Y-76455671D01*
X73392452Y-76454000D01*
X72343225Y-76454000D01*
X72329694Y-76457973D01*
X72328257Y-76467966D01*
X56497407Y-76467966D01*
X56498912Y-76467069D01*
X56630266Y-76341982D01*
X56730643Y-76190902D01*
X56795055Y-76021338D01*
X56806120Y-75942607D01*
X56819748Y-75845639D01*
X56819748Y-75845636D01*
X56820299Y-75841717D01*
X56820616Y-75819000D01*
X56800397Y-75638745D01*
X56773259Y-75560814D01*
X56743064Y-75474106D01*
X56743062Y-75474103D01*
X56740745Y-75467448D01*
X56654496Y-75329420D01*
X56648359Y-75319598D01*
X56644626Y-75313624D01*
X56620829Y-75289660D01*
X56521778Y-75189915D01*
X56521774Y-75189912D01*
X56516815Y-75184918D01*
X56505765Y-75177905D01*
X56456059Y-75146361D01*
X56397408Y-75109140D01*
X67829963Y-75109140D01*
X67847663Y-75289660D01*
X67904918Y-75461773D01*
X67908565Y-75467795D01*
X67908566Y-75467797D01*
X67941786Y-75522649D01*
X67998880Y-75616924D01*
X68003769Y-75621987D01*
X68003770Y-75621988D01*
X68057227Y-75677344D01*
X68124882Y-75747402D01*
X68130778Y-75751260D01*
X68269011Y-75841717D01*
X68276659Y-75846722D01*
X68283263Y-75849178D01*
X68283265Y-75849179D01*
X68440058Y-75907490D01*
X68440060Y-75907490D01*
X68446668Y-75909948D01*
X68530495Y-75921133D01*
X68619480Y-75933007D01*
X68619484Y-75933007D01*
X68626461Y-75933938D01*
X68633472Y-75933300D01*
X68633476Y-75933300D01*
X68775959Y-75920332D01*
X68807100Y-75917498D01*
X68813802Y-75915320D01*
X68813804Y-75915320D01*
X68972909Y-75863624D01*
X68972912Y-75863623D01*
X68979608Y-75861447D01*
X69135412Y-75768569D01*
X69266766Y-75643482D01*
X69367143Y-75492402D01*
X69415631Y-75364757D01*
X69429055Y-75329420D01*
X69429056Y-75329418D01*
X69431555Y-75322838D01*
X69433552Y-75308627D01*
X69456248Y-75147139D01*
X69456248Y-75147136D01*
X69456799Y-75143217D01*
X69457116Y-75120500D01*
X69436897Y-74940245D01*
X69434580Y-74933591D01*
X69379564Y-74775606D01*
X69379562Y-74775603D01*
X69377245Y-74768948D01*
X69327125Y-74688738D01*
X69284859Y-74621098D01*
X69281126Y-74615124D01*
X69213612Y-74547137D01*
X69158278Y-74491415D01*
X69158274Y-74491412D01*
X69153315Y-74486418D01*
X69142197Y-74479362D01*
X69094038Y-74448800D01*
X69000166Y-74389227D01*
X68923920Y-74362077D01*
X68835925Y-74330743D01*
X68835920Y-74330742D01*
X68829290Y-74328381D01*
X68822302Y-74327548D01*
X68822299Y-74327547D01*
X68699198Y-74312868D01*
X68649180Y-74306904D01*
X68642177Y-74307640D01*
X68642176Y-74307640D01*
X68475788Y-74325128D01*
X68475786Y-74325129D01*
X68468788Y-74325864D01*
X68297079Y-74384318D01*
X68291075Y-74388012D01*
X68148595Y-74475666D01*
X68148592Y-74475668D01*
X68142588Y-74479362D01*
X68137553Y-74484293D01*
X68137550Y-74484295D01*
X68018025Y-74601343D01*
X68012993Y-74606271D01*
X67914735Y-74758738D01*
X67912326Y-74765358D01*
X67912324Y-74765361D01*
X67867200Y-74889338D01*
X67852697Y-74929185D01*
X67829963Y-75109140D01*
X56397408Y-75109140D01*
X56363666Y-75087727D01*
X56334463Y-75077328D01*
X56199425Y-75029243D01*
X56199420Y-75029242D01*
X56192790Y-75026881D01*
X56185802Y-75026048D01*
X56185799Y-75026047D01*
X56048799Y-75009711D01*
X56012680Y-75005404D01*
X56005677Y-75006140D01*
X56005676Y-75006140D01*
X55839288Y-75023628D01*
X55839286Y-75023629D01*
X55832288Y-75024364D01*
X55721077Y-75062223D01*
X55650145Y-75065241D01*
X55588841Y-75029431D01*
X55573616Y-75009711D01*
X55568860Y-75002100D01*
X55565126Y-74996124D01*
X55500947Y-74931496D01*
X55442278Y-74872415D01*
X55442274Y-74872412D01*
X55437315Y-74867418D01*
X55426197Y-74860362D01*
X55298371Y-74779242D01*
X55284166Y-74770227D01*
X55235259Y-74752812D01*
X55119925Y-74711743D01*
X55119920Y-74711742D01*
X55113290Y-74709381D01*
X55106302Y-74708548D01*
X55106299Y-74708547D01*
X54983198Y-74693868D01*
X54933180Y-74687904D01*
X54926177Y-74688640D01*
X54926176Y-74688640D01*
X54759788Y-74706128D01*
X54759786Y-74706129D01*
X54752788Y-74706864D01*
X54581079Y-74765318D01*
X54558446Y-74779242D01*
X54432595Y-74856666D01*
X54432592Y-74856668D01*
X54426588Y-74860362D01*
X54421553Y-74865293D01*
X54421550Y-74865295D01*
X54356308Y-74929185D01*
X54296993Y-74987271D01*
X54198735Y-75139738D01*
X54196326Y-75146358D01*
X54196324Y-75146361D01*
X54141735Y-75296344D01*
X54136697Y-75310185D01*
X54113963Y-75490140D01*
X51958255Y-75490140D01*
X51882426Y-75372926D01*
X51876136Y-75364757D01*
X51732806Y-75207240D01*
X51725273Y-75200215D01*
X51558139Y-75068222D01*
X51549556Y-75062520D01*
X51512602Y-75042120D01*
X51462631Y-74991687D01*
X51447859Y-74922245D01*
X51472975Y-74855839D01*
X51500327Y-74829232D01*
X51523797Y-74812491D01*
X51679860Y-74701173D01*
X51693176Y-74687904D01*
X51834435Y-74547137D01*
X51838096Y-74543489D01*
X51879106Y-74486418D01*
X51965435Y-74366277D01*
X51968453Y-74362077D01*
X51985107Y-74328381D01*
X52065136Y-74166453D01*
X52065137Y-74166451D01*
X52067430Y-74161811D01*
X52132370Y-73948069D01*
X52161529Y-73726590D01*
X52163156Y-73660000D01*
X52144852Y-73437361D01*
X52102221Y-73267640D01*
X70672963Y-73267640D01*
X70690663Y-73448160D01*
X70747918Y-73620273D01*
X70751565Y-73626295D01*
X70751566Y-73626297D01*
X70814315Y-73729908D01*
X70841880Y-73775424D01*
X70967882Y-73905902D01*
X71119659Y-74005222D01*
X71126263Y-74007678D01*
X71126265Y-74007679D01*
X71283058Y-74065990D01*
X71283060Y-74065990D01*
X71289668Y-74068448D01*
X71373495Y-74079633D01*
X71462480Y-74091507D01*
X71462484Y-74091507D01*
X71469461Y-74092438D01*
X71476472Y-74091800D01*
X71476476Y-74091800D01*
X71618959Y-74078832D01*
X71650100Y-74075998D01*
X71656802Y-74073820D01*
X71656804Y-74073820D01*
X71815909Y-74022124D01*
X71815912Y-74022123D01*
X71822608Y-74019947D01*
X71978412Y-73927069D01*
X71983518Y-73922207D01*
X72104907Y-73806610D01*
X72168032Y-73774117D01*
X72238702Y-73780910D01*
X72294482Y-73824833D01*
X72314716Y-73870154D01*
X72359222Y-74067639D01*
X72443266Y-74274616D01*
X72559987Y-74465088D01*
X72706250Y-74633938D01*
X72794090Y-74706864D01*
X72868871Y-74768948D01*
X72878126Y-74776632D01*
X72951955Y-74819774D01*
X73000679Y-74871412D01*
X73013750Y-74941195D01*
X72987019Y-75006967D01*
X72946562Y-75040327D01*
X72938457Y-75044546D01*
X72929738Y-75050036D01*
X72759433Y-75177905D01*
X72751726Y-75184748D01*
X72604590Y-75338717D01*
X72598104Y-75346727D01*
X72478098Y-75522649D01*
X72473000Y-75531623D01*
X72383338Y-75724783D01*
X72379775Y-75734470D01*
X72324389Y-75934183D01*
X72325912Y-75942607D01*
X72338292Y-75946000D01*
X74978344Y-75946000D01*
X74991875Y-75942027D01*
X74993180Y-75932947D01*
X74951214Y-75765875D01*
X74947894Y-75756124D01*
X74862972Y-75560814D01*
X74858105Y-75551739D01*
X74742426Y-75372926D01*
X74736136Y-75364757D01*
X74592806Y-75207240D01*
X74585273Y-75200215D01*
X74418139Y-75068222D01*
X74409556Y-75062520D01*
X74372602Y-75042120D01*
X74322631Y-74991687D01*
X74307859Y-74922245D01*
X74332975Y-74855839D01*
X74360327Y-74829232D01*
X74383797Y-74812491D01*
X74539860Y-74701173D01*
X74553176Y-74687904D01*
X74694435Y-74547137D01*
X74698096Y-74543489D01*
X74739106Y-74486418D01*
X74825435Y-74366277D01*
X74828453Y-74362077D01*
X74845107Y-74328381D01*
X74925136Y-74166453D01*
X74925137Y-74166451D01*
X74927430Y-74161811D01*
X74992370Y-73948069D01*
X75021529Y-73726590D01*
X75023156Y-73660000D01*
X75004852Y-73437361D01*
X74950431Y-73220702D01*
X74861354Y-73015840D01*
X74800303Y-72921469D01*
X74742822Y-72832617D01*
X74742820Y-72832614D01*
X74740014Y-72828277D01*
X74589670Y-72663051D01*
X74585619Y-72659852D01*
X74585615Y-72659848D01*
X74418414Y-72527800D01*
X74418410Y-72527798D01*
X74414359Y-72524598D01*
X74373053Y-72501796D01*
X74323084Y-72451364D01*
X74308312Y-72381921D01*
X74333428Y-72315516D01*
X74360780Y-72288909D01*
X74404603Y-72257650D01*
X74539860Y-72161173D01*
X74698096Y-72003489D01*
X74757594Y-71920689D01*
X74825435Y-71826277D01*
X74828453Y-71822077D01*
X74927430Y-71621811D01*
X74992370Y-71408069D01*
X75021529Y-71186590D01*
X75023156Y-71120000D01*
X75004852Y-70897361D01*
X74950431Y-70680702D01*
X74861354Y-70475840D01*
X74740014Y-70288277D01*
X74589670Y-70123051D01*
X74585619Y-70119852D01*
X74585615Y-70119848D01*
X74418414Y-69987800D01*
X74418410Y-69987798D01*
X74414359Y-69984598D01*
X74372569Y-69961529D01*
X74322598Y-69911097D01*
X74307826Y-69841654D01*
X74332942Y-69775248D01*
X74360294Y-69748641D01*
X74535328Y-69623792D01*
X74543200Y-69617139D01*
X74694052Y-69466812D01*
X74700730Y-69458965D01*
X74825003Y-69286020D01*
X74830313Y-69277183D01*
X74924670Y-69086267D01*
X74928469Y-69076672D01*
X74990377Y-68872910D01*
X74992555Y-68862837D01*
X74993986Y-68851962D01*
X74991775Y-68837778D01*
X74978617Y-68834000D01*
X72343225Y-68834000D01*
X72329694Y-68837973D01*
X72328257Y-68847966D01*
X72358565Y-68982446D01*
X72361645Y-68992275D01*
X72441770Y-69189603D01*
X72446413Y-69198794D01*
X72557694Y-69380388D01*
X72563777Y-69388699D01*
X72703213Y-69549667D01*
X72710580Y-69556883D01*
X72874434Y-69692916D01*
X72882881Y-69698831D01*
X72951969Y-69739203D01*
X73000693Y-69790842D01*
X73013764Y-69860625D01*
X72987033Y-69926396D01*
X72946584Y-69959752D01*
X72933607Y-69966507D01*
X72929474Y-69969610D01*
X72929471Y-69969612D01*
X72905247Y-69987800D01*
X72754965Y-70100635D01*
X72600629Y-70262138D01*
X72474743Y-70446680D01*
X72380688Y-70649305D01*
X72320989Y-70864570D01*
X72297251Y-71086695D01*
X72297548Y-71091848D01*
X72297548Y-71091851D01*
X72303011Y-71186590D01*
X72310110Y-71309715D01*
X72311247Y-71314761D01*
X72311248Y-71314767D01*
X72331119Y-71402939D01*
X72359222Y-71527639D01*
X72443266Y-71734616D01*
X72559987Y-71925088D01*
X72706250Y-72093938D01*
X72878126Y-72236632D01*
X72948595Y-72277811D01*
X72951445Y-72279476D01*
X73000169Y-72331114D01*
X73013240Y-72400897D01*
X72986509Y-72466669D01*
X72946055Y-72500027D01*
X72933607Y-72506507D01*
X72929474Y-72509610D01*
X72929471Y-72509612D01*
X72759100Y-72637530D01*
X72754965Y-72640635D01*
X72751393Y-72644373D01*
X72630679Y-72770693D01*
X72600629Y-72802138D01*
X72474743Y-72986680D01*
X72472565Y-72991371D01*
X72472561Y-72991379D01*
X72472094Y-72992386D01*
X72471797Y-72992724D01*
X72470010Y-72995870D01*
X72469361Y-72995501D01*
X72425271Y-73045753D01*
X72357028Y-73065335D01*
X72289032Y-73044912D01*
X72242871Y-72990971D01*
X72238815Y-72980774D01*
X72222564Y-72934106D01*
X72222562Y-72934103D01*
X72220245Y-72927448D01*
X72124126Y-72773624D01*
X72110441Y-72759843D01*
X72001278Y-72649915D01*
X72001274Y-72649912D01*
X71996315Y-72644918D01*
X71989567Y-72640635D01*
X71937038Y-72607300D01*
X71843166Y-72547727D01*
X71813963Y-72537328D01*
X71678925Y-72489243D01*
X71678920Y-72489242D01*
X71672290Y-72486881D01*
X71665302Y-72486048D01*
X71665299Y-72486047D01*
X71542198Y-72471368D01*
X71492180Y-72465404D01*
X71485177Y-72466140D01*
X71485176Y-72466140D01*
X71318788Y-72483628D01*
X71318786Y-72483629D01*
X71311788Y-72484364D01*
X71140079Y-72542818D01*
X71134075Y-72546512D01*
X70991595Y-72634166D01*
X70991592Y-72634168D01*
X70985588Y-72637862D01*
X70980553Y-72642793D01*
X70980550Y-72642795D01*
X70955966Y-72666870D01*
X70855993Y-72764771D01*
X70757735Y-72917238D01*
X70755326Y-72923858D01*
X70755324Y-72923861D01*
X70711265Y-73044912D01*
X70695697Y-73087685D01*
X70672963Y-73267640D01*
X52102221Y-73267640D01*
X52090431Y-73220702D01*
X52001354Y-73015840D01*
X51940303Y-72921469D01*
X51882822Y-72832617D01*
X51882820Y-72832614D01*
X51880014Y-72828277D01*
X51729670Y-72663051D01*
X51725619Y-72659852D01*
X51725615Y-72659848D01*
X51558414Y-72527800D01*
X51558410Y-72527798D01*
X51554359Y-72524598D01*
X51513053Y-72501796D01*
X51463084Y-72451364D01*
X51448312Y-72381921D01*
X51473428Y-72315516D01*
X51500780Y-72288909D01*
X51544603Y-72257650D01*
X51679860Y-72161173D01*
X51838096Y-72003489D01*
X51897594Y-71920689D01*
X51965435Y-71826277D01*
X51968453Y-71822077D01*
X52067430Y-71621811D01*
X52132370Y-71408069D01*
X52161529Y-71186590D01*
X52163156Y-71120000D01*
X52144852Y-70897361D01*
X52090431Y-70680702D01*
X52001354Y-70475840D01*
X51880014Y-70288277D01*
X51729670Y-70123051D01*
X51725619Y-70119852D01*
X51725615Y-70119848D01*
X51558414Y-69987800D01*
X51558410Y-69987798D01*
X51554359Y-69984598D01*
X51512569Y-69961529D01*
X51462598Y-69911097D01*
X51447826Y-69841654D01*
X51472942Y-69775248D01*
X51500294Y-69748641D01*
X51675328Y-69623792D01*
X51683200Y-69617139D01*
X51834052Y-69466812D01*
X51840730Y-69458965D01*
X51965003Y-69286020D01*
X51970313Y-69277183D01*
X52064670Y-69086267D01*
X52068469Y-69076672D01*
X52130377Y-68872910D01*
X52132555Y-68862837D01*
X52133986Y-68851962D01*
X52131775Y-68837778D01*
X52118617Y-68834000D01*
X49483225Y-68834000D01*
X49469694Y-68837973D01*
X49468257Y-68847966D01*
X49498565Y-68982446D01*
X49501645Y-68992275D01*
X49581770Y-69189603D01*
X49586413Y-69198794D01*
X49697694Y-69380388D01*
X49703777Y-69388699D01*
X49843213Y-69549667D01*
X49850580Y-69556883D01*
X50014434Y-69692916D01*
X50022881Y-69698831D01*
X50091969Y-69739203D01*
X50140693Y-69790842D01*
X50153764Y-69860625D01*
X50127033Y-69926396D01*
X50086584Y-69959752D01*
X50073607Y-69966507D01*
X50069474Y-69969610D01*
X50069471Y-69969612D01*
X50045247Y-69987800D01*
X49894965Y-70100635D01*
X49740629Y-70262138D01*
X49614743Y-70446680D01*
X49520688Y-70649305D01*
X49460989Y-70864570D01*
X49437251Y-71086695D01*
X49437548Y-71091848D01*
X49437548Y-71091851D01*
X49443011Y-71186590D01*
X49450110Y-71309715D01*
X49451247Y-71314761D01*
X49451248Y-71314767D01*
X49471119Y-71402939D01*
X49499222Y-71527639D01*
X49583266Y-71734616D01*
X49699987Y-71925088D01*
X49846250Y-72093938D01*
X50018126Y-72236632D01*
X50088595Y-72277811D01*
X50091445Y-72279476D01*
X50140169Y-72331114D01*
X50153240Y-72400897D01*
X50126509Y-72466669D01*
X50086055Y-72500027D01*
X50073607Y-72506507D01*
X50069474Y-72509610D01*
X50069471Y-72509612D01*
X49899100Y-72637530D01*
X49894965Y-72640635D01*
X49891393Y-72644373D01*
X49770679Y-72770693D01*
X49740629Y-72802138D01*
X49614743Y-72986680D01*
X49520688Y-73189305D01*
X49460989Y-73404570D01*
X49437251Y-73626695D01*
X48768500Y-73626695D01*
X48768500Y-66006695D01*
X49437251Y-66006695D01*
X49437548Y-66011848D01*
X49437548Y-66011851D01*
X49449812Y-66224547D01*
X49450110Y-66229715D01*
X49451247Y-66234761D01*
X49451248Y-66234767D01*
X49464326Y-66292795D01*
X49499222Y-66447639D01*
X49583266Y-66654616D01*
X49699987Y-66845088D01*
X49846250Y-67013938D01*
X50018126Y-67156632D01*
X50091955Y-67199774D01*
X50140679Y-67251412D01*
X50153750Y-67321195D01*
X50127019Y-67386967D01*
X50086562Y-67420327D01*
X50078457Y-67424546D01*
X50069738Y-67430036D01*
X49899433Y-67557905D01*
X49891726Y-67564748D01*
X49744590Y-67718717D01*
X49738104Y-67726727D01*
X49618098Y-67902649D01*
X49613000Y-67911623D01*
X49523338Y-68104783D01*
X49519775Y-68114470D01*
X49464389Y-68314183D01*
X49465912Y-68322607D01*
X49478292Y-68326000D01*
X52118344Y-68326000D01*
X52131875Y-68322027D01*
X52133180Y-68312947D01*
X52091214Y-68145875D01*
X52087894Y-68136124D01*
X52002972Y-67940814D01*
X51999125Y-67933640D01*
X68020463Y-67933640D01*
X68038163Y-68114160D01*
X68095418Y-68286273D01*
X68099065Y-68292295D01*
X68099066Y-68292297D01*
X68109978Y-68310314D01*
X68189380Y-68441424D01*
X68315382Y-68571902D01*
X68467159Y-68671222D01*
X68473763Y-68673678D01*
X68473765Y-68673679D01*
X68630558Y-68731990D01*
X68630560Y-68731990D01*
X68637168Y-68734448D01*
X68720995Y-68745633D01*
X68809980Y-68757507D01*
X68809984Y-68757507D01*
X68816961Y-68758438D01*
X68823972Y-68757800D01*
X68823976Y-68757800D01*
X68966459Y-68744832D01*
X68997600Y-68741998D01*
X69004302Y-68739820D01*
X69004304Y-68739820D01*
X69163409Y-68688124D01*
X69163412Y-68688123D01*
X69170108Y-68685947D01*
X69325912Y-68593069D01*
X69457266Y-68467982D01*
X69557643Y-68316902D01*
X69622055Y-68147338D01*
X69623631Y-68136124D01*
X69646748Y-67971639D01*
X69646748Y-67971636D01*
X69647299Y-67967717D01*
X69647616Y-67945000D01*
X69627397Y-67764745D01*
X69625080Y-67758091D01*
X69570064Y-67600106D01*
X69570062Y-67600103D01*
X69567745Y-67593448D01*
X69546695Y-67559760D01*
X69475359Y-67445598D01*
X69471626Y-67439624D01*
X69451544Y-67419401D01*
X69348778Y-67315915D01*
X69348774Y-67315912D01*
X69343815Y-67310918D01*
X69332697Y-67303862D01*
X69284538Y-67273300D01*
X69190666Y-67213727D01*
X69151481Y-67199774D01*
X69026425Y-67155243D01*
X69026420Y-67155242D01*
X69019790Y-67152881D01*
X69012802Y-67152048D01*
X69012799Y-67152047D01*
X68889698Y-67137368D01*
X68839680Y-67131404D01*
X68832677Y-67132140D01*
X68832676Y-67132140D01*
X68666288Y-67149628D01*
X68666286Y-67149629D01*
X68659288Y-67150364D01*
X68487579Y-67208818D01*
X68481575Y-67212512D01*
X68339095Y-67300166D01*
X68339092Y-67300168D01*
X68333088Y-67303862D01*
X68328053Y-67308793D01*
X68328050Y-67308795D01*
X68208953Y-67425424D01*
X68203493Y-67430771D01*
X68105235Y-67583238D01*
X68102826Y-67589858D01*
X68102824Y-67589861D01*
X68045606Y-67747066D01*
X68043197Y-67753685D01*
X68020463Y-67933640D01*
X51999125Y-67933640D01*
X51998105Y-67931739D01*
X51882426Y-67752926D01*
X51876136Y-67744757D01*
X51732806Y-67587240D01*
X51725273Y-67580215D01*
X51558139Y-67448222D01*
X51549556Y-67442520D01*
X51512602Y-67422120D01*
X51462631Y-67371687D01*
X51447859Y-67302245D01*
X51472975Y-67235839D01*
X51500327Y-67209232D01*
X51523797Y-67192491D01*
X51679860Y-67081173D01*
X51838096Y-66923489D01*
X51842299Y-66917640D01*
X62178463Y-66917640D01*
X62196163Y-67098160D01*
X62253418Y-67270273D01*
X62257065Y-67276295D01*
X62257066Y-67276297D01*
X62324090Y-67386967D01*
X62347380Y-67425424D01*
X62352269Y-67430487D01*
X62352270Y-67430488D01*
X62366862Y-67445598D01*
X62473382Y-67555902D01*
X62625159Y-67655222D01*
X62631763Y-67657678D01*
X62631765Y-67657679D01*
X62788558Y-67715990D01*
X62788560Y-67715990D01*
X62795168Y-67718448D01*
X62878995Y-67729633D01*
X62967980Y-67741507D01*
X62967984Y-67741507D01*
X62974961Y-67742438D01*
X62981972Y-67741800D01*
X62981976Y-67741800D01*
X63124459Y-67728832D01*
X63155600Y-67725998D01*
X63162302Y-67723820D01*
X63162304Y-67723820D01*
X63321409Y-67672124D01*
X63321412Y-67672123D01*
X63328108Y-67669947D01*
X63456436Y-67593448D01*
X63477860Y-67580677D01*
X63477862Y-67580676D01*
X63483912Y-67577069D01*
X63615266Y-67451982D01*
X63715643Y-67300902D01*
X63771702Y-67153327D01*
X63777555Y-67137920D01*
X63777556Y-67137918D01*
X63780055Y-67131338D01*
X63781035Y-67124366D01*
X63804748Y-66955639D01*
X63804748Y-66955636D01*
X63805299Y-66951717D01*
X63805616Y-66929000D01*
X63785397Y-66748745D01*
X63783075Y-66742077D01*
X63728064Y-66584106D01*
X63728062Y-66584103D01*
X63725745Y-66577448D01*
X63629626Y-66423624D01*
X63615941Y-66409843D01*
X63506778Y-66299915D01*
X63506774Y-66299912D01*
X63501815Y-66294918D01*
X63490697Y-66287862D01*
X63399071Y-66229715D01*
X63348666Y-66197727D01*
X63319463Y-66187328D01*
X63184425Y-66139243D01*
X63184420Y-66139242D01*
X63177790Y-66136881D01*
X63170802Y-66136048D01*
X63170799Y-66136047D01*
X63047698Y-66121368D01*
X62997680Y-66115404D01*
X62990677Y-66116140D01*
X62990676Y-66116140D01*
X62824288Y-66133628D01*
X62824286Y-66133629D01*
X62817288Y-66134364D01*
X62645579Y-66192818D01*
X62639575Y-66196512D01*
X62497095Y-66284166D01*
X62497092Y-66284168D01*
X62491088Y-66287862D01*
X62486053Y-66292793D01*
X62486050Y-66292795D01*
X62450030Y-66328069D01*
X62361493Y-66414771D01*
X62263235Y-66567238D01*
X62260826Y-66573858D01*
X62260824Y-66573861D01*
X62233174Y-66649829D01*
X62201197Y-66737685D01*
X62178463Y-66917640D01*
X51842299Y-66917640D01*
X51897594Y-66840689D01*
X51965435Y-66746277D01*
X51968453Y-66742077D01*
X52067430Y-66541811D01*
X52132370Y-66328069D01*
X52161529Y-66106590D01*
X52163156Y-66040000D01*
X52160418Y-66006695D01*
X72297251Y-66006695D01*
X72297548Y-66011848D01*
X72297548Y-66011851D01*
X72309812Y-66224547D01*
X72310110Y-66229715D01*
X72311247Y-66234761D01*
X72311248Y-66234767D01*
X72324326Y-66292795D01*
X72359222Y-66447639D01*
X72443266Y-66654616D01*
X72559987Y-66845088D01*
X72706250Y-67013938D01*
X72878126Y-67156632D01*
X72951955Y-67199774D01*
X73000679Y-67251412D01*
X73013750Y-67321195D01*
X72987019Y-67386967D01*
X72946562Y-67420327D01*
X72938457Y-67424546D01*
X72929738Y-67430036D01*
X72759433Y-67557905D01*
X72751726Y-67564748D01*
X72604590Y-67718717D01*
X72598104Y-67726727D01*
X72478098Y-67902649D01*
X72473000Y-67911623D01*
X72383338Y-68104783D01*
X72379775Y-68114470D01*
X72324389Y-68314183D01*
X72325912Y-68322607D01*
X72338292Y-68326000D01*
X74978344Y-68326000D01*
X74991875Y-68322027D01*
X74993180Y-68312947D01*
X74951214Y-68145875D01*
X74947894Y-68136124D01*
X74862972Y-67940814D01*
X74858105Y-67931739D01*
X74742426Y-67752926D01*
X74736136Y-67744757D01*
X74592806Y-67587240D01*
X74585273Y-67580215D01*
X74418139Y-67448222D01*
X74409556Y-67442520D01*
X74372602Y-67422120D01*
X74322631Y-67371687D01*
X74307859Y-67302245D01*
X74332975Y-67235839D01*
X74360327Y-67209232D01*
X74383797Y-67192491D01*
X74539860Y-67081173D01*
X74698096Y-66923489D01*
X74757594Y-66840689D01*
X74825435Y-66746277D01*
X74828453Y-66742077D01*
X74927430Y-66541811D01*
X74992370Y-66328069D01*
X75021529Y-66106590D01*
X75023156Y-66040000D01*
X75004852Y-65817361D01*
X74950431Y-65600702D01*
X74861354Y-65395840D01*
X74774972Y-65262314D01*
X74742822Y-65212617D01*
X74742820Y-65212614D01*
X74740014Y-65208277D01*
X74589670Y-65043051D01*
X74585619Y-65039852D01*
X74585615Y-65039848D01*
X74418414Y-64907800D01*
X74418410Y-64907798D01*
X74414359Y-64904598D01*
X74373053Y-64881796D01*
X74323084Y-64831364D01*
X74308312Y-64761921D01*
X74333428Y-64695516D01*
X74360780Y-64668909D01*
X74404603Y-64637650D01*
X74539860Y-64541173D01*
X74698096Y-64383489D01*
X74748433Y-64313438D01*
X74825435Y-64206277D01*
X74828453Y-64202077D01*
X74844551Y-64169506D01*
X74925136Y-64006453D01*
X74925137Y-64006451D01*
X74927430Y-64001811D01*
X74992370Y-63788069D01*
X75021529Y-63566590D01*
X75023156Y-63500000D01*
X75004852Y-63277361D01*
X74950431Y-63060702D01*
X74861354Y-62855840D01*
X74765475Y-62707633D01*
X74742822Y-62672617D01*
X74742820Y-62672614D01*
X74740014Y-62668277D01*
X74589670Y-62503051D01*
X74585619Y-62499852D01*
X74585615Y-62499848D01*
X74418414Y-62367800D01*
X74418410Y-62367798D01*
X74414359Y-62364598D01*
X74372569Y-62341529D01*
X74322598Y-62291097D01*
X74307826Y-62221654D01*
X74332942Y-62155248D01*
X74360294Y-62128641D01*
X74535328Y-62003792D01*
X74543200Y-61997139D01*
X74694052Y-61846812D01*
X74700730Y-61838965D01*
X74825003Y-61666020D01*
X74830313Y-61657183D01*
X74924670Y-61466267D01*
X74928469Y-61456672D01*
X74990377Y-61252910D01*
X74992555Y-61242837D01*
X74993986Y-61231962D01*
X74991775Y-61217778D01*
X74978617Y-61214000D01*
X72343225Y-61214000D01*
X72329694Y-61217973D01*
X72328257Y-61227966D01*
X72358565Y-61362446D01*
X72361645Y-61372275D01*
X72441770Y-61569603D01*
X72446413Y-61578794D01*
X72557694Y-61760388D01*
X72563777Y-61768699D01*
X72703213Y-61929667D01*
X72710580Y-61936883D01*
X72874434Y-62072916D01*
X72882881Y-62078831D01*
X72951969Y-62119203D01*
X73000693Y-62170842D01*
X73013764Y-62240625D01*
X72987033Y-62306396D01*
X72946584Y-62339752D01*
X72933607Y-62346507D01*
X72929474Y-62349610D01*
X72929471Y-62349612D01*
X72905247Y-62367800D01*
X72754965Y-62480635D01*
X72600629Y-62642138D01*
X72474743Y-62826680D01*
X72380688Y-63029305D01*
X72320989Y-63244570D01*
X72297251Y-63466695D01*
X72297548Y-63471848D01*
X72297548Y-63471851D01*
X72303011Y-63566590D01*
X72310110Y-63689715D01*
X72311247Y-63694761D01*
X72311248Y-63694767D01*
X72314438Y-63708920D01*
X72359222Y-63907639D01*
X72443266Y-64114616D01*
X72473842Y-64164512D01*
X72548897Y-64286990D01*
X72559987Y-64305088D01*
X72706250Y-64473938D01*
X72878126Y-64616632D01*
X72948595Y-64657811D01*
X72951445Y-64659476D01*
X73000169Y-64711114D01*
X73013240Y-64780897D01*
X72986509Y-64846669D01*
X72946055Y-64880027D01*
X72933607Y-64886507D01*
X72929474Y-64889610D01*
X72929471Y-64889612D01*
X72759100Y-65017530D01*
X72754965Y-65020635D01*
X72600629Y-65182138D01*
X72474743Y-65366680D01*
X72380688Y-65569305D01*
X72320989Y-65784570D01*
X72297251Y-66006695D01*
X52160418Y-66006695D01*
X52144852Y-65817361D01*
X52090431Y-65600702D01*
X52001354Y-65395840D01*
X51914972Y-65262314D01*
X51882822Y-65212617D01*
X51882820Y-65212614D01*
X51880014Y-65208277D01*
X51729670Y-65043051D01*
X51725619Y-65039852D01*
X51725615Y-65039848D01*
X51558414Y-64907800D01*
X51558410Y-64907798D01*
X51554359Y-64904598D01*
X51520016Y-64885640D01*
X68909463Y-64885640D01*
X68927163Y-65066160D01*
X68984418Y-65238273D01*
X68988065Y-65244295D01*
X68988066Y-65244297D01*
X69065027Y-65371375D01*
X69078380Y-65393424D01*
X69204382Y-65523902D01*
X69356159Y-65623222D01*
X69362763Y-65625678D01*
X69362765Y-65625679D01*
X69519558Y-65683990D01*
X69519560Y-65683990D01*
X69526168Y-65686448D01*
X69609995Y-65697633D01*
X69698980Y-65709507D01*
X69698984Y-65709507D01*
X69705961Y-65710438D01*
X69712972Y-65709800D01*
X69712976Y-65709800D01*
X69855459Y-65696832D01*
X69886600Y-65693998D01*
X69893302Y-65691820D01*
X69893304Y-65691820D01*
X70052409Y-65640124D01*
X70052412Y-65640123D01*
X70059108Y-65637947D01*
X70214912Y-65545069D01*
X70346266Y-65419982D01*
X70446643Y-65268902D01*
X70511055Y-65099338D01*
X70512035Y-65092366D01*
X70535748Y-64923639D01*
X70535748Y-64923636D01*
X70536299Y-64919717D01*
X70536616Y-64897000D01*
X70516397Y-64716745D01*
X70514080Y-64710091D01*
X70459064Y-64552106D01*
X70459062Y-64552103D01*
X70456745Y-64545448D01*
X70360626Y-64391624D01*
X70282984Y-64313438D01*
X70237778Y-64267915D01*
X70237774Y-64267912D01*
X70232815Y-64262918D01*
X70221697Y-64255862D01*
X70143563Y-64206277D01*
X70079666Y-64165727D01*
X70040209Y-64151677D01*
X69915425Y-64107243D01*
X69915420Y-64107242D01*
X69908790Y-64104881D01*
X69901802Y-64104048D01*
X69901799Y-64104047D01*
X69778698Y-64089368D01*
X69728680Y-64083404D01*
X69721677Y-64084140D01*
X69721676Y-64084140D01*
X69555288Y-64101628D01*
X69555286Y-64101629D01*
X69548288Y-64102364D01*
X69376579Y-64160818D01*
X69370575Y-64164512D01*
X69228095Y-64252166D01*
X69228092Y-64252168D01*
X69222088Y-64255862D01*
X69217053Y-64260793D01*
X69217050Y-64260795D01*
X69163293Y-64313438D01*
X69092493Y-64382771D01*
X68994235Y-64535238D01*
X68991826Y-64541858D01*
X68991824Y-64541861D01*
X68964610Y-64616632D01*
X68932197Y-64705685D01*
X68909463Y-64885640D01*
X51520016Y-64885640D01*
X51513053Y-64881796D01*
X51463084Y-64831364D01*
X51448312Y-64761921D01*
X51473428Y-64695516D01*
X51500780Y-64668909D01*
X51544603Y-64637650D01*
X51679860Y-64541173D01*
X51838096Y-64383489D01*
X51888433Y-64313438D01*
X51965435Y-64206277D01*
X51968453Y-64202077D01*
X51984551Y-64169506D01*
X52065136Y-64006453D01*
X52065137Y-64006451D01*
X52067430Y-64001811D01*
X52132370Y-63788069D01*
X52161529Y-63566590D01*
X52163156Y-63500000D01*
X52162222Y-63488640D01*
X59003463Y-63488640D01*
X59021163Y-63669160D01*
X59078418Y-63841273D01*
X59082065Y-63847295D01*
X59082066Y-63847297D01*
X59092978Y-63865314D01*
X59172380Y-63996424D01*
X59298382Y-64126902D01*
X59304278Y-64130760D01*
X59413262Y-64202077D01*
X59450159Y-64226222D01*
X59456763Y-64228678D01*
X59456765Y-64228679D01*
X59613558Y-64286990D01*
X59613560Y-64286990D01*
X59620168Y-64289448D01*
X59703995Y-64300633D01*
X59792980Y-64312507D01*
X59792984Y-64312507D01*
X59799961Y-64313438D01*
X59806972Y-64312800D01*
X59806976Y-64312800D01*
X59949459Y-64299832D01*
X59980600Y-64296998D01*
X59987302Y-64294820D01*
X59987304Y-64294820D01*
X60146409Y-64243124D01*
X60146412Y-64243123D01*
X60153108Y-64240947D01*
X60272951Y-64169506D01*
X60302860Y-64151677D01*
X60302862Y-64151676D01*
X60308912Y-64148069D01*
X60440266Y-64022982D01*
X60540643Y-63871902D01*
X60605055Y-63702338D01*
X60606829Y-63689715D01*
X60629748Y-63526639D01*
X60629748Y-63526636D01*
X60630299Y-63522717D01*
X60630616Y-63500000D01*
X60610397Y-63319745D01*
X60608080Y-63313091D01*
X60553064Y-63155106D01*
X60553062Y-63155103D01*
X60550745Y-63148448D01*
X60454626Y-62994624D01*
X60440941Y-62980843D01*
X60331778Y-62870915D01*
X60331774Y-62870912D01*
X60326815Y-62865918D01*
X60318420Y-62860590D01*
X60258243Y-62822401D01*
X60173666Y-62768727D01*
X60144463Y-62758328D01*
X60009425Y-62710243D01*
X60009420Y-62710242D01*
X60002790Y-62707881D01*
X59995802Y-62707048D01*
X59995799Y-62707047D01*
X59872698Y-62692368D01*
X59822680Y-62686404D01*
X59815677Y-62687140D01*
X59815676Y-62687140D01*
X59649288Y-62704628D01*
X59649286Y-62704629D01*
X59642288Y-62705364D01*
X59470579Y-62763818D01*
X59464575Y-62767512D01*
X59322095Y-62855166D01*
X59322092Y-62855168D01*
X59316088Y-62858862D01*
X59311053Y-62863793D01*
X59311050Y-62863795D01*
X59191525Y-62980843D01*
X59186493Y-62985771D01*
X59088235Y-63138238D01*
X59085826Y-63144858D01*
X59085824Y-63144861D01*
X59028606Y-63302066D01*
X59026197Y-63308685D01*
X59003463Y-63488640D01*
X52162222Y-63488640D01*
X52144852Y-63277361D01*
X52090431Y-63060702D01*
X52001354Y-62855840D01*
X51905475Y-62707633D01*
X51882822Y-62672617D01*
X51882820Y-62672614D01*
X51880014Y-62668277D01*
X51729670Y-62503051D01*
X51725619Y-62499852D01*
X51725615Y-62499848D01*
X51558414Y-62367800D01*
X51558410Y-62367798D01*
X51554359Y-62364598D01*
X51512569Y-62341529D01*
X51462598Y-62291097D01*
X51447826Y-62221654D01*
X51472942Y-62155248D01*
X51500294Y-62128641D01*
X51675328Y-62003792D01*
X51683200Y-61997139D01*
X51834052Y-61846812D01*
X51840730Y-61838965D01*
X51965003Y-61666020D01*
X51970313Y-61657183D01*
X52064670Y-61466267D01*
X52068469Y-61456672D01*
X52130377Y-61252910D01*
X52132555Y-61242837D01*
X52133986Y-61231962D01*
X52131775Y-61217778D01*
X52118617Y-61214000D01*
X49483225Y-61214000D01*
X49469694Y-61217973D01*
X49468257Y-61227966D01*
X49498565Y-61362446D01*
X49501645Y-61372275D01*
X49581770Y-61569603D01*
X49586413Y-61578794D01*
X49697694Y-61760388D01*
X49703777Y-61768699D01*
X49843213Y-61929667D01*
X49850580Y-61936883D01*
X50014434Y-62072916D01*
X50022881Y-62078831D01*
X50091969Y-62119203D01*
X50140693Y-62170842D01*
X50153764Y-62240625D01*
X50127033Y-62306396D01*
X50086584Y-62339752D01*
X50073607Y-62346507D01*
X50069474Y-62349610D01*
X50069471Y-62349612D01*
X50045247Y-62367800D01*
X49894965Y-62480635D01*
X49740629Y-62642138D01*
X49614743Y-62826680D01*
X49520688Y-63029305D01*
X49460989Y-63244570D01*
X49437251Y-63466695D01*
X49437548Y-63471848D01*
X49437548Y-63471851D01*
X49443011Y-63566590D01*
X49450110Y-63689715D01*
X49451247Y-63694761D01*
X49451248Y-63694767D01*
X49454438Y-63708920D01*
X49499222Y-63907639D01*
X49583266Y-64114616D01*
X49613842Y-64164512D01*
X49688897Y-64286990D01*
X49699987Y-64305088D01*
X49846250Y-64473938D01*
X50018126Y-64616632D01*
X50088595Y-64657811D01*
X50091445Y-64659476D01*
X50140169Y-64711114D01*
X50153240Y-64780897D01*
X50126509Y-64846669D01*
X50086055Y-64880027D01*
X50073607Y-64886507D01*
X50069474Y-64889610D01*
X50069471Y-64889612D01*
X49899100Y-65017530D01*
X49894965Y-65020635D01*
X49740629Y-65182138D01*
X49614743Y-65366680D01*
X49520688Y-65569305D01*
X49460989Y-65784570D01*
X49437251Y-66006695D01*
X48768500Y-66006695D01*
X48768500Y-58386695D01*
X49437251Y-58386695D01*
X49437548Y-58391848D01*
X49437548Y-58391851D01*
X49443011Y-58486590D01*
X49450110Y-58609715D01*
X49451247Y-58614761D01*
X49451248Y-58614767D01*
X49471119Y-58702939D01*
X49499222Y-58827639D01*
X49583266Y-59034616D01*
X49699987Y-59225088D01*
X49846250Y-59393938D01*
X50018126Y-59536632D01*
X50091955Y-59579774D01*
X50140679Y-59631412D01*
X50153750Y-59701195D01*
X50127019Y-59766967D01*
X50086562Y-59800327D01*
X50078457Y-59804546D01*
X50069738Y-59810036D01*
X49899433Y-59937905D01*
X49891726Y-59944748D01*
X49744590Y-60098717D01*
X49738104Y-60106727D01*
X49618098Y-60282649D01*
X49613000Y-60291623D01*
X49523338Y-60484783D01*
X49519775Y-60494470D01*
X49464389Y-60694183D01*
X49465912Y-60702607D01*
X49478292Y-60706000D01*
X52118344Y-60706000D01*
X52131875Y-60702027D01*
X52133180Y-60692947D01*
X52091214Y-60525875D01*
X52087894Y-60516124D01*
X52002972Y-60320814D01*
X51998105Y-60311739D01*
X51882426Y-60132926D01*
X51876136Y-60124757D01*
X51732806Y-59967240D01*
X51725273Y-59960215D01*
X51558139Y-59828222D01*
X51549556Y-59822520D01*
X51512602Y-59802120D01*
X51462631Y-59751687D01*
X51447859Y-59682245D01*
X51472975Y-59615839D01*
X51500327Y-59589232D01*
X51523797Y-59572491D01*
X51679860Y-59461173D01*
X51838096Y-59303489D01*
X51897594Y-59220689D01*
X51965435Y-59126277D01*
X51968453Y-59122077D01*
X52067430Y-58921811D01*
X52132370Y-58708069D01*
X52161529Y-58486590D01*
X52163156Y-58420000D01*
X52160418Y-58386695D01*
X72297251Y-58386695D01*
X72297548Y-58391848D01*
X72297548Y-58391851D01*
X72303011Y-58486590D01*
X72310110Y-58609715D01*
X72311247Y-58614761D01*
X72311248Y-58614767D01*
X72331119Y-58702939D01*
X72359222Y-58827639D01*
X72443266Y-59034616D01*
X72559987Y-59225088D01*
X72706250Y-59393938D01*
X72878126Y-59536632D01*
X72951955Y-59579774D01*
X73000679Y-59631412D01*
X73013750Y-59701195D01*
X72987019Y-59766967D01*
X72946562Y-59800327D01*
X72938457Y-59804546D01*
X72929738Y-59810036D01*
X72759433Y-59937905D01*
X72751726Y-59944748D01*
X72604590Y-60098717D01*
X72598104Y-60106727D01*
X72478098Y-60282649D01*
X72473000Y-60291623D01*
X72383338Y-60484783D01*
X72379775Y-60494470D01*
X72324389Y-60694183D01*
X72325912Y-60702607D01*
X72338292Y-60706000D01*
X74978344Y-60706000D01*
X74991875Y-60702027D01*
X74993180Y-60692947D01*
X74951214Y-60525875D01*
X74947894Y-60516124D01*
X74862972Y-60320814D01*
X74858105Y-60311739D01*
X74742426Y-60132926D01*
X74736136Y-60124757D01*
X74592806Y-59967240D01*
X74585273Y-59960215D01*
X74418139Y-59828222D01*
X74409556Y-59822520D01*
X74372602Y-59802120D01*
X74322631Y-59751687D01*
X74307859Y-59682245D01*
X74332975Y-59615839D01*
X74360327Y-59589232D01*
X74383797Y-59572491D01*
X74539860Y-59461173D01*
X74698096Y-59303489D01*
X74757594Y-59220689D01*
X74825435Y-59126277D01*
X74828453Y-59122077D01*
X74927430Y-58921811D01*
X74992370Y-58708069D01*
X75021529Y-58486590D01*
X75023156Y-58420000D01*
X75004852Y-58197361D01*
X74950431Y-57980702D01*
X74861354Y-57775840D01*
X74740014Y-57588277D01*
X74589670Y-57423051D01*
X74585619Y-57419852D01*
X74585615Y-57419848D01*
X74418414Y-57287800D01*
X74418410Y-57287798D01*
X74414359Y-57284598D01*
X74373053Y-57261796D01*
X74323084Y-57211364D01*
X74308312Y-57141921D01*
X74333428Y-57075516D01*
X74360780Y-57048909D01*
X74404603Y-57017650D01*
X74539860Y-56921173D01*
X74698096Y-56763489D01*
X74757594Y-56680689D01*
X74825435Y-56586277D01*
X74828453Y-56582077D01*
X74834710Y-56569418D01*
X74925136Y-56386453D01*
X74925137Y-56386451D01*
X74927430Y-56381811D01*
X74978808Y-56212708D01*
X74990865Y-56173023D01*
X74990865Y-56173021D01*
X74992370Y-56168069D01*
X75021529Y-55946590D01*
X75023156Y-55880000D01*
X75004852Y-55657361D01*
X74950431Y-55440702D01*
X74861354Y-55235840D01*
X74821906Y-55174862D01*
X74742822Y-55052617D01*
X74742820Y-55052614D01*
X74740014Y-55048277D01*
X74589670Y-54883051D01*
X74585619Y-54879852D01*
X74585615Y-54879848D01*
X74418414Y-54747800D01*
X74418410Y-54747798D01*
X74414359Y-54744598D01*
X74372569Y-54721529D01*
X74322598Y-54671097D01*
X74307826Y-54601654D01*
X74332942Y-54535248D01*
X74360294Y-54508641D01*
X74535328Y-54383792D01*
X74543200Y-54377139D01*
X74694052Y-54226812D01*
X74700730Y-54218965D01*
X74825003Y-54046020D01*
X74830313Y-54037183D01*
X74924670Y-53846267D01*
X74928469Y-53836672D01*
X74990377Y-53632910D01*
X74992555Y-53622837D01*
X74993986Y-53611962D01*
X74991775Y-53597778D01*
X74978617Y-53594000D01*
X72343225Y-53594000D01*
X72329694Y-53597973D01*
X72328257Y-53607966D01*
X72358565Y-53742446D01*
X72361645Y-53752275D01*
X72441770Y-53949603D01*
X72446413Y-53958794D01*
X72557694Y-54140388D01*
X72563777Y-54148699D01*
X72703213Y-54309667D01*
X72710580Y-54316883D01*
X72874434Y-54452916D01*
X72882881Y-54458831D01*
X72951969Y-54499203D01*
X73000693Y-54550842D01*
X73013764Y-54620625D01*
X72987033Y-54686396D01*
X72946584Y-54719752D01*
X72933607Y-54726507D01*
X72929474Y-54729610D01*
X72929471Y-54729612D01*
X72790928Y-54833633D01*
X72754965Y-54860635D01*
X72600629Y-55022138D01*
X72597715Y-55026410D01*
X72597714Y-55026411D01*
X72536855Y-55115627D01*
X72474743Y-55206680D01*
X72459003Y-55240590D01*
X72393866Y-55380916D01*
X72380688Y-55409305D01*
X72320989Y-55624570D01*
X72297251Y-55846695D01*
X72297548Y-55851848D01*
X72297548Y-55851851D01*
X72305969Y-55997902D01*
X72310110Y-56069715D01*
X72311247Y-56074761D01*
X72311248Y-56074767D01*
X72327974Y-56148982D01*
X72359222Y-56287639D01*
X72443266Y-56494616D01*
X72559987Y-56685088D01*
X72706250Y-56853938D01*
X72878126Y-56996632D01*
X72948595Y-57037811D01*
X72951445Y-57039476D01*
X73000169Y-57091114D01*
X73013240Y-57160897D01*
X72986509Y-57226669D01*
X72946055Y-57260027D01*
X72933607Y-57266507D01*
X72929474Y-57269610D01*
X72929471Y-57269612D01*
X72905247Y-57287800D01*
X72754965Y-57400635D01*
X72600629Y-57562138D01*
X72474743Y-57746680D01*
X72380688Y-57949305D01*
X72320989Y-58164570D01*
X72297251Y-58386695D01*
X52160418Y-58386695D01*
X52144852Y-58197361D01*
X52090431Y-57980702D01*
X52001354Y-57775840D01*
X51880014Y-57588277D01*
X51729670Y-57423051D01*
X51725619Y-57419852D01*
X51725615Y-57419848D01*
X51558414Y-57287800D01*
X51558410Y-57287798D01*
X51554359Y-57284598D01*
X51513053Y-57261796D01*
X51463084Y-57211364D01*
X51448312Y-57141921D01*
X51473428Y-57075516D01*
X51500780Y-57048909D01*
X51544603Y-57017650D01*
X51679860Y-56921173D01*
X51838096Y-56763489D01*
X51897594Y-56680689D01*
X51965435Y-56586277D01*
X51968453Y-56582077D01*
X51974710Y-56569418D01*
X52065136Y-56386453D01*
X52065137Y-56386451D01*
X52067430Y-56381811D01*
X52118808Y-56212708D01*
X52130865Y-56173023D01*
X52130865Y-56173021D01*
X52132370Y-56168069D01*
X52161529Y-55946590D01*
X52163156Y-55880000D01*
X52153325Y-55760421D01*
X57587682Y-55760421D01*
X57605382Y-55940941D01*
X57662637Y-56113054D01*
X57666284Y-56119076D01*
X57666285Y-56119078D01*
X57749668Y-56256760D01*
X57756599Y-56268205D01*
X57882601Y-56398683D01*
X57907524Y-56414992D01*
X58021887Y-56489829D01*
X58034378Y-56498003D01*
X58040982Y-56500459D01*
X58040984Y-56500460D01*
X58197777Y-56558771D01*
X58197779Y-56558771D01*
X58204387Y-56561229D01*
X58288214Y-56572414D01*
X58377199Y-56584288D01*
X58377203Y-56584288D01*
X58384180Y-56585219D01*
X58391191Y-56584581D01*
X58391195Y-56584581D01*
X58533678Y-56571613D01*
X58564819Y-56568779D01*
X58571521Y-56566601D01*
X58571523Y-56566601D01*
X58730628Y-56514905D01*
X58730631Y-56514904D01*
X58737327Y-56512728D01*
X58861834Y-56438507D01*
X58887079Y-56423458D01*
X58887081Y-56423457D01*
X58893131Y-56419850D01*
X59024485Y-56294763D01*
X59124862Y-56143683D01*
X59171426Y-56021104D01*
X59186774Y-55980701D01*
X59186775Y-55980699D01*
X59189274Y-55974119D01*
X59190254Y-55967147D01*
X59213967Y-55798420D01*
X59213967Y-55798417D01*
X59214518Y-55794498D01*
X59214835Y-55771781D01*
X59194616Y-55591526D01*
X59192299Y-55584872D01*
X59137283Y-55426887D01*
X59137281Y-55426884D01*
X59134964Y-55420229D01*
X59124343Y-55403232D01*
X59114769Y-55387910D01*
X61543963Y-55387910D01*
X61561663Y-55568430D01*
X61618918Y-55740543D01*
X61622565Y-55746565D01*
X61622566Y-55746567D01*
X61680097Y-55841562D01*
X61712880Y-55895694D01*
X61717769Y-55900757D01*
X61717770Y-55900758D01*
X61787821Y-55973297D01*
X61838882Y-56026172D01*
X61844778Y-56030030D01*
X61971652Y-56113054D01*
X61990659Y-56125492D01*
X61997263Y-56127948D01*
X61997265Y-56127949D01*
X62154058Y-56186260D01*
X62154060Y-56186260D01*
X62160668Y-56188718D01*
X62244495Y-56199903D01*
X62333480Y-56211777D01*
X62333484Y-56211777D01*
X62340461Y-56212708D01*
X62347472Y-56212070D01*
X62347476Y-56212070D01*
X62489959Y-56199102D01*
X62521100Y-56196268D01*
X62527802Y-56194090D01*
X62527804Y-56194090D01*
X62686909Y-56142394D01*
X62686912Y-56142393D01*
X62693608Y-56140217D01*
X62811876Y-56069715D01*
X62843360Y-56050947D01*
X62843362Y-56050946D01*
X62849412Y-56047339D01*
X62980766Y-55922252D01*
X63081143Y-55771172D01*
X63136289Y-55626000D01*
X63140605Y-55614640D01*
X68401463Y-55614640D01*
X68419163Y-55795160D01*
X68476418Y-55967273D01*
X68480065Y-55973295D01*
X68480066Y-55973297D01*
X68538459Y-56069715D01*
X68570380Y-56122424D01*
X68575269Y-56127487D01*
X68575270Y-56127488D01*
X68641691Y-56196268D01*
X68696382Y-56252902D01*
X68848159Y-56352222D01*
X68854763Y-56354678D01*
X68854765Y-56354679D01*
X69011558Y-56412990D01*
X69011560Y-56412990D01*
X69018168Y-56415448D01*
X69101995Y-56426633D01*
X69190980Y-56438507D01*
X69190984Y-56438507D01*
X69197961Y-56439438D01*
X69204972Y-56438800D01*
X69204976Y-56438800D01*
X69347459Y-56425832D01*
X69378600Y-56422998D01*
X69385302Y-56420820D01*
X69385304Y-56420820D01*
X69544409Y-56369124D01*
X69544412Y-56369123D01*
X69551108Y-56366947D01*
X69676120Y-56292425D01*
X69700860Y-56277677D01*
X69700862Y-56277676D01*
X69706912Y-56274069D01*
X69838266Y-56148982D01*
X69938643Y-55997902D01*
X70003055Y-55828338D01*
X70004035Y-55821366D01*
X70027748Y-55652639D01*
X70027748Y-55652636D01*
X70028299Y-55648717D01*
X70028616Y-55626000D01*
X70008397Y-55445745D01*
X70006080Y-55439091D01*
X69951064Y-55281106D01*
X69951062Y-55281103D01*
X69948745Y-55274448D01*
X69906399Y-55206680D01*
X69856359Y-55126598D01*
X69852626Y-55120624D01*
X69785092Y-55052617D01*
X69729778Y-54996915D01*
X69729774Y-54996912D01*
X69724815Y-54991918D01*
X69713697Y-54984862D01*
X69665538Y-54954300D01*
X69571666Y-54894727D01*
X69486422Y-54864373D01*
X69407425Y-54836243D01*
X69407420Y-54836242D01*
X69400790Y-54833881D01*
X69393802Y-54833048D01*
X69393799Y-54833047D01*
X69270698Y-54818368D01*
X69220680Y-54812404D01*
X69213677Y-54813140D01*
X69213676Y-54813140D01*
X69047288Y-54830628D01*
X69047286Y-54830629D01*
X69040288Y-54831364D01*
X68868579Y-54889818D01*
X68862575Y-54893512D01*
X68720095Y-54981166D01*
X68720092Y-54981168D01*
X68714088Y-54984862D01*
X68709053Y-54989793D01*
X68709050Y-54989795D01*
X68589525Y-55106843D01*
X68584493Y-55111771D01*
X68486235Y-55264238D01*
X68483826Y-55270858D01*
X68483824Y-55270861D01*
X68428819Y-55421987D01*
X68424197Y-55434685D01*
X68401463Y-55614640D01*
X63140605Y-55614640D01*
X63143055Y-55608190D01*
X63143056Y-55608188D01*
X63145555Y-55601608D01*
X63148526Y-55580466D01*
X63170248Y-55425909D01*
X63170248Y-55425906D01*
X63170799Y-55421987D01*
X63170976Y-55409305D01*
X63171061Y-55403232D01*
X63171061Y-55403227D01*
X63171116Y-55399270D01*
X63150897Y-55219015D01*
X63148580Y-55212361D01*
X63093564Y-55054376D01*
X63093562Y-55054373D01*
X63091245Y-55047718D01*
X62995126Y-54893894D01*
X62986335Y-54885041D01*
X62872278Y-54770185D01*
X62872274Y-54770182D01*
X62867315Y-54765188D01*
X62856197Y-54758132D01*
X62743158Y-54686396D01*
X62714166Y-54667997D01*
X62684963Y-54657598D01*
X62549925Y-54609513D01*
X62549920Y-54609512D01*
X62543290Y-54607151D01*
X62536302Y-54606318D01*
X62536299Y-54606317D01*
X62413198Y-54591638D01*
X62363180Y-54585674D01*
X62356177Y-54586410D01*
X62356176Y-54586410D01*
X62189788Y-54603898D01*
X62189786Y-54603899D01*
X62182788Y-54604634D01*
X62011079Y-54663088D01*
X62005075Y-54666782D01*
X61862595Y-54754436D01*
X61862592Y-54754438D01*
X61856588Y-54758132D01*
X61851553Y-54763063D01*
X61851550Y-54763065D01*
X61748098Y-54864373D01*
X61726993Y-54885041D01*
X61659484Y-54989795D01*
X61635887Y-55026411D01*
X61628735Y-55037508D01*
X61626326Y-55044128D01*
X61626324Y-55044131D01*
X61594836Y-55130643D01*
X61566697Y-55207955D01*
X61543963Y-55387910D01*
X59114769Y-55387910D01*
X59042578Y-55272379D01*
X59038845Y-55266405D01*
X59033883Y-55261408D01*
X58915997Y-55142696D01*
X58915993Y-55142693D01*
X58911034Y-55137699D01*
X58899916Y-55130643D01*
X58851757Y-55100081D01*
X58757885Y-55040508D01*
X58706296Y-55022138D01*
X58593644Y-54982024D01*
X58593639Y-54982023D01*
X58587009Y-54979662D01*
X58580021Y-54978829D01*
X58580018Y-54978828D01*
X58456917Y-54964149D01*
X58406899Y-54958185D01*
X58399896Y-54958921D01*
X58399895Y-54958921D01*
X58233507Y-54976409D01*
X58233505Y-54976410D01*
X58226507Y-54977145D01*
X58054798Y-55035599D01*
X58027136Y-55052617D01*
X57906314Y-55126947D01*
X57906311Y-55126949D01*
X57900307Y-55130643D01*
X57895272Y-55135574D01*
X57895269Y-55135576D01*
X57788033Y-55240590D01*
X57770712Y-55257552D01*
X57672454Y-55410019D01*
X57670045Y-55416639D01*
X57670043Y-55416642D01*
X57656903Y-55452744D01*
X57610416Y-55580466D01*
X57587682Y-55760421D01*
X52153325Y-55760421D01*
X52144852Y-55657361D01*
X52090431Y-55440702D01*
X52001354Y-55235840D01*
X51961906Y-55174862D01*
X51882822Y-55052617D01*
X51882820Y-55052614D01*
X51880014Y-55048277D01*
X51729670Y-54883051D01*
X51725619Y-54879852D01*
X51725615Y-54879848D01*
X51558414Y-54747800D01*
X51558410Y-54747798D01*
X51554359Y-54744598D01*
X51512569Y-54721529D01*
X51462598Y-54671097D01*
X51447826Y-54601654D01*
X51472942Y-54535248D01*
X51500294Y-54508641D01*
X51675328Y-54383792D01*
X51683200Y-54377139D01*
X51834052Y-54226812D01*
X51840730Y-54218965D01*
X51965003Y-54046020D01*
X51970313Y-54037183D01*
X52064670Y-53846267D01*
X52068469Y-53836672D01*
X52130377Y-53632910D01*
X52132555Y-53622837D01*
X52133986Y-53611962D01*
X52131775Y-53597778D01*
X52118617Y-53594000D01*
X49483225Y-53594000D01*
X49469694Y-53597973D01*
X49468257Y-53607966D01*
X49498565Y-53742446D01*
X49501645Y-53752275D01*
X49581770Y-53949603D01*
X49586413Y-53958794D01*
X49697694Y-54140388D01*
X49703777Y-54148699D01*
X49843213Y-54309667D01*
X49850580Y-54316883D01*
X50014434Y-54452916D01*
X50022881Y-54458831D01*
X50091969Y-54499203D01*
X50140693Y-54550842D01*
X50153764Y-54620625D01*
X50127033Y-54686396D01*
X50086584Y-54719752D01*
X50073607Y-54726507D01*
X50069474Y-54729610D01*
X50069471Y-54729612D01*
X49930928Y-54833633D01*
X49894965Y-54860635D01*
X49740629Y-55022138D01*
X49737715Y-55026410D01*
X49737714Y-55026411D01*
X49676855Y-55115627D01*
X49614743Y-55206680D01*
X49599003Y-55240590D01*
X49533866Y-55380916D01*
X49520688Y-55409305D01*
X49460989Y-55624570D01*
X49437251Y-55846695D01*
X49437548Y-55851848D01*
X49437548Y-55851851D01*
X49445969Y-55997902D01*
X49450110Y-56069715D01*
X49451247Y-56074761D01*
X49451248Y-56074767D01*
X49467974Y-56148982D01*
X49499222Y-56287639D01*
X49583266Y-56494616D01*
X49699987Y-56685088D01*
X49846250Y-56853938D01*
X50018126Y-56996632D01*
X50088595Y-57037811D01*
X50091445Y-57039476D01*
X50140169Y-57091114D01*
X50153240Y-57160897D01*
X50126509Y-57226669D01*
X50086055Y-57260027D01*
X50073607Y-57266507D01*
X50069474Y-57269610D01*
X50069471Y-57269612D01*
X50045247Y-57287800D01*
X49894965Y-57400635D01*
X49740629Y-57562138D01*
X49614743Y-57746680D01*
X49520688Y-57949305D01*
X49460989Y-58164570D01*
X49437251Y-58386695D01*
X48768500Y-58386695D01*
X48768500Y-53455640D01*
X54558463Y-53455640D01*
X54576163Y-53636160D01*
X54633418Y-53808273D01*
X54637065Y-53814295D01*
X54637066Y-53814297D01*
X54719010Y-53949603D01*
X54727380Y-53963424D01*
X54732269Y-53968487D01*
X54732270Y-53968488D01*
X54753027Y-53989982D01*
X54853382Y-54093902D01*
X55005159Y-54193222D01*
X55011763Y-54195678D01*
X55011765Y-54195679D01*
X55168558Y-54253990D01*
X55168560Y-54253990D01*
X55175168Y-54256448D01*
X55258995Y-54267633D01*
X55347980Y-54279507D01*
X55347984Y-54279507D01*
X55354961Y-54280438D01*
X55361972Y-54279800D01*
X55361976Y-54279800D01*
X55504459Y-54266832D01*
X55535600Y-54263998D01*
X55542302Y-54261820D01*
X55542304Y-54261820D01*
X55701409Y-54210124D01*
X55701412Y-54210123D01*
X55708108Y-54207947D01*
X55827126Y-54136998D01*
X55857860Y-54118677D01*
X55857862Y-54118676D01*
X55863912Y-54115069D01*
X55995266Y-53989982D01*
X56095643Y-53838902D01*
X56153233Y-53687297D01*
X56157555Y-53675920D01*
X56157556Y-53675918D01*
X56160055Y-53669338D01*
X56161035Y-53662366D01*
X56184748Y-53493639D01*
X56184748Y-53493636D01*
X56185299Y-53489717D01*
X56185616Y-53467000D01*
X56170096Y-53328640D01*
X57733463Y-53328640D01*
X57751163Y-53509160D01*
X57808418Y-53681273D01*
X57812065Y-53687295D01*
X57812066Y-53687297D01*
X57888980Y-53814297D01*
X57902380Y-53836424D01*
X57907269Y-53841487D01*
X57907270Y-53841488D01*
X57911885Y-53846267D01*
X58028382Y-53966902D01*
X58180159Y-54066222D01*
X58186763Y-54068678D01*
X58186765Y-54068679D01*
X58343558Y-54126990D01*
X58343560Y-54126990D01*
X58350168Y-54129448D01*
X58432158Y-54140388D01*
X58522980Y-54152507D01*
X58522984Y-54152507D01*
X58529961Y-54153438D01*
X58536972Y-54152800D01*
X58536976Y-54152800D01*
X58679459Y-54139832D01*
X58710600Y-54136998D01*
X58717302Y-54134820D01*
X58717304Y-54134820D01*
X58876409Y-54083124D01*
X58876412Y-54083123D01*
X58883108Y-54080947D01*
X59038912Y-53988069D01*
X59170266Y-53862982D01*
X59270643Y-53711902D01*
X59335055Y-53542338D01*
X59336035Y-53535366D01*
X59359748Y-53366639D01*
X59359748Y-53366636D01*
X59360299Y-53362717D01*
X59360616Y-53340000D01*
X59340397Y-53159745D01*
X59338080Y-53153091D01*
X59283064Y-52995106D01*
X59283062Y-52995103D01*
X59280745Y-52988448D01*
X59184626Y-52834624D01*
X59170941Y-52820843D01*
X59061778Y-52710915D01*
X59061774Y-52710912D01*
X59056815Y-52705918D01*
X59048773Y-52700814D01*
X58975380Y-52654238D01*
X58903666Y-52608727D01*
X58874463Y-52598328D01*
X58739425Y-52550243D01*
X58739420Y-52550242D01*
X58732790Y-52547881D01*
X58725802Y-52547048D01*
X58725799Y-52547047D01*
X58602698Y-52532368D01*
X58552680Y-52526404D01*
X58545677Y-52527140D01*
X58545676Y-52527140D01*
X58379288Y-52544628D01*
X58379286Y-52544629D01*
X58372288Y-52545364D01*
X58200579Y-52603818D01*
X58194575Y-52607512D01*
X58052095Y-52695166D01*
X58052092Y-52695168D01*
X58046088Y-52698862D01*
X58041053Y-52703793D01*
X58041050Y-52703795D01*
X57921525Y-52820843D01*
X57916493Y-52825771D01*
X57818235Y-52978238D01*
X57815826Y-52984858D01*
X57815824Y-52984861D01*
X57769600Y-53111861D01*
X57756197Y-53148685D01*
X57733463Y-53328640D01*
X56170096Y-53328640D01*
X56165397Y-53286745D01*
X56163080Y-53280091D01*
X56108064Y-53122106D01*
X56108062Y-53122103D01*
X56105745Y-53115448D01*
X56022651Y-52982469D01*
X56013359Y-52967598D01*
X56009626Y-52961624D01*
X55954265Y-52905875D01*
X55886778Y-52837915D01*
X55886774Y-52837912D01*
X55881815Y-52832918D01*
X55870697Y-52825862D01*
X55822538Y-52795300D01*
X55728666Y-52735727D01*
X55658986Y-52710915D01*
X55564425Y-52677243D01*
X55564420Y-52677242D01*
X55557790Y-52674881D01*
X55550802Y-52674048D01*
X55550799Y-52674047D01*
X55427698Y-52659368D01*
X55377680Y-52653404D01*
X55370677Y-52654140D01*
X55370676Y-52654140D01*
X55204288Y-52671628D01*
X55204286Y-52671629D01*
X55197288Y-52672364D01*
X55025579Y-52730818D01*
X55019575Y-52734512D01*
X54877095Y-52822166D01*
X54877092Y-52822168D01*
X54871088Y-52825862D01*
X54866053Y-52830793D01*
X54866050Y-52830795D01*
X54746525Y-52947843D01*
X54741493Y-52952771D01*
X54643235Y-53105238D01*
X54640826Y-53111858D01*
X54640824Y-53111861D01*
X54583606Y-53269066D01*
X54581197Y-53275685D01*
X54558463Y-53455640D01*
X48768500Y-53455640D01*
X48768500Y-51698134D01*
X49441500Y-51698134D01*
X49448255Y-51760316D01*
X49499385Y-51896705D01*
X49586739Y-52013261D01*
X49703295Y-52100615D01*
X49711704Y-52103767D01*
X49711705Y-52103768D01*
X49820960Y-52144726D01*
X49877725Y-52187367D01*
X49902425Y-52253929D01*
X49887218Y-52323278D01*
X49867825Y-52349759D01*
X49744590Y-52478717D01*
X49738104Y-52486727D01*
X49618098Y-52662649D01*
X49613000Y-52671623D01*
X49523338Y-52864783D01*
X49519775Y-52874470D01*
X49464389Y-53074183D01*
X49465912Y-53082607D01*
X49478292Y-53086000D01*
X52118344Y-53086000D01*
X52131875Y-53082027D01*
X52133180Y-53072947D01*
X52091214Y-52905875D01*
X52087894Y-52896124D01*
X52002972Y-52700814D01*
X51998105Y-52691739D01*
X51882426Y-52512926D01*
X51876136Y-52504757D01*
X51732293Y-52346677D01*
X51701241Y-52282831D01*
X51709635Y-52212333D01*
X51754812Y-52157564D01*
X51781256Y-52143895D01*
X51888297Y-52103767D01*
X51896705Y-52100615D01*
X52013261Y-52013261D01*
X52100615Y-51896705D01*
X52151745Y-51760316D01*
X52158500Y-51698134D01*
X72301500Y-51698134D01*
X72308255Y-51760316D01*
X72359385Y-51896705D01*
X72446739Y-52013261D01*
X72563295Y-52100615D01*
X72571704Y-52103767D01*
X72571705Y-52103768D01*
X72680960Y-52144726D01*
X72737725Y-52187367D01*
X72762425Y-52253929D01*
X72747218Y-52323278D01*
X72727825Y-52349759D01*
X72604590Y-52478717D01*
X72598104Y-52486727D01*
X72478098Y-52662649D01*
X72473000Y-52671623D01*
X72383338Y-52864783D01*
X72379775Y-52874470D01*
X72324389Y-53074183D01*
X72325912Y-53082607D01*
X72338292Y-53086000D01*
X74978344Y-53086000D01*
X74991875Y-53082027D01*
X74993180Y-53072947D01*
X74951214Y-52905875D01*
X74947894Y-52896124D01*
X74862972Y-52700814D01*
X74858105Y-52691739D01*
X74742426Y-52512926D01*
X74736136Y-52504757D01*
X74592293Y-52346677D01*
X74561241Y-52282831D01*
X74569635Y-52212333D01*
X74614812Y-52157564D01*
X74641256Y-52143895D01*
X74748297Y-52103767D01*
X74756705Y-52100615D01*
X74873261Y-52013261D01*
X74960615Y-51896705D01*
X75011745Y-51760316D01*
X75018500Y-51698134D01*
X75018500Y-49901866D01*
X75011745Y-49839684D01*
X74960615Y-49703295D01*
X74873261Y-49586739D01*
X74756705Y-49499385D01*
X74620316Y-49448255D01*
X74558134Y-49441500D01*
X72761866Y-49441500D01*
X72699684Y-49448255D01*
X72563295Y-49499385D01*
X72446739Y-49586739D01*
X72359385Y-49703295D01*
X72308255Y-49839684D01*
X72301500Y-49901866D01*
X72301500Y-51698134D01*
X52158500Y-51698134D01*
X52158500Y-50788640D01*
X59750963Y-50788640D01*
X59768663Y-50969160D01*
X59825918Y-51141273D01*
X59829565Y-51147295D01*
X59829566Y-51147297D01*
X59840478Y-51165314D01*
X59919880Y-51296424D01*
X60045882Y-51426902D01*
X60197659Y-51526222D01*
X60204263Y-51528678D01*
X60204265Y-51528679D01*
X60361058Y-51586990D01*
X60361060Y-51586990D01*
X60367668Y-51589448D01*
X60451495Y-51600633D01*
X60540480Y-51612507D01*
X60540484Y-51612507D01*
X60547461Y-51613438D01*
X60554472Y-51612800D01*
X60554476Y-51612800D01*
X60696959Y-51599832D01*
X60728100Y-51596998D01*
X60734802Y-51594820D01*
X60734804Y-51594820D01*
X60893909Y-51543124D01*
X60893912Y-51543123D01*
X60900608Y-51540947D01*
X61056412Y-51448069D01*
X61187766Y-51322982D01*
X61288143Y-51171902D01*
X61352555Y-51002338D01*
X61353535Y-50995366D01*
X61377248Y-50826639D01*
X61377248Y-50826636D01*
X61377799Y-50822717D01*
X61378116Y-50800000D01*
X61376842Y-50788640D01*
X62305463Y-50788640D01*
X62323163Y-50969160D01*
X62380418Y-51141273D01*
X62384065Y-51147295D01*
X62384066Y-51147297D01*
X62394978Y-51165314D01*
X62474380Y-51296424D01*
X62600382Y-51426902D01*
X62752159Y-51526222D01*
X62758763Y-51528678D01*
X62758765Y-51528679D01*
X62915558Y-51586990D01*
X62915560Y-51586990D01*
X62922168Y-51589448D01*
X63005995Y-51600633D01*
X63094980Y-51612507D01*
X63094984Y-51612507D01*
X63101961Y-51613438D01*
X63108972Y-51612800D01*
X63108976Y-51612800D01*
X63251459Y-51599832D01*
X63282600Y-51596998D01*
X63289302Y-51594820D01*
X63289304Y-51594820D01*
X63448409Y-51543124D01*
X63448412Y-51543123D01*
X63455108Y-51540947D01*
X63610912Y-51448069D01*
X63742266Y-51322982D01*
X63842643Y-51171902D01*
X63907055Y-51002338D01*
X63908035Y-50995366D01*
X63931748Y-50826639D01*
X63931748Y-50826636D01*
X63932299Y-50822717D01*
X63932616Y-50800000D01*
X63912397Y-50619745D01*
X63910080Y-50613091D01*
X63855064Y-50455106D01*
X63855062Y-50455103D01*
X63852745Y-50448448D01*
X63756626Y-50294624D01*
X63742941Y-50280843D01*
X63633778Y-50170915D01*
X63633774Y-50170912D01*
X63628815Y-50165918D01*
X63617697Y-50158862D01*
X63569538Y-50128300D01*
X63475666Y-50068727D01*
X63446463Y-50058328D01*
X63311425Y-50010243D01*
X63311420Y-50010242D01*
X63304790Y-50007881D01*
X63297802Y-50007048D01*
X63297799Y-50007047D01*
X63174698Y-49992368D01*
X63124680Y-49986404D01*
X63117677Y-49987140D01*
X63117676Y-49987140D01*
X62951288Y-50004628D01*
X62951286Y-50004629D01*
X62944288Y-50005364D01*
X62772579Y-50063818D01*
X62766575Y-50067512D01*
X62624095Y-50155166D01*
X62624092Y-50155168D01*
X62618088Y-50158862D01*
X62613053Y-50163793D01*
X62613050Y-50163795D01*
X62493525Y-50280843D01*
X62488493Y-50285771D01*
X62390235Y-50438238D01*
X62387826Y-50444858D01*
X62387824Y-50444861D01*
X62330606Y-50602066D01*
X62328197Y-50608685D01*
X62305463Y-50788640D01*
X61376842Y-50788640D01*
X61357897Y-50619745D01*
X61355580Y-50613091D01*
X61300564Y-50455106D01*
X61300562Y-50455103D01*
X61298245Y-50448448D01*
X61202126Y-50294624D01*
X61188441Y-50280843D01*
X61079278Y-50170915D01*
X61079274Y-50170912D01*
X61074315Y-50165918D01*
X61063197Y-50158862D01*
X61015038Y-50128300D01*
X60921166Y-50068727D01*
X60891963Y-50058328D01*
X60756925Y-50010243D01*
X60756920Y-50010242D01*
X60750290Y-50007881D01*
X60743302Y-50007048D01*
X60743299Y-50007047D01*
X60620198Y-49992368D01*
X60570180Y-49986404D01*
X60563177Y-49987140D01*
X60563176Y-49987140D01*
X60396788Y-50004628D01*
X60396786Y-50004629D01*
X60389788Y-50005364D01*
X60218079Y-50063818D01*
X60212075Y-50067512D01*
X60069595Y-50155166D01*
X60069592Y-50155168D01*
X60063588Y-50158862D01*
X60058553Y-50163793D01*
X60058550Y-50163795D01*
X59939025Y-50280843D01*
X59933993Y-50285771D01*
X59835735Y-50438238D01*
X59833326Y-50444858D01*
X59833324Y-50444861D01*
X59776106Y-50602066D01*
X59773697Y-50608685D01*
X59750963Y-50788640D01*
X52158500Y-50788640D01*
X52158500Y-49901866D01*
X52151745Y-49839684D01*
X52100615Y-49703295D01*
X52013261Y-49586739D01*
X51896705Y-49499385D01*
X51760316Y-49448255D01*
X51698134Y-49441500D01*
X49901866Y-49441500D01*
X49839684Y-49448255D01*
X49703295Y-49499385D01*
X49586739Y-49586739D01*
X49499385Y-49703295D01*
X49448255Y-49839684D01*
X49441500Y-49901866D01*
X49441500Y-51698134D01*
X48768500Y-51698134D01*
X48768500Y-46851640D01*
X60273463Y-46851640D01*
X60291163Y-47032160D01*
X60348418Y-47204273D01*
X60352065Y-47210295D01*
X60352066Y-47210297D01*
X60362978Y-47228314D01*
X60442380Y-47359424D01*
X60568382Y-47489902D01*
X60720159Y-47589222D01*
X60726763Y-47591678D01*
X60726765Y-47591679D01*
X60883558Y-47649990D01*
X60883560Y-47649990D01*
X60890168Y-47652448D01*
X60973995Y-47663633D01*
X61062980Y-47675507D01*
X61062984Y-47675507D01*
X61069961Y-47676438D01*
X61076972Y-47675800D01*
X61076976Y-47675800D01*
X61219459Y-47662832D01*
X61250600Y-47659998D01*
X61257302Y-47657820D01*
X61257304Y-47657820D01*
X61416409Y-47606124D01*
X61416412Y-47606123D01*
X61423108Y-47603947D01*
X61578912Y-47511069D01*
X61710266Y-47385982D01*
X61810643Y-47234902D01*
X61875055Y-47065338D01*
X61876035Y-47058366D01*
X61899748Y-46889639D01*
X61899748Y-46889636D01*
X61900299Y-46885717D01*
X61900616Y-46863000D01*
X61880397Y-46682745D01*
X61878080Y-46676091D01*
X61823064Y-46518106D01*
X61823062Y-46518103D01*
X61820745Y-46511448D01*
X61724626Y-46357624D01*
X61710941Y-46343843D01*
X61601778Y-46233915D01*
X61601774Y-46233912D01*
X61596815Y-46228918D01*
X61585697Y-46221862D01*
X61537538Y-46191300D01*
X61443666Y-46131727D01*
X61414463Y-46121328D01*
X61279425Y-46073243D01*
X61279420Y-46073242D01*
X61272790Y-46070881D01*
X61265802Y-46070048D01*
X61265799Y-46070047D01*
X61142698Y-46055368D01*
X61092680Y-46049404D01*
X61085677Y-46050140D01*
X61085676Y-46050140D01*
X60919288Y-46067628D01*
X60919286Y-46067629D01*
X60912288Y-46068364D01*
X60740579Y-46126818D01*
X60734575Y-46130512D01*
X60592095Y-46218166D01*
X60592092Y-46218168D01*
X60586088Y-46221862D01*
X60581053Y-46226793D01*
X60581050Y-46226795D01*
X60461525Y-46343843D01*
X60456493Y-46348771D01*
X60358235Y-46501238D01*
X60355826Y-46507858D01*
X60355824Y-46507861D01*
X60298606Y-46665066D01*
X60296197Y-46671685D01*
X60273463Y-46851640D01*
X48768500Y-46851640D01*
X48768500Y-43312703D01*
X51230743Y-43312703D01*
X51231302Y-43316947D01*
X51231302Y-43316951D01*
X51239168Y-43376697D01*
X51268268Y-43597734D01*
X51344129Y-43875036D01*
X51345813Y-43878984D01*
X51450628Y-44124717D01*
X51456923Y-44139476D01*
X51501875Y-44214585D01*
X51577138Y-44340340D01*
X51604561Y-44386161D01*
X51784313Y-44610528D01*
X51992851Y-44808423D01*
X52226317Y-44976186D01*
X52230112Y-44978195D01*
X52230113Y-44978196D01*
X52251869Y-44989715D01*
X52480392Y-45110712D01*
X52750373Y-45209511D01*
X53031264Y-45270755D01*
X53059841Y-45273004D01*
X53254282Y-45288307D01*
X53254291Y-45288307D01*
X53256739Y-45288500D01*
X53412271Y-45288500D01*
X53414407Y-45288354D01*
X53414418Y-45288354D01*
X53622548Y-45274165D01*
X53622554Y-45274164D01*
X53626825Y-45273873D01*
X53631020Y-45273004D01*
X53631022Y-45273004D01*
X53767584Y-45244723D01*
X53908342Y-45215574D01*
X54179343Y-45119607D01*
X54434812Y-44987750D01*
X54438313Y-44985289D01*
X54438317Y-44985287D01*
X54552418Y-44905095D01*
X54670023Y-44822441D01*
X54880622Y-44626740D01*
X55062713Y-44404268D01*
X55212927Y-44159142D01*
X55328483Y-43895898D01*
X55407244Y-43619406D01*
X55447751Y-43334784D01*
X55447845Y-43316951D01*
X55448743Y-43145469D01*
X59547095Y-43145469D01*
X59547392Y-43150622D01*
X59547392Y-43150625D01*
X59550951Y-43212345D01*
X59560427Y-43376697D01*
X59561564Y-43381743D01*
X59561565Y-43381749D01*
X59593741Y-43524523D01*
X59611346Y-43602642D01*
X59613288Y-43607424D01*
X59613289Y-43607428D01*
X59618153Y-43619406D01*
X59698484Y-43817237D01*
X59819501Y-44014719D01*
X59971147Y-44189784D01*
X60149349Y-44337730D01*
X60349322Y-44454584D01*
X60565694Y-44537209D01*
X60570760Y-44538240D01*
X60570761Y-44538240D01*
X60623846Y-44549040D01*
X60792656Y-44583385D01*
X60922089Y-44588131D01*
X61018949Y-44591683D01*
X61018953Y-44591683D01*
X61024113Y-44591872D01*
X61029233Y-44591216D01*
X61029235Y-44591216D01*
X61103166Y-44581745D01*
X61253847Y-44562442D01*
X61258795Y-44560957D01*
X61258802Y-44560956D01*
X61470747Y-44497369D01*
X61475690Y-44495886D01*
X61556236Y-44456427D01*
X61679049Y-44396262D01*
X61679052Y-44396260D01*
X61683684Y-44393991D01*
X61872243Y-44259494D01*
X61917309Y-44214585D01*
X61979681Y-44180669D01*
X62050487Y-44185857D01*
X62107249Y-44228503D01*
X62124231Y-44259607D01*
X62149385Y-44326705D01*
X62236739Y-44443261D01*
X62353295Y-44530615D01*
X62489684Y-44581745D01*
X62551866Y-44588500D01*
X64448134Y-44588500D01*
X64510316Y-44581745D01*
X64646705Y-44530615D01*
X64763261Y-44443261D01*
X64850615Y-44326705D01*
X64901745Y-44190316D01*
X64908500Y-44128134D01*
X64908500Y-43312703D01*
X69010743Y-43312703D01*
X69011302Y-43316947D01*
X69011302Y-43316951D01*
X69019168Y-43376697D01*
X69048268Y-43597734D01*
X69124129Y-43875036D01*
X69125813Y-43878984D01*
X69230628Y-44124717D01*
X69236923Y-44139476D01*
X69281875Y-44214585D01*
X69357138Y-44340340D01*
X69384561Y-44386161D01*
X69564313Y-44610528D01*
X69772851Y-44808423D01*
X70006317Y-44976186D01*
X70010112Y-44978195D01*
X70010113Y-44978196D01*
X70031869Y-44989715D01*
X70260392Y-45110712D01*
X70530373Y-45209511D01*
X70811264Y-45270755D01*
X70839841Y-45273004D01*
X71034282Y-45288307D01*
X71034291Y-45288307D01*
X71036739Y-45288500D01*
X71192271Y-45288500D01*
X71194407Y-45288354D01*
X71194418Y-45288354D01*
X71402548Y-45274165D01*
X71402554Y-45274164D01*
X71406825Y-45273873D01*
X71411020Y-45273004D01*
X71411022Y-45273004D01*
X71547584Y-45244723D01*
X71688342Y-45215574D01*
X71959343Y-45119607D01*
X72214812Y-44987750D01*
X72218313Y-44985289D01*
X72218317Y-44985287D01*
X72332418Y-44905095D01*
X72450023Y-44822441D01*
X72660622Y-44626740D01*
X72842713Y-44404268D01*
X72992927Y-44159142D01*
X73108483Y-43895898D01*
X73187244Y-43619406D01*
X73227751Y-43334784D01*
X73227845Y-43316951D01*
X73229235Y-43051583D01*
X73229235Y-43051576D01*
X73229257Y-43047297D01*
X73191732Y-42762266D01*
X73115871Y-42484964D01*
X73052249Y-42335806D01*
X73004763Y-42224476D01*
X73004761Y-42224472D01*
X73003077Y-42220524D01*
X72871285Y-42000315D01*
X72857643Y-41977521D01*
X72857640Y-41977517D01*
X72855439Y-41973839D01*
X72675687Y-41749472D01*
X72467149Y-41551577D01*
X72233683Y-41383814D01*
X72211843Y-41372250D01*
X72180377Y-41355590D01*
X71979608Y-41249288D01*
X71709627Y-41150489D01*
X71428736Y-41089245D01*
X71397685Y-41086801D01*
X71205718Y-41071693D01*
X71205709Y-41071693D01*
X71203261Y-41071500D01*
X71047729Y-41071500D01*
X71045593Y-41071646D01*
X71045582Y-41071646D01*
X70837452Y-41085835D01*
X70837446Y-41085836D01*
X70833175Y-41086127D01*
X70828980Y-41086996D01*
X70828978Y-41086996D01*
X70692417Y-41115276D01*
X70551658Y-41144426D01*
X70280657Y-41240393D01*
X70025188Y-41372250D01*
X70021687Y-41374711D01*
X70021683Y-41374713D01*
X69912105Y-41451726D01*
X69789977Y-41537559D01*
X69774892Y-41551577D01*
X69648456Y-41669069D01*
X69579378Y-41733260D01*
X69397287Y-41955732D01*
X69247073Y-42200858D01*
X69131517Y-42464102D01*
X69052756Y-42740594D01*
X69012249Y-43025216D01*
X69012227Y-43029505D01*
X69012226Y-43029512D01*
X69011263Y-43213421D01*
X69010743Y-43312703D01*
X64908500Y-43312703D01*
X64908500Y-42231866D01*
X64901745Y-42169684D01*
X64850615Y-42033295D01*
X64763261Y-41916739D01*
X64646705Y-41829385D01*
X64510316Y-41778255D01*
X64448134Y-41771500D01*
X62551866Y-41771500D01*
X62489684Y-41778255D01*
X62353295Y-41829385D01*
X62236739Y-41916739D01*
X62149385Y-42033295D01*
X62146233Y-42041703D01*
X62146232Y-42041705D01*
X62125538Y-42096906D01*
X62082897Y-42153671D01*
X62016335Y-42178371D01*
X61946986Y-42163164D01*
X61924167Y-42146666D01*
X61923887Y-42146358D01*
X61791373Y-42041705D01*
X61746177Y-42006011D01*
X61746172Y-42006008D01*
X61742123Y-42002810D01*
X61737607Y-42000317D01*
X61737604Y-42000315D01*
X61543879Y-41893373D01*
X61543875Y-41893371D01*
X61539355Y-41890876D01*
X61534486Y-41889152D01*
X61534482Y-41889150D01*
X61325903Y-41815288D01*
X61325899Y-41815287D01*
X61321028Y-41813562D01*
X61315935Y-41812655D01*
X61315932Y-41812654D01*
X61098095Y-41773851D01*
X61098089Y-41773850D01*
X61093006Y-41772945D01*
X61020096Y-41772054D01*
X60866581Y-41770179D01*
X60866579Y-41770179D01*
X60861411Y-41770116D01*
X60632464Y-41805150D01*
X60412314Y-41877106D01*
X60407726Y-41879494D01*
X60407722Y-41879496D01*
X60226491Y-41973839D01*
X60206872Y-41984052D01*
X60202739Y-41987155D01*
X60202736Y-41987157D01*
X60025790Y-42120012D01*
X60021655Y-42123117D01*
X59861639Y-42290564D01*
X59731119Y-42481899D01*
X59633602Y-42691981D01*
X59571707Y-42915169D01*
X59547095Y-43145469D01*
X55448743Y-43145469D01*
X55449235Y-43051583D01*
X55449235Y-43051576D01*
X55449257Y-43047297D01*
X55411732Y-42762266D01*
X55335871Y-42484964D01*
X55272249Y-42335806D01*
X55224763Y-42224476D01*
X55224761Y-42224472D01*
X55223077Y-42220524D01*
X55091285Y-42000315D01*
X55077643Y-41977521D01*
X55077640Y-41977517D01*
X55075439Y-41973839D01*
X54895687Y-41749472D01*
X54687149Y-41551577D01*
X54453683Y-41383814D01*
X54431843Y-41372250D01*
X54400377Y-41355590D01*
X54199608Y-41249288D01*
X53929627Y-41150489D01*
X53648736Y-41089245D01*
X53617685Y-41086801D01*
X53425718Y-41071693D01*
X53425709Y-41071693D01*
X53423261Y-41071500D01*
X53267729Y-41071500D01*
X53265593Y-41071646D01*
X53265582Y-41071646D01*
X53057452Y-41085835D01*
X53057446Y-41085836D01*
X53053175Y-41086127D01*
X53048980Y-41086996D01*
X53048978Y-41086996D01*
X52912417Y-41115276D01*
X52771658Y-41144426D01*
X52500657Y-41240393D01*
X52245188Y-41372250D01*
X52241687Y-41374711D01*
X52241683Y-41374713D01*
X52132105Y-41451726D01*
X52009977Y-41537559D01*
X51994892Y-41551577D01*
X51868456Y-41669069D01*
X51799378Y-41733260D01*
X51617287Y-41955732D01*
X51467073Y-42200858D01*
X51351517Y-42464102D01*
X51272756Y-42740594D01*
X51232249Y-43025216D01*
X51232227Y-43029505D01*
X51232226Y-43029512D01*
X51231263Y-43213421D01*
X51230743Y-43312703D01*
X48768500Y-43312703D01*
X48768500Y-43233250D01*
X48770246Y-43212345D01*
X48772770Y-43197344D01*
X48772770Y-43197341D01*
X48773576Y-43192552D01*
X48773729Y-43180000D01*
X48773039Y-43175184D01*
X48773039Y-43175178D01*
X48771387Y-43163644D01*
X48770234Y-43140284D01*
X48774480Y-43043049D01*
X48785656Y-42787063D01*
X48786614Y-42776114D01*
X48837233Y-42391621D01*
X48839142Y-42380795D01*
X48923080Y-42002178D01*
X48925925Y-41991561D01*
X48995193Y-41771869D01*
X49042542Y-41621698D01*
X49046298Y-41611377D01*
X49072105Y-41549074D01*
X49194715Y-41253068D01*
X49199357Y-41243115D01*
X49209653Y-41223338D01*
X49320897Y-41009640D01*
X57098463Y-41009640D01*
X57116163Y-41190160D01*
X57173418Y-41362273D01*
X57177065Y-41368295D01*
X57177066Y-41368297D01*
X57187978Y-41386314D01*
X57267380Y-41517424D01*
X57393382Y-41647902D01*
X57399278Y-41651760D01*
X57528895Y-41736579D01*
X57545159Y-41747222D01*
X57551763Y-41749678D01*
X57551765Y-41749679D01*
X57708558Y-41807990D01*
X57708560Y-41807990D01*
X57715168Y-41810448D01*
X57798995Y-41821633D01*
X57887980Y-41833507D01*
X57887984Y-41833507D01*
X57894961Y-41834438D01*
X57901972Y-41833800D01*
X57901976Y-41833800D01*
X58044459Y-41820832D01*
X58075600Y-41817998D01*
X58082302Y-41815820D01*
X58082304Y-41815820D01*
X58241409Y-41764124D01*
X58241412Y-41764123D01*
X58248108Y-41761947D01*
X58403912Y-41669069D01*
X58535266Y-41543982D01*
X58635643Y-41392902D01*
X58689434Y-41251299D01*
X58697555Y-41229920D01*
X58697556Y-41229918D01*
X58700055Y-41223338D01*
X58701035Y-41216366D01*
X58724748Y-41047639D01*
X58724748Y-41047636D01*
X58725299Y-41043717D01*
X58725616Y-41021000D01*
X58724342Y-41009640D01*
X65607463Y-41009640D01*
X65625163Y-41190160D01*
X65682418Y-41362273D01*
X65686065Y-41368295D01*
X65686066Y-41368297D01*
X65696978Y-41386314D01*
X65776380Y-41517424D01*
X65902382Y-41647902D01*
X65908278Y-41651760D01*
X66037895Y-41736579D01*
X66054159Y-41747222D01*
X66060763Y-41749678D01*
X66060765Y-41749679D01*
X66217558Y-41807990D01*
X66217560Y-41807990D01*
X66224168Y-41810448D01*
X66307995Y-41821633D01*
X66396980Y-41833507D01*
X66396984Y-41833507D01*
X66403961Y-41834438D01*
X66410972Y-41833800D01*
X66410976Y-41833800D01*
X66553459Y-41820832D01*
X66584600Y-41817998D01*
X66591302Y-41815820D01*
X66591304Y-41815820D01*
X66750409Y-41764124D01*
X66750412Y-41764123D01*
X66757108Y-41761947D01*
X66912912Y-41669069D01*
X67044266Y-41543982D01*
X67144643Y-41392902D01*
X67198434Y-41251299D01*
X67206555Y-41229920D01*
X67206556Y-41229918D01*
X67209055Y-41223338D01*
X67210035Y-41216366D01*
X67233748Y-41047639D01*
X67233748Y-41047636D01*
X67234299Y-41043717D01*
X67234616Y-41021000D01*
X67214397Y-40840745D01*
X67212080Y-40834091D01*
X67157064Y-40676106D01*
X67157062Y-40676103D01*
X67154745Y-40669448D01*
X67058626Y-40515624D01*
X67044941Y-40501843D01*
X66935778Y-40391915D01*
X66935774Y-40391912D01*
X66930815Y-40386918D01*
X66919697Y-40379862D01*
X66871538Y-40349300D01*
X66777666Y-40289727D01*
X66748463Y-40279328D01*
X66613425Y-40231243D01*
X66613420Y-40231242D01*
X66606790Y-40228881D01*
X66599802Y-40228048D01*
X66599799Y-40228047D01*
X66476698Y-40213368D01*
X66426680Y-40207404D01*
X66419677Y-40208140D01*
X66419676Y-40208140D01*
X66253288Y-40225628D01*
X66253286Y-40225629D01*
X66246288Y-40226364D01*
X66074579Y-40284818D01*
X66068575Y-40288512D01*
X65926095Y-40376166D01*
X65926092Y-40376168D01*
X65920088Y-40379862D01*
X65915053Y-40384793D01*
X65915050Y-40384795D01*
X65795525Y-40501843D01*
X65790493Y-40506771D01*
X65692235Y-40659238D01*
X65689826Y-40665858D01*
X65689824Y-40665861D01*
X65632606Y-40823066D01*
X65630197Y-40829685D01*
X65607463Y-41009640D01*
X58724342Y-41009640D01*
X58705397Y-40840745D01*
X58703080Y-40834091D01*
X58648064Y-40676106D01*
X58648062Y-40676103D01*
X58645745Y-40669448D01*
X58549626Y-40515624D01*
X58535941Y-40501843D01*
X58426778Y-40391915D01*
X58426774Y-40391912D01*
X58421815Y-40386918D01*
X58410697Y-40379862D01*
X58362538Y-40349300D01*
X58268666Y-40289727D01*
X58239463Y-40279328D01*
X58104425Y-40231243D01*
X58104420Y-40231242D01*
X58097790Y-40228881D01*
X58090802Y-40228048D01*
X58090799Y-40228047D01*
X57967698Y-40213368D01*
X57917680Y-40207404D01*
X57910677Y-40208140D01*
X57910676Y-40208140D01*
X57744288Y-40225628D01*
X57744286Y-40225629D01*
X57737288Y-40226364D01*
X57565579Y-40284818D01*
X57559575Y-40288512D01*
X57417095Y-40376166D01*
X57417092Y-40376168D01*
X57411088Y-40379862D01*
X57406053Y-40384793D01*
X57406050Y-40384795D01*
X57286525Y-40501843D01*
X57281493Y-40506771D01*
X57183235Y-40659238D01*
X57180826Y-40665858D01*
X57180824Y-40665861D01*
X57123606Y-40823066D01*
X57121197Y-40829685D01*
X57098463Y-41009640D01*
X49320897Y-41009640D01*
X49378424Y-40899132D01*
X49383919Y-40889613D01*
X49592292Y-40562532D01*
X49598597Y-40553528D01*
X49834678Y-40245862D01*
X49841743Y-40237442D01*
X50103744Y-39951517D01*
X50111517Y-39943744D01*
X50397442Y-39681743D01*
X50405862Y-39674678D01*
X50713528Y-39438597D01*
X50722532Y-39432292D01*
X51049613Y-39223919D01*
X51059133Y-39218423D01*
X51403124Y-39039353D01*
X51413068Y-39034715D01*
X51771385Y-38886295D01*
X51781698Y-38882542D01*
X51981298Y-38819608D01*
X52151561Y-38765925D01*
X52162178Y-38763080D01*
X52540795Y-38679142D01*
X52551621Y-38677233D01*
X52936114Y-38626614D01*
X52947063Y-38625656D01*
X53296554Y-38610397D01*
X53321429Y-38611777D01*
X53333724Y-38613691D01*
X53342626Y-38612527D01*
X53342628Y-38612527D01*
X53361399Y-38610072D01*
X53365286Y-38609564D01*
X53381621Y-38608500D01*
X71070633Y-38608500D01*
X71090018Y-38610000D01*
G37*
%TD.AperFunction*%
%TD*%
M02*
