%TF.GenerationSoftware,KiCad,Pcbnew,(6.0.9-0)*%
%TF.CreationDate,2024-06-20T10:44:06+02:00*%
%TF.ProjectId,follower-board,666f6c6c-6f77-4657-922d-626f6172642e,rev?*%
%TF.SameCoordinates,Original*%
%TF.FileFunction,Copper,L4,Bot*%
%TF.FilePolarity,Positive*%
%FSLAX46Y46*%
G04 Gerber Fmt 4.6, Leading zero omitted, Abs format (unit mm)*
G04 Created by KiCad (PCBNEW (6.0.9-0)) date 2024-06-20 10:44:06*
%MOMM*%
%LPD*%
G01*
G04 APERTURE LIST*
%TA.AperFunction,ComponentPad*%
%ADD10R,1.800000X1.800000*%
%TD*%
%TA.AperFunction,ComponentPad*%
%ADD11C,1.800000*%
%TD*%
%TA.AperFunction,ComponentPad*%
%ADD12C,5.500000*%
%TD*%
%TA.AperFunction,ComponentPad*%
%ADD13R,1.700000X1.700000*%
%TD*%
%TA.AperFunction,ComponentPad*%
%ADD14O,1.700000X1.700000*%
%TD*%
%TA.AperFunction,ViaPad*%
%ADD15C,0.600000*%
%TD*%
%TA.AperFunction,Conductor*%
%ADD16C,0.300000*%
%TD*%
%TA.AperFunction,Conductor*%
%ADD17C,0.500000*%
%TD*%
G04 APERTURE END LIST*
D10*
%TO.P,D3,1,K*%
%TO.N,Net-(D3-Pad1)*%
X63500000Y-43180000D03*
D11*
%TO.P,D3,2,A*%
%TO.N,Net-(D3-Pad2)*%
X60960000Y-43180000D03*
%TD*%
D12*
%TO.P,H3,1,1*%
%TO.N,/GND*%
X71120000Y-83820000D03*
%TD*%
%TO.P,H1,1,1*%
%TO.N,/GND*%
X53340000Y-83820000D03*
%TD*%
D13*
%TO.P,J1,1,Pin_1*%
%TO.N,/+9V*%
X50800000Y-50800000D03*
D14*
%TO.P,J1,2,Pin_2*%
%TO.N,/GND*%
X50800000Y-53340000D03*
%TO.P,J1,3,Pin_3*%
%TO.N,/+4.5V*%
X50800000Y-55880000D03*
%TO.P,J1,4,Pin_4*%
%TO.N,/In*%
X50800000Y-58420000D03*
%TO.P,J1,5,Pin_5*%
%TO.N,/GND*%
X50800000Y-60960000D03*
%TO.P,J1,6,Pin_6*%
%TO.N,/RectifiedOut*%
X50800000Y-63500000D03*
%TO.P,J1,7,Pin_7*%
%TO.N,/FollowerOut*%
X50800000Y-66040000D03*
%TO.P,J1,8,Pin_8*%
%TO.N,/GND*%
X50800000Y-68580000D03*
%TO.P,J1,9,Pin_9*%
%TO.N,/ThreshIn*%
X50800000Y-71120000D03*
%TO.P,J1,10,Pin_10*%
%TO.N,/PeakOut*%
X50800000Y-73660000D03*
%TO.P,J1,11,Pin_11*%
%TO.N,/GND*%
X50800000Y-76200000D03*
%TD*%
D13*
%TO.P,J2,1,Pin_1*%
%TO.N,/+9V*%
X73660000Y-50800000D03*
D14*
%TO.P,J2,2,Pin_2*%
%TO.N,/GND*%
X73660000Y-53340000D03*
%TO.P,J2,3,Pin_3*%
%TO.N,/+4.5V*%
X73660000Y-55880000D03*
%TO.P,J2,4,Pin_4*%
%TO.N,/In*%
X73660000Y-58420000D03*
%TO.P,J2,5,Pin_5*%
%TO.N,/GND*%
X73660000Y-60960000D03*
%TO.P,J2,6,Pin_6*%
%TO.N,/RectifiedOut*%
X73660000Y-63500000D03*
%TO.P,J2,7,Pin_7*%
%TO.N,/FollowerOut*%
X73660000Y-66040000D03*
%TO.P,J2,8,Pin_8*%
%TO.N,/GND*%
X73660000Y-68580000D03*
%TO.P,J2,9,Pin_9*%
%TO.N,/ThreshIn*%
X73660000Y-71120000D03*
%TO.P,J2,10,Pin_10*%
%TO.N,/PeakOut*%
X73660000Y-73660000D03*
%TO.P,J2,11,Pin_11*%
%TO.N,/GND*%
X73660000Y-76200000D03*
%TD*%
D15*
%TO.N,Net-(C2-Pad2)*%
X63119000Y-50800000D03*
X60564500Y-50800000D03*
%TO.N,/+4.5V*%
X62992000Y-66929000D03*
X69215000Y-55626000D03*
X61087000Y-46863000D03*
X68643500Y-75120500D03*
X57912000Y-41021000D03*
X54927500Y-75501500D03*
X69723000Y-64897000D03*
X66421000Y-41021000D03*
X58547000Y-53340000D03*
X68834000Y-67945000D03*
X59412500Y-83970500D03*
%TO.N,/RectifiedOut*%
X59817000Y-63500000D03*
%TO.N,/+9V*%
X55372000Y-53467000D03*
X56007000Y-75819000D03*
X50800000Y-77724000D03*
%TO.N,/GND*%
X69342000Y-74422000D03*
X60325000Y-46355000D03*
X66040000Y-54610000D03*
X63246000Y-76200000D03*
X55372000Y-54266503D03*
X60706000Y-64149500D03*
X59436000Y-82931000D03*
X65405000Y-41021000D03*
X63119000Y-51689000D03*
X62278734Y-54434266D03*
X57404000Y-53594000D03*
X69469000Y-67183000D03*
X70612000Y-73025000D03*
X55880000Y-74803000D03*
X69088000Y-56642000D03*
X61849000Y-66929000D03*
X58928000Y-41021000D03*
X60071000Y-50000500D03*
X68961000Y-64389000D03*
%TO.N,/PeakOut*%
X71486500Y-73279000D03*
%TO.N,Net-(R6-Pad2)*%
X58401219Y-55771781D03*
X62357500Y-55399270D03*
%TD*%
D16*
%TO.N,/In*%
X50800000Y-58420000D02*
X73660000Y-58420000D01*
%TO.N,Net-(C2-Pad2)*%
X60564500Y-50800000D02*
X63119000Y-50800000D01*
%TO.N,/RectifiedOut*%
X73660000Y-63500000D02*
X59817000Y-63500000D01*
X59817000Y-63500000D02*
X50800000Y-63500000D01*
D17*
%TO.N,/+9V*%
X50800000Y-50800000D02*
X53467000Y-53467000D01*
X50800000Y-77724000D02*
X54102000Y-77724000D01*
X54102000Y-77724000D02*
X56007000Y-75819000D01*
X55372000Y-53467000D02*
X53467000Y-53467000D01*
D16*
%TO.N,/PeakOut*%
X71090500Y-73675000D02*
X50815000Y-73675000D01*
X71867500Y-73660000D02*
X71486500Y-73279000D01*
X73660000Y-73660000D02*
X71867500Y-73660000D01*
X50815000Y-73675000D02*
X50800000Y-73660000D01*
X71486500Y-73279000D02*
X71090500Y-73675000D01*
%TO.N,/FollowerOut*%
X50800000Y-66040000D02*
X73660000Y-66040000D01*
%TO.N,/ThreshIn*%
X50800000Y-71120000D02*
X73660000Y-71120000D01*
%TO.N,Net-(R6-Pad2)*%
X58773730Y-55399270D02*
X62357500Y-55399270D01*
X58401219Y-55771781D02*
X58773730Y-55399270D01*
%TD*%
%TA.AperFunction,Conductor*%
%TO.N,/+4.5V*%
G36*
X71107103Y-38356921D02*
G01*
X71120000Y-38359486D01*
X71132170Y-38357065D01*
X71142599Y-38357065D01*
X71155735Y-38356060D01*
X71478600Y-38370156D01*
X71535075Y-38372622D01*
X71546023Y-38373580D01*
X71952496Y-38427093D01*
X71963301Y-38428999D01*
X72363566Y-38517736D01*
X72374176Y-38520579D01*
X72765175Y-38643860D01*
X72775488Y-38647613D01*
X73154277Y-38804513D01*
X73164221Y-38809151D01*
X73466931Y-38966731D01*
X73527867Y-38998452D01*
X73537387Y-39003948D01*
X73883148Y-39224223D01*
X73892152Y-39230527D01*
X74217413Y-39480108D01*
X74225830Y-39487172D01*
X74309622Y-39563952D01*
X74528088Y-39764139D01*
X74535857Y-39771908D01*
X74812826Y-40074167D01*
X74819892Y-40082587D01*
X75069473Y-40407848D01*
X75075777Y-40416852D01*
X75155297Y-40541673D01*
X75278338Y-40734807D01*
X75296052Y-40762613D01*
X75301547Y-40772132D01*
X75431100Y-41021000D01*
X75490845Y-41135770D01*
X75495487Y-41145723D01*
X75644452Y-41505355D01*
X75652384Y-41524504D01*
X75656140Y-41534825D01*
X75723994Y-41750030D01*
X75779421Y-41925823D01*
X75782264Y-41936434D01*
X75871001Y-42336699D01*
X75872907Y-42347504D01*
X75882635Y-42421397D01*
X75926420Y-42753976D01*
X75927378Y-42764926D01*
X75943940Y-43144265D01*
X75942935Y-43157401D01*
X75942935Y-43167830D01*
X75940514Y-43180000D01*
X75942935Y-43192170D01*
X75943079Y-43192894D01*
X75945500Y-43217476D01*
X75945500Y-83782524D01*
X75943079Y-83807103D01*
X75940514Y-83820000D01*
X75942935Y-83832170D01*
X75942935Y-83842599D01*
X75943940Y-83855735D01*
X75927378Y-84235074D01*
X75926420Y-84246023D01*
X75912343Y-84352953D01*
X75872908Y-84652488D01*
X75871001Y-84663301D01*
X75792975Y-85015253D01*
X75782266Y-85063560D01*
X75779421Y-85074176D01*
X75700402Y-85324796D01*
X75656143Y-85465167D01*
X75652387Y-85475488D01*
X75572921Y-85667337D01*
X75495491Y-85854268D01*
X75490849Y-85864221D01*
X75438556Y-85964676D01*
X75301548Y-86227867D01*
X75296052Y-86237387D01*
X75075777Y-86583148D01*
X75069473Y-86592152D01*
X74819892Y-86917413D01*
X74812828Y-86925830D01*
X74653856Y-87099319D01*
X74535861Y-87228088D01*
X74528092Y-87235857D01*
X74225833Y-87512826D01*
X74217413Y-87519892D01*
X73892152Y-87769473D01*
X73883148Y-87775777D01*
X73537387Y-87996052D01*
X73527868Y-88001547D01*
X73164221Y-88190849D01*
X73154277Y-88195487D01*
X72775488Y-88352387D01*
X72765175Y-88356140D01*
X72374177Y-88479421D01*
X72363566Y-88482264D01*
X71963301Y-88571001D01*
X71952496Y-88572907D01*
X71546024Y-88626420D01*
X71535075Y-88627378D01*
X71478600Y-88629844D01*
X71155735Y-88643940D01*
X71142599Y-88642935D01*
X71132170Y-88642935D01*
X71120000Y-88640514D01*
X71107103Y-88643079D01*
X71082524Y-88645500D01*
X53377476Y-88645500D01*
X53352897Y-88643079D01*
X53340000Y-88640514D01*
X53327830Y-88642935D01*
X53317401Y-88642935D01*
X53304265Y-88643940D01*
X52981400Y-88629844D01*
X52924925Y-88627378D01*
X52913976Y-88626420D01*
X52507504Y-88572907D01*
X52496699Y-88571001D01*
X52096434Y-88482264D01*
X52085823Y-88479421D01*
X51694825Y-88356140D01*
X51684512Y-88352387D01*
X51305723Y-88195487D01*
X51295779Y-88190849D01*
X50932132Y-88001547D01*
X50922613Y-87996052D01*
X50576852Y-87775777D01*
X50567848Y-87769473D01*
X50242587Y-87519892D01*
X50234167Y-87512826D01*
X49931908Y-87235857D01*
X49924139Y-87228088D01*
X49806145Y-87099319D01*
X49647172Y-86925830D01*
X49640108Y-86917413D01*
X49390527Y-86592152D01*
X49384223Y-86583148D01*
X49163948Y-86237387D01*
X49158452Y-86227867D01*
X49021444Y-85964676D01*
X48969151Y-85864221D01*
X48964509Y-85854268D01*
X48887080Y-85667337D01*
X48807613Y-85475488D01*
X48803857Y-85465167D01*
X48759599Y-85324796D01*
X48680579Y-85074176D01*
X48677734Y-85063560D01*
X48667025Y-85015253D01*
X48588999Y-84663301D01*
X48587092Y-84652488D01*
X48547658Y-84352953D01*
X48533580Y-84246023D01*
X48532622Y-84235074D01*
X48516060Y-83855735D01*
X48517065Y-83842599D01*
X48517065Y-83832170D01*
X48519486Y-83820000D01*
X48516921Y-83807103D01*
X48514500Y-83782524D01*
X48514500Y-83725466D01*
X50331893Y-83725466D01*
X50340963Y-84071836D01*
X50389784Y-84414868D01*
X50477708Y-84750015D01*
X50603570Y-85072835D01*
X50605274Y-85076053D01*
X50735264Y-85321560D01*
X50765703Y-85379050D01*
X50767755Y-85382035D01*
X50767760Y-85382044D01*
X50959899Y-85661608D01*
X50959905Y-85661615D01*
X50961956Y-85664600D01*
X51189729Y-85925701D01*
X51446002Y-86158892D01*
X51448960Y-86161017D01*
X51448963Y-86161020D01*
X51548786Y-86232750D01*
X51727380Y-86361083D01*
X52030132Y-86529592D01*
X52350246Y-86662188D01*
X52353740Y-86663183D01*
X52353742Y-86663184D01*
X52679977Y-86756114D01*
X52679982Y-86756115D01*
X52683478Y-86757111D01*
X52918649Y-86795622D01*
X53021832Y-86812519D01*
X53021836Y-86812519D01*
X53025412Y-86813105D01*
X53029038Y-86813276D01*
X53367889Y-86829256D01*
X53367890Y-86829256D01*
X53371516Y-86829427D01*
X53378128Y-86828976D01*
X53713570Y-86806108D01*
X53713577Y-86806107D01*
X53717202Y-86805860D01*
X53720778Y-86805197D01*
X53720780Y-86805197D01*
X54054323Y-86743379D01*
X54054327Y-86743378D01*
X54057888Y-86742718D01*
X54389060Y-86640836D01*
X54706326Y-86501566D01*
X55005483Y-86326753D01*
X55130683Y-86232750D01*
X55279657Y-86120897D01*
X55279661Y-86120894D01*
X55282564Y-86118714D01*
X55533898Y-85880207D01*
X55756153Y-85614394D01*
X55847392Y-85475496D01*
X55944396Y-85327822D01*
X55944401Y-85327813D01*
X55946383Y-85324796D01*
X56071488Y-85076053D01*
X56100440Y-85018489D01*
X56100443Y-85018481D01*
X56102067Y-85015253D01*
X56103312Y-85011851D01*
X56219893Y-84693279D01*
X56219894Y-84693275D01*
X56221141Y-84689868D01*
X56221986Y-84686346D01*
X56221989Y-84686338D01*
X56301180Y-84356482D01*
X56301181Y-84356478D01*
X56302027Y-84352953D01*
X56316292Y-84235074D01*
X56343317Y-84011753D01*
X56343318Y-84011746D01*
X56343653Y-84008974D01*
X56349592Y-83820000D01*
X56349431Y-83817204D01*
X56344142Y-83725466D01*
X68111893Y-83725466D01*
X68120963Y-84071836D01*
X68169784Y-84414868D01*
X68257708Y-84750015D01*
X68383570Y-85072835D01*
X68385274Y-85076053D01*
X68515264Y-85321560D01*
X68545703Y-85379050D01*
X68547755Y-85382035D01*
X68547760Y-85382044D01*
X68739899Y-85661608D01*
X68739905Y-85661615D01*
X68741956Y-85664600D01*
X68969729Y-85925701D01*
X69226002Y-86158892D01*
X69228960Y-86161017D01*
X69228963Y-86161020D01*
X69328786Y-86232750D01*
X69507380Y-86361083D01*
X69810132Y-86529592D01*
X70130246Y-86662188D01*
X70133740Y-86663183D01*
X70133742Y-86663184D01*
X70459977Y-86756114D01*
X70459982Y-86756115D01*
X70463478Y-86757111D01*
X70698649Y-86795622D01*
X70801832Y-86812519D01*
X70801836Y-86812519D01*
X70805412Y-86813105D01*
X70809038Y-86813276D01*
X71147889Y-86829256D01*
X71147890Y-86829256D01*
X71151516Y-86829427D01*
X71158128Y-86828976D01*
X71493570Y-86806108D01*
X71493577Y-86806107D01*
X71497202Y-86805860D01*
X71500778Y-86805197D01*
X71500780Y-86805197D01*
X71834323Y-86743379D01*
X71834327Y-86743378D01*
X71837888Y-86742718D01*
X72169060Y-86640836D01*
X72486326Y-86501566D01*
X72785483Y-86326753D01*
X72910683Y-86232750D01*
X73059657Y-86120897D01*
X73059661Y-86120894D01*
X73062564Y-86118714D01*
X73313898Y-85880207D01*
X73536153Y-85614394D01*
X73627392Y-85475496D01*
X73724396Y-85327822D01*
X73724401Y-85327813D01*
X73726383Y-85324796D01*
X73851488Y-85076053D01*
X73880440Y-85018489D01*
X73880443Y-85018481D01*
X73882067Y-85015253D01*
X73883312Y-85011851D01*
X73999893Y-84693279D01*
X73999894Y-84693275D01*
X74001141Y-84689868D01*
X74001986Y-84686346D01*
X74001989Y-84686338D01*
X74081180Y-84356482D01*
X74081181Y-84356478D01*
X74082027Y-84352953D01*
X74096292Y-84235074D01*
X74123317Y-84011753D01*
X74123318Y-84011746D01*
X74123653Y-84008974D01*
X74129592Y-83820000D01*
X74129431Y-83817204D01*
X74109856Y-83477706D01*
X74109855Y-83477701D01*
X74109647Y-83474086D01*
X74064812Y-83217193D01*
X74050699Y-83136330D01*
X74050697Y-83136323D01*
X74050075Y-83132757D01*
X73951667Y-82800537D01*
X73949063Y-82794432D01*
X73817151Y-82485168D01*
X73817149Y-82485165D01*
X73815727Y-82481830D01*
X73793856Y-82443485D01*
X73645847Y-82183999D01*
X73644056Y-82180859D01*
X73588683Y-82105477D01*
X73441070Y-81904527D01*
X73441068Y-81904525D01*
X73438930Y-81901614D01*
X73203069Y-81647796D01*
X73200309Y-81645439D01*
X73200303Y-81645433D01*
X72942353Y-81425124D01*
X72939597Y-81422770D01*
X72652007Y-81229518D01*
X72648798Y-81227862D01*
X72648790Y-81227857D01*
X72347331Y-81072263D01*
X72344111Y-81070601D01*
X72340730Y-81069323D01*
X72340720Y-81069319D01*
X72023389Y-80949410D01*
X72019991Y-80948126D01*
X71683941Y-80863716D01*
X71539050Y-80844641D01*
X71344021Y-80818964D01*
X71344013Y-80818963D01*
X71340417Y-80818490D01*
X71197229Y-80816241D01*
X70997613Y-80813105D01*
X70997609Y-80813105D01*
X70993971Y-80813048D01*
X70990357Y-80813409D01*
X70990351Y-80813409D01*
X70747044Y-80837695D01*
X70649196Y-80847461D01*
X70529304Y-80873602D01*
X70314205Y-80920501D01*
X70314200Y-80920502D01*
X70310661Y-80921274D01*
X69982853Y-81033507D01*
X69670118Y-81182674D01*
X69376600Y-81366798D01*
X69373766Y-81369068D01*
X69373761Y-81369072D01*
X69309254Y-81420752D01*
X69106190Y-81583437D01*
X68862472Y-81829721D01*
X68648676Y-82102385D01*
X68646783Y-82105474D01*
X68646781Y-82105477D01*
X68470016Y-82393932D01*
X68467636Y-82397815D01*
X68466117Y-82401087D01*
X68466114Y-82401093D01*
X68427088Y-82485168D01*
X68321752Y-82712095D01*
X68320612Y-82715542D01*
X68292503Y-82800537D01*
X68212957Y-83041060D01*
X68212221Y-83044615D01*
X68212220Y-83044618D01*
X68143429Y-83376800D01*
X68142694Y-83380350D01*
X68111893Y-83725466D01*
X56344142Y-83725466D01*
X56329856Y-83477706D01*
X56329855Y-83477701D01*
X56329647Y-83474086D01*
X56284812Y-83217193D01*
X56270699Y-83136330D01*
X56270697Y-83136323D01*
X56270075Y-83132757D01*
X56210312Y-82931000D01*
X58876715Y-82931000D01*
X58877793Y-82939188D01*
X58891205Y-83041060D01*
X58895772Y-83075754D01*
X58951645Y-83210642D01*
X59040526Y-83326474D01*
X59047076Y-83331500D01*
X59047079Y-83331503D01*
X59149804Y-83410327D01*
X59156357Y-83415355D01*
X59291246Y-83471228D01*
X59436000Y-83490285D01*
X59444188Y-83489207D01*
X59572566Y-83472306D01*
X59580754Y-83471228D01*
X59715643Y-83415355D01*
X59722196Y-83410327D01*
X59824921Y-83331503D01*
X59824924Y-83331500D01*
X59831474Y-83326474D01*
X59920355Y-83210642D01*
X59976228Y-83075754D01*
X59980796Y-83041060D01*
X59994207Y-82939188D01*
X59995285Y-82931000D01*
X59992159Y-82907255D01*
X59977306Y-82794432D01*
X59977305Y-82794430D01*
X59976228Y-82786246D01*
X59920355Y-82651358D01*
X59831474Y-82535526D01*
X59824924Y-82530500D01*
X59824921Y-82530497D01*
X59722196Y-82451673D01*
X59722194Y-82451672D01*
X59715643Y-82446645D01*
X59580754Y-82390772D01*
X59436000Y-82371715D01*
X59427812Y-82372793D01*
X59299432Y-82389694D01*
X59299430Y-82389695D01*
X59291246Y-82390772D01*
X59281686Y-82394732D01*
X59163986Y-82443485D01*
X59163984Y-82443486D01*
X59156358Y-82446645D01*
X59040526Y-82535526D01*
X58951645Y-82651358D01*
X58895772Y-82786246D01*
X58894695Y-82794430D01*
X58894694Y-82794432D01*
X58879841Y-82907255D01*
X58876715Y-82931000D01*
X56210312Y-82931000D01*
X56171667Y-82800537D01*
X56169063Y-82794432D01*
X56037151Y-82485168D01*
X56037149Y-82485165D01*
X56035727Y-82481830D01*
X56013856Y-82443485D01*
X55865847Y-82183999D01*
X55864056Y-82180859D01*
X55808683Y-82105477D01*
X55661070Y-81904527D01*
X55661068Y-81904525D01*
X55658930Y-81901614D01*
X55423069Y-81647796D01*
X55420309Y-81645439D01*
X55420303Y-81645433D01*
X55162353Y-81425124D01*
X55159597Y-81422770D01*
X54872007Y-81229518D01*
X54868798Y-81227862D01*
X54868790Y-81227857D01*
X54567331Y-81072263D01*
X54564111Y-81070601D01*
X54560730Y-81069323D01*
X54560720Y-81069319D01*
X54243389Y-80949410D01*
X54239991Y-80948126D01*
X53903941Y-80863716D01*
X53759050Y-80844641D01*
X53564021Y-80818964D01*
X53564013Y-80818963D01*
X53560417Y-80818490D01*
X53417229Y-80816241D01*
X53217613Y-80813105D01*
X53217609Y-80813105D01*
X53213971Y-80813048D01*
X53210357Y-80813409D01*
X53210351Y-80813409D01*
X52967044Y-80837695D01*
X52869196Y-80847461D01*
X52749304Y-80873602D01*
X52534205Y-80920501D01*
X52534200Y-80920502D01*
X52530661Y-80921274D01*
X52202853Y-81033507D01*
X51890118Y-81182674D01*
X51596600Y-81366798D01*
X51593766Y-81369068D01*
X51593761Y-81369072D01*
X51529254Y-81420752D01*
X51326190Y-81583437D01*
X51082472Y-81829721D01*
X50868676Y-82102385D01*
X50866783Y-82105474D01*
X50866781Y-82105477D01*
X50690016Y-82393932D01*
X50687636Y-82397815D01*
X50686117Y-82401087D01*
X50686114Y-82401093D01*
X50647088Y-82485168D01*
X50541752Y-82712095D01*
X50540612Y-82715542D01*
X50512503Y-82800537D01*
X50432957Y-83041060D01*
X50432221Y-83044615D01*
X50432220Y-83044618D01*
X50363429Y-83376800D01*
X50362694Y-83380350D01*
X50331893Y-83725466D01*
X48514500Y-83725466D01*
X48514500Y-76170964D01*
X49691148Y-76170964D01*
X49704424Y-76373522D01*
X49705845Y-76379118D01*
X49705846Y-76379123D01*
X49726119Y-76458945D01*
X49754392Y-76570269D01*
X49756809Y-76575512D01*
X49794010Y-76656208D01*
X49839377Y-76754616D01*
X49956533Y-76920389D01*
X50101938Y-77062035D01*
X50270720Y-77174812D01*
X50276022Y-77177090D01*
X50276035Y-77177097D01*
X50311212Y-77192210D01*
X50365905Y-77237478D01*
X50387442Y-77305129D01*
X50368985Y-77373685D01*
X50361436Y-77384681D01*
X50320675Y-77437802D01*
X50320673Y-77437805D01*
X50315645Y-77444358D01*
X50259772Y-77579246D01*
X50240715Y-77724000D01*
X50259772Y-77868754D01*
X50315645Y-78003642D01*
X50404526Y-78119474D01*
X50411076Y-78124500D01*
X50411079Y-78124503D01*
X50479596Y-78177078D01*
X50520357Y-78208355D01*
X50655246Y-78264228D01*
X50800000Y-78283285D01*
X50808188Y-78282207D01*
X50936566Y-78265306D01*
X50944754Y-78264228D01*
X51007855Y-78238091D01*
X51056072Y-78228500D01*
X54031376Y-78228500D01*
X54043381Y-78229841D01*
X54043421Y-78229345D01*
X54052368Y-78230065D01*
X54061124Y-78232046D01*
X54114382Y-78228742D01*
X54122184Y-78228500D01*
X54138226Y-78228500D01*
X54142657Y-78227865D01*
X54142662Y-78227865D01*
X54146687Y-78227288D01*
X54148457Y-78227035D01*
X54158514Y-78226004D01*
X54180976Y-78224611D01*
X54196400Y-78223654D01*
X54196402Y-78223654D01*
X54205359Y-78223098D01*
X54213799Y-78220051D01*
X54217089Y-78219370D01*
X54232938Y-78215418D01*
X54236168Y-78214473D01*
X54245052Y-78213201D01*
X54253223Y-78209486D01*
X54287763Y-78193782D01*
X54297128Y-78189970D01*
X54332837Y-78177078D01*
X54332840Y-78177076D01*
X54341284Y-78174028D01*
X54348533Y-78168732D01*
X54351490Y-78167160D01*
X54365614Y-78158907D01*
X54368437Y-78157102D01*
X54376605Y-78153388D01*
X54383402Y-78147531D01*
X54383404Y-78147530D01*
X54412153Y-78122757D01*
X54420064Y-78116475D01*
X54430944Y-78108527D01*
X54441806Y-78097665D01*
X54448653Y-78091307D01*
X54479282Y-78064915D01*
X54486082Y-78059056D01*
X54490966Y-78051521D01*
X54496699Y-78044949D01*
X54505926Y-78033545D01*
X56182664Y-76356807D01*
X56223540Y-76329493D01*
X56286643Y-76303355D01*
X56293196Y-76298327D01*
X56395921Y-76219503D01*
X56395924Y-76219500D01*
X56402474Y-76214474D01*
X56413580Y-76200000D01*
X62686715Y-76200000D01*
X62687793Y-76208188D01*
X62700738Y-76306514D01*
X62705772Y-76344754D01*
X62761645Y-76479642D01*
X62766672Y-76486193D01*
X62835209Y-76575512D01*
X62850526Y-76595474D01*
X62857076Y-76600500D01*
X62857079Y-76600503D01*
X62915972Y-76645693D01*
X62966357Y-76684355D01*
X63101246Y-76740228D01*
X63246000Y-76759285D01*
X63254188Y-76758207D01*
X63382566Y-76741306D01*
X63390754Y-76740228D01*
X63525643Y-76684355D01*
X63576028Y-76645693D01*
X63634921Y-76600503D01*
X63634924Y-76600500D01*
X63641474Y-76595474D01*
X63656792Y-76575512D01*
X63725328Y-76486193D01*
X63730355Y-76479642D01*
X63786228Y-76344754D01*
X63791263Y-76306514D01*
X63804207Y-76208188D01*
X63805285Y-76200000D01*
X63801462Y-76170964D01*
X72551148Y-76170964D01*
X72564424Y-76373522D01*
X72565845Y-76379118D01*
X72565846Y-76379123D01*
X72586119Y-76458945D01*
X72614392Y-76570269D01*
X72616809Y-76575512D01*
X72654010Y-76656208D01*
X72699377Y-76754616D01*
X72816533Y-76920389D01*
X72961938Y-77062035D01*
X73130720Y-77174812D01*
X73136023Y-77177090D01*
X73136026Y-77177092D01*
X73224707Y-77215192D01*
X73317228Y-77254942D01*
X73390244Y-77271464D01*
X73509579Y-77298467D01*
X73509584Y-77298468D01*
X73515216Y-77299742D01*
X73520987Y-77299969D01*
X73520989Y-77299969D01*
X73580756Y-77302317D01*
X73718053Y-77307712D01*
X73818499Y-77293148D01*
X73913231Y-77279413D01*
X73913236Y-77279412D01*
X73918945Y-77278584D01*
X73924409Y-77276729D01*
X73924414Y-77276728D01*
X74105693Y-77215192D01*
X74105698Y-77215190D01*
X74111165Y-77213334D01*
X74288276Y-77114147D01*
X74350934Y-77062035D01*
X74439913Y-76988031D01*
X74444345Y-76984345D01*
X74574147Y-76828276D01*
X74673334Y-76651165D01*
X74675190Y-76645698D01*
X74675192Y-76645693D01*
X74736728Y-76464414D01*
X74736729Y-76464409D01*
X74738584Y-76458945D01*
X74739412Y-76453236D01*
X74739413Y-76453231D01*
X74760685Y-76306514D01*
X74767712Y-76258053D01*
X74769232Y-76200000D01*
X74750658Y-75997859D01*
X74749090Y-75992299D01*
X74697125Y-75808046D01*
X74697124Y-75808044D01*
X74695557Y-75802487D01*
X74684978Y-75781033D01*
X74608331Y-75625609D01*
X74605776Y-75620428D01*
X74484320Y-75457779D01*
X74335258Y-75319987D01*
X74330375Y-75316906D01*
X74330371Y-75316903D01*
X74168464Y-75214748D01*
X74163581Y-75211667D01*
X73975039Y-75136446D01*
X73969379Y-75135320D01*
X73969375Y-75135319D01*
X73781613Y-75097971D01*
X73781610Y-75097971D01*
X73775946Y-75096844D01*
X73770171Y-75096768D01*
X73770167Y-75096768D01*
X73668793Y-75095441D01*
X73572971Y-75094187D01*
X73567274Y-75095166D01*
X73567273Y-75095166D01*
X73378607Y-75127585D01*
X73372910Y-75128564D01*
X73182463Y-75198824D01*
X73008010Y-75302612D01*
X73003670Y-75306418D01*
X73003666Y-75306421D01*
X72875869Y-75418497D01*
X72855392Y-75436455D01*
X72729720Y-75595869D01*
X72727031Y-75600980D01*
X72727029Y-75600983D01*
X72714073Y-75625609D01*
X72635203Y-75775515D01*
X72575007Y-75969378D01*
X72551148Y-76170964D01*
X63801462Y-76170964D01*
X63786228Y-76055246D01*
X63748375Y-75963861D01*
X63733515Y-75927986D01*
X63733514Y-75927984D01*
X63730355Y-75920358D01*
X63641474Y-75804526D01*
X63634924Y-75799500D01*
X63634921Y-75799497D01*
X63532196Y-75720673D01*
X63532194Y-75720672D01*
X63525643Y-75715645D01*
X63408779Y-75667238D01*
X63398383Y-75662932D01*
X63390754Y-75659772D01*
X63246000Y-75640715D01*
X63237812Y-75641793D01*
X63109432Y-75658694D01*
X63109430Y-75658695D01*
X63101246Y-75659772D01*
X63084714Y-75666620D01*
X62973986Y-75712485D01*
X62973984Y-75712486D01*
X62966358Y-75715645D01*
X62850526Y-75804526D01*
X62761645Y-75920358D01*
X62758486Y-75927984D01*
X62758485Y-75927986D01*
X62743625Y-75963861D01*
X62705772Y-76055246D01*
X62686715Y-76200000D01*
X56413580Y-76200000D01*
X56491355Y-76098642D01*
X56509331Y-76055246D01*
X56544069Y-75971380D01*
X56547228Y-75963754D01*
X56566285Y-75819000D01*
X56547228Y-75674246D01*
X56491355Y-75539358D01*
X56417551Y-75443175D01*
X56407501Y-75430077D01*
X56407500Y-75430076D01*
X56402474Y-75423526D01*
X56395924Y-75418500D01*
X56395921Y-75418497D01*
X56313810Y-75355491D01*
X56271943Y-75298153D01*
X56267721Y-75227282D01*
X56290552Y-75178825D01*
X56359325Y-75089198D01*
X56359328Y-75089193D01*
X56364355Y-75082642D01*
X56420228Y-74947754D01*
X56439285Y-74803000D01*
X56422459Y-74675192D01*
X56421306Y-74666432D01*
X56421305Y-74666430D01*
X56420228Y-74658246D01*
X56383863Y-74570453D01*
X56367515Y-74530986D01*
X56367514Y-74530984D01*
X56364355Y-74523358D01*
X56303726Y-74444345D01*
X56280501Y-74414077D01*
X56280500Y-74414076D01*
X56275474Y-74407526D01*
X56268924Y-74402500D01*
X56268921Y-74402497D01*
X56166193Y-74323671D01*
X56159643Y-74318645D01*
X56152016Y-74315486D01*
X56150513Y-74314618D01*
X56101520Y-74263235D01*
X56088085Y-74193521D01*
X56114472Y-74127611D01*
X56172305Y-74086429D01*
X56213514Y-74079500D01*
X68695108Y-74079500D01*
X68763229Y-74099502D01*
X68809722Y-74153158D01*
X68819826Y-74223432D01*
X68811517Y-74253717D01*
X68804933Y-74269614D01*
X68801772Y-74277246D01*
X68800695Y-74285430D01*
X68800694Y-74285432D01*
X68788193Y-74380389D01*
X68782715Y-74422000D01*
X68783793Y-74430188D01*
X68795885Y-74522035D01*
X68801772Y-74566754D01*
X68821578Y-74614570D01*
X68844750Y-74670510D01*
X68857645Y-74701642D01*
X68946526Y-74817474D01*
X68953076Y-74822500D01*
X68953079Y-74822503D01*
X69055804Y-74901327D01*
X69062357Y-74906355D01*
X69142540Y-74939568D01*
X69180714Y-74955380D01*
X69197246Y-74962228D01*
X69342000Y-74981285D01*
X69350188Y-74980207D01*
X69478566Y-74963306D01*
X69486754Y-74962228D01*
X69503287Y-74955380D01*
X69541460Y-74939568D01*
X69621643Y-74906355D01*
X69628196Y-74901327D01*
X69730921Y-74822503D01*
X69730924Y-74822500D01*
X69737474Y-74817474D01*
X69826355Y-74701642D01*
X69839251Y-74670510D01*
X69862422Y-74614570D01*
X69882228Y-74566754D01*
X69888116Y-74522035D01*
X69900207Y-74430188D01*
X69901285Y-74422000D01*
X69895807Y-74380389D01*
X69883306Y-74285432D01*
X69883305Y-74285430D01*
X69882228Y-74277246D01*
X69879067Y-74269614D01*
X69872483Y-74253717D01*
X69864894Y-74183127D01*
X69896674Y-74119641D01*
X69957732Y-74083414D01*
X69988892Y-74079500D01*
X71154566Y-74079500D01*
X71163998Y-74076435D01*
X71164000Y-74076435D01*
X71175787Y-74072605D01*
X71195013Y-74067989D01*
X71207262Y-74066049D01*
X71217055Y-74064498D01*
X71236939Y-74054366D01*
X71255205Y-74046801D01*
X71266996Y-74042970D01*
X71276429Y-74039905D01*
X71294489Y-74026784D01*
X71311346Y-74016454D01*
X71331223Y-74006326D01*
X71354001Y-73983548D01*
X71354030Y-73983521D01*
X71397406Y-73940145D01*
X71459718Y-73906119D01*
X71530533Y-73911184D01*
X71575596Y-73940145D01*
X71626777Y-73991326D01*
X71646664Y-74001459D01*
X71663522Y-74011791D01*
X71681571Y-74024904D01*
X71691006Y-74027969D01*
X71691007Y-74027970D01*
X71702796Y-74031801D01*
X71721060Y-74039366D01*
X71740945Y-74049498D01*
X71762469Y-74052907D01*
X71762993Y-74052990D01*
X71782218Y-74057606D01*
X71789578Y-74059997D01*
X71803434Y-74064499D01*
X71835662Y-74064499D01*
X71835666Y-74064500D01*
X72549515Y-74064500D01*
X72617636Y-74084502D01*
X72663941Y-74137749D01*
X72699377Y-74214616D01*
X72816533Y-74380389D01*
X72961938Y-74522035D01*
X73130720Y-74634812D01*
X73136023Y-74637090D01*
X73136026Y-74637092D01*
X73286271Y-74701642D01*
X73317228Y-74714942D01*
X73390244Y-74731464D01*
X73509579Y-74758467D01*
X73509584Y-74758468D01*
X73515216Y-74759742D01*
X73520987Y-74759969D01*
X73520989Y-74759969D01*
X73580756Y-74762317D01*
X73718053Y-74767712D01*
X73818499Y-74753148D01*
X73913231Y-74739413D01*
X73913236Y-74739412D01*
X73918945Y-74738584D01*
X73924409Y-74736729D01*
X73924414Y-74736728D01*
X74105693Y-74675192D01*
X74105698Y-74675190D01*
X74111165Y-74673334D01*
X74123490Y-74666432D01*
X74185683Y-74631602D01*
X74288276Y-74574147D01*
X74297166Y-74566754D01*
X74439913Y-74448031D01*
X74444345Y-74444345D01*
X74544710Y-74323670D01*
X74570453Y-74292718D01*
X74570455Y-74292715D01*
X74574147Y-74288276D01*
X74649817Y-74153158D01*
X74670510Y-74116208D01*
X74670511Y-74116206D01*
X74673334Y-74111165D01*
X74675190Y-74105698D01*
X74675192Y-74105693D01*
X74736728Y-73924414D01*
X74736729Y-73924409D01*
X74738584Y-73918945D01*
X74739412Y-73913236D01*
X74739413Y-73913231D01*
X74767179Y-73721727D01*
X74767712Y-73718053D01*
X74769232Y-73660000D01*
X74750658Y-73457859D01*
X74749090Y-73452299D01*
X74697125Y-73268046D01*
X74697124Y-73268044D01*
X74695557Y-73262487D01*
X74692112Y-73255500D01*
X74608331Y-73085609D01*
X74608330Y-73085608D01*
X74605776Y-73080428D01*
X74484320Y-72917779D01*
X74335258Y-72779987D01*
X74330375Y-72776906D01*
X74330371Y-72776903D01*
X74168464Y-72674748D01*
X74163581Y-72671667D01*
X73975039Y-72596446D01*
X73969379Y-72595320D01*
X73969375Y-72595319D01*
X73781613Y-72557971D01*
X73781610Y-72557971D01*
X73775946Y-72556844D01*
X73770171Y-72556768D01*
X73770167Y-72556768D01*
X73668793Y-72555441D01*
X73572971Y-72554187D01*
X73567274Y-72555166D01*
X73567273Y-72555166D01*
X73378607Y-72587585D01*
X73372910Y-72588564D01*
X73182463Y-72658824D01*
X73008010Y-72762612D01*
X73003670Y-72766418D01*
X73003666Y-72766421D01*
X72965750Y-72799673D01*
X72855392Y-72896455D01*
X72729720Y-73055869D01*
X72682330Y-73145943D01*
X72660114Y-73188168D01*
X72610695Y-73239140D01*
X72548606Y-73255500D01*
X72153190Y-73255500D01*
X72085069Y-73235498D01*
X72038576Y-73181842D01*
X72028269Y-73145949D01*
X72026728Y-73134246D01*
X71984868Y-73033188D01*
X71974015Y-73006986D01*
X71974014Y-73006984D01*
X71970855Y-72999358D01*
X71905246Y-72913855D01*
X71887001Y-72890077D01*
X71887000Y-72890076D01*
X71881974Y-72883526D01*
X71875424Y-72878500D01*
X71875421Y-72878497D01*
X71772696Y-72799673D01*
X71772694Y-72799672D01*
X71766143Y-72794645D01*
X71631254Y-72738772D01*
X71486500Y-72719715D01*
X71478312Y-72720793D01*
X71349932Y-72737694D01*
X71349930Y-72737695D01*
X71341746Y-72738772D01*
X71241028Y-72780491D01*
X71170439Y-72788080D01*
X71106952Y-72756301D01*
X71092848Y-72740786D01*
X71012505Y-72636081D01*
X71012500Y-72636076D01*
X71007474Y-72629526D01*
X71000924Y-72624500D01*
X71000921Y-72624497D01*
X70898196Y-72545673D01*
X70898194Y-72545672D01*
X70891643Y-72540645D01*
X70756754Y-72484772D01*
X70612000Y-72465715D01*
X70603812Y-72466793D01*
X70475432Y-72483694D01*
X70475430Y-72483695D01*
X70467246Y-72484772D01*
X70419430Y-72504578D01*
X70339986Y-72537485D01*
X70339984Y-72537486D01*
X70332358Y-72540645D01*
X70216526Y-72629526D01*
X70127645Y-72745358D01*
X70124486Y-72752984D01*
X70124485Y-72752986D01*
X70109949Y-72788080D01*
X70071772Y-72880246D01*
X70070695Y-72888430D01*
X70070694Y-72888432D01*
X70070139Y-72892648D01*
X70052715Y-73025000D01*
X70053793Y-73033188D01*
X70066282Y-73128054D01*
X70055342Y-73198203D01*
X70008214Y-73251301D01*
X69941360Y-73270500D01*
X51917860Y-73270500D01*
X51849739Y-73250498D01*
X51804854Y-73200228D01*
X51803856Y-73198203D01*
X51772316Y-73134246D01*
X51748331Y-73085608D01*
X51748328Y-73085604D01*
X51745776Y-73080428D01*
X51624320Y-72917779D01*
X51475258Y-72779987D01*
X51470375Y-72776906D01*
X51470371Y-72776903D01*
X51308464Y-72674748D01*
X51303581Y-72671667D01*
X51115039Y-72596446D01*
X51109379Y-72595320D01*
X51109375Y-72595319D01*
X50921613Y-72557971D01*
X50921610Y-72557971D01*
X50915946Y-72556844D01*
X50910171Y-72556768D01*
X50910167Y-72556768D01*
X50808793Y-72555441D01*
X50712971Y-72554187D01*
X50707274Y-72555166D01*
X50707273Y-72555166D01*
X50518607Y-72587585D01*
X50512910Y-72588564D01*
X50322463Y-72658824D01*
X50148010Y-72762612D01*
X50143670Y-72766418D01*
X50143666Y-72766421D01*
X50105750Y-72799673D01*
X49995392Y-72896455D01*
X49869720Y-73055869D01*
X49867031Y-73060980D01*
X49867029Y-73060983D01*
X49854073Y-73085608D01*
X49775203Y-73235515D01*
X49715007Y-73429378D01*
X49691148Y-73630964D01*
X49704424Y-73833522D01*
X49705845Y-73839118D01*
X49705846Y-73839123D01*
X49752027Y-74020957D01*
X49754392Y-74030269D01*
X49756809Y-74035512D01*
X49824860Y-74183127D01*
X49839377Y-74214616D01*
X49956533Y-74380389D01*
X50101938Y-74522035D01*
X50270720Y-74634812D01*
X50276023Y-74637090D01*
X50276026Y-74637092D01*
X50426271Y-74701642D01*
X50457228Y-74714942D01*
X50530244Y-74731464D01*
X50649579Y-74758467D01*
X50649584Y-74758468D01*
X50655216Y-74759742D01*
X50660987Y-74759969D01*
X50660989Y-74759969D01*
X50720756Y-74762317D01*
X50858053Y-74767712D01*
X50958499Y-74753148D01*
X51053231Y-74739413D01*
X51053236Y-74739412D01*
X51058945Y-74738584D01*
X51064409Y-74736729D01*
X51064414Y-74736728D01*
X51245693Y-74675192D01*
X51245698Y-74675190D01*
X51251165Y-74673334D01*
X51263490Y-74666432D01*
X51325683Y-74631602D01*
X51428276Y-74574147D01*
X51437166Y-74566754D01*
X51579913Y-74448031D01*
X51584345Y-74444345D01*
X51684710Y-74323670D01*
X51710453Y-74292718D01*
X51710455Y-74292715D01*
X51714147Y-74288276D01*
X51794984Y-74143931D01*
X51845718Y-74094272D01*
X51904916Y-74079500D01*
X55546486Y-74079500D01*
X55614607Y-74099502D01*
X55661100Y-74153158D01*
X55671204Y-74223432D01*
X55641710Y-74288012D01*
X55609486Y-74314619D01*
X55607984Y-74315486D01*
X55600358Y-74318645D01*
X55484526Y-74407526D01*
X55395645Y-74523358D01*
X55392486Y-74530984D01*
X55392485Y-74530986D01*
X55376137Y-74570453D01*
X55339772Y-74658246D01*
X55338695Y-74666430D01*
X55338694Y-74666432D01*
X55337541Y-74675192D01*
X55320715Y-74803000D01*
X55339772Y-74947754D01*
X55395645Y-75082642D01*
X55484526Y-75198474D01*
X55491076Y-75203500D01*
X55491079Y-75203503D01*
X55573190Y-75266509D01*
X55615057Y-75323847D01*
X55619279Y-75394718D01*
X55596448Y-75443175D01*
X55527675Y-75532802D01*
X55527673Y-75532805D01*
X55522645Y-75539358D01*
X55519486Y-75546984D01*
X55519485Y-75546986D01*
X55496507Y-75602460D01*
X55469193Y-75643336D01*
X53929934Y-77182595D01*
X53867622Y-77216621D01*
X53840839Y-77219500D01*
X51650149Y-77219500D01*
X51582028Y-77199498D01*
X51535535Y-77145842D01*
X51525431Y-77075568D01*
X51554925Y-77010988D01*
X51569579Y-76996627D01*
X51579906Y-76988038D01*
X51579913Y-76988031D01*
X51584345Y-76984345D01*
X51714147Y-76828276D01*
X51813334Y-76651165D01*
X51815190Y-76645698D01*
X51815192Y-76645693D01*
X51876728Y-76464414D01*
X51876729Y-76464409D01*
X51878584Y-76458945D01*
X51879412Y-76453236D01*
X51879413Y-76453231D01*
X51900685Y-76306514D01*
X51907712Y-76258053D01*
X51909232Y-76200000D01*
X51890658Y-75997859D01*
X51889090Y-75992299D01*
X51837125Y-75808046D01*
X51837124Y-75808044D01*
X51835557Y-75802487D01*
X51824978Y-75781033D01*
X51748331Y-75625609D01*
X51745776Y-75620428D01*
X51624320Y-75457779D01*
X51475258Y-75319987D01*
X51470375Y-75316906D01*
X51470371Y-75316903D01*
X51308464Y-75214748D01*
X51303581Y-75211667D01*
X51115039Y-75136446D01*
X51109379Y-75135320D01*
X51109375Y-75135319D01*
X50921613Y-75097971D01*
X50921610Y-75097971D01*
X50915946Y-75096844D01*
X50910171Y-75096768D01*
X50910167Y-75096768D01*
X50808793Y-75095441D01*
X50712971Y-75094187D01*
X50707274Y-75095166D01*
X50707273Y-75095166D01*
X50518607Y-75127585D01*
X50512910Y-75128564D01*
X50322463Y-75198824D01*
X50148010Y-75302612D01*
X50143670Y-75306418D01*
X50143666Y-75306421D01*
X50015869Y-75418497D01*
X49995392Y-75436455D01*
X49869720Y-75595869D01*
X49867031Y-75600980D01*
X49867029Y-75600983D01*
X49854073Y-75625609D01*
X49775203Y-75775515D01*
X49715007Y-75969378D01*
X49691148Y-76170964D01*
X48514500Y-76170964D01*
X48514500Y-71090964D01*
X49691148Y-71090964D01*
X49704424Y-71293522D01*
X49705845Y-71299118D01*
X49705846Y-71299123D01*
X49726119Y-71378945D01*
X49754392Y-71490269D01*
X49756809Y-71495512D01*
X49794010Y-71576208D01*
X49839377Y-71674616D01*
X49956533Y-71840389D01*
X50101938Y-71982035D01*
X50270720Y-72094812D01*
X50276023Y-72097090D01*
X50276026Y-72097092D01*
X50364707Y-72135192D01*
X50457228Y-72174942D01*
X50530244Y-72191464D01*
X50649579Y-72218467D01*
X50649584Y-72218468D01*
X50655216Y-72219742D01*
X50660987Y-72219969D01*
X50660989Y-72219969D01*
X50720756Y-72222317D01*
X50858053Y-72227712D01*
X50958499Y-72213148D01*
X51053231Y-72199413D01*
X51053236Y-72199412D01*
X51058945Y-72198584D01*
X51064409Y-72196729D01*
X51064414Y-72196728D01*
X51245693Y-72135192D01*
X51245698Y-72135190D01*
X51251165Y-72133334D01*
X51428276Y-72034147D01*
X51490934Y-71982035D01*
X51579913Y-71908031D01*
X51584345Y-71904345D01*
X51714147Y-71748276D01*
X51803383Y-71588934D01*
X51854120Y-71539272D01*
X51913317Y-71524500D01*
X72549515Y-71524500D01*
X72617636Y-71544502D01*
X72663941Y-71597749D01*
X72699377Y-71674616D01*
X72816533Y-71840389D01*
X72961938Y-71982035D01*
X73130720Y-72094812D01*
X73136023Y-72097090D01*
X73136026Y-72097092D01*
X73224707Y-72135192D01*
X73317228Y-72174942D01*
X73390244Y-72191464D01*
X73509579Y-72218467D01*
X73509584Y-72218468D01*
X73515216Y-72219742D01*
X73520987Y-72219969D01*
X73520989Y-72219969D01*
X73580756Y-72222317D01*
X73718053Y-72227712D01*
X73818499Y-72213148D01*
X73913231Y-72199413D01*
X73913236Y-72199412D01*
X73918945Y-72198584D01*
X73924409Y-72196729D01*
X73924414Y-72196728D01*
X74105693Y-72135192D01*
X74105698Y-72135190D01*
X74111165Y-72133334D01*
X74288276Y-72034147D01*
X74350934Y-71982035D01*
X74439913Y-71908031D01*
X74444345Y-71904345D01*
X74574147Y-71748276D01*
X74673334Y-71571165D01*
X74675190Y-71565698D01*
X74675192Y-71565693D01*
X74736728Y-71384414D01*
X74736729Y-71384409D01*
X74738584Y-71378945D01*
X74739412Y-71373236D01*
X74739413Y-71373231D01*
X74767179Y-71181727D01*
X74767712Y-71178053D01*
X74769232Y-71120000D01*
X74750658Y-70917859D01*
X74749090Y-70912299D01*
X74697125Y-70728046D01*
X74697124Y-70728044D01*
X74695557Y-70722487D01*
X74692112Y-70715500D01*
X74608331Y-70545609D01*
X74608330Y-70545608D01*
X74605776Y-70540428D01*
X74484320Y-70377779D01*
X74335258Y-70239987D01*
X74330375Y-70236906D01*
X74330371Y-70236903D01*
X74168464Y-70134748D01*
X74163581Y-70131667D01*
X73975039Y-70056446D01*
X73969379Y-70055320D01*
X73969375Y-70055319D01*
X73781613Y-70017971D01*
X73781610Y-70017971D01*
X73775946Y-70016844D01*
X73770171Y-70016768D01*
X73770167Y-70016768D01*
X73668793Y-70015441D01*
X73572971Y-70014187D01*
X73567274Y-70015166D01*
X73567273Y-70015166D01*
X73378607Y-70047585D01*
X73372910Y-70048564D01*
X73182463Y-70118824D01*
X73008010Y-70222612D01*
X73003670Y-70226418D01*
X73003666Y-70226421D01*
X72983723Y-70243911D01*
X72855392Y-70356455D01*
X72729720Y-70515869D01*
X72661661Y-70645228D01*
X72660114Y-70648168D01*
X72610695Y-70699140D01*
X72548606Y-70715500D01*
X51910463Y-70715500D01*
X51842342Y-70695498D01*
X51797457Y-70645228D01*
X51748331Y-70545608D01*
X51748328Y-70545604D01*
X51745776Y-70540428D01*
X51624320Y-70377779D01*
X51475258Y-70239987D01*
X51470375Y-70236906D01*
X51470371Y-70236903D01*
X51308464Y-70134748D01*
X51303581Y-70131667D01*
X51115039Y-70056446D01*
X51109379Y-70055320D01*
X51109375Y-70055319D01*
X50921613Y-70017971D01*
X50921610Y-70017971D01*
X50915946Y-70016844D01*
X50910171Y-70016768D01*
X50910167Y-70016768D01*
X50808793Y-70015441D01*
X50712971Y-70014187D01*
X50707274Y-70015166D01*
X50707273Y-70015166D01*
X50518607Y-70047585D01*
X50512910Y-70048564D01*
X50322463Y-70118824D01*
X50148010Y-70222612D01*
X50143670Y-70226418D01*
X50143666Y-70226421D01*
X50123723Y-70243911D01*
X49995392Y-70356455D01*
X49869720Y-70515869D01*
X49867031Y-70520980D01*
X49867029Y-70520983D01*
X49854073Y-70545608D01*
X49775203Y-70695515D01*
X49715007Y-70889378D01*
X49691148Y-71090964D01*
X48514500Y-71090964D01*
X48514500Y-68550964D01*
X49691148Y-68550964D01*
X49704424Y-68753522D01*
X49705845Y-68759118D01*
X49705846Y-68759123D01*
X49726119Y-68838945D01*
X49754392Y-68950269D01*
X49756809Y-68955512D01*
X49794010Y-69036208D01*
X49839377Y-69134616D01*
X49956533Y-69300389D01*
X50101938Y-69442035D01*
X50270720Y-69554812D01*
X50276023Y-69557090D01*
X50276026Y-69557092D01*
X50364707Y-69595192D01*
X50457228Y-69634942D01*
X50530244Y-69651464D01*
X50649579Y-69678467D01*
X50649584Y-69678468D01*
X50655216Y-69679742D01*
X50660987Y-69679969D01*
X50660989Y-69679969D01*
X50720756Y-69682317D01*
X50858053Y-69687712D01*
X50958499Y-69673148D01*
X51053231Y-69659413D01*
X51053236Y-69659412D01*
X51058945Y-69658584D01*
X51064409Y-69656729D01*
X51064414Y-69656728D01*
X51245693Y-69595192D01*
X51245698Y-69595190D01*
X51251165Y-69593334D01*
X51428276Y-69494147D01*
X51490934Y-69442035D01*
X51579913Y-69368031D01*
X51584345Y-69364345D01*
X51714147Y-69208276D01*
X51813334Y-69031165D01*
X51815190Y-69025698D01*
X51815192Y-69025693D01*
X51876728Y-68844414D01*
X51876729Y-68844409D01*
X51878584Y-68838945D01*
X51879412Y-68833236D01*
X51879413Y-68833231D01*
X51907179Y-68641727D01*
X51907712Y-68638053D01*
X51909232Y-68580000D01*
X51906564Y-68550964D01*
X72551148Y-68550964D01*
X72564424Y-68753522D01*
X72565845Y-68759118D01*
X72565846Y-68759123D01*
X72586119Y-68838945D01*
X72614392Y-68950269D01*
X72616809Y-68955512D01*
X72654010Y-69036208D01*
X72699377Y-69134616D01*
X72816533Y-69300389D01*
X72961938Y-69442035D01*
X73130720Y-69554812D01*
X73136023Y-69557090D01*
X73136026Y-69557092D01*
X73224707Y-69595192D01*
X73317228Y-69634942D01*
X73390244Y-69651464D01*
X73509579Y-69678467D01*
X73509584Y-69678468D01*
X73515216Y-69679742D01*
X73520987Y-69679969D01*
X73520989Y-69679969D01*
X73580756Y-69682317D01*
X73718053Y-69687712D01*
X73818499Y-69673148D01*
X73913231Y-69659413D01*
X73913236Y-69659412D01*
X73918945Y-69658584D01*
X73924409Y-69656729D01*
X73924414Y-69656728D01*
X74105693Y-69595192D01*
X74105698Y-69595190D01*
X74111165Y-69593334D01*
X74288276Y-69494147D01*
X74350934Y-69442035D01*
X74439913Y-69368031D01*
X74444345Y-69364345D01*
X74574147Y-69208276D01*
X74673334Y-69031165D01*
X74675190Y-69025698D01*
X74675192Y-69025693D01*
X74736728Y-68844414D01*
X74736729Y-68844409D01*
X74738584Y-68838945D01*
X74739412Y-68833236D01*
X74739413Y-68833231D01*
X74767179Y-68641727D01*
X74767712Y-68638053D01*
X74769232Y-68580000D01*
X74750658Y-68377859D01*
X74749090Y-68372299D01*
X74697125Y-68188046D01*
X74697124Y-68188044D01*
X74695557Y-68182487D01*
X74684978Y-68161033D01*
X74608331Y-68005609D01*
X74605776Y-68000428D01*
X74484320Y-67837779D01*
X74335258Y-67699987D01*
X74330375Y-67696906D01*
X74330371Y-67696903D01*
X74168464Y-67594748D01*
X74163581Y-67591667D01*
X73975039Y-67516446D01*
X73969379Y-67515320D01*
X73969375Y-67515319D01*
X73781613Y-67477971D01*
X73781610Y-67477971D01*
X73775946Y-67476844D01*
X73770171Y-67476768D01*
X73770167Y-67476768D01*
X73668793Y-67475441D01*
X73572971Y-67474187D01*
X73567274Y-67475166D01*
X73567273Y-67475166D01*
X73490926Y-67488285D01*
X73372910Y-67508564D01*
X73182463Y-67578824D01*
X73008010Y-67682612D01*
X73003670Y-67686418D01*
X73003666Y-67686421D01*
X72939966Y-67742285D01*
X72855392Y-67816455D01*
X72729720Y-67975869D01*
X72727031Y-67980980D01*
X72727029Y-67980983D01*
X72714073Y-68005609D01*
X72635203Y-68155515D01*
X72575007Y-68349378D01*
X72551148Y-68550964D01*
X51906564Y-68550964D01*
X51890658Y-68377859D01*
X51889090Y-68372299D01*
X51837125Y-68188046D01*
X51837124Y-68188044D01*
X51835557Y-68182487D01*
X51824978Y-68161033D01*
X51748331Y-68005609D01*
X51745776Y-68000428D01*
X51624320Y-67837779D01*
X51475258Y-67699987D01*
X51470375Y-67696906D01*
X51470371Y-67696903D01*
X51308464Y-67594748D01*
X51303581Y-67591667D01*
X51115039Y-67516446D01*
X51109379Y-67515320D01*
X51109375Y-67515319D01*
X50921613Y-67477971D01*
X50921610Y-67477971D01*
X50915946Y-67476844D01*
X50910171Y-67476768D01*
X50910167Y-67476768D01*
X50808793Y-67475441D01*
X50712971Y-67474187D01*
X50707274Y-67475166D01*
X50707273Y-67475166D01*
X50630926Y-67488285D01*
X50512910Y-67508564D01*
X50322463Y-67578824D01*
X50148010Y-67682612D01*
X50143670Y-67686418D01*
X50143666Y-67686421D01*
X50079966Y-67742285D01*
X49995392Y-67816455D01*
X49869720Y-67975869D01*
X49867031Y-67980980D01*
X49867029Y-67980983D01*
X49854073Y-68005609D01*
X49775203Y-68155515D01*
X49715007Y-68349378D01*
X49691148Y-68550964D01*
X48514500Y-68550964D01*
X48514500Y-66010964D01*
X49691148Y-66010964D01*
X49704424Y-66213522D01*
X49705845Y-66219118D01*
X49705846Y-66219123D01*
X49726119Y-66298945D01*
X49754392Y-66410269D01*
X49756809Y-66415512D01*
X49794010Y-66496208D01*
X49839377Y-66594616D01*
X49956533Y-66760389D01*
X50101938Y-66902035D01*
X50270720Y-67014812D01*
X50276023Y-67017090D01*
X50276026Y-67017092D01*
X50451921Y-67092662D01*
X50457228Y-67094942D01*
X50530244Y-67111464D01*
X50649579Y-67138467D01*
X50649584Y-67138468D01*
X50655216Y-67139742D01*
X50660987Y-67139969D01*
X50660989Y-67139969D01*
X50720756Y-67142317D01*
X50858053Y-67147712D01*
X50958499Y-67133148D01*
X51053231Y-67119413D01*
X51053236Y-67119412D01*
X51058945Y-67118584D01*
X51064409Y-67116729D01*
X51064414Y-67116728D01*
X51245693Y-67055192D01*
X51245698Y-67055190D01*
X51251165Y-67053334D01*
X51263490Y-67046432D01*
X51325683Y-67011602D01*
X51428276Y-66954147D01*
X51490934Y-66902035D01*
X51579913Y-66828031D01*
X51584345Y-66824345D01*
X51641463Y-66755669D01*
X51710453Y-66672718D01*
X51710455Y-66672715D01*
X51714147Y-66668276D01*
X51803383Y-66508934D01*
X51854120Y-66459272D01*
X51913317Y-66444500D01*
X61266335Y-66444500D01*
X61334456Y-66464502D01*
X61380949Y-66518158D01*
X61391053Y-66588432D01*
X61371677Y-66634429D01*
X61373801Y-66635655D01*
X61369671Y-66642808D01*
X61364645Y-66649358D01*
X61361486Y-66656984D01*
X61361485Y-66656986D01*
X61345539Y-66695484D01*
X61308772Y-66784246D01*
X61307695Y-66792430D01*
X61307694Y-66792432D01*
X61293953Y-66896807D01*
X61289715Y-66929000D01*
X61290793Y-66937188D01*
X61306084Y-67053334D01*
X61308772Y-67073754D01*
X61318077Y-67096217D01*
X61354024Y-67183000D01*
X61364645Y-67208642D01*
X61453526Y-67324474D01*
X61460076Y-67329500D01*
X61460079Y-67329503D01*
X61562804Y-67408327D01*
X61569357Y-67413355D01*
X61704246Y-67469228D01*
X61849000Y-67488285D01*
X61857188Y-67487207D01*
X61985566Y-67470306D01*
X61993754Y-67469228D01*
X62128643Y-67413355D01*
X62135196Y-67408327D01*
X62237921Y-67329503D01*
X62237924Y-67329500D01*
X62244474Y-67324474D01*
X62333355Y-67208642D01*
X62343977Y-67183000D01*
X62379923Y-67096217D01*
X62389228Y-67073754D01*
X62391917Y-67053334D01*
X62407207Y-66937188D01*
X62408285Y-66929000D01*
X62404047Y-66896807D01*
X62390306Y-66792432D01*
X62390305Y-66792430D01*
X62389228Y-66784246D01*
X62352461Y-66695484D01*
X62336515Y-66656986D01*
X62336514Y-66656984D01*
X62333355Y-66649358D01*
X62328329Y-66642808D01*
X62324199Y-66635655D01*
X62326684Y-66634220D01*
X62306102Y-66580990D01*
X62320364Y-66511441D01*
X62369962Y-66460642D01*
X62431665Y-66444500D01*
X69169472Y-66444500D01*
X69237593Y-66464502D01*
X69284086Y-66518158D01*
X69294190Y-66588432D01*
X69264696Y-66653012D01*
X69217690Y-66686909D01*
X69196989Y-66695484D01*
X69189358Y-66698645D01*
X69073526Y-66787526D01*
X68984645Y-66903358D01*
X68981486Y-66910984D01*
X68981485Y-66910986D01*
X68970632Y-66937188D01*
X68928772Y-67038246D01*
X68927695Y-67046430D01*
X68927694Y-67046432D01*
X68926541Y-67055192D01*
X68909715Y-67183000D01*
X68910793Y-67191188D01*
X68927478Y-67317923D01*
X68928772Y-67327754D01*
X68984645Y-67462642D01*
X69073526Y-67578474D01*
X69080076Y-67583500D01*
X69080079Y-67583503D01*
X69182804Y-67662327D01*
X69189357Y-67667355D01*
X69324246Y-67723228D01*
X69469000Y-67742285D01*
X69477188Y-67741207D01*
X69605566Y-67724306D01*
X69613754Y-67723228D01*
X69748643Y-67667355D01*
X69755196Y-67662327D01*
X69857921Y-67583503D01*
X69857924Y-67583500D01*
X69864474Y-67578474D01*
X69953355Y-67462642D01*
X70009228Y-67327754D01*
X70010523Y-67317923D01*
X70027207Y-67191188D01*
X70028285Y-67183000D01*
X70011459Y-67055192D01*
X70010306Y-67046432D01*
X70010305Y-67046430D01*
X70009228Y-67038246D01*
X69967368Y-66937188D01*
X69956515Y-66910986D01*
X69956514Y-66910984D01*
X69953355Y-66903358D01*
X69892726Y-66824345D01*
X69869501Y-66794077D01*
X69869500Y-66794076D01*
X69864474Y-66787526D01*
X69857924Y-66782500D01*
X69857921Y-66782497D01*
X69755196Y-66703673D01*
X69755194Y-66703672D01*
X69748643Y-66698645D01*
X69720310Y-66686909D01*
X69665029Y-66642360D01*
X69642608Y-66574997D01*
X69660166Y-66506206D01*
X69712129Y-66457827D01*
X69768528Y-66444500D01*
X72549515Y-66444500D01*
X72617636Y-66464502D01*
X72663941Y-66517749D01*
X72699377Y-66594616D01*
X72816533Y-66760389D01*
X72961938Y-66902035D01*
X73130720Y-67014812D01*
X73136023Y-67017090D01*
X73136026Y-67017092D01*
X73311921Y-67092662D01*
X73317228Y-67094942D01*
X73390244Y-67111464D01*
X73509579Y-67138467D01*
X73509584Y-67138468D01*
X73515216Y-67139742D01*
X73520987Y-67139969D01*
X73520989Y-67139969D01*
X73580756Y-67142317D01*
X73718053Y-67147712D01*
X73818499Y-67133148D01*
X73913231Y-67119413D01*
X73913236Y-67119412D01*
X73918945Y-67118584D01*
X73924409Y-67116729D01*
X73924414Y-67116728D01*
X74105693Y-67055192D01*
X74105698Y-67055190D01*
X74111165Y-67053334D01*
X74123490Y-67046432D01*
X74185683Y-67011602D01*
X74288276Y-66954147D01*
X74350934Y-66902035D01*
X74439913Y-66828031D01*
X74444345Y-66824345D01*
X74501463Y-66755669D01*
X74570453Y-66672718D01*
X74570455Y-66672715D01*
X74574147Y-66668276D01*
X74673334Y-66491165D01*
X74675190Y-66485698D01*
X74675192Y-66485693D01*
X74736728Y-66304414D01*
X74736729Y-66304409D01*
X74738584Y-66298945D01*
X74739412Y-66293236D01*
X74739413Y-66293231D01*
X74767179Y-66101727D01*
X74767712Y-66098053D01*
X74769232Y-66040000D01*
X74750658Y-65837859D01*
X74749090Y-65832299D01*
X74697125Y-65648046D01*
X74697124Y-65648044D01*
X74695557Y-65642487D01*
X74692112Y-65635500D01*
X74608331Y-65465609D01*
X74608330Y-65465608D01*
X74605776Y-65460428D01*
X74484320Y-65297779D01*
X74335258Y-65159987D01*
X74330375Y-65156906D01*
X74330371Y-65156903D01*
X74168464Y-65054748D01*
X74163581Y-65051667D01*
X73975039Y-64976446D01*
X73969379Y-64975320D01*
X73969375Y-64975319D01*
X73781613Y-64937971D01*
X73781610Y-64937971D01*
X73775946Y-64936844D01*
X73770171Y-64936768D01*
X73770167Y-64936768D01*
X73668793Y-64935441D01*
X73572971Y-64934187D01*
X73567274Y-64935166D01*
X73567273Y-64935166D01*
X73490926Y-64948285D01*
X73372910Y-64968564D01*
X73182463Y-65038824D01*
X73008010Y-65142612D01*
X73003670Y-65146418D01*
X73003666Y-65146421D01*
X72983723Y-65163911D01*
X72855392Y-65276455D01*
X72729720Y-65435869D01*
X72661661Y-65565228D01*
X72660114Y-65568168D01*
X72610695Y-65619140D01*
X72548606Y-65635500D01*
X51910463Y-65635500D01*
X51842342Y-65615498D01*
X51797457Y-65565228D01*
X51748331Y-65465608D01*
X51748328Y-65465604D01*
X51745776Y-65460428D01*
X51624320Y-65297779D01*
X51475258Y-65159987D01*
X51470375Y-65156906D01*
X51470371Y-65156903D01*
X51308464Y-65054748D01*
X51303581Y-65051667D01*
X51115039Y-64976446D01*
X51109379Y-64975320D01*
X51109375Y-64975319D01*
X50921613Y-64937971D01*
X50921610Y-64937971D01*
X50915946Y-64936844D01*
X50910171Y-64936768D01*
X50910167Y-64936768D01*
X50808793Y-64935441D01*
X50712971Y-64934187D01*
X50707274Y-64935166D01*
X50707273Y-64935166D01*
X50630926Y-64948285D01*
X50512910Y-64968564D01*
X50322463Y-65038824D01*
X50148010Y-65142612D01*
X50143670Y-65146418D01*
X50143666Y-65146421D01*
X50123723Y-65163911D01*
X49995392Y-65276455D01*
X49869720Y-65435869D01*
X49867031Y-65440980D01*
X49867029Y-65440983D01*
X49854073Y-65465608D01*
X49775203Y-65615515D01*
X49715007Y-65809378D01*
X49691148Y-66010964D01*
X48514500Y-66010964D01*
X48514500Y-63470964D01*
X49691148Y-63470964D01*
X49704424Y-63673522D01*
X49705845Y-63679118D01*
X49705846Y-63679123D01*
X49726119Y-63758945D01*
X49754392Y-63870269D01*
X49756809Y-63875512D01*
X49831287Y-64037067D01*
X49839377Y-64054616D01*
X49842710Y-64059332D01*
X49912221Y-64157688D01*
X49956533Y-64220389D01*
X50101938Y-64362035D01*
X50270720Y-64474812D01*
X50276023Y-64477090D01*
X50276026Y-64477092D01*
X50434027Y-64544974D01*
X50457228Y-64554942D01*
X50530244Y-64571464D01*
X50649579Y-64598467D01*
X50649584Y-64598468D01*
X50655216Y-64599742D01*
X50660987Y-64599969D01*
X50660989Y-64599969D01*
X50720756Y-64602317D01*
X50858053Y-64607712D01*
X50958499Y-64593148D01*
X51053231Y-64579413D01*
X51053236Y-64579412D01*
X51058945Y-64578584D01*
X51064409Y-64576729D01*
X51064414Y-64576728D01*
X51245693Y-64515192D01*
X51245698Y-64515190D01*
X51251165Y-64513334D01*
X51428276Y-64414147D01*
X51490934Y-64362035D01*
X51579913Y-64288031D01*
X51584345Y-64284345D01*
X51689685Y-64157688D01*
X51710453Y-64132718D01*
X51710455Y-64132715D01*
X51714147Y-64128276D01*
X51803383Y-63968934D01*
X51854120Y-63919272D01*
X51913317Y-63904500D01*
X59390518Y-63904500D01*
X59458639Y-63924502D01*
X59467222Y-63930538D01*
X59537357Y-63984355D01*
X59672246Y-64040228D01*
X59817000Y-64059285D01*
X59825188Y-64058207D01*
X59953566Y-64041306D01*
X59961754Y-64040228D01*
X59969382Y-64037068D01*
X59969387Y-64037067D01*
X59973578Y-64035331D01*
X60044168Y-64027744D01*
X60107654Y-64059525D01*
X60143880Y-64120584D01*
X60147123Y-64146403D01*
X60146715Y-64149500D01*
X60147793Y-64157688D01*
X60156048Y-64220389D01*
X60165772Y-64294254D01*
X60168931Y-64301880D01*
X60215434Y-64414147D01*
X60221645Y-64429142D01*
X60226672Y-64435693D01*
X60301917Y-64533754D01*
X60310526Y-64544974D01*
X60317076Y-64550000D01*
X60317079Y-64550003D01*
X60391991Y-64607485D01*
X60426357Y-64633855D01*
X60561246Y-64689728D01*
X60706000Y-64708785D01*
X60714188Y-64707707D01*
X60842566Y-64690806D01*
X60850754Y-64689728D01*
X60985643Y-64633855D01*
X61020009Y-64607485D01*
X61094921Y-64550003D01*
X61094924Y-64550000D01*
X61101474Y-64544974D01*
X61110084Y-64533754D01*
X61185328Y-64435693D01*
X61190355Y-64429142D01*
X61196567Y-64414147D01*
X61243069Y-64301880D01*
X61246228Y-64294254D01*
X61255953Y-64220389D01*
X61264207Y-64157688D01*
X61265285Y-64149500D01*
X61258035Y-64094429D01*
X61251784Y-64046946D01*
X61262724Y-63976797D01*
X61309852Y-63923699D01*
X61376706Y-63904500D01*
X68378335Y-63904500D01*
X68446456Y-63924502D01*
X68492949Y-63978158D01*
X68503053Y-64048432D01*
X68483677Y-64094429D01*
X68485801Y-64095655D01*
X68481671Y-64102808D01*
X68476645Y-64109358D01*
X68473486Y-64116984D01*
X68473485Y-64116986D01*
X68460017Y-64149500D01*
X68420772Y-64244246D01*
X68419695Y-64252430D01*
X68419694Y-64252432D01*
X68414188Y-64294254D01*
X68401715Y-64389000D01*
X68402793Y-64397188D01*
X68418084Y-64513334D01*
X68420772Y-64533754D01*
X68430077Y-64556217D01*
X68463545Y-64637015D01*
X68476645Y-64668642D01*
X68565526Y-64784474D01*
X68572076Y-64789500D01*
X68572079Y-64789503D01*
X68674804Y-64868327D01*
X68681357Y-64873355D01*
X68816246Y-64929228D01*
X68961000Y-64948285D01*
X68969188Y-64947207D01*
X69097566Y-64930306D01*
X69105754Y-64929228D01*
X69240643Y-64873355D01*
X69247196Y-64868327D01*
X69349921Y-64789503D01*
X69349924Y-64789500D01*
X69356474Y-64784474D01*
X69445355Y-64668642D01*
X69458456Y-64637015D01*
X69491923Y-64556217D01*
X69501228Y-64533754D01*
X69503917Y-64513334D01*
X69519207Y-64397188D01*
X69520285Y-64389000D01*
X69507812Y-64294254D01*
X69502306Y-64252432D01*
X69502305Y-64252430D01*
X69501228Y-64244246D01*
X69461983Y-64149500D01*
X69448515Y-64116986D01*
X69448514Y-64116984D01*
X69445355Y-64109358D01*
X69440329Y-64102808D01*
X69436199Y-64095655D01*
X69438684Y-64094220D01*
X69418102Y-64040990D01*
X69432364Y-63971441D01*
X69481962Y-63920642D01*
X69543665Y-63904500D01*
X72549515Y-63904500D01*
X72617636Y-63924502D01*
X72663941Y-63977749D01*
X72666986Y-63984355D01*
X72699377Y-64054616D01*
X72702710Y-64059332D01*
X72772221Y-64157688D01*
X72816533Y-64220389D01*
X72961938Y-64362035D01*
X73130720Y-64474812D01*
X73136023Y-64477090D01*
X73136026Y-64477092D01*
X73294027Y-64544974D01*
X73317228Y-64554942D01*
X73390244Y-64571464D01*
X73509579Y-64598467D01*
X73509584Y-64598468D01*
X73515216Y-64599742D01*
X73520987Y-64599969D01*
X73520989Y-64599969D01*
X73580756Y-64602317D01*
X73718053Y-64607712D01*
X73818499Y-64593148D01*
X73913231Y-64579413D01*
X73913236Y-64579412D01*
X73918945Y-64578584D01*
X73924409Y-64576729D01*
X73924414Y-64576728D01*
X74105693Y-64515192D01*
X74105698Y-64515190D01*
X74111165Y-64513334D01*
X74288276Y-64414147D01*
X74350934Y-64362035D01*
X74439913Y-64288031D01*
X74444345Y-64284345D01*
X74549685Y-64157688D01*
X74570453Y-64132718D01*
X74570455Y-64132715D01*
X74574147Y-64128276D01*
X74658446Y-63977749D01*
X74670510Y-63956208D01*
X74670511Y-63956206D01*
X74673334Y-63951165D01*
X74675190Y-63945698D01*
X74675192Y-63945693D01*
X74736728Y-63764414D01*
X74736729Y-63764409D01*
X74738584Y-63758945D01*
X74739412Y-63753236D01*
X74739413Y-63753231D01*
X74767179Y-63561727D01*
X74767712Y-63558053D01*
X74769232Y-63500000D01*
X74750658Y-63297859D01*
X74749090Y-63292299D01*
X74697125Y-63108046D01*
X74697124Y-63108044D01*
X74695557Y-63102487D01*
X74692112Y-63095500D01*
X74608331Y-62925609D01*
X74608330Y-62925608D01*
X74605776Y-62920428D01*
X74484320Y-62757779D01*
X74335258Y-62619987D01*
X74330375Y-62616906D01*
X74330371Y-62616903D01*
X74168464Y-62514748D01*
X74163581Y-62511667D01*
X73975039Y-62436446D01*
X73969379Y-62435320D01*
X73969375Y-62435319D01*
X73781613Y-62397971D01*
X73781610Y-62397971D01*
X73775946Y-62396844D01*
X73770171Y-62396768D01*
X73770167Y-62396768D01*
X73668793Y-62395441D01*
X73572971Y-62394187D01*
X73567274Y-62395166D01*
X73567273Y-62395166D01*
X73378607Y-62427585D01*
X73372910Y-62428564D01*
X73182463Y-62498824D01*
X73008010Y-62602612D01*
X73003670Y-62606418D01*
X73003666Y-62606421D01*
X72983723Y-62623911D01*
X72855392Y-62736455D01*
X72729720Y-62895869D01*
X72661661Y-63025228D01*
X72660114Y-63028168D01*
X72610695Y-63079140D01*
X72548606Y-63095500D01*
X60243482Y-63095500D01*
X60175361Y-63075498D01*
X60166778Y-63069462D01*
X60103196Y-63020673D01*
X60103194Y-63020672D01*
X60096643Y-63015645D01*
X59961754Y-62959772D01*
X59817000Y-62940715D01*
X59808812Y-62941793D01*
X59680432Y-62958694D01*
X59680430Y-62958695D01*
X59672246Y-62959772D01*
X59537358Y-63015645D01*
X59467220Y-63069464D01*
X59401001Y-63095063D01*
X59390518Y-63095500D01*
X51910463Y-63095500D01*
X51842342Y-63075498D01*
X51797457Y-63025228D01*
X51748331Y-62925608D01*
X51748328Y-62925604D01*
X51745776Y-62920428D01*
X51624320Y-62757779D01*
X51475258Y-62619987D01*
X51470375Y-62616906D01*
X51470371Y-62616903D01*
X51308464Y-62514748D01*
X51303581Y-62511667D01*
X51115039Y-62436446D01*
X51109379Y-62435320D01*
X51109375Y-62435319D01*
X50921613Y-62397971D01*
X50921610Y-62397971D01*
X50915946Y-62396844D01*
X50910171Y-62396768D01*
X50910167Y-62396768D01*
X50808793Y-62395441D01*
X50712971Y-62394187D01*
X50707274Y-62395166D01*
X50707273Y-62395166D01*
X50518607Y-62427585D01*
X50512910Y-62428564D01*
X50322463Y-62498824D01*
X50148010Y-62602612D01*
X50143670Y-62606418D01*
X50143666Y-62606421D01*
X50123723Y-62623911D01*
X49995392Y-62736455D01*
X49869720Y-62895869D01*
X49867031Y-62900980D01*
X49867029Y-62900983D01*
X49854073Y-62925608D01*
X49775203Y-63075515D01*
X49715007Y-63269378D01*
X49691148Y-63470964D01*
X48514500Y-63470964D01*
X48514500Y-60930964D01*
X49691148Y-60930964D01*
X49704424Y-61133522D01*
X49705845Y-61139118D01*
X49705846Y-61139123D01*
X49726119Y-61218945D01*
X49754392Y-61330269D01*
X49756809Y-61335512D01*
X49794010Y-61416208D01*
X49839377Y-61514616D01*
X49956533Y-61680389D01*
X50101938Y-61822035D01*
X50270720Y-61934812D01*
X50276023Y-61937090D01*
X50276026Y-61937092D01*
X50364707Y-61975192D01*
X50457228Y-62014942D01*
X50530244Y-62031464D01*
X50649579Y-62058467D01*
X50649584Y-62058468D01*
X50655216Y-62059742D01*
X50660987Y-62059969D01*
X50660989Y-62059969D01*
X50720756Y-62062317D01*
X50858053Y-62067712D01*
X50958499Y-62053148D01*
X51053231Y-62039413D01*
X51053236Y-62039412D01*
X51058945Y-62038584D01*
X51064409Y-62036729D01*
X51064414Y-62036728D01*
X51245693Y-61975192D01*
X51245698Y-61975190D01*
X51251165Y-61973334D01*
X51428276Y-61874147D01*
X51490934Y-61822035D01*
X51579913Y-61748031D01*
X51584345Y-61744345D01*
X51714147Y-61588276D01*
X51813334Y-61411165D01*
X51815190Y-61405698D01*
X51815192Y-61405693D01*
X51876728Y-61224414D01*
X51876729Y-61224409D01*
X51878584Y-61218945D01*
X51879412Y-61213236D01*
X51879413Y-61213231D01*
X51907179Y-61021727D01*
X51907712Y-61018053D01*
X51909232Y-60960000D01*
X51906564Y-60930964D01*
X72551148Y-60930964D01*
X72564424Y-61133522D01*
X72565845Y-61139118D01*
X72565846Y-61139123D01*
X72586119Y-61218945D01*
X72614392Y-61330269D01*
X72616809Y-61335512D01*
X72654010Y-61416208D01*
X72699377Y-61514616D01*
X72816533Y-61680389D01*
X72961938Y-61822035D01*
X73130720Y-61934812D01*
X73136023Y-61937090D01*
X73136026Y-61937092D01*
X73224707Y-61975192D01*
X73317228Y-62014942D01*
X73390244Y-62031464D01*
X73509579Y-62058467D01*
X73509584Y-62058468D01*
X73515216Y-62059742D01*
X73520987Y-62059969D01*
X73520989Y-62059969D01*
X73580756Y-62062317D01*
X73718053Y-62067712D01*
X73818499Y-62053148D01*
X73913231Y-62039413D01*
X73913236Y-62039412D01*
X73918945Y-62038584D01*
X73924409Y-62036729D01*
X73924414Y-62036728D01*
X74105693Y-61975192D01*
X74105698Y-61975190D01*
X74111165Y-61973334D01*
X74288276Y-61874147D01*
X74350934Y-61822035D01*
X74439913Y-61748031D01*
X74444345Y-61744345D01*
X74574147Y-61588276D01*
X74673334Y-61411165D01*
X74675190Y-61405698D01*
X74675192Y-61405693D01*
X74736728Y-61224414D01*
X74736729Y-61224409D01*
X74738584Y-61218945D01*
X74739412Y-61213236D01*
X74739413Y-61213231D01*
X74767179Y-61021727D01*
X74767712Y-61018053D01*
X74769232Y-60960000D01*
X74750658Y-60757859D01*
X74749090Y-60752299D01*
X74697125Y-60568046D01*
X74697124Y-60568044D01*
X74695557Y-60562487D01*
X74684978Y-60541033D01*
X74608331Y-60385609D01*
X74605776Y-60380428D01*
X74484320Y-60217779D01*
X74335258Y-60079987D01*
X74330375Y-60076906D01*
X74330371Y-60076903D01*
X74168464Y-59974748D01*
X74163581Y-59971667D01*
X73975039Y-59896446D01*
X73969379Y-59895320D01*
X73969375Y-59895319D01*
X73781613Y-59857971D01*
X73781610Y-59857971D01*
X73775946Y-59856844D01*
X73770171Y-59856768D01*
X73770167Y-59856768D01*
X73668793Y-59855441D01*
X73572971Y-59854187D01*
X73567274Y-59855166D01*
X73567273Y-59855166D01*
X73378607Y-59887585D01*
X73372910Y-59888564D01*
X73182463Y-59958824D01*
X73008010Y-60062612D01*
X73003670Y-60066418D01*
X73003666Y-60066421D01*
X72983723Y-60083911D01*
X72855392Y-60196455D01*
X72729720Y-60355869D01*
X72727031Y-60360980D01*
X72727029Y-60360983D01*
X72714073Y-60385609D01*
X72635203Y-60535515D01*
X72575007Y-60729378D01*
X72551148Y-60930964D01*
X51906564Y-60930964D01*
X51890658Y-60757859D01*
X51889090Y-60752299D01*
X51837125Y-60568046D01*
X51837124Y-60568044D01*
X51835557Y-60562487D01*
X51824978Y-60541033D01*
X51748331Y-60385609D01*
X51745776Y-60380428D01*
X51624320Y-60217779D01*
X51475258Y-60079987D01*
X51470375Y-60076906D01*
X51470371Y-60076903D01*
X51308464Y-59974748D01*
X51303581Y-59971667D01*
X51115039Y-59896446D01*
X51109379Y-59895320D01*
X51109375Y-59895319D01*
X50921613Y-59857971D01*
X50921610Y-59857971D01*
X50915946Y-59856844D01*
X50910171Y-59856768D01*
X50910167Y-59856768D01*
X50808793Y-59855441D01*
X50712971Y-59854187D01*
X50707274Y-59855166D01*
X50707273Y-59855166D01*
X50518607Y-59887585D01*
X50512910Y-59888564D01*
X50322463Y-59958824D01*
X50148010Y-60062612D01*
X50143670Y-60066418D01*
X50143666Y-60066421D01*
X50123723Y-60083911D01*
X49995392Y-60196455D01*
X49869720Y-60355869D01*
X49867031Y-60360980D01*
X49867029Y-60360983D01*
X49854073Y-60385609D01*
X49775203Y-60535515D01*
X49715007Y-60729378D01*
X49691148Y-60930964D01*
X48514500Y-60930964D01*
X48514500Y-56147966D01*
X49468257Y-56147966D01*
X49498565Y-56282446D01*
X49501645Y-56292275D01*
X49581770Y-56489603D01*
X49586413Y-56498794D01*
X49697694Y-56680388D01*
X49703777Y-56688699D01*
X49843213Y-56849667D01*
X49850580Y-56856883D01*
X50014434Y-56992916D01*
X50022881Y-56998831D01*
X50206756Y-57106279D01*
X50216042Y-57110729D01*
X50365124Y-57167657D01*
X50421627Y-57210644D01*
X50445920Y-57277355D01*
X50430290Y-57346610D01*
X50379699Y-57396421D01*
X50363785Y-57403579D01*
X50322463Y-57418824D01*
X50148010Y-57522612D01*
X50143670Y-57526418D01*
X50143666Y-57526421D01*
X50123723Y-57543911D01*
X49995392Y-57656455D01*
X49869720Y-57815869D01*
X49867031Y-57820980D01*
X49867029Y-57820983D01*
X49854073Y-57845608D01*
X49775203Y-57995515D01*
X49715007Y-58189378D01*
X49691148Y-58390964D01*
X49704424Y-58593522D01*
X49705845Y-58599118D01*
X49705846Y-58599123D01*
X49726119Y-58678945D01*
X49754392Y-58790269D01*
X49756809Y-58795512D01*
X49794010Y-58876208D01*
X49839377Y-58974616D01*
X49956533Y-59140389D01*
X50101938Y-59282035D01*
X50270720Y-59394812D01*
X50276023Y-59397090D01*
X50276026Y-59397092D01*
X50364707Y-59435192D01*
X50457228Y-59474942D01*
X50530244Y-59491464D01*
X50649579Y-59518467D01*
X50649584Y-59518468D01*
X50655216Y-59519742D01*
X50660987Y-59519969D01*
X50660989Y-59519969D01*
X50720756Y-59522317D01*
X50858053Y-59527712D01*
X50958499Y-59513148D01*
X51053231Y-59499413D01*
X51053236Y-59499412D01*
X51058945Y-59498584D01*
X51064409Y-59496729D01*
X51064414Y-59496728D01*
X51245693Y-59435192D01*
X51245698Y-59435190D01*
X51251165Y-59433334D01*
X51428276Y-59334147D01*
X51490934Y-59282035D01*
X51579913Y-59208031D01*
X51584345Y-59204345D01*
X51714147Y-59048276D01*
X51803383Y-58888934D01*
X51854120Y-58839272D01*
X51913317Y-58824500D01*
X72549515Y-58824500D01*
X72617636Y-58844502D01*
X72663941Y-58897749D01*
X72699377Y-58974616D01*
X72816533Y-59140389D01*
X72961938Y-59282035D01*
X73130720Y-59394812D01*
X73136023Y-59397090D01*
X73136026Y-59397092D01*
X73224707Y-59435192D01*
X73317228Y-59474942D01*
X73390244Y-59491464D01*
X73509579Y-59518467D01*
X73509584Y-59518468D01*
X73515216Y-59519742D01*
X73520987Y-59519969D01*
X73520989Y-59519969D01*
X73580756Y-59522317D01*
X73718053Y-59527712D01*
X73818499Y-59513148D01*
X73913231Y-59499413D01*
X73913236Y-59499412D01*
X73918945Y-59498584D01*
X73924409Y-59496729D01*
X73924414Y-59496728D01*
X74105693Y-59435192D01*
X74105698Y-59435190D01*
X74111165Y-59433334D01*
X74288276Y-59334147D01*
X74350934Y-59282035D01*
X74439913Y-59208031D01*
X74444345Y-59204345D01*
X74574147Y-59048276D01*
X74673334Y-58871165D01*
X74675190Y-58865698D01*
X74675192Y-58865693D01*
X74736728Y-58684414D01*
X74736729Y-58684409D01*
X74738584Y-58678945D01*
X74739412Y-58673236D01*
X74739413Y-58673231D01*
X74767179Y-58481727D01*
X74767712Y-58478053D01*
X74769232Y-58420000D01*
X74750658Y-58217859D01*
X74749090Y-58212299D01*
X74697125Y-58028046D01*
X74697124Y-58028044D01*
X74695557Y-58022487D01*
X74692112Y-58015500D01*
X74608331Y-57845609D01*
X74608330Y-57845608D01*
X74605776Y-57840428D01*
X74484320Y-57677779D01*
X74335258Y-57539987D01*
X74330375Y-57536906D01*
X74330371Y-57536903D01*
X74168464Y-57434748D01*
X74163581Y-57431667D01*
X74091614Y-57402955D01*
X74035755Y-57359134D01*
X74012455Y-57292069D01*
X74029111Y-57223054D01*
X74080436Y-57174000D01*
X74102098Y-57165239D01*
X74152252Y-57150192D01*
X74161842Y-57146433D01*
X74353095Y-57052739D01*
X74361945Y-57047464D01*
X74535328Y-56923792D01*
X74543200Y-56917139D01*
X74694052Y-56766812D01*
X74700730Y-56758965D01*
X74825003Y-56586020D01*
X74830313Y-56577183D01*
X74924670Y-56386267D01*
X74928469Y-56376672D01*
X74990377Y-56172910D01*
X74992555Y-56162837D01*
X74993986Y-56151962D01*
X74991775Y-56137778D01*
X74978617Y-56134000D01*
X72343225Y-56134000D01*
X72329694Y-56137973D01*
X72328257Y-56147966D01*
X72358565Y-56282446D01*
X72361645Y-56292275D01*
X72441770Y-56489603D01*
X72446413Y-56498794D01*
X72557694Y-56680388D01*
X72563777Y-56688699D01*
X72703213Y-56849667D01*
X72710580Y-56856883D01*
X72874434Y-56992916D01*
X72882881Y-56998831D01*
X73066756Y-57106279D01*
X73076042Y-57110729D01*
X73225124Y-57167657D01*
X73281627Y-57210644D01*
X73305920Y-57277355D01*
X73290290Y-57346610D01*
X73239699Y-57396421D01*
X73223785Y-57403579D01*
X73182463Y-57418824D01*
X73008010Y-57522612D01*
X73003670Y-57526418D01*
X73003666Y-57526421D01*
X72983723Y-57543911D01*
X72855392Y-57656455D01*
X72729720Y-57815869D01*
X72661661Y-57945228D01*
X72660114Y-57948168D01*
X72610695Y-57999140D01*
X72548606Y-58015500D01*
X51910463Y-58015500D01*
X51842342Y-57995498D01*
X51797457Y-57945228D01*
X51748331Y-57845608D01*
X51748328Y-57845604D01*
X51745776Y-57840428D01*
X51624320Y-57677779D01*
X51475258Y-57539987D01*
X51470375Y-57536906D01*
X51470371Y-57536903D01*
X51308464Y-57434748D01*
X51303581Y-57431667D01*
X51231614Y-57402955D01*
X51175755Y-57359134D01*
X51152455Y-57292069D01*
X51169111Y-57223054D01*
X51220436Y-57174000D01*
X51242098Y-57165239D01*
X51292252Y-57150192D01*
X51301842Y-57146433D01*
X51493095Y-57052739D01*
X51501945Y-57047464D01*
X51675328Y-56923792D01*
X51683200Y-56917139D01*
X51834052Y-56766812D01*
X51840730Y-56758965D01*
X51924777Y-56642000D01*
X68528715Y-56642000D01*
X68529793Y-56650188D01*
X68545147Y-56766812D01*
X68547772Y-56786754D01*
X68603645Y-56921642D01*
X68692526Y-57037474D01*
X68699076Y-57042500D01*
X68699079Y-57042503D01*
X68801804Y-57121327D01*
X68808357Y-57126355D01*
X68943246Y-57182228D01*
X69088000Y-57201285D01*
X69096188Y-57200207D01*
X69224566Y-57183306D01*
X69232754Y-57182228D01*
X69367643Y-57126355D01*
X69374196Y-57121327D01*
X69476921Y-57042503D01*
X69476924Y-57042500D01*
X69483474Y-57037474D01*
X69572355Y-56921642D01*
X69628228Y-56786754D01*
X69630854Y-56766812D01*
X69646207Y-56650188D01*
X69647285Y-56642000D01*
X69628228Y-56497246D01*
X69572355Y-56362358D01*
X69483474Y-56246526D01*
X69476924Y-56241500D01*
X69476921Y-56241497D01*
X69374196Y-56162673D01*
X69374194Y-56162672D01*
X69367643Y-56157645D01*
X69232754Y-56101772D01*
X69088000Y-56082715D01*
X69079812Y-56083793D01*
X68951432Y-56100694D01*
X68951430Y-56100695D01*
X68943246Y-56101772D01*
X68895430Y-56121578D01*
X68815986Y-56154485D01*
X68815984Y-56154486D01*
X68808358Y-56157645D01*
X68692526Y-56246526D01*
X68603645Y-56362358D01*
X68547772Y-56497246D01*
X68528715Y-56642000D01*
X51924777Y-56642000D01*
X51965003Y-56586020D01*
X51970313Y-56577183D01*
X52064670Y-56386267D01*
X52068469Y-56376672D01*
X52130377Y-56172910D01*
X52132555Y-56162837D01*
X52133986Y-56151962D01*
X52131775Y-56137778D01*
X52118617Y-56134000D01*
X49483225Y-56134000D01*
X49469694Y-56137973D01*
X49468257Y-56147966D01*
X48514500Y-56147966D01*
X48514500Y-55771781D01*
X57841934Y-55771781D01*
X57860991Y-55916535D01*
X57916864Y-56051423D01*
X57921891Y-56057974D01*
X57983127Y-56137778D01*
X58005745Y-56167255D01*
X58012295Y-56172281D01*
X58012298Y-56172284D01*
X58102498Y-56241497D01*
X58121576Y-56256136D01*
X58256465Y-56312009D01*
X58401219Y-56331066D01*
X58409407Y-56329988D01*
X58537785Y-56313087D01*
X58545973Y-56312009D01*
X58680862Y-56256136D01*
X58699940Y-56241497D01*
X58790140Y-56172284D01*
X58790143Y-56172281D01*
X58796693Y-56167255D01*
X58819312Y-56137778D01*
X58880547Y-56057974D01*
X58885574Y-56051423D01*
X58931936Y-55939498D01*
X58938288Y-55924162D01*
X58938288Y-55924160D01*
X58941447Y-55916535D01*
X58942525Y-55908349D01*
X58944662Y-55900372D01*
X58947288Y-55901076D01*
X58970596Y-55848393D01*
X59029862Y-55809303D01*
X59066792Y-55803770D01*
X61931018Y-55803770D01*
X61999139Y-55823772D01*
X62007722Y-55829808D01*
X62077857Y-55883625D01*
X62212746Y-55939498D01*
X62357500Y-55958555D01*
X62365688Y-55957477D01*
X62494066Y-55940576D01*
X62502254Y-55939498D01*
X62637143Y-55883625D01*
X62683058Y-55848393D01*
X62746421Y-55799773D01*
X62746424Y-55799770D01*
X62752974Y-55794744D01*
X62841855Y-55678912D01*
X62868667Y-55614183D01*
X72324389Y-55614183D01*
X72325912Y-55622607D01*
X72338292Y-55626000D01*
X74978344Y-55626000D01*
X74991875Y-55622027D01*
X74993180Y-55612947D01*
X74951214Y-55445875D01*
X74947894Y-55436124D01*
X74862972Y-55240814D01*
X74858105Y-55231739D01*
X74742426Y-55052926D01*
X74736136Y-55044757D01*
X74592806Y-54887240D01*
X74585273Y-54880215D01*
X74418139Y-54748222D01*
X74409552Y-54742517D01*
X74223117Y-54639599D01*
X74213705Y-54635369D01*
X74099391Y-54594888D01*
X74041855Y-54553294D01*
X74015939Y-54487196D01*
X74029873Y-54417580D01*
X74079232Y-54366549D01*
X74100943Y-54356804D01*
X74111165Y-54353334D01*
X74288276Y-54254147D01*
X74341955Y-54209503D01*
X74432462Y-54134228D01*
X74444345Y-54124345D01*
X74482595Y-54078355D01*
X74570453Y-53972718D01*
X74570455Y-53972715D01*
X74574147Y-53968276D01*
X74664081Y-53807687D01*
X74670510Y-53796208D01*
X74670511Y-53796206D01*
X74673334Y-53791165D01*
X74675190Y-53785698D01*
X74675192Y-53785693D01*
X74736728Y-53604414D01*
X74736729Y-53604409D01*
X74738584Y-53598945D01*
X74739412Y-53593236D01*
X74739413Y-53593231D01*
X74767179Y-53401727D01*
X74767712Y-53398053D01*
X74769232Y-53340000D01*
X74756834Y-53205072D01*
X74751187Y-53143613D01*
X74751186Y-53143610D01*
X74750658Y-53137859D01*
X74749090Y-53132299D01*
X74697125Y-52948046D01*
X74697124Y-52948044D01*
X74695557Y-52942487D01*
X74687808Y-52926772D01*
X74608331Y-52765609D01*
X74605776Y-52760428D01*
X74484320Y-52597779D01*
X74335258Y-52459987D01*
X74330375Y-52456906D01*
X74330371Y-52456903D01*
X74168464Y-52354748D01*
X74163581Y-52351667D01*
X73975039Y-52276446D01*
X73969379Y-52275320D01*
X73969375Y-52275319D01*
X73781613Y-52237971D01*
X73781610Y-52237971D01*
X73775946Y-52236844D01*
X73770171Y-52236768D01*
X73770167Y-52236768D01*
X73668793Y-52235441D01*
X73572971Y-52234187D01*
X73567274Y-52235166D01*
X73567273Y-52235166D01*
X73490926Y-52248285D01*
X73372910Y-52268564D01*
X73182463Y-52338824D01*
X73008010Y-52442612D01*
X73003670Y-52446418D01*
X73003666Y-52446421D01*
X72983723Y-52463911D01*
X72855392Y-52576455D01*
X72729720Y-52735869D01*
X72727031Y-52740980D01*
X72727029Y-52740983D01*
X72714073Y-52765609D01*
X72635203Y-52915515D01*
X72575007Y-53109378D01*
X72551148Y-53310964D01*
X72564424Y-53513522D01*
X72565845Y-53519118D01*
X72565846Y-53519123D01*
X72587293Y-53603568D01*
X72614392Y-53710269D01*
X72616809Y-53715512D01*
X72654010Y-53796208D01*
X72699377Y-53894616D01*
X72713126Y-53914071D01*
X72805900Y-54045343D01*
X72816533Y-54060389D01*
X72961938Y-54202035D01*
X73130720Y-54314812D01*
X73136023Y-54317090D01*
X73136026Y-54317092D01*
X73232954Y-54358735D01*
X73287647Y-54404003D01*
X73309184Y-54471654D01*
X73290727Y-54540210D01*
X73238136Y-54587904D01*
X73222361Y-54594268D01*
X73136868Y-54622212D01*
X73127359Y-54626209D01*
X72938463Y-54724542D01*
X72929738Y-54730036D01*
X72759433Y-54857905D01*
X72751726Y-54864748D01*
X72604590Y-55018717D01*
X72598104Y-55026727D01*
X72478098Y-55202649D01*
X72473000Y-55211623D01*
X72383338Y-55404783D01*
X72379775Y-55414470D01*
X72324389Y-55614183D01*
X62868667Y-55614183D01*
X62897728Y-55544024D01*
X62903555Y-55499767D01*
X62915707Y-55407458D01*
X62916785Y-55399270D01*
X62913101Y-55371284D01*
X62898806Y-55262702D01*
X62898805Y-55262700D01*
X62897728Y-55254516D01*
X62876244Y-55202649D01*
X62845015Y-55127256D01*
X62845014Y-55127254D01*
X62841855Y-55119628D01*
X62786496Y-55047483D01*
X62758001Y-55010347D01*
X62758000Y-55010346D01*
X62752974Y-55003796D01*
X62719296Y-54977954D01*
X62677430Y-54920616D01*
X62673209Y-54849745D01*
X62696040Y-54801289D01*
X62758059Y-54720464D01*
X62758061Y-54720461D01*
X62763089Y-54713908D01*
X62806130Y-54610000D01*
X65480715Y-54610000D01*
X65481793Y-54618188D01*
X65495795Y-54724542D01*
X65499772Y-54754754D01*
X65502931Y-54762380D01*
X65530833Y-54829740D01*
X65555645Y-54889642D01*
X65579412Y-54920616D01*
X65636313Y-54994770D01*
X65644526Y-55005474D01*
X65651076Y-55010500D01*
X65651079Y-55010503D01*
X65753804Y-55089327D01*
X65760357Y-55094355D01*
X65895246Y-55150228D01*
X66040000Y-55169285D01*
X66048188Y-55168207D01*
X66176566Y-55151306D01*
X66184754Y-55150228D01*
X66319643Y-55094355D01*
X66326196Y-55089327D01*
X66428921Y-55010503D01*
X66428924Y-55010500D01*
X66435474Y-55005474D01*
X66443688Y-54994770D01*
X66500588Y-54920616D01*
X66524355Y-54889642D01*
X66549168Y-54829740D01*
X66577069Y-54762380D01*
X66580228Y-54754754D01*
X66584206Y-54724542D01*
X66598207Y-54618188D01*
X66599285Y-54610000D01*
X66591741Y-54552696D01*
X66581306Y-54473432D01*
X66581305Y-54473430D01*
X66580228Y-54465246D01*
X66539346Y-54366549D01*
X66527515Y-54337986D01*
X66527514Y-54337984D01*
X66524355Y-54330358D01*
X66475357Y-54266503D01*
X66440501Y-54221077D01*
X66440500Y-54221076D01*
X66435474Y-54214526D01*
X66428924Y-54209500D01*
X66428921Y-54209497D01*
X66326196Y-54130673D01*
X66326194Y-54130672D01*
X66319643Y-54125645D01*
X66184754Y-54069772D01*
X66144132Y-54064424D01*
X66048188Y-54051793D01*
X66040000Y-54050715D01*
X66031812Y-54051793D01*
X65903432Y-54068694D01*
X65903430Y-54068695D01*
X65895246Y-54069772D01*
X65886664Y-54073327D01*
X65767986Y-54122485D01*
X65767984Y-54122486D01*
X65760358Y-54125645D01*
X65747768Y-54135306D01*
X65666061Y-54198002D01*
X65644526Y-54214526D01*
X65555645Y-54330358D01*
X65552486Y-54337984D01*
X65552485Y-54337986D01*
X65540654Y-54366549D01*
X65499772Y-54465246D01*
X65498695Y-54473430D01*
X65498694Y-54473432D01*
X65488259Y-54552696D01*
X65480715Y-54610000D01*
X62806130Y-54610000D01*
X62818962Y-54579020D01*
X62824072Y-54540210D01*
X62836941Y-54442454D01*
X62838019Y-54434266D01*
X62827364Y-54353334D01*
X62820040Y-54297698D01*
X62820039Y-54297696D01*
X62818962Y-54289512D01*
X62790613Y-54221072D01*
X62766249Y-54162252D01*
X62766248Y-54162250D01*
X62763089Y-54154624D01*
X62674208Y-54038792D01*
X62667658Y-54033766D01*
X62667655Y-54033763D01*
X62564930Y-53954939D01*
X62564928Y-53954938D01*
X62558377Y-53949911D01*
X62423488Y-53894038D01*
X62370462Y-53887057D01*
X62351111Y-53884510D01*
X62278734Y-53874981D01*
X62254989Y-53878107D01*
X62142166Y-53892960D01*
X62142164Y-53892961D01*
X62133980Y-53894038D01*
X62102526Y-53907067D01*
X62006720Y-53946751D01*
X62006718Y-53946752D01*
X61999092Y-53949911D01*
X61883260Y-54038792D01*
X61794379Y-54154624D01*
X61791220Y-54162250D01*
X61791219Y-54162252D01*
X61766855Y-54221072D01*
X61738506Y-54289512D01*
X61737429Y-54297696D01*
X61737428Y-54297698D01*
X61730104Y-54353334D01*
X61719449Y-54434266D01*
X61720527Y-54442454D01*
X61733397Y-54540210D01*
X61738506Y-54579020D01*
X61794379Y-54713908D01*
X61799407Y-54720461D01*
X61799409Y-54720464D01*
X61854351Y-54792066D01*
X61879952Y-54858286D01*
X61865687Y-54927835D01*
X61816086Y-54978631D01*
X61754389Y-54994770D01*
X58709664Y-54994770D01*
X58700231Y-54997835D01*
X58688444Y-55001665D01*
X58669213Y-55006282D01*
X58663093Y-55007251D01*
X58656974Y-55008220D01*
X58656973Y-55008220D01*
X58647175Y-55009772D01*
X58638340Y-55014274D01*
X58638336Y-55014275D01*
X58627287Y-55019905D01*
X58609025Y-55027469D01*
X58597233Y-55031301D01*
X58597231Y-55031302D01*
X58587801Y-55034366D01*
X58573499Y-55044757D01*
X58569747Y-55047483D01*
X58552890Y-55057813D01*
X58533007Y-55067944D01*
X58510219Y-55090732D01*
X58510215Y-55090735D01*
X58416763Y-55184187D01*
X58354451Y-55218213D01*
X58344120Y-55220013D01*
X58306886Y-55224915D01*
X58264651Y-55230475D01*
X58264649Y-55230476D01*
X58256465Y-55231553D01*
X58248838Y-55234712D01*
X58248839Y-55234712D01*
X58129205Y-55284266D01*
X58129203Y-55284267D01*
X58121577Y-55287426D01*
X58005745Y-55376307D01*
X57916864Y-55492139D01*
X57860991Y-55627027D01*
X57859914Y-55635211D01*
X57859913Y-55635213D01*
X57854160Y-55678912D01*
X57841934Y-55771781D01*
X48514500Y-55771781D01*
X48514500Y-55614183D01*
X49464389Y-55614183D01*
X49465912Y-55622607D01*
X49478292Y-55626000D01*
X52118344Y-55626000D01*
X52131875Y-55622027D01*
X52133180Y-55612947D01*
X52091214Y-55445875D01*
X52087894Y-55436124D01*
X52002972Y-55240814D01*
X51998105Y-55231739D01*
X51882426Y-55052926D01*
X51876136Y-55044757D01*
X51732806Y-54887240D01*
X51725273Y-54880215D01*
X51558139Y-54748222D01*
X51549552Y-54742517D01*
X51363117Y-54639599D01*
X51353705Y-54635369D01*
X51239391Y-54594888D01*
X51181855Y-54553294D01*
X51155939Y-54487196D01*
X51169873Y-54417580D01*
X51219232Y-54366549D01*
X51240943Y-54356804D01*
X51251165Y-54353334D01*
X51428276Y-54254147D01*
X51481955Y-54209503D01*
X51572462Y-54134228D01*
X51584345Y-54124345D01*
X51622595Y-54078355D01*
X51710453Y-53972718D01*
X51710455Y-53972715D01*
X51714147Y-53968276D01*
X51804081Y-53807687D01*
X51810510Y-53796208D01*
X51810511Y-53796206D01*
X51813334Y-53791165D01*
X51815190Y-53785698D01*
X51815192Y-53785693D01*
X51876728Y-53604414D01*
X51876729Y-53604409D01*
X51878584Y-53598945D01*
X51879412Y-53593236D01*
X51879413Y-53593231D01*
X51907179Y-53401727D01*
X51907712Y-53398053D01*
X51909232Y-53340000D01*
X51896834Y-53205072D01*
X51891187Y-53143613D01*
X51891186Y-53143610D01*
X51890658Y-53137859D01*
X51889090Y-53132299D01*
X51837125Y-52948046D01*
X51837124Y-52948044D01*
X51835557Y-52942487D01*
X51827808Y-52926772D01*
X51790280Y-52850674D01*
X51778090Y-52780732D01*
X51805649Y-52715302D01*
X51864207Y-52675159D01*
X51935173Y-52673048D01*
X51992381Y-52705851D01*
X53060322Y-53773792D01*
X53067867Y-53783235D01*
X53068246Y-53782912D01*
X53074062Y-53789745D01*
X53078853Y-53797339D01*
X53085583Y-53803283D01*
X53085585Y-53803285D01*
X53118866Y-53832678D01*
X53124554Y-53838024D01*
X53135881Y-53849351D01*
X53139464Y-53852036D01*
X53139466Y-53852038D01*
X53144152Y-53855550D01*
X53151995Y-53861935D01*
X53187170Y-53893001D01*
X53195297Y-53896816D01*
X53198117Y-53898669D01*
X53212094Y-53907067D01*
X53215051Y-53908686D01*
X53222236Y-53914071D01*
X53230646Y-53917224D01*
X53230648Y-53917225D01*
X53266193Y-53930551D01*
X53275506Y-53934475D01*
X53317982Y-53954417D01*
X53326854Y-53955798D01*
X53330084Y-53956786D01*
X53345855Y-53960924D01*
X53349144Y-53961647D01*
X53357552Y-53964799D01*
X53393497Y-53967470D01*
X53404359Y-53968277D01*
X53414407Y-53969431D01*
X53422880Y-53970750D01*
X53422881Y-53970750D01*
X53427697Y-53971500D01*
X53443049Y-53971500D01*
X53452386Y-53971846D01*
X53501667Y-53975508D01*
X53510444Y-53973634D01*
X53519133Y-53973042D01*
X53533742Y-53971500D01*
X54708941Y-53971500D01*
X54777062Y-53991502D01*
X54823555Y-54045158D01*
X54833659Y-54115432D01*
X54832943Y-54118922D01*
X54831772Y-54121749D01*
X54812715Y-54266503D01*
X54813793Y-54274691D01*
X54823775Y-54350510D01*
X54831772Y-54411257D01*
X54834931Y-54418883D01*
X54856790Y-54471654D01*
X54887645Y-54546145D01*
X54892672Y-54552696D01*
X54942926Y-54618188D01*
X54976526Y-54661977D01*
X54983076Y-54667003D01*
X54983079Y-54667006D01*
X55085804Y-54745830D01*
X55092357Y-54750858D01*
X55227246Y-54806731D01*
X55372000Y-54825788D01*
X55380188Y-54824710D01*
X55508566Y-54807809D01*
X55516754Y-54806731D01*
X55651643Y-54750858D01*
X55658196Y-54745830D01*
X55760921Y-54667006D01*
X55760924Y-54667003D01*
X55767474Y-54661977D01*
X55801075Y-54618188D01*
X55851328Y-54552696D01*
X55856355Y-54546145D01*
X55887211Y-54471654D01*
X55909069Y-54418883D01*
X55912228Y-54411257D01*
X55920226Y-54350510D01*
X55930207Y-54274691D01*
X55931285Y-54266503D01*
X55912228Y-54121749D01*
X55886812Y-54060389D01*
X55859515Y-53994489D01*
X55859514Y-53994487D01*
X55856355Y-53986861D01*
X55851327Y-53980308D01*
X55851325Y-53980305D01*
X55823050Y-53943456D01*
X55797449Y-53877236D01*
X55811714Y-53807687D01*
X55823049Y-53790049D01*
X55851326Y-53753197D01*
X55851329Y-53753193D01*
X55856355Y-53746642D01*
X55859623Y-53738754D01*
X55909069Y-53619380D01*
X55912228Y-53611754D01*
X55913488Y-53602188D01*
X55914566Y-53594000D01*
X56844715Y-53594000D01*
X56863772Y-53738754D01*
X56869755Y-53753197D01*
X56914797Y-53861937D01*
X56919645Y-53873642D01*
X56937720Y-53897198D01*
X56997810Y-53975508D01*
X57008526Y-53989474D01*
X57015076Y-53994500D01*
X57015079Y-53994503D01*
X57117804Y-54073327D01*
X57124357Y-54078355D01*
X57259246Y-54134228D01*
X57404000Y-54153285D01*
X57412188Y-54152207D01*
X57443590Y-54148073D01*
X57548754Y-54134228D01*
X57683643Y-54078355D01*
X57690196Y-54073327D01*
X57792921Y-53994503D01*
X57792924Y-53994500D01*
X57799474Y-53989474D01*
X57810191Y-53975508D01*
X57870280Y-53897198D01*
X57888355Y-53873642D01*
X57893204Y-53861937D01*
X57938245Y-53753197D01*
X57944228Y-53738754D01*
X57963285Y-53594000D01*
X57960159Y-53570255D01*
X57945306Y-53457432D01*
X57945305Y-53457430D01*
X57944228Y-53449246D01*
X57900511Y-53343704D01*
X57891515Y-53321986D01*
X57891514Y-53321984D01*
X57888355Y-53314358D01*
X57799474Y-53198526D01*
X57792924Y-53193500D01*
X57792921Y-53193497D01*
X57690196Y-53114673D01*
X57690194Y-53114672D01*
X57683643Y-53109645D01*
X57548754Y-53053772D01*
X57404000Y-53034715D01*
X57395812Y-53035793D01*
X57267432Y-53052694D01*
X57267430Y-53052695D01*
X57259246Y-53053772D01*
X57211430Y-53073578D01*
X57131986Y-53106485D01*
X57131984Y-53106486D01*
X57124358Y-53109645D01*
X57008526Y-53198526D01*
X56919645Y-53314358D01*
X56916486Y-53321984D01*
X56916485Y-53321986D01*
X56907489Y-53343704D01*
X56863772Y-53449246D01*
X56862695Y-53457430D01*
X56862694Y-53457432D01*
X56847841Y-53570255D01*
X56844715Y-53594000D01*
X55914566Y-53594000D01*
X55930207Y-53475188D01*
X55931285Y-53467000D01*
X55915053Y-53343704D01*
X55913306Y-53330432D01*
X55913305Y-53330430D01*
X55912228Y-53322246D01*
X55863695Y-53205077D01*
X55859515Y-53194986D01*
X55859514Y-53194984D01*
X55856355Y-53187358D01*
X55767474Y-53071526D01*
X55760924Y-53066500D01*
X55760921Y-53066497D01*
X55658196Y-52987673D01*
X55658194Y-52987672D01*
X55651643Y-52982645D01*
X55516754Y-52926772D01*
X55473162Y-52921033D01*
X55380188Y-52908793D01*
X55372000Y-52907715D01*
X55363812Y-52908793D01*
X55235432Y-52925694D01*
X55235430Y-52925695D01*
X55227246Y-52926772D01*
X55219617Y-52929932D01*
X55164145Y-52952909D01*
X55115927Y-52962500D01*
X53728161Y-52962500D01*
X53660040Y-52942498D01*
X53639066Y-52925595D01*
X51941405Y-51227934D01*
X51907379Y-51165622D01*
X51904500Y-51138839D01*
X51904499Y-50000500D01*
X59511715Y-50000500D01*
X59512793Y-50008688D01*
X59527714Y-50122023D01*
X59530772Y-50145254D01*
X59533931Y-50152880D01*
X59570314Y-50240715D01*
X59586645Y-50280142D01*
X59617742Y-50320668D01*
X59655183Y-50369462D01*
X59675526Y-50395974D01*
X59682076Y-50401000D01*
X59682079Y-50401003D01*
X59695208Y-50411077D01*
X59791357Y-50484855D01*
X59861253Y-50513807D01*
X59918621Y-50537570D01*
X59918624Y-50537571D01*
X59926246Y-50540728D01*
X59930480Y-50541285D01*
X59989527Y-50577277D01*
X60020548Y-50641138D01*
X60021214Y-50678474D01*
X60005215Y-50800000D01*
X60024272Y-50944754D01*
X60080145Y-51079642D01*
X60169026Y-51195474D01*
X60175576Y-51200500D01*
X60175579Y-51200503D01*
X60232917Y-51244500D01*
X60284857Y-51284355D01*
X60419746Y-51340228D01*
X60564500Y-51359285D01*
X60572688Y-51358207D01*
X60701066Y-51341306D01*
X60709254Y-51340228D01*
X60844143Y-51284355D01*
X60914278Y-51230538D01*
X60980498Y-51204937D01*
X60990982Y-51204500D01*
X62536335Y-51204500D01*
X62604456Y-51224502D01*
X62650949Y-51278158D01*
X62661053Y-51348432D01*
X62641677Y-51394429D01*
X62643801Y-51395655D01*
X62639671Y-51402808D01*
X62634645Y-51409358D01*
X62578772Y-51544246D01*
X62559715Y-51689000D01*
X62578772Y-51833754D01*
X62581931Y-51841380D01*
X62623363Y-51941404D01*
X62634645Y-51968642D01*
X62723526Y-52084474D01*
X62730076Y-52089500D01*
X62730079Y-52089503D01*
X62832804Y-52168327D01*
X62839357Y-52173355D01*
X62974246Y-52229228D01*
X63119000Y-52248285D01*
X63127188Y-52247207D01*
X63255566Y-52230306D01*
X63263754Y-52229228D01*
X63398643Y-52173355D01*
X63405196Y-52168327D01*
X63507921Y-52089503D01*
X63507924Y-52089500D01*
X63514474Y-52084474D01*
X63603355Y-51968642D01*
X63614638Y-51941404D01*
X63656069Y-51841380D01*
X63659228Y-51833754D01*
X63678285Y-51689000D01*
X63659228Y-51544246D01*
X63603355Y-51409358D01*
X63598327Y-51402805D01*
X63598325Y-51402802D01*
X63535713Y-51321204D01*
X63510112Y-51254984D01*
X63524377Y-51185435D01*
X63535713Y-51167796D01*
X63598325Y-51086198D01*
X63598328Y-51086193D01*
X63603355Y-51079642D01*
X63659228Y-50944754D01*
X63678285Y-50800000D01*
X63675159Y-50776255D01*
X63660306Y-50663432D01*
X63660305Y-50663430D01*
X63659228Y-50655246D01*
X63603355Y-50520358D01*
X63514474Y-50404526D01*
X63507924Y-50399500D01*
X63507921Y-50399497D01*
X63405196Y-50320673D01*
X63405194Y-50320672D01*
X63398643Y-50315645D01*
X63263754Y-50259772D01*
X63119000Y-50240715D01*
X63110812Y-50241793D01*
X62982432Y-50258694D01*
X62982430Y-50258695D01*
X62974246Y-50259772D01*
X62839358Y-50315645D01*
X62769220Y-50369464D01*
X62703001Y-50395063D01*
X62692518Y-50395500D01*
X60990982Y-50395500D01*
X60922861Y-50375498D01*
X60914278Y-50369462D01*
X60850696Y-50320673D01*
X60850694Y-50320672D01*
X60844143Y-50315645D01*
X60771662Y-50285622D01*
X60716879Y-50262930D01*
X60716876Y-50262929D01*
X60709254Y-50259772D01*
X60705020Y-50259215D01*
X60645973Y-50223223D01*
X60614952Y-50159362D01*
X60614286Y-50122023D01*
X60629207Y-50008688D01*
X60630285Y-50000500D01*
X60627159Y-49976755D01*
X60620337Y-49924933D01*
X72555500Y-49924933D01*
X72555501Y-51675066D01*
X72570266Y-51749301D01*
X72626516Y-51833484D01*
X72710699Y-51889734D01*
X72784933Y-51904500D01*
X73659858Y-51904500D01*
X74535066Y-51904499D01*
X74570818Y-51897388D01*
X74597126Y-51892156D01*
X74597128Y-51892155D01*
X74609301Y-51889734D01*
X74619621Y-51882839D01*
X74619622Y-51882838D01*
X74683168Y-51840377D01*
X74693484Y-51833484D01*
X74749734Y-51749301D01*
X74764500Y-51675067D01*
X74764499Y-49924934D01*
X74749734Y-49850699D01*
X74693484Y-49766516D01*
X74609301Y-49710266D01*
X74535067Y-49695500D01*
X73660142Y-49695500D01*
X72784934Y-49695501D01*
X72749182Y-49702612D01*
X72722874Y-49707844D01*
X72722872Y-49707845D01*
X72710699Y-49710266D01*
X72700379Y-49717161D01*
X72700378Y-49717162D01*
X72694847Y-49720858D01*
X72626516Y-49766516D01*
X72570266Y-49850699D01*
X72555500Y-49924933D01*
X60620337Y-49924933D01*
X60612306Y-49863932D01*
X60612305Y-49863930D01*
X60611228Y-49855746D01*
X60591422Y-49807930D01*
X60558515Y-49728486D01*
X60558514Y-49728484D01*
X60555355Y-49720858D01*
X60466474Y-49605026D01*
X60459924Y-49600000D01*
X60459921Y-49599997D01*
X60357196Y-49521173D01*
X60357194Y-49521172D01*
X60350643Y-49516145D01*
X60215754Y-49460272D01*
X60071000Y-49441215D01*
X60062812Y-49442293D01*
X59934432Y-49459194D01*
X59934430Y-49459195D01*
X59926246Y-49460272D01*
X59878430Y-49480078D01*
X59798986Y-49512985D01*
X59798984Y-49512986D01*
X59791358Y-49516145D01*
X59675526Y-49605026D01*
X59586645Y-49720858D01*
X59583486Y-49728484D01*
X59583485Y-49728486D01*
X59550578Y-49807930D01*
X59530772Y-49855746D01*
X59529695Y-49863930D01*
X59529694Y-49863932D01*
X59514841Y-49976755D01*
X59511715Y-50000500D01*
X51904499Y-50000500D01*
X51904499Y-49931123D01*
X51904499Y-49924934D01*
X51889734Y-49850699D01*
X51833484Y-49766516D01*
X51749301Y-49710266D01*
X51675067Y-49695500D01*
X50800142Y-49695500D01*
X49924934Y-49695501D01*
X49889182Y-49702612D01*
X49862874Y-49707844D01*
X49862872Y-49707845D01*
X49850699Y-49710266D01*
X49840379Y-49717161D01*
X49840378Y-49717162D01*
X49834847Y-49720858D01*
X49766516Y-49766516D01*
X49710266Y-49850699D01*
X49695500Y-49924933D01*
X49695501Y-51675066D01*
X49710266Y-51749301D01*
X49766516Y-51833484D01*
X49850699Y-51889734D01*
X49924933Y-51904500D01*
X50059118Y-51904500D01*
X51138839Y-51904499D01*
X51206960Y-51924501D01*
X51227934Y-51941404D01*
X51427230Y-52140700D01*
X51461256Y-52203012D01*
X51456191Y-52273827D01*
X51413644Y-52330663D01*
X51347124Y-52355474D01*
X51291445Y-52346825D01*
X51120403Y-52278586D01*
X51115039Y-52276446D01*
X51109379Y-52275320D01*
X51109375Y-52275319D01*
X50921613Y-52237971D01*
X50921610Y-52237971D01*
X50915946Y-52236844D01*
X50910171Y-52236768D01*
X50910167Y-52236768D01*
X50808793Y-52235441D01*
X50712971Y-52234187D01*
X50707274Y-52235166D01*
X50707273Y-52235166D01*
X50630926Y-52248285D01*
X50512910Y-52268564D01*
X50322463Y-52338824D01*
X50148010Y-52442612D01*
X50143670Y-52446418D01*
X50143666Y-52446421D01*
X50123723Y-52463911D01*
X49995392Y-52576455D01*
X49869720Y-52735869D01*
X49867031Y-52740980D01*
X49867029Y-52740983D01*
X49854073Y-52765609D01*
X49775203Y-52915515D01*
X49715007Y-53109378D01*
X49691148Y-53310964D01*
X49704424Y-53513522D01*
X49705845Y-53519118D01*
X49705846Y-53519123D01*
X49727293Y-53603568D01*
X49754392Y-53710269D01*
X49756809Y-53715512D01*
X49794010Y-53796208D01*
X49839377Y-53894616D01*
X49853126Y-53914071D01*
X49945900Y-54045343D01*
X49956533Y-54060389D01*
X50101938Y-54202035D01*
X50270720Y-54314812D01*
X50276023Y-54317090D01*
X50276026Y-54317092D01*
X50372954Y-54358735D01*
X50427647Y-54404003D01*
X50449184Y-54471654D01*
X50430727Y-54540210D01*
X50378136Y-54587904D01*
X50362361Y-54594268D01*
X50276868Y-54622212D01*
X50267359Y-54626209D01*
X50078463Y-54724542D01*
X50069738Y-54730036D01*
X49899433Y-54857905D01*
X49891726Y-54864748D01*
X49744590Y-55018717D01*
X49738104Y-55026727D01*
X49618098Y-55202649D01*
X49613000Y-55211623D01*
X49523338Y-55404783D01*
X49519775Y-55414470D01*
X49464389Y-55614183D01*
X48514500Y-55614183D01*
X48514500Y-46355000D01*
X59765715Y-46355000D01*
X59784772Y-46499754D01*
X59840645Y-46634642D01*
X59929526Y-46750474D01*
X59936076Y-46755500D01*
X59936079Y-46755503D01*
X60038804Y-46834327D01*
X60045357Y-46839355D01*
X60180246Y-46895228D01*
X60325000Y-46914285D01*
X60333188Y-46913207D01*
X60461566Y-46896306D01*
X60469754Y-46895228D01*
X60604643Y-46839355D01*
X60611196Y-46834327D01*
X60713921Y-46755503D01*
X60713924Y-46755500D01*
X60720474Y-46750474D01*
X60809355Y-46634642D01*
X60865228Y-46499754D01*
X60884285Y-46355000D01*
X60865228Y-46210246D01*
X60809355Y-46075358D01*
X60720474Y-45959526D01*
X60713924Y-45954500D01*
X60713921Y-45954497D01*
X60611196Y-45875673D01*
X60611194Y-45875672D01*
X60604643Y-45870645D01*
X60469754Y-45814772D01*
X60325000Y-45795715D01*
X60316812Y-45796793D01*
X60188432Y-45813694D01*
X60188430Y-45813695D01*
X60180246Y-45814772D01*
X60132430Y-45834578D01*
X60052986Y-45867485D01*
X60052984Y-45867486D01*
X60045358Y-45870645D01*
X59929526Y-45959526D01*
X59840645Y-46075358D01*
X59784772Y-46210246D01*
X59765715Y-46355000D01*
X48514500Y-46355000D01*
X48514500Y-43223233D01*
X51434906Y-43223233D01*
X51461102Y-43497792D01*
X51462187Y-43502226D01*
X51462188Y-43502232D01*
X51497397Y-43646117D01*
X51526657Y-43765694D01*
X51630199Y-44021326D01*
X51632500Y-44025256D01*
X51632503Y-44025262D01*
X51767255Y-44255403D01*
X51767260Y-44255410D01*
X51769558Y-44259335D01*
X51772405Y-44262895D01*
X51890028Y-44409974D01*
X51941816Y-44474732D01*
X52143364Y-44663008D01*
X52369979Y-44820216D01*
X52374055Y-44822244D01*
X52374057Y-44822245D01*
X52612827Y-44941032D01*
X52612830Y-44941033D01*
X52616914Y-44943065D01*
X52878998Y-45028980D01*
X52883489Y-45029760D01*
X52883490Y-45029760D01*
X53146957Y-45075506D01*
X53146965Y-45075507D01*
X53150738Y-45076162D01*
X53154575Y-45076353D01*
X53236305Y-45080422D01*
X53236313Y-45080422D01*
X53237876Y-45080500D01*
X53410070Y-45080500D01*
X53412338Y-45080335D01*
X53412350Y-45080335D01*
X53546603Y-45070594D01*
X53615083Y-45065625D01*
X53619538Y-45064641D01*
X53619541Y-45064641D01*
X53879947Y-45007148D01*
X53879950Y-45007147D01*
X53884403Y-45006164D01*
X54142319Y-44908449D01*
X54383428Y-44774525D01*
X54602678Y-44607198D01*
X54605873Y-44603930D01*
X54792283Y-44413242D01*
X54792287Y-44413237D01*
X54795477Y-44409974D01*
X54866180Y-44312839D01*
X54955100Y-44190676D01*
X54955102Y-44190673D01*
X54957787Y-44186984D01*
X55086206Y-43942899D01*
X55178045Y-43682832D01*
X55214516Y-43497792D01*
X55230499Y-43416704D01*
X55230500Y-43416698D01*
X55231380Y-43412232D01*
X55237122Y-43296895D01*
X55244453Y-43149649D01*
X59800951Y-43149649D01*
X59814829Y-43361377D01*
X59867058Y-43567031D01*
X59955890Y-43759723D01*
X60078350Y-43933000D01*
X60230337Y-44081059D01*
X60235133Y-44084264D01*
X60235136Y-44084266D01*
X60359145Y-44167126D01*
X60406760Y-44198941D01*
X60412063Y-44201219D01*
X60412066Y-44201221D01*
X60493908Y-44236383D01*
X60601711Y-44282699D01*
X60677750Y-44299905D01*
X60803025Y-44328252D01*
X60803030Y-44328253D01*
X60808662Y-44329527D01*
X60814433Y-44329754D01*
X60814435Y-44329754D01*
X60879911Y-44332326D01*
X61020681Y-44337857D01*
X61128974Y-44322155D01*
X61224953Y-44308239D01*
X61224958Y-44308238D01*
X61230667Y-44307410D01*
X61236131Y-44305555D01*
X61236136Y-44305554D01*
X61360070Y-44263484D01*
X61431589Y-44239207D01*
X61509221Y-44195731D01*
X61611670Y-44138357D01*
X61611674Y-44138354D01*
X61616717Y-44135530D01*
X61779852Y-43999852D01*
X61915530Y-43836717D01*
X61918354Y-43831674D01*
X61918357Y-43831670D01*
X62016383Y-43656632D01*
X62016384Y-43656630D01*
X62019207Y-43651589D01*
X62069906Y-43502232D01*
X62085554Y-43456136D01*
X62085555Y-43456131D01*
X62087410Y-43450667D01*
X62092983Y-43412232D01*
X62094805Y-43399667D01*
X62124376Y-43335121D01*
X62184148Y-43296809D01*
X62255144Y-43296895D01*
X62314824Y-43335350D01*
X62344240Y-43399966D01*
X62345501Y-43417743D01*
X62345501Y-44105066D01*
X62360266Y-44179301D01*
X62367161Y-44189620D01*
X62367162Y-44189622D01*
X62398407Y-44236383D01*
X62416516Y-44263484D01*
X62500699Y-44319734D01*
X62574933Y-44334500D01*
X63499850Y-44334500D01*
X64425066Y-44334499D01*
X64460818Y-44327388D01*
X64487126Y-44322156D01*
X64487128Y-44322155D01*
X64499301Y-44319734D01*
X64509621Y-44312839D01*
X64509622Y-44312838D01*
X64573168Y-44270377D01*
X64583484Y-44263484D01*
X64639734Y-44179301D01*
X64654500Y-44105067D01*
X64654500Y-43223233D01*
X69214906Y-43223233D01*
X69241102Y-43497792D01*
X69242187Y-43502226D01*
X69242188Y-43502232D01*
X69277397Y-43646117D01*
X69306657Y-43765694D01*
X69410199Y-44021326D01*
X69412500Y-44025256D01*
X69412503Y-44025262D01*
X69547255Y-44255403D01*
X69547260Y-44255410D01*
X69549558Y-44259335D01*
X69552405Y-44262895D01*
X69670028Y-44409974D01*
X69721816Y-44474732D01*
X69923364Y-44663008D01*
X70149979Y-44820216D01*
X70154055Y-44822244D01*
X70154057Y-44822245D01*
X70392827Y-44941032D01*
X70392830Y-44941033D01*
X70396914Y-44943065D01*
X70658998Y-45028980D01*
X70663489Y-45029760D01*
X70663490Y-45029760D01*
X70926957Y-45075506D01*
X70926965Y-45075507D01*
X70930738Y-45076162D01*
X70934575Y-45076353D01*
X71016305Y-45080422D01*
X71016313Y-45080422D01*
X71017876Y-45080500D01*
X71190070Y-45080500D01*
X71192338Y-45080335D01*
X71192350Y-45080335D01*
X71326603Y-45070594D01*
X71395083Y-45065625D01*
X71399538Y-45064641D01*
X71399541Y-45064641D01*
X71659947Y-45007148D01*
X71659950Y-45007147D01*
X71664403Y-45006164D01*
X71922319Y-44908449D01*
X72163428Y-44774525D01*
X72382678Y-44607198D01*
X72385873Y-44603930D01*
X72572283Y-44413242D01*
X72572287Y-44413237D01*
X72575477Y-44409974D01*
X72646180Y-44312839D01*
X72735100Y-44190676D01*
X72735102Y-44190673D01*
X72737787Y-44186984D01*
X72866206Y-43942899D01*
X72958045Y-43682832D01*
X72994516Y-43497792D01*
X73010499Y-43416704D01*
X73010500Y-43416698D01*
X73011380Y-43412232D01*
X73017122Y-43296895D01*
X73024867Y-43141336D01*
X73024867Y-43141330D01*
X73025094Y-43136767D01*
X72998898Y-42862208D01*
X72975094Y-42764926D01*
X72934429Y-42598744D01*
X72933343Y-42594306D01*
X72829801Y-42338674D01*
X72827500Y-42334744D01*
X72827497Y-42334738D01*
X72692745Y-42104597D01*
X72692740Y-42104590D01*
X72690442Y-42100665D01*
X72640203Y-42037844D01*
X72521036Y-41888834D01*
X72521035Y-41888833D01*
X72518184Y-41885268D01*
X72316636Y-41696992D01*
X72090021Y-41539784D01*
X72085943Y-41537755D01*
X71847173Y-41418968D01*
X71847170Y-41418967D01*
X71843086Y-41416935D01*
X71581002Y-41331020D01*
X71576510Y-41330240D01*
X71313043Y-41284494D01*
X71313035Y-41284493D01*
X71309262Y-41283838D01*
X71299029Y-41283329D01*
X71223695Y-41279578D01*
X71223687Y-41279578D01*
X71222124Y-41279500D01*
X71049930Y-41279500D01*
X71047662Y-41279665D01*
X71047650Y-41279665D01*
X70913397Y-41289406D01*
X70844917Y-41294375D01*
X70840462Y-41295359D01*
X70840459Y-41295359D01*
X70580053Y-41352852D01*
X70580050Y-41352853D01*
X70575597Y-41353836D01*
X70317681Y-41451551D01*
X70313694Y-41453765D01*
X70313693Y-41453766D01*
X70085916Y-41580285D01*
X70076572Y-41585475D01*
X69857322Y-41752802D01*
X69854129Y-41756068D01*
X69854127Y-41756070D01*
X69667717Y-41946758D01*
X69667713Y-41946763D01*
X69664523Y-41950026D01*
X69661836Y-41953718D01*
X69661834Y-41953720D01*
X69518961Y-42150007D01*
X69502213Y-42173016D01*
X69373794Y-42417101D01*
X69281955Y-42677168D01*
X69265741Y-42759430D01*
X69231448Y-42933421D01*
X69228620Y-42947768D01*
X69228393Y-42952322D01*
X69228393Y-42952324D01*
X69215193Y-43217476D01*
X69214906Y-43223233D01*
X64654500Y-43223233D01*
X64654499Y-42254934D01*
X64639734Y-42180699D01*
X64632134Y-42169324D01*
X64590377Y-42106832D01*
X64583484Y-42096516D01*
X64499301Y-42040266D01*
X64425067Y-42025500D01*
X63500150Y-42025500D01*
X62574934Y-42025501D01*
X62539182Y-42032612D01*
X62512874Y-42037844D01*
X62512872Y-42037845D01*
X62500699Y-42040266D01*
X62490379Y-42047161D01*
X62490378Y-42047162D01*
X62455541Y-42070440D01*
X62416516Y-42096516D01*
X62360266Y-42180699D01*
X62345500Y-42254933D01*
X62345500Y-42928125D01*
X62325498Y-42996246D01*
X62271842Y-43042739D01*
X62201568Y-43052843D01*
X62136988Y-43023349D01*
X62098231Y-42962326D01*
X62044005Y-42770053D01*
X62044003Y-42770047D01*
X62042436Y-42764492D01*
X62037251Y-42753976D01*
X61951145Y-42579372D01*
X61948590Y-42574191D01*
X61821636Y-42404179D01*
X61797524Y-42381890D01*
X61670066Y-42264069D01*
X61670063Y-42264067D01*
X61665826Y-42260150D01*
X61486377Y-42146926D01*
X61289300Y-42068300D01*
X61283643Y-42067175D01*
X61283637Y-42067173D01*
X61086863Y-42028033D01*
X61086859Y-42028033D01*
X61081195Y-42026906D01*
X61075420Y-42026830D01*
X61075416Y-42026830D01*
X60968804Y-42025434D01*
X60869031Y-42024128D01*
X60863334Y-42025107D01*
X60863333Y-42025107D01*
X60665610Y-42059082D01*
X60659913Y-42060061D01*
X60460846Y-42133501D01*
X60455885Y-42136453D01*
X60455884Y-42136453D01*
X60283463Y-42239032D01*
X60283460Y-42239034D01*
X60278495Y-42241988D01*
X60274155Y-42245794D01*
X60274151Y-42245797D01*
X60210955Y-42301219D01*
X60118968Y-42381890D01*
X59987607Y-42548520D01*
X59888812Y-42736299D01*
X59887100Y-42741813D01*
X59829249Y-42928125D01*
X59825891Y-42938938D01*
X59800951Y-43149649D01*
X55244453Y-43149649D01*
X55244867Y-43141336D01*
X55244867Y-43141330D01*
X55245094Y-43136767D01*
X55218898Y-42862208D01*
X55195094Y-42764926D01*
X55154429Y-42598744D01*
X55153343Y-42594306D01*
X55049801Y-42338674D01*
X55047500Y-42334744D01*
X55047497Y-42334738D01*
X54912745Y-42104597D01*
X54912740Y-42104590D01*
X54910442Y-42100665D01*
X54860203Y-42037844D01*
X54741036Y-41888834D01*
X54741035Y-41888833D01*
X54738184Y-41885268D01*
X54536636Y-41696992D01*
X54310021Y-41539784D01*
X54305943Y-41537755D01*
X54067173Y-41418968D01*
X54067170Y-41418967D01*
X54063086Y-41416935D01*
X53801002Y-41331020D01*
X53796510Y-41330240D01*
X53533043Y-41284494D01*
X53533035Y-41284493D01*
X53529262Y-41283838D01*
X53519029Y-41283329D01*
X53443695Y-41279578D01*
X53443687Y-41279578D01*
X53442124Y-41279500D01*
X53269930Y-41279500D01*
X53267662Y-41279665D01*
X53267650Y-41279665D01*
X53133397Y-41289406D01*
X53064917Y-41294375D01*
X53060462Y-41295359D01*
X53060459Y-41295359D01*
X52800053Y-41352852D01*
X52800050Y-41352853D01*
X52795597Y-41353836D01*
X52537681Y-41451551D01*
X52533694Y-41453765D01*
X52533693Y-41453766D01*
X52305916Y-41580285D01*
X52296572Y-41585475D01*
X52077322Y-41752802D01*
X52074129Y-41756068D01*
X52074127Y-41756070D01*
X51887717Y-41946758D01*
X51887713Y-41946763D01*
X51884523Y-41950026D01*
X51881836Y-41953718D01*
X51881834Y-41953720D01*
X51738961Y-42150007D01*
X51722213Y-42173016D01*
X51593794Y-42417101D01*
X51501955Y-42677168D01*
X51485741Y-42759430D01*
X51451448Y-42933421D01*
X51448620Y-42947768D01*
X51448393Y-42952322D01*
X51448393Y-42952324D01*
X51435193Y-43217476D01*
X51434906Y-43223233D01*
X48514500Y-43223233D01*
X48514500Y-43217476D01*
X48516921Y-43192894D01*
X48517065Y-43192170D01*
X48519486Y-43180000D01*
X48517065Y-43167830D01*
X48517065Y-43157401D01*
X48516060Y-43144265D01*
X48532622Y-42764926D01*
X48533580Y-42753976D01*
X48577365Y-42421397D01*
X48587093Y-42347504D01*
X48588999Y-42336699D01*
X48677736Y-41936434D01*
X48680579Y-41925823D01*
X48736006Y-41750030D01*
X48803860Y-41534825D01*
X48807616Y-41524504D01*
X48815548Y-41505355D01*
X48964513Y-41145723D01*
X48969155Y-41135770D01*
X49028901Y-41021000D01*
X58368715Y-41021000D01*
X58369793Y-41029188D01*
X58383825Y-41135770D01*
X58387772Y-41165754D01*
X58390931Y-41173380D01*
X58434888Y-41279500D01*
X58443645Y-41300642D01*
X58532526Y-41416474D01*
X58539076Y-41421500D01*
X58539079Y-41421503D01*
X58581125Y-41453766D01*
X58648357Y-41505355D01*
X58783246Y-41561228D01*
X58928000Y-41580285D01*
X58936188Y-41579207D01*
X59064566Y-41562306D01*
X59072754Y-41561228D01*
X59207643Y-41505355D01*
X59274875Y-41453766D01*
X59316921Y-41421503D01*
X59316924Y-41421500D01*
X59323474Y-41416474D01*
X59412355Y-41300642D01*
X59421113Y-41279500D01*
X59465069Y-41173380D01*
X59468228Y-41165754D01*
X59472176Y-41135770D01*
X59486207Y-41029188D01*
X59487285Y-41021000D01*
X64845715Y-41021000D01*
X64846793Y-41029188D01*
X64860825Y-41135770D01*
X64864772Y-41165754D01*
X64867931Y-41173380D01*
X64911888Y-41279500D01*
X64920645Y-41300642D01*
X65009526Y-41416474D01*
X65016076Y-41421500D01*
X65016079Y-41421503D01*
X65058125Y-41453766D01*
X65125357Y-41505355D01*
X65260246Y-41561228D01*
X65405000Y-41580285D01*
X65413188Y-41579207D01*
X65541566Y-41562306D01*
X65549754Y-41561228D01*
X65684643Y-41505355D01*
X65751875Y-41453766D01*
X65793921Y-41421503D01*
X65793924Y-41421500D01*
X65800474Y-41416474D01*
X65889355Y-41300642D01*
X65898113Y-41279500D01*
X65942069Y-41173380D01*
X65945228Y-41165754D01*
X65949176Y-41135770D01*
X65963207Y-41029188D01*
X65964285Y-41021000D01*
X65945228Y-40876246D01*
X65889355Y-40741358D01*
X65800474Y-40625526D01*
X65793924Y-40620500D01*
X65793921Y-40620497D01*
X65691196Y-40541673D01*
X65691194Y-40541672D01*
X65684643Y-40536645D01*
X65549754Y-40480772D01*
X65405000Y-40461715D01*
X65396812Y-40462793D01*
X65268432Y-40479694D01*
X65268430Y-40479695D01*
X65260246Y-40480772D01*
X65212430Y-40500578D01*
X65132986Y-40533485D01*
X65132984Y-40533486D01*
X65125358Y-40536645D01*
X65009526Y-40625526D01*
X64920645Y-40741358D01*
X64864772Y-40876246D01*
X64845715Y-41021000D01*
X59487285Y-41021000D01*
X59468228Y-40876246D01*
X59412355Y-40741358D01*
X59323474Y-40625526D01*
X59316924Y-40620500D01*
X59316921Y-40620497D01*
X59214196Y-40541673D01*
X59214194Y-40541672D01*
X59207643Y-40536645D01*
X59072754Y-40480772D01*
X58928000Y-40461715D01*
X58919812Y-40462793D01*
X58791432Y-40479694D01*
X58791430Y-40479695D01*
X58783246Y-40480772D01*
X58735430Y-40500578D01*
X58655986Y-40533485D01*
X58655984Y-40533486D01*
X58648358Y-40536645D01*
X58532526Y-40625526D01*
X58443645Y-40741358D01*
X58387772Y-40876246D01*
X58368715Y-41021000D01*
X49028901Y-41021000D01*
X49158453Y-40772132D01*
X49163948Y-40762613D01*
X49181663Y-40734807D01*
X49304703Y-40541673D01*
X49384223Y-40416852D01*
X49390527Y-40407848D01*
X49640108Y-40082587D01*
X49647174Y-40074167D01*
X49924143Y-39771908D01*
X49931912Y-39764139D01*
X50150379Y-39563952D01*
X50234170Y-39487172D01*
X50242587Y-39480108D01*
X50567848Y-39230527D01*
X50576852Y-39224223D01*
X50922613Y-39003948D01*
X50932133Y-38998452D01*
X50993069Y-38966731D01*
X51295779Y-38809151D01*
X51305723Y-38804513D01*
X51684512Y-38647613D01*
X51694825Y-38643860D01*
X52085824Y-38520579D01*
X52096434Y-38517736D01*
X52496699Y-38428999D01*
X52507504Y-38427093D01*
X52913977Y-38373580D01*
X52924925Y-38372622D01*
X52981400Y-38370156D01*
X53304265Y-38356060D01*
X53317401Y-38357065D01*
X53327830Y-38357065D01*
X53340000Y-38359486D01*
X53352897Y-38356921D01*
X53377476Y-38354500D01*
X71082524Y-38354500D01*
X71107103Y-38356921D01*
G37*
%TD.AperFunction*%
%TD*%
M02*
