%TF.GenerationSoftware,KiCad,Pcbnew,(6.0.9-0)*%
%TF.CreationDate,2024-06-20T10:44:06+02:00*%
%TF.ProjectId,follower-board,666f6c6c-6f77-4657-922d-626f6172642e,rev?*%
%TF.SameCoordinates,Original*%
%TF.FileFunction,Legend,Bot*%
%TF.FilePolarity,Positive*%
%FSLAX46Y46*%
G04 Gerber Fmt 4.6, Leading zero omitted, Abs format (unit mm)*
G04 Created by KiCad (PCBNEW (6.0.9-0)) date 2024-06-20 10:44:06*
%MOMM*%
%LPD*%
G01*
G04 APERTURE LIST*
%ADD10C,0.150000*%
%ADD11C,0.010000*%
%ADD12C,3.200000*%
%ADD13R,1.800000X1.800000*%
%ADD14C,1.800000*%
%ADD15C,5.500000*%
%ADD16R,1.700000X1.700000*%
%ADD17O,1.700000X1.700000*%
G04 APERTURE END LIST*
D10*
X67944285Y-87415714D02*
X67944285Y-88415714D01*
X67944285Y-87463333D02*
X67849047Y-87415714D01*
X67658571Y-87415714D01*
X67563333Y-87463333D01*
X67515714Y-87510952D01*
X67468095Y-87606190D01*
X67468095Y-87891904D01*
X67515714Y-87987142D01*
X67563333Y-88034761D01*
X67658571Y-88082380D01*
X67849047Y-88082380D01*
X67944285Y-88034761D01*
X66658571Y-88034761D02*
X66753809Y-88082380D01*
X66944285Y-88082380D01*
X67039523Y-88034761D01*
X67087142Y-87939523D01*
X67087142Y-87558571D01*
X67039523Y-87463333D01*
X66944285Y-87415714D01*
X66753809Y-87415714D01*
X66658571Y-87463333D01*
X66610952Y-87558571D01*
X66610952Y-87653809D01*
X67087142Y-87749047D01*
X65753809Y-88082380D02*
X65753809Y-87082380D01*
X65753809Y-88034761D02*
X65849047Y-88082380D01*
X66039523Y-88082380D01*
X66134761Y-88034761D01*
X66182380Y-87987142D01*
X66230000Y-87891904D01*
X66230000Y-87606190D01*
X66182380Y-87510952D01*
X66134761Y-87463333D01*
X66039523Y-87415714D01*
X65849047Y-87415714D01*
X65753809Y-87463333D01*
X64849047Y-88082380D02*
X64849047Y-87558571D01*
X64896666Y-87463333D01*
X64991904Y-87415714D01*
X65182380Y-87415714D01*
X65277619Y-87463333D01*
X64849047Y-88034761D02*
X64944285Y-88082380D01*
X65182380Y-88082380D01*
X65277619Y-88034761D01*
X65325238Y-87939523D01*
X65325238Y-87844285D01*
X65277619Y-87749047D01*
X65182380Y-87701428D01*
X64944285Y-87701428D01*
X64849047Y-87653809D01*
X64230000Y-88082380D02*
X64325238Y-88034761D01*
X64372857Y-87939523D01*
X64372857Y-87082380D01*
X63849047Y-88082380D02*
X63849047Y-87415714D01*
X63849047Y-87510952D02*
X63801428Y-87463333D01*
X63706190Y-87415714D01*
X63563333Y-87415714D01*
X63468095Y-87463333D01*
X63420476Y-87558571D01*
X63420476Y-88082380D01*
X63420476Y-87558571D02*
X63372857Y-87463333D01*
X63277619Y-87415714D01*
X63134761Y-87415714D01*
X63039523Y-87463333D01*
X62991904Y-87558571D01*
X62991904Y-88082380D01*
X62087142Y-88082380D02*
X62087142Y-87558571D01*
X62134761Y-87463333D01*
X62230000Y-87415714D01*
X62420476Y-87415714D01*
X62515714Y-87463333D01*
X62087142Y-88034761D02*
X62182380Y-88082380D01*
X62420476Y-88082380D01*
X62515714Y-88034761D01*
X62563333Y-87939523D01*
X62563333Y-87844285D01*
X62515714Y-87749047D01*
X62420476Y-87701428D01*
X62182380Y-87701428D01*
X62087142Y-87653809D01*
X61610952Y-88082380D02*
X61610952Y-87415714D01*
X61610952Y-87606190D02*
X61563333Y-87510952D01*
X61515714Y-87463333D01*
X61420476Y-87415714D01*
X61325238Y-87415714D01*
X60991904Y-88082380D02*
X60991904Y-87082380D01*
X60896666Y-87701428D02*
X60610952Y-88082380D01*
X60610952Y-87415714D02*
X60991904Y-87796666D01*
X60325238Y-87415714D02*
X59944285Y-87415714D01*
X60182380Y-87082380D02*
X60182380Y-87939523D01*
X60134761Y-88034761D01*
X60039523Y-88082380D01*
X59944285Y-88082380D01*
X59610952Y-87987142D02*
X59563333Y-88034761D01*
X59610952Y-88082380D01*
X59658571Y-88034761D01*
X59610952Y-87987142D01*
X59610952Y-88082380D01*
X58706190Y-88034761D02*
X58801428Y-88082380D01*
X58991904Y-88082380D01*
X59087142Y-88034761D01*
X59134761Y-87987142D01*
X59182380Y-87891904D01*
X59182380Y-87606190D01*
X59134761Y-87510952D01*
X59087142Y-87463333D01*
X58991904Y-87415714D01*
X58801428Y-87415714D01*
X58706190Y-87463333D01*
X58134761Y-88082380D02*
X58230000Y-88034761D01*
X58277619Y-87987142D01*
X58325238Y-87891904D01*
X58325238Y-87606190D01*
X58277619Y-87510952D01*
X58230000Y-87463333D01*
X58134761Y-87415714D01*
X57991904Y-87415714D01*
X57896666Y-87463333D01*
X57849047Y-87510952D01*
X57801428Y-87606190D01*
X57801428Y-87891904D01*
X57849047Y-87987142D01*
X57896666Y-88034761D01*
X57991904Y-88082380D01*
X58134761Y-88082380D01*
X57372857Y-88082380D02*
X57372857Y-87415714D01*
X57372857Y-87510952D02*
X57325238Y-87463333D01*
X57230000Y-87415714D01*
X57087142Y-87415714D01*
X56991904Y-87463333D01*
X56944285Y-87558571D01*
X56944285Y-88082380D01*
X56944285Y-87558571D02*
X56896666Y-87463333D01*
X56801428Y-87415714D01*
X56658571Y-87415714D01*
X56563333Y-87463333D01*
X56515714Y-87558571D01*
X56515714Y-88082380D01*
X73467142Y-41101428D02*
X74067142Y-41315714D01*
X73467142Y-41530000D01*
X74067142Y-42344285D02*
X74067142Y-41830000D01*
X74067142Y-42087142D02*
X73167142Y-42087142D01*
X73295714Y-42001428D01*
X73381428Y-41915714D01*
X73424285Y-41830000D01*
X74067142Y-42730000D02*
X73467142Y-42730000D01*
X73638571Y-42730000D02*
X73552857Y-42772857D01*
X73510000Y-42815714D01*
X73467142Y-42901428D01*
X73467142Y-42987142D01*
X74024285Y-43630000D02*
X74067142Y-43544285D01*
X74067142Y-43372857D01*
X74024285Y-43287142D01*
X73938571Y-43244285D01*
X73595714Y-43244285D01*
X73510000Y-43287142D01*
X73467142Y-43372857D01*
X73467142Y-43544285D01*
X73510000Y-43630000D01*
X73595714Y-43672857D01*
X73681428Y-43672857D01*
X73767142Y-43244285D01*
X73467142Y-43972857D02*
X74067142Y-44187142D01*
X73467142Y-44401428D01*
X74067142Y-45215714D02*
X74067142Y-44701428D01*
X74067142Y-44958571D02*
X73167142Y-44958571D01*
X73295714Y-44872857D01*
X73381428Y-44787142D01*
X73424285Y-44701428D01*
%TO.C,kibuzzard-666B0D69*%
G36*
X67295999Y-60960000D02*
G01*
X67298116Y-60956825D01*
X68869697Y-60956825D01*
X68877287Y-61079410D01*
X68900058Y-61188402D01*
X68938009Y-61283800D01*
X68991140Y-61365606D01*
X69058857Y-61431239D01*
X69140564Y-61478120D01*
X69236260Y-61506249D01*
X69345947Y-61515625D01*
X69626934Y-61515625D01*
X69849184Y-61515625D01*
X70017459Y-61515625D01*
X70412747Y-60721875D01*
X70423859Y-60721875D01*
X70423859Y-61515625D01*
X70579434Y-61515625D01*
X70788984Y-61515625D01*
X70917572Y-61515625D01*
X70936622Y-61420375D01*
X70947734Y-61420375D01*
X71026315Y-61494988D01*
X71095570Y-61522372D01*
X71184272Y-61531500D01*
X71296720Y-61515537D01*
X71390647Y-61467647D01*
X71466053Y-61387831D01*
X71509461Y-61308407D01*
X71540467Y-61213802D01*
X71559071Y-61104016D01*
X71565272Y-60979050D01*
X71558426Y-60847734D01*
X71537887Y-60731598D01*
X71503657Y-60630643D01*
X71455734Y-60544869D01*
X71373361Y-60457997D01*
X71272290Y-60405874D01*
X71152522Y-60388500D01*
X71059212Y-60398466D01*
X70978249Y-60428364D01*
X70909634Y-60478194D01*
X70855483Y-60545839D01*
X70817912Y-60629183D01*
X70796922Y-60728225D01*
X70971547Y-60728225D01*
X71009294Y-60625037D01*
X71069619Y-60563125D01*
X71152522Y-60542488D01*
X71254122Y-60570467D01*
X71330322Y-60654406D01*
X71365599Y-60740219D01*
X71386766Y-60848434D01*
X71393822Y-60979050D01*
X71384233Y-61124782D01*
X71355468Y-61238130D01*
X71307525Y-61319093D01*
X71240406Y-61367670D01*
X71154109Y-61383863D01*
X71070170Y-61368781D01*
X71005678Y-61323538D01*
X70964601Y-61250116D01*
X70950909Y-61150500D01*
X70950909Y-61061600D01*
X71162047Y-61061600D01*
X71162047Y-60928250D01*
X70788984Y-60928250D01*
X70788984Y-61515625D01*
X70579434Y-61515625D01*
X70579434Y-60404375D01*
X70411159Y-60404375D01*
X70015872Y-61199713D01*
X70004759Y-61199713D01*
X70004759Y-60404375D01*
X69849184Y-60404375D01*
X69849184Y-61515625D01*
X69626934Y-61515625D01*
X69626934Y-60404375D01*
X69345947Y-60404375D01*
X69236905Y-60413652D01*
X69141556Y-60441483D01*
X69059899Y-60487868D01*
X68991934Y-60552806D01*
X68938455Y-60633719D01*
X68900256Y-60728027D01*
X68877337Y-60835729D01*
X68869697Y-60956825D01*
X67298116Y-60956825D01*
X67897485Y-60057771D01*
X71896001Y-60057771D01*
X71896001Y-61862229D01*
X67897485Y-61862229D01*
X67295999Y-60960000D01*
G37*
G36*
X69460247Y-61364812D02*
G01*
X69355472Y-61364812D01*
X69260134Y-61353259D01*
X69181552Y-61318599D01*
X69119728Y-61260831D01*
X69075190Y-61180839D01*
X69048467Y-61079503D01*
X69039559Y-60956825D01*
X69048335Y-60834102D01*
X69074661Y-60733693D01*
X69118537Y-60655597D01*
X69179965Y-60599814D01*
X69258943Y-60566344D01*
X69355472Y-60555188D01*
X69460247Y-60555188D01*
X69460247Y-61364812D01*
G37*
%TO.C,kibuzzard-6673E150*%
G36*
X55869725Y-63384708D02*
G01*
X55938385Y-63429356D01*
X55987994Y-63496230D01*
X56012997Y-63577788D01*
X55582785Y-63577788D01*
X55598064Y-63494245D01*
X55640728Y-63427769D01*
X55705618Y-63384311D01*
X55787572Y-63369825D01*
X55869725Y-63384708D01*
G37*
G36*
X56946447Y-63449200D02*
G01*
X56749597Y-63449200D01*
X56664468Y-63436500D01*
X56599578Y-63398400D01*
X56558502Y-63339266D01*
X56544810Y-63263463D01*
X56558502Y-63187064D01*
X56599578Y-63129319D01*
X56664468Y-63093005D01*
X56749597Y-63080900D01*
X56946447Y-63080900D01*
X56946447Y-63449200D01*
G37*
G36*
X52592111Y-63500000D02*
G01*
X52669369Y-63384113D01*
X53519035Y-63384113D01*
X53841297Y-63384113D01*
X53841297Y-63766700D01*
X53822071Y-63856658D01*
X53764392Y-63910633D01*
X53668260Y-63928625D01*
X53563485Y-63915925D01*
X53563485Y-64046100D01*
X53634128Y-64059197D01*
X53706360Y-64063563D01*
X53813230Y-64052768D01*
X53896352Y-64020383D01*
X53955724Y-63966407D01*
X53991348Y-63890843D01*
X54003222Y-63793688D01*
X54003222Y-63782575D01*
X54463597Y-63782575D01*
X54505071Y-63898066D01*
X54585041Y-63987363D01*
X54656567Y-64029696D01*
X54738852Y-64055096D01*
X54831897Y-64063563D01*
X54943728Y-64050774D01*
X55040036Y-64012410D01*
X55120822Y-63948469D01*
X55181676Y-63864772D01*
X55218189Y-63767141D01*
X55230360Y-63655575D01*
X55228623Y-63639700D01*
X55427210Y-63639700D01*
X55430385Y-63692088D01*
X56014585Y-63692088D01*
X55993947Y-63789520D01*
X55944735Y-63865919D01*
X55871710Y-63915330D01*
X55779635Y-63931800D01*
X55688089Y-63918218D01*
X55623001Y-63877472D01*
X55584372Y-63809562D01*
X55428797Y-63809562D01*
X55471263Y-63915727D01*
X55547860Y-63996094D01*
X55652635Y-64046695D01*
X55779635Y-64063563D01*
X55887056Y-64051127D01*
X55895690Y-64047688D01*
X56330497Y-64047688D01*
X56509885Y-64047688D01*
X56768647Y-63593663D01*
X56946447Y-63593663D01*
X56946447Y-64047688D01*
X57109960Y-64047688D01*
X57109960Y-62936437D01*
X56727372Y-62936437D01*
X56627713Y-62946139D01*
X56542517Y-62975243D01*
X56471785Y-63023750D01*
X56418868Y-63088308D01*
X56387118Y-63165567D01*
X56376535Y-63255525D01*
X56391814Y-63362483D01*
X56437653Y-63451581D01*
X56510480Y-63520042D01*
X56606722Y-63565088D01*
X56330497Y-64047688D01*
X55895690Y-64047688D01*
X55980718Y-64013821D01*
X56060622Y-63951644D01*
X56121476Y-63869358D01*
X56157989Y-63771727D01*
X56170160Y-63658750D01*
X56157989Y-63540128D01*
X56121476Y-63438264D01*
X56060622Y-63353156D01*
X55981600Y-63289215D01*
X55890583Y-63250851D01*
X55787572Y-63238063D01*
X55689765Y-63249528D01*
X55603775Y-63283924D01*
X55529603Y-63341250D01*
X55472718Y-63420272D01*
X55438587Y-63519756D01*
X55427210Y-63639700D01*
X55228623Y-63639700D01*
X55217836Y-63541099D01*
X55180265Y-63441086D01*
X55117647Y-63355538D01*
X55035979Y-63290274D01*
X54941258Y-63251115D01*
X54833485Y-63238063D01*
X54743615Y-63246617D01*
X54662387Y-63272282D01*
X54589803Y-63315056D01*
X54530801Y-63373176D01*
X54490320Y-63444878D01*
X54468360Y-63530163D01*
X54631872Y-63530163D01*
X54655883Y-63469242D01*
X54699341Y-63419831D01*
X54759468Y-63387089D01*
X54833485Y-63376175D01*
X54927346Y-63395820D01*
X55002553Y-63454756D01*
X55051964Y-63544252D01*
X55068435Y-63655575D01*
X55052361Y-63762731D01*
X55004141Y-63849250D01*
X54928933Y-63906400D01*
X54831897Y-63925450D01*
X54759071Y-63915925D01*
X54699341Y-63887350D01*
X54654693Y-63842106D01*
X54627110Y-63782575D01*
X54463597Y-63782575D01*
X54003222Y-63782575D01*
X54003222Y-63384113D01*
X54255635Y-63384113D01*
X54255635Y-63253938D01*
X54125460Y-63253938D01*
X54018303Y-63222188D01*
X53987347Y-63111063D01*
X53987347Y-63038037D01*
X53841297Y-63038037D01*
X53841297Y-63253938D01*
X53519035Y-63253938D01*
X53519035Y-63384113D01*
X52669369Y-63384113D01*
X53188306Y-62605708D01*
X57440689Y-62605708D01*
X57440689Y-64394292D01*
X53188306Y-64394292D01*
X52592111Y-63500000D01*
G37*
%TO.C,kibuzzard-6673E113*%
G36*
X52541047Y-70217771D02*
G01*
X58719067Y-70217771D01*
X59320553Y-71120000D01*
X58719067Y-72022229D01*
X52541047Y-72022229D01*
X52541047Y-71675625D01*
X52871776Y-71675625D01*
X53033701Y-71675625D01*
X53033701Y-71207313D01*
X53046599Y-71118413D01*
X53085294Y-71054912D01*
X53144230Y-71016812D01*
X53217851Y-71004112D01*
X53297226Y-71017606D01*
X53360726Y-71058088D01*
X53402398Y-71125556D01*
X53416288Y-71220013D01*
X53416288Y-71675625D01*
X53578213Y-71675625D01*
X53578213Y-71458138D01*
X53849676Y-71458138D01*
X53872694Y-71558745D01*
X53941751Y-71631969D01*
X54045335Y-71676617D01*
X54171938Y-71691500D01*
X54276978Y-71683651D01*
X54363497Y-71660103D01*
X54431494Y-71620856D01*
X54499559Y-71537711D01*
X54527538Y-71429563D01*
X54370376Y-71429563D01*
X54341272Y-71506292D01*
X54275126Y-71552329D01*
X54171938Y-71567675D01*
X54048113Y-71541481D01*
X53998901Y-71461312D01*
X54039382Y-71387494D01*
X54093159Y-71360308D01*
X54173526Y-71337487D01*
X54248138Y-71321613D01*
X54358073Y-71289267D01*
X54397743Y-71267638D01*
X54765663Y-71267638D01*
X54768838Y-71320025D01*
X55353038Y-71320025D01*
X55332401Y-71417458D01*
X55283188Y-71493856D01*
X55210163Y-71543267D01*
X55118088Y-71559738D01*
X55026542Y-71546156D01*
X54961455Y-71505410D01*
X54922826Y-71437500D01*
X54767251Y-71437500D01*
X54809716Y-71543664D01*
X54886313Y-71624031D01*
X54991088Y-71674633D01*
X55118088Y-71691500D01*
X55225509Y-71679065D01*
X55319172Y-71641758D01*
X55399076Y-71579581D01*
X55459930Y-71497296D01*
X55496442Y-71399665D01*
X55508613Y-71286688D01*
X55496442Y-71168066D01*
X55459930Y-71066201D01*
X55432562Y-71027925D01*
X55689588Y-71027925D01*
X55781663Y-71023162D01*
X55896955Y-71040228D01*
X55985657Y-71091425D01*
X56042212Y-71172387D01*
X56061063Y-71278750D01*
X56061063Y-71553388D01*
X55761026Y-71553388D01*
X55761026Y-71675625D01*
X56454763Y-71675625D01*
X56681776Y-71675625D01*
X56843701Y-71675625D01*
X56843701Y-71207313D01*
X56856599Y-71118413D01*
X56895294Y-71054912D01*
X56954230Y-71016812D01*
X57027851Y-71004112D01*
X57107226Y-71017606D01*
X57170726Y-71058088D01*
X57212398Y-71125556D01*
X57226288Y-71220013D01*
X57226288Y-71675625D01*
X57388213Y-71675625D01*
X57388213Y-70715188D01*
X57588238Y-70715188D01*
X57905738Y-70715188D01*
X57905738Y-71675625D01*
X58072426Y-71675625D01*
X58072426Y-70715188D01*
X58388338Y-70715188D01*
X58388338Y-70564375D01*
X57588238Y-70564375D01*
X57588238Y-70715188D01*
X57388213Y-70715188D01*
X57388213Y-70548500D01*
X57226288Y-70548500D01*
X57226288Y-70980300D01*
X57215176Y-70980300D01*
X57153263Y-70916800D01*
X57073359Y-70878700D01*
X56975463Y-70866000D01*
X56855409Y-70886637D01*
X56761944Y-70948550D01*
X56701818Y-71047372D01*
X56681776Y-71178737D01*
X56681776Y-71675625D01*
X56454763Y-71675625D01*
X56454763Y-71553388D01*
X56222988Y-71553388D01*
X56222988Y-71004112D01*
X56446826Y-71004112D01*
X56446826Y-70881875D01*
X56078526Y-70881875D01*
X56062651Y-71013637D01*
X56051538Y-71013637D01*
X56002723Y-70948550D01*
X55942001Y-70902512D01*
X55860641Y-70875128D01*
X55749913Y-70866000D01*
X55689588Y-70866000D01*
X55689588Y-71027925D01*
X55432562Y-71027925D01*
X55399076Y-70981094D01*
X55320053Y-70917153D01*
X55229037Y-70878788D01*
X55126026Y-70866000D01*
X55028218Y-70877465D01*
X54942228Y-70911861D01*
X54868057Y-70969188D01*
X54811172Y-71048210D01*
X54777040Y-71147693D01*
X54765663Y-71267638D01*
X54397743Y-71267638D01*
X54437051Y-71246206D01*
X54484676Y-71186080D01*
X54500551Y-71102538D01*
X54478326Y-71003517D01*
X54411651Y-70928706D01*
X54312035Y-70881677D01*
X54190988Y-70866000D01*
X54058234Y-70882867D01*
X53958419Y-70933469D01*
X53894324Y-71008280D01*
X53868726Y-71097775D01*
X54025888Y-71097775D01*
X54077482Y-71019987D01*
X54190988Y-70989825D01*
X54303701Y-71016812D01*
X54348151Y-71094600D01*
X54310051Y-71161275D01*
X54257663Y-71181913D01*
X54176701Y-71202550D01*
X54110026Y-71218425D01*
X53995130Y-71255136D01*
X53913969Y-71304944D01*
X53865749Y-71371420D01*
X53849676Y-71458138D01*
X53578213Y-71458138D01*
X53578213Y-70548500D01*
X53416288Y-70548500D01*
X53416288Y-70980300D01*
X53405176Y-70980300D01*
X53343263Y-70916800D01*
X53263359Y-70878700D01*
X53165463Y-70866000D01*
X53045409Y-70886637D01*
X52951944Y-70948550D01*
X52891818Y-71047372D01*
X52871776Y-71178737D01*
X52871776Y-71675625D01*
X52541047Y-71675625D01*
X52541047Y-70217771D01*
G37*
G36*
X55208179Y-71012645D02*
G01*
X55276838Y-71057294D01*
X55326448Y-71124167D01*
X55351451Y-71205725D01*
X54921238Y-71205725D01*
X54936518Y-71122183D01*
X54979182Y-71055706D01*
X55044071Y-71012248D01*
X55126026Y-70997763D01*
X55208179Y-71012645D01*
G37*
%TO.C,kibuzzard-666B0D69*%
G36*
X67295999Y-68580000D02*
G01*
X67298116Y-68576825D01*
X68869697Y-68576825D01*
X68877287Y-68699410D01*
X68900058Y-68808402D01*
X68938009Y-68903800D01*
X68991140Y-68985606D01*
X69058857Y-69051239D01*
X69140564Y-69098120D01*
X69236260Y-69126249D01*
X69345947Y-69135625D01*
X69626934Y-69135625D01*
X69849184Y-69135625D01*
X70017459Y-69135625D01*
X70412747Y-68341875D01*
X70423859Y-68341875D01*
X70423859Y-69135625D01*
X70579434Y-69135625D01*
X70788984Y-69135625D01*
X70917572Y-69135625D01*
X70936622Y-69040375D01*
X70947734Y-69040375D01*
X71026315Y-69114988D01*
X71095570Y-69142372D01*
X71184272Y-69151500D01*
X71296720Y-69135537D01*
X71390647Y-69087647D01*
X71466053Y-69007831D01*
X71509461Y-68928407D01*
X71540467Y-68833802D01*
X71559071Y-68724016D01*
X71565272Y-68599050D01*
X71558426Y-68467734D01*
X71537887Y-68351598D01*
X71503657Y-68250643D01*
X71455734Y-68164869D01*
X71373361Y-68077997D01*
X71272290Y-68025874D01*
X71152522Y-68008500D01*
X71059212Y-68018466D01*
X70978249Y-68048364D01*
X70909634Y-68098194D01*
X70855483Y-68165839D01*
X70817912Y-68249183D01*
X70796922Y-68348225D01*
X70971547Y-68348225D01*
X71009294Y-68245037D01*
X71069619Y-68183125D01*
X71152522Y-68162488D01*
X71254122Y-68190467D01*
X71330322Y-68274406D01*
X71365599Y-68360219D01*
X71386766Y-68468434D01*
X71393822Y-68599050D01*
X71384233Y-68744782D01*
X71355468Y-68858130D01*
X71307525Y-68939093D01*
X71240406Y-68987670D01*
X71154109Y-69003863D01*
X71070170Y-68988781D01*
X71005678Y-68943538D01*
X70964601Y-68870116D01*
X70950909Y-68770500D01*
X70950909Y-68681600D01*
X71162047Y-68681600D01*
X71162047Y-68548250D01*
X70788984Y-68548250D01*
X70788984Y-69135625D01*
X70579434Y-69135625D01*
X70579434Y-68024375D01*
X70411159Y-68024375D01*
X70015872Y-68819713D01*
X70004759Y-68819713D01*
X70004759Y-68024375D01*
X69849184Y-68024375D01*
X69849184Y-69135625D01*
X69626934Y-69135625D01*
X69626934Y-68024375D01*
X69345947Y-68024375D01*
X69236905Y-68033652D01*
X69141556Y-68061483D01*
X69059899Y-68107868D01*
X68991934Y-68172806D01*
X68938455Y-68253719D01*
X68900256Y-68348027D01*
X68877337Y-68455729D01*
X68869697Y-68576825D01*
X67298116Y-68576825D01*
X67897485Y-67677771D01*
X71896001Y-67677771D01*
X71896001Y-69482229D01*
X67897485Y-69482229D01*
X67295999Y-68580000D01*
G37*
G36*
X69460247Y-68984812D02*
G01*
X69355472Y-68984812D01*
X69260134Y-68973259D01*
X69181552Y-68938599D01*
X69119728Y-68880831D01*
X69075190Y-68800839D01*
X69048467Y-68699503D01*
X69039559Y-68576825D01*
X69048335Y-68454102D01*
X69074661Y-68353693D01*
X69118537Y-68275597D01*
X69179965Y-68219814D01*
X69258943Y-68186344D01*
X69355472Y-68175188D01*
X69460247Y-68175188D01*
X69460247Y-68984812D01*
G37*
%TO.C,kibuzzard-666B0D54*%
G36*
X52582520Y-55033333D02*
G01*
X56581036Y-55033333D01*
X57145480Y-55880000D01*
X56581036Y-56726667D01*
X52582520Y-56726667D01*
X52582520Y-56057800D01*
X53588069Y-56057800D01*
X53599358Y-56153579D01*
X53633224Y-56235600D01*
X53689669Y-56303863D01*
X53763929Y-56355015D01*
X53851241Y-56385707D01*
X53951606Y-56395938D01*
X54045622Y-56386589D01*
X54126584Y-56358543D01*
X54194494Y-56311800D01*
X54246529Y-56249358D01*
X54279866Y-56174217D01*
X54294506Y-56086375D01*
X54137344Y-56086375D01*
X54119683Y-56160194D01*
X54079400Y-56216550D01*
X54020861Y-56252269D01*
X53948431Y-56264175D01*
X53869453Y-56250483D01*
X53807144Y-56209406D01*
X53766663Y-56144914D01*
X53753169Y-56060975D01*
X53766067Y-55977036D01*
X53804763Y-55909369D01*
X53864889Y-55864720D01*
X53942081Y-55849838D01*
X54050031Y-55876825D01*
X54126231Y-55953025D01*
X54272281Y-55919688D01*
X54239896Y-55586313D01*
X54496119Y-55586313D01*
X54796156Y-56380063D01*
X54993006Y-56380063D01*
X55079874Y-56151463D01*
X55445444Y-56151463D01*
X55620069Y-56151463D01*
X55620069Y-56380063D01*
X55775644Y-56380063D01*
X55775644Y-56151463D01*
X56250306Y-56151463D01*
X56250306Y-56070500D01*
X55789931Y-55364063D01*
X55620069Y-55364063D01*
X55620069Y-56026050D01*
X55445444Y-56026050D01*
X55445444Y-56151463D01*
X55079874Y-56151463D01*
X55294631Y-55586313D01*
X55127944Y-55586313D01*
X54899344Y-56211788D01*
X54888231Y-56211788D01*
X54661219Y-55586313D01*
X54496119Y-55586313D01*
X54239896Y-55586313D01*
X54218306Y-55364063D01*
X53635694Y-55364063D01*
X53635694Y-55500588D01*
X54077019Y-55500588D01*
X54107181Y-55792688D01*
X54020266Y-55741491D01*
X53908744Y-55724425D01*
X53819491Y-55734920D01*
X53742233Y-55766406D01*
X53676969Y-55818881D01*
X53627580Y-55887408D01*
X53597947Y-55967048D01*
X53588069Y-56057800D01*
X52582520Y-56057800D01*
X52582520Y-55033333D01*
G37*
G36*
X56061394Y-56026050D02*
G01*
X55775644Y-56026050D01*
X55775644Y-55583138D01*
X55788344Y-55583138D01*
X56061394Y-56026050D01*
G37*
%TO.C,kibuzzard-666B0D4B*%
G36*
X54126761Y-68984812D02*
G01*
X54021986Y-68984812D01*
X53926647Y-68973259D01*
X53848066Y-68938599D01*
X53786242Y-68880831D01*
X53741704Y-68800839D01*
X53714981Y-68699503D01*
X53706073Y-68576825D01*
X53714848Y-68454102D01*
X53741174Y-68353693D01*
X53785051Y-68275597D01*
X53846479Y-68219814D01*
X53925457Y-68186344D01*
X54021986Y-68175188D01*
X54126761Y-68175188D01*
X54126761Y-68984812D01*
G37*
G36*
X52563999Y-67677771D02*
G01*
X56562515Y-67677771D01*
X57164001Y-68580000D01*
X56562515Y-69482229D01*
X52563999Y-69482229D01*
X52563999Y-68576825D01*
X53536211Y-68576825D01*
X53543801Y-68699410D01*
X53566572Y-68808402D01*
X53604523Y-68903800D01*
X53657654Y-68985606D01*
X53725371Y-69051239D01*
X53807078Y-69098120D01*
X53902774Y-69126249D01*
X54012461Y-69135625D01*
X54293448Y-69135625D01*
X54515698Y-69135625D01*
X54683973Y-69135625D01*
X55079261Y-68341875D01*
X55090373Y-68341875D01*
X55090373Y-69135625D01*
X55245948Y-69135625D01*
X55455498Y-69135625D01*
X55584086Y-69135625D01*
X55603136Y-69040375D01*
X55614248Y-69040375D01*
X55692829Y-69114988D01*
X55762084Y-69142372D01*
X55850786Y-69151500D01*
X55963234Y-69135537D01*
X56057161Y-69087647D01*
X56132567Y-69007831D01*
X56175975Y-68928407D01*
X56206981Y-68833802D01*
X56225584Y-68724016D01*
X56231786Y-68599050D01*
X56224939Y-68467734D01*
X56204401Y-68351598D01*
X56170171Y-68250643D01*
X56122248Y-68164869D01*
X56039874Y-68077997D01*
X55938804Y-68025874D01*
X55819036Y-68008500D01*
X55725726Y-68018466D01*
X55644763Y-68048364D01*
X55576148Y-68098194D01*
X55521997Y-68165839D01*
X55484426Y-68249183D01*
X55463436Y-68348225D01*
X55638061Y-68348225D01*
X55675808Y-68245037D01*
X55736133Y-68183125D01*
X55819036Y-68162488D01*
X55920636Y-68190467D01*
X55996836Y-68274406D01*
X56032113Y-68360219D01*
X56053280Y-68468434D01*
X56060336Y-68599050D01*
X56050747Y-68744782D01*
X56021982Y-68858130D01*
X55974039Y-68939093D01*
X55906920Y-68987670D01*
X55820623Y-69003863D01*
X55736684Y-68988781D01*
X55672192Y-68943538D01*
X55631115Y-68870116D01*
X55617423Y-68770500D01*
X55617423Y-68681600D01*
X55828561Y-68681600D01*
X55828561Y-68548250D01*
X55455498Y-68548250D01*
X55455498Y-69135625D01*
X55245948Y-69135625D01*
X55245948Y-68024375D01*
X55077673Y-68024375D01*
X54682386Y-68819713D01*
X54671273Y-68819713D01*
X54671273Y-68024375D01*
X54515698Y-68024375D01*
X54515698Y-69135625D01*
X54293448Y-69135625D01*
X54293448Y-68024375D01*
X54012461Y-68024375D01*
X53903419Y-68033652D01*
X53808070Y-68061483D01*
X53726413Y-68107868D01*
X53658448Y-68172806D01*
X53604969Y-68253719D01*
X53566770Y-68348027D01*
X53543850Y-68455729D01*
X53536211Y-68576825D01*
X52563999Y-68576825D01*
X52563999Y-67677771D01*
G37*
%TO.C,kibuzzard-6673E1AC*%
G36*
X68762651Y-73871138D02*
G01*
X68853491Y-73891951D01*
X68907995Y-73933226D01*
X68926163Y-73994963D01*
X68888857Y-74077512D01*
X68791226Y-74104500D01*
X68710462Y-74092594D01*
X68639619Y-74056875D01*
X68590209Y-73996550D01*
X68573738Y-73910825D01*
X68573738Y-73852087D01*
X68762651Y-73871138D01*
G37*
G36*
X69756029Y-73552645D02*
G01*
X69824688Y-73597294D01*
X69874298Y-73664167D01*
X69899301Y-73745725D01*
X69469088Y-73745725D01*
X69484368Y-73662183D01*
X69527032Y-73595706D01*
X69591921Y-73552248D01*
X69673876Y-73537763D01*
X69756029Y-73552645D01*
G37*
G36*
X70834338Y-73640950D02*
G01*
X70626376Y-73640950D01*
X70536484Y-73627853D01*
X70470007Y-73588562D01*
X70428930Y-73526253D01*
X70415238Y-73444100D01*
X70428930Y-73364527D01*
X70470007Y-73303606D01*
X70534102Y-73264911D01*
X70616851Y-73252013D01*
X70834338Y-73252013D01*
X70834338Y-73640950D01*
G37*
G36*
X67060322Y-72757771D02*
G01*
X71326992Y-72757771D01*
X71928478Y-73660000D01*
X71326992Y-74562229D01*
X67060322Y-74562229D01*
X67060322Y-74215625D01*
X67391051Y-74215625D01*
X67572026Y-74215625D01*
X67854601Y-73852087D01*
X67951438Y-73942575D01*
X67951438Y-74215625D01*
X68113363Y-74215625D01*
X68332438Y-74215625D01*
X68403876Y-74215625D01*
X68501110Y-74191019D01*
X68551513Y-74117200D01*
X68621010Y-74180700D01*
X68708852Y-74218800D01*
X68815038Y-74231500D01*
X68925568Y-74217014D01*
X69012682Y-74173556D01*
X69069237Y-74101920D01*
X69088088Y-74002900D01*
X69069435Y-73906459D01*
X69013476Y-73833038D01*
X68968821Y-73807638D01*
X69313513Y-73807638D01*
X69316688Y-73860025D01*
X69900888Y-73860025D01*
X69880251Y-73957458D01*
X69831038Y-74033856D01*
X69758013Y-74083267D01*
X69665938Y-74099738D01*
X69574392Y-74086156D01*
X69509305Y-74045410D01*
X69470676Y-73977500D01*
X69315101Y-73977500D01*
X69357566Y-74083664D01*
X69434163Y-74164031D01*
X69538938Y-74214633D01*
X69665938Y-74231500D01*
X69773359Y-74219065D01*
X69867022Y-74181758D01*
X69946926Y-74119581D01*
X70007780Y-74037296D01*
X70044292Y-73939665D01*
X70056463Y-73826688D01*
X70044292Y-73708066D01*
X70007780Y-73606201D01*
X69946926Y-73521094D01*
X69867903Y-73457153D01*
X69836936Y-73444100D01*
X70243788Y-73444100D01*
X70254372Y-73541819D01*
X70286122Y-73625428D01*
X70339038Y-73694925D01*
X70410123Y-73746960D01*
X70496377Y-73778181D01*
X70597801Y-73788588D01*
X70834338Y-73788588D01*
X70834338Y-74215625D01*
X70996263Y-74215625D01*
X70996263Y-73104375D01*
X70588276Y-73104375D01*
X70490556Y-73114782D01*
X70406948Y-73146003D01*
X70337451Y-73198037D01*
X70285416Y-73267006D01*
X70254195Y-73349026D01*
X70243788Y-73444100D01*
X69836936Y-73444100D01*
X69776887Y-73418788D01*
X69673876Y-73406000D01*
X69576068Y-73417465D01*
X69490078Y-73451861D01*
X69415907Y-73509188D01*
X69359022Y-73588210D01*
X69324890Y-73687693D01*
X69313513Y-73807638D01*
X68968821Y-73807638D01*
X68926957Y-73783825D01*
X68816626Y-73760013D01*
X68573738Y-73734613D01*
X68573738Y-73696513D01*
X68584255Y-73628845D01*
X68615807Y-73578244D01*
X68666012Y-73546692D01*
X68732488Y-73536175D01*
X68811334Y-73551874D01*
X68865838Y-73598969D01*
X68896001Y-73677462D01*
X69056338Y-73677462D01*
X69026374Y-73568123D01*
X68958707Y-73481406D01*
X68858099Y-73424852D01*
X68729313Y-73406000D01*
X68601321Y-73425248D01*
X68499919Y-73482994D01*
X68433840Y-73576458D01*
X68411813Y-73702863D01*
X68411813Y-74028300D01*
X68351488Y-74091800D01*
X68332438Y-74091800D01*
X68332438Y-74215625D01*
X68113363Y-74215625D01*
X68113363Y-73088500D01*
X67951438Y-73088500D01*
X67951438Y-73744138D01*
X67940326Y-73744138D01*
X67587901Y-73421875D01*
X67391051Y-73421875D01*
X67741888Y-73747313D01*
X67391051Y-74215625D01*
X67060322Y-74215625D01*
X67060322Y-72757771D01*
G37*
%TO.C,kibuzzard-666B0D69*%
G36*
X67295999Y-53340000D02*
G01*
X67298116Y-53336825D01*
X68869697Y-53336825D01*
X68877287Y-53459410D01*
X68900058Y-53568402D01*
X68938009Y-53663800D01*
X68991140Y-53745606D01*
X69058857Y-53811239D01*
X69140564Y-53858120D01*
X69236260Y-53886249D01*
X69345947Y-53895625D01*
X69626934Y-53895625D01*
X69849184Y-53895625D01*
X70017459Y-53895625D01*
X70412747Y-53101875D01*
X70423859Y-53101875D01*
X70423859Y-53895625D01*
X70579434Y-53895625D01*
X70788984Y-53895625D01*
X70917572Y-53895625D01*
X70936622Y-53800375D01*
X70947734Y-53800375D01*
X71026315Y-53874988D01*
X71095570Y-53902372D01*
X71184272Y-53911500D01*
X71296720Y-53895537D01*
X71390647Y-53847647D01*
X71466053Y-53767831D01*
X71509461Y-53688407D01*
X71540467Y-53593802D01*
X71559071Y-53484016D01*
X71565272Y-53359050D01*
X71558426Y-53227734D01*
X71537887Y-53111598D01*
X71503657Y-53010643D01*
X71455734Y-52924869D01*
X71373361Y-52837997D01*
X71272290Y-52785874D01*
X71152522Y-52768500D01*
X71059212Y-52778466D01*
X70978249Y-52808364D01*
X70909634Y-52858194D01*
X70855483Y-52925839D01*
X70817912Y-53009183D01*
X70796922Y-53108225D01*
X70971547Y-53108225D01*
X71009294Y-53005037D01*
X71069619Y-52943125D01*
X71152522Y-52922488D01*
X71254122Y-52950467D01*
X71330322Y-53034406D01*
X71365599Y-53120219D01*
X71386766Y-53228434D01*
X71393822Y-53359050D01*
X71384233Y-53504782D01*
X71355468Y-53618130D01*
X71307525Y-53699093D01*
X71240406Y-53747670D01*
X71154109Y-53763863D01*
X71070170Y-53748781D01*
X71005678Y-53703538D01*
X70964601Y-53630116D01*
X70950909Y-53530500D01*
X70950909Y-53441600D01*
X71162047Y-53441600D01*
X71162047Y-53308250D01*
X70788984Y-53308250D01*
X70788984Y-53895625D01*
X70579434Y-53895625D01*
X70579434Y-52784375D01*
X70411159Y-52784375D01*
X70015872Y-53579713D01*
X70004759Y-53579713D01*
X70004759Y-52784375D01*
X69849184Y-52784375D01*
X69849184Y-53895625D01*
X69626934Y-53895625D01*
X69626934Y-52784375D01*
X69345947Y-52784375D01*
X69236905Y-52793652D01*
X69141556Y-52821483D01*
X69059899Y-52867868D01*
X68991934Y-52932806D01*
X68938455Y-53013719D01*
X68900256Y-53108027D01*
X68877337Y-53215729D01*
X68869697Y-53336825D01*
X67298116Y-53336825D01*
X67897485Y-52437771D01*
X71896001Y-52437771D01*
X71896001Y-54242229D01*
X67897485Y-54242229D01*
X67295999Y-53340000D01*
G37*
G36*
X69460247Y-53744812D02*
G01*
X69355472Y-53744812D01*
X69260134Y-53733259D01*
X69181552Y-53698599D01*
X69119728Y-53640831D01*
X69075190Y-53560839D01*
X69048467Y-53459503D01*
X69039559Y-53336825D01*
X69048335Y-53214102D01*
X69074661Y-53113693D01*
X69118537Y-53035597D01*
X69179965Y-52979814D01*
X69258943Y-52946344D01*
X69355472Y-52935188D01*
X69460247Y-52935188D01*
X69460247Y-53744812D01*
G37*
%TO.C,kibuzzard-666B0D4B*%
G36*
X52563999Y-75297771D02*
G01*
X56562515Y-75297771D01*
X57164001Y-76200000D01*
X56562515Y-77102229D01*
X52563999Y-77102229D01*
X52563999Y-76196825D01*
X53536211Y-76196825D01*
X53543801Y-76319410D01*
X53566572Y-76428402D01*
X53604523Y-76523800D01*
X53657654Y-76605606D01*
X53725371Y-76671239D01*
X53807078Y-76718120D01*
X53902774Y-76746249D01*
X54012461Y-76755625D01*
X54293448Y-76755625D01*
X54515698Y-76755625D01*
X54683973Y-76755625D01*
X55079261Y-75961875D01*
X55090373Y-75961875D01*
X55090373Y-76755625D01*
X55245948Y-76755625D01*
X55455498Y-76755625D01*
X55584086Y-76755625D01*
X55603136Y-76660375D01*
X55614248Y-76660375D01*
X55692829Y-76734988D01*
X55762084Y-76762372D01*
X55850786Y-76771500D01*
X55963234Y-76755537D01*
X56057161Y-76707647D01*
X56132567Y-76627831D01*
X56175975Y-76548407D01*
X56206981Y-76453802D01*
X56225584Y-76344016D01*
X56231786Y-76219050D01*
X56224939Y-76087734D01*
X56204401Y-75971598D01*
X56170171Y-75870643D01*
X56122248Y-75784869D01*
X56039874Y-75697997D01*
X55938804Y-75645874D01*
X55819036Y-75628500D01*
X55725726Y-75638466D01*
X55644763Y-75668364D01*
X55576148Y-75718194D01*
X55521997Y-75785839D01*
X55484426Y-75869183D01*
X55463436Y-75968225D01*
X55638061Y-75968225D01*
X55675808Y-75865037D01*
X55736133Y-75803125D01*
X55819036Y-75782488D01*
X55920636Y-75810467D01*
X55996836Y-75894406D01*
X56032113Y-75980219D01*
X56053280Y-76088434D01*
X56060336Y-76219050D01*
X56050747Y-76364782D01*
X56021982Y-76478130D01*
X55974039Y-76559093D01*
X55906920Y-76607670D01*
X55820623Y-76623863D01*
X55736684Y-76608781D01*
X55672192Y-76563538D01*
X55631115Y-76490116D01*
X55617423Y-76390500D01*
X55617423Y-76301600D01*
X55828561Y-76301600D01*
X55828561Y-76168250D01*
X55455498Y-76168250D01*
X55455498Y-76755625D01*
X55245948Y-76755625D01*
X55245948Y-75644375D01*
X55077673Y-75644375D01*
X54682386Y-76439713D01*
X54671273Y-76439713D01*
X54671273Y-75644375D01*
X54515698Y-75644375D01*
X54515698Y-76755625D01*
X54293448Y-76755625D01*
X54293448Y-75644375D01*
X54012461Y-75644375D01*
X53903419Y-75653652D01*
X53808070Y-75681483D01*
X53726413Y-75727868D01*
X53658448Y-75792806D01*
X53604969Y-75873719D01*
X53566770Y-75968027D01*
X53543850Y-76075729D01*
X53536211Y-76196825D01*
X52563999Y-76196825D01*
X52563999Y-75297771D01*
G37*
G36*
X54126761Y-76604812D02*
G01*
X54021986Y-76604812D01*
X53926647Y-76593259D01*
X53848066Y-76558599D01*
X53786242Y-76500831D01*
X53741704Y-76420839D01*
X53714981Y-76319503D01*
X53706073Y-76196825D01*
X53714848Y-76074102D01*
X53741174Y-75973693D01*
X53785051Y-75895597D01*
X53846479Y-75839814D01*
X53925457Y-75806344D01*
X54021986Y-75795188D01*
X54126761Y-75795188D01*
X54126761Y-76604812D01*
G37*
G36*
X52563999Y-60057771D02*
G01*
X56562515Y-60057771D01*
X57164001Y-60960000D01*
X56562515Y-61862229D01*
X52563999Y-61862229D01*
X52563999Y-60956825D01*
X53536211Y-60956825D01*
X53543801Y-61079410D01*
X53566572Y-61188402D01*
X53604523Y-61283800D01*
X53657654Y-61365606D01*
X53725371Y-61431239D01*
X53807078Y-61478120D01*
X53902774Y-61506249D01*
X54012461Y-61515625D01*
X54293448Y-61515625D01*
X54515698Y-61515625D01*
X54683973Y-61515625D01*
X55079261Y-60721875D01*
X55090373Y-60721875D01*
X55090373Y-61515625D01*
X55245948Y-61515625D01*
X55455498Y-61515625D01*
X55584086Y-61515625D01*
X55603136Y-61420375D01*
X55614248Y-61420375D01*
X55692829Y-61494988D01*
X55762084Y-61522372D01*
X55850786Y-61531500D01*
X55963234Y-61515537D01*
X56057161Y-61467647D01*
X56132567Y-61387831D01*
X56175975Y-61308407D01*
X56206981Y-61213802D01*
X56225584Y-61104016D01*
X56231786Y-60979050D01*
X56224939Y-60847734D01*
X56204401Y-60731598D01*
X56170171Y-60630643D01*
X56122248Y-60544869D01*
X56039874Y-60457997D01*
X55938804Y-60405874D01*
X55819036Y-60388500D01*
X55725726Y-60398466D01*
X55644763Y-60428364D01*
X55576148Y-60478194D01*
X55521997Y-60545839D01*
X55484426Y-60629183D01*
X55463436Y-60728225D01*
X55638061Y-60728225D01*
X55675808Y-60625037D01*
X55736133Y-60563125D01*
X55819036Y-60542488D01*
X55920636Y-60570467D01*
X55996836Y-60654406D01*
X56032113Y-60740219D01*
X56053280Y-60848434D01*
X56060336Y-60979050D01*
X56050747Y-61124782D01*
X56021982Y-61238130D01*
X55974039Y-61319093D01*
X55906920Y-61367670D01*
X55820623Y-61383863D01*
X55736684Y-61368781D01*
X55672192Y-61323538D01*
X55631115Y-61250116D01*
X55617423Y-61150500D01*
X55617423Y-61061600D01*
X55828561Y-61061600D01*
X55828561Y-60928250D01*
X55455498Y-60928250D01*
X55455498Y-61515625D01*
X55245948Y-61515625D01*
X55245948Y-60404375D01*
X55077673Y-60404375D01*
X54682386Y-61199713D01*
X54671273Y-61199713D01*
X54671273Y-60404375D01*
X54515698Y-60404375D01*
X54515698Y-61515625D01*
X54293448Y-61515625D01*
X54293448Y-60404375D01*
X54012461Y-60404375D01*
X53903419Y-60413652D01*
X53808070Y-60441483D01*
X53726413Y-60487868D01*
X53658448Y-60552806D01*
X53604969Y-60633719D01*
X53566770Y-60728027D01*
X53543850Y-60835729D01*
X53536211Y-60956825D01*
X52563999Y-60956825D01*
X52563999Y-60057771D01*
G37*
G36*
X54126761Y-61364812D02*
G01*
X54021986Y-61364812D01*
X53926647Y-61353259D01*
X53848066Y-61318599D01*
X53786242Y-61260831D01*
X53741704Y-61180839D01*
X53714981Y-61079503D01*
X53706073Y-60956825D01*
X53714848Y-60834102D01*
X53741174Y-60733693D01*
X53785051Y-60655597D01*
X53846479Y-60599814D01*
X53925457Y-60566344D01*
X54021986Y-60555188D01*
X54126761Y-60555188D01*
X54126761Y-61364812D01*
G37*
%TO.C,REF\u002A\u002A*%
G36*
X61837691Y-50226467D02*
G01*
X61842273Y-50229003D01*
X61879704Y-50258057D01*
X61913170Y-50295410D01*
X61919007Y-50303852D01*
X61930165Y-50323553D01*
X61938136Y-50346935D01*
X61943618Y-50379067D01*
X61947307Y-50425019D01*
X61949899Y-50489859D01*
X61952092Y-50578657D01*
X61952402Y-50593669D01*
X61953400Y-50690999D01*
X61951994Y-50759934D01*
X61948164Y-50800948D01*
X61941889Y-50814514D01*
X61922898Y-50810452D01*
X61890638Y-50798144D01*
X61883041Y-50794545D01*
X61871176Y-50786398D01*
X61862994Y-50773004D01*
X61857643Y-50749608D01*
X61854269Y-50711455D01*
X61852019Y-50653790D01*
X61850040Y-50571857D01*
X61849498Y-50547907D01*
X61847403Y-50472266D01*
X61844683Y-50419328D01*
X61840515Y-50384075D01*
X61834079Y-50361487D01*
X61824550Y-50346544D01*
X61811106Y-50334227D01*
X61771305Y-50312634D01*
X61722341Y-50308476D01*
X61678529Y-50324999D01*
X61647008Y-50359210D01*
X61634914Y-50408114D01*
X61634578Y-50421407D01*
X61627972Y-50445472D01*
X61608470Y-50449144D01*
X61570283Y-50434813D01*
X61561438Y-50430217D01*
X61537534Y-50403186D01*
X61537061Y-50362994D01*
X61559836Y-50307409D01*
X61580727Y-50277117D01*
X61634142Y-50234084D01*
X61700074Y-50209755D01*
X61770574Y-50206443D01*
X61837691Y-50226467D01*
G37*
D11*
X61837691Y-50226467D02*
X61842273Y-50229003D01*
X61879704Y-50258057D01*
X61913170Y-50295410D01*
X61919007Y-50303852D01*
X61930165Y-50323553D01*
X61938136Y-50346935D01*
X61943618Y-50379067D01*
X61947307Y-50425019D01*
X61949899Y-50489859D01*
X61952092Y-50578657D01*
X61952402Y-50593669D01*
X61953400Y-50690999D01*
X61951994Y-50759934D01*
X61948164Y-50800948D01*
X61941889Y-50814514D01*
X61922898Y-50810452D01*
X61890638Y-50798144D01*
X61883041Y-50794545D01*
X61871176Y-50786398D01*
X61862994Y-50773004D01*
X61857643Y-50749608D01*
X61854269Y-50711455D01*
X61852019Y-50653790D01*
X61850040Y-50571857D01*
X61849498Y-50547907D01*
X61847403Y-50472266D01*
X61844683Y-50419328D01*
X61840515Y-50384075D01*
X61834079Y-50361487D01*
X61824550Y-50346544D01*
X61811106Y-50334227D01*
X61771305Y-50312634D01*
X61722341Y-50308476D01*
X61678529Y-50324999D01*
X61647008Y-50359210D01*
X61634914Y-50408114D01*
X61634578Y-50421407D01*
X61627972Y-50445472D01*
X61608470Y-50449144D01*
X61570283Y-50434813D01*
X61561438Y-50430217D01*
X61537534Y-50403186D01*
X61537061Y-50362994D01*
X61559836Y-50307409D01*
X61580727Y-50277117D01*
X61634142Y-50234084D01*
X61700074Y-50209755D01*
X61770574Y-50206443D01*
X61837691Y-50226467D01*
G36*
X62343933Y-45502371D02*
G01*
X62419856Y-45502865D01*
X62474491Y-45504135D01*
X62511500Y-45506547D01*
X62534547Y-45510467D01*
X62547296Y-45516262D01*
X62553411Y-45524299D01*
X62556556Y-45534943D01*
X62556646Y-45535325D01*
X62561814Y-45560347D01*
X62571209Y-45608681D01*
X62583867Y-45675260D01*
X62598825Y-45755014D01*
X62615119Y-45842875D01*
X62616448Y-45850064D01*
X62632691Y-45935340D01*
X62647805Y-46010242D01*
X62660808Y-46070219D01*
X62670715Y-46110717D01*
X62676544Y-46127184D01*
X62676575Y-46127210D01*
X62694943Y-46136320D01*
X62732640Y-46151457D01*
X62781543Y-46169358D01*
X62784297Y-46170330D01*
X62846817Y-46193959D01*
X62919543Y-46223595D01*
X62987294Y-46253062D01*
X63098703Y-46303626D01*
X63345399Y-46135160D01*
X63362775Y-46123311D01*
X63437202Y-46072947D01*
X63503614Y-46028612D01*
X63558039Y-45992916D01*
X63596506Y-45968471D01*
X63615042Y-45957889D01*
X63627743Y-45960315D01*
X63656579Y-45979110D01*
X63701143Y-46016330D01*
X63762670Y-46073020D01*
X63842398Y-46150227D01*
X63849532Y-46157255D01*
X63912796Y-46220222D01*
X63968990Y-46277268D01*
X64014677Y-46324817D01*
X64046414Y-46359297D01*
X64060764Y-46377131D01*
X64060810Y-46377217D01*
X64062633Y-46390795D01*
X64055910Y-46412820D01*
X64038946Y-46446304D01*
X64010044Y-46494261D01*
X63967508Y-46559704D01*
X63909644Y-46645645D01*
X63899783Y-46660151D01*
X63849913Y-46733635D01*
X63805905Y-46798687D01*
X63770380Y-46851417D01*
X63745959Y-46887936D01*
X63735264Y-46904356D01*
X63734458Y-46907834D01*
X63739518Y-46933785D01*
X63754677Y-46976159D01*
X63777463Y-47027728D01*
X63808429Y-47095170D01*
X63843004Y-47175195D01*
X63872366Y-47247629D01*
X63879645Y-47266377D01*
X63898710Y-47314246D01*
X63912715Y-47347596D01*
X63919041Y-47360114D01*
X63926025Y-47361050D01*
X63957413Y-47366461D01*
X64008787Y-47375806D01*
X64074802Y-47388069D01*
X64150113Y-47402232D01*
X64229375Y-47417280D01*
X64307243Y-47432195D01*
X64378370Y-47445961D01*
X64437412Y-47457562D01*
X64479022Y-47465980D01*
X64497857Y-47470199D01*
X64500980Y-47471389D01*
X64508591Y-47477805D01*
X64514254Y-47491465D01*
X64518251Y-47515999D01*
X64520866Y-47555038D01*
X64522384Y-47612213D01*
X64523086Y-47691154D01*
X64523257Y-47795492D01*
X64523257Y-48112799D01*
X64447057Y-48127839D01*
X64437840Y-48129642D01*
X64388891Y-48138980D01*
X64321205Y-48151669D01*
X64242478Y-48166273D01*
X64160400Y-48181355D01*
X64128078Y-48187422D01*
X64055855Y-48202181D01*
X63995666Y-48216137D01*
X63953040Y-48227952D01*
X63933510Y-48236287D01*
X63924660Y-48249905D01*
X63908548Y-48285938D01*
X63892065Y-48332572D01*
X63886263Y-48350034D01*
X63864906Y-48407358D01*
X63837359Y-48475201D01*
X63808107Y-48542355D01*
X63792463Y-48577430D01*
X63770174Y-48629822D01*
X63754857Y-48669058D01*
X63749162Y-48688563D01*
X63749478Y-48690036D01*
X63760281Y-48710729D01*
X63784638Y-48750665D01*
X63820081Y-48805972D01*
X63864136Y-48872781D01*
X63914332Y-48947220D01*
X64079501Y-49189623D01*
X63862503Y-49406983D01*
X63841516Y-49427899D01*
X63777342Y-49490505D01*
X63719990Y-49544495D01*
X63672820Y-49586826D01*
X63639192Y-49614457D01*
X63622467Y-49624343D01*
X63604303Y-49616821D01*
X63566265Y-49595227D01*
X63512726Y-49562151D01*
X63447884Y-49520191D01*
X63375940Y-49471943D01*
X63305275Y-49424291D01*
X63241526Y-49382328D01*
X63189513Y-49349165D01*
X63153279Y-49327378D01*
X63136867Y-49319543D01*
X63135905Y-49319614D01*
X63114103Y-49327338D01*
X63075440Y-49345323D01*
X63027612Y-49370013D01*
X63027110Y-49370284D01*
X62963587Y-49402099D01*
X62920060Y-49417642D01*
X62893052Y-49417685D01*
X62879090Y-49403000D01*
X62873180Y-49388544D01*
X62857229Y-49349831D01*
X62832660Y-49290316D01*
X62800779Y-49213165D01*
X62762893Y-49121541D01*
X62720310Y-49018607D01*
X62674337Y-48907526D01*
X62632667Y-48806472D01*
X62590268Y-48702780D01*
X62552756Y-48610119D01*
X62521388Y-48531642D01*
X62497425Y-48470500D01*
X62482123Y-48429843D01*
X62476743Y-48412825D01*
X62487018Y-48397219D01*
X62515563Y-48371162D01*
X62555971Y-48340887D01*
X62652979Y-48261684D01*
X62739793Y-48160475D01*
X62803322Y-48049116D01*
X62843177Y-47930893D01*
X62858965Y-47809095D01*
X62850296Y-47687010D01*
X62816778Y-47567925D01*
X62758021Y-47455129D01*
X62673632Y-47351911D01*
X62629631Y-47311713D01*
X62524211Y-47240638D01*
X62411410Y-47194301D01*
X62294525Y-47171599D01*
X62176853Y-47171428D01*
X62061690Y-47192687D01*
X61952335Y-47234270D01*
X61852083Y-47295076D01*
X61764233Y-47374001D01*
X61692080Y-47469941D01*
X61638922Y-47581795D01*
X61608057Y-47708457D01*
X61602392Y-47769507D01*
X61610185Y-47901776D01*
X61645284Y-48027266D01*
X61706649Y-48143759D01*
X61793243Y-48249039D01*
X61904029Y-48340887D01*
X61942931Y-48369930D01*
X61972104Y-48396272D01*
X61983257Y-48412800D01*
X61978810Y-48427209D01*
X61964378Y-48465815D01*
X61941173Y-48525201D01*
X61910452Y-48602215D01*
X61873474Y-48693703D01*
X61831496Y-48796516D01*
X61785778Y-48907502D01*
X61744178Y-49008072D01*
X61701222Y-49111947D01*
X61662829Y-49204819D01*
X61630305Y-49283525D01*
X61604958Y-49344899D01*
X61588095Y-49385779D01*
X61581025Y-49403000D01*
X61580943Y-49403204D01*
X61566798Y-49417745D01*
X61539659Y-49417579D01*
X61496023Y-49401927D01*
X61432388Y-49370013D01*
X61427379Y-49367326D01*
X61380125Y-49343150D01*
X61342811Y-49326037D01*
X61323133Y-49319543D01*
X61307005Y-49327218D01*
X61270959Y-49348871D01*
X61219092Y-49381928D01*
X61155445Y-49423810D01*
X61084060Y-49471943D01*
X61013724Y-49519131D01*
X60948670Y-49561267D01*
X60894820Y-49594578D01*
X60856374Y-49616469D01*
X60837534Y-49624343D01*
X60834325Y-49623343D01*
X60811954Y-49607584D01*
X60773733Y-49575033D01*
X60723021Y-49528733D01*
X60663181Y-49471726D01*
X60597571Y-49407058D01*
X60380648Y-49189772D01*
X60549601Y-48941253D01*
X60718553Y-48692733D01*
X60667183Y-48581595D01*
X60667031Y-48581266D01*
X60636183Y-48510418D01*
X60604661Y-48431523D01*
X60579266Y-48361600D01*
X60575423Y-48350322D01*
X60556047Y-48297967D01*
X60538574Y-48257283D01*
X60526388Y-48236287D01*
X60521426Y-48233322D01*
X60491634Y-48223375D01*
X60441047Y-48210505D01*
X60375194Y-48196053D01*
X60299600Y-48181355D01*
X60276957Y-48177210D01*
X60195038Y-48162116D01*
X60118600Y-48147899D01*
X60055337Y-48135995D01*
X60012943Y-48127839D01*
X59936743Y-48112799D01*
X59936743Y-47795492D01*
X59936760Y-47756476D01*
X59937082Y-47661292D01*
X59938033Y-47590255D01*
X59939896Y-47539734D01*
X59942955Y-47506098D01*
X59947494Y-47485718D01*
X59953795Y-47474962D01*
X59962143Y-47470199D01*
X59970224Y-47468270D01*
X60003172Y-47461445D01*
X60055736Y-47451022D01*
X60122569Y-47438018D01*
X60198328Y-47423449D01*
X60277665Y-47408333D01*
X60355237Y-47393685D01*
X60425698Y-47380523D01*
X60483702Y-47369863D01*
X60523904Y-47362721D01*
X60540959Y-47360114D01*
X60542112Y-47358541D01*
X60551385Y-47338119D01*
X60567432Y-47299045D01*
X60587635Y-47247629D01*
X60615672Y-47178353D01*
X60650186Y-47098290D01*
X60682538Y-47027728D01*
X60689952Y-47011889D01*
X60710755Y-46962293D01*
X60723219Y-46924038D01*
X60724863Y-46904356D01*
X60724015Y-46902962D01*
X60710548Y-46882420D01*
X60683850Y-46842516D01*
X60646539Y-46787140D01*
X60601234Y-46720177D01*
X60550552Y-46645517D01*
X60493445Y-46560692D01*
X60450607Y-46494800D01*
X60421460Y-46446478D01*
X60404317Y-46412733D01*
X60397495Y-46390572D01*
X60399306Y-46377002D01*
X60399915Y-46375984D01*
X60416297Y-46356210D01*
X60449695Y-46320175D01*
X60496671Y-46271451D01*
X60553786Y-46213612D01*
X60617603Y-46150227D01*
X60683802Y-46085905D01*
X60748648Y-46025447D01*
X60796299Y-45984655D01*
X60827990Y-45962484D01*
X60844958Y-45957889D01*
X60847175Y-45958921D01*
X60870524Y-45972837D01*
X60912912Y-46000030D01*
X60970369Y-46037889D01*
X61038923Y-46083803D01*
X61114601Y-46135160D01*
X61361298Y-46303626D01*
X61472706Y-46253062D01*
X61475943Y-46251597D01*
X61544343Y-46221965D01*
X61616907Y-46192493D01*
X61678457Y-46169358D01*
X61678729Y-46169262D01*
X61727595Y-46151367D01*
X61765212Y-46136253D01*
X61783457Y-46127184D01*
X61783752Y-46126855D01*
X61789946Y-46108282D01*
X61800139Y-46066045D01*
X61813348Y-46004696D01*
X61828590Y-45928789D01*
X61844881Y-45842875D01*
X61845449Y-45839796D01*
X61861713Y-45752128D01*
X61876608Y-45672741D01*
X61889171Y-45606701D01*
X61898438Y-45559079D01*
X61903444Y-45534943D01*
X61903764Y-45533605D01*
X61907060Y-45523273D01*
X61913738Y-45515506D01*
X61927462Y-45509940D01*
X61951895Y-45506207D01*
X61990702Y-45503942D01*
X62047546Y-45502778D01*
X62126090Y-45502348D01*
X62230000Y-45502286D01*
X62243056Y-45502286D01*
X62343933Y-45502371D01*
G37*
X62343933Y-45502371D02*
X62419856Y-45502865D01*
X62474491Y-45504135D01*
X62511500Y-45506547D01*
X62534547Y-45510467D01*
X62547296Y-45516262D01*
X62553411Y-45524299D01*
X62556556Y-45534943D01*
X62556646Y-45535325D01*
X62561814Y-45560347D01*
X62571209Y-45608681D01*
X62583867Y-45675260D01*
X62598825Y-45755014D01*
X62615119Y-45842875D01*
X62616448Y-45850064D01*
X62632691Y-45935340D01*
X62647805Y-46010242D01*
X62660808Y-46070219D01*
X62670715Y-46110717D01*
X62676544Y-46127184D01*
X62676575Y-46127210D01*
X62694943Y-46136320D01*
X62732640Y-46151457D01*
X62781543Y-46169358D01*
X62784297Y-46170330D01*
X62846817Y-46193959D01*
X62919543Y-46223595D01*
X62987294Y-46253062D01*
X63098703Y-46303626D01*
X63345399Y-46135160D01*
X63362775Y-46123311D01*
X63437202Y-46072947D01*
X63503614Y-46028612D01*
X63558039Y-45992916D01*
X63596506Y-45968471D01*
X63615042Y-45957889D01*
X63627743Y-45960315D01*
X63656579Y-45979110D01*
X63701143Y-46016330D01*
X63762670Y-46073020D01*
X63842398Y-46150227D01*
X63849532Y-46157255D01*
X63912796Y-46220222D01*
X63968990Y-46277268D01*
X64014677Y-46324817D01*
X64046414Y-46359297D01*
X64060764Y-46377131D01*
X64060810Y-46377217D01*
X64062633Y-46390795D01*
X64055910Y-46412820D01*
X64038946Y-46446304D01*
X64010044Y-46494261D01*
X63967508Y-46559704D01*
X63909644Y-46645645D01*
X63899783Y-46660151D01*
X63849913Y-46733635D01*
X63805905Y-46798687D01*
X63770380Y-46851417D01*
X63745959Y-46887936D01*
X63735264Y-46904356D01*
X63734458Y-46907834D01*
X63739518Y-46933785D01*
X63754677Y-46976159D01*
X63777463Y-47027728D01*
X63808429Y-47095170D01*
X63843004Y-47175195D01*
X63872366Y-47247629D01*
X63879645Y-47266377D01*
X63898710Y-47314246D01*
X63912715Y-47347596D01*
X63919041Y-47360114D01*
X63926025Y-47361050D01*
X63957413Y-47366461D01*
X64008787Y-47375806D01*
X64074802Y-47388069D01*
X64150113Y-47402232D01*
X64229375Y-47417280D01*
X64307243Y-47432195D01*
X64378370Y-47445961D01*
X64437412Y-47457562D01*
X64479022Y-47465980D01*
X64497857Y-47470199D01*
X64500980Y-47471389D01*
X64508591Y-47477805D01*
X64514254Y-47491465D01*
X64518251Y-47515999D01*
X64520866Y-47555038D01*
X64522384Y-47612213D01*
X64523086Y-47691154D01*
X64523257Y-47795492D01*
X64523257Y-48112799D01*
X64447057Y-48127839D01*
X64437840Y-48129642D01*
X64388891Y-48138980D01*
X64321205Y-48151669D01*
X64242478Y-48166273D01*
X64160400Y-48181355D01*
X64128078Y-48187422D01*
X64055855Y-48202181D01*
X63995666Y-48216137D01*
X63953040Y-48227952D01*
X63933510Y-48236287D01*
X63924660Y-48249905D01*
X63908548Y-48285938D01*
X63892065Y-48332572D01*
X63886263Y-48350034D01*
X63864906Y-48407358D01*
X63837359Y-48475201D01*
X63808107Y-48542355D01*
X63792463Y-48577430D01*
X63770174Y-48629822D01*
X63754857Y-48669058D01*
X63749162Y-48688563D01*
X63749478Y-48690036D01*
X63760281Y-48710729D01*
X63784638Y-48750665D01*
X63820081Y-48805972D01*
X63864136Y-48872781D01*
X63914332Y-48947220D01*
X64079501Y-49189623D01*
X63862503Y-49406983D01*
X63841516Y-49427899D01*
X63777342Y-49490505D01*
X63719990Y-49544495D01*
X63672820Y-49586826D01*
X63639192Y-49614457D01*
X63622467Y-49624343D01*
X63604303Y-49616821D01*
X63566265Y-49595227D01*
X63512726Y-49562151D01*
X63447884Y-49520191D01*
X63375940Y-49471943D01*
X63305275Y-49424291D01*
X63241526Y-49382328D01*
X63189513Y-49349165D01*
X63153279Y-49327378D01*
X63136867Y-49319543D01*
X63135905Y-49319614D01*
X63114103Y-49327338D01*
X63075440Y-49345323D01*
X63027612Y-49370013D01*
X63027110Y-49370284D01*
X62963587Y-49402099D01*
X62920060Y-49417642D01*
X62893052Y-49417685D01*
X62879090Y-49403000D01*
X62873180Y-49388544D01*
X62857229Y-49349831D01*
X62832660Y-49290316D01*
X62800779Y-49213165D01*
X62762893Y-49121541D01*
X62720310Y-49018607D01*
X62674337Y-48907526D01*
X62632667Y-48806472D01*
X62590268Y-48702780D01*
X62552756Y-48610119D01*
X62521388Y-48531642D01*
X62497425Y-48470500D01*
X62482123Y-48429843D01*
X62476743Y-48412825D01*
X62487018Y-48397219D01*
X62515563Y-48371162D01*
X62555971Y-48340887D01*
X62652979Y-48261684D01*
X62739793Y-48160475D01*
X62803322Y-48049116D01*
X62843177Y-47930893D01*
X62858965Y-47809095D01*
X62850296Y-47687010D01*
X62816778Y-47567925D01*
X62758021Y-47455129D01*
X62673632Y-47351911D01*
X62629631Y-47311713D01*
X62524211Y-47240638D01*
X62411410Y-47194301D01*
X62294525Y-47171599D01*
X62176853Y-47171428D01*
X62061690Y-47192687D01*
X61952335Y-47234270D01*
X61852083Y-47295076D01*
X61764233Y-47374001D01*
X61692080Y-47469941D01*
X61638922Y-47581795D01*
X61608057Y-47708457D01*
X61602392Y-47769507D01*
X61610185Y-47901776D01*
X61645284Y-48027266D01*
X61706649Y-48143759D01*
X61793243Y-48249039D01*
X61904029Y-48340887D01*
X61942931Y-48369930D01*
X61972104Y-48396272D01*
X61983257Y-48412800D01*
X61978810Y-48427209D01*
X61964378Y-48465815D01*
X61941173Y-48525201D01*
X61910452Y-48602215D01*
X61873474Y-48693703D01*
X61831496Y-48796516D01*
X61785778Y-48907502D01*
X61744178Y-49008072D01*
X61701222Y-49111947D01*
X61662829Y-49204819D01*
X61630305Y-49283525D01*
X61604958Y-49344899D01*
X61588095Y-49385779D01*
X61581025Y-49403000D01*
X61580943Y-49403204D01*
X61566798Y-49417745D01*
X61539659Y-49417579D01*
X61496023Y-49401927D01*
X61432388Y-49370013D01*
X61427379Y-49367326D01*
X61380125Y-49343150D01*
X61342811Y-49326037D01*
X61323133Y-49319543D01*
X61307005Y-49327218D01*
X61270959Y-49348871D01*
X61219092Y-49381928D01*
X61155445Y-49423810D01*
X61084060Y-49471943D01*
X61013724Y-49519131D01*
X60948670Y-49561267D01*
X60894820Y-49594578D01*
X60856374Y-49616469D01*
X60837534Y-49624343D01*
X60834325Y-49623343D01*
X60811954Y-49607584D01*
X60773733Y-49575033D01*
X60723021Y-49528733D01*
X60663181Y-49471726D01*
X60597571Y-49407058D01*
X60380648Y-49189772D01*
X60549601Y-48941253D01*
X60718553Y-48692733D01*
X60667183Y-48581595D01*
X60667031Y-48581266D01*
X60636183Y-48510418D01*
X60604661Y-48431523D01*
X60579266Y-48361600D01*
X60575423Y-48350322D01*
X60556047Y-48297967D01*
X60538574Y-48257283D01*
X60526388Y-48236287D01*
X60521426Y-48233322D01*
X60491634Y-48223375D01*
X60441047Y-48210505D01*
X60375194Y-48196053D01*
X60299600Y-48181355D01*
X60276957Y-48177210D01*
X60195038Y-48162116D01*
X60118600Y-48147899D01*
X60055337Y-48135995D01*
X60012943Y-48127839D01*
X59936743Y-48112799D01*
X59936743Y-47795492D01*
X59936760Y-47756476D01*
X59937082Y-47661292D01*
X59938033Y-47590255D01*
X59939896Y-47539734D01*
X59942955Y-47506098D01*
X59947494Y-47485718D01*
X59953795Y-47474962D01*
X59962143Y-47470199D01*
X59970224Y-47468270D01*
X60003172Y-47461445D01*
X60055736Y-47451022D01*
X60122569Y-47438018D01*
X60198328Y-47423449D01*
X60277665Y-47408333D01*
X60355237Y-47393685D01*
X60425698Y-47380523D01*
X60483702Y-47369863D01*
X60523904Y-47362721D01*
X60540959Y-47360114D01*
X60542112Y-47358541D01*
X60551385Y-47338119D01*
X60567432Y-47299045D01*
X60587635Y-47247629D01*
X60615672Y-47178353D01*
X60650186Y-47098290D01*
X60682538Y-47027728D01*
X60689952Y-47011889D01*
X60710755Y-46962293D01*
X60723219Y-46924038D01*
X60724863Y-46904356D01*
X60724015Y-46902962D01*
X60710548Y-46882420D01*
X60683850Y-46842516D01*
X60646539Y-46787140D01*
X60601234Y-46720177D01*
X60550552Y-46645517D01*
X60493445Y-46560692D01*
X60450607Y-46494800D01*
X60421460Y-46446478D01*
X60404317Y-46412733D01*
X60397495Y-46390572D01*
X60399306Y-46377002D01*
X60399915Y-46375984D01*
X60416297Y-46356210D01*
X60449695Y-46320175D01*
X60496671Y-46271451D01*
X60553786Y-46213612D01*
X60617603Y-46150227D01*
X60683802Y-46085905D01*
X60748648Y-46025447D01*
X60796299Y-45984655D01*
X60827990Y-45962484D01*
X60844958Y-45957889D01*
X60847175Y-45958921D01*
X60870524Y-45972837D01*
X60912912Y-46000030D01*
X60970369Y-46037889D01*
X61038923Y-46083803D01*
X61114601Y-46135160D01*
X61361298Y-46303626D01*
X61472706Y-46253062D01*
X61475943Y-46251597D01*
X61544343Y-46221965D01*
X61616907Y-46192493D01*
X61678457Y-46169358D01*
X61678729Y-46169262D01*
X61727595Y-46151367D01*
X61765212Y-46136253D01*
X61783457Y-46127184D01*
X61783752Y-46126855D01*
X61789946Y-46108282D01*
X61800139Y-46066045D01*
X61813348Y-46004696D01*
X61828590Y-45928789D01*
X61844881Y-45842875D01*
X61845449Y-45839796D01*
X61861713Y-45752128D01*
X61876608Y-45672741D01*
X61889171Y-45606701D01*
X61898438Y-45559079D01*
X61903444Y-45534943D01*
X61903764Y-45533605D01*
X61907060Y-45523273D01*
X61913738Y-45515506D01*
X61927462Y-45509940D01*
X61951895Y-45506207D01*
X61990702Y-45503942D01*
X62047546Y-45502778D01*
X62126090Y-45502348D01*
X62230000Y-45502286D01*
X62243056Y-45502286D01*
X62343933Y-45502371D01*
G36*
X65495701Y-50510935D02*
G01*
X65494914Y-50581119D01*
X65492210Y-50630022D01*
X65486606Y-50664178D01*
X65477119Y-50690124D01*
X65462768Y-50714397D01*
X65459237Y-50719433D01*
X65421878Y-50759143D01*
X65379311Y-50789092D01*
X65357452Y-50798810D01*
X65278908Y-50815020D01*
X65201231Y-50804535D01*
X65129645Y-50768707D01*
X65069374Y-50708887D01*
X65064286Y-50700873D01*
X65047730Y-50654342D01*
X65036573Y-50589552D01*
X65031160Y-50514727D01*
X65031768Y-50445513D01*
X65178248Y-50445513D01*
X65179402Y-50541399D01*
X65179866Y-50547569D01*
X65186629Y-50600478D01*
X65198671Y-50634029D01*
X65219005Y-50657016D01*
X65253097Y-50678548D01*
X65286814Y-50679680D01*
X65321543Y-50654857D01*
X65327584Y-50648325D01*
X65339417Y-50628779D01*
X65346404Y-50600386D01*
X65349727Y-50556430D01*
X65350571Y-50490192D01*
X65349125Y-50428150D01*
X65341907Y-50369042D01*
X65327006Y-50331686D01*
X65302636Y-50312152D01*
X65267008Y-50306514D01*
X65253440Y-50307635D01*
X65215430Y-50328194D01*
X65190312Y-50374299D01*
X65178248Y-50445513D01*
X65031768Y-50445513D01*
X65031833Y-50438096D01*
X65038937Y-50367882D01*
X65052815Y-50312312D01*
X65070649Y-50275301D01*
X65120855Y-50217733D01*
X65188885Y-50181962D01*
X65272158Y-50169665D01*
X65294398Y-50170331D01*
X65359891Y-50183947D01*
X65413687Y-50218249D01*
X65463057Y-50277338D01*
X65465995Y-50281722D01*
X65479287Y-50305299D01*
X65487932Y-50331949D01*
X65492904Y-50368159D01*
X65495174Y-50420413D01*
X65495678Y-50490192D01*
X65495714Y-50495200D01*
X65495701Y-50510935D01*
G37*
X65495701Y-50510935D02*
X65494914Y-50581119D01*
X65492210Y-50630022D01*
X65486606Y-50664178D01*
X65477119Y-50690124D01*
X65462768Y-50714397D01*
X65459237Y-50719433D01*
X65421878Y-50759143D01*
X65379311Y-50789092D01*
X65357452Y-50798810D01*
X65278908Y-50815020D01*
X65201231Y-50804535D01*
X65129645Y-50768707D01*
X65069374Y-50708887D01*
X65064286Y-50700873D01*
X65047730Y-50654342D01*
X65036573Y-50589552D01*
X65031160Y-50514727D01*
X65031768Y-50445513D01*
X65178248Y-50445513D01*
X65179402Y-50541399D01*
X65179866Y-50547569D01*
X65186629Y-50600478D01*
X65198671Y-50634029D01*
X65219005Y-50657016D01*
X65253097Y-50678548D01*
X65286814Y-50679680D01*
X65321543Y-50654857D01*
X65327584Y-50648325D01*
X65339417Y-50628779D01*
X65346404Y-50600386D01*
X65349727Y-50556430D01*
X65350571Y-50490192D01*
X65349125Y-50428150D01*
X65341907Y-50369042D01*
X65327006Y-50331686D01*
X65302636Y-50312152D01*
X65267008Y-50306514D01*
X65253440Y-50307635D01*
X65215430Y-50328194D01*
X65190312Y-50374299D01*
X65178248Y-50445513D01*
X65031768Y-50445513D01*
X65031833Y-50438096D01*
X65038937Y-50367882D01*
X65052815Y-50312312D01*
X65070649Y-50275301D01*
X65120855Y-50217733D01*
X65188885Y-50181962D01*
X65272158Y-50169665D01*
X65294398Y-50170331D01*
X65359891Y-50183947D01*
X65413687Y-50218249D01*
X65463057Y-50277338D01*
X65465995Y-50281722D01*
X65479287Y-50305299D01*
X65487932Y-50331949D01*
X65492904Y-50368159D01*
X65495174Y-50420413D01*
X65495678Y-50490192D01*
X65495714Y-50495200D01*
X65495701Y-50510935D01*
G36*
X59370307Y-50551305D02*
G01*
X59366762Y-50627521D01*
X59357483Y-50683294D01*
X59340375Y-50724613D01*
X59313344Y-50757467D01*
X59274292Y-50787846D01*
X59249445Y-50801660D01*
X59209615Y-50810965D01*
X59153665Y-50810230D01*
X59122385Y-50807283D01*
X59084653Y-50798283D01*
X59054494Y-50778720D01*
X59019408Y-50742267D01*
X59014720Y-50736943D01*
X58983177Y-50695969D01*
X58968128Y-50660283D01*
X58964286Y-50617966D01*
X58964286Y-50555779D01*
X59007742Y-50572182D01*
X59039424Y-50591356D01*
X59066962Y-50636347D01*
X59072711Y-50650752D01*
X59104855Y-50691546D01*
X59148611Y-50712081D01*
X59196254Y-50710235D01*
X59240057Y-50683886D01*
X59255111Y-50667455D01*
X59268763Y-50642667D01*
X59264493Y-50620144D01*
X59239916Y-50596964D01*
X59192651Y-50570202D01*
X59120314Y-50536934D01*
X58971543Y-50471816D01*
X58967595Y-50407308D01*
X58969079Y-50366220D01*
X59066010Y-50366220D01*
X59073368Y-50391657D01*
X59106848Y-50418814D01*
X59167614Y-50449714D01*
X59177669Y-50454190D01*
X59225751Y-50475017D01*
X59261726Y-50489665D01*
X59278444Y-50495200D01*
X59280977Y-50491126D01*
X59281993Y-50466247D01*
X59278369Y-50426257D01*
X59269242Y-50387152D01*
X59240773Y-50337884D01*
X59199678Y-50310122D01*
X59150590Y-50306364D01*
X59098144Y-50329109D01*
X59083609Y-50340481D01*
X59066010Y-50366220D01*
X58969079Y-50366220D01*
X58969338Y-50359064D01*
X58991281Y-50298096D01*
X59018979Y-50264497D01*
X59076405Y-50226966D01*
X59144527Y-50208006D01*
X59214947Y-50209507D01*
X59279267Y-50233355D01*
X59293426Y-50242513D01*
X59325904Y-50270849D01*
X59348116Y-50306695D01*
X59361804Y-50355384D01*
X59368715Y-50422249D01*
X59369628Y-50466247D01*
X59370590Y-50512622D01*
X59370307Y-50551305D01*
G37*
X59370307Y-50551305D02*
X59366762Y-50627521D01*
X59357483Y-50683294D01*
X59340375Y-50724613D01*
X59313344Y-50757467D01*
X59274292Y-50787846D01*
X59249445Y-50801660D01*
X59209615Y-50810965D01*
X59153665Y-50810230D01*
X59122385Y-50807283D01*
X59084653Y-50798283D01*
X59054494Y-50778720D01*
X59019408Y-50742267D01*
X59014720Y-50736943D01*
X58983177Y-50695969D01*
X58968128Y-50660283D01*
X58964286Y-50617966D01*
X58964286Y-50555779D01*
X59007742Y-50572182D01*
X59039424Y-50591356D01*
X59066962Y-50636347D01*
X59072711Y-50650752D01*
X59104855Y-50691546D01*
X59148611Y-50712081D01*
X59196254Y-50710235D01*
X59240057Y-50683886D01*
X59255111Y-50667455D01*
X59268763Y-50642667D01*
X59264493Y-50620144D01*
X59239916Y-50596964D01*
X59192651Y-50570202D01*
X59120314Y-50536934D01*
X58971543Y-50471816D01*
X58967595Y-50407308D01*
X58969079Y-50366220D01*
X59066010Y-50366220D01*
X59073368Y-50391657D01*
X59106848Y-50418814D01*
X59167614Y-50449714D01*
X59177669Y-50454190D01*
X59225751Y-50475017D01*
X59261726Y-50489665D01*
X59278444Y-50495200D01*
X59280977Y-50491126D01*
X59281993Y-50466247D01*
X59278369Y-50426257D01*
X59269242Y-50387152D01*
X59240773Y-50337884D01*
X59199678Y-50310122D01*
X59150590Y-50306364D01*
X59098144Y-50329109D01*
X59083609Y-50340481D01*
X59066010Y-50366220D01*
X58969079Y-50366220D01*
X58969338Y-50359064D01*
X58991281Y-50298096D01*
X59018979Y-50264497D01*
X59076405Y-50226966D01*
X59144527Y-50208006D01*
X59214947Y-50209507D01*
X59279267Y-50233355D01*
X59293426Y-50242513D01*
X59325904Y-50270849D01*
X59348116Y-50306695D01*
X59361804Y-50355384D01*
X59368715Y-50422249D01*
X59369628Y-50466247D01*
X59370590Y-50512622D01*
X59370307Y-50551305D01*
G36*
X62908543Y-50009444D02*
G01*
X62955714Y-50029342D01*
X62955714Y-50426509D01*
X62955519Y-50529498D01*
X62954998Y-50622141D01*
X62954199Y-50700700D01*
X62953172Y-50761439D01*
X62951963Y-50800623D01*
X62950623Y-50814514D01*
X62950099Y-50814468D01*
X62932287Y-50809420D01*
X62899823Y-50798580D01*
X62854114Y-50782646D01*
X62854114Y-50578173D01*
X62853824Y-50497832D01*
X62852474Y-50439562D01*
X62849369Y-50399909D01*
X62843812Y-50373618D01*
X62835107Y-50355436D01*
X62822556Y-50340107D01*
X62813999Y-50331955D01*
X62767728Y-50309375D01*
X62716728Y-50311375D01*
X62669993Y-50338073D01*
X62663189Y-50344698D01*
X62652293Y-50358456D01*
X62644836Y-50376642D01*
X62640169Y-50404177D01*
X62637642Y-50445981D01*
X62636602Y-50506973D01*
X62636400Y-50592073D01*
X62636303Y-50635234D01*
X62635674Y-50706224D01*
X62634556Y-50763076D01*
X62633063Y-50800828D01*
X62631309Y-50814514D01*
X62630785Y-50814468D01*
X62612973Y-50809420D01*
X62580509Y-50798580D01*
X62534800Y-50782646D01*
X62534823Y-50577237D01*
X62534857Y-50558951D01*
X62536778Y-50463626D01*
X62542678Y-50391543D01*
X62554001Y-50337813D01*
X62572187Y-50297549D01*
X62598679Y-50265861D01*
X62634918Y-50237861D01*
X62670263Y-50220333D01*
X62726773Y-50206785D01*
X62782356Y-50206015D01*
X62825086Y-50219195D01*
X62828298Y-50221015D01*
X62838205Y-50220820D01*
X62844975Y-50205572D01*
X62849861Y-50170613D01*
X62854114Y-50111289D01*
X62861371Y-49989547D01*
X62908543Y-50009444D01*
G37*
X62908543Y-50009444D02*
X62955714Y-50029342D01*
X62955714Y-50426509D01*
X62955519Y-50529498D01*
X62954998Y-50622141D01*
X62954199Y-50700700D01*
X62953172Y-50761439D01*
X62951963Y-50800623D01*
X62950623Y-50814514D01*
X62950099Y-50814468D01*
X62932287Y-50809420D01*
X62899823Y-50798580D01*
X62854114Y-50782646D01*
X62854114Y-50578173D01*
X62853824Y-50497832D01*
X62852474Y-50439562D01*
X62849369Y-50399909D01*
X62843812Y-50373618D01*
X62835107Y-50355436D01*
X62822556Y-50340107D01*
X62813999Y-50331955D01*
X62767728Y-50309375D01*
X62716728Y-50311375D01*
X62669993Y-50338073D01*
X62663189Y-50344698D01*
X62652293Y-50358456D01*
X62644836Y-50376642D01*
X62640169Y-50404177D01*
X62637642Y-50445981D01*
X62636602Y-50506973D01*
X62636400Y-50592073D01*
X62636303Y-50635234D01*
X62635674Y-50706224D01*
X62634556Y-50763076D01*
X62633063Y-50800828D01*
X62631309Y-50814514D01*
X62630785Y-50814468D01*
X62612973Y-50809420D01*
X62580509Y-50798580D01*
X62534800Y-50782646D01*
X62534823Y-50577237D01*
X62534857Y-50558951D01*
X62536778Y-50463626D01*
X62542678Y-50391543D01*
X62554001Y-50337813D01*
X62572187Y-50297549D01*
X62598679Y-50265861D01*
X62634918Y-50237861D01*
X62670263Y-50220333D01*
X62726773Y-50206785D01*
X62782356Y-50206015D01*
X62825086Y-50219195D01*
X62828298Y-50221015D01*
X62838205Y-50220820D01*
X62844975Y-50205572D01*
X62849861Y-50170613D01*
X62854114Y-50111289D01*
X62861371Y-49989547D01*
X62908543Y-50009444D01*
G36*
X61459537Y-50566313D02*
G01*
X61451345Y-50643462D01*
X61433519Y-50701276D01*
X61403975Y-50745422D01*
X61360625Y-50781568D01*
X61319332Y-50802463D01*
X61249987Y-50814090D01*
X61180736Y-50801377D01*
X61118145Y-50765945D01*
X61068779Y-50709418D01*
X61062818Y-50698995D01*
X61054945Y-50680733D01*
X61049106Y-50657429D01*
X61044999Y-50625085D01*
X61042325Y-50579704D01*
X61040781Y-50517287D01*
X61040734Y-50511748D01*
X61141429Y-50511748D01*
X61141772Y-50564577D01*
X61143942Y-50612362D01*
X61149307Y-50643209D01*
X61159217Y-50663935D01*
X61175021Y-50681356D01*
X61178724Y-50684705D01*
X61226299Y-50709419D01*
X61276635Y-50706890D01*
X61323517Y-50677288D01*
X61337477Y-50661953D01*
X61349160Y-50641622D01*
X61355686Y-50613514D01*
X61358524Y-50570550D01*
X61359143Y-50505647D01*
X61358837Y-50456122D01*
X61356722Y-50407782D01*
X61351390Y-50376587D01*
X61341460Y-50355647D01*
X61325550Y-50338073D01*
X61316204Y-50330159D01*
X61267776Y-50308843D01*
X61217040Y-50312198D01*
X61172987Y-50340107D01*
X61163504Y-50351173D01*
X61151939Y-50372009D01*
X61145252Y-50401106D01*
X61142173Y-50445381D01*
X61141429Y-50511748D01*
X61040734Y-50511748D01*
X61040067Y-50433837D01*
X61039883Y-50325358D01*
X61039829Y-49988601D01*
X61087000Y-50008362D01*
X61099472Y-50013770D01*
X61119324Y-50025985D01*
X61130687Y-50044482D01*
X61136933Y-50076829D01*
X61141429Y-50130593D01*
X61145535Y-50178866D01*
X61150963Y-50210557D01*
X61158739Y-50222383D01*
X61170457Y-50219212D01*
X61200318Y-50208067D01*
X61253684Y-50205304D01*
X61311093Y-50215625D01*
X61360625Y-50237861D01*
X61387876Y-50258443D01*
X61422865Y-50298600D01*
X61445274Y-50350086D01*
X61457190Y-50418568D01*
X61460542Y-50505647D01*
X61460698Y-50509714D01*
X61459537Y-50566313D01*
G37*
X61459537Y-50566313D02*
X61451345Y-50643462D01*
X61433519Y-50701276D01*
X61403975Y-50745422D01*
X61360625Y-50781568D01*
X61319332Y-50802463D01*
X61249987Y-50814090D01*
X61180736Y-50801377D01*
X61118145Y-50765945D01*
X61068779Y-50709418D01*
X61062818Y-50698995D01*
X61054945Y-50680733D01*
X61049106Y-50657429D01*
X61044999Y-50625085D01*
X61042325Y-50579704D01*
X61040781Y-50517287D01*
X61040734Y-50511748D01*
X61141429Y-50511748D01*
X61141772Y-50564577D01*
X61143942Y-50612362D01*
X61149307Y-50643209D01*
X61159217Y-50663935D01*
X61175021Y-50681356D01*
X61178724Y-50684705D01*
X61226299Y-50709419D01*
X61276635Y-50706890D01*
X61323517Y-50677288D01*
X61337477Y-50661953D01*
X61349160Y-50641622D01*
X61355686Y-50613514D01*
X61358524Y-50570550D01*
X61359143Y-50505647D01*
X61358837Y-50456122D01*
X61356722Y-50407782D01*
X61351390Y-50376587D01*
X61341460Y-50355647D01*
X61325550Y-50338073D01*
X61316204Y-50330159D01*
X61267776Y-50308843D01*
X61217040Y-50312198D01*
X61172987Y-50340107D01*
X61163504Y-50351173D01*
X61151939Y-50372009D01*
X61145252Y-50401106D01*
X61142173Y-50445381D01*
X61141429Y-50511748D01*
X61040734Y-50511748D01*
X61040067Y-50433837D01*
X61039883Y-50325358D01*
X61039829Y-49988601D01*
X61087000Y-50008362D01*
X61099472Y-50013770D01*
X61119324Y-50025985D01*
X61130687Y-50044482D01*
X61136933Y-50076829D01*
X61141429Y-50130593D01*
X61145535Y-50178866D01*
X61150963Y-50210557D01*
X61158739Y-50222383D01*
X61170457Y-50219212D01*
X61200318Y-50208067D01*
X61253684Y-50205304D01*
X61311093Y-50215625D01*
X61360625Y-50237861D01*
X61387876Y-50258443D01*
X61422865Y-50298600D01*
X61445274Y-50350086D01*
X61457190Y-50418568D01*
X61460542Y-50505647D01*
X61460698Y-50509714D01*
X61459537Y-50566313D01*
G36*
X59712829Y-50211097D02*
G01*
X59772753Y-50233355D01*
X59797673Y-50250080D01*
X59822910Y-50274043D01*
X59840912Y-50304526D01*
X59852858Y-50346023D01*
X59859930Y-50403032D01*
X59863308Y-50480047D01*
X59864171Y-50581565D01*
X59864002Y-50634027D01*
X59863153Y-50705715D01*
X59861711Y-50762925D01*
X59859814Y-50800809D01*
X59857597Y-50814514D01*
X59843172Y-50809981D01*
X59814054Y-50797670D01*
X59813181Y-50797272D01*
X59798060Y-50789356D01*
X59787891Y-50778495D01*
X59781691Y-50759471D01*
X59778478Y-50727069D01*
X59777270Y-50676071D01*
X59777086Y-50601261D01*
X59776714Y-50553804D01*
X59772750Y-50464615D01*
X59763673Y-50399287D01*
X59748524Y-50354393D01*
X59726345Y-50326507D01*
X59696175Y-50312203D01*
X59691990Y-50311206D01*
X59635480Y-50310427D01*
X59591410Y-50335744D01*
X59560972Y-50386502D01*
X59555544Y-50401175D01*
X59543171Y-50433649D01*
X59536905Y-50448572D01*
X59524036Y-50446516D01*
X59495933Y-50435357D01*
X59469721Y-50416927D01*
X59457771Y-50382098D01*
X59461336Y-50357151D01*
X59483235Y-50306547D01*
X59518644Y-50259128D01*
X59560052Y-50226334D01*
X59577400Y-50218752D01*
X59643089Y-50206076D01*
X59712829Y-50211097D01*
G37*
X59712829Y-50211097D02*
X59772753Y-50233355D01*
X59797673Y-50250080D01*
X59822910Y-50274043D01*
X59840912Y-50304526D01*
X59852858Y-50346023D01*
X59859930Y-50403032D01*
X59863308Y-50480047D01*
X59864171Y-50581565D01*
X59864002Y-50634027D01*
X59863153Y-50705715D01*
X59861711Y-50762925D01*
X59859814Y-50800809D01*
X59857597Y-50814514D01*
X59843172Y-50809981D01*
X59814054Y-50797670D01*
X59813181Y-50797272D01*
X59798060Y-50789356D01*
X59787891Y-50778495D01*
X59781691Y-50759471D01*
X59778478Y-50727069D01*
X59777270Y-50676071D01*
X59777086Y-50601261D01*
X59776714Y-50553804D01*
X59772750Y-50464615D01*
X59763673Y-50399287D01*
X59748524Y-50354393D01*
X59726345Y-50326507D01*
X59696175Y-50312203D01*
X59691990Y-50311206D01*
X59635480Y-50310427D01*
X59591410Y-50335744D01*
X59560972Y-50386502D01*
X59555544Y-50401175D01*
X59543171Y-50433649D01*
X59536905Y-50448572D01*
X59524036Y-50446516D01*
X59495933Y-50435357D01*
X59469721Y-50416927D01*
X59457771Y-50382098D01*
X59461336Y-50357151D01*
X59483235Y-50306547D01*
X59518644Y-50259128D01*
X59560052Y-50226334D01*
X59577400Y-50218752D01*
X59643089Y-50206076D01*
X59712829Y-50211097D01*
G36*
X63661020Y-50177822D02*
G01*
X63728810Y-50209680D01*
X63784366Y-50264770D01*
X63795881Y-50282016D01*
X63805432Y-50301562D01*
X63812206Y-50326198D01*
X63816819Y-50360711D01*
X63819888Y-50409889D01*
X63822029Y-50478519D01*
X63823859Y-50571389D01*
X63828404Y-50829007D01*
X63790225Y-50814491D01*
X63755268Y-50801156D01*
X63729097Y-50788323D01*
X63712013Y-50771780D01*
X63702086Y-50746465D01*
X63697386Y-50707316D01*
X63695982Y-50649268D01*
X63695943Y-50567261D01*
X63695744Y-50501895D01*
X63694559Y-50439173D01*
X63691729Y-50396334D01*
X63686609Y-50368220D01*
X63678553Y-50349675D01*
X63666914Y-50335543D01*
X63638303Y-50315600D01*
X63590239Y-50308083D01*
X63542688Y-50327079D01*
X63539550Y-50329511D01*
X63529769Y-50340748D01*
X63522553Y-50358770D01*
X63517299Y-50388026D01*
X63513402Y-50432962D01*
X63510256Y-50498028D01*
X63507257Y-50587670D01*
X63500000Y-50827697D01*
X63438314Y-50800044D01*
X63376629Y-50772391D01*
X63376629Y-50553246D01*
X63376884Y-50493711D01*
X63379086Y-50410892D01*
X63384661Y-50349227D01*
X63394941Y-50303748D01*
X63411258Y-50269484D01*
X63434943Y-50241466D01*
X63467328Y-50214723D01*
X63513907Y-50187780D01*
X63587287Y-50170191D01*
X63661020Y-50177822D01*
G37*
X63661020Y-50177822D02*
X63728810Y-50209680D01*
X63784366Y-50264770D01*
X63795881Y-50282016D01*
X63805432Y-50301562D01*
X63812206Y-50326198D01*
X63816819Y-50360711D01*
X63819888Y-50409889D01*
X63822029Y-50478519D01*
X63823859Y-50571389D01*
X63828404Y-50829007D01*
X63790225Y-50814491D01*
X63755268Y-50801156D01*
X63729097Y-50788323D01*
X63712013Y-50771780D01*
X63702086Y-50746465D01*
X63697386Y-50707316D01*
X63695982Y-50649268D01*
X63695943Y-50567261D01*
X63695744Y-50501895D01*
X63694559Y-50439173D01*
X63691729Y-50396334D01*
X63686609Y-50368220D01*
X63678553Y-50349675D01*
X63666914Y-50335543D01*
X63638303Y-50315600D01*
X63590239Y-50308083D01*
X63542688Y-50327079D01*
X63539550Y-50329511D01*
X63529769Y-50340748D01*
X63522553Y-50358770D01*
X63517299Y-50388026D01*
X63513402Y-50432962D01*
X63510256Y-50498028D01*
X63507257Y-50587670D01*
X63500000Y-50827697D01*
X63438314Y-50800044D01*
X63376629Y-50772391D01*
X63376629Y-50553246D01*
X63376884Y-50493711D01*
X63379086Y-50410892D01*
X63384661Y-50349227D01*
X63394941Y-50303748D01*
X63411258Y-50269484D01*
X63434943Y-50241466D01*
X63467328Y-50214723D01*
X63513907Y-50187780D01*
X63587287Y-50170191D01*
X63661020Y-50177822D01*
G36*
X60883941Y-50209282D02*
G01*
X60915774Y-50221758D01*
X60952743Y-50238602D01*
X60952743Y-50725196D01*
X60906812Y-50771127D01*
X60896320Y-50781427D01*
X60867255Y-50804320D01*
X60837943Y-50811735D01*
X60794326Y-50808321D01*
X60776568Y-50806114D01*
X60730767Y-50801445D01*
X60698743Y-50799585D01*
X60689244Y-50799869D01*
X60650274Y-50802948D01*
X60603160Y-50808321D01*
X60588085Y-50810168D01*
X60550110Y-50810893D01*
X60522325Y-50799429D01*
X60490674Y-50771127D01*
X60444743Y-50725196D01*
X60444743Y-50465055D01*
X60445101Y-50388180D01*
X60446216Y-50314886D01*
X60447952Y-50256850D01*
X60450167Y-50218663D01*
X60452721Y-50204914D01*
X60453256Y-50204951D01*
X60471808Y-50211793D01*
X60503153Y-50226868D01*
X60545608Y-50248822D01*
X60549604Y-50477240D01*
X60553600Y-50705657D01*
X60640686Y-50705657D01*
X60644657Y-50455286D01*
X60645916Y-50387227D01*
X60647718Y-50314482D01*
X60649671Y-50256730D01*
X60651612Y-50218648D01*
X60653377Y-50204914D01*
X60653885Y-50204962D01*
X60671482Y-50210015D01*
X60703834Y-50220849D01*
X60749543Y-50236783D01*
X60749765Y-50456706D01*
X60749988Y-50494909D01*
X60751531Y-50569146D01*
X60754292Y-50631145D01*
X60757977Y-50675308D01*
X60762292Y-50696041D01*
X60777732Y-50707131D01*
X60809241Y-50710556D01*
X60843886Y-50705657D01*
X60847857Y-50455286D01*
X60849278Y-50391663D01*
X60852225Y-50316356D01*
X60856079Y-50257286D01*
X60860542Y-50218718D01*
X60865317Y-50204914D01*
X60883941Y-50209282D01*
G37*
X60883941Y-50209282D02*
X60915774Y-50221758D01*
X60952743Y-50238602D01*
X60952743Y-50725196D01*
X60906812Y-50771127D01*
X60896320Y-50781427D01*
X60867255Y-50804320D01*
X60837943Y-50811735D01*
X60794326Y-50808321D01*
X60776568Y-50806114D01*
X60730767Y-50801445D01*
X60698743Y-50799585D01*
X60689244Y-50799869D01*
X60650274Y-50802948D01*
X60603160Y-50808321D01*
X60588085Y-50810168D01*
X60550110Y-50810893D01*
X60522325Y-50799429D01*
X60490674Y-50771127D01*
X60444743Y-50725196D01*
X60444743Y-50465055D01*
X60445101Y-50388180D01*
X60446216Y-50314886D01*
X60447952Y-50256850D01*
X60450167Y-50218663D01*
X60452721Y-50204914D01*
X60453256Y-50204951D01*
X60471808Y-50211793D01*
X60503153Y-50226868D01*
X60545608Y-50248822D01*
X60549604Y-50477240D01*
X60553600Y-50705657D01*
X60640686Y-50705657D01*
X60644657Y-50455286D01*
X60645916Y-50387227D01*
X60647718Y-50314482D01*
X60649671Y-50256730D01*
X60651612Y-50218648D01*
X60653377Y-50204914D01*
X60653885Y-50204962D01*
X60671482Y-50210015D01*
X60703834Y-50220849D01*
X60749543Y-50236783D01*
X60749765Y-50456706D01*
X60749988Y-50494909D01*
X60751531Y-50569146D01*
X60754292Y-50631145D01*
X60757977Y-50675308D01*
X60762292Y-50696041D01*
X60777732Y-50707131D01*
X60809241Y-50710556D01*
X60843886Y-50705657D01*
X60847857Y-50455286D01*
X60849278Y-50391663D01*
X60852225Y-50316356D01*
X60856079Y-50257286D01*
X60860542Y-50218718D01*
X60865317Y-50204914D01*
X60883941Y-50209282D01*
G36*
X60197495Y-50206220D02*
G01*
X60228599Y-50214121D01*
X60257559Y-50233817D01*
X60294831Y-50270484D01*
X60318801Y-50296378D01*
X60343770Y-50329997D01*
X60355031Y-50361506D01*
X60357657Y-50401485D01*
X60357657Y-50466917D01*
X60313035Y-50443842D01*
X60277673Y-50415724D01*
X60253451Y-50377848D01*
X60249291Y-50367551D01*
X60217594Y-50327637D01*
X60173554Y-50307624D01*
X60125531Y-50309572D01*
X60081886Y-50335543D01*
X60063420Y-50356635D01*
X60052663Y-50383619D01*
X60064178Y-50407634D01*
X60099981Y-50431791D01*
X60162090Y-50459199D01*
X60171515Y-50462985D01*
X60228058Y-50487759D01*
X60276580Y-50512189D01*
X60307451Y-50531486D01*
X60338371Y-50565953D01*
X60358927Y-50620957D01*
X60356744Y-50679983D01*
X60332424Y-50735845D01*
X60286568Y-50781355D01*
X60249438Y-50800727D01*
X60177711Y-50814292D01*
X60137852Y-50812462D01*
X60100953Y-50802568D01*
X60086797Y-50781806D01*
X60092091Y-50747613D01*
X60093631Y-50743092D01*
X60105842Y-50719116D01*
X60126174Y-50710042D01*
X60164908Y-50710649D01*
X60192257Y-50711474D01*
X60224257Y-50704392D01*
X60246182Y-50683219D01*
X60258670Y-50657152D01*
X60260062Y-50629845D01*
X60259998Y-50629685D01*
X60243807Y-50614930D01*
X60209155Y-50593457D01*
X60164321Y-50569458D01*
X60117582Y-50547125D01*
X60077217Y-50530652D01*
X60051504Y-50524229D01*
X60047679Y-50530518D01*
X60042864Y-50560115D01*
X60039566Y-50608447D01*
X60038343Y-50669372D01*
X60038058Y-50711542D01*
X60036718Y-50764653D01*
X60034528Y-50801025D01*
X60031769Y-50814514D01*
X60017344Y-50809981D01*
X59988226Y-50797670D01*
X59951257Y-50780826D01*
X59951257Y-50564721D01*
X59951493Y-50509327D01*
X59953729Y-50425207D01*
X59959423Y-50362800D01*
X59969903Y-50317358D01*
X59986497Y-50284133D01*
X60010531Y-50258378D01*
X60043333Y-50235344D01*
X60085124Y-50216335D01*
X60162287Y-50204914D01*
X60197495Y-50206220D01*
G37*
X60197495Y-50206220D02*
X60228599Y-50214121D01*
X60257559Y-50233817D01*
X60294831Y-50270484D01*
X60318801Y-50296378D01*
X60343770Y-50329997D01*
X60355031Y-50361506D01*
X60357657Y-50401485D01*
X60357657Y-50466917D01*
X60313035Y-50443842D01*
X60277673Y-50415724D01*
X60253451Y-50377848D01*
X60249291Y-50367551D01*
X60217594Y-50327637D01*
X60173554Y-50307624D01*
X60125531Y-50309572D01*
X60081886Y-50335543D01*
X60063420Y-50356635D01*
X60052663Y-50383619D01*
X60064178Y-50407634D01*
X60099981Y-50431791D01*
X60162090Y-50459199D01*
X60171515Y-50462985D01*
X60228058Y-50487759D01*
X60276580Y-50512189D01*
X60307451Y-50531486D01*
X60338371Y-50565953D01*
X60358927Y-50620957D01*
X60356744Y-50679983D01*
X60332424Y-50735845D01*
X60286568Y-50781355D01*
X60249438Y-50800727D01*
X60177711Y-50814292D01*
X60137852Y-50812462D01*
X60100953Y-50802568D01*
X60086797Y-50781806D01*
X60092091Y-50747613D01*
X60093631Y-50743092D01*
X60105842Y-50719116D01*
X60126174Y-50710042D01*
X60164908Y-50710649D01*
X60192257Y-50711474D01*
X60224257Y-50704392D01*
X60246182Y-50683219D01*
X60258670Y-50657152D01*
X60260062Y-50629845D01*
X60259998Y-50629685D01*
X60243807Y-50614930D01*
X60209155Y-50593457D01*
X60164321Y-50569458D01*
X60117582Y-50547125D01*
X60077217Y-50530652D01*
X60051504Y-50524229D01*
X60047679Y-50530518D01*
X60042864Y-50560115D01*
X60039566Y-50608447D01*
X60038343Y-50669372D01*
X60038058Y-50711542D01*
X60036718Y-50764653D01*
X60034528Y-50801025D01*
X60031769Y-50814514D01*
X60017344Y-50809981D01*
X59988226Y-50797670D01*
X59951257Y-50780826D01*
X59951257Y-50564721D01*
X59951493Y-50509327D01*
X59953729Y-50425207D01*
X59959423Y-50362800D01*
X59969903Y-50317358D01*
X59986497Y-50284133D01*
X60010531Y-50258378D01*
X60043333Y-50235344D01*
X60085124Y-50216335D01*
X60162287Y-50204914D01*
X60197495Y-50206220D01*
G36*
X64941252Y-50673000D02*
G01*
X64941651Y-50705339D01*
X64942929Y-50813455D01*
X64943185Y-50896186D01*
X64941634Y-50956426D01*
X64937490Y-50997073D01*
X64929964Y-51021023D01*
X64918271Y-51031171D01*
X64901624Y-51030414D01*
X64879236Y-51021648D01*
X64850321Y-51007769D01*
X64844142Y-51004808D01*
X64818413Y-50990311D01*
X64804976Y-50973065D01*
X64799834Y-50944308D01*
X64798990Y-50895283D01*
X64798952Y-50807257D01*
X64708276Y-50807257D01*
X64652498Y-50804815D01*
X64608640Y-50794908D01*
X64572218Y-50774886D01*
X64569503Y-50772929D01*
X64532546Y-50739869D01*
X64506826Y-50699931D01*
X64490606Y-50647657D01*
X64482148Y-50577588D01*
X64480083Y-50498430D01*
X64624857Y-50498430D01*
X64624882Y-50511697D01*
X64626261Y-50571584D01*
X64630687Y-50610732D01*
X64639461Y-50636153D01*
X64653886Y-50654857D01*
X64654784Y-50655750D01*
X64690237Y-50679952D01*
X64724596Y-50677567D01*
X64763403Y-50648260D01*
X64772895Y-50638244D01*
X64786876Y-50617708D01*
X64794760Y-50590997D01*
X64798245Y-50550499D01*
X64799029Y-50488603D01*
X64798350Y-50451130D01*
X64790983Y-50382980D01*
X64774168Y-50338330D01*
X64746234Y-50313926D01*
X64705509Y-50306514D01*
X64688350Y-50308094D01*
X64658660Y-50323766D01*
X64639031Y-50358691D01*
X64628188Y-50415901D01*
X64624857Y-50498430D01*
X64480083Y-50498430D01*
X64479714Y-50484267D01*
X64480253Y-50416169D01*
X64482707Y-50364587D01*
X64488158Y-50328816D01*
X64497686Y-50302015D01*
X64512371Y-50277338D01*
X64525852Y-50258480D01*
X64574799Y-50207568D01*
X64630256Y-50179918D01*
X64699928Y-50171165D01*
X64779664Y-50179890D01*
X64848595Y-50211185D01*
X64903113Y-50266381D01*
X64907223Y-50272224D01*
X64916808Y-50287753D01*
X64924151Y-50305498D01*
X64929612Y-50329290D01*
X64933550Y-50362958D01*
X64936323Y-50410333D01*
X64938292Y-50475245D01*
X64938528Y-50488603D01*
X64939815Y-50561524D01*
X64941252Y-50673000D01*
G37*
X64941252Y-50673000D02*
X64941651Y-50705339D01*
X64942929Y-50813455D01*
X64943185Y-50896186D01*
X64941634Y-50956426D01*
X64937490Y-50997073D01*
X64929964Y-51021023D01*
X64918271Y-51031171D01*
X64901624Y-51030414D01*
X64879236Y-51021648D01*
X64850321Y-51007769D01*
X64844142Y-51004808D01*
X64818413Y-50990311D01*
X64804976Y-50973065D01*
X64799834Y-50944308D01*
X64798990Y-50895283D01*
X64798952Y-50807257D01*
X64708276Y-50807257D01*
X64652498Y-50804815D01*
X64608640Y-50794908D01*
X64572218Y-50774886D01*
X64569503Y-50772929D01*
X64532546Y-50739869D01*
X64506826Y-50699931D01*
X64490606Y-50647657D01*
X64482148Y-50577588D01*
X64480083Y-50498430D01*
X64624857Y-50498430D01*
X64624882Y-50511697D01*
X64626261Y-50571584D01*
X64630687Y-50610732D01*
X64639461Y-50636153D01*
X64653886Y-50654857D01*
X64654784Y-50655750D01*
X64690237Y-50679952D01*
X64724596Y-50677567D01*
X64763403Y-50648260D01*
X64772895Y-50638244D01*
X64786876Y-50617708D01*
X64794760Y-50590997D01*
X64798245Y-50550499D01*
X64799029Y-50488603D01*
X64798350Y-50451130D01*
X64790983Y-50382980D01*
X64774168Y-50338330D01*
X64746234Y-50313926D01*
X64705509Y-50306514D01*
X64688350Y-50308094D01*
X64658660Y-50323766D01*
X64639031Y-50358691D01*
X64628188Y-50415901D01*
X64624857Y-50498430D01*
X64480083Y-50498430D01*
X64479714Y-50484267D01*
X64480253Y-50416169D01*
X64482707Y-50364587D01*
X64488158Y-50328816D01*
X64497686Y-50302015D01*
X64512371Y-50277338D01*
X64525852Y-50258480D01*
X64574799Y-50207568D01*
X64630256Y-50179918D01*
X64699928Y-50171165D01*
X64779664Y-50179890D01*
X64848595Y-50211185D01*
X64903113Y-50266381D01*
X64907223Y-50272224D01*
X64916808Y-50287753D01*
X64924151Y-50305498D01*
X64929612Y-50329290D01*
X64933550Y-50362958D01*
X64936323Y-50410333D01*
X64938292Y-50475245D01*
X64938528Y-50488603D01*
X64939815Y-50561524D01*
X64941252Y-50673000D01*
G36*
X62319483Y-50220569D02*
G01*
X62369376Y-50249661D01*
X62391325Y-50272327D01*
X62433504Y-50340082D01*
X62447714Y-50413950D01*
X62447714Y-50464770D01*
X62400999Y-50445128D01*
X62368692Y-50425308D01*
X62343231Y-50384160D01*
X62340616Y-50375675D01*
X62312478Y-50332451D01*
X62270067Y-50309103D01*
X62221370Y-50308100D01*
X62174373Y-50331914D01*
X62167357Y-50338056D01*
X62143893Y-50364745D01*
X62140019Y-50388014D01*
X62157768Y-50410862D01*
X62199179Y-50436287D01*
X62266286Y-50467288D01*
X62270824Y-50469252D01*
X62345322Y-50503990D01*
X62396203Y-50534763D01*
X62427525Y-50565488D01*
X62443343Y-50600082D01*
X62447714Y-50642462D01*
X62441986Y-50689446D01*
X62413062Y-50749585D01*
X62362178Y-50792788D01*
X62325374Y-50805759D01*
X62273434Y-50812856D01*
X62222999Y-50811340D01*
X62186983Y-50800632D01*
X62183158Y-50797966D01*
X62172998Y-50779337D01*
X62180048Y-50746505D01*
X62192297Y-50720735D01*
X62211939Y-50710006D01*
X62249191Y-50710539D01*
X62300908Y-50707462D01*
X62334701Y-50686212D01*
X62346114Y-50646877D01*
X62346104Y-50645747D01*
X62339187Y-50622913D01*
X62315659Y-50601963D01*
X62269914Y-50577815D01*
X62207704Y-50548741D01*
X62166499Y-50532925D01*
X62142712Y-50533944D01*
X62131597Y-50554837D01*
X62128408Y-50598641D01*
X62128400Y-50668393D01*
X62128044Y-50711452D01*
X62126413Y-50764626D01*
X62123761Y-50801022D01*
X62120422Y-50814514D01*
X62119530Y-50814423D01*
X62100237Y-50807110D01*
X62068284Y-50791678D01*
X62024124Y-50768842D01*
X62029371Y-50563078D01*
X62029736Y-50549432D01*
X62033904Y-50453651D01*
X62041268Y-50381462D01*
X62053330Y-50328058D01*
X62071593Y-50288633D01*
X62097560Y-50258380D01*
X62132733Y-50232493D01*
X62133384Y-50232087D01*
X62190256Y-50210968D01*
X62256033Y-50207400D01*
X62319483Y-50220569D01*
G37*
X62319483Y-50220569D02*
X62369376Y-50249661D01*
X62391325Y-50272327D01*
X62433504Y-50340082D01*
X62447714Y-50413950D01*
X62447714Y-50464770D01*
X62400999Y-50445128D01*
X62368692Y-50425308D01*
X62343231Y-50384160D01*
X62340616Y-50375675D01*
X62312478Y-50332451D01*
X62270067Y-50309103D01*
X62221370Y-50308100D01*
X62174373Y-50331914D01*
X62167357Y-50338056D01*
X62143893Y-50364745D01*
X62140019Y-50388014D01*
X62157768Y-50410862D01*
X62199179Y-50436287D01*
X62266286Y-50467288D01*
X62270824Y-50469252D01*
X62345322Y-50503990D01*
X62396203Y-50534763D01*
X62427525Y-50565488D01*
X62443343Y-50600082D01*
X62447714Y-50642462D01*
X62441986Y-50689446D01*
X62413062Y-50749585D01*
X62362178Y-50792788D01*
X62325374Y-50805759D01*
X62273434Y-50812856D01*
X62222999Y-50811340D01*
X62186983Y-50800632D01*
X62183158Y-50797966D01*
X62172998Y-50779337D01*
X62180048Y-50746505D01*
X62192297Y-50720735D01*
X62211939Y-50710006D01*
X62249191Y-50710539D01*
X62300908Y-50707462D01*
X62334701Y-50686212D01*
X62346114Y-50646877D01*
X62346104Y-50645747D01*
X62339187Y-50622913D01*
X62315659Y-50601963D01*
X62269914Y-50577815D01*
X62207704Y-50548741D01*
X62166499Y-50532925D01*
X62142712Y-50533944D01*
X62131597Y-50554837D01*
X62128408Y-50598641D01*
X62128400Y-50668393D01*
X62128044Y-50711452D01*
X62126413Y-50764626D01*
X62123761Y-50801022D01*
X62120422Y-50814514D01*
X62119530Y-50814423D01*
X62100237Y-50807110D01*
X62068284Y-50791678D01*
X62024124Y-50768842D01*
X62029371Y-50563078D01*
X62029736Y-50549432D01*
X62033904Y-50453651D01*
X62041268Y-50381462D01*
X62053330Y-50328058D01*
X62071593Y-50288633D01*
X62097560Y-50258380D01*
X62132733Y-50232493D01*
X62133384Y-50232087D01*
X62190256Y-50210968D01*
X62256033Y-50207400D01*
X62319483Y-50220569D01*
G36*
X64387684Y-50564078D02*
G01*
X64385078Y-50587387D01*
X64365660Y-50670352D01*
X64330573Y-50733448D01*
X64277212Y-50781808D01*
X64274196Y-50783804D01*
X64206362Y-50812185D01*
X64135535Y-50814711D01*
X64067289Y-50793097D01*
X64007196Y-50749062D01*
X63960829Y-50684322D01*
X63960050Y-50682761D01*
X63944643Y-50642558D01*
X63933357Y-50596866D01*
X63927370Y-50553972D01*
X63927861Y-50522160D01*
X63936007Y-50509714D01*
X63943244Y-50510471D01*
X63977851Y-50524235D01*
X64017078Y-50549546D01*
X64050448Y-50578845D01*
X64067483Y-50604572D01*
X64085192Y-50639471D01*
X64121485Y-50671212D01*
X64163630Y-50683886D01*
X64179077Y-50680221D01*
X64209569Y-50661774D01*
X64236128Y-50636166D01*
X64247486Y-50612934D01*
X64247482Y-50612848D01*
X64234596Y-50602179D01*
X64200241Y-50582933D01*
X64149593Y-50557813D01*
X64087829Y-50529524D01*
X64087489Y-50529374D01*
X64020388Y-50499498D01*
X63975411Y-50477973D01*
X63948145Y-50461437D01*
X63934178Y-50446531D01*
X63929097Y-50429893D01*
X63928490Y-50408162D01*
X63932712Y-50367013D01*
X64076000Y-50367013D01*
X64090791Y-50379949D01*
X64127644Y-50399333D01*
X64128725Y-50399881D01*
X64172205Y-50420587D01*
X64211102Y-50437105D01*
X64235778Y-50444093D01*
X64245676Y-50434753D01*
X64247486Y-50402748D01*
X64239966Y-50362915D01*
X64213897Y-50326717D01*
X64176154Y-50307950D01*
X64134077Y-50309845D01*
X64095005Y-50335632D01*
X64079647Y-50353451D01*
X64076000Y-50367013D01*
X63932712Y-50367013D01*
X63933833Y-50356086D01*
X63960251Y-50285335D01*
X64004473Y-50229735D01*
X64061697Y-50191239D01*
X64127120Y-50171797D01*
X64195937Y-50173359D01*
X64263347Y-50197878D01*
X64324544Y-50247302D01*
X64358450Y-50296212D01*
X64382806Y-50366027D01*
X64386767Y-50402748D01*
X64392299Y-50454055D01*
X64387684Y-50564078D01*
G37*
X64387684Y-50564078D02*
X64385078Y-50587387D01*
X64365660Y-50670352D01*
X64330573Y-50733448D01*
X64277212Y-50781808D01*
X64274196Y-50783804D01*
X64206362Y-50812185D01*
X64135535Y-50814711D01*
X64067289Y-50793097D01*
X64007196Y-50749062D01*
X63960829Y-50684322D01*
X63960050Y-50682761D01*
X63944643Y-50642558D01*
X63933357Y-50596866D01*
X63927370Y-50553972D01*
X63927861Y-50522160D01*
X63936007Y-50509714D01*
X63943244Y-50510471D01*
X63977851Y-50524235D01*
X64017078Y-50549546D01*
X64050448Y-50578845D01*
X64067483Y-50604572D01*
X64085192Y-50639471D01*
X64121485Y-50671212D01*
X64163630Y-50683886D01*
X64179077Y-50680221D01*
X64209569Y-50661774D01*
X64236128Y-50636166D01*
X64247486Y-50612934D01*
X64247482Y-50612848D01*
X64234596Y-50602179D01*
X64200241Y-50582933D01*
X64149593Y-50557813D01*
X64087829Y-50529524D01*
X64087489Y-50529374D01*
X64020388Y-50499498D01*
X63975411Y-50477973D01*
X63948145Y-50461437D01*
X63934178Y-50446531D01*
X63929097Y-50429893D01*
X63928490Y-50408162D01*
X63932712Y-50367013D01*
X64076000Y-50367013D01*
X64090791Y-50379949D01*
X64127644Y-50399333D01*
X64128725Y-50399881D01*
X64172205Y-50420587D01*
X64211102Y-50437105D01*
X64235778Y-50444093D01*
X64245676Y-50434753D01*
X64247486Y-50402748D01*
X64239966Y-50362915D01*
X64213897Y-50326717D01*
X64176154Y-50307950D01*
X64134077Y-50309845D01*
X64095005Y-50335632D01*
X64079647Y-50353451D01*
X64076000Y-50367013D01*
X63932712Y-50367013D01*
X63933833Y-50356086D01*
X63960251Y-50285335D01*
X64004473Y-50229735D01*
X64061697Y-50191239D01*
X64127120Y-50171797D01*
X64195937Y-50173359D01*
X64263347Y-50197878D01*
X64324544Y-50247302D01*
X64358450Y-50296212D01*
X64382806Y-50366027D01*
X64386767Y-50402748D01*
X64392299Y-50454055D01*
X64387684Y-50564078D01*
%TO.C,kibuzzard-6673E097*%
G36*
X67301291Y-58420000D02*
G01*
X67892194Y-57533646D01*
X71890709Y-57533646D01*
X71890709Y-59306354D01*
X67892194Y-59306354D01*
X67671708Y-58975625D01*
X69891518Y-58975625D01*
X70053443Y-58975625D01*
X70053443Y-58507313D01*
X70066341Y-58418413D01*
X70105036Y-58354912D01*
X70163972Y-58316812D01*
X70237593Y-58304112D01*
X70316968Y-58317606D01*
X70380468Y-58358088D01*
X70422139Y-58425556D01*
X70436030Y-58520013D01*
X70436030Y-58975625D01*
X70597955Y-58975625D01*
X70837668Y-58975625D01*
X71559980Y-58975625D01*
X71559980Y-58827988D01*
X71280580Y-58827988D01*
X71280580Y-58012013D01*
X71552043Y-58012013D01*
X71552043Y-57864375D01*
X70845605Y-57864375D01*
X70845605Y-58012013D01*
X71113893Y-58012013D01*
X71113893Y-58827988D01*
X70837668Y-58827988D01*
X70837668Y-58975625D01*
X70597955Y-58975625D01*
X70597955Y-58181875D01*
X70451905Y-58181875D01*
X70436030Y-58280300D01*
X70424918Y-58280300D01*
X70363005Y-58216800D01*
X70283101Y-58178700D01*
X70185205Y-58166000D01*
X70065150Y-58186637D01*
X69971686Y-58248550D01*
X69911560Y-58347372D01*
X69891518Y-58478737D01*
X69891518Y-58975625D01*
X67671708Y-58975625D01*
X67301291Y-58420000D01*
G37*
%TO.C,kibuzzard-6673E139*%
G36*
X67070111Y-62605708D02*
G01*
X71322494Y-62605708D01*
X71918689Y-63500000D01*
X71322494Y-64394292D01*
X67070111Y-64394292D01*
X67070111Y-63384113D01*
X67400840Y-63384113D01*
X67723103Y-63384113D01*
X67723103Y-63766700D01*
X67703876Y-63856658D01*
X67646197Y-63910633D01*
X67550065Y-63928625D01*
X67445290Y-63915925D01*
X67445290Y-64046100D01*
X67515934Y-64059197D01*
X67588165Y-64063563D01*
X67695036Y-64052768D01*
X67778157Y-64020383D01*
X67837530Y-63966407D01*
X67873153Y-63890843D01*
X67885028Y-63793688D01*
X67885028Y-63782575D01*
X68345403Y-63782575D01*
X68386876Y-63898066D01*
X68466847Y-63987363D01*
X68538372Y-64029696D01*
X68620658Y-64055096D01*
X68713703Y-64063563D01*
X68825533Y-64050774D01*
X68921842Y-64012410D01*
X69002628Y-63948469D01*
X69063482Y-63864772D01*
X69099994Y-63767141D01*
X69112165Y-63655575D01*
X69110428Y-63639700D01*
X69309015Y-63639700D01*
X69312190Y-63692088D01*
X69896390Y-63692088D01*
X69875753Y-63789520D01*
X69826540Y-63865919D01*
X69753515Y-63915330D01*
X69661440Y-63931800D01*
X69569894Y-63918218D01*
X69504807Y-63877472D01*
X69466178Y-63809562D01*
X69310603Y-63809562D01*
X69353068Y-63915727D01*
X69429665Y-63996094D01*
X69534440Y-64046695D01*
X69661440Y-64063563D01*
X69768861Y-64051127D01*
X69777495Y-64047688D01*
X70212303Y-64047688D01*
X70391690Y-64047688D01*
X70650453Y-63593663D01*
X70828253Y-63593663D01*
X70828253Y-64047688D01*
X70991765Y-64047688D01*
X70991765Y-62936437D01*
X70609178Y-62936437D01*
X70509518Y-62946139D01*
X70424322Y-62975243D01*
X70353590Y-63023750D01*
X70300674Y-63088308D01*
X70268924Y-63165567D01*
X70258340Y-63255525D01*
X70273620Y-63362483D01*
X70319459Y-63451581D01*
X70392286Y-63520042D01*
X70488528Y-63565088D01*
X70212303Y-64047688D01*
X69777495Y-64047688D01*
X69862524Y-64013821D01*
X69942428Y-63951644D01*
X70003282Y-63869358D01*
X70039794Y-63771727D01*
X70051965Y-63658750D01*
X70039794Y-63540128D01*
X70003282Y-63438264D01*
X69942428Y-63353156D01*
X69863406Y-63289215D01*
X69772389Y-63250851D01*
X69669378Y-63238063D01*
X69571570Y-63249528D01*
X69485581Y-63283924D01*
X69411409Y-63341250D01*
X69354524Y-63420272D01*
X69320392Y-63519756D01*
X69309015Y-63639700D01*
X69110428Y-63639700D01*
X69099642Y-63541099D01*
X69062071Y-63441086D01*
X68999453Y-63355538D01*
X68917785Y-63290274D01*
X68823064Y-63251115D01*
X68715290Y-63238063D01*
X68625420Y-63246617D01*
X68544193Y-63272282D01*
X68471609Y-63315056D01*
X68412607Y-63373176D01*
X68372126Y-63444878D01*
X68350165Y-63530163D01*
X68513678Y-63530163D01*
X68537689Y-63469242D01*
X68581147Y-63419831D01*
X68641273Y-63387089D01*
X68715290Y-63376175D01*
X68809151Y-63395820D01*
X68884359Y-63454756D01*
X68933770Y-63544252D01*
X68950240Y-63655575D01*
X68934167Y-63762731D01*
X68885947Y-63849250D01*
X68810739Y-63906400D01*
X68713703Y-63925450D01*
X68640876Y-63915925D01*
X68581147Y-63887350D01*
X68536498Y-63842106D01*
X68508915Y-63782575D01*
X68345403Y-63782575D01*
X67885028Y-63782575D01*
X67885028Y-63384113D01*
X68137440Y-63384113D01*
X68137440Y-63253938D01*
X68007265Y-63253938D01*
X67900109Y-63222188D01*
X67869153Y-63111063D01*
X67869153Y-63038037D01*
X67723103Y-63038037D01*
X67723103Y-63253938D01*
X67400840Y-63253938D01*
X67400840Y-63384113D01*
X67070111Y-63384113D01*
X67070111Y-62605708D01*
G37*
G36*
X70828253Y-63449200D02*
G01*
X70631403Y-63449200D01*
X70546273Y-63436500D01*
X70481384Y-63398400D01*
X70440307Y-63339266D01*
X70426615Y-63263463D01*
X70440307Y-63187064D01*
X70481384Y-63129319D01*
X70546273Y-63093005D01*
X70631403Y-63080900D01*
X70828253Y-63080900D01*
X70828253Y-63449200D01*
G37*
G36*
X69751531Y-63384708D02*
G01*
X69820190Y-63429356D01*
X69869800Y-63496230D01*
X69894803Y-63577788D01*
X69464590Y-63577788D01*
X69479870Y-63494245D01*
X69522534Y-63427769D01*
X69587423Y-63384311D01*
X69669378Y-63369825D01*
X69751531Y-63384708D01*
G37*
%TO.C,kibuzzard-666B0D4B*%
G36*
X54126761Y-53744812D02*
G01*
X54021986Y-53744812D01*
X53926647Y-53733259D01*
X53848066Y-53698599D01*
X53786242Y-53640831D01*
X53741704Y-53560839D01*
X53714981Y-53459503D01*
X53706073Y-53336825D01*
X53714848Y-53214102D01*
X53741174Y-53113693D01*
X53785051Y-53035597D01*
X53846479Y-52979814D01*
X53925457Y-52946344D01*
X54021986Y-52935188D01*
X54126761Y-52935188D01*
X54126761Y-53744812D01*
G37*
G36*
X52563999Y-52437771D02*
G01*
X56562515Y-52437771D01*
X57164001Y-53340000D01*
X56562515Y-54242229D01*
X52563999Y-54242229D01*
X52563999Y-53336825D01*
X53536211Y-53336825D01*
X53543801Y-53459410D01*
X53566572Y-53568402D01*
X53604523Y-53663800D01*
X53657654Y-53745606D01*
X53725371Y-53811239D01*
X53807078Y-53858120D01*
X53902774Y-53886249D01*
X54012461Y-53895625D01*
X54293448Y-53895625D01*
X54515698Y-53895625D01*
X54683973Y-53895625D01*
X55079261Y-53101875D01*
X55090373Y-53101875D01*
X55090373Y-53895625D01*
X55245948Y-53895625D01*
X55455498Y-53895625D01*
X55584086Y-53895625D01*
X55603136Y-53800375D01*
X55614248Y-53800375D01*
X55692829Y-53874988D01*
X55762084Y-53902372D01*
X55850786Y-53911500D01*
X55963234Y-53895537D01*
X56057161Y-53847647D01*
X56132567Y-53767831D01*
X56175975Y-53688407D01*
X56206981Y-53593802D01*
X56225584Y-53484016D01*
X56231786Y-53359050D01*
X56224939Y-53227734D01*
X56204401Y-53111598D01*
X56170171Y-53010643D01*
X56122248Y-52924869D01*
X56039874Y-52837997D01*
X55938804Y-52785874D01*
X55819036Y-52768500D01*
X55725726Y-52778466D01*
X55644763Y-52808364D01*
X55576148Y-52858194D01*
X55521997Y-52925839D01*
X55484426Y-53009183D01*
X55463436Y-53108225D01*
X55638061Y-53108225D01*
X55675808Y-53005037D01*
X55736133Y-52943125D01*
X55819036Y-52922488D01*
X55920636Y-52950467D01*
X55996836Y-53034406D01*
X56032113Y-53120219D01*
X56053280Y-53228434D01*
X56060336Y-53359050D01*
X56050747Y-53504782D01*
X56021982Y-53618130D01*
X55974039Y-53699093D01*
X55906920Y-53747670D01*
X55820623Y-53763863D01*
X55736684Y-53748781D01*
X55672192Y-53703538D01*
X55631115Y-53630116D01*
X55617423Y-53530500D01*
X55617423Y-53441600D01*
X55828561Y-53441600D01*
X55828561Y-53308250D01*
X55455498Y-53308250D01*
X55455498Y-53895625D01*
X55245948Y-53895625D01*
X55245948Y-52784375D01*
X55077673Y-52784375D01*
X54682386Y-53579713D01*
X54671273Y-53579713D01*
X54671273Y-52784375D01*
X54515698Y-52784375D01*
X54515698Y-53895625D01*
X54293448Y-53895625D01*
X54293448Y-52784375D01*
X54012461Y-52784375D01*
X53903419Y-52793652D01*
X53808070Y-52821483D01*
X53726413Y-52867868D01*
X53658448Y-52932806D01*
X53604969Y-53013719D01*
X53566770Y-53108027D01*
X53543850Y-53215729D01*
X53536211Y-53336825D01*
X52563999Y-53336825D01*
X52563999Y-52437771D01*
G37*
%TO.C,kibuzzard-666B0D69*%
G36*
X67295999Y-76200000D02*
G01*
X67298116Y-76196825D01*
X68869697Y-76196825D01*
X68877287Y-76319410D01*
X68900058Y-76428402D01*
X68938009Y-76523800D01*
X68991140Y-76605606D01*
X69058857Y-76671239D01*
X69140564Y-76718120D01*
X69236260Y-76746249D01*
X69345947Y-76755625D01*
X69626934Y-76755625D01*
X69849184Y-76755625D01*
X70017459Y-76755625D01*
X70412747Y-75961875D01*
X70423859Y-75961875D01*
X70423859Y-76755625D01*
X70579434Y-76755625D01*
X70788984Y-76755625D01*
X70917572Y-76755625D01*
X70936622Y-76660375D01*
X70947734Y-76660375D01*
X71026315Y-76734988D01*
X71095570Y-76762372D01*
X71184272Y-76771500D01*
X71296720Y-76755537D01*
X71390647Y-76707647D01*
X71466053Y-76627831D01*
X71509461Y-76548407D01*
X71540467Y-76453802D01*
X71559071Y-76344016D01*
X71565272Y-76219050D01*
X71558426Y-76087734D01*
X71537887Y-75971598D01*
X71503657Y-75870643D01*
X71455734Y-75784869D01*
X71373361Y-75697997D01*
X71272290Y-75645874D01*
X71152522Y-75628500D01*
X71059212Y-75638466D01*
X70978249Y-75668364D01*
X70909634Y-75718194D01*
X70855483Y-75785839D01*
X70817912Y-75869183D01*
X70796922Y-75968225D01*
X70971547Y-75968225D01*
X71009294Y-75865037D01*
X71069619Y-75803125D01*
X71152522Y-75782488D01*
X71254122Y-75810467D01*
X71330322Y-75894406D01*
X71365599Y-75980219D01*
X71386766Y-76088434D01*
X71393822Y-76219050D01*
X71384233Y-76364782D01*
X71355468Y-76478130D01*
X71307525Y-76559093D01*
X71240406Y-76607670D01*
X71154109Y-76623863D01*
X71070170Y-76608781D01*
X71005678Y-76563538D01*
X70964601Y-76490116D01*
X70950909Y-76390500D01*
X70950909Y-76301600D01*
X71162047Y-76301600D01*
X71162047Y-76168250D01*
X70788984Y-76168250D01*
X70788984Y-76755625D01*
X70579434Y-76755625D01*
X70579434Y-75644375D01*
X70411159Y-75644375D01*
X70015872Y-76439713D01*
X70004759Y-76439713D01*
X70004759Y-75644375D01*
X69849184Y-75644375D01*
X69849184Y-76755625D01*
X69626934Y-76755625D01*
X69626934Y-75644375D01*
X69345947Y-75644375D01*
X69236905Y-75653652D01*
X69141556Y-75681483D01*
X69059899Y-75727868D01*
X68991934Y-75792806D01*
X68938455Y-75873719D01*
X68900256Y-75968027D01*
X68877337Y-76075729D01*
X68869697Y-76196825D01*
X67298116Y-76196825D01*
X67897485Y-75297771D01*
X71896001Y-75297771D01*
X71896001Y-77102229D01*
X67897485Y-77102229D01*
X67295999Y-76200000D01*
G37*
G36*
X69460247Y-76604812D02*
G01*
X69355472Y-76604812D01*
X69260134Y-76593259D01*
X69181552Y-76558599D01*
X69119728Y-76500831D01*
X69075190Y-76420839D01*
X69048467Y-76319503D01*
X69039559Y-76196825D01*
X69048335Y-76074102D01*
X69074661Y-75973693D01*
X69118537Y-75895597D01*
X69179965Y-75839814D01*
X69258943Y-75806344D01*
X69355472Y-75795188D01*
X69460247Y-75795188D01*
X69460247Y-76604812D01*
G37*
%TO.C,kibuzzard-666B0D3F*%
G36*
X54147134Y-51092894D02*
G01*
X54081252Y-51160759D01*
X53994734Y-51183381D01*
X53908810Y-51159569D01*
X53841540Y-51088131D01*
X53809349Y-51013872D01*
X53790034Y-50918092D01*
X53783596Y-50800794D01*
X53787565Y-50711894D01*
X53799471Y-50629344D01*
X54147134Y-51092894D01*
G37*
G36*
X54080855Y-50440431D02*
G01*
X54148721Y-50511869D01*
X54181353Y-50586305D01*
X54200932Y-50682613D01*
X54207459Y-50800794D01*
X54203490Y-50894059D01*
X54191584Y-50970656D01*
X53843921Y-50508694D01*
X53909405Y-50439637D01*
X53994734Y-50416619D01*
X54080855Y-50440431D01*
G37*
G36*
X55975338Y-50425152D02*
G01*
X56035465Y-50469800D01*
X56074160Y-50536277D01*
X56087059Y-50616644D01*
X56074359Y-50695027D01*
X56036259Y-50758725D01*
X55976330Y-50800992D01*
X55898146Y-50815081D01*
X55820954Y-50800794D01*
X55760827Y-50757931D01*
X55722132Y-50694034D01*
X55709234Y-50616644D01*
X55722330Y-50536277D01*
X55761621Y-50469800D01*
X55821946Y-50425152D01*
X55898146Y-50410269D01*
X55975338Y-50425152D01*
G37*
G36*
X52579610Y-49944602D02*
G01*
X56578125Y-49944602D01*
X57148390Y-50800000D01*
X56578125Y-51655398D01*
X52579610Y-51655398D01*
X52579610Y-50802381D01*
X53613734Y-50802381D01*
X53620133Y-50923825D01*
X53639332Y-51029394D01*
X53671330Y-51119087D01*
X53716127Y-51192906D01*
X53792592Y-51266108D01*
X53885461Y-51310028D01*
X53994734Y-51324669D01*
X54104271Y-51309852D01*
X54197934Y-51265402D01*
X54275721Y-51191319D01*
X54321560Y-51116805D01*
X54354302Y-51026616D01*
X54373948Y-50920749D01*
X54380496Y-50799206D01*
X54373948Y-50679003D01*
X54354302Y-50573980D01*
X54332824Y-50515044D01*
X54550359Y-50515044D01*
X54850396Y-51308794D01*
X55047246Y-51308794D01*
X55306644Y-50626169D01*
X55544134Y-50626169D01*
X55552468Y-50718839D01*
X55577471Y-50803175D01*
X55617159Y-50885130D01*
X55669546Y-50970656D01*
X55888621Y-51308794D01*
X56088646Y-51308794D01*
X55815596Y-50916681D01*
X55934659Y-50937319D01*
X56058087Y-50914498D01*
X56158496Y-50846037D01*
X56207885Y-50779627D01*
X56237518Y-50702104D01*
X56247396Y-50613469D01*
X56236460Y-50520159D01*
X56203652Y-50439197D01*
X56148971Y-50370581D01*
X56077181Y-50318547D01*
X55993043Y-50287326D01*
X55896559Y-50276919D01*
X55798398Y-50287590D01*
X55713467Y-50319605D01*
X55641765Y-50372963D01*
X55587525Y-50443783D01*
X55554981Y-50528185D01*
X55544134Y-50626169D01*
X55306644Y-50626169D01*
X55348871Y-50515044D01*
X55182184Y-50515044D01*
X54953584Y-51140519D01*
X54942471Y-51140519D01*
X54715459Y-50515044D01*
X54550359Y-50515044D01*
X54332824Y-50515044D01*
X54321560Y-50484137D01*
X54275721Y-50409475D01*
X54197934Y-50334951D01*
X54104271Y-50290236D01*
X53994734Y-50275331D01*
X53885461Y-50290236D01*
X53792592Y-50334951D01*
X53716127Y-50409475D01*
X53671330Y-50484336D01*
X53639332Y-50574773D01*
X53620133Y-50680789D01*
X53613734Y-50802381D01*
X52579610Y-50802381D01*
X52579610Y-49944602D01*
G37*
%TO.C,kibuzzard-6673E072*%
G36*
X56957824Y-73640950D02*
G01*
X56749862Y-73640950D01*
X56659970Y-73627853D01*
X56593493Y-73588562D01*
X56552416Y-73526253D01*
X56538724Y-73444100D01*
X56552416Y-73364527D01*
X56593493Y-73303606D01*
X56657588Y-73264911D01*
X56740337Y-73252013D01*
X56957824Y-73252013D01*
X56957824Y-73640950D01*
G37*
G36*
X54886137Y-73871138D02*
G01*
X54976977Y-73891951D01*
X55031481Y-73933226D01*
X55049649Y-73994963D01*
X55012343Y-74077512D01*
X54914712Y-74104500D01*
X54833948Y-74092594D01*
X54763106Y-74056875D01*
X54713695Y-73996550D01*
X54697224Y-73910825D01*
X54697224Y-73852087D01*
X54886137Y-73871138D01*
G37*
G36*
X52582322Y-73660000D02*
G01*
X53183808Y-72757771D01*
X57450478Y-72757771D01*
X57450478Y-74562229D01*
X53183808Y-74562229D01*
X52952739Y-74215625D01*
X53514537Y-74215625D01*
X53695512Y-74215625D01*
X53978087Y-73852087D01*
X54074924Y-73942575D01*
X54074924Y-74215625D01*
X54236849Y-74215625D01*
X54455924Y-74215625D01*
X54527362Y-74215625D01*
X54624596Y-74191019D01*
X54674999Y-74117200D01*
X54744497Y-74180700D01*
X54832338Y-74218800D01*
X54938524Y-74231500D01*
X55049054Y-74217014D01*
X55136168Y-74173556D01*
X55192723Y-74101920D01*
X55211574Y-74002900D01*
X55192921Y-73906459D01*
X55136962Y-73833038D01*
X55092307Y-73807638D01*
X55436999Y-73807638D01*
X55440174Y-73860025D01*
X56024374Y-73860025D01*
X56003737Y-73957458D01*
X55954524Y-74033856D01*
X55881499Y-74083267D01*
X55789424Y-74099738D01*
X55697878Y-74086156D01*
X55632791Y-74045410D01*
X55594162Y-73977500D01*
X55438587Y-73977500D01*
X55481052Y-74083664D01*
X55557649Y-74164031D01*
X55662424Y-74214633D01*
X55789424Y-74231500D01*
X55896845Y-74219065D01*
X55990508Y-74181758D01*
X56070412Y-74119581D01*
X56131266Y-74037296D01*
X56167778Y-73939665D01*
X56179949Y-73826688D01*
X56167778Y-73708066D01*
X56131266Y-73606201D01*
X56070412Y-73521094D01*
X55991390Y-73457153D01*
X55960423Y-73444100D01*
X56367274Y-73444100D01*
X56377858Y-73541819D01*
X56409608Y-73625428D01*
X56462524Y-73694925D01*
X56533609Y-73746960D01*
X56619863Y-73778181D01*
X56721287Y-73788588D01*
X56957824Y-73788588D01*
X56957824Y-74215625D01*
X57119749Y-74215625D01*
X57119749Y-73104375D01*
X56711762Y-73104375D01*
X56614042Y-73114782D01*
X56530434Y-73146003D01*
X56460937Y-73198037D01*
X56408902Y-73267006D01*
X56377681Y-73349026D01*
X56367274Y-73444100D01*
X55960423Y-73444100D01*
X55900373Y-73418788D01*
X55797362Y-73406000D01*
X55699554Y-73417465D01*
X55613565Y-73451861D01*
X55539393Y-73509188D01*
X55482508Y-73588210D01*
X55448376Y-73687693D01*
X55436999Y-73807638D01*
X55092307Y-73807638D01*
X55050443Y-73783825D01*
X54940112Y-73760013D01*
X54697224Y-73734613D01*
X54697224Y-73696513D01*
X54707741Y-73628845D01*
X54739293Y-73578244D01*
X54789498Y-73546692D01*
X54855974Y-73536175D01*
X54934820Y-73551874D01*
X54989324Y-73598969D01*
X55019487Y-73677462D01*
X55179824Y-73677462D01*
X55149860Y-73568123D01*
X55082193Y-73481406D01*
X54981585Y-73424852D01*
X54852799Y-73406000D01*
X54724807Y-73425248D01*
X54623406Y-73482994D01*
X54557326Y-73576458D01*
X54535299Y-73702863D01*
X54535299Y-74028300D01*
X54474974Y-74091800D01*
X54455924Y-74091800D01*
X54455924Y-74215625D01*
X54236849Y-74215625D01*
X54236849Y-73088500D01*
X54074924Y-73088500D01*
X54074924Y-73744138D01*
X54063812Y-73744138D01*
X53711387Y-73421875D01*
X53514537Y-73421875D01*
X53865374Y-73747313D01*
X53514537Y-74215625D01*
X52952739Y-74215625D01*
X52582322Y-73660000D01*
G37*
G36*
X55879515Y-73552645D02*
G01*
X55948174Y-73597294D01*
X55997784Y-73664167D01*
X56022787Y-73745725D01*
X55592574Y-73745725D01*
X55607854Y-73662183D01*
X55650518Y-73595706D01*
X55715407Y-73552248D01*
X55797362Y-73537763D01*
X55879515Y-73552645D01*
G37*
%TO.C,kibuzzard-6673DFE6*%
G36*
X52569291Y-57533646D02*
G01*
X56567806Y-57533646D01*
X57158709Y-58420000D01*
X56567806Y-59306354D01*
X52569291Y-59306354D01*
X52569291Y-58975625D01*
X54568615Y-58975625D01*
X54730540Y-58975625D01*
X54730540Y-58507313D01*
X54743438Y-58418413D01*
X54782134Y-58354912D01*
X54841069Y-58316812D01*
X54914690Y-58304112D01*
X54994065Y-58317606D01*
X55057565Y-58358088D01*
X55099237Y-58425556D01*
X55113127Y-58520013D01*
X55113127Y-58975625D01*
X55275052Y-58975625D01*
X55514765Y-58975625D01*
X56237077Y-58975625D01*
X56237077Y-58827988D01*
X55957677Y-58827988D01*
X55957677Y-58012013D01*
X56229140Y-58012013D01*
X56229140Y-57864375D01*
X55522702Y-57864375D01*
X55522702Y-58012013D01*
X55790990Y-58012013D01*
X55790990Y-58827988D01*
X55514765Y-58827988D01*
X55514765Y-58975625D01*
X55275052Y-58975625D01*
X55275052Y-58181875D01*
X55129002Y-58181875D01*
X55113127Y-58280300D01*
X55102015Y-58280300D01*
X55040102Y-58216800D01*
X54960198Y-58178700D01*
X54862302Y-58166000D01*
X54742248Y-58186637D01*
X54648784Y-58248550D01*
X54588657Y-58347372D01*
X54568615Y-58478737D01*
X54568615Y-58975625D01*
X52569291Y-58975625D01*
X52569291Y-57533646D01*
G37*
%TO.C,kibuzzard-6673E0D0*%
G36*
X69828326Y-65935423D02*
G01*
X69899565Y-65993169D01*
X69944214Y-66080680D01*
X69959097Y-66189225D01*
X69944015Y-66299159D01*
X69898772Y-66387663D01*
X69827334Y-66446003D01*
X69733672Y-66465450D01*
X69640009Y-66446003D01*
X69568572Y-66387663D01*
X69523328Y-66299159D01*
X69508247Y-66189225D01*
X69523526Y-66080680D01*
X69569365Y-65993169D01*
X69641001Y-65935423D01*
X69733672Y-65916175D01*
X69828326Y-65935423D01*
G37*
G36*
X63294242Y-65145708D02*
G01*
X71339163Y-65145708D01*
X71935358Y-66040000D01*
X71339163Y-66934292D01*
X63294242Y-66934292D01*
X63294242Y-65939988D01*
X63624972Y-65939988D01*
X63717047Y-65935225D01*
X63832339Y-65952291D01*
X63921040Y-66003488D01*
X63977595Y-66084450D01*
X63996447Y-66190813D01*
X63996447Y-66465450D01*
X63696409Y-66465450D01*
X63696409Y-66587688D01*
X64390147Y-66587688D01*
X64390147Y-66465450D01*
X64158372Y-66465450D01*
X64158372Y-66179700D01*
X64606047Y-66179700D01*
X64609222Y-66232088D01*
X65193422Y-66232088D01*
X65172784Y-66329520D01*
X65123572Y-66405919D01*
X65050547Y-66455330D01*
X64958472Y-66471800D01*
X64866926Y-66458218D01*
X64801838Y-66417472D01*
X64763209Y-66349562D01*
X64607634Y-66349562D01*
X64650100Y-66455727D01*
X64726697Y-66536094D01*
X64831472Y-66586695D01*
X64958472Y-66603563D01*
X65065892Y-66591127D01*
X65159555Y-66553821D01*
X65239459Y-66491644D01*
X65300313Y-66409358D01*
X65336826Y-66311727D01*
X65348997Y-66198750D01*
X65336826Y-66080128D01*
X65300313Y-65978264D01*
X65239459Y-65893156D01*
X65160437Y-65829215D01*
X65076744Y-65793938D01*
X65483934Y-65793938D01*
X65625222Y-66587688D01*
X65801434Y-66587688D01*
X65917322Y-66052700D01*
X65928434Y-66052700D01*
X66049084Y-66587688D01*
X66223709Y-66587688D01*
X66293838Y-66189225D01*
X66488822Y-66189225D01*
X66500816Y-66302731D01*
X66536799Y-66401950D01*
X66596772Y-66486881D01*
X66675794Y-66551704D01*
X66768927Y-66590598D01*
X66876172Y-66603563D01*
X66983416Y-66590598D01*
X66990384Y-66587688D01*
X67484184Y-66587688D01*
X68195384Y-66587688D01*
X68436684Y-66587688D01*
X69147884Y-66587688D01*
X69147884Y-66462275D01*
X68873247Y-66462275D01*
X68873247Y-66189225D01*
X69346322Y-66189225D01*
X69358316Y-66302731D01*
X69394299Y-66401950D01*
X69454272Y-66486881D01*
X69533294Y-66551704D01*
X69626427Y-66590598D01*
X69733672Y-66603563D01*
X69840916Y-66590598D01*
X69934049Y-66551704D01*
X70013072Y-66486881D01*
X70073044Y-66401950D01*
X70109027Y-66302731D01*
X70121022Y-66189225D01*
X70109115Y-66075895D01*
X70073397Y-65977206D01*
X70013865Y-65893156D01*
X69935108Y-65829215D01*
X69841710Y-65790851D01*
X69733672Y-65778063D01*
X69627221Y-65790939D01*
X69534352Y-65829568D01*
X69455065Y-65893950D01*
X69394652Y-65978264D01*
X69358404Y-66076689D01*
X69346322Y-66189225D01*
X68873247Y-66189225D01*
X68873247Y-65627250D01*
X70346447Y-65627250D01*
X70840159Y-65627250D01*
X70840159Y-65971738D01*
X70414709Y-65971738D01*
X70414709Y-66119375D01*
X70840159Y-66119375D01*
X70840159Y-66587688D01*
X71008434Y-66587688D01*
X71008434Y-65476437D01*
X70346447Y-65476437D01*
X70346447Y-65627250D01*
X68873247Y-65627250D01*
X68873247Y-65601850D01*
X69132009Y-65601850D01*
X69132009Y-65476437D01*
X68711322Y-65476437D01*
X68711322Y-66462275D01*
X68436684Y-66462275D01*
X68436684Y-66587688D01*
X68195384Y-66587688D01*
X68195384Y-66462275D01*
X67920747Y-66462275D01*
X67920747Y-65601850D01*
X68179509Y-65601850D01*
X68179509Y-65476437D01*
X67758822Y-65476437D01*
X67758822Y-66462275D01*
X67484184Y-66462275D01*
X67484184Y-66587688D01*
X66990384Y-66587688D01*
X67076549Y-66551704D01*
X67155572Y-66486881D01*
X67215544Y-66401950D01*
X67251527Y-66302731D01*
X67263522Y-66189225D01*
X67251615Y-66075895D01*
X67215897Y-65977206D01*
X67156365Y-65893156D01*
X67077608Y-65829215D01*
X66984210Y-65790851D01*
X66876172Y-65778063D01*
X66769721Y-65790939D01*
X66676852Y-65829568D01*
X66597565Y-65893950D01*
X66537152Y-65978264D01*
X66500904Y-66076689D01*
X66488822Y-66189225D01*
X66293838Y-66189225D01*
X66363409Y-65793938D01*
X66218947Y-65793938D01*
X66130047Y-66373375D01*
X66118934Y-66373375D01*
X66009397Y-65849500D01*
X65836359Y-65849500D01*
X65728409Y-66373375D01*
X65717297Y-66373375D01*
X65628397Y-65793938D01*
X65483934Y-65793938D01*
X65076744Y-65793938D01*
X65069420Y-65790851D01*
X64966409Y-65778063D01*
X64868601Y-65789528D01*
X64782612Y-65823924D01*
X64708440Y-65881250D01*
X64651555Y-65960272D01*
X64617424Y-66059756D01*
X64606047Y-66179700D01*
X64158372Y-66179700D01*
X64158372Y-65916175D01*
X64382209Y-65916175D01*
X64382209Y-65793938D01*
X64013909Y-65793938D01*
X63998034Y-65925700D01*
X63986922Y-65925700D01*
X63938106Y-65860613D01*
X63877384Y-65814575D01*
X63796025Y-65787191D01*
X63685297Y-65778063D01*
X63624972Y-65778063D01*
X63624972Y-65939988D01*
X63294242Y-65939988D01*
X63294242Y-65145708D01*
G37*
G36*
X66970826Y-65935423D02*
G01*
X67042065Y-65993169D01*
X67086714Y-66080680D01*
X67101597Y-66189225D01*
X67086515Y-66299159D01*
X67041272Y-66387663D01*
X66969834Y-66446003D01*
X66876172Y-66465450D01*
X66782509Y-66446003D01*
X66711072Y-66387663D01*
X66665828Y-66299159D01*
X66650747Y-66189225D01*
X66666026Y-66080680D01*
X66711865Y-65993169D01*
X66783501Y-65935423D01*
X66876172Y-65916175D01*
X66970826Y-65935423D01*
G37*
G36*
X65048562Y-65924708D02*
G01*
X65117222Y-65969356D01*
X65166831Y-66036230D01*
X65191834Y-66117788D01*
X64761622Y-66117788D01*
X64776901Y-66034245D01*
X64819565Y-65967769D01*
X64884454Y-65924311D01*
X64966409Y-65909825D01*
X65048562Y-65924708D01*
G37*
%TO.C,kibuzzard-666B0D65*%
G36*
X67311610Y-50800000D02*
G01*
X67881875Y-49944602D01*
X71880390Y-49944602D01*
X71880390Y-51655398D01*
X67881875Y-51655398D01*
X67313197Y-50802381D01*
X68915999Y-50802381D01*
X68922398Y-50923825D01*
X68941597Y-51029394D01*
X68973595Y-51119088D01*
X69018393Y-51192906D01*
X69094857Y-51266108D01*
X69187726Y-51310028D01*
X69296999Y-51324669D01*
X69406536Y-51309852D01*
X69500199Y-51265402D01*
X69577986Y-51191319D01*
X69623825Y-51116805D01*
X69656568Y-51026616D01*
X69676213Y-50920749D01*
X69682761Y-50799206D01*
X69676213Y-50679003D01*
X69656568Y-50573980D01*
X69635089Y-50515044D01*
X69852624Y-50515044D01*
X70152661Y-51308794D01*
X70349511Y-51308794D01*
X70608909Y-50626169D01*
X70846399Y-50626169D01*
X70854733Y-50718839D01*
X70879736Y-50803175D01*
X70919424Y-50885130D01*
X70971811Y-50970656D01*
X71190886Y-51308794D01*
X71390911Y-51308794D01*
X71117861Y-50916681D01*
X71236924Y-50937319D01*
X71360352Y-50914498D01*
X71460761Y-50846038D01*
X71510150Y-50779627D01*
X71539784Y-50702104D01*
X71549661Y-50613469D01*
X71538725Y-50520159D01*
X71505917Y-50439197D01*
X71451236Y-50370581D01*
X71379446Y-50318547D01*
X71295309Y-50287326D01*
X71198824Y-50276919D01*
X71100663Y-50287590D01*
X71015732Y-50319605D01*
X70944030Y-50372963D01*
X70889790Y-50443783D01*
X70857247Y-50528185D01*
X70846399Y-50626169D01*
X70608909Y-50626169D01*
X70651136Y-50515044D01*
X70484449Y-50515044D01*
X70255849Y-51140519D01*
X70244736Y-51140519D01*
X70017724Y-50515044D01*
X69852624Y-50515044D01*
X69635089Y-50515044D01*
X69623825Y-50484137D01*
X69577986Y-50409475D01*
X69500199Y-50334951D01*
X69406536Y-50290236D01*
X69296999Y-50275331D01*
X69187726Y-50290236D01*
X69094857Y-50334951D01*
X69018393Y-50409475D01*
X68973595Y-50484336D01*
X68941597Y-50574773D01*
X68922398Y-50680789D01*
X68915999Y-50802381D01*
X67313197Y-50802381D01*
X67311610Y-50800000D01*
G37*
G36*
X71277603Y-50425152D02*
G01*
X71337730Y-50469800D01*
X71376425Y-50536277D01*
X71389324Y-50616644D01*
X71376624Y-50695027D01*
X71338524Y-50758725D01*
X71278596Y-50800992D01*
X71200411Y-50815081D01*
X71123219Y-50800794D01*
X71063093Y-50757931D01*
X71024397Y-50694034D01*
X71011499Y-50616644D01*
X71024596Y-50536277D01*
X71063886Y-50469800D01*
X71124211Y-50425152D01*
X71200411Y-50410269D01*
X71277603Y-50425152D01*
G37*
G36*
X69449399Y-51092894D02*
G01*
X69383518Y-51160759D01*
X69296999Y-51183381D01*
X69211075Y-51159569D01*
X69143805Y-51088131D01*
X69111614Y-51013872D01*
X69092299Y-50918092D01*
X69085861Y-50800794D01*
X69089830Y-50711894D01*
X69101736Y-50629344D01*
X69449399Y-51092894D01*
G37*
G36*
X69383121Y-50440431D02*
G01*
X69450986Y-50511869D01*
X69483618Y-50586305D01*
X69503197Y-50682613D01*
X69509724Y-50800794D01*
X69505755Y-50894059D01*
X69493849Y-50970656D01*
X69146186Y-50508694D01*
X69211671Y-50439638D01*
X69296999Y-50416619D01*
X69383121Y-50440431D01*
G37*
%TO.C,G\u002A\u002A\u002A*%
G36*
X63944947Y-81898295D02*
G01*
X63947169Y-81949403D01*
X63949007Y-82010857D01*
X63949286Y-82021358D01*
X63950837Y-82069535D01*
X63952911Y-82122252D01*
X63955422Y-82178129D01*
X63958286Y-82235791D01*
X63961416Y-82293860D01*
X63964729Y-82350957D01*
X63968139Y-82405707D01*
X63971561Y-82456730D01*
X63974910Y-82502651D01*
X63978101Y-82542090D01*
X63981048Y-82573672D01*
X63983667Y-82596018D01*
X63985873Y-82607750D01*
X63986393Y-82608320D01*
X63991348Y-82603991D01*
X64000411Y-82590739D01*
X64012654Y-82570013D01*
X64027150Y-82543263D01*
X64075218Y-82457983D01*
X64133146Y-82371074D01*
X64197800Y-82289914D01*
X64271524Y-82211319D01*
X64298373Y-82185164D01*
X64330831Y-82155391D01*
X64357324Y-82133809D01*
X64378782Y-82119750D01*
X64396136Y-82112543D01*
X64410315Y-82111521D01*
X64416199Y-82111956D01*
X64426706Y-82109477D01*
X64438492Y-82101091D01*
X64454571Y-82084991D01*
X64468045Y-82072184D01*
X64492109Y-82053540D01*
X64515433Y-82039433D01*
X64519439Y-82037490D01*
X64537398Y-82029875D01*
X64554488Y-82025438D01*
X64574990Y-82023368D01*
X64603187Y-82022858D01*
X64608327Y-82022868D01*
X64635129Y-82023584D01*
X64654874Y-82025995D01*
X64671812Y-82030892D01*
X64690194Y-82039068D01*
X64705834Y-82047547D01*
X64727759Y-82062931D01*
X64749565Y-82083186D01*
X64773205Y-82110202D01*
X64800633Y-82145868D01*
X64823073Y-82178159D01*
X64856831Y-82237963D01*
X64880188Y-82298085D01*
X64893992Y-82360476D01*
X64894588Y-82365267D01*
X64896349Y-82385458D01*
X64898300Y-82415079D01*
X64900344Y-82452267D01*
X64902384Y-82495160D01*
X64904321Y-82541894D01*
X64906058Y-82590606D01*
X64907491Y-82631921D01*
X64916506Y-82826087D01*
X64928984Y-83011932D01*
X64944867Y-83189124D01*
X64964099Y-83357329D01*
X64986624Y-83516217D01*
X65012386Y-83665453D01*
X65041329Y-83804707D01*
X65073395Y-83933645D01*
X65108530Y-84051934D01*
X65146676Y-84159243D01*
X65187778Y-84255239D01*
X65190367Y-84260745D01*
X65207485Y-84298699D01*
X65219226Y-84328872D01*
X65226085Y-84353615D01*
X65228560Y-84375278D01*
X65227148Y-84396210D01*
X65222346Y-84418761D01*
X65206667Y-84462034D01*
X65180136Y-84505155D01*
X65145231Y-84540280D01*
X65117819Y-84558565D01*
X65090742Y-84568183D01*
X65066858Y-84566671D01*
X65060955Y-84564364D01*
X65043897Y-84555975D01*
X65021376Y-84543662D01*
X64996068Y-84529024D01*
X64970645Y-84513657D01*
X64947781Y-84499160D01*
X64930151Y-84487131D01*
X64920427Y-84479167D01*
X64918307Y-84476603D01*
X64912820Y-84465557D01*
X64910005Y-84449018D01*
X64909211Y-84423770D01*
X64909474Y-84408196D01*
X64911832Y-84385804D01*
X64917831Y-84365343D01*
X64928896Y-84340802D01*
X64943196Y-84316392D01*
X64963483Y-84290033D01*
X64985871Y-84267214D01*
X65007939Y-84250367D01*
X65027270Y-84241923D01*
X65039059Y-84238087D01*
X65044222Y-84233313D01*
X65044109Y-84232706D01*
X65039467Y-84224484D01*
X65029379Y-84210162D01*
X65015720Y-84192428D01*
X65000053Y-84171835D01*
X64959348Y-84108509D01*
X64920685Y-84033673D01*
X64884135Y-83947569D01*
X64849763Y-83850440D01*
X64817640Y-83742527D01*
X64787833Y-83624072D01*
X64760411Y-83495317D01*
X64735442Y-83356504D01*
X64712993Y-83207875D01*
X64693134Y-83049672D01*
X64691842Y-83038177D01*
X64687497Y-82997369D01*
X64683746Y-82958855D01*
X64680803Y-82925038D01*
X64678881Y-82898324D01*
X64678193Y-82881119D01*
X64679637Y-82854621D01*
X64689268Y-82802601D01*
X64708019Y-82743619D01*
X64735979Y-82677363D01*
X64760636Y-82622134D01*
X64780324Y-82571988D01*
X64794452Y-82527206D01*
X64803641Y-82485471D01*
X64808509Y-82444461D01*
X64809678Y-82401860D01*
X64808640Y-82361647D01*
X64806252Y-82330174D01*
X64802343Y-82308628D01*
X64796724Y-82295975D01*
X64789202Y-82291182D01*
X64784551Y-82290987D01*
X64780498Y-82293602D01*
X64778165Y-82301518D01*
X64776995Y-82316968D01*
X64776426Y-82342186D01*
X64775432Y-82353542D01*
X64772779Y-82383833D01*
X64759637Y-82441922D01*
X64737418Y-82505271D01*
X64706609Y-82573065D01*
X64667694Y-82644489D01*
X64621159Y-82718728D01*
X64567487Y-82794968D01*
X64507165Y-82872394D01*
X64440677Y-82950190D01*
X64368509Y-83027542D01*
X64351049Y-83045536D01*
X64325035Y-83072612D01*
X64302774Y-83096107D01*
X64285432Y-83114776D01*
X64274173Y-83127374D01*
X64270161Y-83132658D01*
X64271275Y-83135740D01*
X64277494Y-83146731D01*
X64287355Y-83161867D01*
X64287692Y-83162360D01*
X64315503Y-83209607D01*
X64340506Y-83264662D01*
X64361062Y-83323431D01*
X64375529Y-83381823D01*
X64378308Y-83400242D01*
X64381453Y-83434952D01*
X64383462Y-83477004D01*
X64384169Y-83523672D01*
X64384170Y-83620376D01*
X64419220Y-83633156D01*
X64435325Y-83639798D01*
X64453603Y-83649323D01*
X64464912Y-83657695D01*
X64466428Y-83659404D01*
X64470231Y-83665144D01*
X64470856Y-83671929D01*
X64467650Y-83682126D01*
X64459962Y-83698102D01*
X64447139Y-83722225D01*
X64445331Y-83725436D01*
X64416085Y-83777367D01*
X64339654Y-83896098D01*
X64253027Y-84010090D01*
X64157132Y-84118338D01*
X64052899Y-84219835D01*
X63941254Y-84313575D01*
X63823126Y-84398553D01*
X63771496Y-84431807D01*
X63636140Y-84510824D01*
X63491808Y-84584297D01*
X63339943Y-84651695D01*
X63199048Y-84705921D01*
X63181988Y-84712487D01*
X63019386Y-84766142D01*
X62853581Y-84812128D01*
X62686014Y-84849914D01*
X62518130Y-84878970D01*
X62419229Y-84893438D01*
X62402378Y-84872996D01*
X62393745Y-84863200D01*
X62378880Y-84848905D01*
X62365032Y-84838121D01*
X62353829Y-84831694D01*
X62346902Y-84830472D01*
X62345882Y-84835300D01*
X62352398Y-84847028D01*
X62354760Y-84851061D01*
X62360226Y-84870976D01*
X62362011Y-84901420D01*
X62362093Y-84910926D01*
X62363481Y-84931447D01*
X62367192Y-84944685D01*
X62374012Y-84954089D01*
X62377310Y-84957445D01*
X62381854Y-84961482D01*
X62387237Y-84964009D01*
X62395303Y-84965020D01*
X62407898Y-84964512D01*
X62426863Y-84962480D01*
X62454043Y-84958921D01*
X62491281Y-84953830D01*
X62637221Y-84930448D01*
X62812474Y-84893460D01*
X62986456Y-84847235D01*
X63157648Y-84792312D01*
X63324529Y-84729227D01*
X63485582Y-84658517D01*
X63639286Y-84580722D01*
X63784123Y-84496378D01*
X63815163Y-84476533D01*
X63935278Y-84390945D01*
X64049167Y-84295424D01*
X64156184Y-84190592D01*
X64255684Y-84077071D01*
X64347019Y-83955482D01*
X64384170Y-83901950D01*
X64384170Y-83968229D01*
X64383789Y-83997175D01*
X64381676Y-84026723D01*
X64376786Y-84051948D01*
X64368095Y-84076388D01*
X64354574Y-84103582D01*
X64335198Y-84137068D01*
X64296390Y-84198982D01*
X64216561Y-84311886D01*
X64128262Y-84420161D01*
X64033118Y-84522005D01*
X63932750Y-84615616D01*
X63828784Y-84699192D01*
X63760708Y-84747350D01*
X63642390Y-84821931D01*
X63515095Y-84892003D01*
X63380368Y-84956933D01*
X63239759Y-85016086D01*
X63094815Y-85068828D01*
X62947084Y-85114525D01*
X62798114Y-85152544D01*
X62649453Y-85182251D01*
X62570043Y-85194960D01*
X62494292Y-85205186D01*
X62426081Y-85212349D01*
X62366207Y-85216394D01*
X62315469Y-85217269D01*
X62274664Y-85214919D01*
X62244590Y-85209291D01*
X62243008Y-85208803D01*
X62236046Y-85206301D01*
X62227233Y-85202563D01*
X62216001Y-85197267D01*
X62201784Y-85190094D01*
X62184013Y-85180723D01*
X62162119Y-85168834D01*
X62135536Y-85154107D01*
X62103694Y-85136221D01*
X62066027Y-85114856D01*
X62021966Y-85089692D01*
X61970943Y-85060409D01*
X61912391Y-85026685D01*
X61845740Y-84988202D01*
X61770425Y-84944638D01*
X61685875Y-84895673D01*
X61591525Y-84840987D01*
X61556722Y-84820821D01*
X61498725Y-84787269D01*
X61488430Y-84781326D01*
X62488021Y-84781326D01*
X62489948Y-84792737D01*
X62495521Y-84797562D01*
X62495745Y-84797545D01*
X62508260Y-84795619D01*
X62530312Y-84791260D01*
X62559864Y-84784938D01*
X62594877Y-84777121D01*
X62633314Y-84768277D01*
X62673137Y-84758875D01*
X62712308Y-84749385D01*
X62748790Y-84740274D01*
X62780544Y-84732011D01*
X62878051Y-84705921D01*
X62878034Y-84684940D01*
X62920055Y-84684940D01*
X62920155Y-84686159D01*
X62922206Y-84688685D01*
X62928043Y-84688926D01*
X62939158Y-84686496D01*
X62957039Y-84681010D01*
X62983177Y-84672081D01*
X63019062Y-84659326D01*
X63029628Y-84655537D01*
X63061342Y-84644163D01*
X63090243Y-84633799D01*
X63113504Y-84625459D01*
X63128297Y-84620158D01*
X63153525Y-84611121D01*
X63154914Y-84582132D01*
X63202726Y-84582132D01*
X63204646Y-84587873D01*
X63206226Y-84587519D01*
X63217147Y-84583425D01*
X63236021Y-84575476D01*
X63260711Y-84564589D01*
X63289084Y-84551678D01*
X63294515Y-84549172D01*
X63326274Y-84534541D01*
X63356891Y-84520473D01*
X63383114Y-84508461D01*
X63401695Y-84499996D01*
X63417309Y-84492254D01*
X63433084Y-84481129D01*
X63439901Y-84469976D01*
X63439985Y-84469617D01*
X63441116Y-84457658D01*
X63441285Y-84450811D01*
X63479407Y-84450811D01*
X63481832Y-84456018D01*
X63482300Y-84455958D01*
X63491092Y-84452211D01*
X63507930Y-84443427D01*
X63530901Y-84430711D01*
X63558090Y-84415170D01*
X63587586Y-84397909D01*
X63617473Y-84380032D01*
X63645840Y-84362646D01*
X63670772Y-84346857D01*
X63722434Y-84313395D01*
X63725156Y-84285164D01*
X63761301Y-84285164D01*
X63761435Y-84285198D01*
X63767539Y-84281776D01*
X63781104Y-84272524D01*
X63800257Y-84258756D01*
X63823126Y-84241786D01*
X63829186Y-84237211D01*
X63953933Y-84135669D01*
X64069173Y-84027094D01*
X64175557Y-83910830D01*
X64273736Y-83786219D01*
X64318165Y-83725436D01*
X64318119Y-83684211D01*
X64318044Y-83676508D01*
X64314961Y-83631555D01*
X64307063Y-83583416D01*
X64293935Y-83530362D01*
X64275160Y-83470665D01*
X64250323Y-83402596D01*
X64243964Y-83386633D01*
X64227947Y-83349691D01*
X64209246Y-83309924D01*
X64188808Y-83269054D01*
X64167578Y-83228804D01*
X64146504Y-83190899D01*
X64126531Y-83157061D01*
X64108604Y-83129014D01*
X64093671Y-83108483D01*
X64082677Y-83097189D01*
X64077115Y-83093551D01*
X64068454Y-83091472D01*
X64059437Y-83097583D01*
X64056735Y-83100587D01*
X64052231Y-83108916D01*
X64048134Y-83121838D01*
X64044297Y-83140409D01*
X64040576Y-83165685D01*
X64036825Y-83198723D01*
X64032897Y-83240578D01*
X64028647Y-83292306D01*
X64026035Y-83327007D01*
X64023930Y-83354963D01*
X64022887Y-83369188D01*
X64016542Y-83452211D01*
X64010361Y-83526421D01*
X64009144Y-83539626D01*
X64004081Y-83594563D01*
X63997436Y-83659377D01*
X63990162Y-83723608D01*
X63981995Y-83789997D01*
X63979654Y-83808484D01*
X63975864Y-83838795D01*
X63972803Y-83863780D01*
X63970738Y-83881248D01*
X63969937Y-83889005D01*
X63969901Y-83889195D01*
X63966960Y-83885482D01*
X63959991Y-83872931D01*
X63949972Y-83853376D01*
X63937877Y-83828656D01*
X63932695Y-83818024D01*
X63919987Y-83792899D01*
X63905848Y-83765897D01*
X63891427Y-83739111D01*
X63877876Y-83714634D01*
X63866345Y-83694560D01*
X63857984Y-83680980D01*
X63853944Y-83675988D01*
X63853790Y-83676353D01*
X63853137Y-83684014D01*
X63852613Y-83698490D01*
X63851923Y-83706450D01*
X63848546Y-83726972D01*
X63843037Y-83753071D01*
X63836145Y-83780997D01*
X63831427Y-83799115D01*
X63825021Y-83825444D01*
X63819190Y-83852175D01*
X63813660Y-83880955D01*
X63808157Y-83913430D01*
X63802407Y-83951247D01*
X63796138Y-83996050D01*
X63789076Y-84049487D01*
X63780947Y-84113203D01*
X63779780Y-84122481D01*
X63774450Y-84165504D01*
X63769790Y-84204178D01*
X63767449Y-84224295D01*
X63765972Y-84236991D01*
X63763170Y-84262434D01*
X63761555Y-84278995D01*
X63761301Y-84285164D01*
X63725156Y-84285164D01*
X63726405Y-84272213D01*
X63727400Y-84224295D01*
X63719866Y-84161554D01*
X63703094Y-84093594D01*
X63677340Y-84021413D01*
X63642860Y-83946010D01*
X63632026Y-83925047D01*
X63617019Y-83897299D01*
X63602366Y-83871448D01*
X63589115Y-83849238D01*
X63578315Y-83832413D01*
X63571014Y-83822717D01*
X63568259Y-83821894D01*
X63569284Y-83826793D01*
X63574163Y-83838108D01*
X63575520Y-83841680D01*
X63576038Y-83853885D01*
X63572656Y-83873209D01*
X63565084Y-83901659D01*
X63561432Y-83914496D01*
X63552619Y-83947953D01*
X63544604Y-83982724D01*
X63537073Y-84020583D01*
X63529712Y-84063301D01*
X63522207Y-84112652D01*
X63514246Y-84170410D01*
X63505513Y-84238346D01*
X63504959Y-84242770D01*
X63499305Y-84287620D01*
X63493968Y-84329528D01*
X63489180Y-84366699D01*
X63485173Y-84397340D01*
X63482180Y-84419659D01*
X63480433Y-84431861D01*
X63479786Y-84436725D01*
X63479653Y-84437723D01*
X63479407Y-84450811D01*
X63441285Y-84450811D01*
X63441633Y-84436725D01*
X63441509Y-84409668D01*
X63440720Y-84379335D01*
X63440476Y-84372843D01*
X63438810Y-84340097D01*
X63436237Y-84314419D01*
X63432007Y-84291585D01*
X63425371Y-84267373D01*
X63415581Y-84237559D01*
X63415251Y-84236596D01*
X63399598Y-84194950D01*
X63380203Y-84149372D01*
X63358865Y-84103718D01*
X63337385Y-84061843D01*
X63317564Y-84027605D01*
X63302158Y-84003200D01*
X63291172Y-84029067D01*
X63289986Y-84032078D01*
X63284286Y-84050073D01*
X63277324Y-84076062D01*
X63269874Y-84107035D01*
X63262706Y-84139982D01*
X63259893Y-84153786D01*
X63255173Y-84177738D01*
X63250836Y-84201185D01*
X63246653Y-84225679D01*
X63242391Y-84252773D01*
X63237820Y-84284018D01*
X63232707Y-84320967D01*
X63226823Y-84365171D01*
X63219935Y-84418182D01*
X63211812Y-84481552D01*
X63210161Y-84494681D01*
X63205482Y-84535571D01*
X63203633Y-84557319D01*
X63203004Y-84564710D01*
X63202726Y-84582132D01*
X63154914Y-84582132D01*
X63155299Y-84574088D01*
X63155640Y-84557319D01*
X63154835Y-84526640D01*
X63152656Y-84498317D01*
X63152154Y-84494224D01*
X63143930Y-84452235D01*
X63129859Y-84403552D01*
X63110997Y-84350915D01*
X63088402Y-84297064D01*
X63063130Y-84244737D01*
X63036239Y-84196672D01*
X63030629Y-84187486D01*
X63021153Y-84172865D01*
X63015398Y-84166714D01*
X63011712Y-84167721D01*
X63008444Y-84174573D01*
X63005589Y-84182465D01*
X62997374Y-84208950D01*
X62988161Y-84242810D01*
X62978746Y-84280885D01*
X62969925Y-84320016D01*
X62962492Y-84357042D01*
X62960023Y-84371532D01*
X62956030Y-84397603D01*
X62951325Y-84430341D01*
X62946174Y-84467685D01*
X62940845Y-84507574D01*
X62935604Y-84547947D01*
X62930717Y-84586743D01*
X62926453Y-84621901D01*
X62923076Y-84651361D01*
X62920854Y-84673061D01*
X62920055Y-84684940D01*
X62878034Y-84684940D01*
X62878016Y-84663492D01*
X62873879Y-84599309D01*
X62860598Y-84524578D01*
X62838680Y-84445479D01*
X62808653Y-84363442D01*
X62771046Y-84279900D01*
X62726386Y-84196283D01*
X62675202Y-84114023D01*
X62654819Y-84084021D01*
X62778491Y-84084021D01*
X62779992Y-84088145D01*
X62785599Y-84102450D01*
X62794419Y-84124430D01*
X62805610Y-84151988D01*
X62818328Y-84183028D01*
X62826812Y-84203567D01*
X62838471Y-84231504D01*
X62848036Y-84254075D01*
X62854693Y-84269364D01*
X62857627Y-84275458D01*
X62858586Y-84275681D01*
X62863310Y-84269663D01*
X62869997Y-84255662D01*
X62877637Y-84236349D01*
X62885223Y-84214395D01*
X62891748Y-84192472D01*
X62896201Y-84173249D01*
X62897650Y-84163885D01*
X62900081Y-84141029D01*
X62902003Y-84113916D01*
X62903335Y-84085249D01*
X62903996Y-84057732D01*
X62903905Y-84034066D01*
X62902979Y-84016955D01*
X62901139Y-84009100D01*
X62895294Y-84010439D01*
X62881150Y-84016779D01*
X62860913Y-84027116D01*
X62836750Y-84040398D01*
X62814110Y-84053617D01*
X62792783Y-84067492D01*
X62781153Y-84077445D01*
X62778491Y-84084021D01*
X62654819Y-84084021D01*
X62654807Y-84084004D01*
X62629863Y-84049267D01*
X62609604Y-84024207D01*
X62593359Y-84008339D01*
X62580460Y-84001178D01*
X62570238Y-84002241D01*
X62562024Y-84011042D01*
X62555149Y-84027098D01*
X62554558Y-84029239D01*
X62551995Y-84044603D01*
X62549058Y-84070265D01*
X62545863Y-84104881D01*
X62542527Y-84147110D01*
X62539167Y-84195609D01*
X62535898Y-84249034D01*
X62534379Y-84275108D01*
X62529131Y-84358903D01*
X62528175Y-84372291D01*
X62523773Y-84433906D01*
X62518088Y-84502608D01*
X62511858Y-84567500D01*
X62504864Y-84631073D01*
X62496891Y-84695819D01*
X62493842Y-84720480D01*
X62490827Y-84747379D01*
X62488777Y-84768716D01*
X62488021Y-84781326D01*
X61488430Y-84781326D01*
X61444265Y-84755830D01*
X61394198Y-84726994D01*
X61349378Y-84701250D01*
X61310660Y-84679089D01*
X61278899Y-84661000D01*
X61254948Y-84647473D01*
X61239664Y-84638998D01*
X61233900Y-84636064D01*
X61233144Y-84640009D01*
X61234056Y-84653593D01*
X61236690Y-84674576D01*
X61240793Y-84700569D01*
X61246496Y-84735871D01*
X61253899Y-84786371D01*
X61261641Y-84843522D01*
X61269348Y-84904445D01*
X61276645Y-84966262D01*
X61283157Y-85026095D01*
X61284689Y-85043803D01*
X61286877Y-85082577D01*
X61288589Y-85132330D01*
X61289810Y-85192428D01*
X61290525Y-85262236D01*
X61290719Y-85341120D01*
X61290529Y-85402510D01*
X61289832Y-85469277D01*
X61288467Y-85527621D01*
X61286265Y-85579516D01*
X61283059Y-85626941D01*
X61278681Y-85671870D01*
X61272963Y-85716281D01*
X61265736Y-85762148D01*
X61256834Y-85811450D01*
X61246087Y-85866161D01*
X61236063Y-85912640D01*
X61215104Y-85995673D01*
X61190849Y-86076984D01*
X61164033Y-86154521D01*
X61135389Y-86226227D01*
X61105650Y-86290048D01*
X61075550Y-86343928D01*
X61060147Y-86368660D01*
X61092856Y-86390378D01*
X61099197Y-86394668D01*
X61122891Y-86413364D01*
X61137449Y-86431555D01*
X61144655Y-86452169D01*
X61146293Y-86478136D01*
X61145463Y-86491013D01*
X61135982Y-86531899D01*
X61117399Y-86572197D01*
X61091458Y-86608671D01*
X61059908Y-86638089D01*
X61056688Y-86640417D01*
X61037391Y-86652166D01*
X61019008Y-86658143D01*
X60999430Y-86658072D01*
X60976546Y-86651678D01*
X60948246Y-86638684D01*
X60912419Y-86618815D01*
X60902782Y-86613195D01*
X60877113Y-86597753D01*
X60859605Y-86586015D01*
X60848400Y-86576473D01*
X60841641Y-86567620D01*
X60837472Y-86557946D01*
X60832199Y-86525358D01*
X60835954Y-86488088D01*
X60848064Y-86449717D01*
X60867481Y-86412722D01*
X60893160Y-86379583D01*
X60924055Y-86352779D01*
X60928188Y-86349917D01*
X60937112Y-86343076D01*
X60943805Y-86335617D01*
X60949274Y-86325330D01*
X60954525Y-86310006D01*
X60960565Y-86287432D01*
X60968400Y-86255400D01*
X60989445Y-86164050D01*
X61014100Y-86040364D01*
X61033032Y-85920523D01*
X61046567Y-85801504D01*
X61055028Y-85680281D01*
X61058739Y-85553830D01*
X61058025Y-85419126D01*
X61057560Y-85397705D01*
X61055184Y-85318445D01*
X61051730Y-85243004D01*
X61047000Y-85169442D01*
X61040797Y-85095819D01*
X61032925Y-85020195D01*
X61023186Y-84940628D01*
X61011383Y-84855179D01*
X60997319Y-84761908D01*
X60980797Y-84658873D01*
X60949581Y-84468665D01*
X60689140Y-84317925D01*
X60677468Y-84311174D01*
X60627100Y-84282165D01*
X60580132Y-84255305D01*
X60537558Y-84231150D01*
X60500373Y-84210257D01*
X60469574Y-84193183D01*
X60446156Y-84180485D01*
X60431114Y-84172720D01*
X60425443Y-84170443D01*
X60425116Y-84174052D01*
X60426175Y-84187872D01*
X60428798Y-84210057D01*
X60432739Y-84238569D01*
X60437747Y-84271372D01*
X60448984Y-84343792D01*
X60459602Y-84417971D01*
X60468108Y-84485832D01*
X60474761Y-84550252D01*
X60479819Y-84614109D01*
X60483541Y-84680280D01*
X60486185Y-84751645D01*
X60488009Y-84831079D01*
X60488963Y-84907284D01*
X60488825Y-84982467D01*
X60487318Y-85050169D01*
X60484326Y-85112738D01*
X60479735Y-85172521D01*
X60473429Y-85231864D01*
X60465292Y-85293116D01*
X60450293Y-85384474D01*
X60426611Y-85496937D01*
X60398224Y-85603597D01*
X60365573Y-85702993D01*
X60329099Y-85793670D01*
X60289245Y-85874169D01*
X60257760Y-85931154D01*
X60293362Y-85956261D01*
X60302821Y-85963176D01*
X60325757Y-85983892D01*
X60338867Y-86004844D01*
X60343432Y-86028798D01*
X60340732Y-86058519D01*
X60337813Y-86071744D01*
X60329106Y-86099861D01*
X60318593Y-86125080D01*
X60309186Y-86141287D01*
X60289237Y-86167453D01*
X60265865Y-86191294D01*
X60241964Y-86209991D01*
X60220429Y-86220722D01*
X60216371Y-86221857D01*
X60204454Y-86223794D01*
X60191967Y-86222821D01*
X60176998Y-86218233D01*
X60157632Y-86209328D01*
X60131958Y-86195403D01*
X60098061Y-86175755D01*
X60085976Y-86168535D01*
X60060555Y-86151842D01*
X60043712Y-86137107D01*
X60033765Y-86122088D01*
X60029031Y-86104544D01*
X60027827Y-86082236D01*
X60029788Y-86059568D01*
X60040897Y-86020246D01*
X60060315Y-85981371D01*
X60086322Y-85946110D01*
X60117198Y-85917632D01*
X60145031Y-85897200D01*
X60164383Y-85817175D01*
X60173016Y-85780851D01*
X60197431Y-85668835D01*
X60216896Y-85562281D01*
X60231851Y-85457760D01*
X60242741Y-85351843D01*
X60250006Y-85241100D01*
X60254091Y-85122102D01*
X60254744Y-85082674D01*
X60254781Y-84992825D01*
X60252676Y-84902816D01*
X60248302Y-84811382D01*
X60241532Y-84717258D01*
X60232239Y-84619181D01*
X60220293Y-84515885D01*
X60205569Y-84406106D01*
X60187938Y-84288579D01*
X60167273Y-84162040D01*
X60157392Y-84105301D01*
X60941391Y-84105301D01*
X60942377Y-84107850D01*
X60949470Y-84105510D01*
X60961487Y-84101414D01*
X60996764Y-84097005D01*
X61030474Y-84104187D01*
X61062067Y-84122673D01*
X61090992Y-84152177D01*
X61116698Y-84192413D01*
X61119740Y-84198068D01*
X61130692Y-84216330D01*
X61139870Y-84228606D01*
X61145542Y-84232490D01*
X61151688Y-84225830D01*
X61157320Y-84212656D01*
X61160509Y-84202452D01*
X61172365Y-84175481D01*
X61187904Y-84156683D01*
X61209308Y-84143140D01*
X61217673Y-84139030D01*
X61237781Y-84128219D01*
X61253382Y-84118653D01*
X61263530Y-84112506D01*
X61273598Y-84111000D01*
X61279721Y-84119250D01*
X61283612Y-84138374D01*
X61284454Y-84144260D01*
X61286957Y-84158143D01*
X61288922Y-84164311D01*
X61289201Y-84164438D01*
X61297039Y-84167479D01*
X61314664Y-84174157D01*
X61340845Y-84184010D01*
X61374350Y-84196577D01*
X61413949Y-84211395D01*
X61458410Y-84228002D01*
X61506502Y-84245937D01*
X61542924Y-84259531D01*
X61592050Y-84277988D01*
X61631832Y-84293174D01*
X61663453Y-84305603D01*
X61688095Y-84315790D01*
X61706941Y-84324251D01*
X61721175Y-84331500D01*
X61731977Y-84338053D01*
X61740532Y-84344424D01*
X61748021Y-84351129D01*
X61755020Y-84357807D01*
X61767387Y-84369107D01*
X61772601Y-84372291D01*
X61771653Y-84367592D01*
X61765534Y-84355244D01*
X61761873Y-84348774D01*
X61752603Y-84336278D01*
X61739479Y-84323528D01*
X61720823Y-84309166D01*
X61694954Y-84291835D01*
X61660194Y-84270181D01*
X61645543Y-84261130D01*
X61618842Y-84243623D01*
X61599766Y-84229084D01*
X61586182Y-84215788D01*
X61575956Y-84202008D01*
X61556499Y-84175274D01*
X61516826Y-84136651D01*
X61469519Y-84106875D01*
X61468245Y-84106250D01*
X61446604Y-84096568D01*
X61427107Y-84090566D01*
X61405041Y-84087160D01*
X61375694Y-84085263D01*
X61342509Y-84082028D01*
X61294209Y-84071161D01*
X61241972Y-84052352D01*
X61183881Y-84024998D01*
X61166256Y-84016827D01*
X61149469Y-84011928D01*
X61129482Y-84009632D01*
X61101911Y-84009087D01*
X61082101Y-84009396D01*
X61059243Y-84011261D01*
X61041729Y-84015435D01*
X61025572Y-84022625D01*
X61000843Y-84037829D01*
X60970801Y-84063183D01*
X60949470Y-84090433D01*
X60946513Y-84095521D01*
X60941391Y-84105301D01*
X60157392Y-84105301D01*
X60143446Y-84025224D01*
X60138836Y-83999430D01*
X59880953Y-83850073D01*
X59871324Y-83844498D01*
X59821148Y-83815523D01*
X59774379Y-83788635D01*
X59732013Y-83764399D01*
X59695045Y-83743379D01*
X59664469Y-83726139D01*
X59641281Y-83713243D01*
X59626475Y-83705255D01*
X59621047Y-83702738D01*
X59620916Y-83704102D01*
X59621991Y-83714785D01*
X59624753Y-83734233D01*
X59628886Y-83760311D01*
X59634075Y-83790883D01*
X59640908Y-83831019D01*
X59666451Y-84006690D01*
X59684193Y-84177833D01*
X59694174Y-84343954D01*
X59696434Y-84504562D01*
X59691014Y-84659165D01*
X59677954Y-84807272D01*
X59657294Y-84948388D01*
X59629075Y-85082024D01*
X59593337Y-85207687D01*
X59550120Y-85324884D01*
X59499465Y-85433123D01*
X59497371Y-85437118D01*
X59484250Y-85462264D01*
X59473579Y-85482928D01*
X59466406Y-85497065D01*
X59463782Y-85502631D01*
X59463783Y-85502641D01*
X59468418Y-85506588D01*
X59480390Y-85515371D01*
X59497133Y-85527107D01*
X59501308Y-85530025D01*
X59525473Y-85549897D01*
X59539960Y-85569603D01*
X59546334Y-85592123D01*
X59546164Y-85620440D01*
X59541405Y-85648165D01*
X59528497Y-85685088D01*
X59509562Y-85719456D01*
X59486126Y-85749402D01*
X59459719Y-85773057D01*
X59431869Y-85788555D01*
X59404103Y-85794029D01*
X59396922Y-85793171D01*
X59376453Y-85786670D01*
X59350822Y-85775116D01*
X59322742Y-85760108D01*
X59294926Y-85743243D01*
X59270086Y-85726119D01*
X59250933Y-85710332D01*
X59240180Y-85697481D01*
X59232896Y-85673802D01*
X59232712Y-85642300D01*
X59239981Y-85607802D01*
X59253730Y-85572731D01*
X59272987Y-85539511D01*
X59296778Y-85510566D01*
X59324131Y-85488320D01*
X59331548Y-85483533D01*
X59338746Y-85477706D01*
X59344463Y-85470184D01*
X59349567Y-85458976D01*
X59354925Y-85442090D01*
X59361407Y-85417532D01*
X59369879Y-85383312D01*
X59376799Y-85354691D01*
X59403530Y-85232722D01*
X59424354Y-85115273D01*
X59439818Y-84998360D01*
X59450469Y-84878002D01*
X59456854Y-84750217D01*
X59459152Y-84612633D01*
X59456464Y-84469981D01*
X59448419Y-84325444D01*
X59434857Y-84176156D01*
X59415616Y-84019251D01*
X59412944Y-84000310D01*
X59408053Y-83967246D01*
X59402099Y-83928304D01*
X59395324Y-83884963D01*
X59387972Y-83838699D01*
X59380286Y-83790991D01*
X59372508Y-83743317D01*
X59364882Y-83697154D01*
X59359963Y-83667783D01*
X60137631Y-83667783D01*
X60138497Y-83668034D01*
X60147424Y-83666931D01*
X60162288Y-83663373D01*
X60176867Y-83660844D01*
X60208089Y-83662773D01*
X60239276Y-83672772D01*
X60265855Y-83689681D01*
X60267720Y-83691402D01*
X60281243Y-83706974D01*
X60296577Y-83728523D01*
X60310750Y-83751931D01*
X60314785Y-83759091D01*
X60326558Y-83777932D01*
X60336525Y-83791066D01*
X60342867Y-83795998D01*
X60344511Y-83795579D01*
X60350473Y-83787471D01*
X60354935Y-83771511D01*
X60360266Y-83754011D01*
X60373638Y-83731343D01*
X60391358Y-83713158D01*
X60410422Y-83703158D01*
X60413322Y-83702300D01*
X60429931Y-83694684D01*
X60447010Y-83683720D01*
X60456828Y-83677137D01*
X60468844Y-83674029D01*
X60475592Y-83681508D01*
X60477862Y-83699990D01*
X60478949Y-83710757D01*
X60482455Y-83721323D01*
X60482812Y-83721647D01*
X60491119Y-83725785D01*
X60509212Y-83733494D01*
X60535841Y-83744282D01*
X60569754Y-83757653D01*
X60609701Y-83773114D01*
X60654432Y-83790171D01*
X60702696Y-83808330D01*
X60733691Y-83819931D01*
X60783963Y-83838863D01*
X60824766Y-83854464D01*
X60857279Y-83867247D01*
X60882678Y-83877725D01*
X60902144Y-83886410D01*
X60916852Y-83893815D01*
X60927982Y-83900453D01*
X60936710Y-83906836D01*
X60944215Y-83913479D01*
X60948987Y-83918011D01*
X60962261Y-83930175D01*
X60968349Y-83934336D01*
X60968297Y-83930860D01*
X60963151Y-83920113D01*
X60959904Y-83914257D01*
X60959398Y-83913554D01*
X63058865Y-83913554D01*
X63059452Y-83916760D01*
X63063726Y-83929443D01*
X63065549Y-83934336D01*
X63071385Y-83949996D01*
X63081726Y-83976544D01*
X63094045Y-84007215D01*
X63102790Y-84028623D01*
X63114777Y-84057718D01*
X63114783Y-84057732D01*
X63124834Y-84081840D01*
X63132105Y-84098938D01*
X63135733Y-84106961D01*
X63137942Y-84108474D01*
X63143732Y-84103384D01*
X63151091Y-84090228D01*
X63159100Y-84071284D01*
X63166840Y-84048833D01*
X63173392Y-84025156D01*
X63177837Y-84002530D01*
X63179156Y-83991953D01*
X63181228Y-83967961D01*
X63182744Y-83940682D01*
X63183660Y-83912660D01*
X63183934Y-83886437D01*
X63183524Y-83864557D01*
X63182387Y-83849564D01*
X63180480Y-83844002D01*
X63175046Y-83846558D01*
X63161667Y-83853792D01*
X63142948Y-83864247D01*
X63121448Y-83876456D01*
X63099728Y-83888956D01*
X63080351Y-83900282D01*
X63065876Y-83908970D01*
X63058865Y-83913554D01*
X60959398Y-83913554D01*
X60950642Y-83901390D01*
X60937574Y-83888386D01*
X60919010Y-83873861D01*
X60893255Y-83856431D01*
X60858617Y-83834714D01*
X60843100Y-83825086D01*
X60815046Y-83806730D01*
X60795215Y-83791932D01*
X60781909Y-83779357D01*
X60773429Y-83767667D01*
X60772075Y-83765316D01*
X60761144Y-83750780D01*
X63341357Y-83750780D01*
X63342129Y-83754088D01*
X63346704Y-83766852D01*
X63354682Y-83787452D01*
X63365339Y-83814031D01*
X63377953Y-83844732D01*
X63387136Y-83866891D01*
X63395191Y-83886437D01*
X63399072Y-83895854D01*
X63408862Y-83919801D01*
X63415682Y-83936713D01*
X63418707Y-83944569D01*
X63419025Y-83945407D01*
X63423401Y-83946289D01*
X63430296Y-83937050D01*
X63438976Y-83918944D01*
X63448709Y-83893226D01*
X63454979Y-83869527D01*
X63460728Y-83837409D01*
X63465330Y-83801386D01*
X63468373Y-83765352D01*
X63469449Y-83733202D01*
X63468145Y-83708830D01*
X63466932Y-83700816D01*
X63464188Y-83687322D01*
X63461964Y-83681989D01*
X63461891Y-83682000D01*
X63455687Y-83685095D01*
X63441829Y-83692683D01*
X63422879Y-83703304D01*
X63401396Y-83715497D01*
X63379941Y-83727802D01*
X63361076Y-83738758D01*
X63347361Y-83746904D01*
X63341357Y-83750780D01*
X60761144Y-83750780D01*
X60742045Y-83725383D01*
X60703577Y-83692349D01*
X60658683Y-83667348D01*
X60609374Y-83651516D01*
X60557664Y-83645986D01*
X60536623Y-83644365D01*
X60500513Y-83636967D01*
X60460232Y-83624558D01*
X60419123Y-83608213D01*
X60380529Y-83589008D01*
X60379113Y-83588453D01*
X63636585Y-83588453D01*
X63638164Y-83592123D01*
X63643837Y-83605701D01*
X63652679Y-83627058D01*
X63663851Y-83654164D01*
X63676513Y-83684989D01*
X63684978Y-83705562D01*
X63696447Y-83733202D01*
X63696542Y-83733431D01*
X63705985Y-83755899D01*
X63712502Y-83771063D01*
X63715293Y-83777017D01*
X63716187Y-83777363D01*
X63721476Y-83772243D01*
X63729018Y-83759333D01*
X63737369Y-83741345D01*
X63745087Y-83720992D01*
X63747925Y-83710677D01*
X63752500Y-83687107D01*
X63756802Y-83657617D01*
X63760543Y-83625164D01*
X63763435Y-83592709D01*
X63765191Y-83563210D01*
X63765523Y-83539626D01*
X63764144Y-83524916D01*
X63760173Y-83509093D01*
X63696872Y-83545508D01*
X63695590Y-83546248D01*
X63671713Y-83560681D01*
X63652650Y-83573431D01*
X63640305Y-83583141D01*
X63636585Y-83588453D01*
X60379113Y-83588453D01*
X60342355Y-83574047D01*
X60300875Y-83569093D01*
X60258899Y-83573826D01*
X60218831Y-83587696D01*
X60183077Y-83610155D01*
X60154042Y-83640655D01*
X60147245Y-83650374D01*
X60139759Y-83662331D01*
X60137631Y-83667783D01*
X59359963Y-83667783D01*
X59357651Y-83653981D01*
X59351058Y-83615276D01*
X59345345Y-83582515D01*
X59340757Y-83557178D01*
X59337535Y-83540743D01*
X59335924Y-83534686D01*
X59321014Y-83525376D01*
X59300998Y-83506152D01*
X59289520Y-83485172D01*
X59289403Y-83484749D01*
X59287886Y-83473512D01*
X59286647Y-83452329D01*
X59285684Y-83420906D01*
X59284992Y-83378951D01*
X59284568Y-83326170D01*
X59284409Y-83262271D01*
X59284443Y-83237177D01*
X59342902Y-83237177D01*
X59376290Y-83233731D01*
X59398993Y-83232951D01*
X59434060Y-83239549D01*
X59464705Y-83256570D01*
X59491623Y-83284465D01*
X59515509Y-83323682D01*
X59523132Y-83338628D01*
X59532800Y-83355868D01*
X59539811Y-83364680D01*
X59545596Y-83366635D01*
X59551585Y-83363303D01*
X59556336Y-83356873D01*
X59559790Y-83343115D01*
X59562410Y-83330484D01*
X59572672Y-83311126D01*
X59587865Y-83292971D01*
X59604929Y-83280279D01*
X59608674Y-83278350D01*
X59626954Y-83268286D01*
X59645968Y-83257093D01*
X59660667Y-83249379D01*
X59672742Y-83248247D01*
X59680267Y-83257117D01*
X59685195Y-83276980D01*
X59688800Y-83298615D01*
X59907102Y-83380280D01*
X59910996Y-83381737D01*
X59967102Y-83402815D01*
X60013132Y-83420327D01*
X60050221Y-83434759D01*
X60079506Y-83446601D01*
X60102122Y-83456341D01*
X60119206Y-83464465D01*
X60131893Y-83471463D01*
X60141319Y-83477823D01*
X60148621Y-83484031D01*
X60152736Y-83487900D01*
X60165730Y-83499011D01*
X60170949Y-83500983D01*
X60168417Y-83493802D01*
X60158159Y-83477450D01*
X60149793Y-83468072D01*
X60130498Y-83451836D01*
X60102813Y-83431840D01*
X60068020Y-83409058D01*
X60039140Y-83390532D01*
X60014338Y-83373445D01*
X59996567Y-83359320D01*
X59983963Y-83346659D01*
X59974663Y-83333961D01*
X59947181Y-83298829D01*
X59911242Y-83266705D01*
X59871621Y-83242242D01*
X59871460Y-83242165D01*
X59846667Y-83232425D01*
X59817628Y-83224331D01*
X59788173Y-83218626D01*
X59762134Y-83216052D01*
X59743341Y-83217354D01*
X59731761Y-83216860D01*
X59710969Y-83211793D01*
X59683465Y-83202767D01*
X59651314Y-83190525D01*
X59616582Y-83175804D01*
X59581333Y-83159344D01*
X59556130Y-83149166D01*
X59511800Y-83141016D01*
X59467233Y-83144578D01*
X59423880Y-83159845D01*
X59416749Y-83163493D01*
X59390230Y-83179622D01*
X59370404Y-83197619D01*
X59353132Y-83221064D01*
X59342902Y-83237177D01*
X59284443Y-83237177D01*
X59284510Y-83186960D01*
X59284712Y-83138066D01*
X61948296Y-83138066D01*
X61948351Y-83138403D01*
X61951480Y-83146774D01*
X61958944Y-83164375D01*
X61970097Y-83189751D01*
X61984292Y-83221445D01*
X62000884Y-83257999D01*
X62019226Y-83297959D01*
X62089837Y-83450971D01*
X62363935Y-83492946D01*
X62416415Y-83500983D01*
X62638032Y-83534922D01*
X62638032Y-83557451D01*
X62638108Y-83561551D01*
X62639642Y-83574613D01*
X62642533Y-83579775D01*
X62642903Y-83579663D01*
X62650734Y-83575664D01*
X62667574Y-83566413D01*
X62692268Y-83552564D01*
X62723663Y-83534771D01*
X62760604Y-83513688D01*
X62801935Y-83489969D01*
X62846504Y-83464266D01*
X63045975Y-83348963D01*
X63046020Y-83327007D01*
X63045523Y-83321997D01*
X63041298Y-83306059D01*
X63032558Y-83281916D01*
X63019055Y-83248953D01*
X63000544Y-83206555D01*
X62976777Y-83154106D01*
X62907490Y-83003162D01*
X62925158Y-82983039D01*
X62932982Y-82972582D01*
X62945493Y-82951124D01*
X62955776Y-82928305D01*
X62956062Y-82927539D01*
X62960431Y-82914896D01*
X62963615Y-82902522D01*
X62965762Y-82888373D01*
X62967016Y-82870405D01*
X62967524Y-82846573D01*
X62967434Y-82814833D01*
X62966892Y-82773140D01*
X62965058Y-82652586D01*
X62945373Y-82612635D01*
X62939707Y-82601875D01*
X62909273Y-82559851D01*
X62893841Y-82546294D01*
X63344877Y-82546294D01*
X63427989Y-82594347D01*
X63439210Y-82600834D01*
X63472717Y-82620205D01*
X63512610Y-82643265D01*
X63556047Y-82668372D01*
X63600186Y-82693885D01*
X63642186Y-82718159D01*
X63672118Y-82735437D01*
X63704980Y-82754351D01*
X63733072Y-82770458D01*
X63754990Y-82782957D01*
X63769330Y-82791045D01*
X63774690Y-82793919D01*
X63774734Y-82793871D01*
X63774310Y-82787360D01*
X63772403Y-82771442D01*
X63769302Y-82748374D01*
X63765296Y-82720413D01*
X63765048Y-82718724D01*
X63759481Y-82678946D01*
X64113585Y-82678946D01*
X64122996Y-82701470D01*
X64124966Y-82706098D01*
X64135223Y-82726045D01*
X64146744Y-82739096D01*
X64162918Y-82749311D01*
X64188077Y-82757135D01*
X64221012Y-82755956D01*
X64258098Y-82744240D01*
X64298823Y-82722157D01*
X64342675Y-82689875D01*
X64378817Y-82656091D01*
X64417266Y-82610263D01*
X64450371Y-82559813D01*
X64477103Y-82506828D01*
X64496430Y-82453396D01*
X64507320Y-82401604D01*
X64508745Y-82353542D01*
X64506092Y-82332398D01*
X64496993Y-82302723D01*
X64481289Y-82280984D01*
X64457861Y-82265241D01*
X64453594Y-82263214D01*
X64437214Y-82257078D01*
X64422145Y-82256013D01*
X64402028Y-82259347D01*
X64376033Y-82266589D01*
X64331793Y-82286323D01*
X64289981Y-82313717D01*
X64252153Y-82347097D01*
X64219866Y-82384790D01*
X64194673Y-82425123D01*
X64178132Y-82466421D01*
X64171797Y-82507012D01*
X64171779Y-82522523D01*
X64173482Y-82537624D01*
X64178437Y-82547852D01*
X64187989Y-82557396D01*
X64189774Y-82558878D01*
X64204469Y-82568123D01*
X64217085Y-82571901D01*
X64232443Y-82569562D01*
X64258314Y-82558022D01*
X64285745Y-82538385D01*
X64312768Y-82512384D01*
X64337411Y-82481752D01*
X64357704Y-82448222D01*
X64369169Y-82424415D01*
X64376670Y-82404326D01*
X64380253Y-82385864D01*
X64381170Y-82364567D01*
X64378978Y-82336288D01*
X64371437Y-82316431D01*
X64357653Y-82305221D01*
X64336736Y-82301393D01*
X64315164Y-82300905D01*
X64333166Y-82292663D01*
X64337707Y-82290877D01*
X64357392Y-82286169D01*
X64378860Y-82284149D01*
X64402497Y-82286992D01*
X64425570Y-82298413D01*
X64442096Y-82317483D01*
X64452313Y-82343032D01*
X64456459Y-82373894D01*
X64454774Y-82408897D01*
X64447496Y-82446876D01*
X64434863Y-82486660D01*
X64417113Y-82527081D01*
X64394487Y-82566971D01*
X64367221Y-82605161D01*
X64335555Y-82640482D01*
X64299727Y-82671767D01*
X64290249Y-82678898D01*
X64260191Y-82699489D01*
X64234876Y-82712734D01*
X64211671Y-82719815D01*
X64187943Y-82721913D01*
X64179875Y-82721821D01*
X64162619Y-82719837D01*
X64149589Y-82713480D01*
X64135068Y-82700430D01*
X64113585Y-82678946D01*
X63759481Y-82678946D01*
X63758696Y-82673334D01*
X63752307Y-82623965D01*
X63746089Y-82572602D01*
X63740255Y-82521226D01*
X63735015Y-82471821D01*
X63730579Y-82426371D01*
X63727159Y-82386858D01*
X63724965Y-82355267D01*
X63724207Y-82333579D01*
X63724228Y-82329662D01*
X63725587Y-82299037D01*
X63729527Y-82269758D01*
X63736708Y-82239463D01*
X63747791Y-82205793D01*
X63763436Y-82166385D01*
X63784306Y-82118879D01*
X63789869Y-82106540D01*
X63810099Y-82060145D01*
X63825484Y-82021192D01*
X63836664Y-81987132D01*
X63844281Y-81955417D01*
X63848973Y-81923497D01*
X63851382Y-81888822D01*
X63852149Y-81848845D01*
X63852138Y-81833817D01*
X63851229Y-81796163D01*
X63848822Y-81768900D01*
X63844690Y-81750867D01*
X63838604Y-81740900D01*
X63830336Y-81737836D01*
X63830028Y-81737853D01*
X63825963Y-81743058D01*
X63823548Y-81758226D01*
X63822620Y-81784339D01*
X63821704Y-81806367D01*
X63819076Y-81824843D01*
X63815508Y-81849926D01*
X63803004Y-81896705D01*
X63783629Y-81948613D01*
X63756819Y-82007560D01*
X63717234Y-82083174D01*
X63656555Y-82182205D01*
X63586171Y-82280130D01*
X63505365Y-82377932D01*
X63413418Y-82476591D01*
X63344877Y-82546294D01*
X62893841Y-82546294D01*
X62868967Y-82524443D01*
X62819071Y-82495909D01*
X62748052Y-82467235D01*
X62656884Y-82441444D01*
X62565025Y-82427592D01*
X62472786Y-82425681D01*
X62380482Y-82435715D01*
X62288425Y-82457694D01*
X62196929Y-82491621D01*
X62169910Y-82504230D01*
X62130160Y-82527226D01*
X62099069Y-82552635D01*
X62074510Y-82582347D01*
X62054352Y-82618254D01*
X62047518Y-82634005D01*
X62035721Y-82676197D01*
X62034960Y-82716225D01*
X62045444Y-82755058D01*
X62067383Y-82793668D01*
X62100990Y-82833024D01*
X62113598Y-82844932D01*
X62156703Y-82876926D01*
X62208302Y-82905095D01*
X62266014Y-82928564D01*
X62327457Y-82946458D01*
X62390252Y-82957903D01*
X62452018Y-82962023D01*
X62491021Y-82962130D01*
X62467583Y-82975532D01*
X62458107Y-82981335D01*
X62435441Y-83001019D01*
X62422885Y-83024436D01*
X62419015Y-83053879D01*
X62419547Y-83065502D01*
X62427431Y-83094989D01*
X62444935Y-83117367D01*
X62472298Y-83132989D01*
X62484669Y-83137126D01*
X62497745Y-83139574D01*
X62513798Y-83140164D01*
X62535801Y-83138995D01*
X62566730Y-83136170D01*
X62611815Y-83130586D01*
X62688556Y-83115389D01*
X62756606Y-83094072D01*
X62769862Y-83089198D01*
X62785917Y-83083971D01*
X62794927Y-83081942D01*
X62796315Y-83082511D01*
X62798923Y-83090454D01*
X62799691Y-83108464D01*
X62798682Y-83137446D01*
X62797496Y-83154625D01*
X62791509Y-83195289D01*
X62780506Y-83227407D01*
X62763151Y-83253200D01*
X62738107Y-83274888D01*
X62704038Y-83294692D01*
X62676426Y-83307801D01*
X62637179Y-83322827D01*
X62597211Y-83332924D01*
X62550939Y-83339733D01*
X62500496Y-83342435D01*
X62443491Y-83339174D01*
X62388010Y-83329855D01*
X62336521Y-83315050D01*
X62291490Y-83295331D01*
X62255385Y-83271269D01*
X62244532Y-83261442D01*
X62225826Y-83238981D01*
X62213166Y-83213004D01*
X62205437Y-83180786D01*
X62201523Y-83139600D01*
X62198356Y-83077535D01*
X62173675Y-83064981D01*
X62168050Y-83062072D01*
X62148886Y-83051587D01*
X62133674Y-83042510D01*
X62128281Y-83039321D01*
X62122312Y-83037601D01*
X62114724Y-83038493D01*
X62103765Y-83042682D01*
X62087685Y-83050854D01*
X62064736Y-83063694D01*
X62033166Y-83081889D01*
X62013167Y-83093661D01*
X61987295Y-83109556D01*
X61966707Y-83123018D01*
X61953131Y-83132903D01*
X61948296Y-83138066D01*
X59284712Y-83138066D01*
X59284869Y-83099943D01*
X59286769Y-82736914D01*
X59304341Y-82686574D01*
X59318696Y-82651910D01*
X59346078Y-82603586D01*
X59379260Y-82560096D01*
X59415781Y-82525006D01*
X59416948Y-82524107D01*
X59430163Y-82515072D01*
X59452468Y-82500881D01*
X59482714Y-82482226D01*
X59519749Y-82459800D01*
X59562426Y-82434294D01*
X59609593Y-82406401D01*
X59660102Y-82376811D01*
X59712802Y-82346219D01*
X59976823Y-82193659D01*
X59980203Y-82306274D01*
X59981159Y-82336284D01*
X59982526Y-82369537D01*
X59984187Y-82394679D01*
X59986426Y-82413976D01*
X59989529Y-82429697D01*
X59993781Y-82444107D01*
X59999466Y-82459473D01*
X60011920Y-82487427D01*
X60041701Y-82538775D01*
X60079449Y-82590130D01*
X60123018Y-82638954D01*
X60170258Y-82682711D01*
X60219023Y-82718862D01*
X60229873Y-82725754D01*
X60317331Y-82774370D01*
X60414363Y-82816994D01*
X60520067Y-82853311D01*
X60633541Y-82883007D01*
X60753884Y-82905765D01*
X60780923Y-82909264D01*
X60829963Y-82913354D01*
X60886474Y-82916017D01*
X60947782Y-82917269D01*
X61011213Y-82917126D01*
X61074094Y-82915603D01*
X61133752Y-82912718D01*
X61187512Y-82908484D01*
X61232703Y-82902919D01*
X61339237Y-82882914D01*
X61441210Y-82856752D01*
X61536565Y-82825034D01*
X61624728Y-82788128D01*
X61705123Y-82746403D01*
X61777176Y-82700227D01*
X61840313Y-82649970D01*
X61893957Y-82596001D01*
X61937536Y-82538688D01*
X61970473Y-82478400D01*
X61992195Y-82415506D01*
X61994795Y-82403458D01*
X61997033Y-82388481D01*
X61998753Y-82370000D01*
X62000010Y-82346600D01*
X62000859Y-82316865D01*
X62001355Y-82279378D01*
X62001552Y-82232724D01*
X62001505Y-82175487D01*
X62001496Y-82171684D01*
X62001328Y-82118461D01*
X62001080Y-82076249D01*
X62000705Y-82044116D01*
X62000287Y-82026615D01*
X62452018Y-82026615D01*
X62455731Y-82029603D01*
X62468744Y-82038020D01*
X62489981Y-82051075D01*
X62518260Y-82068058D01*
X62552399Y-82088262D01*
X62591217Y-82110977D01*
X62633532Y-82135494D01*
X62668680Y-82155750D01*
X62709333Y-82179145D01*
X62746028Y-82200227D01*
X62777480Y-82218259D01*
X62802401Y-82232502D01*
X62819504Y-82242219D01*
X62827502Y-82246672D01*
X62839957Y-82253179D01*
X62829294Y-82173595D01*
X62824431Y-82136563D01*
X62823868Y-82132061D01*
X63160073Y-82132061D01*
X63160587Y-82135945D01*
X63166592Y-82150951D01*
X63177115Y-82168652D01*
X63189340Y-82184682D01*
X63200449Y-82194672D01*
X63202903Y-82196038D01*
X63233431Y-82206579D01*
X63266538Y-82206310D01*
X63302879Y-82195132D01*
X63343107Y-82172946D01*
X63388305Y-82138666D01*
X63433288Y-82094119D01*
X63472793Y-82043885D01*
X63505651Y-81989902D01*
X63530697Y-81934109D01*
X63546763Y-81878443D01*
X63552682Y-81824843D01*
X63552414Y-81808340D01*
X63547261Y-81769778D01*
X63535415Y-81740963D01*
X63516595Y-81721562D01*
X63490523Y-81711238D01*
X63456920Y-81709655D01*
X63434222Y-81712687D01*
X63402948Y-81722340D01*
X63370501Y-81739387D01*
X63334087Y-81765089D01*
X63301221Y-81792663D01*
X63267283Y-81828635D01*
X63242136Y-81866474D01*
X63224063Y-81908418D01*
X63215640Y-81942493D01*
X63214995Y-81973469D01*
X63222414Y-81996799D01*
X63236822Y-82011862D01*
X63257145Y-82018038D01*
X63282307Y-82014705D01*
X63311234Y-82001243D01*
X63342849Y-81977029D01*
X63350292Y-81969962D01*
X63376613Y-81939993D01*
X63397714Y-81907965D01*
X63413360Y-81875342D01*
X63423314Y-81843593D01*
X63427340Y-81814183D01*
X63425204Y-81788579D01*
X63416669Y-81768246D01*
X63401499Y-81754652D01*
X63379459Y-81749263D01*
X63372499Y-81748942D01*
X63368005Y-81747751D01*
X63373140Y-81744906D01*
X63388817Y-81739449D01*
X63403649Y-81735351D01*
X63434613Y-81733228D01*
X63460147Y-81740823D01*
X63479868Y-81757264D01*
X63493391Y-81781677D01*
X63500333Y-81813192D01*
X63500309Y-81850934D01*
X63492935Y-81894033D01*
X63477828Y-81941616D01*
X63464801Y-81971370D01*
X63439166Y-82016417D01*
X63408463Y-82058296D01*
X63374164Y-82095636D01*
X63337740Y-82127066D01*
X63300662Y-82151214D01*
X63264403Y-82166708D01*
X63230434Y-82172178D01*
X63223741Y-82172112D01*
X63206748Y-82170192D01*
X63194194Y-82163707D01*
X63180297Y-82150110D01*
X63172803Y-82142220D01*
X63163648Y-82133687D01*
X63160073Y-82132061D01*
X62823868Y-82132061D01*
X62817447Y-82080708D01*
X62811046Y-82026404D01*
X62805411Y-81975373D01*
X62800721Y-81929336D01*
X62797158Y-81890016D01*
X62794902Y-81859137D01*
X62794133Y-81838419D01*
X62794722Y-81819444D01*
X62798145Y-81789660D01*
X62805172Y-81758198D01*
X62816433Y-81722899D01*
X62832556Y-81681599D01*
X62854172Y-81632139D01*
X62869752Y-81597327D01*
X62887527Y-81555573D01*
X62900891Y-81520298D01*
X62910456Y-81489035D01*
X62916833Y-81459318D01*
X62920634Y-81428683D01*
X62922470Y-81394663D01*
X62922952Y-81354792D01*
X62922952Y-81349191D01*
X62922802Y-81315306D01*
X62922237Y-81291221D01*
X62921033Y-81275007D01*
X62918968Y-81264733D01*
X62915820Y-81258469D01*
X62911366Y-81254284D01*
X62903272Y-81248958D01*
X62896122Y-81245797D01*
X62894656Y-81250342D01*
X62894067Y-81263893D01*
X62894669Y-81283300D01*
X62893959Y-81315559D01*
X62892626Y-81323412D01*
X62885579Y-81364932D01*
X62869116Y-81420630D01*
X62845019Y-81481648D01*
X62813739Y-81546982D01*
X62775726Y-81615627D01*
X62731432Y-81686581D01*
X62681307Y-81758837D01*
X62675492Y-81766714D01*
X62651783Y-81797477D01*
X62623501Y-81832611D01*
X62592620Y-81869796D01*
X62561112Y-81906711D01*
X62530951Y-81941035D01*
X62504108Y-81970449D01*
X62482557Y-81992630D01*
X62481347Y-81993814D01*
X62466524Y-82008893D01*
X62456012Y-82020646D01*
X62452018Y-82026615D01*
X62000287Y-82026615D01*
X62000156Y-82021132D01*
X61999386Y-82006365D01*
X61998346Y-81998885D01*
X61996991Y-81997761D01*
X61995272Y-82002062D01*
X61993143Y-82010857D01*
X61983388Y-82046064D01*
X61957900Y-82105390D01*
X61921981Y-82163238D01*
X61876609Y-82218321D01*
X61822763Y-82269356D01*
X61761421Y-82315058D01*
X61726790Y-82336668D01*
X61643980Y-82380714D01*
X61552619Y-82420116D01*
X61454670Y-82454231D01*
X61352095Y-82482416D01*
X61246855Y-82504027D01*
X61140915Y-82518422D01*
X61103233Y-82521069D01*
X61055412Y-82522554D01*
X61001627Y-82522832D01*
X60944867Y-82521977D01*
X60888122Y-82520063D01*
X60834383Y-82517164D01*
X60786640Y-82513353D01*
X60747884Y-82508705D01*
X60663784Y-82493780D01*
X60562001Y-82469482D01*
X60466282Y-82439546D01*
X60377266Y-82404370D01*
X60295594Y-82364346D01*
X60221904Y-82319869D01*
X60156836Y-82271335D01*
X60101029Y-82219136D01*
X60055123Y-82163668D01*
X60019756Y-82105326D01*
X59995568Y-82044503D01*
X59990212Y-82024209D01*
X59981692Y-81961883D01*
X59984419Y-81899178D01*
X59997921Y-81837128D01*
X60021729Y-81776766D01*
X60055371Y-81719123D01*
X60098378Y-81665232D01*
X60150278Y-81616125D01*
X60210600Y-81572836D01*
X60211604Y-81572214D01*
X60231901Y-81560629D01*
X60256004Y-81548234D01*
X60281506Y-81536094D01*
X60306004Y-81525275D01*
X60327092Y-81516840D01*
X60342364Y-81511854D01*
X60349417Y-81511383D01*
X60346776Y-81514941D01*
X60336313Y-81523098D01*
X60320344Y-81533828D01*
X60312016Y-81539418D01*
X60283504Y-81561864D01*
X60252486Y-81590249D01*
X60221413Y-81621983D01*
X60192734Y-81654477D01*
X60168899Y-81685141D01*
X60152357Y-81711387D01*
X60150692Y-81714614D01*
X60126020Y-81774284D01*
X60113312Y-81833192D01*
X60112555Y-81891258D01*
X60123732Y-81948397D01*
X60146828Y-82004528D01*
X60181826Y-82059569D01*
X60228712Y-82113437D01*
X60241630Y-82126150D01*
X60298810Y-82175462D01*
X60361360Y-82218300D01*
X60430841Y-82255524D01*
X60508814Y-82287996D01*
X60596838Y-82316575D01*
X60615879Y-82321972D01*
X60666204Y-82335189D01*
X60712835Y-82345489D01*
X60758381Y-82353198D01*
X60805451Y-82358639D01*
X60856655Y-82362140D01*
X60914602Y-82364025D01*
X60981902Y-82364621D01*
X60996144Y-82364625D01*
X61048617Y-82364401D01*
X61092182Y-82363615D01*
X61129329Y-82362032D01*
X61162546Y-82359415D01*
X61194325Y-82355528D01*
X61227155Y-82350135D01*
X61263526Y-82342999D01*
X61305927Y-82333884D01*
X61388576Y-82312613D01*
X61473571Y-82283791D01*
X61552506Y-82249626D01*
X61624545Y-82210685D01*
X61688849Y-82167535D01*
X61744581Y-82120744D01*
X61790903Y-82070878D01*
X61826979Y-82018504D01*
X61851970Y-81964190D01*
X61858269Y-81943909D01*
X61868442Y-81884544D01*
X61866915Y-81824293D01*
X61853770Y-81764081D01*
X61829089Y-81704833D01*
X61813380Y-81679484D01*
X61788406Y-81647148D01*
X61758078Y-81613229D01*
X61724895Y-81580337D01*
X61691355Y-81551083D01*
X61659955Y-81528078D01*
X61646600Y-81519118D01*
X61635669Y-81510265D01*
X61635367Y-81506765D01*
X61645627Y-81508616D01*
X61666381Y-81515819D01*
X61697564Y-81528373D01*
X61745606Y-81551672D01*
X61809691Y-81593244D01*
X61868238Y-81643790D01*
X61919097Y-81701626D01*
X61929089Y-81714152D01*
X61956194Y-81741377D01*
X61988205Y-81763409D01*
X61992315Y-81765756D01*
X62011032Y-81775433D01*
X62025127Y-81781108D01*
X62031814Y-81781618D01*
X62032598Y-81780313D01*
X62036887Y-81769672D01*
X62043098Y-81751499D01*
X62050172Y-81728835D01*
X62068459Y-81672895D01*
X62076283Y-81653803D01*
X62236001Y-81653803D01*
X62239262Y-81665927D01*
X62249823Y-81682978D01*
X62264631Y-81699077D01*
X62280506Y-81710195D01*
X62282701Y-81711202D01*
X62312884Y-81718628D01*
X62346140Y-81715297D01*
X62382960Y-81701093D01*
X62423833Y-81675898D01*
X62480764Y-81628259D01*
X62531315Y-81571051D01*
X62573428Y-81506352D01*
X62606095Y-81435490D01*
X62612721Y-81416440D01*
X62618558Y-81393088D01*
X62621565Y-81367893D01*
X62622579Y-81335804D01*
X62622626Y-81323412D01*
X62622045Y-81299045D01*
X62620020Y-81282047D01*
X62616000Y-81269113D01*
X62609436Y-81256937D01*
X62608735Y-81255825D01*
X62587675Y-81232451D01*
X62561260Y-81219664D01*
X62529739Y-81217443D01*
X62493357Y-81225769D01*
X62452362Y-81244619D01*
X62407000Y-81273973D01*
X62376679Y-81298166D01*
X62339210Y-81337170D01*
X62311707Y-81379844D01*
X62292963Y-81427817D01*
X62287500Y-81453373D01*
X62287343Y-81483907D01*
X62295180Y-81507076D01*
X62310037Y-81522036D01*
X62330936Y-81527941D01*
X62356903Y-81523947D01*
X62386962Y-81509209D01*
X62414737Y-81487486D01*
X62445678Y-81453189D01*
X62471244Y-81413482D01*
X62489462Y-81371527D01*
X62498362Y-81330484D01*
X62498369Y-81330404D01*
X62499767Y-81309911D01*
X62498455Y-81296883D01*
X62493163Y-81286885D01*
X62482623Y-81275479D01*
X62477248Y-81270368D01*
X62462470Y-81260466D01*
X62448999Y-81259270D01*
X62438021Y-81260575D01*
X62435776Y-81258944D01*
X62441366Y-81255324D01*
X62453035Y-81250828D01*
X62469026Y-81246571D01*
X62482928Y-81244214D01*
X62514655Y-81244905D01*
X62539560Y-81255418D01*
X62557510Y-81275631D01*
X62568376Y-81305417D01*
X62572027Y-81344654D01*
X62571039Y-81365707D01*
X62561020Y-81417768D01*
X62541114Y-81470670D01*
X62512446Y-81522552D01*
X62476144Y-81571551D01*
X62433334Y-81615807D01*
X62385143Y-81653457D01*
X62372330Y-81661493D01*
X62336608Y-81677891D01*
X62304244Y-81683441D01*
X62275760Y-81678110D01*
X62251674Y-81661866D01*
X62248448Y-81658803D01*
X62239567Y-81652550D01*
X62236001Y-81653803D01*
X62076283Y-81653803D01*
X62113601Y-81562747D01*
X62169690Y-81455592D01*
X62236075Y-81352486D01*
X62312110Y-81254489D01*
X62397145Y-81162658D01*
X62427251Y-81133395D01*
X62454339Y-81108633D01*
X62476056Y-81091059D01*
X62493735Y-81079705D01*
X62508709Y-81073602D01*
X62522313Y-81071783D01*
X62527120Y-81071603D01*
X62540054Y-81068344D01*
X62553538Y-81059468D01*
X62570917Y-81042997D01*
X62589468Y-81025615D01*
X62623750Y-81002390D01*
X62661673Y-80988559D01*
X62706449Y-80982694D01*
X62741274Y-80982713D01*
X62778407Y-80988226D01*
X62811426Y-81000795D01*
X62842309Y-81021502D01*
X62873034Y-81051429D01*
X62905578Y-81091658D01*
X62910740Y-81098646D01*
X62951270Y-81159591D01*
X62981179Y-81217314D01*
X63000986Y-81272799D01*
X63003094Y-81282005D01*
X63006014Y-81300767D01*
X63008735Y-81326461D01*
X63010921Y-81354792D01*
X63011331Y-81360099D01*
X63013876Y-81402695D01*
X63016445Y-81455264D01*
X63019113Y-81518819D01*
X63020416Y-81551177D01*
X63025072Y-81657692D01*
X63029930Y-81755288D01*
X63034948Y-81843194D01*
X63040081Y-81920640D01*
X63045286Y-81986855D01*
X63049445Y-82034859D01*
X63069581Y-81995856D01*
X63121329Y-81904544D01*
X63191422Y-81802266D01*
X63270155Y-81707637D01*
X63356740Y-81621683D01*
X63373224Y-81607156D01*
X63403130Y-81583089D01*
X63426971Y-81567696D01*
X63445648Y-81560447D01*
X63460061Y-81560810D01*
X63468540Y-81560219D01*
X63481147Y-81552017D01*
X63498717Y-81534850D01*
X63516890Y-81517404D01*
X63555717Y-81491499D01*
X63599502Y-81476287D01*
X63649112Y-81471402D01*
X63669893Y-81472104D01*
X63706776Y-81477743D01*
X63739391Y-81490018D01*
X63769758Y-81510114D01*
X63799900Y-81539216D01*
X63831839Y-81578511D01*
X63835590Y-81583536D01*
X63861342Y-81619132D01*
X63880957Y-81648915D01*
X63896043Y-81675707D01*
X63908207Y-81702334D01*
X63919059Y-81731618D01*
X63921854Y-81740122D01*
X63928661Y-81764283D01*
X63934196Y-81790528D01*
X63938637Y-81820510D01*
X63941461Y-81848845D01*
X63942162Y-81855882D01*
X63944947Y-81898295D01*
G37*
G36*
X61100498Y-81280523D02*
G01*
X61110591Y-81281600D01*
X61187318Y-81293350D01*
X61261435Y-81310789D01*
X61330679Y-81333197D01*
X61392785Y-81359855D01*
X61445488Y-81390046D01*
X61448918Y-81392361D01*
X61471998Y-81408602D01*
X61492416Y-81424020D01*
X61508746Y-81437392D01*
X61519562Y-81447495D01*
X61523437Y-81453107D01*
X61518944Y-81453005D01*
X61507984Y-81448901D01*
X61489515Y-81441907D01*
X61467940Y-81433686D01*
X61467114Y-81433372D01*
X61448287Y-81426776D01*
X61423851Y-81418932D01*
X61396643Y-81410664D01*
X61369501Y-81402795D01*
X61345263Y-81396150D01*
X61326767Y-81391551D01*
X61316851Y-81389824D01*
X61316531Y-81392173D01*
X61320431Y-81402290D01*
X61328352Y-81417682D01*
X61341392Y-81450651D01*
X61344380Y-81487210D01*
X61336042Y-81523548D01*
X61316648Y-81558547D01*
X61286468Y-81591091D01*
X61285848Y-81591629D01*
X61252996Y-81614682D01*
X61211103Y-81635876D01*
X61163043Y-81654117D01*
X61111687Y-81668311D01*
X61059908Y-81677365D01*
X61045036Y-81678848D01*
X60990994Y-81680369D01*
X60933731Y-81676924D01*
X60879032Y-81668787D01*
X60841044Y-81659181D01*
X60799283Y-81644564D01*
X60759920Y-81626888D01*
X60725323Y-81607356D01*
X60697861Y-81587173D01*
X60679901Y-81567542D01*
X60675340Y-81560063D01*
X60675128Y-81554879D01*
X60682602Y-81551959D01*
X60699870Y-81549389D01*
X60735575Y-81541492D01*
X60764475Y-81528835D01*
X60785596Y-81512624D01*
X60798140Y-81494043D01*
X60801311Y-81474275D01*
X60794309Y-81454503D01*
X60776339Y-81435910D01*
X60769115Y-81430872D01*
X60732276Y-81413669D01*
X60692249Y-81407810D01*
X60691800Y-81407810D01*
X60677323Y-81407176D01*
X60672705Y-81404555D01*
X60675878Y-81398809D01*
X60679459Y-81393510D01*
X60679112Y-81389808D01*
X60675996Y-81390165D01*
X60662256Y-81393094D01*
X60641427Y-81398304D01*
X60616517Y-81404978D01*
X60590533Y-81412297D01*
X60566486Y-81419444D01*
X60547383Y-81425602D01*
X60530397Y-81431077D01*
X60515949Y-81434889D01*
X60509486Y-81435433D01*
X60510282Y-81432661D01*
X60518978Y-81424326D01*
X60535087Y-81412111D01*
X60556851Y-81397321D01*
X60582511Y-81381261D01*
X60615493Y-81363767D01*
X60657079Y-81345407D01*
X60703117Y-81327858D01*
X60749886Y-81312538D01*
X60793668Y-81300862D01*
X60803912Y-81298617D01*
X60860431Y-81288916D01*
X60922600Y-81281974D01*
X60986168Y-81278073D01*
X61046885Y-81277496D01*
X61100498Y-81280523D01*
G37*
%TO.C,kibuzzard-666B0D6E*%
G36*
X71357838Y-56026050D02*
G01*
X71072088Y-56026050D01*
X71072088Y-55583138D01*
X71084788Y-55583138D01*
X71357838Y-56026050D01*
G37*
G36*
X67314520Y-55880000D02*
G01*
X67878964Y-55033333D01*
X71877480Y-55033333D01*
X71877480Y-56726667D01*
X67878964Y-56726667D01*
X67433053Y-56057800D01*
X68884513Y-56057800D01*
X68895802Y-56153579D01*
X68929669Y-56235600D01*
X68986113Y-56303863D01*
X69060373Y-56355015D01*
X69147686Y-56385707D01*
X69248051Y-56395938D01*
X69342066Y-56386589D01*
X69423029Y-56358543D01*
X69490938Y-56311800D01*
X69542973Y-56249358D01*
X69576311Y-56174217D01*
X69590951Y-56086375D01*
X69433788Y-56086375D01*
X69416127Y-56160194D01*
X69375845Y-56216550D01*
X69317306Y-56252269D01*
X69244876Y-56264175D01*
X69165898Y-56250483D01*
X69103588Y-56209406D01*
X69063107Y-56144914D01*
X69049613Y-56060975D01*
X69062512Y-55977036D01*
X69101207Y-55909369D01*
X69161334Y-55864720D01*
X69238526Y-55849838D01*
X69346476Y-55876825D01*
X69422676Y-55953025D01*
X69568726Y-55919688D01*
X69536341Y-55586313D01*
X69792563Y-55586313D01*
X70092601Y-56380063D01*
X70289451Y-56380063D01*
X70376319Y-56151463D01*
X70741888Y-56151463D01*
X70916513Y-56151463D01*
X70916513Y-56380063D01*
X71072088Y-56380063D01*
X71072088Y-56151463D01*
X71546751Y-56151463D01*
X71546751Y-56070500D01*
X71086376Y-55364063D01*
X70916513Y-55364063D01*
X70916513Y-56026050D01*
X70741888Y-56026050D01*
X70741888Y-56151463D01*
X70376319Y-56151463D01*
X70591076Y-55586313D01*
X70424388Y-55586313D01*
X70195788Y-56211788D01*
X70184676Y-56211788D01*
X69957663Y-55586313D01*
X69792563Y-55586313D01*
X69536341Y-55586313D01*
X69514751Y-55364063D01*
X68932138Y-55364063D01*
X68932138Y-55500588D01*
X69373463Y-55500588D01*
X69403626Y-55792688D01*
X69316710Y-55741491D01*
X69205188Y-55724425D01*
X69115936Y-55734920D01*
X69038677Y-55766406D01*
X68973413Y-55818881D01*
X68924024Y-55887408D01*
X68894391Y-55967048D01*
X68884513Y-56057800D01*
X67433053Y-56057800D01*
X67314520Y-55880000D01*
G37*
%TO.C,kibuzzard-6673E129*%
G36*
X65139447Y-71120000D02*
G01*
X65740933Y-70217771D01*
X71918953Y-70217771D01*
X71918953Y-72022229D01*
X65740933Y-72022229D01*
X65509864Y-71675625D01*
X66071662Y-71675625D01*
X66233587Y-71675625D01*
X66233587Y-71207313D01*
X66246485Y-71118413D01*
X66285181Y-71054912D01*
X66344116Y-71016812D01*
X66417737Y-71004112D01*
X66497112Y-71017606D01*
X66560612Y-71058088D01*
X66602284Y-71125556D01*
X66616174Y-71220013D01*
X66616174Y-71675625D01*
X66778099Y-71675625D01*
X66778099Y-71458138D01*
X67049562Y-71458138D01*
X67072581Y-71558745D01*
X67141637Y-71631969D01*
X67245221Y-71676617D01*
X67371824Y-71691500D01*
X67476864Y-71683651D01*
X67563383Y-71660103D01*
X67631381Y-71620856D01*
X67699445Y-71537711D01*
X67727424Y-71429563D01*
X67570262Y-71429563D01*
X67541158Y-71506292D01*
X67475012Y-71552329D01*
X67371824Y-71567675D01*
X67247999Y-71541481D01*
X67198787Y-71461312D01*
X67239268Y-71387494D01*
X67293045Y-71360308D01*
X67373412Y-71337487D01*
X67448024Y-71321613D01*
X67557959Y-71289267D01*
X67597629Y-71267638D01*
X67965549Y-71267638D01*
X67968724Y-71320025D01*
X68552924Y-71320025D01*
X68532287Y-71417458D01*
X68483074Y-71493856D01*
X68410049Y-71543267D01*
X68317974Y-71559738D01*
X68226428Y-71546156D01*
X68161341Y-71505410D01*
X68122712Y-71437500D01*
X67967137Y-71437500D01*
X68009602Y-71543664D01*
X68086199Y-71624031D01*
X68190974Y-71674633D01*
X68317974Y-71691500D01*
X68425395Y-71679065D01*
X68519058Y-71641758D01*
X68598962Y-71579581D01*
X68659816Y-71497296D01*
X68696328Y-71399665D01*
X68708499Y-71286688D01*
X68696328Y-71168066D01*
X68659816Y-71066201D01*
X68632448Y-71027925D01*
X68889474Y-71027925D01*
X68981549Y-71023162D01*
X69096841Y-71040228D01*
X69185543Y-71091425D01*
X69242098Y-71172387D01*
X69260949Y-71278750D01*
X69260949Y-71553388D01*
X68960912Y-71553388D01*
X68960912Y-71675625D01*
X69654649Y-71675625D01*
X69881662Y-71675625D01*
X70043587Y-71675625D01*
X70043587Y-71207313D01*
X70056485Y-71118413D01*
X70095181Y-71054912D01*
X70154116Y-71016812D01*
X70227737Y-71004112D01*
X70307112Y-71017606D01*
X70370612Y-71058088D01*
X70412284Y-71125556D01*
X70426174Y-71220013D01*
X70426174Y-71675625D01*
X70588099Y-71675625D01*
X70588099Y-70715188D01*
X70788124Y-70715188D01*
X71105624Y-70715188D01*
X71105624Y-71675625D01*
X71272312Y-71675625D01*
X71272312Y-70715188D01*
X71588224Y-70715188D01*
X71588224Y-70564375D01*
X70788124Y-70564375D01*
X70788124Y-70715188D01*
X70588099Y-70715188D01*
X70588099Y-70548500D01*
X70426174Y-70548500D01*
X70426174Y-70980300D01*
X70415062Y-70980300D01*
X70353149Y-70916800D01*
X70273245Y-70878700D01*
X70175349Y-70866000D01*
X70055295Y-70886637D01*
X69961831Y-70948550D01*
X69901704Y-71047372D01*
X69881662Y-71178737D01*
X69881662Y-71675625D01*
X69654649Y-71675625D01*
X69654649Y-71553388D01*
X69422874Y-71553388D01*
X69422874Y-71004112D01*
X69646712Y-71004112D01*
X69646712Y-70881875D01*
X69278412Y-70881875D01*
X69262537Y-71013637D01*
X69251424Y-71013637D01*
X69202609Y-70948550D01*
X69141887Y-70902512D01*
X69060527Y-70875128D01*
X68949799Y-70866000D01*
X68889474Y-70866000D01*
X68889474Y-71027925D01*
X68632448Y-71027925D01*
X68598962Y-70981094D01*
X68519940Y-70917153D01*
X68428923Y-70878788D01*
X68325912Y-70866000D01*
X68228104Y-70877465D01*
X68142115Y-70911861D01*
X68067943Y-70969188D01*
X68011058Y-71048210D01*
X67976926Y-71147693D01*
X67965549Y-71267638D01*
X67597629Y-71267638D01*
X67636937Y-71246206D01*
X67684562Y-71186080D01*
X67700437Y-71102538D01*
X67678212Y-71003517D01*
X67611537Y-70928706D01*
X67511921Y-70881677D01*
X67390874Y-70866000D01*
X67258120Y-70882867D01*
X67158306Y-70933469D01*
X67094210Y-71008280D01*
X67068612Y-71097775D01*
X67225774Y-71097775D01*
X67277368Y-71019987D01*
X67390874Y-70989825D01*
X67503587Y-71016812D01*
X67548037Y-71094600D01*
X67509937Y-71161275D01*
X67457549Y-71181913D01*
X67376587Y-71202550D01*
X67309912Y-71218425D01*
X67195016Y-71255136D01*
X67113856Y-71304944D01*
X67065635Y-71371420D01*
X67049562Y-71458138D01*
X66778099Y-71458138D01*
X66778099Y-70548500D01*
X66616174Y-70548500D01*
X66616174Y-70980300D01*
X66605062Y-70980300D01*
X66543149Y-70916800D01*
X66463245Y-70878700D01*
X66365349Y-70866000D01*
X66245295Y-70886637D01*
X66151831Y-70948550D01*
X66091704Y-71047372D01*
X66071662Y-71178737D01*
X66071662Y-71675625D01*
X65509864Y-71675625D01*
X65139447Y-71120000D01*
G37*
G36*
X68408065Y-71012645D02*
G01*
X68476724Y-71057294D01*
X68526334Y-71124167D01*
X68551337Y-71205725D01*
X68121124Y-71205725D01*
X68136404Y-71122183D01*
X68179068Y-71055706D01*
X68243957Y-71012248D01*
X68325912Y-70997763D01*
X68408065Y-71012645D01*
G37*
%TO.C,kibuzzard-6673E02E*%
G36*
X59705721Y-65935423D02*
G01*
X59776960Y-65993169D01*
X59821608Y-66080680D01*
X59836491Y-66189225D01*
X59821410Y-66299159D01*
X59776166Y-66387663D01*
X59704728Y-66446003D01*
X59611066Y-66465450D01*
X59517403Y-66446003D01*
X59445966Y-66387663D01*
X59400722Y-66299159D01*
X59385641Y-66189225D01*
X59400921Y-66080680D01*
X59446760Y-65993169D01*
X59518396Y-65935423D01*
X59611066Y-65916175D01*
X59705721Y-65935423D01*
G37*
G36*
X52575442Y-66040000D02*
G01*
X52642117Y-65939988D01*
X53502366Y-65939988D01*
X53594441Y-65935225D01*
X53709733Y-65952291D01*
X53798435Y-66003488D01*
X53854989Y-66084450D01*
X53873841Y-66190813D01*
X53873841Y-66465450D01*
X53573803Y-66465450D01*
X53573803Y-66587688D01*
X54267541Y-66587688D01*
X54267541Y-66465450D01*
X54035766Y-66465450D01*
X54035766Y-66179700D01*
X54483441Y-66179700D01*
X54486616Y-66232088D01*
X55070816Y-66232088D01*
X55050178Y-66329520D01*
X55000966Y-66405919D01*
X54927941Y-66455330D01*
X54835866Y-66471800D01*
X54744320Y-66458218D01*
X54679233Y-66417472D01*
X54640603Y-66349562D01*
X54485028Y-66349562D01*
X54527494Y-66455727D01*
X54604091Y-66536094D01*
X54708866Y-66586695D01*
X54835866Y-66603563D01*
X54943287Y-66591127D01*
X55036949Y-66553821D01*
X55116853Y-66491644D01*
X55177708Y-66409358D01*
X55214220Y-66311727D01*
X55226391Y-66198750D01*
X55214220Y-66080128D01*
X55177708Y-65978264D01*
X55116853Y-65893156D01*
X55037831Y-65829215D01*
X54954139Y-65793938D01*
X55361328Y-65793938D01*
X55502616Y-66587688D01*
X55678828Y-66587688D01*
X55794716Y-66052700D01*
X55805828Y-66052700D01*
X55926478Y-66587688D01*
X56101103Y-66587688D01*
X56171232Y-66189225D01*
X56366216Y-66189225D01*
X56378210Y-66302731D01*
X56414194Y-66401950D01*
X56474166Y-66486881D01*
X56553188Y-66551704D01*
X56646322Y-66590598D01*
X56753566Y-66603563D01*
X56860810Y-66590598D01*
X56867778Y-66587688D01*
X57361578Y-66587688D01*
X58072778Y-66587688D01*
X58314078Y-66587688D01*
X59025278Y-66587688D01*
X59025278Y-66462275D01*
X58750641Y-66462275D01*
X58750641Y-66189225D01*
X59223716Y-66189225D01*
X59235710Y-66302731D01*
X59271694Y-66401950D01*
X59331666Y-66486881D01*
X59410688Y-66551704D01*
X59503822Y-66590598D01*
X59611066Y-66603563D01*
X59718310Y-66590598D01*
X59811444Y-66551704D01*
X59890466Y-66486881D01*
X59950438Y-66401950D01*
X59986422Y-66302731D01*
X59998416Y-66189225D01*
X59986510Y-66075895D01*
X59950791Y-65977206D01*
X59891260Y-65893156D01*
X59812502Y-65829215D01*
X59719104Y-65790851D01*
X59611066Y-65778063D01*
X59504615Y-65790939D01*
X59411747Y-65829568D01*
X59332460Y-65893950D01*
X59272047Y-65978264D01*
X59235799Y-66076689D01*
X59223716Y-66189225D01*
X58750641Y-66189225D01*
X58750641Y-65627250D01*
X60223841Y-65627250D01*
X60717553Y-65627250D01*
X60717553Y-65971738D01*
X60292103Y-65971738D01*
X60292103Y-66119375D01*
X60717553Y-66119375D01*
X60717553Y-66587688D01*
X60885828Y-66587688D01*
X60885828Y-65476437D01*
X60223841Y-65476437D01*
X60223841Y-65627250D01*
X58750641Y-65627250D01*
X58750641Y-65601850D01*
X59009403Y-65601850D01*
X59009403Y-65476437D01*
X58588716Y-65476437D01*
X58588716Y-66462275D01*
X58314078Y-66462275D01*
X58314078Y-66587688D01*
X58072778Y-66587688D01*
X58072778Y-66462275D01*
X57798141Y-66462275D01*
X57798141Y-65601850D01*
X58056903Y-65601850D01*
X58056903Y-65476437D01*
X57636216Y-65476437D01*
X57636216Y-66462275D01*
X57361578Y-66462275D01*
X57361578Y-66587688D01*
X56867778Y-66587688D01*
X56953944Y-66551704D01*
X57032966Y-66486881D01*
X57092938Y-66401950D01*
X57128922Y-66302731D01*
X57140916Y-66189225D01*
X57129010Y-66075895D01*
X57093291Y-65977206D01*
X57033760Y-65893156D01*
X56955002Y-65829215D01*
X56861604Y-65790851D01*
X56753566Y-65778063D01*
X56647115Y-65790939D01*
X56554247Y-65829568D01*
X56474960Y-65893950D01*
X56414547Y-65978264D01*
X56378299Y-66076689D01*
X56366216Y-66189225D01*
X56171232Y-66189225D01*
X56240803Y-65793938D01*
X56096341Y-65793938D01*
X56007441Y-66373375D01*
X55996328Y-66373375D01*
X55886791Y-65849500D01*
X55713753Y-65849500D01*
X55605803Y-66373375D01*
X55594691Y-66373375D01*
X55505791Y-65793938D01*
X55361328Y-65793938D01*
X54954139Y-65793938D01*
X54946815Y-65790851D01*
X54843803Y-65778063D01*
X54745996Y-65789528D01*
X54660006Y-65823924D01*
X54585835Y-65881250D01*
X54528949Y-65960272D01*
X54494818Y-66059756D01*
X54483441Y-66179700D01*
X54035766Y-66179700D01*
X54035766Y-65916175D01*
X54259603Y-65916175D01*
X54259603Y-65793938D01*
X53891303Y-65793938D01*
X53875428Y-65925700D01*
X53864316Y-65925700D01*
X53815500Y-65860613D01*
X53754778Y-65814575D01*
X53673419Y-65787191D01*
X53562691Y-65778063D01*
X53502366Y-65778063D01*
X53502366Y-65939988D01*
X52642117Y-65939988D01*
X53171637Y-65145708D01*
X61216558Y-65145708D01*
X61216558Y-66934292D01*
X53171637Y-66934292D01*
X52575442Y-66040000D01*
G37*
G36*
X54925957Y-65924708D02*
G01*
X54994616Y-65969356D01*
X55044225Y-66036230D01*
X55069228Y-66117788D01*
X54639016Y-66117788D01*
X54654296Y-66034245D01*
X54696960Y-65967769D01*
X54761849Y-65924311D01*
X54843803Y-65909825D01*
X54925957Y-65924708D01*
G37*
G36*
X56848221Y-65935423D02*
G01*
X56919460Y-65993169D01*
X56964108Y-66080680D01*
X56978991Y-66189225D01*
X56963910Y-66299159D01*
X56918666Y-66387663D01*
X56847228Y-66446003D01*
X56753566Y-66465450D01*
X56659903Y-66446003D01*
X56588466Y-66387663D01*
X56543222Y-66299159D01*
X56528141Y-66189225D01*
X56543421Y-66080680D01*
X56589260Y-65993169D01*
X56660896Y-65935423D01*
X56753566Y-65916175D01*
X56848221Y-65935423D01*
G37*
%TD*%
%LPC*%
D12*
%TO.C,H2*%
X53340000Y-43180000D03*
%TD*%
D13*
%TO.C,D3*%
X63500000Y-43180000D03*
D14*
X60960000Y-43180000D03*
%TD*%
D15*
%TO.C,H3*%
X71120000Y-83820000D03*
%TD*%
%TO.C,H1*%
X53340000Y-83820000D03*
%TD*%
D12*
%TO.C,H4*%
X71120000Y-43180000D03*
%TD*%
D16*
%TO.C,J1*%
X50800000Y-50800000D03*
D17*
X50800000Y-53340000D03*
X50800000Y-55880000D03*
X50800000Y-58420000D03*
X50800000Y-60960000D03*
X50800000Y-63500000D03*
X50800000Y-66040000D03*
X50800000Y-68580000D03*
X50800000Y-71120000D03*
X50800000Y-73660000D03*
X50800000Y-76200000D03*
%TD*%
D16*
%TO.C,J2*%
X73660000Y-50800000D03*
D17*
X73660000Y-53340000D03*
X73660000Y-55880000D03*
X73660000Y-58420000D03*
X73660000Y-60960000D03*
X73660000Y-63500000D03*
X73660000Y-66040000D03*
X73660000Y-68580000D03*
X73660000Y-71120000D03*
X73660000Y-73660000D03*
X73660000Y-76200000D03*
%TD*%
M02*
