%TF.GenerationSoftware,KiCad,Pcbnew,(6.0.9-0)*%
%TF.CreationDate,2024-06-20T10:44:05+02:00*%
%TF.ProjectId,follower-board,666f6c6c-6f77-4657-922d-626f6172642e,rev?*%
%TF.SameCoordinates,Original*%
%TF.FileFunction,Copper,L1,Top*%
%TF.FilePolarity,Positive*%
%FSLAX46Y46*%
G04 Gerber Fmt 4.6, Leading zero omitted, Abs format (unit mm)*
G04 Created by KiCad (PCBNEW (6.0.9-0)) date 2024-06-20 10:44:05*
%MOMM*%
%LPD*%
G01*
G04 APERTURE LIST*
G04 Aperture macros list*
%AMRoundRect*
0 Rectangle with rounded corners*
0 $1 Rounding radius*
0 $2 $3 $4 $5 $6 $7 $8 $9 X,Y pos of 4 corners*
0 Add a 4 corners polygon primitive as box body*
4,1,4,$2,$3,$4,$5,$6,$7,$8,$9,$2,$3,0*
0 Add four circle primitives for the rounded corners*
1,1,$1+$1,$2,$3*
1,1,$1+$1,$4,$5*
1,1,$1+$1,$6,$7*
1,1,$1+$1,$8,$9*
0 Add four rect primitives between the rounded corners*
20,1,$1+$1,$2,$3,$4,$5,0*
20,1,$1+$1,$4,$5,$6,$7,0*
20,1,$1+$1,$6,$7,$8,$9,0*
20,1,$1+$1,$8,$9,$2,$3,0*%
G04 Aperture macros list end*
%TA.AperFunction,SMDPad,CuDef*%
%ADD10RoundRect,0.237500X-0.237500X0.250000X-0.237500X-0.250000X0.237500X-0.250000X0.237500X0.250000X0*%
%TD*%
%TA.AperFunction,SMDPad,CuDef*%
%ADD11R,0.900000X1.200000*%
%TD*%
%TA.AperFunction,SMDPad,CuDef*%
%ADD12RoundRect,0.237500X-0.237500X0.300000X-0.237500X-0.300000X0.237500X-0.300000X0.237500X0.300000X0*%
%TD*%
%TA.AperFunction,SMDPad,CuDef*%
%ADD13RoundRect,0.237500X0.237500X-0.250000X0.237500X0.250000X-0.237500X0.250000X-0.237500X-0.250000X0*%
%TD*%
%TA.AperFunction,SMDPad,CuDef*%
%ADD14RoundRect,0.237500X0.237500X-0.300000X0.237500X0.300000X-0.237500X0.300000X-0.237500X-0.300000X0*%
%TD*%
%TA.AperFunction,SMDPad,CuDef*%
%ADD15RoundRect,0.150000X-0.825000X-0.150000X0.825000X-0.150000X0.825000X0.150000X-0.825000X0.150000X0*%
%TD*%
%TA.AperFunction,ComponentPad*%
%ADD16R,1.800000X1.800000*%
%TD*%
%TA.AperFunction,ComponentPad*%
%ADD17C,1.800000*%
%TD*%
%TA.AperFunction,ComponentPad*%
%ADD18C,5.500000*%
%TD*%
%TA.AperFunction,SMDPad,CuDef*%
%ADD19RoundRect,0.250000X1.250000X0.550000X-1.250000X0.550000X-1.250000X-0.550000X1.250000X-0.550000X0*%
%TD*%
%TA.AperFunction,SMDPad,CuDef*%
%ADD20R,1.200000X0.900000*%
%TD*%
%TA.AperFunction,ComponentPad*%
%ADD21R,1.700000X1.700000*%
%TD*%
%TA.AperFunction,ComponentPad*%
%ADD22O,1.700000X1.700000*%
%TD*%
%TA.AperFunction,ViaPad*%
%ADD23C,0.600000*%
%TD*%
%TA.AperFunction,Conductor*%
%ADD24C,0.300000*%
%TD*%
%TA.AperFunction,Conductor*%
%ADD25C,0.500000*%
%TD*%
G04 APERTURE END LIST*
D10*
%TO.P,R9,1*%
%TO.N,Net-(C5-Pad2)*%
X65532000Y-64111500D03*
%TO.P,R9,2*%
%TO.N,Net-(C6-Pad2)*%
X65532000Y-65936500D03*
%TD*%
D11*
%TO.P,D2,1,K*%
%TO.N,Net-(C3-Pad2)*%
X64136000Y-47244000D03*
%TO.P,D2,2,A*%
%TO.N,Net-(C2-Pad2)*%
X67436000Y-47244000D03*
%TD*%
D10*
%TO.P,R12,1*%
%TO.N,/+4.5V*%
X67818000Y-54613000D03*
%TO.P,R12,2*%
%TO.N,Net-(C9-Pad2)*%
X67818000Y-56438000D03*
%TD*%
D12*
%TO.P,C10,1*%
%TO.N,/+9V*%
X56642000Y-54663000D03*
%TO.P,C10,2*%
%TO.N,/GND*%
X56642000Y-56388000D03*
%TD*%
D10*
%TO.P,R18,1*%
%TO.N,/RectifiedOut*%
X54102000Y-74525500D03*
%TO.P,R18,2*%
%TO.N,/+4.5V*%
X54102000Y-76350500D03*
%TD*%
D13*
%TO.P,R22,1*%
%TO.N,/Peak Detector/ThreshLim*%
X70612000Y-75842500D03*
%TO.P,R22,2*%
%TO.N,Net-(C12-Pad1)*%
X70612000Y-74017500D03*
%TD*%
D14*
%TO.P,C9,1*%
%TO.N,Net-(C9-Pad1)*%
X70612000Y-60145000D03*
%TO.P,C9,2*%
%TO.N,Net-(C9-Pad2)*%
X70612000Y-58420000D03*
%TD*%
%TO.P,C13,1*%
%TO.N,/+9V*%
X56896000Y-76300500D03*
%TO.P,C13,2*%
%TO.N,/GND*%
X56896000Y-74575500D03*
%TD*%
D13*
%TO.P,R1,1*%
%TO.N,Net-(C1-Pad1)*%
X53848000Y-56438000D03*
%TO.P,R1,2*%
%TO.N,Net-(C2-Pad1)*%
X53848000Y-54613000D03*
%TD*%
D10*
%TO.P,R16,1*%
%TO.N,Net-(C9-Pad1)*%
X70612000Y-50803000D03*
%TO.P,R16,2*%
%TO.N,Net-(R16-Pad2)*%
X70612000Y-52628000D03*
%TD*%
D14*
%TO.P,C7,1*%
%TO.N,/+4.5V*%
X67818000Y-67918500D03*
%TO.P,C7,2*%
%TO.N,Net-(C7-Pad2)*%
X67818000Y-66193500D03*
%TD*%
D12*
%TO.P,C6,1*%
%TO.N,/+4.5V*%
X62992000Y-67971500D03*
%TO.P,C6,2*%
%TO.N,Net-(C6-Pad2)*%
X62992000Y-69696500D03*
%TD*%
D10*
%TO.P,R6,1*%
%TO.N,Net-(C3-Pad2)*%
X62992000Y-60301500D03*
%TO.P,R6,2*%
%TO.N,Net-(R6-Pad2)*%
X62992000Y-62126500D03*
%TD*%
D11*
%TO.P,D1,1,K*%
%TO.N,Net-(C2-Pad2)*%
X57022000Y-48006000D03*
%TO.P,D1,2,A*%
%TO.N,Net-(D1-Pad2)*%
X53722000Y-48006000D03*
%TD*%
D10*
%TO.P,R20,1*%
%TO.N,Net-(D6-Pad1)*%
X60706000Y-82145500D03*
%TO.P,R20,2*%
%TO.N,/+4.5V*%
X60706000Y-83970500D03*
%TD*%
D14*
%TO.P,C5,1*%
%TO.N,/+4.5V*%
X62992000Y-65886500D03*
%TO.P,C5,2*%
%TO.N,Net-(C5-Pad2)*%
X62992000Y-64161500D03*
%TD*%
D15*
%TO.P,U1,1*%
%TO.N,Net-(C2-Pad2)*%
X59755000Y-50800000D03*
%TO.P,U1,2,-*%
%TO.N,Net-(C2-Pad1)*%
X59755000Y-52070000D03*
%TO.P,U1,3,+*%
%TO.N,/+4.5V*%
X59755000Y-53340000D03*
%TO.P,U1,4,V+*%
%TO.N,/+9V*%
X59755000Y-54610000D03*
%TO.P,U1,5,+*%
%TO.N,Net-(R6-Pad2)*%
X59755000Y-55880000D03*
%TO.P,U1,6,-*%
%TO.N,Net-(C4-Pad1)*%
X59755000Y-57150000D03*
%TO.P,U1,7*%
%TO.N,/RectifiedOut*%
X59755000Y-58420000D03*
%TO.P,U1,8*%
%TO.N,Net-(C9-Pad1)*%
X64705000Y-58420000D03*
%TO.P,U1,9,-*%
%TO.N,Net-(C9-Pad2)*%
X64705000Y-57150000D03*
%TO.P,U1,10,+*%
%TO.N,Net-(C8-Pad2)*%
X64705000Y-55880000D03*
%TO.P,U1,11,V-*%
%TO.N,/GND*%
X64705000Y-54610000D03*
%TO.P,U1,12,+*%
%TO.N,Net-(R16-Pad2)*%
X64705000Y-53340000D03*
%TO.P,U1,13,-*%
%TO.N,Net-(D3-Pad1)*%
X64705000Y-52070000D03*
%TO.P,U1,14*%
%TO.N,Net-(D3-Pad2)*%
X64705000Y-50800000D03*
%TD*%
D10*
%TO.P,R15,1*%
%TO.N,/+4.5V*%
X66548000Y-42013500D03*
%TO.P,R15,2*%
%TO.N,Net-(D3-Pad1)*%
X66548000Y-43838500D03*
%TD*%
D11*
%TO.P,D6,1,K*%
%TO.N,Net-(D6-Pad1)*%
X53722000Y-79248000D03*
%TO.P,D6,2,A*%
%TO.N,Net-(D6-Pad2)*%
X57022000Y-79248000D03*
%TD*%
D10*
%TO.P,R14,1*%
%TO.N,Net-(C9-Pad1)*%
X70612000Y-66143500D03*
%TO.P,R14,2*%
%TO.N,/FollowerOut*%
X70612000Y-67968500D03*
%TD*%
D12*
%TO.P,C4,1*%
%TO.N,Net-(C4-Pad1)*%
X53848000Y-58423000D03*
%TO.P,C4,2*%
%TO.N,/RectifiedOut*%
X53848000Y-60148000D03*
%TD*%
D13*
%TO.P,R25,1*%
%TO.N,Net-(C12-Pad1)*%
X67818000Y-72032500D03*
%TO.P,R25,2*%
%TO.N,/PeakOut*%
X67818000Y-70207500D03*
%TD*%
D16*
%TO.P,D3,1,K*%
%TO.N,Net-(D3-Pad1)*%
X63500000Y-43180000D03*
D17*
%TO.P,D3,2,A*%
%TO.N,Net-(D3-Pad2)*%
X60960000Y-43180000D03*
%TD*%
D13*
%TO.P,R11,1*%
%TO.N,Net-(C7-Pad2)*%
X67818000Y-64158500D03*
%TO.P,R11,2*%
%TO.N,Net-(C8-Pad2)*%
X67818000Y-62333500D03*
%TD*%
D10*
%TO.P,R4,1*%
%TO.N,/+4.5V*%
X57912000Y-42013500D03*
%TO.P,R4,2*%
%TO.N,Net-(C3-Pad2)*%
X57912000Y-43838500D03*
%TD*%
D15*
%TO.P,U2,1*%
%TO.N,Net-(D5-Pad2)*%
X59755000Y-72390000D03*
%TO.P,U2,2,-*%
%TO.N,Net-(C11-Pad1)*%
X59755000Y-73660000D03*
%TO.P,U2,3,+*%
%TO.N,/RectifiedOut*%
X59755000Y-74930000D03*
%TO.P,U2,4,V+*%
%TO.N,/+9V*%
X59755000Y-76200000D03*
%TO.P,U2,5,+*%
%TO.N,/ThreshIn*%
X59755000Y-77470000D03*
%TO.P,U2,6,-*%
%TO.N,Net-(D6-Pad1)*%
X59755000Y-78740000D03*
%TO.P,U2,7*%
%TO.N,Net-(D6-Pad2)*%
X59755000Y-80010000D03*
%TO.P,U2,8*%
%TO.N,Net-(R26-Pad1)*%
X64705000Y-80010000D03*
%TO.P,U2,9,-*%
X64705000Y-78740000D03*
%TO.P,U2,10,+*%
%TO.N,Net-(D6-Pad1)*%
X64705000Y-77470000D03*
%TO.P,U2,11,V-*%
%TO.N,/GND*%
X64705000Y-76200000D03*
%TO.P,U2,12,+*%
%TO.N,Net-(R23-Pad2)*%
X64705000Y-74930000D03*
%TO.P,U2,13,-*%
%TO.N,Net-(C12-Pad1)*%
X64705000Y-73660000D03*
%TO.P,U2,14*%
%TO.N,/PeakOut*%
X64705000Y-72390000D03*
%TD*%
D10*
%TO.P,R19,1*%
%TO.N,/ThreshIn*%
X58166000Y-82145500D03*
%TO.P,R19,2*%
%TO.N,/+4.5V*%
X58166000Y-83970500D03*
%TD*%
%TO.P,R13,1*%
%TO.N,Net-(C9-Pad2)*%
X67818000Y-58373000D03*
%TO.P,R13,2*%
%TO.N,Net-(C9-Pad1)*%
X67818000Y-60198000D03*
%TD*%
D18*
%TO.P,H3,1,1*%
%TO.N,/GND*%
X71120000Y-83820000D03*
%TD*%
D10*
%TO.P,R26,1*%
%TO.N,Net-(R26-Pad1)*%
X63500000Y-82145500D03*
%TO.P,R26,2*%
%TO.N,/Peak Detector/ThreshLim*%
X63500000Y-83970500D03*
%TD*%
D11*
%TO.P,D5,1,K*%
%TO.N,Net-(C11-Pad1)*%
X53722000Y-71628000D03*
%TO.P,D5,2,A*%
%TO.N,Net-(D5-Pad2)*%
X57022000Y-71628000D03*
%TD*%
D18*
%TO.P,H1,1,1*%
%TO.N,/GND*%
X53340000Y-83820000D03*
%TD*%
D10*
%TO.P,R8,1*%
%TO.N,/RectifiedOut*%
X65532000Y-60301500D03*
%TO.P,R8,2*%
%TO.N,Net-(C5-Pad2)*%
X65532000Y-62126500D03*
%TD*%
D13*
%TO.P,R24,1*%
%TO.N,/+4.5V*%
X67818000Y-75842500D03*
%TO.P,R24,2*%
%TO.N,Net-(R23-Pad2)*%
X67818000Y-74017500D03*
%TD*%
%TO.P,R10,1*%
%TO.N,Net-(C6-Pad2)*%
X65532000Y-69746500D03*
%TO.P,R10,2*%
%TO.N,Net-(C7-Pad2)*%
X65532000Y-67921500D03*
%TD*%
D19*
%TO.P,C1,1*%
%TO.N,Net-(C1-Pad1)*%
X59096000Y-65786000D03*
%TO.P,C1,2*%
%TO.N,/In*%
X54696000Y-65786000D03*
%TD*%
D13*
%TO.P,R5,1*%
%TO.N,Net-(D1-Pad2)*%
X60706000Y-62126500D03*
%TO.P,R5,2*%
%TO.N,Net-(C4-Pad1)*%
X60706000Y-60301500D03*
%TD*%
%TO.P,R23,1*%
%TO.N,Net-(C11-Pad1)*%
X66294000Y-83970500D03*
%TO.P,R23,2*%
%TO.N,Net-(R23-Pad2)*%
X66294000Y-82145500D03*
%TD*%
%TO.P,R2,1*%
%TO.N,Net-(C2-Pad1)*%
X53848000Y-52628000D03*
%TO.P,R2,2*%
%TO.N,Net-(D1-Pad2)*%
X53848000Y-50803000D03*
%TD*%
%TO.P,R17,1*%
%TO.N,/+4.5V*%
X70612000Y-56438000D03*
%TO.P,R17,2*%
%TO.N,Net-(R16-Pad2)*%
X70612000Y-54613000D03*
%TD*%
D10*
%TO.P,R21,1*%
%TO.N,Net-(C11-Pad1)*%
X70612000Y-77827500D03*
%TO.P,R21,2*%
%TO.N,/Peak Detector/ThreshLim*%
X70612000Y-79652500D03*
%TD*%
D12*
%TO.P,C3,1*%
%TO.N,/+4.5V*%
X61976000Y-46889500D03*
%TO.P,C3,2*%
%TO.N,Net-(C3-Pad2)*%
X61976000Y-48614500D03*
%TD*%
D14*
%TO.P,C12,1*%
%TO.N,Net-(C12-Pad1)*%
X70612000Y-71982500D03*
%TO.P,C12,2*%
%TO.N,/PeakOut*%
X70612000Y-70257500D03*
%TD*%
%TO.P,C8,1*%
%TO.N,/+4.5V*%
X70612000Y-64108500D03*
%TO.P,C8,2*%
%TO.N,Net-(C8-Pad2)*%
X70612000Y-62383500D03*
%TD*%
D13*
%TO.P,R3,1*%
%TO.N,Net-(C2-Pad1)*%
X59182000Y-48664500D03*
%TO.P,R3,2*%
%TO.N,Net-(C3-Pad2)*%
X59182000Y-46839500D03*
%TD*%
D20*
%TO.P,D4,1,K*%
%TO.N,Net-(D3-Pad2)*%
X68072000Y-49404000D03*
%TO.P,D4,2,A*%
%TO.N,Net-(D3-Pad1)*%
X68072000Y-52704000D03*
%TD*%
D12*
%TO.P,C11,1*%
%TO.N,Net-(C11-Pad1)*%
X67818000Y-77877500D03*
%TO.P,C11,2*%
%TO.N,/Peak Detector/ThreshLim*%
X67818000Y-79602500D03*
%TD*%
D10*
%TO.P,R7,1*%
%TO.N,Net-(C4-Pad1)*%
X56642000Y-58373000D03*
%TO.P,R7,2*%
%TO.N,/RectifiedOut*%
X56642000Y-60198000D03*
%TD*%
D14*
%TO.P,C2,1*%
%TO.N,Net-(C2-Pad1)*%
X56642000Y-52578000D03*
%TO.P,C2,2*%
%TO.N,Net-(C2-Pad2)*%
X56642000Y-50853000D03*
%TD*%
D21*
%TO.P,J1,1,Pin_1*%
%TO.N,/+9V*%
X50800000Y-50800000D03*
D22*
%TO.P,J1,2,Pin_2*%
%TO.N,/GND*%
X50800000Y-53340000D03*
%TO.P,J1,3,Pin_3*%
%TO.N,/+4.5V*%
X50800000Y-55880000D03*
%TO.P,J1,4,Pin_4*%
%TO.N,/In*%
X50800000Y-58420000D03*
%TO.P,J1,5,Pin_5*%
%TO.N,/GND*%
X50800000Y-60960000D03*
%TO.P,J1,6,Pin_6*%
%TO.N,/RectifiedOut*%
X50800000Y-63500000D03*
%TO.P,J1,7,Pin_7*%
%TO.N,/FollowerOut*%
X50800000Y-66040000D03*
%TO.P,J1,8,Pin_8*%
%TO.N,/GND*%
X50800000Y-68580000D03*
%TO.P,J1,9,Pin_9*%
%TO.N,/ThreshIn*%
X50800000Y-71120000D03*
%TO.P,J1,10,Pin_10*%
%TO.N,/PeakOut*%
X50800000Y-73660000D03*
%TO.P,J1,11,Pin_11*%
%TO.N,/GND*%
X50800000Y-76200000D03*
%TD*%
D21*
%TO.P,J2,1,Pin_1*%
%TO.N,/+9V*%
X73660000Y-50800000D03*
D22*
%TO.P,J2,2,Pin_2*%
%TO.N,/GND*%
X73660000Y-53340000D03*
%TO.P,J2,3,Pin_3*%
%TO.N,/+4.5V*%
X73660000Y-55880000D03*
%TO.P,J2,4,Pin_4*%
%TO.N,/In*%
X73660000Y-58420000D03*
%TO.P,J2,5,Pin_5*%
%TO.N,/GND*%
X73660000Y-60960000D03*
%TO.P,J2,6,Pin_6*%
%TO.N,/RectifiedOut*%
X73660000Y-63500000D03*
%TO.P,J2,7,Pin_7*%
%TO.N,/FollowerOut*%
X73660000Y-66040000D03*
%TO.P,J2,8,Pin_8*%
%TO.N,/GND*%
X73660000Y-68580000D03*
%TO.P,J2,9,Pin_9*%
%TO.N,/ThreshIn*%
X73660000Y-71120000D03*
%TO.P,J2,10,Pin_10*%
%TO.N,/PeakOut*%
X73660000Y-73660000D03*
%TO.P,J2,11,Pin_11*%
%TO.N,/GND*%
X73660000Y-76200000D03*
%TD*%
D23*
%TO.N,Net-(C2-Pad2)*%
X63119000Y-50800000D03*
X60564500Y-50800000D03*
%TO.N,/+4.5V*%
X62992000Y-66929000D03*
X69215000Y-55626000D03*
X61087000Y-46863000D03*
X68643500Y-75120500D03*
X57912000Y-41021000D03*
X54927500Y-75501500D03*
X69723000Y-64897000D03*
X66421000Y-41021000D03*
X58547000Y-53340000D03*
X68834000Y-67945000D03*
X59412500Y-83970500D03*
%TO.N,/RectifiedOut*%
X59817000Y-63500000D03*
%TO.N,/+9V*%
X55372000Y-53467000D03*
X56007000Y-75819000D03*
X50800000Y-77724000D03*
%TO.N,/GND*%
X69342000Y-74422000D03*
X60325000Y-46355000D03*
X66040000Y-54610000D03*
X63246000Y-76200000D03*
X55372000Y-54266503D03*
X60706000Y-64149500D03*
X59436000Y-82931000D03*
X65405000Y-41021000D03*
X63119000Y-51689000D03*
X62278734Y-54434266D03*
X57404000Y-53594000D03*
X69469000Y-67183000D03*
X70612000Y-73025000D03*
X55880000Y-74803000D03*
X69088000Y-56642000D03*
X61849000Y-66929000D03*
X58928000Y-41021000D03*
X60071000Y-50000500D03*
X68961000Y-64389000D03*
%TO.N,/PeakOut*%
X71486500Y-73279000D03*
%TO.N,Net-(R6-Pad2)*%
X58401219Y-55771781D03*
X62357500Y-55399270D03*
%TD*%
D24*
%TO.N,Net-(C1-Pad1)*%
X59096000Y-65786000D02*
X58039000Y-65786000D01*
X58039000Y-65786000D02*
X52959000Y-60706000D01*
X52959000Y-56769000D02*
X53290000Y-56438000D01*
X53290000Y-56438000D02*
X53848000Y-56438000D01*
X52959000Y-60706000D02*
X52959000Y-56769000D01*
%TO.N,/In*%
X52197000Y-59817000D02*
X50800000Y-58420000D01*
X54696000Y-64856000D02*
X52197000Y-62357000D01*
X54696000Y-65786000D02*
X54696000Y-64856000D01*
X52197000Y-62357000D02*
X52197000Y-59817000D01*
%TO.N,Net-(C2-Pad1)*%
X56642000Y-52578000D02*
X57150000Y-52070000D01*
X56592000Y-52628000D02*
X56642000Y-52578000D01*
X53848000Y-54613000D02*
X53848000Y-52628000D01*
X53848000Y-52628000D02*
X56592000Y-52628000D01*
X57150000Y-52070000D02*
X59755000Y-52070000D01*
X61214000Y-50165000D02*
X61214000Y-51943000D01*
X59713500Y-48664500D02*
X61214000Y-50165000D01*
X61214000Y-51943000D02*
X61087000Y-52070000D01*
X61087000Y-52070000D02*
X59755000Y-52070000D01*
X59182000Y-48664500D02*
X59713500Y-48664500D01*
%TO.N,Net-(C2-Pad2)*%
X59755000Y-50800000D02*
X60564500Y-50800000D01*
X59702000Y-50853000D02*
X59755000Y-50800000D01*
X56642000Y-50853000D02*
X57022000Y-50473000D01*
X56642000Y-50853000D02*
X59702000Y-50853000D01*
X63119000Y-50800000D02*
X63119000Y-50052500D01*
X57022000Y-50473000D02*
X57022000Y-48006000D01*
X63119000Y-50052500D02*
X65927500Y-47244000D01*
X65927500Y-47244000D02*
X67436000Y-47244000D01*
%TO.N,/+4.5V*%
X67921500Y-75842500D02*
X67818000Y-75842500D01*
X70612000Y-64108500D02*
X70511500Y-64108500D01*
X59755000Y-53340000D02*
X58547000Y-53340000D01*
X67818000Y-67918500D02*
X68807500Y-67918500D01*
X68831000Y-55626000D02*
X67818000Y-54613000D01*
X59412500Y-83970500D02*
X60706000Y-83970500D01*
X54927500Y-75501500D02*
X54102000Y-76327000D01*
X57912000Y-42013500D02*
X57912000Y-41021000D01*
X68643500Y-75120500D02*
X67921500Y-75842500D01*
X58166000Y-83970500D02*
X59412500Y-83970500D01*
X69215000Y-55626000D02*
X70027000Y-56438000D01*
X66548000Y-41148000D02*
X66421000Y-41021000D01*
X62992000Y-67971500D02*
X62992000Y-66929000D01*
X70511500Y-64108500D02*
X69723000Y-64897000D01*
X54102000Y-76327000D02*
X54102000Y-76350500D01*
X66548000Y-42013500D02*
X66548000Y-41148000D01*
X68807500Y-67918500D02*
X68834000Y-67945000D01*
X62992000Y-66929000D02*
X62992000Y-65886500D01*
X69215000Y-55626000D02*
X68831000Y-55626000D01*
X70027000Y-56438000D02*
X70612000Y-56438000D01*
X61113500Y-46889500D02*
X61087000Y-46863000D01*
X61976000Y-46889500D02*
X61113500Y-46889500D01*
%TO.N,Net-(C3-Pad2)*%
X62469000Y-53579000D02*
X62469000Y-49107500D01*
X59182000Y-46839500D02*
X59182000Y-45108500D01*
X64136000Y-46610000D02*
X63119000Y-45593000D01*
X62469000Y-49107500D02*
X61976000Y-48614500D01*
X59182000Y-45108500D02*
X57912000Y-43838500D01*
X63246000Y-54356000D02*
X62469000Y-53579000D01*
X63246000Y-56007000D02*
X63246000Y-54356000D01*
X62992000Y-60301500D02*
X62865000Y-60174500D01*
X63346500Y-47244000D02*
X61976000Y-48614500D01*
X59182000Y-46482000D02*
X59182000Y-46839500D01*
X62865000Y-60174500D02*
X62865000Y-56388000D01*
X60071000Y-45593000D02*
X59182000Y-46482000D01*
X63119000Y-45593000D02*
X60071000Y-45593000D01*
X64136000Y-47244000D02*
X63346500Y-47244000D01*
X62865000Y-56388000D02*
X63246000Y-56007000D01*
X64136000Y-47244000D02*
X64136000Y-46610000D01*
%TO.N,Net-(C4-Pad1)*%
X53898000Y-58373000D02*
X53848000Y-58423000D01*
X61080000Y-59927500D02*
X61080000Y-57524000D01*
X60706000Y-60301500D02*
X61080000Y-59927500D01*
X59755000Y-57150000D02*
X57865000Y-57150000D01*
X57865000Y-57150000D02*
X56642000Y-58373000D01*
X56642000Y-58373000D02*
X53898000Y-58373000D01*
X61080000Y-57524000D02*
X60706000Y-57150000D01*
X60706000Y-57150000D02*
X59755000Y-57150000D01*
%TO.N,/RectifiedOut*%
X54102000Y-74525500D02*
X54252500Y-74525500D01*
X56896000Y-60198000D02*
X56642000Y-60198000D01*
X64262000Y-63119000D02*
X59817000Y-63119000D01*
X54252500Y-74525500D02*
X55245000Y-73533000D01*
X59817000Y-63119000D02*
X56896000Y-60198000D01*
X55245000Y-73533000D02*
X57785000Y-73533000D01*
X56592000Y-60148000D02*
X56642000Y-60198000D01*
X52451000Y-65151000D02*
X52451000Y-72063894D01*
X65532000Y-60301500D02*
X64262000Y-61571500D01*
X52451000Y-72063894D02*
X54102000Y-73714894D01*
X54102000Y-73714894D02*
X54102000Y-74525500D01*
X59182000Y-74930000D02*
X59755000Y-74930000D01*
X59817000Y-63119000D02*
X59817000Y-63500000D01*
X50800000Y-63500000D02*
X52451000Y-65151000D01*
X58420000Y-58420000D02*
X56642000Y-60198000D01*
X64262000Y-61571500D02*
X64262000Y-63119000D01*
X53848000Y-60148000D02*
X56592000Y-60148000D01*
X59755000Y-58420000D02*
X58420000Y-58420000D01*
X57785000Y-73533000D02*
X59182000Y-74930000D01*
%TO.N,Net-(C5-Pad2)*%
X65482000Y-64161500D02*
X65532000Y-64111500D01*
X65532000Y-62126500D02*
X65532000Y-64111500D01*
X62992000Y-64161500D02*
X65482000Y-64161500D01*
%TO.N,Net-(C6-Pad2)*%
X63042000Y-69746500D02*
X62992000Y-69696500D01*
X64643000Y-68857500D02*
X65532000Y-69746500D01*
X65532000Y-69746500D02*
X63042000Y-69746500D01*
X65532000Y-65936500D02*
X64643000Y-66825500D01*
X64643000Y-66825500D02*
X64643000Y-68857500D01*
%TO.N,Net-(C7-Pad2)*%
X67818000Y-66193500D02*
X67260000Y-66193500D01*
X67260000Y-66193500D02*
X65532000Y-67921500D01*
X67818000Y-64158500D02*
X67818000Y-66193500D01*
%TO.N,Net-(C8-Pad2)*%
X64135000Y-55880000D02*
X64705000Y-55880000D01*
X66421000Y-60936500D02*
X66421000Y-59690000D01*
X63380000Y-56864346D02*
X63380000Y-56635000D01*
X70562000Y-62333500D02*
X70612000Y-62383500D01*
X67818000Y-62333500D02*
X70562000Y-62333500D01*
X65913000Y-59182000D02*
X63784893Y-59182000D01*
X63373000Y-56871346D02*
X63380000Y-56864346D01*
X67818000Y-62333500D02*
X66421000Y-60936500D01*
X63784893Y-59182000D02*
X63373000Y-58770107D01*
X66421000Y-59690000D02*
X65913000Y-59182000D01*
X63373000Y-58770107D02*
X63373000Y-56871346D01*
X63380000Y-56635000D02*
X64135000Y-55880000D01*
%TO.N,Net-(C9-Pad1)*%
X70635500Y-66143500D02*
X71755000Y-65024000D01*
X66421000Y-58420000D02*
X64705000Y-58420000D01*
X67818000Y-60198000D02*
X67818000Y-59817000D01*
X71628000Y-51819000D02*
X71628000Y-59944000D01*
X70612000Y-50803000D02*
X71628000Y-51819000D01*
X70612000Y-66143500D02*
X70635500Y-66143500D01*
X71427000Y-60145000D02*
X70612000Y-60145000D01*
X71628000Y-59944000D02*
X71427000Y-60145000D01*
X71755000Y-65024000D02*
X71755000Y-61288000D01*
X67818000Y-60198000D02*
X70559000Y-60198000D01*
X70559000Y-60198000D02*
X70612000Y-60145000D01*
X67818000Y-59817000D02*
X66421000Y-58420000D01*
X71755000Y-61288000D02*
X70612000Y-60145000D01*
%TO.N,Net-(C9-Pad2)*%
X70565000Y-58373000D02*
X70612000Y-58420000D01*
X66752000Y-56438000D02*
X66040000Y-57150000D01*
X66040000Y-57150000D02*
X64705000Y-57150000D01*
X67818000Y-56438000D02*
X66752000Y-56438000D01*
X67818000Y-58373000D02*
X70565000Y-58373000D01*
X67818000Y-56438000D02*
X67818000Y-58373000D01*
D25*
%TO.N,/+9V*%
X55372000Y-53467000D02*
X55633158Y-53467000D01*
X59702000Y-54663000D02*
X59755000Y-54610000D01*
X59654500Y-76300500D02*
X59755000Y-76200000D01*
X56896000Y-76300500D02*
X59654500Y-76300500D01*
X56642000Y-54483000D02*
X56642000Y-54663000D01*
X55633158Y-53467000D02*
X56122000Y-53955842D01*
X56896000Y-76300500D02*
X56488500Y-76300500D01*
X56122000Y-53963000D02*
X56642000Y-54483000D01*
X56488500Y-76300500D02*
X56007000Y-75819000D01*
X56642000Y-54663000D02*
X59702000Y-54663000D01*
X56122000Y-53955842D02*
X56122000Y-53963000D01*
D24*
%TO.N,/GND*%
X56896000Y-74575500D02*
X56107500Y-74575500D01*
X64705000Y-76200000D02*
X63246000Y-76200000D01*
X66040000Y-54610000D02*
X64705000Y-54610000D01*
X55372000Y-54266503D02*
X55372000Y-55118000D01*
X55372000Y-55118000D02*
X56642000Y-56388000D01*
X56107500Y-74575500D02*
X55880000Y-74803000D01*
%TO.N,Net-(C11-Pad1)*%
X71882000Y-78232000D02*
X71477500Y-77827500D01*
X66929000Y-80518000D02*
X67056000Y-80645000D01*
X54992000Y-72898000D02*
X53722000Y-71628000D01*
X54610000Y-70104000D02*
X53722000Y-70992000D01*
X59055000Y-73660000D02*
X58293000Y-72898000D01*
X67056000Y-69215000D02*
X66802000Y-69469000D01*
X67818000Y-77877500D02*
X67818000Y-77279500D01*
X71477500Y-77827500D02*
X70612000Y-77827500D01*
X71628000Y-74930000D02*
X72136000Y-74422000D01*
X72136000Y-69215000D02*
X67056000Y-69215000D01*
X67818000Y-77877500D02*
X66929000Y-78766500D01*
X59755000Y-73660000D02*
X59055000Y-73660000D01*
X58166000Y-70104000D02*
X54610000Y-70104000D01*
X66294000Y-83970500D02*
X66294000Y-83693000D01*
X67818000Y-77279500D02*
X70167500Y-74930000D01*
X70167500Y-74930000D02*
X71628000Y-74930000D01*
X58293000Y-72898000D02*
X54992000Y-72898000D01*
X59190000Y-71128000D02*
X58166000Y-70104000D01*
X66802000Y-69469000D02*
X66802000Y-70485000D01*
X66802000Y-70485000D02*
X66159000Y-71128000D01*
X67056000Y-80645000D02*
X69342000Y-80645000D01*
X71882000Y-80391000D02*
X71882000Y-78232000D01*
X66294000Y-83693000D02*
X69342000Y-80645000D01*
X66159000Y-71128000D02*
X59190000Y-71128000D01*
X72136000Y-74422000D02*
X72136000Y-69215000D01*
X53722000Y-70992000D02*
X53722000Y-71628000D01*
X66929000Y-78766500D02*
X66929000Y-80518000D01*
X69342000Y-80645000D02*
X71628000Y-80645000D01*
X71628000Y-80645000D02*
X71882000Y-80391000D01*
%TO.N,/Peak Detector/ThreshLim*%
X63500000Y-83970500D02*
X63500000Y-86106000D01*
X70612000Y-79652500D02*
X70612000Y-79629000D01*
X70889500Y-75842500D02*
X70612000Y-75842500D01*
X70588500Y-75842500D02*
X70612000Y-75842500D01*
X69469000Y-76962000D02*
X70588500Y-75842500D01*
X67868000Y-79652500D02*
X67818000Y-79602500D01*
X64897000Y-87503000D02*
X72898000Y-87503000D01*
X75184000Y-85217000D02*
X75184000Y-80137000D01*
X69469000Y-78486000D02*
X69469000Y-76962000D01*
X63500000Y-86106000D02*
X64897000Y-87503000D01*
X75184000Y-80137000D02*
X70889500Y-75842500D01*
X72898000Y-87503000D02*
X75184000Y-85217000D01*
X70612000Y-79652500D02*
X67868000Y-79652500D01*
X70612000Y-79629000D02*
X69469000Y-78486000D01*
%TO.N,Net-(C12-Pad1)*%
X64832000Y-73533000D02*
X64705000Y-73660000D01*
X70612000Y-71982500D02*
X67868000Y-71982500D01*
X70612000Y-74017500D02*
X68603500Y-72009000D01*
X68603500Y-72009000D02*
X67841500Y-72009000D01*
X67818000Y-72032500D02*
X66317500Y-73533000D01*
X67868000Y-71982500D02*
X67818000Y-72032500D01*
X66317500Y-73533000D02*
X64832000Y-73533000D01*
X67841500Y-72009000D02*
X67818000Y-72032500D01*
%TO.N,/PeakOut*%
X71486500Y-73279000D02*
X71486500Y-71132000D01*
X67818000Y-70358000D02*
X65786000Y-72390000D01*
X70612000Y-70257500D02*
X67868000Y-70257500D01*
X65786000Y-72390000D02*
X64705000Y-72390000D01*
X67818000Y-70207500D02*
X67818000Y-70358000D01*
X71486500Y-71132000D02*
X70612000Y-70257500D01*
X67868000Y-70257500D02*
X67818000Y-70207500D01*
%TO.N,Net-(D1-Pad2)*%
X57912000Y-47752000D02*
X57822000Y-47662000D01*
X53722000Y-47116000D02*
X53722000Y-48006000D01*
X61864000Y-52690000D02*
X61864000Y-49926000D01*
X61864000Y-49926000D02*
X59690000Y-47752000D01*
X60706000Y-62103000D02*
X61580000Y-61229000D01*
X61580000Y-52974000D02*
X61864000Y-52690000D01*
X60706000Y-62126500D02*
X60706000Y-62103000D01*
X53848000Y-48132000D02*
X53722000Y-48006000D01*
X53848000Y-50803000D02*
X53848000Y-48132000D01*
X61580000Y-61229000D02*
X61580000Y-52974000D01*
X57822000Y-47662000D02*
X57822000Y-47056000D01*
X54102000Y-46736000D02*
X53722000Y-47116000D01*
X59690000Y-47752000D02*
X57912000Y-47752000D01*
X57502000Y-46736000D02*
X54102000Y-46736000D01*
X57822000Y-47056000D02*
X57502000Y-46736000D01*
%TO.N,Net-(D3-Pad1)*%
X69596000Y-51180000D02*
X68072000Y-52704000D01*
X63500000Y-43180000D02*
X65889500Y-43180000D01*
X65889500Y-43180000D02*
X66548000Y-43838500D01*
X64705000Y-52070000D02*
X67438000Y-52070000D01*
X67438000Y-52070000D02*
X68072000Y-52704000D01*
X66548000Y-43838500D02*
X69596000Y-46886500D01*
X69596000Y-46886500D02*
X69596000Y-51180000D01*
%TO.N,Net-(D3-Pad2)*%
X60960000Y-44577000D02*
X60960000Y-43180000D01*
X68707000Y-48769000D02*
X68707000Y-46736000D01*
X61341000Y-44958000D02*
X60960000Y-44577000D01*
X67817000Y-49149000D02*
X68072000Y-49404000D01*
X67818000Y-45847000D02*
X64643000Y-45847000D01*
X63754000Y-44958000D02*
X61341000Y-44958000D01*
X64705000Y-50800000D02*
X66356000Y-49149000D01*
X64643000Y-45847000D02*
X63754000Y-44958000D01*
X68072000Y-49404000D02*
X68707000Y-48769000D01*
X66356000Y-49149000D02*
X67817000Y-49149000D01*
X68707000Y-46736000D02*
X67818000Y-45847000D01*
%TO.N,Net-(D5-Pad2)*%
X59755000Y-72390000D02*
X58993000Y-71628000D01*
X58993000Y-71628000D02*
X57022000Y-71628000D01*
%TO.N,Net-(D6-Pad1)*%
X61087000Y-79248000D02*
X61087000Y-81764500D01*
X61722000Y-78740000D02*
X62992000Y-77470000D01*
X59755000Y-78740000D02*
X60579000Y-78740000D01*
X59755000Y-78740000D02*
X61722000Y-78740000D01*
X54356000Y-79248000D02*
X55499000Y-78105000D01*
X58547000Y-78105000D02*
X58928000Y-78486000D01*
X60579000Y-78740000D02*
X61087000Y-79248000D01*
X61087000Y-81764500D02*
X60706000Y-82145500D01*
X55499000Y-78105000D02*
X58547000Y-78105000D01*
X62992000Y-77470000D02*
X64705000Y-77470000D01*
X53722000Y-79248000D02*
X54356000Y-79248000D01*
%TO.N,Net-(D6-Pad2)*%
X57022000Y-79248000D02*
X57658000Y-79248000D01*
X57658000Y-79248000D02*
X58420000Y-80010000D01*
X58420000Y-80010000D02*
X59755000Y-80010000D01*
%TO.N,/FollowerOut*%
X71731500Y-67968500D02*
X73660000Y-66040000D01*
X70612000Y-67968500D02*
X71731500Y-67968500D01*
%TO.N,/ThreshIn*%
X56745500Y-82145500D02*
X54864000Y-80264000D01*
X50800000Y-71120000D02*
X52324000Y-72644000D01*
X53213000Y-77470000D02*
X59755000Y-77470000D01*
X54864000Y-80264000D02*
X52578000Y-80264000D01*
X52324000Y-80010000D02*
X52324000Y-78359000D01*
X52324000Y-76581000D02*
X53213000Y-77470000D01*
X52578000Y-80264000D02*
X52324000Y-80010000D01*
X58166000Y-82145500D02*
X56745500Y-82145500D01*
X52324000Y-78359000D02*
X53213000Y-77470000D01*
X52324000Y-72644000D02*
X52324000Y-76581000D01*
%TO.N,Net-(R6-Pad2)*%
X58509438Y-55880000D02*
X59755000Y-55880000D01*
X62167000Y-55589770D02*
X62167000Y-61301500D01*
X62357500Y-55399270D02*
X62167000Y-55589770D01*
X58401219Y-55771781D02*
X58509438Y-55880000D01*
X62167000Y-61301500D02*
X62992000Y-62126500D01*
%TO.N,Net-(R16-Pad2)*%
X69646000Y-53594000D02*
X70612000Y-52628000D01*
X66548000Y-53340000D02*
X66802000Y-53594000D01*
X64705000Y-53340000D02*
X66548000Y-53340000D01*
X66802000Y-53594000D02*
X69646000Y-53594000D01*
X70612000Y-54613000D02*
X70612000Y-52628000D01*
%TO.N,Net-(R23-Pad2)*%
X66040000Y-74930000D02*
X64705000Y-74930000D01*
X66294000Y-82145500D02*
X66294000Y-75184000D01*
X65532000Y-74930000D02*
X64705000Y-74930000D01*
X67818000Y-74017500D02*
X66444500Y-74017500D01*
X66294000Y-75184000D02*
X66040000Y-74930000D01*
X66444500Y-74017500D02*
X65532000Y-74930000D01*
%TO.N,Net-(R26-Pad1)*%
X64705000Y-80010000D02*
X64705000Y-78740000D01*
X63500000Y-82145500D02*
X63500000Y-81215000D01*
X63500000Y-81215000D02*
X64705000Y-80010000D01*
%TD*%
%TA.AperFunction,Conductor*%
%TO.N,/+9V*%
G36*
X71090018Y-38610000D02*
G01*
X71104851Y-38612310D01*
X71104855Y-38612310D01*
X71113724Y-38613691D01*
X71134183Y-38611016D01*
X71156008Y-38610072D01*
X71512937Y-38625656D01*
X71523886Y-38626614D01*
X71908379Y-38677233D01*
X71919205Y-38679142D01*
X72297822Y-38763080D01*
X72308439Y-38765925D01*
X72478702Y-38819608D01*
X72678302Y-38882542D01*
X72688615Y-38886295D01*
X73046932Y-39034715D01*
X73056876Y-39039353D01*
X73400867Y-39218423D01*
X73410387Y-39223919D01*
X73737468Y-39432292D01*
X73746472Y-39438597D01*
X74054138Y-39674678D01*
X74062558Y-39681743D01*
X74348483Y-39943744D01*
X74356256Y-39951517D01*
X74618257Y-40237442D01*
X74625322Y-40245862D01*
X74861403Y-40553528D01*
X74867708Y-40562532D01*
X75076081Y-40889613D01*
X75081576Y-40899132D01*
X75250348Y-41223338D01*
X75260643Y-41243115D01*
X75265285Y-41253068D01*
X75413093Y-41609907D01*
X75413702Y-41611377D01*
X75417458Y-41621698D01*
X75464807Y-41771869D01*
X75534075Y-41991561D01*
X75536920Y-42002178D01*
X75620858Y-42380795D01*
X75622767Y-42391621D01*
X75673386Y-42776114D01*
X75674344Y-42787063D01*
X75685521Y-43043049D01*
X75689603Y-43136552D01*
X75688223Y-43161429D01*
X75686309Y-43173724D01*
X75687473Y-43182626D01*
X75687473Y-43182628D01*
X75690436Y-43205283D01*
X75691500Y-43221621D01*
X75691500Y-79409050D01*
X75671498Y-79477171D01*
X75617842Y-79523664D01*
X75547568Y-79533768D01*
X75482988Y-79504274D01*
X75476405Y-79498145D01*
X73742126Y-77763866D01*
X73708100Y-77701554D01*
X73713165Y-77630739D01*
X73755712Y-77573903D01*
X73815210Y-77549792D01*
X73938290Y-77534025D01*
X73938294Y-77534024D01*
X73943416Y-77533368D01*
X73948366Y-77531883D01*
X74152429Y-77470661D01*
X74152434Y-77470659D01*
X74157384Y-77469174D01*
X74357994Y-77370896D01*
X74539860Y-77241173D01*
X74698096Y-77083489D01*
X74757594Y-77000689D01*
X74825435Y-76906277D01*
X74828453Y-76902077D01*
X74833770Y-76891320D01*
X74925136Y-76706453D01*
X74925137Y-76706451D01*
X74927430Y-76701811D01*
X74992370Y-76488069D01*
X75021529Y-76266590D01*
X75023156Y-76200000D01*
X75004852Y-75977361D01*
X74950431Y-75760702D01*
X74861354Y-75555840D01*
X74740014Y-75368277D01*
X74589670Y-75203051D01*
X74585619Y-75199852D01*
X74585615Y-75199848D01*
X74418414Y-75067800D01*
X74418410Y-75067798D01*
X74414359Y-75064598D01*
X74373053Y-75041796D01*
X74323084Y-74991364D01*
X74308312Y-74921921D01*
X74333428Y-74855516D01*
X74360780Y-74828909D01*
X74422825Y-74784653D01*
X74539860Y-74701173D01*
X74698096Y-74543489D01*
X74757594Y-74460689D01*
X74825435Y-74366277D01*
X74828453Y-74362077D01*
X74861605Y-74295000D01*
X74925136Y-74166453D01*
X74925137Y-74166451D01*
X74927430Y-74161811D01*
X74959900Y-74054940D01*
X74990865Y-73953023D01*
X74990865Y-73953021D01*
X74992370Y-73948069D01*
X75021529Y-73726590D01*
X75023156Y-73660000D01*
X75004852Y-73437361D01*
X74950431Y-73220702D01*
X74861354Y-73015840D01*
X74740014Y-72828277D01*
X74589670Y-72663051D01*
X74585619Y-72659852D01*
X74585615Y-72659848D01*
X74418414Y-72527800D01*
X74418410Y-72527798D01*
X74414359Y-72524598D01*
X74373053Y-72501796D01*
X74323084Y-72451364D01*
X74308312Y-72381921D01*
X74333428Y-72315516D01*
X74360780Y-72288909D01*
X74430049Y-72239500D01*
X74539860Y-72161173D01*
X74698096Y-72003489D01*
X74712095Y-71984008D01*
X74825435Y-71826277D01*
X74828453Y-71822077D01*
X74892670Y-71692144D01*
X74925136Y-71626453D01*
X74925137Y-71626451D01*
X74927430Y-71621811D01*
X74992370Y-71408069D01*
X75021529Y-71186590D01*
X75021611Y-71183240D01*
X75023074Y-71123365D01*
X75023074Y-71123361D01*
X75023156Y-71120000D01*
X75004852Y-70897361D01*
X74950431Y-70680702D01*
X74861354Y-70475840D01*
X74798084Y-70378039D01*
X74742822Y-70292617D01*
X74742820Y-70292614D01*
X74740014Y-70288277D01*
X74589670Y-70123051D01*
X74585619Y-70119852D01*
X74585615Y-70119848D01*
X74418414Y-69987800D01*
X74418410Y-69987798D01*
X74414359Y-69984598D01*
X74373053Y-69961796D01*
X74323084Y-69911364D01*
X74308312Y-69841921D01*
X74333428Y-69775516D01*
X74360780Y-69748909D01*
X74404603Y-69717650D01*
X74539860Y-69621173D01*
X74552003Y-69609073D01*
X74641940Y-69519449D01*
X74698096Y-69463489D01*
X74702625Y-69457187D01*
X74825435Y-69286277D01*
X74828453Y-69282077D01*
X74843798Y-69251030D01*
X74925136Y-69086453D01*
X74925137Y-69086451D01*
X74927430Y-69081811D01*
X74982993Y-68898932D01*
X74990865Y-68873023D01*
X74990865Y-68873021D01*
X74992370Y-68868069D01*
X75021529Y-68646590D01*
X75021852Y-68633365D01*
X75023074Y-68583365D01*
X75023074Y-68583361D01*
X75023156Y-68580000D01*
X75004852Y-68357361D01*
X74950431Y-68140702D01*
X74861354Y-67935840D01*
X74774669Y-67801845D01*
X74742822Y-67752617D01*
X74742820Y-67752614D01*
X74740014Y-67748277D01*
X74589670Y-67583051D01*
X74585619Y-67579852D01*
X74585615Y-67579848D01*
X74418414Y-67447800D01*
X74418410Y-67447798D01*
X74414359Y-67444598D01*
X74373053Y-67421796D01*
X74323084Y-67371364D01*
X74308312Y-67301921D01*
X74333428Y-67235516D01*
X74360780Y-67208909D01*
X74404603Y-67177650D01*
X74539860Y-67081173D01*
X74547687Y-67073374D01*
X74682384Y-66939146D01*
X74698096Y-66923489D01*
X74757594Y-66840689D01*
X74825435Y-66746277D01*
X74828453Y-66742077D01*
X74853292Y-66691820D01*
X74925136Y-66546453D01*
X74925137Y-66546451D01*
X74927430Y-66541811D01*
X74979588Y-66370140D01*
X74990865Y-66333023D01*
X74990865Y-66333021D01*
X74992370Y-66328069D01*
X75021529Y-66106590D01*
X75023156Y-66040000D01*
X75004852Y-65817361D01*
X74950431Y-65600702D01*
X74861354Y-65395840D01*
X74784285Y-65276709D01*
X74742822Y-65212617D01*
X74742820Y-65212614D01*
X74740014Y-65208277D01*
X74589670Y-65043051D01*
X74585619Y-65039852D01*
X74585615Y-65039848D01*
X74418414Y-64907800D01*
X74418410Y-64907798D01*
X74414359Y-64904598D01*
X74373053Y-64881796D01*
X74323084Y-64831364D01*
X74308312Y-64761921D01*
X74333428Y-64695516D01*
X74360780Y-64668909D01*
X74427061Y-64621631D01*
X74539860Y-64541173D01*
X74570067Y-64511072D01*
X74694435Y-64387137D01*
X74698096Y-64383489D01*
X74706210Y-64372198D01*
X74825435Y-64206277D01*
X74828453Y-64202077D01*
X74841273Y-64176139D01*
X74925136Y-64006453D01*
X74925137Y-64006451D01*
X74927430Y-64001811D01*
X74985121Y-63811928D01*
X74990865Y-63793023D01*
X74990865Y-63793021D01*
X74992370Y-63788069D01*
X75021529Y-63566590D01*
X75023156Y-63500000D01*
X75004852Y-63277361D01*
X74950431Y-63060702D01*
X74861354Y-62855840D01*
X74784533Y-62737093D01*
X74742822Y-62672617D01*
X74742820Y-62672614D01*
X74740014Y-62668277D01*
X74589670Y-62503051D01*
X74585619Y-62499852D01*
X74585615Y-62499848D01*
X74418414Y-62367800D01*
X74418410Y-62367798D01*
X74414359Y-62364598D01*
X74373053Y-62341796D01*
X74323084Y-62291364D01*
X74308312Y-62221921D01*
X74333428Y-62155516D01*
X74360780Y-62128909D01*
X74423404Y-62084240D01*
X74539860Y-62001173D01*
X74698096Y-61843489D01*
X74757594Y-61760689D01*
X74825435Y-61666277D01*
X74828453Y-61662077D01*
X74853303Y-61611798D01*
X74925136Y-61466453D01*
X74925137Y-61466451D01*
X74927430Y-61461811D01*
X74992370Y-61248069D01*
X75021529Y-61026590D01*
X75023156Y-60960000D01*
X75004852Y-60737361D01*
X74950431Y-60520702D01*
X74861354Y-60315840D01*
X74774180Y-60181090D01*
X74742822Y-60132617D01*
X74742820Y-60132614D01*
X74740014Y-60128277D01*
X74589670Y-59963051D01*
X74585619Y-59959852D01*
X74585615Y-59959848D01*
X74418414Y-59827800D01*
X74418410Y-59827798D01*
X74414359Y-59824598D01*
X74373053Y-59801796D01*
X74323084Y-59751364D01*
X74308312Y-59681921D01*
X74333428Y-59615516D01*
X74360780Y-59588909D01*
X74430049Y-59539500D01*
X74539860Y-59461173D01*
X74546570Y-59454487D01*
X74685247Y-59316293D01*
X74698096Y-59303489D01*
X74752120Y-59228307D01*
X74825435Y-59126277D01*
X74828453Y-59122077D01*
X74838948Y-59100843D01*
X74925136Y-58926453D01*
X74925137Y-58926451D01*
X74927430Y-58921811D01*
X74992370Y-58708069D01*
X75021529Y-58486590D01*
X75023156Y-58420000D01*
X75004852Y-58197361D01*
X74950431Y-57980702D01*
X74861354Y-57775840D01*
X74812932Y-57700991D01*
X74742822Y-57592617D01*
X74742820Y-57592614D01*
X74740014Y-57588277D01*
X74589670Y-57423051D01*
X74585619Y-57419852D01*
X74585615Y-57419848D01*
X74418414Y-57287800D01*
X74418410Y-57287798D01*
X74414359Y-57284598D01*
X74373053Y-57261796D01*
X74323084Y-57211364D01*
X74308312Y-57141921D01*
X74333428Y-57075516D01*
X74360780Y-57048909D01*
X74429826Y-56999659D01*
X74539860Y-56921173D01*
X74698096Y-56763489D01*
X74703447Y-56756043D01*
X74825435Y-56586277D01*
X74828453Y-56582077D01*
X74837319Y-56564139D01*
X74925136Y-56386453D01*
X74925137Y-56386451D01*
X74927430Y-56381811D01*
X74992370Y-56168069D01*
X75021529Y-55946590D01*
X75021652Y-55941552D01*
X75023074Y-55883365D01*
X75023074Y-55883361D01*
X75023156Y-55880000D01*
X75004852Y-55657361D01*
X74950431Y-55440702D01*
X74861354Y-55235840D01*
X74790908Y-55126947D01*
X74742822Y-55052617D01*
X74742820Y-55052614D01*
X74740014Y-55048277D01*
X74589670Y-54883051D01*
X74585619Y-54879852D01*
X74585615Y-54879848D01*
X74418414Y-54747800D01*
X74418410Y-54747798D01*
X74414359Y-54744598D01*
X74373053Y-54721796D01*
X74323084Y-54671364D01*
X74308312Y-54601921D01*
X74333428Y-54535516D01*
X74360780Y-54508909D01*
X74419704Y-54466879D01*
X74539860Y-54381173D01*
X74570934Y-54350208D01*
X74654931Y-54266503D01*
X74698096Y-54223489D01*
X74718935Y-54194489D01*
X74825435Y-54046277D01*
X74828453Y-54042077D01*
X74838948Y-54020843D01*
X74925136Y-53846453D01*
X74925137Y-53846451D01*
X74927430Y-53841811D01*
X74992370Y-53628069D01*
X75021529Y-53406590D01*
X75021684Y-53400240D01*
X75023074Y-53343365D01*
X75023074Y-53343361D01*
X75023156Y-53340000D01*
X75004852Y-53117361D01*
X74950431Y-52900702D01*
X74861354Y-52695840D01*
X74802806Y-52605338D01*
X74742822Y-52512617D01*
X74742820Y-52512614D01*
X74740014Y-52508277D01*
X74736540Y-52504459D01*
X74736533Y-52504450D01*
X74592435Y-52346088D01*
X74561383Y-52282242D01*
X74569779Y-52211744D01*
X74614956Y-52156976D01*
X74641400Y-52143307D01*
X74748052Y-52103325D01*
X74763649Y-52094786D01*
X74865724Y-52018285D01*
X74878285Y-52005724D01*
X74954786Y-51903649D01*
X74963324Y-51888054D01*
X75008478Y-51767606D01*
X75012105Y-51752351D01*
X75017631Y-51701486D01*
X75018000Y-51694672D01*
X75018000Y-51072115D01*
X75013525Y-51056876D01*
X75012135Y-51055671D01*
X75004452Y-51054000D01*
X72320116Y-51054000D01*
X72304877Y-51058475D01*
X72303672Y-51059865D01*
X72302001Y-51067548D01*
X72302001Y-51254193D01*
X72281999Y-51322314D01*
X72228343Y-51368807D01*
X72158069Y-51378911D01*
X72095687Y-51351279D01*
X72076249Y-51335199D01*
X72067468Y-51327208D01*
X71632405Y-50892145D01*
X71598379Y-50829833D01*
X71595500Y-50803050D01*
X71595500Y-50527885D01*
X72302000Y-50527885D01*
X72306475Y-50543124D01*
X72307865Y-50544329D01*
X72315548Y-50546000D01*
X73387885Y-50546000D01*
X73403124Y-50541525D01*
X73404329Y-50540135D01*
X73406000Y-50532452D01*
X73406000Y-50527885D01*
X73914000Y-50527885D01*
X73918475Y-50543124D01*
X73919865Y-50544329D01*
X73927548Y-50546000D01*
X74999884Y-50546000D01*
X75015123Y-50541525D01*
X75016328Y-50540135D01*
X75017999Y-50532452D01*
X75017999Y-49905331D01*
X75017629Y-49898510D01*
X75012105Y-49847648D01*
X75008479Y-49832396D01*
X74963324Y-49711946D01*
X74954786Y-49696351D01*
X74878285Y-49594276D01*
X74865724Y-49581715D01*
X74763649Y-49505214D01*
X74748054Y-49496676D01*
X74627606Y-49451522D01*
X74612351Y-49447895D01*
X74561486Y-49442369D01*
X74554672Y-49442000D01*
X73932115Y-49442000D01*
X73916876Y-49446475D01*
X73915671Y-49447865D01*
X73914000Y-49455548D01*
X73914000Y-50527885D01*
X73406000Y-50527885D01*
X73406000Y-49460116D01*
X73401525Y-49444877D01*
X73400135Y-49443672D01*
X73392452Y-49442001D01*
X72765331Y-49442001D01*
X72758510Y-49442371D01*
X72707648Y-49447895D01*
X72692396Y-49451521D01*
X72571946Y-49496676D01*
X72556351Y-49505214D01*
X72454276Y-49581715D01*
X72441715Y-49594276D01*
X72365214Y-49696351D01*
X72356676Y-49711946D01*
X72311522Y-49832394D01*
X72307895Y-49847649D01*
X72302369Y-49898514D01*
X72302000Y-49905328D01*
X72302000Y-50527885D01*
X71595500Y-50527885D01*
X71595500Y-50503428D01*
X71595163Y-50500178D01*
X71585419Y-50406265D01*
X71585418Y-50406261D01*
X71584707Y-50399407D01*
X71571034Y-50358422D01*
X71531972Y-50241341D01*
X71529654Y-50234393D01*
X71438116Y-50086469D01*
X71420116Y-50068500D01*
X71320184Y-49968742D01*
X71320179Y-49968738D01*
X71315003Y-49963571D01*
X71303467Y-49956460D01*
X71173150Y-49876131D01*
X71173148Y-49876130D01*
X71166920Y-49872291D01*
X71001809Y-49817526D01*
X70994973Y-49816826D01*
X70994970Y-49816825D01*
X70943474Y-49811549D01*
X70899072Y-49807000D01*
X70380500Y-49807000D01*
X70312379Y-49786998D01*
X70265886Y-49733342D01*
X70254500Y-49681000D01*
X70254500Y-46968559D01*
X70255059Y-46956703D01*
X70256789Y-46948963D01*
X70256297Y-46933292D01*
X70254562Y-46878111D01*
X70254500Y-46874153D01*
X70254500Y-46845068D01*
X70253946Y-46840679D01*
X70253013Y-46828837D01*
X70252924Y-46825982D01*
X70251562Y-46782669D01*
X70245580Y-46762079D01*
X70241570Y-46742716D01*
X70239875Y-46729296D01*
X70239875Y-46729295D01*
X70238882Y-46721436D01*
X70235966Y-46714071D01*
X70235965Y-46714067D01*
X70221874Y-46678479D01*
X70218035Y-46667269D01*
X70205145Y-46622900D01*
X70194225Y-46604435D01*
X70185534Y-46586695D01*
X70177635Y-46566744D01*
X70150482Y-46529371D01*
X70143967Y-46519452D01*
X70124493Y-46486523D01*
X70124490Y-46486519D01*
X70120453Y-46479693D01*
X70105289Y-46464529D01*
X70092448Y-46449495D01*
X70084501Y-46438557D01*
X70079841Y-46432143D01*
X70044247Y-46402697D01*
X70035468Y-46394708D01*
X67568405Y-43927645D01*
X67534379Y-43865333D01*
X67531500Y-43838550D01*
X67531500Y-43538928D01*
X67520707Y-43434907D01*
X67499563Y-43371529D01*
X67479937Y-43312703D01*
X69010743Y-43312703D01*
X69011302Y-43316947D01*
X69011302Y-43316951D01*
X69019168Y-43376697D01*
X69048268Y-43597734D01*
X69124129Y-43875036D01*
X69125813Y-43878984D01*
X69230628Y-44124717D01*
X69236923Y-44139476D01*
X69294234Y-44235235D01*
X69355576Y-44337730D01*
X69384561Y-44386161D01*
X69564313Y-44610528D01*
X69654470Y-44696084D01*
X69759876Y-44796110D01*
X69772851Y-44808423D01*
X70006317Y-44976186D01*
X70010112Y-44978195D01*
X70010113Y-44978196D01*
X70031869Y-44989715D01*
X70260392Y-45110712D01*
X70284699Y-45119607D01*
X70472081Y-45188179D01*
X70530373Y-45209511D01*
X70811264Y-45270755D01*
X70839841Y-45273004D01*
X71034282Y-45288307D01*
X71034291Y-45288307D01*
X71036739Y-45288500D01*
X71192271Y-45288500D01*
X71194407Y-45288354D01*
X71194418Y-45288354D01*
X71402548Y-45274165D01*
X71402554Y-45274164D01*
X71406825Y-45273873D01*
X71411020Y-45273004D01*
X71411022Y-45273004D01*
X71547584Y-45244723D01*
X71688342Y-45215574D01*
X71959343Y-45119607D01*
X72214812Y-44987750D01*
X72218313Y-44985289D01*
X72218317Y-44985287D01*
X72401710Y-44856396D01*
X72450023Y-44822441D01*
X72644319Y-44641890D01*
X72657479Y-44629661D01*
X72657481Y-44629658D01*
X72660622Y-44626740D01*
X72842713Y-44404268D01*
X72992927Y-44159142D01*
X73000750Y-44141322D01*
X73106757Y-43899830D01*
X73108483Y-43895898D01*
X73187244Y-43619406D01*
X73227751Y-43334784D01*
X73227845Y-43316951D01*
X73229235Y-43051583D01*
X73229235Y-43051576D01*
X73229257Y-43047297D01*
X73225039Y-43015253D01*
X73201579Y-42837063D01*
X73191732Y-42762266D01*
X73115871Y-42484964D01*
X73052249Y-42335806D01*
X73004763Y-42224476D01*
X73004761Y-42224472D01*
X73003077Y-42220524D01*
X72871285Y-42000315D01*
X72857643Y-41977521D01*
X72857640Y-41977517D01*
X72855439Y-41973839D01*
X72675687Y-41749472D01*
X72523092Y-41604665D01*
X72470258Y-41554527D01*
X72470255Y-41554525D01*
X72467149Y-41551577D01*
X72233683Y-41383814D01*
X72211843Y-41372250D01*
X72180377Y-41355590D01*
X71979608Y-41249288D01*
X71836298Y-41196844D01*
X71713658Y-41151964D01*
X71713656Y-41151963D01*
X71709627Y-41150489D01*
X71428736Y-41089245D01*
X71397685Y-41086801D01*
X71205718Y-41071693D01*
X71205709Y-41071693D01*
X71203261Y-41071500D01*
X71047729Y-41071500D01*
X71045593Y-41071646D01*
X71045582Y-41071646D01*
X70837452Y-41085835D01*
X70837446Y-41085836D01*
X70833175Y-41086127D01*
X70828980Y-41086996D01*
X70828978Y-41086996D01*
X70692417Y-41115276D01*
X70551658Y-41144426D01*
X70280657Y-41240393D01*
X70025188Y-41372250D01*
X70021687Y-41374711D01*
X70021683Y-41374713D01*
X69930693Y-41438662D01*
X69789977Y-41537559D01*
X69774892Y-41551577D01*
X69596719Y-41717146D01*
X69579378Y-41733260D01*
X69397287Y-41955732D01*
X69247073Y-42200858D01*
X69245347Y-42204791D01*
X69245346Y-42204792D01*
X69138655Y-42447842D01*
X69131517Y-42464102D01*
X69130342Y-42468229D01*
X69130341Y-42468230D01*
X69098240Y-42580920D01*
X69052756Y-42740594D01*
X69012249Y-43025216D01*
X69012227Y-43029505D01*
X69012226Y-43029512D01*
X69010765Y-43308417D01*
X69010743Y-43312703D01*
X67479937Y-43312703D01*
X67467972Y-43276841D01*
X67465654Y-43269893D01*
X67374116Y-43121969D01*
X67303607Y-43051583D01*
X67267214Y-43015253D01*
X67233135Y-42952970D01*
X67238138Y-42882150D01*
X67267059Y-42837063D01*
X67369754Y-42734188D01*
X67369758Y-42734183D01*
X67374929Y-42729003D01*
X67378770Y-42722772D01*
X67462369Y-42587150D01*
X67462370Y-42587148D01*
X67466209Y-42580920D01*
X67520974Y-42415809D01*
X67524562Y-42380795D01*
X67531172Y-42316271D01*
X67531500Y-42313072D01*
X67531500Y-41713928D01*
X67526846Y-41669069D01*
X67521419Y-41616765D01*
X67521418Y-41616761D01*
X67520707Y-41609907D01*
X67465654Y-41444893D01*
X67374116Y-41296969D01*
X67264797Y-41187841D01*
X67230718Y-41125559D01*
X67229041Y-41081133D01*
X67233748Y-41047642D01*
X67233749Y-41047632D01*
X67234299Y-41043717D01*
X67234616Y-41021000D01*
X67214397Y-40840745D01*
X67212080Y-40834091D01*
X67157064Y-40676106D01*
X67157062Y-40676103D01*
X67154745Y-40669448D01*
X67058626Y-40515624D01*
X67044941Y-40501843D01*
X66935778Y-40391915D01*
X66935774Y-40391912D01*
X66930815Y-40386918D01*
X66919697Y-40379862D01*
X66861288Y-40342795D01*
X66777666Y-40289727D01*
X66748463Y-40279328D01*
X66613425Y-40231243D01*
X66613420Y-40231242D01*
X66606790Y-40228881D01*
X66599802Y-40228048D01*
X66599799Y-40228047D01*
X66476698Y-40213368D01*
X66426680Y-40207404D01*
X66419677Y-40208140D01*
X66419676Y-40208140D01*
X66253288Y-40225628D01*
X66253286Y-40225629D01*
X66246288Y-40226364D01*
X66074579Y-40284818D01*
X65978822Y-40343729D01*
X65910323Y-40362386D01*
X65845288Y-40342795D01*
X65823142Y-40328741D01*
X65761666Y-40289727D01*
X65732463Y-40279328D01*
X65597425Y-40231243D01*
X65597420Y-40231242D01*
X65590790Y-40228881D01*
X65583802Y-40228048D01*
X65583799Y-40228047D01*
X65460698Y-40213368D01*
X65410680Y-40207404D01*
X65403677Y-40208140D01*
X65403676Y-40208140D01*
X65237288Y-40225628D01*
X65237286Y-40225629D01*
X65230288Y-40226364D01*
X65058579Y-40284818D01*
X65052575Y-40288512D01*
X64910095Y-40376166D01*
X64910092Y-40376168D01*
X64904088Y-40379862D01*
X64899053Y-40384793D01*
X64899050Y-40384795D01*
X64779525Y-40501843D01*
X64774493Y-40506771D01*
X64676235Y-40659238D01*
X64673826Y-40665858D01*
X64673824Y-40665861D01*
X64616606Y-40823066D01*
X64614197Y-40829685D01*
X64591463Y-41009640D01*
X64609163Y-41190160D01*
X64666418Y-41362273D01*
X64670065Y-41368295D01*
X64670066Y-41368297D01*
X64721381Y-41453028D01*
X64760380Y-41517424D01*
X64886382Y-41647902D01*
X64892278Y-41651760D01*
X65021895Y-41736579D01*
X65038159Y-41747222D01*
X65044763Y-41749678D01*
X65044765Y-41749679D01*
X65201558Y-41807990D01*
X65201560Y-41807990D01*
X65208168Y-41810448D01*
X65291995Y-41821633D01*
X65380980Y-41833507D01*
X65380984Y-41833507D01*
X65387961Y-41834438D01*
X65394972Y-41833800D01*
X65394977Y-41833800D01*
X65427081Y-41830878D01*
X65496734Y-41844624D01*
X65547898Y-41893845D01*
X65564500Y-41956359D01*
X65564500Y-42313072D01*
X65564837Y-42316316D01*
X65564837Y-42316324D01*
X65571703Y-42382497D01*
X65558838Y-42452318D01*
X65510267Y-42504100D01*
X65446376Y-42521500D01*
X65034500Y-42521500D01*
X64966379Y-42501498D01*
X64919886Y-42447842D01*
X64908500Y-42395500D01*
X64908500Y-42231866D01*
X64901745Y-42169684D01*
X64850615Y-42033295D01*
X64763261Y-41916739D01*
X64646705Y-41829385D01*
X64510316Y-41778255D01*
X64448134Y-41771500D01*
X62551866Y-41771500D01*
X62489684Y-41778255D01*
X62353295Y-41829385D01*
X62236739Y-41916739D01*
X62149385Y-42033295D01*
X62146233Y-42041703D01*
X62146232Y-42041705D01*
X62125538Y-42096906D01*
X62082897Y-42153671D01*
X62016335Y-42178371D01*
X61946986Y-42163164D01*
X61924167Y-42146666D01*
X61923887Y-42146358D01*
X61791373Y-42041705D01*
X61746177Y-42006011D01*
X61746172Y-42006008D01*
X61742123Y-42002810D01*
X61737607Y-42000317D01*
X61737604Y-42000315D01*
X61543879Y-41893373D01*
X61543875Y-41893371D01*
X61539355Y-41890876D01*
X61534486Y-41889152D01*
X61534482Y-41889150D01*
X61325903Y-41815288D01*
X61325899Y-41815287D01*
X61321028Y-41813562D01*
X61315935Y-41812655D01*
X61315932Y-41812654D01*
X61098095Y-41773851D01*
X61098089Y-41773850D01*
X61093006Y-41772945D01*
X61020096Y-41772054D01*
X60866581Y-41770179D01*
X60866579Y-41770179D01*
X60861411Y-41770116D01*
X60632464Y-41805150D01*
X60412314Y-41877106D01*
X60407726Y-41879494D01*
X60407722Y-41879496D01*
X60226491Y-41973839D01*
X60206872Y-41984052D01*
X60202739Y-41987155D01*
X60202736Y-41987157D01*
X60025790Y-42120012D01*
X60021655Y-42123117D01*
X59861639Y-42290564D01*
X59858725Y-42294836D01*
X59858724Y-42294837D01*
X59796423Y-42386167D01*
X59731119Y-42481899D01*
X59633602Y-42691981D01*
X59571707Y-42915169D01*
X59547095Y-43145469D01*
X59547392Y-43150622D01*
X59547392Y-43150625D01*
X59554738Y-43278028D01*
X59560427Y-43376697D01*
X59561564Y-43381743D01*
X59561565Y-43381749D01*
X59575376Y-43443030D01*
X59611346Y-43602642D01*
X59613288Y-43607424D01*
X59613289Y-43607428D01*
X59618153Y-43619406D01*
X59698484Y-43817237D01*
X59819501Y-44014719D01*
X59971147Y-44189784D01*
X60149349Y-44337730D01*
X60232230Y-44386161D01*
X60238712Y-44389949D01*
X60287435Y-44441588D01*
X60300358Y-44509412D01*
X60299212Y-44514537D01*
X60299461Y-44522455D01*
X60301438Y-44585369D01*
X60301500Y-44589327D01*
X60301500Y-44618432D01*
X60302056Y-44622832D01*
X60302988Y-44634664D01*
X60304438Y-44680831D01*
X60308870Y-44696084D01*
X60310419Y-44701416D01*
X60314430Y-44720782D01*
X60317118Y-44742064D01*
X60320034Y-44749429D01*
X60320035Y-44749433D01*
X60325057Y-44762117D01*
X60331536Y-44832817D01*
X60298763Y-44895797D01*
X60237143Y-44931061D01*
X60207905Y-44934500D01*
X60153059Y-44934500D01*
X60141203Y-44933941D01*
X60133463Y-44932211D01*
X60125537Y-44932460D01*
X60125536Y-44932460D01*
X60062611Y-44934438D01*
X60058653Y-44934500D01*
X60029568Y-44934500D01*
X60025637Y-44934997D01*
X60025630Y-44934997D01*
X60025179Y-44935054D01*
X60013343Y-44935986D01*
X59967169Y-44937438D01*
X59959557Y-44939650D01*
X59959554Y-44939650D01*
X59954254Y-44941190D01*
X59950637Y-44942241D01*
X59879641Y-44942040D01*
X59820024Y-44903487D01*
X59794486Y-44856399D01*
X59791145Y-44844900D01*
X59780229Y-44826443D01*
X59771534Y-44808693D01*
X59763635Y-44788744D01*
X59746652Y-44765369D01*
X59736477Y-44751364D01*
X59729960Y-44741443D01*
X59717742Y-44720784D01*
X59706452Y-44701693D01*
X59691291Y-44686532D01*
X59678449Y-44671497D01*
X59665841Y-44654143D01*
X59630248Y-44624698D01*
X59621467Y-44616708D01*
X58932404Y-43927644D01*
X58898379Y-43865332D01*
X58895500Y-43838549D01*
X58895500Y-43538928D01*
X58884707Y-43434907D01*
X58863563Y-43371529D01*
X58831972Y-43276841D01*
X58829654Y-43269893D01*
X58738116Y-43121969D01*
X58667607Y-43051583D01*
X58631214Y-43015253D01*
X58597135Y-42952970D01*
X58602138Y-42882150D01*
X58631059Y-42837063D01*
X58733754Y-42734188D01*
X58733758Y-42734183D01*
X58738929Y-42729003D01*
X58742770Y-42722772D01*
X58826369Y-42587150D01*
X58826370Y-42587148D01*
X58830209Y-42580920D01*
X58884974Y-42415809D01*
X58888562Y-42380795D01*
X58895172Y-42316271D01*
X58895500Y-42313072D01*
X58895500Y-41950898D01*
X58915502Y-41882777D01*
X58969158Y-41836284D01*
X59010079Y-41825417D01*
X59091600Y-41817998D01*
X59098302Y-41815820D01*
X59098304Y-41815820D01*
X59257409Y-41764124D01*
X59257412Y-41764123D01*
X59264108Y-41761947D01*
X59419912Y-41669069D01*
X59551266Y-41543982D01*
X59651643Y-41392902D01*
X59705434Y-41251299D01*
X59713555Y-41229920D01*
X59713556Y-41229918D01*
X59716055Y-41223338D01*
X59717035Y-41216366D01*
X59740748Y-41047639D01*
X59740748Y-41047636D01*
X59741299Y-41043717D01*
X59741616Y-41021000D01*
X59721397Y-40840745D01*
X59719080Y-40834091D01*
X59664064Y-40676106D01*
X59664062Y-40676103D01*
X59661745Y-40669448D01*
X59565626Y-40515624D01*
X59551941Y-40501843D01*
X59442778Y-40391915D01*
X59442774Y-40391912D01*
X59437815Y-40386918D01*
X59426697Y-40379862D01*
X59368288Y-40342795D01*
X59284666Y-40289727D01*
X59255463Y-40279328D01*
X59120425Y-40231243D01*
X59120420Y-40231242D01*
X59113790Y-40228881D01*
X59106802Y-40228048D01*
X59106799Y-40228047D01*
X58983698Y-40213368D01*
X58933680Y-40207404D01*
X58926677Y-40208140D01*
X58926676Y-40208140D01*
X58760288Y-40225628D01*
X58760286Y-40225629D01*
X58753288Y-40226364D01*
X58581579Y-40284818D01*
X58485822Y-40343729D01*
X58417323Y-40362386D01*
X58352288Y-40342795D01*
X58330142Y-40328741D01*
X58268666Y-40289727D01*
X58239463Y-40279328D01*
X58104425Y-40231243D01*
X58104420Y-40231242D01*
X58097790Y-40228881D01*
X58090802Y-40228048D01*
X58090799Y-40228047D01*
X57967698Y-40213368D01*
X57917680Y-40207404D01*
X57910677Y-40208140D01*
X57910676Y-40208140D01*
X57744288Y-40225628D01*
X57744286Y-40225629D01*
X57737288Y-40226364D01*
X57565579Y-40284818D01*
X57559575Y-40288512D01*
X57417095Y-40376166D01*
X57417092Y-40376168D01*
X57411088Y-40379862D01*
X57406053Y-40384793D01*
X57406050Y-40384795D01*
X57286525Y-40501843D01*
X57281493Y-40506771D01*
X57183235Y-40659238D01*
X57180826Y-40665858D01*
X57180824Y-40665861D01*
X57123606Y-40823066D01*
X57121197Y-40829685D01*
X57098463Y-41009640D01*
X57116022Y-41188724D01*
X57116022Y-41188726D01*
X57116163Y-41190160D01*
X57115911Y-41190185D01*
X57110793Y-41257306D01*
X57091825Y-41290813D01*
X57090243Y-41292816D01*
X57085071Y-41297997D01*
X57081233Y-41304224D01*
X57081231Y-41304226D01*
X56997631Y-41439850D01*
X56993791Y-41446080D01*
X56939026Y-41611191D01*
X56938326Y-41618027D01*
X56938325Y-41618030D01*
X56935784Y-41642834D01*
X56928500Y-41713928D01*
X56928500Y-42313072D01*
X56928837Y-42316318D01*
X56928837Y-42316322D01*
X56937053Y-42395500D01*
X56939293Y-42417093D01*
X56941474Y-42423629D01*
X56941474Y-42423631D01*
X56962478Y-42486587D01*
X56994346Y-42582107D01*
X57085884Y-42730031D01*
X57091066Y-42735204D01*
X57192786Y-42836747D01*
X57226865Y-42899030D01*
X57221862Y-42969850D01*
X57192941Y-43014937D01*
X57090246Y-43117812D01*
X57090242Y-43117817D01*
X57085071Y-43122997D01*
X57081231Y-43129227D01*
X57081230Y-43129228D01*
X56998364Y-43263662D01*
X56993791Y-43271080D01*
X56939026Y-43436191D01*
X56928500Y-43538928D01*
X56928500Y-44138072D01*
X56928837Y-44141318D01*
X56928837Y-44141322D01*
X56933921Y-44190316D01*
X56939293Y-44242093D01*
X56994346Y-44407107D01*
X57085884Y-44555031D01*
X57091066Y-44560204D01*
X57203816Y-44672758D01*
X57203821Y-44672762D01*
X57208997Y-44677929D01*
X57215227Y-44681769D01*
X57215228Y-44681770D01*
X57345575Y-44762117D01*
X57357080Y-44769209D01*
X57522191Y-44823974D01*
X57529027Y-44824674D01*
X57529030Y-44824675D01*
X57580526Y-44829951D01*
X57624928Y-44834500D01*
X57924550Y-44834500D01*
X57992671Y-44854502D01*
X58013645Y-44871405D01*
X58486595Y-45344355D01*
X58520621Y-45406667D01*
X58523500Y-45433450D01*
X58523500Y-45904967D01*
X58503498Y-45973088D01*
X58478783Y-46000380D01*
X58477969Y-46000884D01*
X58472797Y-46006065D01*
X58360242Y-46118816D01*
X58360238Y-46118821D01*
X58355071Y-46123997D01*
X58351231Y-46130227D01*
X58351230Y-46130228D01*
X58269355Y-46263054D01*
X58263791Y-46272080D01*
X58261487Y-46279025D01*
X58261487Y-46279026D01*
X58254741Y-46299365D01*
X58214309Y-46357725D01*
X58148745Y-46384961D01*
X58078864Y-46372427D01*
X58046053Y-46348792D01*
X58025652Y-46328391D01*
X58017663Y-46319612D01*
X58013416Y-46312920D01*
X57961741Y-46264394D01*
X57958900Y-46261640D01*
X57938333Y-46241073D01*
X57934826Y-46238353D01*
X57925804Y-46230647D01*
X57921613Y-46226711D01*
X57892133Y-46199028D01*
X57885181Y-46195206D01*
X57873342Y-46188697D01*
X57856818Y-46177843D01*
X57846132Y-46169555D01*
X57839868Y-46164696D01*
X57832596Y-46161549D01*
X57832594Y-46161548D01*
X57797465Y-46146346D01*
X57786805Y-46141124D01*
X57753284Y-46122695D01*
X57753282Y-46122694D01*
X57746337Y-46118876D01*
X57725559Y-46113541D01*
X57706869Y-46107142D01*
X57687176Y-46098620D01*
X57641552Y-46091394D01*
X57629929Y-46088987D01*
X57595661Y-46080189D01*
X57585188Y-46077500D01*
X57563741Y-46077500D01*
X57544031Y-46075949D01*
X57530677Y-46073834D01*
X57522848Y-46072594D01*
X57476859Y-46076941D01*
X57465004Y-46077500D01*
X54184056Y-46077500D01*
X54172200Y-46076941D01*
X54172197Y-46076941D01*
X54164463Y-46075212D01*
X54109446Y-46076941D01*
X54093631Y-46077438D01*
X54089673Y-46077500D01*
X54060568Y-46077500D01*
X54056168Y-46078056D01*
X54044336Y-46078988D01*
X53998169Y-46080438D01*
X53977579Y-46086420D01*
X53958218Y-46090430D01*
X53951230Y-46091312D01*
X53944796Y-46092125D01*
X53944795Y-46092125D01*
X53936936Y-46093118D01*
X53929571Y-46096034D01*
X53929567Y-46096035D01*
X53893979Y-46110126D01*
X53882769Y-46113965D01*
X53838400Y-46126855D01*
X53819935Y-46137775D01*
X53802195Y-46146466D01*
X53782244Y-46154365D01*
X53744874Y-46181516D01*
X53734952Y-46188033D01*
X53702023Y-46207507D01*
X53702019Y-46207510D01*
X53695193Y-46211547D01*
X53680029Y-46226711D01*
X53664996Y-46239551D01*
X53647643Y-46252159D01*
X53637521Y-46264395D01*
X53618198Y-46287752D01*
X53610208Y-46296532D01*
X53314395Y-46592345D01*
X53305615Y-46600335D01*
X53305613Y-46600337D01*
X53298920Y-46604584D01*
X53293494Y-46610362D01*
X53293493Y-46610363D01*
X53250396Y-46656257D01*
X53247641Y-46659099D01*
X53227073Y-46679667D01*
X53224356Y-46683170D01*
X53216648Y-46692195D01*
X53185028Y-46725867D01*
X53181207Y-46732818D01*
X53181206Y-46732819D01*
X53174697Y-46744658D01*
X53163843Y-46761182D01*
X53156018Y-46771271D01*
X53150696Y-46778132D01*
X53147549Y-46785404D01*
X53147548Y-46785406D01*
X53132346Y-46820535D01*
X53127124Y-46831195D01*
X53104876Y-46871663D01*
X53102904Y-46879343D01*
X53101655Y-46882498D01*
X53057981Y-46938472D01*
X53041283Y-46947391D01*
X53041574Y-46947923D01*
X53033697Y-46952235D01*
X53025295Y-46955385D01*
X53018116Y-46960765D01*
X53018113Y-46960767D01*
X52932433Y-47024981D01*
X52908739Y-47042739D01*
X52821385Y-47159295D01*
X52770255Y-47295684D01*
X52763500Y-47357866D01*
X52763500Y-48654134D01*
X52770255Y-48716316D01*
X52821385Y-48852705D01*
X52908739Y-48969261D01*
X53025295Y-49056615D01*
X53033703Y-49059767D01*
X53107730Y-49087519D01*
X53164494Y-49130161D01*
X53189194Y-49196723D01*
X53189500Y-49205501D01*
X53189500Y-49868467D01*
X53169498Y-49936588D01*
X53144783Y-49963880D01*
X53143969Y-49964384D01*
X53138797Y-49969565D01*
X53026242Y-50082316D01*
X53026238Y-50082321D01*
X53021071Y-50087497D01*
X53017231Y-50093727D01*
X53017230Y-50093728D01*
X52934364Y-50228162D01*
X52929791Y-50235580D01*
X52875026Y-50400691D01*
X52864500Y-50503428D01*
X52864500Y-51102572D01*
X52864837Y-51105818D01*
X52864837Y-51105822D01*
X52874537Y-51199306D01*
X52875293Y-51206593D01*
X52877474Y-51213129D01*
X52877474Y-51213131D01*
X52895636Y-51267568D01*
X52930346Y-51371607D01*
X53021884Y-51519531D01*
X53027066Y-51524704D01*
X53128786Y-51626247D01*
X53162865Y-51688530D01*
X53157862Y-51759350D01*
X53128941Y-51804437D01*
X53026246Y-51907312D01*
X53026242Y-51907317D01*
X53021071Y-51912497D01*
X53017231Y-51918727D01*
X53017230Y-51918728D01*
X52940253Y-52043608D01*
X52929791Y-52060580D01*
X52875026Y-52225691D01*
X52864500Y-52328428D01*
X52864500Y-52927572D01*
X52864837Y-52930818D01*
X52864837Y-52930822D01*
X52865323Y-52935500D01*
X52875293Y-53031593D01*
X52877474Y-53038129D01*
X52877474Y-53038131D01*
X52893501Y-53086169D01*
X52930346Y-53196607D01*
X53021884Y-53344531D01*
X53142489Y-53464926D01*
X53142491Y-53464928D01*
X53144997Y-53467429D01*
X53144569Y-53467858D01*
X53182656Y-53521580D01*
X53189500Y-53562542D01*
X53189500Y-53678467D01*
X53169498Y-53746588D01*
X53144783Y-53773880D01*
X53143969Y-53774384D01*
X53138797Y-53779565D01*
X53026242Y-53892316D01*
X53026238Y-53892321D01*
X53021071Y-53897497D01*
X53017231Y-53903727D01*
X53017230Y-53903728D01*
X52950570Y-54011871D01*
X52929791Y-54045580D01*
X52875026Y-54210691D01*
X52874326Y-54217527D01*
X52874325Y-54217530D01*
X52873980Y-54220902D01*
X52864500Y-54313428D01*
X52864500Y-54912572D01*
X52864837Y-54915818D01*
X52864837Y-54915822D01*
X52874538Y-55009315D01*
X52875293Y-55016593D01*
X52877474Y-55023129D01*
X52877474Y-55023131D01*
X52918246Y-55145338D01*
X52930346Y-55181607D01*
X53021884Y-55329531D01*
X53027066Y-55334704D01*
X53128786Y-55436247D01*
X53162865Y-55498530D01*
X53157862Y-55569350D01*
X53128941Y-55614437D01*
X53026246Y-55717312D01*
X53026242Y-55717317D01*
X53021071Y-55722497D01*
X53017231Y-55728727D01*
X53017230Y-55728728D01*
X52931175Y-55868335D01*
X52895375Y-55903485D01*
X52896281Y-55904653D01*
X52890020Y-55909509D01*
X52883193Y-55913547D01*
X52868029Y-55928711D01*
X52852996Y-55941551D01*
X52835643Y-55954159D01*
X52810426Y-55984641D01*
X52806198Y-55989752D01*
X52798208Y-55998532D01*
X52551395Y-56245345D01*
X52542615Y-56253335D01*
X52542613Y-56253337D01*
X52535920Y-56257584D01*
X52530494Y-56263362D01*
X52530493Y-56263363D01*
X52487396Y-56309257D01*
X52484641Y-56312099D01*
X52464073Y-56332667D01*
X52461356Y-56336170D01*
X52453648Y-56345195D01*
X52422028Y-56378867D01*
X52418207Y-56385818D01*
X52418206Y-56385819D01*
X52411697Y-56397658D01*
X52400843Y-56414182D01*
X52393018Y-56424271D01*
X52387696Y-56431132D01*
X52384549Y-56438404D01*
X52384548Y-56438406D01*
X52369346Y-56473535D01*
X52364124Y-56484195D01*
X52341876Y-56524663D01*
X52336541Y-56545441D01*
X52330142Y-56564131D01*
X52321620Y-56583824D01*
X52320380Y-56591655D01*
X52314394Y-56629448D01*
X52311987Y-56641071D01*
X52300500Y-56685812D01*
X52300500Y-56707259D01*
X52298949Y-56726969D01*
X52295594Y-56748152D01*
X52296340Y-56756043D01*
X52299941Y-56794138D01*
X52300500Y-56805996D01*
X52300500Y-57858060D01*
X52280498Y-57926181D01*
X52226842Y-57972674D01*
X52156568Y-57982778D01*
X52091988Y-57953284D01*
X52058951Y-57908303D01*
X52025054Y-57830347D01*
X52001354Y-57775840D01*
X51952932Y-57700991D01*
X51882822Y-57592617D01*
X51882820Y-57592614D01*
X51880014Y-57588277D01*
X51729670Y-57423051D01*
X51725619Y-57419852D01*
X51725615Y-57419848D01*
X51558414Y-57287800D01*
X51558410Y-57287798D01*
X51554359Y-57284598D01*
X51513053Y-57261796D01*
X51463084Y-57211364D01*
X51448312Y-57141921D01*
X51473428Y-57075516D01*
X51500780Y-57048909D01*
X51569826Y-56999659D01*
X51679860Y-56921173D01*
X51838096Y-56763489D01*
X51843447Y-56756043D01*
X51965435Y-56586277D01*
X51968453Y-56582077D01*
X51977319Y-56564139D01*
X52065136Y-56386453D01*
X52065137Y-56386451D01*
X52067430Y-56381811D01*
X52132370Y-56168069D01*
X52161529Y-55946590D01*
X52161652Y-55941552D01*
X52163074Y-55883365D01*
X52163074Y-55883361D01*
X52163156Y-55880000D01*
X52144852Y-55657361D01*
X52090431Y-55440702D01*
X52001354Y-55235840D01*
X51930908Y-55126947D01*
X51882822Y-55052617D01*
X51882820Y-55052614D01*
X51880014Y-55048277D01*
X51729670Y-54883051D01*
X51725619Y-54879852D01*
X51725615Y-54879848D01*
X51558414Y-54747800D01*
X51558410Y-54747798D01*
X51554359Y-54744598D01*
X51513053Y-54721796D01*
X51463084Y-54671364D01*
X51448312Y-54601921D01*
X51473428Y-54535516D01*
X51500780Y-54508909D01*
X51559704Y-54466879D01*
X51679860Y-54381173D01*
X51710934Y-54350208D01*
X51794931Y-54266503D01*
X51838096Y-54223489D01*
X51858935Y-54194489D01*
X51965435Y-54046277D01*
X51968453Y-54042077D01*
X51978948Y-54020843D01*
X52065136Y-53846453D01*
X52065137Y-53846451D01*
X52067430Y-53841811D01*
X52132370Y-53628069D01*
X52161529Y-53406590D01*
X52161684Y-53400240D01*
X52163074Y-53343365D01*
X52163074Y-53343361D01*
X52163156Y-53340000D01*
X52144852Y-53117361D01*
X52090431Y-52900702D01*
X52001354Y-52695840D01*
X51942806Y-52605338D01*
X51882822Y-52512617D01*
X51882820Y-52512614D01*
X51880014Y-52508277D01*
X51876540Y-52504459D01*
X51876533Y-52504450D01*
X51732435Y-52346088D01*
X51701383Y-52282242D01*
X51709779Y-52211744D01*
X51754956Y-52156976D01*
X51781400Y-52143307D01*
X51888052Y-52103325D01*
X51903649Y-52094786D01*
X52005724Y-52018285D01*
X52018285Y-52005724D01*
X52094786Y-51903649D01*
X52103324Y-51888054D01*
X52148478Y-51767606D01*
X52152105Y-51752351D01*
X52157631Y-51701486D01*
X52158000Y-51694672D01*
X52158000Y-51072115D01*
X52153525Y-51056876D01*
X52152135Y-51055671D01*
X52144452Y-51054000D01*
X49460116Y-51054000D01*
X49444877Y-51058475D01*
X49443672Y-51059865D01*
X49442001Y-51067548D01*
X49442001Y-51694669D01*
X49442371Y-51701490D01*
X49447895Y-51752352D01*
X49451521Y-51767604D01*
X49496676Y-51888054D01*
X49505214Y-51903649D01*
X49581715Y-52005724D01*
X49594276Y-52018285D01*
X49696351Y-52094786D01*
X49711946Y-52103324D01*
X49820827Y-52144142D01*
X49877591Y-52186784D01*
X49902291Y-52253345D01*
X49887083Y-52322694D01*
X49867691Y-52349175D01*
X49844005Y-52373961D01*
X49740629Y-52482138D01*
X49737720Y-52486403D01*
X49737714Y-52486411D01*
X49725409Y-52504450D01*
X49614743Y-52666680D01*
X49601054Y-52696171D01*
X49546083Y-52814597D01*
X49520688Y-52869305D01*
X49460989Y-53084570D01*
X49437251Y-53306695D01*
X49437548Y-53311848D01*
X49437548Y-53311851D01*
X49446920Y-53474384D01*
X49450110Y-53529715D01*
X49451247Y-53534761D01*
X49451248Y-53534767D01*
X49456644Y-53558709D01*
X49499222Y-53747639D01*
X49583266Y-53954616D01*
X49585965Y-53959020D01*
X49697291Y-54140688D01*
X49699987Y-54145088D01*
X49846250Y-54313938D01*
X50018126Y-54456632D01*
X50088595Y-54497811D01*
X50091445Y-54499476D01*
X50140169Y-54551114D01*
X50153240Y-54620897D01*
X50126509Y-54686669D01*
X50086055Y-54720027D01*
X50073607Y-54726507D01*
X50069474Y-54729610D01*
X50069471Y-54729612D01*
X49905648Y-54852614D01*
X49894965Y-54860635D01*
X49891393Y-54864373D01*
X49746753Y-55015730D01*
X49740629Y-55022138D01*
X49737720Y-55026403D01*
X49737714Y-55026411D01*
X49706668Y-55071923D01*
X49614743Y-55206680D01*
X49520688Y-55409305D01*
X49460989Y-55624570D01*
X49437251Y-55846695D01*
X49437548Y-55851848D01*
X49437548Y-55851851D01*
X49443202Y-55949908D01*
X49450110Y-56069715D01*
X49451247Y-56074761D01*
X49451248Y-56074767D01*
X49459877Y-56113054D01*
X49499222Y-56287639D01*
X49557488Y-56431132D01*
X49581072Y-56489212D01*
X49583266Y-56494616D01*
X49614406Y-56545432D01*
X49697291Y-56680688D01*
X49699987Y-56685088D01*
X49846250Y-56853938D01*
X50018126Y-56996632D01*
X50088595Y-57037811D01*
X50091445Y-57039476D01*
X50140169Y-57091114D01*
X50153240Y-57160897D01*
X50126509Y-57226669D01*
X50086055Y-57260027D01*
X50073607Y-57266507D01*
X50069474Y-57269610D01*
X50069471Y-57269612D01*
X49899100Y-57397530D01*
X49894965Y-57400635D01*
X49740629Y-57562138D01*
X49737720Y-57566403D01*
X49737714Y-57566411D01*
X49671329Y-57663728D01*
X49614743Y-57746680D01*
X49598055Y-57782632D01*
X49530952Y-57927194D01*
X49520688Y-57949305D01*
X49460989Y-58164570D01*
X49437251Y-58386695D01*
X49437548Y-58391848D01*
X49437548Y-58391851D01*
X49443011Y-58486590D01*
X49450110Y-58609715D01*
X49451247Y-58614761D01*
X49451248Y-58614767D01*
X49471119Y-58702939D01*
X49499222Y-58827639D01*
X49583266Y-59034616D01*
X49585965Y-59039020D01*
X49697291Y-59220688D01*
X49699987Y-59225088D01*
X49846250Y-59393938D01*
X50018126Y-59536632D01*
X50088595Y-59577811D01*
X50091445Y-59579476D01*
X50140169Y-59631114D01*
X50153240Y-59700897D01*
X50126509Y-59766669D01*
X50086055Y-59800027D01*
X50073607Y-59806507D01*
X50069474Y-59809610D01*
X50069471Y-59809612D01*
X49899100Y-59937530D01*
X49894965Y-59940635D01*
X49740629Y-60102138D01*
X49737715Y-60106410D01*
X49737714Y-60106411D01*
X49708757Y-60148861D01*
X49614743Y-60286680D01*
X49578977Y-60363732D01*
X49536419Y-60455416D01*
X49520688Y-60489305D01*
X49460989Y-60704570D01*
X49437251Y-60926695D01*
X49437548Y-60931848D01*
X49437548Y-60931851D01*
X49443463Y-61034429D01*
X49450110Y-61149715D01*
X49451247Y-61154761D01*
X49451248Y-61154767D01*
X49468407Y-61230905D01*
X49499222Y-61367639D01*
X49552660Y-61499242D01*
X49576958Y-61559080D01*
X49583266Y-61574616D01*
X49585965Y-61579020D01*
X49686284Y-61742726D01*
X49699987Y-61765088D01*
X49846250Y-61933938D01*
X50018126Y-62076632D01*
X50057546Y-62099667D01*
X50091445Y-62119476D01*
X50140169Y-62171114D01*
X50153240Y-62240897D01*
X50126509Y-62306669D01*
X50086055Y-62340027D01*
X50073607Y-62346507D01*
X50069474Y-62349610D01*
X50069471Y-62349612D01*
X49936947Y-62449114D01*
X49894965Y-62480635D01*
X49740629Y-62642138D01*
X49614743Y-62826680D01*
X49599003Y-62860590D01*
X49528720Y-63012002D01*
X49520688Y-63029305D01*
X49460989Y-63244570D01*
X49437251Y-63466695D01*
X49437548Y-63471848D01*
X49437548Y-63471851D01*
X49448521Y-63662151D01*
X49450110Y-63689715D01*
X49451247Y-63694761D01*
X49451248Y-63694767D01*
X49464221Y-63752330D01*
X49499222Y-63907639D01*
X49583266Y-64114616D01*
X49585965Y-64119020D01*
X49682098Y-64275895D01*
X49699987Y-64305088D01*
X49846250Y-64473938D01*
X50018126Y-64616632D01*
X50053875Y-64637522D01*
X50091445Y-64659476D01*
X50140169Y-64711114D01*
X50153240Y-64780897D01*
X50126509Y-64846669D01*
X50086055Y-64880027D01*
X50073607Y-64886507D01*
X50069474Y-64889610D01*
X50069471Y-64889612D01*
X49899100Y-65017530D01*
X49894965Y-65020635D01*
X49740629Y-65182138D01*
X49737715Y-65186410D01*
X49737714Y-65186411D01*
X49657452Y-65304071D01*
X49614743Y-65366680D01*
X49580818Y-65439765D01*
X49536419Y-65535416D01*
X49520688Y-65569305D01*
X49460989Y-65784570D01*
X49437251Y-66006695D01*
X49437548Y-66011848D01*
X49437548Y-66011851D01*
X49444612Y-66134364D01*
X49450110Y-66229715D01*
X49451247Y-66234761D01*
X49451248Y-66234767D01*
X49453741Y-66245828D01*
X49499222Y-66447639D01*
X49547786Y-66567238D01*
X49577463Y-66640324D01*
X49583266Y-66654616D01*
X49585965Y-66659020D01*
X49674240Y-66803072D01*
X49699987Y-66845088D01*
X49846250Y-67013938D01*
X50018126Y-67156632D01*
X50071199Y-67187645D01*
X50091445Y-67199476D01*
X50140169Y-67251114D01*
X50153240Y-67320897D01*
X50126509Y-67386669D01*
X50086055Y-67420027D01*
X50073607Y-67426507D01*
X50069474Y-67429610D01*
X50069471Y-67429612D01*
X49899100Y-67557530D01*
X49894965Y-67560635D01*
X49891393Y-67564373D01*
X49802228Y-67657679D01*
X49740629Y-67722138D01*
X49614743Y-67906680D01*
X49599003Y-67940590D01*
X49524321Y-68101479D01*
X49520688Y-68109305D01*
X49460989Y-68324570D01*
X49437251Y-68546695D01*
X49437548Y-68551848D01*
X49437548Y-68551851D01*
X49446824Y-68712723D01*
X49450110Y-68769715D01*
X49451247Y-68774761D01*
X49451248Y-68774767D01*
X49464611Y-68834061D01*
X49499222Y-68987639D01*
X49583266Y-69194616D01*
X49634019Y-69277438D01*
X49678575Y-69350146D01*
X49699987Y-69385088D01*
X49846250Y-69553938D01*
X50018126Y-69696632D01*
X50071199Y-69727645D01*
X50091445Y-69739476D01*
X50140169Y-69791114D01*
X50153240Y-69860897D01*
X50126509Y-69926669D01*
X50086055Y-69960027D01*
X50073607Y-69966507D01*
X50069474Y-69969610D01*
X50069471Y-69969612D01*
X49934500Y-70070951D01*
X49894965Y-70100635D01*
X49740629Y-70262138D01*
X49614743Y-70446680D01*
X49520688Y-70649305D01*
X49460989Y-70864570D01*
X49437251Y-71086695D01*
X49437548Y-71091848D01*
X49437548Y-71091851D01*
X49444465Y-71211816D01*
X49450110Y-71309715D01*
X49451247Y-71314761D01*
X49451248Y-71314767D01*
X49451519Y-71315969D01*
X49499222Y-71527639D01*
X49583266Y-71734616D01*
X49699987Y-71925088D01*
X49846250Y-72093938D01*
X50018126Y-72236632D01*
X50088595Y-72277811D01*
X50091445Y-72279476D01*
X50140169Y-72331114D01*
X50153240Y-72400897D01*
X50126509Y-72466669D01*
X50086055Y-72500027D01*
X50073607Y-72506507D01*
X50069474Y-72509610D01*
X50069471Y-72509612D01*
X49899100Y-72637530D01*
X49894965Y-72640635D01*
X49740629Y-72802138D01*
X49614743Y-72986680D01*
X49600341Y-73017707D01*
X49525903Y-73178071D01*
X49520688Y-73189305D01*
X49460989Y-73404570D01*
X49437251Y-73626695D01*
X49437548Y-73631848D01*
X49437548Y-73631851D01*
X49443011Y-73726590D01*
X49450110Y-73849715D01*
X49451247Y-73854761D01*
X49451248Y-73854767D01*
X49456700Y-73878958D01*
X49499222Y-74067639D01*
X49583266Y-74274616D01*
X49699987Y-74465088D01*
X49846250Y-74633938D01*
X50018126Y-74776632D01*
X50065853Y-74804521D01*
X50091445Y-74819476D01*
X50140169Y-74871114D01*
X50153240Y-74940897D01*
X50126509Y-75006669D01*
X50086055Y-75040027D01*
X50073607Y-75046507D01*
X50069474Y-75049610D01*
X50069471Y-75049612D01*
X49899100Y-75177530D01*
X49894965Y-75180635D01*
X49740629Y-75342138D01*
X49737715Y-75346410D01*
X49737714Y-75346411D01*
X49688538Y-75418500D01*
X49614743Y-75526680D01*
X49581294Y-75598740D01*
X49532961Y-75702866D01*
X49520688Y-75729305D01*
X49460989Y-75944570D01*
X49437251Y-76166695D01*
X49437548Y-76171848D01*
X49437548Y-76171851D01*
X49444880Y-76299008D01*
X49450110Y-76389715D01*
X49451247Y-76394761D01*
X49451248Y-76394767D01*
X49471119Y-76482939D01*
X49499222Y-76607639D01*
X49583266Y-76814616D01*
X49590795Y-76826902D01*
X49672792Y-76960709D01*
X49699987Y-77005088D01*
X49846250Y-77173938D01*
X50018126Y-77316632D01*
X50211000Y-77429338D01*
X50419692Y-77509030D01*
X50424760Y-77510061D01*
X50424763Y-77510062D01*
X50512578Y-77527928D01*
X50638597Y-77553567D01*
X50643772Y-77553757D01*
X50643774Y-77553757D01*
X50856673Y-77561564D01*
X50856677Y-77561564D01*
X50861837Y-77561753D01*
X50866957Y-77561097D01*
X50866959Y-77561097D01*
X51078288Y-77534025D01*
X51078289Y-77534025D01*
X51083416Y-77533368D01*
X51088366Y-77531883D01*
X51292429Y-77470661D01*
X51292434Y-77470659D01*
X51297384Y-77469174D01*
X51497994Y-77370896D01*
X51679860Y-77241173D01*
X51683523Y-77237523D01*
X51777619Y-77143757D01*
X51839991Y-77109841D01*
X51910797Y-77115030D01*
X51955653Y-77143913D01*
X52192645Y-77380905D01*
X52226671Y-77443217D01*
X52221606Y-77514032D01*
X52192645Y-77559095D01*
X51916395Y-77835345D01*
X51907615Y-77843335D01*
X51907613Y-77843337D01*
X51900920Y-77847584D01*
X51895494Y-77853362D01*
X51895493Y-77853363D01*
X51852396Y-77899257D01*
X51849641Y-77902099D01*
X51829073Y-77922667D01*
X51826356Y-77926170D01*
X51818648Y-77935195D01*
X51787028Y-77968867D01*
X51783207Y-77975818D01*
X51783206Y-77975819D01*
X51776697Y-77987658D01*
X51765843Y-78004182D01*
X51758018Y-78014271D01*
X51752696Y-78021132D01*
X51749549Y-78028404D01*
X51749548Y-78028406D01*
X51734346Y-78063535D01*
X51729124Y-78074195D01*
X51706876Y-78114663D01*
X51701541Y-78135441D01*
X51695142Y-78154131D01*
X51686620Y-78173824D01*
X51679687Y-78217596D01*
X51679394Y-78219448D01*
X51676987Y-78231071D01*
X51665500Y-78275812D01*
X51665500Y-78297259D01*
X51663949Y-78316969D01*
X51660594Y-78338152D01*
X51662069Y-78353750D01*
X51664941Y-78384138D01*
X51665500Y-78395996D01*
X51665500Y-79927944D01*
X51664941Y-79939800D01*
X51663212Y-79947537D01*
X51663461Y-79955459D01*
X51665438Y-80018369D01*
X51665500Y-80022327D01*
X51665500Y-80051432D01*
X51666056Y-80055832D01*
X51666988Y-80067664D01*
X51668438Y-80113831D01*
X51670650Y-80121444D01*
X51670650Y-80121445D01*
X51674419Y-80134416D01*
X51678430Y-80153782D01*
X51681118Y-80175064D01*
X51684034Y-80182429D01*
X51684035Y-80182433D01*
X51698126Y-80218021D01*
X51701965Y-80229231D01*
X51714855Y-80273600D01*
X51725775Y-80292065D01*
X51734466Y-80309805D01*
X51742365Y-80329756D01*
X51761796Y-80356500D01*
X51769516Y-80367126D01*
X51776033Y-80377048D01*
X51795507Y-80409977D01*
X51795510Y-80409981D01*
X51799547Y-80416807D01*
X51814711Y-80431971D01*
X51827551Y-80447004D01*
X51840159Y-80464357D01*
X51862628Y-80482945D01*
X51875759Y-80493808D01*
X51884538Y-80501798D01*
X52031238Y-80648498D01*
X52065264Y-80710810D01*
X52060199Y-80781625D01*
X52017652Y-80838461D01*
X51994799Y-80852062D01*
X51818047Y-80933359D01*
X51815113Y-80935115D01*
X51815111Y-80935116D01*
X51809141Y-80938689D01*
X51515194Y-81114613D01*
X51233687Y-81327515D01*
X50976820Y-81569574D01*
X50974608Y-81572164D01*
X50974607Y-81572165D01*
X50774440Y-81806531D01*
X50747598Y-81837959D01*
X50548702Y-82129530D01*
X50382458Y-82440876D01*
X50381183Y-82444048D01*
X50381181Y-82444052D01*
X50263213Y-82737510D01*
X50250813Y-82768355D01*
X50249894Y-82771623D01*
X50249892Y-82771630D01*
X50157071Y-83101850D01*
X50155304Y-83108136D01*
X50154743Y-83111489D01*
X50154742Y-83111493D01*
X50131596Y-83249812D01*
X50097051Y-83456245D01*
X50076734Y-83808609D01*
X50094591Y-84161106D01*
X50095128Y-84164461D01*
X50095129Y-84164467D01*
X50129545Y-84379335D01*
X50150412Y-84509613D01*
X50243546Y-84850053D01*
X50372903Y-85178443D01*
X50374486Y-85181458D01*
X50535384Y-85487926D01*
X50535389Y-85487934D01*
X50536968Y-85490942D01*
X50538862Y-85493760D01*
X50538867Y-85493769D01*
X50708980Y-85746923D01*
X50733824Y-85783895D01*
X50961167Y-86053873D01*
X50963627Y-86056224D01*
X50963630Y-86056227D01*
X51213875Y-86295366D01*
X51213882Y-86295372D01*
X51216338Y-86297719D01*
X51496351Y-86512581D01*
X51596833Y-86573675D01*
X51795017Y-86694173D01*
X51795022Y-86694176D01*
X51797932Y-86695945D01*
X51801020Y-86697391D01*
X51801019Y-86697391D01*
X52114468Y-86844222D01*
X52114478Y-86844226D01*
X52117552Y-86845666D01*
X52120770Y-86846768D01*
X52120773Y-86846769D01*
X52448241Y-86958887D01*
X52448245Y-86958888D01*
X52451472Y-86959993D01*
X52454802Y-86960743D01*
X52454811Y-86960746D01*
X52698164Y-87015587D01*
X52795786Y-87037587D01*
X52799171Y-87037973D01*
X52799179Y-87037974D01*
X53143083Y-87077157D01*
X53143091Y-87077157D01*
X53146466Y-87077542D01*
X53149870Y-87077560D01*
X53149873Y-87077560D01*
X53341627Y-87078564D01*
X53499411Y-87079390D01*
X53502797Y-87079040D01*
X53502799Y-87079040D01*
X53847098Y-87043461D01*
X53847107Y-87043460D01*
X53850490Y-87043110D01*
X53853823Y-87042396D01*
X53853826Y-87042395D01*
X54023692Y-87005979D01*
X54195598Y-86969125D01*
X54530697Y-86858301D01*
X54851867Y-86711936D01*
X55044108Y-86597792D01*
X55152407Y-86533489D01*
X55152412Y-86533486D01*
X55155352Y-86531740D01*
X55165981Y-86523760D01*
X55434867Y-86321874D01*
X55437600Y-86319822D01*
X55695310Y-86078661D01*
X55925468Y-85811078D01*
X56125380Y-85520203D01*
X56126992Y-85517209D01*
X56126997Y-85517201D01*
X56291087Y-85212452D01*
X56292709Y-85209440D01*
X56425498Y-84882422D01*
X56433816Y-84853223D01*
X56481449Y-84686003D01*
X56522191Y-84542976D01*
X56569389Y-84266855D01*
X56581087Y-84198420D01*
X56581087Y-84198418D01*
X56581659Y-84195073D01*
X56583945Y-84157711D01*
X56603096Y-83844580D01*
X56603206Y-83842782D01*
X56603286Y-83820000D01*
X56584199Y-83467567D01*
X56527161Y-83119257D01*
X56480873Y-82952348D01*
X56481943Y-82881360D01*
X56521222Y-82822219D01*
X56586240Y-82793702D01*
X56633627Y-82796635D01*
X56662312Y-82804000D01*
X56683759Y-82804000D01*
X56703469Y-82805551D01*
X56724652Y-82808906D01*
X56770641Y-82804559D01*
X56782496Y-82804000D01*
X57234060Y-82804000D01*
X57302181Y-82824002D01*
X57332806Y-82851736D01*
X57336032Y-82855806D01*
X57339884Y-82862031D01*
X57345065Y-82867203D01*
X57446786Y-82968747D01*
X57480865Y-83031030D01*
X57475862Y-83101850D01*
X57446941Y-83146937D01*
X57344246Y-83249812D01*
X57344242Y-83249817D01*
X57339071Y-83254997D01*
X57335231Y-83261227D01*
X57335230Y-83261228D01*
X57252364Y-83395662D01*
X57247791Y-83403080D01*
X57193026Y-83568191D01*
X57182500Y-83670928D01*
X57182500Y-84270072D01*
X57193293Y-84374093D01*
X57248346Y-84539107D01*
X57339884Y-84687031D01*
X57345066Y-84692204D01*
X57457816Y-84804758D01*
X57457819Y-84804760D01*
X57462997Y-84809929D01*
X57469227Y-84813769D01*
X57469228Y-84813770D01*
X57533233Y-84853223D01*
X57611080Y-84901209D01*
X57776191Y-84955974D01*
X57783027Y-84956674D01*
X57783030Y-84956675D01*
X57834526Y-84961951D01*
X57878928Y-84966500D01*
X58453072Y-84966500D01*
X58456318Y-84966163D01*
X58456322Y-84966163D01*
X58550235Y-84956419D01*
X58550239Y-84956418D01*
X58557093Y-84955707D01*
X58563629Y-84953526D01*
X58563631Y-84953526D01*
X58696395Y-84909232D01*
X58722107Y-84900654D01*
X58870031Y-84809116D01*
X58895802Y-84783300D01*
X58942199Y-84736822D01*
X59004481Y-84702743D01*
X59075290Y-84707742D01*
X59215668Y-84759948D01*
X59299495Y-84771133D01*
X59388480Y-84783007D01*
X59388484Y-84783007D01*
X59395461Y-84783938D01*
X59402472Y-84783300D01*
X59402476Y-84783300D01*
X59544959Y-84770332D01*
X59576100Y-84767498D01*
X59582802Y-84765320D01*
X59582804Y-84765320D01*
X59741909Y-84713624D01*
X59741912Y-84713623D01*
X59748608Y-84711447D01*
X59761937Y-84703502D01*
X59830689Y-84685801D01*
X59898099Y-84708082D01*
X59915471Y-84722557D01*
X59997812Y-84804754D01*
X59997817Y-84804758D01*
X60002997Y-84809929D01*
X60009227Y-84813769D01*
X60009228Y-84813770D01*
X60073233Y-84853223D01*
X60151080Y-84901209D01*
X60316191Y-84955974D01*
X60323027Y-84956674D01*
X60323030Y-84956675D01*
X60374526Y-84961951D01*
X60418928Y-84966500D01*
X60993072Y-84966500D01*
X60996318Y-84966163D01*
X60996322Y-84966163D01*
X61090235Y-84956419D01*
X61090239Y-84956418D01*
X61097093Y-84955707D01*
X61103629Y-84953526D01*
X61103631Y-84953526D01*
X61236395Y-84909232D01*
X61262107Y-84900654D01*
X61410031Y-84809116D01*
X61435802Y-84783300D01*
X61527758Y-84691184D01*
X61527762Y-84691179D01*
X61532929Y-84686003D01*
X61548161Y-84661292D01*
X61620369Y-84544150D01*
X61620370Y-84544148D01*
X61624209Y-84537920D01*
X61678974Y-84372809D01*
X61689500Y-84270072D01*
X61689500Y-83670928D01*
X61678707Y-83566907D01*
X61623654Y-83401893D01*
X61532116Y-83253969D01*
X61485235Y-83207170D01*
X61425214Y-83147253D01*
X61391135Y-83084970D01*
X61396138Y-83014150D01*
X61425059Y-82969063D01*
X61527754Y-82866188D01*
X61527758Y-82866183D01*
X61532929Y-82861003D01*
X61574414Y-82793702D01*
X61620369Y-82719150D01*
X61620370Y-82719148D01*
X61624209Y-82712920D01*
X61678974Y-82547809D01*
X61689500Y-82445072D01*
X61689500Y-82067111D01*
X61698348Y-82020728D01*
X61700307Y-82015781D01*
X61704124Y-82008837D01*
X61709457Y-81988066D01*
X61715859Y-81969364D01*
X61724379Y-81949677D01*
X61731605Y-81904052D01*
X61734013Y-81892426D01*
X61743529Y-81855365D01*
X61743529Y-81855364D01*
X61745500Y-81847688D01*
X61745500Y-81826242D01*
X61747051Y-81806531D01*
X61749166Y-81793178D01*
X61750406Y-81785349D01*
X61746059Y-81739364D01*
X61745500Y-81727506D01*
X61745500Y-79513504D01*
X61765502Y-79445383D01*
X61819158Y-79398890D01*
X61836338Y-79392510D01*
X61843893Y-79390314D01*
X61846412Y-79389583D01*
X61865782Y-79385570D01*
X61872770Y-79384688D01*
X61879204Y-79383875D01*
X61879205Y-79383875D01*
X61887064Y-79382882D01*
X61894429Y-79379966D01*
X61894433Y-79379965D01*
X61930021Y-79365874D01*
X61941231Y-79362035D01*
X61985600Y-79349145D01*
X62004065Y-79338225D01*
X62021805Y-79329534D01*
X62041756Y-79321635D01*
X62079129Y-79294482D01*
X62089048Y-79287967D01*
X62121977Y-79268493D01*
X62121981Y-79268490D01*
X62128807Y-79264453D01*
X62143971Y-79249289D01*
X62159005Y-79236448D01*
X62169943Y-79228501D01*
X62176357Y-79223841D01*
X62205803Y-79188247D01*
X62213792Y-79179468D01*
X63010549Y-78382711D01*
X63072861Y-78348685D01*
X63143676Y-78353750D01*
X63200512Y-78396297D01*
X63225323Y-78462817D01*
X63224047Y-78486138D01*
X63224438Y-78486169D01*
X63221500Y-78523498D01*
X63221500Y-78956502D01*
X63221693Y-78958950D01*
X63221693Y-78958958D01*
X63223656Y-78983893D01*
X63224438Y-78993831D01*
X63270855Y-79153601D01*
X63355547Y-79296807D01*
X63358229Y-79299489D01*
X63383502Y-79363861D01*
X63369600Y-79433484D01*
X63359428Y-79449312D01*
X63355547Y-79453193D01*
X63270855Y-79596399D01*
X63268644Y-79604010D01*
X63268643Y-79604012D01*
X63262075Y-79626620D01*
X63224438Y-79756169D01*
X63223934Y-79762574D01*
X63223933Y-79762579D01*
X63221693Y-79791042D01*
X63221500Y-79793498D01*
X63221500Y-80226502D01*
X63221693Y-80228950D01*
X63221693Y-80228958D01*
X63221717Y-80229255D01*
X63224438Y-80263831D01*
X63226231Y-80270003D01*
X63226232Y-80270008D01*
X63241450Y-80322387D01*
X63269716Y-80419678D01*
X63270166Y-80421228D01*
X63269963Y-80492224D01*
X63238264Y-80545476D01*
X63092390Y-80691350D01*
X63083611Y-80699338D01*
X63076920Y-80703584D01*
X63071494Y-80709362D01*
X63028395Y-80755258D01*
X63025640Y-80758100D01*
X63005073Y-80778667D01*
X63002356Y-80782170D01*
X62994648Y-80791195D01*
X62963028Y-80824867D01*
X62959207Y-80831818D01*
X62959206Y-80831819D01*
X62952697Y-80843658D01*
X62941843Y-80860182D01*
X62934018Y-80870271D01*
X62928696Y-80877132D01*
X62925549Y-80884404D01*
X62925548Y-80884406D01*
X62910346Y-80919535D01*
X62905124Y-80930195D01*
X62897260Y-80944500D01*
X62882876Y-80970663D01*
X62877541Y-80991441D01*
X62871142Y-81010131D01*
X62862620Y-81029824D01*
X62861380Y-81037655D01*
X62855394Y-81075448D01*
X62852987Y-81087071D01*
X62841500Y-81131812D01*
X62841500Y-81153259D01*
X62839949Y-81172969D01*
X62836594Y-81194152D01*
X62837340Y-81202044D01*
X62837091Y-81209967D01*
X62835792Y-81209926D01*
X62823830Y-81271670D01*
X62795349Y-81306265D01*
X62795969Y-81306884D01*
X62678242Y-81424816D01*
X62678238Y-81424821D01*
X62673071Y-81429997D01*
X62669231Y-81436227D01*
X62669230Y-81436228D01*
X62586364Y-81570662D01*
X62581791Y-81578080D01*
X62527026Y-81743191D01*
X62526326Y-81750027D01*
X62526325Y-81750030D01*
X62521049Y-81801526D01*
X62516500Y-81845928D01*
X62516500Y-82445072D01*
X62516837Y-82448318D01*
X62516837Y-82448322D01*
X62517137Y-82451208D01*
X62527293Y-82549093D01*
X62582346Y-82714107D01*
X62673884Y-82862031D01*
X62679065Y-82867203D01*
X62679066Y-82867204D01*
X62780786Y-82968747D01*
X62814865Y-83031030D01*
X62809862Y-83101850D01*
X62780941Y-83146937D01*
X62678246Y-83249812D01*
X62678242Y-83249817D01*
X62673071Y-83254997D01*
X62669231Y-83261227D01*
X62669230Y-83261228D01*
X62586364Y-83395662D01*
X62581791Y-83403080D01*
X62527026Y-83568191D01*
X62516500Y-83670928D01*
X62516500Y-84270072D01*
X62527293Y-84374093D01*
X62582346Y-84539107D01*
X62673884Y-84687031D01*
X62679066Y-84692204D01*
X62709472Y-84722557D01*
X62794489Y-84807426D01*
X62794491Y-84807428D01*
X62796997Y-84809929D01*
X62796569Y-84810358D01*
X62834656Y-84864080D01*
X62841500Y-84905042D01*
X62841500Y-86023944D01*
X62840941Y-86035800D01*
X62839212Y-86043537D01*
X62839461Y-86051459D01*
X62841438Y-86114369D01*
X62841500Y-86118327D01*
X62841500Y-86147432D01*
X62842056Y-86151832D01*
X62842988Y-86163664D01*
X62844438Y-86209831D01*
X62846650Y-86217444D01*
X62846650Y-86217445D01*
X62850419Y-86230416D01*
X62854430Y-86249782D01*
X62857118Y-86271064D01*
X62860034Y-86278429D01*
X62860035Y-86278433D01*
X62874126Y-86314021D01*
X62877965Y-86325231D01*
X62890855Y-86369600D01*
X62901775Y-86388065D01*
X62910466Y-86405805D01*
X62918365Y-86425756D01*
X62933416Y-86446472D01*
X62945516Y-86463126D01*
X62952033Y-86473048D01*
X62971507Y-86505977D01*
X62971510Y-86505981D01*
X62975547Y-86512807D01*
X62990711Y-86527971D01*
X63003551Y-86543004D01*
X63016159Y-86560357D01*
X63051752Y-86589802D01*
X63060532Y-86597792D01*
X64373341Y-87910600D01*
X64381331Y-87919381D01*
X64381339Y-87919390D01*
X64385584Y-87926080D01*
X64437273Y-87974619D01*
X64440115Y-87977374D01*
X64460667Y-87997926D01*
X64463801Y-88000357D01*
X64464163Y-88000638D01*
X64473191Y-88008348D01*
X64506867Y-88039972D01*
X64513818Y-88043793D01*
X64513819Y-88043794D01*
X64525655Y-88050301D01*
X64542184Y-88061158D01*
X64552869Y-88069447D01*
X64552871Y-88069448D01*
X64559131Y-88074304D01*
X64601544Y-88092657D01*
X64612181Y-88097868D01*
X64652663Y-88120124D01*
X64660342Y-88122096D01*
X64660343Y-88122096D01*
X64673434Y-88125457D01*
X64692136Y-88131859D01*
X64711823Y-88140379D01*
X64719651Y-88141619D01*
X64727266Y-88143831D01*
X64726620Y-88146054D01*
X64780219Y-88171463D01*
X64817746Y-88231731D01*
X64816733Y-88302720D01*
X64777501Y-88361893D01*
X64712506Y-88390461D01*
X64696356Y-88391500D01*
X53389367Y-88391500D01*
X53369982Y-88390000D01*
X53355149Y-88387690D01*
X53355145Y-88387690D01*
X53346276Y-88386309D01*
X53325817Y-88388984D01*
X53303992Y-88389928D01*
X52947063Y-88374344D01*
X52936114Y-88373386D01*
X52551621Y-88322767D01*
X52540795Y-88320858D01*
X52162178Y-88236920D01*
X52151561Y-88234075D01*
X51880258Y-88148534D01*
X51781698Y-88117458D01*
X51771385Y-88113705D01*
X51413068Y-87965285D01*
X51403124Y-87960647D01*
X51059132Y-87781576D01*
X51049613Y-87776081D01*
X50722532Y-87567708D01*
X50713528Y-87561403D01*
X50405862Y-87325322D01*
X50397442Y-87318257D01*
X50167301Y-87107372D01*
X50111513Y-87056252D01*
X50103744Y-87048483D01*
X50099143Y-87043461D01*
X49841743Y-86762558D01*
X49834678Y-86754138D01*
X49598597Y-86446472D01*
X49592292Y-86437468D01*
X49383919Y-86110387D01*
X49378423Y-86100867D01*
X49355185Y-86056227D01*
X49199353Y-85756876D01*
X49194711Y-85746923D01*
X49100801Y-85520203D01*
X49046295Y-85388615D01*
X49042539Y-85378294D01*
X48925925Y-85008439D01*
X48923080Y-84997822D01*
X48839142Y-84619205D01*
X48837233Y-84608379D01*
X48786614Y-84223886D01*
X48785656Y-84212936D01*
X48770561Y-83867208D01*
X48772188Y-83840805D01*
X48772769Y-83837352D01*
X48772770Y-83837345D01*
X48773576Y-83832552D01*
X48773729Y-83820000D01*
X48769773Y-83792376D01*
X48768500Y-83774514D01*
X48768500Y-50527885D01*
X49442000Y-50527885D01*
X49446475Y-50543124D01*
X49447865Y-50544329D01*
X49455548Y-50546000D01*
X50527885Y-50546000D01*
X50543124Y-50541525D01*
X50544329Y-50540135D01*
X50546000Y-50532452D01*
X50546000Y-50527885D01*
X51054000Y-50527885D01*
X51058475Y-50543124D01*
X51059865Y-50544329D01*
X51067548Y-50546000D01*
X52139884Y-50546000D01*
X52155123Y-50541525D01*
X52156328Y-50540135D01*
X52157999Y-50532452D01*
X52157999Y-49905331D01*
X52157629Y-49898510D01*
X52152105Y-49847648D01*
X52148479Y-49832396D01*
X52103324Y-49711946D01*
X52094786Y-49696351D01*
X52018285Y-49594276D01*
X52005724Y-49581715D01*
X51903649Y-49505214D01*
X51888054Y-49496676D01*
X51767606Y-49451522D01*
X51752351Y-49447895D01*
X51701486Y-49442369D01*
X51694672Y-49442000D01*
X51072115Y-49442000D01*
X51056876Y-49446475D01*
X51055671Y-49447865D01*
X51054000Y-49455548D01*
X51054000Y-50527885D01*
X50546000Y-50527885D01*
X50546000Y-49460116D01*
X50541525Y-49444877D01*
X50540135Y-49443672D01*
X50532452Y-49442001D01*
X49905331Y-49442001D01*
X49898510Y-49442371D01*
X49847648Y-49447895D01*
X49832396Y-49451521D01*
X49711946Y-49496676D01*
X49696351Y-49505214D01*
X49594276Y-49581715D01*
X49581715Y-49594276D01*
X49505214Y-49696351D01*
X49496676Y-49711946D01*
X49451522Y-49832394D01*
X49447895Y-49847649D01*
X49442369Y-49898514D01*
X49442000Y-49905328D01*
X49442000Y-50527885D01*
X48768500Y-50527885D01*
X48768500Y-43312703D01*
X51230743Y-43312703D01*
X51231302Y-43316947D01*
X51231302Y-43316951D01*
X51239168Y-43376697D01*
X51268268Y-43597734D01*
X51344129Y-43875036D01*
X51345813Y-43878984D01*
X51450628Y-44124717D01*
X51456923Y-44139476D01*
X51514234Y-44235235D01*
X51575576Y-44337730D01*
X51604561Y-44386161D01*
X51784313Y-44610528D01*
X51874470Y-44696084D01*
X51979876Y-44796110D01*
X51992851Y-44808423D01*
X52226317Y-44976186D01*
X52230112Y-44978195D01*
X52230113Y-44978196D01*
X52251869Y-44989715D01*
X52480392Y-45110712D01*
X52504699Y-45119607D01*
X52692081Y-45188179D01*
X52750373Y-45209511D01*
X53031264Y-45270755D01*
X53059841Y-45273004D01*
X53254282Y-45288307D01*
X53254291Y-45288307D01*
X53256739Y-45288500D01*
X53412271Y-45288500D01*
X53414407Y-45288354D01*
X53414418Y-45288354D01*
X53622548Y-45274165D01*
X53622554Y-45274164D01*
X53626825Y-45273873D01*
X53631020Y-45273004D01*
X53631022Y-45273004D01*
X53767584Y-45244723D01*
X53908342Y-45215574D01*
X54179343Y-45119607D01*
X54434812Y-44987750D01*
X54438313Y-44985289D01*
X54438317Y-44985287D01*
X54621710Y-44856396D01*
X54670023Y-44822441D01*
X54864319Y-44641890D01*
X54877479Y-44629661D01*
X54877481Y-44629658D01*
X54880622Y-44626740D01*
X55062713Y-44404268D01*
X55212927Y-44159142D01*
X55220750Y-44141322D01*
X55326757Y-43899830D01*
X55328483Y-43895898D01*
X55407244Y-43619406D01*
X55447751Y-43334784D01*
X55447845Y-43316951D01*
X55449235Y-43051583D01*
X55449235Y-43051576D01*
X55449257Y-43047297D01*
X55445039Y-43015253D01*
X55421579Y-42837063D01*
X55411732Y-42762266D01*
X55335871Y-42484964D01*
X55272249Y-42335806D01*
X55224763Y-42224476D01*
X55224761Y-42224472D01*
X55223077Y-42220524D01*
X55091285Y-42000315D01*
X55077643Y-41977521D01*
X55077640Y-41977517D01*
X55075439Y-41973839D01*
X54895687Y-41749472D01*
X54743092Y-41604665D01*
X54690258Y-41554527D01*
X54690255Y-41554525D01*
X54687149Y-41551577D01*
X54453683Y-41383814D01*
X54431843Y-41372250D01*
X54400377Y-41355590D01*
X54199608Y-41249288D01*
X54056298Y-41196844D01*
X53933658Y-41151964D01*
X53933656Y-41151963D01*
X53929627Y-41150489D01*
X53648736Y-41089245D01*
X53617685Y-41086801D01*
X53425718Y-41071693D01*
X53425709Y-41071693D01*
X53423261Y-41071500D01*
X53267729Y-41071500D01*
X53265593Y-41071646D01*
X53265582Y-41071646D01*
X53057452Y-41085835D01*
X53057446Y-41085836D01*
X53053175Y-41086127D01*
X53048980Y-41086996D01*
X53048978Y-41086996D01*
X52912417Y-41115276D01*
X52771658Y-41144426D01*
X52500657Y-41240393D01*
X52245188Y-41372250D01*
X52241687Y-41374711D01*
X52241683Y-41374713D01*
X52150693Y-41438662D01*
X52009977Y-41537559D01*
X51994892Y-41551577D01*
X51816719Y-41717146D01*
X51799378Y-41733260D01*
X51617287Y-41955732D01*
X51467073Y-42200858D01*
X51465347Y-42204791D01*
X51465346Y-42204792D01*
X51358655Y-42447842D01*
X51351517Y-42464102D01*
X51350342Y-42468229D01*
X51350341Y-42468230D01*
X51318240Y-42580920D01*
X51272756Y-42740594D01*
X51232249Y-43025216D01*
X51232227Y-43029505D01*
X51232226Y-43029512D01*
X51230765Y-43308417D01*
X51230743Y-43312703D01*
X48768500Y-43312703D01*
X48768500Y-43233250D01*
X48770246Y-43212345D01*
X48772770Y-43197344D01*
X48772770Y-43197341D01*
X48773576Y-43192552D01*
X48773729Y-43180000D01*
X48773039Y-43175184D01*
X48773039Y-43175178D01*
X48771387Y-43163644D01*
X48770234Y-43140284D01*
X48774480Y-43043049D01*
X48785656Y-42787063D01*
X48786614Y-42776114D01*
X48837233Y-42391621D01*
X48839142Y-42380795D01*
X48923080Y-42002178D01*
X48925925Y-41991561D01*
X48995193Y-41771869D01*
X49042542Y-41621698D01*
X49046298Y-41611377D01*
X49046907Y-41609907D01*
X49194715Y-41253068D01*
X49199357Y-41243115D01*
X49209653Y-41223338D01*
X49378424Y-40899132D01*
X49383919Y-40889613D01*
X49592292Y-40562532D01*
X49598597Y-40553528D01*
X49834678Y-40245862D01*
X49841743Y-40237442D01*
X50103744Y-39951517D01*
X50111517Y-39943744D01*
X50397442Y-39681743D01*
X50405862Y-39674678D01*
X50713528Y-39438597D01*
X50722532Y-39432292D01*
X51049613Y-39223919D01*
X51059133Y-39218423D01*
X51403124Y-39039353D01*
X51413068Y-39034715D01*
X51771385Y-38886295D01*
X51781698Y-38882542D01*
X51981298Y-38819608D01*
X52151561Y-38765925D01*
X52162178Y-38763080D01*
X52540795Y-38679142D01*
X52551621Y-38677233D01*
X52936114Y-38626614D01*
X52947063Y-38625656D01*
X53296554Y-38610397D01*
X53321429Y-38611777D01*
X53333724Y-38613691D01*
X53342626Y-38612527D01*
X53342628Y-38612527D01*
X53361399Y-38610072D01*
X53365286Y-38609564D01*
X53381621Y-38608500D01*
X71070633Y-38608500D01*
X71090018Y-38610000D01*
G37*
%TD.AperFunction*%
%TA.AperFunction,Conductor*%
G36*
X63230419Y-71806502D02*
G01*
X63276912Y-71860158D01*
X63287016Y-71930432D01*
X63277934Y-71962542D01*
X63274889Y-71969578D01*
X63270855Y-71976399D01*
X63268645Y-71984005D01*
X63268644Y-71984008D01*
X63261925Y-72007137D01*
X63224438Y-72136169D01*
X63223934Y-72142574D01*
X63223933Y-72142579D01*
X63222470Y-72161173D01*
X63221500Y-72173498D01*
X63221500Y-72606502D01*
X63224438Y-72643831D01*
X63270855Y-72803601D01*
X63355547Y-72946807D01*
X63358229Y-72949489D01*
X63383502Y-73013861D01*
X63369600Y-73083484D01*
X63359428Y-73099312D01*
X63355547Y-73103193D01*
X63270855Y-73246399D01*
X63224438Y-73406169D01*
X63221500Y-73443498D01*
X63221500Y-73876502D01*
X63224438Y-73913831D01*
X63270855Y-74073601D01*
X63355547Y-74216807D01*
X63358229Y-74219489D01*
X63383502Y-74283861D01*
X63369600Y-74353484D01*
X63359428Y-74369312D01*
X63355547Y-74373193D01*
X63270855Y-74516399D01*
X63224438Y-74676169D01*
X63223934Y-74682574D01*
X63223933Y-74682579D01*
X63222470Y-74701173D01*
X63221500Y-74713498D01*
X63221500Y-75146502D01*
X63224438Y-75183831D01*
X63226232Y-75190004D01*
X63226232Y-75190007D01*
X63240312Y-75238469D01*
X63240109Y-75309465D01*
X63201555Y-75369081D01*
X63132485Y-75398932D01*
X63115254Y-75400743D01*
X63078289Y-75404628D01*
X63078288Y-75404628D01*
X63071288Y-75405364D01*
X62899579Y-75463818D01*
X62871665Y-75480991D01*
X62751095Y-75555166D01*
X62751092Y-75555168D01*
X62745088Y-75558862D01*
X62740053Y-75563793D01*
X62740050Y-75563795D01*
X62658142Y-75644006D01*
X62615493Y-75685771D01*
X62517235Y-75838238D01*
X62514826Y-75844858D01*
X62514824Y-75844861D01*
X62457606Y-76002066D01*
X62455197Y-76008685D01*
X62432463Y-76188640D01*
X62450163Y-76369160D01*
X62507418Y-76541273D01*
X62511065Y-76547295D01*
X62511066Y-76547297D01*
X62592602Y-76681929D01*
X62601380Y-76696424D01*
X62611065Y-76706453D01*
X62637793Y-76734131D01*
X62670725Y-76797028D01*
X62664425Y-76867745D01*
X62620893Y-76923829D01*
X62611302Y-76930107D01*
X62585193Y-76945548D01*
X62570032Y-76960709D01*
X62555000Y-76973548D01*
X62537643Y-76986159D01*
X62532590Y-76992267D01*
X62508194Y-77021757D01*
X62500204Y-77030537D01*
X61486145Y-78044595D01*
X61423833Y-78078621D01*
X61397050Y-78081500D01*
X61293009Y-78081500D01*
X61224888Y-78061498D01*
X61178395Y-78007842D01*
X61168291Y-77937568D01*
X61182277Y-77897833D01*
X61181962Y-77897697D01*
X61183904Y-77893209D01*
X61184553Y-77891365D01*
X61189145Y-77883601D01*
X61235562Y-77723831D01*
X61237316Y-77701554D01*
X61238307Y-77688958D01*
X61238307Y-77688950D01*
X61238500Y-77686502D01*
X61238500Y-77253498D01*
X61237530Y-77241173D01*
X61236067Y-77222579D01*
X61236066Y-77222574D01*
X61235562Y-77216169D01*
X61189145Y-77056399D01*
X61123588Y-76945548D01*
X61108493Y-76920024D01*
X61108492Y-76920023D01*
X61104453Y-76913193D01*
X61101513Y-76910253D01*
X61076180Y-76845734D01*
X61090079Y-76776111D01*
X61102126Y-76757364D01*
X61108090Y-76749676D01*
X61184648Y-76620221D01*
X61190893Y-76605790D01*
X61229939Y-76471395D01*
X61229899Y-76457294D01*
X61222630Y-76454000D01*
X58293122Y-76454000D01*
X58279591Y-76457973D01*
X58278456Y-76465871D01*
X58319107Y-76605790D01*
X58325354Y-76620225D01*
X58326026Y-76621362D01*
X58326281Y-76622369D01*
X58328501Y-76627498D01*
X58327674Y-76627856D01*
X58343485Y-76690178D01*
X58320967Y-76757510D01*
X58265623Y-76801978D01*
X58217572Y-76811500D01*
X58002026Y-76811500D01*
X57933905Y-76791498D01*
X57887412Y-76737842D01*
X57876682Y-76672658D01*
X57878672Y-76653233D01*
X57879000Y-76646815D01*
X57879000Y-76572615D01*
X57874525Y-76557376D01*
X57873135Y-76556171D01*
X57865452Y-76554500D01*
X55931115Y-76554500D01*
X55915876Y-76558975D01*
X55914671Y-76560365D01*
X55913000Y-76568048D01*
X55913000Y-76646766D01*
X55913337Y-76653280D01*
X55915331Y-76672495D01*
X55902467Y-76742317D01*
X55853896Y-76794099D01*
X55790004Y-76811500D01*
X55208530Y-76811500D01*
X55140409Y-76791498D01*
X55093916Y-76737842D01*
X55083186Y-76672658D01*
X55085172Y-76653271D01*
X55085500Y-76650072D01*
X55085500Y-76391862D01*
X55105502Y-76323741D01*
X55159158Y-76277248D01*
X55172564Y-76272029D01*
X55256909Y-76244624D01*
X55256912Y-76244623D01*
X55263608Y-76242447D01*
X55419412Y-76149569D01*
X55550766Y-76024482D01*
X55651143Y-75873402D01*
X55679587Y-75798523D01*
X55722476Y-75741945D01*
X55789144Y-75717536D01*
X55858426Y-75733046D01*
X55908325Y-75783550D01*
X55922719Y-75856110D01*
X55913328Y-75947770D01*
X55913000Y-75954185D01*
X55913000Y-76028385D01*
X55917475Y-76043624D01*
X55918865Y-76044829D01*
X55926548Y-76046500D01*
X57860885Y-76046500D01*
X57876124Y-76042025D01*
X57877329Y-76040635D01*
X57879000Y-76032952D01*
X57879000Y-75954234D01*
X57878663Y-75947718D01*
X57868925Y-75853868D01*
X57866032Y-75840472D01*
X57815512Y-75689047D01*
X57809347Y-75675885D01*
X57725574Y-75540508D01*
X57716536Y-75529106D01*
X57714861Y-75527433D01*
X57714081Y-75526007D01*
X57711993Y-75523373D01*
X57712444Y-75523016D01*
X57680781Y-75465151D01*
X57685784Y-75394331D01*
X57714701Y-75349246D01*
X57717756Y-75346185D01*
X57722929Y-75341003D01*
X57726770Y-75334772D01*
X57810369Y-75199150D01*
X57810370Y-75199148D01*
X57814209Y-75192920D01*
X57868974Y-75027809D01*
X57879500Y-74925072D01*
X57879500Y-74862950D01*
X57899502Y-74794829D01*
X57953158Y-74748336D01*
X58023432Y-74738232D01*
X58088012Y-74767726D01*
X58094595Y-74773855D01*
X58234595Y-74913855D01*
X58268621Y-74976167D01*
X58271500Y-75002950D01*
X58271500Y-75146502D01*
X58274438Y-75183831D01*
X58320855Y-75343601D01*
X58324890Y-75350424D01*
X58324891Y-75350426D01*
X58394136Y-75467512D01*
X58405547Y-75486807D01*
X58408487Y-75489747D01*
X58433820Y-75554266D01*
X58419921Y-75623889D01*
X58407874Y-75642636D01*
X58401910Y-75650324D01*
X58325352Y-75779779D01*
X58319107Y-75794210D01*
X58280061Y-75928605D01*
X58280101Y-75942706D01*
X58287370Y-75946000D01*
X61216878Y-75946000D01*
X61230409Y-75942027D01*
X61231544Y-75934129D01*
X61190893Y-75794210D01*
X61184648Y-75779779D01*
X61108089Y-75650323D01*
X61102129Y-75642640D01*
X61076180Y-75576556D01*
X61090078Y-75506933D01*
X61100421Y-75490839D01*
X61104453Y-75486807D01*
X61168655Y-75378247D01*
X61185109Y-75350426D01*
X61185110Y-75350424D01*
X61189145Y-75343601D01*
X61235562Y-75183831D01*
X61238500Y-75146502D01*
X61238500Y-74713498D01*
X61237530Y-74701173D01*
X61236067Y-74682579D01*
X61236066Y-74682574D01*
X61235562Y-74676169D01*
X61189145Y-74516399D01*
X61104453Y-74373193D01*
X61101771Y-74370511D01*
X61076498Y-74306139D01*
X61090400Y-74236516D01*
X61100572Y-74220688D01*
X61104453Y-74216807D01*
X61189145Y-74073601D01*
X61235562Y-73913831D01*
X61238500Y-73876502D01*
X61238500Y-73443498D01*
X61235562Y-73406169D01*
X61189145Y-73246399D01*
X61104453Y-73103193D01*
X61101771Y-73100511D01*
X61076498Y-73036139D01*
X61090400Y-72966516D01*
X61100572Y-72950688D01*
X61104453Y-72946807D01*
X61189145Y-72803601D01*
X61235562Y-72643831D01*
X61238500Y-72606502D01*
X61238500Y-72173498D01*
X61237530Y-72161173D01*
X61236067Y-72142579D01*
X61236066Y-72142574D01*
X61235562Y-72136169D01*
X61198075Y-72007137D01*
X61191356Y-71984008D01*
X61191355Y-71984005D01*
X61189145Y-71976399D01*
X61185111Y-71969578D01*
X61182066Y-71962542D01*
X61173368Y-71892081D01*
X61204145Y-71828102D01*
X61264626Y-71790919D01*
X61297702Y-71786500D01*
X63162298Y-71786500D01*
X63230419Y-71806502D01*
G37*
%TD.AperFunction*%
%TA.AperFunction,Conductor*%
G36*
X58179786Y-54067228D02*
G01*
X58180160Y-54066222D01*
X58216470Y-54079726D01*
X58231996Y-54085500D01*
X58288872Y-54127993D01*
X58313745Y-54194489D01*
X58309072Y-54238751D01*
X58280061Y-54338605D01*
X58280101Y-54352706D01*
X58287370Y-54356000D01*
X59883000Y-54356000D01*
X59951121Y-54376002D01*
X59997614Y-54429658D01*
X60009000Y-54482000D01*
X60009000Y-54738000D01*
X59988998Y-54806121D01*
X59935342Y-54852614D01*
X59883000Y-54864000D01*
X58293122Y-54864000D01*
X58279591Y-54867973D01*
X58276811Y-54887309D01*
X58247318Y-54951889D01*
X58192699Y-54988654D01*
X58054798Y-55035599D01*
X57992328Y-55074031D01*
X57906314Y-55126947D01*
X57906311Y-55126949D01*
X57900307Y-55130643D01*
X57829871Y-55199619D01*
X57767207Y-55232988D01*
X57696449Y-55227182D01*
X57640062Y-55184043D01*
X57615949Y-55117266D01*
X57616371Y-55096751D01*
X57624672Y-55015730D01*
X57625000Y-55009315D01*
X57625000Y-54935115D01*
X57620525Y-54919876D01*
X57619135Y-54918671D01*
X57611452Y-54917000D01*
X56514000Y-54917000D01*
X56445879Y-54896998D01*
X56399386Y-54843342D01*
X56388000Y-54791000D01*
X56388000Y-54535000D01*
X56408002Y-54466879D01*
X56461658Y-54420386D01*
X56514000Y-54409000D01*
X57606885Y-54409000D01*
X57622125Y-54404525D01*
X57636853Y-54387528D01*
X57693140Y-54350208D01*
X57733411Y-54337123D01*
X57740108Y-54334947D01*
X57870184Y-54257406D01*
X57889860Y-54245677D01*
X57889862Y-54245676D01*
X57895912Y-54242069D01*
X57988984Y-54153438D01*
X58022166Y-54121839D01*
X58022167Y-54121837D01*
X58027266Y-54116982D01*
X58031163Y-54111117D01*
X58035693Y-54105718D01*
X58037311Y-54107076D01*
X58083837Y-54067995D01*
X58154258Y-54058970D01*
X58179786Y-54067228D01*
G37*
%TD.AperFunction*%
%TA.AperFunction,Conductor*%
G36*
X55049999Y-53306502D02*
G01*
X55096492Y-53360158D01*
X55106596Y-53430432D01*
X55077102Y-53495012D01*
X55035528Y-53526507D01*
X55032247Y-53528051D01*
X55025579Y-53530321D01*
X55019577Y-53534013D01*
X55019578Y-53534013D01*
X54877095Y-53621669D01*
X54877092Y-53621671D01*
X54871088Y-53625365D01*
X54866053Y-53630296D01*
X54866050Y-53630298D01*
X54816870Y-53678459D01*
X54741493Y-53752274D01*
X54737673Y-53758202D01*
X54734779Y-53761750D01*
X54676225Y-53801900D01*
X54605260Y-53804020D01*
X54559040Y-53780999D01*
X54556186Y-53778745D01*
X54553507Y-53776071D01*
X54513345Y-53719423D01*
X54506500Y-53678459D01*
X54506500Y-53562533D01*
X54526502Y-53494412D01*
X54551217Y-53467120D01*
X54552031Y-53466616D01*
X54674929Y-53343503D01*
X54678768Y-53337275D01*
X54681033Y-53334407D01*
X54738950Y-53293345D01*
X54779914Y-53286500D01*
X54981878Y-53286500D01*
X55049999Y-53306502D01*
G37*
%TD.AperFunction*%
%TD*%
M02*
