%TF.GenerationSoftware,KiCad,Pcbnew,(6.0.9-0)*%
%TF.CreationDate,2024-06-20T10:44:05+02:00*%
%TF.ProjectId,follower-board,666f6c6c-6f77-4657-922d-626f6172642e,rev?*%
%TF.SameCoordinates,Original*%
%TF.FileFunction,Paste,Top*%
%TF.FilePolarity,Positive*%
%FSLAX46Y46*%
G04 Gerber Fmt 4.6, Leading zero omitted, Abs format (unit mm)*
G04 Created by KiCad (PCBNEW (6.0.9-0)) date 2024-06-20 10:44:05*
%MOMM*%
%LPD*%
G01*
G04 APERTURE LIST*
G04 Aperture macros list*
%AMRoundRect*
0 Rectangle with rounded corners*
0 $1 Rounding radius*
0 $2 $3 $4 $5 $6 $7 $8 $9 X,Y pos of 4 corners*
0 Add a 4 corners polygon primitive as box body*
4,1,4,$2,$3,$4,$5,$6,$7,$8,$9,$2,$3,0*
0 Add four circle primitives for the rounded corners*
1,1,$1+$1,$2,$3*
1,1,$1+$1,$4,$5*
1,1,$1+$1,$6,$7*
1,1,$1+$1,$8,$9*
0 Add four rect primitives between the rounded corners*
20,1,$1+$1,$2,$3,$4,$5,0*
20,1,$1+$1,$4,$5,$6,$7,0*
20,1,$1+$1,$6,$7,$8,$9,0*
20,1,$1+$1,$8,$9,$2,$3,0*%
G04 Aperture macros list end*
%ADD10RoundRect,0.237500X-0.237500X0.250000X-0.237500X-0.250000X0.237500X-0.250000X0.237500X0.250000X0*%
%ADD11R,0.900000X1.200000*%
%ADD12RoundRect,0.237500X-0.237500X0.300000X-0.237500X-0.300000X0.237500X-0.300000X0.237500X0.300000X0*%
%ADD13RoundRect,0.237500X0.237500X-0.250000X0.237500X0.250000X-0.237500X0.250000X-0.237500X-0.250000X0*%
%ADD14RoundRect,0.237500X0.237500X-0.300000X0.237500X0.300000X-0.237500X0.300000X-0.237500X-0.300000X0*%
%ADD15RoundRect,0.150000X-0.825000X-0.150000X0.825000X-0.150000X0.825000X0.150000X-0.825000X0.150000X0*%
%ADD16RoundRect,0.250000X1.250000X0.550000X-1.250000X0.550000X-1.250000X-0.550000X1.250000X-0.550000X0*%
%ADD17R,1.200000X0.900000*%
G04 APERTURE END LIST*
D10*
%TO.C,R9*%
X65532000Y-64111500D03*
X65532000Y-65936500D03*
%TD*%
D11*
%TO.C,D2*%
X64136000Y-47244000D03*
X67436000Y-47244000D03*
%TD*%
D10*
%TO.C,R12*%
X67818000Y-54613000D03*
X67818000Y-56438000D03*
%TD*%
D12*
%TO.C,C10*%
X56642000Y-54663000D03*
X56642000Y-56388000D03*
%TD*%
D10*
%TO.C,R18*%
X54102000Y-74525500D03*
X54102000Y-76350500D03*
%TD*%
D13*
%TO.C,R22*%
X70612000Y-75842500D03*
X70612000Y-74017500D03*
%TD*%
D14*
%TO.C,C9*%
X70612000Y-60145000D03*
X70612000Y-58420000D03*
%TD*%
%TO.C,C13*%
X56896000Y-76300500D03*
X56896000Y-74575500D03*
%TD*%
D13*
%TO.C,R1*%
X53848000Y-56438000D03*
X53848000Y-54613000D03*
%TD*%
D10*
%TO.C,R16*%
X70612000Y-50803000D03*
X70612000Y-52628000D03*
%TD*%
D14*
%TO.C,C7*%
X67818000Y-67918500D03*
X67818000Y-66193500D03*
%TD*%
D12*
%TO.C,C6*%
X62992000Y-67971500D03*
X62992000Y-69696500D03*
%TD*%
D10*
%TO.C,R6*%
X62992000Y-60301500D03*
X62992000Y-62126500D03*
%TD*%
D11*
%TO.C,D1*%
X57022000Y-48006000D03*
X53722000Y-48006000D03*
%TD*%
D10*
%TO.C,R20*%
X60706000Y-82145500D03*
X60706000Y-83970500D03*
%TD*%
D14*
%TO.C,C5*%
X62992000Y-65886500D03*
X62992000Y-64161500D03*
%TD*%
D15*
%TO.C,U1*%
X59755000Y-50800000D03*
X59755000Y-52070000D03*
X59755000Y-53340000D03*
X59755000Y-54610000D03*
X59755000Y-55880000D03*
X59755000Y-57150000D03*
X59755000Y-58420000D03*
X64705000Y-58420000D03*
X64705000Y-57150000D03*
X64705000Y-55880000D03*
X64705000Y-54610000D03*
X64705000Y-53340000D03*
X64705000Y-52070000D03*
X64705000Y-50800000D03*
%TD*%
D10*
%TO.C,R15*%
X66548000Y-42013500D03*
X66548000Y-43838500D03*
%TD*%
D11*
%TO.C,D6*%
X53722000Y-79248000D03*
X57022000Y-79248000D03*
%TD*%
D10*
%TO.C,R14*%
X70612000Y-66143500D03*
X70612000Y-67968500D03*
%TD*%
D12*
%TO.C,C4*%
X53848000Y-58423000D03*
X53848000Y-60148000D03*
%TD*%
D13*
%TO.C,R25*%
X67818000Y-72032500D03*
X67818000Y-70207500D03*
%TD*%
%TO.C,R11*%
X67818000Y-64158500D03*
X67818000Y-62333500D03*
%TD*%
D10*
%TO.C,R4*%
X57912000Y-42013500D03*
X57912000Y-43838500D03*
%TD*%
D15*
%TO.C,U2*%
X59755000Y-72390000D03*
X59755000Y-73660000D03*
X59755000Y-74930000D03*
X59755000Y-76200000D03*
X59755000Y-77470000D03*
X59755000Y-78740000D03*
X59755000Y-80010000D03*
X64705000Y-80010000D03*
X64705000Y-78740000D03*
X64705000Y-77470000D03*
X64705000Y-76200000D03*
X64705000Y-74930000D03*
X64705000Y-73660000D03*
X64705000Y-72390000D03*
%TD*%
D10*
%TO.C,R19*%
X58166000Y-82145500D03*
X58166000Y-83970500D03*
%TD*%
%TO.C,R13*%
X67818000Y-58373000D03*
X67818000Y-60198000D03*
%TD*%
%TO.C,R26*%
X63500000Y-82145500D03*
X63500000Y-83970500D03*
%TD*%
D11*
%TO.C,D5*%
X53722000Y-71628000D03*
X57022000Y-71628000D03*
%TD*%
D10*
%TO.C,R8*%
X65532000Y-60301500D03*
X65532000Y-62126500D03*
%TD*%
D13*
%TO.C,R24*%
X67818000Y-75842500D03*
X67818000Y-74017500D03*
%TD*%
%TO.C,R10*%
X65532000Y-69746500D03*
X65532000Y-67921500D03*
%TD*%
D16*
%TO.C,C1*%
X59096000Y-65786000D03*
X54696000Y-65786000D03*
%TD*%
D13*
%TO.C,R5*%
X60706000Y-62126500D03*
X60706000Y-60301500D03*
%TD*%
%TO.C,R23*%
X66294000Y-83970500D03*
X66294000Y-82145500D03*
%TD*%
%TO.C,R2*%
X53848000Y-52628000D03*
X53848000Y-50803000D03*
%TD*%
%TO.C,R17*%
X70612000Y-56438000D03*
X70612000Y-54613000D03*
%TD*%
D10*
%TO.C,R21*%
X70612000Y-77827500D03*
X70612000Y-79652500D03*
%TD*%
D12*
%TO.C,C3*%
X61976000Y-46889500D03*
X61976000Y-48614500D03*
%TD*%
D14*
%TO.C,C12*%
X70612000Y-71982500D03*
X70612000Y-70257500D03*
%TD*%
%TO.C,C8*%
X70612000Y-64108500D03*
X70612000Y-62383500D03*
%TD*%
D13*
%TO.C,R3*%
X59182000Y-48664500D03*
X59182000Y-46839500D03*
%TD*%
D17*
%TO.C,D4*%
X68072000Y-49404000D03*
X68072000Y-52704000D03*
%TD*%
D12*
%TO.C,C11*%
X67818000Y-77877500D03*
X67818000Y-79602500D03*
%TD*%
D10*
%TO.C,R7*%
X56642000Y-58373000D03*
X56642000Y-60198000D03*
%TD*%
D14*
%TO.C,C2*%
X56642000Y-52578000D03*
X56642000Y-50853000D03*
%TD*%
M02*
