%TF.GenerationSoftware,KiCad,Pcbnew,(6.0.9-0)*%
%TF.CreationDate,2024-06-20T10:44:05+02:00*%
%TF.ProjectId,follower-board,666f6c6c-6f77-4657-922d-626f6172642e,rev?*%
%TF.SameCoordinates,Original*%
%TF.FileFunction,Legend,Top*%
%TF.FilePolarity,Positive*%
%FSLAX46Y46*%
G04 Gerber Fmt 4.6, Leading zero omitted, Abs format (unit mm)*
G04 Created by KiCad (PCBNEW (6.0.9-0)) date 2024-06-20 10:44:05*
%MOMM*%
%LPD*%
G01*
G04 APERTURE LIST*
G04 Aperture macros list*
%AMRoundRect*
0 Rectangle with rounded corners*
0 $1 Rounding radius*
0 $2 $3 $4 $5 $6 $7 $8 $9 X,Y pos of 4 corners*
0 Add a 4 corners polygon primitive as box body*
4,1,4,$2,$3,$4,$5,$6,$7,$8,$9,$2,$3,0*
0 Add four circle primitives for the rounded corners*
1,1,$1+$1,$2,$3*
1,1,$1+$1,$4,$5*
1,1,$1+$1,$6,$7*
1,1,$1+$1,$8,$9*
0 Add four rect primitives between the rounded corners*
20,1,$1+$1,$2,$3,$4,$5,0*
20,1,$1+$1,$4,$5,$6,$7,0*
20,1,$1+$1,$6,$7,$8,$9,0*
20,1,$1+$1,$8,$9,$2,$3,0*%
G04 Aperture macros list end*
%ADD10C,0.120000*%
%ADD11C,0.150000*%
%ADD12RoundRect,0.237500X-0.237500X0.250000X-0.237500X-0.250000X0.237500X-0.250000X0.237500X0.250000X0*%
%ADD13R,0.900000X1.200000*%
%ADD14RoundRect,0.237500X-0.237500X0.300000X-0.237500X-0.300000X0.237500X-0.300000X0.237500X0.300000X0*%
%ADD15RoundRect,0.237500X0.237500X-0.250000X0.237500X0.250000X-0.237500X0.250000X-0.237500X-0.250000X0*%
%ADD16RoundRect,0.237500X0.237500X-0.300000X0.237500X0.300000X-0.237500X0.300000X-0.237500X-0.300000X0*%
%ADD17C,3.200000*%
%ADD18RoundRect,0.150000X-0.825000X-0.150000X0.825000X-0.150000X0.825000X0.150000X-0.825000X0.150000X0*%
%ADD19R,1.800000X1.800000*%
%ADD20C,1.800000*%
%ADD21C,5.500000*%
%ADD22RoundRect,0.250000X1.250000X0.550000X-1.250000X0.550000X-1.250000X-0.550000X1.250000X-0.550000X0*%
%ADD23R,1.200000X0.900000*%
%ADD24R,1.700000X1.700000*%
%ADD25O,1.700000X1.700000*%
G04 APERTURE END LIST*
D10*
X51800000Y-76200000D02*
G75*
G03*
X51800000Y-76200000I-1000000J0D01*
G01*
X51800000Y-53324000D02*
G75*
G03*
X51800000Y-53324000I-1000000J0D01*
G01*
X74660000Y-68596000D02*
G75*
G03*
X74660000Y-68596000I-1000000J0D01*
G01*
X74660000Y-60976000D02*
G75*
G03*
X74660000Y-60976000I-1000000J0D01*
G01*
X74660000Y-53340000D02*
G75*
G03*
X74660000Y-53340000I-1000000J0D01*
G01*
X74660000Y-76216000D02*
G75*
G03*
X74660000Y-76216000I-1000000J0D01*
G01*
X51800000Y-60960000D02*
G75*
G03*
X51800000Y-60960000I-1000000J0D01*
G01*
X51800000Y-68580000D02*
G75*
G03*
X51800000Y-68580000I-1000000J0D01*
G01*
D11*
X61639504Y-79996838D02*
X62210933Y-79996838D01*
X62325219Y-80034933D01*
X62401409Y-80111123D01*
X62439504Y-80225409D01*
X62439504Y-80301600D01*
X62439504Y-79234933D02*
X62439504Y-79615885D01*
X61639504Y-79615885D01*
X62363314Y-78511123D02*
X62401409Y-78549219D01*
X62439504Y-78663504D01*
X62439504Y-78739695D01*
X62401409Y-78853980D01*
X62325219Y-78930171D01*
X62249028Y-78968266D01*
X62096647Y-79006361D01*
X61982361Y-79006361D01*
X61829980Y-78968266D01*
X61753790Y-78930171D01*
X61677600Y-78853980D01*
X61639504Y-78739695D01*
X61639504Y-78663504D01*
X61677600Y-78549219D01*
X61715695Y-78511123D01*
X61639504Y-77939695D02*
X62210933Y-77939695D01*
X62325219Y-77977790D01*
X62401409Y-78053980D01*
X62439504Y-78168266D01*
X62439504Y-78244457D01*
X62439504Y-77177790D02*
X62439504Y-77558742D01*
X61639504Y-77558742D01*
X62363314Y-76453980D02*
X62401409Y-76492076D01*
X62439504Y-76606361D01*
X62439504Y-76682552D01*
X62401409Y-76796838D01*
X62325219Y-76873028D01*
X62249028Y-76911123D01*
X62096647Y-76949219D01*
X61982361Y-76949219D01*
X61829980Y-76911123D01*
X61753790Y-76873028D01*
X61677600Y-76796838D01*
X61639504Y-76682552D01*
X61639504Y-76606361D01*
X61677600Y-76492076D01*
X61715695Y-76453980D01*
X61639504Y-75882552D02*
X62210933Y-75882552D01*
X62325219Y-75920647D01*
X62401409Y-75996838D01*
X62439504Y-76111123D01*
X62439504Y-76187314D01*
X62439504Y-75120647D02*
X62439504Y-75501600D01*
X61639504Y-75501600D01*
X62363314Y-74396838D02*
X62401409Y-74434933D01*
X62439504Y-74549219D01*
X62439504Y-74625409D01*
X62401409Y-74739695D01*
X62325219Y-74815885D01*
X62249028Y-74853980D01*
X62096647Y-74892076D01*
X61982361Y-74892076D01*
X61829980Y-74853980D01*
X61753790Y-74815885D01*
X61677600Y-74739695D01*
X61639504Y-74625409D01*
X61639504Y-74549219D01*
X61677600Y-74434933D01*
X61715695Y-74396838D01*
X61639504Y-73825409D02*
X62210933Y-73825409D01*
X62325219Y-73863504D01*
X62401409Y-73939695D01*
X62439504Y-74053980D01*
X62439504Y-74130171D01*
X62439504Y-73063504D02*
X62439504Y-73444457D01*
X61639504Y-73444457D01*
X62363314Y-72339695D02*
X62401409Y-72377790D01*
X62439504Y-72492076D01*
X62439504Y-72568266D01*
X62401409Y-72682552D01*
X62325219Y-72758742D01*
X62249028Y-72796838D01*
X62096647Y-72834933D01*
X61982361Y-72834933D01*
X61829980Y-72796838D01*
X61753790Y-72758742D01*
X61677600Y-72682552D01*
X61639504Y-72568266D01*
X61639504Y-72492076D01*
X61677600Y-72377790D01*
X61715695Y-72339695D01*
D10*
%TO.C,R9*%
X66054500Y-64769276D02*
X66054500Y-65278724D01*
X65009500Y-64769276D02*
X65009500Y-65278724D01*
%TO.C,D2*%
X63536000Y-48244000D02*
X67436000Y-48244000D01*
X63536000Y-46244000D02*
X67436000Y-46244000D01*
X63536000Y-46244000D02*
X63536000Y-48244000D01*
%TO.C,R12*%
X68340500Y-55270776D02*
X68340500Y-55780224D01*
X67295500Y-55270776D02*
X67295500Y-55780224D01*
%TO.C,C10*%
X57152000Y-55379233D02*
X57152000Y-55671767D01*
X56132000Y-55379233D02*
X56132000Y-55671767D01*
%TO.C,R18*%
X53579500Y-75183276D02*
X53579500Y-75692724D01*
X54624500Y-75183276D02*
X54624500Y-75692724D01*
%TO.C,R22*%
X71134500Y-75184724D02*
X71134500Y-74675276D01*
X70089500Y-75184724D02*
X70089500Y-74675276D01*
%TO.C,C9*%
X71122000Y-59428767D02*
X71122000Y-59136233D01*
X70102000Y-59428767D02*
X70102000Y-59136233D01*
%TO.C,C13*%
X57406000Y-75584267D02*
X57406000Y-75291733D01*
X56386000Y-75584267D02*
X56386000Y-75291733D01*
%TO.C,R1*%
X54370500Y-55780224D02*
X54370500Y-55270776D01*
X53325500Y-55780224D02*
X53325500Y-55270776D01*
%TO.C,R16*%
X71134500Y-51460776D02*
X71134500Y-51970224D01*
X70089500Y-51460776D02*
X70089500Y-51970224D01*
%TO.C,C7*%
X67308000Y-67202267D02*
X67308000Y-66909733D01*
X68328000Y-67202267D02*
X68328000Y-66909733D01*
%TO.C,C6*%
X62482000Y-68687733D02*
X62482000Y-68980267D01*
X63502000Y-68687733D02*
X63502000Y-68980267D01*
%TO.C,R6*%
X62469500Y-60959276D02*
X62469500Y-61468724D01*
X63514500Y-60959276D02*
X63514500Y-61468724D01*
%TO.C,D1*%
X57622000Y-49006000D02*
X53722000Y-49006000D01*
X57622000Y-47006000D02*
X53722000Y-47006000D01*
X57622000Y-49006000D02*
X57622000Y-47006000D01*
%TO.C,R20*%
X60183500Y-82803276D02*
X60183500Y-83312724D01*
X61228500Y-82803276D02*
X61228500Y-83312724D01*
%TO.C,C5*%
X63502000Y-65170267D02*
X63502000Y-64877733D01*
X62482000Y-65170267D02*
X62482000Y-64877733D01*
%TO.C,U1*%
X62230000Y-59045000D02*
X64180000Y-59045000D01*
X62230000Y-50175000D02*
X64180000Y-50175000D01*
X62230000Y-59045000D02*
X60280000Y-59045000D01*
X62230000Y-50175000D02*
X58780000Y-50175000D01*
%TO.C,R15*%
X66025500Y-42671276D02*
X66025500Y-43180724D01*
X67070500Y-42671276D02*
X67070500Y-43180724D01*
%TO.C,D6*%
X53122000Y-78248000D02*
X57022000Y-78248000D01*
X53122000Y-80248000D02*
X57022000Y-80248000D01*
X53122000Y-78248000D02*
X53122000Y-80248000D01*
%TO.C,R14*%
X71134500Y-66801276D02*
X71134500Y-67310724D01*
X70089500Y-66801276D02*
X70089500Y-67310724D01*
%TO.C,C4*%
X54358000Y-59139233D02*
X54358000Y-59431767D01*
X53338000Y-59139233D02*
X53338000Y-59431767D01*
%TO.C,R25*%
X68340500Y-71374724D02*
X68340500Y-70865276D01*
X67295500Y-71374724D02*
X67295500Y-70865276D01*
%TO.C,D3*%
X63790000Y-42100000D02*
X63790000Y-41944000D01*
X63790000Y-44416000D02*
X63790000Y-44260000D01*
X61188870Y-44259837D02*
G75*
G03*
X63270961Y-44260000I1041130J1079837D01*
G01*
X60557665Y-44258608D02*
G75*
G03*
X63790000Y-44415516I1672335J1078608D01*
G01*
X63270961Y-42100000D02*
G75*
G03*
X61188870Y-42100163I-1040961J-1080000D01*
G01*
X63790000Y-41944484D02*
G75*
G03*
X60557665Y-42101392I-1560000J-1235516D01*
G01*
%TO.C,R11*%
X67295500Y-63500724D02*
X67295500Y-62991276D01*
X68340500Y-63500724D02*
X68340500Y-62991276D01*
%TO.C,R4*%
X58434500Y-42671276D02*
X58434500Y-43180724D01*
X57389500Y-42671276D02*
X57389500Y-43180724D01*
%TO.C,U2*%
X62230000Y-71765000D02*
X58780000Y-71765000D01*
X62230000Y-80635000D02*
X60280000Y-80635000D01*
X62230000Y-80635000D02*
X64180000Y-80635000D01*
X62230000Y-71765000D02*
X64180000Y-71765000D01*
%TO.C,R19*%
X58688500Y-82803276D02*
X58688500Y-83312724D01*
X57643500Y-82803276D02*
X57643500Y-83312724D01*
%TO.C,R13*%
X67295500Y-59030776D02*
X67295500Y-59540224D01*
X68340500Y-59030776D02*
X68340500Y-59540224D01*
%TO.C,kibuzzard-6673DE4D*%
G36*
X58073925Y-84867750D02*
G01*
X59820175Y-84867750D01*
X59820175Y-88360250D01*
X58073925Y-88360250D01*
X58073925Y-87487125D01*
X58283475Y-87487125D01*
X59610625Y-87487125D01*
X59610625Y-85217000D01*
X59051825Y-85217000D01*
X59051825Y-85740875D01*
X58283475Y-85740875D01*
X58283475Y-87487125D01*
X58073925Y-87487125D01*
X58073925Y-84867750D01*
G37*
G36*
X60937775Y-86509225D02*
G01*
X60029725Y-86509225D01*
X60029725Y-86299675D01*
X60937775Y-86299675D01*
X60937775Y-86509225D01*
G37*
G36*
X61147325Y-84867750D02*
G01*
X63312675Y-84867750D01*
X63312675Y-88360250D01*
X61147325Y-88360250D01*
X61147325Y-87487125D01*
X61356875Y-87487125D01*
X61915675Y-87487125D01*
X61915675Y-85915500D01*
X62125225Y-85915500D01*
X62125225Y-87487125D01*
X62334775Y-87487125D01*
X62334775Y-85915500D01*
X62544325Y-85915500D01*
X62544325Y-87487125D01*
X63103125Y-87487125D01*
X63103125Y-85740875D01*
X61356875Y-85740875D01*
X61356875Y-87487125D01*
X61147325Y-87487125D01*
X61147325Y-84867750D01*
G37*
G36*
X59401075Y-86718775D02*
G01*
X58493025Y-86718775D01*
X58493025Y-86509225D01*
X59401075Y-86509225D01*
X59401075Y-86718775D01*
G37*
G36*
X63103125Y-84867750D02*
G01*
X64849375Y-84867750D01*
X64849375Y-88360250D01*
X63103125Y-88360250D01*
X63103125Y-87487125D01*
X63312675Y-87487125D01*
X64639825Y-87487125D01*
X64639825Y-85740875D01*
X63312675Y-85740875D01*
X63312675Y-87487125D01*
X63103125Y-87487125D01*
X63103125Y-84867750D01*
G37*
G36*
X64639825Y-84867750D02*
G01*
X66386075Y-84867750D01*
X66386075Y-88360250D01*
X64639825Y-88360250D01*
X64639825Y-87487125D01*
X64849375Y-87487125D01*
X66176525Y-87487125D01*
X66176525Y-85217000D01*
X65617725Y-85217000D01*
X65617725Y-85740875D01*
X64849375Y-85740875D01*
X64849375Y-87487125D01*
X64639825Y-87487125D01*
X64639825Y-84867750D01*
G37*
G36*
X65966975Y-86718775D02*
G01*
X65058925Y-86718775D01*
X65058925Y-86509225D01*
X65966975Y-86509225D01*
X65966975Y-86718775D01*
G37*
G36*
X64430275Y-86718775D02*
G01*
X63522225Y-86718775D01*
X63522225Y-86509225D01*
X64430275Y-86509225D01*
X64430275Y-86718775D01*
G37*
G36*
X59610625Y-84867750D02*
G01*
X61356875Y-84867750D01*
X61356875Y-88360250D01*
X59610625Y-88360250D01*
X59610625Y-87487125D01*
X59820175Y-87487125D01*
X61147325Y-87487125D01*
X61147325Y-86928325D01*
X60029725Y-86928325D01*
X60029725Y-86718775D01*
X61147325Y-86718775D01*
X61147325Y-85740875D01*
X59820175Y-85740875D01*
X59820175Y-87487125D01*
X59610625Y-87487125D01*
X59610625Y-84867750D01*
G37*
%TO.C,R26*%
X62977500Y-82803276D02*
X62977500Y-83312724D01*
X64022500Y-82803276D02*
X64022500Y-83312724D01*
%TO.C,D5*%
X53122000Y-70628000D02*
X53122000Y-72628000D01*
X53122000Y-70628000D02*
X57022000Y-70628000D01*
X53122000Y-72628000D02*
X57022000Y-72628000D01*
%TO.C,R8*%
X66054500Y-60959276D02*
X66054500Y-61468724D01*
X65009500Y-60959276D02*
X65009500Y-61468724D01*
%TO.C,R24*%
X67295500Y-75184724D02*
X67295500Y-74675276D01*
X68340500Y-75184724D02*
X68340500Y-74675276D01*
%TO.C,R10*%
X66054500Y-69088724D02*
X66054500Y-68579276D01*
X65009500Y-69088724D02*
X65009500Y-68579276D01*
%TO.C,C1*%
X60208500Y-67783500D02*
X60208500Y-67158500D01*
X58591563Y-68546000D02*
X54136000Y-68546000D01*
X60521000Y-67471000D02*
X59896000Y-67471000D01*
X59656000Y-64090437D02*
X59656000Y-64726000D01*
X59656000Y-67481563D02*
X59656000Y-66846000D01*
X58591563Y-63026000D02*
X54136000Y-63026000D01*
X59656000Y-67481563D02*
X58591563Y-68546000D01*
X59656000Y-64090437D02*
X58591563Y-63026000D01*
X54136000Y-63026000D02*
X54136000Y-64726000D01*
X54136000Y-68546000D02*
X54136000Y-66846000D01*
%TO.C,R5*%
X61228500Y-61468724D02*
X61228500Y-60959276D01*
X60183500Y-61468724D02*
X60183500Y-60959276D01*
%TO.C,R23*%
X65771500Y-83312724D02*
X65771500Y-82803276D01*
X66816500Y-83312724D02*
X66816500Y-82803276D01*
%TO.C,R2*%
X53325500Y-51970224D02*
X53325500Y-51460776D01*
X54370500Y-51970224D02*
X54370500Y-51460776D01*
%TO.C,R17*%
X70089500Y-55780224D02*
X70089500Y-55270776D01*
X71134500Y-55780224D02*
X71134500Y-55270776D01*
%TO.C,R21*%
X70089500Y-78485276D02*
X70089500Y-78994724D01*
X71134500Y-78485276D02*
X71134500Y-78994724D01*
%TO.C,C3*%
X62486000Y-47605733D02*
X62486000Y-47898267D01*
X61466000Y-47605733D02*
X61466000Y-47898267D01*
%TO.C,C12*%
X70102000Y-71266267D02*
X70102000Y-70973733D01*
X71122000Y-71266267D02*
X71122000Y-70973733D01*
%TO.C,C8*%
X70102000Y-63392267D02*
X70102000Y-63099733D01*
X71122000Y-63392267D02*
X71122000Y-63099733D01*
%TO.C,R3*%
X58659500Y-48006724D02*
X58659500Y-47497276D01*
X59704500Y-48006724D02*
X59704500Y-47497276D01*
%TO.C,D4*%
X67072000Y-48804000D02*
X67072000Y-52704000D01*
X69072000Y-48804000D02*
X69072000Y-52704000D01*
X69072000Y-48804000D02*
X67072000Y-48804000D01*
%TO.C,C11*%
X67308000Y-78593733D02*
X67308000Y-78886267D01*
X68328000Y-78593733D02*
X68328000Y-78886267D01*
%TO.C,R7*%
X56119500Y-59030776D02*
X56119500Y-59540224D01*
X57164500Y-59030776D02*
X57164500Y-59540224D01*
%TO.C,C2*%
X56132000Y-51861767D02*
X56132000Y-51569233D01*
X57152000Y-51861767D02*
X57152000Y-51569233D01*
%TD*%
%LPC*%
D12*
%TO.C,R9*%
X65532000Y-64111500D03*
X65532000Y-65936500D03*
%TD*%
D13*
%TO.C,D2*%
X64136000Y-47244000D03*
X67436000Y-47244000D03*
%TD*%
D12*
%TO.C,R12*%
X67818000Y-54613000D03*
X67818000Y-56438000D03*
%TD*%
D14*
%TO.C,C10*%
X56642000Y-54663000D03*
X56642000Y-56388000D03*
%TD*%
D12*
%TO.C,R18*%
X54102000Y-74525500D03*
X54102000Y-76350500D03*
%TD*%
D15*
%TO.C,R22*%
X70612000Y-75842500D03*
X70612000Y-74017500D03*
%TD*%
D16*
%TO.C,C9*%
X70612000Y-60145000D03*
X70612000Y-58420000D03*
%TD*%
%TO.C,C13*%
X56896000Y-76300500D03*
X56896000Y-74575500D03*
%TD*%
D15*
%TO.C,R1*%
X53848000Y-56438000D03*
X53848000Y-54613000D03*
%TD*%
D12*
%TO.C,R16*%
X70612000Y-50803000D03*
X70612000Y-52628000D03*
%TD*%
D16*
%TO.C,C7*%
X67818000Y-67918500D03*
X67818000Y-66193500D03*
%TD*%
D14*
%TO.C,C6*%
X62992000Y-67971500D03*
X62992000Y-69696500D03*
%TD*%
D12*
%TO.C,R6*%
X62992000Y-60301500D03*
X62992000Y-62126500D03*
%TD*%
D13*
%TO.C,D1*%
X57022000Y-48006000D03*
X53722000Y-48006000D03*
%TD*%
D12*
%TO.C,R20*%
X60706000Y-82145500D03*
X60706000Y-83970500D03*
%TD*%
D16*
%TO.C,C5*%
X62992000Y-65886500D03*
X62992000Y-64161500D03*
%TD*%
D17*
%TO.C,H2*%
X53340000Y-43180000D03*
%TD*%
D18*
%TO.C,U1*%
X59755000Y-50800000D03*
X59755000Y-52070000D03*
X59755000Y-53340000D03*
X59755000Y-54610000D03*
X59755000Y-55880000D03*
X59755000Y-57150000D03*
X59755000Y-58420000D03*
X64705000Y-58420000D03*
X64705000Y-57150000D03*
X64705000Y-55880000D03*
X64705000Y-54610000D03*
X64705000Y-53340000D03*
X64705000Y-52070000D03*
X64705000Y-50800000D03*
%TD*%
D12*
%TO.C,R15*%
X66548000Y-42013500D03*
X66548000Y-43838500D03*
%TD*%
D13*
%TO.C,D6*%
X53722000Y-79248000D03*
X57022000Y-79248000D03*
%TD*%
D12*
%TO.C,R14*%
X70612000Y-66143500D03*
X70612000Y-67968500D03*
%TD*%
D14*
%TO.C,C4*%
X53848000Y-58423000D03*
X53848000Y-60148000D03*
%TD*%
D15*
%TO.C,R25*%
X67818000Y-72032500D03*
X67818000Y-70207500D03*
%TD*%
D19*
%TO.C,D3*%
X63500000Y-43180000D03*
D20*
X60960000Y-43180000D03*
%TD*%
D15*
%TO.C,R11*%
X67818000Y-64158500D03*
X67818000Y-62333500D03*
%TD*%
D12*
%TO.C,R4*%
X57912000Y-42013500D03*
X57912000Y-43838500D03*
%TD*%
D18*
%TO.C,U2*%
X59755000Y-72390000D03*
X59755000Y-73660000D03*
X59755000Y-74930000D03*
X59755000Y-76200000D03*
X59755000Y-77470000D03*
X59755000Y-78740000D03*
X59755000Y-80010000D03*
X64705000Y-80010000D03*
X64705000Y-78740000D03*
X64705000Y-77470000D03*
X64705000Y-76200000D03*
X64705000Y-74930000D03*
X64705000Y-73660000D03*
X64705000Y-72390000D03*
%TD*%
D12*
%TO.C,R19*%
X58166000Y-82145500D03*
X58166000Y-83970500D03*
%TD*%
%TO.C,R13*%
X67818000Y-58373000D03*
X67818000Y-60198000D03*
%TD*%
D21*
%TO.C,H3*%
X71120000Y-83820000D03*
%TD*%
D12*
%TO.C,R26*%
X63500000Y-82145500D03*
X63500000Y-83970500D03*
%TD*%
D13*
%TO.C,D5*%
X53722000Y-71628000D03*
X57022000Y-71628000D03*
%TD*%
D21*
%TO.C,H1*%
X53340000Y-83820000D03*
%TD*%
D12*
%TO.C,R8*%
X65532000Y-60301500D03*
X65532000Y-62126500D03*
%TD*%
D15*
%TO.C,R24*%
X67818000Y-75842500D03*
X67818000Y-74017500D03*
%TD*%
%TO.C,R10*%
X65532000Y-69746500D03*
X65532000Y-67921500D03*
%TD*%
D22*
%TO.C,C1*%
X59096000Y-65786000D03*
X54696000Y-65786000D03*
%TD*%
D15*
%TO.C,R5*%
X60706000Y-62126500D03*
X60706000Y-60301500D03*
%TD*%
%TO.C,R23*%
X66294000Y-83970500D03*
X66294000Y-82145500D03*
%TD*%
%TO.C,R2*%
X53848000Y-52628000D03*
X53848000Y-50803000D03*
%TD*%
%TO.C,R17*%
X70612000Y-56438000D03*
X70612000Y-54613000D03*
%TD*%
D12*
%TO.C,R21*%
X70612000Y-77827500D03*
X70612000Y-79652500D03*
%TD*%
D17*
%TO.C,H4*%
X71120000Y-43180000D03*
%TD*%
D14*
%TO.C,C3*%
X61976000Y-46889500D03*
X61976000Y-48614500D03*
%TD*%
D16*
%TO.C,C12*%
X70612000Y-71982500D03*
X70612000Y-70257500D03*
%TD*%
%TO.C,C8*%
X70612000Y-64108500D03*
X70612000Y-62383500D03*
%TD*%
D15*
%TO.C,R3*%
X59182000Y-48664500D03*
X59182000Y-46839500D03*
%TD*%
D23*
%TO.C,D4*%
X68072000Y-49404000D03*
X68072000Y-52704000D03*
%TD*%
D14*
%TO.C,C11*%
X67818000Y-77877500D03*
X67818000Y-79602500D03*
%TD*%
D12*
%TO.C,R7*%
X56642000Y-58373000D03*
X56642000Y-60198000D03*
%TD*%
D16*
%TO.C,C2*%
X56642000Y-52578000D03*
X56642000Y-50853000D03*
%TD*%
D24*
%TO.C,J1*%
X50800000Y-50800000D03*
D25*
X50800000Y-53340000D03*
X50800000Y-55880000D03*
X50800000Y-58420000D03*
X50800000Y-60960000D03*
X50800000Y-63500000D03*
X50800000Y-66040000D03*
X50800000Y-68580000D03*
X50800000Y-71120000D03*
X50800000Y-73660000D03*
X50800000Y-76200000D03*
%TD*%
D24*
%TO.C,J2*%
X73660000Y-50800000D03*
D25*
X73660000Y-53340000D03*
X73660000Y-55880000D03*
X73660000Y-58420000D03*
X73660000Y-60960000D03*
X73660000Y-63500000D03*
X73660000Y-66040000D03*
X73660000Y-68580000D03*
X73660000Y-71120000D03*
X73660000Y-73660000D03*
X73660000Y-76200000D03*
%TD*%
M02*
