M48
; DRILL file {KiCad (6.0.9-0)} date 2024 June 20, Thursday 10:44:06
; FORMAT={-:-/ absolute / inch / decimal}
; #@! TF.CreationDate,2024-06-20T10:44:06+02:00
; #@! TF.GenerationSoftware,Kicad,Pcbnew,(6.0.9-0)
; #@! TF.FileFunction,Plated,1,4,PTH
FMAT,2
INCH
; #@! TA.AperFunction,Plated,PTH,ViaDrill
T1C0.0118
; #@! TA.AperFunction,Plated,PTH,ComponentDrill
T2C0.0354
; #@! TA.AperFunction,Plated,PTH,ComponentDrill
T3C0.0394
; #@! TA.AperFunction,Plated,PTH,ComponentDrill
T4C0.1260
%
G90
G05
T1
X2.0Y-3.06
X2.1625Y-2.9725
X2.18Y-2.105
X2.18Y-2.1365
X2.2Y-2.945
X2.205Y-2.985
X2.26Y-2.11
X2.28Y-1.615
X2.2993Y-2.1957
X2.305Y-2.1
X2.32Y-1.615
X2.3391Y-3.3059
X2.34Y-3.265
X2.355Y-2.5
X2.365Y-1.9685
X2.375Y-1.825
X2.3844Y-2.0
X2.39Y-2.5256
X2.405Y-1.845
X2.435Y-2.635
X2.4519Y-2.1431
X2.455Y-2.1811
X2.48Y-2.635
X2.485Y-2.0
X2.485Y-2.035
X2.49Y-3.0
X2.575Y-1.615
X2.6Y-2.15
X2.615Y-1.615
X2.7025Y-2.9575
X2.71Y-2.675
X2.715Y-2.535
X2.72Y-2.23
X2.725Y-2.19
X2.73Y-2.93
X2.735Y-2.645
X2.745Y-2.555
X2.78Y-2.875
X2.8144Y-2.885
T2
X2.4Y-1.7
X2.5Y-1.7
T3
X2.0Y-2.0
X2.0Y-2.1
X2.0Y-2.2
X2.0Y-2.3
X2.0Y-2.4
X2.0Y-2.5
X2.0Y-2.6
X2.0Y-2.7
X2.0Y-2.8
X2.0Y-2.9
X2.0Y-3.0
X2.9Y-2.0
X2.9Y-2.1
X2.9Y-2.2
X2.9Y-2.3
X2.9Y-2.4
X2.9Y-2.5
X2.9Y-2.6
X2.9Y-2.7
X2.9Y-2.8
X2.9Y-2.9
X2.9Y-3.0
T4
X2.1Y-3.3
X2.8Y-3.3
T0
M30
