%TF.GenerationSoftware,KiCad,Pcbnew,(6.0.9-0)*%
%TF.CreationDate,2024-11-07T13:03:10+01:00*%
%TF.ProjectId,attenuverters,61747465-6e75-4766-9572-746572732e6b,rev?*%
%TF.SameCoordinates,Original*%
%TF.FileFunction,Legend,Bot*%
%TF.FilePolarity,Positive*%
%FSLAX46Y46*%
G04 Gerber Fmt 4.6, Leading zero omitted, Abs format (unit mm)*
G04 Created by KiCad (PCBNEW (6.0.9-0)) date 2024-11-07 13:03:10*
%MOMM*%
%LPD*%
G01*
G04 APERTURE LIST*
%ADD10C,0.120000*%
%ADD11C,0.150000*%
%ADD12C,0.010000*%
%ADD13C,1.800000*%
%ADD14R,1.800000X1.800000*%
%ADD15O,1.700000X1.700000*%
%ADD16R,1.700000X1.700000*%
%ADD17O,5.400000X2.700000*%
%ADD18C,3.200000*%
%ADD19C,5.500000*%
G04 APERTURE END LIST*
D10*
X3540000Y-15240000D02*
G75*
G03*
X3540000Y-15240000I-1000000J0D01*
G01*
X3540000Y-30480000D02*
G75*
G03*
X3540000Y-30480000I-1000000J0D01*
G01*
X3540000Y-43180000D02*
G75*
G03*
X3540000Y-43180000I-1000000J0D01*
G01*
X39100000Y-30480000D02*
G75*
G03*
X39100000Y-30480000I-1000000J0D01*
G01*
X39100000Y-15240000D02*
G75*
G03*
X39100000Y-15240000I-1000000J0D01*
G01*
X39100000Y-43180000D02*
G75*
G03*
X39100000Y-43180000I-1000000J0D01*
G01*
X24891428Y-55708571D02*
X24891428Y-56508571D01*
X24891428Y-55746666D02*
X24815238Y-55708571D01*
X24662857Y-55708571D01*
X24586666Y-55746666D01*
X24548571Y-55784761D01*
X24510476Y-55860952D01*
X24510476Y-56089523D01*
X24548571Y-56165714D01*
X24586666Y-56203809D01*
X24662857Y-56241904D01*
X24815238Y-56241904D01*
X24891428Y-56203809D01*
X23862857Y-56203809D02*
X23939047Y-56241904D01*
X24091428Y-56241904D01*
X24167619Y-56203809D01*
X24205714Y-56127619D01*
X24205714Y-55822857D01*
X24167619Y-55746666D01*
X24091428Y-55708571D01*
X23939047Y-55708571D01*
X23862857Y-55746666D01*
X23824761Y-55822857D01*
X23824761Y-55899047D01*
X24205714Y-55975238D01*
X23139047Y-56241904D02*
X23139047Y-55441904D01*
X23139047Y-56203809D02*
X23215238Y-56241904D01*
X23367619Y-56241904D01*
X23443809Y-56203809D01*
X23481904Y-56165714D01*
X23520000Y-56089523D01*
X23520000Y-55860952D01*
X23481904Y-55784761D01*
X23443809Y-55746666D01*
X23367619Y-55708571D01*
X23215238Y-55708571D01*
X23139047Y-55746666D01*
X22415238Y-56241904D02*
X22415238Y-55822857D01*
X22453333Y-55746666D01*
X22529523Y-55708571D01*
X22681904Y-55708571D01*
X22758095Y-55746666D01*
X22415238Y-56203809D02*
X22491428Y-56241904D01*
X22681904Y-56241904D01*
X22758095Y-56203809D01*
X22796190Y-56127619D01*
X22796190Y-56051428D01*
X22758095Y-55975238D01*
X22681904Y-55937142D01*
X22491428Y-55937142D01*
X22415238Y-55899047D01*
X21920000Y-56241904D02*
X21996190Y-56203809D01*
X22034285Y-56127619D01*
X22034285Y-55441904D01*
X21615238Y-56241904D02*
X21615238Y-55708571D01*
X21615238Y-55784761D02*
X21577142Y-55746666D01*
X21500952Y-55708571D01*
X21386666Y-55708571D01*
X21310476Y-55746666D01*
X21272380Y-55822857D01*
X21272380Y-56241904D01*
X21272380Y-55822857D02*
X21234285Y-55746666D01*
X21158095Y-55708571D01*
X21043809Y-55708571D01*
X20967619Y-55746666D01*
X20929523Y-55822857D01*
X20929523Y-56241904D01*
X20205714Y-56241904D02*
X20205714Y-55822857D01*
X20243809Y-55746666D01*
X20320000Y-55708571D01*
X20472380Y-55708571D01*
X20548571Y-55746666D01*
X20205714Y-56203809D02*
X20281904Y-56241904D01*
X20472380Y-56241904D01*
X20548571Y-56203809D01*
X20586666Y-56127619D01*
X20586666Y-56051428D01*
X20548571Y-55975238D01*
X20472380Y-55937142D01*
X20281904Y-55937142D01*
X20205714Y-55899047D01*
X19824761Y-56241904D02*
X19824761Y-55708571D01*
X19824761Y-55860952D02*
X19786666Y-55784761D01*
X19748571Y-55746666D01*
X19672380Y-55708571D01*
X19596190Y-55708571D01*
X19329523Y-56241904D02*
X19329523Y-55441904D01*
X19253333Y-55937142D02*
X19024761Y-56241904D01*
X19024761Y-55708571D02*
X19329523Y-56013333D01*
X18796190Y-55708571D02*
X18491428Y-55708571D01*
X18681904Y-55441904D02*
X18681904Y-56127619D01*
X18643809Y-56203809D01*
X18567619Y-56241904D01*
X18491428Y-56241904D01*
X18224761Y-56165714D02*
X18186666Y-56203809D01*
X18224761Y-56241904D01*
X18262857Y-56203809D01*
X18224761Y-56165714D01*
X18224761Y-56241904D01*
X17500952Y-56203809D02*
X17577142Y-56241904D01*
X17729523Y-56241904D01*
X17805714Y-56203809D01*
X17843809Y-56165714D01*
X17881904Y-56089523D01*
X17881904Y-55860952D01*
X17843809Y-55784761D01*
X17805714Y-55746666D01*
X17729523Y-55708571D01*
X17577142Y-55708571D01*
X17500952Y-55746666D01*
X17043809Y-56241904D02*
X17120000Y-56203809D01*
X17158095Y-56165714D01*
X17196190Y-56089523D01*
X17196190Y-55860952D01*
X17158095Y-55784761D01*
X17120000Y-55746666D01*
X17043809Y-55708571D01*
X16929523Y-55708571D01*
X16853333Y-55746666D01*
X16815238Y-55784761D01*
X16777142Y-55860952D01*
X16777142Y-56089523D01*
X16815238Y-56165714D01*
X16853333Y-56203809D01*
X16929523Y-56241904D01*
X17043809Y-56241904D01*
X16434285Y-56241904D02*
X16434285Y-55708571D01*
X16434285Y-55784761D02*
X16396190Y-55746666D01*
X16320000Y-55708571D01*
X16205714Y-55708571D01*
X16129523Y-55746666D01*
X16091428Y-55822857D01*
X16091428Y-56241904D01*
X16091428Y-55822857D02*
X16053333Y-55746666D01*
X15977142Y-55708571D01*
X15862857Y-55708571D01*
X15786666Y-55746666D01*
X15748571Y-55822857D01*
X15748571Y-56241904D01*
D11*
X38292857Y-7158571D02*
X37692857Y-6944285D01*
X38292857Y-6730000D01*
X37692857Y-5915714D02*
X37692857Y-6430000D01*
X37692857Y-6172857D02*
X38592857Y-6172857D01*
X38464285Y-6258571D01*
X38378571Y-6344285D01*
X38335714Y-6430000D01*
X37692857Y-5530000D02*
X38292857Y-5530000D01*
X38121428Y-5530000D02*
X38207142Y-5487142D01*
X38250000Y-5444285D01*
X38292857Y-5358571D01*
X38292857Y-5272857D01*
X37735714Y-4630000D02*
X37692857Y-4715714D01*
X37692857Y-4887142D01*
X37735714Y-4972857D01*
X37821428Y-5015714D01*
X38164285Y-5015714D01*
X38250000Y-4972857D01*
X38292857Y-4887142D01*
X38292857Y-4715714D01*
X38250000Y-4630000D01*
X38164285Y-4587142D01*
X38078571Y-4587142D01*
X37992857Y-5015714D01*
X38292857Y-4287142D02*
X37692857Y-4072857D01*
X38292857Y-3858571D01*
X38507142Y-3558571D02*
X38550000Y-3515714D01*
X38592857Y-3430000D01*
X38592857Y-3215714D01*
X38550000Y-3130000D01*
X38507142Y-3087142D01*
X38421428Y-3044285D01*
X38335714Y-3044285D01*
X38207142Y-3087142D01*
X37692857Y-3601428D01*
X37692857Y-3044285D01*
%TO.C,kibuzzard-672CAA68*%
G36*
X32367307Y-13200000D02*
G01*
X32958210Y-12313646D01*
X36232693Y-12313646D01*
X36232693Y-14086354D01*
X32958210Y-14086354D01*
X32737724Y-13755625D01*
X33288939Y-13755625D01*
X33981089Y-13755625D01*
X34233501Y-13755625D01*
X34395426Y-13755625D01*
X34395426Y-13287313D01*
X34408325Y-13198413D01*
X34447020Y-13134912D01*
X34505956Y-13096812D01*
X34579576Y-13084112D01*
X34658951Y-13097606D01*
X34722451Y-13138088D01*
X34764123Y-13205556D01*
X34778014Y-13300013D01*
X34778014Y-13755625D01*
X34939939Y-13755625D01*
X35179651Y-13755625D01*
X35901964Y-13755625D01*
X35901964Y-13607988D01*
X35622564Y-13607988D01*
X35622564Y-12792013D01*
X35894026Y-12792013D01*
X35894026Y-12644375D01*
X35187589Y-12644375D01*
X35187589Y-12792013D01*
X35455876Y-12792013D01*
X35455876Y-13607988D01*
X35179651Y-13607988D01*
X35179651Y-13755625D01*
X34939939Y-13755625D01*
X34939939Y-12961875D01*
X34793889Y-12961875D01*
X34778014Y-13060300D01*
X34766901Y-13060300D01*
X34704989Y-12996800D01*
X34625085Y-12958700D01*
X34527189Y-12946000D01*
X34407134Y-12966637D01*
X34313670Y-13028550D01*
X34253544Y-13127372D01*
X34233501Y-13258737D01*
X34233501Y-13755625D01*
X33981089Y-13755625D01*
X33981089Y-13620688D01*
X33714389Y-13620688D01*
X33714389Y-13052363D01*
X33954101Y-13052363D01*
X33954101Y-12920600D01*
X33839801Y-12920600D01*
X33760426Y-12906312D01*
X33712801Y-12863450D01*
X33696926Y-12792013D01*
X33696926Y-12739625D01*
X33547701Y-12739625D01*
X33547701Y-13620688D01*
X33288939Y-13620688D01*
X33288939Y-13755625D01*
X32737724Y-13755625D01*
X32367307Y-13200000D01*
G37*
%TO.C,kibuzzard-672CAA64*%
G36*
X32320740Y-15240000D02*
G01*
X32322857Y-15236825D01*
X33252956Y-15236825D01*
X33260546Y-15359410D01*
X33283316Y-15468402D01*
X33321268Y-15563800D01*
X33374399Y-15645606D01*
X33442116Y-15711239D01*
X33523823Y-15758120D01*
X33619519Y-15786249D01*
X33729206Y-15795625D01*
X34010193Y-15795625D01*
X34232443Y-15795625D01*
X34400718Y-15795625D01*
X34796006Y-15001875D01*
X34807118Y-15001875D01*
X34807118Y-15795625D01*
X34962693Y-15795625D01*
X35172243Y-15795625D01*
X35300831Y-15795625D01*
X35319881Y-15700375D01*
X35330993Y-15700375D01*
X35409574Y-15774988D01*
X35478829Y-15802372D01*
X35567531Y-15811500D01*
X35679978Y-15795537D01*
X35773906Y-15747647D01*
X35849312Y-15667831D01*
X35892720Y-15588407D01*
X35923726Y-15493802D01*
X35942329Y-15384016D01*
X35948531Y-15259050D01*
X35941684Y-15127734D01*
X35921146Y-15011598D01*
X35886916Y-14910643D01*
X35838993Y-14824869D01*
X35756619Y-14737997D01*
X35655549Y-14685874D01*
X35535781Y-14668500D01*
X35442471Y-14678466D01*
X35361508Y-14708364D01*
X35292893Y-14758194D01*
X35238742Y-14825839D01*
X35201171Y-14909183D01*
X35180181Y-15008225D01*
X35354806Y-15008225D01*
X35392553Y-14905037D01*
X35452878Y-14843125D01*
X35535781Y-14822488D01*
X35637381Y-14850467D01*
X35713581Y-14934406D01*
X35748858Y-15020219D01*
X35770025Y-15128434D01*
X35777081Y-15259050D01*
X35767492Y-15404782D01*
X35738727Y-15518130D01*
X35690784Y-15599093D01*
X35623665Y-15647670D01*
X35537368Y-15663863D01*
X35453429Y-15648781D01*
X35388937Y-15603538D01*
X35347860Y-15530116D01*
X35334168Y-15430500D01*
X35334168Y-15341600D01*
X35545306Y-15341600D01*
X35545306Y-15208250D01*
X35172243Y-15208250D01*
X35172243Y-15795625D01*
X34962693Y-15795625D01*
X34962693Y-14684375D01*
X34794418Y-14684375D01*
X34399131Y-15479713D01*
X34388018Y-15479713D01*
X34388018Y-14684375D01*
X34232443Y-14684375D01*
X34232443Y-15795625D01*
X34010193Y-15795625D01*
X34010193Y-14684375D01*
X33729206Y-14684375D01*
X33620164Y-14693652D01*
X33524815Y-14721483D01*
X33443158Y-14767868D01*
X33375193Y-14832806D01*
X33321714Y-14913719D01*
X33283515Y-15008027D01*
X33260595Y-15115729D01*
X33252956Y-15236825D01*
X32322857Y-15236825D01*
X32922226Y-14337771D01*
X36279260Y-14337771D01*
X36279260Y-16142229D01*
X32922226Y-16142229D01*
X32320740Y-15240000D01*
G37*
G36*
X33843506Y-15644812D02*
G01*
X33738731Y-15644812D01*
X33643392Y-15633259D01*
X33564811Y-15598599D01*
X33502987Y-15540831D01*
X33458449Y-15460839D01*
X33431726Y-15359503D01*
X33422818Y-15236825D01*
X33431593Y-15114102D01*
X33457919Y-15013693D01*
X33501796Y-14935597D01*
X33563224Y-14879814D01*
X33642202Y-14846344D01*
X33738731Y-14835188D01*
X33843506Y-14835188D01*
X33843506Y-15644812D01*
G37*
%TO.C,kibuzzard-672CAA5E*%
G36*
X35697460Y-16909277D02*
G01*
X35770882Y-16989644D01*
X35805278Y-17071753D01*
X35825915Y-17175205D01*
X35832794Y-17300000D01*
X35825915Y-17424795D01*
X35805278Y-17528247D01*
X35770882Y-17610356D01*
X35697460Y-17690723D01*
X35601019Y-17717512D01*
X35505769Y-17690723D01*
X35432744Y-17610356D01*
X35398349Y-17528247D01*
X35377711Y-17424795D01*
X35370832Y-17300000D01*
X35377711Y-17175205D01*
X35398349Y-17071753D01*
X35432744Y-16989644D01*
X35505769Y-16909277D01*
X35601019Y-16882488D01*
X35697460Y-16909277D01*
G37*
G36*
X32068303Y-16397771D02*
G01*
X36330211Y-16397771D01*
X36931697Y-17300000D01*
X36330211Y-18202229D01*
X32068303Y-18202229D01*
X32068303Y-17855625D01*
X32399032Y-17855625D01*
X33091182Y-17855625D01*
X33091182Y-17720688D01*
X32824482Y-17720688D01*
X32824482Y-17192050D01*
X33329307Y-17192050D01*
X33651569Y-17192050D01*
X33651569Y-17574638D01*
X33632343Y-17664596D01*
X33574664Y-17718571D01*
X33478532Y-17736562D01*
X33373757Y-17723863D01*
X33373757Y-17854038D01*
X33444401Y-17867134D01*
X33516632Y-17871500D01*
X33623502Y-17860705D01*
X33636541Y-17855625D01*
X34297682Y-17855625D01*
X34443732Y-17855625D01*
X34459607Y-17757200D01*
X34470719Y-17757200D01*
X34532632Y-17820700D01*
X34612536Y-17858800D01*
X34710432Y-17871500D01*
X34830487Y-17850862D01*
X34923951Y-17788950D01*
X34984077Y-17690128D01*
X35004119Y-17558763D01*
X35004119Y-17300000D01*
X35204144Y-17300000D01*
X35210842Y-17426206D01*
X35230934Y-17538125D01*
X35264420Y-17635756D01*
X35311301Y-17719100D01*
X35391117Y-17803767D01*
X35487690Y-17854567D01*
X35601019Y-17871500D01*
X35715231Y-17854743D01*
X35812333Y-17804472D01*
X35892326Y-17720688D01*
X35939207Y-17637840D01*
X35972693Y-17540109D01*
X35992785Y-17427496D01*
X35999482Y-17300000D01*
X35992785Y-17173794D01*
X35972693Y-17061875D01*
X35939207Y-16964244D01*
X35892326Y-16880900D01*
X35812333Y-16796233D01*
X35715231Y-16745433D01*
X35601019Y-16728500D01*
X35487690Y-16745433D01*
X35391117Y-16796233D01*
X35311301Y-16880900D01*
X35264420Y-16964244D01*
X35230934Y-17061875D01*
X35210842Y-17173794D01*
X35204144Y-17300000D01*
X35004119Y-17300000D01*
X35004119Y-17061875D01*
X34842194Y-17061875D01*
X34842194Y-17530187D01*
X34829296Y-17619087D01*
X34790601Y-17682588D01*
X34731665Y-17720688D01*
X34658044Y-17733388D01*
X34578669Y-17719894D01*
X34515169Y-17679412D01*
X34473498Y-17611944D01*
X34459607Y-17517487D01*
X34459607Y-17061875D01*
X34297682Y-17061875D01*
X34297682Y-17855625D01*
X33636541Y-17855625D01*
X33706624Y-17828320D01*
X33765996Y-17774345D01*
X33801620Y-17698780D01*
X33813494Y-17601625D01*
X33813494Y-17192050D01*
X34065907Y-17192050D01*
X34065907Y-17061875D01*
X33935732Y-17061875D01*
X33828576Y-17030125D01*
X33797619Y-16919000D01*
X33797619Y-16845975D01*
X33651569Y-16845975D01*
X33651569Y-17061875D01*
X33329307Y-17061875D01*
X33329307Y-17192050D01*
X32824482Y-17192050D01*
X32824482Y-17152363D01*
X33064194Y-17152363D01*
X33064194Y-17020600D01*
X32949894Y-17020600D01*
X32870519Y-17006312D01*
X32822894Y-16963450D01*
X32807019Y-16892013D01*
X32807019Y-16839625D01*
X32657794Y-16839625D01*
X32657794Y-17720688D01*
X32399032Y-17720688D01*
X32399032Y-17855625D01*
X32068303Y-17855625D01*
X32068303Y-16397771D01*
G37*
%TO.C,kibuzzard-672CAA58*%
G36*
X32992307Y-27940000D02*
G01*
X33562572Y-27084602D01*
X36857693Y-27084602D01*
X36857693Y-28795398D01*
X33562572Y-28795398D01*
X32993894Y-27942381D01*
X33893301Y-27942381D01*
X33899701Y-28063825D01*
X33918900Y-28169394D01*
X33950898Y-28259088D01*
X33995695Y-28332906D01*
X34072160Y-28406108D01*
X34165028Y-28450028D01*
X34274301Y-28464669D01*
X34383839Y-28449852D01*
X34477501Y-28405402D01*
X34555289Y-28331319D01*
X34601128Y-28256805D01*
X34633870Y-28166616D01*
X34653515Y-28060749D01*
X34660064Y-27939206D01*
X34653515Y-27819003D01*
X34633870Y-27713980D01*
X34612392Y-27655044D01*
X34829926Y-27655044D01*
X35129964Y-28448794D01*
X35326814Y-28448794D01*
X35586212Y-27766169D01*
X35823701Y-27766169D01*
X35832036Y-27858839D01*
X35857039Y-27943175D01*
X35896726Y-28025130D01*
X35949114Y-28110656D01*
X36168189Y-28448794D01*
X36368214Y-28448794D01*
X36095164Y-28056681D01*
X36214226Y-28077319D01*
X36337655Y-28054498D01*
X36438064Y-27986038D01*
X36487453Y-27919627D01*
X36517086Y-27842104D01*
X36526964Y-27753469D01*
X36516028Y-27660159D01*
X36483219Y-27579197D01*
X36428539Y-27510581D01*
X36356749Y-27458547D01*
X36272611Y-27427326D01*
X36176126Y-27416919D01*
X36077966Y-27427590D01*
X35993035Y-27459605D01*
X35921333Y-27512963D01*
X35867093Y-27583783D01*
X35834549Y-27668185D01*
X35823701Y-27766169D01*
X35586212Y-27766169D01*
X35628439Y-27655044D01*
X35461751Y-27655044D01*
X35233151Y-28280519D01*
X35222039Y-28280519D01*
X34995026Y-27655044D01*
X34829926Y-27655044D01*
X34612392Y-27655044D01*
X34601128Y-27624137D01*
X34555289Y-27549475D01*
X34477501Y-27474951D01*
X34383839Y-27430236D01*
X34274301Y-27415331D01*
X34165028Y-27430236D01*
X34072160Y-27474951D01*
X33995695Y-27549475D01*
X33950898Y-27624336D01*
X33918900Y-27714773D01*
X33899701Y-27820789D01*
X33893301Y-27942381D01*
X32993894Y-27942381D01*
X32992307Y-27940000D01*
G37*
G36*
X34426701Y-28232894D02*
G01*
X34360820Y-28300759D01*
X34274301Y-28323381D01*
X34188378Y-28299569D01*
X34121108Y-28228131D01*
X34088917Y-28153872D01*
X34069602Y-28058092D01*
X34063164Y-27940794D01*
X34067133Y-27851894D01*
X34079039Y-27769344D01*
X34426701Y-28232894D01*
G37*
G36*
X34360423Y-27580431D02*
G01*
X34428289Y-27651869D01*
X34460921Y-27726305D01*
X34480500Y-27822613D01*
X34487026Y-27940794D01*
X34483058Y-28034059D01*
X34471151Y-28110656D01*
X34123489Y-27648694D01*
X34188973Y-27579638D01*
X34274301Y-27556619D01*
X34360423Y-27580431D01*
G37*
G36*
X36254906Y-27565152D02*
G01*
X36315033Y-27609800D01*
X36353728Y-27676277D01*
X36366626Y-27756644D01*
X36353926Y-27835027D01*
X36315826Y-27898725D01*
X36255898Y-27940992D01*
X36177714Y-27955081D01*
X36100522Y-27940794D01*
X36040395Y-27897931D01*
X36001700Y-27834034D01*
X35988801Y-27756644D01*
X36001898Y-27676277D01*
X36041189Y-27609800D01*
X36101514Y-27565152D01*
X36177714Y-27550269D01*
X36254906Y-27565152D01*
G37*
%TO.C,kibuzzard-672CAA54*%
G36*
X32945740Y-30480000D02*
G01*
X32947857Y-30476825D01*
X33877956Y-30476825D01*
X33885546Y-30599410D01*
X33908316Y-30708402D01*
X33946268Y-30803800D01*
X33999399Y-30885606D01*
X34067116Y-30951239D01*
X34148823Y-30998120D01*
X34244519Y-31026249D01*
X34354206Y-31035625D01*
X34635193Y-31035625D01*
X34857443Y-31035625D01*
X35025718Y-31035625D01*
X35421006Y-30241875D01*
X35432118Y-30241875D01*
X35432118Y-31035625D01*
X35587693Y-31035625D01*
X35797243Y-31035625D01*
X35925831Y-31035625D01*
X35944881Y-30940375D01*
X35955993Y-30940375D01*
X36034574Y-31014988D01*
X36103829Y-31042372D01*
X36192531Y-31051500D01*
X36304978Y-31035537D01*
X36398906Y-30987647D01*
X36474312Y-30907831D01*
X36517720Y-30828407D01*
X36548726Y-30733802D01*
X36567329Y-30624016D01*
X36573531Y-30499050D01*
X36566684Y-30367734D01*
X36546146Y-30251598D01*
X36511916Y-30150643D01*
X36463993Y-30064869D01*
X36381619Y-29977997D01*
X36280549Y-29925874D01*
X36160781Y-29908500D01*
X36067471Y-29918466D01*
X35986508Y-29948364D01*
X35917893Y-29998194D01*
X35863742Y-30065839D01*
X35826171Y-30149183D01*
X35805181Y-30248225D01*
X35979806Y-30248225D01*
X36017553Y-30145037D01*
X36077878Y-30083125D01*
X36160781Y-30062488D01*
X36262381Y-30090467D01*
X36338581Y-30174406D01*
X36373858Y-30260219D01*
X36395025Y-30368434D01*
X36402081Y-30499050D01*
X36392492Y-30644782D01*
X36363727Y-30758130D01*
X36315784Y-30839093D01*
X36248665Y-30887670D01*
X36162368Y-30903863D01*
X36078429Y-30888781D01*
X36013937Y-30843538D01*
X35972860Y-30770116D01*
X35959168Y-30670500D01*
X35959168Y-30581600D01*
X36170306Y-30581600D01*
X36170306Y-30448250D01*
X35797243Y-30448250D01*
X35797243Y-31035625D01*
X35587693Y-31035625D01*
X35587693Y-29924375D01*
X35419418Y-29924375D01*
X35024131Y-30719713D01*
X35013018Y-30719713D01*
X35013018Y-29924375D01*
X34857443Y-29924375D01*
X34857443Y-31035625D01*
X34635193Y-31035625D01*
X34635193Y-29924375D01*
X34354206Y-29924375D01*
X34245164Y-29933652D01*
X34149815Y-29961483D01*
X34068158Y-30007868D01*
X34000193Y-30072806D01*
X33946714Y-30153719D01*
X33908515Y-30248027D01*
X33885595Y-30355729D01*
X33877956Y-30476825D01*
X32947857Y-30476825D01*
X33547226Y-29577771D01*
X36904260Y-29577771D01*
X36904260Y-31382229D01*
X33547226Y-31382229D01*
X32945740Y-30480000D01*
G37*
G36*
X34468506Y-30884812D02*
G01*
X34363731Y-30884812D01*
X34268392Y-30873259D01*
X34189811Y-30838599D01*
X34127987Y-30780831D01*
X34083449Y-30700839D01*
X34056726Y-30599503D01*
X34047818Y-30476825D01*
X34056593Y-30354102D01*
X34082919Y-30253693D01*
X34126796Y-30175597D01*
X34188224Y-30119814D01*
X34267202Y-30086344D01*
X34363731Y-30075188D01*
X34468506Y-30075188D01*
X34468506Y-30884812D01*
G37*
%TO.C,kibuzzard-672CAA50*%
G36*
X32980930Y-33020000D02*
G01*
X33545374Y-32173333D01*
X36869070Y-32173333D01*
X36869070Y-33866667D01*
X33545374Y-33866667D01*
X33099463Y-33197800D01*
X33876103Y-33197800D01*
X33887392Y-33293579D01*
X33921259Y-33375600D01*
X33977703Y-33443863D01*
X34051963Y-33495015D01*
X34139276Y-33525707D01*
X34239641Y-33535938D01*
X34333656Y-33526589D01*
X34414619Y-33498543D01*
X34482528Y-33451800D01*
X34534563Y-33389358D01*
X34567901Y-33314217D01*
X34582541Y-33226375D01*
X34425378Y-33226375D01*
X34407718Y-33300194D01*
X34367435Y-33356550D01*
X34308896Y-33392269D01*
X34236466Y-33404175D01*
X34157488Y-33390483D01*
X34095178Y-33349406D01*
X34054697Y-33284914D01*
X34041203Y-33200975D01*
X34054102Y-33117036D01*
X34092797Y-33049369D01*
X34152924Y-33004720D01*
X34230116Y-32989838D01*
X34338066Y-33016825D01*
X34414266Y-33093025D01*
X34560316Y-33059688D01*
X34527931Y-32726313D01*
X34784153Y-32726313D01*
X35084191Y-33520063D01*
X35281041Y-33520063D01*
X35367909Y-33291463D01*
X35733478Y-33291463D01*
X35908103Y-33291463D01*
X35908103Y-33520063D01*
X36063678Y-33520063D01*
X36063678Y-33291463D01*
X36538341Y-33291463D01*
X36538341Y-33210500D01*
X36077966Y-32504063D01*
X35908103Y-32504063D01*
X35908103Y-33166050D01*
X35733478Y-33166050D01*
X35733478Y-33291463D01*
X35367909Y-33291463D01*
X35582666Y-32726313D01*
X35415978Y-32726313D01*
X35187378Y-33351788D01*
X35176266Y-33351788D01*
X34949253Y-32726313D01*
X34784153Y-32726313D01*
X34527931Y-32726313D01*
X34506341Y-32504063D01*
X33923728Y-32504063D01*
X33923728Y-32640588D01*
X34365053Y-32640588D01*
X34395216Y-32932688D01*
X34308300Y-32881491D01*
X34196778Y-32864425D01*
X34107526Y-32874920D01*
X34030267Y-32906406D01*
X33965003Y-32958881D01*
X33915615Y-33027408D01*
X33885981Y-33107048D01*
X33876103Y-33197800D01*
X33099463Y-33197800D01*
X32980930Y-33020000D01*
G37*
G36*
X36349428Y-33166050D02*
G01*
X36063678Y-33166050D01*
X36063678Y-32723138D01*
X36076378Y-32723138D01*
X36349428Y-33166050D01*
G37*
%TO.C,kibuzzard-672CAA4A*%
G36*
X32372863Y-40900000D02*
G01*
X32501980Y-40706325D01*
X33294495Y-40706325D01*
X33312751Y-40815069D01*
X33364345Y-40901588D01*
X33418320Y-40955562D01*
X33470708Y-40995250D01*
X33645333Y-41115900D01*
X33716770Y-41177813D01*
X33763866Y-41245017D01*
X33786620Y-41317512D01*
X33299258Y-41317512D01*
X33299258Y-41455625D01*
X33977120Y-41455625D01*
X34227945Y-41455625D01*
X34389870Y-41455625D01*
X34389870Y-40987313D01*
X34402769Y-40898413D01*
X34441464Y-40834912D01*
X34500400Y-40796812D01*
X34574020Y-40784112D01*
X34653395Y-40797606D01*
X34716895Y-40838088D01*
X34758567Y-40905556D01*
X34772458Y-41000013D01*
X34772458Y-41455625D01*
X34934383Y-41455625D01*
X35174095Y-41455625D01*
X35896408Y-41455625D01*
X35896408Y-41307988D01*
X35617008Y-41307988D01*
X35617008Y-40492013D01*
X35888470Y-40492013D01*
X35888470Y-40344375D01*
X35182033Y-40344375D01*
X35182033Y-40492013D01*
X35450320Y-40492013D01*
X35450320Y-41307988D01*
X35174095Y-41307988D01*
X35174095Y-41455625D01*
X34934383Y-41455625D01*
X34934383Y-40661875D01*
X34788333Y-40661875D01*
X34772458Y-40760300D01*
X34761345Y-40760300D01*
X34699433Y-40696800D01*
X34619528Y-40658700D01*
X34521633Y-40646000D01*
X34401578Y-40666637D01*
X34308114Y-40728550D01*
X34247987Y-40827372D01*
X34227945Y-40958737D01*
X34227945Y-41455625D01*
X33977120Y-41455625D01*
X33977120Y-41395300D01*
X33963825Y-41283480D01*
X33923939Y-41182972D01*
X33857462Y-41093774D01*
X33764395Y-41015888D01*
X33607233Y-40907938D01*
X33537383Y-40854756D01*
X33487376Y-40793637D01*
X33462770Y-40711088D01*
X33506426Y-40603931D01*
X33619933Y-40561862D01*
X33695339Y-40576150D01*
X33753283Y-40619013D01*
X33791383Y-40679734D01*
X33807258Y-40747600D01*
X33975533Y-40747600D01*
X33961333Y-40664433D01*
X33927202Y-40588497D01*
X33873139Y-40519794D01*
X33801437Y-40465554D01*
X33714389Y-40433010D01*
X33611995Y-40422162D01*
X33483011Y-40441609D01*
X33381808Y-40499950D01*
X33316323Y-40590438D01*
X33294495Y-40706325D01*
X32501980Y-40706325D01*
X32963766Y-40013646D01*
X36227137Y-40013646D01*
X36227137Y-41786354D01*
X32963766Y-41786354D01*
X32372863Y-40900000D01*
G37*
%TO.C,kibuzzard-672CAA46*%
G36*
X32320740Y-43180000D02*
G01*
X32322857Y-43176825D01*
X33252956Y-43176825D01*
X33260546Y-43299410D01*
X33283316Y-43408402D01*
X33321268Y-43503800D01*
X33374399Y-43585606D01*
X33442116Y-43651239D01*
X33523823Y-43698120D01*
X33619519Y-43726249D01*
X33729206Y-43735625D01*
X34010193Y-43735625D01*
X34232443Y-43735625D01*
X34400718Y-43735625D01*
X34796006Y-42941875D01*
X34807118Y-42941875D01*
X34807118Y-43735625D01*
X34962693Y-43735625D01*
X35172243Y-43735625D01*
X35300831Y-43735625D01*
X35319881Y-43640375D01*
X35330993Y-43640375D01*
X35409574Y-43714988D01*
X35478829Y-43742372D01*
X35567531Y-43751500D01*
X35679978Y-43735537D01*
X35773906Y-43687647D01*
X35849312Y-43607831D01*
X35892720Y-43528407D01*
X35923726Y-43433802D01*
X35942329Y-43324016D01*
X35948531Y-43199050D01*
X35941684Y-43067734D01*
X35921146Y-42951598D01*
X35886916Y-42850643D01*
X35838993Y-42764869D01*
X35756619Y-42677997D01*
X35655549Y-42625874D01*
X35535781Y-42608500D01*
X35442471Y-42618466D01*
X35361508Y-42648364D01*
X35292893Y-42698194D01*
X35238742Y-42765839D01*
X35201171Y-42849183D01*
X35180181Y-42948225D01*
X35354806Y-42948225D01*
X35392553Y-42845037D01*
X35452878Y-42783125D01*
X35535781Y-42762488D01*
X35637381Y-42790467D01*
X35713581Y-42874406D01*
X35748858Y-42960219D01*
X35770025Y-43068434D01*
X35777081Y-43199050D01*
X35767492Y-43344782D01*
X35738727Y-43458130D01*
X35690784Y-43539093D01*
X35623665Y-43587670D01*
X35537368Y-43603863D01*
X35453429Y-43588781D01*
X35388937Y-43543538D01*
X35347860Y-43470116D01*
X35334168Y-43370500D01*
X35334168Y-43281600D01*
X35545306Y-43281600D01*
X35545306Y-43148250D01*
X35172243Y-43148250D01*
X35172243Y-43735625D01*
X34962693Y-43735625D01*
X34962693Y-42624375D01*
X34794418Y-42624375D01*
X34399131Y-43419713D01*
X34388018Y-43419713D01*
X34388018Y-42624375D01*
X34232443Y-42624375D01*
X34232443Y-43735625D01*
X34010193Y-43735625D01*
X34010193Y-42624375D01*
X33729206Y-42624375D01*
X33620164Y-42633652D01*
X33524815Y-42661483D01*
X33443158Y-42707868D01*
X33375193Y-42772806D01*
X33321714Y-42853719D01*
X33283515Y-42948027D01*
X33260595Y-43055729D01*
X33252956Y-43176825D01*
X32322857Y-43176825D01*
X32922226Y-42277771D01*
X36279260Y-42277771D01*
X36279260Y-44082229D01*
X32922226Y-44082229D01*
X32320740Y-43180000D01*
G37*
G36*
X33843506Y-43584812D02*
G01*
X33738731Y-43584812D01*
X33643392Y-43573259D01*
X33564811Y-43538599D01*
X33502987Y-43480831D01*
X33458449Y-43400839D01*
X33431726Y-43299503D01*
X33422818Y-43176825D01*
X33431593Y-43054102D01*
X33457919Y-42953693D01*
X33501796Y-42875597D01*
X33563224Y-42819814D01*
X33642202Y-42786344D01*
X33738731Y-42775188D01*
X33843506Y-42775188D01*
X33843506Y-43584812D01*
G37*
%TO.C,kibuzzard-672CAA40*%
G36*
X35691904Y-44909277D02*
G01*
X35765326Y-44989644D01*
X35799722Y-45071753D01*
X35820359Y-45175205D01*
X35827238Y-45300000D01*
X35820359Y-45424795D01*
X35799722Y-45528247D01*
X35765326Y-45610356D01*
X35691904Y-45690723D01*
X35595463Y-45717512D01*
X35500213Y-45690723D01*
X35427188Y-45610356D01*
X35392792Y-45528247D01*
X35372155Y-45424795D01*
X35365276Y-45300000D01*
X35372155Y-45175205D01*
X35392792Y-45071753D01*
X35427188Y-44989644D01*
X35500213Y-44909277D01*
X35595463Y-44882488D01*
X35691904Y-44909277D01*
G37*
G36*
X32073859Y-44397771D02*
G01*
X36324655Y-44397771D01*
X36926141Y-45300000D01*
X36324655Y-46202229D01*
X32073859Y-46202229D01*
X32073859Y-45106325D01*
X32404588Y-45106325D01*
X32422844Y-45215069D01*
X32474438Y-45301588D01*
X32528413Y-45355562D01*
X32580801Y-45395250D01*
X32755426Y-45515900D01*
X32826863Y-45577813D01*
X32873959Y-45645017D01*
X32896713Y-45717512D01*
X32409351Y-45717512D01*
X32409351Y-45855625D01*
X33087213Y-45855625D01*
X33087213Y-45795300D01*
X33073918Y-45683480D01*
X33034032Y-45582972D01*
X32967555Y-45493774D01*
X32874488Y-45415888D01*
X32717326Y-45307938D01*
X32647476Y-45254756D01*
X32597469Y-45193637D01*
X32596996Y-45192050D01*
X33323751Y-45192050D01*
X33646013Y-45192050D01*
X33646013Y-45574638D01*
X33626787Y-45664596D01*
X33569108Y-45718571D01*
X33472976Y-45736562D01*
X33368201Y-45723863D01*
X33368201Y-45854038D01*
X33438844Y-45867134D01*
X33511076Y-45871500D01*
X33617946Y-45860705D01*
X33630985Y-45855625D01*
X34292126Y-45855625D01*
X34438176Y-45855625D01*
X34454051Y-45757200D01*
X34465163Y-45757200D01*
X34527076Y-45820700D01*
X34606980Y-45858800D01*
X34704876Y-45871500D01*
X34824930Y-45850862D01*
X34918394Y-45788950D01*
X34978521Y-45690128D01*
X34998563Y-45558763D01*
X34998563Y-45300000D01*
X35198588Y-45300000D01*
X35205285Y-45426206D01*
X35225377Y-45538125D01*
X35258864Y-45635756D01*
X35305744Y-45719100D01*
X35385560Y-45803767D01*
X35482133Y-45854567D01*
X35595463Y-45871500D01*
X35709675Y-45854743D01*
X35806777Y-45804472D01*
X35886769Y-45720688D01*
X35933650Y-45637840D01*
X35967137Y-45540109D01*
X35987228Y-45427496D01*
X35993926Y-45300000D01*
X35987228Y-45173794D01*
X35967137Y-45061875D01*
X35933650Y-44964244D01*
X35886769Y-44880900D01*
X35806777Y-44796233D01*
X35709675Y-44745433D01*
X35595463Y-44728500D01*
X35482133Y-44745433D01*
X35385560Y-44796233D01*
X35305744Y-44880900D01*
X35258864Y-44964244D01*
X35225377Y-45061875D01*
X35205285Y-45173794D01*
X35198588Y-45300000D01*
X34998563Y-45300000D01*
X34998563Y-45061875D01*
X34836638Y-45061875D01*
X34836638Y-45530187D01*
X34823740Y-45619087D01*
X34785044Y-45682588D01*
X34726109Y-45720688D01*
X34652488Y-45733388D01*
X34573113Y-45719894D01*
X34509613Y-45679412D01*
X34467941Y-45611944D01*
X34454051Y-45517487D01*
X34454051Y-45061875D01*
X34292126Y-45061875D01*
X34292126Y-45855625D01*
X33630985Y-45855625D01*
X33701068Y-45828320D01*
X33760440Y-45774345D01*
X33796064Y-45698780D01*
X33807938Y-45601625D01*
X33807938Y-45192050D01*
X34060351Y-45192050D01*
X34060351Y-45061875D01*
X33930176Y-45061875D01*
X33823019Y-45030125D01*
X33792063Y-44919000D01*
X33792063Y-44845975D01*
X33646013Y-44845975D01*
X33646013Y-45061875D01*
X33323751Y-45061875D01*
X33323751Y-45192050D01*
X32596996Y-45192050D01*
X32572863Y-45111088D01*
X32616519Y-45003931D01*
X32730026Y-44961862D01*
X32805432Y-44976150D01*
X32863376Y-45019013D01*
X32901476Y-45079734D01*
X32917351Y-45147600D01*
X33085626Y-45147600D01*
X33071426Y-45064433D01*
X33037295Y-44988497D01*
X32983232Y-44919794D01*
X32911530Y-44865554D01*
X32824482Y-44833010D01*
X32722088Y-44822162D01*
X32593104Y-44841609D01*
X32491901Y-44899950D01*
X32426416Y-44990438D01*
X32404588Y-45106325D01*
X32073859Y-45106325D01*
X32073859Y-44397771D01*
G37*
%TO.C,kibuzzard-672CAA31*%
G36*
X11093390Y-44909277D02*
G01*
X11166812Y-44989644D01*
X11201208Y-45071753D01*
X11221845Y-45175205D01*
X11228724Y-45300000D01*
X11221845Y-45424795D01*
X11201208Y-45528247D01*
X11166812Y-45610356D01*
X11093390Y-45690723D01*
X10996949Y-45717512D01*
X10901699Y-45690723D01*
X10828674Y-45610356D01*
X10794278Y-45528247D01*
X10773641Y-45424795D01*
X10766762Y-45300000D01*
X10773641Y-45175205D01*
X10794278Y-45071753D01*
X10828674Y-44989644D01*
X10901699Y-44909277D01*
X10996949Y-44882488D01*
X11093390Y-44909277D01*
G37*
G36*
X6873859Y-45300000D02*
G01*
X7002976Y-45106325D01*
X7806074Y-45106325D01*
X7824331Y-45215069D01*
X7875924Y-45301588D01*
X7929899Y-45355562D01*
X7982287Y-45395250D01*
X8156912Y-45515900D01*
X8228349Y-45577813D01*
X8275445Y-45645017D01*
X8298199Y-45717512D01*
X7810837Y-45717512D01*
X7810837Y-45855625D01*
X8488699Y-45855625D01*
X8488699Y-45795300D01*
X8475404Y-45683480D01*
X8435518Y-45582972D01*
X8369041Y-45493774D01*
X8275974Y-45415888D01*
X8118812Y-45307938D01*
X8048962Y-45254756D01*
X7998956Y-45193637D01*
X7998483Y-45192050D01*
X8725237Y-45192050D01*
X9047499Y-45192050D01*
X9047499Y-45574638D01*
X9028273Y-45664596D01*
X8970594Y-45718571D01*
X8874462Y-45736562D01*
X8769687Y-45723863D01*
X8769687Y-45854038D01*
X8840331Y-45867134D01*
X8912562Y-45871500D01*
X9019432Y-45860705D01*
X9032471Y-45855625D01*
X9693612Y-45855625D01*
X9839662Y-45855625D01*
X9855537Y-45757200D01*
X9866649Y-45757200D01*
X9928562Y-45820700D01*
X10008466Y-45858800D01*
X10106362Y-45871500D01*
X10226416Y-45850862D01*
X10319881Y-45788950D01*
X10380007Y-45690128D01*
X10400049Y-45558763D01*
X10400049Y-45300000D01*
X10600074Y-45300000D01*
X10606772Y-45426206D01*
X10626863Y-45538125D01*
X10660350Y-45635756D01*
X10707231Y-45719100D01*
X10787047Y-45803767D01*
X10883619Y-45854567D01*
X10996949Y-45871500D01*
X11111161Y-45854743D01*
X11208263Y-45804472D01*
X11288256Y-45720688D01*
X11335136Y-45637840D01*
X11368623Y-45540109D01*
X11388715Y-45427496D01*
X11395412Y-45300000D01*
X11388715Y-45173794D01*
X11368623Y-45061875D01*
X11335136Y-44964244D01*
X11288256Y-44880900D01*
X11208263Y-44796233D01*
X11111161Y-44745433D01*
X10996949Y-44728500D01*
X10883619Y-44745433D01*
X10787047Y-44796233D01*
X10707231Y-44880900D01*
X10660350Y-44964244D01*
X10626863Y-45061875D01*
X10606772Y-45173794D01*
X10600074Y-45300000D01*
X10400049Y-45300000D01*
X10400049Y-45061875D01*
X10238124Y-45061875D01*
X10238124Y-45530187D01*
X10225226Y-45619087D01*
X10186531Y-45682588D01*
X10127595Y-45720688D01*
X10053974Y-45733388D01*
X9974599Y-45719894D01*
X9911099Y-45679412D01*
X9869427Y-45611944D01*
X9855537Y-45517487D01*
X9855537Y-45061875D01*
X9693612Y-45061875D01*
X9693612Y-45855625D01*
X9032471Y-45855625D01*
X9102554Y-45828320D01*
X9161926Y-45774345D01*
X9197550Y-45698780D01*
X9209424Y-45601625D01*
X9209424Y-45192050D01*
X9461837Y-45192050D01*
X9461837Y-45061875D01*
X9331662Y-45061875D01*
X9224506Y-45030125D01*
X9193549Y-44919000D01*
X9193549Y-44845975D01*
X9047499Y-44845975D01*
X9047499Y-45061875D01*
X8725237Y-45061875D01*
X8725237Y-45192050D01*
X7998483Y-45192050D01*
X7974349Y-45111088D01*
X8018006Y-45003931D01*
X8131512Y-44961862D01*
X8206918Y-44976150D01*
X8264862Y-45019013D01*
X8302962Y-45079734D01*
X8318837Y-45147600D01*
X8487112Y-45147600D01*
X8472912Y-45064433D01*
X8438781Y-44988497D01*
X8384718Y-44919794D01*
X8313016Y-44865554D01*
X8225968Y-44833010D01*
X8123574Y-44822162D01*
X7994590Y-44841609D01*
X7893387Y-44899950D01*
X7827902Y-44990438D01*
X7806074Y-45106325D01*
X7002976Y-45106325D01*
X7475345Y-44397771D01*
X11726141Y-44397771D01*
X11726141Y-46202229D01*
X7475345Y-46202229D01*
X6873859Y-45300000D01*
G37*
%TO.C,kibuzzard-672CAA2D*%
G36*
X8342019Y-43604812D02*
G01*
X8237244Y-43604812D01*
X8141906Y-43593259D01*
X8063325Y-43558599D01*
X8001501Y-43500831D01*
X7956962Y-43420839D01*
X7930240Y-43319503D01*
X7921332Y-43196825D01*
X7930107Y-43074102D01*
X7956433Y-42973693D01*
X8000310Y-42895597D01*
X8061737Y-42839814D01*
X8140716Y-42806344D01*
X8237244Y-42795188D01*
X8342019Y-42795188D01*
X8342019Y-43604812D01*
G37*
G36*
X7420740Y-42297771D02*
G01*
X10777774Y-42297771D01*
X11379260Y-43200000D01*
X10777774Y-44102229D01*
X7420740Y-44102229D01*
X7420740Y-43196825D01*
X7751469Y-43196825D01*
X7759060Y-43319410D01*
X7781830Y-43428402D01*
X7819782Y-43523800D01*
X7872913Y-43605606D01*
X7940630Y-43671239D01*
X8022337Y-43718120D01*
X8118033Y-43746249D01*
X8227719Y-43755625D01*
X8508707Y-43755625D01*
X8730957Y-43755625D01*
X8899232Y-43755625D01*
X9294519Y-42961875D01*
X9305632Y-42961875D01*
X9305632Y-43755625D01*
X9461207Y-43755625D01*
X9670757Y-43755625D01*
X9799344Y-43755625D01*
X9818394Y-43660375D01*
X9829507Y-43660375D01*
X9908088Y-43734988D01*
X9977343Y-43762372D01*
X10066044Y-43771500D01*
X10178492Y-43755537D01*
X10272419Y-43707647D01*
X10347826Y-43627831D01*
X10391234Y-43548407D01*
X10422240Y-43453802D01*
X10440843Y-43344016D01*
X10447044Y-43219050D01*
X10440198Y-43087734D01*
X10419660Y-42971598D01*
X10385430Y-42870643D01*
X10337507Y-42784869D01*
X10255133Y-42697997D01*
X10154063Y-42645874D01*
X10034294Y-42628500D01*
X9940985Y-42638466D01*
X9860022Y-42668364D01*
X9791407Y-42718194D01*
X9737256Y-42785839D01*
X9699685Y-42869183D01*
X9678694Y-42968225D01*
X9853319Y-42968225D01*
X9891067Y-42865037D01*
X9951392Y-42803125D01*
X10034294Y-42782488D01*
X10135894Y-42810467D01*
X10212094Y-42894406D01*
X10247372Y-42980219D01*
X10268539Y-43088434D01*
X10275594Y-43219050D01*
X10266006Y-43364782D01*
X10237240Y-43478130D01*
X10189298Y-43559093D01*
X10122178Y-43607670D01*
X10035882Y-43623863D01*
X9951943Y-43608781D01*
X9887451Y-43563538D01*
X9846374Y-43490116D01*
X9832682Y-43390500D01*
X9832682Y-43301600D01*
X10043819Y-43301600D01*
X10043819Y-43168250D01*
X9670757Y-43168250D01*
X9670757Y-43755625D01*
X9461207Y-43755625D01*
X9461207Y-42644375D01*
X9292932Y-42644375D01*
X8897644Y-43439713D01*
X8886532Y-43439713D01*
X8886532Y-42644375D01*
X8730957Y-42644375D01*
X8730957Y-43755625D01*
X8508707Y-43755625D01*
X8508707Y-42644375D01*
X8227719Y-42644375D01*
X8118678Y-42653652D01*
X8023329Y-42681483D01*
X7941672Y-42727868D01*
X7873707Y-42792806D01*
X7820228Y-42873719D01*
X7782029Y-42968027D01*
X7759109Y-43075729D01*
X7751469Y-43196825D01*
X7420740Y-43196825D01*
X7420740Y-42297771D01*
G37*
%TO.C,kibuzzard-672CAA28*%
G36*
X7372863Y-40013646D02*
G01*
X10636234Y-40013646D01*
X11227137Y-40900000D01*
X10636234Y-41786354D01*
X7372863Y-41786354D01*
X7372863Y-40706325D01*
X7703592Y-40706325D01*
X7721849Y-40815069D01*
X7773442Y-40901588D01*
X7827417Y-40955562D01*
X7879805Y-40995250D01*
X8054430Y-41115900D01*
X8125867Y-41177813D01*
X8172963Y-41245017D01*
X8195717Y-41317512D01*
X7708355Y-41317512D01*
X7708355Y-41455625D01*
X8386217Y-41455625D01*
X8637042Y-41455625D01*
X8798967Y-41455625D01*
X8798967Y-40987313D01*
X8811866Y-40898413D01*
X8850561Y-40834912D01*
X8909497Y-40796812D01*
X8983117Y-40784112D01*
X9062492Y-40797606D01*
X9125992Y-40838088D01*
X9167664Y-40905556D01*
X9181555Y-41000013D01*
X9181555Y-41455625D01*
X9343480Y-41455625D01*
X9583192Y-41455625D01*
X10305505Y-41455625D01*
X10305505Y-41307988D01*
X10026105Y-41307988D01*
X10026105Y-40492013D01*
X10297567Y-40492013D01*
X10297567Y-40344375D01*
X9591130Y-40344375D01*
X9591130Y-40492013D01*
X9859417Y-40492013D01*
X9859417Y-41307988D01*
X9583192Y-41307988D01*
X9583192Y-41455625D01*
X9343480Y-41455625D01*
X9343480Y-40661875D01*
X9197430Y-40661875D01*
X9181555Y-40760300D01*
X9170442Y-40760300D01*
X9108530Y-40696800D01*
X9028626Y-40658700D01*
X8930730Y-40646000D01*
X8810675Y-40666637D01*
X8717211Y-40728550D01*
X8657085Y-40827372D01*
X8637042Y-40958737D01*
X8637042Y-41455625D01*
X8386217Y-41455625D01*
X8386217Y-41395300D01*
X8372922Y-41283480D01*
X8333036Y-41182972D01*
X8266560Y-41093774D01*
X8173492Y-41015888D01*
X8016330Y-40907938D01*
X7946480Y-40854756D01*
X7896474Y-40793637D01*
X7871867Y-40711088D01*
X7915524Y-40603931D01*
X8029030Y-40561862D01*
X8104436Y-40576150D01*
X8162380Y-40619013D01*
X8200480Y-40679734D01*
X8216355Y-40747600D01*
X8384630Y-40747600D01*
X8370431Y-40664433D01*
X8336299Y-40588497D01*
X8282236Y-40519794D01*
X8210534Y-40465554D01*
X8123486Y-40433010D01*
X8021092Y-40422162D01*
X7892108Y-40441609D01*
X7790905Y-40499950D01*
X7725420Y-40590438D01*
X7703592Y-40706325D01*
X7372863Y-40706325D01*
X7372863Y-40013646D01*
G37*
%TO.C,kibuzzard-672CAA21*%
G36*
X3770930Y-32173333D02*
G01*
X7094626Y-32173333D01*
X7659070Y-33020000D01*
X7094626Y-33866667D01*
X3770930Y-33866667D01*
X3770930Y-33197800D01*
X4101659Y-33197800D01*
X4112948Y-33293579D01*
X4146815Y-33375600D01*
X4203259Y-33443863D01*
X4277519Y-33495015D01*
X4364831Y-33525707D01*
X4465197Y-33535938D01*
X4559212Y-33526589D01*
X4640174Y-33498543D01*
X4708084Y-33451800D01*
X4760119Y-33389358D01*
X4793456Y-33314217D01*
X4808097Y-33226375D01*
X4650934Y-33226375D01*
X4633273Y-33300194D01*
X4592990Y-33356550D01*
X4534451Y-33392269D01*
X4462022Y-33404175D01*
X4383043Y-33390483D01*
X4320734Y-33349406D01*
X4280253Y-33284914D01*
X4266759Y-33200975D01*
X4279657Y-33117036D01*
X4318353Y-33049369D01*
X4378479Y-33004720D01*
X4455672Y-32989838D01*
X4563622Y-33016825D01*
X4639822Y-33093025D01*
X4785872Y-33059688D01*
X4753487Y-32726313D01*
X5009709Y-32726313D01*
X5309747Y-33520063D01*
X5506597Y-33520063D01*
X5593465Y-33291463D01*
X5959034Y-33291463D01*
X6133659Y-33291463D01*
X6133659Y-33520063D01*
X6289234Y-33520063D01*
X6289234Y-33291463D01*
X6763897Y-33291463D01*
X6763897Y-33210500D01*
X6303522Y-32504063D01*
X6133659Y-32504063D01*
X6133659Y-33166050D01*
X5959034Y-33166050D01*
X5959034Y-33291463D01*
X5593465Y-33291463D01*
X5808222Y-32726313D01*
X5641534Y-32726313D01*
X5412934Y-33351788D01*
X5401822Y-33351788D01*
X5174809Y-32726313D01*
X5009709Y-32726313D01*
X4753487Y-32726313D01*
X4731897Y-32504063D01*
X4149284Y-32504063D01*
X4149284Y-32640588D01*
X4590609Y-32640588D01*
X4620772Y-32932688D01*
X4533856Y-32881491D01*
X4422334Y-32864425D01*
X4333081Y-32874920D01*
X4255823Y-32906406D01*
X4190559Y-32958881D01*
X4141170Y-33027408D01*
X4111537Y-33107048D01*
X4101659Y-33197800D01*
X3770930Y-33197800D01*
X3770930Y-32173333D01*
G37*
G36*
X6574984Y-33166050D02*
G01*
X6289234Y-33166050D01*
X6289234Y-32723138D01*
X6301934Y-32723138D01*
X6574984Y-33166050D01*
G37*
%TO.C,kibuzzard-672CAA1B*%
G36*
X3782307Y-27084602D02*
G01*
X7077428Y-27084602D01*
X7647693Y-27940000D01*
X7077428Y-28795398D01*
X3782307Y-28795398D01*
X3782307Y-27942381D01*
X4113036Y-27942381D01*
X4119436Y-28063825D01*
X4138635Y-28169394D01*
X4170633Y-28259087D01*
X4215430Y-28332906D01*
X4291894Y-28406108D01*
X4384763Y-28450028D01*
X4494036Y-28464669D01*
X4603574Y-28449852D01*
X4697236Y-28405402D01*
X4775024Y-28331319D01*
X4820863Y-28256805D01*
X4853605Y-28166616D01*
X4873250Y-28060749D01*
X4879799Y-27939206D01*
X4873250Y-27819003D01*
X4853605Y-27713980D01*
X4832127Y-27655044D01*
X5049661Y-27655044D01*
X5349699Y-28448794D01*
X5546549Y-28448794D01*
X5805947Y-27766169D01*
X6043436Y-27766169D01*
X6051770Y-27858839D01*
X6076774Y-27943175D01*
X6116461Y-28025130D01*
X6168849Y-28110656D01*
X6387924Y-28448794D01*
X6587949Y-28448794D01*
X6314899Y-28056681D01*
X6433961Y-28077319D01*
X6557389Y-28054498D01*
X6657799Y-27986037D01*
X6707188Y-27919627D01*
X6736821Y-27842104D01*
X6746699Y-27753469D01*
X6735763Y-27660159D01*
X6702954Y-27579197D01*
X6648274Y-27510581D01*
X6576483Y-27458547D01*
X6492346Y-27427326D01*
X6395861Y-27416919D01*
X6297701Y-27427590D01*
X6212769Y-27459605D01*
X6141067Y-27512963D01*
X6086828Y-27583783D01*
X6054284Y-27668185D01*
X6043436Y-27766169D01*
X5805947Y-27766169D01*
X5848174Y-27655044D01*
X5681486Y-27655044D01*
X5452886Y-28280519D01*
X5441774Y-28280519D01*
X5214761Y-27655044D01*
X5049661Y-27655044D01*
X4832127Y-27655044D01*
X4820863Y-27624137D01*
X4775024Y-27549475D01*
X4697236Y-27474951D01*
X4603574Y-27430236D01*
X4494036Y-27415331D01*
X4384763Y-27430236D01*
X4291894Y-27474951D01*
X4215430Y-27549475D01*
X4170633Y-27624336D01*
X4138635Y-27714773D01*
X4119436Y-27820789D01*
X4113036Y-27942381D01*
X3782307Y-27942381D01*
X3782307Y-27084602D01*
G37*
G36*
X4646436Y-28232894D02*
G01*
X4580555Y-28300759D01*
X4494036Y-28323381D01*
X4408113Y-28299569D01*
X4340842Y-28228131D01*
X4308651Y-28153872D01*
X4289337Y-28058092D01*
X4282899Y-27940794D01*
X4286867Y-27851894D01*
X4298774Y-27769344D01*
X4646436Y-28232894D01*
G37*
G36*
X4580158Y-27580431D02*
G01*
X4648024Y-27651869D01*
X4680656Y-27726305D01*
X4700235Y-27822613D01*
X4706761Y-27940794D01*
X4702792Y-28034059D01*
X4690886Y-28110656D01*
X4343224Y-27648694D01*
X4408708Y-27579637D01*
X4494036Y-27556619D01*
X4580158Y-27580431D01*
G37*
G36*
X6474641Y-27565152D02*
G01*
X6534767Y-27609800D01*
X6573463Y-27676277D01*
X6586361Y-27756644D01*
X6573661Y-27835027D01*
X6535561Y-27898725D01*
X6475633Y-27940992D01*
X6397449Y-27955081D01*
X6320256Y-27940794D01*
X6260130Y-27897931D01*
X6221435Y-27834034D01*
X6208536Y-27756644D01*
X6221633Y-27676277D01*
X6260924Y-27609800D01*
X6321249Y-27565152D01*
X6397449Y-27550269D01*
X6474641Y-27565152D01*
G37*
%TO.C,kibuzzard-672CAA17*%
G36*
X3735740Y-29577771D02*
G01*
X7092774Y-29577771D01*
X7694260Y-30480000D01*
X7092774Y-31382229D01*
X3735740Y-31382229D01*
X3735740Y-30476825D01*
X4066469Y-30476825D01*
X4074060Y-30599410D01*
X4096830Y-30708402D01*
X4134782Y-30803800D01*
X4187913Y-30885606D01*
X4255630Y-30951239D01*
X4337337Y-30998120D01*
X4433033Y-31026249D01*
X4542719Y-31035625D01*
X4823707Y-31035625D01*
X5045957Y-31035625D01*
X5214232Y-31035625D01*
X5609519Y-30241875D01*
X5620632Y-30241875D01*
X5620632Y-31035625D01*
X5776207Y-31035625D01*
X5985757Y-31035625D01*
X6114344Y-31035625D01*
X6133394Y-30940375D01*
X6144507Y-30940375D01*
X6223088Y-31014988D01*
X6292343Y-31042372D01*
X6381044Y-31051500D01*
X6493492Y-31035537D01*
X6587419Y-30987647D01*
X6662826Y-30907831D01*
X6706234Y-30828407D01*
X6737240Y-30733802D01*
X6755843Y-30624016D01*
X6762044Y-30499050D01*
X6755198Y-30367734D01*
X6734660Y-30251598D01*
X6700430Y-30150643D01*
X6652507Y-30064869D01*
X6570133Y-29977997D01*
X6469063Y-29925874D01*
X6349294Y-29908500D01*
X6255985Y-29918466D01*
X6175022Y-29948364D01*
X6106407Y-29998194D01*
X6052256Y-30065839D01*
X6014685Y-30149183D01*
X5993694Y-30248225D01*
X6168319Y-30248225D01*
X6206067Y-30145037D01*
X6266392Y-30083125D01*
X6349294Y-30062488D01*
X6450894Y-30090467D01*
X6527094Y-30174406D01*
X6562372Y-30260219D01*
X6583539Y-30368434D01*
X6590594Y-30499050D01*
X6581006Y-30644782D01*
X6552240Y-30758130D01*
X6504298Y-30839093D01*
X6437178Y-30887670D01*
X6350882Y-30903863D01*
X6266943Y-30888781D01*
X6202451Y-30843538D01*
X6161374Y-30770116D01*
X6147682Y-30670500D01*
X6147682Y-30581600D01*
X6358819Y-30581600D01*
X6358819Y-30448250D01*
X5985757Y-30448250D01*
X5985757Y-31035625D01*
X5776207Y-31035625D01*
X5776207Y-29924375D01*
X5607932Y-29924375D01*
X5212644Y-30719713D01*
X5201532Y-30719713D01*
X5201532Y-29924375D01*
X5045957Y-29924375D01*
X5045957Y-31035625D01*
X4823707Y-31035625D01*
X4823707Y-29924375D01*
X4542719Y-29924375D01*
X4433678Y-29933652D01*
X4338329Y-29961483D01*
X4256672Y-30007868D01*
X4188707Y-30072806D01*
X4135228Y-30153719D01*
X4097029Y-30248027D01*
X4074109Y-30355729D01*
X4066469Y-30476825D01*
X3735740Y-30476825D01*
X3735740Y-29577771D01*
G37*
G36*
X4657019Y-30884812D02*
G01*
X4552244Y-30884812D01*
X4456906Y-30873259D01*
X4378325Y-30838599D01*
X4316501Y-30780831D01*
X4271962Y-30700839D01*
X4245240Y-30599503D01*
X4236332Y-30476825D01*
X4245107Y-30354102D01*
X4271433Y-30253693D01*
X4315310Y-30175597D01*
X4376737Y-30119814D01*
X4455716Y-30086344D01*
X4552244Y-30075188D01*
X4657019Y-30075188D01*
X4657019Y-30884812D01*
G37*
%TO.C,kibuzzard-672CA9F1*%
G36*
X11098946Y-16909277D02*
G01*
X11172368Y-16989644D01*
X11206764Y-17071753D01*
X11227401Y-17175205D01*
X11234281Y-17300000D01*
X11227401Y-17424795D01*
X11206764Y-17528247D01*
X11172368Y-17610356D01*
X11098946Y-17690723D01*
X11002506Y-17717512D01*
X10907256Y-17690723D01*
X10834231Y-17610356D01*
X10799835Y-17528247D01*
X10779197Y-17424795D01*
X10772318Y-17300000D01*
X10779197Y-17175205D01*
X10799835Y-17071753D01*
X10834231Y-16989644D01*
X10907256Y-16909277D01*
X11002506Y-16882488D01*
X11098946Y-16909277D01*
G37*
G36*
X6868303Y-17300000D02*
G01*
X7469789Y-16397771D01*
X11731697Y-16397771D01*
X11731697Y-18202229D01*
X7469789Y-18202229D01*
X7238720Y-17855625D01*
X7800518Y-17855625D01*
X8492668Y-17855625D01*
X8492668Y-17720688D01*
X8225968Y-17720688D01*
X8225968Y-17192050D01*
X8730793Y-17192050D01*
X9053056Y-17192050D01*
X9053056Y-17574638D01*
X9033829Y-17664596D01*
X8976150Y-17718571D01*
X8880018Y-17736562D01*
X8775243Y-17723863D01*
X8775243Y-17854038D01*
X8845887Y-17867134D01*
X8918118Y-17871500D01*
X9024989Y-17860705D01*
X9038028Y-17855625D01*
X9699168Y-17855625D01*
X9845218Y-17855625D01*
X9861093Y-17757200D01*
X9872206Y-17757200D01*
X9934118Y-17820700D01*
X10014022Y-17858800D01*
X10111918Y-17871500D01*
X10231973Y-17850862D01*
X10325437Y-17788950D01*
X10385563Y-17690128D01*
X10405606Y-17558763D01*
X10405606Y-17300000D01*
X10605631Y-17300000D01*
X10612328Y-17426206D01*
X10632420Y-17538125D01*
X10665906Y-17635756D01*
X10712787Y-17719100D01*
X10792603Y-17803767D01*
X10889176Y-17854567D01*
X11002506Y-17871500D01*
X11116717Y-17854743D01*
X11213819Y-17804472D01*
X11293812Y-17720688D01*
X11340693Y-17637840D01*
X11374179Y-17540109D01*
X11394271Y-17427496D01*
X11400968Y-17300000D01*
X11394271Y-17173794D01*
X11374179Y-17061875D01*
X11340693Y-16964244D01*
X11293812Y-16880900D01*
X11213819Y-16796233D01*
X11116717Y-16745433D01*
X11002506Y-16728500D01*
X10889176Y-16745433D01*
X10792603Y-16796233D01*
X10712787Y-16880900D01*
X10665906Y-16964244D01*
X10632420Y-17061875D01*
X10612328Y-17173794D01*
X10605631Y-17300000D01*
X10405606Y-17300000D01*
X10405606Y-17061875D01*
X10243681Y-17061875D01*
X10243681Y-17530187D01*
X10230782Y-17619087D01*
X10192087Y-17682588D01*
X10133151Y-17720688D01*
X10059531Y-17733388D01*
X9980156Y-17719894D01*
X9916656Y-17679412D01*
X9874984Y-17611944D01*
X9861093Y-17517487D01*
X9861093Y-17061875D01*
X9699168Y-17061875D01*
X9699168Y-17855625D01*
X9038028Y-17855625D01*
X9108110Y-17828320D01*
X9167483Y-17774345D01*
X9203106Y-17698780D01*
X9214981Y-17601625D01*
X9214981Y-17192050D01*
X9467393Y-17192050D01*
X9467393Y-17061875D01*
X9337218Y-17061875D01*
X9230062Y-17030125D01*
X9199106Y-16919000D01*
X9199106Y-16845975D01*
X9053056Y-16845975D01*
X9053056Y-17061875D01*
X8730793Y-17061875D01*
X8730793Y-17192050D01*
X8225968Y-17192050D01*
X8225968Y-17152363D01*
X8465681Y-17152363D01*
X8465681Y-17020600D01*
X8351381Y-17020600D01*
X8272006Y-17006312D01*
X8224381Y-16963450D01*
X8208506Y-16892013D01*
X8208506Y-16839625D01*
X8059281Y-16839625D01*
X8059281Y-17720688D01*
X7800518Y-17720688D01*
X7800518Y-17855625D01*
X7238720Y-17855625D01*
X6868303Y-17300000D01*
G37*
%TO.C,kibuzzard-672CA9E5*%
G36*
X7420740Y-14337771D02*
G01*
X10777774Y-14337771D01*
X11379260Y-15240000D01*
X10777774Y-16142229D01*
X7420740Y-16142229D01*
X7420740Y-15236825D01*
X7751469Y-15236825D01*
X7759060Y-15359410D01*
X7781830Y-15468402D01*
X7819782Y-15563800D01*
X7872913Y-15645606D01*
X7940630Y-15711239D01*
X8022337Y-15758120D01*
X8118033Y-15786249D01*
X8227719Y-15795625D01*
X8508707Y-15795625D01*
X8730957Y-15795625D01*
X8899232Y-15795625D01*
X9294519Y-15001875D01*
X9305632Y-15001875D01*
X9305632Y-15795625D01*
X9461207Y-15795625D01*
X9670757Y-15795625D01*
X9799344Y-15795625D01*
X9818394Y-15700375D01*
X9829507Y-15700375D01*
X9908088Y-15774988D01*
X9977343Y-15802372D01*
X10066044Y-15811500D01*
X10178492Y-15795537D01*
X10272419Y-15747647D01*
X10347826Y-15667831D01*
X10391234Y-15588407D01*
X10422240Y-15493802D01*
X10440843Y-15384016D01*
X10447044Y-15259050D01*
X10440198Y-15127734D01*
X10419660Y-15011598D01*
X10385430Y-14910643D01*
X10337507Y-14824869D01*
X10255133Y-14737997D01*
X10154063Y-14685874D01*
X10034294Y-14668500D01*
X9940985Y-14678466D01*
X9860022Y-14708364D01*
X9791407Y-14758194D01*
X9737256Y-14825839D01*
X9699685Y-14909183D01*
X9678694Y-15008225D01*
X9853319Y-15008225D01*
X9891067Y-14905037D01*
X9951392Y-14843125D01*
X10034294Y-14822488D01*
X10135894Y-14850467D01*
X10212094Y-14934406D01*
X10247372Y-15020219D01*
X10268539Y-15128434D01*
X10275594Y-15259050D01*
X10266006Y-15404782D01*
X10237240Y-15518130D01*
X10189298Y-15599093D01*
X10122178Y-15647670D01*
X10035882Y-15663863D01*
X9951943Y-15648781D01*
X9887451Y-15603538D01*
X9846374Y-15530116D01*
X9832682Y-15430500D01*
X9832682Y-15341600D01*
X10043819Y-15341600D01*
X10043819Y-15208250D01*
X9670757Y-15208250D01*
X9670757Y-15795625D01*
X9461207Y-15795625D01*
X9461207Y-14684375D01*
X9292932Y-14684375D01*
X8897644Y-15479713D01*
X8886532Y-15479713D01*
X8886532Y-14684375D01*
X8730957Y-14684375D01*
X8730957Y-15795625D01*
X8508707Y-15795625D01*
X8508707Y-14684375D01*
X8227719Y-14684375D01*
X8118678Y-14693652D01*
X8023329Y-14721483D01*
X7941672Y-14767868D01*
X7873707Y-14832806D01*
X7820228Y-14913719D01*
X7782029Y-15008027D01*
X7759109Y-15115729D01*
X7751469Y-15236825D01*
X7420740Y-15236825D01*
X7420740Y-14337771D01*
G37*
G36*
X8342019Y-15644812D02*
G01*
X8237244Y-15644812D01*
X8141906Y-15633259D01*
X8063325Y-15598599D01*
X8001501Y-15540831D01*
X7956962Y-15460839D01*
X7930240Y-15359503D01*
X7921332Y-15236825D01*
X7930107Y-15114102D01*
X7956433Y-15013693D01*
X8000310Y-14935597D01*
X8061737Y-14879814D01*
X8140716Y-14846344D01*
X8237244Y-14835188D01*
X8342019Y-14835188D01*
X8342019Y-15644812D01*
G37*
%TO.C,kibuzzard-672CA9D7*%
G36*
X7367307Y-12313646D02*
G01*
X10641790Y-12313646D01*
X11232693Y-13200000D01*
X10641790Y-14086354D01*
X7367307Y-14086354D01*
X7367307Y-13755625D01*
X7698036Y-13755625D01*
X8390186Y-13755625D01*
X8642599Y-13755625D01*
X8804524Y-13755625D01*
X8804524Y-13287313D01*
X8817422Y-13198413D01*
X8856117Y-13134912D01*
X8915053Y-13096812D01*
X8988674Y-13084112D01*
X9068049Y-13097606D01*
X9131549Y-13138088D01*
X9173220Y-13205556D01*
X9187111Y-13300013D01*
X9187111Y-13755625D01*
X9349036Y-13755625D01*
X9588749Y-13755625D01*
X10311061Y-13755625D01*
X10311061Y-13607988D01*
X10031661Y-13607988D01*
X10031661Y-12792013D01*
X10303124Y-12792013D01*
X10303124Y-12644375D01*
X9596686Y-12644375D01*
X9596686Y-12792013D01*
X9864974Y-12792013D01*
X9864974Y-13607988D01*
X9588749Y-13607988D01*
X9588749Y-13755625D01*
X9349036Y-13755625D01*
X9349036Y-12961875D01*
X9202986Y-12961875D01*
X9187111Y-13060300D01*
X9175999Y-13060300D01*
X9114086Y-12996800D01*
X9034182Y-12958700D01*
X8936286Y-12946000D01*
X8816231Y-12966637D01*
X8722767Y-13028550D01*
X8662641Y-13127372D01*
X8642599Y-13258737D01*
X8642599Y-13755625D01*
X8390186Y-13755625D01*
X8390186Y-13620688D01*
X8123486Y-13620688D01*
X8123486Y-13052363D01*
X8363199Y-13052363D01*
X8363199Y-12920600D01*
X8248899Y-12920600D01*
X8169524Y-12906312D01*
X8121899Y-12863450D01*
X8106024Y-12792013D01*
X8106024Y-12739625D01*
X7956799Y-12739625D01*
X7956799Y-13620688D01*
X7698036Y-13620688D01*
X7698036Y-13755625D01*
X7367307Y-13755625D01*
X7367307Y-12313646D01*
G37*
%TO.C,G\u002A\u002A\u002A*%
G36*
X19190498Y-46355523D02*
G01*
X19200591Y-46356600D01*
X19277318Y-46368350D01*
X19351435Y-46385789D01*
X19420679Y-46408197D01*
X19482785Y-46434855D01*
X19535488Y-46465046D01*
X19538918Y-46467361D01*
X19561998Y-46483602D01*
X19582416Y-46499020D01*
X19598746Y-46512392D01*
X19609562Y-46522495D01*
X19613437Y-46528107D01*
X19608944Y-46528005D01*
X19597984Y-46523901D01*
X19579515Y-46516907D01*
X19557940Y-46508686D01*
X19557114Y-46508372D01*
X19538287Y-46501776D01*
X19513851Y-46493932D01*
X19486643Y-46485664D01*
X19459501Y-46477795D01*
X19435263Y-46471150D01*
X19416767Y-46466551D01*
X19406851Y-46464824D01*
X19406531Y-46467173D01*
X19410431Y-46477290D01*
X19418352Y-46492682D01*
X19431392Y-46525651D01*
X19434380Y-46562210D01*
X19426042Y-46598548D01*
X19406648Y-46633547D01*
X19376468Y-46666091D01*
X19375848Y-46666629D01*
X19342996Y-46689682D01*
X19301103Y-46710876D01*
X19253043Y-46729117D01*
X19201687Y-46743311D01*
X19149908Y-46752365D01*
X19135036Y-46753848D01*
X19080994Y-46755369D01*
X19023731Y-46751924D01*
X18969032Y-46743787D01*
X18931044Y-46734181D01*
X18889283Y-46719564D01*
X18849920Y-46701888D01*
X18815323Y-46682356D01*
X18787861Y-46662173D01*
X18769901Y-46642542D01*
X18765340Y-46635063D01*
X18765128Y-46629879D01*
X18772602Y-46626959D01*
X18789870Y-46624389D01*
X18825575Y-46616492D01*
X18854475Y-46603835D01*
X18875596Y-46587624D01*
X18888140Y-46569043D01*
X18891311Y-46549275D01*
X18884309Y-46529503D01*
X18866339Y-46510910D01*
X18859115Y-46505872D01*
X18822276Y-46488669D01*
X18782249Y-46482810D01*
X18781800Y-46482810D01*
X18767323Y-46482176D01*
X18762705Y-46479555D01*
X18765878Y-46473809D01*
X18769459Y-46468510D01*
X18769112Y-46464808D01*
X18765996Y-46465165D01*
X18752256Y-46468094D01*
X18731427Y-46473304D01*
X18706517Y-46479978D01*
X18680533Y-46487297D01*
X18656486Y-46494444D01*
X18637383Y-46500602D01*
X18620397Y-46506077D01*
X18605949Y-46509889D01*
X18599486Y-46510433D01*
X18600282Y-46507661D01*
X18608978Y-46499326D01*
X18625087Y-46487111D01*
X18646851Y-46472321D01*
X18672511Y-46456261D01*
X18705493Y-46438767D01*
X18747079Y-46420407D01*
X18793117Y-46402858D01*
X18839886Y-46387538D01*
X18883668Y-46375862D01*
X18893912Y-46373617D01*
X18950431Y-46363916D01*
X19012600Y-46356974D01*
X19076168Y-46353073D01*
X19136885Y-46352496D01*
X19190498Y-46355523D01*
G37*
G36*
X22034947Y-46973295D02*
G01*
X22037169Y-47024403D01*
X22039007Y-47085857D01*
X22039286Y-47096358D01*
X22040837Y-47144535D01*
X22042911Y-47197252D01*
X22045422Y-47253129D01*
X22048286Y-47310791D01*
X22051416Y-47368860D01*
X22054729Y-47425957D01*
X22058139Y-47480707D01*
X22061561Y-47531730D01*
X22064910Y-47577651D01*
X22068101Y-47617090D01*
X22071048Y-47648672D01*
X22073667Y-47671018D01*
X22075873Y-47682750D01*
X22076393Y-47683320D01*
X22081348Y-47678991D01*
X22090411Y-47665739D01*
X22102654Y-47645013D01*
X22117150Y-47618263D01*
X22165218Y-47532983D01*
X22223146Y-47446074D01*
X22287800Y-47364914D01*
X22361524Y-47286319D01*
X22388373Y-47260164D01*
X22420831Y-47230391D01*
X22447324Y-47208809D01*
X22468782Y-47194750D01*
X22486136Y-47187543D01*
X22500315Y-47186521D01*
X22506199Y-47186956D01*
X22516706Y-47184477D01*
X22528492Y-47176091D01*
X22544571Y-47159991D01*
X22558045Y-47147184D01*
X22582109Y-47128540D01*
X22605433Y-47114433D01*
X22609439Y-47112490D01*
X22627398Y-47104875D01*
X22644488Y-47100438D01*
X22664990Y-47098368D01*
X22693187Y-47097858D01*
X22698327Y-47097868D01*
X22725129Y-47098584D01*
X22744874Y-47100995D01*
X22761812Y-47105892D01*
X22780194Y-47114068D01*
X22795834Y-47122547D01*
X22817759Y-47137931D01*
X22839565Y-47158186D01*
X22863205Y-47185202D01*
X22890633Y-47220868D01*
X22913073Y-47253159D01*
X22946831Y-47312963D01*
X22970188Y-47373085D01*
X22983992Y-47435476D01*
X22984588Y-47440267D01*
X22986349Y-47460458D01*
X22988300Y-47490079D01*
X22990344Y-47527267D01*
X22992384Y-47570160D01*
X22994321Y-47616894D01*
X22996058Y-47665606D01*
X22997491Y-47706921D01*
X23006506Y-47901087D01*
X23018984Y-48086932D01*
X23034867Y-48264124D01*
X23054099Y-48432329D01*
X23076624Y-48591217D01*
X23102386Y-48740453D01*
X23131329Y-48879707D01*
X23163395Y-49008645D01*
X23198530Y-49126934D01*
X23236676Y-49234243D01*
X23277778Y-49330239D01*
X23280367Y-49335745D01*
X23297485Y-49373699D01*
X23309226Y-49403872D01*
X23316085Y-49428615D01*
X23318560Y-49450278D01*
X23317148Y-49471210D01*
X23312346Y-49493761D01*
X23296667Y-49537034D01*
X23270136Y-49580155D01*
X23235231Y-49615280D01*
X23207819Y-49633565D01*
X23180742Y-49643183D01*
X23156858Y-49641671D01*
X23150955Y-49639364D01*
X23133897Y-49630975D01*
X23111376Y-49618662D01*
X23086068Y-49604024D01*
X23060645Y-49588657D01*
X23037781Y-49574160D01*
X23020151Y-49562131D01*
X23010427Y-49554167D01*
X23008307Y-49551603D01*
X23002820Y-49540557D01*
X23000005Y-49524018D01*
X22999211Y-49498770D01*
X22999474Y-49483196D01*
X23001832Y-49460804D01*
X23007831Y-49440343D01*
X23018896Y-49415802D01*
X23033196Y-49391392D01*
X23053483Y-49365033D01*
X23075871Y-49342214D01*
X23097939Y-49325367D01*
X23117270Y-49316923D01*
X23129059Y-49313087D01*
X23134222Y-49308313D01*
X23134109Y-49307706D01*
X23129467Y-49299484D01*
X23119379Y-49285162D01*
X23105720Y-49267428D01*
X23090053Y-49246835D01*
X23049348Y-49183509D01*
X23010685Y-49108673D01*
X22974135Y-49022569D01*
X22939763Y-48925440D01*
X22907640Y-48817527D01*
X22877833Y-48699072D01*
X22850411Y-48570317D01*
X22825442Y-48431504D01*
X22802993Y-48282875D01*
X22783134Y-48124672D01*
X22781842Y-48113177D01*
X22777497Y-48072369D01*
X22773746Y-48033855D01*
X22770803Y-48000038D01*
X22768881Y-47973324D01*
X22768193Y-47956119D01*
X22769637Y-47929621D01*
X22779268Y-47877601D01*
X22798019Y-47818619D01*
X22825979Y-47752363D01*
X22850636Y-47697134D01*
X22870324Y-47646988D01*
X22884452Y-47602206D01*
X22893641Y-47560471D01*
X22898509Y-47519461D01*
X22899678Y-47476860D01*
X22898640Y-47436647D01*
X22896252Y-47405174D01*
X22892343Y-47383628D01*
X22886724Y-47370975D01*
X22879202Y-47366182D01*
X22874551Y-47365987D01*
X22870498Y-47368602D01*
X22868165Y-47376518D01*
X22866995Y-47391968D01*
X22866426Y-47417186D01*
X22865432Y-47428542D01*
X22862779Y-47458833D01*
X22849637Y-47516922D01*
X22827418Y-47580271D01*
X22796609Y-47648065D01*
X22757694Y-47719489D01*
X22711159Y-47793728D01*
X22657487Y-47869968D01*
X22597165Y-47947394D01*
X22530677Y-48025190D01*
X22458509Y-48102542D01*
X22441049Y-48120536D01*
X22415035Y-48147612D01*
X22392774Y-48171107D01*
X22375432Y-48189776D01*
X22364173Y-48202374D01*
X22360161Y-48207658D01*
X22361275Y-48210740D01*
X22367494Y-48221731D01*
X22377355Y-48236867D01*
X22377692Y-48237360D01*
X22405503Y-48284607D01*
X22430506Y-48339662D01*
X22451062Y-48398431D01*
X22465529Y-48456823D01*
X22468308Y-48475242D01*
X22471453Y-48509952D01*
X22473462Y-48552004D01*
X22474169Y-48598672D01*
X22474170Y-48695376D01*
X22509220Y-48708156D01*
X22525325Y-48714798D01*
X22543603Y-48724323D01*
X22554912Y-48732695D01*
X22556428Y-48734404D01*
X22560231Y-48740144D01*
X22560856Y-48746929D01*
X22557650Y-48757126D01*
X22549962Y-48773102D01*
X22537139Y-48797225D01*
X22535331Y-48800436D01*
X22506085Y-48852367D01*
X22429654Y-48971098D01*
X22343027Y-49085090D01*
X22247132Y-49193338D01*
X22142899Y-49294835D01*
X22031254Y-49388575D01*
X21913126Y-49473553D01*
X21861496Y-49506807D01*
X21726140Y-49585824D01*
X21581808Y-49659297D01*
X21429943Y-49726695D01*
X21289048Y-49780921D01*
X21271988Y-49787487D01*
X21109386Y-49841142D01*
X20943581Y-49887128D01*
X20776014Y-49924914D01*
X20608130Y-49953970D01*
X20509229Y-49968438D01*
X20492378Y-49947996D01*
X20483745Y-49938200D01*
X20468880Y-49923905D01*
X20455032Y-49913121D01*
X20443829Y-49906694D01*
X20436902Y-49905472D01*
X20435882Y-49910300D01*
X20442398Y-49922028D01*
X20444760Y-49926061D01*
X20450226Y-49945976D01*
X20452011Y-49976420D01*
X20452093Y-49985926D01*
X20453481Y-50006447D01*
X20457192Y-50019685D01*
X20464012Y-50029089D01*
X20467310Y-50032445D01*
X20471854Y-50036482D01*
X20477237Y-50039009D01*
X20485303Y-50040020D01*
X20497898Y-50039512D01*
X20516863Y-50037480D01*
X20544043Y-50033921D01*
X20581281Y-50028830D01*
X20727221Y-50005448D01*
X20902474Y-49968460D01*
X21076456Y-49922235D01*
X21247648Y-49867312D01*
X21414529Y-49804227D01*
X21575582Y-49733517D01*
X21729286Y-49655722D01*
X21874123Y-49571378D01*
X21905163Y-49551533D01*
X22025278Y-49465945D01*
X22139167Y-49370424D01*
X22246184Y-49265592D01*
X22345684Y-49152071D01*
X22437019Y-49030482D01*
X22474170Y-48976950D01*
X22474170Y-49043229D01*
X22473789Y-49072175D01*
X22471676Y-49101723D01*
X22466786Y-49126948D01*
X22458095Y-49151388D01*
X22444574Y-49178582D01*
X22425198Y-49212068D01*
X22386390Y-49273982D01*
X22306561Y-49386886D01*
X22218262Y-49495161D01*
X22123118Y-49597005D01*
X22022750Y-49690616D01*
X21918784Y-49774192D01*
X21850708Y-49822350D01*
X21732390Y-49896931D01*
X21605095Y-49967003D01*
X21470368Y-50031933D01*
X21329759Y-50091086D01*
X21184815Y-50143828D01*
X21037084Y-50189525D01*
X20888114Y-50227544D01*
X20739453Y-50257251D01*
X20660043Y-50269960D01*
X20584292Y-50280186D01*
X20516081Y-50287349D01*
X20456207Y-50291394D01*
X20405469Y-50292269D01*
X20364664Y-50289919D01*
X20334590Y-50284291D01*
X20333008Y-50283803D01*
X20326046Y-50281301D01*
X20317233Y-50277563D01*
X20306001Y-50272267D01*
X20291784Y-50265094D01*
X20274013Y-50255723D01*
X20252119Y-50243834D01*
X20225536Y-50229107D01*
X20193694Y-50211221D01*
X20156027Y-50189856D01*
X20111966Y-50164692D01*
X20060943Y-50135409D01*
X20002391Y-50101685D01*
X19935740Y-50063202D01*
X19860425Y-50019638D01*
X19775875Y-49970673D01*
X19681525Y-49915987D01*
X19646722Y-49895821D01*
X19588725Y-49862269D01*
X19578430Y-49856326D01*
X20578021Y-49856326D01*
X20579948Y-49867737D01*
X20585521Y-49872562D01*
X20585745Y-49872545D01*
X20598260Y-49870619D01*
X20620312Y-49866260D01*
X20649864Y-49859938D01*
X20684877Y-49852121D01*
X20723314Y-49843277D01*
X20763137Y-49833875D01*
X20802308Y-49824385D01*
X20838790Y-49815274D01*
X20870544Y-49807011D01*
X20968051Y-49780921D01*
X20968034Y-49759940D01*
X21010055Y-49759940D01*
X21010155Y-49761159D01*
X21012206Y-49763685D01*
X21018043Y-49763926D01*
X21029158Y-49761496D01*
X21047039Y-49756010D01*
X21073177Y-49747081D01*
X21109062Y-49734326D01*
X21119628Y-49730537D01*
X21151342Y-49719163D01*
X21180243Y-49708799D01*
X21203504Y-49700459D01*
X21218297Y-49695158D01*
X21243525Y-49686121D01*
X21244914Y-49657132D01*
X21292726Y-49657132D01*
X21294646Y-49662873D01*
X21296226Y-49662519D01*
X21307147Y-49658425D01*
X21326021Y-49650476D01*
X21350711Y-49639589D01*
X21379084Y-49626678D01*
X21384515Y-49624172D01*
X21416274Y-49609541D01*
X21446891Y-49595473D01*
X21473114Y-49583461D01*
X21491695Y-49574996D01*
X21507309Y-49567254D01*
X21523084Y-49556129D01*
X21529901Y-49544976D01*
X21529985Y-49544617D01*
X21531116Y-49532658D01*
X21531285Y-49525811D01*
X21569407Y-49525811D01*
X21571832Y-49531018D01*
X21572300Y-49530958D01*
X21581092Y-49527211D01*
X21597930Y-49518427D01*
X21620901Y-49505711D01*
X21648090Y-49490170D01*
X21677586Y-49472909D01*
X21707473Y-49455032D01*
X21735840Y-49437646D01*
X21760772Y-49421857D01*
X21812434Y-49388395D01*
X21815156Y-49360164D01*
X21851301Y-49360164D01*
X21851435Y-49360198D01*
X21857539Y-49356776D01*
X21871104Y-49347524D01*
X21890257Y-49333756D01*
X21913126Y-49316786D01*
X21919186Y-49312211D01*
X22043933Y-49210669D01*
X22159173Y-49102094D01*
X22265557Y-48985830D01*
X22363736Y-48861219D01*
X22408165Y-48800436D01*
X22408119Y-48759211D01*
X22408044Y-48751508D01*
X22404961Y-48706555D01*
X22397063Y-48658416D01*
X22383935Y-48605362D01*
X22365160Y-48545665D01*
X22340323Y-48477596D01*
X22333964Y-48461633D01*
X22317947Y-48424691D01*
X22299246Y-48384924D01*
X22278808Y-48344054D01*
X22257578Y-48303804D01*
X22236504Y-48265899D01*
X22216531Y-48232061D01*
X22198604Y-48204014D01*
X22183671Y-48183483D01*
X22172677Y-48172189D01*
X22167115Y-48168551D01*
X22158454Y-48166472D01*
X22149437Y-48172583D01*
X22146735Y-48175587D01*
X22142231Y-48183916D01*
X22138134Y-48196838D01*
X22134297Y-48215409D01*
X22130576Y-48240685D01*
X22126825Y-48273723D01*
X22122897Y-48315578D01*
X22118647Y-48367306D01*
X22116035Y-48402007D01*
X22113930Y-48429963D01*
X22112887Y-48444188D01*
X22106542Y-48527211D01*
X22100361Y-48601421D01*
X22099144Y-48614626D01*
X22094081Y-48669563D01*
X22087436Y-48734377D01*
X22080162Y-48798608D01*
X22071995Y-48864997D01*
X22069654Y-48883484D01*
X22065864Y-48913795D01*
X22062803Y-48938780D01*
X22060738Y-48956248D01*
X22059937Y-48964005D01*
X22059901Y-48964195D01*
X22056960Y-48960482D01*
X22049991Y-48947931D01*
X22039972Y-48928376D01*
X22027877Y-48903656D01*
X22022695Y-48893024D01*
X22009987Y-48867899D01*
X21995848Y-48840897D01*
X21981427Y-48814111D01*
X21967876Y-48789634D01*
X21956345Y-48769560D01*
X21947984Y-48755980D01*
X21943944Y-48750988D01*
X21943790Y-48751353D01*
X21943137Y-48759014D01*
X21942613Y-48773490D01*
X21941923Y-48781450D01*
X21938546Y-48801972D01*
X21933037Y-48828071D01*
X21926145Y-48855997D01*
X21921427Y-48874115D01*
X21915021Y-48900444D01*
X21909190Y-48927175D01*
X21903660Y-48955955D01*
X21898157Y-48988430D01*
X21892407Y-49026247D01*
X21886138Y-49071050D01*
X21879076Y-49124487D01*
X21870947Y-49188203D01*
X21869780Y-49197481D01*
X21864450Y-49240504D01*
X21859790Y-49279178D01*
X21857449Y-49299295D01*
X21855972Y-49311991D01*
X21853170Y-49337434D01*
X21851555Y-49353995D01*
X21851301Y-49360164D01*
X21815156Y-49360164D01*
X21816405Y-49347213D01*
X21817400Y-49299295D01*
X21809866Y-49236554D01*
X21793094Y-49168594D01*
X21767340Y-49096413D01*
X21732860Y-49021010D01*
X21722026Y-49000047D01*
X21707019Y-48972299D01*
X21692366Y-48946448D01*
X21679115Y-48924238D01*
X21668315Y-48907413D01*
X21661014Y-48897717D01*
X21658259Y-48896894D01*
X21659284Y-48901793D01*
X21664163Y-48913108D01*
X21665520Y-48916680D01*
X21666038Y-48928885D01*
X21662656Y-48948209D01*
X21655084Y-48976659D01*
X21651432Y-48989496D01*
X21642619Y-49022953D01*
X21634604Y-49057724D01*
X21627073Y-49095583D01*
X21619712Y-49138301D01*
X21612207Y-49187652D01*
X21604246Y-49245410D01*
X21595513Y-49313346D01*
X21594959Y-49317770D01*
X21589305Y-49362620D01*
X21583968Y-49404528D01*
X21579180Y-49441699D01*
X21575173Y-49472340D01*
X21572180Y-49494659D01*
X21570433Y-49506861D01*
X21569786Y-49511725D01*
X21569653Y-49512723D01*
X21569407Y-49525811D01*
X21531285Y-49525811D01*
X21531633Y-49511725D01*
X21531509Y-49484668D01*
X21530720Y-49454335D01*
X21530476Y-49447843D01*
X21528810Y-49415097D01*
X21526237Y-49389419D01*
X21522007Y-49366585D01*
X21515371Y-49342373D01*
X21505581Y-49312559D01*
X21505251Y-49311596D01*
X21489598Y-49269950D01*
X21470203Y-49224372D01*
X21448865Y-49178718D01*
X21427385Y-49136843D01*
X21407564Y-49102605D01*
X21392158Y-49078200D01*
X21381172Y-49104067D01*
X21379986Y-49107078D01*
X21374286Y-49125073D01*
X21367324Y-49151062D01*
X21359874Y-49182035D01*
X21352706Y-49214982D01*
X21349893Y-49228786D01*
X21345173Y-49252738D01*
X21340836Y-49276185D01*
X21336653Y-49300679D01*
X21332391Y-49327773D01*
X21327820Y-49359018D01*
X21322707Y-49395967D01*
X21316823Y-49440171D01*
X21309935Y-49493182D01*
X21301812Y-49556552D01*
X21300161Y-49569681D01*
X21295482Y-49610571D01*
X21293633Y-49632319D01*
X21293004Y-49639710D01*
X21292726Y-49657132D01*
X21244914Y-49657132D01*
X21245299Y-49649088D01*
X21245640Y-49632319D01*
X21244835Y-49601640D01*
X21242656Y-49573317D01*
X21242154Y-49569224D01*
X21233930Y-49527235D01*
X21219859Y-49478552D01*
X21200997Y-49425915D01*
X21178402Y-49372064D01*
X21153130Y-49319737D01*
X21126239Y-49271672D01*
X21120629Y-49262486D01*
X21111153Y-49247865D01*
X21105398Y-49241714D01*
X21101712Y-49242721D01*
X21098444Y-49249573D01*
X21095589Y-49257465D01*
X21087374Y-49283950D01*
X21078161Y-49317810D01*
X21068746Y-49355885D01*
X21059925Y-49395016D01*
X21052492Y-49432042D01*
X21050023Y-49446532D01*
X21046030Y-49472603D01*
X21041325Y-49505341D01*
X21036174Y-49542685D01*
X21030845Y-49582574D01*
X21025604Y-49622947D01*
X21020717Y-49661743D01*
X21016453Y-49696901D01*
X21013076Y-49726361D01*
X21010854Y-49748061D01*
X21010055Y-49759940D01*
X20968034Y-49759940D01*
X20968016Y-49738492D01*
X20963879Y-49674309D01*
X20950598Y-49599578D01*
X20928680Y-49520479D01*
X20898653Y-49438442D01*
X20861046Y-49354900D01*
X20816386Y-49271283D01*
X20765202Y-49189023D01*
X20744819Y-49159021D01*
X20868491Y-49159021D01*
X20869992Y-49163145D01*
X20875599Y-49177450D01*
X20884419Y-49199430D01*
X20895610Y-49226988D01*
X20908328Y-49258028D01*
X20916812Y-49278567D01*
X20928471Y-49306504D01*
X20938036Y-49329075D01*
X20944693Y-49344364D01*
X20947627Y-49350458D01*
X20948586Y-49350681D01*
X20953310Y-49344663D01*
X20959997Y-49330662D01*
X20967637Y-49311349D01*
X20975223Y-49289395D01*
X20981748Y-49267472D01*
X20986201Y-49248249D01*
X20987650Y-49238885D01*
X20990081Y-49216029D01*
X20992003Y-49188916D01*
X20993335Y-49160249D01*
X20993996Y-49132732D01*
X20993905Y-49109066D01*
X20992979Y-49091955D01*
X20991139Y-49084100D01*
X20985294Y-49085439D01*
X20971150Y-49091779D01*
X20950913Y-49102116D01*
X20926750Y-49115398D01*
X20904110Y-49128617D01*
X20882783Y-49142492D01*
X20871153Y-49152445D01*
X20868491Y-49159021D01*
X20744819Y-49159021D01*
X20744807Y-49159004D01*
X20719863Y-49124267D01*
X20699604Y-49099207D01*
X20683359Y-49083339D01*
X20670460Y-49076178D01*
X20660238Y-49077241D01*
X20652024Y-49086042D01*
X20645149Y-49102098D01*
X20644558Y-49104239D01*
X20641995Y-49119603D01*
X20639058Y-49145265D01*
X20635863Y-49179881D01*
X20632527Y-49222110D01*
X20629167Y-49270609D01*
X20625898Y-49324034D01*
X20624379Y-49350108D01*
X20619131Y-49433903D01*
X20618175Y-49447291D01*
X20613773Y-49508906D01*
X20608088Y-49577608D01*
X20601858Y-49642500D01*
X20594864Y-49706073D01*
X20586891Y-49770819D01*
X20583842Y-49795480D01*
X20580827Y-49822379D01*
X20578777Y-49843716D01*
X20578021Y-49856326D01*
X19578430Y-49856326D01*
X19534265Y-49830830D01*
X19484198Y-49801994D01*
X19439378Y-49776250D01*
X19400660Y-49754089D01*
X19368899Y-49736000D01*
X19344948Y-49722473D01*
X19329664Y-49713998D01*
X19323900Y-49711064D01*
X19323144Y-49715009D01*
X19324056Y-49728593D01*
X19326690Y-49749576D01*
X19330793Y-49775569D01*
X19336496Y-49810871D01*
X19343899Y-49861371D01*
X19351641Y-49918522D01*
X19359348Y-49979445D01*
X19366645Y-50041262D01*
X19373157Y-50101095D01*
X19374689Y-50118803D01*
X19376877Y-50157577D01*
X19378589Y-50207330D01*
X19379810Y-50267428D01*
X19380525Y-50337236D01*
X19380719Y-50416120D01*
X19380529Y-50477510D01*
X19379832Y-50544277D01*
X19378467Y-50602621D01*
X19376265Y-50654516D01*
X19373059Y-50701941D01*
X19368681Y-50746870D01*
X19362963Y-50791281D01*
X19355736Y-50837148D01*
X19346834Y-50886450D01*
X19336087Y-50941161D01*
X19326063Y-50987640D01*
X19305104Y-51070673D01*
X19280849Y-51151984D01*
X19254033Y-51229521D01*
X19225389Y-51301227D01*
X19195650Y-51365048D01*
X19165550Y-51418928D01*
X19150147Y-51443660D01*
X19182856Y-51465378D01*
X19189197Y-51469668D01*
X19212891Y-51488364D01*
X19227449Y-51506555D01*
X19234655Y-51527169D01*
X19236293Y-51553136D01*
X19235463Y-51566013D01*
X19225982Y-51606899D01*
X19207399Y-51647197D01*
X19181458Y-51683671D01*
X19149908Y-51713089D01*
X19146688Y-51715417D01*
X19127391Y-51727166D01*
X19109008Y-51733143D01*
X19089430Y-51733072D01*
X19066546Y-51726678D01*
X19038246Y-51713684D01*
X19002419Y-51693815D01*
X18992782Y-51688195D01*
X18967113Y-51672753D01*
X18949605Y-51661015D01*
X18938400Y-51651473D01*
X18931641Y-51642620D01*
X18927472Y-51632946D01*
X18922199Y-51600358D01*
X18925954Y-51563088D01*
X18938064Y-51524717D01*
X18957481Y-51487722D01*
X18983160Y-51454583D01*
X19014055Y-51427779D01*
X19018188Y-51424917D01*
X19027112Y-51418076D01*
X19033805Y-51410617D01*
X19039274Y-51400330D01*
X19044525Y-51385006D01*
X19050565Y-51362432D01*
X19058400Y-51330400D01*
X19079445Y-51239050D01*
X19104100Y-51115364D01*
X19123032Y-50995523D01*
X19136567Y-50876504D01*
X19145028Y-50755281D01*
X19148739Y-50628830D01*
X19148025Y-50494126D01*
X19147560Y-50472705D01*
X19145184Y-50393445D01*
X19141730Y-50318004D01*
X19137000Y-50244442D01*
X19130797Y-50170819D01*
X19122925Y-50095195D01*
X19113186Y-50015628D01*
X19101383Y-49930179D01*
X19087319Y-49836908D01*
X19070797Y-49733873D01*
X19039581Y-49543665D01*
X18779140Y-49392925D01*
X18767468Y-49386174D01*
X18717100Y-49357165D01*
X18670132Y-49330305D01*
X18627558Y-49306150D01*
X18590373Y-49285257D01*
X18559574Y-49268183D01*
X18536156Y-49255485D01*
X18521114Y-49247720D01*
X18515443Y-49245443D01*
X18515116Y-49249052D01*
X18516175Y-49262872D01*
X18518798Y-49285057D01*
X18522739Y-49313569D01*
X18527747Y-49346372D01*
X18538984Y-49418792D01*
X18549602Y-49492971D01*
X18558108Y-49560832D01*
X18564761Y-49625252D01*
X18569819Y-49689109D01*
X18573541Y-49755280D01*
X18576185Y-49826645D01*
X18578009Y-49906079D01*
X18578963Y-49982284D01*
X18578825Y-50057467D01*
X18577318Y-50125169D01*
X18574326Y-50187738D01*
X18569735Y-50247521D01*
X18563429Y-50306864D01*
X18555292Y-50368116D01*
X18540293Y-50459474D01*
X18516611Y-50571937D01*
X18488224Y-50678597D01*
X18455573Y-50777993D01*
X18419099Y-50868670D01*
X18379245Y-50949169D01*
X18347760Y-51006154D01*
X18383362Y-51031261D01*
X18392821Y-51038176D01*
X18415757Y-51058892D01*
X18428867Y-51079844D01*
X18433432Y-51103798D01*
X18430732Y-51133519D01*
X18427813Y-51146744D01*
X18419106Y-51174861D01*
X18408593Y-51200080D01*
X18399186Y-51216287D01*
X18379237Y-51242453D01*
X18355865Y-51266294D01*
X18331964Y-51284991D01*
X18310429Y-51295722D01*
X18306371Y-51296857D01*
X18294454Y-51298794D01*
X18281967Y-51297821D01*
X18266998Y-51293233D01*
X18247632Y-51284328D01*
X18221958Y-51270403D01*
X18188061Y-51250755D01*
X18175976Y-51243535D01*
X18150555Y-51226842D01*
X18133712Y-51212107D01*
X18123765Y-51197088D01*
X18119031Y-51179544D01*
X18117827Y-51157236D01*
X18119788Y-51134568D01*
X18130897Y-51095246D01*
X18150315Y-51056371D01*
X18176322Y-51021110D01*
X18207198Y-50992632D01*
X18235031Y-50972200D01*
X18254383Y-50892175D01*
X18263016Y-50855851D01*
X18287431Y-50743835D01*
X18306896Y-50637281D01*
X18321851Y-50532760D01*
X18332741Y-50426843D01*
X18340006Y-50316100D01*
X18344091Y-50197102D01*
X18344744Y-50157674D01*
X18344781Y-50067825D01*
X18342676Y-49977816D01*
X18338302Y-49886382D01*
X18331532Y-49792258D01*
X18322239Y-49694181D01*
X18310293Y-49590885D01*
X18295569Y-49481106D01*
X18277938Y-49363579D01*
X18257273Y-49237040D01*
X18247392Y-49180301D01*
X19031391Y-49180301D01*
X19032377Y-49182850D01*
X19039470Y-49180510D01*
X19051487Y-49176414D01*
X19086764Y-49172005D01*
X19120474Y-49179187D01*
X19152067Y-49197673D01*
X19180992Y-49227177D01*
X19206698Y-49267413D01*
X19209740Y-49273068D01*
X19220692Y-49291330D01*
X19229870Y-49303606D01*
X19235542Y-49307490D01*
X19241688Y-49300830D01*
X19247320Y-49287656D01*
X19250509Y-49277452D01*
X19262365Y-49250481D01*
X19277904Y-49231683D01*
X19299308Y-49218140D01*
X19307673Y-49214030D01*
X19327781Y-49203219D01*
X19343382Y-49193653D01*
X19353530Y-49187506D01*
X19363598Y-49186000D01*
X19369721Y-49194250D01*
X19373612Y-49213374D01*
X19374454Y-49219260D01*
X19376957Y-49233143D01*
X19378922Y-49239311D01*
X19379201Y-49239438D01*
X19387039Y-49242479D01*
X19404664Y-49249157D01*
X19430845Y-49259010D01*
X19464350Y-49271577D01*
X19503949Y-49286395D01*
X19548410Y-49303002D01*
X19596502Y-49320937D01*
X19632924Y-49334531D01*
X19682050Y-49352988D01*
X19721832Y-49368174D01*
X19753453Y-49380603D01*
X19778095Y-49390790D01*
X19796941Y-49399251D01*
X19811175Y-49406500D01*
X19821977Y-49413053D01*
X19830532Y-49419424D01*
X19838021Y-49426129D01*
X19845020Y-49432807D01*
X19857387Y-49444107D01*
X19862601Y-49447291D01*
X19861653Y-49442592D01*
X19855534Y-49430244D01*
X19851873Y-49423774D01*
X19842603Y-49411278D01*
X19829479Y-49398528D01*
X19810823Y-49384166D01*
X19784954Y-49366835D01*
X19750194Y-49345181D01*
X19735543Y-49336130D01*
X19708842Y-49318623D01*
X19689766Y-49304084D01*
X19676182Y-49290788D01*
X19665956Y-49277008D01*
X19646499Y-49250274D01*
X19606826Y-49211651D01*
X19559519Y-49181875D01*
X19558245Y-49181250D01*
X19536604Y-49171568D01*
X19517107Y-49165566D01*
X19495041Y-49162160D01*
X19465694Y-49160263D01*
X19432509Y-49157028D01*
X19384209Y-49146161D01*
X19331972Y-49127352D01*
X19273881Y-49099998D01*
X19256256Y-49091827D01*
X19239469Y-49086928D01*
X19219482Y-49084632D01*
X19191911Y-49084087D01*
X19172101Y-49084396D01*
X19149243Y-49086261D01*
X19131729Y-49090435D01*
X19115572Y-49097625D01*
X19090843Y-49112829D01*
X19060801Y-49138183D01*
X19039470Y-49165433D01*
X19036513Y-49170521D01*
X19031391Y-49180301D01*
X18247392Y-49180301D01*
X18233446Y-49100224D01*
X18228836Y-49074430D01*
X17970953Y-48925073D01*
X17961324Y-48919498D01*
X17911148Y-48890523D01*
X17864379Y-48863635D01*
X17822013Y-48839399D01*
X17785045Y-48818379D01*
X17754469Y-48801139D01*
X17731281Y-48788243D01*
X17716475Y-48780255D01*
X17711047Y-48777738D01*
X17710916Y-48779102D01*
X17711991Y-48789785D01*
X17714753Y-48809233D01*
X17718886Y-48835311D01*
X17724075Y-48865883D01*
X17730908Y-48906019D01*
X17756451Y-49081690D01*
X17774193Y-49252833D01*
X17784174Y-49418954D01*
X17786434Y-49579562D01*
X17781014Y-49734165D01*
X17767954Y-49882272D01*
X17747294Y-50023388D01*
X17719075Y-50157024D01*
X17683337Y-50282687D01*
X17640120Y-50399884D01*
X17589465Y-50508123D01*
X17587371Y-50512118D01*
X17574250Y-50537264D01*
X17563579Y-50557928D01*
X17556406Y-50572065D01*
X17553782Y-50577631D01*
X17553783Y-50577641D01*
X17558418Y-50581588D01*
X17570390Y-50590371D01*
X17587133Y-50602107D01*
X17591308Y-50605025D01*
X17615473Y-50624897D01*
X17629960Y-50644603D01*
X17636334Y-50667123D01*
X17636164Y-50695440D01*
X17631405Y-50723165D01*
X17618497Y-50760088D01*
X17599562Y-50794456D01*
X17576126Y-50824402D01*
X17549719Y-50848057D01*
X17521869Y-50863555D01*
X17494103Y-50869029D01*
X17486922Y-50868171D01*
X17466453Y-50861670D01*
X17440822Y-50850116D01*
X17412742Y-50835108D01*
X17384926Y-50818243D01*
X17360086Y-50801119D01*
X17340933Y-50785332D01*
X17330180Y-50772481D01*
X17322896Y-50748802D01*
X17322712Y-50717300D01*
X17329981Y-50682802D01*
X17343730Y-50647731D01*
X17362987Y-50614511D01*
X17386778Y-50585566D01*
X17414131Y-50563320D01*
X17421548Y-50558533D01*
X17428746Y-50552706D01*
X17434463Y-50545184D01*
X17439567Y-50533976D01*
X17444925Y-50517090D01*
X17451407Y-50492532D01*
X17459879Y-50458312D01*
X17466799Y-50429691D01*
X17493530Y-50307722D01*
X17514354Y-50190273D01*
X17529818Y-50073360D01*
X17540469Y-49953002D01*
X17546854Y-49825217D01*
X17549152Y-49687633D01*
X17546464Y-49544981D01*
X17538419Y-49400444D01*
X17524857Y-49251156D01*
X17505616Y-49094251D01*
X17502944Y-49075310D01*
X17498053Y-49042246D01*
X17492099Y-49003304D01*
X17485324Y-48959963D01*
X17477972Y-48913699D01*
X17470286Y-48865991D01*
X17462508Y-48818317D01*
X17454882Y-48772154D01*
X17449963Y-48742783D01*
X18227631Y-48742783D01*
X18228497Y-48743034D01*
X18237424Y-48741931D01*
X18252288Y-48738373D01*
X18266867Y-48735844D01*
X18298089Y-48737773D01*
X18329276Y-48747772D01*
X18355855Y-48764681D01*
X18357720Y-48766402D01*
X18371243Y-48781974D01*
X18386577Y-48803523D01*
X18400750Y-48826931D01*
X18404785Y-48834091D01*
X18416558Y-48852932D01*
X18426525Y-48866066D01*
X18432867Y-48870998D01*
X18434511Y-48870579D01*
X18440473Y-48862471D01*
X18444935Y-48846511D01*
X18450266Y-48829011D01*
X18463638Y-48806343D01*
X18481358Y-48788158D01*
X18500422Y-48778158D01*
X18503322Y-48777300D01*
X18519931Y-48769684D01*
X18537010Y-48758720D01*
X18546828Y-48752137D01*
X18558844Y-48749029D01*
X18565592Y-48756508D01*
X18567862Y-48774990D01*
X18568949Y-48785757D01*
X18572455Y-48796323D01*
X18572812Y-48796647D01*
X18581119Y-48800785D01*
X18599212Y-48808494D01*
X18625841Y-48819282D01*
X18659754Y-48832653D01*
X18699701Y-48848114D01*
X18744432Y-48865171D01*
X18792696Y-48883330D01*
X18823691Y-48894931D01*
X18873963Y-48913863D01*
X18914766Y-48929464D01*
X18947279Y-48942247D01*
X18972678Y-48952725D01*
X18992144Y-48961410D01*
X19006852Y-48968815D01*
X19017982Y-48975453D01*
X19026710Y-48981836D01*
X19034215Y-48988479D01*
X19038987Y-48993011D01*
X19052261Y-49005175D01*
X19058349Y-49009336D01*
X19058297Y-49005860D01*
X19053151Y-48995113D01*
X19049904Y-48989257D01*
X19049398Y-48988554D01*
X21148865Y-48988554D01*
X21149452Y-48991760D01*
X21153726Y-49004443D01*
X21155549Y-49009336D01*
X21161385Y-49024996D01*
X21171726Y-49051544D01*
X21184045Y-49082215D01*
X21192790Y-49103623D01*
X21204777Y-49132718D01*
X21204783Y-49132732D01*
X21214834Y-49156840D01*
X21222105Y-49173938D01*
X21225733Y-49181961D01*
X21227942Y-49183474D01*
X21233732Y-49178384D01*
X21241091Y-49165228D01*
X21249100Y-49146284D01*
X21256840Y-49123833D01*
X21263392Y-49100156D01*
X21267837Y-49077530D01*
X21269156Y-49066953D01*
X21271228Y-49042961D01*
X21272744Y-49015682D01*
X21273660Y-48987660D01*
X21273934Y-48961437D01*
X21273524Y-48939557D01*
X21272387Y-48924564D01*
X21270480Y-48919002D01*
X21265046Y-48921558D01*
X21251667Y-48928792D01*
X21232948Y-48939247D01*
X21211448Y-48951456D01*
X21189728Y-48963956D01*
X21170351Y-48975282D01*
X21155876Y-48983970D01*
X21148865Y-48988554D01*
X19049398Y-48988554D01*
X19040642Y-48976390D01*
X19027574Y-48963386D01*
X19009010Y-48948861D01*
X18983255Y-48931431D01*
X18948617Y-48909714D01*
X18933100Y-48900086D01*
X18905046Y-48881730D01*
X18885215Y-48866932D01*
X18871909Y-48854357D01*
X18863429Y-48842667D01*
X18862075Y-48840316D01*
X18851144Y-48825780D01*
X21431357Y-48825780D01*
X21432129Y-48829088D01*
X21436704Y-48841852D01*
X21444682Y-48862452D01*
X21455339Y-48889031D01*
X21467953Y-48919732D01*
X21477136Y-48941891D01*
X21485191Y-48961437D01*
X21489072Y-48970854D01*
X21498862Y-48994801D01*
X21505682Y-49011713D01*
X21508707Y-49019569D01*
X21509025Y-49020407D01*
X21513401Y-49021289D01*
X21520296Y-49012050D01*
X21528976Y-48993944D01*
X21538709Y-48968226D01*
X21544979Y-48944527D01*
X21550728Y-48912409D01*
X21555330Y-48876386D01*
X21558373Y-48840352D01*
X21559449Y-48808202D01*
X21558145Y-48783830D01*
X21556932Y-48775816D01*
X21554188Y-48762322D01*
X21551964Y-48756989D01*
X21551891Y-48757000D01*
X21545687Y-48760095D01*
X21531829Y-48767683D01*
X21512879Y-48778304D01*
X21491396Y-48790497D01*
X21469941Y-48802802D01*
X21451076Y-48813758D01*
X21437361Y-48821904D01*
X21431357Y-48825780D01*
X18851144Y-48825780D01*
X18832045Y-48800383D01*
X18793577Y-48767349D01*
X18748683Y-48742348D01*
X18699374Y-48726516D01*
X18647664Y-48720986D01*
X18626623Y-48719365D01*
X18590513Y-48711967D01*
X18550232Y-48699558D01*
X18509123Y-48683213D01*
X18470529Y-48664008D01*
X18469113Y-48663453D01*
X21726585Y-48663453D01*
X21728164Y-48667123D01*
X21733837Y-48680701D01*
X21742679Y-48702058D01*
X21753851Y-48729164D01*
X21766513Y-48759989D01*
X21774978Y-48780562D01*
X21786447Y-48808202D01*
X21786542Y-48808431D01*
X21795985Y-48830899D01*
X21802502Y-48846063D01*
X21805293Y-48852017D01*
X21806187Y-48852363D01*
X21811476Y-48847243D01*
X21819018Y-48834333D01*
X21827369Y-48816345D01*
X21835087Y-48795992D01*
X21837925Y-48785677D01*
X21842500Y-48762107D01*
X21846802Y-48732617D01*
X21850543Y-48700164D01*
X21853435Y-48667709D01*
X21855191Y-48638210D01*
X21855523Y-48614626D01*
X21854144Y-48599916D01*
X21850173Y-48584093D01*
X21786872Y-48620508D01*
X21785590Y-48621248D01*
X21761713Y-48635681D01*
X21742650Y-48648431D01*
X21730305Y-48658141D01*
X21726585Y-48663453D01*
X18469113Y-48663453D01*
X18432355Y-48649047D01*
X18390875Y-48644093D01*
X18348899Y-48648826D01*
X18308831Y-48662696D01*
X18273077Y-48685155D01*
X18244042Y-48715655D01*
X18237245Y-48725374D01*
X18229759Y-48737331D01*
X18227631Y-48742783D01*
X17449963Y-48742783D01*
X17447651Y-48728981D01*
X17441058Y-48690276D01*
X17435345Y-48657515D01*
X17430757Y-48632178D01*
X17427535Y-48615743D01*
X17425924Y-48609686D01*
X17411014Y-48600376D01*
X17390998Y-48581152D01*
X17379520Y-48560172D01*
X17379403Y-48559749D01*
X17377886Y-48548512D01*
X17376647Y-48527329D01*
X17375684Y-48495906D01*
X17374992Y-48453951D01*
X17374568Y-48401170D01*
X17374409Y-48337271D01*
X17374443Y-48312177D01*
X17432902Y-48312177D01*
X17466290Y-48308731D01*
X17488993Y-48307951D01*
X17524060Y-48314549D01*
X17554705Y-48331570D01*
X17581623Y-48359465D01*
X17605509Y-48398682D01*
X17613132Y-48413628D01*
X17622800Y-48430868D01*
X17629811Y-48439680D01*
X17635596Y-48441635D01*
X17641585Y-48438303D01*
X17646336Y-48431873D01*
X17649790Y-48418115D01*
X17652410Y-48405484D01*
X17662672Y-48386126D01*
X17677865Y-48367971D01*
X17694929Y-48355279D01*
X17698674Y-48353350D01*
X17716954Y-48343286D01*
X17735968Y-48332093D01*
X17750667Y-48324379D01*
X17762742Y-48323247D01*
X17770267Y-48332117D01*
X17775195Y-48351980D01*
X17778800Y-48373615D01*
X17997102Y-48455280D01*
X18000996Y-48456737D01*
X18057102Y-48477815D01*
X18103132Y-48495327D01*
X18140221Y-48509759D01*
X18169506Y-48521601D01*
X18192122Y-48531341D01*
X18209206Y-48539465D01*
X18221893Y-48546463D01*
X18231319Y-48552823D01*
X18238621Y-48559031D01*
X18242736Y-48562900D01*
X18255730Y-48574011D01*
X18260949Y-48575983D01*
X18258417Y-48568802D01*
X18248159Y-48552450D01*
X18239793Y-48543072D01*
X18220498Y-48526836D01*
X18192813Y-48506840D01*
X18158020Y-48484058D01*
X18129140Y-48465532D01*
X18104338Y-48448445D01*
X18086567Y-48434320D01*
X18073963Y-48421659D01*
X18064663Y-48408961D01*
X18037181Y-48373829D01*
X18001242Y-48341705D01*
X17961621Y-48317242D01*
X17961460Y-48317165D01*
X17936667Y-48307425D01*
X17907628Y-48299331D01*
X17878173Y-48293626D01*
X17852134Y-48291052D01*
X17833341Y-48292354D01*
X17821761Y-48291860D01*
X17800969Y-48286793D01*
X17773465Y-48277767D01*
X17741314Y-48265525D01*
X17706582Y-48250804D01*
X17671333Y-48234344D01*
X17646130Y-48224166D01*
X17601800Y-48216016D01*
X17557233Y-48219578D01*
X17513880Y-48234845D01*
X17506749Y-48238493D01*
X17480230Y-48254622D01*
X17460404Y-48272619D01*
X17443132Y-48296064D01*
X17432902Y-48312177D01*
X17374443Y-48312177D01*
X17374510Y-48261960D01*
X17374712Y-48213066D01*
X20038296Y-48213066D01*
X20038351Y-48213403D01*
X20041480Y-48221774D01*
X20048944Y-48239375D01*
X20060097Y-48264751D01*
X20074292Y-48296445D01*
X20090884Y-48332999D01*
X20109226Y-48372959D01*
X20179837Y-48525971D01*
X20453935Y-48567946D01*
X20506415Y-48575983D01*
X20728032Y-48609922D01*
X20728032Y-48632451D01*
X20728108Y-48636551D01*
X20729642Y-48649613D01*
X20732533Y-48654775D01*
X20732903Y-48654663D01*
X20740734Y-48650664D01*
X20757574Y-48641413D01*
X20782268Y-48627564D01*
X20813663Y-48609771D01*
X20850604Y-48588688D01*
X20891935Y-48564969D01*
X20936504Y-48539266D01*
X21135975Y-48423963D01*
X21136020Y-48402007D01*
X21135523Y-48396997D01*
X21131298Y-48381059D01*
X21122558Y-48356916D01*
X21109055Y-48323953D01*
X21090544Y-48281555D01*
X21066777Y-48229106D01*
X20997490Y-48078162D01*
X21015158Y-48058039D01*
X21022982Y-48047582D01*
X21035493Y-48026124D01*
X21045776Y-48003305D01*
X21046062Y-48002539D01*
X21050431Y-47989896D01*
X21053615Y-47977522D01*
X21055762Y-47963373D01*
X21057016Y-47945405D01*
X21057524Y-47921573D01*
X21057434Y-47889833D01*
X21056892Y-47848140D01*
X21055058Y-47727586D01*
X21035373Y-47687635D01*
X21029707Y-47676875D01*
X20999273Y-47634851D01*
X20983841Y-47621294D01*
X21434877Y-47621294D01*
X21517989Y-47669347D01*
X21529210Y-47675834D01*
X21562717Y-47695205D01*
X21602610Y-47718265D01*
X21646047Y-47743372D01*
X21690186Y-47768885D01*
X21732186Y-47793159D01*
X21762118Y-47810437D01*
X21794980Y-47829351D01*
X21823072Y-47845458D01*
X21844990Y-47857957D01*
X21859330Y-47866045D01*
X21864690Y-47868919D01*
X21864734Y-47868871D01*
X21864310Y-47862360D01*
X21862403Y-47846442D01*
X21859302Y-47823374D01*
X21855296Y-47795413D01*
X21855048Y-47793724D01*
X21849481Y-47753946D01*
X22203585Y-47753946D01*
X22212996Y-47776470D01*
X22214966Y-47781098D01*
X22225223Y-47801045D01*
X22236744Y-47814096D01*
X22252918Y-47824311D01*
X22278077Y-47832135D01*
X22311012Y-47830956D01*
X22348098Y-47819240D01*
X22388823Y-47797157D01*
X22432675Y-47764875D01*
X22468817Y-47731091D01*
X22507266Y-47685263D01*
X22540371Y-47634813D01*
X22567103Y-47581828D01*
X22586430Y-47528396D01*
X22597320Y-47476604D01*
X22598745Y-47428542D01*
X22596092Y-47407398D01*
X22586993Y-47377723D01*
X22571289Y-47355984D01*
X22547861Y-47340241D01*
X22543594Y-47338214D01*
X22527214Y-47332078D01*
X22512145Y-47331013D01*
X22492028Y-47334347D01*
X22466033Y-47341589D01*
X22421793Y-47361323D01*
X22379981Y-47388717D01*
X22342153Y-47422097D01*
X22309866Y-47459790D01*
X22284673Y-47500123D01*
X22268132Y-47541421D01*
X22261797Y-47582012D01*
X22261779Y-47597523D01*
X22263482Y-47612624D01*
X22268437Y-47622852D01*
X22277989Y-47632396D01*
X22279774Y-47633878D01*
X22294469Y-47643123D01*
X22307085Y-47646901D01*
X22322443Y-47644562D01*
X22348314Y-47633022D01*
X22375745Y-47613385D01*
X22402768Y-47587384D01*
X22427411Y-47556752D01*
X22447704Y-47523222D01*
X22459169Y-47499415D01*
X22466670Y-47479326D01*
X22470253Y-47460864D01*
X22471170Y-47439567D01*
X22468978Y-47411288D01*
X22461437Y-47391431D01*
X22447653Y-47380221D01*
X22426736Y-47376393D01*
X22405164Y-47375905D01*
X22423166Y-47367663D01*
X22427707Y-47365877D01*
X22447392Y-47361169D01*
X22468860Y-47359149D01*
X22492497Y-47361992D01*
X22515570Y-47373413D01*
X22532096Y-47392483D01*
X22542313Y-47418032D01*
X22546459Y-47448894D01*
X22544774Y-47483897D01*
X22537496Y-47521876D01*
X22524863Y-47561660D01*
X22507113Y-47602081D01*
X22484487Y-47641971D01*
X22457221Y-47680161D01*
X22425555Y-47715482D01*
X22389727Y-47746767D01*
X22380249Y-47753898D01*
X22350191Y-47774489D01*
X22324876Y-47787734D01*
X22301671Y-47794815D01*
X22277943Y-47796913D01*
X22269875Y-47796821D01*
X22252619Y-47794837D01*
X22239589Y-47788480D01*
X22225068Y-47775430D01*
X22203585Y-47753946D01*
X21849481Y-47753946D01*
X21848696Y-47748334D01*
X21842307Y-47698965D01*
X21836089Y-47647602D01*
X21830255Y-47596226D01*
X21825015Y-47546821D01*
X21820579Y-47501371D01*
X21817159Y-47461858D01*
X21814965Y-47430267D01*
X21814207Y-47408579D01*
X21814228Y-47404662D01*
X21815587Y-47374037D01*
X21819527Y-47344758D01*
X21826708Y-47314463D01*
X21837791Y-47280793D01*
X21853436Y-47241385D01*
X21874306Y-47193879D01*
X21879869Y-47181540D01*
X21900099Y-47135145D01*
X21915484Y-47096192D01*
X21926664Y-47062132D01*
X21934281Y-47030417D01*
X21938973Y-46998497D01*
X21941382Y-46963822D01*
X21942149Y-46923845D01*
X21942138Y-46908817D01*
X21941229Y-46871163D01*
X21938822Y-46843900D01*
X21934690Y-46825867D01*
X21928604Y-46815900D01*
X21920336Y-46812836D01*
X21920028Y-46812853D01*
X21915963Y-46818058D01*
X21913548Y-46833226D01*
X21912620Y-46859339D01*
X21911704Y-46881367D01*
X21909076Y-46899843D01*
X21905508Y-46924926D01*
X21893004Y-46971705D01*
X21873629Y-47023613D01*
X21846819Y-47082560D01*
X21807234Y-47158174D01*
X21746555Y-47257205D01*
X21676171Y-47355130D01*
X21595365Y-47452932D01*
X21503418Y-47551591D01*
X21434877Y-47621294D01*
X20983841Y-47621294D01*
X20958967Y-47599443D01*
X20909071Y-47570909D01*
X20838052Y-47542235D01*
X20746884Y-47516444D01*
X20655025Y-47502592D01*
X20562786Y-47500681D01*
X20470482Y-47510715D01*
X20378425Y-47532694D01*
X20286929Y-47566621D01*
X20259910Y-47579230D01*
X20220160Y-47602226D01*
X20189069Y-47627635D01*
X20164510Y-47657347D01*
X20144352Y-47693254D01*
X20137518Y-47709005D01*
X20125721Y-47751197D01*
X20124960Y-47791225D01*
X20135444Y-47830058D01*
X20157383Y-47868668D01*
X20190990Y-47908024D01*
X20203598Y-47919932D01*
X20246703Y-47951926D01*
X20298302Y-47980095D01*
X20356014Y-48003564D01*
X20417457Y-48021458D01*
X20480252Y-48032903D01*
X20542018Y-48037023D01*
X20581021Y-48037130D01*
X20557583Y-48050532D01*
X20548107Y-48056335D01*
X20525441Y-48076019D01*
X20512885Y-48099436D01*
X20509015Y-48128879D01*
X20509547Y-48140502D01*
X20517431Y-48169989D01*
X20534935Y-48192367D01*
X20562298Y-48207989D01*
X20574669Y-48212126D01*
X20587745Y-48214574D01*
X20603798Y-48215164D01*
X20625801Y-48213995D01*
X20656730Y-48211170D01*
X20701815Y-48205586D01*
X20778556Y-48190389D01*
X20846606Y-48169072D01*
X20859862Y-48164198D01*
X20875917Y-48158971D01*
X20884927Y-48156942D01*
X20886315Y-48157511D01*
X20888923Y-48165454D01*
X20889691Y-48183464D01*
X20888682Y-48212446D01*
X20887496Y-48229625D01*
X20881509Y-48270289D01*
X20870506Y-48302407D01*
X20853151Y-48328200D01*
X20828107Y-48349888D01*
X20794038Y-48369692D01*
X20766426Y-48382801D01*
X20727179Y-48397827D01*
X20687211Y-48407924D01*
X20640939Y-48414733D01*
X20590496Y-48417435D01*
X20533491Y-48414174D01*
X20478010Y-48404855D01*
X20426521Y-48390050D01*
X20381490Y-48370331D01*
X20345385Y-48346269D01*
X20334532Y-48336442D01*
X20315826Y-48313981D01*
X20303166Y-48288004D01*
X20295437Y-48255786D01*
X20291523Y-48214600D01*
X20288356Y-48152535D01*
X20263675Y-48139981D01*
X20258050Y-48137072D01*
X20238886Y-48126587D01*
X20223674Y-48117510D01*
X20218281Y-48114321D01*
X20212312Y-48112601D01*
X20204724Y-48113493D01*
X20193765Y-48117682D01*
X20177685Y-48125854D01*
X20154736Y-48138694D01*
X20123166Y-48156889D01*
X20103167Y-48168661D01*
X20077295Y-48184556D01*
X20056707Y-48198018D01*
X20043131Y-48207903D01*
X20038296Y-48213066D01*
X17374712Y-48213066D01*
X17374869Y-48174943D01*
X17376769Y-47811914D01*
X17394341Y-47761574D01*
X17408696Y-47726910D01*
X17436078Y-47678586D01*
X17469260Y-47635096D01*
X17505781Y-47600006D01*
X17506948Y-47599107D01*
X17520163Y-47590072D01*
X17542468Y-47575881D01*
X17572714Y-47557226D01*
X17609749Y-47534800D01*
X17652426Y-47509294D01*
X17699593Y-47481401D01*
X17750102Y-47451811D01*
X17802802Y-47421219D01*
X18066823Y-47268659D01*
X18070203Y-47381274D01*
X18071159Y-47411284D01*
X18072526Y-47444537D01*
X18074187Y-47469679D01*
X18076426Y-47488976D01*
X18079529Y-47504697D01*
X18083781Y-47519107D01*
X18089466Y-47534473D01*
X18101920Y-47562427D01*
X18131701Y-47613775D01*
X18169449Y-47665130D01*
X18213018Y-47713954D01*
X18260258Y-47757711D01*
X18309023Y-47793862D01*
X18319873Y-47800754D01*
X18407331Y-47849370D01*
X18504363Y-47891994D01*
X18610067Y-47928311D01*
X18723541Y-47958007D01*
X18843884Y-47980765D01*
X18870923Y-47984264D01*
X18919963Y-47988354D01*
X18976474Y-47991017D01*
X19037782Y-47992269D01*
X19101213Y-47992126D01*
X19164094Y-47990603D01*
X19223752Y-47987718D01*
X19277512Y-47983484D01*
X19322703Y-47977919D01*
X19429237Y-47957914D01*
X19531210Y-47931752D01*
X19626565Y-47900034D01*
X19714728Y-47863128D01*
X19795123Y-47821403D01*
X19867176Y-47775227D01*
X19930313Y-47724970D01*
X19983957Y-47671001D01*
X20027536Y-47613688D01*
X20060473Y-47553400D01*
X20082195Y-47490506D01*
X20084795Y-47478458D01*
X20087033Y-47463481D01*
X20088753Y-47445000D01*
X20090010Y-47421600D01*
X20090859Y-47391865D01*
X20091355Y-47354378D01*
X20091552Y-47307724D01*
X20091505Y-47250487D01*
X20091496Y-47246684D01*
X20091328Y-47193461D01*
X20091080Y-47151249D01*
X20090705Y-47119116D01*
X20090287Y-47101615D01*
X20542018Y-47101615D01*
X20545731Y-47104603D01*
X20558744Y-47113020D01*
X20579981Y-47126075D01*
X20608260Y-47143058D01*
X20642399Y-47163262D01*
X20681217Y-47185977D01*
X20723532Y-47210494D01*
X20758680Y-47230750D01*
X20799333Y-47254145D01*
X20836028Y-47275227D01*
X20867480Y-47293259D01*
X20892401Y-47307502D01*
X20909504Y-47317219D01*
X20917502Y-47321672D01*
X20929957Y-47328179D01*
X20919294Y-47248595D01*
X20914431Y-47211563D01*
X20913868Y-47207061D01*
X21250073Y-47207061D01*
X21250587Y-47210945D01*
X21256592Y-47225951D01*
X21267115Y-47243652D01*
X21279340Y-47259682D01*
X21290449Y-47269672D01*
X21292903Y-47271038D01*
X21323431Y-47281579D01*
X21356538Y-47281310D01*
X21392879Y-47270132D01*
X21433107Y-47247946D01*
X21478305Y-47213666D01*
X21523288Y-47169119D01*
X21562793Y-47118885D01*
X21595651Y-47064902D01*
X21620697Y-47009109D01*
X21636763Y-46953443D01*
X21642682Y-46899843D01*
X21642414Y-46883340D01*
X21637261Y-46844778D01*
X21625415Y-46815963D01*
X21606595Y-46796562D01*
X21580523Y-46786238D01*
X21546920Y-46784655D01*
X21524222Y-46787687D01*
X21492948Y-46797340D01*
X21460501Y-46814387D01*
X21424087Y-46840089D01*
X21391221Y-46867663D01*
X21357283Y-46903635D01*
X21332136Y-46941474D01*
X21314063Y-46983418D01*
X21305640Y-47017493D01*
X21304995Y-47048469D01*
X21312414Y-47071799D01*
X21326822Y-47086862D01*
X21347145Y-47093038D01*
X21372307Y-47089705D01*
X21401234Y-47076243D01*
X21432849Y-47052029D01*
X21440292Y-47044962D01*
X21466613Y-47014993D01*
X21487714Y-46982965D01*
X21503360Y-46950342D01*
X21513314Y-46918593D01*
X21517340Y-46889183D01*
X21515204Y-46863579D01*
X21506669Y-46843246D01*
X21491499Y-46829652D01*
X21469459Y-46824263D01*
X21462499Y-46823942D01*
X21458005Y-46822751D01*
X21463140Y-46819906D01*
X21478817Y-46814449D01*
X21493649Y-46810351D01*
X21524613Y-46808228D01*
X21550147Y-46815823D01*
X21569868Y-46832264D01*
X21583391Y-46856677D01*
X21590333Y-46888192D01*
X21590309Y-46925934D01*
X21582935Y-46969033D01*
X21567828Y-47016616D01*
X21554801Y-47046370D01*
X21529166Y-47091417D01*
X21498463Y-47133296D01*
X21464164Y-47170636D01*
X21427740Y-47202066D01*
X21390662Y-47226214D01*
X21354403Y-47241708D01*
X21320434Y-47247178D01*
X21313741Y-47247112D01*
X21296748Y-47245192D01*
X21284194Y-47238707D01*
X21270297Y-47225110D01*
X21262803Y-47217220D01*
X21253648Y-47208687D01*
X21250073Y-47207061D01*
X20913868Y-47207061D01*
X20907447Y-47155708D01*
X20901046Y-47101404D01*
X20895411Y-47050373D01*
X20890721Y-47004336D01*
X20887158Y-46965016D01*
X20884902Y-46934137D01*
X20884133Y-46913419D01*
X20884722Y-46894444D01*
X20888145Y-46864660D01*
X20895172Y-46833198D01*
X20906433Y-46797899D01*
X20922556Y-46756599D01*
X20944172Y-46707139D01*
X20959752Y-46672327D01*
X20977527Y-46630573D01*
X20990891Y-46595298D01*
X21000456Y-46564035D01*
X21006833Y-46534318D01*
X21010634Y-46503683D01*
X21012470Y-46469663D01*
X21012952Y-46429792D01*
X21012952Y-46424191D01*
X21012802Y-46390306D01*
X21012237Y-46366221D01*
X21011033Y-46350007D01*
X21008968Y-46339733D01*
X21005820Y-46333469D01*
X21001366Y-46329284D01*
X20993272Y-46323958D01*
X20986122Y-46320797D01*
X20984656Y-46325342D01*
X20984067Y-46338893D01*
X20984669Y-46358300D01*
X20983959Y-46390559D01*
X20982626Y-46398412D01*
X20975579Y-46439932D01*
X20959116Y-46495630D01*
X20935019Y-46556648D01*
X20903739Y-46621982D01*
X20865726Y-46690627D01*
X20821432Y-46761581D01*
X20771307Y-46833837D01*
X20765492Y-46841714D01*
X20741783Y-46872477D01*
X20713501Y-46907611D01*
X20682620Y-46944796D01*
X20651112Y-46981711D01*
X20620951Y-47016035D01*
X20594108Y-47045449D01*
X20572557Y-47067630D01*
X20571347Y-47068814D01*
X20556524Y-47083893D01*
X20546012Y-47095646D01*
X20542018Y-47101615D01*
X20090287Y-47101615D01*
X20090156Y-47096132D01*
X20089386Y-47081365D01*
X20088346Y-47073885D01*
X20086991Y-47072761D01*
X20085272Y-47077062D01*
X20083143Y-47085857D01*
X20073388Y-47121064D01*
X20047900Y-47180390D01*
X20011981Y-47238238D01*
X19966609Y-47293321D01*
X19912763Y-47344356D01*
X19851421Y-47390058D01*
X19816790Y-47411668D01*
X19733980Y-47455714D01*
X19642619Y-47495116D01*
X19544670Y-47529231D01*
X19442095Y-47557416D01*
X19336855Y-47579027D01*
X19230915Y-47593422D01*
X19193233Y-47596069D01*
X19145412Y-47597554D01*
X19091627Y-47597832D01*
X19034867Y-47596977D01*
X18978122Y-47595063D01*
X18924383Y-47592164D01*
X18876640Y-47588353D01*
X18837884Y-47583705D01*
X18753784Y-47568780D01*
X18652001Y-47544482D01*
X18556282Y-47514546D01*
X18467266Y-47479370D01*
X18385594Y-47439346D01*
X18311904Y-47394869D01*
X18246836Y-47346335D01*
X18191029Y-47294136D01*
X18145123Y-47238668D01*
X18109756Y-47180326D01*
X18085568Y-47119503D01*
X18080212Y-47099209D01*
X18071692Y-47036883D01*
X18074419Y-46974178D01*
X18087921Y-46912128D01*
X18111729Y-46851766D01*
X18145371Y-46794123D01*
X18188378Y-46740232D01*
X18240278Y-46691125D01*
X18300600Y-46647836D01*
X18301604Y-46647214D01*
X18321901Y-46635629D01*
X18346004Y-46623234D01*
X18371506Y-46611094D01*
X18396004Y-46600275D01*
X18417092Y-46591840D01*
X18432364Y-46586854D01*
X18439417Y-46586383D01*
X18436776Y-46589941D01*
X18426313Y-46598098D01*
X18410344Y-46608828D01*
X18402016Y-46614418D01*
X18373504Y-46636864D01*
X18342486Y-46665249D01*
X18311413Y-46696983D01*
X18282734Y-46729477D01*
X18258899Y-46760141D01*
X18242357Y-46786387D01*
X18240692Y-46789614D01*
X18216020Y-46849284D01*
X18203312Y-46908192D01*
X18202555Y-46966258D01*
X18213732Y-47023397D01*
X18236828Y-47079528D01*
X18271826Y-47134569D01*
X18318712Y-47188437D01*
X18331630Y-47201150D01*
X18388810Y-47250462D01*
X18451360Y-47293300D01*
X18520841Y-47330524D01*
X18598814Y-47362996D01*
X18686838Y-47391575D01*
X18705879Y-47396972D01*
X18756204Y-47410189D01*
X18802835Y-47420489D01*
X18848381Y-47428198D01*
X18895451Y-47433639D01*
X18946655Y-47437140D01*
X19004602Y-47439025D01*
X19071902Y-47439621D01*
X19086144Y-47439625D01*
X19138617Y-47439401D01*
X19182182Y-47438615D01*
X19219329Y-47437032D01*
X19252546Y-47434415D01*
X19284325Y-47430528D01*
X19317155Y-47425135D01*
X19353526Y-47417999D01*
X19395927Y-47408884D01*
X19478576Y-47387613D01*
X19563571Y-47358791D01*
X19642506Y-47324626D01*
X19714545Y-47285685D01*
X19778849Y-47242535D01*
X19834581Y-47195744D01*
X19880903Y-47145878D01*
X19916979Y-47093504D01*
X19941970Y-47039190D01*
X19948269Y-47018909D01*
X19958442Y-46959544D01*
X19956915Y-46899293D01*
X19943770Y-46839081D01*
X19919089Y-46779833D01*
X19903380Y-46754484D01*
X19878406Y-46722148D01*
X19848078Y-46688229D01*
X19814895Y-46655337D01*
X19781355Y-46626083D01*
X19749955Y-46603078D01*
X19736600Y-46594118D01*
X19725669Y-46585265D01*
X19725367Y-46581765D01*
X19735627Y-46583616D01*
X19756381Y-46590819D01*
X19787564Y-46603373D01*
X19835606Y-46626672D01*
X19899691Y-46668244D01*
X19958238Y-46718790D01*
X20009097Y-46776626D01*
X20019089Y-46789152D01*
X20046194Y-46816377D01*
X20078205Y-46838409D01*
X20082315Y-46840756D01*
X20101032Y-46850433D01*
X20115127Y-46856108D01*
X20121814Y-46856618D01*
X20122598Y-46855313D01*
X20126887Y-46844672D01*
X20133098Y-46826499D01*
X20140172Y-46803835D01*
X20158459Y-46747895D01*
X20166283Y-46728803D01*
X20326001Y-46728803D01*
X20329262Y-46740927D01*
X20339823Y-46757978D01*
X20354631Y-46774077D01*
X20370506Y-46785195D01*
X20372701Y-46786202D01*
X20402884Y-46793628D01*
X20436140Y-46790297D01*
X20472960Y-46776093D01*
X20513833Y-46750898D01*
X20570764Y-46703259D01*
X20621315Y-46646051D01*
X20663428Y-46581352D01*
X20696095Y-46510490D01*
X20702721Y-46491440D01*
X20708558Y-46468088D01*
X20711565Y-46442893D01*
X20712579Y-46410804D01*
X20712626Y-46398412D01*
X20712045Y-46374045D01*
X20710020Y-46357047D01*
X20706000Y-46344113D01*
X20699436Y-46331937D01*
X20698735Y-46330825D01*
X20677675Y-46307451D01*
X20651260Y-46294664D01*
X20619739Y-46292443D01*
X20583357Y-46300769D01*
X20542362Y-46319619D01*
X20497000Y-46348973D01*
X20466679Y-46373166D01*
X20429210Y-46412170D01*
X20401707Y-46454844D01*
X20382963Y-46502817D01*
X20377500Y-46528373D01*
X20377343Y-46558907D01*
X20385180Y-46582076D01*
X20400037Y-46597036D01*
X20420936Y-46602941D01*
X20446903Y-46598947D01*
X20476962Y-46584209D01*
X20504737Y-46562486D01*
X20535678Y-46528189D01*
X20561244Y-46488482D01*
X20579462Y-46446527D01*
X20588362Y-46405484D01*
X20588369Y-46405404D01*
X20589767Y-46384911D01*
X20588455Y-46371883D01*
X20583163Y-46361885D01*
X20572623Y-46350479D01*
X20567248Y-46345368D01*
X20552470Y-46335466D01*
X20538999Y-46334270D01*
X20528021Y-46335575D01*
X20525776Y-46333944D01*
X20531366Y-46330324D01*
X20543035Y-46325828D01*
X20559026Y-46321571D01*
X20572928Y-46319214D01*
X20604655Y-46319905D01*
X20629560Y-46330418D01*
X20647510Y-46350631D01*
X20658376Y-46380417D01*
X20662027Y-46419654D01*
X20661039Y-46440707D01*
X20651020Y-46492768D01*
X20631114Y-46545670D01*
X20602446Y-46597552D01*
X20566144Y-46646551D01*
X20523334Y-46690807D01*
X20475143Y-46728457D01*
X20462330Y-46736493D01*
X20426608Y-46752891D01*
X20394244Y-46758441D01*
X20365760Y-46753110D01*
X20341674Y-46736866D01*
X20338448Y-46733803D01*
X20329567Y-46727550D01*
X20326001Y-46728803D01*
X20166283Y-46728803D01*
X20203601Y-46637747D01*
X20259690Y-46530592D01*
X20326075Y-46427486D01*
X20402110Y-46329489D01*
X20487145Y-46237658D01*
X20517251Y-46208395D01*
X20544339Y-46183633D01*
X20566056Y-46166059D01*
X20583735Y-46154705D01*
X20598709Y-46148602D01*
X20612313Y-46146783D01*
X20617120Y-46146603D01*
X20630054Y-46143344D01*
X20643538Y-46134468D01*
X20660917Y-46117997D01*
X20679468Y-46100615D01*
X20713750Y-46077390D01*
X20751673Y-46063559D01*
X20796449Y-46057694D01*
X20831274Y-46057713D01*
X20868407Y-46063226D01*
X20901426Y-46075795D01*
X20932309Y-46096502D01*
X20963034Y-46126429D01*
X20995578Y-46166658D01*
X21000740Y-46173646D01*
X21041270Y-46234591D01*
X21071179Y-46292314D01*
X21090986Y-46347799D01*
X21093094Y-46357005D01*
X21096014Y-46375767D01*
X21098735Y-46401461D01*
X21100921Y-46429792D01*
X21101331Y-46435099D01*
X21103876Y-46477695D01*
X21106445Y-46530264D01*
X21109113Y-46593819D01*
X21110416Y-46626177D01*
X21115072Y-46732692D01*
X21119930Y-46830288D01*
X21124948Y-46918194D01*
X21130081Y-46995640D01*
X21135286Y-47061855D01*
X21139445Y-47109859D01*
X21159581Y-47070856D01*
X21211329Y-46979544D01*
X21281422Y-46877266D01*
X21360155Y-46782637D01*
X21446740Y-46696683D01*
X21463224Y-46682156D01*
X21493130Y-46658089D01*
X21516971Y-46642696D01*
X21535648Y-46635447D01*
X21550061Y-46635810D01*
X21558540Y-46635219D01*
X21571147Y-46627017D01*
X21588717Y-46609850D01*
X21606890Y-46592404D01*
X21645717Y-46566499D01*
X21689502Y-46551287D01*
X21739112Y-46546402D01*
X21759893Y-46547104D01*
X21796776Y-46552743D01*
X21829391Y-46565018D01*
X21859758Y-46585114D01*
X21889900Y-46614216D01*
X21921839Y-46653511D01*
X21925590Y-46658536D01*
X21951342Y-46694132D01*
X21970957Y-46723915D01*
X21986043Y-46750707D01*
X21998207Y-46777334D01*
X22009059Y-46806618D01*
X22011854Y-46815122D01*
X22018661Y-46839283D01*
X22024196Y-46865528D01*
X22028637Y-46895510D01*
X22031461Y-46923845D01*
X22032162Y-46930882D01*
X22034947Y-46973295D01*
G37*
%TO.C,REF\u002A\u002A*%
G36*
X22477684Y-11194078D02*
G01*
X22475078Y-11217387D01*
X22455660Y-11300352D01*
X22420573Y-11363448D01*
X22367212Y-11411808D01*
X22364196Y-11413804D01*
X22296362Y-11442185D01*
X22225535Y-11444711D01*
X22157289Y-11423097D01*
X22097196Y-11379062D01*
X22050829Y-11314322D01*
X22050050Y-11312761D01*
X22034643Y-11272558D01*
X22023357Y-11226866D01*
X22017370Y-11183972D01*
X22017861Y-11152160D01*
X22026007Y-11139714D01*
X22033244Y-11140471D01*
X22067851Y-11154235D01*
X22107078Y-11179546D01*
X22140448Y-11208845D01*
X22157483Y-11234572D01*
X22175192Y-11269471D01*
X22211485Y-11301212D01*
X22253630Y-11313886D01*
X22269077Y-11310221D01*
X22299569Y-11291774D01*
X22326128Y-11266166D01*
X22337486Y-11242934D01*
X22337482Y-11242848D01*
X22324596Y-11232179D01*
X22290241Y-11212933D01*
X22239593Y-11187813D01*
X22177829Y-11159524D01*
X22177489Y-11159374D01*
X22110388Y-11129498D01*
X22065411Y-11107973D01*
X22038145Y-11091437D01*
X22024178Y-11076531D01*
X22019097Y-11059893D01*
X22018490Y-11038162D01*
X22022712Y-10997013D01*
X22166000Y-10997013D01*
X22180791Y-11009949D01*
X22217644Y-11029333D01*
X22218725Y-11029881D01*
X22262205Y-11050587D01*
X22301102Y-11067105D01*
X22325778Y-11074093D01*
X22335676Y-11064753D01*
X22337486Y-11032748D01*
X22329966Y-10992915D01*
X22303897Y-10956717D01*
X22266154Y-10937950D01*
X22224077Y-10939845D01*
X22185005Y-10965632D01*
X22169647Y-10983451D01*
X22166000Y-10997013D01*
X22022712Y-10997013D01*
X22023833Y-10986086D01*
X22050251Y-10915335D01*
X22094473Y-10859735D01*
X22151697Y-10821239D01*
X22217120Y-10801797D01*
X22285937Y-10803359D01*
X22353347Y-10827878D01*
X22414544Y-10877302D01*
X22448450Y-10926212D01*
X22472806Y-10996027D01*
X22476767Y-11032748D01*
X22482299Y-11084055D01*
X22477684Y-11194078D01*
G37*
D12*
X22477684Y-11194078D02*
X22475078Y-11217387D01*
X22455660Y-11300352D01*
X22420573Y-11363448D01*
X22367212Y-11411808D01*
X22364196Y-11413804D01*
X22296362Y-11442185D01*
X22225535Y-11444711D01*
X22157289Y-11423097D01*
X22097196Y-11379062D01*
X22050829Y-11314322D01*
X22050050Y-11312761D01*
X22034643Y-11272558D01*
X22023357Y-11226866D01*
X22017370Y-11183972D01*
X22017861Y-11152160D01*
X22026007Y-11139714D01*
X22033244Y-11140471D01*
X22067851Y-11154235D01*
X22107078Y-11179546D01*
X22140448Y-11208845D01*
X22157483Y-11234572D01*
X22175192Y-11269471D01*
X22211485Y-11301212D01*
X22253630Y-11313886D01*
X22269077Y-11310221D01*
X22299569Y-11291774D01*
X22326128Y-11266166D01*
X22337486Y-11242934D01*
X22337482Y-11242848D01*
X22324596Y-11232179D01*
X22290241Y-11212933D01*
X22239593Y-11187813D01*
X22177829Y-11159524D01*
X22177489Y-11159374D01*
X22110388Y-11129498D01*
X22065411Y-11107973D01*
X22038145Y-11091437D01*
X22024178Y-11076531D01*
X22019097Y-11059893D01*
X22018490Y-11038162D01*
X22022712Y-10997013D01*
X22166000Y-10997013D01*
X22180791Y-11009949D01*
X22217644Y-11029333D01*
X22218725Y-11029881D01*
X22262205Y-11050587D01*
X22301102Y-11067105D01*
X22325778Y-11074093D01*
X22335676Y-11064753D01*
X22337486Y-11032748D01*
X22329966Y-10992915D01*
X22303897Y-10956717D01*
X22266154Y-10937950D01*
X22224077Y-10939845D01*
X22185005Y-10965632D01*
X22169647Y-10983451D01*
X22166000Y-10997013D01*
X22022712Y-10997013D01*
X22023833Y-10986086D01*
X22050251Y-10915335D01*
X22094473Y-10859735D01*
X22151697Y-10821239D01*
X22217120Y-10801797D01*
X22285937Y-10803359D01*
X22353347Y-10827878D01*
X22414544Y-10877302D01*
X22448450Y-10926212D01*
X22472806Y-10996027D01*
X22476767Y-11032748D01*
X22482299Y-11084055D01*
X22477684Y-11194078D01*
G36*
X20409483Y-10850569D02*
G01*
X20459376Y-10879661D01*
X20481325Y-10902327D01*
X20523504Y-10970082D01*
X20537714Y-11043950D01*
X20537714Y-11094770D01*
X20490999Y-11075128D01*
X20458692Y-11055308D01*
X20433231Y-11014160D01*
X20430616Y-11005675D01*
X20402478Y-10962451D01*
X20360067Y-10939103D01*
X20311370Y-10938100D01*
X20264373Y-10961914D01*
X20257357Y-10968056D01*
X20233893Y-10994745D01*
X20230019Y-11018014D01*
X20247768Y-11040862D01*
X20289179Y-11066287D01*
X20356286Y-11097288D01*
X20360824Y-11099252D01*
X20435322Y-11133990D01*
X20486203Y-11164763D01*
X20517525Y-11195488D01*
X20533343Y-11230082D01*
X20537714Y-11272462D01*
X20531986Y-11319446D01*
X20503062Y-11379585D01*
X20452178Y-11422788D01*
X20415374Y-11435759D01*
X20363434Y-11442856D01*
X20312999Y-11441340D01*
X20276983Y-11430632D01*
X20273158Y-11427966D01*
X20262998Y-11409337D01*
X20270048Y-11376505D01*
X20282297Y-11350735D01*
X20301939Y-11340006D01*
X20339191Y-11340539D01*
X20390908Y-11337462D01*
X20424701Y-11316212D01*
X20436114Y-11276877D01*
X20436104Y-11275747D01*
X20429187Y-11252913D01*
X20405659Y-11231963D01*
X20359914Y-11207815D01*
X20297704Y-11178741D01*
X20256499Y-11162925D01*
X20232712Y-11163944D01*
X20221597Y-11184837D01*
X20218408Y-11228641D01*
X20218400Y-11298393D01*
X20218044Y-11341452D01*
X20216413Y-11394626D01*
X20213761Y-11431022D01*
X20210422Y-11444514D01*
X20209530Y-11444423D01*
X20190237Y-11437110D01*
X20158284Y-11421678D01*
X20114124Y-11398842D01*
X20119371Y-11193078D01*
X20119736Y-11179432D01*
X20123904Y-11083651D01*
X20131268Y-11011462D01*
X20143330Y-10958058D01*
X20161593Y-10918633D01*
X20187560Y-10888380D01*
X20222733Y-10862493D01*
X20223384Y-10862087D01*
X20280256Y-10840968D01*
X20346033Y-10837400D01*
X20409483Y-10850569D01*
G37*
X20409483Y-10850569D02*
X20459376Y-10879661D01*
X20481325Y-10902327D01*
X20523504Y-10970082D01*
X20537714Y-11043950D01*
X20537714Y-11094770D01*
X20490999Y-11075128D01*
X20458692Y-11055308D01*
X20433231Y-11014160D01*
X20430616Y-11005675D01*
X20402478Y-10962451D01*
X20360067Y-10939103D01*
X20311370Y-10938100D01*
X20264373Y-10961914D01*
X20257357Y-10968056D01*
X20233893Y-10994745D01*
X20230019Y-11018014D01*
X20247768Y-11040862D01*
X20289179Y-11066287D01*
X20356286Y-11097288D01*
X20360824Y-11099252D01*
X20435322Y-11133990D01*
X20486203Y-11164763D01*
X20517525Y-11195488D01*
X20533343Y-11230082D01*
X20537714Y-11272462D01*
X20531986Y-11319446D01*
X20503062Y-11379585D01*
X20452178Y-11422788D01*
X20415374Y-11435759D01*
X20363434Y-11442856D01*
X20312999Y-11441340D01*
X20276983Y-11430632D01*
X20273158Y-11427966D01*
X20262998Y-11409337D01*
X20270048Y-11376505D01*
X20282297Y-11350735D01*
X20301939Y-11340006D01*
X20339191Y-11340539D01*
X20390908Y-11337462D01*
X20424701Y-11316212D01*
X20436114Y-11276877D01*
X20436104Y-11275747D01*
X20429187Y-11252913D01*
X20405659Y-11231963D01*
X20359914Y-11207815D01*
X20297704Y-11178741D01*
X20256499Y-11162925D01*
X20232712Y-11163944D01*
X20221597Y-11184837D01*
X20218408Y-11228641D01*
X20218400Y-11298393D01*
X20218044Y-11341452D01*
X20216413Y-11394626D01*
X20213761Y-11431022D01*
X20210422Y-11444514D01*
X20209530Y-11444423D01*
X20190237Y-11437110D01*
X20158284Y-11421678D01*
X20114124Y-11398842D01*
X20119371Y-11193078D01*
X20119736Y-11179432D01*
X20123904Y-11083651D01*
X20131268Y-11011462D01*
X20143330Y-10958058D01*
X20161593Y-10918633D01*
X20187560Y-10888380D01*
X20222733Y-10862493D01*
X20223384Y-10862087D01*
X20280256Y-10840968D01*
X20346033Y-10837400D01*
X20409483Y-10850569D01*
G36*
X23031252Y-11303000D02*
G01*
X23031651Y-11335339D01*
X23032929Y-11443455D01*
X23033185Y-11526186D01*
X23031634Y-11586426D01*
X23027490Y-11627073D01*
X23019964Y-11651023D01*
X23008271Y-11661171D01*
X22991624Y-11660414D01*
X22969236Y-11651648D01*
X22940321Y-11637769D01*
X22934142Y-11634808D01*
X22908413Y-11620311D01*
X22894976Y-11603065D01*
X22889834Y-11574308D01*
X22888990Y-11525283D01*
X22888952Y-11437257D01*
X22798276Y-11437257D01*
X22742498Y-11434815D01*
X22698640Y-11424908D01*
X22662218Y-11404886D01*
X22659503Y-11402929D01*
X22622546Y-11369869D01*
X22596826Y-11329931D01*
X22580606Y-11277657D01*
X22572148Y-11207588D01*
X22570083Y-11128430D01*
X22714857Y-11128430D01*
X22714882Y-11141697D01*
X22716261Y-11201584D01*
X22720687Y-11240732D01*
X22729461Y-11266153D01*
X22743886Y-11284857D01*
X22744784Y-11285750D01*
X22780237Y-11309952D01*
X22814596Y-11307567D01*
X22853403Y-11278260D01*
X22862895Y-11268244D01*
X22876876Y-11247708D01*
X22884760Y-11220997D01*
X22888245Y-11180499D01*
X22889029Y-11118603D01*
X22888350Y-11081130D01*
X22880983Y-11012980D01*
X22864168Y-10968330D01*
X22836234Y-10943926D01*
X22795509Y-10936514D01*
X22778350Y-10938094D01*
X22748660Y-10953766D01*
X22729031Y-10988691D01*
X22718188Y-11045901D01*
X22714857Y-11128430D01*
X22570083Y-11128430D01*
X22569714Y-11114267D01*
X22570253Y-11046169D01*
X22572707Y-10994587D01*
X22578158Y-10958816D01*
X22587686Y-10932015D01*
X22602371Y-10907338D01*
X22615852Y-10888480D01*
X22664799Y-10837568D01*
X22720256Y-10809918D01*
X22789928Y-10801165D01*
X22869664Y-10809890D01*
X22938595Y-10841185D01*
X22993113Y-10896381D01*
X22997223Y-10902224D01*
X23006808Y-10917753D01*
X23014151Y-10935498D01*
X23019612Y-10959290D01*
X23023550Y-10992958D01*
X23026323Y-11040333D01*
X23028292Y-11105245D01*
X23028528Y-11118603D01*
X23029815Y-11191524D01*
X23031252Y-11303000D01*
G37*
X23031252Y-11303000D02*
X23031651Y-11335339D01*
X23032929Y-11443455D01*
X23033185Y-11526186D01*
X23031634Y-11586426D01*
X23027490Y-11627073D01*
X23019964Y-11651023D01*
X23008271Y-11661171D01*
X22991624Y-11660414D01*
X22969236Y-11651648D01*
X22940321Y-11637769D01*
X22934142Y-11634808D01*
X22908413Y-11620311D01*
X22894976Y-11603065D01*
X22889834Y-11574308D01*
X22888990Y-11525283D01*
X22888952Y-11437257D01*
X22798276Y-11437257D01*
X22742498Y-11434815D01*
X22698640Y-11424908D01*
X22662218Y-11404886D01*
X22659503Y-11402929D01*
X22622546Y-11369869D01*
X22596826Y-11329931D01*
X22580606Y-11277657D01*
X22572148Y-11207588D01*
X22570083Y-11128430D01*
X22714857Y-11128430D01*
X22714882Y-11141697D01*
X22716261Y-11201584D01*
X22720687Y-11240732D01*
X22729461Y-11266153D01*
X22743886Y-11284857D01*
X22744784Y-11285750D01*
X22780237Y-11309952D01*
X22814596Y-11307567D01*
X22853403Y-11278260D01*
X22862895Y-11268244D01*
X22876876Y-11247708D01*
X22884760Y-11220997D01*
X22888245Y-11180499D01*
X22889029Y-11118603D01*
X22888350Y-11081130D01*
X22880983Y-11012980D01*
X22864168Y-10968330D01*
X22836234Y-10943926D01*
X22795509Y-10936514D01*
X22778350Y-10938094D01*
X22748660Y-10953766D01*
X22729031Y-10988691D01*
X22718188Y-11045901D01*
X22714857Y-11128430D01*
X22570083Y-11128430D01*
X22569714Y-11114267D01*
X22570253Y-11046169D01*
X22572707Y-10994587D01*
X22578158Y-10958816D01*
X22587686Y-10932015D01*
X22602371Y-10907338D01*
X22615852Y-10888480D01*
X22664799Y-10837568D01*
X22720256Y-10809918D01*
X22789928Y-10801165D01*
X22869664Y-10809890D01*
X22938595Y-10841185D01*
X22993113Y-10896381D01*
X22997223Y-10902224D01*
X23006808Y-10917753D01*
X23014151Y-10935498D01*
X23019612Y-10959290D01*
X23023550Y-10992958D01*
X23026323Y-11040333D01*
X23028292Y-11105245D01*
X23028528Y-11118603D01*
X23029815Y-11191524D01*
X23031252Y-11303000D01*
G36*
X18287495Y-10836220D02*
G01*
X18318599Y-10844121D01*
X18347559Y-10863817D01*
X18384831Y-10900484D01*
X18408801Y-10926378D01*
X18433770Y-10959997D01*
X18445031Y-10991506D01*
X18447657Y-11031485D01*
X18447657Y-11096917D01*
X18403035Y-11073842D01*
X18367673Y-11045724D01*
X18343451Y-11007848D01*
X18339291Y-10997551D01*
X18307594Y-10957637D01*
X18263554Y-10937624D01*
X18215531Y-10939572D01*
X18171886Y-10965543D01*
X18153420Y-10986635D01*
X18142663Y-11013619D01*
X18154178Y-11037634D01*
X18189981Y-11061791D01*
X18252090Y-11089199D01*
X18261515Y-11092985D01*
X18318058Y-11117759D01*
X18366580Y-11142189D01*
X18397451Y-11161486D01*
X18428371Y-11195953D01*
X18448927Y-11250957D01*
X18446744Y-11309983D01*
X18422424Y-11365845D01*
X18376568Y-11411355D01*
X18339438Y-11430727D01*
X18267711Y-11444292D01*
X18227852Y-11442462D01*
X18190953Y-11432568D01*
X18176797Y-11411806D01*
X18182091Y-11377613D01*
X18183631Y-11373092D01*
X18195842Y-11349116D01*
X18216174Y-11340042D01*
X18254908Y-11340649D01*
X18282257Y-11341474D01*
X18314257Y-11334392D01*
X18336182Y-11313219D01*
X18348670Y-11287152D01*
X18350062Y-11259845D01*
X18349998Y-11259685D01*
X18333807Y-11244930D01*
X18299155Y-11223457D01*
X18254321Y-11199458D01*
X18207582Y-11177125D01*
X18167217Y-11160652D01*
X18141504Y-11154229D01*
X18137679Y-11160518D01*
X18132864Y-11190115D01*
X18129566Y-11238447D01*
X18128343Y-11299372D01*
X18128058Y-11341542D01*
X18126718Y-11394653D01*
X18124528Y-11431025D01*
X18121769Y-11444514D01*
X18107344Y-11439981D01*
X18078226Y-11427670D01*
X18041257Y-11410826D01*
X18041257Y-11194721D01*
X18041493Y-11139327D01*
X18043729Y-11055207D01*
X18049423Y-10992800D01*
X18059903Y-10947358D01*
X18076497Y-10914133D01*
X18100531Y-10888378D01*
X18133333Y-10865344D01*
X18175124Y-10846335D01*
X18252287Y-10834914D01*
X18287495Y-10836220D01*
G37*
X18287495Y-10836220D02*
X18318599Y-10844121D01*
X18347559Y-10863817D01*
X18384831Y-10900484D01*
X18408801Y-10926378D01*
X18433770Y-10959997D01*
X18445031Y-10991506D01*
X18447657Y-11031485D01*
X18447657Y-11096917D01*
X18403035Y-11073842D01*
X18367673Y-11045724D01*
X18343451Y-11007848D01*
X18339291Y-10997551D01*
X18307594Y-10957637D01*
X18263554Y-10937624D01*
X18215531Y-10939572D01*
X18171886Y-10965543D01*
X18153420Y-10986635D01*
X18142663Y-11013619D01*
X18154178Y-11037634D01*
X18189981Y-11061791D01*
X18252090Y-11089199D01*
X18261515Y-11092985D01*
X18318058Y-11117759D01*
X18366580Y-11142189D01*
X18397451Y-11161486D01*
X18428371Y-11195953D01*
X18448927Y-11250957D01*
X18446744Y-11309983D01*
X18422424Y-11365845D01*
X18376568Y-11411355D01*
X18339438Y-11430727D01*
X18267711Y-11444292D01*
X18227852Y-11442462D01*
X18190953Y-11432568D01*
X18176797Y-11411806D01*
X18182091Y-11377613D01*
X18183631Y-11373092D01*
X18195842Y-11349116D01*
X18216174Y-11340042D01*
X18254908Y-11340649D01*
X18282257Y-11341474D01*
X18314257Y-11334392D01*
X18336182Y-11313219D01*
X18348670Y-11287152D01*
X18350062Y-11259845D01*
X18349998Y-11259685D01*
X18333807Y-11244930D01*
X18299155Y-11223457D01*
X18254321Y-11199458D01*
X18207582Y-11177125D01*
X18167217Y-11160652D01*
X18141504Y-11154229D01*
X18137679Y-11160518D01*
X18132864Y-11190115D01*
X18129566Y-11238447D01*
X18128343Y-11299372D01*
X18128058Y-11341542D01*
X18126718Y-11394653D01*
X18124528Y-11431025D01*
X18121769Y-11444514D01*
X18107344Y-11439981D01*
X18078226Y-11427670D01*
X18041257Y-11410826D01*
X18041257Y-11194721D01*
X18041493Y-11139327D01*
X18043729Y-11055207D01*
X18049423Y-10992800D01*
X18059903Y-10947358D01*
X18076497Y-10914133D01*
X18100531Y-10888378D01*
X18133333Y-10865344D01*
X18175124Y-10846335D01*
X18252287Y-10834914D01*
X18287495Y-10836220D01*
G36*
X18973941Y-10839282D02*
G01*
X19005774Y-10851758D01*
X19042743Y-10868602D01*
X19042743Y-11355196D01*
X18996812Y-11401127D01*
X18986320Y-11411427D01*
X18957255Y-11434320D01*
X18927943Y-11441735D01*
X18884326Y-11438321D01*
X18866568Y-11436114D01*
X18820767Y-11431445D01*
X18788743Y-11429585D01*
X18779244Y-11429869D01*
X18740274Y-11432948D01*
X18693160Y-11438321D01*
X18678085Y-11440168D01*
X18640110Y-11440893D01*
X18612325Y-11429429D01*
X18580674Y-11401127D01*
X18534743Y-11355196D01*
X18534743Y-11095055D01*
X18535101Y-11018180D01*
X18536216Y-10944886D01*
X18537952Y-10886850D01*
X18540167Y-10848663D01*
X18542721Y-10834914D01*
X18543256Y-10834951D01*
X18561808Y-10841793D01*
X18593153Y-10856868D01*
X18635608Y-10878822D01*
X18639604Y-11107240D01*
X18643600Y-11335657D01*
X18730686Y-11335657D01*
X18734657Y-11085286D01*
X18735916Y-11017227D01*
X18737718Y-10944482D01*
X18739671Y-10886730D01*
X18741612Y-10848648D01*
X18743377Y-10834914D01*
X18743885Y-10834962D01*
X18761482Y-10840015D01*
X18793834Y-10850849D01*
X18839543Y-10866783D01*
X18839765Y-11086706D01*
X18839988Y-11124909D01*
X18841531Y-11199146D01*
X18844292Y-11261145D01*
X18847977Y-11305308D01*
X18852292Y-11326041D01*
X18867732Y-11337131D01*
X18899241Y-11340556D01*
X18933886Y-11335657D01*
X18937857Y-11085286D01*
X18939278Y-11021663D01*
X18942225Y-10946356D01*
X18946079Y-10887286D01*
X18950542Y-10848718D01*
X18955317Y-10834914D01*
X18973941Y-10839282D01*
G37*
X18973941Y-10839282D02*
X19005774Y-10851758D01*
X19042743Y-10868602D01*
X19042743Y-11355196D01*
X18996812Y-11401127D01*
X18986320Y-11411427D01*
X18957255Y-11434320D01*
X18927943Y-11441735D01*
X18884326Y-11438321D01*
X18866568Y-11436114D01*
X18820767Y-11431445D01*
X18788743Y-11429585D01*
X18779244Y-11429869D01*
X18740274Y-11432948D01*
X18693160Y-11438321D01*
X18678085Y-11440168D01*
X18640110Y-11440893D01*
X18612325Y-11429429D01*
X18580674Y-11401127D01*
X18534743Y-11355196D01*
X18534743Y-11095055D01*
X18535101Y-11018180D01*
X18536216Y-10944886D01*
X18537952Y-10886850D01*
X18540167Y-10848663D01*
X18542721Y-10834914D01*
X18543256Y-10834951D01*
X18561808Y-10841793D01*
X18593153Y-10856868D01*
X18635608Y-10878822D01*
X18639604Y-11107240D01*
X18643600Y-11335657D01*
X18730686Y-11335657D01*
X18734657Y-11085286D01*
X18735916Y-11017227D01*
X18737718Y-10944482D01*
X18739671Y-10886730D01*
X18741612Y-10848648D01*
X18743377Y-10834914D01*
X18743885Y-10834962D01*
X18761482Y-10840015D01*
X18793834Y-10850849D01*
X18839543Y-10866783D01*
X18839765Y-11086706D01*
X18839988Y-11124909D01*
X18841531Y-11199146D01*
X18844292Y-11261145D01*
X18847977Y-11305308D01*
X18852292Y-11326041D01*
X18867732Y-11337131D01*
X18899241Y-11340556D01*
X18933886Y-11335657D01*
X18937857Y-11085286D01*
X18939278Y-11021663D01*
X18942225Y-10946356D01*
X18946079Y-10887286D01*
X18950542Y-10848718D01*
X18955317Y-10834914D01*
X18973941Y-10839282D01*
G36*
X21751020Y-10807822D02*
G01*
X21818810Y-10839680D01*
X21874366Y-10894770D01*
X21885881Y-10912016D01*
X21895432Y-10931562D01*
X21902206Y-10956198D01*
X21906819Y-10990711D01*
X21909888Y-11039889D01*
X21912029Y-11108519D01*
X21913859Y-11201389D01*
X21918404Y-11459007D01*
X21880225Y-11444491D01*
X21845268Y-11431156D01*
X21819097Y-11418323D01*
X21802013Y-11401780D01*
X21792086Y-11376465D01*
X21787386Y-11337316D01*
X21785982Y-11279268D01*
X21785943Y-11197261D01*
X21785744Y-11131895D01*
X21784559Y-11069173D01*
X21781729Y-11026334D01*
X21776609Y-10998220D01*
X21768553Y-10979675D01*
X21756914Y-10965543D01*
X21728303Y-10945600D01*
X21680239Y-10938083D01*
X21632688Y-10957079D01*
X21629550Y-10959511D01*
X21619769Y-10970748D01*
X21612553Y-10988770D01*
X21607299Y-11018026D01*
X21603402Y-11062962D01*
X21600256Y-11128028D01*
X21597257Y-11217670D01*
X21590000Y-11457697D01*
X21528314Y-11430044D01*
X21466629Y-11402391D01*
X21466629Y-11183246D01*
X21466884Y-11123711D01*
X21469086Y-11040892D01*
X21474661Y-10979227D01*
X21484941Y-10933748D01*
X21501258Y-10899484D01*
X21524943Y-10871466D01*
X21557328Y-10844723D01*
X21603907Y-10817780D01*
X21677287Y-10800191D01*
X21751020Y-10807822D01*
G37*
X21751020Y-10807822D02*
X21818810Y-10839680D01*
X21874366Y-10894770D01*
X21885881Y-10912016D01*
X21895432Y-10931562D01*
X21902206Y-10956198D01*
X21906819Y-10990711D01*
X21909888Y-11039889D01*
X21912029Y-11108519D01*
X21913859Y-11201389D01*
X21918404Y-11459007D01*
X21880225Y-11444491D01*
X21845268Y-11431156D01*
X21819097Y-11418323D01*
X21802013Y-11401780D01*
X21792086Y-11376465D01*
X21787386Y-11337316D01*
X21785982Y-11279268D01*
X21785943Y-11197261D01*
X21785744Y-11131895D01*
X21784559Y-11069173D01*
X21781729Y-11026334D01*
X21776609Y-10998220D01*
X21768553Y-10979675D01*
X21756914Y-10965543D01*
X21728303Y-10945600D01*
X21680239Y-10938083D01*
X21632688Y-10957079D01*
X21629550Y-10959511D01*
X21619769Y-10970748D01*
X21612553Y-10988770D01*
X21607299Y-11018026D01*
X21603402Y-11062962D01*
X21600256Y-11128028D01*
X21597257Y-11217670D01*
X21590000Y-11457697D01*
X21528314Y-11430044D01*
X21466629Y-11402391D01*
X21466629Y-11183246D01*
X21466884Y-11123711D01*
X21469086Y-11040892D01*
X21474661Y-10979227D01*
X21484941Y-10933748D01*
X21501258Y-10899484D01*
X21524943Y-10871466D01*
X21557328Y-10844723D01*
X21603907Y-10817780D01*
X21677287Y-10800191D01*
X21751020Y-10807822D01*
G36*
X17802829Y-10841097D02*
G01*
X17862753Y-10863355D01*
X17887673Y-10880080D01*
X17912910Y-10904043D01*
X17930912Y-10934526D01*
X17942858Y-10976023D01*
X17949930Y-11033032D01*
X17953308Y-11110047D01*
X17954171Y-11211565D01*
X17954002Y-11264027D01*
X17953153Y-11335715D01*
X17951711Y-11392925D01*
X17949814Y-11430809D01*
X17947597Y-11444514D01*
X17933172Y-11439981D01*
X17904054Y-11427670D01*
X17903181Y-11427272D01*
X17888060Y-11419356D01*
X17877891Y-11408495D01*
X17871691Y-11389471D01*
X17868478Y-11357069D01*
X17867270Y-11306071D01*
X17867086Y-11231261D01*
X17866714Y-11183804D01*
X17862750Y-11094615D01*
X17853673Y-11029287D01*
X17838524Y-10984393D01*
X17816345Y-10956507D01*
X17786175Y-10942203D01*
X17781990Y-10941206D01*
X17725480Y-10940427D01*
X17681410Y-10965744D01*
X17650972Y-11016502D01*
X17645544Y-11031175D01*
X17633171Y-11063649D01*
X17626905Y-11078572D01*
X17614036Y-11076516D01*
X17585933Y-11065357D01*
X17559721Y-11046927D01*
X17547771Y-11012098D01*
X17551336Y-10987151D01*
X17573235Y-10936547D01*
X17608644Y-10889128D01*
X17650052Y-10856334D01*
X17667400Y-10848752D01*
X17733089Y-10836076D01*
X17802829Y-10841097D01*
G37*
X17802829Y-10841097D02*
X17862753Y-10863355D01*
X17887673Y-10880080D01*
X17912910Y-10904043D01*
X17930912Y-10934526D01*
X17942858Y-10976023D01*
X17949930Y-11033032D01*
X17953308Y-11110047D01*
X17954171Y-11211565D01*
X17954002Y-11264027D01*
X17953153Y-11335715D01*
X17951711Y-11392925D01*
X17949814Y-11430809D01*
X17947597Y-11444514D01*
X17933172Y-11439981D01*
X17904054Y-11427670D01*
X17903181Y-11427272D01*
X17888060Y-11419356D01*
X17877891Y-11408495D01*
X17871691Y-11389471D01*
X17868478Y-11357069D01*
X17867270Y-11306071D01*
X17867086Y-11231261D01*
X17866714Y-11183804D01*
X17862750Y-11094615D01*
X17853673Y-11029287D01*
X17838524Y-10984393D01*
X17816345Y-10956507D01*
X17786175Y-10942203D01*
X17781990Y-10941206D01*
X17725480Y-10940427D01*
X17681410Y-10965744D01*
X17650972Y-11016502D01*
X17645544Y-11031175D01*
X17633171Y-11063649D01*
X17626905Y-11078572D01*
X17614036Y-11076516D01*
X17585933Y-11065357D01*
X17559721Y-11046927D01*
X17547771Y-11012098D01*
X17551336Y-10987151D01*
X17573235Y-10936547D01*
X17608644Y-10889128D01*
X17650052Y-10856334D01*
X17667400Y-10848752D01*
X17733089Y-10836076D01*
X17802829Y-10841097D01*
G36*
X19549537Y-11196313D02*
G01*
X19541345Y-11273462D01*
X19523519Y-11331276D01*
X19493975Y-11375422D01*
X19450625Y-11411568D01*
X19409332Y-11432463D01*
X19339987Y-11444090D01*
X19270736Y-11431377D01*
X19208145Y-11395945D01*
X19158779Y-11339418D01*
X19152818Y-11328995D01*
X19144945Y-11310733D01*
X19139106Y-11287429D01*
X19134999Y-11255085D01*
X19132325Y-11209704D01*
X19130781Y-11147287D01*
X19130734Y-11141748D01*
X19231429Y-11141748D01*
X19231772Y-11194577D01*
X19233942Y-11242362D01*
X19239307Y-11273209D01*
X19249217Y-11293935D01*
X19265021Y-11311356D01*
X19268724Y-11314705D01*
X19316299Y-11339419D01*
X19366635Y-11336890D01*
X19413517Y-11307288D01*
X19427477Y-11291953D01*
X19439160Y-11271622D01*
X19445686Y-11243514D01*
X19448524Y-11200550D01*
X19449143Y-11135647D01*
X19448837Y-11086122D01*
X19446722Y-11037782D01*
X19441390Y-11006587D01*
X19431460Y-10985647D01*
X19415550Y-10968073D01*
X19406204Y-10960159D01*
X19357776Y-10938843D01*
X19307040Y-10942198D01*
X19262987Y-10970107D01*
X19253504Y-10981173D01*
X19241939Y-11002009D01*
X19235252Y-11031106D01*
X19232173Y-11075381D01*
X19231429Y-11141748D01*
X19130734Y-11141748D01*
X19130067Y-11063837D01*
X19129883Y-10955358D01*
X19129829Y-10618601D01*
X19177000Y-10638362D01*
X19189472Y-10643770D01*
X19209324Y-10655985D01*
X19220687Y-10674482D01*
X19226933Y-10706829D01*
X19231429Y-10760593D01*
X19235535Y-10808866D01*
X19240963Y-10840557D01*
X19248739Y-10852383D01*
X19260457Y-10849212D01*
X19290318Y-10838067D01*
X19343684Y-10835304D01*
X19401093Y-10845625D01*
X19450625Y-10867861D01*
X19477876Y-10888443D01*
X19512865Y-10928600D01*
X19535274Y-10980086D01*
X19547190Y-11048568D01*
X19550542Y-11135647D01*
X19550698Y-11139714D01*
X19549537Y-11196313D01*
G37*
X19549537Y-11196313D02*
X19541345Y-11273462D01*
X19523519Y-11331276D01*
X19493975Y-11375422D01*
X19450625Y-11411568D01*
X19409332Y-11432463D01*
X19339987Y-11444090D01*
X19270736Y-11431377D01*
X19208145Y-11395945D01*
X19158779Y-11339418D01*
X19152818Y-11328995D01*
X19144945Y-11310733D01*
X19139106Y-11287429D01*
X19134999Y-11255085D01*
X19132325Y-11209704D01*
X19130781Y-11147287D01*
X19130734Y-11141748D01*
X19231429Y-11141748D01*
X19231772Y-11194577D01*
X19233942Y-11242362D01*
X19239307Y-11273209D01*
X19249217Y-11293935D01*
X19265021Y-11311356D01*
X19268724Y-11314705D01*
X19316299Y-11339419D01*
X19366635Y-11336890D01*
X19413517Y-11307288D01*
X19427477Y-11291953D01*
X19439160Y-11271622D01*
X19445686Y-11243514D01*
X19448524Y-11200550D01*
X19449143Y-11135647D01*
X19448837Y-11086122D01*
X19446722Y-11037782D01*
X19441390Y-11006587D01*
X19431460Y-10985647D01*
X19415550Y-10968073D01*
X19406204Y-10960159D01*
X19357776Y-10938843D01*
X19307040Y-10942198D01*
X19262987Y-10970107D01*
X19253504Y-10981173D01*
X19241939Y-11002009D01*
X19235252Y-11031106D01*
X19232173Y-11075381D01*
X19231429Y-11141748D01*
X19130734Y-11141748D01*
X19130067Y-11063837D01*
X19129883Y-10955358D01*
X19129829Y-10618601D01*
X19177000Y-10638362D01*
X19189472Y-10643770D01*
X19209324Y-10655985D01*
X19220687Y-10674482D01*
X19226933Y-10706829D01*
X19231429Y-10760593D01*
X19235535Y-10808866D01*
X19240963Y-10840557D01*
X19248739Y-10852383D01*
X19260457Y-10849212D01*
X19290318Y-10838067D01*
X19343684Y-10835304D01*
X19401093Y-10845625D01*
X19450625Y-10867861D01*
X19477876Y-10888443D01*
X19512865Y-10928600D01*
X19535274Y-10980086D01*
X19547190Y-11048568D01*
X19550542Y-11135647D01*
X19550698Y-11139714D01*
X19549537Y-11196313D01*
G36*
X20998543Y-10639444D02*
G01*
X21045714Y-10659342D01*
X21045714Y-11056509D01*
X21045519Y-11159498D01*
X21044998Y-11252141D01*
X21044199Y-11330700D01*
X21043172Y-11391439D01*
X21041963Y-11430623D01*
X21040623Y-11444514D01*
X21040099Y-11444468D01*
X21022287Y-11439420D01*
X20989823Y-11428580D01*
X20944114Y-11412646D01*
X20944114Y-11208173D01*
X20943824Y-11127832D01*
X20942474Y-11069562D01*
X20939369Y-11029909D01*
X20933812Y-11003618D01*
X20925107Y-10985436D01*
X20912556Y-10970107D01*
X20903999Y-10961955D01*
X20857728Y-10939375D01*
X20806728Y-10941375D01*
X20759993Y-10968073D01*
X20753189Y-10974698D01*
X20742293Y-10988456D01*
X20734836Y-11006642D01*
X20730169Y-11034177D01*
X20727642Y-11075981D01*
X20726602Y-11136973D01*
X20726400Y-11222073D01*
X20726303Y-11265234D01*
X20725674Y-11336224D01*
X20724556Y-11393076D01*
X20723063Y-11430828D01*
X20721309Y-11444514D01*
X20720785Y-11444468D01*
X20702973Y-11439420D01*
X20670509Y-11428580D01*
X20624800Y-11412646D01*
X20624823Y-11207237D01*
X20624857Y-11188951D01*
X20626778Y-11093626D01*
X20632678Y-11021543D01*
X20644001Y-10967813D01*
X20662187Y-10927549D01*
X20688679Y-10895861D01*
X20724918Y-10867861D01*
X20760263Y-10850333D01*
X20816773Y-10836785D01*
X20872356Y-10836015D01*
X20915086Y-10849195D01*
X20918298Y-10851015D01*
X20928205Y-10850820D01*
X20934975Y-10835572D01*
X20939861Y-10800613D01*
X20944114Y-10741289D01*
X20951371Y-10619547D01*
X20998543Y-10639444D01*
G37*
X20998543Y-10639444D02*
X21045714Y-10659342D01*
X21045714Y-11056509D01*
X21045519Y-11159498D01*
X21044998Y-11252141D01*
X21044199Y-11330700D01*
X21043172Y-11391439D01*
X21041963Y-11430623D01*
X21040623Y-11444514D01*
X21040099Y-11444468D01*
X21022287Y-11439420D01*
X20989823Y-11428580D01*
X20944114Y-11412646D01*
X20944114Y-11208173D01*
X20943824Y-11127832D01*
X20942474Y-11069562D01*
X20939369Y-11029909D01*
X20933812Y-11003618D01*
X20925107Y-10985436D01*
X20912556Y-10970107D01*
X20903999Y-10961955D01*
X20857728Y-10939375D01*
X20806728Y-10941375D01*
X20759993Y-10968073D01*
X20753189Y-10974698D01*
X20742293Y-10988456D01*
X20734836Y-11006642D01*
X20730169Y-11034177D01*
X20727642Y-11075981D01*
X20726602Y-11136973D01*
X20726400Y-11222073D01*
X20726303Y-11265234D01*
X20725674Y-11336224D01*
X20724556Y-11393076D01*
X20723063Y-11430828D01*
X20721309Y-11444514D01*
X20720785Y-11444468D01*
X20702973Y-11439420D01*
X20670509Y-11428580D01*
X20624800Y-11412646D01*
X20624823Y-11207237D01*
X20624857Y-11188951D01*
X20626778Y-11093626D01*
X20632678Y-11021543D01*
X20644001Y-10967813D01*
X20662187Y-10927549D01*
X20688679Y-10895861D01*
X20724918Y-10867861D01*
X20760263Y-10850333D01*
X20816773Y-10836785D01*
X20872356Y-10836015D01*
X20915086Y-10849195D01*
X20918298Y-10851015D01*
X20928205Y-10850820D01*
X20934975Y-10835572D01*
X20939861Y-10800613D01*
X20944114Y-10741289D01*
X20951371Y-10619547D01*
X20998543Y-10639444D01*
G36*
X17460307Y-11181305D02*
G01*
X17456762Y-11257521D01*
X17447483Y-11313294D01*
X17430375Y-11354613D01*
X17403344Y-11387467D01*
X17364292Y-11417846D01*
X17339445Y-11431660D01*
X17299615Y-11440965D01*
X17243665Y-11440230D01*
X17212385Y-11437283D01*
X17174653Y-11428283D01*
X17144494Y-11408720D01*
X17109408Y-11372267D01*
X17104720Y-11366943D01*
X17073177Y-11325969D01*
X17058128Y-11290283D01*
X17054286Y-11247966D01*
X17054286Y-11185779D01*
X17097742Y-11202182D01*
X17129424Y-11221356D01*
X17156962Y-11266347D01*
X17162711Y-11280752D01*
X17194855Y-11321546D01*
X17238611Y-11342081D01*
X17286254Y-11340235D01*
X17330057Y-11313886D01*
X17345111Y-11297455D01*
X17358763Y-11272667D01*
X17354493Y-11250144D01*
X17329916Y-11226964D01*
X17282651Y-11200202D01*
X17210314Y-11166934D01*
X17061543Y-11101816D01*
X17057595Y-11037308D01*
X17059079Y-10996220D01*
X17156010Y-10996220D01*
X17163368Y-11021657D01*
X17196848Y-11048814D01*
X17257614Y-11079714D01*
X17267669Y-11084190D01*
X17315751Y-11105017D01*
X17351726Y-11119665D01*
X17368444Y-11125200D01*
X17370977Y-11121126D01*
X17371993Y-11096247D01*
X17368369Y-11056257D01*
X17359242Y-11017152D01*
X17330773Y-10967884D01*
X17289678Y-10940122D01*
X17240590Y-10936364D01*
X17188144Y-10959109D01*
X17173609Y-10970481D01*
X17156010Y-10996220D01*
X17059079Y-10996220D01*
X17059338Y-10989064D01*
X17081281Y-10928096D01*
X17108979Y-10894497D01*
X17166405Y-10856966D01*
X17234527Y-10838006D01*
X17304947Y-10839507D01*
X17369267Y-10863355D01*
X17383426Y-10872513D01*
X17415904Y-10900849D01*
X17438116Y-10936695D01*
X17451804Y-10985384D01*
X17458715Y-11052249D01*
X17459628Y-11096247D01*
X17460590Y-11142622D01*
X17460307Y-11181305D01*
G37*
X17460307Y-11181305D02*
X17456762Y-11257521D01*
X17447483Y-11313294D01*
X17430375Y-11354613D01*
X17403344Y-11387467D01*
X17364292Y-11417846D01*
X17339445Y-11431660D01*
X17299615Y-11440965D01*
X17243665Y-11440230D01*
X17212385Y-11437283D01*
X17174653Y-11428283D01*
X17144494Y-11408720D01*
X17109408Y-11372267D01*
X17104720Y-11366943D01*
X17073177Y-11325969D01*
X17058128Y-11290283D01*
X17054286Y-11247966D01*
X17054286Y-11185779D01*
X17097742Y-11202182D01*
X17129424Y-11221356D01*
X17156962Y-11266347D01*
X17162711Y-11280752D01*
X17194855Y-11321546D01*
X17238611Y-11342081D01*
X17286254Y-11340235D01*
X17330057Y-11313886D01*
X17345111Y-11297455D01*
X17358763Y-11272667D01*
X17354493Y-11250144D01*
X17329916Y-11226964D01*
X17282651Y-11200202D01*
X17210314Y-11166934D01*
X17061543Y-11101816D01*
X17057595Y-11037308D01*
X17059079Y-10996220D01*
X17156010Y-10996220D01*
X17163368Y-11021657D01*
X17196848Y-11048814D01*
X17257614Y-11079714D01*
X17267669Y-11084190D01*
X17315751Y-11105017D01*
X17351726Y-11119665D01*
X17368444Y-11125200D01*
X17370977Y-11121126D01*
X17371993Y-11096247D01*
X17368369Y-11056257D01*
X17359242Y-11017152D01*
X17330773Y-10967884D01*
X17289678Y-10940122D01*
X17240590Y-10936364D01*
X17188144Y-10959109D01*
X17173609Y-10970481D01*
X17156010Y-10996220D01*
X17059079Y-10996220D01*
X17059338Y-10989064D01*
X17081281Y-10928096D01*
X17108979Y-10894497D01*
X17166405Y-10856966D01*
X17234527Y-10838006D01*
X17304947Y-10839507D01*
X17369267Y-10863355D01*
X17383426Y-10872513D01*
X17415904Y-10900849D01*
X17438116Y-10936695D01*
X17451804Y-10985384D01*
X17458715Y-11052249D01*
X17459628Y-11096247D01*
X17460590Y-11142622D01*
X17460307Y-11181305D01*
G36*
X23585701Y-11140935D02*
G01*
X23584914Y-11211119D01*
X23582210Y-11260022D01*
X23576606Y-11294178D01*
X23567119Y-11320124D01*
X23552768Y-11344397D01*
X23549237Y-11349433D01*
X23511878Y-11389143D01*
X23469311Y-11419092D01*
X23447452Y-11428810D01*
X23368908Y-11445020D01*
X23291231Y-11434535D01*
X23219645Y-11398707D01*
X23159374Y-11338887D01*
X23154286Y-11330873D01*
X23137730Y-11284342D01*
X23126573Y-11219552D01*
X23121160Y-11144727D01*
X23121768Y-11075513D01*
X23268248Y-11075513D01*
X23269402Y-11171399D01*
X23269866Y-11177569D01*
X23276629Y-11230478D01*
X23288671Y-11264029D01*
X23309005Y-11287016D01*
X23343097Y-11308548D01*
X23376814Y-11309680D01*
X23411543Y-11284857D01*
X23417584Y-11278325D01*
X23429417Y-11258779D01*
X23436404Y-11230386D01*
X23439727Y-11186430D01*
X23440571Y-11120192D01*
X23439125Y-11058150D01*
X23431907Y-10999042D01*
X23417006Y-10961686D01*
X23392636Y-10942152D01*
X23357008Y-10936514D01*
X23343440Y-10937635D01*
X23305430Y-10958194D01*
X23280312Y-11004299D01*
X23268248Y-11075513D01*
X23121768Y-11075513D01*
X23121833Y-11068096D01*
X23128937Y-10997882D01*
X23142815Y-10942312D01*
X23160649Y-10905301D01*
X23210855Y-10847733D01*
X23278885Y-10811962D01*
X23362158Y-10799665D01*
X23384398Y-10800331D01*
X23449891Y-10813947D01*
X23503687Y-10848249D01*
X23553057Y-10907338D01*
X23555995Y-10911722D01*
X23569287Y-10935299D01*
X23577932Y-10961949D01*
X23582904Y-10998159D01*
X23585174Y-11050413D01*
X23585678Y-11120192D01*
X23585714Y-11125200D01*
X23585701Y-11140935D01*
G37*
X23585701Y-11140935D02*
X23584914Y-11211119D01*
X23582210Y-11260022D01*
X23576606Y-11294178D01*
X23567119Y-11320124D01*
X23552768Y-11344397D01*
X23549237Y-11349433D01*
X23511878Y-11389143D01*
X23469311Y-11419092D01*
X23447452Y-11428810D01*
X23368908Y-11445020D01*
X23291231Y-11434535D01*
X23219645Y-11398707D01*
X23159374Y-11338887D01*
X23154286Y-11330873D01*
X23137730Y-11284342D01*
X23126573Y-11219552D01*
X23121160Y-11144727D01*
X23121768Y-11075513D01*
X23268248Y-11075513D01*
X23269402Y-11171399D01*
X23269866Y-11177569D01*
X23276629Y-11230478D01*
X23288671Y-11264029D01*
X23309005Y-11287016D01*
X23343097Y-11308548D01*
X23376814Y-11309680D01*
X23411543Y-11284857D01*
X23417584Y-11278325D01*
X23429417Y-11258779D01*
X23436404Y-11230386D01*
X23439727Y-11186430D01*
X23440571Y-11120192D01*
X23439125Y-11058150D01*
X23431907Y-10999042D01*
X23417006Y-10961686D01*
X23392636Y-10942152D01*
X23357008Y-10936514D01*
X23343440Y-10937635D01*
X23305430Y-10958194D01*
X23280312Y-11004299D01*
X23268248Y-11075513D01*
X23121768Y-11075513D01*
X23121833Y-11068096D01*
X23128937Y-10997882D01*
X23142815Y-10942312D01*
X23160649Y-10905301D01*
X23210855Y-10847733D01*
X23278885Y-10811962D01*
X23362158Y-10799665D01*
X23384398Y-10800331D01*
X23449891Y-10813947D01*
X23503687Y-10848249D01*
X23553057Y-10907338D01*
X23555995Y-10911722D01*
X23569287Y-10935299D01*
X23577932Y-10961949D01*
X23582904Y-10998159D01*
X23585174Y-11050413D01*
X23585678Y-11120192D01*
X23585714Y-11125200D01*
X23585701Y-11140935D01*
G36*
X20433933Y-6132371D02*
G01*
X20509856Y-6132865D01*
X20564491Y-6134135D01*
X20601500Y-6136547D01*
X20624547Y-6140467D01*
X20637296Y-6146262D01*
X20643411Y-6154299D01*
X20646556Y-6164943D01*
X20646646Y-6165325D01*
X20651814Y-6190347D01*
X20661209Y-6238681D01*
X20673867Y-6305260D01*
X20688825Y-6385014D01*
X20705119Y-6472875D01*
X20706448Y-6480064D01*
X20722691Y-6565340D01*
X20737805Y-6640242D01*
X20750808Y-6700219D01*
X20760715Y-6740717D01*
X20766544Y-6757184D01*
X20766575Y-6757210D01*
X20784943Y-6766320D01*
X20822640Y-6781457D01*
X20871543Y-6799358D01*
X20874297Y-6800330D01*
X20936817Y-6823959D01*
X21009543Y-6853595D01*
X21077294Y-6883062D01*
X21188703Y-6933626D01*
X21435399Y-6765160D01*
X21452775Y-6753311D01*
X21527202Y-6702947D01*
X21593614Y-6658612D01*
X21648039Y-6622916D01*
X21686506Y-6598471D01*
X21705042Y-6587889D01*
X21717743Y-6590315D01*
X21746579Y-6609110D01*
X21791143Y-6646330D01*
X21852670Y-6703020D01*
X21932398Y-6780227D01*
X21939532Y-6787255D01*
X22002796Y-6850222D01*
X22058990Y-6907268D01*
X22104677Y-6954817D01*
X22136414Y-6989297D01*
X22150764Y-7007131D01*
X22150810Y-7007217D01*
X22152633Y-7020795D01*
X22145910Y-7042820D01*
X22128946Y-7076304D01*
X22100044Y-7124261D01*
X22057508Y-7189704D01*
X21999644Y-7275645D01*
X21989783Y-7290151D01*
X21939913Y-7363635D01*
X21895905Y-7428687D01*
X21860380Y-7481417D01*
X21835959Y-7517936D01*
X21825264Y-7534356D01*
X21824458Y-7537834D01*
X21829518Y-7563785D01*
X21844677Y-7606159D01*
X21867463Y-7657728D01*
X21898429Y-7725170D01*
X21933004Y-7805195D01*
X21962366Y-7877629D01*
X21969645Y-7896377D01*
X21988710Y-7944246D01*
X22002715Y-7977596D01*
X22009041Y-7990114D01*
X22016025Y-7991050D01*
X22047413Y-7996461D01*
X22098787Y-8005806D01*
X22164802Y-8018069D01*
X22240113Y-8032232D01*
X22319375Y-8047280D01*
X22397243Y-8062195D01*
X22468370Y-8075961D01*
X22527412Y-8087562D01*
X22569022Y-8095980D01*
X22587857Y-8100199D01*
X22590980Y-8101389D01*
X22598591Y-8107805D01*
X22604254Y-8121465D01*
X22608251Y-8145999D01*
X22610866Y-8185038D01*
X22612384Y-8242213D01*
X22613086Y-8321154D01*
X22613257Y-8425492D01*
X22613257Y-8742799D01*
X22537057Y-8757839D01*
X22527840Y-8759642D01*
X22478891Y-8768980D01*
X22411205Y-8781669D01*
X22332478Y-8796273D01*
X22250400Y-8811355D01*
X22218078Y-8817422D01*
X22145855Y-8832181D01*
X22085666Y-8846137D01*
X22043040Y-8857952D01*
X22023510Y-8866287D01*
X22014660Y-8879905D01*
X21998548Y-8915938D01*
X21982065Y-8962572D01*
X21976263Y-8980034D01*
X21954906Y-9037358D01*
X21927359Y-9105201D01*
X21898107Y-9172355D01*
X21882463Y-9207430D01*
X21860174Y-9259822D01*
X21844857Y-9299058D01*
X21839162Y-9318563D01*
X21839478Y-9320036D01*
X21850281Y-9340729D01*
X21874638Y-9380665D01*
X21910081Y-9435972D01*
X21954136Y-9502781D01*
X22004332Y-9577220D01*
X22169501Y-9819623D01*
X21952503Y-10036983D01*
X21931516Y-10057899D01*
X21867342Y-10120505D01*
X21809990Y-10174495D01*
X21762820Y-10216826D01*
X21729192Y-10244457D01*
X21712467Y-10254343D01*
X21694303Y-10246821D01*
X21656265Y-10225227D01*
X21602726Y-10192151D01*
X21537884Y-10150191D01*
X21465940Y-10101943D01*
X21395275Y-10054291D01*
X21331526Y-10012328D01*
X21279513Y-9979165D01*
X21243279Y-9957378D01*
X21226867Y-9949543D01*
X21225905Y-9949614D01*
X21204103Y-9957338D01*
X21165440Y-9975323D01*
X21117612Y-10000013D01*
X21117110Y-10000284D01*
X21053587Y-10032099D01*
X21010060Y-10047642D01*
X20983052Y-10047685D01*
X20969090Y-10033000D01*
X20963180Y-10018544D01*
X20947229Y-9979831D01*
X20922660Y-9920316D01*
X20890779Y-9843165D01*
X20852893Y-9751541D01*
X20810310Y-9648607D01*
X20764337Y-9537526D01*
X20722667Y-9436472D01*
X20680268Y-9332780D01*
X20642756Y-9240119D01*
X20611388Y-9161642D01*
X20587425Y-9100500D01*
X20572123Y-9059843D01*
X20566743Y-9042825D01*
X20577018Y-9027219D01*
X20605563Y-9001162D01*
X20645971Y-8970887D01*
X20742979Y-8891684D01*
X20829793Y-8790475D01*
X20893322Y-8679116D01*
X20933177Y-8560893D01*
X20948965Y-8439095D01*
X20940296Y-8317010D01*
X20906778Y-8197925D01*
X20848021Y-8085129D01*
X20763632Y-7981911D01*
X20719631Y-7941713D01*
X20614211Y-7870638D01*
X20501410Y-7824301D01*
X20384525Y-7801599D01*
X20266853Y-7801428D01*
X20151690Y-7822687D01*
X20042335Y-7864270D01*
X19942083Y-7925076D01*
X19854233Y-8004001D01*
X19782080Y-8099941D01*
X19728922Y-8211795D01*
X19698057Y-8338457D01*
X19692392Y-8399507D01*
X19700185Y-8531776D01*
X19735284Y-8657266D01*
X19796649Y-8773759D01*
X19883243Y-8879039D01*
X19994029Y-8970887D01*
X20032931Y-8999930D01*
X20062104Y-9026272D01*
X20073257Y-9042800D01*
X20068810Y-9057209D01*
X20054378Y-9095815D01*
X20031173Y-9155201D01*
X20000452Y-9232215D01*
X19963474Y-9323703D01*
X19921496Y-9426516D01*
X19875778Y-9537502D01*
X19834178Y-9638072D01*
X19791222Y-9741947D01*
X19752829Y-9834819D01*
X19720305Y-9913525D01*
X19694958Y-9974899D01*
X19678095Y-10015779D01*
X19671025Y-10033000D01*
X19670943Y-10033204D01*
X19656798Y-10047745D01*
X19629659Y-10047579D01*
X19586023Y-10031927D01*
X19522388Y-10000013D01*
X19517379Y-9997326D01*
X19470125Y-9973150D01*
X19432811Y-9956037D01*
X19413133Y-9949543D01*
X19397005Y-9957218D01*
X19360959Y-9978871D01*
X19309092Y-10011928D01*
X19245445Y-10053810D01*
X19174060Y-10101943D01*
X19103724Y-10149131D01*
X19038670Y-10191267D01*
X18984820Y-10224578D01*
X18946374Y-10246469D01*
X18927534Y-10254343D01*
X18924325Y-10253343D01*
X18901954Y-10237584D01*
X18863733Y-10205033D01*
X18813021Y-10158733D01*
X18753181Y-10101726D01*
X18687571Y-10037058D01*
X18470648Y-9819772D01*
X18639601Y-9571253D01*
X18808553Y-9322733D01*
X18757183Y-9211595D01*
X18757031Y-9211266D01*
X18726183Y-9140418D01*
X18694661Y-9061523D01*
X18669266Y-8991600D01*
X18665423Y-8980322D01*
X18646047Y-8927967D01*
X18628574Y-8887283D01*
X18616388Y-8866287D01*
X18611426Y-8863322D01*
X18581634Y-8853375D01*
X18531047Y-8840505D01*
X18465194Y-8826053D01*
X18389600Y-8811355D01*
X18366957Y-8807210D01*
X18285038Y-8792116D01*
X18208600Y-8777899D01*
X18145337Y-8765995D01*
X18102943Y-8757839D01*
X18026743Y-8742799D01*
X18026743Y-8425492D01*
X18026760Y-8386476D01*
X18027082Y-8291292D01*
X18028033Y-8220255D01*
X18029896Y-8169734D01*
X18032955Y-8136098D01*
X18037494Y-8115718D01*
X18043795Y-8104962D01*
X18052143Y-8100199D01*
X18060224Y-8098270D01*
X18093172Y-8091445D01*
X18145736Y-8081022D01*
X18212569Y-8068018D01*
X18288328Y-8053449D01*
X18367665Y-8038333D01*
X18445237Y-8023685D01*
X18515698Y-8010523D01*
X18573702Y-7999863D01*
X18613904Y-7992721D01*
X18630959Y-7990114D01*
X18632112Y-7988541D01*
X18641385Y-7968119D01*
X18657432Y-7929045D01*
X18677635Y-7877629D01*
X18705672Y-7808353D01*
X18740186Y-7728290D01*
X18772538Y-7657728D01*
X18779952Y-7641889D01*
X18800755Y-7592293D01*
X18813219Y-7554038D01*
X18814863Y-7534356D01*
X18814015Y-7532962D01*
X18800548Y-7512420D01*
X18773850Y-7472516D01*
X18736539Y-7417140D01*
X18691234Y-7350177D01*
X18640552Y-7275517D01*
X18583445Y-7190692D01*
X18540607Y-7124800D01*
X18511460Y-7076478D01*
X18494317Y-7042733D01*
X18487495Y-7020572D01*
X18489306Y-7007002D01*
X18489915Y-7005984D01*
X18506297Y-6986210D01*
X18539695Y-6950175D01*
X18586671Y-6901451D01*
X18643786Y-6843612D01*
X18707603Y-6780227D01*
X18773802Y-6715905D01*
X18838648Y-6655447D01*
X18886299Y-6614655D01*
X18917990Y-6592484D01*
X18934958Y-6587889D01*
X18937175Y-6588921D01*
X18960524Y-6602837D01*
X19002912Y-6630030D01*
X19060369Y-6667889D01*
X19128923Y-6713803D01*
X19204601Y-6765160D01*
X19451298Y-6933626D01*
X19562706Y-6883062D01*
X19565943Y-6881597D01*
X19634343Y-6851965D01*
X19706907Y-6822493D01*
X19768457Y-6799358D01*
X19768729Y-6799262D01*
X19817595Y-6781367D01*
X19855212Y-6766253D01*
X19873457Y-6757184D01*
X19873752Y-6756855D01*
X19879946Y-6738282D01*
X19890139Y-6696045D01*
X19903348Y-6634696D01*
X19918590Y-6558789D01*
X19934881Y-6472875D01*
X19935449Y-6469796D01*
X19951713Y-6382128D01*
X19966608Y-6302741D01*
X19979171Y-6236701D01*
X19988438Y-6189079D01*
X19993444Y-6164943D01*
X19993764Y-6163605D01*
X19997060Y-6153273D01*
X20003738Y-6145506D01*
X20017462Y-6139940D01*
X20041895Y-6136207D01*
X20080702Y-6133942D01*
X20137546Y-6132778D01*
X20216090Y-6132348D01*
X20320000Y-6132286D01*
X20333056Y-6132286D01*
X20433933Y-6132371D01*
G37*
X20433933Y-6132371D02*
X20509856Y-6132865D01*
X20564491Y-6134135D01*
X20601500Y-6136547D01*
X20624547Y-6140467D01*
X20637296Y-6146262D01*
X20643411Y-6154299D01*
X20646556Y-6164943D01*
X20646646Y-6165325D01*
X20651814Y-6190347D01*
X20661209Y-6238681D01*
X20673867Y-6305260D01*
X20688825Y-6385014D01*
X20705119Y-6472875D01*
X20706448Y-6480064D01*
X20722691Y-6565340D01*
X20737805Y-6640242D01*
X20750808Y-6700219D01*
X20760715Y-6740717D01*
X20766544Y-6757184D01*
X20766575Y-6757210D01*
X20784943Y-6766320D01*
X20822640Y-6781457D01*
X20871543Y-6799358D01*
X20874297Y-6800330D01*
X20936817Y-6823959D01*
X21009543Y-6853595D01*
X21077294Y-6883062D01*
X21188703Y-6933626D01*
X21435399Y-6765160D01*
X21452775Y-6753311D01*
X21527202Y-6702947D01*
X21593614Y-6658612D01*
X21648039Y-6622916D01*
X21686506Y-6598471D01*
X21705042Y-6587889D01*
X21717743Y-6590315D01*
X21746579Y-6609110D01*
X21791143Y-6646330D01*
X21852670Y-6703020D01*
X21932398Y-6780227D01*
X21939532Y-6787255D01*
X22002796Y-6850222D01*
X22058990Y-6907268D01*
X22104677Y-6954817D01*
X22136414Y-6989297D01*
X22150764Y-7007131D01*
X22150810Y-7007217D01*
X22152633Y-7020795D01*
X22145910Y-7042820D01*
X22128946Y-7076304D01*
X22100044Y-7124261D01*
X22057508Y-7189704D01*
X21999644Y-7275645D01*
X21989783Y-7290151D01*
X21939913Y-7363635D01*
X21895905Y-7428687D01*
X21860380Y-7481417D01*
X21835959Y-7517936D01*
X21825264Y-7534356D01*
X21824458Y-7537834D01*
X21829518Y-7563785D01*
X21844677Y-7606159D01*
X21867463Y-7657728D01*
X21898429Y-7725170D01*
X21933004Y-7805195D01*
X21962366Y-7877629D01*
X21969645Y-7896377D01*
X21988710Y-7944246D01*
X22002715Y-7977596D01*
X22009041Y-7990114D01*
X22016025Y-7991050D01*
X22047413Y-7996461D01*
X22098787Y-8005806D01*
X22164802Y-8018069D01*
X22240113Y-8032232D01*
X22319375Y-8047280D01*
X22397243Y-8062195D01*
X22468370Y-8075961D01*
X22527412Y-8087562D01*
X22569022Y-8095980D01*
X22587857Y-8100199D01*
X22590980Y-8101389D01*
X22598591Y-8107805D01*
X22604254Y-8121465D01*
X22608251Y-8145999D01*
X22610866Y-8185038D01*
X22612384Y-8242213D01*
X22613086Y-8321154D01*
X22613257Y-8425492D01*
X22613257Y-8742799D01*
X22537057Y-8757839D01*
X22527840Y-8759642D01*
X22478891Y-8768980D01*
X22411205Y-8781669D01*
X22332478Y-8796273D01*
X22250400Y-8811355D01*
X22218078Y-8817422D01*
X22145855Y-8832181D01*
X22085666Y-8846137D01*
X22043040Y-8857952D01*
X22023510Y-8866287D01*
X22014660Y-8879905D01*
X21998548Y-8915938D01*
X21982065Y-8962572D01*
X21976263Y-8980034D01*
X21954906Y-9037358D01*
X21927359Y-9105201D01*
X21898107Y-9172355D01*
X21882463Y-9207430D01*
X21860174Y-9259822D01*
X21844857Y-9299058D01*
X21839162Y-9318563D01*
X21839478Y-9320036D01*
X21850281Y-9340729D01*
X21874638Y-9380665D01*
X21910081Y-9435972D01*
X21954136Y-9502781D01*
X22004332Y-9577220D01*
X22169501Y-9819623D01*
X21952503Y-10036983D01*
X21931516Y-10057899D01*
X21867342Y-10120505D01*
X21809990Y-10174495D01*
X21762820Y-10216826D01*
X21729192Y-10244457D01*
X21712467Y-10254343D01*
X21694303Y-10246821D01*
X21656265Y-10225227D01*
X21602726Y-10192151D01*
X21537884Y-10150191D01*
X21465940Y-10101943D01*
X21395275Y-10054291D01*
X21331526Y-10012328D01*
X21279513Y-9979165D01*
X21243279Y-9957378D01*
X21226867Y-9949543D01*
X21225905Y-9949614D01*
X21204103Y-9957338D01*
X21165440Y-9975323D01*
X21117612Y-10000013D01*
X21117110Y-10000284D01*
X21053587Y-10032099D01*
X21010060Y-10047642D01*
X20983052Y-10047685D01*
X20969090Y-10033000D01*
X20963180Y-10018544D01*
X20947229Y-9979831D01*
X20922660Y-9920316D01*
X20890779Y-9843165D01*
X20852893Y-9751541D01*
X20810310Y-9648607D01*
X20764337Y-9537526D01*
X20722667Y-9436472D01*
X20680268Y-9332780D01*
X20642756Y-9240119D01*
X20611388Y-9161642D01*
X20587425Y-9100500D01*
X20572123Y-9059843D01*
X20566743Y-9042825D01*
X20577018Y-9027219D01*
X20605563Y-9001162D01*
X20645971Y-8970887D01*
X20742979Y-8891684D01*
X20829793Y-8790475D01*
X20893322Y-8679116D01*
X20933177Y-8560893D01*
X20948965Y-8439095D01*
X20940296Y-8317010D01*
X20906778Y-8197925D01*
X20848021Y-8085129D01*
X20763632Y-7981911D01*
X20719631Y-7941713D01*
X20614211Y-7870638D01*
X20501410Y-7824301D01*
X20384525Y-7801599D01*
X20266853Y-7801428D01*
X20151690Y-7822687D01*
X20042335Y-7864270D01*
X19942083Y-7925076D01*
X19854233Y-8004001D01*
X19782080Y-8099941D01*
X19728922Y-8211795D01*
X19698057Y-8338457D01*
X19692392Y-8399507D01*
X19700185Y-8531776D01*
X19735284Y-8657266D01*
X19796649Y-8773759D01*
X19883243Y-8879039D01*
X19994029Y-8970887D01*
X20032931Y-8999930D01*
X20062104Y-9026272D01*
X20073257Y-9042800D01*
X20068810Y-9057209D01*
X20054378Y-9095815D01*
X20031173Y-9155201D01*
X20000452Y-9232215D01*
X19963474Y-9323703D01*
X19921496Y-9426516D01*
X19875778Y-9537502D01*
X19834178Y-9638072D01*
X19791222Y-9741947D01*
X19752829Y-9834819D01*
X19720305Y-9913525D01*
X19694958Y-9974899D01*
X19678095Y-10015779D01*
X19671025Y-10033000D01*
X19670943Y-10033204D01*
X19656798Y-10047745D01*
X19629659Y-10047579D01*
X19586023Y-10031927D01*
X19522388Y-10000013D01*
X19517379Y-9997326D01*
X19470125Y-9973150D01*
X19432811Y-9956037D01*
X19413133Y-9949543D01*
X19397005Y-9957218D01*
X19360959Y-9978871D01*
X19309092Y-10011928D01*
X19245445Y-10053810D01*
X19174060Y-10101943D01*
X19103724Y-10149131D01*
X19038670Y-10191267D01*
X18984820Y-10224578D01*
X18946374Y-10246469D01*
X18927534Y-10254343D01*
X18924325Y-10253343D01*
X18901954Y-10237584D01*
X18863733Y-10205033D01*
X18813021Y-10158733D01*
X18753181Y-10101726D01*
X18687571Y-10037058D01*
X18470648Y-9819772D01*
X18639601Y-9571253D01*
X18808553Y-9322733D01*
X18757183Y-9211595D01*
X18757031Y-9211266D01*
X18726183Y-9140418D01*
X18694661Y-9061523D01*
X18669266Y-8991600D01*
X18665423Y-8980322D01*
X18646047Y-8927967D01*
X18628574Y-8887283D01*
X18616388Y-8866287D01*
X18611426Y-8863322D01*
X18581634Y-8853375D01*
X18531047Y-8840505D01*
X18465194Y-8826053D01*
X18389600Y-8811355D01*
X18366957Y-8807210D01*
X18285038Y-8792116D01*
X18208600Y-8777899D01*
X18145337Y-8765995D01*
X18102943Y-8757839D01*
X18026743Y-8742799D01*
X18026743Y-8425492D01*
X18026760Y-8386476D01*
X18027082Y-8291292D01*
X18028033Y-8220255D01*
X18029896Y-8169734D01*
X18032955Y-8136098D01*
X18037494Y-8115718D01*
X18043795Y-8104962D01*
X18052143Y-8100199D01*
X18060224Y-8098270D01*
X18093172Y-8091445D01*
X18145736Y-8081022D01*
X18212569Y-8068018D01*
X18288328Y-8053449D01*
X18367665Y-8038333D01*
X18445237Y-8023685D01*
X18515698Y-8010523D01*
X18573702Y-7999863D01*
X18613904Y-7992721D01*
X18630959Y-7990114D01*
X18632112Y-7988541D01*
X18641385Y-7968119D01*
X18657432Y-7929045D01*
X18677635Y-7877629D01*
X18705672Y-7808353D01*
X18740186Y-7728290D01*
X18772538Y-7657728D01*
X18779952Y-7641889D01*
X18800755Y-7592293D01*
X18813219Y-7554038D01*
X18814863Y-7534356D01*
X18814015Y-7532962D01*
X18800548Y-7512420D01*
X18773850Y-7472516D01*
X18736539Y-7417140D01*
X18691234Y-7350177D01*
X18640552Y-7275517D01*
X18583445Y-7190692D01*
X18540607Y-7124800D01*
X18511460Y-7076478D01*
X18494317Y-7042733D01*
X18487495Y-7020572D01*
X18489306Y-7007002D01*
X18489915Y-7005984D01*
X18506297Y-6986210D01*
X18539695Y-6950175D01*
X18586671Y-6901451D01*
X18643786Y-6843612D01*
X18707603Y-6780227D01*
X18773802Y-6715905D01*
X18838648Y-6655447D01*
X18886299Y-6614655D01*
X18917990Y-6592484D01*
X18934958Y-6587889D01*
X18937175Y-6588921D01*
X18960524Y-6602837D01*
X19002912Y-6630030D01*
X19060369Y-6667889D01*
X19128923Y-6713803D01*
X19204601Y-6765160D01*
X19451298Y-6933626D01*
X19562706Y-6883062D01*
X19565943Y-6881597D01*
X19634343Y-6851965D01*
X19706907Y-6822493D01*
X19768457Y-6799358D01*
X19768729Y-6799262D01*
X19817595Y-6781367D01*
X19855212Y-6766253D01*
X19873457Y-6757184D01*
X19873752Y-6756855D01*
X19879946Y-6738282D01*
X19890139Y-6696045D01*
X19903348Y-6634696D01*
X19918590Y-6558789D01*
X19934881Y-6472875D01*
X19935449Y-6469796D01*
X19951713Y-6382128D01*
X19966608Y-6302741D01*
X19979171Y-6236701D01*
X19988438Y-6189079D01*
X19993444Y-6164943D01*
X19993764Y-6163605D01*
X19997060Y-6153273D01*
X20003738Y-6145506D01*
X20017462Y-6139940D01*
X20041895Y-6136207D01*
X20080702Y-6133942D01*
X20137546Y-6132778D01*
X20216090Y-6132348D01*
X20320000Y-6132286D01*
X20333056Y-6132286D01*
X20433933Y-6132371D01*
G36*
X19927691Y-10856467D02*
G01*
X19932273Y-10859003D01*
X19969704Y-10888057D01*
X20003170Y-10925410D01*
X20009007Y-10933852D01*
X20020165Y-10953553D01*
X20028136Y-10976935D01*
X20033618Y-11009067D01*
X20037307Y-11055019D01*
X20039899Y-11119859D01*
X20042092Y-11208657D01*
X20042402Y-11223669D01*
X20043400Y-11320999D01*
X20041994Y-11389934D01*
X20038164Y-11430948D01*
X20031889Y-11444514D01*
X20012898Y-11440452D01*
X19980638Y-11428144D01*
X19973041Y-11424545D01*
X19961176Y-11416398D01*
X19952994Y-11403004D01*
X19947643Y-11379608D01*
X19944269Y-11341455D01*
X19942019Y-11283790D01*
X19940040Y-11201857D01*
X19939498Y-11177907D01*
X19937403Y-11102266D01*
X19934683Y-11049328D01*
X19930515Y-11014075D01*
X19924079Y-10991487D01*
X19914550Y-10976544D01*
X19901106Y-10964227D01*
X19861305Y-10942634D01*
X19812341Y-10938476D01*
X19768529Y-10954999D01*
X19737008Y-10989210D01*
X19724914Y-11038114D01*
X19724578Y-11051407D01*
X19717972Y-11075472D01*
X19698470Y-11079144D01*
X19660283Y-11064813D01*
X19651438Y-11060217D01*
X19627534Y-11033186D01*
X19627061Y-10992994D01*
X19649836Y-10937409D01*
X19670727Y-10907117D01*
X19724142Y-10864084D01*
X19790074Y-10839755D01*
X19860574Y-10836443D01*
X19927691Y-10856467D01*
G37*
X19927691Y-10856467D02*
X19932273Y-10859003D01*
X19969704Y-10888057D01*
X20003170Y-10925410D01*
X20009007Y-10933852D01*
X20020165Y-10953553D01*
X20028136Y-10976935D01*
X20033618Y-11009067D01*
X20037307Y-11055019D01*
X20039899Y-11119859D01*
X20042092Y-11208657D01*
X20042402Y-11223669D01*
X20043400Y-11320999D01*
X20041994Y-11389934D01*
X20038164Y-11430948D01*
X20031889Y-11444514D01*
X20012898Y-11440452D01*
X19980638Y-11428144D01*
X19973041Y-11424545D01*
X19961176Y-11416398D01*
X19952994Y-11403004D01*
X19947643Y-11379608D01*
X19944269Y-11341455D01*
X19942019Y-11283790D01*
X19940040Y-11201857D01*
X19939498Y-11177907D01*
X19937403Y-11102266D01*
X19934683Y-11049328D01*
X19930515Y-11014075D01*
X19924079Y-10991487D01*
X19914550Y-10976544D01*
X19901106Y-10964227D01*
X19861305Y-10942634D01*
X19812341Y-10938476D01*
X19768529Y-10954999D01*
X19737008Y-10989210D01*
X19724914Y-11038114D01*
X19724578Y-11051407D01*
X19717972Y-11075472D01*
X19698470Y-11079144D01*
X19660283Y-11064813D01*
X19651438Y-11060217D01*
X19627534Y-11033186D01*
X19627061Y-10992994D01*
X19649836Y-10937409D01*
X19670727Y-10907117D01*
X19724142Y-10864084D01*
X19790074Y-10839755D01*
X19860574Y-10836443D01*
X19927691Y-10856467D01*
%TD*%
%LPC*%
D13*
%TO.C,D2*%
X21590000Y-53340000D03*
D14*
X19050000Y-53340000D03*
%TD*%
D13*
%TO.C,D1*%
X21590000Y-5080000D03*
D14*
X19050000Y-5080000D03*
%TD*%
D15*
%TO.C,J1*%
X2540000Y-17780000D03*
X2540000Y-15240000D03*
D16*
X2540000Y-12700000D03*
%TD*%
D13*
%TO.C,RV3*%
X23480000Y-17740000D03*
X23480000Y-15240000D03*
D14*
X23480000Y-12740000D03*
D17*
X30480000Y-10840000D03*
X30480000Y-19640000D03*
%TD*%
D13*
%TO.C,RV1*%
X5700000Y-17740000D03*
X5700000Y-15240000D03*
D14*
X5700000Y-12740000D03*
D17*
X12700000Y-10840000D03*
X12700000Y-19640000D03*
%TD*%
D18*
%TO.C,H2*%
X5080000Y-5080000D03*
%TD*%
D15*
%TO.C,J2*%
X2540000Y-33020000D03*
X2540000Y-30480000D03*
D16*
X2540000Y-27940000D03*
%TD*%
D15*
%TO.C,J6*%
X2540000Y-45720000D03*
X2540000Y-43180000D03*
D16*
X2540000Y-40640000D03*
%TD*%
D13*
%TO.C,RV2*%
X5700000Y-45680000D03*
X5700000Y-43180000D03*
D14*
X5700000Y-40680000D03*
D17*
X12700000Y-47580000D03*
X12700000Y-38780000D03*
%TD*%
D15*
%TO.C,J5*%
X38100000Y-33020000D03*
X38100000Y-30480000D03*
D16*
X38100000Y-27940000D03*
%TD*%
D19*
%TO.C,H1*%
X35560000Y-53340000D03*
%TD*%
D15*
%TO.C,J3*%
X38100000Y-45720000D03*
X38100000Y-43180000D03*
D16*
X38100000Y-40640000D03*
%TD*%
D15*
%TO.C,J4*%
X38100000Y-17780000D03*
X38100000Y-15240000D03*
D16*
X38100000Y-12700000D03*
%TD*%
D19*
%TO.C,H3*%
X5080000Y-53340000D03*
%TD*%
D18*
%TO.C,H4*%
X35560000Y-5080000D03*
%TD*%
D13*
%TO.C,RV4*%
X23480000Y-45680000D03*
X23480000Y-43180000D03*
D14*
X23480000Y-40680000D03*
D17*
X30480000Y-38780000D03*
X30480000Y-47580000D03*
%TD*%
M02*
