%TF.GenerationSoftware,KiCad,Pcbnew,(6.0.9-0)*%
%TF.CreationDate,2024-03-22T17:20:29+01:00*%
%TF.ProjectId,attenuverters,61747465-6e75-4766-9572-746572732e6b,rev?*%
%TF.SameCoordinates,Original*%
%TF.FileFunction,Copper,L2,Inr*%
%TF.FilePolarity,Positive*%
%FSLAX46Y46*%
G04 Gerber Fmt 4.6, Leading zero omitted, Abs format (unit mm)*
G04 Created by KiCad (PCBNEW (6.0.9-0)) date 2024-03-22 17:20:29*
%MOMM*%
%LPD*%
G01*
G04 APERTURE LIST*
%TA.AperFunction,ComponentPad*%
%ADD10R,1.800000X1.800000*%
%TD*%
%TA.AperFunction,ComponentPad*%
%ADD11C,1.800000*%
%TD*%
%TA.AperFunction,ComponentPad*%
%ADD12R,1.700000X1.700000*%
%TD*%
%TA.AperFunction,ComponentPad*%
%ADD13O,1.700000X1.700000*%
%TD*%
%TA.AperFunction,ComponentPad*%
%ADD14O,5.400000X2.700000*%
%TD*%
%TA.AperFunction,ComponentPad*%
%ADD15C,5.500000*%
%TD*%
%TA.AperFunction,ViaPad*%
%ADD16C,0.700000*%
%TD*%
G04 APERTURE END LIST*
D10*
%TO.N,Net-(D2-Pad1)*%
%TO.C,D2*%
X19050000Y-53340000D03*
D11*
%TO.N,Net-(D2-Pad2)*%
X21590000Y-53340000D03*
%TD*%
D10*
%TO.N,Net-(D1-Pad1)*%
%TO.C,D1*%
X19050000Y-5080000D03*
D11*
%TO.N,Net-(D1-Pad2)*%
X21590000Y-5080000D03*
%TD*%
D12*
%TO.N,/In1*%
%TO.C,J1*%
X2540000Y-12700000D03*
D13*
%TO.N,/GND*%
X2540000Y-15240000D03*
%TO.N,/Out1*%
X2540000Y-17780000D03*
%TD*%
D14*
%TO.N,/GND*%
%TO.C,RV3*%
X30480000Y-19640000D03*
X30480000Y-10840000D03*
D10*
%TO.N,Net-(R5-Pad2)*%
X23480000Y-12740000D03*
D11*
%TO.N,Net-(R9-Pad2)*%
X23480000Y-15240000D03*
%TO.N,Net-(R6-Pad1)*%
X23480000Y-17740000D03*
%TD*%
D14*
%TO.N,/GND*%
%TO.C,RV1*%
X12700000Y-19640000D03*
X12700000Y-10840000D03*
D10*
%TO.N,/In1*%
X5700000Y-12740000D03*
D11*
%TO.N,Net-(RV1-Pad2)*%
X5700000Y-15240000D03*
%TO.N,/+4.5V*%
X5700000Y-17740000D03*
%TD*%
D12*
%TO.N,/+9V*%
%TO.C,J2*%
X2540000Y-27940000D03*
D13*
%TO.N,/GND*%
X2540000Y-30480000D03*
%TO.N,/+4.5V*%
X2540000Y-33020000D03*
%TD*%
D12*
%TO.N,/In2*%
%TO.C,J6*%
X2540000Y-40640000D03*
D13*
%TO.N,/GND*%
X2540000Y-43180000D03*
%TO.N,/Out2*%
X2540000Y-45720000D03*
%TD*%
D14*
%TO.N,/GND*%
%TO.C,RV2*%
X12700000Y-38780000D03*
X12700000Y-47580000D03*
D10*
%TO.N,/In2*%
X5700000Y-40680000D03*
D11*
%TO.N,Net-(RV2-Pad2)*%
X5700000Y-43180000D03*
%TO.N,/+4.5V*%
X5700000Y-45680000D03*
%TD*%
D12*
%TO.N,/+9V*%
%TO.C,J5*%
X38100000Y-27940000D03*
D13*
%TO.N,/GND*%
X38100000Y-30480000D03*
%TO.N,/+4.5V*%
X38100000Y-33020000D03*
%TD*%
D15*
%TO.N,/GND*%
%TO.C,H1*%
X35560000Y-53340000D03*
%TD*%
D12*
%TO.N,/In2*%
%TO.C,J3*%
X38100000Y-40640000D03*
D13*
%TO.N,/GND*%
X38100000Y-43180000D03*
%TO.N,/Out2*%
X38100000Y-45720000D03*
%TD*%
D12*
%TO.N,/In1*%
%TO.C,J4*%
X38100000Y-12700000D03*
D13*
%TO.N,/GND*%
X38100000Y-15240000D03*
%TO.N,/Out1*%
X38100000Y-17780000D03*
%TD*%
D15*
%TO.N,/GND*%
%TO.C,H3*%
X5080000Y-53340000D03*
%TD*%
D14*
%TO.N,/GND*%
%TO.C,RV4*%
X30480000Y-47580000D03*
X30480000Y-38780000D03*
D10*
%TO.N,Net-(R7-Pad1)*%
X23480000Y-40680000D03*
D11*
%TO.N,Net-(R11-Pad2)*%
X23480000Y-43180000D03*
%TO.N,Net-(R8-Pad1)*%
X23480000Y-45680000D03*
%TD*%
D16*
%TO.N,Net-(C1-Pad1)*%
X19050000Y-20955000D03*
X23230497Y-20955000D03*
%TO.N,/+9V*%
X13041500Y-26924000D03*
X23368000Y-35941000D03*
X23368000Y-33147000D03*
%TO.N,/GND*%
X34417000Y-29337000D03*
X32131000Y-22352000D03*
X28829000Y-44412500D03*
X26797000Y-25400000D03*
X18034000Y-20955000D03*
X21590000Y-48387000D03*
X13462000Y-30607000D03*
X19685000Y-14097000D03*
X3683000Y-24892000D03*
X24130000Y-20955000D03*
X26543000Y-21336000D03*
X7747000Y-38608000D03*
%TO.N,/+4.5V*%
X12192000Y-25654000D03*
X26543000Y-22479000D03*
X31115000Y-22352000D03*
X14732000Y-30607000D03*
X28321000Y-36703000D03*
X29337000Y-36703000D03*
%TO.N,/Out1*%
X4826000Y-24892000D03*
%TO.N,/In2*%
X7747000Y-37338000D03*
%TO.N,/Out2*%
X28194000Y-45212000D03*
%TD*%
%TA.AperFunction,Conductor*%
%TO.N,/GND*%
G36*
X35530018Y-510000D02*
G01*
X35544851Y-512310D01*
X35544855Y-512310D01*
X35553724Y-513691D01*
X35574183Y-511016D01*
X35596008Y-510072D01*
X35952937Y-525656D01*
X35963886Y-526614D01*
X36348379Y-577233D01*
X36359205Y-579142D01*
X36737822Y-663080D01*
X36748439Y-665925D01*
X36918702Y-719608D01*
X37118302Y-782542D01*
X37128615Y-786295D01*
X37486932Y-934715D01*
X37496876Y-939353D01*
X37840867Y-1118423D01*
X37850387Y-1123919D01*
X38177468Y-1332292D01*
X38186472Y-1338597D01*
X38494138Y-1574678D01*
X38502558Y-1581743D01*
X38788483Y-1843744D01*
X38796256Y-1851517D01*
X39058257Y-2137442D01*
X39065322Y-2145862D01*
X39301403Y-2453528D01*
X39307708Y-2462532D01*
X39516081Y-2789613D01*
X39521576Y-2799132D01*
X39653193Y-3051964D01*
X39700643Y-3143115D01*
X39705285Y-3153068D01*
X39827895Y-3449074D01*
X39853702Y-3511377D01*
X39857458Y-3521698D01*
X39904807Y-3671869D01*
X39974075Y-3891561D01*
X39976920Y-3902178D01*
X40060858Y-4280795D01*
X40062767Y-4291621D01*
X40113386Y-4676114D01*
X40114344Y-4687063D01*
X40125521Y-4943049D01*
X40129603Y-5036552D01*
X40128223Y-5061429D01*
X40126309Y-5073724D01*
X40127473Y-5082626D01*
X40127473Y-5082628D01*
X40130436Y-5105283D01*
X40131500Y-5121621D01*
X40131500Y-53290633D01*
X40130000Y-53310018D01*
X40127690Y-53324851D01*
X40127690Y-53324855D01*
X40126309Y-53333724D01*
X40128984Y-53354183D01*
X40129928Y-53376008D01*
X40115590Y-53704408D01*
X40114344Y-53732936D01*
X40113386Y-53743886D01*
X40062767Y-54128379D01*
X40060858Y-54139205D01*
X39976920Y-54517822D01*
X39974075Y-54528439D01*
X39934607Y-54653616D01*
X39904691Y-54748500D01*
X39857461Y-54898294D01*
X39853702Y-54908623D01*
X39705289Y-55266923D01*
X39700647Y-55276876D01*
X39609591Y-55451794D01*
X39521577Y-55620867D01*
X39516081Y-55630387D01*
X39307708Y-55957468D01*
X39301403Y-55966472D01*
X39065322Y-56274138D01*
X39058257Y-56282558D01*
X38796256Y-56568483D01*
X38788483Y-56576256D01*
X38502558Y-56838257D01*
X38494138Y-56845322D01*
X38186472Y-57081403D01*
X38177468Y-57087708D01*
X37850387Y-57296081D01*
X37840868Y-57301576D01*
X37496876Y-57480647D01*
X37486932Y-57485285D01*
X37128615Y-57633705D01*
X37118302Y-57637458D01*
X36918702Y-57700392D01*
X36748439Y-57754075D01*
X36737822Y-57756920D01*
X36359205Y-57840858D01*
X36348379Y-57842767D01*
X35963886Y-57893386D01*
X35952937Y-57894344D01*
X35603446Y-57909603D01*
X35578571Y-57908223D01*
X35566276Y-57906309D01*
X35557374Y-57907473D01*
X35557372Y-57907473D01*
X35542323Y-57909441D01*
X35534714Y-57910436D01*
X35518379Y-57911500D01*
X5129367Y-57911500D01*
X5109982Y-57910000D01*
X5095149Y-57907690D01*
X5095145Y-57907690D01*
X5086276Y-57906309D01*
X5065817Y-57908984D01*
X5043992Y-57909928D01*
X4687063Y-57894344D01*
X4676114Y-57893386D01*
X4291621Y-57842767D01*
X4280795Y-57840858D01*
X3902178Y-57756920D01*
X3891561Y-57754075D01*
X3721298Y-57700392D01*
X3521698Y-57637458D01*
X3511385Y-57633705D01*
X3153068Y-57485285D01*
X3143124Y-57480647D01*
X2799132Y-57301576D01*
X2789613Y-57296081D01*
X2462532Y-57087708D01*
X2453528Y-57081403D01*
X2145862Y-56845322D01*
X2137442Y-56838257D01*
X1851517Y-56576256D01*
X1843744Y-56568483D01*
X1581743Y-56282558D01*
X1574678Y-56274138D01*
X1338597Y-55966472D01*
X1332292Y-55957468D01*
X1244326Y-55819389D01*
X2965541Y-55819389D01*
X2973678Y-55830395D01*
X3233938Y-56030099D01*
X3239537Y-56033933D01*
X3535261Y-56213736D01*
X3541251Y-56216948D01*
X3854657Y-56363758D01*
X3860961Y-56366305D01*
X4188384Y-56478406D01*
X4194935Y-56480260D01*
X4532539Y-56556342D01*
X4539258Y-56557479D01*
X4883113Y-56596657D01*
X4889903Y-56597060D01*
X5235973Y-56598872D01*
X5242774Y-56598540D01*
X5587020Y-56562966D01*
X5593748Y-56561900D01*
X5932144Y-56489353D01*
X5938693Y-56487574D01*
X6267278Y-56378905D01*
X6273620Y-56376419D01*
X6588523Y-56232910D01*
X6594577Y-56229745D01*
X6892128Y-56053073D01*
X6897809Y-56049270D01*
X7174547Y-55841489D01*
X7179771Y-55837105D01*
X7186238Y-55831053D01*
X7193118Y-55819389D01*
X33445541Y-55819389D01*
X33453678Y-55830395D01*
X33713938Y-56030099D01*
X33719537Y-56033933D01*
X34015261Y-56213736D01*
X34021251Y-56216948D01*
X34334657Y-56363758D01*
X34340961Y-56366305D01*
X34668384Y-56478406D01*
X34674935Y-56480260D01*
X35012539Y-56556342D01*
X35019258Y-56557479D01*
X35363113Y-56596657D01*
X35369903Y-56597060D01*
X35715973Y-56598872D01*
X35722774Y-56598540D01*
X36067020Y-56562966D01*
X36073748Y-56561900D01*
X36412144Y-56489353D01*
X36418693Y-56487574D01*
X36747278Y-56378905D01*
X36753620Y-56376419D01*
X37068523Y-56232910D01*
X37074577Y-56229745D01*
X37372128Y-56053073D01*
X37377809Y-56049270D01*
X37654547Y-55841489D01*
X37659771Y-55837105D01*
X37666238Y-55831053D01*
X37674307Y-55817373D01*
X37674280Y-55816649D01*
X37669136Y-55808346D01*
X35572812Y-53712022D01*
X35558868Y-53704408D01*
X35557035Y-53704539D01*
X35550420Y-53708790D01*
X33452422Y-55806788D01*
X33445541Y-55819389D01*
X7193118Y-55819389D01*
X7194307Y-55817373D01*
X7194280Y-55816649D01*
X7189136Y-55808346D01*
X5092812Y-53712022D01*
X5078868Y-53704408D01*
X5077035Y-53704539D01*
X5070420Y-53708790D01*
X2972422Y-55806788D01*
X2965541Y-55819389D01*
X1244326Y-55819389D01*
X1123919Y-55630387D01*
X1118423Y-55620867D01*
X1030409Y-55451794D01*
X939353Y-55276876D01*
X934711Y-55266923D01*
X786298Y-54908623D01*
X782539Y-54898294D01*
X735310Y-54748500D01*
X705393Y-54653616D01*
X665925Y-54528439D01*
X663080Y-54517822D01*
X579142Y-54139205D01*
X577233Y-54128379D01*
X526614Y-53743886D01*
X525656Y-53732936D01*
X510561Y-53387208D01*
X512188Y-53360805D01*
X512769Y-53357352D01*
X512770Y-53357345D01*
X513576Y-53352552D01*
X513729Y-53340000D01*
X512584Y-53332007D01*
X1817407Y-53332007D01*
X1834917Y-53677659D01*
X1835627Y-53684415D01*
X1890363Y-54026141D01*
X1891802Y-54032796D01*
X1983122Y-54366604D01*
X1985271Y-54373065D01*
X2112110Y-54695067D01*
X2114941Y-54701250D01*
X2275815Y-55007670D01*
X2279298Y-55013513D01*
X2472321Y-55300761D01*
X2476424Y-55306205D01*
X2591911Y-55443351D01*
X2604650Y-55451794D01*
X2615094Y-55445696D01*
X4707978Y-53352812D01*
X4714356Y-53341132D01*
X5444408Y-53341132D01*
X5444539Y-53342965D01*
X5448790Y-53349580D01*
X7543553Y-55444343D01*
X7557150Y-55451768D01*
X7566761Y-55445068D01*
X7662845Y-55333360D01*
X7667003Y-55327960D01*
X7863023Y-55042751D01*
X7866570Y-55036940D01*
X8030634Y-54732238D01*
X8033541Y-54726060D01*
X8163744Y-54405411D01*
X8165958Y-54398981D01*
X8197533Y-54288134D01*
X17641500Y-54288134D01*
X17648255Y-54350316D01*
X17699385Y-54486705D01*
X17786739Y-54603261D01*
X17903295Y-54690615D01*
X18039684Y-54741745D01*
X18101866Y-54748500D01*
X19998134Y-54748500D01*
X20060316Y-54741745D01*
X20196705Y-54690615D01*
X20313261Y-54603261D01*
X20400615Y-54486705D01*
X20425180Y-54421178D01*
X20467822Y-54364414D01*
X20534383Y-54339714D01*
X20603732Y-54354921D01*
X20623647Y-54368464D01*
X20688724Y-54422492D01*
X20779349Y-54497730D01*
X20979322Y-54614584D01*
X21195694Y-54697209D01*
X21200760Y-54698240D01*
X21200761Y-54698240D01*
X21215556Y-54701250D01*
X21422656Y-54743385D01*
X21552089Y-54748131D01*
X21648949Y-54751683D01*
X21648953Y-54751683D01*
X21654113Y-54751872D01*
X21659233Y-54751216D01*
X21659235Y-54751216D01*
X21733166Y-54741745D01*
X21883847Y-54722442D01*
X21888795Y-54720957D01*
X21888802Y-54720956D01*
X22100747Y-54657369D01*
X22105690Y-54655886D01*
X22186236Y-54616427D01*
X22309049Y-54556262D01*
X22309052Y-54556260D01*
X22313684Y-54553991D01*
X22502243Y-54419494D01*
X22666303Y-54256005D01*
X22801458Y-54067917D01*
X22805612Y-54059513D01*
X22901784Y-53864922D01*
X22901785Y-53864920D01*
X22904078Y-53860280D01*
X22971408Y-53638671D01*
X23001640Y-53409041D01*
X23001722Y-53405691D01*
X23003245Y-53343365D01*
X23003245Y-53343361D01*
X23003327Y-53340000D01*
X23002670Y-53332007D01*
X32297407Y-53332007D01*
X32314917Y-53677659D01*
X32315627Y-53684415D01*
X32370363Y-54026141D01*
X32371802Y-54032796D01*
X32463122Y-54366604D01*
X32465271Y-54373065D01*
X32592110Y-54695067D01*
X32594941Y-54701250D01*
X32755815Y-55007670D01*
X32759298Y-55013513D01*
X32952321Y-55300761D01*
X32956424Y-55306205D01*
X33071911Y-55443351D01*
X33084650Y-55451794D01*
X33095094Y-55445696D01*
X35187978Y-53352812D01*
X35194356Y-53341132D01*
X35924408Y-53341132D01*
X35924539Y-53342965D01*
X35928790Y-53349580D01*
X38023553Y-55444343D01*
X38037150Y-55451768D01*
X38046761Y-55445068D01*
X38142845Y-55333360D01*
X38147003Y-55327960D01*
X38343023Y-55042751D01*
X38346570Y-55036940D01*
X38510634Y-54732238D01*
X38513541Y-54726060D01*
X38643744Y-54405411D01*
X38645958Y-54398981D01*
X38740769Y-54066143D01*
X38742276Y-54059513D01*
X38800590Y-53718362D01*
X38801370Y-53711622D01*
X38822595Y-53364576D01*
X38822711Y-53360973D01*
X38822779Y-53341819D01*
X38822687Y-53338194D01*
X38803885Y-52991023D01*
X38803150Y-52984257D01*
X38747224Y-52642738D01*
X38745757Y-52636066D01*
X38653278Y-52302597D01*
X38651104Y-52296134D01*
X38523143Y-51974583D01*
X38520290Y-51968409D01*
X38358343Y-51662545D01*
X38354849Y-51656728D01*
X38160813Y-51370140D01*
X38156699Y-51364721D01*
X38048090Y-51236653D01*
X38035265Y-51228217D01*
X38024940Y-51234270D01*
X35932022Y-53327188D01*
X35924408Y-53341132D01*
X35194356Y-53341132D01*
X35195592Y-53338868D01*
X35195461Y-53337035D01*
X35191210Y-53330420D01*
X33096457Y-51235667D01*
X33082920Y-51228275D01*
X33073219Y-51235063D01*
X32970220Y-51355659D01*
X32966066Y-51361092D01*
X32771056Y-51646965D01*
X32767521Y-51652802D01*
X32604518Y-51958080D01*
X32601642Y-51964249D01*
X32472558Y-52285355D01*
X32470365Y-52291795D01*
X32376714Y-52624968D01*
X32375231Y-52631603D01*
X32318112Y-52972936D01*
X32317353Y-52979708D01*
X32297431Y-53325212D01*
X32297407Y-53332007D01*
X23002670Y-53332007D01*
X22997032Y-53263434D01*
X22984773Y-53114318D01*
X22984772Y-53114312D01*
X22984349Y-53109167D01*
X22950797Y-52975592D01*
X22929184Y-52889544D01*
X22929183Y-52889540D01*
X22927925Y-52884533D01*
X22835570Y-52672131D01*
X22709764Y-52477665D01*
X22553887Y-52306358D01*
X22549836Y-52303159D01*
X22549832Y-52303155D01*
X22376177Y-52166011D01*
X22376172Y-52166008D01*
X22372123Y-52162810D01*
X22367607Y-52160317D01*
X22367604Y-52160315D01*
X22173879Y-52053373D01*
X22173875Y-52053371D01*
X22169355Y-52050876D01*
X22164486Y-52049152D01*
X22164482Y-52049150D01*
X21955903Y-51975288D01*
X21955899Y-51975287D01*
X21951028Y-51973562D01*
X21945935Y-51972655D01*
X21945932Y-51972654D01*
X21728095Y-51933851D01*
X21728089Y-51933850D01*
X21723006Y-51932945D01*
X21650096Y-51932054D01*
X21496581Y-51930179D01*
X21496579Y-51930179D01*
X21491411Y-51930116D01*
X21262464Y-51965150D01*
X21042314Y-52037106D01*
X21037726Y-52039494D01*
X21037722Y-52039496D01*
X20841461Y-52141663D01*
X20836872Y-52144052D01*
X20832739Y-52147155D01*
X20832736Y-52147157D01*
X20760088Y-52201703D01*
X20651655Y-52283117D01*
X20639216Y-52296134D01*
X20634170Y-52301414D01*
X20572646Y-52336844D01*
X20501733Y-52333387D01*
X20443947Y-52292141D01*
X20425094Y-52258592D01*
X20403768Y-52201705D01*
X20403767Y-52201703D01*
X20400615Y-52193295D01*
X20313261Y-52076739D01*
X20196705Y-51989385D01*
X20060316Y-51938255D01*
X19998134Y-51931500D01*
X18101866Y-51931500D01*
X18039684Y-51938255D01*
X17903295Y-51989385D01*
X17786739Y-52076739D01*
X17699385Y-52193295D01*
X17648255Y-52329684D01*
X17641500Y-52391866D01*
X17641500Y-54288134D01*
X8197533Y-54288134D01*
X8260769Y-54066143D01*
X8262276Y-54059513D01*
X8320590Y-53718362D01*
X8321370Y-53711622D01*
X8342595Y-53364576D01*
X8342711Y-53360973D01*
X8342779Y-53341819D01*
X8342687Y-53338194D01*
X8323885Y-52991023D01*
X8323150Y-52984257D01*
X8267224Y-52642738D01*
X8265757Y-52636066D01*
X8173278Y-52302597D01*
X8171104Y-52296134D01*
X8043143Y-51974583D01*
X8040290Y-51968409D01*
X7878343Y-51662545D01*
X7874849Y-51656728D01*
X7680813Y-51370140D01*
X7676699Y-51364721D01*
X7568090Y-51236653D01*
X7555265Y-51228217D01*
X7544940Y-51234270D01*
X5452022Y-53327188D01*
X5444408Y-53341132D01*
X4714356Y-53341132D01*
X4715592Y-53338868D01*
X4715461Y-53337035D01*
X4711210Y-53330420D01*
X2616457Y-51235667D01*
X2602920Y-51228275D01*
X2593219Y-51235063D01*
X2490220Y-51355659D01*
X2486066Y-51361092D01*
X2291056Y-51646965D01*
X2287521Y-51652802D01*
X2124518Y-51958080D01*
X2121642Y-51964249D01*
X1992558Y-52285355D01*
X1990365Y-52291795D01*
X1896714Y-52624968D01*
X1895231Y-52631603D01*
X1838112Y-52972936D01*
X1837353Y-52979708D01*
X1817431Y-53325212D01*
X1817407Y-53332007D01*
X512584Y-53332007D01*
X509773Y-53312376D01*
X508500Y-53294514D01*
X508500Y-50862234D01*
X2965322Y-50862234D01*
X2965357Y-50863075D01*
X2970410Y-50871200D01*
X5067188Y-52967978D01*
X5081132Y-52975592D01*
X5082965Y-52975461D01*
X5089580Y-52971210D01*
X7187431Y-50873359D01*
X7193506Y-50862234D01*
X33445322Y-50862234D01*
X33445357Y-50863075D01*
X33450410Y-50871200D01*
X35547188Y-52967978D01*
X35561132Y-52975592D01*
X35562965Y-52975461D01*
X35569580Y-52971210D01*
X37667431Y-50873359D01*
X37675045Y-50859415D01*
X37674977Y-50858460D01*
X37671024Y-50852482D01*
X37396667Y-50643479D01*
X37391041Y-50639655D01*
X37094706Y-50460894D01*
X37088694Y-50457697D01*
X36774774Y-50311980D01*
X36768474Y-50309460D01*
X36440664Y-50198503D01*
X36434086Y-50196667D01*
X36096237Y-50121768D01*
X36089499Y-50120652D01*
X35745515Y-50082675D01*
X35738735Y-50082296D01*
X35392636Y-50081693D01*
X35385863Y-50082048D01*
X35041726Y-50118825D01*
X35035016Y-50119912D01*
X34696883Y-50193637D01*
X34690308Y-50195448D01*
X34362117Y-50305259D01*
X34355795Y-50307762D01*
X34041388Y-50452373D01*
X34035345Y-50455559D01*
X33738402Y-50633276D01*
X33732756Y-50637085D01*
X33456726Y-50845844D01*
X33453140Y-50848875D01*
X33445322Y-50862234D01*
X7193506Y-50862234D01*
X7195045Y-50859415D01*
X7194977Y-50858460D01*
X7191024Y-50852482D01*
X6916667Y-50643479D01*
X6911041Y-50639655D01*
X6614706Y-50460894D01*
X6608694Y-50457697D01*
X6294774Y-50311980D01*
X6288474Y-50309460D01*
X5960664Y-50198503D01*
X5954086Y-50196667D01*
X5616237Y-50121768D01*
X5609499Y-50120652D01*
X5265515Y-50082675D01*
X5258735Y-50082296D01*
X4912636Y-50081693D01*
X4905863Y-50082048D01*
X4561726Y-50118825D01*
X4555016Y-50119912D01*
X4216883Y-50193637D01*
X4210308Y-50195448D01*
X3882117Y-50305259D01*
X3875795Y-50307762D01*
X3561388Y-50452373D01*
X3555345Y-50455559D01*
X3258402Y-50633276D01*
X3252756Y-50637085D01*
X2976726Y-50845844D01*
X2973140Y-50848875D01*
X2965322Y-50862234D01*
X508500Y-50862234D01*
X508500Y-47850512D01*
X9509286Y-47850512D01*
X9512685Y-47886133D01*
X9514205Y-47895125D01*
X9576122Y-48148158D01*
X9578922Y-48156827D01*
X9676722Y-48398282D01*
X9680744Y-48406455D01*
X9812368Y-48631253D01*
X9817531Y-48638765D01*
X9980231Y-48842213D01*
X9986420Y-48848896D01*
X10176794Y-49026733D01*
X10183871Y-49032443D01*
X10397918Y-49180934D01*
X10405759Y-49185571D01*
X10638997Y-49301604D01*
X10647422Y-49305060D01*
X10894974Y-49386212D01*
X10903799Y-49388412D01*
X11161189Y-49433103D01*
X11168807Y-49433950D01*
X11248592Y-49437922D01*
X11251733Y-49438000D01*
X12427885Y-49438000D01*
X12443124Y-49433525D01*
X12444329Y-49432135D01*
X12446000Y-49424452D01*
X12446000Y-49419885D01*
X12954000Y-49419885D01*
X12958475Y-49435124D01*
X12959865Y-49436329D01*
X12967548Y-49438000D01*
X14116206Y-49438000D01*
X14120777Y-49437835D01*
X14314380Y-49423787D01*
X14323389Y-49422473D01*
X14577769Y-49366311D01*
X14586499Y-49363708D01*
X14830107Y-49271414D01*
X14838368Y-49267579D01*
X15066101Y-49141085D01*
X15073726Y-49136095D01*
X15280809Y-48978054D01*
X15287636Y-48972014D01*
X15469735Y-48785736D01*
X15475618Y-48778774D01*
X15628922Y-48568157D01*
X15633733Y-48560427D01*
X15755031Y-48329878D01*
X15758678Y-48321528D01*
X15845419Y-48075901D01*
X15847825Y-48067106D01*
X15890267Y-47851775D01*
X15890152Y-47850512D01*
X27289286Y-47850512D01*
X27292685Y-47886133D01*
X27294205Y-47895125D01*
X27356122Y-48148158D01*
X27358922Y-48156827D01*
X27456722Y-48398282D01*
X27460744Y-48406455D01*
X27592368Y-48631253D01*
X27597531Y-48638765D01*
X27760231Y-48842213D01*
X27766420Y-48848896D01*
X27956794Y-49026733D01*
X27963871Y-49032443D01*
X28177918Y-49180934D01*
X28185759Y-49185571D01*
X28418997Y-49301604D01*
X28427422Y-49305060D01*
X28674974Y-49386212D01*
X28683799Y-49388412D01*
X28941189Y-49433103D01*
X28948807Y-49433950D01*
X29028592Y-49437922D01*
X29031733Y-49438000D01*
X30207885Y-49438000D01*
X30223124Y-49433525D01*
X30224329Y-49432135D01*
X30226000Y-49424452D01*
X30226000Y-49419885D01*
X30734000Y-49419885D01*
X30738475Y-49435124D01*
X30739865Y-49436329D01*
X30747548Y-49438000D01*
X31896206Y-49438000D01*
X31900777Y-49437835D01*
X32094380Y-49423787D01*
X32103389Y-49422473D01*
X32357769Y-49366311D01*
X32366499Y-49363708D01*
X32610107Y-49271414D01*
X32618368Y-49267579D01*
X32846101Y-49141085D01*
X32853726Y-49136095D01*
X33060809Y-48978054D01*
X33067636Y-48972014D01*
X33249735Y-48785736D01*
X33255618Y-48778774D01*
X33408922Y-48568157D01*
X33413733Y-48560427D01*
X33535031Y-48329878D01*
X33538678Y-48321528D01*
X33625419Y-48075901D01*
X33627825Y-48067106D01*
X33670267Y-47851775D01*
X33669088Y-47838863D01*
X33653985Y-47834000D01*
X30752115Y-47834000D01*
X30736876Y-47838475D01*
X30735671Y-47839865D01*
X30734000Y-47847548D01*
X30734000Y-49419885D01*
X30226000Y-49419885D01*
X30226000Y-47852115D01*
X30221525Y-47836876D01*
X30220135Y-47835671D01*
X30212452Y-47834000D01*
X27305826Y-47834000D01*
X27291349Y-47838251D01*
X27289286Y-47850512D01*
X15890152Y-47850512D01*
X15889088Y-47838863D01*
X15873985Y-47834000D01*
X12972115Y-47834000D01*
X12956876Y-47838475D01*
X12955671Y-47839865D01*
X12954000Y-47847548D01*
X12954000Y-49419885D01*
X12446000Y-49419885D01*
X12446000Y-47852115D01*
X12441525Y-47836876D01*
X12440135Y-47835671D01*
X12432452Y-47834000D01*
X9525826Y-47834000D01*
X9511349Y-47838251D01*
X9509286Y-47850512D01*
X508500Y-47850512D01*
X508500Y-47308225D01*
X9509733Y-47308225D01*
X9510912Y-47321137D01*
X9526015Y-47326000D01*
X12427885Y-47326000D01*
X12443124Y-47321525D01*
X12444329Y-47320135D01*
X12446000Y-47312452D01*
X12446000Y-47307885D01*
X12954000Y-47307885D01*
X12958475Y-47323124D01*
X12959865Y-47324329D01*
X12967548Y-47326000D01*
X15874174Y-47326000D01*
X15888651Y-47321749D01*
X15890714Y-47309488D01*
X15890593Y-47308225D01*
X27289733Y-47308225D01*
X27290912Y-47321137D01*
X27306015Y-47326000D01*
X30207885Y-47326000D01*
X30223124Y-47321525D01*
X30224329Y-47320135D01*
X30226000Y-47312452D01*
X30226000Y-47307885D01*
X30734000Y-47307885D01*
X30738475Y-47323124D01*
X30739865Y-47324329D01*
X30747548Y-47326000D01*
X33654174Y-47326000D01*
X33668651Y-47321749D01*
X33670714Y-47309488D01*
X33667315Y-47273867D01*
X33665795Y-47264875D01*
X33603878Y-47011842D01*
X33601078Y-47003173D01*
X33503278Y-46761718D01*
X33499256Y-46753545D01*
X33367632Y-46528747D01*
X33362469Y-46521235D01*
X33199769Y-46317787D01*
X33193580Y-46311104D01*
X33003206Y-46133267D01*
X32996129Y-46127557D01*
X32782082Y-45979066D01*
X32774241Y-45974429D01*
X32541003Y-45858396D01*
X32532578Y-45854940D01*
X32285026Y-45773788D01*
X32276201Y-45771588D01*
X32018811Y-45726897D01*
X32011193Y-45726050D01*
X31931408Y-45722078D01*
X31928267Y-45722000D01*
X30752115Y-45722000D01*
X30736876Y-45726475D01*
X30735671Y-45727865D01*
X30734000Y-45735548D01*
X30734000Y-47307885D01*
X30226000Y-47307885D01*
X30226000Y-45740115D01*
X30221525Y-45724876D01*
X30220135Y-45723671D01*
X30212452Y-45722000D01*
X29104395Y-45722000D01*
X29036274Y-45701998D01*
X29023014Y-45686695D01*
X36737251Y-45686695D01*
X36737548Y-45691848D01*
X36737548Y-45691851D01*
X36748892Y-45888586D01*
X36750110Y-45909715D01*
X36751247Y-45914761D01*
X36751248Y-45914767D01*
X36764694Y-45974429D01*
X36799222Y-46127639D01*
X36837461Y-46221811D01*
X36876433Y-46317787D01*
X36883266Y-46334616D01*
X36885965Y-46339020D01*
X36996025Y-46518622D01*
X36999987Y-46525088D01*
X37146250Y-46693938D01*
X37318126Y-46836632D01*
X37511000Y-46949338D01*
X37719692Y-47029030D01*
X37724760Y-47030061D01*
X37724763Y-47030062D01*
X37832017Y-47051883D01*
X37938597Y-47073567D01*
X37943772Y-47073757D01*
X37943774Y-47073757D01*
X38156673Y-47081564D01*
X38156677Y-47081564D01*
X38161837Y-47081753D01*
X38166957Y-47081097D01*
X38166959Y-47081097D01*
X38378288Y-47054025D01*
X38378289Y-47054025D01*
X38383416Y-47053368D01*
X38433840Y-47038240D01*
X38592429Y-46990661D01*
X38592434Y-46990659D01*
X38597384Y-46989174D01*
X38797994Y-46890896D01*
X38979860Y-46761173D01*
X39138096Y-46603489D01*
X39146465Y-46591843D01*
X39265435Y-46426277D01*
X39268453Y-46422077D01*
X39275452Y-46407917D01*
X39365136Y-46226453D01*
X39365137Y-46226451D01*
X39367430Y-46221811D01*
X39422220Y-46041477D01*
X39430865Y-46013023D01*
X39430865Y-46013021D01*
X39432370Y-46008069D01*
X39461529Y-45786590D01*
X39461896Y-45771588D01*
X39463074Y-45723365D01*
X39463074Y-45723361D01*
X39463156Y-45720000D01*
X39444852Y-45497361D01*
X39390431Y-45280702D01*
X39301354Y-45075840D01*
X39180014Y-44888277D01*
X39029670Y-44723051D01*
X39025619Y-44719852D01*
X39025615Y-44719848D01*
X38858414Y-44587800D01*
X38858410Y-44587798D01*
X38854359Y-44584598D01*
X38837710Y-44575407D01*
X38812569Y-44561529D01*
X38762598Y-44511097D01*
X38747826Y-44441654D01*
X38772942Y-44375248D01*
X38800294Y-44348641D01*
X38975328Y-44223792D01*
X38983200Y-44217139D01*
X39134052Y-44066812D01*
X39140730Y-44058965D01*
X39265003Y-43886020D01*
X39270313Y-43877183D01*
X39364670Y-43686267D01*
X39368469Y-43676672D01*
X39430377Y-43472910D01*
X39432555Y-43462837D01*
X39433986Y-43451962D01*
X39431775Y-43437778D01*
X39418617Y-43434000D01*
X36783225Y-43434000D01*
X36769694Y-43437973D01*
X36768257Y-43447966D01*
X36798565Y-43582446D01*
X36801645Y-43592275D01*
X36881770Y-43789603D01*
X36886413Y-43798794D01*
X36997694Y-43980388D01*
X37003777Y-43988699D01*
X37143213Y-44149667D01*
X37150580Y-44156883D01*
X37314434Y-44292916D01*
X37322881Y-44298831D01*
X37391969Y-44339203D01*
X37440693Y-44390842D01*
X37453764Y-44460625D01*
X37427033Y-44526396D01*
X37386584Y-44559752D01*
X37373607Y-44566507D01*
X37369474Y-44569610D01*
X37369471Y-44569612D01*
X37199100Y-44697530D01*
X37194965Y-44700635D01*
X37040629Y-44862138D01*
X36914743Y-45046680D01*
X36899003Y-45080590D01*
X36829861Y-45229544D01*
X36820688Y-45249305D01*
X36760989Y-45464570D01*
X36737251Y-45686695D01*
X29023014Y-45686695D01*
X28989781Y-45648342D01*
X28979677Y-45578068D01*
X28984562Y-45557064D01*
X29005592Y-45492342D01*
X29028999Y-45420301D01*
X29036325Y-45397754D01*
X29036325Y-45397753D01*
X29038365Y-45391475D01*
X29053802Y-45244610D01*
X29056539Y-45218565D01*
X29057229Y-45212000D01*
X29038365Y-45032525D01*
X29020527Y-44977623D01*
X28992907Y-44892617D01*
X28982599Y-44860893D01*
X28892367Y-44704607D01*
X28839920Y-44646358D01*
X28776035Y-44575407D01*
X28776034Y-44575406D01*
X28771613Y-44570496D01*
X28720056Y-44533037D01*
X28630957Y-44468303D01*
X28630956Y-44468302D01*
X28625615Y-44464422D01*
X28619587Y-44461738D01*
X28619585Y-44461737D01*
X28466783Y-44393705D01*
X28466781Y-44393705D01*
X28460752Y-44391020D01*
X28372492Y-44372260D01*
X28290689Y-44354872D01*
X28290685Y-44354872D01*
X28284232Y-44353500D01*
X28103768Y-44353500D01*
X28097315Y-44354872D01*
X28097311Y-44354872D01*
X28015508Y-44372260D01*
X27927248Y-44391020D01*
X27921219Y-44393704D01*
X27921217Y-44393705D01*
X27768416Y-44461737D01*
X27768414Y-44461738D01*
X27762386Y-44464422D01*
X27757045Y-44468302D01*
X27757044Y-44468303D01*
X27621731Y-44566613D01*
X27621729Y-44566615D01*
X27616387Y-44570496D01*
X27611966Y-44575406D01*
X27611965Y-44575407D01*
X27548081Y-44646358D01*
X27495633Y-44704607D01*
X27405401Y-44860893D01*
X27395093Y-44892617D01*
X27367474Y-44977623D01*
X27349635Y-45032525D01*
X27330771Y-45212000D01*
X27331461Y-45218565D01*
X27334199Y-45244610D01*
X27349635Y-45391475D01*
X27351675Y-45397753D01*
X27351675Y-45397754D01*
X27359001Y-45420301D01*
X27405401Y-45563107D01*
X27495633Y-45719393D01*
X27500051Y-45724300D01*
X27500052Y-45724301D01*
X27544610Y-45773788D01*
X27616387Y-45853504D01*
X27621729Y-45857385D01*
X27621731Y-45857387D01*
X27700708Y-45914767D01*
X27762385Y-45959578D01*
X27768418Y-45962264D01*
X27768423Y-45962267D01*
X27843057Y-45995497D01*
X27897153Y-46041477D01*
X27917802Y-46109404D01*
X27898449Y-46177712D01*
X27881909Y-46198682D01*
X27710259Y-46374272D01*
X27704382Y-46381226D01*
X27551078Y-46591843D01*
X27546267Y-46599573D01*
X27424969Y-46830122D01*
X27421322Y-46838472D01*
X27334581Y-47084099D01*
X27332175Y-47092894D01*
X27289733Y-47308225D01*
X15890593Y-47308225D01*
X15887315Y-47273867D01*
X15885795Y-47264875D01*
X15823878Y-47011842D01*
X15821078Y-47003173D01*
X15723278Y-46761718D01*
X15719256Y-46753545D01*
X15587632Y-46528747D01*
X15582469Y-46521235D01*
X15419769Y-46317787D01*
X15413580Y-46311104D01*
X15223206Y-46133267D01*
X15216129Y-46127557D01*
X15002082Y-45979066D01*
X14994241Y-45974429D01*
X14761003Y-45858396D01*
X14752578Y-45854940D01*
X14505026Y-45773788D01*
X14496201Y-45771588D01*
X14238811Y-45726897D01*
X14231193Y-45726050D01*
X14151408Y-45722078D01*
X14148267Y-45722000D01*
X12972115Y-45722000D01*
X12956876Y-45726475D01*
X12955671Y-45727865D01*
X12954000Y-45735548D01*
X12954000Y-47307885D01*
X12446000Y-47307885D01*
X12446000Y-45740115D01*
X12441525Y-45724876D01*
X12440135Y-45723671D01*
X12432452Y-45722000D01*
X11283794Y-45722000D01*
X11279223Y-45722165D01*
X11085620Y-45736213D01*
X11076611Y-45737527D01*
X10822231Y-45793689D01*
X10813501Y-45796292D01*
X10569893Y-45888586D01*
X10561632Y-45892421D01*
X10333899Y-46018915D01*
X10326274Y-46023905D01*
X10119191Y-46181946D01*
X10112364Y-46187986D01*
X9930265Y-46374264D01*
X9924382Y-46381226D01*
X9771078Y-46591843D01*
X9766267Y-46599573D01*
X9644969Y-46830122D01*
X9641322Y-46838472D01*
X9554581Y-47084099D01*
X9552175Y-47092894D01*
X9509733Y-47308225D01*
X508500Y-47308225D01*
X508500Y-45686695D01*
X1177251Y-45686695D01*
X1177548Y-45691848D01*
X1177548Y-45691851D01*
X1188892Y-45888586D01*
X1190110Y-45909715D01*
X1191247Y-45914761D01*
X1191248Y-45914767D01*
X1204694Y-45974429D01*
X1239222Y-46127639D01*
X1277461Y-46221811D01*
X1316433Y-46317787D01*
X1323266Y-46334616D01*
X1325965Y-46339020D01*
X1436025Y-46518622D01*
X1439987Y-46525088D01*
X1586250Y-46693938D01*
X1758126Y-46836632D01*
X1951000Y-46949338D01*
X2159692Y-47029030D01*
X2164760Y-47030061D01*
X2164763Y-47030062D01*
X2272017Y-47051883D01*
X2378597Y-47073567D01*
X2383772Y-47073757D01*
X2383774Y-47073757D01*
X2596673Y-47081564D01*
X2596677Y-47081564D01*
X2601837Y-47081753D01*
X2606957Y-47081097D01*
X2606959Y-47081097D01*
X2818288Y-47054025D01*
X2818289Y-47054025D01*
X2823416Y-47053368D01*
X2873840Y-47038240D01*
X3032429Y-46990661D01*
X3032434Y-46990659D01*
X3037384Y-46989174D01*
X3237994Y-46890896D01*
X3419860Y-46761173D01*
X3578096Y-46603489D01*
X3586465Y-46591843D01*
X3705435Y-46426277D01*
X3708453Y-46422077D01*
X3715452Y-46407917D01*
X3805136Y-46226453D01*
X3805137Y-46226451D01*
X3807430Y-46221811D01*
X3862220Y-46041477D01*
X3870865Y-46013023D01*
X3870865Y-46013021D01*
X3872370Y-46008069D01*
X3901529Y-45786590D01*
X3901896Y-45771588D01*
X3903074Y-45723365D01*
X3903074Y-45723361D01*
X3903156Y-45720000D01*
X3897029Y-45645469D01*
X4287095Y-45645469D01*
X4287392Y-45650622D01*
X4287392Y-45650625D01*
X4295232Y-45786590D01*
X4300427Y-45876697D01*
X4301564Y-45881743D01*
X4301565Y-45881749D01*
X4327200Y-45995497D01*
X4351346Y-46102642D01*
X4353288Y-46107424D01*
X4353289Y-46107428D01*
X4436540Y-46312450D01*
X4438484Y-46317237D01*
X4559501Y-46514719D01*
X4711147Y-46689784D01*
X4800747Y-46764171D01*
X4884046Y-46833327D01*
X4889349Y-46837730D01*
X5089322Y-46954584D01*
X5305694Y-47037209D01*
X5310760Y-47038240D01*
X5310761Y-47038240D01*
X5363846Y-47049040D01*
X5532656Y-47083385D01*
X5663324Y-47088176D01*
X5758949Y-47091683D01*
X5758953Y-47091683D01*
X5764113Y-47091872D01*
X5769233Y-47091216D01*
X5769235Y-47091216D01*
X5848224Y-47081097D01*
X5993847Y-47062442D01*
X5998795Y-47060957D01*
X5998802Y-47060956D01*
X6210747Y-46997369D01*
X6215690Y-46995886D01*
X6296236Y-46956427D01*
X6419049Y-46896262D01*
X6419052Y-46896260D01*
X6423684Y-46893991D01*
X6612243Y-46759494D01*
X6776303Y-46596005D01*
X6911458Y-46407917D01*
X6924650Y-46381226D01*
X7011784Y-46204922D01*
X7011785Y-46204920D01*
X7014078Y-46200280D01*
X7081408Y-45978671D01*
X7111640Y-45749041D01*
X7111921Y-45737527D01*
X7113245Y-45683365D01*
X7113245Y-45683361D01*
X7113327Y-45680000D01*
X7110488Y-45645469D01*
X22067095Y-45645469D01*
X22067392Y-45650622D01*
X22067392Y-45650625D01*
X22075232Y-45786590D01*
X22080427Y-45876697D01*
X22081564Y-45881743D01*
X22081565Y-45881749D01*
X22107200Y-45995497D01*
X22131346Y-46102642D01*
X22133288Y-46107424D01*
X22133289Y-46107428D01*
X22216540Y-46312450D01*
X22218484Y-46317237D01*
X22339501Y-46514719D01*
X22491147Y-46689784D01*
X22580747Y-46764171D01*
X22664046Y-46833327D01*
X22669349Y-46837730D01*
X22869322Y-46954584D01*
X23085694Y-47037209D01*
X23090760Y-47038240D01*
X23090761Y-47038240D01*
X23143846Y-47049040D01*
X23312656Y-47083385D01*
X23443324Y-47088176D01*
X23538949Y-47091683D01*
X23538953Y-47091683D01*
X23544113Y-47091872D01*
X23549233Y-47091216D01*
X23549235Y-47091216D01*
X23628224Y-47081097D01*
X23773847Y-47062442D01*
X23778795Y-47060957D01*
X23778802Y-47060956D01*
X23990747Y-46997369D01*
X23995690Y-46995886D01*
X24076236Y-46956427D01*
X24199049Y-46896262D01*
X24199052Y-46896260D01*
X24203684Y-46893991D01*
X24392243Y-46759494D01*
X24556303Y-46596005D01*
X24691458Y-46407917D01*
X24704650Y-46381226D01*
X24791784Y-46204922D01*
X24791785Y-46204920D01*
X24794078Y-46200280D01*
X24861408Y-45978671D01*
X24891640Y-45749041D01*
X24891921Y-45737527D01*
X24893245Y-45683365D01*
X24893245Y-45683361D01*
X24893327Y-45680000D01*
X24878736Y-45502522D01*
X24874773Y-45454318D01*
X24874772Y-45454312D01*
X24874349Y-45449167D01*
X24825401Y-45254297D01*
X24819184Y-45229544D01*
X24819183Y-45229540D01*
X24817925Y-45224533D01*
X24815330Y-45218565D01*
X24727630Y-45016868D01*
X24727628Y-45016865D01*
X24725570Y-45012131D01*
X24599764Y-44817665D01*
X24443887Y-44646358D01*
X24439836Y-44643159D01*
X24439832Y-44643155D01*
X24293690Y-44527740D01*
X24252627Y-44469823D01*
X24249395Y-44398900D01*
X24285020Y-44337489D01*
X24298613Y-44326279D01*
X24337094Y-44298831D01*
X24392243Y-44259494D01*
X24556303Y-44096005D01*
X24691458Y-43907917D01*
X24738641Y-43812450D01*
X24791784Y-43704922D01*
X24791785Y-43704920D01*
X24794078Y-43700280D01*
X24861408Y-43478671D01*
X24891640Y-43249041D01*
X24893327Y-43180000D01*
X24887032Y-43103434D01*
X24874773Y-42954318D01*
X24874772Y-42954312D01*
X24874349Y-42949167D01*
X24823286Y-42745875D01*
X24819184Y-42729544D01*
X24819183Y-42729540D01*
X24817925Y-42724533D01*
X24815866Y-42719797D01*
X24727630Y-42516868D01*
X24727628Y-42516865D01*
X24725570Y-42512131D01*
X24599764Y-42317665D01*
X24536986Y-42248672D01*
X24505936Y-42184829D01*
X24514331Y-42114330D01*
X24559507Y-42059562D01*
X24585952Y-42045893D01*
X24618295Y-42033768D01*
X24618296Y-42033767D01*
X24626705Y-42030615D01*
X24743261Y-41943261D01*
X24830615Y-41826705D01*
X24881745Y-41690316D01*
X24888500Y-41628134D01*
X24888500Y-41538134D01*
X36741500Y-41538134D01*
X36748255Y-41600316D01*
X36799385Y-41736705D01*
X36886739Y-41853261D01*
X37003295Y-41940615D01*
X37011704Y-41943767D01*
X37011705Y-41943768D01*
X37120960Y-41984726D01*
X37177725Y-42027367D01*
X37202425Y-42093929D01*
X37187218Y-42163278D01*
X37167825Y-42189759D01*
X37044590Y-42318717D01*
X37038104Y-42326727D01*
X36918098Y-42502649D01*
X36913000Y-42511623D01*
X36823338Y-42704783D01*
X36819775Y-42714470D01*
X36764389Y-42914183D01*
X36765912Y-42922607D01*
X36778292Y-42926000D01*
X39418344Y-42926000D01*
X39431875Y-42922027D01*
X39433180Y-42912947D01*
X39391214Y-42745875D01*
X39387894Y-42736124D01*
X39302972Y-42540814D01*
X39298105Y-42531739D01*
X39182426Y-42352926D01*
X39176136Y-42344757D01*
X39032293Y-42186677D01*
X39001241Y-42122831D01*
X39009635Y-42052333D01*
X39054812Y-41997564D01*
X39081256Y-41983895D01*
X39188297Y-41943767D01*
X39196705Y-41940615D01*
X39313261Y-41853261D01*
X39400615Y-41736705D01*
X39451745Y-41600316D01*
X39458500Y-41538134D01*
X39458500Y-39741866D01*
X39451745Y-39679684D01*
X39400615Y-39543295D01*
X39313261Y-39426739D01*
X39196705Y-39339385D01*
X39060316Y-39288255D01*
X38998134Y-39281500D01*
X37201866Y-39281500D01*
X37139684Y-39288255D01*
X37003295Y-39339385D01*
X36886739Y-39426739D01*
X36799385Y-39543295D01*
X36748255Y-39679684D01*
X36741500Y-39741866D01*
X36741500Y-41538134D01*
X24888500Y-41538134D01*
X24888500Y-39731866D01*
X24881745Y-39669684D01*
X24830615Y-39533295D01*
X24743261Y-39416739D01*
X24626705Y-39329385D01*
X24490316Y-39278255D01*
X24428134Y-39271500D01*
X22531866Y-39271500D01*
X22469684Y-39278255D01*
X22333295Y-39329385D01*
X22216739Y-39416739D01*
X22129385Y-39533295D01*
X22078255Y-39669684D01*
X22071500Y-39731866D01*
X22071500Y-41628134D01*
X22078255Y-41690316D01*
X22129385Y-41826705D01*
X22216739Y-41943261D01*
X22333295Y-42030615D01*
X22341703Y-42033767D01*
X22373022Y-42045508D01*
X22429786Y-42088150D01*
X22454486Y-42154711D01*
X22439279Y-42224060D01*
X22419886Y-42250540D01*
X22381639Y-42290564D01*
X22251119Y-42481899D01*
X22153602Y-42691981D01*
X22091707Y-42915169D01*
X22067095Y-43145469D01*
X22067392Y-43150622D01*
X22067392Y-43150625D01*
X22073067Y-43249041D01*
X22080427Y-43376697D01*
X22081564Y-43381743D01*
X22081565Y-43381749D01*
X22113741Y-43524523D01*
X22131346Y-43602642D01*
X22133288Y-43607424D01*
X22133289Y-43607428D01*
X22207263Y-43789603D01*
X22218484Y-43817237D01*
X22339501Y-44014719D01*
X22491147Y-44189784D01*
X22622495Y-44298831D01*
X22666462Y-44335333D01*
X22706097Y-44394235D01*
X22707595Y-44465216D01*
X22670481Y-44525739D01*
X22661630Y-44533037D01*
X22588693Y-44587800D01*
X22541655Y-44623117D01*
X22381639Y-44790564D01*
X22378725Y-44794836D01*
X22378724Y-44794837D01*
X22363152Y-44817665D01*
X22251119Y-44981899D01*
X22153602Y-45191981D01*
X22091707Y-45415169D01*
X22067095Y-45645469D01*
X7110488Y-45645469D01*
X7098736Y-45502522D01*
X7094773Y-45454318D01*
X7094772Y-45454312D01*
X7094349Y-45449167D01*
X7045401Y-45254297D01*
X7039184Y-45229544D01*
X7039183Y-45229540D01*
X7037925Y-45224533D01*
X7035330Y-45218565D01*
X6947630Y-45016868D01*
X6947628Y-45016865D01*
X6945570Y-45012131D01*
X6819764Y-44817665D01*
X6663887Y-44646358D01*
X6659836Y-44643159D01*
X6659832Y-44643155D01*
X6513690Y-44527740D01*
X6472627Y-44469823D01*
X6469395Y-44398900D01*
X6505020Y-44337489D01*
X6518613Y-44326279D01*
X6557094Y-44298831D01*
X6612243Y-44259494D01*
X6776303Y-44096005D01*
X6911458Y-43907917D01*
X6958641Y-43812450D01*
X7011784Y-43704922D01*
X7011785Y-43704920D01*
X7014078Y-43700280D01*
X7081408Y-43478671D01*
X7111640Y-43249041D01*
X7113327Y-43180000D01*
X7107032Y-43103434D01*
X7094773Y-42954318D01*
X7094772Y-42954312D01*
X7094349Y-42949167D01*
X7043286Y-42745875D01*
X7039184Y-42729544D01*
X7039183Y-42729540D01*
X7037925Y-42724533D01*
X7035866Y-42719797D01*
X6947630Y-42516868D01*
X6947628Y-42516865D01*
X6945570Y-42512131D01*
X6819764Y-42317665D01*
X6756986Y-42248672D01*
X6725936Y-42184829D01*
X6734331Y-42114330D01*
X6779507Y-42059562D01*
X6805952Y-42045893D01*
X6838295Y-42033768D01*
X6838296Y-42033767D01*
X6846705Y-42030615D01*
X6963261Y-41943261D01*
X7050615Y-41826705D01*
X7101745Y-41690316D01*
X7108500Y-41628134D01*
X7108500Y-39731866D01*
X7101745Y-39669684D01*
X7050615Y-39533295D01*
X6963261Y-39416739D01*
X6846705Y-39329385D01*
X6710316Y-39278255D01*
X6648134Y-39271500D01*
X4751866Y-39271500D01*
X4689684Y-39278255D01*
X4553295Y-39329385D01*
X4436739Y-39416739D01*
X4349385Y-39533295D01*
X4298255Y-39669684D01*
X4291500Y-39731866D01*
X4291500Y-41628134D01*
X4298255Y-41690316D01*
X4349385Y-41826705D01*
X4436739Y-41943261D01*
X4553295Y-42030615D01*
X4561703Y-42033767D01*
X4593022Y-42045508D01*
X4649786Y-42088150D01*
X4674486Y-42154711D01*
X4659279Y-42224060D01*
X4639886Y-42250540D01*
X4601639Y-42290564D01*
X4471119Y-42481899D01*
X4373602Y-42691981D01*
X4311707Y-42915169D01*
X4287095Y-43145469D01*
X4287392Y-43150622D01*
X4287392Y-43150625D01*
X4293067Y-43249041D01*
X4300427Y-43376697D01*
X4301564Y-43381743D01*
X4301565Y-43381749D01*
X4333741Y-43524523D01*
X4351346Y-43602642D01*
X4353288Y-43607424D01*
X4353289Y-43607428D01*
X4427263Y-43789603D01*
X4438484Y-43817237D01*
X4559501Y-44014719D01*
X4711147Y-44189784D01*
X4842495Y-44298831D01*
X4886462Y-44335333D01*
X4926097Y-44394235D01*
X4927595Y-44465216D01*
X4890481Y-44525739D01*
X4881630Y-44533037D01*
X4808693Y-44587800D01*
X4761655Y-44623117D01*
X4601639Y-44790564D01*
X4598725Y-44794836D01*
X4598724Y-44794837D01*
X4583152Y-44817665D01*
X4471119Y-44981899D01*
X4373602Y-45191981D01*
X4311707Y-45415169D01*
X4287095Y-45645469D01*
X3897029Y-45645469D01*
X3884852Y-45497361D01*
X3830431Y-45280702D01*
X3741354Y-45075840D01*
X3620014Y-44888277D01*
X3469670Y-44723051D01*
X3465619Y-44719852D01*
X3465615Y-44719848D01*
X3298414Y-44587800D01*
X3298410Y-44587798D01*
X3294359Y-44584598D01*
X3277710Y-44575407D01*
X3252569Y-44561529D01*
X3202598Y-44511097D01*
X3187826Y-44441654D01*
X3212942Y-44375248D01*
X3240294Y-44348641D01*
X3415328Y-44223792D01*
X3423200Y-44217139D01*
X3574052Y-44066812D01*
X3580730Y-44058965D01*
X3705003Y-43886020D01*
X3710313Y-43877183D01*
X3804670Y-43686267D01*
X3808469Y-43676672D01*
X3870377Y-43472910D01*
X3872555Y-43462837D01*
X3873986Y-43451962D01*
X3871775Y-43437778D01*
X3858617Y-43434000D01*
X1223225Y-43434000D01*
X1209694Y-43437973D01*
X1208257Y-43447966D01*
X1238565Y-43582446D01*
X1241645Y-43592275D01*
X1321770Y-43789603D01*
X1326413Y-43798794D01*
X1437694Y-43980388D01*
X1443777Y-43988699D01*
X1583213Y-44149667D01*
X1590580Y-44156883D01*
X1754434Y-44292916D01*
X1762881Y-44298831D01*
X1831969Y-44339203D01*
X1880693Y-44390842D01*
X1893764Y-44460625D01*
X1867033Y-44526396D01*
X1826584Y-44559752D01*
X1813607Y-44566507D01*
X1809474Y-44569610D01*
X1809471Y-44569612D01*
X1639100Y-44697530D01*
X1634965Y-44700635D01*
X1480629Y-44862138D01*
X1354743Y-45046680D01*
X1339003Y-45080590D01*
X1269861Y-45229544D01*
X1260688Y-45249305D01*
X1200989Y-45464570D01*
X1177251Y-45686695D01*
X508500Y-45686695D01*
X508500Y-41538134D01*
X1181500Y-41538134D01*
X1188255Y-41600316D01*
X1239385Y-41736705D01*
X1326739Y-41853261D01*
X1443295Y-41940615D01*
X1451704Y-41943767D01*
X1451705Y-41943768D01*
X1560960Y-41984726D01*
X1617725Y-42027367D01*
X1642425Y-42093929D01*
X1627218Y-42163278D01*
X1607825Y-42189759D01*
X1484590Y-42318717D01*
X1478104Y-42326727D01*
X1358098Y-42502649D01*
X1353000Y-42511623D01*
X1263338Y-42704783D01*
X1259775Y-42714470D01*
X1204389Y-42914183D01*
X1205912Y-42922607D01*
X1218292Y-42926000D01*
X3858344Y-42926000D01*
X3871875Y-42922027D01*
X3873180Y-42912947D01*
X3831214Y-42745875D01*
X3827894Y-42736124D01*
X3742972Y-42540814D01*
X3738105Y-42531739D01*
X3622426Y-42352926D01*
X3616136Y-42344757D01*
X3472293Y-42186677D01*
X3441241Y-42122831D01*
X3449635Y-42052333D01*
X3494812Y-41997564D01*
X3521256Y-41983895D01*
X3628297Y-41943767D01*
X3636705Y-41940615D01*
X3753261Y-41853261D01*
X3840615Y-41736705D01*
X3891745Y-41600316D01*
X3898500Y-41538134D01*
X3898500Y-39741866D01*
X3891745Y-39679684D01*
X3840615Y-39543295D01*
X3753261Y-39426739D01*
X3636705Y-39339385D01*
X3500316Y-39288255D01*
X3438134Y-39281500D01*
X1641866Y-39281500D01*
X1579684Y-39288255D01*
X1443295Y-39339385D01*
X1326739Y-39426739D01*
X1239385Y-39543295D01*
X1188255Y-39679684D01*
X1181500Y-39741866D01*
X1181500Y-41538134D01*
X508500Y-41538134D01*
X508500Y-39050512D01*
X9509286Y-39050512D01*
X9512685Y-39086133D01*
X9514205Y-39095125D01*
X9576122Y-39348158D01*
X9578922Y-39356827D01*
X9676722Y-39598282D01*
X9680744Y-39606455D01*
X9812368Y-39831253D01*
X9817531Y-39838765D01*
X9980231Y-40042213D01*
X9986420Y-40048896D01*
X10176794Y-40226733D01*
X10183871Y-40232443D01*
X10397918Y-40380934D01*
X10405759Y-40385571D01*
X10638997Y-40501604D01*
X10647422Y-40505060D01*
X10894974Y-40586212D01*
X10903799Y-40588412D01*
X11161189Y-40633103D01*
X11168807Y-40633950D01*
X11248592Y-40637922D01*
X11251733Y-40638000D01*
X12427885Y-40638000D01*
X12443124Y-40633525D01*
X12444329Y-40632135D01*
X12446000Y-40624452D01*
X12446000Y-40619885D01*
X12954000Y-40619885D01*
X12958475Y-40635124D01*
X12959865Y-40636329D01*
X12967548Y-40638000D01*
X14116206Y-40638000D01*
X14120777Y-40637835D01*
X14314380Y-40623787D01*
X14323389Y-40622473D01*
X14577769Y-40566311D01*
X14586499Y-40563708D01*
X14830107Y-40471414D01*
X14838368Y-40467579D01*
X15066101Y-40341085D01*
X15073726Y-40336095D01*
X15280809Y-40178054D01*
X15287636Y-40172014D01*
X15469735Y-39985736D01*
X15475618Y-39978774D01*
X15628922Y-39768157D01*
X15633733Y-39760427D01*
X15755031Y-39529878D01*
X15758678Y-39521528D01*
X15845419Y-39275901D01*
X15847825Y-39267106D01*
X15890267Y-39051775D01*
X15890152Y-39050512D01*
X27289286Y-39050512D01*
X27292685Y-39086133D01*
X27294205Y-39095125D01*
X27356122Y-39348158D01*
X27358922Y-39356827D01*
X27456722Y-39598282D01*
X27460744Y-39606455D01*
X27592368Y-39831253D01*
X27597531Y-39838765D01*
X27760231Y-40042213D01*
X27766420Y-40048896D01*
X27956794Y-40226733D01*
X27963871Y-40232443D01*
X28177918Y-40380934D01*
X28185759Y-40385571D01*
X28418997Y-40501604D01*
X28427422Y-40505060D01*
X28674974Y-40586212D01*
X28683799Y-40588412D01*
X28941189Y-40633103D01*
X28948807Y-40633950D01*
X29028592Y-40637922D01*
X29031733Y-40638000D01*
X30207885Y-40638000D01*
X30223124Y-40633525D01*
X30224329Y-40632135D01*
X30226000Y-40624452D01*
X30226000Y-40619885D01*
X30734000Y-40619885D01*
X30738475Y-40635124D01*
X30739865Y-40636329D01*
X30747548Y-40638000D01*
X31896206Y-40638000D01*
X31900777Y-40637835D01*
X32094380Y-40623787D01*
X32103389Y-40622473D01*
X32357769Y-40566311D01*
X32366499Y-40563708D01*
X32610107Y-40471414D01*
X32618368Y-40467579D01*
X32846101Y-40341085D01*
X32853726Y-40336095D01*
X33060809Y-40178054D01*
X33067636Y-40172014D01*
X33249735Y-39985736D01*
X33255618Y-39978774D01*
X33408922Y-39768157D01*
X33413733Y-39760427D01*
X33535031Y-39529878D01*
X33538678Y-39521528D01*
X33625419Y-39275901D01*
X33627825Y-39267106D01*
X33670267Y-39051775D01*
X33669088Y-39038863D01*
X33653985Y-39034000D01*
X30752115Y-39034000D01*
X30736876Y-39038475D01*
X30735671Y-39039865D01*
X30734000Y-39047548D01*
X30734000Y-40619885D01*
X30226000Y-40619885D01*
X30226000Y-39052115D01*
X30221525Y-39036876D01*
X30220135Y-39035671D01*
X30212452Y-39034000D01*
X27305826Y-39034000D01*
X27291349Y-39038251D01*
X27289286Y-39050512D01*
X15890152Y-39050512D01*
X15889088Y-39038863D01*
X15873985Y-39034000D01*
X12972115Y-39034000D01*
X12956876Y-39038475D01*
X12955671Y-39039865D01*
X12954000Y-39047548D01*
X12954000Y-40619885D01*
X12446000Y-40619885D01*
X12446000Y-39052115D01*
X12441525Y-39036876D01*
X12440135Y-39035671D01*
X12432452Y-39034000D01*
X9525826Y-39034000D01*
X9511349Y-39038251D01*
X9509286Y-39050512D01*
X508500Y-39050512D01*
X508500Y-38508225D01*
X9509733Y-38508225D01*
X9510912Y-38521137D01*
X9526015Y-38526000D01*
X12427885Y-38526000D01*
X12443124Y-38521525D01*
X12444329Y-38520135D01*
X12446000Y-38512452D01*
X12446000Y-38507885D01*
X12954000Y-38507885D01*
X12958475Y-38523124D01*
X12959865Y-38524329D01*
X12967548Y-38526000D01*
X15874174Y-38526000D01*
X15888651Y-38521749D01*
X15890714Y-38509488D01*
X15890593Y-38508225D01*
X27289733Y-38508225D01*
X27290912Y-38521137D01*
X27306015Y-38526000D01*
X30207885Y-38526000D01*
X30223124Y-38521525D01*
X30224329Y-38520135D01*
X30226000Y-38512452D01*
X30226000Y-38507885D01*
X30734000Y-38507885D01*
X30738475Y-38523124D01*
X30739865Y-38524329D01*
X30747548Y-38526000D01*
X33654174Y-38526000D01*
X33668651Y-38521749D01*
X33670714Y-38509488D01*
X33667315Y-38473867D01*
X33665795Y-38464875D01*
X33603878Y-38211842D01*
X33601078Y-38203173D01*
X33503278Y-37961718D01*
X33499256Y-37953545D01*
X33367632Y-37728747D01*
X33362469Y-37721235D01*
X33199769Y-37517787D01*
X33193580Y-37511104D01*
X33003206Y-37333267D01*
X32996129Y-37327557D01*
X32782082Y-37179066D01*
X32774241Y-37174429D01*
X32541003Y-37058396D01*
X32532578Y-37054940D01*
X32285026Y-36973788D01*
X32276201Y-36971588D01*
X32018811Y-36926897D01*
X32011193Y-36926050D01*
X31931408Y-36922078D01*
X31928267Y-36922000D01*
X30752115Y-36922000D01*
X30736876Y-36926475D01*
X30735671Y-36927865D01*
X30734000Y-36935548D01*
X30734000Y-38507885D01*
X30226000Y-38507885D01*
X30226000Y-36940115D01*
X30218254Y-36913735D01*
X30191917Y-36872756D01*
X30187502Y-36824084D01*
X30193886Y-36763352D01*
X30200229Y-36703000D01*
X30181365Y-36523525D01*
X30179252Y-36517020D01*
X30127641Y-36358178D01*
X30125599Y-36351893D01*
X30035367Y-36195607D01*
X29914613Y-36061496D01*
X29803778Y-35980969D01*
X29773957Y-35959303D01*
X29773956Y-35959302D01*
X29768615Y-35955422D01*
X29762587Y-35952738D01*
X29762585Y-35952737D01*
X29609783Y-35884705D01*
X29609781Y-35884705D01*
X29603752Y-35882020D01*
X29515492Y-35863260D01*
X29433689Y-35845872D01*
X29433685Y-35845872D01*
X29427232Y-35844500D01*
X29246768Y-35844500D01*
X29240315Y-35845872D01*
X29240311Y-35845872D01*
X29158508Y-35863260D01*
X29070248Y-35882020D01*
X29064219Y-35884704D01*
X29064217Y-35884705D01*
X28911414Y-35952738D01*
X28905386Y-35955422D01*
X28900047Y-35959301D01*
X28894326Y-35962604D01*
X28893188Y-35960633D01*
X28836195Y-35980969D01*
X28767044Y-35964890D01*
X28761839Y-35961544D01*
X28757954Y-35959301D01*
X28752615Y-35955422D01*
X28746587Y-35952738D01*
X28746585Y-35952737D01*
X28593783Y-35884705D01*
X28593781Y-35884705D01*
X28587752Y-35882020D01*
X28499492Y-35863260D01*
X28417689Y-35845872D01*
X28417685Y-35845872D01*
X28411232Y-35844500D01*
X28230768Y-35844500D01*
X28224315Y-35845872D01*
X28224311Y-35845872D01*
X28142508Y-35863260D01*
X28054248Y-35882020D01*
X28048219Y-35884704D01*
X28048217Y-35884705D01*
X27895416Y-35952737D01*
X27895414Y-35952738D01*
X27889386Y-35955422D01*
X27884045Y-35959302D01*
X27884044Y-35959303D01*
X27748731Y-36057613D01*
X27748729Y-36057615D01*
X27743387Y-36061496D01*
X27622633Y-36195607D01*
X27532401Y-36351893D01*
X27530359Y-36358178D01*
X27478749Y-36517020D01*
X27476635Y-36523525D01*
X27457771Y-36703000D01*
X27476635Y-36882475D01*
X27532401Y-37054107D01*
X27535704Y-37059829D01*
X27535705Y-37059830D01*
X27554522Y-37092421D01*
X27622633Y-37210393D01*
X27743387Y-37344504D01*
X27748268Y-37348050D01*
X27785395Y-37408317D01*
X27784041Y-37479300D01*
X27753945Y-37529583D01*
X27710259Y-37574272D01*
X27704382Y-37581226D01*
X27551078Y-37791843D01*
X27546267Y-37799573D01*
X27424969Y-38030122D01*
X27421322Y-38038472D01*
X27334581Y-38284099D01*
X27332175Y-38292894D01*
X27289733Y-38508225D01*
X15890593Y-38508225D01*
X15887315Y-38473867D01*
X15885795Y-38464875D01*
X15823878Y-38211842D01*
X15821078Y-38203173D01*
X15723278Y-37961718D01*
X15719256Y-37953545D01*
X15587632Y-37728747D01*
X15582469Y-37721235D01*
X15419769Y-37517787D01*
X15413580Y-37511104D01*
X15223206Y-37333267D01*
X15216129Y-37327557D01*
X15002082Y-37179066D01*
X14994241Y-37174429D01*
X14761003Y-37058396D01*
X14752578Y-37054940D01*
X14505026Y-36973788D01*
X14496201Y-36971588D01*
X14238811Y-36926897D01*
X14231193Y-36926050D01*
X14151408Y-36922078D01*
X14148267Y-36922000D01*
X12972115Y-36922000D01*
X12956876Y-36926475D01*
X12955671Y-36927865D01*
X12954000Y-36935548D01*
X12954000Y-38507885D01*
X12446000Y-38507885D01*
X12446000Y-36940115D01*
X12441525Y-36924876D01*
X12440135Y-36923671D01*
X12432452Y-36922000D01*
X11283794Y-36922000D01*
X11279223Y-36922165D01*
X11085620Y-36936213D01*
X11076611Y-36937527D01*
X10822231Y-36993689D01*
X10813501Y-36996292D01*
X10569893Y-37088586D01*
X10561632Y-37092421D01*
X10333899Y-37218915D01*
X10326274Y-37223905D01*
X10119191Y-37381946D01*
X10112364Y-37387986D01*
X9930265Y-37574264D01*
X9924382Y-37581226D01*
X9771078Y-37791843D01*
X9766267Y-37799573D01*
X9644969Y-38030122D01*
X9641322Y-38038472D01*
X9554581Y-38284099D01*
X9552175Y-38292894D01*
X9509733Y-38508225D01*
X508500Y-38508225D01*
X508500Y-37338000D01*
X6883771Y-37338000D01*
X6884461Y-37344565D01*
X6898623Y-37479300D01*
X6902635Y-37517475D01*
X6904675Y-37523753D01*
X6904675Y-37523754D01*
X6906569Y-37529583D01*
X6958401Y-37689107D01*
X7048633Y-37845393D01*
X7169387Y-37979504D01*
X7174729Y-37983385D01*
X7174731Y-37983387D01*
X7250549Y-38038472D01*
X7315385Y-38085578D01*
X7321413Y-38088262D01*
X7321415Y-38088263D01*
X7474217Y-38156295D01*
X7480248Y-38158980D01*
X7568508Y-38177740D01*
X7650311Y-38195128D01*
X7650315Y-38195128D01*
X7656768Y-38196500D01*
X7837232Y-38196500D01*
X7843685Y-38195128D01*
X7843689Y-38195128D01*
X7925492Y-38177740D01*
X8013752Y-38158980D01*
X8019783Y-38156295D01*
X8172585Y-38088263D01*
X8172587Y-38088262D01*
X8178615Y-38085578D01*
X8243451Y-38038472D01*
X8319269Y-37983387D01*
X8319271Y-37983385D01*
X8324613Y-37979504D01*
X8445367Y-37845393D01*
X8535599Y-37689107D01*
X8587431Y-37529583D01*
X8589325Y-37523754D01*
X8589325Y-37523753D01*
X8591365Y-37517475D01*
X8595378Y-37479300D01*
X8609539Y-37344565D01*
X8610229Y-37338000D01*
X8591365Y-37158525D01*
X8535599Y-36986893D01*
X8445367Y-36830607D01*
X8384811Y-36763352D01*
X8329035Y-36701407D01*
X8329034Y-36701406D01*
X8324613Y-36696496D01*
X8317411Y-36691263D01*
X8183957Y-36594303D01*
X8183956Y-36594302D01*
X8178615Y-36590422D01*
X8172587Y-36587738D01*
X8172585Y-36587737D01*
X8019783Y-36519705D01*
X8019781Y-36519705D01*
X8013752Y-36517020D01*
X7925492Y-36498260D01*
X7843689Y-36480872D01*
X7843685Y-36480872D01*
X7837232Y-36479500D01*
X7656768Y-36479500D01*
X7650315Y-36480872D01*
X7650311Y-36480872D01*
X7568508Y-36498260D01*
X7480248Y-36517020D01*
X7474219Y-36519704D01*
X7474217Y-36519705D01*
X7321416Y-36587737D01*
X7321414Y-36587738D01*
X7315386Y-36590422D01*
X7310045Y-36594302D01*
X7310044Y-36594303D01*
X7174731Y-36692613D01*
X7174729Y-36692615D01*
X7169387Y-36696496D01*
X7164966Y-36701406D01*
X7164965Y-36701407D01*
X7109190Y-36763352D01*
X7048633Y-36830607D01*
X6958401Y-36986893D01*
X6902635Y-37158525D01*
X6883771Y-37338000D01*
X508500Y-37338000D01*
X508500Y-35941000D01*
X22504771Y-35941000D01*
X22523635Y-36120475D01*
X22579401Y-36292107D01*
X22669633Y-36448393D01*
X22674051Y-36453300D01*
X22674052Y-36453301D01*
X22737282Y-36523525D01*
X22790387Y-36582504D01*
X22795729Y-36586385D01*
X22795731Y-36586387D01*
X22931043Y-36684697D01*
X22936385Y-36688578D01*
X22942413Y-36691262D01*
X22942415Y-36691263D01*
X22965199Y-36701407D01*
X23101248Y-36761980D01*
X23189508Y-36780740D01*
X23271311Y-36798128D01*
X23271315Y-36798128D01*
X23277768Y-36799500D01*
X23458232Y-36799500D01*
X23464685Y-36798128D01*
X23464689Y-36798128D01*
X23546492Y-36780740D01*
X23634752Y-36761980D01*
X23770801Y-36701407D01*
X23793585Y-36691263D01*
X23793587Y-36691262D01*
X23799615Y-36688578D01*
X23804957Y-36684697D01*
X23940269Y-36586387D01*
X23940271Y-36586385D01*
X23945613Y-36582504D01*
X23998718Y-36523525D01*
X24061948Y-36453301D01*
X24061949Y-36453300D01*
X24066367Y-36448393D01*
X24156599Y-36292107D01*
X24212365Y-36120475D01*
X24231229Y-35941000D01*
X24212365Y-35761525D01*
X24156599Y-35589893D01*
X24066367Y-35433607D01*
X23945613Y-35299496D01*
X23799615Y-35193422D01*
X23793587Y-35190738D01*
X23793585Y-35190737D01*
X23640783Y-35122705D01*
X23640781Y-35122705D01*
X23634752Y-35120020D01*
X23546492Y-35101260D01*
X23464689Y-35083872D01*
X23464685Y-35083872D01*
X23458232Y-35082500D01*
X23277768Y-35082500D01*
X23271315Y-35083872D01*
X23271311Y-35083872D01*
X23189508Y-35101260D01*
X23101248Y-35120020D01*
X23095219Y-35122704D01*
X23095217Y-35122705D01*
X22942416Y-35190737D01*
X22942414Y-35190738D01*
X22936386Y-35193422D01*
X22931045Y-35197302D01*
X22931044Y-35197303D01*
X22795731Y-35295613D01*
X22795729Y-35295615D01*
X22790387Y-35299496D01*
X22669633Y-35433607D01*
X22579401Y-35589893D01*
X22523635Y-35761525D01*
X22504771Y-35941000D01*
X508500Y-35941000D01*
X508500Y-32986695D01*
X1177251Y-32986695D01*
X1177548Y-32991848D01*
X1177548Y-32991851D01*
X1183011Y-33086590D01*
X1190110Y-33209715D01*
X1191247Y-33214761D01*
X1191248Y-33214767D01*
X1211119Y-33302939D01*
X1239222Y-33427639D01*
X1323266Y-33634616D01*
X1439987Y-33825088D01*
X1586250Y-33993938D01*
X1758126Y-34136632D01*
X1951000Y-34249338D01*
X2159692Y-34329030D01*
X2164760Y-34330061D01*
X2164763Y-34330062D01*
X2272017Y-34351883D01*
X2378597Y-34373567D01*
X2383772Y-34373757D01*
X2383774Y-34373757D01*
X2596673Y-34381564D01*
X2596677Y-34381564D01*
X2601837Y-34381753D01*
X2606957Y-34381097D01*
X2606959Y-34381097D01*
X2818288Y-34354025D01*
X2818289Y-34354025D01*
X2823416Y-34353368D01*
X2828366Y-34351883D01*
X3032429Y-34290661D01*
X3032434Y-34290659D01*
X3037384Y-34289174D01*
X3237994Y-34190896D01*
X3419860Y-34061173D01*
X3578096Y-33903489D01*
X3637594Y-33820689D01*
X3705435Y-33726277D01*
X3708453Y-33722077D01*
X3741905Y-33654393D01*
X3805136Y-33526453D01*
X3805137Y-33526451D01*
X3807430Y-33521811D01*
X3872370Y-33308069D01*
X3893576Y-33147000D01*
X22504771Y-33147000D01*
X22523635Y-33326475D01*
X22579401Y-33498107D01*
X22582704Y-33503829D01*
X22582705Y-33503830D01*
X22595767Y-33526453D01*
X22669633Y-33654393D01*
X22674051Y-33659300D01*
X22674052Y-33659301D01*
X22785965Y-33783593D01*
X22790387Y-33788504D01*
X22795729Y-33792385D01*
X22795731Y-33792387D01*
X22840740Y-33825088D01*
X22936385Y-33894578D01*
X22942413Y-33897262D01*
X22942415Y-33897263D01*
X23095217Y-33965295D01*
X23101248Y-33967980D01*
X23189508Y-33986740D01*
X23271311Y-34004128D01*
X23271315Y-34004128D01*
X23277768Y-34005500D01*
X23458232Y-34005500D01*
X23464685Y-34004128D01*
X23464689Y-34004128D01*
X23546492Y-33986740D01*
X23634752Y-33967980D01*
X23640783Y-33965295D01*
X23793585Y-33897263D01*
X23793587Y-33897262D01*
X23799615Y-33894578D01*
X23895260Y-33825088D01*
X23940269Y-33792387D01*
X23940271Y-33792385D01*
X23945613Y-33788504D01*
X23950035Y-33783593D01*
X24061948Y-33659301D01*
X24061949Y-33659300D01*
X24066367Y-33654393D01*
X24140233Y-33526453D01*
X24153295Y-33503830D01*
X24153296Y-33503829D01*
X24156599Y-33498107D01*
X24212365Y-33326475D01*
X24231229Y-33147000D01*
X24218234Y-33023365D01*
X24214380Y-32986695D01*
X36737251Y-32986695D01*
X36737548Y-32991848D01*
X36737548Y-32991851D01*
X36743011Y-33086590D01*
X36750110Y-33209715D01*
X36751247Y-33214761D01*
X36751248Y-33214767D01*
X36771119Y-33302939D01*
X36799222Y-33427639D01*
X36883266Y-33634616D01*
X36999987Y-33825088D01*
X37146250Y-33993938D01*
X37318126Y-34136632D01*
X37511000Y-34249338D01*
X37719692Y-34329030D01*
X37724760Y-34330061D01*
X37724763Y-34330062D01*
X37832017Y-34351883D01*
X37938597Y-34373567D01*
X37943772Y-34373757D01*
X37943774Y-34373757D01*
X38156673Y-34381564D01*
X38156677Y-34381564D01*
X38161837Y-34381753D01*
X38166957Y-34381097D01*
X38166959Y-34381097D01*
X38378288Y-34354025D01*
X38378289Y-34354025D01*
X38383416Y-34353368D01*
X38388366Y-34351883D01*
X38592429Y-34290661D01*
X38592434Y-34290659D01*
X38597384Y-34289174D01*
X38797994Y-34190896D01*
X38979860Y-34061173D01*
X39138096Y-33903489D01*
X39197594Y-33820689D01*
X39265435Y-33726277D01*
X39268453Y-33722077D01*
X39301905Y-33654393D01*
X39365136Y-33526453D01*
X39365137Y-33526451D01*
X39367430Y-33521811D01*
X39432370Y-33308069D01*
X39461529Y-33086590D01*
X39463156Y-33020000D01*
X39444852Y-32797361D01*
X39390431Y-32580702D01*
X39301354Y-32375840D01*
X39180014Y-32188277D01*
X39029670Y-32023051D01*
X39025619Y-32019852D01*
X39025615Y-32019848D01*
X38858414Y-31887800D01*
X38858410Y-31887798D01*
X38854359Y-31884598D01*
X38812569Y-31861529D01*
X38762598Y-31811097D01*
X38747826Y-31741654D01*
X38772942Y-31675248D01*
X38800294Y-31648641D01*
X38975328Y-31523792D01*
X38983200Y-31517139D01*
X39134052Y-31366812D01*
X39140730Y-31358965D01*
X39265003Y-31186020D01*
X39270313Y-31177183D01*
X39364670Y-30986267D01*
X39368469Y-30976672D01*
X39430377Y-30772910D01*
X39432555Y-30762837D01*
X39433986Y-30751962D01*
X39431775Y-30737778D01*
X39418617Y-30734000D01*
X36783225Y-30734000D01*
X36769694Y-30737973D01*
X36768257Y-30747966D01*
X36798565Y-30882446D01*
X36801645Y-30892275D01*
X36881770Y-31089603D01*
X36886413Y-31098794D01*
X36997694Y-31280388D01*
X37003777Y-31288699D01*
X37143213Y-31449667D01*
X37150580Y-31456883D01*
X37314434Y-31592916D01*
X37322881Y-31598831D01*
X37391969Y-31639203D01*
X37440693Y-31690842D01*
X37453764Y-31760625D01*
X37427033Y-31826396D01*
X37386584Y-31859752D01*
X37373607Y-31866507D01*
X37369474Y-31869610D01*
X37369471Y-31869612D01*
X37345247Y-31887800D01*
X37194965Y-32000635D01*
X37040629Y-32162138D01*
X36914743Y-32346680D01*
X36820688Y-32549305D01*
X36760989Y-32764570D01*
X36737251Y-32986695D01*
X24214380Y-32986695D01*
X24213055Y-32974089D01*
X24213055Y-32974088D01*
X24212365Y-32967525D01*
X24156599Y-32795893D01*
X24141481Y-32769707D01*
X24069668Y-32645325D01*
X24066367Y-32639607D01*
X23980832Y-32544610D01*
X23950035Y-32510407D01*
X23950034Y-32510406D01*
X23945613Y-32505496D01*
X23799615Y-32399422D01*
X23793587Y-32396738D01*
X23793585Y-32396737D01*
X23640783Y-32328705D01*
X23640781Y-32328705D01*
X23634752Y-32326020D01*
X23546492Y-32307260D01*
X23464689Y-32289872D01*
X23464685Y-32289872D01*
X23458232Y-32288500D01*
X23277768Y-32288500D01*
X23271315Y-32289872D01*
X23271311Y-32289872D01*
X23189508Y-32307260D01*
X23101248Y-32326020D01*
X23095219Y-32328704D01*
X23095217Y-32328705D01*
X22942416Y-32396737D01*
X22942414Y-32396738D01*
X22936386Y-32399422D01*
X22931045Y-32403302D01*
X22931044Y-32403303D01*
X22795731Y-32501613D01*
X22795729Y-32501615D01*
X22790387Y-32505496D01*
X22785966Y-32510406D01*
X22785965Y-32510407D01*
X22755169Y-32544610D01*
X22669633Y-32639607D01*
X22666332Y-32645325D01*
X22594520Y-32769707D01*
X22579401Y-32795893D01*
X22523635Y-32967525D01*
X22522945Y-32974088D01*
X22522945Y-32974089D01*
X22517766Y-33023365D01*
X22504771Y-33147000D01*
X3893576Y-33147000D01*
X3901529Y-33086590D01*
X3903156Y-33020000D01*
X3884852Y-32797361D01*
X3830431Y-32580702D01*
X3741354Y-32375840D01*
X3620014Y-32188277D01*
X3469670Y-32023051D01*
X3465619Y-32019852D01*
X3465615Y-32019848D01*
X3298414Y-31887800D01*
X3298410Y-31887798D01*
X3294359Y-31884598D01*
X3252569Y-31861529D01*
X3202598Y-31811097D01*
X3187826Y-31741654D01*
X3212942Y-31675248D01*
X3240294Y-31648641D01*
X3415328Y-31523792D01*
X3423200Y-31517139D01*
X3574052Y-31366812D01*
X3580730Y-31358965D01*
X3705003Y-31186020D01*
X3710313Y-31177183D01*
X3804670Y-30986267D01*
X3808469Y-30976672D01*
X3870377Y-30772910D01*
X3872555Y-30762837D01*
X3873986Y-30751962D01*
X3871775Y-30737778D01*
X3858617Y-30734000D01*
X1223225Y-30734000D01*
X1209694Y-30737973D01*
X1208257Y-30747966D01*
X1238565Y-30882446D01*
X1241645Y-30892275D01*
X1321770Y-31089603D01*
X1326413Y-31098794D01*
X1437694Y-31280388D01*
X1443777Y-31288699D01*
X1583213Y-31449667D01*
X1590580Y-31456883D01*
X1754434Y-31592916D01*
X1762881Y-31598831D01*
X1831969Y-31639203D01*
X1880693Y-31690842D01*
X1893764Y-31760625D01*
X1867033Y-31826396D01*
X1826584Y-31859752D01*
X1813607Y-31866507D01*
X1809474Y-31869610D01*
X1809471Y-31869612D01*
X1785247Y-31887800D01*
X1634965Y-32000635D01*
X1480629Y-32162138D01*
X1354743Y-32346680D01*
X1260688Y-32549305D01*
X1200989Y-32764570D01*
X1177251Y-32986695D01*
X508500Y-32986695D01*
X508500Y-30607000D01*
X13868771Y-30607000D01*
X13869461Y-30613565D01*
X13882120Y-30734000D01*
X13887635Y-30786475D01*
X13943401Y-30958107D01*
X13946704Y-30963829D01*
X13946705Y-30963830D01*
X13959659Y-30986267D01*
X14033633Y-31114393D01*
X14154387Y-31248504D01*
X14159729Y-31252385D01*
X14159731Y-31252387D01*
X14295043Y-31350697D01*
X14300385Y-31354578D01*
X14306413Y-31357262D01*
X14306415Y-31357263D01*
X14459217Y-31425295D01*
X14465248Y-31427980D01*
X14553508Y-31446740D01*
X14635311Y-31464128D01*
X14635315Y-31464128D01*
X14641768Y-31465500D01*
X14822232Y-31465500D01*
X14828685Y-31464128D01*
X14828689Y-31464128D01*
X14910492Y-31446740D01*
X14998752Y-31427980D01*
X15004783Y-31425295D01*
X15157585Y-31357263D01*
X15157587Y-31357262D01*
X15163615Y-31354578D01*
X15168957Y-31350697D01*
X15304269Y-31252387D01*
X15304271Y-31252385D01*
X15309613Y-31248504D01*
X15430367Y-31114393D01*
X15504341Y-30986267D01*
X15517295Y-30963830D01*
X15517296Y-30963829D01*
X15520599Y-30958107D01*
X15576365Y-30786475D01*
X15581881Y-30734000D01*
X15594539Y-30613565D01*
X15595229Y-30607000D01*
X15576365Y-30427525D01*
X15520599Y-30255893D01*
X15430367Y-30099607D01*
X15309613Y-29965496D01*
X15163615Y-29859422D01*
X15157587Y-29856738D01*
X15157585Y-29856737D01*
X15004783Y-29788705D01*
X15004781Y-29788705D01*
X14998752Y-29786020D01*
X14910492Y-29767260D01*
X14828689Y-29749872D01*
X14828685Y-29749872D01*
X14822232Y-29748500D01*
X14641768Y-29748500D01*
X14635315Y-29749872D01*
X14635311Y-29749872D01*
X14553508Y-29767260D01*
X14465248Y-29786020D01*
X14459219Y-29788704D01*
X14459217Y-29788705D01*
X14306416Y-29856737D01*
X14306414Y-29856738D01*
X14300386Y-29859422D01*
X14295045Y-29863302D01*
X14295044Y-29863303D01*
X14159731Y-29961613D01*
X14159729Y-29961615D01*
X14154387Y-29965496D01*
X14033633Y-30099607D01*
X13943401Y-30255893D01*
X13887635Y-30427525D01*
X13868771Y-30607000D01*
X508500Y-30607000D01*
X508500Y-28838134D01*
X1181500Y-28838134D01*
X1188255Y-28900316D01*
X1239385Y-29036705D01*
X1326739Y-29153261D01*
X1443295Y-29240615D01*
X1451704Y-29243767D01*
X1451705Y-29243768D01*
X1560960Y-29284726D01*
X1617725Y-29327367D01*
X1642425Y-29393929D01*
X1627218Y-29463278D01*
X1607825Y-29489759D01*
X1484590Y-29618717D01*
X1478104Y-29626727D01*
X1358098Y-29802649D01*
X1353000Y-29811623D01*
X1263338Y-30004783D01*
X1259775Y-30014470D01*
X1204389Y-30214183D01*
X1205912Y-30222607D01*
X1218292Y-30226000D01*
X3858344Y-30226000D01*
X3871875Y-30222027D01*
X3873180Y-30212947D01*
X3831214Y-30045875D01*
X3827894Y-30036124D01*
X3742972Y-29840814D01*
X3738105Y-29831739D01*
X3622426Y-29652926D01*
X3616136Y-29644757D01*
X3472293Y-29486677D01*
X3441241Y-29422831D01*
X3449635Y-29352333D01*
X3494812Y-29297564D01*
X3521256Y-29283895D01*
X3628297Y-29243767D01*
X3636705Y-29240615D01*
X3753261Y-29153261D01*
X3840615Y-29036705D01*
X3891745Y-28900316D01*
X3898500Y-28838134D01*
X36741500Y-28838134D01*
X36748255Y-28900316D01*
X36799385Y-29036705D01*
X36886739Y-29153261D01*
X37003295Y-29240615D01*
X37011704Y-29243767D01*
X37011705Y-29243768D01*
X37120960Y-29284726D01*
X37177725Y-29327367D01*
X37202425Y-29393929D01*
X37187218Y-29463278D01*
X37167825Y-29489759D01*
X37044590Y-29618717D01*
X37038104Y-29626727D01*
X36918098Y-29802649D01*
X36913000Y-29811623D01*
X36823338Y-30004783D01*
X36819775Y-30014470D01*
X36764389Y-30214183D01*
X36765912Y-30222607D01*
X36778292Y-30226000D01*
X39418344Y-30226000D01*
X39431875Y-30222027D01*
X39433180Y-30212947D01*
X39391214Y-30045875D01*
X39387894Y-30036124D01*
X39302972Y-29840814D01*
X39298105Y-29831739D01*
X39182426Y-29652926D01*
X39176136Y-29644757D01*
X39032293Y-29486677D01*
X39001241Y-29422831D01*
X39009635Y-29352333D01*
X39054812Y-29297564D01*
X39081256Y-29283895D01*
X39188297Y-29243767D01*
X39196705Y-29240615D01*
X39313261Y-29153261D01*
X39400615Y-29036705D01*
X39451745Y-28900316D01*
X39458500Y-28838134D01*
X39458500Y-27041866D01*
X39451745Y-26979684D01*
X39400615Y-26843295D01*
X39313261Y-26726739D01*
X39196705Y-26639385D01*
X39060316Y-26588255D01*
X38998134Y-26581500D01*
X37201866Y-26581500D01*
X37139684Y-26588255D01*
X37003295Y-26639385D01*
X36886739Y-26726739D01*
X36799385Y-26843295D01*
X36748255Y-26979684D01*
X36741500Y-27041866D01*
X36741500Y-28838134D01*
X3898500Y-28838134D01*
X3898500Y-27041866D01*
X3891745Y-26979684D01*
X3840615Y-26843295D01*
X3753261Y-26726739D01*
X3636705Y-26639385D01*
X3500316Y-26588255D01*
X3438134Y-26581500D01*
X1641866Y-26581500D01*
X1579684Y-26588255D01*
X1443295Y-26639385D01*
X1326739Y-26726739D01*
X1239385Y-26843295D01*
X1188255Y-26979684D01*
X1181500Y-27041866D01*
X1181500Y-28838134D01*
X508500Y-28838134D01*
X508500Y-24892000D01*
X3962771Y-24892000D01*
X3981635Y-25071475D01*
X4037401Y-25243107D01*
X4127633Y-25399393D01*
X4248387Y-25533504D01*
X4394385Y-25639578D01*
X4400413Y-25642262D01*
X4400415Y-25642263D01*
X4426777Y-25654000D01*
X4559248Y-25712980D01*
X4647508Y-25731740D01*
X4729311Y-25749128D01*
X4729315Y-25749128D01*
X4735768Y-25750500D01*
X4916232Y-25750500D01*
X4922685Y-25749128D01*
X4922689Y-25749128D01*
X5004492Y-25731740D01*
X5092752Y-25712980D01*
X5225223Y-25654000D01*
X11328771Y-25654000D01*
X11347635Y-25833475D01*
X11403401Y-26005107D01*
X11493633Y-26161393D01*
X11498051Y-26166300D01*
X11498052Y-26166301D01*
X11607096Y-26287407D01*
X11614387Y-26295504D01*
X11760385Y-26401578D01*
X11766413Y-26404262D01*
X11766415Y-26404263D01*
X11806983Y-26422325D01*
X11925248Y-26474980D01*
X12013508Y-26493740D01*
X12095311Y-26511128D01*
X12095315Y-26511128D01*
X12101768Y-26512500D01*
X12108369Y-26512500D01*
X12112357Y-26512919D01*
X12178014Y-26539931D01*
X12218645Y-26598153D01*
X12221348Y-26669098D01*
X12219021Y-26677164D01*
X12200581Y-26733919D01*
X12197135Y-26744525D01*
X12178271Y-26924000D01*
X12197135Y-27103475D01*
X12252901Y-27275107D01*
X12343133Y-27431393D01*
X12463887Y-27565504D01*
X12609885Y-27671578D01*
X12615913Y-27674262D01*
X12615915Y-27674263D01*
X12768717Y-27742295D01*
X12774748Y-27744980D01*
X12863008Y-27763740D01*
X12944811Y-27781128D01*
X12944815Y-27781128D01*
X12951268Y-27782500D01*
X13131732Y-27782500D01*
X13138185Y-27781128D01*
X13138189Y-27781128D01*
X13219992Y-27763740D01*
X13308252Y-27744980D01*
X13314283Y-27742295D01*
X13467085Y-27674263D01*
X13467087Y-27674262D01*
X13473115Y-27671578D01*
X13619113Y-27565504D01*
X13739867Y-27431393D01*
X13830099Y-27275107D01*
X13885865Y-27103475D01*
X13904729Y-26924000D01*
X13885865Y-26744525D01*
X13830099Y-26572893D01*
X13739867Y-26416607D01*
X13728753Y-26404263D01*
X13623535Y-26287407D01*
X13623534Y-26287406D01*
X13619113Y-26282496D01*
X13473115Y-26176422D01*
X13467087Y-26173738D01*
X13467085Y-26173737D01*
X13314283Y-26105705D01*
X13314281Y-26105705D01*
X13308252Y-26103020D01*
X13219992Y-26084260D01*
X13138189Y-26066872D01*
X13138185Y-26066872D01*
X13131732Y-26065500D01*
X13125131Y-26065500D01*
X13121143Y-26065081D01*
X13055486Y-26038069D01*
X13014855Y-25979847D01*
X13012152Y-25908902D01*
X13014479Y-25900836D01*
X13034324Y-25839758D01*
X13034325Y-25839754D01*
X13036365Y-25833475D01*
X13055229Y-25654000D01*
X13036365Y-25474525D01*
X12980599Y-25302893D01*
X12890367Y-25146607D01*
X12769613Y-25012496D01*
X12623615Y-24906422D01*
X12617587Y-24903738D01*
X12617585Y-24903737D01*
X12464783Y-24835705D01*
X12464781Y-24835705D01*
X12458752Y-24833020D01*
X12370492Y-24814260D01*
X12288689Y-24796872D01*
X12288685Y-24796872D01*
X12282232Y-24795500D01*
X12101768Y-24795500D01*
X12095315Y-24796872D01*
X12095311Y-24796872D01*
X12013508Y-24814260D01*
X11925248Y-24833020D01*
X11919219Y-24835704D01*
X11919217Y-24835705D01*
X11766416Y-24903737D01*
X11766414Y-24903738D01*
X11760386Y-24906422D01*
X11755045Y-24910302D01*
X11755044Y-24910303D01*
X11619731Y-25008613D01*
X11619729Y-25008615D01*
X11614387Y-25012496D01*
X11493633Y-25146607D01*
X11403401Y-25302893D01*
X11347635Y-25474525D01*
X11328771Y-25654000D01*
X5225223Y-25654000D01*
X5251585Y-25642263D01*
X5251587Y-25642262D01*
X5257615Y-25639578D01*
X5403613Y-25533504D01*
X5524367Y-25399393D01*
X5614599Y-25243107D01*
X5670365Y-25071475D01*
X5689229Y-24892000D01*
X5670365Y-24712525D01*
X5614599Y-24540893D01*
X5524367Y-24384607D01*
X5403613Y-24250496D01*
X5257615Y-24144422D01*
X5251587Y-24141738D01*
X5251585Y-24141737D01*
X5098783Y-24073705D01*
X5098781Y-24073705D01*
X5092752Y-24071020D01*
X5004492Y-24052260D01*
X4922689Y-24034872D01*
X4922685Y-24034872D01*
X4916232Y-24033500D01*
X4735768Y-24033500D01*
X4729315Y-24034872D01*
X4729311Y-24034872D01*
X4647508Y-24052260D01*
X4559248Y-24071020D01*
X4553219Y-24073704D01*
X4553217Y-24073705D01*
X4400416Y-24141737D01*
X4400414Y-24141738D01*
X4394386Y-24144422D01*
X4389045Y-24148302D01*
X4389044Y-24148303D01*
X4253731Y-24246613D01*
X4253729Y-24246615D01*
X4248387Y-24250496D01*
X4127633Y-24384607D01*
X4037401Y-24540893D01*
X3981635Y-24712525D01*
X3962771Y-24892000D01*
X508500Y-24892000D01*
X508500Y-22479000D01*
X25679771Y-22479000D01*
X25698635Y-22658475D01*
X25700675Y-22664753D01*
X25700675Y-22664754D01*
X25713137Y-22703107D01*
X25754401Y-22830107D01*
X25844633Y-22986393D01*
X25965387Y-23120504D01*
X25970729Y-23124385D01*
X25970731Y-23124387D01*
X26106043Y-23222697D01*
X26111385Y-23226578D01*
X26117413Y-23229262D01*
X26117415Y-23229263D01*
X26270217Y-23297295D01*
X26276248Y-23299980D01*
X26364508Y-23318740D01*
X26446311Y-23336128D01*
X26446315Y-23336128D01*
X26452768Y-23337500D01*
X26633232Y-23337500D01*
X26639685Y-23336128D01*
X26639689Y-23336128D01*
X26721492Y-23318740D01*
X26809752Y-23299980D01*
X26815783Y-23297295D01*
X26968585Y-23229263D01*
X26968587Y-23229262D01*
X26974615Y-23226578D01*
X26979957Y-23222697D01*
X27115269Y-23124387D01*
X27115271Y-23124385D01*
X27120613Y-23120504D01*
X27241367Y-22986393D01*
X27331599Y-22830107D01*
X27372863Y-22703107D01*
X27385325Y-22664754D01*
X27385325Y-22664753D01*
X27387365Y-22658475D01*
X27406229Y-22479000D01*
X27405539Y-22472435D01*
X27392881Y-22352000D01*
X30251771Y-22352000D01*
X30252461Y-22358565D01*
X30265810Y-22485565D01*
X30270635Y-22531475D01*
X30326401Y-22703107D01*
X30416633Y-22859393D01*
X30537387Y-22993504D01*
X30683385Y-23099578D01*
X30689413Y-23102262D01*
X30689415Y-23102263D01*
X30842217Y-23170295D01*
X30848248Y-23172980D01*
X30936508Y-23191740D01*
X31018311Y-23209128D01*
X31018315Y-23209128D01*
X31024768Y-23210500D01*
X31205232Y-23210500D01*
X31211685Y-23209128D01*
X31211689Y-23209128D01*
X31293492Y-23191740D01*
X31381752Y-23172980D01*
X31387783Y-23170295D01*
X31540585Y-23102263D01*
X31540587Y-23102262D01*
X31546615Y-23099578D01*
X31692613Y-22993504D01*
X31813367Y-22859393D01*
X31903599Y-22703107D01*
X31959365Y-22531475D01*
X31964191Y-22485565D01*
X31977539Y-22358565D01*
X31978229Y-22352000D01*
X31959365Y-22172525D01*
X31946906Y-22134178D01*
X31905641Y-22007178D01*
X31903599Y-22000893D01*
X31813367Y-21844607D01*
X31749158Y-21773295D01*
X31692613Y-21710496D01*
X31694221Y-21709049D01*
X31662272Y-21657195D01*
X31663621Y-21586211D01*
X31703132Y-21527225D01*
X31768262Y-21498964D01*
X31783821Y-21498000D01*
X31896206Y-21498000D01*
X31900777Y-21497835D01*
X32094380Y-21483787D01*
X32103389Y-21482473D01*
X32357769Y-21426311D01*
X32366499Y-21423708D01*
X32610107Y-21331414D01*
X32618368Y-21327579D01*
X32846101Y-21201085D01*
X32853726Y-21196095D01*
X33060809Y-21038054D01*
X33067636Y-21032014D01*
X33249735Y-20845736D01*
X33255618Y-20838774D01*
X33408922Y-20628157D01*
X33413733Y-20620427D01*
X33535031Y-20389878D01*
X33538678Y-20381528D01*
X33625419Y-20135901D01*
X33627825Y-20127106D01*
X33670267Y-19911775D01*
X33669088Y-19898863D01*
X33653985Y-19894000D01*
X30752115Y-19894000D01*
X30736876Y-19898475D01*
X30735671Y-19899865D01*
X30734000Y-19907548D01*
X30734000Y-21498000D01*
X30730215Y-21498000D01*
X30730217Y-21537981D01*
X30691838Y-21597710D01*
X30683387Y-21604421D01*
X30683386Y-21604422D01*
X30537387Y-21710496D01*
X30532966Y-21715406D01*
X30532965Y-21715407D01*
X30477190Y-21777352D01*
X30416633Y-21844607D01*
X30326401Y-22000893D01*
X30324359Y-22007178D01*
X30283095Y-22134178D01*
X30270635Y-22172525D01*
X30251771Y-22352000D01*
X27392881Y-22352000D01*
X27388055Y-22306089D01*
X27388055Y-22306088D01*
X27387365Y-22299525D01*
X27331599Y-22127893D01*
X27241367Y-21971607D01*
X27120613Y-21837496D01*
X27087586Y-21813500D01*
X26979957Y-21735303D01*
X26979956Y-21735302D01*
X26974615Y-21731422D01*
X26968587Y-21728738D01*
X26968585Y-21728737D01*
X26815783Y-21660705D01*
X26815781Y-21660705D01*
X26809752Y-21658020D01*
X26721492Y-21639260D01*
X26639689Y-21621872D01*
X26639685Y-21621872D01*
X26633232Y-21620500D01*
X26452768Y-21620500D01*
X26446315Y-21621872D01*
X26446311Y-21621872D01*
X26364508Y-21639260D01*
X26276248Y-21658020D01*
X26270219Y-21660704D01*
X26270217Y-21660705D01*
X26117416Y-21728737D01*
X26117414Y-21728738D01*
X26111386Y-21731422D01*
X26106045Y-21735302D01*
X26106044Y-21735303D01*
X25970731Y-21833613D01*
X25970729Y-21833615D01*
X25965387Y-21837496D01*
X25844633Y-21971607D01*
X25754401Y-22127893D01*
X25698635Y-22299525D01*
X25697945Y-22306088D01*
X25697945Y-22306089D01*
X25680461Y-22472435D01*
X25679771Y-22479000D01*
X508500Y-22479000D01*
X508500Y-19910512D01*
X9509286Y-19910512D01*
X9512685Y-19946133D01*
X9514205Y-19955125D01*
X9576122Y-20208158D01*
X9578922Y-20216827D01*
X9676722Y-20458282D01*
X9680744Y-20466455D01*
X9812368Y-20691253D01*
X9817531Y-20698765D01*
X9980231Y-20902213D01*
X9986420Y-20908896D01*
X10176794Y-21086733D01*
X10183871Y-21092443D01*
X10397918Y-21240934D01*
X10405759Y-21245571D01*
X10638997Y-21361604D01*
X10647422Y-21365060D01*
X10894974Y-21446212D01*
X10903799Y-21448412D01*
X11161189Y-21493103D01*
X11168807Y-21493950D01*
X11248592Y-21497922D01*
X11251733Y-21498000D01*
X12427885Y-21498000D01*
X12443124Y-21493525D01*
X12444329Y-21492135D01*
X12446000Y-21484452D01*
X12446000Y-21479885D01*
X12954000Y-21479885D01*
X12958475Y-21495124D01*
X12959865Y-21496329D01*
X12967548Y-21498000D01*
X14116206Y-21498000D01*
X14120777Y-21497835D01*
X14314380Y-21483787D01*
X14323389Y-21482473D01*
X14577769Y-21426311D01*
X14586499Y-21423708D01*
X14830107Y-21331414D01*
X14838368Y-21327579D01*
X15066101Y-21201085D01*
X15073726Y-21196095D01*
X15280809Y-21038054D01*
X15287636Y-21032014D01*
X15362922Y-20955000D01*
X18186771Y-20955000D01*
X18187461Y-20961565D01*
X18195501Y-21038054D01*
X18205635Y-21134475D01*
X18261401Y-21306107D01*
X18351633Y-21462393D01*
X18356051Y-21467300D01*
X18356052Y-21467301D01*
X18410008Y-21527225D01*
X18472387Y-21596504D01*
X18477729Y-21600385D01*
X18477731Y-21600387D01*
X18557056Y-21658020D01*
X18618385Y-21702578D01*
X18624413Y-21705262D01*
X18624415Y-21705263D01*
X18683169Y-21731422D01*
X18783248Y-21775980D01*
X18871508Y-21794740D01*
X18953311Y-21812128D01*
X18953315Y-21812128D01*
X18959768Y-21813500D01*
X19140232Y-21813500D01*
X19146685Y-21812128D01*
X19146689Y-21812128D01*
X19228492Y-21794740D01*
X19316752Y-21775980D01*
X19416831Y-21731422D01*
X19475585Y-21705263D01*
X19475587Y-21705262D01*
X19481615Y-21702578D01*
X19542944Y-21658020D01*
X19622269Y-21600387D01*
X19622271Y-21600385D01*
X19627613Y-21596504D01*
X19689992Y-21527225D01*
X19743948Y-21467301D01*
X19743949Y-21467300D01*
X19748367Y-21462393D01*
X19838599Y-21306107D01*
X19894365Y-21134475D01*
X19904500Y-21038054D01*
X19912539Y-20961565D01*
X19913229Y-20955000D01*
X22367268Y-20955000D01*
X22367958Y-20961565D01*
X22375998Y-21038054D01*
X22386132Y-21134475D01*
X22441898Y-21306107D01*
X22532130Y-21462393D01*
X22536548Y-21467300D01*
X22536549Y-21467301D01*
X22590505Y-21527225D01*
X22652884Y-21596504D01*
X22658226Y-21600385D01*
X22658228Y-21600387D01*
X22737553Y-21658020D01*
X22798882Y-21702578D01*
X22804910Y-21705262D01*
X22804912Y-21705263D01*
X22863666Y-21731422D01*
X22963745Y-21775980D01*
X23052005Y-21794740D01*
X23133808Y-21812128D01*
X23133812Y-21812128D01*
X23140265Y-21813500D01*
X23320729Y-21813500D01*
X23327182Y-21812128D01*
X23327186Y-21812128D01*
X23408989Y-21794740D01*
X23497249Y-21775980D01*
X23597328Y-21731422D01*
X23656082Y-21705263D01*
X23656084Y-21705262D01*
X23662112Y-21702578D01*
X23723441Y-21658020D01*
X23802766Y-21600387D01*
X23802768Y-21600385D01*
X23808110Y-21596504D01*
X23870489Y-21527225D01*
X23924445Y-21467301D01*
X23924446Y-21467300D01*
X23928864Y-21462393D01*
X24019096Y-21306107D01*
X24074862Y-21134475D01*
X24084997Y-21038054D01*
X24093036Y-20961565D01*
X24093726Y-20955000D01*
X24074862Y-20775525D01*
X24019096Y-20603893D01*
X23928864Y-20447607D01*
X23808110Y-20313496D01*
X23662112Y-20207422D01*
X23656084Y-20204738D01*
X23656082Y-20204737D01*
X23503280Y-20136705D01*
X23503278Y-20136705D01*
X23497249Y-20134020D01*
X23408989Y-20115260D01*
X23327186Y-20097872D01*
X23327182Y-20097872D01*
X23320729Y-20096500D01*
X23140265Y-20096500D01*
X23133812Y-20097872D01*
X23133808Y-20097872D01*
X23052005Y-20115260D01*
X22963745Y-20134020D01*
X22957716Y-20136704D01*
X22957714Y-20136705D01*
X22804913Y-20204737D01*
X22804911Y-20204738D01*
X22798883Y-20207422D01*
X22793542Y-20211302D01*
X22793541Y-20211303D01*
X22658228Y-20309613D01*
X22658226Y-20309615D01*
X22652884Y-20313496D01*
X22532130Y-20447607D01*
X22441898Y-20603893D01*
X22386132Y-20775525D01*
X22367268Y-20955000D01*
X19913229Y-20955000D01*
X19894365Y-20775525D01*
X19838599Y-20603893D01*
X19748367Y-20447607D01*
X19627613Y-20313496D01*
X19481615Y-20207422D01*
X19475587Y-20204738D01*
X19475585Y-20204737D01*
X19322783Y-20136705D01*
X19322781Y-20136705D01*
X19316752Y-20134020D01*
X19228492Y-20115260D01*
X19146689Y-20097872D01*
X19146685Y-20097872D01*
X19140232Y-20096500D01*
X18959768Y-20096500D01*
X18953315Y-20097872D01*
X18953311Y-20097872D01*
X18871508Y-20115260D01*
X18783248Y-20134020D01*
X18777219Y-20136704D01*
X18777217Y-20136705D01*
X18624416Y-20204737D01*
X18624414Y-20204738D01*
X18618386Y-20207422D01*
X18613045Y-20211302D01*
X18613044Y-20211303D01*
X18477731Y-20309613D01*
X18477729Y-20309615D01*
X18472387Y-20313496D01*
X18351633Y-20447607D01*
X18261401Y-20603893D01*
X18205635Y-20775525D01*
X18186771Y-20955000D01*
X15362922Y-20955000D01*
X15469735Y-20845736D01*
X15475618Y-20838774D01*
X15628922Y-20628157D01*
X15633733Y-20620427D01*
X15755031Y-20389878D01*
X15758678Y-20381528D01*
X15845419Y-20135901D01*
X15847825Y-20127106D01*
X15890267Y-19911775D01*
X15890152Y-19910512D01*
X27289286Y-19910512D01*
X27292685Y-19946133D01*
X27294205Y-19955125D01*
X27356122Y-20208158D01*
X27358922Y-20216827D01*
X27456722Y-20458282D01*
X27460744Y-20466455D01*
X27592368Y-20691253D01*
X27597531Y-20698765D01*
X27760231Y-20902213D01*
X27766420Y-20908896D01*
X27956794Y-21086733D01*
X27963871Y-21092443D01*
X28177918Y-21240934D01*
X28185759Y-21245571D01*
X28418997Y-21361604D01*
X28427422Y-21365060D01*
X28674974Y-21446212D01*
X28683799Y-21448412D01*
X28941189Y-21493103D01*
X28948807Y-21493950D01*
X29028592Y-21497922D01*
X29031733Y-21498000D01*
X30207885Y-21498000D01*
X30223124Y-21493525D01*
X30224329Y-21492135D01*
X30226000Y-21484452D01*
X30226000Y-19912115D01*
X30221525Y-19896876D01*
X30220135Y-19895671D01*
X30212452Y-19894000D01*
X27305826Y-19894000D01*
X27291349Y-19898251D01*
X27289286Y-19910512D01*
X15890152Y-19910512D01*
X15889088Y-19898863D01*
X15873985Y-19894000D01*
X12972115Y-19894000D01*
X12956876Y-19898475D01*
X12955671Y-19899865D01*
X12954000Y-19907548D01*
X12954000Y-21479885D01*
X12446000Y-21479885D01*
X12446000Y-19912115D01*
X12441525Y-19896876D01*
X12440135Y-19895671D01*
X12432452Y-19894000D01*
X9525826Y-19894000D01*
X9511349Y-19898251D01*
X9509286Y-19910512D01*
X508500Y-19910512D01*
X508500Y-19368225D01*
X9509733Y-19368225D01*
X9510912Y-19381137D01*
X9526015Y-19386000D01*
X12427885Y-19386000D01*
X12443124Y-19381525D01*
X12444329Y-19380135D01*
X12446000Y-19372452D01*
X12446000Y-19367885D01*
X12954000Y-19367885D01*
X12958475Y-19383124D01*
X12959865Y-19384329D01*
X12967548Y-19386000D01*
X15874174Y-19386000D01*
X15888651Y-19381749D01*
X15890714Y-19369488D01*
X15890593Y-19368225D01*
X27289733Y-19368225D01*
X27290912Y-19381137D01*
X27306015Y-19386000D01*
X30207885Y-19386000D01*
X30223124Y-19381525D01*
X30224329Y-19380135D01*
X30226000Y-19372452D01*
X30226000Y-19367885D01*
X30734000Y-19367885D01*
X30738475Y-19383124D01*
X30739865Y-19384329D01*
X30747548Y-19386000D01*
X33654174Y-19386000D01*
X33668651Y-19381749D01*
X33670714Y-19369488D01*
X33667315Y-19333867D01*
X33665795Y-19324875D01*
X33603878Y-19071842D01*
X33601078Y-19063173D01*
X33503278Y-18821718D01*
X33499256Y-18813545D01*
X33367632Y-18588747D01*
X33362469Y-18581235D01*
X33199769Y-18377787D01*
X33193580Y-18371104D01*
X33003206Y-18193267D01*
X32996129Y-18187557D01*
X32782082Y-18039066D01*
X32774241Y-18034429D01*
X32541003Y-17918396D01*
X32532578Y-17914940D01*
X32285026Y-17833788D01*
X32276201Y-17831588D01*
X32018811Y-17786897D01*
X32011193Y-17786050D01*
X31931408Y-17782078D01*
X31928267Y-17782000D01*
X30752115Y-17782000D01*
X30736876Y-17786475D01*
X30735671Y-17787865D01*
X30734000Y-17795548D01*
X30734000Y-19367885D01*
X30226000Y-19367885D01*
X30226000Y-17800115D01*
X30221525Y-17784876D01*
X30220135Y-17783671D01*
X30212452Y-17782000D01*
X29063794Y-17782000D01*
X29059223Y-17782165D01*
X28865620Y-17796213D01*
X28856611Y-17797527D01*
X28602231Y-17853689D01*
X28593501Y-17856292D01*
X28349893Y-17948586D01*
X28341632Y-17952421D01*
X28113899Y-18078915D01*
X28106274Y-18083905D01*
X27899191Y-18241946D01*
X27892364Y-18247986D01*
X27710265Y-18434264D01*
X27704382Y-18441226D01*
X27551078Y-18651843D01*
X27546267Y-18659573D01*
X27424969Y-18890122D01*
X27421322Y-18898472D01*
X27334581Y-19144099D01*
X27332175Y-19152894D01*
X27289733Y-19368225D01*
X15890593Y-19368225D01*
X15887315Y-19333867D01*
X15885795Y-19324875D01*
X15823878Y-19071842D01*
X15821078Y-19063173D01*
X15723278Y-18821718D01*
X15719256Y-18813545D01*
X15587632Y-18588747D01*
X15582469Y-18581235D01*
X15419769Y-18377787D01*
X15413580Y-18371104D01*
X15223206Y-18193267D01*
X15216129Y-18187557D01*
X15002082Y-18039066D01*
X14994241Y-18034429D01*
X14761003Y-17918396D01*
X14752578Y-17914940D01*
X14505026Y-17833788D01*
X14496201Y-17831588D01*
X14238811Y-17786897D01*
X14231193Y-17786050D01*
X14151408Y-17782078D01*
X14148267Y-17782000D01*
X12972115Y-17782000D01*
X12956876Y-17786475D01*
X12955671Y-17787865D01*
X12954000Y-17795548D01*
X12954000Y-19367885D01*
X12446000Y-19367885D01*
X12446000Y-17800115D01*
X12441525Y-17784876D01*
X12440135Y-17783671D01*
X12432452Y-17782000D01*
X11283794Y-17782000D01*
X11279223Y-17782165D01*
X11085620Y-17796213D01*
X11076611Y-17797527D01*
X10822231Y-17853689D01*
X10813501Y-17856292D01*
X10569893Y-17948586D01*
X10561632Y-17952421D01*
X10333899Y-18078915D01*
X10326274Y-18083905D01*
X10119191Y-18241946D01*
X10112364Y-18247986D01*
X9930265Y-18434264D01*
X9924382Y-18441226D01*
X9771078Y-18651843D01*
X9766267Y-18659573D01*
X9644969Y-18890122D01*
X9641322Y-18898472D01*
X9554581Y-19144099D01*
X9552175Y-19152894D01*
X9509733Y-19368225D01*
X508500Y-19368225D01*
X508500Y-17746695D01*
X1177251Y-17746695D01*
X1177548Y-17751848D01*
X1177548Y-17751851D01*
X1188892Y-17948586D01*
X1190110Y-17969715D01*
X1191247Y-17974761D01*
X1191248Y-17974767D01*
X1204694Y-18034429D01*
X1239222Y-18187639D01*
X1277461Y-18281811D01*
X1316433Y-18377787D01*
X1323266Y-18394616D01*
X1325965Y-18399020D01*
X1436025Y-18578622D01*
X1439987Y-18585088D01*
X1586250Y-18753938D01*
X1758126Y-18896632D01*
X1951000Y-19009338D01*
X2159692Y-19089030D01*
X2164760Y-19090061D01*
X2164763Y-19090062D01*
X2272017Y-19111883D01*
X2378597Y-19133567D01*
X2383772Y-19133757D01*
X2383774Y-19133757D01*
X2596673Y-19141564D01*
X2596677Y-19141564D01*
X2601837Y-19141753D01*
X2606957Y-19141097D01*
X2606959Y-19141097D01*
X2818288Y-19114025D01*
X2818289Y-19114025D01*
X2823416Y-19113368D01*
X2873840Y-19098240D01*
X3032429Y-19050661D01*
X3032434Y-19050659D01*
X3037384Y-19049174D01*
X3237994Y-18950896D01*
X3419860Y-18821173D01*
X3578096Y-18663489D01*
X3586465Y-18651843D01*
X3705435Y-18486277D01*
X3708453Y-18482077D01*
X3715452Y-18467917D01*
X3805136Y-18286453D01*
X3805137Y-18286451D01*
X3807430Y-18281811D01*
X3872370Y-18068069D01*
X3901529Y-17846590D01*
X3901896Y-17831588D01*
X3903074Y-17783365D01*
X3903074Y-17783361D01*
X3903156Y-17780000D01*
X3897029Y-17705469D01*
X4287095Y-17705469D01*
X4287392Y-17710622D01*
X4287392Y-17710625D01*
X4295232Y-17846590D01*
X4300427Y-17936697D01*
X4301564Y-17941743D01*
X4301565Y-17941749D01*
X4328877Y-18062939D01*
X4351346Y-18162642D01*
X4353288Y-18167424D01*
X4353289Y-18167428D01*
X4436540Y-18372450D01*
X4438484Y-18377237D01*
X4559501Y-18574719D01*
X4711147Y-18749784D01*
X4800747Y-18824171D01*
X4884046Y-18893327D01*
X4889349Y-18897730D01*
X5089322Y-19014584D01*
X5305694Y-19097209D01*
X5310760Y-19098240D01*
X5310761Y-19098240D01*
X5363846Y-19109040D01*
X5532656Y-19143385D01*
X5663324Y-19148176D01*
X5758949Y-19151683D01*
X5758953Y-19151683D01*
X5764113Y-19151872D01*
X5769233Y-19151216D01*
X5769235Y-19151216D01*
X5848224Y-19141097D01*
X5993847Y-19122442D01*
X5998795Y-19120957D01*
X5998802Y-19120956D01*
X6210747Y-19057369D01*
X6215690Y-19055886D01*
X6296236Y-19016427D01*
X6419049Y-18956262D01*
X6419052Y-18956260D01*
X6423684Y-18953991D01*
X6612243Y-18819494D01*
X6776303Y-18656005D01*
X6911458Y-18467917D01*
X6924650Y-18441226D01*
X7011784Y-18264922D01*
X7011785Y-18264920D01*
X7014078Y-18260280D01*
X7081408Y-18038671D01*
X7111640Y-17809041D01*
X7111921Y-17797527D01*
X7113245Y-17743365D01*
X7113245Y-17743361D01*
X7113327Y-17740000D01*
X7110488Y-17705469D01*
X22067095Y-17705469D01*
X22067392Y-17710622D01*
X22067392Y-17710625D01*
X22075232Y-17846590D01*
X22080427Y-17936697D01*
X22081564Y-17941743D01*
X22081565Y-17941749D01*
X22108877Y-18062939D01*
X22131346Y-18162642D01*
X22133288Y-18167424D01*
X22133289Y-18167428D01*
X22216540Y-18372450D01*
X22218484Y-18377237D01*
X22339501Y-18574719D01*
X22491147Y-18749784D01*
X22580747Y-18824171D01*
X22664046Y-18893327D01*
X22669349Y-18897730D01*
X22869322Y-19014584D01*
X23085694Y-19097209D01*
X23090760Y-19098240D01*
X23090761Y-19098240D01*
X23143846Y-19109040D01*
X23312656Y-19143385D01*
X23443324Y-19148176D01*
X23538949Y-19151683D01*
X23538953Y-19151683D01*
X23544113Y-19151872D01*
X23549233Y-19151216D01*
X23549235Y-19151216D01*
X23628224Y-19141097D01*
X23773847Y-19122442D01*
X23778795Y-19120957D01*
X23778802Y-19120956D01*
X23990747Y-19057369D01*
X23995690Y-19055886D01*
X24076236Y-19016427D01*
X24199049Y-18956262D01*
X24199052Y-18956260D01*
X24203684Y-18953991D01*
X24392243Y-18819494D01*
X24556303Y-18656005D01*
X24691458Y-18467917D01*
X24704650Y-18441226D01*
X24791784Y-18264922D01*
X24791785Y-18264920D01*
X24794078Y-18260280D01*
X24861408Y-18038671D01*
X24891640Y-17809041D01*
X24891921Y-17797527D01*
X24893164Y-17746695D01*
X36737251Y-17746695D01*
X36737548Y-17751848D01*
X36737548Y-17751851D01*
X36748892Y-17948586D01*
X36750110Y-17969715D01*
X36751247Y-17974761D01*
X36751248Y-17974767D01*
X36764694Y-18034429D01*
X36799222Y-18187639D01*
X36837461Y-18281811D01*
X36876433Y-18377787D01*
X36883266Y-18394616D01*
X36885965Y-18399020D01*
X36996025Y-18578622D01*
X36999987Y-18585088D01*
X37146250Y-18753938D01*
X37318126Y-18896632D01*
X37511000Y-19009338D01*
X37719692Y-19089030D01*
X37724760Y-19090061D01*
X37724763Y-19090062D01*
X37832017Y-19111883D01*
X37938597Y-19133567D01*
X37943772Y-19133757D01*
X37943774Y-19133757D01*
X38156673Y-19141564D01*
X38156677Y-19141564D01*
X38161837Y-19141753D01*
X38166957Y-19141097D01*
X38166959Y-19141097D01*
X38378288Y-19114025D01*
X38378289Y-19114025D01*
X38383416Y-19113368D01*
X38433840Y-19098240D01*
X38592429Y-19050661D01*
X38592434Y-19050659D01*
X38597384Y-19049174D01*
X38797994Y-18950896D01*
X38979860Y-18821173D01*
X39138096Y-18663489D01*
X39146465Y-18651843D01*
X39265435Y-18486277D01*
X39268453Y-18482077D01*
X39275452Y-18467917D01*
X39365136Y-18286453D01*
X39365137Y-18286451D01*
X39367430Y-18281811D01*
X39432370Y-18068069D01*
X39461529Y-17846590D01*
X39461896Y-17831588D01*
X39463074Y-17783365D01*
X39463074Y-17783361D01*
X39463156Y-17780000D01*
X39444852Y-17557361D01*
X39390431Y-17340702D01*
X39301354Y-17135840D01*
X39180014Y-16948277D01*
X39029670Y-16783051D01*
X39025619Y-16779852D01*
X39025615Y-16779848D01*
X38858414Y-16647800D01*
X38858410Y-16647798D01*
X38854359Y-16644598D01*
X38812569Y-16621529D01*
X38762598Y-16571097D01*
X38747826Y-16501654D01*
X38772942Y-16435248D01*
X38800294Y-16408641D01*
X38975328Y-16283792D01*
X38983200Y-16277139D01*
X39134052Y-16126812D01*
X39140730Y-16118965D01*
X39265003Y-15946020D01*
X39270313Y-15937183D01*
X39364670Y-15746267D01*
X39368469Y-15736672D01*
X39430377Y-15532910D01*
X39432555Y-15522837D01*
X39433986Y-15511962D01*
X39431775Y-15497778D01*
X39418617Y-15494000D01*
X36783225Y-15494000D01*
X36769694Y-15497973D01*
X36768257Y-15507966D01*
X36798565Y-15642446D01*
X36801645Y-15652275D01*
X36881770Y-15849603D01*
X36886413Y-15858794D01*
X36997694Y-16040388D01*
X37003777Y-16048699D01*
X37143213Y-16209667D01*
X37150580Y-16216883D01*
X37314434Y-16352916D01*
X37322881Y-16358831D01*
X37391969Y-16399203D01*
X37440693Y-16450842D01*
X37453764Y-16520625D01*
X37427033Y-16586396D01*
X37386584Y-16619752D01*
X37373607Y-16626507D01*
X37369474Y-16629610D01*
X37369471Y-16629612D01*
X37199100Y-16757530D01*
X37194965Y-16760635D01*
X37040629Y-16922138D01*
X36914743Y-17106680D01*
X36899003Y-17140590D01*
X36829861Y-17289544D01*
X36820688Y-17309305D01*
X36760989Y-17524570D01*
X36737251Y-17746695D01*
X24893164Y-17746695D01*
X24893245Y-17743365D01*
X24893245Y-17743361D01*
X24893327Y-17740000D01*
X24878736Y-17562522D01*
X24874773Y-17514318D01*
X24874772Y-17514312D01*
X24874349Y-17509167D01*
X24825401Y-17314297D01*
X24819184Y-17289544D01*
X24819183Y-17289540D01*
X24817925Y-17284533D01*
X24815866Y-17279797D01*
X24727630Y-17076868D01*
X24727628Y-17076865D01*
X24725570Y-17072131D01*
X24599764Y-16877665D01*
X24443887Y-16706358D01*
X24439836Y-16703159D01*
X24439832Y-16703155D01*
X24293690Y-16587740D01*
X24252627Y-16529823D01*
X24249395Y-16458900D01*
X24285020Y-16397489D01*
X24298613Y-16386279D01*
X24337094Y-16358831D01*
X24392243Y-16319494D01*
X24556303Y-16156005D01*
X24691458Y-15967917D01*
X24738641Y-15872450D01*
X24791784Y-15764922D01*
X24791785Y-15764920D01*
X24794078Y-15760280D01*
X24861408Y-15538671D01*
X24891640Y-15309041D01*
X24893327Y-15240000D01*
X24887032Y-15163434D01*
X24874773Y-15014318D01*
X24874772Y-15014312D01*
X24874349Y-15009167D01*
X24823286Y-14805875D01*
X24819184Y-14789544D01*
X24819183Y-14789540D01*
X24817925Y-14784533D01*
X24815866Y-14779797D01*
X24727630Y-14576868D01*
X24727628Y-14576865D01*
X24725570Y-14572131D01*
X24599764Y-14377665D01*
X24536986Y-14308672D01*
X24505936Y-14244829D01*
X24514331Y-14174330D01*
X24559507Y-14119562D01*
X24585952Y-14105893D01*
X24618295Y-14093768D01*
X24618296Y-14093767D01*
X24626705Y-14090615D01*
X24743261Y-14003261D01*
X24830615Y-13886705D01*
X24881745Y-13750316D01*
X24888500Y-13688134D01*
X24888500Y-13598134D01*
X36741500Y-13598134D01*
X36748255Y-13660316D01*
X36799385Y-13796705D01*
X36886739Y-13913261D01*
X37003295Y-14000615D01*
X37011704Y-14003767D01*
X37011705Y-14003768D01*
X37120960Y-14044726D01*
X37177725Y-14087367D01*
X37202425Y-14153929D01*
X37187218Y-14223278D01*
X37167825Y-14249759D01*
X37044590Y-14378717D01*
X37038104Y-14386727D01*
X36918098Y-14562649D01*
X36913000Y-14571623D01*
X36823338Y-14764783D01*
X36819775Y-14774470D01*
X36764389Y-14974183D01*
X36765912Y-14982607D01*
X36778292Y-14986000D01*
X39418344Y-14986000D01*
X39431875Y-14982027D01*
X39433180Y-14972947D01*
X39391214Y-14805875D01*
X39387894Y-14796124D01*
X39302972Y-14600814D01*
X39298105Y-14591739D01*
X39182426Y-14412926D01*
X39176136Y-14404757D01*
X39032293Y-14246677D01*
X39001241Y-14182831D01*
X39009635Y-14112333D01*
X39054812Y-14057564D01*
X39081256Y-14043895D01*
X39188297Y-14003767D01*
X39196705Y-14000615D01*
X39313261Y-13913261D01*
X39400615Y-13796705D01*
X39451745Y-13660316D01*
X39458500Y-13598134D01*
X39458500Y-11801866D01*
X39451745Y-11739684D01*
X39400615Y-11603295D01*
X39313261Y-11486739D01*
X39196705Y-11399385D01*
X39060316Y-11348255D01*
X38998134Y-11341500D01*
X37201866Y-11341500D01*
X37139684Y-11348255D01*
X37003295Y-11399385D01*
X36886739Y-11486739D01*
X36799385Y-11603295D01*
X36748255Y-11739684D01*
X36741500Y-11801866D01*
X36741500Y-13598134D01*
X24888500Y-13598134D01*
X24888500Y-11791866D01*
X24881745Y-11729684D01*
X24830615Y-11593295D01*
X24743261Y-11476739D01*
X24626705Y-11389385D01*
X24490316Y-11338255D01*
X24428134Y-11331500D01*
X22531866Y-11331500D01*
X22469684Y-11338255D01*
X22333295Y-11389385D01*
X22216739Y-11476739D01*
X22129385Y-11593295D01*
X22078255Y-11729684D01*
X22071500Y-11791866D01*
X22071500Y-13688134D01*
X22078255Y-13750316D01*
X22129385Y-13886705D01*
X22216739Y-14003261D01*
X22333295Y-14090615D01*
X22341703Y-14093767D01*
X22373022Y-14105508D01*
X22429786Y-14148150D01*
X22454486Y-14214711D01*
X22439279Y-14284060D01*
X22419886Y-14310540D01*
X22381639Y-14350564D01*
X22251119Y-14541899D01*
X22153602Y-14751981D01*
X22091707Y-14975169D01*
X22067095Y-15205469D01*
X22067392Y-15210622D01*
X22067392Y-15210625D01*
X22073067Y-15309041D01*
X22080427Y-15436697D01*
X22081564Y-15441743D01*
X22081565Y-15441749D01*
X22113741Y-15584523D01*
X22131346Y-15662642D01*
X22133288Y-15667424D01*
X22133289Y-15667428D01*
X22207263Y-15849603D01*
X22218484Y-15877237D01*
X22339501Y-16074719D01*
X22491147Y-16249784D01*
X22622495Y-16358831D01*
X22666462Y-16395333D01*
X22706097Y-16454235D01*
X22707595Y-16525216D01*
X22670481Y-16585739D01*
X22661630Y-16593037D01*
X22588693Y-16647800D01*
X22541655Y-16683117D01*
X22381639Y-16850564D01*
X22378725Y-16854836D01*
X22378724Y-16854837D01*
X22363152Y-16877665D01*
X22251119Y-17041899D01*
X22153602Y-17251981D01*
X22091707Y-17475169D01*
X22067095Y-17705469D01*
X7110488Y-17705469D01*
X7098736Y-17562522D01*
X7094773Y-17514318D01*
X7094772Y-17514312D01*
X7094349Y-17509167D01*
X7045401Y-17314297D01*
X7039184Y-17289544D01*
X7039183Y-17289540D01*
X7037925Y-17284533D01*
X7035866Y-17279797D01*
X6947630Y-17076868D01*
X6947628Y-17076865D01*
X6945570Y-17072131D01*
X6819764Y-16877665D01*
X6663887Y-16706358D01*
X6659836Y-16703159D01*
X6659832Y-16703155D01*
X6513690Y-16587740D01*
X6472627Y-16529823D01*
X6469395Y-16458900D01*
X6505020Y-16397489D01*
X6518613Y-16386279D01*
X6557094Y-16358831D01*
X6612243Y-16319494D01*
X6776303Y-16156005D01*
X6911458Y-15967917D01*
X6958641Y-15872450D01*
X7011784Y-15764922D01*
X7011785Y-15764920D01*
X7014078Y-15760280D01*
X7081408Y-15538671D01*
X7111640Y-15309041D01*
X7113327Y-15240000D01*
X7107032Y-15163434D01*
X7094773Y-15014318D01*
X7094772Y-15014312D01*
X7094349Y-15009167D01*
X7043286Y-14805875D01*
X7039184Y-14789544D01*
X7039183Y-14789540D01*
X7037925Y-14784533D01*
X7035866Y-14779797D01*
X6947630Y-14576868D01*
X6947628Y-14576865D01*
X6945570Y-14572131D01*
X6819764Y-14377665D01*
X6756986Y-14308672D01*
X6725936Y-14244829D01*
X6734331Y-14174330D01*
X6779507Y-14119562D01*
X6805952Y-14105893D01*
X6838295Y-14093768D01*
X6838296Y-14093767D01*
X6846705Y-14090615D01*
X6963261Y-14003261D01*
X7050615Y-13886705D01*
X7101745Y-13750316D01*
X7108500Y-13688134D01*
X7108500Y-11791866D01*
X7101745Y-11729684D01*
X7050615Y-11593295D01*
X6963261Y-11476739D01*
X6846705Y-11389385D01*
X6710316Y-11338255D01*
X6648134Y-11331500D01*
X4751866Y-11331500D01*
X4689684Y-11338255D01*
X4553295Y-11389385D01*
X4436739Y-11476739D01*
X4349385Y-11593295D01*
X4298255Y-11729684D01*
X4291500Y-11791866D01*
X4291500Y-13688134D01*
X4298255Y-13750316D01*
X4349385Y-13886705D01*
X4436739Y-14003261D01*
X4553295Y-14090615D01*
X4561703Y-14093767D01*
X4593022Y-14105508D01*
X4649786Y-14148150D01*
X4674486Y-14214711D01*
X4659279Y-14284060D01*
X4639886Y-14310540D01*
X4601639Y-14350564D01*
X4471119Y-14541899D01*
X4373602Y-14751981D01*
X4311707Y-14975169D01*
X4287095Y-15205469D01*
X4287392Y-15210622D01*
X4287392Y-15210625D01*
X4293067Y-15309041D01*
X4300427Y-15436697D01*
X4301564Y-15441743D01*
X4301565Y-15441749D01*
X4333741Y-15584523D01*
X4351346Y-15662642D01*
X4353288Y-15667424D01*
X4353289Y-15667428D01*
X4427263Y-15849603D01*
X4438484Y-15877237D01*
X4559501Y-16074719D01*
X4711147Y-16249784D01*
X4842495Y-16358831D01*
X4886462Y-16395333D01*
X4926097Y-16454235D01*
X4927595Y-16525216D01*
X4890481Y-16585739D01*
X4881630Y-16593037D01*
X4808693Y-16647800D01*
X4761655Y-16683117D01*
X4601639Y-16850564D01*
X4598725Y-16854836D01*
X4598724Y-16854837D01*
X4583152Y-16877665D01*
X4471119Y-17041899D01*
X4373602Y-17251981D01*
X4311707Y-17475169D01*
X4287095Y-17705469D01*
X3897029Y-17705469D01*
X3884852Y-17557361D01*
X3830431Y-17340702D01*
X3741354Y-17135840D01*
X3620014Y-16948277D01*
X3469670Y-16783051D01*
X3465619Y-16779852D01*
X3465615Y-16779848D01*
X3298414Y-16647800D01*
X3298410Y-16647798D01*
X3294359Y-16644598D01*
X3252569Y-16621529D01*
X3202598Y-16571097D01*
X3187826Y-16501654D01*
X3212942Y-16435248D01*
X3240294Y-16408641D01*
X3415328Y-16283792D01*
X3423200Y-16277139D01*
X3574052Y-16126812D01*
X3580730Y-16118965D01*
X3705003Y-15946020D01*
X3710313Y-15937183D01*
X3804670Y-15746267D01*
X3808469Y-15736672D01*
X3870377Y-15532910D01*
X3872555Y-15522837D01*
X3873986Y-15511962D01*
X3871775Y-15497778D01*
X3858617Y-15494000D01*
X1223225Y-15494000D01*
X1209694Y-15497973D01*
X1208257Y-15507966D01*
X1238565Y-15642446D01*
X1241645Y-15652275D01*
X1321770Y-15849603D01*
X1326413Y-15858794D01*
X1437694Y-16040388D01*
X1443777Y-16048699D01*
X1583213Y-16209667D01*
X1590580Y-16216883D01*
X1754434Y-16352916D01*
X1762881Y-16358831D01*
X1831969Y-16399203D01*
X1880693Y-16450842D01*
X1893764Y-16520625D01*
X1867033Y-16586396D01*
X1826584Y-16619752D01*
X1813607Y-16626507D01*
X1809474Y-16629610D01*
X1809471Y-16629612D01*
X1639100Y-16757530D01*
X1634965Y-16760635D01*
X1480629Y-16922138D01*
X1354743Y-17106680D01*
X1339003Y-17140590D01*
X1269861Y-17289544D01*
X1260688Y-17309305D01*
X1200989Y-17524570D01*
X1177251Y-17746695D01*
X508500Y-17746695D01*
X508500Y-13598134D01*
X1181500Y-13598134D01*
X1188255Y-13660316D01*
X1239385Y-13796705D01*
X1326739Y-13913261D01*
X1443295Y-14000615D01*
X1451704Y-14003767D01*
X1451705Y-14003768D01*
X1560960Y-14044726D01*
X1617725Y-14087367D01*
X1642425Y-14153929D01*
X1627218Y-14223278D01*
X1607825Y-14249759D01*
X1484590Y-14378717D01*
X1478104Y-14386727D01*
X1358098Y-14562649D01*
X1353000Y-14571623D01*
X1263338Y-14764783D01*
X1259775Y-14774470D01*
X1204389Y-14974183D01*
X1205912Y-14982607D01*
X1218292Y-14986000D01*
X3858344Y-14986000D01*
X3871875Y-14982027D01*
X3873180Y-14972947D01*
X3831214Y-14805875D01*
X3827894Y-14796124D01*
X3742972Y-14600814D01*
X3738105Y-14591739D01*
X3622426Y-14412926D01*
X3616136Y-14404757D01*
X3472293Y-14246677D01*
X3441241Y-14182831D01*
X3449635Y-14112333D01*
X3494812Y-14057564D01*
X3521256Y-14043895D01*
X3628297Y-14003767D01*
X3636705Y-14000615D01*
X3753261Y-13913261D01*
X3840615Y-13796705D01*
X3891745Y-13660316D01*
X3898500Y-13598134D01*
X3898500Y-11801866D01*
X3891745Y-11739684D01*
X3840615Y-11603295D01*
X3753261Y-11486739D01*
X3636705Y-11399385D01*
X3500316Y-11348255D01*
X3438134Y-11341500D01*
X1641866Y-11341500D01*
X1579684Y-11348255D01*
X1443295Y-11399385D01*
X1326739Y-11486739D01*
X1239385Y-11603295D01*
X1188255Y-11739684D01*
X1181500Y-11801866D01*
X1181500Y-13598134D01*
X508500Y-13598134D01*
X508500Y-11110512D01*
X9509286Y-11110512D01*
X9512685Y-11146133D01*
X9514205Y-11155125D01*
X9576122Y-11408158D01*
X9578922Y-11416827D01*
X9676722Y-11658282D01*
X9680744Y-11666455D01*
X9812368Y-11891253D01*
X9817531Y-11898765D01*
X9980231Y-12102213D01*
X9986420Y-12108896D01*
X10176794Y-12286733D01*
X10183871Y-12292443D01*
X10397918Y-12440934D01*
X10405759Y-12445571D01*
X10638997Y-12561604D01*
X10647422Y-12565060D01*
X10894974Y-12646212D01*
X10903799Y-12648412D01*
X11161189Y-12693103D01*
X11168807Y-12693950D01*
X11248592Y-12697922D01*
X11251733Y-12698000D01*
X12427885Y-12698000D01*
X12443124Y-12693525D01*
X12444329Y-12692135D01*
X12446000Y-12684452D01*
X12446000Y-12679885D01*
X12954000Y-12679885D01*
X12958475Y-12695124D01*
X12959865Y-12696329D01*
X12967548Y-12698000D01*
X14116206Y-12698000D01*
X14120777Y-12697835D01*
X14314380Y-12683787D01*
X14323389Y-12682473D01*
X14577769Y-12626311D01*
X14586499Y-12623708D01*
X14830107Y-12531414D01*
X14838368Y-12527579D01*
X15066101Y-12401085D01*
X15073726Y-12396095D01*
X15280809Y-12238054D01*
X15287636Y-12232014D01*
X15469735Y-12045736D01*
X15475618Y-12038774D01*
X15628922Y-11828157D01*
X15633733Y-11820427D01*
X15755031Y-11589878D01*
X15758678Y-11581528D01*
X15845419Y-11335901D01*
X15847825Y-11327106D01*
X15890267Y-11111775D01*
X15890152Y-11110512D01*
X27289286Y-11110512D01*
X27292685Y-11146133D01*
X27294205Y-11155125D01*
X27356122Y-11408158D01*
X27358922Y-11416827D01*
X27456722Y-11658282D01*
X27460744Y-11666455D01*
X27592368Y-11891253D01*
X27597531Y-11898765D01*
X27760231Y-12102213D01*
X27766420Y-12108896D01*
X27956794Y-12286733D01*
X27963871Y-12292443D01*
X28177918Y-12440934D01*
X28185759Y-12445571D01*
X28418997Y-12561604D01*
X28427422Y-12565060D01*
X28674974Y-12646212D01*
X28683799Y-12648412D01*
X28941189Y-12693103D01*
X28948807Y-12693950D01*
X29028592Y-12697922D01*
X29031733Y-12698000D01*
X30207885Y-12698000D01*
X30223124Y-12693525D01*
X30224329Y-12692135D01*
X30226000Y-12684452D01*
X30226000Y-12679885D01*
X30734000Y-12679885D01*
X30738475Y-12695124D01*
X30739865Y-12696329D01*
X30747548Y-12698000D01*
X31896206Y-12698000D01*
X31900777Y-12697835D01*
X32094380Y-12683787D01*
X32103389Y-12682473D01*
X32357769Y-12626311D01*
X32366499Y-12623708D01*
X32610107Y-12531414D01*
X32618368Y-12527579D01*
X32846101Y-12401085D01*
X32853726Y-12396095D01*
X33060809Y-12238054D01*
X33067636Y-12232014D01*
X33249735Y-12045736D01*
X33255618Y-12038774D01*
X33408922Y-11828157D01*
X33413733Y-11820427D01*
X33535031Y-11589878D01*
X33538678Y-11581528D01*
X33625419Y-11335901D01*
X33627825Y-11327106D01*
X33670267Y-11111775D01*
X33669088Y-11098863D01*
X33653985Y-11094000D01*
X30752115Y-11094000D01*
X30736876Y-11098475D01*
X30735671Y-11099865D01*
X30734000Y-11107548D01*
X30734000Y-12679885D01*
X30226000Y-12679885D01*
X30226000Y-11112115D01*
X30221525Y-11096876D01*
X30220135Y-11095671D01*
X30212452Y-11094000D01*
X27305826Y-11094000D01*
X27291349Y-11098251D01*
X27289286Y-11110512D01*
X15890152Y-11110512D01*
X15889088Y-11098863D01*
X15873985Y-11094000D01*
X12972115Y-11094000D01*
X12956876Y-11098475D01*
X12955671Y-11099865D01*
X12954000Y-11107548D01*
X12954000Y-12679885D01*
X12446000Y-12679885D01*
X12446000Y-11112115D01*
X12441525Y-11096876D01*
X12440135Y-11095671D01*
X12432452Y-11094000D01*
X9525826Y-11094000D01*
X9511349Y-11098251D01*
X9509286Y-11110512D01*
X508500Y-11110512D01*
X508500Y-10568225D01*
X9509733Y-10568225D01*
X9510912Y-10581137D01*
X9526015Y-10586000D01*
X12427885Y-10586000D01*
X12443124Y-10581525D01*
X12444329Y-10580135D01*
X12446000Y-10572452D01*
X12446000Y-10567885D01*
X12954000Y-10567885D01*
X12958475Y-10583124D01*
X12959865Y-10584329D01*
X12967548Y-10586000D01*
X15874174Y-10586000D01*
X15888651Y-10581749D01*
X15890714Y-10569488D01*
X15890593Y-10568225D01*
X27289733Y-10568225D01*
X27290912Y-10581137D01*
X27306015Y-10586000D01*
X30207885Y-10586000D01*
X30223124Y-10581525D01*
X30224329Y-10580135D01*
X30226000Y-10572452D01*
X30226000Y-10567885D01*
X30734000Y-10567885D01*
X30738475Y-10583124D01*
X30739865Y-10584329D01*
X30747548Y-10586000D01*
X33654174Y-10586000D01*
X33668651Y-10581749D01*
X33670714Y-10569488D01*
X33667315Y-10533867D01*
X33665795Y-10524875D01*
X33603878Y-10271842D01*
X33601078Y-10263173D01*
X33503278Y-10021718D01*
X33499256Y-10013545D01*
X33367632Y-9788747D01*
X33362469Y-9781235D01*
X33199769Y-9577787D01*
X33193580Y-9571104D01*
X33003206Y-9393267D01*
X32996129Y-9387557D01*
X32782082Y-9239066D01*
X32774241Y-9234429D01*
X32541003Y-9118396D01*
X32532578Y-9114940D01*
X32285026Y-9033788D01*
X32276201Y-9031588D01*
X32018811Y-8986897D01*
X32011193Y-8986050D01*
X31931408Y-8982078D01*
X31928267Y-8982000D01*
X30752115Y-8982000D01*
X30736876Y-8986475D01*
X30735671Y-8987865D01*
X30734000Y-8995548D01*
X30734000Y-10567885D01*
X30226000Y-10567885D01*
X30226000Y-9000115D01*
X30221525Y-8984876D01*
X30220135Y-8983671D01*
X30212452Y-8982000D01*
X29063794Y-8982000D01*
X29059223Y-8982165D01*
X28865620Y-8996213D01*
X28856611Y-8997527D01*
X28602231Y-9053689D01*
X28593501Y-9056292D01*
X28349893Y-9148586D01*
X28341632Y-9152421D01*
X28113899Y-9278915D01*
X28106274Y-9283905D01*
X27899191Y-9441946D01*
X27892364Y-9447986D01*
X27710265Y-9634264D01*
X27704382Y-9641226D01*
X27551078Y-9851843D01*
X27546267Y-9859573D01*
X27424969Y-10090122D01*
X27421322Y-10098472D01*
X27334581Y-10344099D01*
X27332175Y-10352894D01*
X27289733Y-10568225D01*
X15890593Y-10568225D01*
X15887315Y-10533867D01*
X15885795Y-10524875D01*
X15823878Y-10271842D01*
X15821078Y-10263173D01*
X15723278Y-10021718D01*
X15719256Y-10013545D01*
X15587632Y-9788747D01*
X15582469Y-9781235D01*
X15419769Y-9577787D01*
X15413580Y-9571104D01*
X15223206Y-9393267D01*
X15216129Y-9387557D01*
X15002082Y-9239066D01*
X14994241Y-9234429D01*
X14761003Y-9118396D01*
X14752578Y-9114940D01*
X14505026Y-9033788D01*
X14496201Y-9031588D01*
X14238811Y-8986897D01*
X14231193Y-8986050D01*
X14151408Y-8982078D01*
X14148267Y-8982000D01*
X12972115Y-8982000D01*
X12956876Y-8986475D01*
X12955671Y-8987865D01*
X12954000Y-8995548D01*
X12954000Y-10567885D01*
X12446000Y-10567885D01*
X12446000Y-9000115D01*
X12441525Y-8984876D01*
X12440135Y-8983671D01*
X12432452Y-8982000D01*
X11283794Y-8982000D01*
X11279223Y-8982165D01*
X11085620Y-8996213D01*
X11076611Y-8997527D01*
X10822231Y-9053689D01*
X10813501Y-9056292D01*
X10569893Y-9148586D01*
X10561632Y-9152421D01*
X10333899Y-9278915D01*
X10326274Y-9283905D01*
X10119191Y-9441946D01*
X10112364Y-9447986D01*
X9930265Y-9634264D01*
X9924382Y-9641226D01*
X9771078Y-9851843D01*
X9766267Y-9859573D01*
X9644969Y-10090122D01*
X9641322Y-10098472D01*
X9554581Y-10344099D01*
X9552175Y-10352894D01*
X9509733Y-10568225D01*
X508500Y-10568225D01*
X508500Y-5212703D01*
X2970743Y-5212703D01*
X3008268Y-5497734D01*
X3084129Y-5775036D01*
X3085813Y-5778984D01*
X3190628Y-6024717D01*
X3196923Y-6039476D01*
X3266571Y-6155850D01*
X3317138Y-6240340D01*
X3344561Y-6286161D01*
X3524313Y-6510528D01*
X3732851Y-6708423D01*
X3966317Y-6876186D01*
X3970112Y-6878195D01*
X3970113Y-6878196D01*
X3991869Y-6889715D01*
X4220392Y-7010712D01*
X4490373Y-7109511D01*
X4771264Y-7170755D01*
X4799841Y-7173004D01*
X4994282Y-7188307D01*
X4994291Y-7188307D01*
X4996739Y-7188500D01*
X5152271Y-7188500D01*
X5154407Y-7188354D01*
X5154418Y-7188354D01*
X5362548Y-7174165D01*
X5362554Y-7174164D01*
X5366825Y-7173873D01*
X5371020Y-7173004D01*
X5371022Y-7173004D01*
X5507584Y-7144723D01*
X5648342Y-7115574D01*
X5919343Y-7019607D01*
X6174812Y-6887750D01*
X6178313Y-6885289D01*
X6178317Y-6885287D01*
X6292417Y-6805096D01*
X6410023Y-6722441D01*
X6620622Y-6526740D01*
X6802713Y-6304268D01*
X6952927Y-6059142D01*
X6966539Y-6028134D01*
X17641500Y-6028134D01*
X17648255Y-6090316D01*
X17699385Y-6226705D01*
X17786739Y-6343261D01*
X17903295Y-6430615D01*
X18039684Y-6481745D01*
X18101866Y-6488500D01*
X19998134Y-6488500D01*
X20060316Y-6481745D01*
X20196705Y-6430615D01*
X20313261Y-6343261D01*
X20400615Y-6226705D01*
X20425180Y-6161178D01*
X20467822Y-6104414D01*
X20534383Y-6079714D01*
X20603732Y-6094921D01*
X20623647Y-6108464D01*
X20688724Y-6162492D01*
X20779349Y-6237730D01*
X20979322Y-6354584D01*
X21195694Y-6437209D01*
X21200760Y-6438240D01*
X21200761Y-6438240D01*
X21253846Y-6449040D01*
X21422656Y-6483385D01*
X21552089Y-6488131D01*
X21648949Y-6491683D01*
X21648953Y-6491683D01*
X21654113Y-6491872D01*
X21659233Y-6491216D01*
X21659235Y-6491216D01*
X21733166Y-6481745D01*
X21883847Y-6462442D01*
X21888795Y-6460957D01*
X21888802Y-6460956D01*
X22100747Y-6397369D01*
X22105690Y-6395886D01*
X22186236Y-6356427D01*
X22309049Y-6296262D01*
X22309052Y-6296260D01*
X22313684Y-6293991D01*
X22502243Y-6159494D01*
X22666303Y-5996005D01*
X22801458Y-5807917D01*
X22809439Y-5791770D01*
X22901784Y-5604922D01*
X22901785Y-5604920D01*
X22904078Y-5600280D01*
X22971408Y-5378671D01*
X22993259Y-5212703D01*
X33450743Y-5212703D01*
X33488268Y-5497734D01*
X33564129Y-5775036D01*
X33565813Y-5778984D01*
X33670628Y-6024717D01*
X33676923Y-6039476D01*
X33746571Y-6155850D01*
X33797138Y-6240340D01*
X33824561Y-6286161D01*
X34004313Y-6510528D01*
X34212851Y-6708423D01*
X34446317Y-6876186D01*
X34450112Y-6878195D01*
X34450113Y-6878196D01*
X34471869Y-6889715D01*
X34700392Y-7010712D01*
X34970373Y-7109511D01*
X35251264Y-7170755D01*
X35279841Y-7173004D01*
X35474282Y-7188307D01*
X35474291Y-7188307D01*
X35476739Y-7188500D01*
X35632271Y-7188500D01*
X35634407Y-7188354D01*
X35634418Y-7188354D01*
X35842548Y-7174165D01*
X35842554Y-7174164D01*
X35846825Y-7173873D01*
X35851020Y-7173004D01*
X35851022Y-7173004D01*
X35987584Y-7144723D01*
X36128342Y-7115574D01*
X36399343Y-7019607D01*
X36654812Y-6887750D01*
X36658313Y-6885289D01*
X36658317Y-6885287D01*
X36772417Y-6805096D01*
X36890023Y-6722441D01*
X37100622Y-6526740D01*
X37282713Y-6304268D01*
X37432927Y-6059142D01*
X37548483Y-5795898D01*
X37627244Y-5519406D01*
X37667751Y-5234784D01*
X37667845Y-5216951D01*
X37669235Y-4951583D01*
X37669235Y-4951576D01*
X37669257Y-4947297D01*
X37631732Y-4662266D01*
X37621410Y-4624533D01*
X37557003Y-4389103D01*
X37555871Y-4384964D01*
X37493673Y-4239144D01*
X37444763Y-4124476D01*
X37444761Y-4124472D01*
X37443077Y-4120524D01*
X37311285Y-3900315D01*
X37297643Y-3877521D01*
X37297640Y-3877517D01*
X37295439Y-3873839D01*
X37115687Y-3649472D01*
X36907149Y-3451577D01*
X36673683Y-3283814D01*
X36651843Y-3272250D01*
X36628654Y-3259972D01*
X36419608Y-3149288D01*
X36149627Y-3050489D01*
X35868736Y-2989245D01*
X35837685Y-2986801D01*
X35645718Y-2971693D01*
X35645709Y-2971693D01*
X35643261Y-2971500D01*
X35487729Y-2971500D01*
X35485593Y-2971646D01*
X35485582Y-2971646D01*
X35277452Y-2985835D01*
X35277446Y-2985836D01*
X35273175Y-2986127D01*
X35268980Y-2986996D01*
X35268978Y-2986996D01*
X35132417Y-3015276D01*
X34991658Y-3044426D01*
X34720657Y-3140393D01*
X34465188Y-3272250D01*
X34461687Y-3274711D01*
X34461683Y-3274713D01*
X34451594Y-3281804D01*
X34229977Y-3437559D01*
X34019378Y-3633260D01*
X33837287Y-3855732D01*
X33687073Y-4100858D01*
X33571517Y-4364102D01*
X33570342Y-4368229D01*
X33570341Y-4368230D01*
X33556486Y-4416868D01*
X33492756Y-4640594D01*
X33452249Y-4925216D01*
X33452227Y-4929505D01*
X33452226Y-4929512D01*
X33451263Y-5113421D01*
X33450743Y-5212703D01*
X22993259Y-5212703D01*
X23001640Y-5149041D01*
X23002310Y-5121621D01*
X23003245Y-5083365D01*
X23003245Y-5083361D01*
X23003327Y-5080000D01*
X22990955Y-4929512D01*
X22984773Y-4854318D01*
X22984772Y-4854312D01*
X22984349Y-4849167D01*
X22937403Y-4662266D01*
X22929184Y-4629544D01*
X22929183Y-4629540D01*
X22927925Y-4624533D01*
X22835570Y-4412131D01*
X22709764Y-4217665D01*
X22553887Y-4046358D01*
X22549836Y-4043159D01*
X22549832Y-4043155D01*
X22376177Y-3906011D01*
X22376172Y-3906008D01*
X22372123Y-3902810D01*
X22367607Y-3900317D01*
X22367604Y-3900315D01*
X22173879Y-3793373D01*
X22173875Y-3793371D01*
X22169355Y-3790876D01*
X22164486Y-3789152D01*
X22164482Y-3789150D01*
X21955903Y-3715288D01*
X21955899Y-3715287D01*
X21951028Y-3713562D01*
X21945935Y-3712655D01*
X21945932Y-3712654D01*
X21728095Y-3673851D01*
X21728089Y-3673850D01*
X21723006Y-3672945D01*
X21650096Y-3672054D01*
X21496581Y-3670179D01*
X21496579Y-3670179D01*
X21491411Y-3670116D01*
X21262464Y-3705150D01*
X21042314Y-3777106D01*
X21037726Y-3779494D01*
X21037722Y-3779496D01*
X20856491Y-3873839D01*
X20836872Y-3884052D01*
X20832739Y-3887155D01*
X20832736Y-3887157D01*
X20760088Y-3941703D01*
X20651655Y-4023117D01*
X20634170Y-4041414D01*
X20572646Y-4076844D01*
X20501733Y-4073387D01*
X20443947Y-4032141D01*
X20425094Y-3998592D01*
X20403768Y-3941705D01*
X20403767Y-3941703D01*
X20400615Y-3933295D01*
X20313261Y-3816739D01*
X20196705Y-3729385D01*
X20060316Y-3678255D01*
X19998134Y-3671500D01*
X18101866Y-3671500D01*
X18039684Y-3678255D01*
X17903295Y-3729385D01*
X17786739Y-3816739D01*
X17699385Y-3933295D01*
X17648255Y-4069684D01*
X17641500Y-4131866D01*
X17641500Y-6028134D01*
X6966539Y-6028134D01*
X7068483Y-5795898D01*
X7147244Y-5519406D01*
X7187751Y-5234784D01*
X7187845Y-5216951D01*
X7189235Y-4951583D01*
X7189235Y-4951576D01*
X7189257Y-4947297D01*
X7151732Y-4662266D01*
X7141410Y-4624533D01*
X7077003Y-4389103D01*
X7075871Y-4384964D01*
X7013673Y-4239144D01*
X6964763Y-4124476D01*
X6964761Y-4124472D01*
X6963077Y-4120524D01*
X6831285Y-3900315D01*
X6817643Y-3877521D01*
X6817640Y-3877517D01*
X6815439Y-3873839D01*
X6635687Y-3649472D01*
X6427149Y-3451577D01*
X6193683Y-3283814D01*
X6171843Y-3272250D01*
X6148654Y-3259972D01*
X5939608Y-3149288D01*
X5669627Y-3050489D01*
X5388736Y-2989245D01*
X5357685Y-2986801D01*
X5165718Y-2971693D01*
X5165709Y-2971693D01*
X5163261Y-2971500D01*
X5007729Y-2971500D01*
X5005593Y-2971646D01*
X5005582Y-2971646D01*
X4797452Y-2985835D01*
X4797446Y-2985836D01*
X4793175Y-2986127D01*
X4788980Y-2986996D01*
X4788978Y-2986996D01*
X4652417Y-3015276D01*
X4511658Y-3044426D01*
X4240657Y-3140393D01*
X3985188Y-3272250D01*
X3981687Y-3274711D01*
X3981683Y-3274713D01*
X3971594Y-3281804D01*
X3749977Y-3437559D01*
X3539378Y-3633260D01*
X3357287Y-3855732D01*
X3207073Y-4100858D01*
X3091517Y-4364102D01*
X3090342Y-4368229D01*
X3090341Y-4368230D01*
X3076486Y-4416868D01*
X3012756Y-4640594D01*
X2972249Y-4925216D01*
X2972227Y-4929505D01*
X2972226Y-4929512D01*
X2971263Y-5113421D01*
X2970743Y-5212703D01*
X508500Y-5212703D01*
X508500Y-5133250D01*
X510246Y-5112345D01*
X512770Y-5097344D01*
X512770Y-5097341D01*
X513576Y-5092552D01*
X513729Y-5080000D01*
X513039Y-5075184D01*
X513039Y-5075178D01*
X511387Y-5063644D01*
X510234Y-5040284D01*
X514480Y-4943049D01*
X525656Y-4687063D01*
X526614Y-4676114D01*
X577233Y-4291621D01*
X579142Y-4280795D01*
X663080Y-3902178D01*
X665925Y-3891561D01*
X735193Y-3671869D01*
X782542Y-3521698D01*
X786298Y-3511377D01*
X812105Y-3449074D01*
X934715Y-3153068D01*
X939357Y-3143115D01*
X986808Y-3051964D01*
X1118424Y-2799132D01*
X1123919Y-2789613D01*
X1332292Y-2462532D01*
X1338597Y-2453528D01*
X1574678Y-2145862D01*
X1581743Y-2137442D01*
X1843744Y-1851517D01*
X1851517Y-1843744D01*
X2137442Y-1581743D01*
X2145862Y-1574678D01*
X2453528Y-1338597D01*
X2462532Y-1332292D01*
X2789613Y-1123919D01*
X2799133Y-1118423D01*
X3143124Y-939353D01*
X3153068Y-934715D01*
X3511385Y-786295D01*
X3521698Y-782542D01*
X3721298Y-719608D01*
X3891561Y-665925D01*
X3902178Y-663080D01*
X4280795Y-579142D01*
X4291621Y-577233D01*
X4676114Y-526614D01*
X4687063Y-525656D01*
X5036554Y-510397D01*
X5061429Y-511777D01*
X5073724Y-513691D01*
X5082626Y-512527D01*
X5082628Y-512527D01*
X5101399Y-510072D01*
X5105286Y-509564D01*
X5121621Y-508500D01*
X35510633Y-508500D01*
X35530018Y-510000D01*
G37*
%TD.AperFunction*%
%TD*%
M02*
