%TF.GenerationSoftware,KiCad,Pcbnew,(6.0.9-0)*%
%TF.CreationDate,2024-11-07T13:03:10+01:00*%
%TF.ProjectId,attenuverters,61747465-6e75-4766-9572-746572732e6b,rev?*%
%TF.SameCoordinates,Original*%
%TF.FileFunction,Copper,L4,Bot*%
%TF.FilePolarity,Positive*%
%FSLAX46Y46*%
G04 Gerber Fmt 4.6, Leading zero omitted, Abs format (unit mm)*
G04 Created by KiCad (PCBNEW (6.0.9-0)) date 2024-11-07 13:03:10*
%MOMM*%
%LPD*%
G01*
G04 APERTURE LIST*
%TA.AperFunction,ComponentPad*%
%ADD10C,1.800000*%
%TD*%
%TA.AperFunction,ComponentPad*%
%ADD11R,1.800000X1.800000*%
%TD*%
%TA.AperFunction,ComponentPad*%
%ADD12O,1.700000X1.700000*%
%TD*%
%TA.AperFunction,ComponentPad*%
%ADD13R,1.700000X1.700000*%
%TD*%
%TA.AperFunction,ComponentPad*%
%ADD14O,5.400000X2.700000*%
%TD*%
%TA.AperFunction,ComponentPad*%
%ADD15C,5.500000*%
%TD*%
%TA.AperFunction,ViaPad*%
%ADD16C,0.700000*%
%TD*%
%TA.AperFunction,Conductor*%
%ADD17C,0.500000*%
%TD*%
%TA.AperFunction,Conductor*%
%ADD18C,0.800000*%
%TD*%
G04 APERTURE END LIST*
D10*
%TO.P,D2,2,AK*%
%TO.N,Net-(D2-Pad2)*%
X21590000Y-53340000D03*
D11*
%TO.P,D2,1,KA*%
%TO.N,Net-(D2-Pad1)*%
X19050000Y-53340000D03*
%TD*%
D10*
%TO.P,D1,2,AK*%
%TO.N,Net-(D1-Pad2)*%
X21590000Y-5080000D03*
D11*
%TO.P,D1,1,KA*%
%TO.N,Net-(D1-Pad1)*%
X19050000Y-5080000D03*
%TD*%
D12*
%TO.P,J1,3,Pin_3*%
%TO.N,/Out1*%
X2540000Y-17780000D03*
%TO.P,J1,2,Pin_2*%
%TO.N,/GND*%
X2540000Y-15240000D03*
D13*
%TO.P,J1,1,Pin_1*%
%TO.N,/In1*%
X2540000Y-12700000D03*
%TD*%
D10*
%TO.P,RV3,3,3*%
%TO.N,Net-(R6-Pad1)*%
X23480000Y-17740000D03*
%TO.P,RV3,2,2*%
%TO.N,Net-(R9-Pad2)*%
X23480000Y-15240000D03*
D11*
%TO.P,RV3,1,1*%
%TO.N,Net-(R5-Pad2)*%
X23480000Y-12740000D03*
D14*
%TO.P,RV3,0,ShieldPin*%
%TO.N,/GND*%
X30480000Y-10840000D03*
X30480000Y-19640000D03*
%TD*%
D10*
%TO.P,RV1,3,3*%
%TO.N,/+4.5V*%
X5700000Y-17740000D03*
%TO.P,RV1,2,2*%
%TO.N,Net-(RV1-Pad2)*%
X5700000Y-15240000D03*
D11*
%TO.P,RV1,1,1*%
%TO.N,/In1*%
X5700000Y-12740000D03*
D14*
%TO.P,RV1,0,ShieldPin*%
%TO.N,/GND*%
X12700000Y-10840000D03*
X12700000Y-19640000D03*
%TD*%
D12*
%TO.P,J2,3,Pin_3*%
%TO.N,/+4.5V*%
X2540000Y-33020000D03*
%TO.P,J2,2,Pin_2*%
%TO.N,/GND*%
X2540000Y-30480000D03*
D13*
%TO.P,J2,1,Pin_1*%
%TO.N,/+9V*%
X2540000Y-27940000D03*
%TD*%
D12*
%TO.P,J6,3,Pin_3*%
%TO.N,/Out2*%
X2540000Y-45720000D03*
%TO.P,J6,2,Pin_2*%
%TO.N,/GND*%
X2540000Y-43180000D03*
D13*
%TO.P,J6,1,Pin_1*%
%TO.N,/In2*%
X2540000Y-40640000D03*
%TD*%
D10*
%TO.P,RV2,3,3*%
%TO.N,/+4.5V*%
X5700000Y-45680000D03*
%TO.P,RV2,2,2*%
%TO.N,Net-(RV2-Pad2)*%
X5700000Y-43180000D03*
D11*
%TO.P,RV2,1,1*%
%TO.N,/In2*%
X5700000Y-40680000D03*
D14*
%TO.P,RV2,0,ShieldPin*%
%TO.N,/GND*%
X12700000Y-47580000D03*
X12700000Y-38780000D03*
%TD*%
D12*
%TO.P,J5,3,Pin_3*%
%TO.N,/+4.5V*%
X38100000Y-33020000D03*
%TO.P,J5,2,Pin_2*%
%TO.N,/GND*%
X38100000Y-30480000D03*
D13*
%TO.P,J5,1,Pin_1*%
%TO.N,/+9V*%
X38100000Y-27940000D03*
%TD*%
D15*
%TO.P,H1,1,1*%
%TO.N,/GND*%
X35560000Y-53340000D03*
%TD*%
D12*
%TO.P,J3,3,Pin_3*%
%TO.N,/Out2*%
X38100000Y-45720000D03*
%TO.P,J3,2,Pin_2*%
%TO.N,/GND*%
X38100000Y-43180000D03*
D13*
%TO.P,J3,1,Pin_1*%
%TO.N,/In2*%
X38100000Y-40640000D03*
%TD*%
D12*
%TO.P,J4,3,Pin_3*%
%TO.N,/Out1*%
X38100000Y-17780000D03*
%TO.P,J4,2,Pin_2*%
%TO.N,/GND*%
X38100000Y-15240000D03*
D13*
%TO.P,J4,1,Pin_1*%
%TO.N,/In1*%
X38100000Y-12700000D03*
%TD*%
D15*
%TO.P,H3,1,1*%
%TO.N,/GND*%
X5080000Y-53340000D03*
%TD*%
D10*
%TO.P,RV4,3,3*%
%TO.N,Net-(R8-Pad1)*%
X23480000Y-45680000D03*
%TO.P,RV4,2,2*%
%TO.N,Net-(R11-Pad2)*%
X23480000Y-43180000D03*
D11*
%TO.P,RV4,1,1*%
%TO.N,Net-(R7-Pad1)*%
X23480000Y-40680000D03*
D14*
%TO.P,RV4,0,ShieldPin*%
%TO.N,/GND*%
X30480000Y-38780000D03*
X30480000Y-47580000D03*
%TD*%
D16*
%TO.N,Net-(C1-Pad1)*%
X19050000Y-20955000D03*
X23230497Y-20955000D03*
%TO.N,/+9V*%
X13041500Y-26924000D03*
X23368000Y-35941000D03*
X23368000Y-33147000D03*
%TO.N,/GND*%
X34417000Y-29337000D03*
X32131000Y-22352000D03*
X28829000Y-44412500D03*
X26797000Y-25400000D03*
X18034000Y-20955000D03*
X21590000Y-48387000D03*
X13462000Y-30607000D03*
X19685000Y-14097000D03*
X3683000Y-24892000D03*
X24130000Y-20955000D03*
X26543000Y-21336000D03*
X7747000Y-38608000D03*
%TO.N,/+4.5V*%
X12192000Y-25654000D03*
X26543000Y-22479000D03*
X31115000Y-22352000D03*
X14732000Y-30607000D03*
X28321000Y-36703000D03*
X29337000Y-36703000D03*
%TO.N,/Out1*%
X4826000Y-24892000D03*
%TO.N,/In2*%
X7747000Y-37338000D03*
%TO.N,/Out2*%
X28194000Y-45212000D03*
%TD*%
D17*
%TO.N,Net-(C1-Pad1)*%
X23230497Y-20955000D02*
X19050000Y-20955000D01*
D18*
%TO.N,/+9V*%
X2540000Y-27940000D02*
X3556000Y-26924000D01*
X3556000Y-26924000D02*
X37084000Y-26924000D01*
X37084000Y-26924000D02*
X38100000Y-27940000D01*
D17*
X23368000Y-35941000D02*
X23368000Y-33147000D01*
D18*
%TO.N,/In1*%
X38100000Y-12700000D02*
X38100000Y-10795000D01*
X5080000Y-7874000D02*
X2540000Y-10414000D01*
X38100000Y-10795000D02*
X35179000Y-7874000D01*
X35179000Y-7874000D02*
X5080000Y-7874000D01*
X2540000Y-10414000D02*
X2540000Y-12700000D01*
D17*
%TO.N,/Out1*%
X23749000Y-24638000D02*
X5080000Y-24638000D01*
X32131000Y-23749000D02*
X24638000Y-23749000D01*
X5080000Y-24638000D02*
X4826000Y-24892000D01*
X24638000Y-23749000D02*
X23749000Y-24638000D01*
X38100000Y-17780000D02*
X32131000Y-23749000D01*
D18*
%TO.N,/In2*%
X21336000Y-37846000D02*
X19431000Y-35941000D01*
X28194000Y-41656000D02*
X24384000Y-37846000D01*
X38100000Y-40640000D02*
X37084000Y-41656000D01*
X37084000Y-41656000D02*
X28194000Y-41656000D01*
X9144000Y-35941000D02*
X7747000Y-37338000D01*
X19431000Y-35941000D02*
X9144000Y-35941000D01*
X24384000Y-37846000D02*
X21336000Y-37846000D01*
%TO.N,/Out2*%
X2540000Y-45720000D02*
X6477000Y-49657000D01*
X6477000Y-49657000D02*
X34671000Y-49657000D01*
D17*
X37592000Y-45212000D02*
X38100000Y-45720000D01*
D18*
X38100000Y-46228000D02*
X38100000Y-45720000D01*
X34671000Y-49657000D02*
X38100000Y-46228000D01*
D17*
X28194000Y-45212000D02*
X37592000Y-45212000D01*
%TD*%
%TA.AperFunction,Conductor*%
%TO.N,/+4.5V*%
G36*
X35530018Y-510000D02*
G01*
X35544851Y-512310D01*
X35544855Y-512310D01*
X35553724Y-513691D01*
X35574183Y-511016D01*
X35596008Y-510072D01*
X35952937Y-525656D01*
X35963886Y-526614D01*
X36348379Y-577233D01*
X36359205Y-579142D01*
X36737822Y-663080D01*
X36748439Y-665925D01*
X36918702Y-719608D01*
X37118302Y-782542D01*
X37128615Y-786295D01*
X37486932Y-934715D01*
X37496876Y-939353D01*
X37840867Y-1118423D01*
X37850387Y-1123919D01*
X38177468Y-1332292D01*
X38186472Y-1338597D01*
X38494138Y-1574678D01*
X38502558Y-1581743D01*
X38788483Y-1843744D01*
X38796256Y-1851517D01*
X39058257Y-2137442D01*
X39065322Y-2145862D01*
X39301403Y-2453528D01*
X39307708Y-2462532D01*
X39516081Y-2789613D01*
X39521576Y-2799132D01*
X39653193Y-3051964D01*
X39700643Y-3143115D01*
X39705285Y-3153068D01*
X39827895Y-3449074D01*
X39853702Y-3511377D01*
X39857458Y-3521698D01*
X39904807Y-3671869D01*
X39974075Y-3891561D01*
X39976920Y-3902178D01*
X40060858Y-4280795D01*
X40062767Y-4291621D01*
X40113386Y-4676114D01*
X40114344Y-4687063D01*
X40125521Y-4943049D01*
X40129603Y-5036552D01*
X40128223Y-5061429D01*
X40126309Y-5073724D01*
X40127473Y-5082626D01*
X40127473Y-5082628D01*
X40130436Y-5105283D01*
X40131500Y-5121621D01*
X40131500Y-53290633D01*
X40130000Y-53310018D01*
X40127690Y-53324851D01*
X40127690Y-53324855D01*
X40126309Y-53333724D01*
X40128984Y-53354183D01*
X40129928Y-53376012D01*
X40114344Y-53732936D01*
X40113386Y-53743886D01*
X40062767Y-54128379D01*
X40060858Y-54139205D01*
X39976920Y-54517822D01*
X39974075Y-54528439D01*
X39934607Y-54653616D01*
X39904691Y-54748500D01*
X39857461Y-54898294D01*
X39853705Y-54908615D01*
X39799200Y-55040203D01*
X39705289Y-55266923D01*
X39700647Y-55276876D01*
X39544815Y-55576227D01*
X39521577Y-55620867D01*
X39516081Y-55630387D01*
X39307708Y-55957468D01*
X39301403Y-55966472D01*
X39065322Y-56274138D01*
X39058257Y-56282558D01*
X38800858Y-56563461D01*
X38796256Y-56568483D01*
X38788487Y-56576252D01*
X38732699Y-56627372D01*
X38502558Y-56838257D01*
X38494138Y-56845322D01*
X38186472Y-57081403D01*
X38177468Y-57087708D01*
X37850387Y-57296081D01*
X37840868Y-57301576D01*
X37496876Y-57480647D01*
X37486932Y-57485285D01*
X37128615Y-57633705D01*
X37118302Y-57637458D01*
X36918702Y-57700392D01*
X36748439Y-57754075D01*
X36737822Y-57756920D01*
X36359205Y-57840858D01*
X36348379Y-57842767D01*
X35963886Y-57893386D01*
X35952937Y-57894344D01*
X35603446Y-57909603D01*
X35578571Y-57908223D01*
X35566276Y-57906309D01*
X35557374Y-57907473D01*
X35557372Y-57907473D01*
X35542323Y-57909441D01*
X35534714Y-57910436D01*
X35518379Y-57911500D01*
X5129367Y-57911500D01*
X5109982Y-57910000D01*
X5095149Y-57907690D01*
X5095145Y-57907690D01*
X5086276Y-57906309D01*
X5065817Y-57908984D01*
X5043992Y-57909928D01*
X4687063Y-57894344D01*
X4676114Y-57893386D01*
X4291621Y-57842767D01*
X4280795Y-57840858D01*
X3902178Y-57756920D01*
X3891561Y-57754075D01*
X3721298Y-57700392D01*
X3521698Y-57637458D01*
X3511385Y-57633705D01*
X3153068Y-57485285D01*
X3143124Y-57480647D01*
X2799132Y-57301576D01*
X2789613Y-57296081D01*
X2462532Y-57087708D01*
X2453528Y-57081403D01*
X2145862Y-56845322D01*
X2137442Y-56838257D01*
X1907301Y-56627372D01*
X1851513Y-56576252D01*
X1843744Y-56568483D01*
X1839143Y-56563461D01*
X1581743Y-56282558D01*
X1574678Y-56274138D01*
X1338597Y-55966472D01*
X1332292Y-55957468D01*
X1123919Y-55630387D01*
X1118423Y-55620867D01*
X1095185Y-55576227D01*
X939353Y-55276876D01*
X934711Y-55266923D01*
X840801Y-55040203D01*
X786295Y-54908615D01*
X782539Y-54898294D01*
X735310Y-54748500D01*
X705393Y-54653616D01*
X665925Y-54528439D01*
X663080Y-54517822D01*
X579142Y-54139205D01*
X577233Y-54128379D01*
X526614Y-53743886D01*
X525656Y-53732936D01*
X510561Y-53387208D01*
X512188Y-53360805D01*
X512769Y-53357352D01*
X512770Y-53357345D01*
X513576Y-53352552D01*
X513729Y-53340000D01*
X509773Y-53312376D01*
X508500Y-53294514D01*
X508500Y-45686695D01*
X1177251Y-45686695D01*
X1177548Y-45691848D01*
X1177548Y-45691851D01*
X1188866Y-45888132D01*
X1190110Y-45909715D01*
X1191247Y-45914761D01*
X1191248Y-45914767D01*
X1210290Y-45999260D01*
X1239222Y-46127639D01*
X1323266Y-46334616D01*
X1325965Y-46339020D01*
X1436025Y-46518622D01*
X1439987Y-46525088D01*
X1586250Y-46693938D01*
X1668824Y-46762492D01*
X1750043Y-46829921D01*
X1758126Y-46836632D01*
X1951000Y-46949338D01*
X2159692Y-47029030D01*
X2164760Y-47030061D01*
X2164763Y-47030062D01*
X2272379Y-47051957D01*
X2378597Y-47073567D01*
X2383772Y-47073757D01*
X2383774Y-47073757D01*
X2568043Y-47080514D01*
X2635385Y-47102999D01*
X2652521Y-47117334D01*
X5407318Y-49872131D01*
X5441344Y-49934443D01*
X5436279Y-50005258D01*
X5393732Y-50062094D01*
X5327212Y-50086905D01*
X5304399Y-50086465D01*
X5284985Y-50084322D01*
X5265543Y-50082175D01*
X5265538Y-50082175D01*
X5262162Y-50081802D01*
X5258763Y-50081796D01*
X5258762Y-50081796D01*
X5092289Y-50081506D01*
X4909213Y-50081186D01*
X4778206Y-50095187D01*
X4561646Y-50118330D01*
X4561640Y-50118331D01*
X4558262Y-50118692D01*
X4213414Y-50193881D01*
X3878704Y-50305873D01*
X3558047Y-50453359D01*
X3255194Y-50634613D01*
X2973687Y-50847515D01*
X2716820Y-51089574D01*
X2487598Y-51357959D01*
X2288702Y-51649530D01*
X2281886Y-51662295D01*
X2134537Y-51938255D01*
X2122458Y-51960876D01*
X2121183Y-51964048D01*
X2121181Y-51964052D01*
X1992919Y-52283117D01*
X1990813Y-52288355D01*
X1989894Y-52291623D01*
X1989892Y-52291630D01*
X1931562Y-52499144D01*
X1895304Y-52628136D01*
X1894743Y-52631489D01*
X1894742Y-52631493D01*
X1888668Y-52667793D01*
X1837051Y-52976245D01*
X1816734Y-53328609D01*
X1816906Y-53332004D01*
X1816906Y-53332005D01*
X1817557Y-53344860D01*
X1834591Y-53681106D01*
X1835128Y-53684461D01*
X1835129Y-53684467D01*
X1850240Y-53778807D01*
X1890412Y-54029613D01*
X1983546Y-54370053D01*
X2112903Y-54698443D01*
X2114486Y-54701458D01*
X2275384Y-55007926D01*
X2275389Y-55007934D01*
X2276968Y-55010942D01*
X2278862Y-55013760D01*
X2278867Y-55013769D01*
X2298518Y-55043012D01*
X2473824Y-55303895D01*
X2701167Y-55573873D01*
X2703627Y-55576224D01*
X2703630Y-55576227D01*
X2953875Y-55815366D01*
X2953882Y-55815372D01*
X2956338Y-55817719D01*
X3236351Y-56032581D01*
X3239269Y-56034355D01*
X3535017Y-56214173D01*
X3535022Y-56214176D01*
X3537932Y-56215945D01*
X3541020Y-56217391D01*
X3541019Y-56217391D01*
X3854468Y-56364222D01*
X3854478Y-56364226D01*
X3857552Y-56365666D01*
X3860770Y-56366768D01*
X3860773Y-56366769D01*
X4188241Y-56478887D01*
X4188245Y-56478888D01*
X4191472Y-56479993D01*
X4194802Y-56480743D01*
X4194811Y-56480746D01*
X4438164Y-56535587D01*
X4535786Y-56557587D01*
X4539171Y-56557973D01*
X4539179Y-56557974D01*
X4883083Y-56597157D01*
X4883091Y-56597157D01*
X4886466Y-56597542D01*
X4889870Y-56597560D01*
X4889873Y-56597560D01*
X5081627Y-56598564D01*
X5239411Y-56599390D01*
X5242797Y-56599040D01*
X5242799Y-56599040D01*
X5587098Y-56563461D01*
X5587107Y-56563460D01*
X5590490Y-56563110D01*
X5593823Y-56562396D01*
X5593826Y-56562395D01*
X5763692Y-56525979D01*
X5935598Y-56489125D01*
X6270697Y-56378301D01*
X6591867Y-56231936D01*
X6685405Y-56176397D01*
X6892407Y-56053489D01*
X6892412Y-56053486D01*
X6895352Y-56051740D01*
X6920870Y-56032581D01*
X7174867Y-55841874D01*
X7177600Y-55839822D01*
X7435310Y-55598661D01*
X7665468Y-55331078D01*
X7865380Y-55040203D01*
X7866992Y-55037209D01*
X7866997Y-55037201D01*
X7989092Y-54810445D01*
X8032709Y-54729440D01*
X8165498Y-54402422D01*
X8173816Y-54373223D01*
X8198054Y-54288134D01*
X17641500Y-54288134D01*
X17648255Y-54350316D01*
X17699385Y-54486705D01*
X17786739Y-54603261D01*
X17903295Y-54690615D01*
X18039684Y-54741745D01*
X18101866Y-54748500D01*
X19998134Y-54748500D01*
X20060316Y-54741745D01*
X20196705Y-54690615D01*
X20313261Y-54603261D01*
X20400615Y-54486705D01*
X20425180Y-54421178D01*
X20467822Y-54364414D01*
X20534383Y-54339714D01*
X20603732Y-54354921D01*
X20623647Y-54368464D01*
X20688724Y-54422492D01*
X20779349Y-54497730D01*
X20979322Y-54614584D01*
X21195694Y-54697209D01*
X21200760Y-54698240D01*
X21200761Y-54698240D01*
X21201759Y-54698443D01*
X21422656Y-54743385D01*
X21552089Y-54748131D01*
X21648949Y-54751683D01*
X21648953Y-54751683D01*
X21654113Y-54751872D01*
X21659233Y-54751216D01*
X21659235Y-54751216D01*
X21733166Y-54741745D01*
X21883847Y-54722442D01*
X21888795Y-54720957D01*
X21888802Y-54720956D01*
X22100747Y-54657369D01*
X22105690Y-54655886D01*
X22186236Y-54616427D01*
X22309049Y-54556262D01*
X22309052Y-54556260D01*
X22313684Y-54553991D01*
X22502243Y-54419494D01*
X22666303Y-54256005D01*
X22801458Y-54067917D01*
X22818764Y-54032902D01*
X22901784Y-53864922D01*
X22901785Y-53864920D01*
X22904078Y-53860280D01*
X22971408Y-53638671D01*
X23001640Y-53409041D01*
X23001722Y-53405691D01*
X23003245Y-53343365D01*
X23003245Y-53343361D01*
X23003327Y-53340000D01*
X22997032Y-53263434D01*
X22984773Y-53114318D01*
X22984772Y-53114312D01*
X22984349Y-53109167D01*
X22927925Y-52884533D01*
X22835570Y-52672131D01*
X22709764Y-52477665D01*
X22553887Y-52306358D01*
X22549836Y-52303159D01*
X22549832Y-52303155D01*
X22376177Y-52166011D01*
X22376172Y-52166008D01*
X22372123Y-52162810D01*
X22367607Y-52160317D01*
X22367604Y-52160315D01*
X22173879Y-52053373D01*
X22173875Y-52053371D01*
X22169355Y-52050876D01*
X22164486Y-52049152D01*
X22164482Y-52049150D01*
X21955903Y-51975288D01*
X21955899Y-51975287D01*
X21951028Y-51973562D01*
X21945935Y-51972655D01*
X21945932Y-51972654D01*
X21728095Y-51933851D01*
X21728089Y-51933850D01*
X21723006Y-51932945D01*
X21650096Y-51932054D01*
X21496581Y-51930179D01*
X21496579Y-51930179D01*
X21491411Y-51930116D01*
X21262464Y-51965150D01*
X21042314Y-52037106D01*
X21037726Y-52039494D01*
X21037722Y-52039496D01*
X20841461Y-52141663D01*
X20836872Y-52144052D01*
X20832739Y-52147155D01*
X20832736Y-52147157D01*
X20760088Y-52201703D01*
X20651655Y-52283117D01*
X20639368Y-52295975D01*
X20634170Y-52301414D01*
X20572646Y-52336844D01*
X20501733Y-52333387D01*
X20443947Y-52292141D01*
X20425094Y-52258592D01*
X20403768Y-52201705D01*
X20403767Y-52201703D01*
X20400615Y-52193295D01*
X20313261Y-52076739D01*
X20196705Y-51989385D01*
X20060316Y-51938255D01*
X19998134Y-51931500D01*
X18101866Y-51931500D01*
X18039684Y-51938255D01*
X17903295Y-51989385D01*
X17786739Y-52076739D01*
X17699385Y-52193295D01*
X17648255Y-52329684D01*
X17641500Y-52391866D01*
X17641500Y-54288134D01*
X8198054Y-54288134D01*
X8242007Y-54133833D01*
X8262191Y-54062976D01*
X8321659Y-53715073D01*
X8323945Y-53677711D01*
X8343096Y-53364580D01*
X8343206Y-53362782D01*
X8343269Y-53344860D01*
X8343280Y-53341819D01*
X8343280Y-53341806D01*
X8343286Y-53340000D01*
X8324199Y-52987567D01*
X8267161Y-52639257D01*
X8172839Y-52299145D01*
X8169849Y-52291630D01*
X8043597Y-51974372D01*
X8042338Y-51971208D01*
X7877182Y-51659283D01*
X7870579Y-51649530D01*
X7681211Y-51369834D01*
X7681204Y-51369825D01*
X7679305Y-51367020D01*
X7677109Y-51364430D01*
X7677104Y-51364424D01*
X7588715Y-51260201D01*
X7451021Y-51097837D01*
X7195001Y-50854883D01*
X7112099Y-50791729D01*
X7070033Y-50734538D01*
X7065564Y-50663682D01*
X7100112Y-50601658D01*
X7162708Y-50568159D01*
X7188455Y-50565500D01*
X33451092Y-50565500D01*
X33519213Y-50585502D01*
X33565706Y-50639158D01*
X33575810Y-50709432D01*
X33546316Y-50774012D01*
X33527096Y-50791995D01*
X33456421Y-50845446D01*
X33456409Y-50845456D01*
X33453687Y-50847515D01*
X33196820Y-51089574D01*
X32967598Y-51357959D01*
X32768702Y-51649530D01*
X32761886Y-51662295D01*
X32614537Y-51938255D01*
X32602458Y-51960876D01*
X32601183Y-51964048D01*
X32601181Y-51964052D01*
X32472919Y-52283117D01*
X32470813Y-52288355D01*
X32469894Y-52291623D01*
X32469892Y-52291630D01*
X32411562Y-52499144D01*
X32375304Y-52628136D01*
X32374743Y-52631489D01*
X32374742Y-52631493D01*
X32368668Y-52667793D01*
X32317051Y-52976245D01*
X32296734Y-53328609D01*
X32296906Y-53332004D01*
X32296906Y-53332005D01*
X32297557Y-53344860D01*
X32314591Y-53681106D01*
X32315128Y-53684461D01*
X32315129Y-53684467D01*
X32330240Y-53778807D01*
X32370412Y-54029613D01*
X32463546Y-54370053D01*
X32592903Y-54698443D01*
X32594486Y-54701458D01*
X32755384Y-55007926D01*
X32755389Y-55007934D01*
X32756968Y-55010942D01*
X32758862Y-55013760D01*
X32758867Y-55013769D01*
X32778518Y-55043012D01*
X32953824Y-55303895D01*
X33181167Y-55573873D01*
X33183627Y-55576224D01*
X33183630Y-55576227D01*
X33433875Y-55815366D01*
X33433882Y-55815372D01*
X33436338Y-55817719D01*
X33716351Y-56032581D01*
X33719269Y-56034355D01*
X34015017Y-56214173D01*
X34015022Y-56214176D01*
X34017932Y-56215945D01*
X34021020Y-56217391D01*
X34021019Y-56217391D01*
X34334468Y-56364222D01*
X34334478Y-56364226D01*
X34337552Y-56365666D01*
X34340770Y-56366768D01*
X34340773Y-56366769D01*
X34668241Y-56478887D01*
X34668245Y-56478888D01*
X34671472Y-56479993D01*
X34674802Y-56480743D01*
X34674811Y-56480746D01*
X34918164Y-56535587D01*
X35015786Y-56557587D01*
X35019171Y-56557973D01*
X35019179Y-56557974D01*
X35363083Y-56597157D01*
X35363091Y-56597157D01*
X35366466Y-56597542D01*
X35369870Y-56597560D01*
X35369873Y-56597560D01*
X35561627Y-56598564D01*
X35719411Y-56599390D01*
X35722797Y-56599040D01*
X35722799Y-56599040D01*
X36067098Y-56563461D01*
X36067107Y-56563460D01*
X36070490Y-56563110D01*
X36073823Y-56562396D01*
X36073826Y-56562395D01*
X36243692Y-56525979D01*
X36415598Y-56489125D01*
X36750697Y-56378301D01*
X37071867Y-56231936D01*
X37165405Y-56176397D01*
X37372407Y-56053489D01*
X37372412Y-56053486D01*
X37375352Y-56051740D01*
X37400870Y-56032581D01*
X37654867Y-55841874D01*
X37657600Y-55839822D01*
X37915310Y-55598661D01*
X38145468Y-55331078D01*
X38345380Y-55040203D01*
X38346992Y-55037209D01*
X38346997Y-55037201D01*
X38469092Y-54810445D01*
X38512709Y-54729440D01*
X38645498Y-54402422D01*
X38653816Y-54373223D01*
X38722007Y-54133833D01*
X38742191Y-54062976D01*
X38801659Y-53715073D01*
X38803945Y-53677711D01*
X38823096Y-53364580D01*
X38823206Y-53362782D01*
X38823269Y-53344860D01*
X38823280Y-53341819D01*
X38823280Y-53341806D01*
X38823286Y-53340000D01*
X38804199Y-52987567D01*
X38747161Y-52639257D01*
X38652839Y-52299145D01*
X38649849Y-52291630D01*
X38523597Y-51974372D01*
X38522338Y-51971208D01*
X38357182Y-51659283D01*
X38350579Y-51649530D01*
X38161211Y-51369834D01*
X38161204Y-51369825D01*
X38159305Y-51367020D01*
X38157109Y-51364430D01*
X38157104Y-51364424D01*
X38068715Y-51260201D01*
X37931021Y-51097837D01*
X37675001Y-50854883D01*
X37672294Y-50852821D01*
X37672286Y-50852814D01*
X37424013Y-50663682D01*
X37394239Y-50641000D01*
X37092020Y-50458689D01*
X37088930Y-50457255D01*
X37088925Y-50457252D01*
X36931950Y-50384387D01*
X36771879Y-50310085D01*
X36768654Y-50308993D01*
X36768648Y-50308991D01*
X36440798Y-50198020D01*
X36440793Y-50198018D01*
X36437562Y-50196925D01*
X36423832Y-50193881D01*
X36354730Y-50178562D01*
X36092979Y-50120533D01*
X35812813Y-50089602D01*
X35747299Y-50062246D01*
X35706975Y-50003812D01*
X35704643Y-49932854D01*
X35737545Y-49875268D01*
X38634024Y-46978789D01*
X38667685Y-46954734D01*
X38797994Y-46890896D01*
X38979860Y-46761173D01*
X38987737Y-46753324D01*
X39134435Y-46607137D01*
X39138096Y-46603489D01*
X39197594Y-46520689D01*
X39265435Y-46426277D01*
X39268453Y-46422077D01*
X39275452Y-46407917D01*
X39365136Y-46226453D01*
X39365137Y-46226451D01*
X39367430Y-46221811D01*
X39405168Y-46097600D01*
X39430865Y-46013023D01*
X39430865Y-46013021D01*
X39432370Y-46008069D01*
X39461529Y-45786590D01*
X39461877Y-45772349D01*
X39463074Y-45723365D01*
X39463074Y-45723361D01*
X39463156Y-45720000D01*
X39444852Y-45497361D01*
X39390431Y-45280702D01*
X39301354Y-45075840D01*
X39180014Y-44888277D01*
X39029670Y-44723051D01*
X39025619Y-44719852D01*
X39025615Y-44719848D01*
X38858414Y-44587800D01*
X38858410Y-44587798D01*
X38854359Y-44584598D01*
X38813053Y-44561796D01*
X38763084Y-44511364D01*
X38748312Y-44441921D01*
X38773428Y-44375516D01*
X38800780Y-44348909D01*
X38869875Y-44299624D01*
X38979860Y-44221173D01*
X39138096Y-44063489D01*
X39143715Y-44055670D01*
X39265435Y-43886277D01*
X39268453Y-43882077D01*
X39323353Y-43770996D01*
X39365136Y-43686453D01*
X39365137Y-43686451D01*
X39367430Y-43681811D01*
X39432370Y-43468069D01*
X39461529Y-43246590D01*
X39463156Y-43180000D01*
X39444852Y-42957361D01*
X39390431Y-42740702D01*
X39301354Y-42535840D01*
X39222062Y-42413273D01*
X39182822Y-42352617D01*
X39182820Y-42352614D01*
X39180014Y-42348277D01*
X39163143Y-42329736D01*
X39032798Y-42186488D01*
X39001746Y-42122642D01*
X39010141Y-42052143D01*
X39055317Y-41997375D01*
X39081761Y-41983706D01*
X39188297Y-41943767D01*
X39196705Y-41940615D01*
X39313261Y-41853261D01*
X39400615Y-41736705D01*
X39451745Y-41600316D01*
X39458500Y-41538134D01*
X39458500Y-39741866D01*
X39451745Y-39679684D01*
X39400615Y-39543295D01*
X39313261Y-39426739D01*
X39196705Y-39339385D01*
X39060316Y-39288255D01*
X38998134Y-39281500D01*
X37201866Y-39281500D01*
X37139684Y-39288255D01*
X37003295Y-39339385D01*
X36886739Y-39426739D01*
X36799385Y-39543295D01*
X36748255Y-39679684D01*
X36741500Y-39741866D01*
X36741500Y-40621500D01*
X36721498Y-40689621D01*
X36667842Y-40736114D01*
X36615500Y-40747500D01*
X32571010Y-40747500D01*
X32502889Y-40727498D01*
X32456396Y-40673842D01*
X32446292Y-40603568D01*
X32475786Y-40538988D01*
X32526370Y-40503673D01*
X32610314Y-40471870D01*
X32610323Y-40471866D01*
X32614588Y-40470250D01*
X32850368Y-40339286D01*
X33064773Y-40175657D01*
X33253312Y-39982792D01*
X33412034Y-39764730D01*
X33496653Y-39603895D01*
X33535490Y-39530079D01*
X33535493Y-39530073D01*
X33537615Y-39526039D01*
X33571891Y-39428980D01*
X33625902Y-39276033D01*
X33625902Y-39276032D01*
X33627425Y-39271720D01*
X33679581Y-39007100D01*
X33688782Y-38822277D01*
X33692764Y-38742292D01*
X33692764Y-38742286D01*
X33692991Y-38737723D01*
X33667375Y-38469231D01*
X33663138Y-38451913D01*
X33604355Y-38211688D01*
X33603269Y-38207250D01*
X33502015Y-37957267D01*
X33365735Y-37724518D01*
X33245708Y-37574432D01*
X33200136Y-37517447D01*
X33200135Y-37517445D01*
X33197284Y-37513881D01*
X33000191Y-37329766D01*
X32778584Y-37176032D01*
X32774501Y-37174001D01*
X32774498Y-37173999D01*
X32605226Y-37089788D01*
X32537106Y-37055899D01*
X32532772Y-37054478D01*
X32532769Y-37054477D01*
X32285147Y-36973302D01*
X32285141Y-36973301D01*
X32280814Y-36971882D01*
X32276322Y-36971102D01*
X32018860Y-36926399D01*
X32018852Y-36926398D01*
X32015079Y-36925743D01*
X32003817Y-36925182D01*
X31931422Y-36921578D01*
X31931414Y-36921578D01*
X31929851Y-36921500D01*
X29061488Y-36921500D01*
X29059220Y-36921665D01*
X29059208Y-36921665D01*
X28928116Y-36931177D01*
X28860996Y-36936047D01*
X28856541Y-36937031D01*
X28856538Y-36937031D01*
X28602088Y-36993209D01*
X28602084Y-36993210D01*
X28597628Y-36994194D01*
X28557411Y-37009431D01*
X28349682Y-37088132D01*
X28349679Y-37088133D01*
X28345412Y-37089750D01*
X28109632Y-37220714D01*
X27895227Y-37384343D01*
X27706688Y-37577208D01*
X27547966Y-37795270D01*
X27545844Y-37799304D01*
X27424510Y-38029921D01*
X27424507Y-38029927D01*
X27422385Y-38033961D01*
X27420865Y-38038266D01*
X27420863Y-38038270D01*
X27345680Y-38251170D01*
X27332575Y-38288280D01*
X27331692Y-38292762D01*
X27283104Y-38539278D01*
X27280419Y-38552900D01*
X27280192Y-38557453D01*
X27280192Y-38557456D01*
X27268429Y-38793754D01*
X27267009Y-38822277D01*
X27292625Y-39090769D01*
X27293710Y-39095203D01*
X27293711Y-39095209D01*
X27308343Y-39155003D01*
X27305106Y-39225925D01*
X27264038Y-39283839D01*
X27198180Y-39310356D01*
X27128440Y-39297059D01*
X27096859Y-39274046D01*
X25083981Y-37261168D01*
X25071140Y-37246135D01*
X25066746Y-37240087D01*
X25066745Y-37240086D01*
X25062866Y-37234747D01*
X25012041Y-37188984D01*
X25007256Y-37184443D01*
X24992741Y-37169928D01*
X24985282Y-37163888D01*
X24976784Y-37157006D01*
X24971769Y-37152722D01*
X24925855Y-37111381D01*
X24925850Y-37111377D01*
X24920944Y-37106960D01*
X24915228Y-37103660D01*
X24915224Y-37103657D01*
X24908763Y-37099927D01*
X24892466Y-37088727D01*
X24886660Y-37084025D01*
X24886658Y-37084024D01*
X24881530Y-37079871D01*
X24820577Y-37048814D01*
X24814782Y-37045667D01*
X24761279Y-37014777D01*
X24761278Y-37014776D01*
X24755556Y-37011473D01*
X24749274Y-37009432D01*
X24749272Y-37009431D01*
X24742174Y-37007125D01*
X24723907Y-36999559D01*
X24711370Y-36993171D01*
X24645299Y-36975467D01*
X24638997Y-36973600D01*
X24573928Y-36952458D01*
X24567363Y-36951768D01*
X24567354Y-36951766D01*
X24559925Y-36950985D01*
X24540491Y-36947383D01*
X24533286Y-36945453D01*
X24533284Y-36945453D01*
X24526903Y-36943743D01*
X24520312Y-36943398D01*
X24520308Y-36943397D01*
X24458616Y-36940164D01*
X24452042Y-36939647D01*
X24434884Y-36937844D01*
X24434882Y-36937844D01*
X24431610Y-36937500D01*
X24411074Y-36937500D01*
X24404480Y-36937327D01*
X24342782Y-36934093D01*
X24342777Y-36934093D01*
X24336190Y-36933748D01*
X24322292Y-36935949D01*
X24302583Y-36937500D01*
X23833311Y-36937500D01*
X23765190Y-36917498D01*
X23718697Y-36863842D01*
X23708593Y-36793568D01*
X23738087Y-36728988D01*
X23782063Y-36696393D01*
X23793582Y-36691265D01*
X23793589Y-36691261D01*
X23799615Y-36688578D01*
X23945613Y-36582504D01*
X24066367Y-36448393D01*
X24156599Y-36292107D01*
X24212365Y-36120475D01*
X24231229Y-35941000D01*
X24212365Y-35761525D01*
X24156599Y-35589893D01*
X24143380Y-35566998D01*
X24126500Y-35503999D01*
X24126500Y-33584001D01*
X24143380Y-33521002D01*
X24156599Y-33498107D01*
X24212365Y-33326475D01*
X24215977Y-33292115D01*
X24216413Y-33287966D01*
X36768257Y-33287966D01*
X36798565Y-33422446D01*
X36801645Y-33432275D01*
X36881770Y-33629603D01*
X36886413Y-33638794D01*
X36997694Y-33820388D01*
X37003777Y-33828699D01*
X37143213Y-33989667D01*
X37150580Y-33996883D01*
X37314434Y-34132916D01*
X37322881Y-34138831D01*
X37506756Y-34246279D01*
X37516042Y-34250729D01*
X37715001Y-34326703D01*
X37724899Y-34329579D01*
X37828250Y-34350606D01*
X37842299Y-34349410D01*
X37846000Y-34339065D01*
X37846000Y-34338517D01*
X38354000Y-34338517D01*
X38358064Y-34352359D01*
X38371478Y-34354393D01*
X38378184Y-34353534D01*
X38388262Y-34351392D01*
X38592255Y-34290191D01*
X38601842Y-34286433D01*
X38793095Y-34192739D01*
X38801945Y-34187464D01*
X38975328Y-34063792D01*
X38983200Y-34057139D01*
X39134052Y-33906812D01*
X39140730Y-33898965D01*
X39265003Y-33726020D01*
X39270313Y-33717183D01*
X39364670Y-33526267D01*
X39368469Y-33516672D01*
X39430377Y-33312910D01*
X39432555Y-33302837D01*
X39433986Y-33291962D01*
X39431775Y-33277778D01*
X39418617Y-33274000D01*
X38372115Y-33274000D01*
X38356876Y-33278475D01*
X38355671Y-33279865D01*
X38354000Y-33287548D01*
X38354000Y-34338517D01*
X37846000Y-34338517D01*
X37846000Y-33292115D01*
X37841525Y-33276876D01*
X37840135Y-33275671D01*
X37832452Y-33274000D01*
X36783225Y-33274000D01*
X36769694Y-33277973D01*
X36768257Y-33287966D01*
X24216413Y-33287966D01*
X24230539Y-33153565D01*
X24231229Y-33147000D01*
X24212365Y-32967525D01*
X24156599Y-32795893D01*
X24066367Y-32639607D01*
X23945613Y-32505496D01*
X23799615Y-32399422D01*
X23793587Y-32396738D01*
X23793585Y-32396737D01*
X23640783Y-32328705D01*
X23640781Y-32328705D01*
X23634752Y-32326020D01*
X23546492Y-32307260D01*
X23464689Y-32289872D01*
X23464685Y-32289872D01*
X23458232Y-32288500D01*
X23277768Y-32288500D01*
X23271315Y-32289872D01*
X23271311Y-32289872D01*
X23189508Y-32307260D01*
X23101248Y-32326020D01*
X23095219Y-32328704D01*
X23095217Y-32328705D01*
X22942416Y-32396737D01*
X22942414Y-32396738D01*
X22936386Y-32399422D01*
X22931045Y-32403302D01*
X22931044Y-32403303D01*
X22795731Y-32501613D01*
X22795729Y-32501615D01*
X22790387Y-32505496D01*
X22669633Y-32639607D01*
X22579401Y-32795893D01*
X22523635Y-32967525D01*
X22504771Y-33147000D01*
X22505461Y-33153565D01*
X22520024Y-33292115D01*
X22523635Y-33326475D01*
X22579401Y-33498107D01*
X22592620Y-33521002D01*
X22609500Y-33584001D01*
X22609500Y-35503999D01*
X22592620Y-35566998D01*
X22579401Y-35589893D01*
X22523635Y-35761525D01*
X22504771Y-35941000D01*
X22523635Y-36120475D01*
X22579401Y-36292107D01*
X22669633Y-36448393D01*
X22790387Y-36582504D01*
X22936385Y-36688578D01*
X22942411Y-36691261D01*
X22942418Y-36691265D01*
X22953937Y-36696393D01*
X23008033Y-36742373D01*
X23028683Y-36810300D01*
X23009331Y-36878608D01*
X22956121Y-36925610D01*
X22902689Y-36937500D01*
X21764503Y-36937500D01*
X21696382Y-36917498D01*
X21675408Y-36900595D01*
X20130981Y-35356168D01*
X20118140Y-35341135D01*
X20113746Y-35335087D01*
X20113745Y-35335086D01*
X20109866Y-35329747D01*
X20059041Y-35283984D01*
X20054256Y-35279443D01*
X20039741Y-35264928D01*
X20032282Y-35258888D01*
X20023784Y-35252006D01*
X20018769Y-35247722D01*
X19972855Y-35206381D01*
X19972850Y-35206377D01*
X19967944Y-35201960D01*
X19962228Y-35198660D01*
X19962224Y-35198657D01*
X19955763Y-35194927D01*
X19939466Y-35183727D01*
X19933660Y-35179025D01*
X19933658Y-35179024D01*
X19928530Y-35174871D01*
X19867577Y-35143814D01*
X19861782Y-35140667D01*
X19808279Y-35109777D01*
X19808278Y-35109776D01*
X19802556Y-35106473D01*
X19796274Y-35104432D01*
X19796272Y-35104431D01*
X19789174Y-35102125D01*
X19770907Y-35094559D01*
X19758370Y-35088171D01*
X19751989Y-35086461D01*
X19733852Y-35081601D01*
X19692299Y-35070467D01*
X19685997Y-35068600D01*
X19620928Y-35047458D01*
X19614363Y-35046768D01*
X19614354Y-35046766D01*
X19606925Y-35045985D01*
X19587491Y-35042383D01*
X19580286Y-35040453D01*
X19580284Y-35040453D01*
X19573903Y-35038743D01*
X19567312Y-35038398D01*
X19567308Y-35038397D01*
X19505616Y-35035164D01*
X19499042Y-35034647D01*
X19481884Y-35032844D01*
X19481882Y-35032844D01*
X19478610Y-35032500D01*
X19458074Y-35032500D01*
X19451480Y-35032327D01*
X19389782Y-35029093D01*
X19389777Y-35029093D01*
X19383190Y-35028748D01*
X19369292Y-35030949D01*
X19349583Y-35032500D01*
X9225416Y-35032500D01*
X9205707Y-35030949D01*
X9191809Y-35028748D01*
X9185222Y-35029093D01*
X9185217Y-35029093D01*
X9123519Y-35032327D01*
X9116925Y-35032500D01*
X9096390Y-35032500D01*
X9090222Y-35033148D01*
X9075960Y-35034647D01*
X9069385Y-35035164D01*
X9007696Y-35038397D01*
X9007695Y-35038397D01*
X9001096Y-35038743D01*
X8987508Y-35042384D01*
X8968061Y-35045988D01*
X8960644Y-35046767D01*
X8960640Y-35046768D01*
X8954072Y-35047458D01*
X8897276Y-35065912D01*
X8889009Y-35068598D01*
X8882685Y-35070471D01*
X8823010Y-35086461D01*
X8823006Y-35086462D01*
X8816630Y-35088171D01*
X8810748Y-35091168D01*
X8804093Y-35094559D01*
X8785826Y-35102125D01*
X8778728Y-35104431D01*
X8778726Y-35104432D01*
X8772444Y-35106473D01*
X8766722Y-35109776D01*
X8766721Y-35109777D01*
X8713218Y-35140667D01*
X8707423Y-35143814D01*
X8646470Y-35174871D01*
X8641342Y-35179024D01*
X8641340Y-35179025D01*
X8635534Y-35183727D01*
X8619237Y-35194927D01*
X8612776Y-35198657D01*
X8612772Y-35198660D01*
X8607056Y-35201960D01*
X8602150Y-35206377D01*
X8602145Y-35206381D01*
X8556231Y-35247722D01*
X8551216Y-35252006D01*
X8542718Y-35258888D01*
X8535259Y-35264928D01*
X8520744Y-35279443D01*
X8515959Y-35283984D01*
X8465134Y-35329747D01*
X8461255Y-35335086D01*
X8461254Y-35335087D01*
X8456860Y-35341135D01*
X8444019Y-35356168D01*
X7070928Y-36729259D01*
X6980871Y-36840470D01*
X6977874Y-36846352D01*
X6977872Y-36846355D01*
X6925089Y-36949950D01*
X6894171Y-37010630D01*
X6892464Y-37017000D01*
X6892463Y-37017003D01*
X6847598Y-37184443D01*
X6844743Y-37195097D01*
X6844398Y-37201689D01*
X6844397Y-37201692D01*
X6837822Y-37327162D01*
X6834748Y-37385810D01*
X6835780Y-37392325D01*
X6835780Y-37392327D01*
X6855597Y-37517447D01*
X6864623Y-37574432D01*
X6881605Y-37618671D01*
X6922236Y-37724518D01*
X6933062Y-37752722D01*
X6936659Y-37758261D01*
X6963313Y-37799304D01*
X7037074Y-37912887D01*
X7047549Y-37923362D01*
X7081575Y-37985674D01*
X7076510Y-38056489D01*
X7056269Y-38089873D01*
X7056934Y-38090356D01*
X7053052Y-38095699D01*
X7048633Y-38100607D01*
X6958401Y-38256893D01*
X6902635Y-38428525D01*
X6901945Y-38435088D01*
X6901945Y-38435089D01*
X6886649Y-38580619D01*
X6883771Y-38608000D01*
X6884461Y-38614565D01*
X6897861Y-38742050D01*
X6902635Y-38787475D01*
X6958401Y-38959107D01*
X7048633Y-39115393D01*
X7169387Y-39249504D01*
X7174729Y-39253385D01*
X7174731Y-39253387D01*
X7288759Y-39336233D01*
X7315385Y-39355578D01*
X7321413Y-39358262D01*
X7321415Y-39358263D01*
X7474217Y-39426295D01*
X7480248Y-39428980D01*
X7568508Y-39447740D01*
X7650311Y-39465128D01*
X7650315Y-39465128D01*
X7656768Y-39466500D01*
X7837232Y-39466500D01*
X7843685Y-39465128D01*
X7843689Y-39465128D01*
X7925492Y-39447740D01*
X8013752Y-39428980D01*
X8019783Y-39426295D01*
X8172585Y-39358263D01*
X8172587Y-39358262D01*
X8178615Y-39355578D01*
X8205241Y-39336233D01*
X8319269Y-39253387D01*
X8319271Y-39253385D01*
X8324613Y-39249504D01*
X8445367Y-39115393D01*
X8535599Y-38959107D01*
X8591365Y-38787475D01*
X8596140Y-38742050D01*
X8609539Y-38614565D01*
X8610229Y-38608000D01*
X8607351Y-38580619D01*
X8592055Y-38435089D01*
X8592055Y-38435088D01*
X8591365Y-38428525D01*
X8535599Y-38256893D01*
X8445367Y-38100607D01*
X8440948Y-38095699D01*
X8437066Y-38090356D01*
X8438378Y-38089403D01*
X8411194Y-38032768D01*
X8419953Y-37962314D01*
X8446451Y-37923362D01*
X9483408Y-36886405D01*
X9545720Y-36852379D01*
X9572503Y-36849500D01*
X10513065Y-36849500D01*
X10581186Y-36869502D01*
X10627679Y-36923158D01*
X10637783Y-36993432D01*
X10608289Y-37058012D01*
X10566927Y-37089176D01*
X10565412Y-37089750D01*
X10329632Y-37220714D01*
X10115227Y-37384343D01*
X9926688Y-37577208D01*
X9767966Y-37795270D01*
X9765844Y-37799304D01*
X9644510Y-38029921D01*
X9644507Y-38029927D01*
X9642385Y-38033961D01*
X9640865Y-38038266D01*
X9640863Y-38038270D01*
X9565680Y-38251170D01*
X9552575Y-38288280D01*
X9551692Y-38292762D01*
X9503104Y-38539278D01*
X9500419Y-38552900D01*
X9500192Y-38557453D01*
X9500192Y-38557456D01*
X9488429Y-38793754D01*
X9487009Y-38822277D01*
X9512625Y-39090769D01*
X9513710Y-39095203D01*
X9513711Y-39095209D01*
X9564537Y-39302918D01*
X9576731Y-39352750D01*
X9677985Y-39602733D01*
X9751606Y-39728469D01*
X9808063Y-39824889D01*
X9814265Y-39835482D01*
X9826202Y-39850408D01*
X9934686Y-39986060D01*
X9982716Y-40046119D01*
X10179809Y-40230234D01*
X10401416Y-40383968D01*
X10405499Y-40385999D01*
X10405502Y-40386001D01*
X10451893Y-40409080D01*
X10642894Y-40504101D01*
X10647228Y-40505522D01*
X10647231Y-40505523D01*
X10894853Y-40586698D01*
X10894859Y-40586699D01*
X10899186Y-40588118D01*
X10903677Y-40588898D01*
X10903678Y-40588898D01*
X11161140Y-40633601D01*
X11161148Y-40633602D01*
X11164921Y-40634257D01*
X11168758Y-40634448D01*
X11248578Y-40638422D01*
X11248586Y-40638422D01*
X11250149Y-40638500D01*
X14118512Y-40638500D01*
X14120780Y-40638335D01*
X14120792Y-40638335D01*
X14251884Y-40628823D01*
X14319004Y-40623953D01*
X14323459Y-40622969D01*
X14323462Y-40622969D01*
X14577912Y-40566791D01*
X14577916Y-40566790D01*
X14582372Y-40565806D01*
X14708480Y-40518028D01*
X14830318Y-40471868D01*
X14830321Y-40471867D01*
X14834588Y-40470250D01*
X15070368Y-40339286D01*
X15284773Y-40175657D01*
X15473312Y-39982792D01*
X15632034Y-39764730D01*
X15716653Y-39603895D01*
X15755490Y-39530079D01*
X15755493Y-39530073D01*
X15757615Y-39526039D01*
X15791891Y-39428980D01*
X15845902Y-39276033D01*
X15845902Y-39276032D01*
X15847425Y-39271720D01*
X15899581Y-39007100D01*
X15908782Y-38822277D01*
X15912764Y-38742292D01*
X15912764Y-38742286D01*
X15912991Y-38737723D01*
X15887375Y-38469231D01*
X15883138Y-38451913D01*
X15824355Y-38211688D01*
X15823269Y-38207250D01*
X15722015Y-37957267D01*
X15585735Y-37724518D01*
X15465708Y-37574432D01*
X15420136Y-37517447D01*
X15420135Y-37517445D01*
X15417284Y-37513881D01*
X15220191Y-37329766D01*
X14998584Y-37176032D01*
X14994501Y-37174001D01*
X14994498Y-37173999D01*
X14822257Y-37088311D01*
X14770176Y-37040061D01*
X14752449Y-36971313D01*
X14774703Y-36903894D01*
X14829875Y-36859210D01*
X14878379Y-36849500D01*
X19002497Y-36849500D01*
X19070618Y-36869502D01*
X19091592Y-36886405D01*
X20636019Y-38430832D01*
X20648860Y-38445865D01*
X20657134Y-38457253D01*
X20707959Y-38503016D01*
X20712744Y-38507557D01*
X20727259Y-38522072D01*
X20729823Y-38524148D01*
X20743216Y-38534994D01*
X20748231Y-38539278D01*
X20794145Y-38580619D01*
X20794150Y-38580623D01*
X20799056Y-38585040D01*
X20804772Y-38588340D01*
X20804776Y-38588343D01*
X20811237Y-38592073D01*
X20827533Y-38603273D01*
X20838470Y-38612129D01*
X20844348Y-38615124D01*
X20844351Y-38615126D01*
X20899426Y-38643188D01*
X20905223Y-38646336D01*
X20958723Y-38677224D01*
X20964444Y-38680527D01*
X20977826Y-38684875D01*
X20996085Y-38692438D01*
X21008630Y-38698830D01*
X21015000Y-38700537D01*
X21015003Y-38700538D01*
X21054074Y-38711007D01*
X21074712Y-38716537D01*
X21081025Y-38718407D01*
X21116803Y-38730032D01*
X21126452Y-38733167D01*
X21146072Y-38739542D01*
X21160075Y-38741014D01*
X21179504Y-38744615D01*
X21193097Y-38748257D01*
X21199694Y-38748603D01*
X21199696Y-38748603D01*
X21261384Y-38751836D01*
X21267958Y-38752353D01*
X21285116Y-38754156D01*
X21285118Y-38754156D01*
X21288390Y-38754500D01*
X21308926Y-38754500D01*
X21315520Y-38754673D01*
X21377218Y-38757907D01*
X21377223Y-38757907D01*
X21383810Y-38758252D01*
X21397708Y-38756051D01*
X21417417Y-38754500D01*
X23955497Y-38754500D01*
X24023618Y-38774502D01*
X24044592Y-38791405D01*
X24309592Y-39056405D01*
X24343618Y-39118717D01*
X24338553Y-39189532D01*
X24296006Y-39246368D01*
X24229486Y-39271179D01*
X24220497Y-39271500D01*
X22531866Y-39271500D01*
X22469684Y-39278255D01*
X22333295Y-39329385D01*
X22216739Y-39416739D01*
X22129385Y-39533295D01*
X22078255Y-39669684D01*
X22071500Y-39731866D01*
X22071500Y-41628134D01*
X22078255Y-41690316D01*
X22129385Y-41826705D01*
X22216739Y-41943261D01*
X22333295Y-42030615D01*
X22341703Y-42033767D01*
X22373022Y-42045508D01*
X22429786Y-42088150D01*
X22454486Y-42154711D01*
X22439279Y-42224060D01*
X22419886Y-42250540D01*
X22381639Y-42290564D01*
X22378725Y-42294836D01*
X22378724Y-42294837D01*
X22363152Y-42317665D01*
X22251119Y-42481899D01*
X22153602Y-42691981D01*
X22091707Y-42915169D01*
X22067095Y-43145469D01*
X22067392Y-43150622D01*
X22067392Y-43150625D01*
X22072925Y-43246590D01*
X22080427Y-43376697D01*
X22081564Y-43381743D01*
X22081565Y-43381749D01*
X22113741Y-43524523D01*
X22131346Y-43602642D01*
X22133288Y-43607424D01*
X22133289Y-43607428D01*
X22211087Y-43799020D01*
X22218484Y-43817237D01*
X22339501Y-44014719D01*
X22491147Y-44189784D01*
X22622990Y-44299242D01*
X22666462Y-44335333D01*
X22706097Y-44394235D01*
X22707595Y-44465216D01*
X22670481Y-44525739D01*
X22661630Y-44533037D01*
X22588693Y-44587800D01*
X22541655Y-44623117D01*
X22381639Y-44790564D01*
X22378725Y-44794836D01*
X22378724Y-44794837D01*
X22363152Y-44817665D01*
X22251119Y-44981899D01*
X22153602Y-45191981D01*
X22091707Y-45415169D01*
X22067095Y-45645469D01*
X22067392Y-45650622D01*
X22067392Y-45650625D01*
X22075763Y-45795812D01*
X22080427Y-45876697D01*
X22081564Y-45881743D01*
X22081565Y-45881749D01*
X22106074Y-45990502D01*
X22131346Y-46102642D01*
X22133288Y-46107424D01*
X22133289Y-46107428D01*
X22181620Y-46226453D01*
X22218484Y-46317237D01*
X22339501Y-46514719D01*
X22491147Y-46689784D01*
X22580747Y-46764171D01*
X22664046Y-46833327D01*
X22669349Y-46837730D01*
X22869322Y-46954584D01*
X22874147Y-46956426D01*
X22874148Y-46956427D01*
X22932708Y-46978789D01*
X23085694Y-47037209D01*
X23090760Y-47038240D01*
X23090761Y-47038240D01*
X23143846Y-47049040D01*
X23312656Y-47083385D01*
X23443324Y-47088176D01*
X23538949Y-47091683D01*
X23538953Y-47091683D01*
X23544113Y-47091872D01*
X23549233Y-47091216D01*
X23549235Y-47091216D01*
X23632775Y-47080514D01*
X23773847Y-47062442D01*
X23778795Y-47060957D01*
X23778802Y-47060956D01*
X23990747Y-46997369D01*
X23995690Y-46995886D01*
X24001287Y-46993144D01*
X24199049Y-46896262D01*
X24199052Y-46896260D01*
X24203684Y-46893991D01*
X24392243Y-46759494D01*
X24556303Y-46596005D01*
X24559479Y-46591586D01*
X24607262Y-46525088D01*
X24691458Y-46407917D01*
X24693879Y-46403020D01*
X24791784Y-46204922D01*
X24791785Y-46204920D01*
X24794078Y-46200280D01*
X24861408Y-45978671D01*
X24891640Y-45749041D01*
X24891800Y-45742491D01*
X24893245Y-45683365D01*
X24893245Y-45683361D01*
X24893327Y-45680000D01*
X24878736Y-45502522D01*
X24874773Y-45454318D01*
X24874772Y-45454312D01*
X24874349Y-45449167D01*
X24840797Y-45315592D01*
X24819184Y-45229544D01*
X24819183Y-45229540D01*
X24817925Y-45224533D01*
X24815330Y-45218565D01*
X24727630Y-45016868D01*
X24727628Y-45016865D01*
X24725570Y-45012131D01*
X24599764Y-44817665D01*
X24443887Y-44646358D01*
X24439836Y-44643159D01*
X24439832Y-44643155D01*
X24293690Y-44527740D01*
X24252627Y-44469823D01*
X24249395Y-44398900D01*
X24285020Y-44337489D01*
X24298613Y-44326279D01*
X24340177Y-44296632D01*
X24392243Y-44259494D01*
X24556303Y-44096005D01*
X24691458Y-43907917D01*
X24695273Y-43900199D01*
X24791784Y-43704922D01*
X24791785Y-43704920D01*
X24794078Y-43700280D01*
X24861408Y-43478671D01*
X24891640Y-43249041D01*
X24893327Y-43180000D01*
X24875023Y-42957361D01*
X24874773Y-42954318D01*
X24874772Y-42954312D01*
X24874349Y-42949167D01*
X24823247Y-42745720D01*
X24819184Y-42729544D01*
X24819183Y-42729540D01*
X24817925Y-42724533D01*
X24815866Y-42719797D01*
X24727630Y-42516868D01*
X24727628Y-42516865D01*
X24725570Y-42512131D01*
X24599764Y-42317665D01*
X24536986Y-42248672D01*
X24505936Y-42184829D01*
X24514331Y-42114330D01*
X24559507Y-42059562D01*
X24585952Y-42045893D01*
X24618295Y-42033768D01*
X24618296Y-42033767D01*
X24626705Y-42030615D01*
X24743261Y-41943261D01*
X24830615Y-41826705D01*
X24881745Y-41690316D01*
X24888500Y-41628134D01*
X24888500Y-39939503D01*
X24908502Y-39871382D01*
X24962158Y-39824889D01*
X25032432Y-39814785D01*
X25097012Y-39844279D01*
X25103595Y-39850408D01*
X27494019Y-42240832D01*
X27506860Y-42255865D01*
X27515134Y-42267253D01*
X27520043Y-42271673D01*
X27565959Y-42313016D01*
X27570744Y-42317557D01*
X27585259Y-42332072D01*
X27587823Y-42334148D01*
X27601216Y-42344994D01*
X27606231Y-42349278D01*
X27652145Y-42390619D01*
X27652150Y-42390623D01*
X27657056Y-42395040D01*
X27662772Y-42398340D01*
X27662776Y-42398343D01*
X27669237Y-42402073D01*
X27685533Y-42413273D01*
X27696470Y-42422129D01*
X27702348Y-42425124D01*
X27702351Y-42425126D01*
X27757426Y-42453188D01*
X27763223Y-42456336D01*
X27807500Y-42481899D01*
X27822444Y-42490527D01*
X27835826Y-42494875D01*
X27854085Y-42502438D01*
X27866630Y-42508830D01*
X27873000Y-42510537D01*
X27873003Y-42510538D01*
X27912074Y-42521007D01*
X27932712Y-42526537D01*
X27939025Y-42528407D01*
X28004072Y-42549542D01*
X28018075Y-42551014D01*
X28037504Y-42554615D01*
X28051097Y-42558257D01*
X28057694Y-42558603D01*
X28057696Y-42558603D01*
X28119384Y-42561836D01*
X28125958Y-42562353D01*
X28143116Y-42564156D01*
X28143118Y-42564156D01*
X28146390Y-42564500D01*
X28166926Y-42564500D01*
X28173520Y-42564673D01*
X28235218Y-42567907D01*
X28235223Y-42567907D01*
X28241810Y-42568252D01*
X28248326Y-42567220D01*
X28248327Y-42567220D01*
X28255707Y-42566051D01*
X28275417Y-42564500D01*
X36695148Y-42564500D01*
X36763269Y-42584502D01*
X36809762Y-42638158D01*
X36819866Y-42708432D01*
X36816565Y-42724171D01*
X36760989Y-42924570D01*
X36737251Y-43146695D01*
X36737548Y-43151848D01*
X36737548Y-43151851D01*
X36742959Y-43245691D01*
X36750110Y-43369715D01*
X36751247Y-43374761D01*
X36751248Y-43374767D01*
X36751683Y-43376697D01*
X36799222Y-43587639D01*
X36883266Y-43794616D01*
X36999987Y-43985088D01*
X37146250Y-44153938D01*
X37184721Y-44185877D01*
X37238537Y-44230556D01*
X37278172Y-44289458D01*
X37279670Y-44360439D01*
X37242556Y-44420962D01*
X37178611Y-44451811D01*
X37158052Y-44453500D01*
X29809989Y-44453500D01*
X29741868Y-44433498D01*
X29695375Y-44379842D01*
X29684679Y-44340671D01*
X29684554Y-44339476D01*
X29673365Y-44233025D01*
X29617599Y-44061393D01*
X29527367Y-43905107D01*
X29510413Y-43886277D01*
X29411035Y-43775907D01*
X29411034Y-43775906D01*
X29406613Y-43770996D01*
X29260615Y-43664922D01*
X29254587Y-43662238D01*
X29254585Y-43662237D01*
X29101783Y-43594205D01*
X29101781Y-43594205D01*
X29095752Y-43591520D01*
X29007492Y-43572760D01*
X28925689Y-43555372D01*
X28925685Y-43555372D01*
X28919232Y-43554000D01*
X28738768Y-43554000D01*
X28732315Y-43555372D01*
X28732311Y-43555372D01*
X28650508Y-43572760D01*
X28562248Y-43591520D01*
X28556219Y-43594204D01*
X28556217Y-43594205D01*
X28403416Y-43662237D01*
X28403414Y-43662238D01*
X28397386Y-43664922D01*
X28392045Y-43668802D01*
X28392044Y-43668803D01*
X28256731Y-43767113D01*
X28256729Y-43767115D01*
X28251387Y-43770996D01*
X28246966Y-43775906D01*
X28246965Y-43775907D01*
X28147588Y-43886277D01*
X28130633Y-43905107D01*
X28040401Y-44061393D01*
X27984635Y-44233025D01*
X27983945Y-44239588D01*
X27983945Y-44239589D01*
X27977635Y-44299624D01*
X27950622Y-44365281D01*
X27903575Y-44401559D01*
X27796633Y-44449174D01*
X27762386Y-44464422D01*
X27757045Y-44468302D01*
X27757044Y-44468303D01*
X27621731Y-44566613D01*
X27621729Y-44566615D01*
X27616387Y-44570496D01*
X27611966Y-44575406D01*
X27611965Y-44575407D01*
X27548081Y-44646358D01*
X27495633Y-44704607D01*
X27405401Y-44860893D01*
X27395866Y-44890238D01*
X27367474Y-44977623D01*
X27349635Y-45032525D01*
X27330771Y-45212000D01*
X27331461Y-45218565D01*
X27334199Y-45244610D01*
X27349635Y-45391475D01*
X27351675Y-45397753D01*
X27351675Y-45397754D01*
X27368380Y-45449167D01*
X27405401Y-45563107D01*
X27495633Y-45719393D01*
X27500051Y-45724300D01*
X27500052Y-45724301D01*
X27519312Y-45745691D01*
X27616387Y-45853504D01*
X27621729Y-45857385D01*
X27621731Y-45857387D01*
X27700708Y-45914767D01*
X27762385Y-45959578D01*
X27768413Y-45962262D01*
X27768415Y-45962263D01*
X27786916Y-45970500D01*
X27842572Y-45995279D01*
X27896667Y-46041259D01*
X27917316Y-46109186D01*
X27897964Y-46177494D01*
X27881423Y-46198464D01*
X27706688Y-46377208D01*
X27547966Y-46595270D01*
X27500296Y-46685877D01*
X27424510Y-46829921D01*
X27424507Y-46829927D01*
X27422385Y-46833961D01*
X27420865Y-46838266D01*
X27420863Y-46838270D01*
X27334667Y-47082355D01*
X27332575Y-47088280D01*
X27331692Y-47092762D01*
X27292660Y-47290796D01*
X27280419Y-47352900D01*
X27280192Y-47357453D01*
X27280192Y-47357456D01*
X27269676Y-47568705D01*
X27267009Y-47622277D01*
X27292625Y-47890769D01*
X27293710Y-47895203D01*
X27293711Y-47895209D01*
X27355645Y-48148312D01*
X27356731Y-48152750D01*
X27457985Y-48402733D01*
X27460294Y-48406676D01*
X27549386Y-48558835D01*
X27566546Y-48627727D01*
X27543735Y-48694959D01*
X27488197Y-48739186D01*
X27440654Y-48748500D01*
X22548646Y-48748500D01*
X22480525Y-48728498D01*
X22434032Y-48674842D01*
X22423928Y-48604568D01*
X22428812Y-48583567D01*
X22432324Y-48572756D01*
X22434365Y-48566475D01*
X22453229Y-48387000D01*
X22434365Y-48207525D01*
X22417943Y-48156981D01*
X22380641Y-48042178D01*
X22378599Y-48035893D01*
X22288367Y-47879607D01*
X22223082Y-47807100D01*
X22172035Y-47750407D01*
X22172034Y-47750406D01*
X22167613Y-47745496D01*
X22021615Y-47639422D01*
X22015587Y-47636738D01*
X22015585Y-47636737D01*
X21862783Y-47568705D01*
X21862781Y-47568705D01*
X21856752Y-47566020D01*
X21768492Y-47547260D01*
X21686689Y-47529872D01*
X21686685Y-47529872D01*
X21680232Y-47528500D01*
X21499768Y-47528500D01*
X21493315Y-47529872D01*
X21493311Y-47529872D01*
X21411508Y-47547260D01*
X21323248Y-47566020D01*
X21317219Y-47568704D01*
X21317217Y-47568705D01*
X21164416Y-47636737D01*
X21164414Y-47636738D01*
X21158386Y-47639422D01*
X21153045Y-47643302D01*
X21153044Y-47643303D01*
X21017731Y-47741613D01*
X21017729Y-47741615D01*
X21012387Y-47745496D01*
X21007966Y-47750406D01*
X21007965Y-47750407D01*
X20956919Y-47807100D01*
X20891633Y-47879607D01*
X20801401Y-48035893D01*
X20799359Y-48042178D01*
X20762058Y-48156981D01*
X20745635Y-48207525D01*
X20726771Y-48387000D01*
X20745635Y-48566475D01*
X20747676Y-48572756D01*
X20751188Y-48583567D01*
X20753214Y-48654535D01*
X20716549Y-48715332D01*
X20652836Y-48746655D01*
X20631354Y-48748500D01*
X15744015Y-48748500D01*
X15675894Y-48728498D01*
X15629401Y-48674842D01*
X15619297Y-48604568D01*
X15632506Y-48563833D01*
X15755490Y-48330079D01*
X15755493Y-48330073D01*
X15757615Y-48326039D01*
X15801685Y-48201246D01*
X15845902Y-48076033D01*
X15845902Y-48076032D01*
X15847425Y-48071720D01*
X15885290Y-47879607D01*
X15898700Y-47811572D01*
X15898701Y-47811566D01*
X15899581Y-47807100D01*
X15899808Y-47802544D01*
X15912764Y-47542292D01*
X15912764Y-47542286D01*
X15912991Y-47537723D01*
X15887375Y-47269231D01*
X15877405Y-47228484D01*
X15824355Y-47011688D01*
X15823269Y-47007250D01*
X15722015Y-46757267D01*
X15625005Y-46591586D01*
X15588045Y-46528463D01*
X15588044Y-46528462D01*
X15585735Y-46524518D01*
X15467928Y-46377208D01*
X15420136Y-46317447D01*
X15420135Y-46317445D01*
X15417284Y-46313881D01*
X15220191Y-46129766D01*
X14998584Y-45976032D01*
X14994501Y-45974001D01*
X14994498Y-45973999D01*
X14829606Y-45891967D01*
X14757106Y-45855899D01*
X14752772Y-45854478D01*
X14752769Y-45854477D01*
X14505147Y-45773302D01*
X14505141Y-45773301D01*
X14500814Y-45771882D01*
X14496322Y-45771102D01*
X14238860Y-45726399D01*
X14238852Y-45726398D01*
X14235079Y-45725743D01*
X14223817Y-45725182D01*
X14151422Y-45721578D01*
X14151414Y-45721578D01*
X14149851Y-45721500D01*
X11281488Y-45721500D01*
X11279220Y-45721665D01*
X11279208Y-45721665D01*
X11148116Y-45731177D01*
X11080996Y-45736047D01*
X11076541Y-45737031D01*
X11076538Y-45737031D01*
X10822088Y-45793209D01*
X10822084Y-45793210D01*
X10817628Y-45794194D01*
X10710817Y-45834661D01*
X10569682Y-45888132D01*
X10569679Y-45888133D01*
X10565412Y-45889750D01*
X10529468Y-45909715D01*
X10368257Y-45999260D01*
X10329632Y-46020714D01*
X10115227Y-46184343D01*
X10112034Y-46187609D01*
X10112032Y-46187611D01*
X10032025Y-46269454D01*
X9926688Y-46377208D01*
X9767966Y-46595270D01*
X9720296Y-46685877D01*
X9644510Y-46829921D01*
X9644507Y-46829927D01*
X9642385Y-46833961D01*
X9640865Y-46838266D01*
X9640863Y-46838270D01*
X9554667Y-47082355D01*
X9552575Y-47088280D01*
X9551692Y-47092762D01*
X9512660Y-47290796D01*
X9500419Y-47352900D01*
X9500192Y-47357453D01*
X9500192Y-47357456D01*
X9489676Y-47568705D01*
X9487009Y-47622277D01*
X9512625Y-47890769D01*
X9513710Y-47895203D01*
X9513711Y-47895209D01*
X9575645Y-48148312D01*
X9576731Y-48152750D01*
X9677985Y-48402733D01*
X9680294Y-48406676D01*
X9769386Y-48558835D01*
X9786546Y-48627727D01*
X9763735Y-48694959D01*
X9708197Y-48739186D01*
X9660654Y-48748500D01*
X6905503Y-48748500D01*
X6837382Y-48728498D01*
X6816408Y-48711595D01*
X5395609Y-47290796D01*
X5361583Y-47228484D01*
X5366648Y-47157669D01*
X5409195Y-47100833D01*
X5475715Y-47076022D01*
X5509822Y-47078230D01*
X5527648Y-47081856D01*
X5537883Y-47083076D01*
X5758914Y-47091182D01*
X5769223Y-47090714D01*
X5988623Y-47062608D01*
X5998688Y-47060468D01*
X6210557Y-46996905D01*
X6220152Y-46993144D01*
X6418778Y-46895838D01*
X6427636Y-46890559D01*
X6485097Y-46849572D01*
X6493497Y-46838874D01*
X6486509Y-46825720D01*
X5341922Y-45681132D01*
X6064408Y-45681132D01*
X6064539Y-45682966D01*
X6068790Y-45689580D01*
X6846307Y-46467096D01*
X6858313Y-46473652D01*
X6870052Y-46464684D01*
X6908010Y-46411859D01*
X6913321Y-46403020D01*
X7011318Y-46204737D01*
X7015117Y-46195142D01*
X7079415Y-45983517D01*
X7081594Y-45973436D01*
X7110702Y-45752338D01*
X7111221Y-45745663D01*
X7112744Y-45683364D01*
X7112550Y-45676646D01*
X7094279Y-45454400D01*
X7092596Y-45444238D01*
X7038710Y-45229708D01*
X7035389Y-45219953D01*
X6947193Y-45017118D01*
X6942315Y-45008020D01*
X6869224Y-44895038D01*
X6858538Y-44885835D01*
X6848973Y-44890238D01*
X6072021Y-45667189D01*
X6064408Y-45681132D01*
X5341922Y-45681132D01*
X5340790Y-45680000D01*
X4553864Y-44893075D01*
X4542330Y-44886777D01*
X4530047Y-44896400D01*
X4474467Y-44977877D01*
X4469379Y-44986833D01*
X4376252Y-45187459D01*
X4372689Y-45197146D01*
X4313581Y-45410280D01*
X4311650Y-45420400D01*
X4288145Y-45640349D01*
X4287893Y-45650638D01*
X4300626Y-45871463D01*
X4301256Y-45875944D01*
X4290929Y-45946185D01*
X4244265Y-45999693D01*
X4176081Y-46019478D01*
X4108025Y-45999260D01*
X4087387Y-45982574D01*
X3939474Y-45834661D01*
X3905448Y-45772349D01*
X3902607Y-45742491D01*
X3903074Y-45723368D01*
X3903074Y-45723363D01*
X3903156Y-45720000D01*
X3884852Y-45497361D01*
X3830431Y-45280702D01*
X3741354Y-45075840D01*
X3620014Y-44888277D01*
X3469670Y-44723051D01*
X3465619Y-44719852D01*
X3465615Y-44719848D01*
X3298414Y-44587800D01*
X3298410Y-44587798D01*
X3294359Y-44584598D01*
X3253053Y-44561796D01*
X3203084Y-44511364D01*
X3188312Y-44441921D01*
X3213428Y-44375516D01*
X3240780Y-44348909D01*
X3309875Y-44299624D01*
X3419860Y-44221173D01*
X3578096Y-44063489D01*
X3583715Y-44055670D01*
X3705435Y-43886277D01*
X3708453Y-43882077D01*
X3763353Y-43770996D01*
X3805136Y-43686453D01*
X3805137Y-43686451D01*
X3807430Y-43681811D01*
X3872370Y-43468069D01*
X3901529Y-43246590D01*
X3903156Y-43180000D01*
X3900317Y-43145469D01*
X4287095Y-43145469D01*
X4287392Y-43150622D01*
X4287392Y-43150625D01*
X4292925Y-43246590D01*
X4300427Y-43376697D01*
X4301564Y-43381743D01*
X4301565Y-43381749D01*
X4333741Y-43524523D01*
X4351346Y-43602642D01*
X4353288Y-43607424D01*
X4353289Y-43607428D01*
X4431087Y-43799020D01*
X4438484Y-43817237D01*
X4559501Y-44014719D01*
X4711147Y-44189784D01*
X4831205Y-44289458D01*
X4889349Y-44337730D01*
X4888250Y-44339053D01*
X4927845Y-44388576D01*
X4935162Y-44459195D01*
X4912226Y-44511711D01*
X4905508Y-44520712D01*
X4912251Y-44533040D01*
X5687189Y-45307979D01*
X5701132Y-45315592D01*
X5702966Y-45315461D01*
X5709580Y-45311210D01*
X6488994Y-44531795D01*
X6496011Y-44518944D01*
X6486320Y-44505643D01*
X6462371Y-44438808D01*
X6478358Y-44369634D01*
X6514988Y-44328865D01*
X6560177Y-44296632D01*
X6612243Y-44259494D01*
X6776303Y-44096005D01*
X6911458Y-43907917D01*
X6915273Y-43900199D01*
X7011784Y-43704922D01*
X7011785Y-43704920D01*
X7014078Y-43700280D01*
X7081408Y-43478671D01*
X7111640Y-43249041D01*
X7113327Y-43180000D01*
X7095023Y-42957361D01*
X7094773Y-42954318D01*
X7094772Y-42954312D01*
X7094349Y-42949167D01*
X7043247Y-42745720D01*
X7039184Y-42729544D01*
X7039183Y-42729540D01*
X7037925Y-42724533D01*
X7035866Y-42719797D01*
X6947630Y-42516868D01*
X6947628Y-42516865D01*
X6945570Y-42512131D01*
X6819764Y-42317665D01*
X6756986Y-42248672D01*
X6725936Y-42184829D01*
X6734331Y-42114330D01*
X6779507Y-42059562D01*
X6805952Y-42045893D01*
X6838295Y-42033768D01*
X6838296Y-42033767D01*
X6846705Y-42030615D01*
X6963261Y-41943261D01*
X7050615Y-41826705D01*
X7101745Y-41690316D01*
X7108500Y-41628134D01*
X7108500Y-39731866D01*
X7101745Y-39669684D01*
X7050615Y-39533295D01*
X6963261Y-39416739D01*
X6846705Y-39329385D01*
X6710316Y-39278255D01*
X6648134Y-39271500D01*
X4751866Y-39271500D01*
X4689684Y-39278255D01*
X4553295Y-39329385D01*
X4436739Y-39416739D01*
X4349385Y-39533295D01*
X4298255Y-39669684D01*
X4291500Y-39731866D01*
X4291500Y-41628134D01*
X4298255Y-41690316D01*
X4349385Y-41826705D01*
X4436739Y-41943261D01*
X4553295Y-42030615D01*
X4561703Y-42033767D01*
X4593022Y-42045508D01*
X4649786Y-42088150D01*
X4674486Y-42154711D01*
X4659279Y-42224060D01*
X4639886Y-42250540D01*
X4601639Y-42290564D01*
X4598725Y-42294836D01*
X4598724Y-42294837D01*
X4583152Y-42317665D01*
X4471119Y-42481899D01*
X4373602Y-42691981D01*
X4311707Y-42915169D01*
X4287095Y-43145469D01*
X3900317Y-43145469D01*
X3884852Y-42957361D01*
X3830431Y-42740702D01*
X3741354Y-42535840D01*
X3662062Y-42413273D01*
X3622822Y-42352617D01*
X3622820Y-42352614D01*
X3620014Y-42348277D01*
X3603143Y-42329736D01*
X3472798Y-42186488D01*
X3441746Y-42122642D01*
X3450141Y-42052143D01*
X3495317Y-41997375D01*
X3521761Y-41983706D01*
X3628297Y-41943767D01*
X3636705Y-41940615D01*
X3753261Y-41853261D01*
X3840615Y-41736705D01*
X3891745Y-41600316D01*
X3898500Y-41538134D01*
X3898500Y-39741866D01*
X3891745Y-39679684D01*
X3840615Y-39543295D01*
X3753261Y-39426739D01*
X3636705Y-39339385D01*
X3500316Y-39288255D01*
X3438134Y-39281500D01*
X1641866Y-39281500D01*
X1579684Y-39288255D01*
X1443295Y-39339385D01*
X1326739Y-39426739D01*
X1239385Y-39543295D01*
X1188255Y-39679684D01*
X1181500Y-39741866D01*
X1181500Y-41538134D01*
X1188255Y-41600316D01*
X1239385Y-41736705D01*
X1326739Y-41853261D01*
X1443295Y-41940615D01*
X1451704Y-41943767D01*
X1451705Y-41943768D01*
X1560451Y-41984535D01*
X1617216Y-42027176D01*
X1641916Y-42093738D01*
X1626709Y-42163087D01*
X1607316Y-42189568D01*
X1484904Y-42317665D01*
X1480629Y-42322138D01*
X1354743Y-42506680D01*
X1260688Y-42709305D01*
X1200989Y-42924570D01*
X1177251Y-43146695D01*
X1177548Y-43151848D01*
X1177548Y-43151851D01*
X1182959Y-43245691D01*
X1190110Y-43369715D01*
X1191247Y-43374761D01*
X1191248Y-43374767D01*
X1191683Y-43376697D01*
X1239222Y-43587639D01*
X1323266Y-43794616D01*
X1439987Y-43985088D01*
X1586250Y-44153938D01*
X1758126Y-44296632D01*
X1824355Y-44335333D01*
X1831445Y-44339476D01*
X1880169Y-44391114D01*
X1893240Y-44460897D01*
X1866509Y-44526669D01*
X1826055Y-44560027D01*
X1813607Y-44566507D01*
X1809474Y-44569610D01*
X1809471Y-44569612D01*
X1639100Y-44697530D01*
X1634965Y-44700635D01*
X1480629Y-44862138D01*
X1354743Y-45046680D01*
X1339003Y-45080590D01*
X1269785Y-45229708D01*
X1260688Y-45249305D01*
X1200989Y-45464570D01*
X1177251Y-45686695D01*
X508500Y-45686695D01*
X508500Y-33287966D01*
X1208257Y-33287966D01*
X1238565Y-33422446D01*
X1241645Y-33432275D01*
X1321770Y-33629603D01*
X1326413Y-33638794D01*
X1437694Y-33820388D01*
X1443777Y-33828699D01*
X1583213Y-33989667D01*
X1590580Y-33996883D01*
X1754434Y-34132916D01*
X1762881Y-34138831D01*
X1946756Y-34246279D01*
X1956042Y-34250729D01*
X2155001Y-34326703D01*
X2164899Y-34329579D01*
X2268250Y-34350606D01*
X2282299Y-34349410D01*
X2286000Y-34339065D01*
X2286000Y-34338517D01*
X2794000Y-34338517D01*
X2798064Y-34352359D01*
X2811478Y-34354393D01*
X2818184Y-34353534D01*
X2828262Y-34351392D01*
X3032255Y-34290191D01*
X3041842Y-34286433D01*
X3233095Y-34192739D01*
X3241945Y-34187464D01*
X3415328Y-34063792D01*
X3423200Y-34057139D01*
X3574052Y-33906812D01*
X3580730Y-33898965D01*
X3705003Y-33726020D01*
X3710313Y-33717183D01*
X3804670Y-33526267D01*
X3808469Y-33516672D01*
X3870377Y-33312910D01*
X3872555Y-33302837D01*
X3873986Y-33291962D01*
X3871775Y-33277778D01*
X3858617Y-33274000D01*
X2812115Y-33274000D01*
X2796876Y-33278475D01*
X2795671Y-33279865D01*
X2794000Y-33287548D01*
X2794000Y-34338517D01*
X2286000Y-34338517D01*
X2286000Y-33292115D01*
X2281525Y-33276876D01*
X2280135Y-33275671D01*
X2272452Y-33274000D01*
X1223225Y-33274000D01*
X1209694Y-33277973D01*
X1208257Y-33287966D01*
X508500Y-33287966D01*
X508500Y-30446695D01*
X1177251Y-30446695D01*
X1177548Y-30451848D01*
X1177548Y-30451851D01*
X1183011Y-30546590D01*
X1190110Y-30669715D01*
X1191247Y-30674761D01*
X1191248Y-30674767D01*
X1211119Y-30762939D01*
X1239222Y-30887639D01*
X1323266Y-31094616D01*
X1439987Y-31285088D01*
X1586250Y-31453938D01*
X1758126Y-31596632D01*
X1831955Y-31639774D01*
X1880679Y-31691412D01*
X1893750Y-31761195D01*
X1867019Y-31826967D01*
X1826562Y-31860327D01*
X1818457Y-31864546D01*
X1809738Y-31870036D01*
X1639433Y-31997905D01*
X1631726Y-32004748D01*
X1484590Y-32158717D01*
X1478104Y-32166727D01*
X1358098Y-32342649D01*
X1353000Y-32351623D01*
X1263338Y-32544783D01*
X1259775Y-32554470D01*
X1204389Y-32754183D01*
X1205912Y-32762607D01*
X1218292Y-32766000D01*
X3858344Y-32766000D01*
X3871875Y-32762027D01*
X3873180Y-32752947D01*
X3831214Y-32585875D01*
X3827894Y-32576124D01*
X3742972Y-32380814D01*
X3738105Y-32371739D01*
X3622426Y-32192926D01*
X3616136Y-32184757D01*
X3472806Y-32027240D01*
X3465273Y-32020215D01*
X3298139Y-31888222D01*
X3289556Y-31882520D01*
X3252602Y-31862120D01*
X3202631Y-31811687D01*
X3187859Y-31742245D01*
X3212975Y-31675839D01*
X3240327Y-31649232D01*
X3263797Y-31632491D01*
X3419860Y-31521173D01*
X3578096Y-31363489D01*
X3637594Y-31280689D01*
X3705435Y-31186277D01*
X3708453Y-31182077D01*
X3741905Y-31114393D01*
X3805136Y-30986453D01*
X3805137Y-30986451D01*
X3807430Y-30981811D01*
X3872370Y-30768069D01*
X3893576Y-30607000D01*
X12598771Y-30607000D01*
X12617635Y-30786475D01*
X12673401Y-30958107D01*
X12676704Y-30963829D01*
X12676705Y-30963830D01*
X12689767Y-30986453D01*
X12763633Y-31114393D01*
X12768051Y-31119300D01*
X12768052Y-31119301D01*
X12879965Y-31243593D01*
X12884387Y-31248504D01*
X12889729Y-31252385D01*
X12889731Y-31252387D01*
X12934740Y-31285088D01*
X13030385Y-31354578D01*
X13036413Y-31357262D01*
X13036415Y-31357263D01*
X13189217Y-31425295D01*
X13195248Y-31427980D01*
X13283508Y-31446740D01*
X13365311Y-31464128D01*
X13365315Y-31464128D01*
X13371768Y-31465500D01*
X13552232Y-31465500D01*
X13558685Y-31464128D01*
X13558689Y-31464128D01*
X13640492Y-31446740D01*
X13728752Y-31427980D01*
X13734783Y-31425295D01*
X13887585Y-31357263D01*
X13887587Y-31357262D01*
X13893615Y-31354578D01*
X13989260Y-31285088D01*
X14034269Y-31252387D01*
X14034271Y-31252385D01*
X14039613Y-31248504D01*
X14044035Y-31243593D01*
X14155948Y-31119301D01*
X14155949Y-31119300D01*
X14160367Y-31114393D01*
X14234233Y-30986453D01*
X14247295Y-30963830D01*
X14247296Y-30963829D01*
X14250599Y-30958107D01*
X14306365Y-30786475D01*
X14325229Y-30607000D01*
X14312234Y-30483365D01*
X14307055Y-30434089D01*
X14307055Y-30434088D01*
X14306365Y-30427525D01*
X14250599Y-30255893D01*
X14235481Y-30229707D01*
X14194069Y-30157980D01*
X14160367Y-30099607D01*
X14149253Y-30087263D01*
X14044035Y-29970407D01*
X14044034Y-29970406D01*
X14039613Y-29965496D01*
X13893615Y-29859422D01*
X13887587Y-29856738D01*
X13887585Y-29856737D01*
X13734783Y-29788705D01*
X13734781Y-29788705D01*
X13728752Y-29786020D01*
X13640492Y-29767260D01*
X13558689Y-29749872D01*
X13558685Y-29749872D01*
X13552232Y-29748500D01*
X13371768Y-29748500D01*
X13365315Y-29749872D01*
X13365311Y-29749872D01*
X13283508Y-29767260D01*
X13195248Y-29786020D01*
X13189219Y-29788704D01*
X13189217Y-29788705D01*
X13036416Y-29856737D01*
X13036414Y-29856738D01*
X13030386Y-29859422D01*
X13025045Y-29863302D01*
X13025044Y-29863303D01*
X12889731Y-29961613D01*
X12889729Y-29961615D01*
X12884387Y-29965496D01*
X12879966Y-29970406D01*
X12879965Y-29970407D01*
X12774748Y-30087263D01*
X12763633Y-30099607D01*
X12729931Y-30157980D01*
X12688520Y-30229707D01*
X12673401Y-30255893D01*
X12617635Y-30427525D01*
X12616945Y-30434088D01*
X12616945Y-30434089D01*
X12611766Y-30483365D01*
X12598771Y-30607000D01*
X3893576Y-30607000D01*
X3901529Y-30546590D01*
X3903156Y-30480000D01*
X3884852Y-30257361D01*
X3830431Y-30040702D01*
X3741354Y-29835840D01*
X3620014Y-29648277D01*
X3616532Y-29644450D01*
X3472798Y-29486488D01*
X3441746Y-29422642D01*
X3450141Y-29352143D01*
X3462632Y-29337000D01*
X33553771Y-29337000D01*
X33554461Y-29343565D01*
X33562773Y-29422642D01*
X33572635Y-29516475D01*
X33628401Y-29688107D01*
X33718633Y-29844393D01*
X33723051Y-29849300D01*
X33723052Y-29849301D01*
X33832096Y-29970407D01*
X33839387Y-29978504D01*
X33844729Y-29982385D01*
X33844731Y-29982387D01*
X33980043Y-30080697D01*
X33985385Y-30084578D01*
X33991413Y-30087262D01*
X33991415Y-30087263D01*
X34031983Y-30105325D01*
X34150248Y-30157980D01*
X34238508Y-30176740D01*
X34320311Y-30194128D01*
X34320315Y-30194128D01*
X34326768Y-30195500D01*
X34507232Y-30195500D01*
X34513685Y-30194128D01*
X34513689Y-30194128D01*
X34595492Y-30176740D01*
X34683752Y-30157980D01*
X34802017Y-30105325D01*
X34842585Y-30087263D01*
X34842587Y-30087262D01*
X34848615Y-30084578D01*
X34853957Y-30080697D01*
X34989269Y-29982387D01*
X34989271Y-29982385D01*
X34994613Y-29978504D01*
X35001904Y-29970407D01*
X35110948Y-29849301D01*
X35110949Y-29849300D01*
X35115367Y-29844393D01*
X35205599Y-29688107D01*
X35261365Y-29516475D01*
X35271228Y-29422642D01*
X35279539Y-29343565D01*
X35280229Y-29337000D01*
X35261365Y-29157525D01*
X35205599Y-28985893D01*
X35115367Y-28829607D01*
X34994613Y-28695496D01*
X34848615Y-28589422D01*
X34842587Y-28586738D01*
X34842585Y-28586737D01*
X34689783Y-28518705D01*
X34689781Y-28518705D01*
X34683752Y-28516020D01*
X34595492Y-28497260D01*
X34513689Y-28479872D01*
X34513685Y-28479872D01*
X34507232Y-28478500D01*
X34326768Y-28478500D01*
X34320315Y-28479872D01*
X34320311Y-28479872D01*
X34238508Y-28497260D01*
X34150248Y-28516020D01*
X34144219Y-28518704D01*
X34144217Y-28518705D01*
X33991416Y-28586737D01*
X33991414Y-28586738D01*
X33985386Y-28589422D01*
X33980045Y-28593302D01*
X33980044Y-28593303D01*
X33844731Y-28691613D01*
X33844729Y-28691615D01*
X33839387Y-28695496D01*
X33718633Y-28829607D01*
X33628401Y-28985893D01*
X33572635Y-29157525D01*
X33553771Y-29337000D01*
X3462632Y-29337000D01*
X3495317Y-29297375D01*
X3521761Y-29283706D01*
X3628297Y-29243767D01*
X3636705Y-29240615D01*
X3753261Y-29153261D01*
X3840615Y-29036705D01*
X3891745Y-28900316D01*
X3898500Y-28838134D01*
X3898500Y-27958500D01*
X3918502Y-27890379D01*
X3972158Y-27843886D01*
X4024500Y-27832500D01*
X36615500Y-27832500D01*
X36683621Y-27852502D01*
X36730114Y-27906158D01*
X36741500Y-27958500D01*
X36741500Y-28838134D01*
X36748255Y-28900316D01*
X36799385Y-29036705D01*
X36886739Y-29153261D01*
X37003295Y-29240615D01*
X37011704Y-29243767D01*
X37011705Y-29243768D01*
X37120451Y-29284535D01*
X37177216Y-29327176D01*
X37201916Y-29393738D01*
X37186709Y-29463087D01*
X37167316Y-29489568D01*
X37040629Y-29622138D01*
X36914743Y-29806680D01*
X36820688Y-30009305D01*
X36760989Y-30224570D01*
X36737251Y-30446695D01*
X36737548Y-30451848D01*
X36737548Y-30451851D01*
X36743011Y-30546590D01*
X36750110Y-30669715D01*
X36751247Y-30674761D01*
X36751248Y-30674767D01*
X36771119Y-30762939D01*
X36799222Y-30887639D01*
X36883266Y-31094616D01*
X36999987Y-31285088D01*
X37146250Y-31453938D01*
X37318126Y-31596632D01*
X37391955Y-31639774D01*
X37440679Y-31691412D01*
X37453750Y-31761195D01*
X37427019Y-31826967D01*
X37386562Y-31860327D01*
X37378457Y-31864546D01*
X37369738Y-31870036D01*
X37199433Y-31997905D01*
X37191726Y-32004748D01*
X37044590Y-32158717D01*
X37038104Y-32166727D01*
X36918098Y-32342649D01*
X36913000Y-32351623D01*
X36823338Y-32544783D01*
X36819775Y-32554470D01*
X36764389Y-32754183D01*
X36765912Y-32762607D01*
X36778292Y-32766000D01*
X39418344Y-32766000D01*
X39431875Y-32762027D01*
X39433180Y-32752947D01*
X39391214Y-32585875D01*
X39387894Y-32576124D01*
X39302972Y-32380814D01*
X39298105Y-32371739D01*
X39182426Y-32192926D01*
X39176136Y-32184757D01*
X39032806Y-32027240D01*
X39025273Y-32020215D01*
X38858139Y-31888222D01*
X38849556Y-31882520D01*
X38812602Y-31862120D01*
X38762631Y-31811687D01*
X38747859Y-31742245D01*
X38772975Y-31675839D01*
X38800327Y-31649232D01*
X38823797Y-31632491D01*
X38979860Y-31521173D01*
X39138096Y-31363489D01*
X39197594Y-31280689D01*
X39265435Y-31186277D01*
X39268453Y-31182077D01*
X39301905Y-31114393D01*
X39365136Y-30986453D01*
X39365137Y-30986451D01*
X39367430Y-30981811D01*
X39432370Y-30768069D01*
X39461529Y-30546590D01*
X39463156Y-30480000D01*
X39444852Y-30257361D01*
X39390431Y-30040702D01*
X39301354Y-29835840D01*
X39180014Y-29648277D01*
X39176532Y-29644450D01*
X39032798Y-29486488D01*
X39001746Y-29422642D01*
X39010141Y-29352143D01*
X39055317Y-29297375D01*
X39081761Y-29283706D01*
X39188297Y-29243767D01*
X39196705Y-29240615D01*
X39313261Y-29153261D01*
X39400615Y-29036705D01*
X39451745Y-28900316D01*
X39458500Y-28838134D01*
X39458500Y-27041866D01*
X39451745Y-26979684D01*
X39400615Y-26843295D01*
X39313261Y-26726739D01*
X39196705Y-26639385D01*
X39060316Y-26588255D01*
X38998134Y-26581500D01*
X38078503Y-26581500D01*
X38010382Y-26561498D01*
X37989408Y-26544595D01*
X37783981Y-26339168D01*
X37771140Y-26324135D01*
X37766746Y-26318087D01*
X37766745Y-26318086D01*
X37762866Y-26312747D01*
X37712041Y-26266984D01*
X37707256Y-26262443D01*
X37692741Y-26247928D01*
X37685282Y-26241888D01*
X37676784Y-26235006D01*
X37671769Y-26230722D01*
X37625855Y-26189381D01*
X37625850Y-26189377D01*
X37620944Y-26184960D01*
X37615228Y-26181660D01*
X37615224Y-26181657D01*
X37608763Y-26177927D01*
X37592466Y-26166727D01*
X37586660Y-26162025D01*
X37586658Y-26162024D01*
X37581530Y-26157871D01*
X37520577Y-26126814D01*
X37514782Y-26123667D01*
X37461279Y-26092777D01*
X37461278Y-26092776D01*
X37455556Y-26089473D01*
X37449274Y-26087432D01*
X37449272Y-26087431D01*
X37442174Y-26085125D01*
X37423907Y-26077559D01*
X37411370Y-26071171D01*
X37345299Y-26053467D01*
X37338997Y-26051600D01*
X37273928Y-26030458D01*
X37267363Y-26029768D01*
X37267354Y-26029766D01*
X37259925Y-26028985D01*
X37240491Y-26025383D01*
X37233286Y-26023453D01*
X37233284Y-26023453D01*
X37226903Y-26021743D01*
X37220312Y-26021398D01*
X37220308Y-26021397D01*
X37158616Y-26018164D01*
X37152042Y-26017647D01*
X37134884Y-26015844D01*
X37134882Y-26015844D01*
X37131610Y-26015500D01*
X37111074Y-26015500D01*
X37104480Y-26015327D01*
X37042782Y-26012093D01*
X37042777Y-26012093D01*
X37036190Y-26011748D01*
X37022292Y-26013949D01*
X37002583Y-26015500D01*
X27651190Y-26015500D01*
X27583069Y-25995498D01*
X27536576Y-25941842D01*
X27526472Y-25871568D01*
X27542071Y-25826500D01*
X27582295Y-25756830D01*
X27582296Y-25756829D01*
X27585599Y-25751107D01*
X27641365Y-25579475D01*
X27660229Y-25400000D01*
X27655633Y-25356276D01*
X27642055Y-25227089D01*
X27642055Y-25227088D01*
X27641365Y-25220525D01*
X27585599Y-25048893D01*
X27495367Y-24892607D01*
X27374613Y-24758496D01*
X27342872Y-24735435D01*
X27299520Y-24679213D01*
X27293445Y-24608477D01*
X27326577Y-24545685D01*
X27388397Y-24510774D01*
X27416935Y-24507500D01*
X32063930Y-24507500D01*
X32082880Y-24508933D01*
X32097115Y-24511099D01*
X32097119Y-24511099D01*
X32104349Y-24512199D01*
X32111641Y-24511606D01*
X32111644Y-24511606D01*
X32157018Y-24507915D01*
X32167233Y-24507500D01*
X32175293Y-24507500D01*
X32188583Y-24505951D01*
X32203507Y-24504211D01*
X32207882Y-24503778D01*
X32273339Y-24498454D01*
X32273342Y-24498453D01*
X32280637Y-24497860D01*
X32287601Y-24495604D01*
X32293560Y-24494413D01*
X32299415Y-24493029D01*
X32306681Y-24492182D01*
X32375327Y-24467265D01*
X32379455Y-24465848D01*
X32441936Y-24445607D01*
X32441938Y-24445606D01*
X32448899Y-24443351D01*
X32455154Y-24439555D01*
X32460628Y-24437049D01*
X32466058Y-24434330D01*
X32472937Y-24431833D01*
X32533976Y-24391814D01*
X32537680Y-24389477D01*
X32600107Y-24351595D01*
X32608484Y-24344197D01*
X32608508Y-24344224D01*
X32611500Y-24341571D01*
X32614733Y-24338868D01*
X32620852Y-24334856D01*
X32674128Y-24278617D01*
X32676506Y-24276175D01*
X37791441Y-19161240D01*
X37853753Y-19127214D01*
X37905657Y-19126865D01*
X37938597Y-19133567D01*
X37943772Y-19133757D01*
X37943774Y-19133757D01*
X38156673Y-19141564D01*
X38156677Y-19141564D01*
X38161837Y-19141753D01*
X38166957Y-19141097D01*
X38166959Y-19141097D01*
X38378288Y-19114025D01*
X38378289Y-19114025D01*
X38383416Y-19113368D01*
X38433840Y-19098240D01*
X38592429Y-19050661D01*
X38592434Y-19050659D01*
X38597384Y-19049174D01*
X38797994Y-18950896D01*
X38979860Y-18821173D01*
X38987737Y-18813324D01*
X39134435Y-18667137D01*
X39138096Y-18663489D01*
X39197594Y-18580689D01*
X39265435Y-18486277D01*
X39268453Y-18482077D01*
X39275452Y-18467917D01*
X39365136Y-18286453D01*
X39365137Y-18286451D01*
X39367430Y-18281811D01*
X39432370Y-18068069D01*
X39461529Y-17846590D01*
X39461854Y-17833302D01*
X39463074Y-17783365D01*
X39463074Y-17783361D01*
X39463156Y-17780000D01*
X39444852Y-17557361D01*
X39390431Y-17340702D01*
X39301354Y-17135840D01*
X39237815Y-17037623D01*
X39182822Y-16952617D01*
X39182820Y-16952614D01*
X39180014Y-16948277D01*
X39029670Y-16783051D01*
X39025619Y-16779852D01*
X39025615Y-16779848D01*
X38858414Y-16647800D01*
X38858410Y-16647798D01*
X38854359Y-16644598D01*
X38813053Y-16621796D01*
X38763084Y-16571364D01*
X38748312Y-16501921D01*
X38773428Y-16435516D01*
X38800780Y-16408909D01*
X38844603Y-16377650D01*
X38979860Y-16281173D01*
X39138096Y-16123489D01*
X39197594Y-16040689D01*
X39265435Y-15946277D01*
X39268453Y-15942077D01*
X39367430Y-15741811D01*
X39432370Y-15528069D01*
X39461529Y-15306590D01*
X39463156Y-15240000D01*
X39444852Y-15017361D01*
X39390431Y-14800702D01*
X39301354Y-14595840D01*
X39180014Y-14408277D01*
X39176532Y-14404450D01*
X39032798Y-14246488D01*
X39001746Y-14182642D01*
X39010141Y-14112143D01*
X39055317Y-14057375D01*
X39081761Y-14043706D01*
X39188297Y-14003767D01*
X39196705Y-14000615D01*
X39313261Y-13913261D01*
X39400615Y-13796705D01*
X39451745Y-13660316D01*
X39458500Y-13598134D01*
X39458500Y-11801866D01*
X39451745Y-11739684D01*
X39400615Y-11603295D01*
X39313261Y-11486739D01*
X39196705Y-11399385D01*
X39161622Y-11386233D01*
X39090270Y-11359484D01*
X39033506Y-11316842D01*
X39008806Y-11250281D01*
X39008500Y-11241502D01*
X39008500Y-10876417D01*
X39010051Y-10856705D01*
X39011220Y-10849325D01*
X39012252Y-10842810D01*
X39010129Y-10802292D01*
X39008673Y-10774520D01*
X39008500Y-10767926D01*
X39008500Y-10747390D01*
X39008156Y-10744116D01*
X39006353Y-10726958D01*
X39005836Y-10720384D01*
X39002603Y-10658696D01*
X39002603Y-10658694D01*
X39002257Y-10652097D01*
X38998615Y-10638504D01*
X38995014Y-10619075D01*
X38994232Y-10611639D01*
X38993542Y-10605072D01*
X38972407Y-10540025D01*
X38970535Y-10533706D01*
X38954538Y-10474003D01*
X38954537Y-10474000D01*
X38952830Y-10467630D01*
X38946438Y-10455085D01*
X38938874Y-10436823D01*
X38936568Y-10429726D01*
X38934527Y-10423444D01*
X38917250Y-10393520D01*
X38900336Y-10364223D01*
X38897188Y-10358426D01*
X38869126Y-10303351D01*
X38869124Y-10303348D01*
X38866129Y-10297470D01*
X38857273Y-10286533D01*
X38846073Y-10270237D01*
X38842343Y-10263776D01*
X38842340Y-10263772D01*
X38839040Y-10258056D01*
X38834623Y-10253150D01*
X38834619Y-10253145D01*
X38793278Y-10207231D01*
X38788994Y-10202216D01*
X38778148Y-10188823D01*
X38776072Y-10186259D01*
X38761557Y-10171744D01*
X38757016Y-10166959D01*
X38715673Y-10121043D01*
X38711253Y-10116134D01*
X38699865Y-10107860D01*
X38684832Y-10095019D01*
X35943072Y-7353259D01*
X35909046Y-7290947D01*
X35914111Y-7220132D01*
X35956658Y-7163296D01*
X36006616Y-7140782D01*
X36128342Y-7115574D01*
X36399343Y-7019607D01*
X36654812Y-6887750D01*
X36658313Y-6885289D01*
X36658317Y-6885287D01*
X36789383Y-6793172D01*
X36890023Y-6722441D01*
X37100622Y-6526740D01*
X37282713Y-6304268D01*
X37432927Y-6059142D01*
X37548483Y-5795898D01*
X37627244Y-5519406D01*
X37667751Y-5234784D01*
X37667845Y-5216951D01*
X37669235Y-4951583D01*
X37669235Y-4951576D01*
X37669257Y-4947297D01*
X37631732Y-4662266D01*
X37621410Y-4624533D01*
X37557003Y-4389103D01*
X37555871Y-4384964D01*
X37493673Y-4239144D01*
X37444763Y-4124476D01*
X37444761Y-4124472D01*
X37443077Y-4120524D01*
X37311285Y-3900315D01*
X37297643Y-3877521D01*
X37297640Y-3877517D01*
X37295439Y-3873839D01*
X37115687Y-3649472D01*
X36907149Y-3451577D01*
X36673683Y-3283814D01*
X36651843Y-3272250D01*
X36628654Y-3259972D01*
X36419608Y-3149288D01*
X36149627Y-3050489D01*
X35868736Y-2989245D01*
X35837685Y-2986801D01*
X35645718Y-2971693D01*
X35645709Y-2971693D01*
X35643261Y-2971500D01*
X35487729Y-2971500D01*
X35485593Y-2971646D01*
X35485582Y-2971646D01*
X35277452Y-2985835D01*
X35277446Y-2985836D01*
X35273175Y-2986127D01*
X35268980Y-2986996D01*
X35268978Y-2986996D01*
X35132417Y-3015276D01*
X34991658Y-3044426D01*
X34720657Y-3140393D01*
X34465188Y-3272250D01*
X34461687Y-3274711D01*
X34461683Y-3274713D01*
X34451594Y-3281804D01*
X34229977Y-3437559D01*
X34019378Y-3633260D01*
X33837287Y-3855732D01*
X33687073Y-4100858D01*
X33571517Y-4364102D01*
X33570342Y-4368229D01*
X33570341Y-4368230D01*
X33556486Y-4416868D01*
X33492756Y-4640594D01*
X33452249Y-4925216D01*
X33452227Y-4929505D01*
X33452226Y-4929512D01*
X33451263Y-5113421D01*
X33450743Y-5212703D01*
X33488268Y-5497734D01*
X33564129Y-5775036D01*
X33565813Y-5778984D01*
X33670628Y-6024717D01*
X33676923Y-6039476D01*
X33746571Y-6155850D01*
X33797138Y-6240340D01*
X33824561Y-6286161D01*
X34004313Y-6510528D01*
X34212851Y-6708423D01*
X34252870Y-6737180D01*
X34296516Y-6793172D01*
X34302962Y-6863875D01*
X34270159Y-6926840D01*
X34208523Y-6962074D01*
X34179342Y-6965500D01*
X6462594Y-6965500D01*
X6394473Y-6945498D01*
X6347980Y-6891842D01*
X6337876Y-6821568D01*
X6367370Y-6756988D01*
X6390143Y-6736413D01*
X6406518Y-6724905D01*
X6406524Y-6724900D01*
X6410023Y-6722441D01*
X6620622Y-6526740D01*
X6802713Y-6304268D01*
X6952927Y-6059142D01*
X6966539Y-6028134D01*
X17641500Y-6028134D01*
X17648255Y-6090316D01*
X17699385Y-6226705D01*
X17786739Y-6343261D01*
X17903295Y-6430615D01*
X18039684Y-6481745D01*
X18101866Y-6488500D01*
X19998134Y-6488500D01*
X20060316Y-6481745D01*
X20196705Y-6430615D01*
X20313261Y-6343261D01*
X20400615Y-6226705D01*
X20425180Y-6161178D01*
X20467822Y-6104414D01*
X20534383Y-6079714D01*
X20603732Y-6094921D01*
X20623647Y-6108464D01*
X20688724Y-6162492D01*
X20779349Y-6237730D01*
X20979322Y-6354584D01*
X21195694Y-6437209D01*
X21200760Y-6438240D01*
X21200761Y-6438240D01*
X21253846Y-6449040D01*
X21422656Y-6483385D01*
X21552089Y-6488131D01*
X21648949Y-6491683D01*
X21648953Y-6491683D01*
X21654113Y-6491872D01*
X21659233Y-6491216D01*
X21659235Y-6491216D01*
X21733166Y-6481745D01*
X21883847Y-6462442D01*
X21888795Y-6460957D01*
X21888802Y-6460956D01*
X22100747Y-6397369D01*
X22105690Y-6395886D01*
X22186236Y-6356427D01*
X22309049Y-6296262D01*
X22309052Y-6296260D01*
X22313684Y-6293991D01*
X22502243Y-6159494D01*
X22666303Y-5996005D01*
X22801458Y-5807917D01*
X22809439Y-5791770D01*
X22901784Y-5604922D01*
X22901785Y-5604920D01*
X22904078Y-5600280D01*
X22971408Y-5378671D01*
X23001640Y-5149041D01*
X23002310Y-5121621D01*
X23003245Y-5083365D01*
X23003245Y-5083361D01*
X23003327Y-5080000D01*
X22990955Y-4929512D01*
X22984773Y-4854318D01*
X22984772Y-4854312D01*
X22984349Y-4849167D01*
X22937403Y-4662266D01*
X22929184Y-4629544D01*
X22929183Y-4629540D01*
X22927925Y-4624533D01*
X22835570Y-4412131D01*
X22709764Y-4217665D01*
X22553887Y-4046358D01*
X22549836Y-4043159D01*
X22549832Y-4043155D01*
X22376177Y-3906011D01*
X22376172Y-3906008D01*
X22372123Y-3902810D01*
X22367607Y-3900317D01*
X22367604Y-3900315D01*
X22173879Y-3793373D01*
X22173875Y-3793371D01*
X22169355Y-3790876D01*
X22164486Y-3789152D01*
X22164482Y-3789150D01*
X21955903Y-3715288D01*
X21955899Y-3715287D01*
X21951028Y-3713562D01*
X21945935Y-3712655D01*
X21945932Y-3712654D01*
X21728095Y-3673851D01*
X21728089Y-3673850D01*
X21723006Y-3672945D01*
X21650096Y-3672054D01*
X21496581Y-3670179D01*
X21496579Y-3670179D01*
X21491411Y-3670116D01*
X21262464Y-3705150D01*
X21042314Y-3777106D01*
X21037726Y-3779494D01*
X21037722Y-3779496D01*
X20856491Y-3873839D01*
X20836872Y-3884052D01*
X20832739Y-3887155D01*
X20832736Y-3887157D01*
X20760088Y-3941703D01*
X20651655Y-4023117D01*
X20634170Y-4041414D01*
X20572646Y-4076844D01*
X20501733Y-4073387D01*
X20443947Y-4032141D01*
X20425094Y-3998592D01*
X20403768Y-3941705D01*
X20403767Y-3941703D01*
X20400615Y-3933295D01*
X20313261Y-3816739D01*
X20196705Y-3729385D01*
X20060316Y-3678255D01*
X19998134Y-3671500D01*
X18101866Y-3671500D01*
X18039684Y-3678255D01*
X17903295Y-3729385D01*
X17786739Y-3816739D01*
X17699385Y-3933295D01*
X17648255Y-4069684D01*
X17641500Y-4131866D01*
X17641500Y-6028134D01*
X6966539Y-6028134D01*
X7068483Y-5795898D01*
X7147244Y-5519406D01*
X7187751Y-5234784D01*
X7187845Y-5216951D01*
X7189235Y-4951583D01*
X7189235Y-4951576D01*
X7189257Y-4947297D01*
X7151732Y-4662266D01*
X7141410Y-4624533D01*
X7077003Y-4389103D01*
X7075871Y-4384964D01*
X7013673Y-4239144D01*
X6964763Y-4124476D01*
X6964761Y-4124472D01*
X6963077Y-4120524D01*
X6831285Y-3900315D01*
X6817643Y-3877521D01*
X6817640Y-3877517D01*
X6815439Y-3873839D01*
X6635687Y-3649472D01*
X6427149Y-3451577D01*
X6193683Y-3283814D01*
X6171843Y-3272250D01*
X6148654Y-3259972D01*
X5939608Y-3149288D01*
X5669627Y-3050489D01*
X5388736Y-2989245D01*
X5357685Y-2986801D01*
X5165718Y-2971693D01*
X5165709Y-2971693D01*
X5163261Y-2971500D01*
X5007729Y-2971500D01*
X5005593Y-2971646D01*
X5005582Y-2971646D01*
X4797452Y-2985835D01*
X4797446Y-2985836D01*
X4793175Y-2986127D01*
X4788980Y-2986996D01*
X4788978Y-2986996D01*
X4652417Y-3015276D01*
X4511658Y-3044426D01*
X4240657Y-3140393D01*
X3985188Y-3272250D01*
X3981687Y-3274711D01*
X3981683Y-3274713D01*
X3971594Y-3281804D01*
X3749977Y-3437559D01*
X3539378Y-3633260D01*
X3357287Y-3855732D01*
X3207073Y-4100858D01*
X3091517Y-4364102D01*
X3090342Y-4368229D01*
X3090341Y-4368230D01*
X3076486Y-4416868D01*
X3012756Y-4640594D01*
X2972249Y-4925216D01*
X2972227Y-4929505D01*
X2972226Y-4929512D01*
X2971263Y-5113421D01*
X2970743Y-5212703D01*
X3008268Y-5497734D01*
X3084129Y-5775036D01*
X3085813Y-5778984D01*
X3190628Y-6024717D01*
X3196923Y-6039476D01*
X3266571Y-6155850D01*
X3317138Y-6240340D01*
X3344561Y-6286161D01*
X3524313Y-6510528D01*
X3732851Y-6708423D01*
X3966317Y-6876186D01*
X3970112Y-6878195D01*
X3970113Y-6878196D01*
X3991869Y-6889715D01*
X4220392Y-7010712D01*
X4352634Y-7059106D01*
X4409731Y-7101299D01*
X4434953Y-7167664D01*
X4420291Y-7237131D01*
X4404208Y-7259979D01*
X4401134Y-7262747D01*
X4397255Y-7268086D01*
X4397254Y-7268087D01*
X4392860Y-7274135D01*
X4380019Y-7289168D01*
X1955168Y-9714019D01*
X1940135Y-9726860D01*
X1928747Y-9735134D01*
X1924327Y-9740043D01*
X1882984Y-9785959D01*
X1878443Y-9790744D01*
X1863928Y-9805259D01*
X1861852Y-9807823D01*
X1851006Y-9821216D01*
X1846722Y-9826231D01*
X1805381Y-9872145D01*
X1805377Y-9872150D01*
X1800960Y-9877056D01*
X1797660Y-9882772D01*
X1797657Y-9882776D01*
X1793927Y-9889237D01*
X1782727Y-9905533D01*
X1773871Y-9916470D01*
X1742815Y-9977421D01*
X1739669Y-9983215D01*
X1705473Y-10042444D01*
X1703432Y-10048726D01*
X1703431Y-10048728D01*
X1701125Y-10055826D01*
X1693560Y-10074092D01*
X1687171Y-10086630D01*
X1685463Y-10093003D01*
X1685463Y-10093004D01*
X1669469Y-10152695D01*
X1667600Y-10159003D01*
X1646458Y-10224072D01*
X1645768Y-10230637D01*
X1645766Y-10230646D01*
X1644985Y-10238075D01*
X1641383Y-10257509D01*
X1639453Y-10264714D01*
X1637743Y-10271097D01*
X1637398Y-10277688D01*
X1637397Y-10277692D01*
X1634164Y-10339384D01*
X1633647Y-10345958D01*
X1633403Y-10348280D01*
X1631500Y-10366390D01*
X1631500Y-10386926D01*
X1631327Y-10393520D01*
X1628100Y-10455097D01*
X1627748Y-10461810D01*
X1628780Y-10468325D01*
X1629949Y-10475705D01*
X1631500Y-10495417D01*
X1631500Y-11241502D01*
X1611498Y-11309623D01*
X1557842Y-11356116D01*
X1549730Y-11359484D01*
X1478378Y-11386233D01*
X1443295Y-11399385D01*
X1326739Y-11486739D01*
X1239385Y-11603295D01*
X1188255Y-11739684D01*
X1181500Y-11801866D01*
X1181500Y-13598134D01*
X1188255Y-13660316D01*
X1239385Y-13796705D01*
X1326739Y-13913261D01*
X1443295Y-14000615D01*
X1451704Y-14003767D01*
X1451705Y-14003768D01*
X1560451Y-14044535D01*
X1617216Y-14087176D01*
X1641916Y-14153738D01*
X1626709Y-14223087D01*
X1607316Y-14249568D01*
X1484904Y-14377665D01*
X1480629Y-14382138D01*
X1354743Y-14566680D01*
X1260688Y-14769305D01*
X1200989Y-14984570D01*
X1177251Y-15206695D01*
X1177548Y-15211848D01*
X1177548Y-15211851D01*
X1182959Y-15305691D01*
X1190110Y-15429715D01*
X1191247Y-15434761D01*
X1191248Y-15434767D01*
X1191683Y-15436697D01*
X1239222Y-15647639D01*
X1323266Y-15854616D01*
X1439987Y-16045088D01*
X1586250Y-16213938D01*
X1758126Y-16356632D01*
X1824355Y-16395333D01*
X1831445Y-16399476D01*
X1880169Y-16451114D01*
X1893240Y-16520897D01*
X1866509Y-16586669D01*
X1826055Y-16620027D01*
X1813607Y-16626507D01*
X1809474Y-16629610D01*
X1809471Y-16629612D01*
X1639100Y-16757530D01*
X1634965Y-16760635D01*
X1480629Y-16922138D01*
X1477715Y-16926410D01*
X1477714Y-16926411D01*
X1458186Y-16955038D01*
X1354743Y-17106680D01*
X1339003Y-17140590D01*
X1269785Y-17289708D01*
X1260688Y-17309305D01*
X1200989Y-17524570D01*
X1177251Y-17746695D01*
X1177548Y-17751848D01*
X1177548Y-17751851D01*
X1188866Y-17948132D01*
X1190110Y-17969715D01*
X1191247Y-17974761D01*
X1191248Y-17974767D01*
X1206742Y-18043517D01*
X1239222Y-18187639D01*
X1323266Y-18394616D01*
X1325965Y-18399020D01*
X1436025Y-18578622D01*
X1439987Y-18585088D01*
X1586250Y-18753938D01*
X1668824Y-18822492D01*
X1750043Y-18889921D01*
X1758126Y-18896632D01*
X1951000Y-19009338D01*
X2159692Y-19089030D01*
X2164760Y-19090061D01*
X2164763Y-19090062D01*
X2272017Y-19111883D01*
X2378597Y-19133567D01*
X2383772Y-19133757D01*
X2383774Y-19133757D01*
X2596673Y-19141564D01*
X2596677Y-19141564D01*
X2601837Y-19141753D01*
X2606957Y-19141097D01*
X2606959Y-19141097D01*
X2818288Y-19114025D01*
X2818289Y-19114025D01*
X2823416Y-19113368D01*
X2873840Y-19098240D01*
X3032429Y-19050661D01*
X3032434Y-19050659D01*
X3037384Y-19049174D01*
X3237994Y-18950896D01*
X3307377Y-18901406D01*
X4903423Y-18901406D01*
X4908704Y-18908461D01*
X5085080Y-19011527D01*
X5094363Y-19015974D01*
X5301003Y-19094883D01*
X5310901Y-19097759D01*
X5527653Y-19141857D01*
X5537883Y-19143076D01*
X5758914Y-19151182D01*
X5769223Y-19150714D01*
X5988623Y-19122608D01*
X5998688Y-19120468D01*
X6210557Y-19056905D01*
X6220152Y-19053144D01*
X6418778Y-18955838D01*
X6427636Y-18950559D01*
X6485097Y-18909572D01*
X6493497Y-18898874D01*
X6486510Y-18885721D01*
X5712811Y-18112021D01*
X5698868Y-18104408D01*
X5697034Y-18104539D01*
X5690420Y-18108790D01*
X4910180Y-18889031D01*
X4903423Y-18901406D01*
X3307377Y-18901406D01*
X3419860Y-18821173D01*
X3427737Y-18813324D01*
X3574435Y-18667137D01*
X3578096Y-18663489D01*
X3637594Y-18580689D01*
X3705435Y-18486277D01*
X3708453Y-18482077D01*
X3715452Y-18467917D01*
X3805136Y-18286453D01*
X3805137Y-18286451D01*
X3807430Y-18281811D01*
X3872370Y-18068069D01*
X3901529Y-17846590D01*
X3901854Y-17833302D01*
X3903074Y-17783365D01*
X3903074Y-17783361D01*
X3903156Y-17780000D01*
X3897453Y-17710638D01*
X4287893Y-17710638D01*
X4300627Y-17931468D01*
X4302061Y-17941670D01*
X4350685Y-18157439D01*
X4353773Y-18167292D01*
X4436986Y-18372220D01*
X4441634Y-18381421D01*
X4530097Y-18525781D01*
X4540553Y-18535242D01*
X4549331Y-18531458D01*
X5327979Y-17752811D01*
X5334356Y-17741132D01*
X6064408Y-17741132D01*
X6064539Y-17742966D01*
X6068790Y-17749580D01*
X6846307Y-18527096D01*
X6858313Y-18533652D01*
X6870052Y-18524684D01*
X6908010Y-18471859D01*
X6913321Y-18463020D01*
X7011318Y-18264737D01*
X7015117Y-18255142D01*
X7079415Y-18043517D01*
X7081594Y-18033436D01*
X7110702Y-17812338D01*
X7111221Y-17805663D01*
X7112744Y-17743364D01*
X7112550Y-17736646D01*
X7109987Y-17705469D01*
X22067095Y-17705469D01*
X22067392Y-17710622D01*
X22067392Y-17710625D01*
X22080129Y-17931529D01*
X22080427Y-17936697D01*
X22081564Y-17941743D01*
X22081565Y-17941749D01*
X22108877Y-18062939D01*
X22131346Y-18162642D01*
X22133288Y-18167424D01*
X22133289Y-18167428D01*
X22181620Y-18286453D01*
X22218484Y-18377237D01*
X22339501Y-18574719D01*
X22491147Y-18749784D01*
X22580747Y-18824171D01*
X22664046Y-18893327D01*
X22669349Y-18897730D01*
X22869322Y-19014584D01*
X23085694Y-19097209D01*
X23090760Y-19098240D01*
X23090761Y-19098240D01*
X23143846Y-19109040D01*
X23312656Y-19143385D01*
X23443324Y-19148176D01*
X23538949Y-19151683D01*
X23538953Y-19151683D01*
X23544113Y-19151872D01*
X23549233Y-19151216D01*
X23549235Y-19151216D01*
X23628224Y-19141097D01*
X23773847Y-19122442D01*
X23778795Y-19120957D01*
X23778802Y-19120956D01*
X23990747Y-19057369D01*
X23995690Y-19055886D01*
X24077161Y-19015974D01*
X24199049Y-18956262D01*
X24199052Y-18956260D01*
X24203684Y-18953991D01*
X24392243Y-18819494D01*
X24556303Y-18656005D01*
X24559479Y-18651586D01*
X24607262Y-18585088D01*
X24691458Y-18467917D01*
X24693879Y-18463020D01*
X24791784Y-18264922D01*
X24791785Y-18264920D01*
X24794078Y-18260280D01*
X24861408Y-18038671D01*
X24891640Y-17809041D01*
X24891723Y-17805663D01*
X24893245Y-17743365D01*
X24893245Y-17743361D01*
X24893327Y-17740000D01*
X24878736Y-17562522D01*
X24874773Y-17514318D01*
X24874772Y-17514312D01*
X24874349Y-17509167D01*
X24840797Y-17375592D01*
X24819184Y-17289544D01*
X24819183Y-17289540D01*
X24817925Y-17284533D01*
X24806017Y-17257146D01*
X24727630Y-17076868D01*
X24727628Y-17076865D01*
X24725570Y-17072131D01*
X24599764Y-16877665D01*
X24443887Y-16706358D01*
X24439836Y-16703159D01*
X24439832Y-16703155D01*
X24293690Y-16587740D01*
X24252627Y-16529823D01*
X24249395Y-16458900D01*
X24285020Y-16397489D01*
X24298613Y-16386279D01*
X24340177Y-16356632D01*
X24392243Y-16319494D01*
X24556303Y-16156005D01*
X24691458Y-15967917D01*
X24738641Y-15872450D01*
X24791784Y-15764922D01*
X24791785Y-15764920D01*
X24794078Y-15760280D01*
X24861408Y-15538671D01*
X24891640Y-15309041D01*
X24893327Y-15240000D01*
X24875023Y-15017361D01*
X24874773Y-15014318D01*
X24874772Y-15014312D01*
X24874349Y-15009167D01*
X24833007Y-14844578D01*
X24819184Y-14789544D01*
X24819183Y-14789540D01*
X24817925Y-14784533D01*
X24815866Y-14779797D01*
X24727630Y-14576868D01*
X24727628Y-14576865D01*
X24725570Y-14572131D01*
X24599764Y-14377665D01*
X24536986Y-14308672D01*
X24505936Y-14244829D01*
X24514331Y-14174330D01*
X24559507Y-14119562D01*
X24585952Y-14105893D01*
X24618295Y-14093768D01*
X24618296Y-14093767D01*
X24626705Y-14090615D01*
X24743261Y-14003261D01*
X24830615Y-13886705D01*
X24881745Y-13750316D01*
X24888500Y-13688134D01*
X24888500Y-11791866D01*
X24881745Y-11729684D01*
X24830615Y-11593295D01*
X24743261Y-11476739D01*
X24626705Y-11389385D01*
X24490316Y-11338255D01*
X24428134Y-11331500D01*
X22531866Y-11331500D01*
X22469684Y-11338255D01*
X22333295Y-11389385D01*
X22216739Y-11476739D01*
X22129385Y-11593295D01*
X22078255Y-11729684D01*
X22071500Y-11791866D01*
X22071500Y-13688134D01*
X22078255Y-13750316D01*
X22129385Y-13886705D01*
X22216739Y-14003261D01*
X22333295Y-14090615D01*
X22341703Y-14093767D01*
X22373022Y-14105508D01*
X22429786Y-14148150D01*
X22454486Y-14214711D01*
X22439279Y-14284060D01*
X22419886Y-14310540D01*
X22381639Y-14350564D01*
X22251119Y-14541899D01*
X22153602Y-14751981D01*
X22091707Y-14975169D01*
X22067095Y-15205469D01*
X22067392Y-15210622D01*
X22067392Y-15210625D01*
X22072925Y-15306590D01*
X22080427Y-15436697D01*
X22081564Y-15441743D01*
X22081565Y-15441749D01*
X22113741Y-15584523D01*
X22131346Y-15662642D01*
X22133288Y-15667424D01*
X22133289Y-15667428D01*
X22211087Y-15859020D01*
X22218484Y-15877237D01*
X22339501Y-16074719D01*
X22491147Y-16249784D01*
X22622990Y-16359242D01*
X22666462Y-16395333D01*
X22706097Y-16454235D01*
X22707595Y-16525216D01*
X22670481Y-16585739D01*
X22661630Y-16593037D01*
X22588693Y-16647800D01*
X22541655Y-16683117D01*
X22381639Y-16850564D01*
X22378725Y-16854836D01*
X22378724Y-16854837D01*
X22363152Y-16877665D01*
X22251119Y-17041899D01*
X22153602Y-17251981D01*
X22091707Y-17475169D01*
X22067095Y-17705469D01*
X7109987Y-17705469D01*
X7094279Y-17514400D01*
X7092596Y-17504238D01*
X7038710Y-17289708D01*
X7035389Y-17279953D01*
X6947193Y-17077118D01*
X6942315Y-17068020D01*
X6869224Y-16955038D01*
X6858538Y-16945835D01*
X6848973Y-16950238D01*
X6072021Y-17727189D01*
X6064408Y-17741132D01*
X5334356Y-17741132D01*
X5335592Y-17738868D01*
X5335461Y-17737034D01*
X5331210Y-17730420D01*
X4553862Y-16953073D01*
X4542330Y-16946776D01*
X4530048Y-16956399D01*
X4474467Y-17037877D01*
X4469379Y-17046833D01*
X4376252Y-17247459D01*
X4372689Y-17257146D01*
X4313581Y-17470280D01*
X4311650Y-17480400D01*
X4288145Y-17700349D01*
X4287893Y-17710638D01*
X3897453Y-17710638D01*
X3884852Y-17557361D01*
X3830431Y-17340702D01*
X3741354Y-17135840D01*
X3677815Y-17037623D01*
X3622822Y-16952617D01*
X3622820Y-16952614D01*
X3620014Y-16948277D01*
X3469670Y-16783051D01*
X3465619Y-16779852D01*
X3465615Y-16779848D01*
X3298414Y-16647800D01*
X3298410Y-16647798D01*
X3294359Y-16644598D01*
X3253053Y-16621796D01*
X3203084Y-16571364D01*
X3188312Y-16501921D01*
X3213428Y-16435516D01*
X3240780Y-16408909D01*
X3284603Y-16377650D01*
X3419860Y-16281173D01*
X3578096Y-16123489D01*
X3637594Y-16040689D01*
X3705435Y-15946277D01*
X3708453Y-15942077D01*
X3807430Y-15741811D01*
X3872370Y-15528069D01*
X3901529Y-15306590D01*
X3903156Y-15240000D01*
X3900317Y-15205469D01*
X4287095Y-15205469D01*
X4287392Y-15210622D01*
X4287392Y-15210625D01*
X4292925Y-15306590D01*
X4300427Y-15436697D01*
X4301564Y-15441743D01*
X4301565Y-15441749D01*
X4333741Y-15584523D01*
X4351346Y-15662642D01*
X4353288Y-15667424D01*
X4353289Y-15667428D01*
X4431087Y-15859020D01*
X4438484Y-15877237D01*
X4559501Y-16074719D01*
X4711147Y-16249784D01*
X4835865Y-16353327D01*
X4889349Y-16397730D01*
X4888250Y-16399053D01*
X4927845Y-16448576D01*
X4935162Y-16519195D01*
X4912226Y-16571711D01*
X4905508Y-16580712D01*
X4912251Y-16593040D01*
X5687189Y-17367979D01*
X5701132Y-17375592D01*
X5702966Y-17375461D01*
X5709580Y-17371210D01*
X6488994Y-16591795D01*
X6496011Y-16578944D01*
X6486320Y-16565643D01*
X6462371Y-16498808D01*
X6478358Y-16429634D01*
X6514988Y-16388865D01*
X6560177Y-16356632D01*
X6612243Y-16319494D01*
X6776303Y-16156005D01*
X6911458Y-15967917D01*
X6958641Y-15872450D01*
X7011784Y-15764922D01*
X7011785Y-15764920D01*
X7014078Y-15760280D01*
X7081408Y-15538671D01*
X7111640Y-15309041D01*
X7113327Y-15240000D01*
X7095023Y-15017361D01*
X7094773Y-15014318D01*
X7094772Y-15014312D01*
X7094349Y-15009167D01*
X7053007Y-14844578D01*
X7039184Y-14789544D01*
X7039183Y-14789540D01*
X7037925Y-14784533D01*
X7035866Y-14779797D01*
X6947630Y-14576868D01*
X6947628Y-14576865D01*
X6945570Y-14572131D01*
X6819764Y-14377665D01*
X6756986Y-14308672D01*
X6725936Y-14244829D01*
X6734331Y-14174330D01*
X6779507Y-14119562D01*
X6805952Y-14105893D01*
X6829674Y-14097000D01*
X18821771Y-14097000D01*
X18822461Y-14103565D01*
X18830773Y-14182642D01*
X18840635Y-14276475D01*
X18842675Y-14282753D01*
X18842675Y-14282754D01*
X18863493Y-14346827D01*
X18896401Y-14448107D01*
X18986633Y-14604393D01*
X19107387Y-14738504D01*
X19112729Y-14742385D01*
X19112731Y-14742387D01*
X19248043Y-14840697D01*
X19253385Y-14844578D01*
X19259413Y-14847262D01*
X19259415Y-14847263D01*
X19412217Y-14915295D01*
X19418248Y-14917980D01*
X19506508Y-14936740D01*
X19588311Y-14954128D01*
X19588315Y-14954128D01*
X19594768Y-14955500D01*
X19775232Y-14955500D01*
X19781685Y-14954128D01*
X19781689Y-14954128D01*
X19863492Y-14936740D01*
X19951752Y-14917980D01*
X19957783Y-14915295D01*
X20110585Y-14847263D01*
X20110587Y-14847262D01*
X20116615Y-14844578D01*
X20121957Y-14840697D01*
X20257269Y-14742387D01*
X20257271Y-14742385D01*
X20262613Y-14738504D01*
X20383367Y-14604393D01*
X20473599Y-14448107D01*
X20506507Y-14346827D01*
X20527325Y-14282754D01*
X20527325Y-14282753D01*
X20529365Y-14276475D01*
X20539228Y-14182642D01*
X20547539Y-14103565D01*
X20548229Y-14097000D01*
X20529365Y-13917525D01*
X20473599Y-13745893D01*
X20383367Y-13589607D01*
X20262613Y-13455496D01*
X20116615Y-13349422D01*
X20110587Y-13346738D01*
X20110585Y-13346737D01*
X19957783Y-13278705D01*
X19957781Y-13278705D01*
X19951752Y-13276020D01*
X19863492Y-13257260D01*
X19781689Y-13239872D01*
X19781685Y-13239872D01*
X19775232Y-13238500D01*
X19594768Y-13238500D01*
X19588315Y-13239872D01*
X19588311Y-13239872D01*
X19506508Y-13257260D01*
X19418248Y-13276020D01*
X19412219Y-13278704D01*
X19412217Y-13278705D01*
X19259416Y-13346737D01*
X19259414Y-13346738D01*
X19253386Y-13349422D01*
X19248045Y-13353302D01*
X19248044Y-13353303D01*
X19112731Y-13451613D01*
X19112729Y-13451615D01*
X19107387Y-13455496D01*
X18986633Y-13589607D01*
X18896401Y-13745893D01*
X18840635Y-13917525D01*
X18821771Y-14097000D01*
X6829674Y-14097000D01*
X6838295Y-14093768D01*
X6838296Y-14093767D01*
X6846705Y-14090615D01*
X6963261Y-14003261D01*
X7050615Y-13886705D01*
X7101745Y-13750316D01*
X7108500Y-13688134D01*
X7108500Y-11791866D01*
X7101745Y-11729684D01*
X7050615Y-11593295D01*
X6963261Y-11476739D01*
X6846705Y-11389385D01*
X6710316Y-11338255D01*
X6648134Y-11331500D01*
X4751866Y-11331500D01*
X4689684Y-11338255D01*
X4553295Y-11389385D01*
X4436739Y-11476739D01*
X4349385Y-11593295D01*
X4298255Y-11729684D01*
X4291500Y-11791866D01*
X4291500Y-13688134D01*
X4298255Y-13750316D01*
X4349385Y-13886705D01*
X4436739Y-14003261D01*
X4553295Y-14090615D01*
X4561703Y-14093767D01*
X4593022Y-14105508D01*
X4649786Y-14148150D01*
X4674486Y-14214711D01*
X4659279Y-14284060D01*
X4639886Y-14310540D01*
X4601639Y-14350564D01*
X4471119Y-14541899D01*
X4373602Y-14751981D01*
X4311707Y-14975169D01*
X4287095Y-15205469D01*
X3900317Y-15205469D01*
X3884852Y-15017361D01*
X3830431Y-14800702D01*
X3741354Y-14595840D01*
X3620014Y-14408277D01*
X3616532Y-14404450D01*
X3472798Y-14246488D01*
X3441746Y-14182642D01*
X3450141Y-14112143D01*
X3495317Y-14057375D01*
X3521761Y-14043706D01*
X3628297Y-14003767D01*
X3636705Y-14000615D01*
X3753261Y-13913261D01*
X3840615Y-13796705D01*
X3891745Y-13660316D01*
X3898500Y-13598134D01*
X3898500Y-11801866D01*
X3891745Y-11739684D01*
X3840615Y-11603295D01*
X3753261Y-11486739D01*
X3636705Y-11399385D01*
X3601622Y-11386233D01*
X3530270Y-11359484D01*
X3473506Y-11316842D01*
X3448806Y-11250281D01*
X3448500Y-11241502D01*
X3448500Y-10842503D01*
X3468502Y-10774382D01*
X3485405Y-10753408D01*
X5419408Y-8819405D01*
X5481720Y-8785379D01*
X5508503Y-8782500D01*
X10893085Y-8782500D01*
X10961206Y-8802502D01*
X11007699Y-8856158D01*
X11017803Y-8926432D01*
X10988309Y-8991012D01*
X10928583Y-9029396D01*
X10920249Y-9031537D01*
X10822088Y-9053209D01*
X10822084Y-9053210D01*
X10817628Y-9054194D01*
X10691520Y-9101972D01*
X10569682Y-9148132D01*
X10569679Y-9148133D01*
X10565412Y-9149750D01*
X10329632Y-9280714D01*
X10115227Y-9444343D01*
X9926688Y-9637208D01*
X9767966Y-9855270D01*
X9750095Y-9889237D01*
X9644510Y-10089921D01*
X9644507Y-10089927D01*
X9642385Y-10093961D01*
X9640865Y-10098266D01*
X9640863Y-10098270D01*
X9554549Y-10342690D01*
X9552575Y-10348280D01*
X9529051Y-10467630D01*
X9501962Y-10605072D01*
X9500419Y-10612900D01*
X9500192Y-10617453D01*
X9500192Y-10617456D01*
X9487301Y-10876417D01*
X9487009Y-10882277D01*
X9512625Y-11150769D01*
X9513710Y-11155203D01*
X9513711Y-11155209D01*
X9558502Y-11338255D01*
X9576731Y-11412750D01*
X9677985Y-11662733D01*
X9814265Y-11895482D01*
X9817118Y-11899049D01*
X9934686Y-12046060D01*
X9982716Y-12106119D01*
X10179809Y-12290234D01*
X10401416Y-12443968D01*
X10405499Y-12445999D01*
X10405502Y-12446001D01*
X10521013Y-12503466D01*
X10642894Y-12564101D01*
X10647228Y-12565522D01*
X10647231Y-12565523D01*
X10894853Y-12646698D01*
X10894859Y-12646699D01*
X10899186Y-12648118D01*
X10903677Y-12648898D01*
X10903678Y-12648898D01*
X11161140Y-12693601D01*
X11161148Y-12693602D01*
X11164921Y-12694257D01*
X11168758Y-12694448D01*
X11248578Y-12698422D01*
X11248586Y-12698422D01*
X11250149Y-12698500D01*
X14118512Y-12698500D01*
X14120780Y-12698335D01*
X14120792Y-12698335D01*
X14251884Y-12688823D01*
X14319004Y-12683953D01*
X14323459Y-12682969D01*
X14323462Y-12682969D01*
X14577912Y-12626791D01*
X14577916Y-12626790D01*
X14582372Y-12625806D01*
X14708480Y-12578028D01*
X14830318Y-12531868D01*
X14830321Y-12531867D01*
X14834588Y-12530250D01*
X15070368Y-12399286D01*
X15284773Y-12235657D01*
X15473312Y-12042792D01*
X15632034Y-11824730D01*
X15715190Y-11666676D01*
X15755490Y-11590079D01*
X15755493Y-11590073D01*
X15757615Y-11586039D01*
X15798114Y-11471358D01*
X15845902Y-11336033D01*
X15845902Y-11336032D01*
X15847425Y-11331720D01*
X15899581Y-11067100D01*
X15908782Y-10882277D01*
X15912764Y-10802292D01*
X15912764Y-10802286D01*
X15912991Y-10797723D01*
X15887375Y-10529231D01*
X15874278Y-10475705D01*
X15824355Y-10271688D01*
X15823269Y-10267250D01*
X15722015Y-10017267D01*
X15596512Y-9802923D01*
X15588045Y-9788463D01*
X15588044Y-9788462D01*
X15585735Y-9784518D01*
X15467928Y-9637208D01*
X15420136Y-9577447D01*
X15420135Y-9577445D01*
X15417284Y-9573881D01*
X15220191Y-9389766D01*
X14998584Y-9236032D01*
X14994501Y-9234001D01*
X14994498Y-9233999D01*
X14829606Y-9151967D01*
X14757106Y-9115899D01*
X14752772Y-9114478D01*
X14752769Y-9114477D01*
X14675821Y-9089252D01*
X14500814Y-9031882D01*
X14496321Y-9031102D01*
X14494938Y-9030757D01*
X14433680Y-8994869D01*
X14401549Y-8931559D01*
X14408746Y-8860928D01*
X14452987Y-8805401D01*
X14525421Y-8782500D01*
X28673085Y-8782500D01*
X28741206Y-8802502D01*
X28787699Y-8856158D01*
X28797803Y-8926432D01*
X28768309Y-8991012D01*
X28708583Y-9029396D01*
X28700249Y-9031537D01*
X28602088Y-9053209D01*
X28602084Y-9053210D01*
X28597628Y-9054194D01*
X28471520Y-9101972D01*
X28349682Y-9148132D01*
X28349679Y-9148133D01*
X28345412Y-9149750D01*
X28109632Y-9280714D01*
X27895227Y-9444343D01*
X27706688Y-9637208D01*
X27547966Y-9855270D01*
X27530095Y-9889237D01*
X27424510Y-10089921D01*
X27424507Y-10089927D01*
X27422385Y-10093961D01*
X27420865Y-10098266D01*
X27420863Y-10098270D01*
X27334549Y-10342690D01*
X27332575Y-10348280D01*
X27309051Y-10467630D01*
X27281962Y-10605072D01*
X27280419Y-10612900D01*
X27280192Y-10617453D01*
X27280192Y-10617456D01*
X27267301Y-10876417D01*
X27267009Y-10882277D01*
X27292625Y-11150769D01*
X27293710Y-11155203D01*
X27293711Y-11155209D01*
X27338502Y-11338255D01*
X27356731Y-11412750D01*
X27457985Y-11662733D01*
X27594265Y-11895482D01*
X27597118Y-11899049D01*
X27714686Y-12046060D01*
X27762716Y-12106119D01*
X27959809Y-12290234D01*
X28181416Y-12443968D01*
X28185499Y-12445999D01*
X28185502Y-12446001D01*
X28301013Y-12503466D01*
X28422894Y-12564101D01*
X28427228Y-12565522D01*
X28427231Y-12565523D01*
X28674853Y-12646698D01*
X28674859Y-12646699D01*
X28679186Y-12648118D01*
X28683677Y-12648898D01*
X28683678Y-12648898D01*
X28941140Y-12693601D01*
X28941148Y-12693602D01*
X28944921Y-12694257D01*
X28948758Y-12694448D01*
X29028578Y-12698422D01*
X29028586Y-12698422D01*
X29030149Y-12698500D01*
X31898512Y-12698500D01*
X31900780Y-12698335D01*
X31900792Y-12698335D01*
X32031884Y-12688823D01*
X32099004Y-12683953D01*
X32103459Y-12682969D01*
X32103462Y-12682969D01*
X32357912Y-12626791D01*
X32357916Y-12626790D01*
X32362372Y-12625806D01*
X32488480Y-12578028D01*
X32610318Y-12531868D01*
X32610321Y-12531867D01*
X32614588Y-12530250D01*
X32850368Y-12399286D01*
X33064773Y-12235657D01*
X33253312Y-12042792D01*
X33412034Y-11824730D01*
X33495190Y-11666676D01*
X33535490Y-11590079D01*
X33535493Y-11590073D01*
X33537615Y-11586039D01*
X33578114Y-11471358D01*
X33625902Y-11336033D01*
X33625902Y-11336032D01*
X33627425Y-11331720D01*
X33679581Y-11067100D01*
X33688782Y-10882277D01*
X33692764Y-10802292D01*
X33692764Y-10802286D01*
X33692991Y-10797723D01*
X33667375Y-10529231D01*
X33654278Y-10475705D01*
X33604355Y-10271688D01*
X33603269Y-10267250D01*
X33502015Y-10017267D01*
X33376512Y-9802923D01*
X33368045Y-9788463D01*
X33368044Y-9788462D01*
X33365735Y-9784518D01*
X33247928Y-9637208D01*
X33200136Y-9577447D01*
X33200135Y-9577445D01*
X33197284Y-9573881D01*
X33000191Y-9389766D01*
X32778584Y-9236032D01*
X32774501Y-9234001D01*
X32774498Y-9233999D01*
X32609606Y-9151967D01*
X32537106Y-9115899D01*
X32532772Y-9114478D01*
X32532769Y-9114477D01*
X32455821Y-9089252D01*
X32280814Y-9031882D01*
X32276321Y-9031102D01*
X32274938Y-9030757D01*
X32213680Y-8994869D01*
X32181549Y-8931559D01*
X32188746Y-8860928D01*
X32232987Y-8805401D01*
X32305421Y-8782500D01*
X34750497Y-8782500D01*
X34818618Y-8802502D01*
X34839592Y-8819405D01*
X37154595Y-11134408D01*
X37188621Y-11196720D01*
X37191500Y-11223503D01*
X37191500Y-11241502D01*
X37171498Y-11309623D01*
X37117842Y-11356116D01*
X37109730Y-11359484D01*
X37038378Y-11386233D01*
X37003295Y-11399385D01*
X36886739Y-11486739D01*
X36799385Y-11603295D01*
X36748255Y-11739684D01*
X36741500Y-11801866D01*
X36741500Y-13598134D01*
X36748255Y-13660316D01*
X36799385Y-13796705D01*
X36886739Y-13913261D01*
X37003295Y-14000615D01*
X37011704Y-14003767D01*
X37011705Y-14003768D01*
X37120451Y-14044535D01*
X37177216Y-14087176D01*
X37201916Y-14153738D01*
X37186709Y-14223087D01*
X37167316Y-14249568D01*
X37044904Y-14377665D01*
X37040629Y-14382138D01*
X36914743Y-14566680D01*
X36820688Y-14769305D01*
X36760989Y-14984570D01*
X36737251Y-15206695D01*
X36737548Y-15211848D01*
X36737548Y-15211851D01*
X36742959Y-15305691D01*
X36750110Y-15429715D01*
X36751247Y-15434761D01*
X36751248Y-15434767D01*
X36751683Y-15436697D01*
X36799222Y-15647639D01*
X36883266Y-15854616D01*
X36999987Y-16045088D01*
X37146250Y-16213938D01*
X37318126Y-16356632D01*
X37384355Y-16395333D01*
X37391445Y-16399476D01*
X37440169Y-16451114D01*
X37453240Y-16520897D01*
X37426509Y-16586669D01*
X37386055Y-16620027D01*
X37373607Y-16626507D01*
X37369474Y-16629610D01*
X37369471Y-16629612D01*
X37199100Y-16757530D01*
X37194965Y-16760635D01*
X37040629Y-16922138D01*
X37037715Y-16926410D01*
X37037714Y-16926411D01*
X37018186Y-16955038D01*
X36914743Y-17106680D01*
X36899003Y-17140590D01*
X36829785Y-17289708D01*
X36820688Y-17309305D01*
X36760989Y-17524570D01*
X36737251Y-17746695D01*
X36737548Y-17751848D01*
X36737548Y-17751851D01*
X36740153Y-17797031D01*
X36750110Y-17969715D01*
X36751247Y-17974760D01*
X36751966Y-17979877D01*
X36750518Y-17980081D01*
X36746398Y-18044274D01*
X36717119Y-18090200D01*
X32986432Y-21820887D01*
X32924120Y-21854913D01*
X32853305Y-21849848D01*
X32803701Y-21816102D01*
X32713035Y-21715407D01*
X32713034Y-21715406D01*
X32708613Y-21710496D01*
X32701411Y-21705263D01*
X32567957Y-21608303D01*
X32567956Y-21608302D01*
X32562615Y-21604422D01*
X32556588Y-21601739D01*
X32556580Y-21601734D01*
X32533430Y-21591427D01*
X32479334Y-21545446D01*
X32458686Y-21477519D01*
X32478039Y-21409211D01*
X32531250Y-21362210D01*
X32540039Y-21358494D01*
X32610318Y-21331868D01*
X32610321Y-21331867D01*
X32614588Y-21330250D01*
X32850368Y-21199286D01*
X33064773Y-21035657D01*
X33114399Y-20984893D01*
X33250117Y-20846060D01*
X33253312Y-20842792D01*
X33412034Y-20624730D01*
X33470477Y-20513648D01*
X33535490Y-20390079D01*
X33535493Y-20390073D01*
X33537615Y-20386039D01*
X33581094Y-20262919D01*
X33625902Y-20136033D01*
X33625902Y-20136032D01*
X33627425Y-20131720D01*
X33679581Y-19867100D01*
X33688782Y-19682277D01*
X33692764Y-19602292D01*
X33692764Y-19602286D01*
X33692991Y-19597723D01*
X33667375Y-19329231D01*
X33623693Y-19150714D01*
X33604355Y-19071688D01*
X33603269Y-19067250D01*
X33502015Y-18817267D01*
X33405005Y-18651586D01*
X33368045Y-18588463D01*
X33368044Y-18588462D01*
X33365735Y-18584518D01*
X33247928Y-18437208D01*
X33200136Y-18377447D01*
X33200135Y-18377445D01*
X33197284Y-18373881D01*
X33000191Y-18189766D01*
X32778584Y-18036032D01*
X32774501Y-18034001D01*
X32774498Y-18033999D01*
X32609606Y-17951967D01*
X32537106Y-17915899D01*
X32532772Y-17914478D01*
X32532769Y-17914477D01*
X32285147Y-17833302D01*
X32285141Y-17833301D01*
X32280814Y-17831882D01*
X32276322Y-17831102D01*
X32018860Y-17786399D01*
X32018852Y-17786398D01*
X32015079Y-17785743D01*
X32003817Y-17785182D01*
X31931422Y-17781578D01*
X31931414Y-17781578D01*
X31929851Y-17781500D01*
X29061488Y-17781500D01*
X29059220Y-17781665D01*
X29059208Y-17781665D01*
X28928116Y-17791177D01*
X28860996Y-17796047D01*
X28856541Y-17797031D01*
X28856538Y-17797031D01*
X28602088Y-17853209D01*
X28602084Y-17853210D01*
X28597628Y-17854194D01*
X28471520Y-17901972D01*
X28349682Y-17948132D01*
X28349679Y-17948133D01*
X28345412Y-17949750D01*
X28109632Y-18080714D01*
X27895227Y-18244343D01*
X27892034Y-18247609D01*
X27892032Y-18247611D01*
X27800957Y-18340776D01*
X27706688Y-18437208D01*
X27547966Y-18655270D01*
X27500296Y-18745877D01*
X27424510Y-18889921D01*
X27424507Y-18889927D01*
X27422385Y-18893961D01*
X27420865Y-18898266D01*
X27420863Y-18898270D01*
X27337771Y-19133567D01*
X27332575Y-19148280D01*
X27280419Y-19412900D01*
X27280192Y-19417453D01*
X27280192Y-19417456D01*
X27270991Y-19602292D01*
X27267009Y-19682277D01*
X27292625Y-19950769D01*
X27293710Y-19955203D01*
X27293711Y-19955209D01*
X27338123Y-20136705D01*
X27356731Y-20212750D01*
X27457985Y-20462733D01*
X27594265Y-20695482D01*
X27597118Y-20699049D01*
X27714686Y-20846060D01*
X27762716Y-20906119D01*
X27959809Y-21090234D01*
X28181416Y-21243968D01*
X28185499Y-21245999D01*
X28185502Y-21246001D01*
X28301013Y-21303466D01*
X28422894Y-21364101D01*
X28427228Y-21365522D01*
X28427231Y-21365523D01*
X28674853Y-21446698D01*
X28674859Y-21446699D01*
X28679186Y-21448118D01*
X28683677Y-21448898D01*
X28683678Y-21448898D01*
X28941140Y-21493601D01*
X28941148Y-21493602D01*
X28944921Y-21494257D01*
X28948758Y-21494448D01*
X29028578Y-21498422D01*
X29028586Y-21498422D01*
X29030149Y-21498500D01*
X31461623Y-21498500D01*
X31529744Y-21518502D01*
X31576237Y-21572158D01*
X31586341Y-21642432D01*
X31556847Y-21707012D01*
X31553533Y-21710390D01*
X31553387Y-21710496D01*
X31552918Y-21711017D01*
X31552912Y-21711023D01*
X31437052Y-21839699D01*
X31432633Y-21844607D01*
X31342401Y-22000893D01*
X31286635Y-22172525D01*
X31267771Y-22352000D01*
X31286635Y-22531475D01*
X31342401Y-22703107D01*
X31345704Y-22708829D01*
X31345705Y-22708830D01*
X31399208Y-22801500D01*
X31415946Y-22870496D01*
X31392725Y-22937587D01*
X31336918Y-22981474D01*
X31290089Y-22990500D01*
X24705070Y-22990500D01*
X24686120Y-22989067D01*
X24671885Y-22986901D01*
X24671881Y-22986901D01*
X24664651Y-22985801D01*
X24657359Y-22986394D01*
X24657356Y-22986394D01*
X24611982Y-22990085D01*
X24601767Y-22990500D01*
X24593707Y-22990500D01*
X24590073Y-22990924D01*
X24590067Y-22990924D01*
X24577042Y-22992443D01*
X24565480Y-22993791D01*
X24561132Y-22994221D01*
X24488364Y-23000140D01*
X24481403Y-23002395D01*
X24475463Y-23003582D01*
X24469588Y-23004971D01*
X24462319Y-23005818D01*
X24393670Y-23030736D01*
X24389542Y-23032153D01*
X24327064Y-23052393D01*
X24327062Y-23052394D01*
X24320101Y-23054649D01*
X24313846Y-23058445D01*
X24308372Y-23060951D01*
X24302942Y-23063670D01*
X24296063Y-23066167D01*
X24289943Y-23070180D01*
X24289942Y-23070180D01*
X24235024Y-23106186D01*
X24231320Y-23108523D01*
X24168893Y-23146405D01*
X24160516Y-23153803D01*
X24160492Y-23153776D01*
X24157500Y-23156429D01*
X24154267Y-23159132D01*
X24148148Y-23163144D01*
X24143116Y-23168456D01*
X24094872Y-23219383D01*
X24092494Y-23221825D01*
X23471724Y-23842595D01*
X23409412Y-23876621D01*
X23382629Y-23879500D01*
X5147069Y-23879500D01*
X5128121Y-23878067D01*
X5120780Y-23876950D01*
X5113883Y-23875901D01*
X5113881Y-23875901D01*
X5106651Y-23874801D01*
X5099359Y-23875394D01*
X5099356Y-23875394D01*
X5053982Y-23879085D01*
X5043767Y-23879500D01*
X5035707Y-23879500D01*
X5022417Y-23881049D01*
X5007493Y-23882789D01*
X5003118Y-23883222D01*
X4937661Y-23888546D01*
X4937658Y-23888547D01*
X4930363Y-23889140D01*
X4923399Y-23891396D01*
X4917440Y-23892587D01*
X4911585Y-23893971D01*
X4904319Y-23894818D01*
X4835673Y-23919735D01*
X4831545Y-23921152D01*
X4769064Y-23941393D01*
X4769062Y-23941394D01*
X4762101Y-23943649D01*
X4755846Y-23947445D01*
X4750372Y-23949951D01*
X4744942Y-23952670D01*
X4738063Y-23955167D01*
X4677016Y-23995191D01*
X4673327Y-23997518D01*
X4653135Y-24009771D01*
X4615693Y-24032491D01*
X4615688Y-24032495D01*
X4610892Y-24035405D01*
X4602516Y-24042803D01*
X4602493Y-24042777D01*
X4599503Y-24045427D01*
X4596270Y-24048130D01*
X4590148Y-24052144D01*
X4589165Y-24053182D01*
X4558788Y-24069987D01*
X4559248Y-24071020D01*
X4400416Y-24141737D01*
X4400414Y-24141738D01*
X4394386Y-24144422D01*
X4361868Y-24168048D01*
X4328560Y-24192247D01*
X4261692Y-24216105D01*
X4192541Y-24200024D01*
X4180439Y-24192246D01*
X4119957Y-24148303D01*
X4119956Y-24148302D01*
X4114615Y-24144422D01*
X4108587Y-24141738D01*
X4108585Y-24141737D01*
X3955783Y-24073705D01*
X3955781Y-24073705D01*
X3949752Y-24071020D01*
X3857648Y-24051443D01*
X3779689Y-24034872D01*
X3779685Y-24034872D01*
X3773232Y-24033500D01*
X3592768Y-24033500D01*
X3586315Y-24034872D01*
X3586311Y-24034872D01*
X3508352Y-24051443D01*
X3416248Y-24071020D01*
X3410219Y-24073704D01*
X3410217Y-24073705D01*
X3257416Y-24141737D01*
X3257414Y-24141738D01*
X3251386Y-24144422D01*
X3246045Y-24148302D01*
X3246044Y-24148303D01*
X3110731Y-24246613D01*
X3110729Y-24246615D01*
X3105387Y-24250496D01*
X3100966Y-24255406D01*
X3100965Y-24255407D01*
X3082266Y-24276175D01*
X2984633Y-24384607D01*
X2981332Y-24390325D01*
X2910968Y-24512199D01*
X2894401Y-24540893D01*
X2892359Y-24547178D01*
X2849459Y-24679213D01*
X2838635Y-24712525D01*
X2819771Y-24892000D01*
X2838635Y-25071475D01*
X2894401Y-25243107D01*
X2984633Y-25399393D01*
X3105387Y-25533504D01*
X3110729Y-25537385D01*
X3110731Y-25537387D01*
X3185561Y-25591754D01*
X3251385Y-25639578D01*
X3257413Y-25642262D01*
X3257415Y-25642263D01*
X3410217Y-25710295D01*
X3416248Y-25712980D01*
X3504508Y-25731740D01*
X3586311Y-25749128D01*
X3586315Y-25749128D01*
X3592768Y-25750500D01*
X3773232Y-25750500D01*
X3779685Y-25749128D01*
X3779689Y-25749128D01*
X3861492Y-25731740D01*
X3949752Y-25712980D01*
X3955783Y-25710295D01*
X4108585Y-25642263D01*
X4108587Y-25642262D01*
X4114615Y-25639578D01*
X4180438Y-25591754D01*
X4247307Y-25567895D01*
X4316458Y-25583976D01*
X4328561Y-25591754D01*
X4394385Y-25639578D01*
X4400413Y-25642262D01*
X4400415Y-25642263D01*
X4553217Y-25710295D01*
X4559248Y-25712980D01*
X4647508Y-25731740D01*
X4729311Y-25749128D01*
X4729315Y-25749128D01*
X4735768Y-25750500D01*
X4916232Y-25750500D01*
X4922685Y-25749128D01*
X4922689Y-25749128D01*
X5004492Y-25731740D01*
X5092752Y-25712980D01*
X5098783Y-25710295D01*
X5251585Y-25642263D01*
X5251587Y-25642262D01*
X5257615Y-25639578D01*
X5323439Y-25591754D01*
X5398269Y-25537387D01*
X5398271Y-25537385D01*
X5403613Y-25533504D01*
X5489434Y-25438190D01*
X5549880Y-25400950D01*
X5583070Y-25396500D01*
X23681930Y-25396500D01*
X23700880Y-25397933D01*
X23715115Y-25400099D01*
X23715119Y-25400099D01*
X23722349Y-25401199D01*
X23729641Y-25400606D01*
X23729644Y-25400606D01*
X23775018Y-25396915D01*
X23785233Y-25396500D01*
X23793293Y-25396500D01*
X23806583Y-25394951D01*
X23821507Y-25393211D01*
X23825882Y-25392778D01*
X23891339Y-25387454D01*
X23891342Y-25387453D01*
X23898637Y-25386860D01*
X23905601Y-25384604D01*
X23911560Y-25383413D01*
X23917415Y-25382029D01*
X23924681Y-25381182D01*
X23993327Y-25356265D01*
X23997455Y-25354848D01*
X24059936Y-25334607D01*
X24059938Y-25334606D01*
X24066899Y-25332351D01*
X24073154Y-25328555D01*
X24078628Y-25326049D01*
X24084058Y-25323330D01*
X24090937Y-25320833D01*
X24151976Y-25280814D01*
X24155680Y-25278477D01*
X24218107Y-25240595D01*
X24226484Y-25233197D01*
X24226508Y-25233224D01*
X24229500Y-25230571D01*
X24232733Y-25227868D01*
X24238852Y-25223856D01*
X24292128Y-25167617D01*
X24294506Y-25165175D01*
X24915276Y-24544405D01*
X24977588Y-24510379D01*
X25004371Y-24507500D01*
X26177066Y-24507500D01*
X26245187Y-24527502D01*
X26291680Y-24581158D01*
X26301784Y-24651432D01*
X26272290Y-24716012D01*
X26251129Y-24735434D01*
X26219387Y-24758496D01*
X26098633Y-24892607D01*
X26008401Y-25048893D01*
X25952635Y-25220525D01*
X25951945Y-25227088D01*
X25951945Y-25227089D01*
X25938367Y-25356276D01*
X25933771Y-25400000D01*
X25952635Y-25579475D01*
X26008401Y-25751107D01*
X26011704Y-25756829D01*
X26011705Y-25756830D01*
X26051929Y-25826500D01*
X26068667Y-25895496D01*
X26045446Y-25962587D01*
X25989639Y-26006474D01*
X25942810Y-26015500D01*
X3637417Y-26015500D01*
X3617708Y-26013949D01*
X3603810Y-26011748D01*
X3597223Y-26012093D01*
X3597218Y-26012093D01*
X3535520Y-26015327D01*
X3528926Y-26015500D01*
X3508390Y-26015500D01*
X3505118Y-26015844D01*
X3505116Y-26015844D01*
X3487958Y-26017647D01*
X3481384Y-26018164D01*
X3419692Y-26021397D01*
X3419688Y-26021398D01*
X3413097Y-26021743D01*
X3406716Y-26023453D01*
X3406714Y-26023453D01*
X3399509Y-26025383D01*
X3380075Y-26028985D01*
X3372646Y-26029766D01*
X3372637Y-26029768D01*
X3366072Y-26030458D01*
X3301003Y-26051600D01*
X3294701Y-26053467D01*
X3228630Y-26071171D01*
X3216093Y-26077559D01*
X3197826Y-26085125D01*
X3190728Y-26087431D01*
X3190726Y-26087432D01*
X3184444Y-26089473D01*
X3178722Y-26092776D01*
X3178721Y-26092777D01*
X3125218Y-26123667D01*
X3119423Y-26126814D01*
X3058470Y-26157871D01*
X3053342Y-26162024D01*
X3053340Y-26162025D01*
X3047534Y-26166727D01*
X3031237Y-26177927D01*
X3024776Y-26181657D01*
X3024772Y-26181660D01*
X3019056Y-26184960D01*
X3014150Y-26189377D01*
X3014145Y-26189381D01*
X2968231Y-26230722D01*
X2963216Y-26235006D01*
X2954718Y-26241888D01*
X2947259Y-26247928D01*
X2932744Y-26262443D01*
X2927959Y-26266984D01*
X2877134Y-26312747D01*
X2873255Y-26318086D01*
X2873254Y-26318087D01*
X2868860Y-26324135D01*
X2856019Y-26339168D01*
X2650592Y-26544595D01*
X2588280Y-26578621D01*
X2561497Y-26581500D01*
X1641866Y-26581500D01*
X1579684Y-26588255D01*
X1443295Y-26639385D01*
X1326739Y-26726739D01*
X1239385Y-26843295D01*
X1188255Y-26979684D01*
X1181500Y-27041866D01*
X1181500Y-28838134D01*
X1188255Y-28900316D01*
X1239385Y-29036705D01*
X1326739Y-29153261D01*
X1443295Y-29240615D01*
X1451704Y-29243767D01*
X1451705Y-29243768D01*
X1560451Y-29284535D01*
X1617216Y-29327176D01*
X1641916Y-29393738D01*
X1626709Y-29463087D01*
X1607316Y-29489568D01*
X1480629Y-29622138D01*
X1354743Y-29806680D01*
X1260688Y-30009305D01*
X1200989Y-30224570D01*
X1177251Y-30446695D01*
X508500Y-30446695D01*
X508500Y-19682277D01*
X9487009Y-19682277D01*
X9512625Y-19950769D01*
X9513710Y-19955203D01*
X9513711Y-19955209D01*
X9558123Y-20136705D01*
X9576731Y-20212750D01*
X9677985Y-20462733D01*
X9814265Y-20695482D01*
X9817118Y-20699049D01*
X9934686Y-20846060D01*
X9982716Y-20906119D01*
X10179809Y-21090234D01*
X10401416Y-21243968D01*
X10405499Y-21245999D01*
X10405502Y-21246001D01*
X10521013Y-21303466D01*
X10642894Y-21364101D01*
X10647228Y-21365522D01*
X10647231Y-21365523D01*
X10894853Y-21446698D01*
X10894859Y-21446699D01*
X10899186Y-21448118D01*
X10903677Y-21448898D01*
X10903678Y-21448898D01*
X11161140Y-21493601D01*
X11161148Y-21493602D01*
X11164921Y-21494257D01*
X11168758Y-21494448D01*
X11248578Y-21498422D01*
X11248586Y-21498422D01*
X11250149Y-21498500D01*
X14118512Y-21498500D01*
X14120780Y-21498335D01*
X14120792Y-21498335D01*
X14251884Y-21488823D01*
X14319004Y-21483953D01*
X14323459Y-21482969D01*
X14323462Y-21482969D01*
X14577912Y-21426791D01*
X14577916Y-21426790D01*
X14582372Y-21425806D01*
X14708480Y-21378028D01*
X14830318Y-21331868D01*
X14830321Y-21331867D01*
X14834588Y-21330250D01*
X15070368Y-21199286D01*
X15284773Y-21035657D01*
X15334399Y-20984893D01*
X15363621Y-20955000D01*
X17170771Y-20955000D01*
X17189635Y-21134475D01*
X17245401Y-21306107D01*
X17335633Y-21462393D01*
X17340051Y-21467300D01*
X17340052Y-21467301D01*
X17368144Y-21498500D01*
X17456387Y-21596504D01*
X17461729Y-21600385D01*
X17461731Y-21600387D01*
X17597043Y-21698697D01*
X17602385Y-21702578D01*
X17608413Y-21705262D01*
X17608415Y-21705263D01*
X17626916Y-21713500D01*
X17767248Y-21775980D01*
X17855508Y-21794740D01*
X17937311Y-21812128D01*
X17937315Y-21812128D01*
X17943768Y-21813500D01*
X18124232Y-21813500D01*
X18130685Y-21812128D01*
X18130689Y-21812128D01*
X18212492Y-21794740D01*
X18300752Y-21775980D01*
X18441084Y-21713500D01*
X18459585Y-21705263D01*
X18459587Y-21705262D01*
X18465615Y-21702578D01*
X18470956Y-21698697D01*
X18476674Y-21695396D01*
X18477811Y-21697364D01*
X18534824Y-21677031D01*
X18603973Y-21693120D01*
X18609178Y-21696465D01*
X18613042Y-21698696D01*
X18618385Y-21702578D01*
X18624413Y-21705262D01*
X18624415Y-21705263D01*
X18642916Y-21713500D01*
X18783248Y-21775980D01*
X18871508Y-21794740D01*
X18953311Y-21812128D01*
X18953315Y-21812128D01*
X18959768Y-21813500D01*
X19140232Y-21813500D01*
X19146685Y-21812128D01*
X19146689Y-21812128D01*
X19228492Y-21794740D01*
X19316752Y-21775980D01*
X19432618Y-21724393D01*
X19483867Y-21713500D01*
X22796630Y-21713500D01*
X22847879Y-21724393D01*
X22963745Y-21775980D01*
X23052005Y-21794740D01*
X23133808Y-21812128D01*
X23133812Y-21812128D01*
X23140265Y-21813500D01*
X23320729Y-21813500D01*
X23327182Y-21812128D01*
X23327186Y-21812128D01*
X23408989Y-21794740D01*
X23497249Y-21775980D01*
X23503280Y-21773295D01*
X23629000Y-21717321D01*
X23699367Y-21707887D01*
X23731499Y-21717321D01*
X23863248Y-21775980D01*
X23951508Y-21794740D01*
X24033311Y-21812128D01*
X24033315Y-21812128D01*
X24039768Y-21813500D01*
X24220232Y-21813500D01*
X24226685Y-21812128D01*
X24226689Y-21812128D01*
X24308492Y-21794740D01*
X24396752Y-21775980D01*
X24537084Y-21713500D01*
X24555585Y-21705263D01*
X24555587Y-21705262D01*
X24561615Y-21702578D01*
X24566957Y-21698697D01*
X24702269Y-21600387D01*
X24702271Y-21600385D01*
X24707613Y-21596504D01*
X24795856Y-21498500D01*
X24823948Y-21467301D01*
X24823949Y-21467300D01*
X24828367Y-21462393D01*
X24901340Y-21336000D01*
X25679771Y-21336000D01*
X25680461Y-21342565D01*
X25695357Y-21484283D01*
X25698635Y-21515475D01*
X25754401Y-21687107D01*
X25757704Y-21692829D01*
X25757705Y-21692830D01*
X25763333Y-21702578D01*
X25844633Y-21843393D01*
X25849051Y-21848300D01*
X25849052Y-21848301D01*
X25921843Y-21929144D01*
X25965387Y-21977504D01*
X25970729Y-21981385D01*
X25970731Y-21981387D01*
X26106043Y-22079697D01*
X26111385Y-22083578D01*
X26117413Y-22086262D01*
X26117415Y-22086263D01*
X26270217Y-22154295D01*
X26276248Y-22156980D01*
X26364508Y-22175740D01*
X26446311Y-22193128D01*
X26446315Y-22193128D01*
X26452768Y-22194500D01*
X26633232Y-22194500D01*
X26639685Y-22193128D01*
X26639689Y-22193128D01*
X26721492Y-22175740D01*
X26809752Y-22156980D01*
X26815783Y-22154295D01*
X26968585Y-22086263D01*
X26968587Y-22086262D01*
X26974615Y-22083578D01*
X26979957Y-22079697D01*
X27115269Y-21981387D01*
X27115271Y-21981385D01*
X27120613Y-21977504D01*
X27164157Y-21929144D01*
X27236948Y-21848301D01*
X27236949Y-21848300D01*
X27241367Y-21843393D01*
X27322667Y-21702578D01*
X27328295Y-21692830D01*
X27328296Y-21692829D01*
X27331599Y-21687107D01*
X27387365Y-21515475D01*
X27390644Y-21484283D01*
X27405539Y-21342565D01*
X27406229Y-21336000D01*
X27392093Y-21201504D01*
X27388055Y-21163089D01*
X27388055Y-21163088D01*
X27387365Y-21156525D01*
X27331599Y-20984893D01*
X27241367Y-20828607D01*
X27120613Y-20694496D01*
X27019037Y-20620696D01*
X26979957Y-20592303D01*
X26979956Y-20592302D01*
X26974615Y-20588422D01*
X26968587Y-20585738D01*
X26968585Y-20585737D01*
X26815783Y-20517705D01*
X26815781Y-20517705D01*
X26809752Y-20515020D01*
X26721492Y-20496260D01*
X26639689Y-20478872D01*
X26639685Y-20478872D01*
X26633232Y-20477500D01*
X26452768Y-20477500D01*
X26446315Y-20478872D01*
X26446311Y-20478872D01*
X26364508Y-20496260D01*
X26276248Y-20515020D01*
X26270219Y-20517704D01*
X26270217Y-20517705D01*
X26117416Y-20585737D01*
X26117414Y-20585738D01*
X26111386Y-20588422D01*
X26106045Y-20592302D01*
X26106044Y-20592303D01*
X25970731Y-20690613D01*
X25970729Y-20690615D01*
X25965387Y-20694496D01*
X25844633Y-20828607D01*
X25754401Y-20984893D01*
X25698635Y-21156525D01*
X25697945Y-21163088D01*
X25697945Y-21163089D01*
X25693907Y-21201504D01*
X25679771Y-21336000D01*
X24901340Y-21336000D01*
X24918599Y-21306107D01*
X24974365Y-21134475D01*
X24993229Y-20955000D01*
X24988091Y-20906119D01*
X24975055Y-20782089D01*
X24975055Y-20782088D01*
X24974365Y-20775525D01*
X24918599Y-20603893D01*
X24911908Y-20592303D01*
X24845626Y-20477500D01*
X24828367Y-20447607D01*
X24707613Y-20313496D01*
X24596778Y-20232969D01*
X24566957Y-20211303D01*
X24566956Y-20211302D01*
X24561615Y-20207422D01*
X24555587Y-20204738D01*
X24555585Y-20204737D01*
X24402783Y-20136705D01*
X24402781Y-20136705D01*
X24396752Y-20134020D01*
X24308492Y-20115260D01*
X24226689Y-20097872D01*
X24226685Y-20097872D01*
X24220232Y-20096500D01*
X24039768Y-20096500D01*
X24033315Y-20097872D01*
X24033311Y-20097872D01*
X23951508Y-20115260D01*
X23863248Y-20134020D01*
X23857219Y-20136704D01*
X23857217Y-20136705D01*
X23731498Y-20192679D01*
X23661131Y-20202113D01*
X23629000Y-20192679D01*
X23503280Y-20136705D01*
X23503278Y-20136705D01*
X23497249Y-20134020D01*
X23408989Y-20115260D01*
X23327186Y-20097872D01*
X23327182Y-20097872D01*
X23320729Y-20096500D01*
X23140265Y-20096500D01*
X23133812Y-20097872D01*
X23133808Y-20097872D01*
X23052005Y-20115260D01*
X22963745Y-20134020D01*
X22957716Y-20136704D01*
X22957714Y-20136705D01*
X22847880Y-20185607D01*
X22796631Y-20196500D01*
X19483867Y-20196500D01*
X19432618Y-20185607D01*
X19322783Y-20136705D01*
X19322781Y-20136705D01*
X19316752Y-20134020D01*
X19228492Y-20115260D01*
X19146689Y-20097872D01*
X19146685Y-20097872D01*
X19140232Y-20096500D01*
X18959768Y-20096500D01*
X18953315Y-20097872D01*
X18953311Y-20097872D01*
X18871508Y-20115260D01*
X18783248Y-20134020D01*
X18777219Y-20136704D01*
X18777217Y-20136705D01*
X18624414Y-20204738D01*
X18618386Y-20207422D01*
X18613047Y-20211301D01*
X18607326Y-20214604D01*
X18606188Y-20212633D01*
X18549195Y-20232969D01*
X18480044Y-20216890D01*
X18474839Y-20213544D01*
X18470954Y-20211301D01*
X18465615Y-20207422D01*
X18459587Y-20204738D01*
X18459585Y-20204737D01*
X18306783Y-20136705D01*
X18306781Y-20136705D01*
X18300752Y-20134020D01*
X18212492Y-20115260D01*
X18130689Y-20097872D01*
X18130685Y-20097872D01*
X18124232Y-20096500D01*
X17943768Y-20096500D01*
X17937315Y-20097872D01*
X17937311Y-20097872D01*
X17855508Y-20115260D01*
X17767248Y-20134020D01*
X17761219Y-20136704D01*
X17761217Y-20136705D01*
X17608416Y-20204737D01*
X17608414Y-20204738D01*
X17602386Y-20207422D01*
X17597045Y-20211302D01*
X17597044Y-20211303D01*
X17461731Y-20309613D01*
X17461729Y-20309615D01*
X17456387Y-20313496D01*
X17335633Y-20447607D01*
X17318374Y-20477500D01*
X17252093Y-20592303D01*
X17245401Y-20603893D01*
X17189635Y-20775525D01*
X17188945Y-20782088D01*
X17188945Y-20782089D01*
X17175909Y-20906119D01*
X17170771Y-20955000D01*
X15363621Y-20955000D01*
X15470117Y-20846060D01*
X15473312Y-20842792D01*
X15632034Y-20624730D01*
X15690477Y-20513648D01*
X15755490Y-20390079D01*
X15755493Y-20390073D01*
X15757615Y-20386039D01*
X15801094Y-20262919D01*
X15845902Y-20136033D01*
X15845902Y-20136032D01*
X15847425Y-20131720D01*
X15899581Y-19867100D01*
X15908782Y-19682277D01*
X15912764Y-19602292D01*
X15912764Y-19602286D01*
X15912991Y-19597723D01*
X15887375Y-19329231D01*
X15843693Y-19150714D01*
X15824355Y-19071688D01*
X15823269Y-19067250D01*
X15722015Y-18817267D01*
X15625005Y-18651586D01*
X15588045Y-18588463D01*
X15588044Y-18588462D01*
X15585735Y-18584518D01*
X15467928Y-18437208D01*
X15420136Y-18377447D01*
X15420135Y-18377445D01*
X15417284Y-18373881D01*
X15220191Y-18189766D01*
X14998584Y-18036032D01*
X14994501Y-18034001D01*
X14994498Y-18033999D01*
X14829606Y-17951967D01*
X14757106Y-17915899D01*
X14752772Y-17914478D01*
X14752769Y-17914477D01*
X14505147Y-17833302D01*
X14505141Y-17833301D01*
X14500814Y-17831882D01*
X14496322Y-17831102D01*
X14238860Y-17786399D01*
X14238852Y-17786398D01*
X14235079Y-17785743D01*
X14223817Y-17785182D01*
X14151422Y-17781578D01*
X14151414Y-17781578D01*
X14149851Y-17781500D01*
X11281488Y-17781500D01*
X11279220Y-17781665D01*
X11279208Y-17781665D01*
X11148116Y-17791177D01*
X11080996Y-17796047D01*
X11076541Y-17797031D01*
X11076538Y-17797031D01*
X10822088Y-17853209D01*
X10822084Y-17853210D01*
X10817628Y-17854194D01*
X10691520Y-17901972D01*
X10569682Y-17948132D01*
X10569679Y-17948133D01*
X10565412Y-17949750D01*
X10329632Y-18080714D01*
X10115227Y-18244343D01*
X10112034Y-18247609D01*
X10112032Y-18247611D01*
X10020957Y-18340776D01*
X9926688Y-18437208D01*
X9767966Y-18655270D01*
X9720296Y-18745877D01*
X9644510Y-18889921D01*
X9644507Y-18889927D01*
X9642385Y-18893961D01*
X9640865Y-18898266D01*
X9640863Y-18898270D01*
X9557771Y-19133567D01*
X9552575Y-19148280D01*
X9500419Y-19412900D01*
X9500192Y-19417453D01*
X9500192Y-19417456D01*
X9490991Y-19602292D01*
X9487009Y-19682277D01*
X508500Y-19682277D01*
X508500Y-5133250D01*
X510246Y-5112345D01*
X512770Y-5097344D01*
X512770Y-5097341D01*
X513576Y-5092552D01*
X513729Y-5080000D01*
X513039Y-5075184D01*
X513039Y-5075178D01*
X511387Y-5063644D01*
X510234Y-5040284D01*
X514480Y-4943049D01*
X525656Y-4687063D01*
X526614Y-4676114D01*
X577233Y-4291621D01*
X579142Y-4280795D01*
X663080Y-3902178D01*
X665925Y-3891561D01*
X735193Y-3671869D01*
X782542Y-3521698D01*
X786298Y-3511377D01*
X812105Y-3449074D01*
X934715Y-3153068D01*
X939357Y-3143115D01*
X986808Y-3051964D01*
X1118424Y-2799132D01*
X1123919Y-2789613D01*
X1332292Y-2462532D01*
X1338597Y-2453528D01*
X1574678Y-2145862D01*
X1581743Y-2137442D01*
X1843744Y-1851517D01*
X1851517Y-1843744D01*
X2137442Y-1581743D01*
X2145862Y-1574678D01*
X2453528Y-1338597D01*
X2462532Y-1332292D01*
X2789613Y-1123919D01*
X2799133Y-1118423D01*
X3143124Y-939353D01*
X3153068Y-934715D01*
X3511385Y-786295D01*
X3521698Y-782542D01*
X3721298Y-719608D01*
X3891561Y-665925D01*
X3902178Y-663080D01*
X4280795Y-579142D01*
X4291621Y-577233D01*
X4676114Y-526614D01*
X4687063Y-525656D01*
X5036554Y-510397D01*
X5061429Y-511777D01*
X5073724Y-513691D01*
X5082626Y-512527D01*
X5082628Y-512527D01*
X5101399Y-510072D01*
X5105286Y-509564D01*
X5121621Y-508500D01*
X35510633Y-508500D01*
X35530018Y-510000D01*
G37*
%TD.AperFunction*%
%TD*%
M02*
