M48
; DRILL file {KiCad (6.0.9-0)} date 2024 November 07, Thursday 13:03:10
; FORMAT={-:-/ absolute / inch / decimal}
; #@! TF.CreationDate,2024-11-07T13:03:10+01:00
; #@! TF.GenerationSoftware,Kicad,Pcbnew,(6.0.9-0)
; #@! TF.FileFunction,Plated,1,4,PTH
FMAT,2
INCH
; #@! TA.AperFunction,Plated,PTH,ViaDrill
T1C0.0118
; #@! TA.AperFunction,Plated,PTH,ComponentDrill
T2C0.0354
; #@! TA.AperFunction,Plated,PTH,ComponentDrill
T3C0.0394
; #@! TA.AperFunction,Plated,PTH,ComponentDrill
T4C0.0472
; #@! TA.AperFunction,Plated,PTH,ComponentDrill
T5C0.0709
; #@! TA.AperFunction,Plated,PTH,ComponentDrill
T6C0.1260
%
G90
G05
T1
X0.145Y-0.98
X0.19Y-0.98
X0.305Y-1.47
X0.305Y-1.52
X0.48Y-1.01
X0.5134Y-1.06
X0.53Y-1.205
X0.58Y-1.205
X0.71Y-0.825
X0.75Y-0.825
X0.775Y-0.555
X0.85Y-1.905
X0.9146Y-0.825
X0.92Y-1.305
X0.92Y-1.415
X0.95Y-0.825
X1.045Y-0.84
X1.045Y-0.885
X1.055Y-1.0
X1.11Y-1.78
X1.115Y-1.445
X1.135Y-1.7485
X1.155Y-1.445
X1.225Y-0.88
X1.265Y-0.88
X1.355Y-1.155
T2
X0.75Y-0.2
X0.75Y-2.1
X0.85Y-0.2
X0.85Y-2.1
T3
X0.1Y-0.5
X0.1Y-0.6
X0.1Y-0.7
X0.1Y-1.1
X0.1Y-1.2
X0.1Y-1.3
X0.1Y-1.6
X0.1Y-1.7
X0.1Y-1.8
X1.5Y-0.5
X1.5Y-0.6
X1.5Y-0.7
X1.5Y-1.1
X1.5Y-1.2
X1.5Y-1.3
X1.5Y-1.6
X1.5Y-1.7
X1.5Y-1.8
T4
X0.2244Y-0.5016
X0.2244Y-0.6
X0.2244Y-0.6984
X0.2244Y-1.6016
X0.2244Y-1.7
X0.2244Y-1.7984
X0.9244Y-0.5016
X0.9244Y-0.6
X0.9244Y-0.6984
X0.9244Y-1.6016
X0.9244Y-1.7
X0.9244Y-1.7984
T6
X0.2Y-2.1
X1.4Y-2.1
T5
G00X0.5059Y-0.4268
M15
G01X0.4941Y-0.4268
M16
G05
G00X0.5059Y-0.7732
M15
G01X0.4941Y-0.7732
M16
G05
G00X0.5059Y-1.5268
M15
G01X0.4941Y-1.5268
M16
G05
G00X0.5059Y-1.8732
M15
G01X0.4941Y-1.8732
M16
G05
G00X1.2059Y-0.4268
M15
G01X1.1941Y-0.4268
M16
G05
G00X1.2059Y-0.7732
M15
G01X1.1941Y-0.7732
M16
G05
G00X1.2059Y-1.5268
M15
G01X1.1941Y-1.5268
M16
G05
G00X1.2059Y-1.8732
M15
G01X1.1941Y-1.8732
M16
G05
T0
M30
