%TF.GenerationSoftware,KiCad,Pcbnew,(6.0.9-0)*%
%TF.CreationDate,2024-03-22T17:08:36+01:00*%
%TF.ProjectId,attenuverters,61747465-6e75-4766-9572-746572732e6b,rev?*%
%TF.SameCoordinates,Original*%
%TF.FileFunction,Soldermask,Top*%
%TF.FilePolarity,Negative*%
%FSLAX46Y46*%
G04 Gerber Fmt 4.6, Leading zero omitted, Abs format (unit mm)*
G04 Created by KiCad (PCBNEW (6.0.9-0)) date 2024-03-22 17:08:36*
%MOMM*%
%LPD*%
G01*
G04 APERTURE LIST*
G04 Aperture macros list*
%AMRoundRect*
0 Rectangle with rounded corners*
0 $1 Rounding radius*
0 $2 $3 $4 $5 $6 $7 $8 $9 X,Y pos of 4 corners*
0 Add a 4 corners polygon primitive as box body*
4,1,4,$2,$3,$4,$5,$6,$7,$8,$9,$2,$3,0*
0 Add four circle primitives for the rounded corners*
1,1,$1+$1,$2,$3*
1,1,$1+$1,$4,$5*
1,1,$1+$1,$6,$7*
1,1,$1+$1,$8,$9*
0 Add four rect primitives between the rounded corners*
20,1,$1+$1,$2,$3,$4,$5,0*
20,1,$1+$1,$4,$5,$6,$7,0*
20,1,$1+$1,$6,$7,$8,$9,0*
20,1,$1+$1,$8,$9,$2,$3,0*%
G04 Aperture macros list end*
%ADD10RoundRect,0.237500X-0.237500X0.250000X-0.237500X-0.250000X0.237500X-0.250000X0.237500X0.250000X0*%
%ADD11RoundRect,0.237500X0.237500X-0.250000X0.237500X0.250000X-0.237500X0.250000X-0.237500X-0.250000X0*%
%ADD12RoundRect,0.237500X0.237500X-0.300000X0.237500X0.300000X-0.237500X0.300000X-0.237500X-0.300000X0*%
%ADD13R,1.800000X1.800000*%
%ADD14C,1.800000*%
%ADD15R,1.700000X1.700000*%
%ADD16O,1.700000X1.700000*%
%ADD17O,5.400000X2.700000*%
%ADD18C,3.200000*%
%ADD19RoundRect,0.237500X-0.237500X0.300000X-0.237500X-0.300000X0.237500X-0.300000X0.237500X0.300000X0*%
%ADD20C,5.500000*%
%ADD21RoundRect,0.150000X-0.150000X0.825000X-0.150000X-0.825000X0.150000X-0.825000X0.150000X0.825000X0*%
G04 APERTURE END LIST*
D10*
%TO.C,R11*%
X20447000Y-42394500D03*
X20447000Y-44219500D03*
%TD*%
%TO.C,R5*%
X20574000Y-10009500D03*
X20574000Y-11834500D03*
%TD*%
D11*
%TO.C,R2*%
X7620000Y-36091500D03*
X7620000Y-34266500D03*
%TD*%
D10*
%TO.C,R18*%
X24638000Y-22455500D03*
X24638000Y-24280500D03*
%TD*%
D12*
%TO.C,C4*%
X21717000Y-36041500D03*
X21717000Y-34316500D03*
%TD*%
D13*
%TO.C,D2*%
X19050000Y-53340000D03*
D14*
X21590000Y-53340000D03*
%TD*%
D13*
%TO.C,D1*%
X19050000Y-5080000D03*
D14*
X21590000Y-5080000D03*
%TD*%
D15*
%TO.C,J1*%
X2540000Y-12700000D03*
D16*
X2540000Y-15240000D03*
X2540000Y-17780000D03*
%TD*%
D17*
%TO.C,RV3*%
X30480000Y-19640000D03*
X30480000Y-10840000D03*
D13*
X23480000Y-12740000D03*
D14*
X23480000Y-15240000D03*
X23480000Y-17740000D03*
%TD*%
D17*
%TO.C,RV1*%
X12700000Y-19640000D03*
X12700000Y-10840000D03*
D13*
X5700000Y-12740000D03*
D14*
X5700000Y-15240000D03*
X5700000Y-17740000D03*
%TD*%
D10*
%TO.C,R20*%
X24638000Y-30329500D03*
X24638000Y-32154500D03*
%TD*%
D11*
%TO.C,R21*%
X27559000Y-24280500D03*
X27559000Y-22455500D03*
%TD*%
D18*
%TO.C,H2*%
X5080000Y-5080000D03*
%TD*%
D10*
%TO.C,R22*%
X27432000Y-34243000D03*
X27432000Y-36068000D03*
%TD*%
D19*
%TO.C,C1*%
X16256000Y-22505500D03*
X16256000Y-24230500D03*
%TD*%
D11*
%TO.C,R9*%
X20574000Y-19962500D03*
X20574000Y-18137500D03*
%TD*%
D12*
%TO.C,C2*%
X13462000Y-36041500D03*
X13462000Y-34316500D03*
%TD*%
D15*
%TO.C,J2*%
X2540000Y-27940000D03*
D16*
X2540000Y-30480000D03*
X2540000Y-33020000D03*
%TD*%
D15*
%TO.C,J6*%
X2540000Y-40640000D03*
D16*
X2540000Y-43180000D03*
X2540000Y-45720000D03*
%TD*%
D11*
%TO.C,R6*%
X20574000Y-15898500D03*
X20574000Y-14073500D03*
%TD*%
%TO.C,R15*%
X6604000Y-28241000D03*
X6604000Y-26416000D03*
%TD*%
%TO.C,R10*%
X20193000Y-28090500D03*
X20193000Y-26265500D03*
%TD*%
D17*
%TO.C,RV2*%
X12700000Y-38780000D03*
X12700000Y-47580000D03*
D13*
X5700000Y-40680000D03*
D14*
X5700000Y-43180000D03*
X5700000Y-45680000D03*
%TD*%
D10*
%TO.C,R1*%
X21844000Y-22455500D03*
X21844000Y-24280500D03*
%TD*%
D11*
%TO.C,R13*%
X10668000Y-24280500D03*
X10668000Y-22455500D03*
%TD*%
%TO.C,R7*%
X20447000Y-39901500D03*
X20447000Y-38076500D03*
%TD*%
D19*
%TO.C,C3*%
X7620000Y-22505500D03*
X7620000Y-24230500D03*
%TD*%
D12*
%TO.C,C6*%
X34417000Y-32131000D03*
X34417000Y-30406000D03*
%TD*%
D15*
%TO.C,J5*%
X38100000Y-27940000D03*
D16*
X38100000Y-30480000D03*
X38100000Y-33020000D03*
%TD*%
D11*
%TO.C,R3*%
X19050000Y-24280500D03*
X19050000Y-22455500D03*
%TD*%
D20*
%TO.C,H1*%
X35560000Y-53340000D03*
%TD*%
D21*
%TO.C,U2*%
X31623000Y-26735000D03*
X30353000Y-26735000D03*
X29083000Y-26735000D03*
X27813000Y-26735000D03*
X27813000Y-31685000D03*
X29083000Y-31685000D03*
X30353000Y-31685000D03*
X31623000Y-31685000D03*
%TD*%
D12*
%TO.C,C5*%
X13462000Y-24230500D03*
X13462000Y-22505500D03*
%TD*%
D15*
%TO.C,J3*%
X38100000Y-40640000D03*
D16*
X38100000Y-43180000D03*
X38100000Y-45720000D03*
%TD*%
D11*
%TO.C,R16*%
X24638000Y-36091500D03*
X24638000Y-34266500D03*
%TD*%
D15*
%TO.C,J4*%
X38100000Y-12700000D03*
D16*
X38100000Y-15240000D03*
X38100000Y-17780000D03*
%TD*%
D10*
%TO.C,R14*%
X19050000Y-34266500D03*
X19050000Y-36091500D03*
%TD*%
%TO.C,R8*%
X20447000Y-46585500D03*
X20447000Y-48410500D03*
%TD*%
%TO.C,R19*%
X30226000Y-34266500D03*
X30226000Y-36091500D03*
%TD*%
D20*
%TO.C,H3*%
X5080000Y-53340000D03*
%TD*%
D18*
%TO.C,H4*%
X35560000Y-5080000D03*
%TD*%
D11*
%TO.C,R12*%
X16256000Y-36115000D03*
X16256000Y-34290000D03*
%TD*%
%TO.C,R17*%
X30353000Y-24280500D03*
X30353000Y-22455500D03*
%TD*%
D10*
%TO.C,R4*%
X10668000Y-34266500D03*
X10668000Y-36091500D03*
%TD*%
D17*
%TO.C,RV4*%
X30480000Y-47580000D03*
X30480000Y-38780000D03*
D13*
X23480000Y-40680000D03*
D14*
X23480000Y-43180000D03*
X23480000Y-45680000D03*
%TD*%
D21*
%TO.C,U1*%
X17272000Y-26735000D03*
X16002000Y-26735000D03*
X14732000Y-26735000D03*
X13462000Y-26735000D03*
X12192000Y-26735000D03*
X10922000Y-26735000D03*
X9652000Y-26735000D03*
X9652000Y-31685000D03*
X10922000Y-31685000D03*
X12192000Y-31685000D03*
X13462000Y-31685000D03*
X14732000Y-31685000D03*
X16002000Y-31685000D03*
X17272000Y-31685000D03*
%TD*%
M02*
