%TF.GenerationSoftware,KiCad,Pcbnew,(6.0.9-0)*%
%TF.CreationDate,2024-11-07T13:03:10+01:00*%
%TF.ProjectId,attenuverters,61747465-6e75-4766-9572-746572732e6b,rev?*%
%TF.SameCoordinates,Original*%
%TF.FileFunction,Copper,L1,Top*%
%TF.FilePolarity,Positive*%
%FSLAX46Y46*%
G04 Gerber Fmt 4.6, Leading zero omitted, Abs format (unit mm)*
G04 Created by KiCad (PCBNEW (6.0.9-0)) date 2024-11-07 13:03:10*
%MOMM*%
%LPD*%
G01*
G04 APERTURE LIST*
G04 Aperture macros list*
%AMRoundRect*
0 Rectangle with rounded corners*
0 $1 Rounding radius*
0 $2 $3 $4 $5 $6 $7 $8 $9 X,Y pos of 4 corners*
0 Add a 4 corners polygon primitive as box body*
4,1,4,$2,$3,$4,$5,$6,$7,$8,$9,$2,$3,0*
0 Add four circle primitives for the rounded corners*
1,1,$1+$1,$2,$3*
1,1,$1+$1,$4,$5*
1,1,$1+$1,$6,$7*
1,1,$1+$1,$8,$9*
0 Add four rect primitives between the rounded corners*
20,1,$1+$1,$2,$3,$4,$5,0*
20,1,$1+$1,$4,$5,$6,$7,0*
20,1,$1+$1,$6,$7,$8,$9,0*
20,1,$1+$1,$8,$9,$2,$3,0*%
G04 Aperture macros list end*
%TA.AperFunction,SMDPad,CuDef*%
%ADD10RoundRect,0.237500X-0.237500X0.250000X-0.237500X-0.250000X0.237500X-0.250000X0.237500X0.250000X0*%
%TD*%
%TA.AperFunction,SMDPad,CuDef*%
%ADD11RoundRect,0.237500X0.237500X-0.250000X0.237500X0.250000X-0.237500X0.250000X-0.237500X-0.250000X0*%
%TD*%
%TA.AperFunction,SMDPad,CuDef*%
%ADD12RoundRect,0.237500X0.237500X-0.300000X0.237500X0.300000X-0.237500X0.300000X-0.237500X-0.300000X0*%
%TD*%
%TA.AperFunction,ComponentPad*%
%ADD13C,1.800000*%
%TD*%
%TA.AperFunction,ComponentPad*%
%ADD14R,1.800000X1.800000*%
%TD*%
%TA.AperFunction,ComponentPad*%
%ADD15O,1.700000X1.700000*%
%TD*%
%TA.AperFunction,ComponentPad*%
%ADD16R,1.700000X1.700000*%
%TD*%
%TA.AperFunction,ComponentPad*%
%ADD17O,5.400000X2.700000*%
%TD*%
%TA.AperFunction,SMDPad,CuDef*%
%ADD18RoundRect,0.237500X-0.237500X0.300000X-0.237500X-0.300000X0.237500X-0.300000X0.237500X0.300000X0*%
%TD*%
%TA.AperFunction,ComponentPad*%
%ADD19C,5.500000*%
%TD*%
%TA.AperFunction,SMDPad,CuDef*%
%ADD20RoundRect,0.150000X-0.150000X0.825000X-0.150000X-0.825000X0.150000X-0.825000X0.150000X0.825000X0*%
%TD*%
%TA.AperFunction,ViaPad*%
%ADD21C,0.700000*%
%TD*%
%TA.AperFunction,Conductor*%
%ADD22C,0.500000*%
%TD*%
%TA.AperFunction,Conductor*%
%ADD23C,0.300000*%
%TD*%
%TA.AperFunction,Conductor*%
%ADD24C,0.800000*%
%TD*%
G04 APERTURE END LIST*
D10*
%TO.P,R11,2*%
%TO.N,Net-(R11-Pad2)*%
X20447000Y-44219500D03*
%TO.P,R11,1*%
%TO.N,Net-(C4-Pad1)*%
X20447000Y-42394500D03*
%TD*%
%TO.P,R5,2*%
%TO.N,Net-(R5-Pad2)*%
X20574000Y-11834500D03*
%TO.P,R5,1*%
%TO.N,/+9V*%
X20574000Y-10009500D03*
%TD*%
D11*
%TO.P,R2,2*%
%TO.N,Net-(C2-Pad1)*%
X7620000Y-34266500D03*
%TO.P,R2,1*%
%TO.N,/In2*%
X7620000Y-36091500D03*
%TD*%
D10*
%TO.P,R18,2*%
%TO.N,Net-(C3-Pad2)*%
X24638000Y-24280500D03*
%TO.P,R18,1*%
%TO.N,Net-(R18-Pad1)*%
X24638000Y-22455500D03*
%TD*%
D12*
%TO.P,C4,2*%
%TO.N,Net-(C4-Pad2)*%
X21717000Y-34316500D03*
%TO.P,C4,1*%
%TO.N,Net-(C4-Pad1)*%
X21717000Y-36041500D03*
%TD*%
D13*
%TO.P,D2,2,AK*%
%TO.N,Net-(D2-Pad2)*%
X21590000Y-53340000D03*
D14*
%TO.P,D2,1,KA*%
%TO.N,Net-(D2-Pad1)*%
X19050000Y-53340000D03*
%TD*%
D13*
%TO.P,D1,2,AK*%
%TO.N,Net-(D1-Pad2)*%
X21590000Y-5080000D03*
D14*
%TO.P,D1,1,KA*%
%TO.N,Net-(D1-Pad1)*%
X19050000Y-5080000D03*
%TD*%
D15*
%TO.P,J1,3,Pin_3*%
%TO.N,/Out1*%
X2540000Y-17780000D03*
%TO.P,J1,2,Pin_2*%
%TO.N,/GND*%
X2540000Y-15240000D03*
D16*
%TO.P,J1,1,Pin_1*%
%TO.N,/In1*%
X2540000Y-12700000D03*
%TD*%
D13*
%TO.P,RV3,3,3*%
%TO.N,Net-(R6-Pad1)*%
X23480000Y-17740000D03*
%TO.P,RV3,2,2*%
%TO.N,Net-(R9-Pad2)*%
X23480000Y-15240000D03*
D14*
%TO.P,RV3,1,1*%
%TO.N,Net-(R5-Pad2)*%
X23480000Y-12740000D03*
D17*
%TO.P,RV3,0,ShieldPin*%
%TO.N,/GND*%
X30480000Y-10840000D03*
X30480000Y-19640000D03*
%TD*%
D13*
%TO.P,RV1,3,3*%
%TO.N,/+4.5V*%
X5700000Y-17740000D03*
%TO.P,RV1,2,2*%
%TO.N,Net-(RV1-Pad2)*%
X5700000Y-15240000D03*
D14*
%TO.P,RV1,1,1*%
%TO.N,/In1*%
X5700000Y-12740000D03*
D17*
%TO.P,RV1,0,ShieldPin*%
%TO.N,/GND*%
X12700000Y-10840000D03*
X12700000Y-19640000D03*
%TD*%
D10*
%TO.P,R20,2*%
%TO.N,Net-(C4-Pad2)*%
X24638000Y-32154500D03*
%TO.P,R20,1*%
%TO.N,Net-(R20-Pad1)*%
X24638000Y-30329500D03*
%TD*%
D11*
%TO.P,R21,2*%
%TO.N,/+4.5V*%
X27559000Y-22455500D03*
%TO.P,R21,1*%
%TO.N,Net-(R18-Pad1)*%
X27559000Y-24280500D03*
%TD*%
D10*
%TO.P,R22,2*%
%TO.N,/+4.5V*%
X27432000Y-36068000D03*
%TO.P,R22,1*%
%TO.N,Net-(R20-Pad1)*%
X27432000Y-34243000D03*
%TD*%
D18*
%TO.P,C1,2*%
%TO.N,Net-(C1-Pad2)*%
X16256000Y-24230500D03*
%TO.P,C1,1*%
%TO.N,Net-(C1-Pad1)*%
X16256000Y-22505500D03*
%TD*%
D11*
%TO.P,R9,2*%
%TO.N,Net-(R9-Pad2)*%
X20574000Y-18137500D03*
%TO.P,R9,1*%
%TO.N,Net-(C3-Pad1)*%
X20574000Y-19962500D03*
%TD*%
D12*
%TO.P,C2,2*%
%TO.N,Net-(C2-Pad2)*%
X13462000Y-34316500D03*
%TO.P,C2,1*%
%TO.N,Net-(C2-Pad1)*%
X13462000Y-36041500D03*
%TD*%
D15*
%TO.P,J2,3,Pin_3*%
%TO.N,/+4.5V*%
X2540000Y-33020000D03*
%TO.P,J2,2,Pin_2*%
%TO.N,/GND*%
X2540000Y-30480000D03*
D16*
%TO.P,J2,1,Pin_1*%
%TO.N,/+9V*%
X2540000Y-27940000D03*
%TD*%
D15*
%TO.P,J6,3,Pin_3*%
%TO.N,/Out2*%
X2540000Y-45720000D03*
%TO.P,J6,2,Pin_2*%
%TO.N,/GND*%
X2540000Y-43180000D03*
D16*
%TO.P,J6,1,Pin_1*%
%TO.N,/In2*%
X2540000Y-40640000D03*
%TD*%
D11*
%TO.P,R6,2*%
%TO.N,/GND*%
X20574000Y-14073500D03*
%TO.P,R6,1*%
%TO.N,Net-(R6-Pad1)*%
X20574000Y-15898500D03*
%TD*%
%TO.P,R15,2*%
%TO.N,Net-(C3-Pad2)*%
X6604000Y-26416000D03*
%TO.P,R15,1*%
%TO.N,/Out1*%
X6604000Y-28241000D03*
%TD*%
%TO.P,R10,2*%
%TO.N,Net-(C1-Pad2)*%
X20193000Y-26265500D03*
%TO.P,R10,1*%
%TO.N,Net-(C3-Pad1)*%
X20193000Y-28090500D03*
%TD*%
D13*
%TO.P,RV2,3,3*%
%TO.N,/+4.5V*%
X5700000Y-45680000D03*
%TO.P,RV2,2,2*%
%TO.N,Net-(RV2-Pad2)*%
X5700000Y-43180000D03*
D14*
%TO.P,RV2,1,1*%
%TO.N,/In2*%
X5700000Y-40680000D03*
D17*
%TO.P,RV2,0,ShieldPin*%
%TO.N,/GND*%
X12700000Y-47580000D03*
X12700000Y-38780000D03*
%TD*%
D10*
%TO.P,R1,2*%
%TO.N,Net-(C1-Pad1)*%
X21844000Y-24280500D03*
%TO.P,R1,1*%
%TO.N,/In1*%
X21844000Y-22455500D03*
%TD*%
D11*
%TO.P,R13,2*%
%TO.N,Net-(C3-Pad1)*%
X10668000Y-22455500D03*
%TO.P,R13,1*%
%TO.N,Net-(C3-Pad2)*%
X10668000Y-24280500D03*
%TD*%
%TO.P,R7,2*%
%TO.N,/+9V*%
X20447000Y-38076500D03*
%TO.P,R7,1*%
%TO.N,Net-(R7-Pad1)*%
X20447000Y-39901500D03*
%TD*%
D18*
%TO.P,C3,2*%
%TO.N,Net-(C3-Pad2)*%
X7620000Y-24230500D03*
%TO.P,C3,1*%
%TO.N,Net-(C3-Pad1)*%
X7620000Y-22505500D03*
%TD*%
D12*
%TO.P,C6,2*%
%TO.N,/GND*%
X34417000Y-30406000D03*
%TO.P,C6,1*%
%TO.N,/+9V*%
X34417000Y-32131000D03*
%TD*%
D15*
%TO.P,J5,3,Pin_3*%
%TO.N,/+4.5V*%
X38100000Y-33020000D03*
%TO.P,J5,2,Pin_2*%
%TO.N,/GND*%
X38100000Y-30480000D03*
D16*
%TO.P,J5,1,Pin_1*%
%TO.N,/+9V*%
X38100000Y-27940000D03*
%TD*%
D11*
%TO.P,R3,2*%
%TO.N,Net-(C1-Pad1)*%
X19050000Y-22455500D03*
%TO.P,R3,1*%
%TO.N,Net-(C1-Pad2)*%
X19050000Y-24280500D03*
%TD*%
D19*
%TO.P,H1,1,1*%
%TO.N,/GND*%
X35560000Y-53340000D03*
%TD*%
D20*
%TO.P,U2,8,V+*%
%TO.N,/+9V*%
X31623000Y-31685000D03*
%TO.P,U2,7*%
%TO.N,Net-(D2-Pad2)*%
X30353000Y-31685000D03*
%TO.P,U2,6,-*%
%TO.N,Net-(D2-Pad1)*%
X29083000Y-31685000D03*
%TO.P,U2,5,+*%
%TO.N,Net-(R20-Pad1)*%
X27813000Y-31685000D03*
%TO.P,U2,4,V-*%
%TO.N,/GND*%
X27813000Y-26735000D03*
%TO.P,U2,3,+*%
%TO.N,Net-(R18-Pad1)*%
X29083000Y-26735000D03*
%TO.P,U2,2,-*%
%TO.N,Net-(D1-Pad1)*%
X30353000Y-26735000D03*
%TO.P,U2,1*%
%TO.N,Net-(D1-Pad2)*%
X31623000Y-26735000D03*
%TD*%
D12*
%TO.P,C5,2*%
%TO.N,/GND*%
X13462000Y-22505500D03*
%TO.P,C5,1*%
%TO.N,/+9V*%
X13462000Y-24230500D03*
%TD*%
D15*
%TO.P,J3,3,Pin_3*%
%TO.N,/Out2*%
X38100000Y-45720000D03*
%TO.P,J3,2,Pin_2*%
%TO.N,/GND*%
X38100000Y-43180000D03*
D16*
%TO.P,J3,1,Pin_1*%
%TO.N,/In2*%
X38100000Y-40640000D03*
%TD*%
D11*
%TO.P,R16,2*%
%TO.N,Net-(C4-Pad2)*%
X24638000Y-34266500D03*
%TO.P,R16,1*%
%TO.N,/Out2*%
X24638000Y-36091500D03*
%TD*%
D15*
%TO.P,J4,3,Pin_3*%
%TO.N,/Out1*%
X38100000Y-17780000D03*
%TO.P,J4,2,Pin_2*%
%TO.N,/GND*%
X38100000Y-15240000D03*
D16*
%TO.P,J4,1,Pin_1*%
%TO.N,/In1*%
X38100000Y-12700000D03*
%TD*%
D10*
%TO.P,R14,2*%
%TO.N,Net-(C4-Pad1)*%
X19050000Y-36091500D03*
%TO.P,R14,1*%
%TO.N,Net-(C4-Pad2)*%
X19050000Y-34266500D03*
%TD*%
%TO.P,R8,2*%
%TO.N,/GND*%
X20447000Y-48410500D03*
%TO.P,R8,1*%
%TO.N,Net-(R8-Pad1)*%
X20447000Y-46585500D03*
%TD*%
%TO.P,R19,2*%
%TO.N,/+4.5V*%
X30226000Y-36091500D03*
%TO.P,R19,1*%
%TO.N,Net-(D2-Pad1)*%
X30226000Y-34266500D03*
%TD*%
D19*
%TO.P,H3,1,1*%
%TO.N,/GND*%
X5080000Y-53340000D03*
%TD*%
D11*
%TO.P,R12,2*%
%TO.N,Net-(C2-Pad2)*%
X16256000Y-34290000D03*
%TO.P,R12,1*%
%TO.N,Net-(C4-Pad1)*%
X16256000Y-36115000D03*
%TD*%
%TO.P,R17,2*%
%TO.N,/+4.5V*%
X30353000Y-22455500D03*
%TO.P,R17,1*%
%TO.N,Net-(D1-Pad1)*%
X30353000Y-24280500D03*
%TD*%
D10*
%TO.P,R4,2*%
%TO.N,Net-(C2-Pad1)*%
X10668000Y-36091500D03*
%TO.P,R4,1*%
%TO.N,Net-(C2-Pad2)*%
X10668000Y-34266500D03*
%TD*%
D13*
%TO.P,RV4,3,3*%
%TO.N,Net-(R8-Pad1)*%
X23480000Y-45680000D03*
%TO.P,RV4,2,2*%
%TO.N,Net-(R11-Pad2)*%
X23480000Y-43180000D03*
D14*
%TO.P,RV4,1,1*%
%TO.N,Net-(R7-Pad1)*%
X23480000Y-40680000D03*
D17*
%TO.P,RV4,0,ShieldPin*%
%TO.N,/GND*%
X30480000Y-38780000D03*
X30480000Y-47580000D03*
%TD*%
D20*
%TO.P,U1,14*%
%TO.N,Net-(C4-Pad2)*%
X17272000Y-31685000D03*
%TO.P,U1,13,-*%
%TO.N,Net-(C4-Pad1)*%
X16002000Y-31685000D03*
%TO.P,U1,12,+*%
%TO.N,/+4.5V*%
X14732000Y-31685000D03*
%TO.P,U1,11,V-*%
%TO.N,/GND*%
X13462000Y-31685000D03*
%TO.P,U1,10,+*%
%TO.N,Net-(RV2-Pad2)*%
X12192000Y-31685000D03*
%TO.P,U1,9,-*%
%TO.N,Net-(C2-Pad1)*%
X10922000Y-31685000D03*
%TO.P,U1,8*%
%TO.N,Net-(C2-Pad2)*%
X9652000Y-31685000D03*
%TO.P,U1,7*%
%TO.N,Net-(C3-Pad2)*%
X9652000Y-26735000D03*
%TO.P,U1,6,-*%
%TO.N,Net-(C3-Pad1)*%
X10922000Y-26735000D03*
%TO.P,U1,5,+*%
%TO.N,/+4.5V*%
X12192000Y-26735000D03*
%TO.P,U1,4,V+*%
%TO.N,/+9V*%
X13462000Y-26735000D03*
%TO.P,U1,3,+*%
%TO.N,Net-(RV1-Pad2)*%
X14732000Y-26735000D03*
%TO.P,U1,2,-*%
%TO.N,Net-(C1-Pad1)*%
X16002000Y-26735000D03*
%TO.P,U1,1*%
%TO.N,Net-(C1-Pad2)*%
X17272000Y-26735000D03*
%TD*%
D21*
%TO.N,Net-(C1-Pad1)*%
X19050000Y-20955000D03*
X23230497Y-20955000D03*
%TO.N,/+9V*%
X13041500Y-26924000D03*
X23368000Y-35941000D03*
X23368000Y-33147000D03*
%TO.N,/GND*%
X34417000Y-29337000D03*
X32131000Y-22352000D03*
X28829000Y-44412500D03*
X26797000Y-25400000D03*
X18034000Y-20955000D03*
X21590000Y-48387000D03*
X13462000Y-30607000D03*
X19685000Y-14097000D03*
X3683000Y-24892000D03*
X24130000Y-20955000D03*
X26543000Y-21336000D03*
X7747000Y-38608000D03*
%TO.N,/+4.5V*%
X12192000Y-25654000D03*
X26543000Y-22479000D03*
X31115000Y-22352000D03*
X14732000Y-30607000D03*
X28321000Y-36703000D03*
X29337000Y-36703000D03*
%TO.N,/Out1*%
X4826000Y-24892000D03*
%TO.N,/In2*%
X7747000Y-37338000D03*
%TO.N,/Out2*%
X28194000Y-45212000D03*
%TD*%
D22*
%TO.N,Net-(C1-Pad1)*%
X16536500Y-22225000D02*
X16256000Y-22505500D01*
X15594500Y-22505500D02*
X15113000Y-22987000D01*
X15113000Y-25019000D02*
X16002000Y-25908000D01*
X16002000Y-25908000D02*
X16002000Y-26735000D01*
X15113000Y-22987000D02*
X15113000Y-25019000D01*
X18819500Y-22225000D02*
X16536500Y-22225000D01*
X19050000Y-20955000D02*
X19050000Y-22455500D01*
X16256000Y-22505500D02*
X15594500Y-22505500D01*
X23230497Y-20955000D02*
X23230497Y-22894003D01*
X23230497Y-22894003D02*
X21844000Y-24280500D01*
X19050000Y-22455500D02*
X18819500Y-22225000D01*
%TO.N,Net-(C1-Pad2)*%
X16256000Y-24230500D02*
X16536500Y-24511000D01*
X16256000Y-24230500D02*
X16483500Y-24230500D01*
X18819500Y-24511000D02*
X19050000Y-24280500D01*
X17272000Y-25019000D02*
X17272000Y-26735000D01*
X19050000Y-24280500D02*
X19050000Y-25400000D01*
X16483500Y-24230500D02*
X17272000Y-25019000D01*
X19915500Y-26265500D02*
X20193000Y-26265500D01*
X19050000Y-25400000D02*
X19915500Y-26265500D01*
X16536500Y-24511000D02*
X18819500Y-24511000D01*
%TO.N,Net-(C2-Pad1)*%
X8001000Y-30226000D02*
X10033000Y-30226000D01*
X10668000Y-36091500D02*
X13412000Y-36091500D01*
X10922000Y-31115000D02*
X10922000Y-31685000D01*
X10033000Y-30226000D02*
X10922000Y-31115000D01*
X10668000Y-36091500D02*
X10437500Y-36091500D01*
X8612500Y-34266500D02*
X7620000Y-34266500D01*
X8001000Y-33885500D02*
X8001000Y-30226000D01*
X7620000Y-34266500D02*
X8001000Y-33885500D01*
X13412000Y-36091500D02*
X13462000Y-36041500D01*
X10437500Y-36091500D02*
X8612500Y-34266500D01*
%TO.N,Net-(C2-Pad2)*%
X10718000Y-34316500D02*
X10668000Y-34266500D01*
X13462000Y-34316500D02*
X10718000Y-34316500D01*
X16229500Y-34316500D02*
X16256000Y-34290000D01*
X9652000Y-33250500D02*
X10668000Y-34266500D01*
X13462000Y-34316500D02*
X16229500Y-34316500D01*
X9652000Y-31685000D02*
X9652000Y-33250500D01*
%TO.N,Net-(C3-Pad1)*%
X11811000Y-24638000D02*
X11811000Y-22606000D01*
X21463000Y-25400000D02*
X20574000Y-24511000D01*
X7620000Y-22505500D02*
X10618000Y-22505500D01*
X11660500Y-22455500D02*
X10668000Y-22455500D01*
X20574000Y-24511000D02*
X20574000Y-19962500D01*
X11938000Y-28321000D02*
X10922000Y-27305000D01*
X19962500Y-28321000D02*
X11938000Y-28321000D01*
X11811000Y-22606000D02*
X11660500Y-22455500D01*
X10922000Y-26735000D02*
X10922000Y-25527000D01*
X10618000Y-22505500D02*
X10668000Y-22455500D01*
X10922000Y-27305000D02*
X10922000Y-26735000D01*
X20677500Y-28090500D02*
X21463000Y-27305000D01*
X20193000Y-28090500D02*
X19962500Y-28321000D01*
X20193000Y-28090500D02*
X20677500Y-28090500D01*
X21463000Y-27305000D02*
X21463000Y-25400000D01*
X10922000Y-25527000D02*
X11811000Y-24638000D01*
%TO.N,Net-(C3-Pad2)*%
X6604000Y-25246500D02*
X7620000Y-24230500D01*
X9652000Y-26735000D02*
X9652000Y-25296500D01*
X11557000Y-29337000D02*
X9652000Y-27432000D01*
X21209000Y-29337000D02*
X11557000Y-29337000D01*
X24638000Y-25908000D02*
X21209000Y-29337000D01*
X6604000Y-26416000D02*
X6604000Y-25246500D01*
X9652000Y-27432000D02*
X9652000Y-26735000D01*
X10668000Y-24280500D02*
X7670000Y-24280500D01*
X24638000Y-24280500D02*
X24638000Y-25908000D01*
X9652000Y-25296500D02*
X10668000Y-24280500D01*
X7670000Y-24280500D02*
X7620000Y-24230500D01*
%TO.N,Net-(C4-Pad1)*%
X17181000Y-35190000D02*
X16256000Y-36115000D01*
X20447000Y-42394500D02*
X18899500Y-42394500D01*
X19050000Y-36091500D02*
X16279500Y-36091500D01*
X17181000Y-33417528D02*
X17181000Y-35190000D01*
X16002000Y-32238528D02*
X17181000Y-33417528D01*
X21717000Y-36041500D02*
X19100000Y-36041500D01*
X18923000Y-42371000D02*
X18923000Y-36218500D01*
X16279500Y-36091500D02*
X16256000Y-36115000D01*
X16002000Y-31685000D02*
X16002000Y-32238528D01*
X19100000Y-36041500D02*
X19050000Y-36091500D01*
X18923000Y-36218500D02*
X19050000Y-36091500D01*
X18899500Y-42394500D02*
X18923000Y-42371000D01*
%TO.N,Net-(C4-Pad2)*%
X24588000Y-34316500D02*
X24638000Y-34266500D01*
X24638000Y-34266500D02*
X24638000Y-32154500D01*
X19050000Y-34266500D02*
X21667000Y-34266500D01*
X19050000Y-33463000D02*
X17272000Y-31685000D01*
X21717000Y-34316500D02*
X24588000Y-34316500D01*
X21667000Y-34266500D02*
X21717000Y-34316500D01*
X19050000Y-34266500D02*
X19050000Y-33463000D01*
%TO.N,/+9V*%
X13273000Y-26924000D02*
X13462000Y-26735000D01*
X23368000Y-35941000D02*
X21232500Y-38076500D01*
X13041500Y-26924000D02*
X13273000Y-26924000D01*
X13462000Y-26735000D02*
X13462000Y-24230500D01*
X21232500Y-38076500D02*
X20447000Y-38076500D01*
%TO.N,/GND*%
X13462000Y-31685000D02*
X13462000Y-30607000D01*
X34417000Y-30406000D02*
X34417000Y-29337000D01*
X21566500Y-48410500D02*
X21590000Y-48387000D01*
X13462000Y-22505500D02*
X13462000Y-20402000D01*
X26797000Y-25719000D02*
X27813000Y-26735000D01*
X26797000Y-25400000D02*
X26797000Y-25719000D01*
X20447000Y-48410500D02*
X21566500Y-48410500D01*
X13462000Y-20402000D02*
X12700000Y-19640000D01*
X19708500Y-14073500D02*
X19685000Y-14097000D01*
X20574000Y-14073500D02*
X19708500Y-14073500D01*
%TO.N,Net-(D1-Pad1)*%
X30353000Y-24280500D02*
X32869500Y-24280500D01*
X19050000Y-6985000D02*
X19050000Y-5080000D01*
X34290000Y-9779000D02*
X32639000Y-8128000D01*
X34290000Y-22860000D02*
X34290000Y-9779000D01*
X30353000Y-24280500D02*
X30353000Y-26735000D01*
X32869500Y-24280500D02*
X34290000Y-22860000D01*
X20193000Y-8128000D02*
X19050000Y-6985000D01*
X32639000Y-8128000D02*
X20193000Y-8128000D01*
%TO.N,Net-(D1-Pad2)*%
X36195000Y-9144000D02*
X32131000Y-5080000D01*
X31623000Y-26735000D02*
X33844000Y-26735000D01*
X36195000Y-24384000D02*
X36195000Y-9144000D01*
X33844000Y-26735000D02*
X36195000Y-24384000D01*
X32131000Y-5080000D02*
X21590000Y-5080000D01*
%TO.N,Net-(D2-Pad1)*%
X19050000Y-53340000D02*
X22733000Y-49657000D01*
X29083000Y-33528000D02*
X29083000Y-31685000D01*
X22733000Y-49657000D02*
X32893000Y-49657000D01*
X30226000Y-34266500D02*
X29821500Y-34266500D01*
X33909000Y-48641000D02*
X33909000Y-37949500D01*
X33909000Y-37949500D02*
X30226000Y-34266500D01*
X32893000Y-49657000D02*
X33909000Y-48641000D01*
X29821500Y-34266500D02*
X29083000Y-33528000D01*
%TO.N,Net-(D2-Pad2)*%
X36322000Y-38354000D02*
X30353000Y-32385000D01*
X36322000Y-47752000D02*
X36322000Y-38354000D01*
X21590000Y-53340000D02*
X30734000Y-53340000D01*
X30734000Y-53340000D02*
X36322000Y-47752000D01*
X30353000Y-32385000D02*
X30353000Y-31685000D01*
%TO.N,/+4.5V*%
X29337000Y-36703000D02*
X29948500Y-36091500D01*
X31011500Y-22455500D02*
X31115000Y-22352000D01*
X27559000Y-22455500D02*
X26566500Y-22455500D01*
X26566500Y-22455500D02*
X26543000Y-22479000D01*
X30353000Y-22455500D02*
X31011500Y-22455500D01*
X27686000Y-36068000D02*
X27432000Y-36068000D01*
X12192000Y-25654000D02*
X12192000Y-26735000D01*
X14732000Y-31685000D02*
X14732000Y-30607000D01*
X29948500Y-36091500D02*
X30226000Y-36091500D01*
X28321000Y-36703000D02*
X27686000Y-36068000D01*
%TO.N,/In1*%
X2580000Y-12740000D02*
X2540000Y-12700000D01*
D23*
X21844000Y-19685000D02*
X21209000Y-19050000D01*
D22*
X18415000Y-19050000D02*
X19558000Y-19050000D01*
X12105000Y-12740000D02*
X18415000Y-19050000D01*
X5700000Y-12740000D02*
X12105000Y-12740000D01*
X21844000Y-19685000D02*
X21844000Y-22455500D01*
D23*
X21209000Y-19050000D02*
X19558000Y-19050000D01*
D22*
X5700000Y-12740000D02*
X2580000Y-12740000D01*
%TO.N,/Out1*%
X4826000Y-24892000D02*
X4826000Y-26670000D01*
X4826000Y-24130000D02*
X4826000Y-24892000D01*
X4826000Y-26670000D02*
X6397000Y-28241000D01*
X2540000Y-21844000D02*
X4826000Y-24130000D01*
X6397000Y-28241000D02*
X6604000Y-28241000D01*
X2540000Y-17780000D02*
X2540000Y-21844000D01*
%TO.N,/In2*%
X5700000Y-40680000D02*
X2580000Y-40680000D01*
X2580000Y-40680000D02*
X2540000Y-40640000D01*
X5700000Y-38011500D02*
X5700000Y-40680000D01*
D24*
X7747000Y-37338000D02*
X7747000Y-36218500D01*
X7747000Y-36218500D02*
X7620000Y-36091500D01*
D22*
X7620000Y-36091500D02*
X5700000Y-38011500D01*
%TO.N,/Out2*%
X27940000Y-44958000D02*
X27940000Y-40767000D01*
X28194000Y-45212000D02*
X27940000Y-44958000D01*
X24638000Y-37465000D02*
X24638000Y-36091500D01*
X27940000Y-40767000D02*
X24638000Y-37465000D01*
%TO.N,Net-(R5-Pad2)*%
X23480000Y-12740000D02*
X21479500Y-12740000D01*
X21479500Y-12740000D02*
X20574000Y-11834500D01*
%TO.N,Net-(R6-Pad1)*%
X22415500Y-17740000D02*
X20574000Y-15898500D01*
X23480000Y-17740000D02*
X22415500Y-17740000D01*
%TO.N,Net-(R7-Pad1)*%
X23480000Y-40680000D02*
X21225500Y-40680000D01*
X21225500Y-40680000D02*
X20447000Y-39901500D01*
%TO.N,Net-(R8-Pad1)*%
X22574500Y-46585500D02*
X23480000Y-45680000D01*
X20447000Y-46585500D02*
X22574500Y-46585500D01*
%TO.N,Net-(R9-Pad2)*%
X21667449Y-18137500D02*
X23468949Y-19939000D01*
X24765000Y-15240000D02*
X23480000Y-15240000D01*
X25654000Y-19050000D02*
X25654000Y-16129000D01*
X20574000Y-18137500D02*
X21667449Y-18137500D01*
X23468949Y-19939000D02*
X24765000Y-19939000D01*
X24765000Y-19939000D02*
X25654000Y-19050000D01*
X25654000Y-16129000D02*
X24765000Y-15240000D01*
%TO.N,Net-(R11-Pad2)*%
X20447000Y-44219500D02*
X22440500Y-44219500D01*
X22440500Y-44219500D02*
X23480000Y-43180000D01*
%TO.N,Net-(R18-Pad1)*%
X29083000Y-25804500D02*
X29083000Y-26735000D01*
X27559000Y-24280500D02*
X29083000Y-25804500D01*
X26693500Y-24280500D02*
X24868500Y-22455500D01*
X27559000Y-24280500D02*
X26693500Y-24280500D01*
X24868500Y-22455500D02*
X24638000Y-22455500D01*
%TO.N,Net-(R20-Pad1)*%
X27432000Y-34243000D02*
X27813000Y-33862000D01*
X26457500Y-30329500D02*
X27813000Y-31685000D01*
X27813000Y-33862000D02*
X27813000Y-31685000D01*
X24638000Y-30329500D02*
X26457500Y-30329500D01*
%TO.N,Net-(RV1-Pad2)*%
X5700000Y-15240000D02*
X5700000Y-15352000D01*
X16510000Y-20320000D02*
X14413000Y-22417000D01*
X15204000Y-17490000D02*
X16510000Y-18796000D01*
X16510000Y-18796000D02*
X16510000Y-20320000D01*
X7838000Y-17490000D02*
X15204000Y-17490000D01*
X14413000Y-22417000D02*
X14413000Y-26416000D01*
X14413000Y-26416000D02*
X14732000Y-26735000D01*
X5700000Y-15352000D02*
X7838000Y-17490000D01*
D23*
%TO.N,Net-(RV2-Pad2)*%
X8890000Y-35687000D02*
X8457000Y-35254000D01*
D22*
X8890000Y-37592000D02*
X8890000Y-35687000D01*
X12192000Y-31115000D02*
X12192000Y-31685000D01*
X6350000Y-30353000D02*
X7747000Y-28956000D01*
X6350000Y-35052000D02*
X6350000Y-30353000D01*
X8890000Y-39990000D02*
X8890000Y-37592000D01*
D23*
X8457000Y-35254000D02*
X6552000Y-35254000D01*
X6552000Y-35254000D02*
X6350000Y-35052000D01*
D22*
X10033000Y-28956000D02*
X12192000Y-31115000D01*
X7747000Y-28956000D02*
X10033000Y-28956000D01*
X5700000Y-43180000D02*
X8890000Y-39990000D01*
%TD*%
%TA.AperFunction,Conductor*%
%TO.N,/+9V*%
G36*
X35530018Y-510000D02*
G01*
X35544851Y-512310D01*
X35544855Y-512310D01*
X35553724Y-513691D01*
X35574183Y-511016D01*
X35596008Y-510072D01*
X35952937Y-525656D01*
X35963886Y-526614D01*
X36348379Y-577233D01*
X36359205Y-579142D01*
X36737822Y-663080D01*
X36748439Y-665925D01*
X36918702Y-719608D01*
X37118302Y-782542D01*
X37128615Y-786295D01*
X37486932Y-934715D01*
X37496876Y-939353D01*
X37840867Y-1118423D01*
X37850387Y-1123919D01*
X38177468Y-1332292D01*
X38186472Y-1338597D01*
X38494138Y-1574678D01*
X38502558Y-1581743D01*
X38788483Y-1843744D01*
X38796256Y-1851517D01*
X39058257Y-2137442D01*
X39065322Y-2145862D01*
X39301403Y-2453528D01*
X39307708Y-2462532D01*
X39516081Y-2789613D01*
X39521576Y-2799132D01*
X39653193Y-3051964D01*
X39700643Y-3143115D01*
X39705285Y-3153068D01*
X39827895Y-3449074D01*
X39853702Y-3511377D01*
X39857458Y-3521698D01*
X39904807Y-3671869D01*
X39974075Y-3891561D01*
X39976920Y-3902178D01*
X40060858Y-4280795D01*
X40062767Y-4291621D01*
X40113386Y-4676114D01*
X40114344Y-4687063D01*
X40125521Y-4943049D01*
X40129603Y-5036552D01*
X40128223Y-5061429D01*
X40126309Y-5073724D01*
X40127473Y-5082626D01*
X40127473Y-5082628D01*
X40130436Y-5105283D01*
X40131500Y-5121621D01*
X40131500Y-53290633D01*
X40130000Y-53310018D01*
X40127690Y-53324851D01*
X40127690Y-53324855D01*
X40126309Y-53333724D01*
X40128984Y-53354183D01*
X40129928Y-53376012D01*
X40114344Y-53732936D01*
X40113386Y-53743886D01*
X40062767Y-54128379D01*
X40060858Y-54139205D01*
X39976920Y-54517822D01*
X39974075Y-54528439D01*
X39934607Y-54653616D01*
X39904691Y-54748500D01*
X39857461Y-54898294D01*
X39853705Y-54908615D01*
X39799200Y-55040203D01*
X39705289Y-55266923D01*
X39700647Y-55276876D01*
X39544815Y-55576227D01*
X39521577Y-55620867D01*
X39516081Y-55630387D01*
X39307708Y-55957468D01*
X39301403Y-55966472D01*
X39065322Y-56274138D01*
X39058257Y-56282558D01*
X38800858Y-56563461D01*
X38796256Y-56568483D01*
X38788487Y-56576252D01*
X38732699Y-56627372D01*
X38502558Y-56838257D01*
X38494138Y-56845322D01*
X38186472Y-57081403D01*
X38177468Y-57087708D01*
X37850387Y-57296081D01*
X37840868Y-57301576D01*
X37496876Y-57480647D01*
X37486932Y-57485285D01*
X37128615Y-57633705D01*
X37118302Y-57637458D01*
X36918702Y-57700392D01*
X36748439Y-57754075D01*
X36737822Y-57756920D01*
X36359205Y-57840858D01*
X36348379Y-57842767D01*
X35963886Y-57893386D01*
X35952937Y-57894344D01*
X35603446Y-57909603D01*
X35578571Y-57908223D01*
X35566276Y-57906309D01*
X35557374Y-57907473D01*
X35557372Y-57907473D01*
X35542323Y-57909441D01*
X35534714Y-57910436D01*
X35518379Y-57911500D01*
X5129367Y-57911500D01*
X5109982Y-57910000D01*
X5095149Y-57907690D01*
X5095145Y-57907690D01*
X5086276Y-57906309D01*
X5065817Y-57908984D01*
X5043992Y-57909928D01*
X4687063Y-57894344D01*
X4676114Y-57893386D01*
X4291621Y-57842767D01*
X4280795Y-57840858D01*
X3902178Y-57756920D01*
X3891561Y-57754075D01*
X3721298Y-57700392D01*
X3521698Y-57637458D01*
X3511385Y-57633705D01*
X3153068Y-57485285D01*
X3143124Y-57480647D01*
X2799132Y-57301576D01*
X2789613Y-57296081D01*
X2462532Y-57087708D01*
X2453528Y-57081403D01*
X2145862Y-56845322D01*
X2137442Y-56838257D01*
X1907301Y-56627372D01*
X1851513Y-56576252D01*
X1843744Y-56568483D01*
X1839143Y-56563461D01*
X1581743Y-56282558D01*
X1574678Y-56274138D01*
X1338597Y-55966472D01*
X1332292Y-55957468D01*
X1123919Y-55630387D01*
X1118423Y-55620867D01*
X1095185Y-55576227D01*
X939353Y-55276876D01*
X934711Y-55266923D01*
X840801Y-55040203D01*
X786295Y-54908615D01*
X782539Y-54898294D01*
X735310Y-54748500D01*
X705393Y-54653616D01*
X665925Y-54528439D01*
X663080Y-54517822D01*
X579142Y-54139205D01*
X577233Y-54128379D01*
X526614Y-53743886D01*
X525656Y-53732936D01*
X510561Y-53387208D01*
X512188Y-53360805D01*
X512769Y-53357352D01*
X512770Y-53357345D01*
X513576Y-53352552D01*
X513729Y-53340000D01*
X512098Y-53328609D01*
X1816734Y-53328609D01*
X1834591Y-53681106D01*
X1835128Y-53684461D01*
X1835129Y-53684467D01*
X1864785Y-53869617D01*
X1890412Y-54029613D01*
X1983546Y-54370053D01*
X2112903Y-54698443D01*
X2114486Y-54701458D01*
X2275384Y-55007926D01*
X2275389Y-55007934D01*
X2276968Y-55010942D01*
X2278862Y-55013760D01*
X2278867Y-55013769D01*
X2298518Y-55043012D01*
X2473824Y-55303895D01*
X2701167Y-55573873D01*
X2703627Y-55576224D01*
X2703630Y-55576227D01*
X2953875Y-55815366D01*
X2953882Y-55815372D01*
X2956338Y-55817719D01*
X3236351Y-56032581D01*
X3239269Y-56034355D01*
X3535017Y-56214173D01*
X3535022Y-56214176D01*
X3537932Y-56215945D01*
X3541020Y-56217391D01*
X3541019Y-56217391D01*
X3854468Y-56364222D01*
X3854478Y-56364226D01*
X3857552Y-56365666D01*
X3860770Y-56366768D01*
X3860773Y-56366769D01*
X4188241Y-56478887D01*
X4188245Y-56478888D01*
X4191472Y-56479993D01*
X4194802Y-56480743D01*
X4194811Y-56480746D01*
X4438164Y-56535587D01*
X4535786Y-56557587D01*
X4539171Y-56557973D01*
X4539179Y-56557974D01*
X4883083Y-56597157D01*
X4883091Y-56597157D01*
X4886466Y-56597542D01*
X4889870Y-56597560D01*
X4889873Y-56597560D01*
X5081627Y-56598564D01*
X5239411Y-56599390D01*
X5242797Y-56599040D01*
X5242799Y-56599040D01*
X5587098Y-56563461D01*
X5587107Y-56563460D01*
X5590490Y-56563110D01*
X5593823Y-56562396D01*
X5593826Y-56562395D01*
X5763692Y-56525979D01*
X5935598Y-56489125D01*
X6270697Y-56378301D01*
X6591867Y-56231936D01*
X6685405Y-56176397D01*
X6892407Y-56053489D01*
X6892412Y-56053486D01*
X6895352Y-56051740D01*
X6920870Y-56032581D01*
X7174867Y-55841874D01*
X7177600Y-55839822D01*
X7435310Y-55598661D01*
X7665468Y-55331078D01*
X7865380Y-55040203D01*
X7866992Y-55037209D01*
X7866997Y-55037201D01*
X7989092Y-54810445D01*
X8032709Y-54729440D01*
X8165498Y-54402422D01*
X8173816Y-54373223D01*
X8227401Y-54185108D01*
X8262191Y-54062976D01*
X8263123Y-54057526D01*
X8321087Y-53718420D01*
X8321087Y-53718418D01*
X8321659Y-53715073D01*
X8323945Y-53677711D01*
X8343096Y-53364580D01*
X8343206Y-53362782D01*
X8343286Y-53340000D01*
X8324199Y-52987567D01*
X8267161Y-52639257D01*
X8172839Y-52299145D01*
X8169849Y-52291630D01*
X8043597Y-51974372D01*
X8042338Y-51971208D01*
X7942426Y-51782508D01*
X7878777Y-51662295D01*
X7878775Y-51662292D01*
X7877182Y-51659283D01*
X7870579Y-51649530D01*
X7681211Y-51369834D01*
X7681204Y-51369825D01*
X7679305Y-51367020D01*
X7677109Y-51364430D01*
X7677104Y-51364424D01*
X7588715Y-51260201D01*
X7451021Y-51097837D01*
X7195001Y-50854883D01*
X7192294Y-50852821D01*
X7192286Y-50852814D01*
X7033809Y-50732088D01*
X6914239Y-50641000D01*
X6612020Y-50458689D01*
X6608930Y-50457255D01*
X6608925Y-50457252D01*
X6451950Y-50384387D01*
X6291879Y-50310085D01*
X6288654Y-50308993D01*
X6288648Y-50308991D01*
X5960798Y-50198020D01*
X5960793Y-50198018D01*
X5957562Y-50196925D01*
X5943832Y-50193881D01*
X5874730Y-50178562D01*
X5612979Y-50120533D01*
X5488353Y-50106774D01*
X5265543Y-50082175D01*
X5265538Y-50082175D01*
X5262162Y-50081802D01*
X5258763Y-50081796D01*
X5258762Y-50081796D01*
X5092289Y-50081506D01*
X4909213Y-50081186D01*
X4778206Y-50095187D01*
X4561646Y-50118330D01*
X4561640Y-50118331D01*
X4558262Y-50118692D01*
X4213414Y-50193881D01*
X3878704Y-50305873D01*
X3558047Y-50453359D01*
X3255194Y-50634613D01*
X2973687Y-50847515D01*
X2716820Y-51089574D01*
X2487598Y-51357959D01*
X2288702Y-51649530D01*
X2281886Y-51662295D01*
X2134537Y-51938255D01*
X2122458Y-51960876D01*
X2121183Y-51964048D01*
X2121181Y-51964052D01*
X2025647Y-52201703D01*
X1990813Y-52288355D01*
X1989894Y-52291623D01*
X1989892Y-52291630D01*
X1896225Y-52624858D01*
X1895304Y-52628136D01*
X1894743Y-52631489D01*
X1894742Y-52631493D01*
X1837614Y-52972880D01*
X1837051Y-52976245D01*
X1816734Y-53328609D01*
X512098Y-53328609D01*
X509773Y-53312376D01*
X508500Y-53294514D01*
X508500Y-47622277D01*
X9487009Y-47622277D01*
X9512625Y-47890769D01*
X9513710Y-47895203D01*
X9513711Y-47895209D01*
X9559718Y-48083225D01*
X9576731Y-48152750D01*
X9677985Y-48402733D01*
X9814265Y-48635482D01*
X9902835Y-48746233D01*
X9934686Y-48786060D01*
X9982716Y-48846119D01*
X10179809Y-49030234D01*
X10401416Y-49183968D01*
X10405499Y-49185999D01*
X10405502Y-49186001D01*
X10491731Y-49228899D01*
X10642894Y-49304101D01*
X10647228Y-49305522D01*
X10647231Y-49305523D01*
X10894853Y-49386698D01*
X10894859Y-49386699D01*
X10899186Y-49388118D01*
X10903677Y-49388898D01*
X10903678Y-49388898D01*
X11161140Y-49433601D01*
X11161148Y-49433602D01*
X11164921Y-49434257D01*
X11168758Y-49434448D01*
X11248578Y-49438422D01*
X11248586Y-49438422D01*
X11250149Y-49438500D01*
X14118512Y-49438500D01*
X14120780Y-49438335D01*
X14120792Y-49438335D01*
X14251884Y-49428823D01*
X14319004Y-49423953D01*
X14323459Y-49422969D01*
X14323462Y-49422969D01*
X14577912Y-49366791D01*
X14577916Y-49366790D01*
X14582372Y-49365806D01*
X14708480Y-49318028D01*
X14830318Y-49271868D01*
X14830321Y-49271867D01*
X14834588Y-49270250D01*
X15070368Y-49139286D01*
X15272088Y-48985338D01*
X15281141Y-48978429D01*
X15281142Y-48978428D01*
X15284773Y-48975657D01*
X15320149Y-48939470D01*
X15425424Y-48831779D01*
X15473312Y-48782792D01*
X15632034Y-48564730D01*
X15715190Y-48406676D01*
X15755490Y-48330079D01*
X15755493Y-48330073D01*
X15757615Y-48326039D01*
X15765071Y-48304927D01*
X15845902Y-48076033D01*
X15845902Y-48076032D01*
X15847425Y-48071720D01*
X15885290Y-47879607D01*
X15898700Y-47811572D01*
X15898701Y-47811566D01*
X15899581Y-47807100D01*
X15899808Y-47802544D01*
X15912764Y-47542292D01*
X15912764Y-47542286D01*
X15912991Y-47537723D01*
X15887375Y-47269231D01*
X15886174Y-47264320D01*
X15824355Y-47011688D01*
X15823269Y-47007250D01*
X15722015Y-46757267D01*
X15625005Y-46591586D01*
X15588045Y-46528463D01*
X15588044Y-46528462D01*
X15585735Y-46524518D01*
X15467928Y-46377208D01*
X15420136Y-46317447D01*
X15420135Y-46317445D01*
X15417284Y-46313881D01*
X15220191Y-46129766D01*
X14998584Y-45976032D01*
X14994501Y-45974001D01*
X14994498Y-45973999D01*
X14829606Y-45891967D01*
X14757106Y-45855899D01*
X14752772Y-45854478D01*
X14752769Y-45854477D01*
X14505147Y-45773302D01*
X14505141Y-45773301D01*
X14500814Y-45771882D01*
X14496322Y-45771102D01*
X14238860Y-45726399D01*
X14238852Y-45726398D01*
X14235079Y-45725743D01*
X14223817Y-45725182D01*
X14151422Y-45721578D01*
X14151414Y-45721578D01*
X14149851Y-45721500D01*
X11281488Y-45721500D01*
X11279220Y-45721665D01*
X11279208Y-45721665D01*
X11148116Y-45731177D01*
X11080996Y-45736047D01*
X11076541Y-45737031D01*
X11076538Y-45737031D01*
X10822088Y-45793209D01*
X10822084Y-45793210D01*
X10817628Y-45794194D01*
X10769548Y-45812410D01*
X10569682Y-45888132D01*
X10569679Y-45888133D01*
X10565412Y-45889750D01*
X10329632Y-46020714D01*
X10326000Y-46023486D01*
X10125288Y-46176665D01*
X10115227Y-46184343D01*
X10112034Y-46187609D01*
X10112032Y-46187611D01*
X10031317Y-46270178D01*
X9926688Y-46377208D01*
X9767966Y-46595270D01*
X9720296Y-46685877D01*
X9644510Y-46829921D01*
X9644507Y-46829927D01*
X9642385Y-46833961D01*
X9640865Y-46838266D01*
X9640863Y-46838270D01*
X9557771Y-47073567D01*
X9552575Y-47088280D01*
X9533634Y-47184378D01*
X9501364Y-47348106D01*
X9500419Y-47352900D01*
X9500192Y-47357453D01*
X9500192Y-47357456D01*
X9489518Y-47571884D01*
X9487009Y-47622277D01*
X508500Y-47622277D01*
X508500Y-45686695D01*
X1177251Y-45686695D01*
X1177548Y-45691848D01*
X1177548Y-45691851D01*
X1188866Y-45888132D01*
X1190110Y-45909715D01*
X1191247Y-45914761D01*
X1191248Y-45914767D01*
X1204597Y-45973999D01*
X1239222Y-46127639D01*
X1323266Y-46334616D01*
X1325965Y-46339020D01*
X1436025Y-46518622D01*
X1439987Y-46525088D01*
X1586250Y-46693938D01*
X1668824Y-46762492D01*
X1750043Y-46829921D01*
X1758126Y-46836632D01*
X1951000Y-46949338D01*
X2159692Y-47029030D01*
X2164760Y-47030061D01*
X2164763Y-47030062D01*
X2272017Y-47051883D01*
X2378597Y-47073567D01*
X2383772Y-47073757D01*
X2383774Y-47073757D01*
X2596673Y-47081564D01*
X2596677Y-47081564D01*
X2601837Y-47081753D01*
X2606957Y-47081097D01*
X2606959Y-47081097D01*
X2818288Y-47054025D01*
X2818289Y-47054025D01*
X2823416Y-47053368D01*
X2873840Y-47038240D01*
X3032429Y-46990661D01*
X3032434Y-46990659D01*
X3037384Y-46989174D01*
X3237994Y-46890896D01*
X3419860Y-46761173D01*
X3427737Y-46753324D01*
X3574435Y-46607137D01*
X3578096Y-46603489D01*
X3637594Y-46520689D01*
X3705435Y-46426277D01*
X3708453Y-46422077D01*
X3715452Y-46407917D01*
X3805136Y-46226453D01*
X3805137Y-46226451D01*
X3807430Y-46221811D01*
X3862286Y-46041259D01*
X3870865Y-46013023D01*
X3870865Y-46013021D01*
X3872370Y-46008069D01*
X3901529Y-45786590D01*
X3901854Y-45773302D01*
X3903074Y-45723365D01*
X3903074Y-45723361D01*
X3903156Y-45720000D01*
X3884852Y-45497361D01*
X3830431Y-45280702D01*
X3741354Y-45075840D01*
X3680581Y-44981899D01*
X3622822Y-44892617D01*
X3622820Y-44892614D01*
X3620014Y-44888277D01*
X3469670Y-44723051D01*
X3465619Y-44719852D01*
X3465615Y-44719848D01*
X3298414Y-44587800D01*
X3298410Y-44587798D01*
X3294359Y-44584598D01*
X3253053Y-44561796D01*
X3203084Y-44511364D01*
X3188312Y-44441921D01*
X3213428Y-44375516D01*
X3240780Y-44348909D01*
X3309907Y-44299601D01*
X3419860Y-44221173D01*
X3578096Y-44063489D01*
X3583715Y-44055670D01*
X3705435Y-43886277D01*
X3708453Y-43882077D01*
X3737142Y-43824030D01*
X3805136Y-43686453D01*
X3805137Y-43686451D01*
X3807430Y-43681811D01*
X3872370Y-43468069D01*
X3901529Y-43246590D01*
X3901611Y-43243240D01*
X3903074Y-43183365D01*
X3903074Y-43183361D01*
X3903156Y-43180000D01*
X3884852Y-42957361D01*
X3830431Y-42740702D01*
X3741354Y-42535840D01*
X3676634Y-42435798D01*
X3622822Y-42352617D01*
X3622820Y-42352614D01*
X3620014Y-42348277D01*
X3600303Y-42326615D01*
X3472798Y-42186488D01*
X3441746Y-42122642D01*
X3450141Y-42052143D01*
X3495317Y-41997375D01*
X3521761Y-41983706D01*
X3628297Y-41943767D01*
X3636705Y-41940615D01*
X3753261Y-41853261D01*
X3840615Y-41736705D01*
X3891745Y-41600316D01*
X3897114Y-41550892D01*
X3924356Y-41485330D01*
X3982719Y-41444904D01*
X4022377Y-41438500D01*
X4165500Y-41438500D01*
X4233621Y-41458502D01*
X4280114Y-41512158D01*
X4291500Y-41564500D01*
X4291500Y-41628134D01*
X4298255Y-41690316D01*
X4349385Y-41826705D01*
X4436739Y-41943261D01*
X4553295Y-42030615D01*
X4561703Y-42033767D01*
X4593022Y-42045508D01*
X4649786Y-42088150D01*
X4674486Y-42154711D01*
X4659279Y-42224060D01*
X4639886Y-42250540D01*
X4601639Y-42290564D01*
X4471119Y-42481899D01*
X4373602Y-42691981D01*
X4311707Y-42915169D01*
X4287095Y-43145469D01*
X4287392Y-43150622D01*
X4287392Y-43150625D01*
X4297605Y-43327747D01*
X4300427Y-43376697D01*
X4301564Y-43381743D01*
X4301565Y-43381749D01*
X4327947Y-43498812D01*
X4351346Y-43602642D01*
X4353288Y-43607424D01*
X4353289Y-43607428D01*
X4431087Y-43799020D01*
X4438484Y-43817237D01*
X4559501Y-44014719D01*
X4711147Y-44189784D01*
X4875556Y-44326279D01*
X4886462Y-44335333D01*
X4926097Y-44394235D01*
X4927595Y-44465216D01*
X4890481Y-44525739D01*
X4881630Y-44533037D01*
X4770821Y-44616235D01*
X4761655Y-44623117D01*
X4758083Y-44626855D01*
X4610627Y-44781159D01*
X4601639Y-44790564D01*
X4598725Y-44794836D01*
X4598724Y-44794837D01*
X4583152Y-44817665D01*
X4471119Y-44981899D01*
X4373602Y-45191981D01*
X4311707Y-45415169D01*
X4287095Y-45645469D01*
X4287392Y-45650622D01*
X4287392Y-45650625D01*
X4295232Y-45786590D01*
X4300427Y-45876697D01*
X4301564Y-45881743D01*
X4301565Y-45881749D01*
X4326700Y-45993278D01*
X4351346Y-46102642D01*
X4353288Y-46107424D01*
X4353289Y-46107428D01*
X4401620Y-46226453D01*
X4438484Y-46317237D01*
X4559501Y-46514719D01*
X4711147Y-46689784D01*
X4856885Y-46810778D01*
X4884046Y-46833327D01*
X4889349Y-46837730D01*
X5089322Y-46954584D01*
X5305694Y-47037209D01*
X5310760Y-47038240D01*
X5310761Y-47038240D01*
X5363846Y-47049040D01*
X5532656Y-47083385D01*
X5663324Y-47088176D01*
X5758949Y-47091683D01*
X5758953Y-47091683D01*
X5764113Y-47091872D01*
X5769233Y-47091216D01*
X5769235Y-47091216D01*
X5848224Y-47081097D01*
X5993847Y-47062442D01*
X5998795Y-47060957D01*
X5998802Y-47060956D01*
X6210747Y-46997369D01*
X6215690Y-46995886D01*
X6229391Y-46989174D01*
X6419049Y-46896262D01*
X6419052Y-46896260D01*
X6423684Y-46893991D01*
X6612243Y-46759494D01*
X6776303Y-46596005D01*
X6779479Y-46591586D01*
X6827262Y-46525088D01*
X6911458Y-46407917D01*
X6926636Y-46377208D01*
X7011784Y-46204922D01*
X7011785Y-46204920D01*
X7014078Y-46200280D01*
X7081408Y-45978671D01*
X7111640Y-45749041D01*
X7111787Y-45743030D01*
X7113245Y-45683365D01*
X7113245Y-45683361D01*
X7113327Y-45680000D01*
X7105914Y-45589837D01*
X7094773Y-45454318D01*
X7094772Y-45454312D01*
X7094349Y-45449167D01*
X7048636Y-45267174D01*
X7039184Y-45229544D01*
X7039183Y-45229540D01*
X7037925Y-45224533D01*
X7035866Y-45219797D01*
X6947630Y-45016868D01*
X6947628Y-45016865D01*
X6945570Y-45012131D01*
X6819764Y-44817665D01*
X6663887Y-44646358D01*
X6659836Y-44643159D01*
X6659832Y-44643155D01*
X6513690Y-44527740D01*
X6472627Y-44469823D01*
X6469395Y-44398900D01*
X6505020Y-44337489D01*
X6518613Y-44326279D01*
X6612243Y-44259494D01*
X6776303Y-44096005D01*
X6789217Y-44078034D01*
X6859166Y-43980689D01*
X6911458Y-43907917D01*
X6915273Y-43900199D01*
X7011784Y-43704922D01*
X7011785Y-43704920D01*
X7014078Y-43700280D01*
X7081408Y-43478671D01*
X7111640Y-43249041D01*
X7113327Y-43180000D01*
X7094349Y-42949167D01*
X7093088Y-42944147D01*
X7092244Y-42939047D01*
X7093797Y-42938790D01*
X7096316Y-42874917D01*
X7126624Y-42826057D01*
X8184905Y-41767776D01*
X8247217Y-41733750D01*
X8318032Y-41738815D01*
X8374868Y-41781362D01*
X8399679Y-41847882D01*
X8400000Y-41856871D01*
X8400000Y-45180000D01*
X9400000Y-45180000D01*
X9400000Y-41180000D01*
X9076871Y-41180000D01*
X9008750Y-41159998D01*
X8962257Y-41106342D01*
X8952153Y-41036068D01*
X8981647Y-40971488D01*
X8987776Y-40964905D01*
X9378911Y-40573770D01*
X9393323Y-40561384D01*
X9404918Y-40552851D01*
X9404923Y-40552846D01*
X9410818Y-40548508D01*
X9415557Y-40542930D01*
X9415560Y-40542927D01*
X9445035Y-40508232D01*
X9451965Y-40500716D01*
X9457660Y-40495021D01*
X9475281Y-40472749D01*
X9478072Y-40469345D01*
X9520591Y-40419297D01*
X9520592Y-40419295D01*
X9525333Y-40413715D01*
X9528661Y-40407199D01*
X9532028Y-40402150D01*
X9535195Y-40397021D01*
X9539734Y-40391284D01*
X9570655Y-40325125D01*
X9572561Y-40321225D01*
X9605769Y-40256192D01*
X9607508Y-40249084D01*
X9609607Y-40243441D01*
X9611524Y-40237678D01*
X9614622Y-40231050D01*
X9629487Y-40159583D01*
X9630457Y-40155299D01*
X9646473Y-40089845D01*
X9647808Y-40084390D01*
X9648500Y-40073236D01*
X9648536Y-40073238D01*
X9648775Y-40069245D01*
X9649149Y-40065053D01*
X9650640Y-40057885D01*
X9648838Y-39991272D01*
X9666991Y-39922636D01*
X9719369Y-39874709D01*
X9789345Y-39862708D01*
X9854699Y-39890444D01*
X9873194Y-39909169D01*
X9883964Y-39922636D01*
X9934686Y-39986060D01*
X9982716Y-40046119D01*
X10179809Y-40230234D01*
X10401416Y-40383968D01*
X10405499Y-40385999D01*
X10405502Y-40386001D01*
X10437963Y-40402150D01*
X10642894Y-40504101D01*
X10647228Y-40505522D01*
X10647231Y-40505523D01*
X10894853Y-40586698D01*
X10894859Y-40586699D01*
X10899186Y-40588118D01*
X10903677Y-40588898D01*
X10903678Y-40588898D01*
X11161140Y-40633601D01*
X11161148Y-40633602D01*
X11164921Y-40634257D01*
X11168758Y-40634448D01*
X11248578Y-40638422D01*
X11248586Y-40638422D01*
X11250149Y-40638500D01*
X14118512Y-40638500D01*
X14120780Y-40638335D01*
X14120792Y-40638335D01*
X14251884Y-40628823D01*
X14319004Y-40623953D01*
X14323459Y-40622969D01*
X14323462Y-40622969D01*
X14577912Y-40566791D01*
X14577916Y-40566790D01*
X14582372Y-40565806D01*
X14734336Y-40508232D01*
X14830318Y-40471868D01*
X14830321Y-40471867D01*
X14834588Y-40470250D01*
X15070368Y-40339286D01*
X15284773Y-40175657D01*
X15304675Y-40155299D01*
X15470117Y-39986060D01*
X15473312Y-39982792D01*
X15632034Y-39764730D01*
X15715970Y-39605194D01*
X15755490Y-39530079D01*
X15755493Y-39530073D01*
X15757615Y-39526039D01*
X15769859Y-39491369D01*
X15845902Y-39276033D01*
X15845902Y-39276032D01*
X15847425Y-39271720D01*
X15888586Y-39062884D01*
X15898700Y-39011572D01*
X15898701Y-39011566D01*
X15899581Y-39007100D01*
X15902283Y-38952822D01*
X15912764Y-38742292D01*
X15912764Y-38742286D01*
X15912991Y-38737723D01*
X15887375Y-38469231D01*
X15877415Y-38428525D01*
X15824355Y-38211688D01*
X15823269Y-38207250D01*
X15722015Y-37957267D01*
X15612629Y-37770450D01*
X15588045Y-37728463D01*
X15588044Y-37728462D01*
X15585735Y-37724518D01*
X15467928Y-37577208D01*
X15420136Y-37517447D01*
X15420135Y-37517445D01*
X15417284Y-37513881D01*
X15220191Y-37329766D01*
X14998584Y-37176032D01*
X14994501Y-37174001D01*
X14994498Y-37173999D01*
X14867205Y-37110672D01*
X14757106Y-37055899D01*
X14752772Y-37054478D01*
X14752769Y-37054477D01*
X14505147Y-36973302D01*
X14505141Y-36973301D01*
X14500814Y-36971882D01*
X14496322Y-36971102D01*
X14400965Y-36954545D01*
X14337270Y-36923184D01*
X14300642Y-36862365D01*
X14302709Y-36791399D01*
X14315260Y-36764286D01*
X14376369Y-36665150D01*
X14376370Y-36665148D01*
X14380209Y-36658920D01*
X14434974Y-36493809D01*
X14436581Y-36478131D01*
X14445172Y-36394271D01*
X14445500Y-36391072D01*
X14445500Y-35691928D01*
X14444539Y-35682662D01*
X14435419Y-35594765D01*
X14435418Y-35594761D01*
X14434707Y-35587907D01*
X14419175Y-35541350D01*
X14381972Y-35429841D01*
X14379654Y-35422893D01*
X14301236Y-35296170D01*
X14291969Y-35281195D01*
X14291968Y-35281194D01*
X14288116Y-35274969D01*
X14288583Y-35274680D01*
X14263801Y-35213455D01*
X14276972Y-35143690D01*
X14325769Y-35092122D01*
X14389184Y-35075000D01*
X15446346Y-35075000D01*
X15514467Y-35095002D01*
X15535347Y-35111811D01*
X15536770Y-35113231D01*
X15570861Y-35175507D01*
X15565871Y-35246328D01*
X15536943Y-35291436D01*
X15429071Y-35399497D01*
X15425231Y-35405727D01*
X15425230Y-35405728D01*
X15345094Y-35535733D01*
X15337791Y-35547580D01*
X15283026Y-35712691D01*
X15282326Y-35719527D01*
X15282325Y-35719530D01*
X15279342Y-35748649D01*
X15272500Y-35815428D01*
X15272500Y-36414572D01*
X15272837Y-36417818D01*
X15272837Y-36417822D01*
X15281399Y-36500335D01*
X15283293Y-36518593D01*
X15285474Y-36525129D01*
X15285474Y-36525131D01*
X15322666Y-36636607D01*
X15338346Y-36683607D01*
X15429884Y-36831531D01*
X15435066Y-36836704D01*
X15547816Y-36949258D01*
X15547821Y-36949262D01*
X15552997Y-36954429D01*
X15559227Y-36958269D01*
X15559228Y-36958270D01*
X15666694Y-37024513D01*
X15701080Y-37045709D01*
X15866191Y-37100474D01*
X15873027Y-37101174D01*
X15873030Y-37101175D01*
X15924526Y-37106451D01*
X15968928Y-37111000D01*
X16543072Y-37111000D01*
X16546318Y-37110663D01*
X16546322Y-37110663D01*
X16640235Y-37100919D01*
X16640239Y-37100918D01*
X16647093Y-37100207D01*
X16653629Y-37098026D01*
X16653631Y-37098026D01*
X16796482Y-37050367D01*
X16812107Y-37045154D01*
X16960031Y-36953616D01*
X16979647Y-36933966D01*
X17026549Y-36886982D01*
X17088832Y-36852903D01*
X17115722Y-36850000D01*
X18038500Y-36850000D01*
X18106621Y-36870002D01*
X18153114Y-36923658D01*
X18164500Y-36976000D01*
X18164500Y-41062375D01*
X18144498Y-41130496D01*
X18090842Y-41176989D01*
X18020568Y-41187093D01*
X18011717Y-41185496D01*
X18000000Y-41182947D01*
X18000000Y-41180000D01*
X17000000Y-41180000D01*
X17000000Y-45180000D01*
X18000000Y-45180000D01*
X18000000Y-42832337D01*
X18020002Y-42764216D01*
X18073658Y-42717723D01*
X18143932Y-42707619D01*
X18208512Y-42737113D01*
X18234311Y-42768524D01*
X18236157Y-42772864D01*
X18240496Y-42778760D01*
X18250992Y-42793022D01*
X18260609Y-42808264D01*
X18268961Y-42823875D01*
X18268966Y-42823882D01*
X18272418Y-42830334D01*
X18277265Y-42835822D01*
X18304885Y-42867096D01*
X18311924Y-42875820D01*
X18336649Y-42909417D01*
X18340992Y-42915318D01*
X18346576Y-42920062D01*
X18360066Y-42931523D01*
X18372926Y-42944138D01*
X18389500Y-42962904D01*
X18395477Y-42967128D01*
X18429550Y-42991208D01*
X18438398Y-42998070D01*
X18475785Y-43029833D01*
X18498086Y-43041220D01*
X18513493Y-43050533D01*
X18533940Y-43064984D01*
X18540730Y-43067720D01*
X18540729Y-43067720D01*
X18579433Y-43083319D01*
X18589623Y-43087963D01*
X18633308Y-43110269D01*
X18657627Y-43116220D01*
X18674763Y-43121737D01*
X18697989Y-43131098D01*
X18746477Y-43138474D01*
X18757476Y-43140652D01*
X18761195Y-43141562D01*
X18805110Y-43152308D01*
X18810709Y-43152655D01*
X18810713Y-43152656D01*
X18814325Y-43152880D01*
X18814335Y-43152880D01*
X18816264Y-43153000D01*
X18832430Y-43153000D01*
X18851380Y-43154433D01*
X18865615Y-43156599D01*
X18865619Y-43156599D01*
X18872849Y-43157699D01*
X18880141Y-43157106D01*
X18880144Y-43157106D01*
X18925518Y-43153415D01*
X18935733Y-43153000D01*
X19610800Y-43153000D01*
X19678921Y-43173002D01*
X19699819Y-43189828D01*
X19727787Y-43217748D01*
X19761865Y-43280031D01*
X19756861Y-43350851D01*
X19727941Y-43395937D01*
X19625246Y-43498812D01*
X19625242Y-43498817D01*
X19620071Y-43503997D01*
X19616231Y-43510227D01*
X19616230Y-43510228D01*
X19566967Y-43590148D01*
X19528791Y-43652080D01*
X19474026Y-43817191D01*
X19463500Y-43919928D01*
X19463500Y-44519072D01*
X19463837Y-44522318D01*
X19463837Y-44522322D01*
X19471716Y-44598254D01*
X19474293Y-44623093D01*
X19529346Y-44788107D01*
X19620884Y-44936031D01*
X19626066Y-44941204D01*
X19738816Y-45053758D01*
X19738821Y-45053762D01*
X19743997Y-45058929D01*
X19750227Y-45062769D01*
X19750228Y-45062770D01*
X19865267Y-45133681D01*
X19892080Y-45150209D01*
X20057191Y-45204974D01*
X20064027Y-45205674D01*
X20064030Y-45205675D01*
X20115526Y-45210951D01*
X20159928Y-45215500D01*
X20734072Y-45215500D01*
X20737318Y-45215163D01*
X20737322Y-45215163D01*
X20831235Y-45205419D01*
X20831239Y-45205418D01*
X20838093Y-45204707D01*
X20844629Y-45202526D01*
X20844631Y-45202526D01*
X20983495Y-45156197D01*
X21003107Y-45149654D01*
X21151031Y-45058116D01*
X21194089Y-45014982D01*
X21256373Y-44980903D01*
X21283263Y-44978000D01*
X22055528Y-44978000D01*
X22123649Y-44998002D01*
X22170142Y-45051658D01*
X22180246Y-45121932D01*
X22169816Y-45157051D01*
X22153602Y-45191981D01*
X22091707Y-45415169D01*
X22067095Y-45645469D01*
X22067392Y-45650621D01*
X22067392Y-45650624D01*
X22067854Y-45658631D01*
X22069770Y-45691851D01*
X22069879Y-45693746D01*
X22053832Y-45762905D01*
X22002942Y-45812410D01*
X21944088Y-45827000D01*
X21283200Y-45827000D01*
X21215079Y-45806998D01*
X21194182Y-45790173D01*
X21166867Y-45762905D01*
X21150003Y-45746071D01*
X21143772Y-45742230D01*
X21008150Y-45658631D01*
X21008148Y-45658630D01*
X21001920Y-45654791D01*
X20836809Y-45600026D01*
X20829973Y-45599326D01*
X20829970Y-45599325D01*
X20778474Y-45594049D01*
X20734072Y-45589500D01*
X20159928Y-45589500D01*
X20156682Y-45589837D01*
X20156678Y-45589837D01*
X20062765Y-45599581D01*
X20062761Y-45599582D01*
X20055907Y-45600293D01*
X20049371Y-45602474D01*
X20049369Y-45602474D01*
X19935883Y-45640336D01*
X19890893Y-45655346D01*
X19742969Y-45746884D01*
X19737796Y-45752066D01*
X19625242Y-45864816D01*
X19625238Y-45864821D01*
X19620071Y-45869997D01*
X19616231Y-45876227D01*
X19616230Y-45876228D01*
X19567245Y-45955697D01*
X19528791Y-46018080D01*
X19474026Y-46183191D01*
X19473326Y-46190027D01*
X19473325Y-46190030D01*
X19468049Y-46241526D01*
X19463500Y-46285928D01*
X19463500Y-46885072D01*
X19463837Y-46888318D01*
X19463837Y-46888322D01*
X19470904Y-46956427D01*
X19474293Y-46989093D01*
X19476474Y-46995629D01*
X19476474Y-46995631D01*
X19498268Y-47060956D01*
X19529346Y-47154107D01*
X19620884Y-47302031D01*
X19626066Y-47307204D01*
X19727786Y-47408747D01*
X19761865Y-47471030D01*
X19756862Y-47541850D01*
X19727941Y-47586937D01*
X19625246Y-47689812D01*
X19625242Y-47689817D01*
X19620071Y-47694997D01*
X19616231Y-47701227D01*
X19616230Y-47701228D01*
X19543089Y-47819885D01*
X19528791Y-47843080D01*
X19474026Y-48008191D01*
X19473326Y-48015027D01*
X19473325Y-48015030D01*
X19470544Y-48042178D01*
X19463500Y-48110928D01*
X19463500Y-48710072D01*
X19463837Y-48713318D01*
X19463837Y-48713322D01*
X19465757Y-48731822D01*
X19474293Y-48814093D01*
X19476474Y-48820629D01*
X19476474Y-48820631D01*
X19506818Y-48911583D01*
X19529346Y-48979107D01*
X19620884Y-49127031D01*
X19626066Y-49132204D01*
X19738816Y-49244758D01*
X19738821Y-49244762D01*
X19743997Y-49249929D01*
X19750227Y-49253769D01*
X19750228Y-49253770D01*
X19834187Y-49305523D01*
X19892080Y-49341209D01*
X20057191Y-49395974D01*
X20064027Y-49396674D01*
X20064030Y-49396675D01*
X20115526Y-49401951D01*
X20159928Y-49406500D01*
X20734072Y-49406500D01*
X20737318Y-49406163D01*
X20737322Y-49406163D01*
X20831235Y-49396419D01*
X20831239Y-49396418D01*
X20838093Y-49395707D01*
X20844629Y-49393526D01*
X20844631Y-49393526D01*
X20977395Y-49349232D01*
X21003107Y-49340654D01*
X21151031Y-49249116D01*
X21171212Y-49228899D01*
X21233496Y-49194820D01*
X21304316Y-49199823D01*
X21311631Y-49202809D01*
X21317209Y-49205292D01*
X21317215Y-49205294D01*
X21323248Y-49207980D01*
X21411508Y-49226740D01*
X21493311Y-49244128D01*
X21493315Y-49244128D01*
X21499768Y-49245500D01*
X21680232Y-49245500D01*
X21686685Y-49244128D01*
X21686689Y-49244128D01*
X21736594Y-49233520D01*
X21761449Y-49228237D01*
X21832239Y-49233639D01*
X21888871Y-49276456D01*
X21913365Y-49343094D01*
X21897944Y-49412395D01*
X21876740Y-49440579D01*
X19422724Y-51894595D01*
X19360412Y-51928621D01*
X19333629Y-51931500D01*
X18101866Y-51931500D01*
X18039684Y-51938255D01*
X17903295Y-51989385D01*
X17786739Y-52076739D01*
X17699385Y-52193295D01*
X17648255Y-52329684D01*
X17641500Y-52391866D01*
X17641500Y-54288134D01*
X17648255Y-54350316D01*
X17699385Y-54486705D01*
X17786739Y-54603261D01*
X17903295Y-54690615D01*
X18039684Y-54741745D01*
X18101866Y-54748500D01*
X19998134Y-54748500D01*
X20060316Y-54741745D01*
X20196705Y-54690615D01*
X20313261Y-54603261D01*
X20400615Y-54486705D01*
X20425180Y-54421178D01*
X20467822Y-54364414D01*
X20534383Y-54339714D01*
X20603732Y-54354921D01*
X20623647Y-54368464D01*
X20688724Y-54422492D01*
X20779349Y-54497730D01*
X20979322Y-54614584D01*
X21195694Y-54697209D01*
X21200760Y-54698240D01*
X21200761Y-54698240D01*
X21201759Y-54698443D01*
X21422656Y-54743385D01*
X21552089Y-54748131D01*
X21648949Y-54751683D01*
X21648953Y-54751683D01*
X21654113Y-54751872D01*
X21659233Y-54751216D01*
X21659235Y-54751216D01*
X21733166Y-54741745D01*
X21883847Y-54722442D01*
X21888795Y-54720957D01*
X21888802Y-54720956D01*
X22100747Y-54657369D01*
X22105690Y-54655886D01*
X22186236Y-54616427D01*
X22309049Y-54556262D01*
X22309052Y-54556260D01*
X22313684Y-54553991D01*
X22502243Y-54419494D01*
X22666303Y-54256005D01*
X22741777Y-54150973D01*
X22797770Y-54107326D01*
X22844098Y-54098500D01*
X30666930Y-54098500D01*
X30685880Y-54099933D01*
X30700115Y-54102099D01*
X30700119Y-54102099D01*
X30707349Y-54103199D01*
X30714641Y-54102606D01*
X30714644Y-54102606D01*
X30760018Y-54098915D01*
X30770233Y-54098500D01*
X30778293Y-54098500D01*
X30791583Y-54096951D01*
X30806507Y-54095211D01*
X30810882Y-54094778D01*
X30876339Y-54089454D01*
X30876342Y-54089453D01*
X30883637Y-54088860D01*
X30890601Y-54086604D01*
X30896560Y-54085413D01*
X30902415Y-54084029D01*
X30909681Y-54083182D01*
X30978327Y-54058265D01*
X30982455Y-54056848D01*
X31044936Y-54036607D01*
X31044938Y-54036606D01*
X31051899Y-54034351D01*
X31058154Y-54030555D01*
X31063628Y-54028049D01*
X31069058Y-54025330D01*
X31075937Y-54022833D01*
X31136976Y-53982814D01*
X31140680Y-53980477D01*
X31203107Y-53942595D01*
X31211484Y-53935197D01*
X31211508Y-53935224D01*
X31214500Y-53932571D01*
X31217733Y-53929868D01*
X31223852Y-53925856D01*
X31277128Y-53869617D01*
X31279506Y-53867175D01*
X32092092Y-53054589D01*
X32154404Y-53020563D01*
X32225219Y-53025628D01*
X32282055Y-53068175D01*
X32306866Y-53134695D01*
X32306978Y-53150937D01*
X32297806Y-53310018D01*
X32296734Y-53328609D01*
X32314591Y-53681106D01*
X32315128Y-53684461D01*
X32315129Y-53684467D01*
X32344785Y-53869617D01*
X32370412Y-54029613D01*
X32463546Y-54370053D01*
X32592903Y-54698443D01*
X32594486Y-54701458D01*
X32755384Y-55007926D01*
X32755389Y-55007934D01*
X32756968Y-55010942D01*
X32758862Y-55013760D01*
X32758867Y-55013769D01*
X32778518Y-55043012D01*
X32953824Y-55303895D01*
X33181167Y-55573873D01*
X33183627Y-55576224D01*
X33183630Y-55576227D01*
X33433875Y-55815366D01*
X33433882Y-55815372D01*
X33436338Y-55817719D01*
X33716351Y-56032581D01*
X33719269Y-56034355D01*
X34015017Y-56214173D01*
X34015022Y-56214176D01*
X34017932Y-56215945D01*
X34021020Y-56217391D01*
X34021019Y-56217391D01*
X34334468Y-56364222D01*
X34334478Y-56364226D01*
X34337552Y-56365666D01*
X34340770Y-56366768D01*
X34340773Y-56366769D01*
X34668241Y-56478887D01*
X34668245Y-56478888D01*
X34671472Y-56479993D01*
X34674802Y-56480743D01*
X34674811Y-56480746D01*
X34918164Y-56535587D01*
X35015786Y-56557587D01*
X35019171Y-56557973D01*
X35019179Y-56557974D01*
X35363083Y-56597157D01*
X35363091Y-56597157D01*
X35366466Y-56597542D01*
X35369870Y-56597560D01*
X35369873Y-56597560D01*
X35561627Y-56598564D01*
X35719411Y-56599390D01*
X35722797Y-56599040D01*
X35722799Y-56599040D01*
X36067098Y-56563461D01*
X36067107Y-56563460D01*
X36070490Y-56563110D01*
X36073823Y-56562396D01*
X36073826Y-56562395D01*
X36243692Y-56525979D01*
X36415598Y-56489125D01*
X36750697Y-56378301D01*
X37071867Y-56231936D01*
X37165405Y-56176397D01*
X37372407Y-56053489D01*
X37372412Y-56053486D01*
X37375352Y-56051740D01*
X37400870Y-56032581D01*
X37654867Y-55841874D01*
X37657600Y-55839822D01*
X37915310Y-55598661D01*
X38145468Y-55331078D01*
X38345380Y-55040203D01*
X38346992Y-55037209D01*
X38346997Y-55037201D01*
X38469092Y-54810445D01*
X38512709Y-54729440D01*
X38645498Y-54402422D01*
X38653816Y-54373223D01*
X38707401Y-54185108D01*
X38742191Y-54062976D01*
X38743123Y-54057526D01*
X38801087Y-53718420D01*
X38801087Y-53718418D01*
X38801659Y-53715073D01*
X38803945Y-53677711D01*
X38823096Y-53364580D01*
X38823206Y-53362782D01*
X38823286Y-53340000D01*
X38804199Y-52987567D01*
X38747161Y-52639257D01*
X38652839Y-52299145D01*
X38649849Y-52291630D01*
X38523597Y-51974372D01*
X38522338Y-51971208D01*
X38422426Y-51782508D01*
X38358777Y-51662295D01*
X38358775Y-51662292D01*
X38357182Y-51659283D01*
X38350579Y-51649530D01*
X38161211Y-51369834D01*
X38161204Y-51369825D01*
X38159305Y-51367020D01*
X38157109Y-51364430D01*
X38157104Y-51364424D01*
X38068715Y-51260201D01*
X37931021Y-51097837D01*
X37675001Y-50854883D01*
X37672294Y-50852821D01*
X37672286Y-50852814D01*
X37513809Y-50732088D01*
X37394239Y-50641000D01*
X37092020Y-50458689D01*
X37088930Y-50457255D01*
X37088925Y-50457252D01*
X36931950Y-50384387D01*
X36771879Y-50310085D01*
X36768654Y-50308993D01*
X36768648Y-50308991D01*
X36440798Y-50198020D01*
X36440793Y-50198018D01*
X36437562Y-50196925D01*
X36423832Y-50193881D01*
X36354730Y-50178562D01*
X36092979Y-50120533D01*
X35968353Y-50106774D01*
X35745543Y-50082175D01*
X35745538Y-50082175D01*
X35742162Y-50081802D01*
X35738763Y-50081796D01*
X35738762Y-50081796D01*
X35572289Y-50081506D01*
X35389213Y-50081186D01*
X35385846Y-50081546D01*
X35385824Y-50081547D01*
X35381543Y-50082005D01*
X35311682Y-50069356D01*
X35259750Y-50020946D01*
X35242235Y-49952143D01*
X35264698Y-49884794D01*
X35279057Y-49867624D01*
X36810911Y-48335770D01*
X36825323Y-48323384D01*
X36836918Y-48314851D01*
X36836923Y-48314846D01*
X36842818Y-48310508D01*
X36847557Y-48304930D01*
X36847560Y-48304927D01*
X36877035Y-48270232D01*
X36883965Y-48262716D01*
X36889660Y-48257021D01*
X36907281Y-48234749D01*
X36910072Y-48231345D01*
X36952591Y-48181297D01*
X36952592Y-48181295D01*
X36957333Y-48175715D01*
X36960661Y-48169199D01*
X36964028Y-48164150D01*
X36967195Y-48159021D01*
X36971734Y-48153284D01*
X37002655Y-48087125D01*
X37004561Y-48083225D01*
X37037769Y-48018192D01*
X37039508Y-48011084D01*
X37041607Y-48005441D01*
X37043524Y-47999678D01*
X37046622Y-47993050D01*
X37061487Y-47921583D01*
X37062457Y-47917299D01*
X37068949Y-47890769D01*
X37079808Y-47846390D01*
X37080500Y-47835236D01*
X37080536Y-47835238D01*
X37080775Y-47831245D01*
X37081149Y-47827053D01*
X37082640Y-47819885D01*
X37080546Y-47742479D01*
X37080500Y-47739072D01*
X37080500Y-46907722D01*
X37100502Y-46839601D01*
X37154158Y-46793108D01*
X37224432Y-46783004D01*
X37286984Y-46810778D01*
X37318126Y-46836632D01*
X37511000Y-46949338D01*
X37719692Y-47029030D01*
X37724760Y-47030061D01*
X37724763Y-47030062D01*
X37832017Y-47051883D01*
X37938597Y-47073567D01*
X37943772Y-47073757D01*
X37943774Y-47073757D01*
X38156673Y-47081564D01*
X38156677Y-47081564D01*
X38161837Y-47081753D01*
X38166957Y-47081097D01*
X38166959Y-47081097D01*
X38378288Y-47054025D01*
X38378289Y-47054025D01*
X38383416Y-47053368D01*
X38433840Y-47038240D01*
X38592429Y-46990661D01*
X38592434Y-46990659D01*
X38597384Y-46989174D01*
X38797994Y-46890896D01*
X38979860Y-46761173D01*
X38987737Y-46753324D01*
X39134435Y-46607137D01*
X39138096Y-46603489D01*
X39197594Y-46520689D01*
X39265435Y-46426277D01*
X39268453Y-46422077D01*
X39275452Y-46407917D01*
X39365136Y-46226453D01*
X39365137Y-46226451D01*
X39367430Y-46221811D01*
X39422286Y-46041259D01*
X39430865Y-46013023D01*
X39430865Y-46013021D01*
X39432370Y-46008069D01*
X39461529Y-45786590D01*
X39461854Y-45773302D01*
X39463074Y-45723365D01*
X39463074Y-45723361D01*
X39463156Y-45720000D01*
X39444852Y-45497361D01*
X39390431Y-45280702D01*
X39301354Y-45075840D01*
X39240581Y-44981899D01*
X39182822Y-44892617D01*
X39182820Y-44892614D01*
X39180014Y-44888277D01*
X39029670Y-44723051D01*
X39025619Y-44719852D01*
X39025615Y-44719848D01*
X38858414Y-44587800D01*
X38858410Y-44587798D01*
X38854359Y-44584598D01*
X38813053Y-44561796D01*
X38763084Y-44511364D01*
X38748312Y-44441921D01*
X38773428Y-44375516D01*
X38800780Y-44348909D01*
X38869907Y-44299601D01*
X38979860Y-44221173D01*
X39138096Y-44063489D01*
X39143715Y-44055670D01*
X39265435Y-43886277D01*
X39268453Y-43882077D01*
X39297142Y-43824030D01*
X39365136Y-43686453D01*
X39365137Y-43686451D01*
X39367430Y-43681811D01*
X39432370Y-43468069D01*
X39461529Y-43246590D01*
X39461611Y-43243240D01*
X39463074Y-43183365D01*
X39463074Y-43183361D01*
X39463156Y-43180000D01*
X39444852Y-42957361D01*
X39390431Y-42740702D01*
X39301354Y-42535840D01*
X39236634Y-42435798D01*
X39182822Y-42352617D01*
X39182820Y-42352614D01*
X39180014Y-42348277D01*
X39160303Y-42326615D01*
X39032798Y-42186488D01*
X39001746Y-42122642D01*
X39010141Y-42052143D01*
X39055317Y-41997375D01*
X39081761Y-41983706D01*
X39188297Y-41943767D01*
X39196705Y-41940615D01*
X39313261Y-41853261D01*
X39400615Y-41736705D01*
X39451745Y-41600316D01*
X39458500Y-41538134D01*
X39458500Y-39741866D01*
X39451745Y-39679684D01*
X39400615Y-39543295D01*
X39313261Y-39426739D01*
X39196705Y-39339385D01*
X39060316Y-39288255D01*
X38998134Y-39281500D01*
X37206500Y-39281500D01*
X37138379Y-39261498D01*
X37091886Y-39207842D01*
X37080500Y-39155500D01*
X37080500Y-38421070D01*
X37081933Y-38402120D01*
X37084099Y-38387885D01*
X37084099Y-38387881D01*
X37085199Y-38380651D01*
X37080915Y-38327982D01*
X37080500Y-38317767D01*
X37080500Y-38309707D01*
X37077209Y-38281480D01*
X37076778Y-38277121D01*
X37075133Y-38256893D01*
X37070860Y-38204364D01*
X37068605Y-38197403D01*
X37067418Y-38191463D01*
X37066029Y-38185588D01*
X37065182Y-38178319D01*
X37040264Y-38109670D01*
X37038847Y-38105542D01*
X37018607Y-38043064D01*
X37018606Y-38043062D01*
X37016351Y-38036101D01*
X37012555Y-38029846D01*
X37010049Y-38024372D01*
X37007330Y-38018942D01*
X37004833Y-38012063D01*
X36988582Y-37987276D01*
X36964814Y-37951024D01*
X36962467Y-37947305D01*
X36959542Y-37942484D01*
X36924595Y-37884893D01*
X36917197Y-37876516D01*
X36917224Y-37876492D01*
X36914571Y-37873500D01*
X36911868Y-37870267D01*
X36907856Y-37864148D01*
X36851617Y-37810872D01*
X36849175Y-37808494D01*
X32216212Y-33175531D01*
X32182186Y-33113219D01*
X32187251Y-33042404D01*
X32216212Y-32997341D01*
X32291449Y-32922104D01*
X32301089Y-32909678D01*
X32377648Y-32780221D01*
X32383893Y-32765790D01*
X32426269Y-32619935D01*
X32428570Y-32607333D01*
X32430807Y-32578916D01*
X32431000Y-32573986D01*
X32431000Y-32477266D01*
X33434000Y-32477266D01*
X33434337Y-32483782D01*
X33444075Y-32577632D01*
X33446968Y-32591028D01*
X33497488Y-32742453D01*
X33503653Y-32755615D01*
X33587426Y-32890992D01*
X33596460Y-32902390D01*
X33709129Y-33014863D01*
X33720540Y-33023875D01*
X33856063Y-33107412D01*
X33869241Y-33113556D01*
X34020766Y-33163815D01*
X34034132Y-33166681D01*
X34126770Y-33176172D01*
X34133185Y-33176500D01*
X34144885Y-33176500D01*
X34160124Y-33172025D01*
X34161329Y-33170635D01*
X34163000Y-33162952D01*
X34163000Y-33158385D01*
X34671000Y-33158385D01*
X34675475Y-33173624D01*
X34676865Y-33174829D01*
X34684548Y-33176500D01*
X34700766Y-33176500D01*
X34707282Y-33176163D01*
X34801132Y-33166425D01*
X34814528Y-33163532D01*
X34965953Y-33113012D01*
X34979115Y-33106847D01*
X35114492Y-33023074D01*
X35125890Y-33014040D01*
X35153187Y-32986695D01*
X36737251Y-32986695D01*
X36737548Y-32991848D01*
X36737548Y-32991851D01*
X36748139Y-33175531D01*
X36750110Y-33209715D01*
X36751247Y-33214761D01*
X36751248Y-33214767D01*
X36767599Y-33287319D01*
X36799222Y-33427639D01*
X36883266Y-33634616D01*
X36999987Y-33825088D01*
X37146250Y-33993938D01*
X37318126Y-34136632D01*
X37511000Y-34249338D01*
X37515825Y-34251180D01*
X37515826Y-34251181D01*
X37547521Y-34263284D01*
X37719692Y-34329030D01*
X37724760Y-34330061D01*
X37724763Y-34330062D01*
X37832017Y-34351883D01*
X37938597Y-34373567D01*
X37943772Y-34373757D01*
X37943774Y-34373757D01*
X38156673Y-34381564D01*
X38156677Y-34381564D01*
X38161837Y-34381753D01*
X38166957Y-34381097D01*
X38166959Y-34381097D01*
X38378288Y-34354025D01*
X38378289Y-34354025D01*
X38383416Y-34353368D01*
X38388366Y-34351883D01*
X38592429Y-34290661D01*
X38592434Y-34290659D01*
X38597384Y-34289174D01*
X38797994Y-34190896D01*
X38979860Y-34061173D01*
X39138096Y-33903489D01*
X39178307Y-33847530D01*
X39265435Y-33726277D01*
X39268453Y-33722077D01*
X39280406Y-33697893D01*
X39365136Y-33526453D01*
X39365137Y-33526451D01*
X39367430Y-33521811D01*
X39424483Y-33334028D01*
X39430865Y-33313023D01*
X39430865Y-33313021D01*
X39432370Y-33308069D01*
X39461529Y-33086590D01*
X39462852Y-33032444D01*
X39463074Y-33023365D01*
X39463074Y-33023361D01*
X39463156Y-33020000D01*
X39444852Y-32797361D01*
X39390431Y-32580702D01*
X39301354Y-32375840D01*
X39180014Y-32188277D01*
X39029670Y-32023051D01*
X39025619Y-32019852D01*
X39025615Y-32019848D01*
X38858414Y-31887800D01*
X38858410Y-31887798D01*
X38854359Y-31884598D01*
X38813053Y-31861796D01*
X38763084Y-31811364D01*
X38748312Y-31741921D01*
X38773428Y-31675516D01*
X38800780Y-31648909D01*
X38844603Y-31617650D01*
X38979860Y-31521173D01*
X39138096Y-31363489D01*
X39142089Y-31357933D01*
X39265435Y-31186277D01*
X39268453Y-31182077D01*
X39276249Y-31166304D01*
X39365136Y-30986453D01*
X39365137Y-30986451D01*
X39367430Y-30981811D01*
X39432370Y-30768069D01*
X39461529Y-30546590D01*
X39463156Y-30480000D01*
X39444852Y-30257361D01*
X39390431Y-30040702D01*
X39301354Y-29835840D01*
X39258131Y-29769028D01*
X39182822Y-29652617D01*
X39182820Y-29652614D01*
X39180014Y-29648277D01*
X39176540Y-29644459D01*
X39176533Y-29644450D01*
X39032435Y-29486088D01*
X39001383Y-29422242D01*
X39009779Y-29351744D01*
X39054956Y-29296976D01*
X39081400Y-29283307D01*
X39188052Y-29243325D01*
X39203649Y-29234786D01*
X39305724Y-29158285D01*
X39318285Y-29145724D01*
X39394786Y-29043649D01*
X39403324Y-29028054D01*
X39448478Y-28907606D01*
X39452105Y-28892351D01*
X39457631Y-28841486D01*
X39458000Y-28834672D01*
X39458000Y-28212115D01*
X39453525Y-28196876D01*
X39452135Y-28195671D01*
X39444452Y-28194000D01*
X36760116Y-28194000D01*
X36744877Y-28198475D01*
X36743672Y-28199865D01*
X36742001Y-28207548D01*
X36742001Y-28834669D01*
X36742371Y-28841490D01*
X36747895Y-28892352D01*
X36751521Y-28907604D01*
X36796676Y-29028054D01*
X36805214Y-29043649D01*
X36881715Y-29145724D01*
X36894276Y-29158285D01*
X36996351Y-29234786D01*
X37011946Y-29243324D01*
X37120827Y-29284142D01*
X37177591Y-29326784D01*
X37202291Y-29393345D01*
X37187083Y-29462694D01*
X37167691Y-29489175D01*
X37044200Y-29618401D01*
X37040629Y-29622138D01*
X37037715Y-29626410D01*
X37037714Y-29626411D01*
X37003429Y-29676671D01*
X36914743Y-29806680D01*
X36884431Y-29871982D01*
X36835467Y-29977467D01*
X36820688Y-30009305D01*
X36760989Y-30224570D01*
X36737251Y-30446695D01*
X36737548Y-30451848D01*
X36737548Y-30451851D01*
X36743011Y-30546590D01*
X36750110Y-30669715D01*
X36751247Y-30674761D01*
X36751248Y-30674767D01*
X36770180Y-30758771D01*
X36799222Y-30887639D01*
X36837461Y-30981811D01*
X36880580Y-31088000D01*
X36883266Y-31094616D01*
X36885965Y-31099020D01*
X36973550Y-31241946D01*
X36999987Y-31285088D01*
X37146250Y-31453938D01*
X37209423Y-31506385D01*
X37306621Y-31587080D01*
X37318126Y-31596632D01*
X37388595Y-31637811D01*
X37391445Y-31639476D01*
X37440169Y-31691114D01*
X37453240Y-31760897D01*
X37426509Y-31826669D01*
X37386055Y-31860027D01*
X37379476Y-31863452D01*
X37373607Y-31866507D01*
X37369474Y-31869610D01*
X37369471Y-31869612D01*
X37263495Y-31949181D01*
X37194965Y-32000635D01*
X37040629Y-32162138D01*
X36914743Y-32346680D01*
X36894233Y-32390865D01*
X36854105Y-32477315D01*
X36820688Y-32549305D01*
X36760989Y-32764570D01*
X36737251Y-32986695D01*
X35153187Y-32986695D01*
X35238363Y-32901371D01*
X35247375Y-32889960D01*
X35330912Y-32754437D01*
X35337056Y-32741259D01*
X35387315Y-32589734D01*
X35390181Y-32576368D01*
X35399672Y-32483730D01*
X35400000Y-32477315D01*
X35400000Y-32403115D01*
X35395525Y-32387876D01*
X35394135Y-32386671D01*
X35386452Y-32385000D01*
X34689115Y-32385000D01*
X34673876Y-32389475D01*
X34672671Y-32390865D01*
X34671000Y-32398548D01*
X34671000Y-33158385D01*
X34163000Y-33158385D01*
X34163000Y-32403115D01*
X34158525Y-32387876D01*
X34157135Y-32386671D01*
X34149452Y-32385000D01*
X33452115Y-32385000D01*
X33436876Y-32389475D01*
X33435671Y-32390865D01*
X33434000Y-32398548D01*
X33434000Y-32477266D01*
X32431000Y-32477266D01*
X32431000Y-31957115D01*
X32426525Y-31941876D01*
X32425135Y-31940671D01*
X32417452Y-31939000D01*
X31495000Y-31939000D01*
X31426879Y-31918998D01*
X31380386Y-31865342D01*
X31369000Y-31813000D01*
X31369000Y-31412885D01*
X31877000Y-31412885D01*
X31881475Y-31428124D01*
X31882865Y-31429329D01*
X31890548Y-31431000D01*
X32412884Y-31431000D01*
X32428123Y-31426525D01*
X32429328Y-31425135D01*
X32430999Y-31417452D01*
X32430999Y-30796017D01*
X32430805Y-30791080D01*
X32428570Y-30762664D01*
X32427275Y-30755572D01*
X33433500Y-30755572D01*
X33433837Y-30758818D01*
X33433837Y-30758822D01*
X33435311Y-30773023D01*
X33444293Y-30859593D01*
X33446474Y-30866129D01*
X33446474Y-30866131D01*
X33457142Y-30898107D01*
X33499346Y-31024607D01*
X33590884Y-31172531D01*
X33596065Y-31177703D01*
X33598139Y-31179773D01*
X33599105Y-31181538D01*
X33600613Y-31183441D01*
X33600287Y-31183699D01*
X33632219Y-31242054D01*
X33627218Y-31312875D01*
X33598292Y-31357970D01*
X33595636Y-31360631D01*
X33586625Y-31372040D01*
X33503088Y-31507563D01*
X33496944Y-31520741D01*
X33446685Y-31672266D01*
X33443819Y-31685632D01*
X33434328Y-31778270D01*
X33434000Y-31784685D01*
X33434000Y-31858885D01*
X33438475Y-31874124D01*
X33439865Y-31875329D01*
X33447548Y-31877000D01*
X35381885Y-31877000D01*
X35397124Y-31872525D01*
X35398329Y-31871135D01*
X35400000Y-31863452D01*
X35400000Y-31784734D01*
X35399663Y-31778218D01*
X35389925Y-31684368D01*
X35387032Y-31670972D01*
X35336512Y-31519547D01*
X35330347Y-31506385D01*
X35246574Y-31371008D01*
X35237536Y-31359606D01*
X35235861Y-31357933D01*
X35235081Y-31356507D01*
X35232993Y-31353873D01*
X35233444Y-31353516D01*
X35201781Y-31295651D01*
X35206784Y-31224831D01*
X35235701Y-31179746D01*
X35238756Y-31176685D01*
X35243929Y-31171503D01*
X35255296Y-31153062D01*
X35331369Y-31029650D01*
X35331370Y-31029648D01*
X35335209Y-31023420D01*
X35389974Y-30858309D01*
X35400500Y-30755572D01*
X35400500Y-30056428D01*
X35399389Y-30045720D01*
X35390419Y-29959265D01*
X35390418Y-29959261D01*
X35389707Y-29952407D01*
X35386404Y-29942505D01*
X35341089Y-29806680D01*
X35334654Y-29787393D01*
X35276964Y-29694167D01*
X35259620Y-29666139D01*
X35240782Y-29597687D01*
X35246930Y-29560901D01*
X35250148Y-29550998D01*
X35261365Y-29516475D01*
X35280229Y-29337000D01*
X35279126Y-29326507D01*
X35262055Y-29164089D01*
X35262055Y-29164088D01*
X35261365Y-29157525D01*
X35205599Y-28985893D01*
X35115367Y-28829607D01*
X35102970Y-28815838D01*
X34999035Y-28700407D01*
X34999034Y-28700406D01*
X34994613Y-28695496D01*
X34924552Y-28644593D01*
X34853957Y-28593303D01*
X34853956Y-28593302D01*
X34848615Y-28589422D01*
X34842587Y-28586738D01*
X34842585Y-28586737D01*
X34689783Y-28518705D01*
X34689781Y-28518705D01*
X34683752Y-28516020D01*
X34595492Y-28497260D01*
X34513689Y-28479872D01*
X34513685Y-28479872D01*
X34507232Y-28478500D01*
X34326768Y-28478500D01*
X34320315Y-28479872D01*
X34320311Y-28479872D01*
X34238508Y-28497260D01*
X34150248Y-28516020D01*
X34144219Y-28518704D01*
X34144217Y-28518705D01*
X33991416Y-28586737D01*
X33991414Y-28586738D01*
X33985386Y-28589422D01*
X33980045Y-28593302D01*
X33980044Y-28593303D01*
X33844731Y-28691613D01*
X33844729Y-28691615D01*
X33839387Y-28695496D01*
X33834966Y-28700406D01*
X33834965Y-28700407D01*
X33731031Y-28815838D01*
X33718633Y-28829607D01*
X33628401Y-28985893D01*
X33572635Y-29157525D01*
X33571945Y-29164088D01*
X33571945Y-29164089D01*
X33554874Y-29326507D01*
X33553771Y-29337000D01*
X33572635Y-29516475D01*
X33583852Y-29550998D01*
X33587030Y-29560778D01*
X33589056Y-29631746D01*
X33574456Y-29665829D01*
X33503084Y-29781616D01*
X33498791Y-29788580D01*
X33444026Y-29953691D01*
X33443326Y-29960527D01*
X33443325Y-29960530D01*
X33438809Y-30004610D01*
X33433500Y-30056428D01*
X33433500Y-30755572D01*
X32427275Y-30755572D01*
X32426270Y-30750069D01*
X32383893Y-30604210D01*
X32377648Y-30589779D01*
X32301089Y-30460322D01*
X32291449Y-30447896D01*
X32185104Y-30341551D01*
X32172678Y-30331911D01*
X32043221Y-30255352D01*
X32028790Y-30249107D01*
X31894395Y-30210061D01*
X31880294Y-30210101D01*
X31877000Y-30217370D01*
X31877000Y-31412885D01*
X31369000Y-31412885D01*
X31369000Y-30223122D01*
X31365027Y-30209591D01*
X31357129Y-30208456D01*
X31217210Y-30249107D01*
X31202779Y-30255352D01*
X31073324Y-30331910D01*
X31065636Y-30337874D01*
X30999551Y-30363821D01*
X30929928Y-30349920D01*
X30913842Y-30339582D01*
X30909807Y-30335547D01*
X30766601Y-30250855D01*
X30758990Y-30248644D01*
X30758988Y-30248643D01*
X30693808Y-30229707D01*
X30606831Y-30204438D01*
X30600426Y-30203934D01*
X30600421Y-30203933D01*
X30571958Y-30201693D01*
X30571950Y-30201693D01*
X30569502Y-30201500D01*
X30136498Y-30201500D01*
X30134050Y-30201693D01*
X30134042Y-30201693D01*
X30105579Y-30203933D01*
X30105574Y-30203934D01*
X30099169Y-30204438D01*
X30012192Y-30229707D01*
X29947012Y-30248643D01*
X29947010Y-30248644D01*
X29939399Y-30250855D01*
X29796193Y-30335547D01*
X29793511Y-30338229D01*
X29729139Y-30363502D01*
X29659516Y-30349600D01*
X29643688Y-30339428D01*
X29639807Y-30335547D01*
X29496601Y-30250855D01*
X29488990Y-30248644D01*
X29488988Y-30248643D01*
X29423808Y-30229707D01*
X29336831Y-30204438D01*
X29330426Y-30203934D01*
X29330421Y-30203933D01*
X29301958Y-30201693D01*
X29301950Y-30201693D01*
X29299502Y-30201500D01*
X28866498Y-30201500D01*
X28864050Y-30201693D01*
X28864042Y-30201693D01*
X28835579Y-30203933D01*
X28835574Y-30203934D01*
X28829169Y-30204438D01*
X28742192Y-30229707D01*
X28677012Y-30248643D01*
X28677010Y-30248644D01*
X28669399Y-30250855D01*
X28526193Y-30335547D01*
X28523511Y-30338229D01*
X28459139Y-30363502D01*
X28389516Y-30349600D01*
X28373688Y-30339428D01*
X28369807Y-30335547D01*
X28226601Y-30250855D01*
X28218990Y-30248644D01*
X28218988Y-30248643D01*
X28153808Y-30229707D01*
X28066831Y-30204438D01*
X28060426Y-30203934D01*
X28060421Y-30203933D01*
X28031958Y-30201693D01*
X28031950Y-30201693D01*
X28029502Y-30201500D01*
X27596498Y-30201500D01*
X27594050Y-30201693D01*
X27594042Y-30201693D01*
X27565579Y-30203933D01*
X27565574Y-30203934D01*
X27559169Y-30204438D01*
X27552997Y-30206231D01*
X27552992Y-30206232D01*
X27518343Y-30216299D01*
X27512055Y-30218126D01*
X27511356Y-30218329D01*
X27440360Y-30218126D01*
X27387108Y-30186427D01*
X27041270Y-29840589D01*
X27028884Y-29826177D01*
X27020351Y-29814582D01*
X27020346Y-29814577D01*
X27016008Y-29808682D01*
X27010430Y-29803943D01*
X27010427Y-29803940D01*
X26975732Y-29774465D01*
X26968216Y-29767535D01*
X26962521Y-29761840D01*
X26954950Y-29755850D01*
X26940249Y-29744219D01*
X26936845Y-29741428D01*
X26886797Y-29698909D01*
X26886795Y-29698908D01*
X26881215Y-29694167D01*
X26874699Y-29690839D01*
X26869650Y-29687472D01*
X26864521Y-29684305D01*
X26858784Y-29679766D01*
X26792625Y-29648845D01*
X26788725Y-29646939D01*
X26783851Y-29644450D01*
X26723692Y-29613731D01*
X26716584Y-29611992D01*
X26710941Y-29609893D01*
X26705178Y-29607976D01*
X26698550Y-29604878D01*
X26627083Y-29590013D01*
X26622799Y-29589043D01*
X26551890Y-29571692D01*
X26546288Y-29571344D01*
X26546285Y-29571344D01*
X26540736Y-29571000D01*
X26540738Y-29570964D01*
X26536745Y-29570725D01*
X26532553Y-29570351D01*
X26525385Y-29568860D01*
X26459175Y-29570651D01*
X26447979Y-29570954D01*
X26444572Y-29571000D01*
X25474200Y-29571000D01*
X25406079Y-29550998D01*
X25385182Y-29534173D01*
X25347009Y-29496066D01*
X25341003Y-29490071D01*
X25334772Y-29486230D01*
X25199150Y-29402631D01*
X25199148Y-29402630D01*
X25192920Y-29398791D01*
X25027809Y-29344026D01*
X25020973Y-29343326D01*
X25020970Y-29343325D01*
X24969474Y-29338049D01*
X24925072Y-29333500D01*
X24350928Y-29333500D01*
X24347682Y-29333837D01*
X24347678Y-29333837D01*
X24253765Y-29343581D01*
X24253761Y-29343582D01*
X24246907Y-29344293D01*
X24240371Y-29346474D01*
X24240369Y-29346474D01*
X24124000Y-29385298D01*
X24081893Y-29399346D01*
X23933969Y-29490884D01*
X23928796Y-29496066D01*
X23816242Y-29608816D01*
X23816238Y-29608821D01*
X23811071Y-29613997D01*
X23807231Y-29620227D01*
X23807230Y-29620228D01*
X23730801Y-29744219D01*
X23719791Y-29762080D01*
X23665026Y-29927191D01*
X23664326Y-29934027D01*
X23664325Y-29934030D01*
X23662513Y-29951716D01*
X23654500Y-30029928D01*
X23654500Y-30629072D01*
X23665293Y-30733093D01*
X23667474Y-30739629D01*
X23667474Y-30739631D01*
X23675250Y-30762939D01*
X23720346Y-30898107D01*
X23811884Y-31046031D01*
X23817066Y-31051204D01*
X23918786Y-31152747D01*
X23952865Y-31215030D01*
X23947862Y-31285850D01*
X23918941Y-31330937D01*
X23816246Y-31433812D01*
X23816242Y-31433817D01*
X23811071Y-31438997D01*
X23807231Y-31445227D01*
X23807230Y-31445228D01*
X23724364Y-31579662D01*
X23719791Y-31587080D01*
X23665026Y-31752191D01*
X23654500Y-31854928D01*
X23654500Y-32454072D01*
X23654837Y-32457318D01*
X23654837Y-32457322D01*
X23657583Y-32483782D01*
X23665293Y-32558093D01*
X23667474Y-32564629D01*
X23667474Y-32564631D01*
X23672240Y-32578916D01*
X23720346Y-32723107D01*
X23811884Y-32871031D01*
X23817066Y-32876204D01*
X23842518Y-32901612D01*
X23876597Y-32963895D01*
X23879500Y-32990785D01*
X23879500Y-33430323D01*
X23859498Y-33498444D01*
X23842681Y-33519332D01*
X23840999Y-33521017D01*
X23778719Y-33555096D01*
X23751826Y-33558000D01*
X22603288Y-33558000D01*
X22535167Y-33537998D01*
X22514271Y-33521173D01*
X22425188Y-33432246D01*
X22425183Y-33432242D01*
X22420003Y-33427071D01*
X22376308Y-33400137D01*
X22278150Y-33339631D01*
X22278148Y-33339630D01*
X22271920Y-33335791D01*
X22106809Y-33281026D01*
X22099973Y-33280326D01*
X22099970Y-33280325D01*
X22044343Y-33274626D01*
X22004072Y-33270500D01*
X21429928Y-33270500D01*
X21426682Y-33270837D01*
X21426678Y-33270837D01*
X21332765Y-33280581D01*
X21332761Y-33280582D01*
X21325907Y-33281293D01*
X21319371Y-33283474D01*
X21319369Y-33283474D01*
X21229778Y-33313364D01*
X21160893Y-33336346D01*
X21012969Y-33427884D01*
X21007796Y-33433066D01*
X20969910Y-33471018D01*
X20907627Y-33505097D01*
X20880737Y-33508000D01*
X19931074Y-33508000D01*
X19862953Y-33487998D01*
X19816460Y-33434342D01*
X19805923Y-33396602D01*
X19805209Y-33390475D01*
X19804778Y-33386121D01*
X19798860Y-33313364D01*
X19796605Y-33306403D01*
X19795418Y-33300463D01*
X19794029Y-33294588D01*
X19793182Y-33287319D01*
X19768264Y-33218670D01*
X19766847Y-33214542D01*
X19746607Y-33152064D01*
X19746606Y-33152062D01*
X19744351Y-33145101D01*
X19740555Y-33138846D01*
X19738049Y-33133372D01*
X19735330Y-33127942D01*
X19732833Y-33121063D01*
X19727690Y-33113219D01*
X19692814Y-33060024D01*
X19690467Y-33056305D01*
X19682032Y-33042404D01*
X19652595Y-32993893D01*
X19645197Y-32985516D01*
X19645224Y-32985492D01*
X19642571Y-32982500D01*
X19639868Y-32979267D01*
X19635856Y-32973148D01*
X19579617Y-32919872D01*
X19577175Y-32917494D01*
X18117405Y-31457724D01*
X18083379Y-31395412D01*
X18080500Y-31368629D01*
X18080500Y-30793498D01*
X18078095Y-30762939D01*
X18078067Y-30762579D01*
X18078066Y-30762574D01*
X18077562Y-30756169D01*
X18048528Y-30656231D01*
X18033357Y-30604012D01*
X18033356Y-30604010D01*
X18031145Y-30596399D01*
X17962307Y-30480000D01*
X17950491Y-30460020D01*
X17950489Y-30460017D01*
X17946453Y-30453193D01*
X17828807Y-30335547D01*
X17819346Y-30329952D01*
X17817702Y-30328191D01*
X17815719Y-30326653D01*
X17815967Y-30326333D01*
X17770895Y-30278061D01*
X17758190Y-30208210D01*
X17785265Y-30142579D01*
X17843525Y-30102005D01*
X17883487Y-30095500D01*
X21141930Y-30095500D01*
X21160880Y-30096933D01*
X21175115Y-30099099D01*
X21175119Y-30099099D01*
X21182349Y-30100199D01*
X21189641Y-30099606D01*
X21189644Y-30099606D01*
X21235018Y-30095915D01*
X21245233Y-30095500D01*
X21253293Y-30095500D01*
X21266583Y-30093951D01*
X21281507Y-30092211D01*
X21285882Y-30091778D01*
X21351339Y-30086454D01*
X21351342Y-30086453D01*
X21358637Y-30085860D01*
X21365601Y-30083604D01*
X21371560Y-30082413D01*
X21377415Y-30081029D01*
X21384681Y-30080182D01*
X21453327Y-30055265D01*
X21457455Y-30053848D01*
X21519936Y-30033607D01*
X21519938Y-30033606D01*
X21526899Y-30031351D01*
X21533154Y-30027555D01*
X21538628Y-30025049D01*
X21544058Y-30022330D01*
X21550937Y-30019833D01*
X21611976Y-29979814D01*
X21615680Y-29977477D01*
X21678107Y-29939595D01*
X21686484Y-29932197D01*
X21686508Y-29932224D01*
X21689500Y-29929571D01*
X21692733Y-29926868D01*
X21698852Y-29922856D01*
X21752128Y-29866617D01*
X21754506Y-29864175D01*
X25126911Y-26491770D01*
X25141323Y-26479384D01*
X25152918Y-26470851D01*
X25152923Y-26470846D01*
X25158818Y-26466508D01*
X25163557Y-26460930D01*
X25163560Y-26460927D01*
X25193035Y-26426232D01*
X25199965Y-26418716D01*
X25205660Y-26413021D01*
X25223281Y-26390749D01*
X25226072Y-26387345D01*
X25268591Y-26337297D01*
X25268592Y-26337295D01*
X25273333Y-26331715D01*
X25276661Y-26325199D01*
X25280028Y-26320150D01*
X25283195Y-26315021D01*
X25287734Y-26309284D01*
X25318655Y-26243125D01*
X25320561Y-26239225D01*
X25333501Y-26213884D01*
X25353769Y-26174192D01*
X25355508Y-26167084D01*
X25357607Y-26161441D01*
X25359524Y-26155678D01*
X25362622Y-26149050D01*
X25377487Y-26077583D01*
X25378457Y-26073299D01*
X25394473Y-26007845D01*
X25395808Y-26002390D01*
X25396500Y-25991236D01*
X25396536Y-25991238D01*
X25396775Y-25987245D01*
X25397149Y-25983053D01*
X25398640Y-25975885D01*
X25396546Y-25898479D01*
X25396500Y-25895072D01*
X25396500Y-25116677D01*
X25416502Y-25048556D01*
X25433321Y-25027666D01*
X25464929Y-24996003D01*
X25520492Y-24905863D01*
X25552369Y-24854150D01*
X25552370Y-24854148D01*
X25556209Y-24847920D01*
X25610974Y-24682809D01*
X25611762Y-24675116D01*
X25621173Y-24583267D01*
X25621173Y-24583260D01*
X25621500Y-24580072D01*
X25621500Y-24578424D01*
X25644853Y-24511680D01*
X25700808Y-24467981D01*
X25771505Y-24461471D01*
X25836337Y-24496018D01*
X26079544Y-24739225D01*
X26113570Y-24801537D01*
X26108505Y-24872352D01*
X26097869Y-24892166D01*
X26098633Y-24892607D01*
X26016012Y-25035711D01*
X26008401Y-25048893D01*
X26001064Y-25071475D01*
X25964850Y-25182932D01*
X25952635Y-25220525D01*
X25951945Y-25227088D01*
X25951945Y-25227089D01*
X25935318Y-25385286D01*
X25933771Y-25400000D01*
X25952635Y-25579475D01*
X25954675Y-25585753D01*
X25954675Y-25585754D01*
X25958632Y-25597931D01*
X26008401Y-25751107D01*
X26018455Y-25768521D01*
X26029361Y-25787411D01*
X26045826Y-25840193D01*
X26046665Y-25850500D01*
X26048140Y-25868637D01*
X26050396Y-25875601D01*
X26051587Y-25881560D01*
X26052971Y-25887415D01*
X26053818Y-25894681D01*
X26078735Y-25963327D01*
X26080152Y-25967455D01*
X26095131Y-26013691D01*
X26102649Y-26036899D01*
X26106445Y-26043154D01*
X26108951Y-26048628D01*
X26111670Y-26054058D01*
X26114167Y-26060937D01*
X26118180Y-26067057D01*
X26118180Y-26067058D01*
X26154186Y-26121976D01*
X26156523Y-26125680D01*
X26194405Y-26188107D01*
X26198121Y-26192315D01*
X26198122Y-26192316D01*
X26201803Y-26196484D01*
X26201776Y-26196508D01*
X26204429Y-26199500D01*
X26207132Y-26202733D01*
X26211144Y-26208852D01*
X26216456Y-26213884D01*
X26267383Y-26262128D01*
X26269825Y-26264506D01*
X26967595Y-26962276D01*
X27001621Y-27024588D01*
X27004500Y-27051371D01*
X27004500Y-27626502D01*
X27007438Y-27663831D01*
X27053855Y-27823601D01*
X27057892Y-27830427D01*
X27134509Y-27959980D01*
X27134511Y-27959983D01*
X27138547Y-27966807D01*
X27256193Y-28084453D01*
X27263017Y-28088489D01*
X27263020Y-28088491D01*
X27337838Y-28132738D01*
X27399399Y-28169145D01*
X27407010Y-28171356D01*
X27407012Y-28171357D01*
X27445192Y-28182449D01*
X27559169Y-28215562D01*
X27565574Y-28216066D01*
X27565579Y-28216067D01*
X27594042Y-28218307D01*
X27594050Y-28218307D01*
X27596498Y-28218500D01*
X28029502Y-28218500D01*
X28031950Y-28218307D01*
X28031958Y-28218307D01*
X28060421Y-28216067D01*
X28060426Y-28216066D01*
X28066831Y-28215562D01*
X28180808Y-28182449D01*
X28218988Y-28171357D01*
X28218990Y-28171356D01*
X28226601Y-28169145D01*
X28369807Y-28084453D01*
X28372489Y-28081771D01*
X28436861Y-28056498D01*
X28506484Y-28070400D01*
X28522312Y-28080572D01*
X28526193Y-28084453D01*
X28669399Y-28169145D01*
X28677010Y-28171356D01*
X28677012Y-28171357D01*
X28715192Y-28182449D01*
X28829169Y-28215562D01*
X28835574Y-28216066D01*
X28835579Y-28216067D01*
X28864042Y-28218307D01*
X28864050Y-28218307D01*
X28866498Y-28218500D01*
X29299502Y-28218500D01*
X29301950Y-28218307D01*
X29301958Y-28218307D01*
X29330421Y-28216067D01*
X29330426Y-28216066D01*
X29336831Y-28215562D01*
X29450808Y-28182449D01*
X29488988Y-28171357D01*
X29488990Y-28171356D01*
X29496601Y-28169145D01*
X29639807Y-28084453D01*
X29642489Y-28081771D01*
X29706861Y-28056498D01*
X29776484Y-28070400D01*
X29792312Y-28080572D01*
X29796193Y-28084453D01*
X29939399Y-28169145D01*
X29947010Y-28171356D01*
X29947012Y-28171357D01*
X29985192Y-28182449D01*
X30099169Y-28215562D01*
X30105574Y-28216066D01*
X30105579Y-28216067D01*
X30134042Y-28218307D01*
X30134050Y-28218307D01*
X30136498Y-28218500D01*
X30569502Y-28218500D01*
X30571950Y-28218307D01*
X30571958Y-28218307D01*
X30600421Y-28216067D01*
X30600426Y-28216066D01*
X30606831Y-28215562D01*
X30720808Y-28182449D01*
X30758988Y-28171357D01*
X30758990Y-28171356D01*
X30766601Y-28169145D01*
X30909807Y-28084453D01*
X30912489Y-28081771D01*
X30976861Y-28056498D01*
X31046484Y-28070400D01*
X31062312Y-28080572D01*
X31066193Y-28084453D01*
X31209399Y-28169145D01*
X31217010Y-28171356D01*
X31217012Y-28171357D01*
X31255192Y-28182449D01*
X31369169Y-28215562D01*
X31375574Y-28216066D01*
X31375579Y-28216067D01*
X31404042Y-28218307D01*
X31404050Y-28218307D01*
X31406498Y-28218500D01*
X31839502Y-28218500D01*
X31841950Y-28218307D01*
X31841958Y-28218307D01*
X31870421Y-28216067D01*
X31870426Y-28216066D01*
X31876831Y-28215562D01*
X31990808Y-28182449D01*
X32028988Y-28171357D01*
X32028990Y-28171356D01*
X32036601Y-28169145D01*
X32098162Y-28132738D01*
X32172980Y-28088491D01*
X32172983Y-28088489D01*
X32179807Y-28084453D01*
X32297453Y-27966807D01*
X32301489Y-27959983D01*
X32301491Y-27959980D01*
X32378108Y-27830427D01*
X32382145Y-27823601D01*
X32427384Y-27667885D01*
X36742000Y-27667885D01*
X36746475Y-27683124D01*
X36747865Y-27684329D01*
X36755548Y-27686000D01*
X37827885Y-27686000D01*
X37843124Y-27681525D01*
X37844329Y-27680135D01*
X37846000Y-27672452D01*
X37846000Y-27667885D01*
X38354000Y-27667885D01*
X38358475Y-27683124D01*
X38359865Y-27684329D01*
X38367548Y-27686000D01*
X39439884Y-27686000D01*
X39455123Y-27681525D01*
X39456328Y-27680135D01*
X39457999Y-27672452D01*
X39457999Y-27045331D01*
X39457629Y-27038510D01*
X39452105Y-26987648D01*
X39448479Y-26972396D01*
X39403324Y-26851946D01*
X39394786Y-26836351D01*
X39318285Y-26734276D01*
X39305724Y-26721715D01*
X39203649Y-26645214D01*
X39188054Y-26636676D01*
X39067606Y-26591522D01*
X39052351Y-26587895D01*
X39001486Y-26582369D01*
X38994672Y-26582000D01*
X38372115Y-26582000D01*
X38356876Y-26586475D01*
X38355671Y-26587865D01*
X38354000Y-26595548D01*
X38354000Y-27667885D01*
X37846000Y-27667885D01*
X37846000Y-26600116D01*
X37841525Y-26584877D01*
X37840135Y-26583672D01*
X37832452Y-26582001D01*
X37205331Y-26582001D01*
X37198510Y-26582371D01*
X37147648Y-26587895D01*
X37132396Y-26591521D01*
X37011946Y-26636676D01*
X36996351Y-26645214D01*
X36894276Y-26721715D01*
X36881715Y-26734276D01*
X36805214Y-26836351D01*
X36796676Y-26851946D01*
X36751522Y-26972394D01*
X36747895Y-26987649D01*
X36742369Y-27038514D01*
X36742000Y-27045328D01*
X36742000Y-27667885D01*
X32427384Y-27667885D01*
X32428562Y-27663831D01*
X32431500Y-27626502D01*
X32431500Y-27619500D01*
X32451502Y-27551379D01*
X32505158Y-27504886D01*
X32557500Y-27493500D01*
X33776930Y-27493500D01*
X33795880Y-27494933D01*
X33810115Y-27497099D01*
X33810119Y-27497099D01*
X33817349Y-27498199D01*
X33824641Y-27497606D01*
X33824644Y-27497606D01*
X33870018Y-27493915D01*
X33880233Y-27493500D01*
X33888293Y-27493500D01*
X33901583Y-27491951D01*
X33916507Y-27490211D01*
X33920882Y-27489778D01*
X33986339Y-27484454D01*
X33986342Y-27484453D01*
X33993637Y-27483860D01*
X34000601Y-27481604D01*
X34006560Y-27480413D01*
X34012415Y-27479029D01*
X34019681Y-27478182D01*
X34088327Y-27453265D01*
X34092455Y-27451848D01*
X34154936Y-27431607D01*
X34154938Y-27431606D01*
X34161899Y-27429351D01*
X34168154Y-27425555D01*
X34173628Y-27423049D01*
X34179058Y-27420330D01*
X34185937Y-27417833D01*
X34192058Y-27413820D01*
X34246976Y-27377814D01*
X34250680Y-27375477D01*
X34313107Y-27337595D01*
X34321484Y-27330197D01*
X34321508Y-27330224D01*
X34324500Y-27327571D01*
X34327733Y-27324868D01*
X34333852Y-27320856D01*
X34387128Y-27264617D01*
X34389506Y-27262175D01*
X36683911Y-24967770D01*
X36698323Y-24955384D01*
X36709918Y-24946851D01*
X36709923Y-24946846D01*
X36715818Y-24942508D01*
X36720557Y-24936930D01*
X36720560Y-24936927D01*
X36750035Y-24902232D01*
X36756965Y-24894716D01*
X36762660Y-24889021D01*
X36773180Y-24875724D01*
X36780281Y-24866749D01*
X36783072Y-24863345D01*
X36825591Y-24813297D01*
X36825592Y-24813295D01*
X36830333Y-24807715D01*
X36833661Y-24801199D01*
X36837028Y-24796150D01*
X36840195Y-24791021D01*
X36844734Y-24785284D01*
X36875655Y-24719125D01*
X36877561Y-24715225D01*
X36882330Y-24705885D01*
X36910769Y-24650192D01*
X36912508Y-24643084D01*
X36914607Y-24637441D01*
X36916524Y-24631678D01*
X36919622Y-24625050D01*
X36934487Y-24553583D01*
X36935457Y-24549299D01*
X36944662Y-24511680D01*
X36952808Y-24478390D01*
X36953500Y-24467236D01*
X36953536Y-24467238D01*
X36953775Y-24463245D01*
X36954149Y-24459053D01*
X36955640Y-24451885D01*
X36953546Y-24374479D01*
X36953500Y-24371072D01*
X36953500Y-18862285D01*
X36973502Y-18794164D01*
X37027158Y-18747671D01*
X37097432Y-18737567D01*
X37159985Y-18765341D01*
X37310043Y-18889921D01*
X37318126Y-18896632D01*
X37511000Y-19009338D01*
X37719692Y-19089030D01*
X37724760Y-19090061D01*
X37724763Y-19090062D01*
X37807240Y-19106842D01*
X37938597Y-19133567D01*
X37943772Y-19133757D01*
X37943774Y-19133757D01*
X38156673Y-19141564D01*
X38156677Y-19141564D01*
X38161837Y-19141753D01*
X38166957Y-19141097D01*
X38166959Y-19141097D01*
X38378288Y-19114025D01*
X38378289Y-19114025D01*
X38383416Y-19113368D01*
X38388366Y-19111883D01*
X38592429Y-19050661D01*
X38592434Y-19050659D01*
X38597384Y-19049174D01*
X38797994Y-18950896D01*
X38979860Y-18821173D01*
X39035888Y-18765341D01*
X39134435Y-18667137D01*
X39138096Y-18663489D01*
X39146496Y-18651800D01*
X39265435Y-18486277D01*
X39268453Y-18482077D01*
X39275452Y-18467917D01*
X39365136Y-18286453D01*
X39365137Y-18286451D01*
X39367430Y-18281811D01*
X39400922Y-18171577D01*
X39430865Y-18073023D01*
X39430865Y-18073021D01*
X39432370Y-18068069D01*
X39461529Y-17846590D01*
X39461854Y-17833302D01*
X39463074Y-17783365D01*
X39463074Y-17783361D01*
X39463156Y-17780000D01*
X39444852Y-17557361D01*
X39390431Y-17340702D01*
X39301354Y-17135840D01*
X39215604Y-17003291D01*
X39182822Y-16952617D01*
X39182820Y-16952614D01*
X39180014Y-16948277D01*
X39029670Y-16783051D01*
X39025619Y-16779852D01*
X39025615Y-16779848D01*
X38858414Y-16647800D01*
X38858410Y-16647798D01*
X38854359Y-16644598D01*
X38813053Y-16621796D01*
X38763084Y-16571364D01*
X38748312Y-16501921D01*
X38773428Y-16435516D01*
X38800780Y-16408909D01*
X38851483Y-16372743D01*
X38979860Y-16281173D01*
X39035888Y-16225341D01*
X39134435Y-16127137D01*
X39138096Y-16123489D01*
X39197594Y-16040689D01*
X39265435Y-15946277D01*
X39268453Y-15942077D01*
X39359860Y-15757129D01*
X39365136Y-15746453D01*
X39365137Y-15746451D01*
X39367430Y-15741811D01*
X39432370Y-15528069D01*
X39461529Y-15306590D01*
X39461611Y-15303240D01*
X39463074Y-15243365D01*
X39463074Y-15243361D01*
X39463156Y-15240000D01*
X39444852Y-15017361D01*
X39390431Y-14800702D01*
X39301354Y-14595840D01*
X39239057Y-14499543D01*
X39182822Y-14412617D01*
X39182820Y-14412614D01*
X39180014Y-14408277D01*
X39176532Y-14404450D01*
X39032798Y-14246488D01*
X39001746Y-14182642D01*
X39010141Y-14112143D01*
X39055317Y-14057375D01*
X39081761Y-14043706D01*
X39188297Y-14003767D01*
X39196705Y-14000615D01*
X39313261Y-13913261D01*
X39400615Y-13796705D01*
X39451745Y-13660316D01*
X39458500Y-13598134D01*
X39458500Y-11801866D01*
X39451745Y-11739684D01*
X39400615Y-11603295D01*
X39313261Y-11486739D01*
X39196705Y-11399385D01*
X39060316Y-11348255D01*
X38998134Y-11341500D01*
X37201866Y-11341500D01*
X37139684Y-11348255D01*
X37123730Y-11354236D01*
X37052923Y-11359419D01*
X36990554Y-11325499D01*
X36956425Y-11263243D01*
X36953500Y-11236254D01*
X36953500Y-9211070D01*
X36954933Y-9192120D01*
X36957099Y-9177885D01*
X36957099Y-9177881D01*
X36958199Y-9170651D01*
X36956680Y-9151967D01*
X36953915Y-9117982D01*
X36953500Y-9107767D01*
X36953500Y-9099707D01*
X36950209Y-9071480D01*
X36949778Y-9067121D01*
X36948858Y-9055812D01*
X36943860Y-8994364D01*
X36941604Y-8987400D01*
X36940417Y-8981461D01*
X36939030Y-8975591D01*
X36938182Y-8968319D01*
X36913264Y-8899670D01*
X36911847Y-8895542D01*
X36891607Y-8833064D01*
X36891606Y-8833062D01*
X36889351Y-8826101D01*
X36885555Y-8819846D01*
X36883049Y-8814372D01*
X36880330Y-8808942D01*
X36877833Y-8802063D01*
X36837814Y-8741024D01*
X36835467Y-8737305D01*
X36797595Y-8674893D01*
X36790197Y-8666516D01*
X36790224Y-8666492D01*
X36787571Y-8663500D01*
X36784868Y-8660267D01*
X36780856Y-8654148D01*
X36724617Y-8600872D01*
X36722175Y-8598494D01*
X35527276Y-7403595D01*
X35493250Y-7341283D01*
X35498315Y-7270468D01*
X35540862Y-7213632D01*
X35607382Y-7188821D01*
X35616371Y-7188500D01*
X35632271Y-7188500D01*
X35634407Y-7188354D01*
X35634418Y-7188354D01*
X35842548Y-7174165D01*
X35842554Y-7174164D01*
X35846825Y-7173873D01*
X35851020Y-7173004D01*
X35851022Y-7173004D01*
X35987584Y-7144723D01*
X36128342Y-7115574D01*
X36399343Y-7019607D01*
X36654812Y-6887750D01*
X36658313Y-6885289D01*
X36658317Y-6885287D01*
X36772417Y-6805096D01*
X36890023Y-6722441D01*
X37100622Y-6526740D01*
X37282713Y-6304268D01*
X37432927Y-6059142D01*
X37548483Y-5795898D01*
X37627244Y-5519406D01*
X37667751Y-5234784D01*
X37667845Y-5216951D01*
X37669235Y-4951583D01*
X37669235Y-4951576D01*
X37669257Y-4947297D01*
X37631732Y-4662266D01*
X37555871Y-4384964D01*
X37527888Y-4319360D01*
X37444763Y-4124476D01*
X37444761Y-4124472D01*
X37443077Y-4120524D01*
X37311285Y-3900315D01*
X37297643Y-3877521D01*
X37297640Y-3877517D01*
X37295439Y-3873839D01*
X37115687Y-3649472D01*
X36907149Y-3451577D01*
X36673683Y-3283814D01*
X36651843Y-3272250D01*
X36628654Y-3259972D01*
X36419608Y-3149288D01*
X36149627Y-3050489D01*
X35868736Y-2989245D01*
X35837685Y-2986801D01*
X35645718Y-2971693D01*
X35645709Y-2971693D01*
X35643261Y-2971500D01*
X35487729Y-2971500D01*
X35485593Y-2971646D01*
X35485582Y-2971646D01*
X35277452Y-2985835D01*
X35277446Y-2985836D01*
X35273175Y-2986127D01*
X35268980Y-2986996D01*
X35268978Y-2986996D01*
X35132417Y-3015276D01*
X34991658Y-3044426D01*
X34720657Y-3140393D01*
X34465188Y-3272250D01*
X34461687Y-3274711D01*
X34461683Y-3274713D01*
X34451594Y-3281804D01*
X34229977Y-3437559D01*
X34019378Y-3633260D01*
X33837287Y-3855732D01*
X33687073Y-4100858D01*
X33571517Y-4364102D01*
X33570342Y-4368229D01*
X33570341Y-4368230D01*
X33550302Y-4438577D01*
X33492756Y-4640594D01*
X33452249Y-4925216D01*
X33452111Y-4951583D01*
X33451729Y-5024520D01*
X33431371Y-5092535D01*
X33377472Y-5138746D01*
X33307147Y-5148482D01*
X33242721Y-5118651D01*
X33236636Y-5112955D01*
X32714770Y-4591089D01*
X32702384Y-4576677D01*
X32693851Y-4565082D01*
X32693846Y-4565077D01*
X32689508Y-4559182D01*
X32683930Y-4554443D01*
X32683927Y-4554440D01*
X32649232Y-4524965D01*
X32641716Y-4518035D01*
X32636021Y-4512340D01*
X32629880Y-4507482D01*
X32613749Y-4494719D01*
X32610345Y-4491928D01*
X32560297Y-4449409D01*
X32560295Y-4449408D01*
X32554715Y-4444667D01*
X32548199Y-4441339D01*
X32543150Y-4437972D01*
X32538021Y-4434805D01*
X32532284Y-4430266D01*
X32466125Y-4399345D01*
X32462225Y-4397439D01*
X32445900Y-4389103D01*
X32397192Y-4364231D01*
X32390084Y-4362492D01*
X32384441Y-4360393D01*
X32378678Y-4358476D01*
X32372050Y-4355378D01*
X32300583Y-4340513D01*
X32296299Y-4339543D01*
X32225390Y-4322192D01*
X32219788Y-4321844D01*
X32219785Y-4321844D01*
X32214236Y-4321500D01*
X32214238Y-4321464D01*
X32210245Y-4321225D01*
X32206053Y-4320851D01*
X32198885Y-4319360D01*
X32132675Y-4321151D01*
X32121479Y-4321454D01*
X32118072Y-4321500D01*
X22845493Y-4321500D01*
X22777372Y-4301498D01*
X22739701Y-4263941D01*
X22712571Y-4222004D01*
X22709764Y-4217665D01*
X22553887Y-4046358D01*
X22549836Y-4043159D01*
X22549832Y-4043155D01*
X22376177Y-3906011D01*
X22376172Y-3906008D01*
X22372123Y-3902810D01*
X22367607Y-3900317D01*
X22367604Y-3900315D01*
X22173879Y-3793373D01*
X22173875Y-3793371D01*
X22169355Y-3790876D01*
X22164486Y-3789152D01*
X22164482Y-3789150D01*
X21955903Y-3715288D01*
X21955899Y-3715287D01*
X21951028Y-3713562D01*
X21945935Y-3712655D01*
X21945932Y-3712654D01*
X21728095Y-3673851D01*
X21728089Y-3673850D01*
X21723006Y-3672945D01*
X21650096Y-3672054D01*
X21496581Y-3670179D01*
X21496579Y-3670179D01*
X21491411Y-3670116D01*
X21262464Y-3705150D01*
X21042314Y-3777106D01*
X21037726Y-3779494D01*
X21037722Y-3779496D01*
X20856491Y-3873839D01*
X20836872Y-3884052D01*
X20832739Y-3887155D01*
X20832736Y-3887157D01*
X20760088Y-3941703D01*
X20651655Y-4023117D01*
X20634170Y-4041414D01*
X20572646Y-4076844D01*
X20501733Y-4073387D01*
X20443947Y-4032141D01*
X20425094Y-3998592D01*
X20403768Y-3941705D01*
X20403767Y-3941703D01*
X20400615Y-3933295D01*
X20313261Y-3816739D01*
X20196705Y-3729385D01*
X20060316Y-3678255D01*
X19998134Y-3671500D01*
X18101866Y-3671500D01*
X18039684Y-3678255D01*
X17903295Y-3729385D01*
X17786739Y-3816739D01*
X17699385Y-3933295D01*
X17648255Y-4069684D01*
X17641500Y-4131866D01*
X17641500Y-6028134D01*
X17648255Y-6090316D01*
X17699385Y-6226705D01*
X17786739Y-6343261D01*
X17903295Y-6430615D01*
X18039684Y-6481745D01*
X18101866Y-6488500D01*
X18165500Y-6488500D01*
X18233621Y-6508502D01*
X18280114Y-6562158D01*
X18291500Y-6614500D01*
X18291500Y-6917930D01*
X18290067Y-6936880D01*
X18286801Y-6958349D01*
X18287394Y-6965641D01*
X18287394Y-6965644D01*
X18291085Y-7011018D01*
X18291500Y-7021233D01*
X18291500Y-7029293D01*
X18291925Y-7032937D01*
X18294789Y-7057507D01*
X18295222Y-7061882D01*
X18299171Y-7110425D01*
X18301140Y-7134637D01*
X18303396Y-7141601D01*
X18304587Y-7147560D01*
X18305971Y-7153415D01*
X18306818Y-7160681D01*
X18331735Y-7229327D01*
X18333152Y-7233455D01*
X18355649Y-7302899D01*
X18359445Y-7309154D01*
X18361951Y-7314628D01*
X18364670Y-7320058D01*
X18367167Y-7326937D01*
X18371180Y-7333057D01*
X18371180Y-7333058D01*
X18407186Y-7387976D01*
X18409523Y-7391680D01*
X18447405Y-7454107D01*
X18451121Y-7458315D01*
X18451122Y-7458316D01*
X18454803Y-7462484D01*
X18454776Y-7462508D01*
X18457429Y-7465500D01*
X18460132Y-7468733D01*
X18464144Y-7474852D01*
X18476521Y-7486577D01*
X18520383Y-7528128D01*
X18522825Y-7530506D01*
X19609230Y-8616911D01*
X19621616Y-8631323D01*
X19630149Y-8642918D01*
X19630154Y-8642923D01*
X19634492Y-8648818D01*
X19640070Y-8653557D01*
X19640073Y-8653560D01*
X19674768Y-8683035D01*
X19682284Y-8689965D01*
X19687979Y-8695660D01*
X19690861Y-8697940D01*
X19710251Y-8713281D01*
X19713655Y-8716072D01*
X19763703Y-8758591D01*
X19769285Y-8763333D01*
X19775801Y-8766661D01*
X19780850Y-8770028D01*
X19785979Y-8773195D01*
X19791716Y-8777734D01*
X19857875Y-8808655D01*
X19861769Y-8810558D01*
X19926808Y-8843769D01*
X19933916Y-8845508D01*
X19939559Y-8847607D01*
X19945323Y-8849525D01*
X19951950Y-8852622D01*
X19959110Y-8854111D01*
X19959118Y-8854114D01*
X19967028Y-8855759D01*
X20029647Y-8889216D01*
X20064238Y-8951216D01*
X20059817Y-9022075D01*
X20017790Y-9079295D01*
X20007668Y-9086263D01*
X19876508Y-9167427D01*
X19865110Y-9176460D01*
X19752637Y-9289129D01*
X19743625Y-9300540D01*
X19660088Y-9436063D01*
X19653944Y-9449241D01*
X19603685Y-9600766D01*
X19600819Y-9614132D01*
X19591328Y-9706770D01*
X19591000Y-9713185D01*
X19591000Y-9737385D01*
X19595475Y-9752624D01*
X19596865Y-9753829D01*
X19604548Y-9755500D01*
X21538885Y-9755500D01*
X21554124Y-9751025D01*
X21555329Y-9749635D01*
X21557000Y-9741952D01*
X21557000Y-9713234D01*
X21556663Y-9706718D01*
X21546925Y-9612868D01*
X21544032Y-9599472D01*
X21493512Y-9448047D01*
X21487347Y-9434885D01*
X21403574Y-9299508D01*
X21394540Y-9288110D01*
X21281871Y-9175637D01*
X21270460Y-9166625D01*
X21194430Y-9119760D01*
X21146937Y-9066988D01*
X21135513Y-8996917D01*
X21163787Y-8931793D01*
X21222781Y-8892293D01*
X21260546Y-8886500D01*
X28352037Y-8886500D01*
X28420158Y-8906502D01*
X28466651Y-8960158D01*
X28476755Y-9030432D01*
X28447261Y-9095012D01*
X28396678Y-9130327D01*
X28349682Y-9148132D01*
X28349679Y-9148133D01*
X28345412Y-9149750D01*
X28109632Y-9280714D01*
X27895227Y-9444343D01*
X27706688Y-9637208D01*
X27547966Y-9855270D01*
X27545844Y-9859304D01*
X27424510Y-10089921D01*
X27424507Y-10089927D01*
X27422385Y-10093961D01*
X27420865Y-10098266D01*
X27420863Y-10098270D01*
X27357730Y-10277048D01*
X27332575Y-10348280D01*
X27331692Y-10352762D01*
X27286325Y-10582937D01*
X27280419Y-10612900D01*
X27280192Y-10617453D01*
X27280192Y-10617456D01*
X27269477Y-10832709D01*
X27267009Y-10882277D01*
X27292625Y-11150769D01*
X27293710Y-11155203D01*
X27293711Y-11155209D01*
X27340949Y-11348255D01*
X27356731Y-11412750D01*
X27457985Y-11662733D01*
X27594265Y-11895482D01*
X27693352Y-12019384D01*
X27714686Y-12046060D01*
X27762716Y-12106119D01*
X27959809Y-12290234D01*
X28181416Y-12443968D01*
X28185499Y-12445999D01*
X28185502Y-12446001D01*
X28301013Y-12503466D01*
X28422894Y-12564101D01*
X28427228Y-12565522D01*
X28427231Y-12565523D01*
X28674853Y-12646698D01*
X28674859Y-12646699D01*
X28679186Y-12648118D01*
X28683677Y-12648898D01*
X28683678Y-12648898D01*
X28941140Y-12693601D01*
X28941148Y-12693602D01*
X28944921Y-12694257D01*
X28948758Y-12694448D01*
X29028578Y-12698422D01*
X29028586Y-12698422D01*
X29030149Y-12698500D01*
X31898512Y-12698500D01*
X31900780Y-12698335D01*
X31900792Y-12698335D01*
X32031884Y-12688823D01*
X32099004Y-12683953D01*
X32103459Y-12682969D01*
X32103462Y-12682969D01*
X32357912Y-12626791D01*
X32357916Y-12626790D01*
X32362372Y-12625806D01*
X32488480Y-12578028D01*
X32610318Y-12531868D01*
X32610321Y-12531867D01*
X32614588Y-12530250D01*
X32850368Y-12399286D01*
X33064773Y-12235657D01*
X33253312Y-12042792D01*
X33255999Y-12039101D01*
X33256006Y-12039093D01*
X33303629Y-11973665D01*
X33359889Y-11930360D01*
X33430630Y-11924346D01*
X33493393Y-11957533D01*
X33528250Y-12019384D01*
X33531500Y-12047815D01*
X33531500Y-18432500D01*
X33511498Y-18500621D01*
X33457842Y-18547114D01*
X33387568Y-18557218D01*
X33322988Y-18527724D01*
X33307097Y-18511195D01*
X33200136Y-18377447D01*
X33200135Y-18377445D01*
X33197284Y-18373881D01*
X33000191Y-18189766D01*
X32778584Y-18036032D01*
X32774501Y-18034001D01*
X32774498Y-18033999D01*
X32609606Y-17951967D01*
X32537106Y-17915899D01*
X32532772Y-17914478D01*
X32532769Y-17914477D01*
X32285147Y-17833302D01*
X32285141Y-17833301D01*
X32280814Y-17831882D01*
X32276322Y-17831102D01*
X32018860Y-17786399D01*
X32018852Y-17786398D01*
X32015079Y-17785743D01*
X32003817Y-17785182D01*
X31931422Y-17781578D01*
X31931414Y-17781578D01*
X31929851Y-17781500D01*
X29061488Y-17781500D01*
X29059220Y-17781665D01*
X29059208Y-17781665D01*
X28928116Y-17791177D01*
X28860996Y-17796047D01*
X28856541Y-17797031D01*
X28856538Y-17797031D01*
X28602088Y-17853209D01*
X28602084Y-17853210D01*
X28597628Y-17854194D01*
X28471520Y-17901972D01*
X28349682Y-17948132D01*
X28349679Y-17948133D01*
X28345412Y-17949750D01*
X28109632Y-18080714D01*
X27895227Y-18244343D01*
X27892034Y-18247609D01*
X27892032Y-18247611D01*
X27849128Y-18291500D01*
X27706688Y-18437208D01*
X27547966Y-18655270D01*
X27533046Y-18683629D01*
X27424510Y-18889921D01*
X27424507Y-18889927D01*
X27422385Y-18893961D01*
X27420865Y-18898266D01*
X27420863Y-18898270D01*
X27337888Y-19133236D01*
X27332575Y-19148280D01*
X27326792Y-19177621D01*
X27286280Y-19383166D01*
X27280419Y-19412900D01*
X27280192Y-19417453D01*
X27280192Y-19417456D01*
X27269424Y-19633770D01*
X27267009Y-19682277D01*
X27292625Y-19950769D01*
X27293710Y-19955203D01*
X27293711Y-19955209D01*
X27347979Y-20176984D01*
X27356731Y-20212750D01*
X27457985Y-20462733D01*
X27594265Y-20695482D01*
X27632838Y-20743715D01*
X27755447Y-20897029D01*
X27762716Y-20906119D01*
X27959809Y-21090234D01*
X28181416Y-21243968D01*
X28185499Y-21245999D01*
X28185502Y-21246001D01*
X28297189Y-21301564D01*
X28422894Y-21364101D01*
X28427228Y-21365522D01*
X28427231Y-21365523D01*
X28674853Y-21446698D01*
X28674859Y-21446699D01*
X28679186Y-21448118D01*
X28683677Y-21448898D01*
X28683678Y-21448898D01*
X28941140Y-21493601D01*
X28941148Y-21493602D01*
X28944921Y-21494257D01*
X28948758Y-21494448D01*
X29028578Y-21498422D01*
X29028586Y-21498422D01*
X29030149Y-21498500D01*
X29463331Y-21498500D01*
X29531452Y-21518502D01*
X29577945Y-21572158D01*
X29588049Y-21642432D01*
X29558555Y-21707012D01*
X29552507Y-21713514D01*
X29526071Y-21739997D01*
X29522231Y-21746227D01*
X29522230Y-21746228D01*
X29439364Y-21880662D01*
X29434791Y-21888080D01*
X29380026Y-22053191D01*
X29379326Y-22060027D01*
X29379325Y-22060030D01*
X29376003Y-22092455D01*
X29369500Y-22155928D01*
X29369500Y-22755072D01*
X29369837Y-22758318D01*
X29369837Y-22758322D01*
X29379537Y-22851806D01*
X29380293Y-22859093D01*
X29382474Y-22865629D01*
X29382474Y-22865631D01*
X29415837Y-22965631D01*
X29435346Y-23024107D01*
X29526884Y-23172031D01*
X29532066Y-23177204D01*
X29633786Y-23278747D01*
X29667865Y-23341030D01*
X29662862Y-23411850D01*
X29633941Y-23456937D01*
X29531246Y-23559812D01*
X29531242Y-23559817D01*
X29526071Y-23564997D01*
X29522231Y-23571227D01*
X29522230Y-23571228D01*
X29439364Y-23705662D01*
X29434791Y-23713080D01*
X29380026Y-23878191D01*
X29369500Y-23980928D01*
X29369500Y-24580072D01*
X29369837Y-24583318D01*
X29369837Y-24583322D01*
X29379362Y-24675116D01*
X29380293Y-24684093D01*
X29382474Y-24690631D01*
X29382476Y-24690638D01*
X29384012Y-24695243D01*
X29386596Y-24766193D01*
X29350411Y-24827276D01*
X29286946Y-24859099D01*
X29216351Y-24851559D01*
X29175393Y-24824212D01*
X28579405Y-24228224D01*
X28545379Y-24165912D01*
X28542500Y-24139129D01*
X28542500Y-23980928D01*
X28532550Y-23885030D01*
X28532419Y-23883765D01*
X28532418Y-23883761D01*
X28531707Y-23876907D01*
X28511617Y-23816688D01*
X28478972Y-23718841D01*
X28476654Y-23711893D01*
X28385116Y-23563969D01*
X28340167Y-23519098D01*
X28278214Y-23457253D01*
X28244135Y-23394970D01*
X28249138Y-23324150D01*
X28278059Y-23279063D01*
X28380754Y-23176188D01*
X28380758Y-23176183D01*
X28385929Y-23171003D01*
X28409533Y-23132710D01*
X28473369Y-23029150D01*
X28473370Y-23029148D01*
X28477209Y-23022920D01*
X28531974Y-22857809D01*
X28542500Y-22755072D01*
X28542500Y-22155928D01*
X28538373Y-22116148D01*
X28532419Y-22058765D01*
X28532418Y-22058761D01*
X28531707Y-22051907D01*
X28526563Y-22036487D01*
X28478972Y-21893841D01*
X28476654Y-21886893D01*
X28385116Y-21738969D01*
X28361513Y-21715407D01*
X28267184Y-21621242D01*
X28267179Y-21621238D01*
X28262003Y-21616071D01*
X28222023Y-21591427D01*
X28120150Y-21528631D01*
X28120148Y-21528630D01*
X28113920Y-21524791D01*
X27948809Y-21470026D01*
X27941973Y-21469326D01*
X27941970Y-21469325D01*
X27890474Y-21464049D01*
X27846072Y-21459500D01*
X27531539Y-21459500D01*
X27463418Y-21439498D01*
X27416925Y-21385842D01*
X27406181Y-21336453D01*
X27406229Y-21336000D01*
X27392093Y-21201504D01*
X27388055Y-21163089D01*
X27388055Y-21163088D01*
X27387365Y-21156525D01*
X27331599Y-20984893D01*
X27241367Y-20828607D01*
X27193332Y-20775258D01*
X27125035Y-20699407D01*
X27125034Y-20699406D01*
X27120613Y-20694496D01*
X27102166Y-20681093D01*
X26979957Y-20592303D01*
X26979956Y-20592302D01*
X26974615Y-20588422D01*
X26968587Y-20585738D01*
X26968585Y-20585737D01*
X26815783Y-20517705D01*
X26815781Y-20517705D01*
X26809752Y-20515020D01*
X26721492Y-20496260D01*
X26639689Y-20478872D01*
X26639685Y-20478872D01*
X26633232Y-20477500D01*
X26452768Y-20477500D01*
X26446315Y-20478872D01*
X26446311Y-20478872D01*
X26364508Y-20496260D01*
X26276248Y-20515020D01*
X26270219Y-20517704D01*
X26270217Y-20517705D01*
X26117416Y-20585737D01*
X26117414Y-20585738D01*
X26111386Y-20588422D01*
X26106045Y-20592302D01*
X26106044Y-20592303D01*
X25970731Y-20690613D01*
X25970729Y-20690615D01*
X25965387Y-20694496D01*
X25960966Y-20699406D01*
X25960965Y-20699407D01*
X25892669Y-20775258D01*
X25844633Y-20828607D01*
X25754401Y-20984893D01*
X25698635Y-21156525D01*
X25697945Y-21163088D01*
X25697945Y-21163089D01*
X25693907Y-21201504D01*
X25679771Y-21336000D01*
X25680461Y-21342565D01*
X25694086Y-21472191D01*
X25698635Y-21515475D01*
X25700675Y-21521753D01*
X25700675Y-21521754D01*
X25703686Y-21531020D01*
X25754401Y-21687107D01*
X25757704Y-21692829D01*
X25757705Y-21692830D01*
X25844633Y-21843393D01*
X25842292Y-21844744D01*
X25862114Y-21900328D01*
X25846022Y-21969477D01*
X25844703Y-21971529D01*
X25844633Y-21971607D01*
X25819416Y-22015284D01*
X25768035Y-22064276D01*
X25698322Y-22077713D01*
X25632411Y-22051326D01*
X25590775Y-21992160D01*
X25557974Y-21893846D01*
X25557972Y-21893841D01*
X25555654Y-21886893D01*
X25464116Y-21738969D01*
X25440513Y-21715407D01*
X25346184Y-21621242D01*
X25346179Y-21621238D01*
X25341003Y-21616071D01*
X25301023Y-21591427D01*
X25199150Y-21528631D01*
X25199148Y-21528630D01*
X25192920Y-21524791D01*
X25027809Y-21470026D01*
X25020969Y-21469325D01*
X25014238Y-21467882D01*
X25014786Y-21465325D01*
X24960066Y-21442992D01*
X24919273Y-21384885D01*
X24916371Y-21313948D01*
X24918784Y-21305538D01*
X24972325Y-21140754D01*
X24972325Y-21140753D01*
X24974365Y-21134475D01*
X24993229Y-20955000D01*
X24974365Y-20775525D01*
X24976904Y-20775258D01*
X24981434Y-20715898D01*
X25024251Y-20659265D01*
X25060447Y-20640624D01*
X25082899Y-20633351D01*
X25089155Y-20629555D01*
X25094628Y-20627049D01*
X25100058Y-20624330D01*
X25106937Y-20621833D01*
X25134300Y-20603893D01*
X25167976Y-20581814D01*
X25171680Y-20579477D01*
X25234107Y-20541595D01*
X25242484Y-20534197D01*
X25242508Y-20534224D01*
X25245500Y-20531571D01*
X25248733Y-20528868D01*
X25254852Y-20524856D01*
X25308128Y-20468617D01*
X25310506Y-20466175D01*
X26142911Y-19633770D01*
X26157323Y-19621384D01*
X26168918Y-19612851D01*
X26168923Y-19612846D01*
X26174818Y-19608508D01*
X26179557Y-19602930D01*
X26179560Y-19602927D01*
X26209035Y-19568232D01*
X26215965Y-19560716D01*
X26221660Y-19555021D01*
X26229070Y-19545655D01*
X26239281Y-19532749D01*
X26242072Y-19529345D01*
X26284591Y-19479297D01*
X26284592Y-19479295D01*
X26289333Y-19473715D01*
X26292661Y-19467199D01*
X26296028Y-19462150D01*
X26299195Y-19457021D01*
X26303734Y-19451284D01*
X26334655Y-19385125D01*
X26336561Y-19381225D01*
X26369769Y-19316192D01*
X26371508Y-19309083D01*
X26373604Y-19303449D01*
X26375523Y-19297679D01*
X26378622Y-19291050D01*
X26380844Y-19280371D01*
X26393490Y-19219571D01*
X26394461Y-19215282D01*
X26402972Y-19180500D01*
X26411808Y-19144390D01*
X26412500Y-19133236D01*
X26412535Y-19133238D01*
X26412775Y-19129266D01*
X26413152Y-19125045D01*
X26414641Y-19117885D01*
X26412546Y-19040458D01*
X26412500Y-19037050D01*
X26412500Y-17366000D01*
X26432502Y-17297879D01*
X26486158Y-17251386D01*
X26538500Y-17240000D01*
X27180000Y-17240000D01*
X27180000Y-13240000D01*
X26180000Y-13240000D01*
X26180000Y-15278129D01*
X26159998Y-15346250D01*
X26106342Y-15392743D01*
X26036068Y-15402847D01*
X25971488Y-15373353D01*
X25964905Y-15367224D01*
X25348770Y-14751089D01*
X25336384Y-14736677D01*
X25327851Y-14725082D01*
X25327846Y-14725077D01*
X25323508Y-14719182D01*
X25317930Y-14714443D01*
X25317927Y-14714440D01*
X25283232Y-14684965D01*
X25275716Y-14678035D01*
X25270021Y-14672340D01*
X25263880Y-14667482D01*
X25247749Y-14654719D01*
X25244345Y-14651928D01*
X25194297Y-14609409D01*
X25194295Y-14609408D01*
X25188715Y-14604667D01*
X25182199Y-14601339D01*
X25177150Y-14597972D01*
X25172021Y-14594805D01*
X25166284Y-14590266D01*
X25100125Y-14559345D01*
X25096225Y-14557439D01*
X25031192Y-14524231D01*
X25024084Y-14522492D01*
X25018441Y-14520393D01*
X25012678Y-14518476D01*
X25006050Y-14515378D01*
X24979541Y-14509864D01*
X24934588Y-14500514D01*
X24930299Y-14499543D01*
X24859390Y-14482192D01*
X24853788Y-14481844D01*
X24853785Y-14481844D01*
X24848236Y-14481500D01*
X24848238Y-14481464D01*
X24844245Y-14481225D01*
X24840053Y-14480851D01*
X24832885Y-14479360D01*
X24766675Y-14481151D01*
X24755479Y-14481454D01*
X24752072Y-14481500D01*
X24735493Y-14481500D01*
X24667372Y-14461498D01*
X24629701Y-14423941D01*
X24622376Y-14412617D01*
X24599764Y-14377665D01*
X24536986Y-14308672D01*
X24505936Y-14244829D01*
X24514331Y-14174330D01*
X24559507Y-14119562D01*
X24585952Y-14105893D01*
X24618295Y-14093768D01*
X24618296Y-14093767D01*
X24626705Y-14090615D01*
X24743261Y-14003261D01*
X24830615Y-13886705D01*
X24881745Y-13750316D01*
X24888500Y-13688134D01*
X24888500Y-11791866D01*
X24881745Y-11729684D01*
X24830615Y-11593295D01*
X24743261Y-11476739D01*
X24626705Y-11389385D01*
X24490316Y-11338255D01*
X24428134Y-11331500D01*
X22531866Y-11331500D01*
X22469684Y-11338255D01*
X22333295Y-11389385D01*
X22216739Y-11476739D01*
X22129385Y-11593295D01*
X22078255Y-11729684D01*
X22071500Y-11791866D01*
X22071500Y-11855500D01*
X22051498Y-11923621D01*
X21997842Y-11970114D01*
X21945500Y-11981500D01*
X21845871Y-11981500D01*
X21777750Y-11961498D01*
X21756776Y-11944595D01*
X21594405Y-11782224D01*
X21560379Y-11719912D01*
X21557500Y-11693129D01*
X21557500Y-11534928D01*
X21552500Y-11486739D01*
X21547419Y-11437765D01*
X21547418Y-11437761D01*
X21546707Y-11430907D01*
X21540650Y-11412750D01*
X21493972Y-11272841D01*
X21491654Y-11265893D01*
X21400116Y-11117969D01*
X21292859Y-11010899D01*
X21258780Y-10948618D01*
X21263783Y-10877798D01*
X21292704Y-10832709D01*
X21395363Y-10729871D01*
X21404375Y-10718460D01*
X21487912Y-10582937D01*
X21494056Y-10569759D01*
X21544315Y-10418234D01*
X21547181Y-10404868D01*
X21556672Y-10312230D01*
X21557000Y-10305815D01*
X21557000Y-10281615D01*
X21552525Y-10266376D01*
X21551135Y-10265171D01*
X21543452Y-10263500D01*
X19609115Y-10263500D01*
X19593876Y-10267975D01*
X19592671Y-10269365D01*
X19591000Y-10277048D01*
X19591000Y-10305766D01*
X19591337Y-10312282D01*
X19601075Y-10406132D01*
X19603968Y-10419528D01*
X19654488Y-10570953D01*
X19660653Y-10584115D01*
X19744426Y-10719492D01*
X19753460Y-10730890D01*
X19855140Y-10832393D01*
X19889219Y-10894676D01*
X19884216Y-10965496D01*
X19855296Y-11010583D01*
X19747071Y-11118997D01*
X19743231Y-11125227D01*
X19743230Y-11125228D01*
X19660364Y-11259662D01*
X19655791Y-11267080D01*
X19601026Y-11432191D01*
X19590500Y-11534928D01*
X19590500Y-12134072D01*
X19601293Y-12238093D01*
X19603474Y-12244629D01*
X19603474Y-12244631D01*
X19619557Y-12292838D01*
X19656346Y-12403107D01*
X19747884Y-12551031D01*
X19753066Y-12556204D01*
X19865816Y-12668758D01*
X19865821Y-12668762D01*
X19870997Y-12673929D01*
X19877227Y-12677769D01*
X19877228Y-12677770D01*
X19910591Y-12698335D01*
X20019080Y-12765209D01*
X20184191Y-12819974D01*
X20191025Y-12820674D01*
X20191029Y-12820675D01*
X20269046Y-12828668D01*
X20334773Y-12855509D01*
X20375555Y-12913624D01*
X20378443Y-12984562D01*
X20342521Y-13045800D01*
X20279194Y-13077897D01*
X20269211Y-13079338D01*
X20238679Y-13082506D01*
X20189766Y-13087581D01*
X20189763Y-13087582D01*
X20182907Y-13088293D01*
X20176371Y-13090474D01*
X20176369Y-13090474D01*
X20043605Y-13134768D01*
X20017893Y-13143346D01*
X19884415Y-13225945D01*
X19815965Y-13244781D01*
X19791921Y-13242046D01*
X19781699Y-13239873D01*
X19781684Y-13239871D01*
X19775232Y-13238500D01*
X19594768Y-13238500D01*
X19588315Y-13239872D01*
X19588311Y-13239872D01*
X19506508Y-13257260D01*
X19418248Y-13276020D01*
X19412219Y-13278704D01*
X19412217Y-13278705D01*
X19259416Y-13346737D01*
X19259414Y-13346738D01*
X19253386Y-13349422D01*
X19248045Y-13353302D01*
X19248044Y-13353303D01*
X19112731Y-13451613D01*
X19112729Y-13451615D01*
X19107387Y-13455496D01*
X19102966Y-13460406D01*
X19102965Y-13460407D01*
X19016552Y-13556379D01*
X18986633Y-13589607D01*
X18896401Y-13745893D01*
X18840635Y-13917525D01*
X18821771Y-14097000D01*
X18822461Y-14103565D01*
X18830773Y-14182642D01*
X18840635Y-14276475D01*
X18842675Y-14282753D01*
X18842675Y-14282754D01*
X18863493Y-14346827D01*
X18896401Y-14448107D01*
X18899704Y-14453829D01*
X18899705Y-14453830D01*
X18915879Y-14481844D01*
X18986633Y-14604393D01*
X18991051Y-14609300D01*
X18991052Y-14609301D01*
X19056201Y-14681656D01*
X19107387Y-14738504D01*
X19112729Y-14742385D01*
X19112731Y-14742387D01*
X19248043Y-14840697D01*
X19253385Y-14844578D01*
X19259413Y-14847262D01*
X19259415Y-14847263D01*
X19405077Y-14912116D01*
X19418248Y-14917980D01*
X19506508Y-14936740D01*
X19588311Y-14954128D01*
X19588315Y-14954128D01*
X19594768Y-14955500D01*
X19670355Y-14955500D01*
X19738476Y-14975502D01*
X19784969Y-15029158D01*
X19795073Y-15099432D01*
X19765579Y-15164012D01*
X19759529Y-15170517D01*
X19747071Y-15182997D01*
X19743231Y-15189227D01*
X19743230Y-15189228D01*
X19660364Y-15323662D01*
X19655791Y-15331080D01*
X19601026Y-15496191D01*
X19600326Y-15503027D01*
X19600325Y-15503030D01*
X19597760Y-15528069D01*
X19590500Y-15598928D01*
X19590500Y-16198072D01*
X19590837Y-16201318D01*
X19590837Y-16201322D01*
X19595866Y-16249784D01*
X19601293Y-16302093D01*
X19603474Y-16308629D01*
X19603474Y-16308631D01*
X19645806Y-16435516D01*
X19656346Y-16467107D01*
X19747884Y-16615031D01*
X19753066Y-16620204D01*
X19865816Y-16732758D01*
X19865821Y-16732762D01*
X19870997Y-16737929D01*
X19877227Y-16741769D01*
X19877228Y-16741770D01*
X20001076Y-16818111D01*
X20019080Y-16829209D01*
X20184191Y-16883974D01*
X20191025Y-16884674D01*
X20191029Y-16884675D01*
X20269046Y-16892668D01*
X20334773Y-16919509D01*
X20375555Y-16977624D01*
X20378443Y-17048562D01*
X20342521Y-17109800D01*
X20279194Y-17141897D01*
X20269211Y-17143338D01*
X20238679Y-17146506D01*
X20189766Y-17151581D01*
X20189763Y-17151582D01*
X20182907Y-17152293D01*
X20176371Y-17154474D01*
X20176369Y-17154474D01*
X20043605Y-17198768D01*
X20017893Y-17207346D01*
X19869969Y-17298884D01*
X19864796Y-17304066D01*
X19752242Y-17416816D01*
X19752238Y-17416821D01*
X19747071Y-17421997D01*
X19655791Y-17570080D01*
X19601026Y-17735191D01*
X19590500Y-17837928D01*
X19590500Y-18165500D01*
X19570498Y-18233621D01*
X19516842Y-18280114D01*
X19464500Y-18291500D01*
X18781371Y-18291500D01*
X18713250Y-18271498D01*
X18692276Y-18254595D01*
X17892776Y-17455095D01*
X17858750Y-17392783D01*
X17863815Y-17321968D01*
X17906362Y-17265132D01*
X17972882Y-17240321D01*
X17981871Y-17240000D01*
X18000000Y-17240000D01*
X18000000Y-13240000D01*
X17000000Y-13240000D01*
X17000000Y-16258129D01*
X16979998Y-16326250D01*
X16926342Y-16372743D01*
X16856068Y-16382847D01*
X16791488Y-16353353D01*
X16784905Y-16347224D01*
X13351276Y-12913595D01*
X13317250Y-12851283D01*
X13322315Y-12780468D01*
X13364862Y-12723632D01*
X13431382Y-12698821D01*
X13440371Y-12698500D01*
X14118512Y-12698500D01*
X14120780Y-12698335D01*
X14120792Y-12698335D01*
X14251884Y-12688823D01*
X14319004Y-12683953D01*
X14323459Y-12682969D01*
X14323462Y-12682969D01*
X14577912Y-12626791D01*
X14577916Y-12626790D01*
X14582372Y-12625806D01*
X14708480Y-12578028D01*
X14830318Y-12531868D01*
X14830321Y-12531867D01*
X14834588Y-12530250D01*
X15070368Y-12399286D01*
X15284773Y-12235657D01*
X15473312Y-12042792D01*
X15632034Y-11824730D01*
X15687181Y-11719912D01*
X15755490Y-11590079D01*
X15755493Y-11590073D01*
X15757615Y-11586039D01*
X15775665Y-11534928D01*
X15845902Y-11336033D01*
X15845902Y-11336032D01*
X15847425Y-11331720D01*
X15888124Y-11125228D01*
X15898700Y-11071572D01*
X15898701Y-11071566D01*
X15899581Y-11067100D01*
X15902379Y-11010901D01*
X15912764Y-10802292D01*
X15912764Y-10802286D01*
X15912991Y-10797723D01*
X15887375Y-10529231D01*
X15860215Y-10418234D01*
X15824355Y-10271688D01*
X15823269Y-10267250D01*
X15722015Y-10017267D01*
X15616195Y-9836540D01*
X15588045Y-9788463D01*
X15588044Y-9788462D01*
X15585735Y-9784518D01*
X15467491Y-9636662D01*
X15420136Y-9577447D01*
X15420135Y-9577445D01*
X15417284Y-9573881D01*
X15220191Y-9389766D01*
X14998584Y-9236032D01*
X14994501Y-9234001D01*
X14994498Y-9233999D01*
X14829606Y-9151967D01*
X14757106Y-9115899D01*
X14752772Y-9114478D01*
X14752769Y-9114477D01*
X14505147Y-9033302D01*
X14505141Y-9033301D01*
X14500814Y-9031882D01*
X14492463Y-9030432D01*
X14238860Y-8986399D01*
X14238852Y-8986398D01*
X14235079Y-8985743D01*
X14223817Y-8985182D01*
X14151422Y-8981578D01*
X14151414Y-8981578D01*
X14149851Y-8981500D01*
X11281488Y-8981500D01*
X11279220Y-8981665D01*
X11279208Y-8981665D01*
X11148116Y-8991177D01*
X11080996Y-8996047D01*
X11076541Y-8997031D01*
X11076538Y-8997031D01*
X10822088Y-9053209D01*
X10822084Y-9053210D01*
X10817628Y-9054194D01*
X10751375Y-9079295D01*
X10569682Y-9148132D01*
X10569679Y-9148133D01*
X10565412Y-9149750D01*
X10329632Y-9280714D01*
X10115227Y-9444343D01*
X9926688Y-9637208D01*
X9767966Y-9855270D01*
X9765844Y-9859304D01*
X9644510Y-10089921D01*
X9644507Y-10089927D01*
X9642385Y-10093961D01*
X9640865Y-10098266D01*
X9640863Y-10098270D01*
X9577730Y-10277048D01*
X9552575Y-10348280D01*
X9551692Y-10352762D01*
X9506325Y-10582937D01*
X9500419Y-10612900D01*
X9500192Y-10617453D01*
X9500192Y-10617456D01*
X9489477Y-10832709D01*
X9487009Y-10882277D01*
X9512625Y-11150769D01*
X9513710Y-11155203D01*
X9513711Y-11155209D01*
X9560949Y-11348255D01*
X9576731Y-11412750D01*
X9677985Y-11662733D01*
X9680294Y-11666676D01*
X9753577Y-11791835D01*
X9770737Y-11860727D01*
X9747926Y-11927959D01*
X9692388Y-11972186D01*
X9644845Y-11981500D01*
X7234500Y-11981500D01*
X7166379Y-11961498D01*
X7119886Y-11907842D01*
X7108500Y-11855500D01*
X7108500Y-11791866D01*
X7101745Y-11729684D01*
X7050615Y-11593295D01*
X6963261Y-11476739D01*
X6846705Y-11389385D01*
X6710316Y-11338255D01*
X6648134Y-11331500D01*
X4751866Y-11331500D01*
X4689684Y-11338255D01*
X4553295Y-11389385D01*
X4436739Y-11476739D01*
X4349385Y-11593295D01*
X4298255Y-11729684D01*
X4291500Y-11791866D01*
X4291500Y-11855500D01*
X4271498Y-11923621D01*
X4217842Y-11970114D01*
X4165500Y-11981500D01*
X4024500Y-11981500D01*
X3956379Y-11961498D01*
X3909886Y-11907842D01*
X3898500Y-11855500D01*
X3898500Y-11801866D01*
X3891745Y-11739684D01*
X3840615Y-11603295D01*
X3753261Y-11486739D01*
X3636705Y-11399385D01*
X3500316Y-11348255D01*
X3438134Y-11341500D01*
X1641866Y-11341500D01*
X1579684Y-11348255D01*
X1443295Y-11399385D01*
X1326739Y-11486739D01*
X1239385Y-11603295D01*
X1188255Y-11739684D01*
X1181500Y-11801866D01*
X1181500Y-13598134D01*
X1188255Y-13660316D01*
X1239385Y-13796705D01*
X1326739Y-13913261D01*
X1443295Y-14000615D01*
X1451704Y-14003767D01*
X1451705Y-14003768D01*
X1560451Y-14044535D01*
X1617216Y-14087176D01*
X1641916Y-14153738D01*
X1626709Y-14223087D01*
X1607316Y-14249568D01*
X1484904Y-14377665D01*
X1480629Y-14382138D01*
X1354743Y-14566680D01*
X1337110Y-14604667D01*
X1269144Y-14751089D01*
X1260688Y-14769305D01*
X1200989Y-14984570D01*
X1177251Y-15206695D01*
X1177548Y-15211848D01*
X1177548Y-15211851D01*
X1186507Y-15367224D01*
X1190110Y-15429715D01*
X1191247Y-15434761D01*
X1191248Y-15434767D01*
X1204802Y-15494907D01*
X1239222Y-15647639D01*
X1323266Y-15854616D01*
X1439987Y-16045088D01*
X1586250Y-16213938D01*
X1758126Y-16356632D01*
X1785697Y-16372743D01*
X1831445Y-16399476D01*
X1880169Y-16451114D01*
X1893240Y-16520897D01*
X1866509Y-16586669D01*
X1826055Y-16620027D01*
X1813607Y-16626507D01*
X1809474Y-16629610D01*
X1809471Y-16629612D01*
X1639100Y-16757530D01*
X1634965Y-16760635D01*
X1631393Y-16764373D01*
X1494076Y-16908067D01*
X1480629Y-16922138D01*
X1354743Y-17106680D01*
X1339003Y-17140590D01*
X1265992Y-17297879D01*
X1260688Y-17309305D01*
X1200989Y-17524570D01*
X1177251Y-17746695D01*
X1177548Y-17751848D01*
X1177548Y-17751851D01*
X1188866Y-17948132D01*
X1190110Y-17969715D01*
X1191247Y-17974761D01*
X1191248Y-17974767D01*
X1209930Y-18057661D01*
X1239222Y-18187639D01*
X1323266Y-18394616D01*
X1325965Y-18399020D01*
X1436025Y-18578622D01*
X1439987Y-18585088D01*
X1586250Y-18753938D01*
X1735985Y-18878250D01*
X1775620Y-18937152D01*
X1781500Y-18975194D01*
X1781500Y-21776930D01*
X1780067Y-21795880D01*
X1776801Y-21817349D01*
X1777394Y-21824641D01*
X1777394Y-21824644D01*
X1781085Y-21870018D01*
X1781500Y-21880233D01*
X1781500Y-21888293D01*
X1782285Y-21895027D01*
X1784789Y-21916507D01*
X1785222Y-21920882D01*
X1789373Y-21971909D01*
X1791140Y-21993637D01*
X1793396Y-22000601D01*
X1794587Y-22006560D01*
X1795971Y-22012415D01*
X1796818Y-22019681D01*
X1821735Y-22088327D01*
X1823152Y-22092455D01*
X1830828Y-22116148D01*
X1845649Y-22161899D01*
X1849445Y-22168154D01*
X1851951Y-22173628D01*
X1854670Y-22179058D01*
X1857167Y-22185937D01*
X1861180Y-22192057D01*
X1861180Y-22192058D01*
X1897186Y-22246976D01*
X1899523Y-22250680D01*
X1937405Y-22313107D01*
X1941121Y-22317315D01*
X1941122Y-22317316D01*
X1944803Y-22321484D01*
X1944776Y-22321508D01*
X1947429Y-22324500D01*
X1950132Y-22327733D01*
X1954144Y-22333852D01*
X2010383Y-22387128D01*
X2012825Y-22389506D01*
X3481497Y-23858178D01*
X3515523Y-23920490D01*
X3510458Y-23991305D01*
X3467911Y-24048141D01*
X3428479Y-24066039D01*
X3428988Y-24067606D01*
X3422704Y-24069648D01*
X3416248Y-24071020D01*
X3410219Y-24073704D01*
X3410217Y-24073705D01*
X3257416Y-24141737D01*
X3257414Y-24141738D01*
X3251386Y-24144422D01*
X3246045Y-24148302D01*
X3246044Y-24148303D01*
X3110731Y-24246613D01*
X3110729Y-24246615D01*
X3105387Y-24250496D01*
X2984633Y-24384607D01*
X2894401Y-24540893D01*
X2838635Y-24712525D01*
X2837945Y-24719088D01*
X2837945Y-24719089D01*
X2829883Y-24795789D01*
X2819771Y-24892000D01*
X2820461Y-24898565D01*
X2837345Y-25059197D01*
X2838635Y-25071475D01*
X2840675Y-25077753D01*
X2840675Y-25077754D01*
X2857342Y-25129051D01*
X2894401Y-25243107D01*
X2897704Y-25248829D01*
X2897705Y-25248830D01*
X2915343Y-25279379D01*
X2984633Y-25399393D01*
X2989051Y-25404300D01*
X2989052Y-25404301D01*
X3078095Y-25503193D01*
X3105387Y-25533504D01*
X3110729Y-25537385D01*
X3110731Y-25537387D01*
X3240883Y-25631948D01*
X3251385Y-25639578D01*
X3257413Y-25642262D01*
X3257415Y-25642263D01*
X3410217Y-25710295D01*
X3416248Y-25712980D01*
X3493273Y-25729352D01*
X3586311Y-25749128D01*
X3586315Y-25749128D01*
X3592768Y-25750500D01*
X3773232Y-25750500D01*
X3779685Y-25749128D01*
X3779689Y-25749128D01*
X3872727Y-25729352D01*
X3915304Y-25720302D01*
X3986094Y-25725704D01*
X4042727Y-25768521D01*
X4067220Y-25835159D01*
X4067500Y-25843549D01*
X4067500Y-26602930D01*
X4066067Y-26621880D01*
X4062801Y-26643349D01*
X4063394Y-26650641D01*
X4063394Y-26650644D01*
X4067085Y-26696018D01*
X4067500Y-26706233D01*
X4067500Y-26714293D01*
X4067925Y-26717937D01*
X4070789Y-26742507D01*
X4071221Y-26746873D01*
X4073071Y-26769606D01*
X4058659Y-26839122D01*
X4008951Y-26889813D01*
X3939728Y-26905583D01*
X3872968Y-26881424D01*
X3836969Y-26840336D01*
X3834791Y-26836358D01*
X3758285Y-26734276D01*
X3745724Y-26721715D01*
X3643649Y-26645214D01*
X3628054Y-26636676D01*
X3507606Y-26591522D01*
X3492351Y-26587895D01*
X3441486Y-26582369D01*
X3434672Y-26582000D01*
X2812115Y-26582000D01*
X2796876Y-26586475D01*
X2795671Y-26587865D01*
X2794000Y-26595548D01*
X2794000Y-27667885D01*
X2798475Y-27683124D01*
X2799865Y-27684329D01*
X2807548Y-27686000D01*
X3879884Y-27686000D01*
X3895123Y-27681525D01*
X3896328Y-27680135D01*
X3897999Y-27672452D01*
X3897999Y-27053377D01*
X3918001Y-26985256D01*
X3971657Y-26938763D01*
X4041931Y-26928659D01*
X4106511Y-26958153D01*
X4131707Y-26987994D01*
X4132121Y-26988676D01*
X4136942Y-26998736D01*
X4137392Y-26998511D01*
X4140669Y-27005056D01*
X4143167Y-27011937D01*
X4147180Y-27018057D01*
X4147180Y-27018058D01*
X4183186Y-27072976D01*
X4185523Y-27076680D01*
X4223405Y-27139107D01*
X4227121Y-27143315D01*
X4227122Y-27143316D01*
X4230803Y-27147484D01*
X4230776Y-27147508D01*
X4233429Y-27150500D01*
X4236132Y-27153733D01*
X4240144Y-27159852D01*
X4245456Y-27164884D01*
X4296383Y-27213128D01*
X4298825Y-27215506D01*
X5588490Y-28505171D01*
X5622516Y-28567483D01*
X5624722Y-28581260D01*
X5631293Y-28644593D01*
X5633474Y-28651129D01*
X5633474Y-28651131D01*
X5649914Y-28700407D01*
X5686346Y-28809607D01*
X5777884Y-28957531D01*
X5783066Y-28962704D01*
X5895816Y-29075258D01*
X5895821Y-29075262D01*
X5900997Y-29080429D01*
X5907227Y-29084269D01*
X5907228Y-29084270D01*
X6020278Y-29153955D01*
X6049080Y-29171709D01*
X6162781Y-29209422D01*
X6221141Y-29249853D01*
X6248378Y-29315417D01*
X6235845Y-29385298D01*
X6212209Y-29418110D01*
X5861089Y-29769230D01*
X5846677Y-29781616D01*
X5835082Y-29790149D01*
X5835077Y-29790154D01*
X5829182Y-29794492D01*
X5824443Y-29800070D01*
X5824440Y-29800073D01*
X5794965Y-29834768D01*
X5788035Y-29842284D01*
X5782340Y-29847979D01*
X5780060Y-29850861D01*
X5764719Y-29870251D01*
X5761928Y-29873655D01*
X5721990Y-29920665D01*
X5714667Y-29929285D01*
X5711339Y-29935803D01*
X5707975Y-29940846D01*
X5704806Y-29945978D01*
X5700266Y-29951716D01*
X5697167Y-29958347D01*
X5669364Y-30017834D01*
X5667433Y-30021784D01*
X5637561Y-30080285D01*
X5637559Y-30080291D01*
X5634231Y-30086808D01*
X5632492Y-30093914D01*
X5630393Y-30099559D01*
X5628476Y-30105322D01*
X5625378Y-30111950D01*
X5623888Y-30119112D01*
X5623888Y-30119113D01*
X5610514Y-30183412D01*
X5609544Y-30187696D01*
X5592192Y-30258610D01*
X5591500Y-30269764D01*
X5591464Y-30269762D01*
X5591225Y-30273755D01*
X5590851Y-30277947D01*
X5589360Y-30285115D01*
X5589558Y-30292432D01*
X5591454Y-30362521D01*
X5591500Y-30365928D01*
X5591500Y-35096293D01*
X5595363Y-35129429D01*
X5604287Y-35205970D01*
X5606818Y-35227681D01*
X5609313Y-35234556D01*
X5609314Y-35234558D01*
X5662917Y-35382228D01*
X5667167Y-35393937D01*
X5671178Y-35400054D01*
X5671179Y-35400057D01*
X5751714Y-35522893D01*
X5764144Y-35541852D01*
X5892547Y-35663490D01*
X6045490Y-35752326D01*
X6052494Y-35754447D01*
X6052498Y-35754449D01*
X6136400Y-35779860D01*
X6161203Y-35792183D01*
X6161868Y-35790973D01*
X6180658Y-35801303D01*
X6197182Y-35812157D01*
X6207865Y-35820443D01*
X6214132Y-35825304D01*
X6221407Y-35828452D01*
X6256536Y-35843654D01*
X6267181Y-35848869D01*
X6307663Y-35871124D01*
X6315337Y-35873094D01*
X6315344Y-35873097D01*
X6328426Y-35876455D01*
X6347134Y-35882860D01*
X6366823Y-35891380D01*
X6374649Y-35892619D01*
X6374651Y-35892620D01*
X6399159Y-35896501D01*
X6412459Y-35898608D01*
X6424070Y-35901012D01*
X6459753Y-35910174D01*
X6520757Y-35946488D01*
X6552445Y-36010020D01*
X6544755Y-36080599D01*
X6517510Y-36121309D01*
X5211089Y-37427730D01*
X5196677Y-37440116D01*
X5185082Y-37448649D01*
X5185077Y-37448654D01*
X5179182Y-37452992D01*
X5174443Y-37458570D01*
X5174440Y-37458573D01*
X5144965Y-37493268D01*
X5138035Y-37500784D01*
X5132340Y-37506479D01*
X5130060Y-37509361D01*
X5114719Y-37528751D01*
X5111928Y-37532155D01*
X5077920Y-37572185D01*
X5064667Y-37587785D01*
X5061339Y-37594301D01*
X5057972Y-37599350D01*
X5054805Y-37604479D01*
X5050266Y-37610216D01*
X5019345Y-37676375D01*
X5017442Y-37680269D01*
X4984231Y-37745308D01*
X4982492Y-37752416D01*
X4980393Y-37758059D01*
X4978476Y-37763822D01*
X4975378Y-37770450D01*
X4973888Y-37777612D01*
X4973888Y-37777613D01*
X4960514Y-37841912D01*
X4959544Y-37846196D01*
X4942192Y-37917110D01*
X4941500Y-37928264D01*
X4941464Y-37928262D01*
X4941225Y-37932255D01*
X4940851Y-37936447D01*
X4939360Y-37943615D01*
X4939623Y-37953324D01*
X4941454Y-38021021D01*
X4941500Y-38024428D01*
X4941500Y-39145500D01*
X4921498Y-39213621D01*
X4867842Y-39260114D01*
X4815500Y-39271500D01*
X4751866Y-39271500D01*
X4689684Y-39278255D01*
X4553295Y-39329385D01*
X4436739Y-39416739D01*
X4349385Y-39533295D01*
X4298255Y-39669684D01*
X4291500Y-39731866D01*
X4291500Y-39795500D01*
X4271498Y-39863621D01*
X4217842Y-39910114D01*
X4165500Y-39921500D01*
X4024500Y-39921500D01*
X3956379Y-39901498D01*
X3909886Y-39847842D01*
X3898500Y-39795500D01*
X3898500Y-39741866D01*
X3891745Y-39679684D01*
X3840615Y-39543295D01*
X3753261Y-39426739D01*
X3636705Y-39339385D01*
X3500316Y-39288255D01*
X3438134Y-39281500D01*
X1641866Y-39281500D01*
X1579684Y-39288255D01*
X1443295Y-39339385D01*
X1326739Y-39426739D01*
X1239385Y-39543295D01*
X1188255Y-39679684D01*
X1181500Y-39741866D01*
X1181500Y-41538134D01*
X1188255Y-41600316D01*
X1239385Y-41736705D01*
X1326739Y-41853261D01*
X1443295Y-41940615D01*
X1451704Y-41943767D01*
X1451705Y-41943768D01*
X1560451Y-41984535D01*
X1617216Y-42027176D01*
X1641916Y-42093738D01*
X1626709Y-42163087D01*
X1607316Y-42189568D01*
X1484904Y-42317665D01*
X1480629Y-42322138D01*
X1354743Y-42506680D01*
X1307716Y-42607992D01*
X1276898Y-42674384D01*
X1260688Y-42709305D01*
X1200989Y-42924570D01*
X1177251Y-43146695D01*
X1177548Y-43151848D01*
X1177548Y-43151851D01*
X1184939Y-43280031D01*
X1190110Y-43369715D01*
X1191247Y-43374761D01*
X1191248Y-43374767D01*
X1207394Y-43446411D01*
X1239222Y-43587639D01*
X1323266Y-43794616D01*
X1439987Y-43985088D01*
X1586250Y-44153938D01*
X1758126Y-44296632D01*
X1763207Y-44299601D01*
X1831445Y-44339476D01*
X1880169Y-44391114D01*
X1893240Y-44460897D01*
X1866509Y-44526669D01*
X1826055Y-44560027D01*
X1813607Y-44566507D01*
X1809474Y-44569610D01*
X1809471Y-44569612D01*
X1639100Y-44697530D01*
X1634965Y-44700635D01*
X1480629Y-44862138D01*
X1477715Y-44866410D01*
X1477714Y-44866411D01*
X1447761Y-44910321D01*
X1354743Y-45046680D01*
X1339003Y-45080590D01*
X1265992Y-45237879D01*
X1260688Y-45249305D01*
X1200989Y-45464570D01*
X1177251Y-45686695D01*
X508500Y-45686695D01*
X508500Y-32986695D01*
X1177251Y-32986695D01*
X1177548Y-32991848D01*
X1177548Y-32991851D01*
X1188139Y-33175531D01*
X1190110Y-33209715D01*
X1191247Y-33214761D01*
X1191248Y-33214767D01*
X1207599Y-33287319D01*
X1239222Y-33427639D01*
X1323266Y-33634616D01*
X1439987Y-33825088D01*
X1586250Y-33993938D01*
X1758126Y-34136632D01*
X1951000Y-34249338D01*
X1955825Y-34251180D01*
X1955826Y-34251181D01*
X1987521Y-34263284D01*
X2159692Y-34329030D01*
X2164760Y-34330061D01*
X2164763Y-34330062D01*
X2272017Y-34351883D01*
X2378597Y-34373567D01*
X2383772Y-34373757D01*
X2383774Y-34373757D01*
X2596673Y-34381564D01*
X2596677Y-34381564D01*
X2601837Y-34381753D01*
X2606957Y-34381097D01*
X2606959Y-34381097D01*
X2818288Y-34354025D01*
X2818289Y-34354025D01*
X2823416Y-34353368D01*
X2828366Y-34351883D01*
X3032429Y-34290661D01*
X3032434Y-34290659D01*
X3037384Y-34289174D01*
X3237994Y-34190896D01*
X3419860Y-34061173D01*
X3578096Y-33903489D01*
X3618307Y-33847530D01*
X3705435Y-33726277D01*
X3708453Y-33722077D01*
X3720406Y-33697893D01*
X3805136Y-33526453D01*
X3805137Y-33526451D01*
X3807430Y-33521811D01*
X3864483Y-33334028D01*
X3870865Y-33313023D01*
X3870865Y-33313021D01*
X3872370Y-33308069D01*
X3901529Y-33086590D01*
X3902852Y-33032444D01*
X3903074Y-33023365D01*
X3903074Y-33023361D01*
X3903156Y-33020000D01*
X3884852Y-32797361D01*
X3830431Y-32580702D01*
X3741354Y-32375840D01*
X3620014Y-32188277D01*
X3469670Y-32023051D01*
X3465619Y-32019852D01*
X3465615Y-32019848D01*
X3298414Y-31887800D01*
X3298410Y-31887798D01*
X3294359Y-31884598D01*
X3253053Y-31861796D01*
X3203084Y-31811364D01*
X3188312Y-31741921D01*
X3213428Y-31675516D01*
X3240780Y-31648909D01*
X3284603Y-31617650D01*
X3419860Y-31521173D01*
X3578096Y-31363489D01*
X3582089Y-31357933D01*
X3705435Y-31186277D01*
X3708453Y-31182077D01*
X3716249Y-31166304D01*
X3805136Y-30986453D01*
X3805137Y-30986451D01*
X3807430Y-30981811D01*
X3872370Y-30768069D01*
X3901529Y-30546590D01*
X3903156Y-30480000D01*
X3884852Y-30257361D01*
X3830431Y-30040702D01*
X3741354Y-29835840D01*
X3698131Y-29769028D01*
X3622822Y-29652617D01*
X3622820Y-29652614D01*
X3620014Y-29648277D01*
X3616540Y-29644459D01*
X3616533Y-29644450D01*
X3472435Y-29486088D01*
X3441383Y-29422242D01*
X3449779Y-29351744D01*
X3494956Y-29296976D01*
X3521400Y-29283307D01*
X3628052Y-29243325D01*
X3643649Y-29234786D01*
X3745724Y-29158285D01*
X3758285Y-29145724D01*
X3834786Y-29043649D01*
X3843324Y-29028054D01*
X3888478Y-28907606D01*
X3892105Y-28892351D01*
X3897631Y-28841486D01*
X3898000Y-28834672D01*
X3898000Y-28212115D01*
X3893525Y-28196876D01*
X3892135Y-28195671D01*
X3884452Y-28194000D01*
X1200116Y-28194000D01*
X1184877Y-28198475D01*
X1183672Y-28199865D01*
X1182001Y-28207548D01*
X1182001Y-28834669D01*
X1182371Y-28841490D01*
X1187895Y-28892352D01*
X1191521Y-28907604D01*
X1236676Y-29028054D01*
X1245214Y-29043649D01*
X1321715Y-29145724D01*
X1334276Y-29158285D01*
X1436351Y-29234786D01*
X1451946Y-29243324D01*
X1560827Y-29284142D01*
X1617591Y-29326784D01*
X1642291Y-29393345D01*
X1627083Y-29462694D01*
X1607691Y-29489175D01*
X1484200Y-29618401D01*
X1480629Y-29622138D01*
X1477715Y-29626410D01*
X1477714Y-29626411D01*
X1443429Y-29676671D01*
X1354743Y-29806680D01*
X1324431Y-29871982D01*
X1275467Y-29977467D01*
X1260688Y-30009305D01*
X1200989Y-30224570D01*
X1177251Y-30446695D01*
X1177548Y-30451848D01*
X1177548Y-30451851D01*
X1183011Y-30546590D01*
X1190110Y-30669715D01*
X1191247Y-30674761D01*
X1191248Y-30674767D01*
X1210180Y-30758771D01*
X1239222Y-30887639D01*
X1277461Y-30981811D01*
X1320580Y-31088000D01*
X1323266Y-31094616D01*
X1325965Y-31099020D01*
X1413550Y-31241946D01*
X1439987Y-31285088D01*
X1586250Y-31453938D01*
X1649423Y-31506385D01*
X1746621Y-31587080D01*
X1758126Y-31596632D01*
X1828595Y-31637811D01*
X1831445Y-31639476D01*
X1880169Y-31691114D01*
X1893240Y-31760897D01*
X1866509Y-31826669D01*
X1826055Y-31860027D01*
X1819476Y-31863452D01*
X1813607Y-31866507D01*
X1809474Y-31869610D01*
X1809471Y-31869612D01*
X1703495Y-31949181D01*
X1634965Y-32000635D01*
X1480629Y-32162138D01*
X1354743Y-32346680D01*
X1334233Y-32390865D01*
X1294105Y-32477315D01*
X1260688Y-32549305D01*
X1200989Y-32764570D01*
X1177251Y-32986695D01*
X508500Y-32986695D01*
X508500Y-27667885D01*
X1182000Y-27667885D01*
X1186475Y-27683124D01*
X1187865Y-27684329D01*
X1195548Y-27686000D01*
X2267885Y-27686000D01*
X2283124Y-27681525D01*
X2284329Y-27680135D01*
X2286000Y-27672452D01*
X2286000Y-26600116D01*
X2281525Y-26584877D01*
X2280135Y-26583672D01*
X2272452Y-26582001D01*
X1645331Y-26582001D01*
X1638510Y-26582371D01*
X1587648Y-26587895D01*
X1572396Y-26591521D01*
X1451946Y-26636676D01*
X1436351Y-26645214D01*
X1334276Y-26721715D01*
X1321715Y-26734276D01*
X1245214Y-26836351D01*
X1236676Y-26851946D01*
X1191522Y-26972394D01*
X1187895Y-26987649D01*
X1182369Y-27038514D01*
X1182000Y-27045328D01*
X1182000Y-27667885D01*
X508500Y-27667885D01*
X508500Y-5212703D01*
X2970743Y-5212703D01*
X3008268Y-5497734D01*
X3084129Y-5775036D01*
X3085813Y-5778984D01*
X3190628Y-6024717D01*
X3196923Y-6039476D01*
X3266571Y-6155850D01*
X3317138Y-6240340D01*
X3344561Y-6286161D01*
X3524313Y-6510528D01*
X3541397Y-6526740D01*
X3693225Y-6670819D01*
X3732851Y-6708423D01*
X3966317Y-6876186D01*
X3970112Y-6878195D01*
X3970113Y-6878196D01*
X3991869Y-6889715D01*
X4220392Y-7010712D01*
X4490373Y-7109511D01*
X4771264Y-7170755D01*
X4799841Y-7173004D01*
X4994282Y-7188307D01*
X4994291Y-7188307D01*
X4996739Y-7188500D01*
X5152271Y-7188500D01*
X5154407Y-7188354D01*
X5154418Y-7188354D01*
X5362548Y-7174165D01*
X5362554Y-7174164D01*
X5366825Y-7173873D01*
X5371020Y-7173004D01*
X5371022Y-7173004D01*
X5507584Y-7144723D01*
X5648342Y-7115574D01*
X5919343Y-7019607D01*
X6174812Y-6887750D01*
X6178313Y-6885289D01*
X6178317Y-6885287D01*
X6292417Y-6805096D01*
X6410023Y-6722441D01*
X6620622Y-6526740D01*
X6802713Y-6304268D01*
X6952927Y-6059142D01*
X7068483Y-5795898D01*
X7147244Y-5519406D01*
X7187751Y-5234784D01*
X7187845Y-5216951D01*
X7189235Y-4951583D01*
X7189235Y-4951576D01*
X7189257Y-4947297D01*
X7151732Y-4662266D01*
X7075871Y-4384964D01*
X7047888Y-4319360D01*
X6964763Y-4124476D01*
X6964761Y-4124472D01*
X6963077Y-4120524D01*
X6831285Y-3900315D01*
X6817643Y-3877521D01*
X6817640Y-3877517D01*
X6815439Y-3873839D01*
X6635687Y-3649472D01*
X6427149Y-3451577D01*
X6193683Y-3283814D01*
X6171843Y-3272250D01*
X6148654Y-3259972D01*
X5939608Y-3149288D01*
X5669627Y-3050489D01*
X5388736Y-2989245D01*
X5357685Y-2986801D01*
X5165718Y-2971693D01*
X5165709Y-2971693D01*
X5163261Y-2971500D01*
X5007729Y-2971500D01*
X5005593Y-2971646D01*
X5005582Y-2971646D01*
X4797452Y-2985835D01*
X4797446Y-2985836D01*
X4793175Y-2986127D01*
X4788980Y-2986996D01*
X4788978Y-2986996D01*
X4652417Y-3015276D01*
X4511658Y-3044426D01*
X4240657Y-3140393D01*
X3985188Y-3272250D01*
X3981687Y-3274711D01*
X3981683Y-3274713D01*
X3971594Y-3281804D01*
X3749977Y-3437559D01*
X3539378Y-3633260D01*
X3357287Y-3855732D01*
X3207073Y-4100858D01*
X3091517Y-4364102D01*
X3090342Y-4368229D01*
X3090341Y-4368230D01*
X3070302Y-4438577D01*
X3012756Y-4640594D01*
X2972249Y-4925216D01*
X2972227Y-4929505D01*
X2972226Y-4929512D01*
X2971220Y-5121621D01*
X2970743Y-5212703D01*
X508500Y-5212703D01*
X508500Y-5133250D01*
X510246Y-5112345D01*
X512770Y-5097344D01*
X512770Y-5097341D01*
X513576Y-5092552D01*
X513729Y-5080000D01*
X513039Y-5075184D01*
X513039Y-5075178D01*
X511387Y-5063644D01*
X510234Y-5040284D01*
X510923Y-5024520D01*
X525656Y-4687063D01*
X526614Y-4676114D01*
X577233Y-4291621D01*
X579142Y-4280795D01*
X663080Y-3902178D01*
X665925Y-3891561D01*
X735193Y-3671869D01*
X782542Y-3521698D01*
X786298Y-3511377D01*
X812105Y-3449074D01*
X934715Y-3153068D01*
X939357Y-3143115D01*
X986808Y-3051964D01*
X1118424Y-2799132D01*
X1123919Y-2789613D01*
X1332292Y-2462532D01*
X1338597Y-2453528D01*
X1574678Y-2145862D01*
X1581743Y-2137442D01*
X1843744Y-1851517D01*
X1851517Y-1843744D01*
X2137442Y-1581743D01*
X2145862Y-1574678D01*
X2453528Y-1338597D01*
X2462532Y-1332292D01*
X2789613Y-1123919D01*
X2799133Y-1118423D01*
X3143124Y-939353D01*
X3153068Y-934715D01*
X3511385Y-786295D01*
X3521698Y-782542D01*
X3721298Y-719608D01*
X3891561Y-665925D01*
X3902178Y-663080D01*
X4280795Y-579142D01*
X4291621Y-577233D01*
X4676114Y-526614D01*
X4687063Y-525656D01*
X5036554Y-510397D01*
X5061429Y-511777D01*
X5073724Y-513691D01*
X5082626Y-512527D01*
X5082628Y-512527D01*
X5101399Y-510072D01*
X5105286Y-509564D01*
X5121621Y-508500D01*
X35510633Y-508500D01*
X35530018Y-510000D01*
G37*
%TD.AperFunction*%
%TA.AperFunction,Conductor*%
G36*
X23875848Y-35095002D02*
G01*
X23922341Y-35148658D01*
X23932445Y-35218932D01*
X23902951Y-35283512D01*
X23896902Y-35290016D01*
X23811071Y-35375997D01*
X23807231Y-35382227D01*
X23807230Y-35382228D01*
X23724364Y-35516662D01*
X23719791Y-35524080D01*
X23665026Y-35689191D01*
X23664326Y-35696027D01*
X23664325Y-35696030D01*
X23661893Y-35719770D01*
X23654500Y-35791928D01*
X23654500Y-36391072D01*
X23654837Y-36394318D01*
X23654837Y-36394322D01*
X23662855Y-36471593D01*
X23665293Y-36495093D01*
X23720346Y-36660107D01*
X23811884Y-36808031D01*
X23817066Y-36813204D01*
X23842518Y-36838612D01*
X23876597Y-36900895D01*
X23879500Y-36927785D01*
X23879500Y-37397930D01*
X23878067Y-37416880D01*
X23876748Y-37425553D01*
X23874801Y-37438349D01*
X23875394Y-37445641D01*
X23875394Y-37445644D01*
X23879085Y-37491018D01*
X23879500Y-37501233D01*
X23879500Y-37509293D01*
X23879925Y-37512937D01*
X23882789Y-37537507D01*
X23883222Y-37541882D01*
X23888000Y-37600616D01*
X23889140Y-37614637D01*
X23891396Y-37621601D01*
X23892587Y-37627560D01*
X23893971Y-37633415D01*
X23894818Y-37640681D01*
X23919735Y-37709327D01*
X23921152Y-37713455D01*
X23940675Y-37773718D01*
X23943649Y-37782899D01*
X23947445Y-37789154D01*
X23949951Y-37794628D01*
X23952670Y-37800058D01*
X23955167Y-37806937D01*
X23959180Y-37813057D01*
X23959180Y-37813058D01*
X23995186Y-37867976D01*
X23997523Y-37871680D01*
X24035405Y-37934107D01*
X24039121Y-37938315D01*
X24039122Y-37938316D01*
X24042803Y-37942484D01*
X24042776Y-37942508D01*
X24045429Y-37945500D01*
X24048132Y-37948733D01*
X24052144Y-37954852D01*
X24086371Y-37987276D01*
X24108383Y-38008128D01*
X24110825Y-38010506D01*
X27065224Y-40964905D01*
X27099250Y-41027217D01*
X27094185Y-41098032D01*
X27051638Y-41154868D01*
X26985118Y-41179679D01*
X26976129Y-41180000D01*
X26180000Y-41180000D01*
X26180000Y-45180000D01*
X27122954Y-45180000D01*
X27191075Y-45200002D01*
X27237568Y-45253658D01*
X27242820Y-45267166D01*
X27245649Y-45275899D01*
X27249445Y-45282155D01*
X27251951Y-45287628D01*
X27254670Y-45293058D01*
X27257167Y-45299937D01*
X27261180Y-45306057D01*
X27261180Y-45306058D01*
X27297186Y-45360976D01*
X27299523Y-45364680D01*
X27337405Y-45427107D01*
X27341121Y-45431315D01*
X27341122Y-45431316D01*
X27344803Y-45435484D01*
X27344776Y-45435508D01*
X27347427Y-45438497D01*
X27350130Y-45441729D01*
X27354144Y-45447852D01*
X27359462Y-45452890D01*
X27360387Y-45453996D01*
X27383560Y-45495887D01*
X27405401Y-45563107D01*
X27408704Y-45568829D01*
X27408705Y-45568830D01*
X27426459Y-45599581D01*
X27495633Y-45719393D01*
X27500051Y-45724300D01*
X27500052Y-45724301D01*
X27562097Y-45793209D01*
X27616387Y-45853504D01*
X27621729Y-45857385D01*
X27621731Y-45857387D01*
X27700708Y-45914767D01*
X27762385Y-45959578D01*
X27768413Y-45962262D01*
X27768415Y-45962263D01*
X27793753Y-45973544D01*
X27842572Y-45995279D01*
X27896667Y-46041259D01*
X27917316Y-46109186D01*
X27897964Y-46177494D01*
X27881423Y-46198464D01*
X27706688Y-46377208D01*
X27547966Y-46595270D01*
X27500296Y-46685877D01*
X27424510Y-46829921D01*
X27424507Y-46829927D01*
X27422385Y-46833961D01*
X27420865Y-46838266D01*
X27420863Y-46838270D01*
X27337771Y-47073567D01*
X27332575Y-47088280D01*
X27313634Y-47184378D01*
X27281364Y-47348106D01*
X27280419Y-47352900D01*
X27280192Y-47357453D01*
X27280192Y-47357456D01*
X27269518Y-47571884D01*
X27267009Y-47622277D01*
X27292625Y-47890769D01*
X27293710Y-47895203D01*
X27293711Y-47895209D01*
X27339718Y-48083225D01*
X27356731Y-48152750D01*
X27457985Y-48402733D01*
X27594265Y-48635482D01*
X27597118Y-48639049D01*
X27640907Y-48693805D01*
X27667831Y-48759498D01*
X27654965Y-48829320D01*
X27606394Y-48881101D01*
X27542504Y-48898500D01*
X22800070Y-48898500D01*
X22781120Y-48897067D01*
X22766885Y-48894901D01*
X22766881Y-48894901D01*
X22759651Y-48893801D01*
X22752359Y-48894394D01*
X22752356Y-48894394D01*
X22706982Y-48898085D01*
X22696767Y-48898500D01*
X22688707Y-48898500D01*
X22685073Y-48898924D01*
X22685067Y-48898924D01*
X22672042Y-48900443D01*
X22660480Y-48901791D01*
X22656132Y-48902221D01*
X22634059Y-48904016D01*
X22590662Y-48907546D01*
X22590659Y-48907547D01*
X22583364Y-48908140D01*
X22576400Y-48910396D01*
X22570461Y-48911583D01*
X22564591Y-48912970D01*
X22557319Y-48913818D01*
X22550441Y-48916315D01*
X22550431Y-48916317D01*
X22527839Y-48924518D01*
X22456982Y-48928960D01*
X22394971Y-48894388D01*
X22361496Y-48831779D01*
X22367183Y-48761011D01*
X22374225Y-48746233D01*
X22375295Y-48743830D01*
X22378599Y-48738107D01*
X22434365Y-48566475D01*
X22453229Y-48387000D01*
X22439567Y-48257021D01*
X22435055Y-48214089D01*
X22435055Y-48214088D01*
X22434365Y-48207525D01*
X22424030Y-48175715D01*
X22380641Y-48042178D01*
X22378599Y-48035893D01*
X22374983Y-48029629D01*
X22311370Y-47919449D01*
X22288367Y-47879607D01*
X22249869Y-47836850D01*
X22172035Y-47750407D01*
X22172034Y-47750406D01*
X22167613Y-47745496D01*
X22158772Y-47739072D01*
X22026957Y-47643303D01*
X22026956Y-47643302D01*
X22021615Y-47639422D01*
X22015587Y-47636738D01*
X22015585Y-47636737D01*
X21899622Y-47585107D01*
X21845526Y-47539127D01*
X21824877Y-47471199D01*
X21844229Y-47402891D01*
X21897440Y-47355890D01*
X21950871Y-47344000D01*
X22507430Y-47344000D01*
X22526380Y-47345433D01*
X22540615Y-47347599D01*
X22540619Y-47347599D01*
X22547849Y-47348699D01*
X22555141Y-47348106D01*
X22555144Y-47348106D01*
X22600518Y-47344415D01*
X22610733Y-47344000D01*
X22618793Y-47344000D01*
X22632083Y-47342451D01*
X22647007Y-47340711D01*
X22651382Y-47340278D01*
X22716839Y-47334954D01*
X22716842Y-47334953D01*
X22724137Y-47334360D01*
X22731101Y-47332104D01*
X22737060Y-47330913D01*
X22742915Y-47329529D01*
X22750181Y-47328682D01*
X22818827Y-47303765D01*
X22822955Y-47302348D01*
X22885436Y-47282107D01*
X22885438Y-47282106D01*
X22892399Y-47279851D01*
X22898654Y-47276055D01*
X22904128Y-47273549D01*
X22909558Y-47270830D01*
X22916437Y-47268333D01*
X22977476Y-47228314D01*
X22981180Y-47225977D01*
X23043607Y-47188095D01*
X23051984Y-47180697D01*
X23052008Y-47180724D01*
X23055000Y-47178071D01*
X23058233Y-47175368D01*
X23064352Y-47171356D01*
X23117628Y-47115117D01*
X23120006Y-47112675D01*
X23129040Y-47103641D01*
X23191352Y-47069615D01*
X23243256Y-47069266D01*
X23307585Y-47082354D01*
X23307593Y-47082355D01*
X23312656Y-47083385D01*
X23443324Y-47088176D01*
X23538949Y-47091683D01*
X23538953Y-47091683D01*
X23544113Y-47091872D01*
X23549233Y-47091216D01*
X23549235Y-47091216D01*
X23628224Y-47081097D01*
X23773847Y-47062442D01*
X23778795Y-47060957D01*
X23778802Y-47060956D01*
X23990747Y-46997369D01*
X23995690Y-46995886D01*
X24009391Y-46989174D01*
X24199049Y-46896262D01*
X24199052Y-46896260D01*
X24203684Y-46893991D01*
X24392243Y-46759494D01*
X24556303Y-46596005D01*
X24559479Y-46591586D01*
X24607262Y-46525088D01*
X24691458Y-46407917D01*
X24706636Y-46377208D01*
X24791784Y-46204922D01*
X24791785Y-46204920D01*
X24794078Y-46200280D01*
X24861408Y-45978671D01*
X24891640Y-45749041D01*
X24891787Y-45743030D01*
X24893245Y-45683365D01*
X24893245Y-45683361D01*
X24893327Y-45680000D01*
X24885914Y-45589837D01*
X24874773Y-45454318D01*
X24874772Y-45454312D01*
X24874349Y-45449167D01*
X24828636Y-45267174D01*
X24819184Y-45229544D01*
X24819183Y-45229540D01*
X24817925Y-45224533D01*
X24815866Y-45219797D01*
X24727630Y-45016868D01*
X24727628Y-45016865D01*
X24725570Y-45012131D01*
X24599764Y-44817665D01*
X24443887Y-44646358D01*
X24439836Y-44643159D01*
X24439832Y-44643155D01*
X24293690Y-44527740D01*
X24252627Y-44469823D01*
X24249395Y-44398900D01*
X24285020Y-44337489D01*
X24298613Y-44326279D01*
X24392243Y-44259494D01*
X24556303Y-44096005D01*
X24569217Y-44078034D01*
X24639166Y-43980689D01*
X24691458Y-43907917D01*
X24695273Y-43900199D01*
X24791784Y-43704922D01*
X24791785Y-43704920D01*
X24794078Y-43700280D01*
X24861408Y-43478671D01*
X24891640Y-43249041D01*
X24893327Y-43180000D01*
X24882683Y-43050538D01*
X24874773Y-42954318D01*
X24874772Y-42954312D01*
X24874349Y-42949167D01*
X24836956Y-42800300D01*
X24819184Y-42729544D01*
X24819183Y-42729540D01*
X24817925Y-42724533D01*
X24814964Y-42717723D01*
X24727630Y-42516868D01*
X24727628Y-42516865D01*
X24725570Y-42512131D01*
X24599764Y-42317665D01*
X24536986Y-42248672D01*
X24505936Y-42184829D01*
X24514331Y-42114330D01*
X24559507Y-42059562D01*
X24585952Y-42045893D01*
X24618295Y-42033768D01*
X24618296Y-42033767D01*
X24626705Y-42030615D01*
X24743261Y-41943261D01*
X24830615Y-41826705D01*
X24881745Y-41690316D01*
X24888500Y-41628134D01*
X24888500Y-39731866D01*
X24881745Y-39669684D01*
X24830615Y-39533295D01*
X24743261Y-39416739D01*
X24626705Y-39329385D01*
X24490316Y-39278255D01*
X24428134Y-39271500D01*
X22531866Y-39271500D01*
X22469684Y-39278255D01*
X22333295Y-39329385D01*
X22216739Y-39416739D01*
X22129385Y-39533295D01*
X22078255Y-39669684D01*
X22071500Y-39731866D01*
X22071500Y-39795500D01*
X22051498Y-39863621D01*
X21997842Y-39910114D01*
X21945500Y-39921500D01*
X21591871Y-39921500D01*
X21523750Y-39901498D01*
X21502776Y-39884595D01*
X21467405Y-39849224D01*
X21433379Y-39786912D01*
X21430500Y-39760129D01*
X21430500Y-39601928D01*
X21425289Y-39551703D01*
X21420419Y-39504765D01*
X21420418Y-39504761D01*
X21419707Y-39497907D01*
X21395964Y-39426739D01*
X21372222Y-39355578D01*
X21364654Y-39332893D01*
X21273116Y-39184969D01*
X21165859Y-39077899D01*
X21131780Y-39015618D01*
X21136783Y-38944798D01*
X21165704Y-38899709D01*
X21268363Y-38796871D01*
X21277375Y-38785460D01*
X21360912Y-38649937D01*
X21367056Y-38636759D01*
X21417315Y-38485234D01*
X21420181Y-38471868D01*
X21429672Y-38379230D01*
X21430000Y-38372815D01*
X21430000Y-38348615D01*
X21425525Y-38333376D01*
X21424135Y-38332171D01*
X21416452Y-38330500D01*
X20319000Y-38330500D01*
X20250879Y-38310498D01*
X20204386Y-38256842D01*
X20193000Y-38204500D01*
X20193000Y-37099115D01*
X20188525Y-37083876D01*
X20187135Y-37082671D01*
X20179452Y-37081000D01*
X20163234Y-37081000D01*
X20156718Y-37081337D01*
X20062868Y-37091075D01*
X20049472Y-37093968D01*
X19898047Y-37144488D01*
X19884881Y-37150655D01*
X19873804Y-37157510D01*
X19805353Y-37176349D01*
X19737583Y-37155189D01*
X19692011Y-37100748D01*
X19681500Y-37050367D01*
X19681500Y-37045202D01*
X19701502Y-36977081D01*
X19741197Y-36938058D01*
X19754031Y-36930116D01*
X19759204Y-36924934D01*
X19759207Y-36924932D01*
X19847002Y-36836983D01*
X19909284Y-36802903D01*
X19936175Y-36800000D01*
X20830712Y-36800000D01*
X20898833Y-36820002D01*
X20919729Y-36836826D01*
X20965909Y-36882925D01*
X20999989Y-36945208D01*
X20994986Y-37016028D01*
X20952489Y-37072901D01*
X20885991Y-37097770D01*
X20850347Y-37093322D01*
X20849960Y-37095127D01*
X20829868Y-37090819D01*
X20737230Y-37081328D01*
X20730815Y-37081000D01*
X20719115Y-37081000D01*
X20703876Y-37085475D01*
X20702671Y-37086865D01*
X20701000Y-37094548D01*
X20701000Y-37804385D01*
X20705475Y-37819624D01*
X20706865Y-37820829D01*
X20714548Y-37822500D01*
X21411885Y-37822500D01*
X21427124Y-37818025D01*
X21428329Y-37816635D01*
X21430000Y-37808952D01*
X21430000Y-37780234D01*
X21429663Y-37773718D01*
X21419925Y-37679868D01*
X21417032Y-37666472D01*
X21366512Y-37515047D01*
X21360347Y-37501885D01*
X21276574Y-37366508D01*
X21267540Y-37355110D01*
X21197822Y-37285513D01*
X21163743Y-37223230D01*
X21168746Y-37152410D01*
X21211243Y-37095537D01*
X21277742Y-37070669D01*
X21313558Y-37075136D01*
X21313937Y-37073367D01*
X21320666Y-37074810D01*
X21327191Y-37076974D01*
X21334027Y-37077674D01*
X21334030Y-37077675D01*
X21382795Y-37082671D01*
X21429928Y-37087500D01*
X22004072Y-37087500D01*
X22007318Y-37087163D01*
X22007322Y-37087163D01*
X22101235Y-37077419D01*
X22101239Y-37077418D01*
X22108093Y-37076707D01*
X22114629Y-37074526D01*
X22114631Y-37074526D01*
X22247395Y-37030232D01*
X22273107Y-37021654D01*
X22421031Y-36930116D01*
X22439844Y-36911270D01*
X22538758Y-36812184D01*
X22538762Y-36812179D01*
X22543929Y-36807003D01*
X22551894Y-36794082D01*
X22631369Y-36665150D01*
X22631370Y-36665148D01*
X22635209Y-36658920D01*
X22689974Y-36493809D01*
X22691581Y-36478131D01*
X22700172Y-36394271D01*
X22700500Y-36391072D01*
X22700500Y-35691928D01*
X22699539Y-35682662D01*
X22690419Y-35594765D01*
X22690418Y-35594761D01*
X22689707Y-35587907D01*
X22674175Y-35541350D01*
X22636972Y-35429841D01*
X22634654Y-35422893D01*
X22556236Y-35296170D01*
X22546969Y-35281195D01*
X22546968Y-35281194D01*
X22543116Y-35274969D01*
X22543583Y-35274680D01*
X22518801Y-35213455D01*
X22531972Y-35143690D01*
X22580769Y-35092122D01*
X22644184Y-35075000D01*
X23807727Y-35075000D01*
X23875848Y-35095002D01*
G37*
%TD.AperFunction*%
%TA.AperFunction,Conductor*%
G36*
X13596621Y-23996502D02*
G01*
X13643114Y-24050158D01*
X13654500Y-24102500D01*
X13654500Y-26348930D01*
X13653067Y-26367880D01*
X13649801Y-26389349D01*
X13650394Y-26396641D01*
X13650394Y-26396644D01*
X13654085Y-26442018D01*
X13654500Y-26452233D01*
X13654500Y-26460293D01*
X13654925Y-26463937D01*
X13657789Y-26488507D01*
X13658222Y-26492882D01*
X13664140Y-26565637D01*
X13666396Y-26572601D01*
X13667587Y-26578560D01*
X13668971Y-26584415D01*
X13669818Y-26591681D01*
X13694735Y-26660327D01*
X13696152Y-26664455D01*
X13709867Y-26706792D01*
X13716000Y-26745623D01*
X13716000Y-26863000D01*
X13695998Y-26931121D01*
X13642342Y-26977614D01*
X13590000Y-26989000D01*
X13334000Y-26989000D01*
X13265879Y-26968998D01*
X13219386Y-26915342D01*
X13208000Y-26863000D01*
X13208000Y-24102500D01*
X13228002Y-24034379D01*
X13281658Y-23987886D01*
X13334000Y-23976500D01*
X13528500Y-23976500D01*
X13596621Y-23996502D01*
G37*
%TD.AperFunction*%
%TD*%
M02*
