%TF.GenerationSoftware,KiCad,Pcbnew,(6.0.9-0)*%
%TF.CreationDate,2024-03-22T17:20:29+01:00*%
%TF.ProjectId,attenuverters,61747465-6e75-4766-9572-746572732e6b,rev?*%
%TF.SameCoordinates,Original*%
%TF.FileFunction,Legend,Top*%
%TF.FilePolarity,Positive*%
%FSLAX46Y46*%
G04 Gerber Fmt 4.6, Leading zero omitted, Abs format (unit mm)*
G04 Created by KiCad (PCBNEW (6.0.9-0)) date 2024-03-22 17:20:29*
%MOMM*%
%LPD*%
G01*
G04 APERTURE LIST*
G04 Aperture macros list*
%AMRoundRect*
0 Rectangle with rounded corners*
0 $1 Rounding radius*
0 $2 $3 $4 $5 $6 $7 $8 $9 X,Y pos of 4 corners*
0 Add a 4 corners polygon primitive as box body*
4,1,4,$2,$3,$4,$5,$6,$7,$8,$9,$2,$3,0*
0 Add four circle primitives for the rounded corners*
1,1,$1+$1,$2,$3*
1,1,$1+$1,$4,$5*
1,1,$1+$1,$6,$7*
1,1,$1+$1,$8,$9*
0 Add four rect primitives between the rounded corners*
20,1,$1+$1,$2,$3,$4,$5,0*
20,1,$1+$1,$4,$5,$6,$7,0*
20,1,$1+$1,$6,$7,$8,$9,0*
20,1,$1+$1,$8,$9,$2,$3,0*%
G04 Aperture macros list end*
%ADD10C,0.150000*%
%ADD11C,0.120000*%
%ADD12C,0.100000*%
%ADD13C,0.127000*%
%ADD14C,0.200000*%
%ADD15RoundRect,0.237500X-0.237500X0.250000X-0.237500X-0.250000X0.237500X-0.250000X0.237500X0.250000X0*%
%ADD16RoundRect,0.237500X0.237500X-0.250000X0.237500X0.250000X-0.237500X0.250000X-0.237500X-0.250000X0*%
%ADD17RoundRect,0.237500X0.237500X-0.300000X0.237500X0.300000X-0.237500X0.300000X-0.237500X-0.300000X0*%
%ADD18R,1.800000X1.800000*%
%ADD19C,1.800000*%
%ADD20R,1.700000X1.700000*%
%ADD21O,1.700000X1.700000*%
%ADD22O,5.400000X2.700000*%
%ADD23C,3.200000*%
%ADD24RoundRect,0.237500X-0.237500X0.300000X-0.237500X-0.300000X0.237500X-0.300000X0.237500X0.300000X0*%
%ADD25C,5.500000*%
%ADD26RoundRect,0.150000X-0.150000X0.825000X-0.150000X-0.825000X0.150000X-0.825000X0.150000X0.825000X0*%
G04 APERTURE END LIST*
D10*
X9639761Y-28771904D02*
X9639761Y-29343333D01*
X9601666Y-29457619D01*
X9525476Y-29533809D01*
X9411190Y-29571904D01*
X9335000Y-29571904D01*
X10401666Y-29571904D02*
X10020714Y-29571904D01*
X10020714Y-28771904D01*
X11125476Y-29495714D02*
X11087380Y-29533809D01*
X10973095Y-29571904D01*
X10896904Y-29571904D01*
X10782619Y-29533809D01*
X10706428Y-29457619D01*
X10668333Y-29381428D01*
X10630238Y-29229047D01*
X10630238Y-29114761D01*
X10668333Y-28962380D01*
X10706428Y-28886190D01*
X10782619Y-28810000D01*
X10896904Y-28771904D01*
X10973095Y-28771904D01*
X11087380Y-28810000D01*
X11125476Y-28848095D01*
X11696904Y-28771904D02*
X11696904Y-29343333D01*
X11658809Y-29457619D01*
X11582619Y-29533809D01*
X11468333Y-29571904D01*
X11392142Y-29571904D01*
X12458809Y-29571904D02*
X12077857Y-29571904D01*
X12077857Y-28771904D01*
X13182619Y-29495714D02*
X13144523Y-29533809D01*
X13030238Y-29571904D01*
X12954047Y-29571904D01*
X12839761Y-29533809D01*
X12763571Y-29457619D01*
X12725476Y-29381428D01*
X12687380Y-29229047D01*
X12687380Y-29114761D01*
X12725476Y-28962380D01*
X12763571Y-28886190D01*
X12839761Y-28810000D01*
X12954047Y-28771904D01*
X13030238Y-28771904D01*
X13144523Y-28810000D01*
X13182619Y-28848095D01*
X13754047Y-28771904D02*
X13754047Y-29343333D01*
X13715952Y-29457619D01*
X13639761Y-29533809D01*
X13525476Y-29571904D01*
X13449285Y-29571904D01*
X14515952Y-29571904D02*
X14135000Y-29571904D01*
X14135000Y-28771904D01*
X15239761Y-29495714D02*
X15201666Y-29533809D01*
X15087380Y-29571904D01*
X15011190Y-29571904D01*
X14896904Y-29533809D01*
X14820714Y-29457619D01*
X14782619Y-29381428D01*
X14744523Y-29229047D01*
X14744523Y-29114761D01*
X14782619Y-28962380D01*
X14820714Y-28886190D01*
X14896904Y-28810000D01*
X15011190Y-28771904D01*
X15087380Y-28771904D01*
X15201666Y-28810000D01*
X15239761Y-28848095D01*
X15811190Y-28771904D02*
X15811190Y-29343333D01*
X15773095Y-29457619D01*
X15696904Y-29533809D01*
X15582619Y-29571904D01*
X15506428Y-29571904D01*
X16573095Y-29571904D02*
X16192142Y-29571904D01*
X16192142Y-28771904D01*
X17296904Y-29495714D02*
X17258809Y-29533809D01*
X17144523Y-29571904D01*
X17068333Y-29571904D01*
X16954047Y-29533809D01*
X16877857Y-29457619D01*
X16839761Y-29381428D01*
X16801666Y-29229047D01*
X16801666Y-29114761D01*
X16839761Y-28962380D01*
X16877857Y-28886190D01*
X16954047Y-28810000D01*
X17068333Y-28771904D01*
X17144523Y-28771904D01*
X17258809Y-28810000D01*
X17296904Y-28848095D01*
D11*
X39719690Y-13061904D02*
X39376833Y-13061904D01*
X39548261Y-13061904D02*
X39648261Y-12261904D01*
X39576833Y-12376190D01*
X39510166Y-12452380D01*
X39448261Y-12490476D01*
D12*
X940261Y-43084761D02*
X887880Y-43046666D01*
X864071Y-43008571D01*
X845023Y-42932380D01*
X849785Y-42894285D01*
X887880Y-42818095D01*
X921214Y-42780000D01*
X983119Y-42741904D01*
X1097404Y-42741904D01*
X1149785Y-42780000D01*
X1173595Y-42818095D01*
X1192642Y-42894285D01*
X1187880Y-42932380D01*
X1149785Y-43008571D01*
X1116452Y-43046666D01*
X1054547Y-43084761D01*
X940261Y-43084761D01*
X878357Y-43122857D01*
X845023Y-43160952D01*
X806928Y-43237142D01*
X787880Y-43389523D01*
X806928Y-43465714D01*
X830738Y-43503809D01*
X883119Y-43541904D01*
X997404Y-43541904D01*
X1059309Y-43503809D01*
X1092642Y-43465714D01*
X1130738Y-43389523D01*
X1149785Y-43237142D01*
X1130738Y-43160952D01*
X1106928Y-43122857D01*
X1054547Y-43084761D01*
X840261Y-40201904D02*
X1240261Y-40201904D01*
X883119Y-41001904D01*
D11*
X39467309Y-14878095D02*
X39500642Y-14840000D01*
X39562547Y-14801904D01*
X39705404Y-14801904D01*
X39757785Y-14840000D01*
X39781595Y-14878095D01*
X39800642Y-14954285D01*
X39791119Y-15030476D01*
X39748261Y-15144761D01*
X39348261Y-15601904D01*
X39719690Y-15601904D01*
D12*
X39433976Y-46081904D02*
X39548261Y-46081904D01*
X39610166Y-46043809D01*
X39643500Y-46005714D01*
X39714928Y-45891428D01*
X39762547Y-45739047D01*
X39800642Y-45434285D01*
X39781595Y-45358095D01*
X39757785Y-45320000D01*
X39705404Y-45281904D01*
X39591119Y-45281904D01*
X39529214Y-45320000D01*
X39495880Y-45358095D01*
X39457785Y-45434285D01*
X39433976Y-45624761D01*
X39453023Y-45700952D01*
X39476833Y-45739047D01*
X39529214Y-45777142D01*
X39643500Y-45777142D01*
X39705404Y-45739047D01*
X39738738Y-45700952D01*
X39776833Y-45624761D01*
D11*
X1183119Y-30041904D02*
X897404Y-30041904D01*
X821214Y-30422857D01*
X854547Y-30384761D01*
X916452Y-30346666D01*
X1059309Y-30346666D01*
X1111690Y-30384761D01*
X1135500Y-30422857D01*
X1154547Y-30499047D01*
X1130738Y-30689523D01*
X1092642Y-30765714D01*
X1059309Y-30803809D01*
X997404Y-30841904D01*
X854547Y-30841904D01*
X802166Y-30803809D01*
X778357Y-30765714D01*
X1121214Y-27768571D02*
X1054547Y-28301904D01*
X1016452Y-27463809D02*
X802166Y-28035238D01*
X1173595Y-28035238D01*
X1111690Y-13061904D02*
X768833Y-13061904D01*
X940261Y-13061904D02*
X1040261Y-12261904D01*
X968833Y-12376190D01*
X902166Y-12452380D01*
X840261Y-12490476D01*
X859309Y-14878095D02*
X892642Y-14840000D01*
X954547Y-14801904D01*
X1097404Y-14801904D01*
X1149785Y-14840000D01*
X1173595Y-14878095D01*
X1192642Y-14954285D01*
X1183119Y-15030476D01*
X1140261Y-15144761D01*
X740261Y-15601904D01*
X1111690Y-15601904D01*
X39791119Y-30041904D02*
X39505404Y-30041904D01*
X39429214Y-30422857D01*
X39462547Y-30384761D01*
X39524452Y-30346666D01*
X39667309Y-30346666D01*
X39719690Y-30384761D01*
X39743500Y-30422857D01*
X39762547Y-30499047D01*
X39738738Y-30689523D01*
X39700642Y-30765714D01*
X39667309Y-30803809D01*
X39605404Y-30841904D01*
X39462547Y-30841904D01*
X39410166Y-30803809D01*
X39386357Y-30765714D01*
D12*
X39762547Y-32581904D02*
X39648261Y-32581904D01*
X39586357Y-32620000D01*
X39553023Y-32658095D01*
X39481595Y-32772380D01*
X39433976Y-32924761D01*
X39395880Y-33229523D01*
X39414928Y-33305714D01*
X39438738Y-33343809D01*
X39491119Y-33381904D01*
X39605404Y-33381904D01*
X39667309Y-33343809D01*
X39700642Y-33305714D01*
X39738738Y-33229523D01*
X39762547Y-33039047D01*
X39743500Y-32962857D01*
X39719690Y-32924761D01*
X39667309Y-32886666D01*
X39553023Y-32886666D01*
X39491119Y-32924761D01*
X39457785Y-32962857D01*
X39419690Y-33039047D01*
D11*
X39729214Y-27768571D02*
X39662547Y-28301904D01*
X39624452Y-27463809D02*
X39410166Y-28035238D01*
X39781595Y-28035238D01*
D12*
X39548261Y-43084761D02*
X39495880Y-43046666D01*
X39472071Y-43008571D01*
X39453023Y-42932380D01*
X39457785Y-42894285D01*
X39495880Y-42818095D01*
X39529214Y-42780000D01*
X39591119Y-42741904D01*
X39705404Y-42741904D01*
X39757785Y-42780000D01*
X39781595Y-42818095D01*
X39800642Y-42894285D01*
X39795880Y-42932380D01*
X39757785Y-43008571D01*
X39724452Y-43046666D01*
X39662547Y-43084761D01*
X39548261Y-43084761D01*
X39486357Y-43122857D01*
X39453023Y-43160952D01*
X39414928Y-43237142D01*
X39395880Y-43389523D01*
X39414928Y-43465714D01*
X39438738Y-43503809D01*
X39491119Y-43541904D01*
X39605404Y-43541904D01*
X39667309Y-43503809D01*
X39700642Y-43465714D01*
X39738738Y-43389523D01*
X39757785Y-43237142D01*
X39738738Y-43160952D01*
X39714928Y-43122857D01*
X39662547Y-43084761D01*
X1154547Y-32581904D02*
X1040261Y-32581904D01*
X978357Y-32620000D01*
X945023Y-32658095D01*
X873595Y-32772380D01*
X825976Y-32924761D01*
X787880Y-33229523D01*
X806928Y-33305714D01*
X830738Y-33343809D01*
X883119Y-33381904D01*
X997404Y-33381904D01*
X1059309Y-33343809D01*
X1092642Y-33305714D01*
X1130738Y-33229523D01*
X1154547Y-33039047D01*
X1135500Y-32962857D01*
X1111690Y-32924761D01*
X1059309Y-32886666D01*
X945023Y-32886666D01*
X883119Y-32924761D01*
X849785Y-32962857D01*
X811690Y-33039047D01*
D11*
X840261Y-17341904D02*
X1211690Y-17341904D01*
X973595Y-17646666D01*
X1059309Y-17646666D01*
X1111690Y-17684761D01*
X1135500Y-17722857D01*
X1154547Y-17799047D01*
X1130738Y-17989523D01*
X1092642Y-18065714D01*
X1059309Y-18103809D01*
X997404Y-18141904D01*
X825976Y-18141904D01*
X773595Y-18103809D01*
X749785Y-18065714D01*
D12*
X825976Y-46081904D02*
X940261Y-46081904D01*
X1002166Y-46043809D01*
X1035500Y-46005714D01*
X1106928Y-45891428D01*
X1154547Y-45739047D01*
X1192642Y-45434285D01*
X1173595Y-45358095D01*
X1149785Y-45320000D01*
X1097404Y-45281904D01*
X983119Y-45281904D01*
X921214Y-45320000D01*
X887880Y-45358095D01*
X849785Y-45434285D01*
X825976Y-45624761D01*
X845023Y-45700952D01*
X868833Y-45739047D01*
X921214Y-45777142D01*
X1035500Y-45777142D01*
X1097404Y-45739047D01*
X1130738Y-45700952D01*
X1168833Y-45624761D01*
X39448261Y-40201904D02*
X39848261Y-40201904D01*
X39491119Y-41001904D01*
D11*
X39448261Y-17341904D02*
X39819690Y-17341904D01*
X39581595Y-17646666D01*
X39667309Y-17646666D01*
X39719690Y-17684761D01*
X39743500Y-17722857D01*
X39762547Y-17799047D01*
X39738738Y-17989523D01*
X39700642Y-18065714D01*
X39667309Y-18103809D01*
X39605404Y-18141904D01*
X39433976Y-18141904D01*
X39381595Y-18103809D01*
X39357785Y-18065714D01*
%TO.C,R11*%
X19924500Y-43052276D02*
X19924500Y-43561724D01*
X20969500Y-43052276D02*
X20969500Y-43561724D01*
%TO.C,R5*%
X21096500Y-10667276D02*
X21096500Y-11176724D01*
X20051500Y-10667276D02*
X20051500Y-11176724D01*
%TO.C,R2*%
X8142500Y-35433724D02*
X8142500Y-34924276D01*
X7097500Y-35433724D02*
X7097500Y-34924276D01*
%TO.C,R18*%
X24115500Y-23113276D02*
X24115500Y-23622724D01*
X25160500Y-23113276D02*
X25160500Y-23622724D01*
%TO.C,C4*%
X22227000Y-35325267D02*
X22227000Y-35032733D01*
X21207000Y-35325267D02*
X21207000Y-35032733D01*
%TO.C,D2*%
X18760000Y-54420000D02*
X18760000Y-54576000D01*
X18760000Y-52104000D02*
X18760000Y-52260000D01*
X21361130Y-52260163D02*
G75*
G03*
X19279039Y-52260000I-1041130J-1079837D01*
G01*
X18760000Y-54575516D02*
G75*
G03*
X21992335Y-54418608I1560000J1235516D01*
G01*
X21992335Y-52261392D02*
G75*
G03*
X18760000Y-52104484I-1672335J-1078608D01*
G01*
X19279039Y-54420000D02*
G75*
G03*
X21361130Y-54419837I1040961J1080000D01*
G01*
%TO.C,D1*%
X18760000Y-6160000D02*
X18760000Y-6316000D01*
X18760000Y-3844000D02*
X18760000Y-4000000D01*
X21992335Y-4001392D02*
G75*
G03*
X18760000Y-3844484I-1672335J-1078608D01*
G01*
X19279039Y-6160000D02*
G75*
G03*
X21361130Y-6159837I1040961J1080000D01*
G01*
X21361130Y-4000163D02*
G75*
G03*
X19279039Y-4000000I-1041130J-1079837D01*
G01*
X18760000Y-6315516D02*
G75*
G03*
X21992335Y-6158608I1560000J1235516D01*
G01*
D13*
%TO.C,RV3*%
X24980000Y-20090000D02*
X27460000Y-20090000D01*
X27460000Y-10390000D02*
X24980000Y-10390000D01*
X24980000Y-10390000D02*
X24980000Y-20090000D01*
X35980000Y-10390000D02*
X35980000Y-20090000D01*
X33500000Y-10390000D02*
X35980000Y-10390000D01*
X35980000Y-20090000D02*
X33500000Y-20090000D01*
D14*
X23580000Y-10840000D02*
G75*
G03*
X23580000Y-10840000I-100000J0D01*
G01*
D13*
%TO.C,RV1*%
X15720000Y-10390000D02*
X18200000Y-10390000D01*
X18200000Y-10390000D02*
X18200000Y-20090000D01*
X7200000Y-10390000D02*
X7200000Y-20090000D01*
X7200000Y-20090000D02*
X9680000Y-20090000D01*
X9680000Y-10390000D02*
X7200000Y-10390000D01*
X18200000Y-20090000D02*
X15720000Y-20090000D01*
D14*
X5800000Y-10840000D02*
G75*
G03*
X5800000Y-10840000I-100000J0D01*
G01*
D11*
%TO.C,R20*%
X24115500Y-30987276D02*
X24115500Y-31496724D01*
X25160500Y-30987276D02*
X25160500Y-31496724D01*
%TO.C,R21*%
X28081500Y-23622724D02*
X28081500Y-23113276D01*
X27036500Y-23622724D02*
X27036500Y-23113276D01*
%TO.C,kibuzzard-65FD5706*%
G36*
X32067500Y-52990750D02*
G01*
X32067500Y-54451250D01*
X28892500Y-54451250D01*
X28892500Y-54260750D01*
X29686250Y-54260750D01*
X30575250Y-54260750D01*
X30575250Y-53371750D01*
X30765750Y-53371750D01*
X30765750Y-54260750D01*
X31273750Y-54260750D01*
X31273750Y-53181250D01*
X30384750Y-53181250D01*
X30384750Y-54070250D01*
X30194250Y-54070250D01*
X30194250Y-53181250D01*
X29686250Y-53181250D01*
X29686250Y-54260750D01*
X28892500Y-54260750D01*
X28892500Y-52990750D01*
X32067500Y-52990750D01*
G37*
G36*
X30765750Y-55467250D02*
G01*
X30575250Y-55467250D01*
X30575250Y-54641750D01*
X30765750Y-54641750D01*
X30765750Y-55467250D01*
G37*
G36*
X32067500Y-51974750D02*
G01*
X32067500Y-53181250D01*
X28892500Y-53181250D01*
X28892500Y-52673250D01*
X29686250Y-52673250D01*
X31083250Y-52673250D01*
X31083250Y-52990750D01*
X31273750Y-52990750D01*
X31273750Y-52673250D01*
X31559500Y-52673250D01*
X31559500Y-52990750D01*
X31750000Y-52990750D01*
X31750000Y-52165250D01*
X29686250Y-52165250D01*
X29686250Y-52673250D01*
X28892500Y-52673250D01*
X28892500Y-51974750D01*
X32067500Y-51974750D01*
G37*
G36*
X32067500Y-55657750D02*
G01*
X32067500Y-56864250D01*
X28892500Y-56864250D01*
X28892500Y-56673750D01*
X29686250Y-56673750D01*
X29876750Y-56673750D01*
X29876750Y-56356250D01*
X31083250Y-56356250D01*
X31083250Y-56673750D01*
X31273750Y-56673750D01*
X31273750Y-56356250D01*
X31559500Y-56356250D01*
X31559500Y-55848250D01*
X29686250Y-55848250D01*
X29686250Y-56673750D01*
X28892500Y-56673750D01*
X28892500Y-55657750D01*
X32067500Y-55657750D01*
G37*
G36*
X32067500Y-54260750D02*
G01*
X32067500Y-55848250D01*
X28892500Y-55848250D01*
X28892500Y-55657750D01*
X29686250Y-55657750D01*
X30194250Y-55657750D01*
X30194250Y-54641750D01*
X30384750Y-54641750D01*
X30384750Y-55657750D01*
X31273750Y-55657750D01*
X31273750Y-54451250D01*
X29686250Y-54451250D01*
X29686250Y-55657750D01*
X28892500Y-55657750D01*
X28892500Y-54260750D01*
X32067500Y-54260750D01*
G37*
G36*
X32067500Y-50958750D02*
G01*
X32067500Y-52165250D01*
X28892500Y-52165250D01*
X28892500Y-51657250D01*
X29686250Y-51657250D01*
X31083250Y-51657250D01*
X31083250Y-51974750D01*
X31273750Y-51974750D01*
X31273750Y-51657250D01*
X31559500Y-51657250D01*
X31559500Y-51974750D01*
X31750000Y-51974750D01*
X31750000Y-51149250D01*
X29686250Y-51149250D01*
X29686250Y-51657250D01*
X28892500Y-51657250D01*
X28892500Y-50958750D01*
X32067500Y-50958750D01*
G37*
G36*
X32067500Y-49561750D02*
G01*
X32067500Y-51149250D01*
X28892500Y-51149250D01*
X28892500Y-50958750D01*
X29686250Y-50958750D01*
X31273750Y-50958750D01*
X31273750Y-49752250D01*
X29686250Y-49752250D01*
X29686250Y-50958750D01*
X28892500Y-50958750D01*
X28892500Y-49561750D01*
X32067500Y-49561750D01*
G37*
G36*
X30575250Y-50768250D02*
G01*
X30384750Y-50768250D01*
X30384750Y-49942750D01*
X30575250Y-49942750D01*
X30575250Y-50768250D01*
G37*
%TO.C,R22*%
X27954500Y-34900776D02*
X27954500Y-35410224D01*
X26909500Y-34900776D02*
X26909500Y-35410224D01*
%TO.C,C1*%
X16766000Y-23221733D02*
X16766000Y-23514267D01*
X15746000Y-23221733D02*
X15746000Y-23514267D01*
%TO.C,R9*%
X21096500Y-19304724D02*
X21096500Y-18795276D01*
X20051500Y-19304724D02*
X20051500Y-18795276D01*
%TO.C,C2*%
X13972000Y-35325267D02*
X13972000Y-35032733D01*
X12952000Y-35325267D02*
X12952000Y-35032733D01*
%TO.C,kibuzzard-65FD5706*%
G36*
X32067500Y-2952750D02*
G01*
X32067500Y-4159250D01*
X28892500Y-4159250D01*
X28892500Y-3651250D01*
X29686250Y-3651250D01*
X31083250Y-3651250D01*
X31083250Y-3968750D01*
X31273750Y-3968750D01*
X31273750Y-3651250D01*
X31559500Y-3651250D01*
X31559500Y-3968750D01*
X31750000Y-3968750D01*
X31750000Y-3143250D01*
X29686250Y-3143250D01*
X29686250Y-3651250D01*
X28892500Y-3651250D01*
X28892500Y-2952750D01*
X32067500Y-2952750D01*
G37*
G36*
X30575250Y-2762250D02*
G01*
X30384750Y-2762250D01*
X30384750Y-1936750D01*
X30575250Y-1936750D01*
X30575250Y-2762250D01*
G37*
G36*
X30765750Y-7461250D02*
G01*
X30575250Y-7461250D01*
X30575250Y-6635750D01*
X30765750Y-6635750D01*
X30765750Y-7461250D01*
G37*
G36*
X32067500Y-6254750D02*
G01*
X32067500Y-7842250D01*
X28892500Y-7842250D01*
X28892500Y-7651750D01*
X29686250Y-7651750D01*
X30194250Y-7651750D01*
X30194250Y-6635750D01*
X30384750Y-6635750D01*
X30384750Y-7651750D01*
X31273750Y-7651750D01*
X31273750Y-6445250D01*
X29686250Y-6445250D01*
X29686250Y-7651750D01*
X28892500Y-7651750D01*
X28892500Y-6254750D01*
X32067500Y-6254750D01*
G37*
G36*
X32067500Y-1555750D02*
G01*
X32067500Y-3143250D01*
X28892500Y-3143250D01*
X28892500Y-2952750D01*
X29686250Y-2952750D01*
X31273750Y-2952750D01*
X31273750Y-1746250D01*
X29686250Y-1746250D01*
X29686250Y-2952750D01*
X28892500Y-2952750D01*
X28892500Y-1555750D01*
X32067500Y-1555750D01*
G37*
G36*
X32067500Y-4984750D02*
G01*
X32067500Y-6445250D01*
X28892500Y-6445250D01*
X28892500Y-6254750D01*
X29686250Y-6254750D01*
X30575250Y-6254750D01*
X30575250Y-5365750D01*
X30765750Y-5365750D01*
X30765750Y-6254750D01*
X31273750Y-6254750D01*
X31273750Y-5175250D01*
X30384750Y-5175250D01*
X30384750Y-6064250D01*
X30194250Y-6064250D01*
X30194250Y-5175250D01*
X29686250Y-5175250D01*
X29686250Y-6254750D01*
X28892500Y-6254750D01*
X28892500Y-4984750D01*
X32067500Y-4984750D01*
G37*
G36*
X32067500Y-3968750D02*
G01*
X32067500Y-5175250D01*
X28892500Y-5175250D01*
X28892500Y-4667250D01*
X29686250Y-4667250D01*
X31083250Y-4667250D01*
X31083250Y-4984750D01*
X31273750Y-4984750D01*
X31273750Y-4667250D01*
X31559500Y-4667250D01*
X31559500Y-4984750D01*
X31750000Y-4984750D01*
X31750000Y-4159250D01*
X29686250Y-4159250D01*
X29686250Y-4667250D01*
X28892500Y-4667250D01*
X28892500Y-3968750D01*
X32067500Y-3968750D01*
G37*
G36*
X32067500Y-7651750D02*
G01*
X32067500Y-8858250D01*
X28892500Y-8858250D01*
X28892500Y-8667750D01*
X29686250Y-8667750D01*
X29876750Y-8667750D01*
X29876750Y-8350250D01*
X31083250Y-8350250D01*
X31083250Y-8667750D01*
X31273750Y-8667750D01*
X31273750Y-8350250D01*
X31559500Y-8350250D01*
X31559500Y-7842250D01*
X29686250Y-7842250D01*
X29686250Y-8667750D01*
X28892500Y-8667750D01*
X28892500Y-7651750D01*
X32067500Y-7651750D01*
G37*
%TO.C,R6*%
X20051500Y-15240724D02*
X20051500Y-14731276D01*
X21096500Y-15240724D02*
X21096500Y-14731276D01*
%TO.C,R15*%
X7126500Y-27583224D02*
X7126500Y-27073776D01*
X6081500Y-27583224D02*
X6081500Y-27073776D01*
%TO.C,R10*%
X20715500Y-27432724D02*
X20715500Y-26923276D01*
X19670500Y-27432724D02*
X19670500Y-26923276D01*
D13*
%TO.C,RV2*%
X18200000Y-38330000D02*
X18200000Y-48030000D01*
X15720000Y-38330000D02*
X18200000Y-38330000D01*
X7200000Y-48030000D02*
X9680000Y-48030000D01*
X18200000Y-48030000D02*
X15720000Y-48030000D01*
X9680000Y-38330000D02*
X7200000Y-38330000D01*
X7200000Y-38330000D02*
X7200000Y-48030000D01*
D14*
X5800000Y-38780000D02*
G75*
G03*
X5800000Y-38780000I-100000J0D01*
G01*
D11*
%TO.C,R1*%
X21321500Y-23113276D02*
X21321500Y-23622724D01*
X22366500Y-23113276D02*
X22366500Y-23622724D01*
%TO.C,kibuzzard-65FD570C*%
G36*
X12604750Y-1539875D02*
G01*
X12414250Y-1539875D01*
X12414250Y-714375D01*
X12604750Y-714375D01*
X12604750Y-1539875D01*
G37*
G36*
X14287500Y-7604125D02*
G01*
X14287500Y-8810625D01*
X11112500Y-8810625D01*
X11112500Y-8620125D01*
X11906250Y-8620125D01*
X12096750Y-8620125D01*
X12096750Y-8302625D01*
X13303250Y-8302625D01*
X13303250Y-8620125D01*
X13493750Y-8620125D01*
X13493750Y-8302625D01*
X13779500Y-8302625D01*
X13779500Y-7794625D01*
X11906250Y-7794625D01*
X11906250Y-8620125D01*
X11112500Y-8620125D01*
X11112500Y-7604125D01*
X14287500Y-7604125D01*
G37*
G36*
X14287500Y-333375D02*
G01*
X14287500Y-1920875D01*
X11112500Y-1920875D01*
X11112500Y-1730375D01*
X11906250Y-1730375D01*
X13493750Y-1730375D01*
X13493750Y-523875D01*
X12985750Y-523875D01*
X12985750Y-1539875D01*
X12795250Y-1539875D01*
X12795250Y-523875D01*
X11906250Y-523875D01*
X11906250Y-1730375D01*
X11112500Y-1730375D01*
X11112500Y-333375D01*
X14287500Y-333375D01*
G37*
G36*
X14287500Y-5159375D02*
G01*
X14287500Y-6746875D01*
X11112500Y-6746875D01*
X11112500Y-6556375D01*
X11906250Y-6556375D01*
X12414250Y-6556375D01*
X12414250Y-5540375D01*
X12604750Y-5540375D01*
X12604750Y-6556375D01*
X13493750Y-6556375D01*
X13493750Y-5349875D01*
X11906250Y-5349875D01*
X11906250Y-6556375D01*
X11112500Y-6556375D01*
X11112500Y-5159375D01*
X14287500Y-5159375D01*
G37*
G36*
X14287500Y-3762375D02*
G01*
X14287500Y-5349875D01*
X11112500Y-5349875D01*
X11112500Y-5000625D01*
X11906250Y-5000625D01*
X12350750Y-5159375D01*
X13493750Y-5159375D01*
X13493750Y-4651375D01*
X12096750Y-4651375D01*
X12096750Y-4460875D01*
X13493750Y-4460875D01*
X13493750Y-3952875D01*
X12350750Y-3952875D01*
X11906250Y-4111625D01*
X11906250Y-5000625D01*
X11112500Y-5000625D01*
X11112500Y-3762375D01*
X14287500Y-3762375D01*
G37*
G36*
X14287500Y-2746375D02*
G01*
X14287500Y-3952875D01*
X11112500Y-3952875D01*
X11112500Y-3762375D01*
X11906250Y-3762375D01*
X12096750Y-3762375D01*
X12096750Y-3444875D01*
X13303250Y-3444875D01*
X13303250Y-3762375D01*
X13493750Y-3762375D01*
X13493750Y-3444875D01*
X13779500Y-3444875D01*
X13779500Y-2936875D01*
X11906250Y-2936875D01*
X11906250Y-3762375D01*
X11112500Y-3762375D01*
X11112500Y-2746375D01*
X14287500Y-2746375D01*
G37*
G36*
X14287500Y-1730375D02*
G01*
X14287500Y-2936875D01*
X11112500Y-2936875D01*
X11112500Y-2746375D01*
X11906250Y-2746375D01*
X12096750Y-2746375D01*
X12096750Y-2428875D01*
X13303250Y-2428875D01*
X13303250Y-2746375D01*
X13493750Y-2746375D01*
X13493750Y-2428875D01*
X13779500Y-2428875D01*
X13779500Y-1920875D01*
X11906250Y-1920875D01*
X11906250Y-2746375D01*
X11112500Y-2746375D01*
X11112500Y-1730375D01*
X14287500Y-1730375D01*
G37*
G36*
X12985750Y-6365875D02*
G01*
X12795250Y-6365875D01*
X12795250Y-5540375D01*
X12985750Y-5540375D01*
X12985750Y-6365875D01*
G37*
G36*
X14287500Y-6556375D02*
G01*
X14287500Y-7794625D01*
X11112500Y-7794625D01*
X11112500Y-7254875D01*
X11906250Y-7254875D01*
X13303250Y-7254875D01*
X13303250Y-7604125D01*
X13493750Y-7604125D01*
X13493750Y-6746875D01*
X11906250Y-6746875D01*
X11906250Y-7254875D01*
X11112500Y-7254875D01*
X11112500Y-6556375D01*
X14287500Y-6556375D01*
G37*
%TO.C,R13*%
X10145500Y-23622724D02*
X10145500Y-23113276D01*
X11190500Y-23622724D02*
X11190500Y-23113276D01*
%TO.C,R7*%
X19924500Y-39243724D02*
X19924500Y-38734276D01*
X20969500Y-39243724D02*
X20969500Y-38734276D01*
%TO.C,C3*%
X7110000Y-23221733D02*
X7110000Y-23514267D01*
X8130000Y-23221733D02*
X8130000Y-23514267D01*
%TO.C,C6*%
X33907000Y-31414767D02*
X33907000Y-31122233D01*
X34927000Y-31414767D02*
X34927000Y-31122233D01*
%TO.C,R3*%
X19572500Y-23622724D02*
X19572500Y-23113276D01*
X18527500Y-23622724D02*
X18527500Y-23113276D01*
%TO.C,U2*%
X32278000Y-29210000D02*
X32278000Y-31160000D01*
X27158000Y-29210000D02*
X27158000Y-27260000D01*
X27158000Y-29210000D02*
X27158000Y-31160000D01*
X32278000Y-29210000D02*
X32278000Y-25760000D01*
%TO.C,C5*%
X12952000Y-23514267D02*
X12952000Y-23221733D01*
X13972000Y-23514267D02*
X13972000Y-23221733D01*
%TO.C,R16*%
X25160500Y-35433724D02*
X25160500Y-34924276D01*
X24115500Y-35433724D02*
X24115500Y-34924276D01*
%TO.C,R14*%
X18527500Y-34924276D02*
X18527500Y-35433724D01*
X19572500Y-34924276D02*
X19572500Y-35433724D01*
%TO.C,R8*%
X20969500Y-47243276D02*
X20969500Y-47752724D01*
X19924500Y-47243276D02*
X19924500Y-47752724D01*
%TO.C,R19*%
X29703500Y-34924276D02*
X29703500Y-35433724D01*
X30748500Y-34924276D02*
X30748500Y-35433724D01*
%TO.C,R12*%
X16778500Y-35457224D02*
X16778500Y-34947776D01*
X15733500Y-35457224D02*
X15733500Y-34947776D01*
%TO.C,R17*%
X29830500Y-23622724D02*
X29830500Y-23113276D01*
X30875500Y-23622724D02*
X30875500Y-23113276D01*
%TO.C,R4*%
X10145500Y-34924276D02*
X10145500Y-35433724D01*
X11190500Y-34924276D02*
X11190500Y-35433724D01*
D13*
%TO.C,RV4*%
X27460000Y-38330000D02*
X24980000Y-38330000D01*
X35980000Y-38330000D02*
X35980000Y-48030000D01*
X24980000Y-38330000D02*
X24980000Y-48030000D01*
X24980000Y-48030000D02*
X27460000Y-48030000D01*
X33500000Y-38330000D02*
X35980000Y-38330000D01*
X35980000Y-48030000D02*
X33500000Y-48030000D01*
D14*
X23580000Y-38780000D02*
G75*
G03*
X23580000Y-38780000I-100000J0D01*
G01*
D11*
%TO.C,U1*%
X9027000Y-29210000D02*
X9027000Y-31160000D01*
X17897000Y-29210000D02*
X17897000Y-25760000D01*
X9027000Y-29210000D02*
X9027000Y-27260000D01*
X17897000Y-29210000D02*
X17897000Y-31160000D01*
%TO.C,kibuzzard-65FD570C*%
G36*
X14160500Y-53038375D02*
G01*
X14160500Y-54625875D01*
X10985500Y-54625875D01*
X10985500Y-54276625D01*
X11779250Y-54276625D01*
X12223750Y-54435375D01*
X13366750Y-54435375D01*
X13366750Y-53927375D01*
X11969750Y-53927375D01*
X11969750Y-53736875D01*
X13366750Y-53736875D01*
X13366750Y-53228875D01*
X12223750Y-53228875D01*
X11779250Y-53387625D01*
X11779250Y-54276625D01*
X10985500Y-54276625D01*
X10985500Y-53038375D01*
X14160500Y-53038375D01*
G37*
G36*
X14160500Y-52022375D02*
G01*
X14160500Y-53228875D01*
X10985500Y-53228875D01*
X10985500Y-53038375D01*
X11779250Y-53038375D01*
X11969750Y-53038375D01*
X11969750Y-52720875D01*
X13176250Y-52720875D01*
X13176250Y-53038375D01*
X13366750Y-53038375D01*
X13366750Y-52720875D01*
X13652500Y-52720875D01*
X13652500Y-52212875D01*
X11779250Y-52212875D01*
X11779250Y-53038375D01*
X10985500Y-53038375D01*
X10985500Y-52022375D01*
X14160500Y-52022375D01*
G37*
G36*
X12858750Y-55641875D02*
G01*
X12668250Y-55641875D01*
X12668250Y-54816375D01*
X12858750Y-54816375D01*
X12858750Y-55641875D01*
G37*
G36*
X14160500Y-49609375D02*
G01*
X14160500Y-51196875D01*
X10985500Y-51196875D01*
X10985500Y-51006375D01*
X11779250Y-51006375D01*
X13366750Y-51006375D01*
X13366750Y-49799875D01*
X12858750Y-49799875D01*
X12858750Y-50815875D01*
X12668250Y-50815875D01*
X12668250Y-49799875D01*
X11779250Y-49799875D01*
X11779250Y-51006375D01*
X10985500Y-51006375D01*
X10985500Y-49609375D01*
X14160500Y-49609375D01*
G37*
G36*
X14160500Y-51006375D02*
G01*
X14160500Y-52212875D01*
X10985500Y-52212875D01*
X10985500Y-52022375D01*
X11779250Y-52022375D01*
X11969750Y-52022375D01*
X11969750Y-51704875D01*
X13176250Y-51704875D01*
X13176250Y-52022375D01*
X13366750Y-52022375D01*
X13366750Y-51704875D01*
X13652500Y-51704875D01*
X13652500Y-51196875D01*
X11779250Y-51196875D01*
X11779250Y-52022375D01*
X10985500Y-52022375D01*
X10985500Y-51006375D01*
X14160500Y-51006375D01*
G37*
G36*
X14160500Y-54435375D02*
G01*
X14160500Y-56022875D01*
X10985500Y-56022875D01*
X10985500Y-55832375D01*
X11779250Y-55832375D01*
X12287250Y-55832375D01*
X12287250Y-54816375D01*
X12477750Y-54816375D01*
X12477750Y-55832375D01*
X13366750Y-55832375D01*
X13366750Y-54625875D01*
X11779250Y-54625875D01*
X11779250Y-55832375D01*
X10985500Y-55832375D01*
X10985500Y-54435375D01*
X14160500Y-54435375D01*
G37*
G36*
X12477750Y-50815875D02*
G01*
X12287250Y-50815875D01*
X12287250Y-49990375D01*
X12477750Y-49990375D01*
X12477750Y-50815875D01*
G37*
G36*
X14160500Y-56880125D02*
G01*
X14160500Y-58086625D01*
X10985500Y-58086625D01*
X10985500Y-57896125D01*
X11779250Y-57896125D01*
X11969750Y-57896125D01*
X11969750Y-57578625D01*
X13176250Y-57578625D01*
X13176250Y-57896125D01*
X13366750Y-57896125D01*
X13366750Y-57578625D01*
X13652500Y-57578625D01*
X13652500Y-57070625D01*
X11779250Y-57070625D01*
X11779250Y-57896125D01*
X10985500Y-57896125D01*
X10985500Y-56880125D01*
X14160500Y-56880125D01*
G37*
G36*
X14160500Y-55832375D02*
G01*
X14160500Y-57070625D01*
X10985500Y-57070625D01*
X10985500Y-56530875D01*
X11779250Y-56530875D01*
X13176250Y-56530875D01*
X13176250Y-56880125D01*
X13366750Y-56880125D01*
X13366750Y-56022875D01*
X11779250Y-56022875D01*
X11779250Y-56530875D01*
X10985500Y-56530875D01*
X10985500Y-55832375D01*
X14160500Y-55832375D01*
G37*
%TD*%
%LPC*%
D15*
%TO.C,R11*%
X20447000Y-42394500D03*
X20447000Y-44219500D03*
%TD*%
%TO.C,R5*%
X20574000Y-10009500D03*
X20574000Y-11834500D03*
%TD*%
D16*
%TO.C,R2*%
X7620000Y-36091500D03*
X7620000Y-34266500D03*
%TD*%
D15*
%TO.C,R18*%
X24638000Y-22455500D03*
X24638000Y-24280500D03*
%TD*%
D17*
%TO.C,C4*%
X21717000Y-36041500D03*
X21717000Y-34316500D03*
%TD*%
D18*
%TO.C,D2*%
X19050000Y-53340000D03*
D19*
X21590000Y-53340000D03*
%TD*%
D18*
%TO.C,D1*%
X19050000Y-5080000D03*
D19*
X21590000Y-5080000D03*
%TD*%
D20*
%TO.C,J1*%
X2540000Y-12700000D03*
D21*
X2540000Y-15240000D03*
X2540000Y-17780000D03*
%TD*%
D22*
%TO.C,RV3*%
X30480000Y-19640000D03*
X30480000Y-10840000D03*
D18*
X23480000Y-12740000D03*
D19*
X23480000Y-15240000D03*
X23480000Y-17740000D03*
%TD*%
D22*
%TO.C,RV1*%
X12700000Y-19640000D03*
X12700000Y-10840000D03*
D18*
X5700000Y-12740000D03*
D19*
X5700000Y-15240000D03*
X5700000Y-17740000D03*
%TD*%
D15*
%TO.C,R20*%
X24638000Y-30329500D03*
X24638000Y-32154500D03*
%TD*%
D16*
%TO.C,R21*%
X27559000Y-24280500D03*
X27559000Y-22455500D03*
%TD*%
D23*
%TO.C,H2*%
X5080000Y-5080000D03*
%TD*%
D15*
%TO.C,R22*%
X27432000Y-34243000D03*
X27432000Y-36068000D03*
%TD*%
D24*
%TO.C,C1*%
X16256000Y-22505500D03*
X16256000Y-24230500D03*
%TD*%
D16*
%TO.C,R9*%
X20574000Y-19962500D03*
X20574000Y-18137500D03*
%TD*%
D17*
%TO.C,C2*%
X13462000Y-36041500D03*
X13462000Y-34316500D03*
%TD*%
D20*
%TO.C,J2*%
X2540000Y-27940000D03*
D21*
X2540000Y-30480000D03*
X2540000Y-33020000D03*
%TD*%
D20*
%TO.C,J6*%
X2540000Y-40640000D03*
D21*
X2540000Y-43180000D03*
X2540000Y-45720000D03*
%TD*%
D16*
%TO.C,R6*%
X20574000Y-15898500D03*
X20574000Y-14073500D03*
%TD*%
%TO.C,R15*%
X6604000Y-28241000D03*
X6604000Y-26416000D03*
%TD*%
%TO.C,R10*%
X20193000Y-28090500D03*
X20193000Y-26265500D03*
%TD*%
D22*
%TO.C,RV2*%
X12700000Y-38780000D03*
X12700000Y-47580000D03*
D18*
X5700000Y-40680000D03*
D19*
X5700000Y-43180000D03*
X5700000Y-45680000D03*
%TD*%
D15*
%TO.C,R1*%
X21844000Y-22455500D03*
X21844000Y-24280500D03*
%TD*%
D16*
%TO.C,R13*%
X10668000Y-24280500D03*
X10668000Y-22455500D03*
%TD*%
%TO.C,R7*%
X20447000Y-39901500D03*
X20447000Y-38076500D03*
%TD*%
D24*
%TO.C,C3*%
X7620000Y-22505500D03*
X7620000Y-24230500D03*
%TD*%
D17*
%TO.C,C6*%
X34417000Y-32131000D03*
X34417000Y-30406000D03*
%TD*%
D20*
%TO.C,J5*%
X38100000Y-27940000D03*
D21*
X38100000Y-30480000D03*
X38100000Y-33020000D03*
%TD*%
D16*
%TO.C,R3*%
X19050000Y-24280500D03*
X19050000Y-22455500D03*
%TD*%
D25*
%TO.C,H1*%
X35560000Y-53340000D03*
%TD*%
D26*
%TO.C,U2*%
X31623000Y-26735000D03*
X30353000Y-26735000D03*
X29083000Y-26735000D03*
X27813000Y-26735000D03*
X27813000Y-31685000D03*
X29083000Y-31685000D03*
X30353000Y-31685000D03*
X31623000Y-31685000D03*
%TD*%
D17*
%TO.C,C5*%
X13462000Y-24230500D03*
X13462000Y-22505500D03*
%TD*%
D20*
%TO.C,J3*%
X38100000Y-40640000D03*
D21*
X38100000Y-43180000D03*
X38100000Y-45720000D03*
%TD*%
D16*
%TO.C,R16*%
X24638000Y-36091500D03*
X24638000Y-34266500D03*
%TD*%
D20*
%TO.C,J4*%
X38100000Y-12700000D03*
D21*
X38100000Y-15240000D03*
X38100000Y-17780000D03*
%TD*%
D15*
%TO.C,R14*%
X19050000Y-34266500D03*
X19050000Y-36091500D03*
%TD*%
%TO.C,R8*%
X20447000Y-46585500D03*
X20447000Y-48410500D03*
%TD*%
%TO.C,R19*%
X30226000Y-34266500D03*
X30226000Y-36091500D03*
%TD*%
D25*
%TO.C,H3*%
X5080000Y-53340000D03*
%TD*%
D23*
%TO.C,H4*%
X35560000Y-5080000D03*
%TD*%
D16*
%TO.C,R12*%
X16256000Y-36115000D03*
X16256000Y-34290000D03*
%TD*%
%TO.C,R17*%
X30353000Y-24280500D03*
X30353000Y-22455500D03*
%TD*%
D15*
%TO.C,R4*%
X10668000Y-34266500D03*
X10668000Y-36091500D03*
%TD*%
D22*
%TO.C,RV4*%
X30480000Y-47580000D03*
X30480000Y-38780000D03*
D18*
X23480000Y-40680000D03*
D19*
X23480000Y-43180000D03*
X23480000Y-45680000D03*
%TD*%
D26*
%TO.C,U1*%
X17272000Y-26735000D03*
X16002000Y-26735000D03*
X14732000Y-26735000D03*
X13462000Y-26735000D03*
X12192000Y-26735000D03*
X10922000Y-26735000D03*
X9652000Y-26735000D03*
X9652000Y-31685000D03*
X10922000Y-31685000D03*
X12192000Y-31685000D03*
X13462000Y-31685000D03*
X14732000Y-31685000D03*
X16002000Y-31685000D03*
X17272000Y-31685000D03*
%TD*%
M02*
