%TF.GenerationSoftware,KiCad,Pcbnew,(6.0.9-0)*%
%TF.CreationDate,2024-03-22T17:08:36+01:00*%
%TF.ProjectId,attenuverters,61747465-6e75-4766-9572-746572732e6b,rev?*%
%TF.SameCoordinates,Original*%
%TF.FileFunction,Soldermask,Bot*%
%TF.FilePolarity,Negative*%
%FSLAX46Y46*%
G04 Gerber Fmt 4.6, Leading zero omitted, Abs format (unit mm)*
G04 Created by KiCad (PCBNEW (6.0.9-0)) date 2024-03-22 17:08:36*
%MOMM*%
%LPD*%
G01*
G04 APERTURE LIST*
%ADD10R,1.800000X1.800000*%
%ADD11C,1.800000*%
%ADD12R,1.700000X1.700000*%
%ADD13O,1.700000X1.700000*%
%ADD14O,5.400000X2.700000*%
%ADD15C,3.200000*%
%ADD16C,5.500000*%
G04 APERTURE END LIST*
D10*
%TO.C,D2*%
X19050000Y-53340000D03*
D11*
X21590000Y-53340000D03*
%TD*%
D10*
%TO.C,D1*%
X19050000Y-5080000D03*
D11*
X21590000Y-5080000D03*
%TD*%
D12*
%TO.C,J1*%
X2540000Y-12700000D03*
D13*
X2540000Y-15240000D03*
X2540000Y-17780000D03*
%TD*%
D14*
%TO.C,RV3*%
X30480000Y-19640000D03*
X30480000Y-10840000D03*
D10*
X23480000Y-12740000D03*
D11*
X23480000Y-15240000D03*
X23480000Y-17740000D03*
%TD*%
D14*
%TO.C,RV1*%
X12700000Y-19640000D03*
X12700000Y-10840000D03*
D10*
X5700000Y-12740000D03*
D11*
X5700000Y-15240000D03*
X5700000Y-17740000D03*
%TD*%
D15*
%TO.C,H2*%
X5080000Y-5080000D03*
%TD*%
D12*
%TO.C,J2*%
X2540000Y-27940000D03*
D13*
X2540000Y-30480000D03*
X2540000Y-33020000D03*
%TD*%
D12*
%TO.C,J6*%
X2540000Y-40640000D03*
D13*
X2540000Y-43180000D03*
X2540000Y-45720000D03*
%TD*%
D14*
%TO.C,RV2*%
X12700000Y-38780000D03*
X12700000Y-47580000D03*
D10*
X5700000Y-40680000D03*
D11*
X5700000Y-43180000D03*
X5700000Y-45680000D03*
%TD*%
D12*
%TO.C,J5*%
X38100000Y-27940000D03*
D13*
X38100000Y-30480000D03*
X38100000Y-33020000D03*
%TD*%
D16*
%TO.C,H1*%
X35560000Y-53340000D03*
%TD*%
D12*
%TO.C,J3*%
X38100000Y-40640000D03*
D13*
X38100000Y-43180000D03*
X38100000Y-45720000D03*
%TD*%
D12*
%TO.C,J4*%
X38100000Y-12700000D03*
D13*
X38100000Y-15240000D03*
X38100000Y-17780000D03*
%TD*%
D16*
%TO.C,H3*%
X5080000Y-53340000D03*
%TD*%
D15*
%TO.C,H4*%
X35560000Y-5080000D03*
%TD*%
D14*
%TO.C,RV4*%
X30480000Y-47580000D03*
X30480000Y-38780000D03*
D10*
X23480000Y-40680000D03*
D11*
X23480000Y-43180000D03*
X23480000Y-45680000D03*
%TD*%
M02*
